<svg xmlns="http://www.w3.org/2000/svg" viewBox="1683.6 467.3 41.2 41.2"><g fill="#2b1d24"><path d="M1703.1 489.8q.8 0 1.2-.6-1.2-.8-1.9.4z"/><path d="M1686.5 488.5q.8-.5.6.6l.7-.6c.5.6 0 1.6.6 2.3s1.7.4 2.4.4q1.3 0 2.3-.8c.3-.3.7-1.1 1.1-1.2s1.6.6 2.2.6h2.8c2.5 0 4.3 1.2 6.7-.3l-.7-1c.8-.3.7.6 1.3.5 1 0 1.7-1.1 2-1.9 1-2 1.2-3 3-4.5 1.6-1.4 2.3-4 3.9-5.3 1.8-1.5 2.8-1.8 3.4-4.3 1.2.1.7 2 .7 2.8 0 1.5 1.6.7 1.8 2.4s1.4 3.8 0 5.1c-2.8 2.8-1.9.8-2.3-.3s-1.3 1-1.2 1.6v1.1c0 .7.4 1.6.4 2.3 0 2 2 1.1 1.3 2.5-.7 1-2.8 0-3.6 1 1.9 1.1-1 6-1.3 9q0 2.9-2.6 2l-6.5-1-6.7-.9c-1.7-.2-3.7.1-4.8-1.4l-3.4-4.4-2.5-3c-.9-1.1-1-2.2-1.6-3.3"/></g></svg>
