<svg xmlns="http://www.w3.org/2000/svg" viewBox="1734.3 348.2 113.7 113.7"><path fill="#2b1d24" d="M1742.2 403.8c-.3-.9.4-1.6 1.1-2 1.1-.8.5-1.3-.1-2.1 2-.3 1.8-2.7 2-4.1 0-.8-.8-1.6-.4-2.3q.5-1 .5-2.3c.3-1.5 2.4.5 3 .9 1 .5 1.8-.2 2.9.1q1.7.7 2.3 2.5c.7-1.6 2.6-.7 3.7-1.7q1-.6 1.6-1.6c.4-.7-.4-1 .6-1.5a3 3 0 0 1-1.2-1.4c3.1.4 6.5-1.7 8.9-3.4 2.3-1.7-.7-7 2.3-8.2 1-.4 2.9.2 3.8-.4s-.2-2.3 1.1-2.5c1-.2 2.2.9 3 1.3 1.2.7 2.3.3 3.6.2 1.5-.2 2.9-.3 4 .9s2.5 0 3.8.3c.6.1 1.6 1.5 2 1.9 1.1 1 1.2-.2 2.3 0-.2-1.2 2-1.3 2.5-2 .7-.7.6.2 1.2 0 .3-.2.3-.9.7-.8 1 .1 1.4 2.2 2.8 1.9 1.6-.4-.2-2.4.5-3.4 1.4-2 4.4.4 5.2-.5 1.1-1.2-.5-1.6-.7-2.5-.2-1 1.1-2 1.5-3 1-2.6 4.4-2.9 5.8-.3.4.6-.1 2.6.5 2.8s1.7-.7 2.1.3.2 3.2.3 4.3q0 2 .7 3.8c1.4 3.6 3.6 1.6 5.6-.1.9-.7 2.6 0 3-1a6 6 0 0 1 3-3.1c1.2-.6 5.3-.5 3.6 1.5 1.2.5 3.3-.9 4.4-1.4 1-.5 4 .4 4.5 1.5-.9.4-1.7-.4-2.5 0-1 .5-.4 1.4.7 1.8q-1.6.4-2.8 1.3c-1.2 1.1-2-.5-3.2-.2-2.5.5-5 .2-7.3.6l-3.1 1c-1.2.4-1.5 2-2.2 2.4-.9.4-1.2-.5-2 .8-.5.6-1.4 1.5-1.6 2.1-.2.8 1 1.3 1.4 1.7 1 1.3 2.2 2.5 2.8 4.4-1 1.3.5 1.2.5 2-.7.4-.6 1-.8 1.6-.6 1.4-1.7 1.7-2.1 2.4q-.3.5-.1 1.1c-.2 0-1 0-.7.5.2.6 1 1 1.4 1.4 1.5 1.6-.9 3.2-2 3.5q-1.7.2-3.5-.2c-.5-.1-2-.7-2.6-.2-1 1.1 2.3 2.1 2.6 3.5.2.7 1.3 1.9 1 2.6s-2 1.6-2.8 1.6c-3 0-2.2 1-2 2.1 0 1 0 2.2-.8 3-.7.8 0 2 .3 2.8.5 1.7.2 3.9-1.6 4.8-1 .6-1.4 0-2-.8-.2-.4-1-.7-1.5-.7-.3-.1.2.1-.2.6-4-1.5-1.7 1.4-6.2 2 .2.8 1.2.9 1.8 1.5q-1.7.9-3.6 1c-1.2.2-1.7-.7-2.4-.7-1.1 0-1.7 2.1-2.5 2.7-1 .7-1.3.7-1.4 2.3 0 1.4.5 2.5.6 3.9q0 .8-.2 1.5l.7 1.2c.7 1.6-5.2 2.6-6 2.8q-1.7.6-3.5.8c-1.4 0-3-.6-4.2 0s-2 1.4-3.4 1q-2-.7-4.2-.6c-3 .4-6.4 1-9.4.2-3.5-1-5.8-2.5-9.3-3.3q2.1-2.7 3.9-5.8c1.1-1.6 2.2-3.4 1.6-5.5-1.3-3.8-7.1-.8-8-5-.6-2.6-.7-4.8-2-7.3-1-2.2-2.3-4.2-.9-6.4 1.2-1.8 1-1.6-1-2.1-1.6-.5-1.9-3.3-1.7-4.3"/></svg>
