<svg xmlns="http://www.w3.org/2000/svg" viewBox="1734.31 348.16 113.72 113.72"><path id="af" d="m 1742.22,403.83 c -0.27,-0.928 0.36,-1.637 1.08,-2.102 1.14,-0.724 0.53,-1.218 -0.1,-2.075 1.92,-0.218 1.84,-2.668 1.97,-4.093 0.1,-0.731 -0.76,-1.577 -0.34,-2.285 0.37,-0.618 0.38,-1.572 0.49,-2.267 0.26,-1.525 2.34,0.523 3.02,0.872 1.02,0.524 1.8,-0.151 2.83,0.132 1.12,0.31 1.97,1.389 2.33,2.457 0.72,-1.519 2.61,-0.682 3.72,-1.68 0.59,-0.534 1.25,-0.806 1.61,-1.561 0.34,-0.702 -0.38,-1 0.57,-1.512 -0.51,-0.355 -0.94,-0.852 -1.15,-1.439 3.1,0.4 6.42,-1.709 8.82,-3.416 2.37,-1.677 -0.62,-6.973 2.3,-8.17 1.06,-0.435 2.92,0.188 3.79,-0.367 0.92,-0.589 -0.17,-2.315 1.16,-2.531 1.01,-0.163 2.14,0.879 2.95,1.328 1.23,0.673 2.3,0.306 3.62,0.134 1.53,-0.2 2.9,-0.239 4.02,0.934 1.13,1.182 2.45,-0.08 3.8,0.296 0.55,0.149 1.56,1.466 2.04,1.904 1.07,0.959 1.18,-0.211 2.28,0.02 -0.19,-1.24 1.91,-1.298 2.52,-1.977 0.63,-0.696 0.54,0.135 1.15,-0.112 0.3,-0.121 0.27,-0.802 0.67,-0.739 1.09,0.167 1.46,2.205 2.8,1.897 1.61,-0.369 -0.16,-2.401 0.5,-3.347 1.39,-2 4.4,0.382 5.27,-0.573 1.08,-1.17 -0.56,-1.6 -0.74,-2.422 -0.21,-0.957 1.14,-2.084 1.49,-3.038 0.96,-2.628 4.39,-2.854 5.86,-0.261 0.34,0.605 -0.16,2.538 0.5,2.754 0.68,0.222 1.66,-0.684 2.08,0.293 0.44,1.027 0.18,3.229 0.23,4.349 0,1.261 0.26,2.553 0.72,3.731 1.43,3.648 3.59,1.641 5.65,-0.09 0.85,-0.711 2.56,0.08 3.02,-1.009 0.62,-1.466 1.53,-2.369 3.01,-3.11 1.1,-0.549 5.29,-0.436 3.5,1.562 1.25,0.524 3.31,-0.875 4.43,-1.433 0.94,-0.467 3.97,0.394 4.5,1.505 -0.84,0.38 -1.67,-0.34 -2.52,0.07 -1,0.486 -0.34,1.353 0.71,1.695 -0.9,0.308 -2.09,0.723 -2.78,1.366 -1.18,1.097 -2.04,-0.52 -3.21,-0.261 -2.48,0.549 -5.03,0.26 -7.31,0.633 -1.09,0.176 -2.02,0.8 -3.09,1.098 -1.21,0.335 -1.45,1.899 -2.23,2.308 -0.85,0.448 -1.12,-0.513 -2.02,0.76 -0.44,0.619 -1.33,1.503 -1.53,2.192 -0.24,0.774 0.9,1.29 1.38,1.655 1.08,1.31 2.22,2.482 2.77,4.433 -1.02,1.236 0.53,1.159 0.5,1.911 -0.63,0.489 -0.51,0.988 -0.78,1.69 -0.54,1.371 -1.71,1.688 -2.1,2.39 -0.19,0.362 -0.26,0.714 -0.11,1.099 -0.21,0.01 -0.89,0.05 -0.72,0.474 0.25,0.598 0.99,0.968 1.42,1.413 1.51,1.554 -0.85,3.194 -1.98,3.44 -1.09,0.24 -2.37,0.03 -3.47,-0.19 -0.54,-0.109 -2.07,-0.676 -2.59,-0.157 -1.12,1.117 2.24,2.132 2.56,3.504 0.16,0.698 1.33,1.875 0.98,2.563 -0.34,0.677 -1.92,1.642 -2.79,1.632 -3.04,-0.04 -2.18,0.906 -2.05,2.107 0.11,0.983 0,2.146 -0.69,2.926 -0.74,0.846 0,1.966 0.27,2.885 0.45,1.72 0.19,3.869 -1.57,4.785 -1.04,0.544 -1.47,-0.02 -1.99,-0.842 -0.21,-0.339 -1.14,-0.642 -1.56,-0.717 -0.27,-0.05 0.2,0.147 -0.22,0.658 -4.01,-1.47 -1.64,1.362 -6.2,1.944 0.23,0.892 1.24,0.929 1.8,1.512 -1.1,0.584 -2.32,0.96 -3.58,1.087 -1.22,0.122 -1.71,-0.736 -2.36,-0.768 -1.16,-0.05 -1.74,2.134 -2.58,2.734 -1.02,0.717 -1.25,0.687 -1.33,2.236 -0.1,1.432 0.5,2.55 0.62,3.937 -0.12,0.546 -0.13,0.916 -0.23,1.467 0.1,0.525 0.53,0.825 0.72,1.253 0.68,1.544 -5.27,2.565 -6.03,2.745 -1.27,0.303 -2.21,0.869 -3.55,0.814 -1.33,-0.06 -2.95,-0.554 -4.19,0.11 -1.2,0.648 -1.97,1.324 -3.37,0.933 -1.31,-0.364 -2.81,-0.778 -4.16,-0.593 -2.99,0.414 -6.43,1.04 -9.42,0.162 -3.5,-1.032 -5.77,-2.494 -9.35,-3.3 1.53,-1.754 2.61,-3.824 3.92,-5.734 1.13,-1.642 2.25,-3.441 1.57,-5.516 -1.25,-3.795 -7.09,-0.798 -8.01,-4.95 -0.58,-2.632 -0.69,-4.918 -1.88,-7.398 -1.04,-2.138 -2.41,-4.209 -0.93,-6.425 1.19,-1.787 0.92,-1.587 -0.94,-2.092 -1.69,-0.463 -1.96,-3.297 -1.79,-4.244" fill="#2B1D24">
		
	</path></svg>
