<svg xmlns="http://www.w3.org/2000/svg" viewBox="1433.3 327.8 29.8 29.8"><path fill="#2b1d24" d="M1442.3 347q.7-1 .4-2.1c1 .1.5-2.3.7-3s-.7-.7-.4-1.5l.6-1.8c.2-1 0-2.2-1.3-1.9-.6-1.6-.5-3.7.5-5 .8-1.2 1-2.9 2.1-.9.7 1.3 1.9-1.5 3 .6.2.4.1.7.5 1 .7.8 1.1 0 2.2 1.5.2.3.5 1.8.4 3-1.2.8.2 2-1 2.5l.7 1.1q.1.4-.1.8c-.2.7.4 1.6.9 2s.4 1.5 1.4 1.4 1 .4 1.2 1.1c1.2 2.7-.7 2.1-1.4 3.8-.2.6-.8 2-1.5 2.3-1.6.9-1.6.8-1 2.4-1.4-.2.6.9-1.4 1.2q-1.6.2-1.6-1.3c-.4-2.4-3.6-3.3-5-5.2q.7.2 1 .8c.8-.8-.6-1.3.1-1.6q-.7-.5-1-1.1"/></svg>
