<svg xmlns="http://www.w3.org/2000/svg" viewBox="1433.34 327.84 29.76 29.76"><path id="al" d="m 1442.26,347.094 c 0.39,-0.666 0.72,-1.45 0.44,-2.231 1.05,0.169 0.51,-2.251 0.73,-3.035 0.17,-0.605 -0.77,-0.635 -0.43,-1.406 0.25,-0.578 0.46,-1.186 0.59,-1.806 0.22,-1.056 0,-2.229 -1.33,-1.89 -0.52,-1.598 -0.5,-3.742 0.51,-5.09 0.83,-1.095 0.97,-2.839 2.13,-0.798 0.73,1.293 1.85,-1.526 2.94,0.559 0.23,0.433 0.19,0.748 0.55,1.094 0.69,0.667 1.15,-0.02 2.2,1.443 0.17,0.247 0.46,1.795 0.39,3.002 -1.14,0.724 0.26,1.875 -0.92,2.436 0.1,0.435 0.43,0.769 0.62,1.137 0,0.317 0.13,0.484 -0.1,0.752 -0.14,0.695 0.43,1.615 0.9,1.988 0.55,0.438 0.39,1.528 1.4,1.41 0.99,-0.116 0.93,0.481 1.24,1.177 1.21,2.702 -0.72,2.071 -1.41,3.781 -0.23,0.575 -0.82,1.905 -1.47,2.249 -1.67,0.887 -1.61,0.818 -0.95,2.427 -1.5,-0.179 0.46,0.899 -1.52,1.225 -1.15,0.189 -1.47,-0.443 -1.61,-1.361 -0.38,-2.39 -3.56,-3.246 -4.94,-5.12 0.48,0.08 0.82,0.339 1.01,0.792 0.72,-0.833 -0.67,-1.36 0.1,-1.656 -0.44,-0.279 -0.8,-0.64 -1.08,-1.079" fill="#2B1D24">
		
	</path></svg>
