<svg xmlns="http://www.w3.org/2000/svg" viewBox="1608.8 337.4 29 29"><path fill="#2b1d24" d="M1610.8 342.5c.8 0 3 .6 4.3 0 1.8-.7 4-.3 6-.3-.2-.4.4-.7.8-.7.3.2 2.7 1.9.7 1.5 1.4 1 3.4 1 4 2.8-2.5.8.4 3.1 1.5 3.8.6.3 2 .6 2 1.4.4 1.5-1.6 1.3-2.4 1.6.8.4 4.2 3.8 5 3.4.5-.2 2.6.5 1.8 1-1.2.7.9 1.7 1.3 2.2-1.3.1-.5 2.3-.1 2.8-.1.2-2.6.7-2.7.3-.8-1.3-1.2-3.2-2.6-4-.5-.3 0-1.6-1-1.8q-.7-.2-1.8.1c-1 .3-1.5-.9-2.4-.4.1-2-2.2-1-3-1-1-.9-2.5-3-4-2.9q-2.3.2-4.4-.7c.5-.4.2-1.2 0-1.7-.5-1-.5-1.2-.1-2.1.6-1.7-2.3-2.3-2.9-5.3"/></svg>
