<svg xmlns="http://www.w3.org/2000/svg" viewBox="1608.82 337.45 28.98 28.98"><path id="am" d="m 1610.82,342.545 c 0.77,-0.05 2.96,0.53 4.24,0.01 1.84,-0.734 4.04,-0.384 5.98,-0.363 -0.1,-0.384 0.5,-0.677 0.89,-0.736 0.23,0.228 2.65,1.937 0.69,1.528 1.33,1.011 3.38,1.026 4.04,2.809 -2.59,0.81 0.29,3.115 1.42,3.786 0.59,0.354 1.93,0.589 2.09,1.394 0.31,1.565 -1.67,1.316 -2.51,1.66 0.87,0.333 4.19,3.74 5.08,3.381 0.46,-0.183 2.6,0.493 1.79,0.979 -1.2,0.723 0.86,1.698 1.27,2.192 -1.26,0.155 -0.55,2.271 -0.1,2.848 -0.15,0.125 -2.56,0.636 -2.7,0.254 -0.79,-1.285 -1.24,-3.185 -2.56,-3.928 -0.57,-0.319 -0.12,-1.678 -1.01,-1.864 -0.56,-0.116 -0.98,-0.1 -1.8,0.138 -1.04,0.294 -1.54,-0.912 -2.42,-0.4 0.13,-2.079 -2.16,-1.121 -2.96,-1.082 -1.11,-0.83 -2.57,-2.897 -4.11,-2.85 -1.59,0.05 -2.95,-0.02 -4.38,-0.747 0.56,-0.379 0.21,-1.14 0,-1.673 -0.45,-0.992 -0.48,-1.205 -0.11,-2.096 0.68,-1.663 -2.25,-2.243 -2.81,-5.263" fill="#2B1D24">
		
	</path></svg>
