<svg xmlns="http://www.w3.org/2000/svg" viewBox="1368.7 727.2 136.5 136.5"><path fill="#2b1d24" d="M1390.1 847.9c0-3.6.9-7.1.5-10.6-.1-.6-.5-1-.2-1.6.3-.8 1.2-1.3 1.5-2.1q.3-1 .4-2.1c.1-.7 1-1.4.7-2-.4-1.1 1.1-4.2 1.4-5.5.3-1.8 0-3.8 1-5.4.7-1.1.2-3.3 1-4s2.1-2.3 2.6-3.3c.8-1.4.4-3.6 2.6-3.8 1.7-.2 1.8-1.4 2.6-2.8 1.9-3.3 2.4-8.5 1.6-12.1q-.6-2.4-2-4.4c-1-1.5-1-2.6-1.6-4.2-.3-.7-1-1.2-1-2q0-1.4-.4-2.7c-.6-1.3-1.8-3 0-3.9q-.8.7-.8 1.5l1.4-2c.5-.5 1.2-.5 1.3-1.2a9 9 0 0 0-1-5.5q-1.5-2.9-2.5-6c-.4-.8-.3-1.8-.6-2.7-.4-1.4-1.6-2.3-2.3-3.5-.6-1-2.6-4.4-.9-5l2.5-.3c1.1-.2 1.7-1.2 3-1.3 5.9-.6 11.8 0 17.8 0q3.3-.2 6.8-.2c2 0 1.6 1.5 2.6 2.9.4.5 0 2.2.2 3l1.5 3.9c.4 1-.2 1.9.6 2.8 1 1 1.2 1.6 1.7 2.8.4.7 1.9 4 3 3.8.5-.2 3.6 0 3.6 0-.1-.3 3.4-1.4 4-1.2q2.6.6 5.6.6c-.2-1.3.5-2.5.1-3.7 1 .2 1.2-.8 1-1.6-.1-1 .7-2.4.3-3.3h5.6c.5 0 .2-.7.7-.8.6-.3 1.3 0 2 0-.4 2-1.5 3.2 1 3.2h7c1.9 0 1.5 1.9 1 3.2q-.4 1-.6 2.2c0 1.2 1 2.4 1.2 3.6.5 2.6-.5 5.4-.7 8s.8 3.7 2.3 5.7c1 1.4 1.6 5 1.3 6.8-.1.6-.7 1-1 1.6-.3 1 .8 2 .4 3.2 1 0 1.8-1.3 2.6-1.7.6-.4 2.6.1 3.3.3 1.3.4 2.8-1 4.2-1 1.3 0 2.7.9 3.3-.9.6 1 .6 3.7.5 4.7l-.6 4.1c-.4 1.7.6 3.2.2 4.8s-1.6 3-.2 4.4c-2.8 1.2-6.8.7-9.8.6q-2.5-.2-4.8-.1c-1.4.1-.7 5-.8 6.7v10.4c-.2 3.2 0 6.4-.2 9.6 0 3.3 2.2 4.2 4.1 6.5q2.8 4 6.8 6.8-6.8 1.2-13.4 2.8c-1.7.4-2.4 0-4-.2q-1.1.1-2.1.5c-1.1.4-2.1-.2-3.2-.5-3.7-1-7.7-.6-11.5-1.2-1.6-.2-2.5-1.6-3.2-2.9-.7-1.1-3-.7-4.1-.6-9.3.4-18.9 0-28.2 0-2 0-2.1-.1-3.8-1.4s-3-3-5.2-2c-1.7.8-3.4 2.8-5.3 1.9-2.3-1.1-2.6 0-4.4.3m2.3-105.8c1.3-1 2.7-3.7 4.4-4 .8-.2.7-1.4 1.5-1.4 1 0 1.6 1.5 2.2 2q-2.3 1.4-4.2 3.3c-.6.6-.5.6-.2 1.4.5 1 .2 2.2.1 3.3 0 1.5-2.8 2.7-2.8.7 0-1 .5-1.2.2-2.4-.2-.9-1.5-2.3-.5-3.1z"/></svg>
