<svg xmlns="http://www.w3.org/2000/svg" viewBox="1368.72 727.2 136.53 136.53"><g id="ao" fill="#2B1D24">
		
		<path id="path3888" d="m 1390.14,847.85 c -0.11,-3.509 0.84,-7.05 0.44,-10.57 -0.1,-0.544 -0.46,-1.068 -0.23,-1.625 0.32,-0.796 1.2,-1.259 1.55,-2.087 0.28,-0.664 0.31,-1.381 0.4,-2.085 0.1,-0.634 0.92,-1.41 0.71,-1.947 -0.44,-1.146 1.12,-4.228 1.37,-5.515 0.36,-1.837 0,-3.832 0.99,-5.444 0.69,-1.074 0.25,-3.32 1.04,-4.014 0.82,-0.713 2.13,-2.26 2.64,-3.221 0.76,-1.419 0.3,-3.665 2.59,-3.875 1.62,-0.147 1.76,-1.387 2.56,-2.783 1.9,-3.314 2.43,-8.451 1.56,-12.122 -0.41,-1.695 -1.07,-2.902 -2.03,-4.335 -0.99,-1.492 -1.02,-2.651 -1.57,-4.212 -0.25,-0.712 -0.88,-1.249 -0.98,-2.01 -0.12,-0.931 0,-1.793 -0.39,-2.669 -0.61,-1.3 -1.83,-2.981 0,-3.913 -0.49,0.353 -0.84,0.897 -0.79,1.52 0.39,-0.731 0.81,-1.479 1.41,-2.064 0.47,-0.468 1.24,-0.439 1.33,-1.188 0.21,-1.952 -0.19,-3.743 -1.12,-5.449 -1.05,-1.919 -1.6,-3.93 -2.42,-5.951 -0.36,-0.896 -0.33,-1.893 -0.59,-2.815 -0.39,-1.371 -1.66,-2.297 -2.36,-3.491 -0.58,-0.977 -2.59,-4.384 -0.84,-4.926 0.81,-0.25 1.65,-0.255 2.48,-0.363 1.15,-0.151 1.72,-1.188 3,-1.311 5.89,-0.566 11.84,0.106 17.76,-0.03 2.25,-0.05 4.56,-0.23 6.8,-0.149 2.11,0.08 1.66,1.516 2.64,2.87 0.41,0.564 0,2.271 0.22,3.023 0.34,1.354 1,2.588 1.5,3.881 0.39,1.002 -0.21,1.879 0.63,2.777 0.9,0.958 1.14,1.655 1.68,2.821 0.33,0.717 1.88,4.091 2.9,3.809 0.61,-0.169 3.72,0.07 3.72,0.06 -0.16,-0.393 3.35,-1.408 3.99,-1.266 1.8,0.399 3.45,0.61 5.58,0.61 -0.26,-1.258 0.49,-2.494 0.1,-3.74 1.06,0.228 1.16,-0.79 1.02,-1.565 -0.18,-1.073 0.65,-2.394 0.28,-3.335 1.85,0 3.71,0.04 5.56,0.02 0.55,0 0.22,-0.649 0.68,-0.802 0.64,-0.219 1.38,0 2.04,0 -0.41,2.063 -1.54,3.24 1.08,3.24 2.3,0 4.61,-0.121 6.9,-0.07 1.9,0.04 1.55,1.943 1.11,3.224 -0.25,0.719 -0.57,1.453 -0.64,2.219 -0.1,1.214 0.95,2.44 1.17,3.653 0.45,2.548 -0.49,5.367 -0.69,7.928 -0.21,2.671 0.74,3.721 2.27,5.721 1.08,1.412 1.62,5.067 1.3,6.795 -0.12,0.609 -0.69,0.996 -0.9,1.575 -0.4,1.076 0.69,2.109 0.35,3.225 0.93,0.02 1.76,-1.304 2.52,-1.712 0.65,-0.35 2.61,0.176 3.33,0.375 1.28,0.353 2.79,-1.085 4.16,-1.032 1.3,0.05 2.76,0.86 3.31,-0.87 0.61,0.881 0.68,3.681 0.5,4.677 -0.25,1.379 -0.23,2.754 -0.57,4.118 -0.41,1.642 0.64,3.141 0.21,4.745 -0.43,1.618 -1.59,2.937 -0.21,4.46 -2.84,1.197 -6.81,0.621 -9.84,0.604 -1.52,0 -3.29,-0.374 -4.8,-0.173 -1.33,0.178 -0.67,5.114 -0.73,6.694 -0.16,4.203 0.1,7.169 -0.1,10.385 -0.16,3.204 0,6.469 -0.1,9.68 -0.1,3.282 2.19,4.159 4.08,6.501 2.02,2.498 4.05,5.005 6.78,6.778 -4.46,0.867 -8.94,1.625 -13.34,2.765 -1.75,0.455 -2.43,0.01 -4.09,-0.175 -0.74,-0.08 -1.37,0.273 -2.05,0.497 -1.1,0.364 -2.14,-0.171 -3.19,-0.459 -3.74,-1.021 -7.73,-0.61 -11.53,-1.203 -1.63,-0.254 -2.46,-1.663 -3.23,-2.93 -0.69,-1.127 -2.9,-0.662 -4.05,-0.608 -9.31,0.436 -18.88,0.02 -28.2,0.02 -1.92,0 -2.13,-0.119 -3.78,-1.418 -1.67,-1.306 -2.98,-2.93 -5.22,-1.936 -1.66,0.733 -3.37,2.731 -5.26,1.829 -2.32,-1.106 -2.65,0.04 -4.4,0.358"></path>
		<path id="Angola_Cabinda" d="m 1392.37,741.94 c 1.29,-1.013 2.75,-3.61 4.45,-3.951 0.75,-0.151 0.68,-1.373 1.52,-1.369 0.94,0 1.54,1.493 2.16,2.011 -1.52,1.037 -2.88,1.959 -4.19,3.267 -0.64,0.639 -0.46,0.64 -0.16,1.377 0.41,1.039 0.18,2.267 0.1,3.341 -0.13,1.458 -2.87,2.643 -2.89,0.734 0,-1.053 0.56,-1.3 0.24,-2.464 -0.24,-0.856 -1.54,-2.296 -0.49,-3.085 -0.24,0.04 -0.48,0.09 -0.72,0.139"></path>
	</g></svg>
