<svg xmlns="http://www.w3.org/2000/svg" viewBox="682.02 864.3 329.43 329.43"><g id="ar" fill="#2B1D24">
		
		<path id="path4518" d="m 788.65,951.75 c 0.137,-0.72 0.965,-0.89 1.13,-1.57 0.224,-0.91 -0.312,-2.26 -0.27,-3.25 0.119,-2.79 1.672,-3.94 2.687,-6.31 0.66,-1.54 0.65,-3.13 1,-4.73 0.171,-0.79 0.359,-1.68 0.81,-2.36 0.451,-0.68 1.291,-0.13 1.992,-0.45 2.98,-1.38 -0.09,-3.19 -1.09,-4.75 -1.136,-1.78 0.873,-2.9 0.241,-4.63 -0.45,-1.23 -3.986,-7.55 -0.959,-7.66 -0.306,-0.78 -1.928,-2.61 -1.69,-3.38 0.561,-1.81 1.733,-3.09 3.448,-3.85 1.516,-0.67 3.96,-1.27 4.684,-2.95 0.727,-1.68 0.604,-3.94 0.894,-5.74 0.115,-0.7 -0.109,-2.72 -0.412,-3.43 -0.207,-0.48 -1.332,-0.16 -1.214,-0.67 0.614,0 2.398,-4.435 4.234,-5.358 2.018,-1.009 2.132,-1.217 2.368,-3.639 1.626,0.326 2.452,1.98 3.908,2.62 1.675,0.736 3.642,-0.205 5.391,0.06 4.162,0.636 3.989,3.803 6.111,6.757 0.139,-1.33 0.109,-2.602 0.646,-3.863 0.289,-0.68 0.761,-3.104 1.457,-3.381 0.53,-0.211 1.525,-0.103 2.147,-0.257 1.145,-0.283 2.46,-0.06 3.628,-0.06 0.691,0 2.218,-0.373 2.437,0.409 0.296,1.056 2.417,2.314 3.191,3.088 0.893,0.893 1.52,1.015 2.077,2.184 0.438,0.91 1.009,1.82 1.634,2.62 1.446,1.84 3.868,3.14 5.754,4.49 1.081,0.78 1.601,1.87 2.589,2.69 0.917,0.77 2.185,0.72 3.247,1.14 1.432,0.57 2.369,0.94 3.959,0.94 1.206,0 2.065,1.1 3.061,1.61 2.582,1.33 4.6,3.84 7.453,4.75 0.839,0.27 1.839,0.36 2.512,0.98 0.979,0.91 1.403,0.38 2.405,0.98 0.967,0.58 2.249,0.67 2.974,1.58 0.512,0.65 1.08,1.24 1.586,1.9 1,1.29 -0.895,2.65 -1.149,4.15 -0.38,2.23 -2.375,2.82 -1.914,5.44 0.422,2.4 -1.362,3.14 -1.883,5.18 -0.259,1.02 -0.618,0.66 -0.07,1.87 1.468,-0.57 3.038,-0.58 4.567,-0.28 2.705,0.52 5.244,2.11 7.893,1.25 0.831,-0.27 1.226,1.01 2.083,0.39 0.824,-0.58 1.704,0.76 2.377,1.02 0.469,-0.98 0.542,-2.33 1.87,-2.52 1.017,-0.14 1.539,1.02 2.42,0.9 1.397,-0.18 1.177,-1.87 1.519,-2.8 0.393,-1.07 2.659,-0.96 2.546,-1.58 -0.04,-0.2 1.303,-2.13 1.46,-2.11 0.994,0.17 0.801,-2.16 0.919,-2.98 0.235,-1.64 0.212,-3.42 -0.209,-5.03 -0.43,-1.63 0.6,-1.07 1.495,-0.51 0.203,-1.3 1.93,-1.17 2.842,-0.85 1.579,0.56 1.904,2.2 2.421,3.61 0.73,2.01 0.937,3.14 0.995,5.29 0.03,1.13 0.312,2.14 0.142,3.27 -0.1,0.57 -0.191,1.14 -0.28,1.71 -0.357,-0.13 -0.697,-0.1 -1.019,0.11 -1.193,0.68 -1.964,1.58 -3.263,2.11 -0.649,0.26 -2.791,1.01 -2.867,1.88 -0.117,1.32 -1.573,1.44 -2.465,2.01 -0.519,0.33 -0.611,1.05 -1.058,1.49 -0.652,0.65 -1.483,1.12 -2.069,1.83 0.601,0.21 0.862,0.72 0.57,1.3 -1.324,-1.36 -3.936,4.08 -4.679,5.14 -1.295,1.85 -1.635,5.62 -4.055,6.6 -1.089,0.44 -1.009,1.91 -1.54,2.78 -0.281,0.45 -0.718,0.72 -1.247,0.81 0.298,0.78 0.02,1.8 -0.556,2.31 -1.626,1.44 0.333,1.63 0.49,3.17 0.08,0.76 -0.402,0.9 -0.438,1.5 -0.04,0.71 0.05,0.89 0.122,1.59 0.07,0.7 0,1.33 -0.312,1.97 -0.638,1.27 0.575,0.61 0.466,1.84 -0.138,1.56 -1.032,1.85 -0.739,3.56 0.251,1.46 1.125,2 0.651,3.48 -0.428,1.34 0.479,2.98 1.145,4.09 1.16,1.94 -1.45,1.23 -1.348,2.36 0.134,1.47 -0.739,2.96 -0.05,4.45 0.387,0.83 3.513,5.32 0.997,5.18 1.141,0.93 1.264,2.13 2.629,2.98 1.484,0.93 2.961,1.65 4.547,2.38 2.588,1.2 6.22,3.23 4.816,6.43 -1.011,2.3 2.042,6.95 4.793,5.8 1.085,-0.45 1.564,2.81 1.792,3.4 0.681,1.75 -0.491,3.72 -1.206,5.28 -0.658,1.45 -2.344,3.5 -2.394,5.09 -0.05,1.69 0.111,2.19 -1.449,3.3 -2.826,2.02 -6.069,3.05 -9.434,3.73 -4.061,0.82 -7.996,2.01 -12.162,2.2 -1.608,0.1 -2.957,0 -4.536,-0.1 -1.801,-0.17 -3.02,-1.31 -4.747,-1.54 0.24,0.47 0.563,0.87 0.966,1.21 0.445,0.4 -0.05,1.29 0.207,1.79 0.142,0.28 3.424,2.71 1.347,1.9 0.957,0.7 1.413,1.2 1.624,2.39 0.152,0.86 0.283,2.28 -1.044,1.57 0.197,0.87 0.445,1.76 0.413,2.66 -0.02,0.72 -0.771,1.35 -0.231,2 0.394,0.48 0.941,0.81 1.396,1.21 0.693,0.63 0.334,1.63 1.302,1.11 -0.59,3.54 -4.185,4.07 -7.161,4.34 -3.947,0.36 -7.177,-2.31 -11.059,-2.9 1.607,-0.31 -0.08,-0.89 -0.593,-0.63 -0.678,0.35 -1.085,1.22 -1.114,1.96 -0.08,2.11 2.5,3.65 2.895,5.73 0.321,1.69 0.36,3.78 2.237,4.5 0.958,0.36 3.59,0.57 2.846,2.19 0.4,0.1 4.097,0.52 3.848,-0.44 -0.203,-0.79 -1.91,-0.82 -2.488,-1.14 1.23,0.19 1.888,-1.08 3.03,-1.15 1.177,-0.1 2.392,1.57 2.59,2.59 0.184,0.95 1.38,2.34 0.72,3.31 -0.457,0.68 -2.14,0.89 -2.866,0.8 -1.209,-0.15 -1.013,-1.52 -1.613,-2.12 -0.983,-0.98 -2.331,-1.38 -3.534,-0.57 -3.186,2.13 2.071,3.87 3.913,3.4 -0.154,1.01 -1.226,1.34 -2.033,1.67 -1.594,0.66 -1.528,1.38 -2.145,2.8 -0.641,1.48 -0.743,1.98 0.275,3.36 0.353,0.48 0.847,1.06 0.908,1.69 -0.119,0.42 -0.127,0.84 -0.02,1.26 0.426,0.4 0.651,0.88 0.674,1.46 -0.05,0.27 0.09,1.25 -0.309,1.36 -0.563,0.15 -1.336,0.39 -1.415,1.1 -0.132,1.18 1.667,1.37 1.475,2.3 -0.21,1.02 -7.369,-0.43 -5.835,2.17 -3.091,-0.66 -3.91,3.05 -4.337,5.31 -0.717,3.77 1.761,5.27 4.603,7.19 1.396,0.94 2.602,2.19 4.166,2.88 1.993,0.87 4.405,-0.31 6.295,0.81 2.641,1.56 3.044,6.8 -1.076,6.27 0.759,0.3 1.304,-0.37 2.02,-0.43 1.088,-0.1 1.515,0.65 2.16,1.37 -0.63,0.1 -0.834,0.44 -0.51,1 -1.188,-0.25 -3.579,2.82 -4.315,3.55 -0.964,0.95 -1.707,1.88 -2.42,3.04 -0.481,0.79 -0.949,1.26 -0.906,2.23 0.03,0.77 0.113,1.5 -0.569,2.06 0.587,0.1 1.048,-0.22 1.16,-0.8 0.07,2.14 2.428,5.85 -0.772,6.87 -2.357,0.76 -3.113,-2.83 -5.138,-3.19 0.521,0.19 1.895,1.24 1.44,1.94 -0.337,0.51 -1.721,0.1 -2.23,0.5 1.973,-0.81 2.809,0.5 4.54,0.87 -0.214,1.32 -2.303,1.25 -2.784,2.72 -0.647,1.98 0.744,3.26 -0.386,5.27 1.46,-1.82 3.575,2.16 4.106,3.2 0.816,1.6 -2.498,0.66 -3.316,1.34 0.858,-0.29 2.877,0.52 3.244,0.31 1.181,-0.7 2.095,0.89 2.995,1.6 1.746,1.39 3.614,2.39 4.421,4.42 -0.424,-0.73 -1.396,-0.69 -2.112,-0.77 -1.283,-0.14 -2.455,-0.83 -3.681,-1.19 -3.089,-0.9 -6.415,-1.28 -9.617,-1.28 -1.419,0 -2.839,0 -4.258,0 -1.194,0 -3.709,0.48 -4.74,-0.16 -1.607,-1.01 -2.958,-3.25 -5.042,-3.51 0.656,-0.97 0.05,-2.54 -0.781,-3.15 -1.102,-0.8 -0.248,-1.85 -0.841,-2.83 -0.366,-0.61 -1.5,-2.19 -2.402,-1.78 -0.706,0.32 -1.319,-0.13 -2.026,0 -0.524,0.13 -0.798,0.76 -1.247,1.02 -0.948,0.54 -2.289,-1.97 -2.586,-2.57 -0.591,-1.18 -2.97,-1.99 -3.16,-3.2 -0.1,-0.63 -0.435,-0.65 -0.719,-1.18 -0.225,-0.42 -0.04,-0.96 -0.208,-1.41 -0.235,-0.64 -0.987,-0.87 -1.22,-1.51 -0.262,-0.73 -0.04,-1.49 -0.15,-2.23 1.202,0.19 1.292,-0.51 1.59,-1.44 0.17,-0.53 -0.149,-0.97 0.28,-1.44 0.381,-0.42 1.128,-0.13 1.521,-0.58 0.775,-0.9 -0.06,-2.37 -0.656,-3.16 -0.691,-0.91 1.127,-0.98 1.226,-1.73 0.109,-0.83 -1.106,-1.87 -1.696,-2.29 -1.199,-0.85 -1.374,-1.39 -1.366,-2.84 0,-0.99 0.245,-4.51 1.982,-4.24 -0.351,-0.79 -1.319,-0.87 -1.278,-1.7 0.03,-0.53 -0.521,-0.96 -0.286,-1.52 0.167,-0.39 0.593,-0.59 0.784,-0.98 0.784,-1.59 -1.914,-4.06 -3.03,-4.87 0.978,0 1.564,-1.91 0.49,-2.22 -0.767,-0.21 -2.012,-1.98 -1.192,-2.73 0.697,-0.65 0.914,-0.22 1.403,-1.26 0.414,-0.88 0.556,-0.9 -0.229,-1.66 -0.69,-0.67 -1.453,-1.29 -2.237,-1.84 -1.111,-0.8 -2.681,0 -3.693,-1.07 -0.859,-0.94 4.718,-0.54 5.168,-1.17 -0.249,0.35 0.02,-1.83 0.14,-1.51 -0.845,-2.37 -4.677,0 -5.615,-2.28 -0.235,-0.37 -0.465,-0.76 -0.688,-1.14 -0.16,-0.62 0.797,-1.18 0.383,-1.77 -0.527,-0.75 -1.843,-1.18 -1.105,-2.01 0.922,-1.05 -3.644,-1.86 -1.993,-3.34 0.883,-0.8 -0.227,-1.44 -1.034,-1.57 -1.537,-0.27 -2.132,-0.84 -2.61,-2.33 -0.365,-1.14 -0.404,-2.49 -0.799,-3.56 -0.3,-0.82 -1.521,-1.51 -0.358,-2.33 0.721,-0.51 1.981,-0.1 1.071,-1.32 -0.776,-1.05 -2.465,-2.5 -2.317,-3.92 0.255,-2.46 -2.272,-4.74 -2.697,-6.97 -0.172,-0.9 -0.109,-2.1 0.301,-2.91 0.654,-1.3 -1.192,-1.62 -1.398,-2.71 1.715,0.58 0.608,-1.91 0.115,-2.48 -0.994,-1.15 -0.708,-1.72 0.675,-1.77 -0.878,-0.86 -0.427,-3.35 -0.833,-4.54 -0.624,-1.82 1.202,-2.17 2.308,-3.18 1.204,-1.09 -1.408,-2.84 -1.774,-4.19 -0.463,-1.7 -3.098,-3.77 -2.83,-5.45 0.18,-1.13 -0.95,-3.86 -1.476,-4.94 -0.563,-1.16 -0.855,-3.71 0.06,-4.72 0.495,-0.54 0.941,0 1.237,-0.61 0.222,-0.5 0.171,-1.22 0.547,-1.63 0.297,-0.33 1.085,-0.54 1.126,-1.03 0.1,-1.18 -0.323,-2.42 -0.776,-3.48 -0.383,-0.9 -0.849,-1.76 -1.285,-2.63 -0.107,-0.21 -0.986,-0.79 -0.987,-0.89 0,-0.79 0.969,-0.44 1.067,-1.33 0.1,-0.88 -0.08,-1.76 -0.162,-2.63 -0.08,-0.85 0.124,-4.81 1.411,-4.58 1.246,0.23 -0.518,-2.9 -0.623,-3.15 -0.487,-1.17 0.136,-5.18 -1.236,-5.63 -0.779,-0.25 -0.307,1.02 -1.377,-0.31 -0.785,-0.98 -0.562,-1.45 -0.395,-2.54 0.131,-0.85 -0.486,-1.16 -1.064,-1.58 -0.748,-0.54 -0.504,-1.06 -0.742,-1.83 -0.522,-1.69 -2.222,-2.73 -2.709,-4.43 1.61,0.74 -0.178,-1.46 -0.794,-1.78 -1.472,-0.75 -1.965,-3.16 -2.028,-4.61 -0.08,-1.78 1.28,-1.12 0.892,-3.02 -0.284,-1.39 1.125,-3.93 0.13,-5.06 2.434,1.62 1.515,-2.58 1.186,-3.48 -0.482,-1.31 -2.756,-4.78 -1.98,-6.04"></path>
		<path id="Argentina_Tierra_del_Fuego" d="m 865.54,1151.48 c 1.457,1.32 3.289,2.22 4.399,3.89 -1.003,-1.84 -3.31,1.38 0.507,1.42 1.429,0 1.863,1.6 2.776,2.42 1.12,1 2.766,1.25 3.815,2.18 2.776,2.48 6.803,3.63 10.167,5.17 1.532,0.7 3.759,1.57 5.459,1.52 0.837,0 1.666,-0.19 2.506,-0.16 1.183,0.1 0.917,1.3 0.61,2.28 -0.949,-0.52 -2.064,0.39 -3.184,0 -1.222,-0.48 -2.906,1.09 -4.439,0.77 -1.721,-0.37 -3.221,-0.79 -5.007,-0.84 -1.991,-0.1 -4.54,0 -6.41,-0.75 -1.203,-0.5 -1.929,0.73 -2.96,-0.79 -0.947,-1.4 -1.482,-3.15 -2.241,-4.65 -2.05,-4.08 -4.268,-8.19 -5.998,-12.42"></path>
		<path id="path4200" d="m 867.41,1036.50 c 0.118,-0.5 -0.119,-0.57 -0.71,-0.22 0.236,0.1 0.473,0.15 0.71,0.22"></path>
		<path id="path4202" d="m 868.64,1038.01 c 0.06,-0.85 -0.814,-1.27 -1.51,-0.87 0.455,0.38 0.958,0.67 1.51,0.87"></path>
		<path id="path4874" d="m 899.96,1170.13 c 0.981,-1.21 3.125,-0.88 4.46,-1.37 -1.813,-0.46 -3.503,0.15 -5.18,0.79 0.219,0.22 0.46,0.42 0.72,0.58"></path>
	</g></svg>
