<svg xmlns="http://www.w3.org/2000/svg" viewBox="682 864.3 329.4 329.4"><g fill="#2b1d24"><path d="M788.7 951.8c0-.8 1-1 1-1.6.3-1-.2-2.3-.2-3.3.1-2.8 1.7-4 2.7-6.3.7-1.5.6-3.1 1-4.7q.3-1.3.8-2.4c.5-.7 1.3-.1 2-.4 3-1.4 0-3.2-1-4.8-1.2-1.8.8-2.9.1-4.6-.4-1.2-4-7.6-1-7.7-.2-.7-1.8-2.6-1.6-3.3a6 6 0 0 1 3.4-3.9c1.6-.7 4-1.3 4.7-3s.6-3.9 1-5.7c0-.7-.2-2.7-.5-3.4-.2-.5-1.3-.2-1.2-.7.6 0 2.4-4.4 4.2-5.3 2-1 2.2-1.3 2.4-3.7 1.6.3 2.5 2 4 2.6 1.6.8 3.6-.2 5.3.1 4.2.6 4 3.8 6.1 6.8.2-1.4.1-2.6.7-3.9.2-.7.7-3.1 1.4-3.4l2.2-.2q1.7-.3 3.6-.1c.7 0 2.2-.4 2.4.4.3 1 2.4 2.3 3.2 3.1 1 .9 1.5 1 2.1 2.2q.6 1.4 1.6 2.6c1.5 1.8 3.9 3.1 5.8 4.5l2.6 2.7c.9.8 2.2.7 3.2 1.1 1.5.6 2.4 1 4 1 1.2 0 2 1 3 1.6 2.6 1.3 4.6 3.8 7.5 4.7q1.3.3 2.5 1c1 1 1.4.4 2.4 1s2.3.7 3 1.6l1.6 1.9c1 1.3-1 2.6-1.2 4.1-.4 2.2-2.4 2.8-1.9 5.5.4 2.4-1.4 3-1.9 5.1-.2 1-.6.7 0 1.9q2.2-.8 4.5-.3c2.7.5 5.3 2.1 8 1.3.7-.3 1.1 1 2 .4s1.7.7 2.4 1c.4-1 .5-2.3 1.8-2.5 1-.2 1.6 1 2.5.9 1.4-.2 1.1-2 1.5-2.8.4-1.1 2.6-1 2.5-1.6a8 8 0 0 1 1.5-2.1c1 .1.8-2.2 1-3a13 13 0 0 0-.3-5c-.4-1.7.6-1.1 1.5-.5.2-1.3 2-1.2 2.8-.9 1.6.6 2 2.2 2.5 3.6.7 2 .9 3.2 1 5.3 0 1.1.3 2.1 0 3.3l-.2 1.7a1 1 0 0 0-1 0c-1.2.8-2 1.7-3.3 2.2-.6.3-2.8 1-2.8 1.9-.2 1.3-1.6 1.4-2.5 2q-.6.6-1 1.5-1.1.8-2.1 1.8 1 .3.5 1.3c-1.3-1.3-3.9 4-4.6 5.2-1.3 1.8-1.7 5.6-4 6.6-1.2.4-1.1 1.9-1.6 2.7q-.4.8-1.3.8.4 1.4-.5 2.3c-1.7 1.5.3 1.7.5 3.2 0 .8-.4 1-.5 1.5l.1 1.6q.1 1-.3 2c-.6 1.3.6.6.5 1.8-.1 1.6-1 1.9-.7 3.6.2 1.4 1 2 .6 3.5-.4 1.3.5 3 1.2 4 1.1 2-1.5 1.3-1.4 2.4.1 1.5-.7 3 0 4.5.3.8 3.5 5.3 1 5.1 1 1 1.2 2.2 2.6 3q2.2 1.4 4.5 2.4c2.6 1.2 6.2 3.2 4.8 6.4-1 2.3 2 7 4.8 5.8 1.1-.4 1.6 2.8 1.8 3.4.7 1.8-.5 3.7-1.2 5.3s-2.3 3.5-2.4 5.1c0 1.7.1 2.2-1.4 3.3q-4.2 2.8-9.5 3.7c-4 .8-8 2-12.1 2.2h-4.6c-1.8-.2-3-1.4-4.7-1.6q.4.8 1 1.2c.4.4 0 1.3.2 1.8.1.3 3.4 2.7 1.3 1.9 1 .7 1.4 1.2 1.6 2.4.2.8.3 2.3-1 1.6q.4 1.2.4 2.6c0 .7-.8 1.4-.2 2l1.4 1.2c.7.7.3 1.7 1.3 1.1-.6 3.6-4.2 4.1-7.2 4.4-4 .3-7.2-2.3-11-3 1.6-.2-.1-.8-.6-.6q-1 .8-1.1 2c-.1 2.1 2.5 3.7 2.8 5.7.4 1.7.4 3.8 2.3 4.5 1 .4 3.6.6 2.8 2.2.4.1 4.1.5 3.9-.4s-2-.8-2.5-1.2c1.2.2 1.9-1 3-1.1s2.4 1.6 2.6 2.6 1.4 2.3.7 3.3c-.4.7-2.1.9-2.8.8-1.2-.2-1-1.5-1.6-2.1q-1.6-1.7-3.6-.6c-3.2 2.1 2 3.9 4 3.4-.2 1-1.3 1.3-2.1 1.7-1.6.6-1.5 1.4-2.1 2.8s-.8 2 .2 3.3q.7.7 1 1.7-.3.7 0 1.3.5.6.6 1.4c0 .3 0 1.3-.3 1.4-.6.1-1.4.4-1.4 1.1-.2 1.2 1.6 1.4 1.4 2.3-.2 1-7.3-.4-5.8 2.2-3-.7-3.9 3-4.3 5.3-.7 3.7 1.7 5.2 4.6 7.2 1.4 1 2.6 2.2 4.1 2.8 2 1 4.4-.3 6.3.9 2.7 1.5 3 6.8-1 6.2.7.3 1.3-.3 2-.4q1.4 0 2.1 1.4-1 0-.5 1c-1.2-.3-3.6 2.8-4.3 3.5q-1.4 1.4-2.4 3-.9 1-1 2.3.4 1.2-.5 2 .9.1 1.2-.8c0 2.2 2.4 5.9-.8 7-2.4.7-3.1-3-5.1-3.3.5.2 1.9 1.3 1.4 2-.3.5-1.7 0-2.2.5 2-.8 2.8.5 4.5.8-.2 1.4-2.3 1.3-2.8 2.8-.6 2 .8 3.2-.4 5.2 1.5-1.8 3.6 2.2 4.2 3.2.8 1.6-2.5.7-3.4 1.4.9-.3 3 .5 3.3.3 1.2-.7 2 .9 3 1.6 1.7 1.4 3.6 2.4 4.4 4.4-.4-.7-1.4-.7-2.1-.8-1.3-.1-2.5-.8-3.7-1.2q-4.6-1.3-9.6-1.2H846c-1.2 0-3.7.4-4.7-.2-1.6-1-3-3.3-5-3.5.6-1 0-2.6-.8-3.2-1.1-.8-.3-1.8-.9-2.8-.3-.6-1.5-2.2-2.4-1.8-.7.3-1.3-.1-2 0-.5.2-.8.8-1.3 1-.9.6-2.2-2-2.5-2.5-.6-1.2-3-2-3.2-3.2-.1-.7-.4-.7-.7-1.2s0-1-.2-1.4c-.3-.7-1-.9-1.2-1.5-.3-.8 0-1.5-.2-2.3 1.2.2 1.3-.5 1.6-1.4.2-.5-.2-1 .3-1.4.4-.5 1.1-.2 1.5-.6.8-1 0-2.4-.7-3.2s1.2-1 1.3-1.7c0-.8-1.1-1.9-1.7-2.3-1.2-.8-1.4-1.4-1.4-2.8 0-1 .3-4.5 2-4.3-.4-.8-1.3-.8-1.3-1.7 0-.5-.5-1-.3-1.5l.8-1c.8-1.6-2-4-3-4.8 1 0 1.5-2 .5-2.3-.8-.2-2-2-1.2-2.7.7-.6.9-.2 1.4-1.3.4-.8.5-.9-.3-1.6q-1-1-2.2-1.9c-1.1-.8-2.7 0-3.7-1-.8-1 4.7-.6 5.2-1.2-.3.4 0-1.8.1-1.5-.8-2.4-4.6 0-5.6-2.3l-.7-1.1c-.1-.6.8-1.2.4-1.8s-1.8-1.2-1.1-2c1-1-3.6-1.9-2-3.3.9-.8-.2-1.5-1-1.6q-2.2-.3-2.6-2.3t-.8-3.6c-.3-.8-1.6-1.5-.4-2.3.7-.5 2-.1 1-1.4-.7-1-2.4-2.5-2.2-3.9.2-2.4-2.3-4.7-2.7-7a5 5 0 0 1 .3-2.9c.6-1.3-1.2-1.6-1.4-2.7 1.7.6.6-1.9 0-2.4q-1.4-1.8.8-1.8c-1-.9-.5-3.4-.9-4.6-.6-1.8 1.2-2.1 2.3-3.1 1.2-1.1-1.4-2.9-1.7-4.2-.5-1.7-3.1-3.8-2.9-5.5a13 13 0 0 0-1.4-5c-.6-1-.9-3.6 0-4.6.5-.6 1 0 1.3-.6q.1-1 .5-1.7c.3-.3 1-.5 1.1-1q0-1.8-.8-3.5l-1.2-2.6-1-.9c0-.8 1-.4 1-1.3q.1-1.4-.1-2.7c-.1-.8.1-4.8 1.4-4.5s-.5-3-.6-3.2c-.5-1.2.1-5.2-1.3-5.6-.7-.3-.3 1-1.3-.3-.8-1-.6-1.5-.4-2.6q-.1-1-1.1-1.6c-.8-.5-.5-1-.7-1.8-.6-1.7-2.3-2.7-2.8-4.4 1.7.7-.1-1.5-.7-1.8-1.5-.7-2-3.2-2-4.6-.2-1.8 1.2-1.1.8-3-.3-1.4 1.1-4 .1-5 2.5 1.5 1.6-2.7 1.2-3.6-.5-1.3-2.7-4.7-2-6m76.9 199.8c1.5 1.3 3.3 2.2 4.4 3.9-1-1.9-3.3 1.4.5 1.4 1.5 0 2 1.6 2.8 2.4 1.1 1 2.8 1.3 3.8 2.2 2.8 2.5 6.8 3.6 10.2 5.2a14 14 0 0 0 5.5 1.5l2.5-.2c1.2.1.9 1.3.6 2.3-1-.5-2 .4-3.2 0s-3 1-4.4.8q-2.6-.7-5-.9c-2 0-4.6 0-6.5-.7-1.2-.5-1.9.7-3-.8q-1.2-2.3-2.2-4.7-3.1-6-6-12.4"/><path d="M867.4 1036.5q.2-.8-.7-.2zm1.2 1.5c.1-.8-.8-1.3-1.5-.9zm31.4 132.1c1-1.2 3-.8 4.4-1.3-1.8-.5-3.5.1-5.2.8z"/></g></svg>
