<svg xmlns="http://www.w3.org/2000/svg" viewBox="1369.66 257.05 59.82 59.82"><path id="at" d="m 1373.79,290.575 c 0.71,-1.238 0.56,-0.888 0.22,-2.006 -0.12,-0.385 5.39,-0.222 4.1,2.006 1.56,-0.05 1.6,-1.511 1.95,-2.666 0.66,0.595 2.24,0.601 3.07,0.522 -0.68,0.349 1.2,0.944 1.43,0.867 0.49,0.233 1.22,-0.438 1.9,-0.668 1.36,-0.824 3.64,-1.425 5.19,-0.918 0,-0.269 0,-0.551 -0.12,-0.81 0.77,0.1 2.02,0.74 2.79,0.376 1.6,-0.762 1.42,1.018 2.41,1.391 0.8,0.306 1.13,-1.65 0.44,-1.745 -0.9,-0.124 -0.35,-1.152 -0.46,-1.615 -0.14,-0.623 -0.69,-0.802 -0.95,-1.357 -0.66,-1.418 3,-1.905 3.73,-2.399 0.63,-0.427 0.14,-2.281 1.32,-1.836 1.58,0.6 0.66,-1.042 1.03,-2.474 1.13,0.298 2.46,2.095 3.74,2.262 2.33,-0.586 2.54,-0.03 2.77,0.05 0,-0.696 0.39,-1.377 1.08,-1.601 0.9,-0.291 0.79,-0.92 0.86,-2.071 1.49,-0.13 3.28,0.562 4.68,1.027 0.47,-0.249 2.75,1.535 4.45,1.13 1.33,-0.316 3.9,-0.454 4.1,1.12 0,0.192 0,0.944 0.2,1.619 0.18,0.742 0,1.805 0.43,2.35 0.53,0.745 1.27,0.878 1.2,1.355 -0.1,0.478 -0.93,1.291 -1.29,2.227 -0.67,1.76 -1.49,-0.481 -3.13,0.176 -0.71,0.285 2.59,0.971 0.63,1.967 -1.53,0.78 -1.13,2.841 -0.68,4.02 -1.1,-0.233 -3.92,1.426 -3.02,2.88 -1.57,-0.991 -2.3,0.144 -3.78,0.279 -1.07,0.1 -1.81,-0.408 -2.82,-0.204 -0.76,0.155 -2.41,1.748 -3.01,2.062 -1.13,0.589 -4.04,-0.753 -5.17,-0.916 -2.91,-0.422 -5.47,-0.06 -8.46,-1 -0.91,-0.285 -4.35,-2.707 -2.61,-3.75 -0.99,-0.207 -1.8,0.514 -2.74,0.648 -1.37,0.197 -2.54,0.01 -3.92,0.402 -0.82,0.232 -1.48,1.716 -2.33,1.468 -0.86,-0.251 -1.64,-0.447 -2.51,-0.662 -0.71,-0.178 -0.33,-1.008 -0.8,-1.084 -0.55,-0.09 -0.92,0.435 -1.25,0.843 -0.61,0.747 -2.34,-0.314 -2.82,-0.834 -0.53,-0.564 -1.3,-0.648 -1.6,-0.653 0.29,-0.659 0.12,-1.258 -0.25,-1.782" fill="#2B1D24">
		
	</path></svg>
