<svg xmlns="http://www.w3.org/2000/svg" viewBox="1369.7 257.1 59.8 59.8"><path fill="#2b1d24" d="M1373.8 290.6c.7-1.3.6-1 .2-2-.1-.4 5.4-.3 4.1 2 1.6 0 1.6-1.5 2-2.7.6.6 2.2.6 3 .5-.7.4 1.2 1 1.5.9.5.2 1.2-.4 1.9-.7 1.3-.8 3.6-1.4 5.2-.9l-.2-.8c.8.1 2 .7 2.8.4 1.6-.8 1.4 1 2.4 1.4.8.3 1.2-1.7.5-1.8-1-.1-.4-1.1-.5-1.6s-.7-.8-1-1.3c-.6-1.5 3-2 3.8-2.4.6-.5.1-2.3 1.3-1.9 1.6.6.7-1 1-2.5 1.2.3 2.5 2.1 3.8 2.3 2.3-.6 2.5 0 2.8 0q0-1 1-1.5c1-.3.8-1 .9-2.1 1.5-.1 3.3.5 4.7 1 .4-.2 2.7 1.5 4.4 1.1 1.3-.3 4-.4 4.1 1.2l.2 1.6c.2.7 0 1.8.4 2.3.6.8 1.3 1 1.3 1.4-.1.5-1 1.3-1.3 2.2-.7 1.8-1.5-.5-3.2.2-.7.3 2.6 1 .7 2-1.6.7-1.2 2.8-.7 4-1.1-.3-4 1.4-3 2.9-1.6-1-2.3.1-3.8.2-1 .1-1.8-.4-2.8-.2-.8.2-2.4 1.8-3 2-1.2.7-4-.7-5.2-.8-3-.4-5.5 0-8.5-1-.9-.3-4.3-2.7-2.6-3.8-1-.2-1.8.5-2.7.7-1.4.2-2.6 0-4 .4-.8.2-1.4 1.7-2.3 1.4l-2.5-.6c-.7-.2-.3-1-.8-1.1q-.8.1-1.2.8c-.6.8-2.4-.3-2.9-.8q-1-.7-1.6-.6.4-1-.2-1.8"/></svg>
