<svg xmlns="http://www.w3.org/2000/svg" viewBox="2111.6 754.8 351.9 351.9"><g fill="#2b1d24"><path d="M2402.7 858.6c1-.6.2-1.5 0-2.2-.9.6-.5 1.5 0 2.2m16.9 15.9q.9-.6.3-1.5zm-111.1-77.8q.6-1.5 0-3c-.8 1.1-.3 2 0 3m5.7 2.8.4-.4q-.6-.4-.4.4m20.8 3.6 1-.9q-1 0-1 1m.4-3.5a4 4 0 0 0 2-1.5c-.6.7-1.6.6-2 1.5m2.6-2a5 5 0 0 0 2.3-3.6c-.3 1.4-1.6 2.4-2.3 3.6m-46 3.3 1-.4c-.1-.7-1-.8-1-1.6l-.6-1v-1.5c-1.2.4-1.4 1.2-1.5 2.2 0 .9-1.3 1.4-.9 2.2q1.5-.5 3 0"/><path d="M2298 797.1c-.2-1-1.3-1-1.5 0-.7-1-1.8 0-2.7-.2-.4-.1-1.6-1.7-2-.8-.5 1.7 1.7 6 3.8 5.4 1.2-.2 3.7-1.8 4-3 .2-.6 1.2-2.3-.2-2.6-1-.2-2 0-1.3 1.2m49.2 252.5q.6-.3.9-.9-1 0-.9.9m1.6-.8c.4 0 1.7-1.2.8-1.5-.7-.3-2.6.1-2.3 1.1q.8-.2 1.5.4m-57.9-38.1q1.2-.5 2-1.3c1-.7 1.6-.2 2.7-.3.8 0 1.6-1 .3-1.3q-.3 0-.4.4c-.5.4-1.4-.4-2-.4 2-1.7-5.8-.3-6.1-.2-.7.2-3 1.4-1.7 2.5 1.5 1.4 3.8-1 5.3.6m38.6 57.6c0 .8.6 1.7-.5 2.1 1.3.3 1-1.2 1.9-1.5 1.2-.4 1.8 1.3.6 1.8.3-1.6-1.2-.3-1 .5 0 1 .8.8 1.2.1-.4 2 1.7-1.4 2-1.9-1.3-.1-.4-.8.2-1.4l2.2-2.4 1.7-2c.6-.5 1.7-1 1.8-1.9q.5 1.3-.4 2.2c1.1-.4 1.4-1.7 1.8-2.6q1-2 2.3-3.8c1-1.7 3.9-4.5 2-6.2-.9-.8-1.2 1-2.1.8-1.4-.3-2 .3-3 1-.6.2-6.1-.7-4.6 1.4q-1.2.4-.7-.7c-2-.1-3.7 1.5-5.4 0-.7-.4-3.8-2-3.4-2.7-1.1.5-3.1.4-3.5-1-2 2-2.7 4-3.6 6.6-.6 2 1.4 5.2-.8 6.7l.8-.4c0 1 .6 2.3-.6 3q.3-1.2-.4-2.2c-2.5 2.4-1.1 6-1.3 8.8.8-.5 1.5.3 2.2 0 .5 1.2-.9 1.4-1.4.7l-.8 1.5c1-.2 3 .5 3.8-.3 0 2.8 2.9-.1 3.4-.6 1-.7 1.1-1 1.3-2 .2-.8 1-.1.8.6 1.4.1 3.4-2.9 3.5-4.1m-9.7-23.9-.6 1c1.7 0 3.6-2.2 3.6-4 0-1.3-1.2.2-1.4.3-.7.6-1.7 1.7-1.6 2.7m28.3 0c0 .4-.5 2.3.3 2.3 1.7 0 1.7-1.7 2.7-2.6-1-.2-1-1.3-1.7-1.9q-1 .9-1.3 2.2"/><path d="M2139.2 989.8c1.9 0 3.9-2.2 4.7-3.8 1-1.8-.2-4.5 1.7-5.9q-.7.7-.5 1.5 0-.9.9-.7c-.5-1.6.8-3 1.3-4.3 1-2.9.6-5.3.1-8.2-.4-2.7-1.5-5.7-.7-8.4.7-2.6 2-6.3 1.5-9-.1-1-.8-2-.8-3.2q.1-1.8-.4-3.4c-.5-1-1.5-2-1.5-3.3-.1-1.3.5-2.6.6-4q.1-4.2-2.2-7.6-1-1.5-1.5-3c-.2-1.1.7-1.6.6-2.5q.2 1-.2 2.1.8-1 .8-2.2c-.1 1 .5 2 .3 3 .4-2 .2 1 .2 1.4 1-1.6.4 0 .5.8 2-1 2.8-2 1.2-3.8-1-1.3-1.8-4.3-.5-5.7q1 1 1.3 2.4c.3 1.2-.7 2-.6 3 .9.1 1.4-.8 1.5-1.5.2 1.1-.2 2.4.4 3.4.4.6 1.3-.3 1.5-.6.8-2 1.5-3.6.5-5.6-.9-1.6-.8-3.5-2-5q-.3-.8-.1-1.7c0-1.4-.7-2.6-.9-4-.3-2.1 1-4.6 2.2-6.3 1.4-2 2.4-3.4 2.9-5.9.2-1.1-.6-2-.6-3 0-1.2 1-2.1 1.5-3.1.7-1.5 1.3-4 3-4.5q.1 1.4-.5 2.5c-.4 1.1-.1 2.4-.4 3.5 2.3-.8 2.4-2 3.5-4s3.1-2.8 5.2-3.5c3-.9 5.1-3 7.5-4.9.6-.5 1.3-1.8 2.1-1.9q2.6-.3 4.3-2.2c-.3 2 1.8.2 2.6.3s1 .9 2 .9a6 6 0 0 0 3-1c2-1.1 3-2.5 5.5-2.5q1.6.2 3-.7c.9-.8 1.3-2.2 2.7-2.2 2.2 0 3.6.4 5.7-.2q3.8-.9 7.2-2.5c1.9-1 8.8-5.2 7.4-8.3q1 0 1.2-1c.3-1 1.3-1.4 2-2 1.3-.7 4-1.9 2.8-3.4-1.1-1.3-.4-5 .3-6.3.4-.8 2.3-3.7 3.4-2.4-.7-1.3.3-1.2 1.2-1.6 1-.6 1.1-2.7 2.6-3.4.6.9-1.3 2.7.6 2.6-1.4 2 2.4 5.7 2.2 7.7 1-1.4.1-3.7 1-5.1.9.4 1.2 1.3 1.8 1.9-.1-1.3-.3-2.2 1-3-1 .4-3-1.6-2.3-2.5q-.8 0-.8-1c1 1 .4-.1 1.3-.3 1.2-.2 0-1.5-.3-2 1-.5 2.8.2 1.3.5q1 .4.6 1.3c.7-.2.8-1.1 1.5-1.2.9 0 .9.5 1.4 1 .7.5 1.1-.5 1.8 0 .9.4 1.8-.2 2.6.3-.7-.8-1.3-.4-2.2-.7-1.3-.4-.3-1.3-.2-2.2l.5.7c1-.7.5-2.2 1.8-2.8q-.9-.2-1.3.7c-.8-.9-1.5-2.9 0-3.6.7-.3 2.8-1 1.7-2q1.2.2 2 1l.5.9 1.2.3c-1.1-.7-.3-2-2-2q.6-.7 1.3-1a3 3 0 0 0-1.4.7c-.1-1 2.3-2.9 2.2-1.2 0-1.7 1.2.4 2.2.2-.4-.7-1.2-1.4-.6-2.3-2.2 0 .3-2 .5-2.8.8 1 1-.6 2 0l.3-2.6c1 .3.6 2.2 0 3.1 1.3-1.5.7-1.6 1.9.2 0-.8.9-.8 1-1.5l.6-1.8c.3-.6 1.3-.6.7-1.4l-.7-.2c-.2 0-1-1.4.4-.3-.3-.9 1.3-1.5.3-.1 1.6-1.5-.4 1.9 1.5 1.4-.4-.9.5-1.7 1.3-1.7-.5.7 0 1.3.4 1.8.7-.8 2.2-1.1 2.6-2.1.3-.8-1-1.2.5-1.8.8-.3 1.2 1.8 2.5 1.8 1 0 1.2.6 2 1.4 1 1 1.5 2.4 2.5 3.4.5.6 1.4 1.4 1.3 2.3 0 1-.7 2-.9 3-.1 1-.1 2.5-1 3.2 1-.5.3-1.6 1-2 .8-.7 1.1.7 1.2 1.3.4-1-.8-2-.3-3 .5-1.2 1.2.1 2-.3-.8-3.4 6-2.2 5.3 1.2 1.2-.5.7-1.8.7-2.8 1.6.2 2.1 3.4 3.5 3-.3-.7-1.1-2-.2-2.8.7-.4 1.5 0 2.2-.7q-1.9.4-2.5-1.4.9 0 1.6-.6c-1.2.4-3.7-.5-2.7-2q.4-1.2 1-2c.6-.5 1.7-.2 2-1 .4-1.1.6-2.6 1.2-3.6s1 0 1.7-.5c.4-.4 1.6-1.7 2.2-1.3-.6-.6-1.3-1.8-1.1-2.7.3-1.5.9-.3 1.6-1.4.4-.7.2-1.5 1.1-2 .6-.4 1 .7 1.8.5-.8-.3-1-2.4-.1-2.8s1.6 2 2.4 2.1c-.9-.7-1-3.1.7-2.3.2-.7-.3-1.4.5-1.7s1 .8 1.5-.4c1.2 2.8 8.5 0 8.6 1.6 0-1.2 1.3-2 2.3-1.3-1.1-1.2.2-3-.1-4.4-.5-2-2.5-1.7-4-1 .1-1-1.2-1.5-1.7-2-.4-.2 1.2-1.2 1.3-1.4q.9.9 1 2.2.8-1.1.2-2.2.7 1.3 1.4 0c.3 1.1 2 2.4 2.6 3.4.4-.6 1.8-.7 1.4-1.7 1 .6 1.3 3.4 2.4 3.4s2.3-.1 2.1 1c1.1 0 1.9-1.3 3-1-1.9 1.4 2.3 1.1 1.7 3 .7-1.2.9-.3 1.9-.1s1.7-.7 2.7-.8c.3 2.3 2.5 2 4 2.4-1.1-1.8 3.8-1 2.2-2.4 1-.3 2.4-.5 2.4-1.8.7 1-.6 1.6-1.2 2 1.3 0 .3.4-.2 1q-.8.8-.3 1.8c.5-.7 1.2-1.5 2.1-1.5-1 1 .3.4.2 1.6q0 .6.5 1c1 .2 1.8-1 2.1-1.7-2.6 0 1.6-2.6 2-3-1.2.6-.2 2.9.8 3.2-.6-1.2.8-1 1.2-.5q.3.8-.2 1.5c-.7 1.4-2 3.4-3.5 4q.8.7 1.1 1.5l-.8-.5c-.2 1.1-.3 2.1-1.5 2.7l.1-1.5-1.4 1.2c-.1-1.7-1.2 0-1.2.6-.2-1.5-1.8.3-.8 1.2-2.2-.4-.7 3.8.5 1.8a41 41 0 0 1-3.5 6.2q-.8 1.4-2 2.5c-.9.8-1.4.5-.6 2 1 2 3.3 2.6 4.6 4.3.7 1 1.2 2 2.3 2.6.8.5 1.5 1.1 1.2 2.1.8-.3 1.6.4 2.2-.6q1.4 1.8 3.4 2.5c1.6 1 2.3 2.1 3.4 3.5 1.9 2.4 4.6 1.5 6.9 3.2 1.2.9.3 2.7 1.4 3.6.6.5 1.4.4 2 1l2 1.5c2.1 1.5 6.8 0 8-2.2 1.8-3.3 4.2-6.5 5.5-10l2-6.2c.9-2.2 1.8-3.8 1.7-6.2-.1-1.8 0-3 .6-4.6.7-1.7-.8-3.2 0-5.1.8-1.5 2.2-2.7 1.8-4.5-.6-2.1 1.2-2.2 1.6-3.9q.6.7.7 1.5 0-.9.8-1.2c-.3 0-1.8-1.7-2-2l-.6.6c-.2-.8.4-2 .9-2.5q.3-.4.8-.4-.4-1.2.6-2.1.2.8 1.1.7c-.1-3 1.7-5.3 2-8.2.2-1 .2-1.6 1.2-2s1.5-2.1 2.7-1.2l-1 1.5.9-.5c.3 1 1.2 1.4 1 2.4q-.1.6.1 1.3c.3.9-.1.9-.1 1.7q-.2 1.4 0 2.7c.2 1.2 2 1 2.7 1.4-1.4 1.1-1.9 2.2-.7 3.5s1 2.4.6 4.1c1.6-.3.8 6.5.5 7.3-.5 1 .1 1.7.4 2.6s-.2 2.2.3 3.3c.9 1.8 3.2.7 3.5-1 1.4 1.8 2.1-2.3 2.8 1.6.1 1 2 2 2.6 2.9 0 0 2.2 1.4 2.4 1.4-.5.8-1.9 2.2-.4 2.8-2 2.4.4 5-.5 7.6-.6 1.6-1 2.4-.1 3.9.4.7 1.7 2.2 1.1 3l1.5-.6c-.3 1.6-.6 2.2-.2 3.8q.4 1.7.1 3.6-.5 1.8-1.4 3.4c-.6 1.4 1 1.7.9 2.9-.1.9 1.2.2.8 1.3-.4 1-1.4 1.8-.8 3 .3.7 1.6 2.1 2.4 2 .9 0 1.6 2 2.4.4 0 1.8 3 2.1 2.7.9.5 1 .2 4 1.6 4.4q0-1 .9-1c-.4 1.5 1.2 1.6 2.3 2 .8.3-.2 2.2 1.5 1.7.3-.1 0-.7.4-.9.7-.3.6.9.7 1.2.2.6 1 .3 1.2.9.4.6.3 1.4.7 2.1-.4-.7-1.4-.9-1.8 0s1 2.2.3 3.2c3.9-1.4 1 5.6 3.7 5.5-1 1.1-.9 2.8-.8 4.1.1 1.1 1.2 3 .4 4 1.4-.5 1.6 0 2.2 1.2.7-1.3-.1-2.7.9-4 1.1 1.1 1.7 2.7 3.1 3.5.2-.4 0-1.2.4-1.5.6-.6 1.1-.1 1.2.6.1 1.9 0 3-.7 4.8-.3 1 0 2-.4 3.1-.7 2.2.8.8 1.5 2.2q-.3-.8.2-1.5c1.6.5 1.5 4.4-.1 1.8.2 1.1 3.5 5 3.5 2.9 1.6 1.3 1.2 3.3 2 5 .4.8 1.3 1 1.8 1.6.7.8.2 1.8.4 2.7.3 2 2.3 1.2 2 3.2 0 .7-.8 1.2-1 2s.8 1.4.4 2.6l.7-.7c1 .9-.6 2-1 3q-.8 2.3-1.2 4.8c-.2 1.2.1 2.2-1 3q-1.5 1.3-.1 2.8c.5.7.4 2.7.2 3.6l-.4 1.8c0 .7.6 1 .4 1.8-.8 3.4-2.4 5.6-4.4 8.5s-3.3 6.6-5.6 9.5c-2 2.5-2.2 5.5-4.1 8l-2.8 3.8c-1 1.1-2.5 1.7-3.3 3-.5.9-.7 2.5-1.4 3.2-.4.4-1.1.3-1.6.7-.8.6-1.6 1.5-2.7 1.6 1.8.2-1.2 1-1.7 1a8 8 0 0 0-3.2 2.7c-.6.7-1.6 1-2.2 1.7-.8 1-.6 2-2.4 1.8q-.1 1 .5.7l-1.4 2.4c-.5.6-1.1.4-1.5 1.1-1 1.5-2.6 2-3.4 3.5-.4.8-.3.6-1 .7 0 0-.4 1.4-.6 1.6-.3.4-2.5 2.3-1.3 2.8-.3.5-.8 1.2-1 0-.4.4-.2 1.4-1 1.5a3 3 0 0 0-2 1.2q-2.8 2.8-5.1 5.7c-1.3 1.7-2.2 3.8-3.6 5.5-.7 1-2.2 3.7-3.3 4.2 1 .2 0 1.8-.2 2.2l-1 1.2c-.5.5-1.1 0-1.7.3-1.6.9-2.5 2-4.6 2.2-2.2.3-4.5 0-6.8.3-4.5.4-8.3 3.2-12 5.7a11 11 0 0 1-5.4 2c-2 0-1.4-.3-1.8 1.6q.7-.6 1.5-.8c-.2 1-1.1 2.3-2 2.7-.2-.6.1-1.6-.3-2.2-.7-.8-1.1.1-2 .2q.3-1.2.3-2.3c-1 .2-1.6.7-1.8-.5-.2-1.3 1-1.3 1.4-2.4.6-1.6-2.9.7-3 .9-1.5 1.2-2.1.7-2.9-.7 1 1 2.2-.1 3-.8 1.2-1 .6-1.8.7-3.2-2 .4-3.6 1.7-5.2 2.6.7.3 1.5-.1 2.2.4-.7 1-2 .7-3 1q-2.2.8-4 2.2c-1.2.9-2.4 1.3-3.6 2-1 .5-1.3-.4-2.4-1-2-.9-3.1-3-5.4-2.7-1.2.2-1.8-1.2-3.1-1-.7.2-.9.7-1.5 1-.4.2-1-.1-1.5 0 2-2.3-3.8-2.8-4.5-3.8q-1-1.6-1-3.5c0-.7-1.2-1.2-1-2.5.4-2.4 2.5-3.5 3-5.6.8-3.4-.4-6.3-2.5-8.9a7 7 0 0 1 2.9 5.5q.3-2-1-3.8c-.5-.8-1.6-2.3.2-2.1l-.2 1.5c1-.2.8-.7.9-1.4 0-.8 1.4-.6 1-1.4-.4-1-3.5.1-2.8 1.3-.3-.1-2.8-.4-.7.2-1.7-.1-5 2.2-6.4.6.7-1 2-1.6 3.1-2.2 1-.5 1.5-1.8 2-2.7 1.3-2.5 1.1-5.2.5-8-.7.4-.7 1.2-1.2 1.7q-1 .7-1.7 1.7l-2.7 4.2c-1 1.5-1.1 1.2-2.8 1-1.5 0-3.1 1.5-4.8 1.4.2-.9 1.2-2 2-2.6 1.2-1 2.8.3 4-.8 2-2 1.9-5.4 3.8-7.6 1-1.2 1.7-2 3.1-2.8 1.7-1 1-2.1 1.6-3.6.3-.9 1.2-1 1.9-1.5.2-.1 0-1.3 0-1.5 0-.5.8-2.8 0-3.1-.3-.2-.8 2.2-.9 2.4-.6 1.2-2.5 2-3.4 3l-2.8 3.2q-.6.7-1.4 1.3c-.5.1-1-.3-1.5-.2-1 .3-2 1.5-3 1.9q-2.3 1-3.9 3c-.4.4-2 2.4-2.5 2.3-1.5-.3-1.8 2-2.6 2.6l1.5-.6c-.6.7-.7 1.6-1.4 2.3-.5-1.5-1.8-.5-2.4-1.7-.4-.9-.9-2.7-2.2-2q.5-.8 1.3-1.4c-.2 1 1 1.8 1.2.5q.4-2.2.6-4.5c0-1.4-2-2.3-1.3-3.7.2-.6.6-1.2.3-1.9q-.6-.6-.2-1.3c-.7.6-1.2-.1-2 0-1 .4-.6-.4-.8-.9 0-.2-.6-1.4-.5-1.7.3-.2 1.7-2.3 1.3-.6.6-.5 1.3-1.5.8-2.4-.7-1-1.8-.1-2.6 0 .1-.5.9-1.1.8-1.7s-.8-1-.9-1.7c0-.4-2.3.6-2.4.6-1.5-.1-2.6-1.4-4-2s-1.5 1-2.7.7c-2.8-.5-4-4.4-7-4.8q-1.4.2-2.7.8c-1.1.4-2.4 0-3.5 0-2.8 0-6.2 0-9 .6-5 1.2-9.6 4.1-14.8 5.2q-3.7.6-7.3.1c-3.1-.2-4.7 1-7.3 2.4-2.2 1-4.7 2.5-7 3.1-2.5.7-4.1.8-5.7 3a21 21 0 0 1-4.1 4.7c-.3.2-1.7 1.4-2 1.2-1.2-.6-1.8.5-2.9.7.7-1.8-4.7-1-5.5-.8-1.3.5-1.5 1.3-2-.4l-4.1-.4c-2-.2-4.4.4-6.3.7l-4.2.4c-1.8.3-6 1.2-5.5 3.8-.4-.2-1.7.6-2.2.9s-1.3-.5-2-.4c-.8.1-1.3.8-1.8 1.2q-.8.6-1.8 1c-1 .4-1.3 1-2 1.6q-2 1.2-4.1 1.2c1.7.8-2 .4-2.7.4-2.4-.3-4.8-.1-7.2-.6l.3-.7c-2.1.3-3-1.5-4-2.9-.7-1.1-2.5-3.5-4-2-1.3-1.3.3-7.6 2.8-6"/><path d="m2307.9 800-.3-.7q1.1-.1.3.7m74-8.2q1-.7.2-1.5-1 .7-.2 1.5m.1-5.1q.5-.3.6-.8-1.2-.1-.5.8m.9.7q.4-.5.4-1.1-1.1.3-.3 1M2332 1162c-1 .5-1.3 2.8-.6 2.4.6-.3.4-1.8.6-2.4m219.3-224.9-2.4-1.4c-.8.6-1.2 1 1 1.3"/></g></svg>
