<svg xmlns="http://www.w3.org/2000/svg" viewBox="2111.58 754.81 351.94 351.94"><g id="au" fill="#2B1D24">
		
		<path id="path3366" d="m 2402.74,858.58 c 0.95,-0.581 0.16,-1.505 -0.1,-2.23 -0.83,0.637 -0.44,1.545 0.1,2.23"></path>
		<path id="path3368" d="m 2419.59,874.50 c 0.68,-0.277 0.63,-1.002 0.29,-1.521 -0.1,0.507 -0.2,1.013 -0.29,1.521"></path>
		<path id="path3294" d="m 2308.49,796.74 c 0.48,-0.958 0.34,-1.988 0,-2.961 -0.79,1.058 -0.33,1.845 0,2.961"></path>
		<path id="path3298" d="m 2314.18,799.54 c 0.14,-0.144 0.29,-0.287 0.44,-0.431 -0.41,-0.291 -0.56,-0.147 -0.44,0.431"></path>
		<path id="path3310" d="m 2335.06,803.14 c 0.28,-0.319 0.57,-0.629 0.87,-0.93 -0.57,0.02 -0.89,0.36 -0.87,0.93"></path>
		<path id="path3312" d="m 2335.35,799.69 c 0.79,-0.309 1.56,-0.767 2.02,-1.51 -0.55,0.704 -1.6,0.664 -2.02,1.51"></path>
		<path id="path3318" d="m 2338.01,797.67 c 1.21,-0.701 2.16,-2.196 2.24,-3.601 -0.24,1.41 -1.53,2.436 -2.24,3.601"></path>
		<path id="path3288" d="m 2292.01,800.98 c 0.38,-0.05 0.74,-0.172 1.08,-0.36 -0.2,-0.75 -1.15,-0.846 -1.15,-1.664 -0.13,-0.33 -0.3,-0.638 -0.51,-0.926 0.1,-0.507 0,-1.01 -0.1,-1.51 -1.12,0.416 -1.3,1.139 -1.41,2.23 -0.1,0.81 -1.33,1.308 -0.89,2.161 1.06,-0.269 1.91,-0.367 2.95,0.07"></path>
		<path id="path3290" d="m 2298.06,797.10 c -0.23,-0.969 -1.31,-0.986 -1.52,0 -0.73,-0.979 -1.83,0.04 -2.77,-0.235 -0.39,-0.115 -1.61,-1.633 -1.91,-0.734 -0.55,1.704 1.64,5.897 3.77,5.419 1.21,-0.272 3.64,-1.854 4.02,-3.113 0.17,-0.54 1.14,-2.217 -0.3,-2.497 -1.01,-0.198 -1.96,-0.118 -1.29,1.16"></path>
		<path id="path3334" d="m 2347.30,1049.60 c 0.36,-0.21 0.65,-0.49 0.87,-0.86 -0.57,0 -0.89,0.29 -0.87,0.86"></path>
		<path id="path3336" d="m 2348.89,1048.81 c 0.4,-0.1 1.67,-1.17 0.83,-1.5 -0.72,-0.29 -2.6,0.1 -2.35,1.14 0.59,-0.24 1.1,-0.12 1.52,0.36"></path>
		<path id="path3286" d="m 2291.07,1010.65 c 0.76,-0.21 1.34,-0.78 1.97,-1.22 1.01,-0.71 1.54,-0.24 2.62,-0.31 0.87,-0.1 1.6,-1.1 0.31,-1.27 -0.17,0 -0.3,0.17 -0.37,0.33 -0.5,0.4 -1.41,-0.35 -1.94,-0.34 1.88,-1.77 -5.81,-0.33 -6.16,-0.23 -0.75,0.21 -2.91,1.43 -1.75,2.47 1.52,1.37 3.86,-1.07 5.32,0.57"></path>
		<path id="Australia_Tasmania" d="m 2329.66,1068.32 c 0.1,0.79 0.59,1.68 -0.43,2.09 1.26,0.3 0.94,-1.22 1.85,-1.49 1.2,-0.37 1.85,1.33 0.6,1.78 0.31,-1.6 -1.15,-0.26 -1.06,0.53 0.1,0.93 0.88,0.77 1.28,0.11 -0.36,2.03 1.72,-1.46 2.01,-1.94 -1.3,-0.12 -0.38,-0.77 0.19,-1.44 0.69,-0.83 1.52,-1.52 2.23,-2.33 0.59,-0.66 0.94,-1.49 1.64,-2.05 0.6,-0.49 1.69,-1.03 1.85,-1.87 0.36,0.75 0.14,1.61 -0.37,2.22 1.09,-0.41 1.32,-1.73 1.73,-2.67 0.59,-1.33 1.56,-2.5 2.32,-3.74 1.02,-1.67 3.86,-4.52 2.04,-6.17 -0.92,-0.83 -1.2,0.92 -2.19,0.74 -1.31,-0.26 -1.9,0.36 -3.01,0.92 -0.51,0.26 -6.07,-0.6 -4.56,1.49 -0.8,0.27 -1.04,0 -0.72,-0.73 -1.87,-0.1 -3.64,1.49 -5.4,0.1 -0.62,-0.49 -3.76,-2 -3.38,-2.81 -1.09,0.5 -3.12,0.47 -3.53,-0.94 -2.01,2 -2.62,4.04 -3.5,6.62 -0.7,2.04 1.3,5.19 -0.82,6.7 0.25,-0.17 0.51,-0.31 0.79,-0.43 -0.1,1.03 0.57,2.26 -0.57,2.94 0.25,-0.76 0,-1.54 -0.44,-2.15 -2.48,2.43 -1.11,5.91 -1.29,8.79 0.76,-0.45 1.45,0.29 2.23,0.1 0.41,1.08 -0.9,1.35 -1.44,0.58 -0.28,0.5 -0.54,1 -0.79,1.51 1.04,-0.19 2.91,0.57 3.74,-0.29 0.12,2.83 2.92,-0.1 3.49,-0.56 0.88,-0.73 1.05,-1.08 1.26,-2.04 0.16,-0.77 1.04,-0.1 0.8,0.59 1.43,0.17 3.44,-2.87 3.45,-4.11"></path>
		<path id="path3306" d="m 2320.01,1044.49 c -0.21,0.36 -0.4,0.71 -0.57,1.08 1.65,-0.1 3.58,-2.3 3.58,-3.98 0,-1.4 -1.21,0.1 -1.39,0.24 -0.73,0.59 -1.69,1.65 -1.62,2.66"></path>
		<path id="path3338" d="m 2348.31,1044.49 c -0.1,0.45 -0.51,2.26 0.33,2.29 1.7,0.1 1.71,-1.71 2.62,-2.58 -0.99,-0.16 -1.02,-1.3 -1.65,-1.87 -0.81,0.48 -0.96,1.37 -1.3,2.16"></path>
		<path id="Australia_mainland" d="m 2139.15,989.77 c 1.94,0 3.95,-2.13 4.75,-3.75 0.91,-1.83 -0.18,-4.54 1.73,-5.9 -0.46,0.37 -0.69,0.94 -0.57,1.51 0,-0.58 0.35,-0.86 0.93,-0.72 -0.49,-1.59 0.77,-3.02 1.28,-4.33 1.11,-2.86 0.61,-5.24 0.13,-8.16 -0.45,-2.71 -1.46,-5.69 -0.71,-8.44 0.72,-2.62 1.98,-6.25 1.55,-8.95 -0.18,-1.12 -0.8,-2.12 -0.84,-3.27 0,-1.19 0,-2.23 -0.45,-3.36 -0.44,-1.09 -1.44,-2.06 -1.5,-3.25 -0.1,-1.37 0.59,-2.68 0.64,-4.05 0.11,-2.65 -0.73,-5.43 -2.16,-7.64 -0.61,-0.93 -1.33,-1.92 -1.55,-3.04 -0.21,-1.02 0.67,-1.52 0.59,-2.46 0.23,0.73 0,1.45 -0.15,2.16 0.56,-0.6 0.78,-1.42 0.8,-2.23 -0.14,1.01 0.47,1.94 0.28,2.95 0.35,-1.96 0.23,1.12 0.15,1.51 1,-1.63 0.46,0 0.57,0.72 1.9,-1.02 2.79,-1.94 1.2,-3.79 -1.08,-1.26 -1.87,-4.33 -0.48,-5.64 0.65,0.58 1.1,1.56 1.3,2.39 0.27,1.14 -0.73,1.91 -0.65,3.01 0.91,0.1 1.38,-0.8 1.51,-1.58 0.15,1.15 -0.23,2.43 0.4,3.49 0.35,0.58 1.34,-0.37 1.47,-0.66 0.83,-1.92 1.52,-3.63 0.5,-5.55 -0.87,-1.64 -0.79,-3.54 -1.89,-5.03 -0.42,-0.57 -0.19,-1.05 -0.19,-1.69 0,-1.39 -0.7,-2.64 -0.88,-4 -0.28,-2.13 0.99,-4.6 2.17,-6.3 1.39,-1.98 2.37,-3.44 2.89,-5.9 0.24,-1.13 -0.58,-1.99 -0.58,-3.08 0,-1.152 1,-2.083 1.47,-3.059 0.7,-1.439 1.34,-3.89 3.07,-4.437 0.2,0.881 -0.2,1.694 -0.51,2.486 -0.44,1.114 -0.15,2.349 -0.43,3.493 2.35,-0.812 2.39,-2.038 3.53,-3.96 1.17,-1.982 3.12,-2.848 5.21,-3.518 2.97,-0.945 5.08,-2.979 7.45,-4.907 0.62,-0.502 1.35,-1.809 2.13,-1.91 1.75,-0.225 3.11,-0.909 4.29,-2.276 -0.32,1.979 1.81,0.234 2.61,0.343 0.76,0.103 1.08,0.888 1.93,0.888 1.1,0 2.14,-0.379 3.07,-0.93 2.03,-1.193 3,-2.545 5.49,-2.54 1.03,0 2.13,-0.02 2.96,-0.711 0.94,-0.784 1.29,-2.204 2.73,-2.204 2.21,0 3.56,0.368 5.75,-0.212 2.54,-0.671 4.84,-1.269 7.16,-2.519 1.87,-1.007 8.78,-5.17 7.4,-8.305 0.78,0.08 1,-0.32 1.2,-0.978 0.31,-1.022 1.25,-1.373 2.09,-1.898 1.22,-0.766 3.95,-1.973 2.68,-3.502 -1.07,-1.302 -0.39,-4.969 0.31,-6.314 0.4,-0.768 2.34,-3.65 3.43,-2.357 -0.68,-1.34 0.33,-1.19 1.2,-1.648 1.06,-0.561 1.09,-2.635 2.55,-3.323 0.6,0.808 -1.31,2.656 0.65,2.59 -1.37,1.901 2.39,5.658 2.16,7.711 1.11,-1.444 0.16,-3.775 1.08,-5.19 0.82,0.409 1.15,1.298 1.73,1.95 -0.11,-1.266 -0.3,-2.178 0.93,-2.96 -0.97,0.331 -3,-1.605 -2.16,-2.521 -0.57,-0.02 -0.89,-0.358 -0.86,-0.93 1.06,0.833 0.37,-0.195 1.32,-0.372 1.14,-0.213 -0.1,-1.481 -0.31,-1.938 0.99,-0.624 2.82,0.119 1.29,0.44 0.57,0.208 0.94,0.676 0.65,1.29 0.66,-0.178 0.77,-1.121 1.44,-1.185 0.87,-0.08 0.9,0.51 1.44,0.954 0.68,0.555 1.09,-0.444 1.82,-0.02 0.81,0.479 1.75,-0.126 2.57,0.388 -0.7,-0.862 -1.35,-0.412 -2.23,-0.72 -1.24,-0.427 -0.32,-1.336 -0.22,-2.23 0.16,0.247 0.33,0.487 0.51,0.721 1.03,-0.702 0.57,-2.255 1.8,-2.801 -0.62,-0.233 -1.06,0.149 -1.23,0.721 -0.89,-0.936 -1.51,-2.907 0,-3.609 0.69,-0.321 2.78,-0.964 1.68,-2.011 0.78,0.04 1.36,0.598 1.97,1.02 0.19,0.281 0.37,0.564 0.55,0.851 0.38,0.104 0.76,0.201 1.15,0.29 -1.12,-0.661 -0.29,-1.933 -1.94,-1.95 0.3,-0.517 0.73,-0.876 1.29,-1.08 -0.55,0.11 -1.03,0.35 -1.44,0.72 -0.1,-0.967 2.29,-2.837 2.16,-1.22 0.1,-1.644 1.21,0.432 2.23,0.22 -0.38,-0.678 -1.24,-1.392 -0.64,-2.229 -2.17,-0.116 0.38,-2.042 0.5,-2.811 0.82,0.877 1.12,-0.633 2.02,-0.07 0.23,-0.827 0.17,-1.688 0.28,-2.53 1.07,0.223 0.63,2.203 0,3.1 1.34,-1.537 0.76,-1.645 1.95,0.15 0,-0.778 0.87,-0.754 1.01,-1.44 0.1,-0.421 0.4,-1.522 0.57,-1.88 0.27,-0.58 1.31,-0.538 0.72,-1.4 -0.2,-0.179 -0.43,-0.225 -0.68,-0.135 -0.26,0.01 -0.98,-1.397 0.39,-0.334 -0.31,-0.875 1.26,-1.535 0.29,-0.141 1.59,-1.455 -0.38,1.909 1.51,1.44 -0.39,-0.88 0.47,-1.646 1.3,-1.66 -0.48,0.646 0,1.239 0.43,1.729 0.68,-0.772 2.11,-1.082 2.52,-2.09 0.32,-0.794 -0.96,-1.154 0.5,-1.755 0.83,-0.34 1.21,1.74 2.51,1.776 1.11,0.03 1.24,0.591 2.01,1.398 0.98,1.026 1.51,2.372 2.47,3.41 0.57,0.622 1.45,1.384 1.37,2.327 -0.1,1.044 -0.72,1.987 -0.9,3.028 -0.16,0.972 -0.17,2.419 -0.97,3.135 0.91,-0.45 0.29,-1.553 0.93,-2.021 0.86,-0.63 1.13,0.747 1.23,1.3 0.41,-1.003 -0.83,-1.97 -0.36,-2.949 0.57,-1.202 1.2,0.08 2.09,-0.29 -0.86,-3.462 5.99,-2.24 5.25,1.149 1.16,-0.443 0.69,-1.809 0.72,-2.729 1.61,0.138 2.12,3.335 3.46,3.02 -0.31,-0.757 -1.11,-2.159 -0.17,-2.834 0.66,-0.473 1.54,-0.08 2.18,-0.695 -1.26,0.17 -2.02,-0.212 -2.44,-1.44 0.56,-0.03 1.07,-0.221 1.51,-0.57 -1.12,0.343 -3.61,-0.539 -2.7,-2.066 0.37,-0.623 0.55,-1.556 1.11,-2.043 0.5,-0.429 1.61,-0.134 1.88,-0.855 0.42,-1.171 0.63,-2.63 1.22,-3.716 0.54,-1.005 0.98,0.124 1.69,-0.448 0.46,-0.371 1.62,-1.696 2.27,-1.311 -0.6,-0.623 -1.33,-1.755 -1.16,-2.667 0.29,-1.544 0.92,-0.312 1.6,-1.42 0.46,-0.739 0.27,-1.482 1.15,-1.994 0.63,-0.368 1.05,0.7 1.79,0.531 -0.78,-0.313 -1.03,-2.487 -0.14,-2.8 0.94,-0.331 1.59,1.875 2.45,2.079 -0.91,-0.681 -1.06,-3.17 0.64,-2.37 0.21,-0.609 -0.23,-1.345 0.53,-1.654 0.79,-0.316 1.07,0.838 1.56,-0.365 1.19,2.767 8.43,-0.1 8.57,1.58 0,-1.191 1.24,-2.052 2.3,-1.36 -1.12,-1.184 0.17,-2.972 -0.14,-4.319 -0.47,-2.057 -2.45,-1.766 -3.96,-1.08 0.1,-0.98 -1.18,-1.422 -1.73,-1.872 -0.36,-0.292 1.2,-1.252 1.3,-1.519 0.71,0.556 0.86,1.428 1.08,2.24 0.45,-0.683 0.54,-1.509 0.14,-2.24 0.42,0.839 0.97,0.903 1.44,0.07 0.25,1.084 1.92,2.325 2.52,3.32 0.45,-0.585 1.85,-0.647 1.44,-1.66 0.92,0.638 1.3,3.418 2.38,3.409 0.96,0 2.27,-0.125 2.16,0.98 1.08,0.04 1.85,-1.3 2.95,-0.93 -1.86,1.394 2.33,1.084 1.73,3.02 0.71,-1.302 0.87,-0.366 1.86,-0.181 1.11,0.209 1.72,-0.669 2.75,-0.829 0.26,2.291 2.46,1.969 3.96,2.45 -1.14,-1.812 3.84,-0.928 2.23,-2.45 0.93,-0.233 2.38,-0.473 2.38,-1.72 0.66,0.922 -0.62,1.542 -1.23,1.939 1.37,0 0.31,0.456 -0.19,1.026 -0.48,0.546 -0.65,1.121 -0.24,1.784 0.5,-0.702 1.14,-1.509 2.09,-1.521 -0.96,1.015 0.23,0.441 0.19,1.601 0,0.36 0.1,0.905 0.48,1.025 0.91,0.254 1.82,-1.027 2.13,-1.686 -2.59,-0.04 1.55,-2.616 2.02,-3.09 -1.25,0.656 -0.25,2.969 0.79,3.31 -0.65,-1.179 0.77,-0.982 1.13,-0.482 0.31,0.423 0,1.083 -0.16,1.486 -0.67,1.414 -2.01,3.38 -3.49,3.966 0.47,0.43 0.83,0.933 1.08,1.511 -0.25,-0.185 -0.52,-0.355 -0.79,-0.511 -0.25,1.119 -0.33,2.138 -1.51,2.67 0,-0.481 0,-0.961 0.1,-1.439 -0.54,0.331 -1.02,0.738 -1.44,1.22 -0.1,-1.729 -1.15,-0.05 -1.15,0.58 -0.21,-1.559 -1.83,0.316 -0.86,1.22 -2.15,-0.411 -0.61,3.707 0.57,1.73 -1.07,2.23 -2.11,4.229 -3.54,6.243 -0.61,0.858 -1.22,1.752 -1.99,2.472 -0.89,0.827 -1.38,0.512 -0.64,1.963 1,1.97 3.3,2.656 4.6,4.358 0.76,0.996 1.25,1.918 2.34,2.603 0.76,0.48 1.5,1.085 1.17,2.092 0.83,-0.317 1.67,0.356 2.24,-0.58 0.79,1.235 2.16,1.838 3.39,2.517 1.58,0.87 2.3,2.093 3.39,3.465 1.87,2.369 4.59,1.526 6.89,3.18 1.23,0.882 0.3,2.687 1.41,3.583 0.61,0.491 1.43,0.451 2,1.038 0.6,0.614 1.33,1.016 2.03,1.512 2.13,1.514 6.77,0.06 8.02,-2.226 1.81,-3.278 4.14,-6.526 5.47,-10.053 0.77,-2.026 1.34,-4.117 2.09,-6.147 0.8,-2.159 1.73,-3.796 1.58,-6.173 -0.12,-1.859 0,-2.976 0.66,-4.662 0.68,-1.707 -0.88,-3.212 0,-5.083 0.72,-1.517 2.2,-2.728 1.74,-4.524 -0.53,-2.06 1.23,-2.159 1.63,-3.856 0.44,0.41 0.66,0.913 0.65,1.511 0,-0.577 0.35,-1.014 0.86,-1.221 -0.29,-0.04 -1.8,-1.679 -1.95,-2.02 -0.24,0.21 -0.48,0.426 -0.71,0.649 -0.16,-0.819 0.4,-1.926 0.95,-2.498 0.2,-0.247 0.46,-0.375 0.77,-0.382 -0.4,-0.793 0.1,-1.569 0.58,-2.16 0.16,0.56 0.57,0.845 1.15,0.721 -0.1,-3.025 1.73,-5.297 2.09,-8.21 0.12,-0.944 0.12,-1.567 1.15,-1.984 0.97,-0.392 1.43,-2.107 2.66,-1.256 -0.36,0.474 -0.67,0.977 -0.93,1.51 0.25,-0.161 0.52,-0.305 0.79,-0.43 0.3,0.915 1.21,1.352 1.04,2.385 -0.1,0.423 0,0.835 0.13,1.237 0.29,0.939 -0.16,0.934 -0.16,1.772 0,0.89 -0.18,1.806 0,2.691 0.2,1.148 1.98,1.019 2.77,1.424 -1.44,1.062 -1.9,2.174 -0.77,3.427 1.2,1.333 1,2.454 0.62,4.133 1.6,-0.314 0.81,6.454 0.47,7.263 -0.42,0.983 0.17,1.731 0.48,2.645 0.35,1.069 -0.2,2.209 0.28,3.263 0.86,1.867 3.21,0.695 3.45,-0.939 1.46,1.817 2.15,-2.344 2.82,1.577 0.15,0.905 1.99,1.993 2.6,2.846 0.1,0.108 2.17,1.467 2.36,1.487 -0.46,0.744 -1.84,2.199 -0.36,2.729 -1.98,2.401 0.42,5.023 -0.51,7.625 -0.57,1.61 -0.9,2.432 -0.1,3.905 0.43,0.743 1.69,2.157 1.14,3.09 0.44,-0.373 0.95,-0.589 1.52,-0.649 -0.38,1.52 -0.63,2.132 -0.22,3.717 0.3,1.182 0.28,2.425 0.1,3.627 -0.19,1.332 -0.89,2.194 -1.42,3.381 -0.63,1.436 0.99,1.756 0.89,2.905 -0.1,0.906 1.18,0.218 0.78,1.371 -0.34,1.003 -1.42,1.8 -0.8,2.946 0.37,0.673 1.58,2.109 2.46,2.028 0.82,-0.08 1.53,1.951 2.38,0.334 -0.1,1.889 2.99,2.191 2.67,0.93 0.49,1.064 0.19,3.982 1.58,4.4 0,-0.565 0.37,-0.906 0.93,-0.939 -0.43,1.491 1.23,1.602 2.27,1.986 0.85,0.315 -0.16,2.175 1.51,1.671 0.37,-0.11 0.1,-0.741 0.43,-0.883 0.73,-0.299 0.64,0.848 0.72,1.154 0.16,0.657 0.91,0.289 1.21,0.886 0.34,0.679 0.3,1.483 0.63,2.166 -0.37,-0.75 -1.38,-0.881 -1.74,-0.04 -0.47,1.064 0.94,2.213 0.23,3.211 3.9,-1.4 1.06,5.593 3.74,5.54 -0.92,1.069 -0.88,2.794 -0.75,4.11 0.1,1.105 1.18,3.026 0.32,4.03 1.41,-0.577 1.6,-0.152 2.24,1.087 0.65,-1.284 -0.13,-2.704 0.86,-3.897 1.18,1.053 1.76,2.647 3.17,3.46 0.21,-0.401 0,-1.196 0.36,-1.51 0.63,-0.595 1.11,-0.138 1.17,0.564 0.16,1.873 0,3.033 -0.64,4.783 -0.36,1.04 -0.1,2.1 -0.42,3.18 -0.68,2.16 0.81,0.78 1.47,2.12 -0.19,-0.52 -0.12,-1 0.22,-1.43 1.6,0.51 1.49,4.34 -0.1,1.73 0.18,1.14 3.46,4.95 3.46,2.94 1.64,1.33 1.24,3.26 2.09,4.97 0.4,0.82 1.28,0.99 1.8,1.66 0.62,0.8 0.2,1.77 0.34,2.68 0.31,1.99 2.28,1.23 2.04,3.16 -0.1,0.72 -0.79,1.23 -0.94,1.94 -0.2,0.97 0.74,1.53 0.29,2.67 0.23,-0.26 0.46,-0.5 0.72,-0.72 1.09,0.89 -0.64,2.11 -0.94,2.95 -0.54,1.48 -1.01,3.29 -1.27,4.85 -0.19,1.19 0.12,2.25 -0.89,3.04 -1.1,0.87 -1.01,1.7 -0.24,2.77 0.52,0.73 0.4,2.76 0.22,3.63 -0.12,0.58 -0.37,1.19 -0.34,1.79 0,0.66 0.52,1.06 0.36,1.77 -0.78,3.45 -2.4,5.66 -4.38,8.51 -2.13,3.06 -3.31,6.58 -5.66,9.56 -1.99,2.51 -2.13,5.51 -4.07,8.01 -0.94,1.21 -1.74,2.56 -2.74,3.73 -0.99,1.14 -2.55,1.76 -3.33,3.08 -0.5,0.85 -0.74,2.43 -1.42,3.12 -0.4,0.41 -1.09,0.37 -1.56,0.7 -0.84,0.6 -1.68,1.5 -2.76,1.67 1.86,0.17 -1.15,0.89 -1.63,1.04 -1.28,0.4 -2.44,1.57 -3.26,2.59 -0.58,0.72 -1.56,1.01 -2.17,1.72 -0.83,0.98 -0.64,2.04 -2.37,1.85 -0.12,0.64 0,0.86 0.5,0.65 -0.54,0.77 -0.95,1.65 -1.49,2.41 -0.43,0.61 -1.06,0.4 -1.49,1.12 -0.89,1.47 -2.61,1.94 -3.39,3.51 -0.4,0.79 -0.27,0.54 -0.91,0.67 0,0 -0.43,1.4 -0.64,1.63 -0.36,0.4 -2.49,2.28 -1.29,2.75 -0.35,0.57 -0.82,1.22 -0.94,0 -0.5,0.45 -0.29,1.41 -1.06,1.53 -0.97,0.14 -1.45,0.42 -2.12,1.17 -1.67,1.9 -3.49,3.72 -5.03,5.73 -1.31,1.71 -2.23,3.78 -3.56,5.51 -0.75,0.98 -2.25,3.66 -3.35,4.14 1.04,0.23 0.1,1.81 -0.2,2.25 -0.27,0.42 -0.57,0.83 -0.93,1.16 -0.56,0.52 -1.16,0.1 -1.7,0.36 -1.68,0.87 -2.51,1.95 -4.63,2.2 -2.25,0.27 -4.52,0 -6.77,0.27 -4.55,0.43 -8.36,3.2 -12,5.72 -1.67,1.15 -3.41,1.72 -5.44,1.89 -1.98,0.17 -1.45,-0.22 -1.81,1.7 0.44,-0.38 0.95,-0.64 1.51,-0.79 -0.25,0.97 -1.14,2.3 -2.08,2.73 -0.1,-0.64 0.2,-1.67 -0.24,-2.22 -0.69,-0.84 -1.11,0.1 -1.93,0.14 0.2,-0.74 0.13,-1.5 0.22,-2.24 -0.93,0.2 -1.58,0.71 -1.75,-0.51 -0.18,-1.32 0.98,-1.35 1.41,-2.43 0.61,-1.56 -2.93,0.7 -3.11,0.86 -1.46,1.23 -2.03,0.75 -2.81,-0.65 0.97,1.08 2.19,-0.14 2.95,-0.79 1.25,-1.07 0.66,-1.76 0.72,-3.17 -1.89,0.32 -3.56,1.64 -5.18,2.59 0.73,0.23 1.49,-0.16 2.16,0.36 -0.66,0.93 -2.02,0.67 -2.96,1.01 -1.35,0.49 -2.9,1.29 -4.03,2.18 -1.13,0.9 -2.33,1.37 -3.6,2.01 -1.06,0.53 -1.27,-0.35 -2.38,-0.92 -1.91,-0.97 -3.12,-3.05 -5.38,-2.73 -1.26,0.17 -1.82,-1.27 -3.11,-1.02 -0.72,0.14 -0.89,0.66 -1.49,0.94 -0.45,0.21 -1.05,-0.1 -1.53,0 1.94,-2.23 -3.78,-2.79 -4.47,-3.76 -0.68,-0.98 -1.03,-2.27 -1.04,-3.45 0,-0.75 -1.13,-1.22 -0.94,-2.55 0.33,-2.35 2.49,-3.45 2.99,-5.57 0.8,-3.4 -0.42,-6.29 -2.52,-8.93 1.8,1.21 2.74,3.42 2.88,5.54 0.32,-1.43 -0.14,-2.65 -0.96,-3.81 -0.55,-0.78 -1.62,-2.3 0.17,-2.16 0,0.5 -0.1,1 -0.15,1.51 0.88,-0.16 0.74,-0.66 0.81,-1.35 0.1,-0.83 1.47,-0.63 1.06,-1.46 -0.46,-0.95 -3.53,0.16 -2.8,1.3 -0.36,-0.11 -2.78,-0.39 -0.72,0.28 -1.72,-0.18 -4.93,2.13 -6.41,0.58 0.74,-1.03 2.09,-1.58 3.14,-2.21 0.94,-0.56 1.52,-1.77 1.99,-2.72 1.26,-2.5 1.09,-5.24 0.48,-7.97 -0.65,0.4 -0.68,1.13 -1.18,1.63 -0.57,0.57 -1.21,1.05 -1.69,1.7 -0.97,1.33 -1.83,2.8 -2.69,4.2 -0.94,1.54 -1.16,1.26 -2.79,1.1 -1.55,-0.15 -3.18,1.45 -4.89,1.39 0.27,-0.95 1.29,-2.03 2.01,-2.66 1.22,-1.07 2.8,0.32 3.99,-0.8 2.07,-1.95 1.94,-5.41 3.87,-7.57 1.07,-1.2 1.71,-2.02 3.12,-2.83 1.66,-0.95 1.04,-2.1 1.56,-3.61 0.29,-0.85 1.23,-0.99 1.88,-1.46 0.2,-0.15 0,-1.29 0,-1.48 0,-0.5 0.8,-2.83 0,-3.18 -0.32,-0.14 -0.76,2.22 -0.88,2.45 -0.62,1.22 -2.5,2.01 -3.45,3.05 -0.93,1.02 -1.75,2.13 -2.72,3.11 -0.42,0.42 -0.84,1.11 -1.44,1.3 -0.52,0.16 -1.01,-0.3 -1.51,-0.14 -0.93,0.29 -1.97,1.47 -3.03,1.86 -1.56,0.57 -2.73,1.81 -3.85,2.97 -0.41,0.43 -1.94,2.47 -2.48,2.36 -1.53,-0.32 -1.8,1.92 -2.67,2.6 0.5,-0.21 1.01,-0.41 1.52,-0.58 -0.62,0.64 -0.71,1.61 -1.37,2.23 -0.48,-1.48 -1.84,-0.51 -2.42,-1.69 -0.42,-0.83 -0.87,-2.68 -2.19,-1.91 0.33,-0.56 0.78,-1.05 1.3,-1.44 -0.18,0.95 1.02,1.74 1.21,0.45 0.21,-1.47 0.59,-2.95 0.59,-4.45 0,-1.41 -1.92,-2.3 -1.31,-3.77 0.24,-0.58 0.63,-1.19 0.31,-1.82 -0.26,-0.5 -0.57,-0.79 -0.16,-1.35 -0.69,0.57 -1.2,-0.13 -1.96,0.1 -1.1,0.29 -0.63,-0.48 -0.84,-0.94 -0.11,-0.24 -0.66,-1.49 -0.5,-1.7 0.22,-0.28 1.65,-2.39 1.22,-0.6 0.68,-0.5 1.38,-1.59 0.8,-2.42 -0.67,-0.97 -1.77,-0.14 -2.6,0 0.16,-0.49 0.91,-1.15 0.86,-1.68 -0.1,-0.69 -0.8,-1.05 -0.87,-1.77 0,-0.37 -2.38,0.66 -2.47,0.65 -1.48,-0.17 -2.62,-1.45 -3.94,-2.04 -1.47,-0.65 -1.57,0.94 -2.7,0.74 -2.87,-0.51 -4.04,-4.47 -7.07,-4.8 -1.02,-0.11 -1.8,0.48 -2.7,0.81 -1.1,0.39 -2.34,-0.1 -3.47,-0.1 -2.83,0 -6.17,0.11 -8.94,0.71 -5.13,1.12 -9.67,4.07 -14.89,5.12 -2.51,0.5 -4.77,0.41 -7.29,0.18 -3.08,-0.28 -4.71,1.01 -7.32,2.34 -2.14,1.08 -4.62,2.52 -6.94,3.14 -2.48,0.67 -4.13,0.82 -5.73,3.04 -1.22,1.7 -2.43,3.32 -4.11,4.61 -0.31,0.23 -1.65,1.4 -2.05,1.21 -1.11,-0.54 -1.69,0.53 -2.82,0.73 0.69,-1.78 -4.72,-1.11 -5.5,-0.8 -1.3,0.51 -1.52,1.33 -2.07,-0.46 0,0 -3.62,-0.27 -4.08,-0.33 -1.97,-0.24 -4.31,0.34 -6.26,0.71 -1.46,0.27 -2.73,0.14 -4.17,0.37 -1.84,0.29 -5.99,1.18 -5.49,3.83 -0.42,-0.22 -1.72,0.57 -2.19,0.85 -0.67,0.4 -1.34,-0.5 -2.08,-0.39 -0.74,0.11 -1.27,0.76 -1.8,1.23 -0.56,0.51 -1.07,0.68 -1.79,0.95 -1.05,0.39 -1.25,0.99 -2.06,1.62 -1.08,0.84 -2.67,1.25 -4.05,1.21 1.77,0.77 -1.99,0.42 -2.67,0.35 -2.41,-0.24 -4.78,-0.1 -7.19,-0.57 0.1,-0.25 0.19,-0.48 0.28,-0.72 -2.09,0.35 -3.06,-1.44 -3.93,-2.85 -0.71,-1.16 -2.6,-3.51 -4.06,-1.98 -1.26,-1.34 0.35,-7.62 2.81,-6.12"></path>
		<path id="path3350" d="m 2307.85,799.97 c -0.1,-0.237 -0.2,-0.473 -0.29,-0.71 0.84,0.08 0.88,0.17 0.29,0.71"></path>
		<path id="path3956" d="m 2381.86,791.77 c 0.65,-0.345 0.83,-0.93 0.22,-1.439 -0.59,0.353 -0.75,0.933 -0.22,1.439"></path>
		<path id="path3958" d="m 2382.08,786.73 c 0.28,-0.22 0.45,-0.51 0.5,-0.87 -0.8,-0.08 -0.97,0.207 -0.5,0.87"></path>
		<path id="path3960" d="m 2383.09,787.38 c 0.21,-0.33 0.3,-0.69 0.28,-1.08 -0.75,0.147 -0.82,0.558 -0.28,1.08"></path>
		<path id="Australia_Macquarie_Island" d="m 2332,1162 c -0.96,0.47 -1.28,2.76 -0.64,2.42 0.62,-0.33 0.43,-1.84 0.64,-2.42"></path>
		<g id="cx">
			
			
			
		</g>
		<g id="cc">
			
			
			
		</g>
		<g id="hm">
			
			
			
		</g>
		<g id="nf">
			
			<path id="nf-" d="m 2551.27,937.143 c -0.79,-0.466 -1.58,-0.931 -2.38,-1.398 -0.77,0.549 -1.15,0.965 1.07,1.272"></path>
			
		</g>
	</g></svg>
