<svg xmlns="http://www.w3.org/2000/svg" viewBox="1618.8 328.4 45.5 45.5"><g fill="#2b1d24"><path d="M1622 341.4c2-1.6 3.3-1.3 5.2.3 1.2 1 2.1.4 3.4.7 1.1.3 1.6 1 2.5.6 2.2-1-1.7-3-2.1-3.3q-1.4-1-1.2-1.7c0-.4 1.6-1.4.9-2 .6-.2 3.4 1.1 4.3 2.3.6.8 1.8.8 2.1 1.5q.4 1.3 1.6 2 1.3.4 2.7.5c.8 0 1.3-1.2 1.6-1.8.2-.4 3.4-2.9 2.7-3.8 1.5.5 3.2 2.3 4 3.6q1.6 2.8 3.7 5.1l.8.3v.8q1.1 1.1 2.5 1.2c2.3.2 3.5.9 4.4 3-.8-1.1-3.1-1.6-4.3-.9-1.7 1.1-1.8 2-2.1 3.8q-.3 2.2.3 4.3c.2.5-.6 1.1-.7 1.7-.1 1 .3 1.8-.8 1.5 1.2-1.1-1.3-1.8-1-.5.3 1.9-.4 3.7.2 5.6q-1 .1-1.9-.2c-1.7-1.2-4.7-2.9-4.5-4 0-.5 1.4-.4 1.4-.8.2-.9-1.9-2.5.3-3.3-2-2.2-3.6-3.7-5.5-1.6-2 2-3 1.8-3.3 2.5-1.5 2.3-2.3 2.5-3.5 3.2-.4-.6-1.1-2.7.1-2.8-.3-.4-1.9-1.1-1.6-1.8.1-.3.8-.5.3-.9q-.7-.6-1.5-.5c-1.5.4-3.5-2.3-5.3-3.4.8-.4 2 0 2.4-1 .5-1.1-.9-1.4-1.6-1.8-1.2-.6-4.6-3.1-1.8-4-.7-1.8-2.7-1.8-4-2.8 2 .3-.6-1.1-.8-1.6m.4 13.8c1.1-.3 3-.9 3 1 .8-.5 1.4.7 2.3.4.5-.1 1.9-.5 2.2 0 .8 1.2-.2 1.4 1.3 2.2.6.3 1.4 2.9 2 3.5-4.3-.2-4.4-.6-6.4-2.3-1.6-1.4-3.6-2.8-4.4-4.8"/><path d="M1639.2 358.8c-1.6 2.3-2.4 2.5-3.5 3.2-.5-.6-1.2-2.7.1-2.8-.3-.4-2-1.1-1.6-1.8 0-.3.7-.5.2-.9q-.6-.6-1.4-.5c-1.5.4-3.6-2.3-5.3-3.4.8-.4 2 0 2.4-1q.3-.6-.1-1l1.1.5c.2 0 1.3-1 1.3-1v-.9l.8-.4c.2 0 1.2 1.7 1.4 1.9s2 1.4 2 1.6c0 .1.4 1.4 1 1.7s1.1 1 1.1 1q-.2.1-.2 1.4c.2.7 1 1.4 1 1.6z"/></g></svg>
