<svg xmlns="http://www.w3.org/2000/svg" viewBox="1414.3 303.9 30.7 30.7"><path fill="#2b1d24" d="M1416.4 309.2c0-2.3 1.9-.7 2.8 0 1 .9 1.7.2 2-.8s1.9-.3 2.6-.2c0-1 4 .7 5 .7.6 0 1.7.6 2.2.2 1.1-.8.8.2 1.9 0q1.8-.4 3.5.5c1 .4.4 1.3 1.6 1.4.8 0 1.9-.8 2.6-.5 1 .6.1 2.1-.3 2.7-1.5 2 .1 2.8 1.6 3.9 2.6 2-.7 1-1.1 1.5 0 .1 1.8 2.4 1.8 3 0 .4-3.4 1-4 .9-.1.9 1 1.2.6 2.2-.6-1.8-3.2.5-2.4 2-2.8-.6.8 4-1 4-1 0-3-1.4-3.9-2.1-.4-.4-.5-.8-1.1-.9s-.8.5-1.3-.3c1.8 0-1.7-3-2-3.5-1.8-2-3-2.8-4.5-4.5-.8-.9-1.9-1.3-2.7-2.2-1-1-.3-2.5-1.2-3.6-.7-.9-1.6-1-2.4-1.7-.4-.3-.2-2-.3-2.7"/></svg>
