<svg xmlns="http://www.w3.org/2000/svg" viewBox="1414.29 303.89 30.72 30.72"><path id="ba" d="m 1416.41,309.222 c -0.1,-2.344 1.88,-0.679 2.78,0.06 0.98,0.796 1.66,0.125 2.05,-0.883 0.37,-0.968 1.85,-0.317 2.52,-0.181 0.12,-0.942 4.07,0.648 4.97,0.648 0.62,0 1.75,0.63 2.25,0.277 1.16,-0.813 0.86,0.165 1.88,-0.06 1.26,-0.277 2.35,0.04 3.52,0.507 0.98,0.395 0.37,1.342 1.63,1.411 0.78,0.04 1.85,-0.8 2.54,-0.457 1.1,0.553 0.18,2.074 -0.28,2.688 -1.52,2.042 0.16,2.738 1.65,3.871 2.57,1.955 -0.74,0.988 -1.12,1.53 0,0.07 1.77,2.335 1.78,2.892 0,0.486 -3.42,1.14 -3.99,0.95 -0.14,0.908 0.99,1.275 0.58,2.232 -0.56,-1.842 -3.22,0.494 -2.38,2.016 -2.82,-0.623 0.78,3.94 -0.96,3.908 -1.11,-0.02 -3.06,-1.36 -3.91,-2.042 -0.45,-0.36 -0.51,-0.793 -1.14,-0.875 -0.58,-0.08 -0.74,0.495 -1.33,-0.343 1.88,-0.03 -1.69,-3.014 -2.02,-3.424 -1.69,-2.1 -2.94,-2.807 -4.48,-4.535 -0.79,-0.887 -1.83,-1.35 -2.64,-2.185 -0.94,-0.982 -0.33,-2.563 -1.23,-3.658 -0.68,-0.832 -1.56,-1.047 -2.4,-1.634 -0.42,-0.293 -0.2,-2.069 -0.27,-2.707" fill="#2B1D24">
		
	</path></svg>
