<svg xmlns="http://www.w3.org/2000/svg" viewBox="1947.2 464.4 58.3 58.3"><g fill="#2b1d24"><path d="M1977.6 496.4h-.7l1.3.5zm.3 4.8q0 .6.5 1c0-.5 1-1 1-.9-.1-1-1-.6-1.5-.1m.8-1.3.5.4z"/><path d="M1978.7 502.6c.3.8 1 1.3 1.3 2v1.7c0 .4-.7 2.6.4 1q-.3.5-.1.9c1.1.5 1.2-3.3 1.1-3.7-.2-1-1.8-1.8-1.8-2.6s-1-.1-.8.7"/><path d="M1979 507.8c.2.3.5-.4.2.5q.5-.6.2-1.3zm.7-3.2.1 1q.1-.6-.1-1m3.3 2.9c1.6-.9.5-2.6-.2-3.7q.4 1.9.1 3.7m3.4-2.3c.7-.7-.4-1.8-1-2.2q-.2 1.4 1 2.2m3.2 3.8q-.3.7-.1 1.5.1-.7 0-1.6m.6 3.9c1.2-.5.3-2-.5-2.3z"/><path d="m1957.4 469.4.2-1c.9.6 2.2 1 2.6 2s2 .9 2.7 1.2q-.3-.9-1-1.5c1.2-.3 1.4.8 1.9 1.7.6 1.2 2.3 1.5 3.4 2.2q.5-.9.1-1.8c2.2-.2 2.8 4.1 2.8 5.5 0 .9-.2 1.7.9 2q2.4 1 5 1c3.5 0 7-.3 10.6 0 1.6.2 6 3 2.2 2.6 1.1 2.2-1.5 4.2-1.8 6-.7-.5-1.4.6-1.8-.2.1 1.2-1.2 1-2 1 .3.9-.8 2.6-1 3.6 0 1.5 1.4 3.7 2 5.1q.3-.8.1-1.4c.8.3 2 4 3.3 1.8.5-.8-.5-2.2 0-3.2s.7-1.2.4-2.4c1 .9 2-1.3 2.6.2q1 3 1.7 5.9 1.2 3.6 2.2 7.3c.6 2.3.7 5 1.7 7.3-.9.2-1.9-1.3-2.9-1.1-1.5.2.6 4.6.6 5.5-.7-1.1-2-2.4-2.3-3.6-.4-1.3-.4-2-.6-3.3-.3-2.4-3.5-4.8-1.7-7.2q-.8.6-.8 1.6c-.6-2-3.2-3.6-3-5.8 0 1-1 1.3-1.6 1.9q-.3.4-.2.7-1 .4-1.5-.6.3.4 0 .8c-1 .5-2.6-3.2-3-3.6q-.3-.7-.2-1.5c0-1-.4-1.2-.7-2-.1-.6.9-.8.5-1.3-.1.5.7.3-.7.4l.2-.8a1 1 0 0 1-1.2.2c.3.2 1.6 1.8.4 1.6-.5 0-1.6-.4-2-.5 1 .6 2.4 1 3 2 .3.7-.4 1.2-1 1.5.8.9.4 1.7-.2 2.5 1.3 0 .9 1.3.8 2.3l.6-.7c1.1 1 1.3 3.6-.5 4q.1-.8-.2-1.5c.2 1.2-.2 2.2-.4 3.3-.3 1.3-1.9.8-1.2-.3l-.6.7c-.4-1.3 1-1.8 1.2-3q-.7 1-1.6 1.7.1-.8.4-1.3l-.9 1.3q-.9-2-.1-4.1c-1.6.6-.2 2-.7 3.1-.5.8.5.9.2 1.8s-1.2.4-1.5-.1l-.1 1.3c-1.1 0-.6-4.2-.6-4.9-.4 1 .1 2-.1 3l-1-2.6c0 1.4 1.5 3.6 0 5-.3-.7 0-1.5-.5-2.2.3.7-.2 2.3-.7 2.8.1-1.3-1.4-2.4-1.6-4-.1-1.6-1-2.9-1.4-4.5l-.6-2.3c-.3-1 0-1.5-.1-2.5 0-.5-.8-.5-1.2-.6-.8-.2-.3-1-.3-1.6.2-1.2-2-1.3-2-2.8 0-.8 1-1.1 1-1.9q.2-1.2-.4-2.2c-.5-1.2-2.7-1.3-3.8-2-.6-.4-1.6-1-1.7-1.9s.7-1.5.8-2.3c1.2 2.1 1.7-2 2-2 .8-.1 2.5-.3 3.3.1.9-1.5-1-1-1.2-2.4-.1-1-1.4-.2-2.1-.6-1-.6-1.4-1.8-2.5-2.3-2.7-1-1.3-4.3 1-5.1q-.5-1-1.6-1"/></g></svg>
