<svg xmlns="http://www.w3.org/2000/svg" viewBox="1947.2 464.39 58.3 58.3"><g id="bd" fill="#2B1D24">
		
		<path id="path3240" d="m 1977.58,496.42 c -0.21,-0.02 -0.43,-0.05 -0.64,-0.07 0.38,0.294 0.81,0.486 1.29,0.576 -0.22,-0.168 -0.43,-0.336 -0.65,-0.504"></path>
		<path id="path3242" d="m 1977.87,501.17 c 0,0.448 0.22,0.809 0.58,1.08 -0.1,-0.555 0.92,-1.011 0.93,-0.937 -0.12,-0.969 -1.06,-0.629 -1.51,-0.143"></path>
		<path id="path3244" d="m 1978.66,499.88 c 0.19,0.144 0.39,0.288 0.58,0.432 -0.15,-0.207 -0.34,-0.351 -0.58,-0.432"></path>
		<path id="path3246" d="m 1978.74,502.61 c 0.3,0.759 1,1.243 1.23,2.045 0.13,0.544 0.15,1.091 0.1,1.641 -0.1,0.424 -0.74,2.599 0.3,1.066 -0.21,0.276 -0.23,0.539 -0.1,0.789 1.14,0.506 1.26,-3.214 1.14,-3.67 -0.25,-0.919 -1.76,-1.738 -1.78,-2.574 0,-0.784 -1.05,-0.105 -0.88,0.703"></path>
		<path id="path3248" d="m 1979.02,507.80 c 0.19,0.286 0.52,-0.4 0.22,0.504 0.32,-0.391 0.39,-0.823 0.21,-1.296 -0.15,0.264 -0.29,0.528 -0.43,0.792"></path>
		<path id="path3250" d="m 1979.67,504.63 c 0,0.325 0,0.638 0.15,0.936 0.1,-0.33 0,-0.642 -0.15,-0.936"></path>
		<path id="path3252" d="m 1982.91,507.51 c 1.68,-0.865 0.58,-2.625 -0.14,-3.744 0.31,1.21 0.29,2.512 0.14,3.744"></path>
		<path id="path3254" d="m 1986.29,505.21 c 0.72,-0.732 -0.42,-1.813 -0.93,-2.232 -0.23,0.879 0.23,1.719 0.93,2.232"></path>
		<path id="path3256" d="m 1989.46,508.95 c -0.18,0.494 -0.2,0.998 -0.1,1.512 0.14,-0.498 0.16,-1.002 0.1,-1.512"></path>
		<path id="path3258" d="m 1990.04,512.77 c 1.2,-0.446 0.31,-1.937 -0.51,-2.231 0.16,0.745 0.25,1.509 0.51,2.231"></path>
		<path id="Bangladesh_mainland" d="m 1957.42,469.35 c 0,-0.323 0.1,-0.635 0.22,-0.936 0.81,0.589 2.19,0.969 2.59,1.986 0.37,0.919 1.9,0.886 2.67,1.182 -0.21,-0.589 -0.55,-1.093 -1.01,-1.512 1.2,-0.222 1.45,0.876 1.88,1.719 0.64,1.26 2.31,1.536 3.45,2.169 0.24,-0.606 0.41,-1.187 0.1,-1.801 2.22,-0.188 2.73,4.185 2.8,5.542 0,0.897 -0.19,1.701 0.84,2.055 1.56,0.53 3.42,0.971 5.07,0.971 3.48,0 7.03,-0.315 10.53,0.02 1.62,0.155 6.12,2.934 2.21,2.571 1.17,2.22 -1.52,4.23 -1.73,6.049 -0.69,-0.612 -1.39,0.541 -1.87,-0.217 0.14,1.198 -1.2,0.963 -1.94,0.864 0.31,0.985 -0.87,2.639 -0.95,3.712 -0.12,1.507 1.37,3.709 1.96,5.072 0.14,-0.475 0.16,-0.955 0.1,-1.44 0.72,0.32 1.94,4.042 3.26,1.856 0.49,-0.815 -0.48,-2.188 0,-3.225 0.45,-1.021 0.7,-1.219 0.36,-2.375 0.98,0.864 2,-1.314 2.64,0.227 0.76,1.825 1.15,3.946 1.7,5.846 0.7,2.448 1.56,4.785 2.18,7.27 0.59,2.394 0.74,5.039 1.69,7.322 -0.85,0.256 -1.87,-1.247 -2.86,-1.084 -1.49,0.244 0.54,4.617 0.55,5.476 -0.68,-1.08 -1.91,-2.397 -2.28,-3.611 -0.38,-1.285 -0.43,-2.045 -0.6,-3.301 -0.31,-2.323 -3.5,-4.806 -1.72,-7.2 -0.46,0.368 -0.74,1.079 -0.73,1.656 -0.66,-1.979 -3.19,-3.604 -3.02,-5.832 -0.1,0.925 -1.1,1.274 -1.62,1.889 -0.21,0.224 -0.27,0.482 -0.18,0.775 -0.63,0.21 -1.2,-0.1 -1.51,-0.648 0.16,0.262 0.17,0.513 0,0.753 -1.02,0.591 -2.61,-3.154 -2.92,-3.561 -0.28,-0.474 -0.38,-0.982 -0.3,-1.527 0,-0.91 -0.39,-1.156 -0.64,-1.931 -0.19,-0.598 0.85,-0.831 0.45,-1.366 -0.14,0.556 0.72,0.293 -0.65,0.433 0,-0.267 0.1,-0.531 0.14,-0.793 -0.36,0.289 -0.74,0.337 -1.15,0.145 0.31,0.227 1.57,1.844 0.4,1.693 -0.58,-0.07 -1.63,-0.447 -1.99,-0.541 0.94,0.566 2.34,1.028 2.9,2.041 0.39,0.689 -0.34,1.168 -0.88,1.414 0.74,0.899 0.33,1.714 -0.29,2.521 1.35,0.03 0.92,1.351 0.87,2.304 0.18,-0.251 0.37,-0.491 0.57,-0.72 1.12,1 1.34,3.607 -0.5,3.96 0.12,-0.51 0,-0.989 -0.22,-1.439 0.16,1.188 -0.17,2.17 -0.39,3.313 -0.26,1.354 -1.86,0.803 -1.19,-0.289 -0.21,0.224 -0.43,0.439 -0.65,0.648 -0.37,-1.28 1.08,-1.742 1.23,-2.879 -0.4,0.66 -1.02,1.156 -1.59,1.654 0.1,-0.482 0.2,-0.938 0.43,-1.367 -0.31,0.46 -0.62,0.916 -0.93,1.367 -0.46,-1.464 -0.66,-2.71 -0.1,-4.176 -1.59,0.644 -0.2,2.113 -0.75,3.186 -0.41,0.776 0.55,0.826 0.21,1.768 -0.3,0.845 -1.13,0.383 -1.48,-0.13 -0.1,0.454 -0.1,0.91 -0.1,1.368 -1.13,0.01 -0.58,-4.208 -0.58,-4.896 -0.38,0.956 0.1,1.912 -0.14,2.88 -0.37,-0.801 -0.76,-1.635 -0.87,-2.52 0,1.435 1.44,3.581 0,5.04 -0.42,-0.712 0,-1.555 -0.57,-2.232 0.29,0.718 -0.19,2.282 -0.72,2.808 0.1,-1.373 -1.39,-2.435 -1.56,-3.944 -0.19,-1.671 -1.12,-2.947 -1.47,-4.551 -0.17,-0.773 -0.33,-1.549 -0.57,-2.305 -0.33,-1.021 0,-1.508 -0.12,-2.48 0,-0.551 -0.83,-0.512 -1.21,-0.604 -0.79,-0.192 -0.31,-1.108 -0.25,-1.647 0.13,-1.177 -2.09,-1.257 -2,-2.829 0,-0.807 0.94,-1.09 1.04,-1.83 0.1,-0.749 -0.19,-1.604 -0.47,-2.283 -0.47,-1.11 -2.72,-1.226 -3.76,-1.935 -0.61,-0.416 -1.67,-1.026 -1.73,-1.872 -0.1,-0.887 0.74,-1.519 0.79,-2.376 1.22,2.139 1.7,-1.88 2.02,-1.944 0.81,-0.162 2.49,-0.321 3.24,0.07 0.93,-1.493 -1.03,-0.955 -1.19,-2.376 -0.11,-0.975 -1.4,-0.172 -2.1,-0.631 -0.94,-0.624 -1.34,-1.816 -2.44,-2.252 -2.76,-1.092 -1.29,-4.32 0.98,-5.182 -0.21,-0.691 -0.93,-0.994 -1.59,-1.008"></path>
	</g></svg>
