<svg xmlns="http://www.w3.org/2000/svg" viewBox="1325.69 248.82 29.39 29.39"><path id="be" d="m 1327.72,258.634 c 1.78,-0.926 3.93,-1.86 5.88,-2.377 -0.92,0.981 1.28,0.744 2.03,0.928 0.64,0.154 0.96,0.427 1.66,0.238 0.87,-0.234 1.86,-1.694 2.16,-0.33 -0.11,-0.307 -0.21,-0.619 -0.29,-0.937 0.66,0.145 1.46,0.109 1.37,-0.791 0.52,0.396 1.38,0.634 1.8,-0.07 0.35,0.863 1.61,0.584 2.08,0 0.55,2.027 3.52,2.021 5.26,2.735 -0.93,1.09 -1.91,2.409 -0.25,3.24 0.57,0.282 0.93,0.147 1.32,0.07 -0.29,0.726 2.09,1.015 1.09,2.02 0.99,-0.167 0.94,0.978 1.23,1.584 -1.15,0.208 -1.04,0.843 -1.75,1.434 -0.29,0.239 -1.02,-0.37 -1.67,0.654 -0.55,0.866 -0.99,1.291 -0.85,2.048 0.17,0.77 1.34,1.739 0,2.658 -0.27,-0.03 -1.11,-0.01 -1.98,-0.11 -0.11,-0.186 -0.62,-1.015 -1.18,-1.344 -0.75,-0.449 -2.29,-0.577 -2.77,-1.163 -0.32,-0.39 -0.1,-2.324 -0.14,-2.881 -0.67,0.264 -0.86,0.822 -1.33,1.284 -0.87,0.849 -2.24,0.474 -3.28,0.3 0.22,-0.879 0.62,-2.263 -0.11,-2.735 -0.87,-0.562 -2.23,-0.539 -2.84,-0.145 0.11,-1.356 -0.78,-1.038 -1.77,-1.453 -1.16,-0.491 -0.86,-0.513 -1.51,-1.525 -0.23,-0.369 -2.43,-0.304 -2.9,-0.586 -1.34,-0.813 -0.16,-2.373 -1.24,-2.754" fill="#2B1D24">
		
	</path></svg>
