<svg xmlns="http://www.w3.org/2000/svg" viewBox="1325.7 248.8 29.4 29.4"><path fill="#2b1d24" d="M1327.7 258.6q2.9-1.5 5.9-2.3c-1 1 1.3.7 2 .9.7.1 1 .4 1.7.2.9-.2 1.9-1.7 2.2-.3l-.3-1c.6.2 1.4.2 1.3-.7q1 .8 1.8-.1c.4.9 1.6.6 2.1 0 .6 2 3.5 2 5.3 2.7-1 1.1-2 2.4-.3 3.3q.9.3 1.3 0c-.3.8 2.1 1 1.1 2 1-.1 1 1 1.3 1.6-1.2.3-1 .9-1.8 1.5-.3.2-1-.4-1.7.6q-1 1.1-.8 2c.2.9 1.3 1.8 0 2.7h-2q-.2-.6-1.2-1.4c-.7-.5-2.3-.6-2.7-1.2-.4-.4-.1-2.3-.2-2.9-.7.3-.8.9-1.3 1.3-.9.9-2.3.5-3.3.3.2-.9.6-2.2-.1-2.7-.9-.6-2.2-.5-2.8-.2 0-1.3-.8-1-1.8-1.4-1.2-.5-.9-.5-1.5-1.5-.2-.4-2.4-.3-3-.6-1.3-.8 0-2.4-1.2-2.8"/></svg>
