<svg xmlns="http://www.w3.org/2000/svg" viewBox="1254.07 557.79 69.69 69.69"><path id="bf" d="m 1258.88,608.238 c 0.53,-1.383 1.01,-2.985 0.69,-4.464 -0.35,-1.617 0.63,-0.651 1.25,-1.863 0.38,-0.75 1.22,-3.032 0.33,-3.717 -0.59,-0.461 0.59,-1.502 -1.19,-1.979 0.83,0.04 1.36,-0.609 1.99,-0.997 1.03,-0.632 2.51,-0.114 3.58,-0.765 1.3,-0.797 2.88,-3.892 1.73,-5.252 -0.55,-0.649 0.25,-1.082 0.97,-0.998 1.09,0.126 1,-0.86 0.84,-1.72 -0.11,-0.562 -1.22,-1.397 -0.25,-1.734 0.74,-0.26 1.76,-2.363 2.23,-3.007 -0.1,1.266 2.93,2.778 3.96,2.881 -0.24,-1.201 0.54,-1.042 1.51,-1.008 -0.13,-1.098 0.42,-2.591 -0.15,-3.601 0.81,0.155 1.65,0.212 2.38,0.648 1.09,-1.638 0.96,-5.234 3.79,-5.527 1.4,-0.144 3.13,2.071 3.41,-0.405 0.14,-1.328 1.61,-1.157 2.52,-1.629 1.18,-0.611 2.08,-1.503 3.31,-2.086 1.47,-0.7 4.16,-4.33 6.22,-2.473 0.39,0.352 1.35,-0.467 1.98,-0.276 0.86,0.261 1.73,0.56 2.54,0.952 1.25,0.6 -1.05,3.772 0.87,4.813 1.18,0.642 0.25,2.644 1.13,3.535 0.5,0.503 1.52,1.548 1.35,2.212 0.94,0.373 3.41,2.033 4.99,3.26 -0.71,0.349 -1.36,0.331 -2.01,-0.145 -0.98,2.488 2.3,5.374 4.28,6.315 1.59,0.755 2.48,-1.138 3.61,-0.809 0.93,0.27 1.11,1.741 1.47,2.486 -2.53,0.87 -0.42,2.319 0.51,4.059 1,1.853 -1.4,4.544 -3.22,4.662 -0.45,0.03 -2.19,0.534 -2.52,0.274 -0.89,-0.714 -1.09,-0.35 -1.84,0.32 -1.47,1.322 -2.3,3.058 -4.18,3.328 -2.9,0.414 -3.42,-0.505 -5.13,-0.824 -0.83,-0.153 -1.6,-0.426 -2.46,-0.438 -0.75,-0.01 -2.72,1.943 -3.28,1.699 -1.35,-0.592 1.64,-0.645 -8.57,-0.612 -3.39,0.01 -5.39,0.241 -8.12,-0.01 0.33,1.56 -1.17,2.365 -0.75,3.312 0.58,1.286 0.86,2.305 1.09,3.649 0.2,1.142 0.31,2.568 0.17,3.852 -0.12,1.125 0.76,2.481 0,3.083 -1.26,-0.94 -2.46,-3.198 -3.31,-4.535 -0.72,1.073 -3.63,-0.212 -4.75,0.216 -1.23,0.468 -3.8,0.845 -3.82,2.592 -0.78,-0.133 -3.5,-1.274 -3.98,-1.864 -0.44,-0.55 -0.91,-0.831 -1,-1.274 -0.16,-0.858 -0.95,-2.5 -1.57,-2.838 -1.05,-0.57 -2.21,0.263 -2.59,-1.296" fill="#2B1D24">
		
	</path></svg>
