<svg xmlns="http://www.w3.org/2000/svg" viewBox="1458.9 304.2 49.9 49.9"><path fill="#2b1d24" d="M1462.4 320.2c0-1.1 1-2.7 1.6-3.6.3-.3 2.3.6 2.4.9.3.7-1 1.4-.7 2.1.6 1 4 0 5 .3 1.7.3 3.6 1.5 5.3 1 1.4-.6 3.1-.2 4.6 0 2.1 0 3.3 1 5.3-.5 1.5-1.2 2.6-2.1 4.6-2.4 1.8-.4 3.8-1.4 5.5-.4q2 1 4 .8c.5 0 2.1 1.7 2.7 2 .9.3 2.4-.4 2.5.8s.4 2.3-1.2 2.2-2.4 1-3 2.3 0 2.4-.6 3.7l-.7 1c-.4.7-1.1.3-1.5 1 2 .4 2.3 1.9 3.6 3.2 1.5 1.6-1.9 1.6-2.9 1.3s-1.2-1.5-2.6-1q-1.4.3-2.9.9c-1.6.5-.5.7-.9.8-.6.4-1.8 1-1.1 1.4-5-1 .7 2.1-2.2 3.2-1.3.5-1-.3-4.8.5-1 .2-2-1-2.9-.9-1.3 0-1.4.5-2.6-1-.6-1-1.4-.7-2.4-.6-1.4.3-2.3 1.9-3.8 1.9-2 0-2.8-.1-3.4.4q-.7.3-2.2-.3c.7-.8 0-2 0-3.2s-1.2-2.4-2.1-3.1c-.9-.5-1.7-1.8-2.4-2.5 3.4-1 0-1.8.9-4 .3-.8 1-.3 1.6-.6.7-.4 1.5-1.8 1.8-2.5-2-.6-4.3-3.2-4.6-5"/></svg>
