<svg xmlns="http://www.w3.org/2000/svg" viewBox="1458.86 304.17 49.9 49.9"><path id="bg" d="m 1462.35,320.238 c 0,-1.177 0.96,-2.787 1.69,-3.668 0.24,-0.282 2.22,0.676 2.34,0.933 0.32,0.702 -1.05,1.401 -0.64,2.116 0.61,1.043 3.95,0.05 4.98,0.264 1.69,0.352 3.54,1.543 5.26,0.926 1.38,-0.497 3.12,-0.111 4.59,0 2.17,0.173 3.33,1.146 5.33,-0.379 1.55,-1.18 2.62,-2.131 4.61,-2.475 1.81,-0.314 3.75,-1.323 5.52,-0.398 1.13,0.589 2.75,1.064 4.01,0.832 0.44,-0.08 2.07,1.68 2.7,1.93 0.84,0.337 2.33,-0.34 2.48,0.876 0.15,1.313 0.34,2.322 -1.25,2.199 -1.59,-0.123 -2.32,1.041 -2.96,2.353 -0.56,1.13 0,2.394 -0.64,3.632 -0.21,0.379 -0.46,0.741 -0.68,1.111 -0.37,0.599 -1.11,0.194 -1.48,0.905 1.96,0.445 2.33,1.859 3.59,3.17 1.55,1.614 -1.86,1.596 -2.88,1.309 -1.1,-0.311 -1.21,-1.443 -2.6,-1.044 -1.03,0.297 -1.85,0.581 -2.92,0.924 -1.6,0.517 -0.53,0.712 -0.88,0.896 -0.6,0.311 -1.82,0.895 -1.16,1.368 -4.9,-0.97 0.74,2.113 -2.19,3.202 -1.31,0.49 -0.97,-0.337 -4.74,0.469 -1.09,0.233 -1.96,-0.941 -2.93,-0.886 -1.26,0.07 -1.36,0.522 -2.55,-1.012 -0.69,-0.899 -1.46,-0.717 -2.48,-0.553 -1.4,0.228 -2.28,1.865 -3.77,1.833 -1.94,-0.04 -2.8,-0.09 -3.4,0.431 -0.33,0.287 -1.33,0.01 -2.23,-0.261 0.73,-0.816 0,-2.012 0,-3.242 0.1,-1.238 -1.21,-2.407 -2.08,-3.12 -0.88,-0.524 -1.64,-1.744 -2.34,-2.467 3.32,-0.985 -0.1,-1.764 0.83,-4.051 0.32,-0.789 1.09,-0.229 1.62,-0.568 0.66,-0.416 1.5,-1.817 1.81,-2.518 -1.93,-0.614 -4.34,-3.182 -4.61,-5.043" fill="#2B1D24">
		
	</path></svg>
