<svg xmlns="http://www.w3.org/2000/svg" viewBox="1287.61 587.05 61.96 61.96"><path id="bj" d="m 1306.97,605.862 c 0.34,-0.786 0.42,-1.967 0.97,-2.569 0.52,-0.564 0.68,-0.47 1.16,-0.963 0.99,-1.021 2.56,-3.9 3.88,-2.543 0.4,0.42 4.48,-0.591 5.27,-1.977 0.51,-0.889 1.19,-2.084 1.17,-3.144 0,-0.641 -0.82,-2.128 0.21,-2.346 0.66,-0.137 1.57,0.04 1.86,-0.379 1.03,-1.528 2.35,0.151 3.12,1.022 0.55,0.621 0.89,1.141 1.42,1.775 0.64,0.746 1.52,1.489 2.15,2.375 0.35,0.493 -0.43,1.722 -0.54,2.211 -0.26,1.124 0.8,2.052 1.36,2.898 0.64,0.984 0.12,2.012 0.54,2.923 0.5,1.092 1.14,1.916 0.44,3.091 -0.37,0.623 -1.18,0.04 -1.43,0.754 -0.38,1.086 1.14,1.857 -0.19,3.35 -0.6,0.672 -1.42,0.855 -1.86,1.636 -0.41,0.728 -0.55,1.455 -1.15,2.196 -1.15,1.422 0.61,3.375 -1.84,3.979 -0.82,0.202 -1.31,-0.168 -1.46,0.781 -0.14,0.883 -0.62,1.73 -0.57,2.621 0.12,2.184 0.1,4.368 -0.1,6.534 -0.1,0.957 0.9,2.864 0.74,4.22 -0.14,1.194 -0.16,2.24 -0.34,3.285 -0.27,1.549 0.31,2.177 0.2,2.998 -0.13,0.92 -0.71,2.29 -0.6,2.925 -1,0.02 -2.72,0.237 -3.7,0.432 -1.53,0.304 -3.06,0.582 -4.6,0.792 0.36,-0.33 0.79,-0.498 1.29,-0.504 -0.1,-0.777 -0.61,-1.607 -0.99,-2.265 -0.59,-1.024 -0.74,-2.728 -0.91,-3.875 0.15,-0.01 0.97,-0.25 0.86,-2.347 -0.19,-3.817 0,-7.699 0,-11.547 0,-2.176 -0.1,-3.831 -1.31,-5.682 -1.15,-1.754 -0.79,-3.796 -0.85,-5.747 0,-1.529 -2.34,-2.263 -3.47,-3.32 -1.06,-0.988 -0.79,-2.347 -0.71,-3.59" fill="#2B1D24">
		
	</path></svg>
