<svg xmlns="http://www.w3.org/2000/svg" viewBox="1287.6 587 62 62"><path fill="#2b1d24" d="M1307 605.9c.3-.8.4-2 1-2.6l1.1-1c1-1 2.6-3.9 3.9-2.5.4.4 4.5-.6 5.3-2q1-1.4 1.1-3.1c0-.7-.8-2.2.2-2.4q1.2 0 1.9-.4c1-1.5 2.3.2 3.1 1l1.4 1.8q1.2 1.1 2.2 2.4c.3.5-.4 1.7-.6 2.2-.2 1.1.8 2 1.4 3s.1 2 .5 2.8c.5 1.1 1.2 2 .5 3.1-.4.7-1.2 0-1.4.8-.4 1 1 1.8-.2 3.3-.6.7-1.5.9-1.9 1.7s-.5 1.4-1.1 2.2c-1.2 1.4.6 3.3-1.9 4-.8.2-1.3-.2-1.4.7-.2 1-.7 1.8-.6 2.7q.1 3.2-.1 6.5c-.1 1 .9 2.9.7 4.2l-.3 3.3c-.3 1.5.3 2.2.2 3-.1 1-.7 2.3-.6 3l-3.7.3q-2.2.5-4.6.8.5-.5 1.3-.5-.3-1.2-1-2.2c-.6-1-.8-2.8-1-3.9.2 0 1-.3 1-2.4-.3-3.8 0-7.7 0-11.5 0-2.2-.2-3.8-1.4-5.7-1.1-1.7-.8-3.8-.8-5.7 0-1.6-2.4-2.3-3.5-3.3-1-1-.8-2.4-.7-3.6"/></svg>
