<svg xmlns="http://www.w3.org/2000/svg" viewBox="753.8 773.2 132.7 132.7"><g fill="#2b1d24"><path d="m772 793.3 5.8.4c.9 0 .4.2.6.7.2 1 1.6 0 2-.1.4-.2 1.3-.4 1.5-.9.5-.7.6-1.6 1.3-2.2 1.4-1.1 2.6.8 3.3-1.1.7-1.7 2.8-1.8 4.2-2.7 1.2-.9 1.8-2.7 3.3-3.1 1.8-.5 3.8-1.4 5.8-1.1s1.6.5 3-.9c3 2.2-.2 6.2.7 8.9.2.7.8 1 1 1.7.3.6-.4 1.3-.5 2-.5 1.8 1.3 2.7 1.7 4.1.3 1 .2.9 1 1.6.6.4.4 1.6 1 1.8.6.4 1 0 1.6.6l2 1.5c.2.1.6 1 .8 1.2q.7.8 1.7.9c1 .2 1.8.6 2.7 0q1.1-.4 2.1.4l1.7 1.3c.8.5 1-.6 1.6-.4 1.3.4 1.3 2.7 2.9 2.9 1.4.1 2.4 1.3 3.8 1.3 2 .1 2.2 3 3.8 3.4 1.4.4 2.7.1 4 0 1.8-.3 3.7 1.1 5.3 2 2.5 1.5.9 2.8 1.8 4.9q1.3 3.3 1.9 6.7l-1.9.1c0 1.8 2.3 2.8 2.6 4.7.3 1.4.1 3.1.7 4.4.8 1.7 4 1.1 5.4 1.3 2.9.3 5.8.7 8.7 0 0 1.3-.7 2-.8 3.2q0 1.6.5 3c.4 1.5 2 3.8 3.7 4 .7.2 1.2-.3 1.5.7l1 2.2c.8 2 1.8 3.1 1.4 5.3-.3 1-1.2 3-.8 4 .5 1.6-.6 3-1.2 4.4-.8 2-.9 3 .8 4.4 1.2 1-.7 1.6-1.6 2.3.6-2-1.9-4.2-3.4-5.2q-2.4-1.5-5.3-2.2c-5.1-1.1-10.5 1.8-15.4 2.3-2.4.2-3.5.5-4 3-.3 2.2-1.8 3.4-2.1 5.4s.5 4 0 6c-.5 2.8-.6 6-1.3 8.8-2.2-1.4-1.3-2.4-3.3-2.3-1.5 0-3.4-.3-4.9.2-1.7.5-1.6-.8-2.5 1.5q-1 2.9-1.3 5.9c-2.2-3-1.8-6-6-6.7-1.7-.3-4.2.5-5.8-.2-1.3-.7-2-2.3-3.6-2.6-.2 2.2 0 2.9-2.3 3.7-1 .4-2.3 2.5-2.9 3.5-.9 1.5-1.2 2.2-3.3 2.5-.8.1-2-.3-2.3-.7-1.4-3.5-1.8-5.7-3.3-8.5-1.3-2.3-1-4.2-2.1-5.8-.6-.9-1.7-1.7-2.2-2.6-.7-1.1.4-2.3 0-2.3-1 .1-1.5-.8-2-1.6-.4-1 .7-1.5-.6-2.6 2.2-1.3 2-1.1.5-3.2-.2-.3.7-1.5.8-1.8q.5-1.5-1-2.5c-2-1.7-3-3-3.6-5.5-.3-1.1-2-4-.9-5-3.6-.7-3.6-6.2-5.1-6.5q.3-.9 1.1-1.3c.8-.6 1-1.5 1.6-2.3q.5-1 1.4-1.7c.1-.1 0-1.2.1-1.1.6.3 2 .6.6-1 .4.2 2-1.7 2-1.1 0-2-3 1.2-1.9-3.1-1.8-.3-.2-.8-4.2-3.4.2-1 1.5-2.1 1-3.2-.8-1.7-2.1-2-1-4l1.8-3.8c.5-1.5.8-1.5 0-3.2-1-1.5-.3-2.7-.5-4.4-.1-1.3-1-4 .1-5.2 1-1.1 2-1.9 1-3.4q-3.7-6.2-7.2-12.6"/><path d="m780.2 838.9-1-.2c-.4-.1.2-1 .4-1 .4.3 1 1 .6 1.2"/></g></svg>
