<svg xmlns="http://www.w3.org/2000/svg" viewBox="753.84 773.19 132.67 132.67"><g id="bo" fill="#2B1D24">
		
		<path id="path2375" d="m 772.086,793.279 c 1.907,0.124 3.823,0.289 5.725,0.432 0.872,0.06 0.425,0.21 0.555,0.73 0.235,0.94 1.591,-0.02 1.972,-0.188 0.44,-0.191 1.315,-0.373 1.598,-0.819 0.435,-0.686 0.574,-1.656 1.226,-2.193 1.444,-1.189 2.594,0.728 3.379,-1.189 0.683,-1.669 2.805,-1.748 4.116,-2.673 1.221,-0.862 1.84,-2.643 3.356,-3.085 1.809,-0.527 3.83,-1.384 5.75,-1.117 2.125,0.296 1.655,0.488 3.064,-0.838 3.055,2.112 -0.221,6.135 0.667,8.849 0.222,0.68 0.784,1.069 1.02,1.67 0.264,0.673 -0.384,1.367 -0.541,1.979 -0.467,1.827 1.316,2.811 1.72,4.172 0.291,0.98 0.199,0.866 1.043,1.585 0.523,0.446 0.392,1.557 0.875,1.837 0.65,0.377 1.011,0.04 1.704,0.61 0.663,0.543 1.302,0.858 2.07,1.478 0.104,0.08 0.527,1.006 0.7,1.195 0.514,0.565 1.045,0.717 1.762,0.885 0.974,0.229 1.738,0.627 2.695,0.09 0.785,-0.436 1.349,-0.23 2.062,0.267 0.579,0.403 1.061,0.93 1.659,1.309 0.826,0.522 0.985,-0.562 1.645,-0.37 1.245,0.362 1.281,2.699 2.896,2.88 1.411,0.158 2.392,1.276 3.791,1.352 1.94,0.105 2.224,2.98 3.845,3.397 1.333,0.343 2.614,0.118 3.927,-0.08 1.865,-0.285 3.751,1.198 5.298,2.074 2.533,1.435 0.914,2.8 1.828,4.877 1.007,2.289 1.39,4.308 1.885,6.743 -0.625,-0.02 -1.249,0 -1.87,0.07 0.08,1.774 2.339,2.8 2.637,4.707 0.223,1.425 0.07,3.097 0.692,4.424 0.791,1.681 3.87,1.109 5.384,1.259 2.849,0.282 5.806,0.696 8.637,0.05 0.04,1.269 -0.701,2.044 -0.797,3.189 -0.08,0.945 0.305,2.141 0.55,3.054 0.388,1.442 2.072,3.687 3.64,3.979 0.799,0.149 1.219,-0.384 1.58,0.624 0.274,0.765 0.638,1.469 0.943,2.225 0.803,1.986 1.844,3.092 1.384,5.246 -0.231,1.083 -1.139,2.945 -0.765,4.054 0.526,1.561 -0.588,2.89 -1.192,4.393 -0.815,2.026 -0.857,2.954 0.791,4.344 1.225,1.033 -0.74,1.674 -1.594,2.303 0.591,-1.953 -1.869,-4.153 -3.402,-5.131 -1.609,-1.027 -3.424,-1.829 -5.278,-2.226 -5.134,-1.098 -10.488,1.768 -15.377,2.273 -2.394,0.247 -3.587,0.483 -3.971,3.063 -0.32,2.144 -1.869,3.321 -2.218,5.401 -0.328,1.958 0.513,3.867 0.113,5.889 -0.567,2.868 -0.71,5.99 -1.404,8.83 -2.188,-1.402 -1.27,-2.35 -3.257,-2.265 -1.545,0.07 -3.426,-0.306 -4.871,0.178 -1.724,0.577 -1.623,-0.761 -2.54,1.573 -0.785,1.997 -1.066,3.709 -1.285,5.817 -2.188,-3.046 -1.827,-5.995 -6.033,-6.667 -1.713,-0.274 -4.219,0.543 -5.744,-0.199 -1.335,-0.65 -2.108,-2.269 -3.633,-2.574 -0.211,2.168 -0.09,2.851 -2.267,3.642 -1.091,0.397 -2.283,2.491 -2.889,3.529 -0.899,1.542 -1.248,2.21 -3.339,2.498 -0.762,0.105 -1.973,-0.276 -2.331,-0.723 -1.346,-3.504 -1.731,-5.621 -3.243,-8.442 -1.306,-2.327 -1.111,-4.23 -2.126,-5.803 -0.593,-0.92 -1.659,-1.677 -2.195,-2.574 -0.703,-1.176 0.374,-2.349 -0.09,-2.307 -0.882,0.08 -1.467,-0.848 -1.87,-1.652 -0.451,-0.9 0.611,-1.512 -0.603,-2.637 2.14,-1.293 1.964,-1.091 0.457,-3.124 -0.219,-0.296 0.657,-1.545 0.764,-1.821 0.446,-1.149 -0.08,-1.692 -1.059,-2.526 -1.942,-1.657 -2.836,-3.045 -3.487,-5.493 -0.294,-1.108 -2,-3.941 -0.924,-4.966 -3.609,-0.736 -3.64,-6.181 -5.11,-6.479 0.121,-0.666 0.613,-1.022 1.123,-1.386 0.782,-0.557 1.03,-1.467 1.57,-2.229 0.468,-0.661 0.807,-1.265 1.44,-1.774 0.1,-0.08 -0.1,-1.176 0.08,-1.079 0.562,0.293 1.946,0.58 0.553,-1.057 0.443,0.287 2.111,-1.579 2.078,-1.064 -0.113,-1.873 -3.027,1.231 -1.887,-3.092 -1.816,-0.305 -0.285,-0.76 -4.223,-3.348 0.198,-1.03 1.466,-2.112 0.949,-3.185 -0.812,-1.688 -2.081,-2 -1.029,-4.091 0.678,-1.35 1.381,-2.363 1.835,-3.7 0.539,-1.586 0.86,-1.522 -0.07,-3.201 -0.856,-1.543 -0.224,-2.783 -0.377,-4.438 -0.124,-1.334 -0.937,-4.07 0.07,-5.203 1,-1.126 1.922,-1.892 1.059,-3.363 -2.443,-4.166 -5.041,-8.384 -7.276,-12.655"></path>
		<path id="path5225" d="m 780.247,838.896 c 0.02,0 -0.47,-0.03 -1.112,-0.216 -0.3,-0.09 0.23,-0.892 0.506,-1.039 0.323,0.315 0.929,1.041 0.606,1.255"></path>
	</g></svg>
