<svg xmlns="http://www.w3.org/2000/svg" viewBox="690.5 626 391.3 391.3"><g fill="#2b1d24"><path d="M736.8 763.7c.5-1 .3-1.5 1.4-1.7s-.2-1.6.2-3c.5-2.5 2.3-2.7 4-3.8 1-.7.2-2.3 0-3.5-.3-1.1.3-2.1.9-3 1.2-1.7-.1-4.2 1.2-5.8.6-.7 2-.8 2.7-1.5s.7-1.4 1.7-1.8c1.2-.4 1.9-1.6 3-2 1.1-.5 2.8-.5 4-.7 1.3-.3 2.5-.2 3.5-1.3.1-.2.4-.9 2-1.2.5-.2.6 0 1.4.2s1.4 1 1.8 1.5l.6-.7c1 1.7 1.5-1.7 1.6-2.3q.7-4.2 1.1-8.4.5-5.7 1.6-11.3c.3-1.5 1-3 .6-4.6s-1.5-2.4-1.5-4c0-1.8-1-2.1-2.2-3.3-1.5-1.4-1.5-2.8-1.5-4.5q-.2-1.6.4-3.2c1.4-1.4 4-2.2 5.1-1q1.7.8 1.5-1.2c-.1-2-3.4-3.2-5.2-2.2 0-1.5-.8-4.2-.1-5.5s3.2-.3 4.1-.3h6.5c.4 0 1.6.2 1.7-.4 0-.3-.1-1.2.3-1.5 1.5-1 1.2 2.2 2.4 1.5 1.1-.5 1.7-1.8 2.6-2.6 1.7-1.3 2.5.7 3 1.7.8 1.9.8 2.8.6 4.7 0 .4-.3 1.4.5 1.3 1-.2.9-.9 1.7 0 1.1 1.1 1.8 2.5 3.2 3.1 2 1 3.2-.5 4.7-1.2 2.9-1.4 1.3 2 1.8 2.8.7-.3 1.8-2.1 2.3-2.7.7-1 1-1.7 2.3-2.2q1.3-.4 2.5-1.4c.5-.5 2-1.6 2 0 .9-1.5 1.8-2 2.2-3.7.4-1.3.9-1.2 2-1.7.5-.2 2.4-1.2 2.6-1.5 1.4-2.1.4-2.5-1.3-2.3-.8.1-2 0-2.7-.4-.4-.4 0-1.8-.1-2.2-.7-2-1.5-2.8-1.5-6.1 0-1.4-1-2.4-2-3.5-.7-.6-2.7-3-1.8-3.9.7.3 1 1.2 1.7 1.3 1 .1 3-.6 3.3.8q.2 1.4 1.7 1.2c1.8-.3 2.9.6 3.2 0 1.4-2.5 2.5 3.2 4.5 2.9 1.4-.3.1-2.7.8-3.7.4-.7 1.5-.4 2-1 1-1 1.7.3 2.6 0 1.4-.5 4.5-1.3 5.1-2.4l1.9-1c.8 0 1.7.5 2.3-.5.9-1.6 4.1-2.7 1.8-5.7q1.5 0 3.1-.3 1.4-.4 2.2 1c1.2 1.9-.4 3.3-.7 5-.1.9 2 .4 3 1.5.3.3-.2 1 0 1.5l1.1 2.2c.5.8-1.7 3-2 3.6q0 1.1-.3 2.2c-.3 1.3-1 2.3-1.2 3.7q-.5 3.1 1.4 5.2c1 .9-.1 3.8 1.1 3.7l-.3.7c1.5.2 2.6 1.9 3.2 3 .5 1 1.5 0 2.1 1 .6.7 1.5.5 2 .6s1-1.3 1.6-1.8c2-1.7 3.5-1.6 5.2-2.3 1-.4 1.4.2 2.3-.8q1.4-2.1 4-1.4c1.6.5 2.4-.5 4 0 1 .3 3.9 1.7 4.3 0s-1.7-1.8-1-3.3c1.4-2.8 1.7-.4 3.4-.8l2.7-.9c2-.7 2-.3 3.4 1 .3.2.1-.7.5-.1q.7 1 1.8 1.4c.8.7 1.6.7 2.5 1.2.3.4.9-1 2.8-1.8.5-.2 1.1.4 1.7.5s3-.7 2.6.6c.7-.3 1.8.5 2.4 0 .8-.7 1.6-1 2.2-2 .9-1.3 2.5-5.7 3.4-7 2.8-4.2 5.4-7.7 4.1-10.4.1.5 1.6 3.6 2 4-.3-.9-1-2-.3-3 2.2 1.4 2.5 3.6 2.3 6q0-1.2.8-2-.2 4.8 1.3 9.3c.5 1.2 2.3 4.9 1 6 1-.3 1.2.8 1.5 1.5.7 1.3 2.2.8 3.3 1.3 2.5 1 2 4-.2 5q1-.2 1.7.4c-1 1-2.6 1.8-3 3.2-.2.7-1 1-1.5 1.6q-.6 1.6-1.5 2.8l-3.3 2.9c-1.4 1.2-2.1 2.9-3.2 4.3a5 5 0 0 0-1.3 4c0 .9-1.7 1-1.7 2.3-.1 1.8-1.4.8-2.3.8s-3.3 1.2-3.6 2c.7-.1 4.6-.9 3.5.9.7-.8 1.9-.7 2.7-1.3q1.4-1 3-1.7c1.5-.6 3.6-2.5 4.4-3.8 2 1 .1 3.9 1.4 5.4.4.6 0 2.3.8 2.5.7.2 1.8-.2 1.4 1 1.6.3 4.5-2.6 4.8.7-.2-1 .9-1.2 1.6-1.4q.6 0 .8-.5c.3-.8 1.2-.5 1.8-.6-.8 2.7-1.6 4.4-1.5 7.2 1.2-1.6.5-5 2.6-6 1.3-.6 1.5-.8 2.4-2.1 1.3-2.2 1.7-.6 3 .2q0-.7-.3-1.3l2.2-.3c-.8-.4-1.6 0-2.4 0-.2-1 .6-1 1.1-1.6 1-.9 0-2.8 1-3.9 1.4-1.2 1-.2 1.9-.5.6-.2 1.8-1.8 2-.2 1.2-1.2 1.2.4 2.4 0q-.7-.7-.3-1.5c.6.2 2.3.6 2 1.6l.6-.3.3.8q.8-.8.7.3 1-.4 1-1.3c-.3 1 1 1.1.6 2q.2-1 1.1-.7 0 1-1 1.2c1-.5 2 1 3 0-.2 1.3.8.5 1.1-.2-.4 1.7 1 1 .9 2q.5-.2.8-.7c-.1.9 1 .5 1.3 1.4l.7-.7q0 .8.6 1.4l.7-.6q0 1.3 1 .4-.8.7-.2 1.5.2-.9 1.1-1c-.8.7-.5 2.2.2 2.9.4-.6 0-1.6.8-2 1.5-.5.8.5 1.5.8q0-1 .9-1.3a3 3 0 0 0-.4 1.5c1.7-1-.2 2 1.6 1l-.7.6q1 .3 1.4-.5c-.4 1 1.3.4.5 1.9-.6 1.2-.3 2.3-2 2.8q.9-.5 1.3.6c0-1 1-2.3 1.8-1.2 1 1.3-.6 1.7-1.1 2.7a9 9 0 0 0-1 4.2c.4 1-1.1 1.8-.5 2.5.1-1.4 1.8-1.8 2.3-2.9.6-1 .2-2.9.9-3.8.3-.4 1.7-1.5 2.2-.7.8 1.3-1.7 2-1.8 3q1.1-.6.7.6c.8-.4 2-3.7 2.4-2 .1-1.2 2.3-1.8 3.2-1.3 0-2.3 4.6.2 5.4.7.6.3 3.9 1.7 4 2.3.7-.5 2.5.7 2.2-.8 1 .2 1.6 1 2.4 1.3 1 .4 2 .4 3 1.2-.1-1.4.8-1.3 1.8-1.3 2.2-.1 4-1 6.3-.5 4 .9 7.7 4.3 10.9 6.8 1 .8 2.2 1 3 2q1.4 1.5 2.3 3c1 1.2 2.1 1.7 3 2.8.8 1.2 2.4 1.4 3.3 2.6 1 1.2 2.4.7 3.5 1.8 1.2 1.3 3.5.8 5 .6q5.5-.9 7.3 4.4c.4 1.4 1 2.7 1 4.2 0 .4-.4 1.1 0 1.3q.6.4.7 1.1c.7 1.6 1.8 5 1 6.6l.6-1c-.2 1.6 1 3.6-.7 4.8l.8.2c-.6 1.4.4 3-.4 4.2s-.2 3-.9 4.3l-1.7 4.9c-.8 1.7-2.5 2.9-3.2 4.7l-.7-.6c0 .7-.2 1.6-1 .4q.3.7 1 .8c-1 2-2.6 4.7-4.4 6.3l-2.4 1.5q-1 1.2-2.2 2 0-.9-.8-1.1c-.1.6.7.8.6 1.5-.1.8-.8 1.8-1.6.8.4.6 1.3 1 .7 1.8-.3.5-1.7 2-1.1.3-.5.7-.4 1.6-1 2.3l.8-.3c-1.5 2.2-4 13.6-8.2 13 .8-1.8-1-2.1-1.5-3.5 0 .8-.9 3-1.6 1.3.3.7 1.3 1 1.3 1.8 0 1.3-1.7 2.3-1.3 3.7-1.1-.8-.9 1.2-.9 2l.4-1q.5 1.4.3 2.9l-.8-.7c.7.5 1.2 2.2 1 3l.5-1.5c.1 3-.8 5.8-.4 8.8.4 2.7 1.5 5.4 1.7 8 .2 4.7-2.7 9-1.4 13.9.7 2.6-1 3-2.1 5a13 13 0 0 0-1.2 7.8c.2 1.8 1.3 5.5-.9 6.5-2 1-.4 5-2.9 5.3 1.8 1.5-1.2 3.5-2.2 4.4-.8.8-.6 1.4-.9 2.5-.4 1.6-1.1 3.1-.9 4.8.1 1 .8 2.3.1 3.1-1 1.4-2.8 1.3-4.2 2.2q-1.5 1-2.3 2.6-.3.9.2 1.9c.2.6-.6 1-.3 1.7-1-1.1-3.8-.6-5-.3-.7.1-1.9.5-2.6.1-1-.6-.3-1.6-.4-2.5-2.3.3-.4 1.2-.7 2.4s-5 .7-6 1.3c.8-.8 2-.4 2.9-.7q-1.5-1.5-3.2-.6c-1 .6-1.5.1-2.6.2-.8.1-2.1.2-2.4 1.1s1.1 1.3 1.6 1.6c-1.1 1-2.6 0-3.4 1.1-.6 1-1.7 1-2.5 1.7-.8.5.1 1.3-.6 1.9-1.1.7-3-1.3-4.5 0-.2 0-1.2 2-1.6 1.6-.4-.5-.1-1-1-1 .5 1.4-1.2 1.5-2.1 2.2-1.2.7-1.7 1.8-2.6 2.8s-2.5 1.4-3.6 2.4c-1 .8-1.5 2-2.5 2.7l.7.5q-1.3 1.2-2 2.9-.2-.8.4-1.5-1.2.3-2.3-.2c.3 1.5-.5 2.4-2 1.2 0 .8 2.1 1.7 2.9 1.6q-.7.8-.9 1.9c0 .5-1.2.4-1.6.6l1.5.1-.1 2c-.3.9-1.1 1-1.4 0 .3.7.2 1.5.8 1.8.9.3.4 2.1.6 2.8.3 1.1 1.7 2.7 1 4.1 1.1-.2 1 1 .2 1.2 1 .7.2 3.8 1 5 .6 1.2-.6 4.2-.7 5.4l-1-1c.3.6.3 1.4 1 1.6-.7 1.1-2 1.8-3 2.7q-1.6 1.5-2.6 3.5c-1.6 3-2 6.4-3 9.7q-1.3 4.7-4.1 8.7c-1.8 2.5-4.3 4.4-6.4 6.7.4-1-.1-2-.3-3 1 .3 1.5.4 2.4-.2s1.3-2 2-2.4q1.5-.6 1.3-2.2c0-.8.1-2.2 1-1-.3-1.2.2-1.6 1-2.4q.7-1 .5-2.3c-.1-.6-.8-2.6.6-1.3 0-.3-.4-2.3-1-2.1-.2.1-2 1.4-2 1.8-.5-.5-.7-1.2-1.4-1.4-.9-.3-.7-1.5-1.5-2 0 2 .9 2 1.7 3.4-1.7.4-.5 2.3-.6 3.4q-.1-.8-.6-1.5c-.3.7.4 1.6 0 2.2-.1.2-.6.2-.6.6.3 1.6-1 2.5-2.2 3.1-1 .6-.6 1.7-.8 2.6-.3.7-2 2.4-.3 2.6-1 .6-.3 1.9.6 1.2.2.9-.5 1.7-.9 2.5-.6 1.3-.5 2.8-.7 4.2-.4 2.7-2 4.3-3.4 6.4q-1 1.5-1.8 1.2c-.5-.2-1.1-1.3-1.4-1.9-.4-1-.2-1.9-.3-2.7 0-1.2 1-2 1.6-3 .7-1.5-1-2.1-2-2.6-1.2-.6-1.6-1.6-2.3-2.6-1.7-2.4-4-2.3-5.6-4-1.3-1.3-2.8-2-4.3-3-.6-.2-.8-.8-1.4-1-1.7 1-3.6-2.6-5.3-3.9.8 1.2-2.7 3.3-2.6.7 0-2-2.5-3.4-4-4.5-1-.8-3.2-3.7-4.9-2.5-.5.4-.6 1.1-1.4 1.3-.8.3-2 .2-2.7-.8 1.5-.6 1.1-3 2.9-3.7 1.6-.7 2.2-2.9 2.8-4.5.7-1.9 2-3.4 3-5.1.4-1 1.5-3.3 2.8-2q.3-.9-.6-1.3c1-1.2 2-2.7 3.3-3.4 1.4-.8 1.6-1.4 2.5-2.4 1-1 2.2-1.2 3.4-1.8.8-.5 2.4-2.3 3.5-1.8q.3-2.5.2-5c0-2.2-.3-3.3-1-5.3-.5-1.4-.9-3-2.5-3.6-.9-.3-2.6-.5-2.8.8-.3-.2-1 0-1.5-.4-.4-.2-.2-1.2-.2-1.8-.1-1.7.4-3 .7-4.7.1-1.2-.2-3 .4-4 .5-1.2-1-2 .2-3-.8-.6-1.5-1.7-2.6-1.8s-2.1.8-3.2 1.2c-3 1-3.7-1.9-4.2-4.2-.4-1.3-1.3-2.7-1.6-4-.9-3.3-1.8-4.4-2.9-6q-1.8-.2-3.4-1.4c-1-1-1-.3-2 1.3-2 3.2-1.7 0-2.7-.1-1.3-.2-3-.2-4.2-.9-.7-.3-3.3-.6-3.5-1.4-.2-.9.5-1.7.7-2.5.2-.7-.6-1.9-.3-2.7.5-1.3 0-2.6.2-3.9.3-1-1.6-1.4-.6-2.5-1.2-.5-1.6-2.5-2.2-3.8-1.3-1.8 3.1-2 1.2-3.4-2.2-1.7-1.4-3-.3-5.4.3-.7 1.2-2 .9-2.7-.6-1 0-1.9.2-3 1.2-3.3.4-3.7-.7-6-1-1.5-.9-3.9-1.8-3.5-1.6.7-3.7-1.4-4.3-3.1q-.6-1.9-.9-3.8c0-1.2 1-2.2.9-3.5q-3.7.7-7.5.2c-1.5-.2-5 .3-6.2-1-1-1.1-.8-3.5-1-4.9-.4-1.9-2.6-3-2.7-4.7h1.9a37 37 0 0 0-1.8-6.6c-.4-.8-.4-1-.4-1.8 0-1 .1-1.9-.7-2.6-2.2-1.7-4.6-2.9-5.7-2.7-4 .4-3 .1-4.2 0-1 0-2.2-2.1-2.7-2.7s-.9-.4-1.6-.4c-.6 0-1.9-1-2.4-1.3l-1.5-.4c-1.1-.6-1.2-1.5-1.7-2.1-.6-.9-.7-.7-1.6-.3s-1.6-.7-2.3-1.2c-1.7-1.2-2.3.2-4.1-.2-2-.5-2.3-.7-3.4-2.3a7 7 0 0 0-3.4-2c-.8-.1-.5-1.4-1-2-.4-.4-1.3-.3-1.3-1 0-1.4-1.6-2.6-1.7-4.2 0-.8.6-1.3.7-2.2 0-.7-1-.9-1.1-1.7l-.2-2 .5-2.4c.3-1.4.4-3.8-1-4.8-.3.3-.6 1.2-1.1 1.1q-2-.2-3.9 0c-1.5.3-4 .6-5 1.8-1.7 1.9-2 3.1-4.2 3.2-.5 0-2 1-2.1 1.8-.2 1.1-1.4.7-2 .6q-1.7.2-2 1.6-.5 1.5-2.3 2c-.4.2-2.2 1-1.8-.3 0-.4-1-.4-2-.5-2.1 0-5.3-.5-7-.4-1 0-2.1 1.3-3.2 1-.7-.2-1.4-1.3-2.2-.7-.3-2.6-.5-5.6-.5-8 0-1.4.1-1.6.5-2.7q0-.6-.3-1c-.4-.7.3-1 .4-1.6-1.6.1-3.4 3.1-4.8 4.2-2 1.6-5.3 1-7.6.7.3-1.3-.7-3.2-1.6-4-1.7-1.4-4.6-.5-6.4-1.4 2.1-2.8 1.5-3.6-.8-6q-.6-.5-.8-1.4c-.2-.7-1-1-1.3-1.5-1-1.2-.8-2.7-2.3-3.7 1.5-.8-1.3-2.5-1.7-3.4"/><path d="M1006 816c1-2.9-2-.6 0 0M899.9 711.8q1-.3 1.9-1.1-1.4-.2-2 1m1.8 1.1c.6-.7 1.5-.5 2.2-1.1-.7-1.1-2.6 0-2.2 1m13.1-32.5.5-.7q-1.2-.3-.5.7m.7 2.1c1-.5.5-1.5 0-2.2-1.1.5-.5 1.5 0 2.2m-11.5 29c2-.4 6.7-5.1 5.5-7.4-1.1-2.3-3.3.8-3.6 2-.3 1 .1 1.9-.8 2.5s-1.7 1.7-1.1 3m3.8-8.6c.8-.5 2.8-1.9 1.8-3-1 .6-1.4 2-1.8 3"/><path d="M907.8 709.1c1-.4 2-2 1.2-3 0 1.2-1.2 1.9-1.2 3m3.1-3.1q-1.2.6-1.6 2c1-.3 1.2-1.4 2-2zm-1.1-2.7q.3-1.2 1.3-1.8c-1.1-1.1-1.6 1-1.3 1.8"/><path d="M909.7 706.9q.8-1.2 1.8-2.3c.5-.3.7-1.2-.2-1-1 .4-1.7 2.3-1.6 3.3m.5-3.5q1-.4.8-1.3-.8.4-.8 1.3m1.6-2.4 1.7-1.5c.7-.7-.4-1-1-.7-1 .4-3 1.8-.7 2.3"/><path d="M910.8 703.6c.6-.4 2-.8 1.5-1.8-1 .1-1 1.1-1.5 1.8m.4 2.3q.5-.4.8-1-1 0-.8 1m.2-7.4v.5q.9-.1 1.5-.8-.8-.5-1.5.3m1 12.8 1.6 2.6c.6.5 2.8.7 1.7 0 1 .2 2.3-.5 3.2-.2.7.2 1.7.8 1.4-.5l.5.8c.7-.5 1.5-1.2 1.5-2 .4 1.4 3 .3 3.8 0 1.5-.9 1.4-2.4 2.3-3.7a10 10 0 0 0 1.4-4c.2-1.3 1.8-3.6-.5-3.8-1.9 0-4.2-1.2-6-.5-.8.4 0 .7-1.2.7q-1.5-.1-3-.5c-2-.5-4.4-1.4-5.7.8-.7 1.2-.8 3 .8 3.5l-1.7-.4c-.2.6.2 1 .2 1.6s-.6 1.2-.2 2 1.6-.3 2.2-.1c-1 1.7-.8.5-2.5.7q.5 1.5.2 3m1.6-12.8c1 .7 1-.3.6-1-.7-1.4-1.5.2-.6 1m1-1.5c.7-1 1.2-2.2.2-3.4-.4.9-1.3 3.2-.3 3.5m2.8 1.4c.7 1.4 2.1-.8 2.7-1.4 1.5-1.6-1.2-1.3-2-1-.9.2-2.8.3-3 1.3s1.9 1 2.3 1.1m-1.3-2.9c.4-.3 2.3-1.8 1.6-2.5-1.2-1-2.5 1.6-1.6 2.5"/><path d="m916.5 696.6 1.1-.9q-1 0-1.1.9m0-4.5c.7 0 1.6-.2 1.5-1.1-.8-.3-1.8.2-1.5 1.1m1.7-1.6q.6-.4.2-1-.6.4-.2 1m1.9 8c-1 1.6 1.5 1.3 2.3 1 1.5-.4-1-2.2-2.3-1m6.2 15.7.4-2c-.9.3-1.3 1.3-.4 2m3.8-5.6c2 2 .5-2.3 0 0m5.8-4.1c.8.3 0-.8 0-.8zm9.1 2.9q.5-.2.5-.8-1.1-.4-.5.8m11.6 3.3q1-.4.6-1.2-.4 1.2-.6.5zm1.8 2.3.7-.3q-1-.6-.8.3m1.7 12.1q.7-1.4.7-3c-1.1.5-.7 2-.8 3m6.7-6.2.7-.7q-1.2-.1-.7.7M942 926.6l.7.6c.3-.7.6-1.5 0-2q-.6.5-.6 1.3m2.4 12.8c.7-.9 1.3-2.7.5-3.7-1 .6-.6 2.7-.5 3.7m20.8-33.3c0-.7-.5-1.1-.2-1.8-.9-.2-1.2.7-1.4 1.4q.9-.1 1.6.4m6.2-6.5q.9-.2 1.5-1c-.7-.5-1.8 0-1.5 1m35.5-87.3c.5-.5 1.8-1.4.7-2.1.2.8-.8 1.3-.8 2.1"/></g></svg>
