<svg xmlns="http://www.w3.org/2000/svg" viewBox="690.48 625.96 391.29 391.29"><g id="br" fill="#2B1D24">
		
		<path id="Brazil_mainland" d="m 736.80,763.69 c 0.51,-0.979 0.292,-1.512 1.421,-1.715 1.126,-0.203 -0.184,-1.552 0.134,-3.061 0.514,-2.435 2.367,-2.643 3.971,-3.685 1.143,-0.743 0.307,-2.374 0.03,-3.567 -0.255,-1.094 0.313,-2.08 0.925,-2.942 1.229,-1.732 -0.08,-4.248 1.178,-5.77 0.646,-0.785 2.022,-0.836 2.783,-1.581 0.675,-0.661 0.7,-1.419 1.636,-1.743 1.205,-0.418 1.885,-1.6 3.045,-2.076 1.074,-0.44 2.735,-0.41 3.898,-0.652 1.382,-0.288 2.532,-0.222 3.551,-1.303 0.164,-0.174 0.418,-0.878 1.955,-1.239 0.573,-0.134 0.702,0.124 1.481,0.294 0.667,0.146 1.404,0.939 1.787,1.459 0.194,-0.24 0.387,-0.479 0.58,-0.72 1.043,1.719 1.562,-1.71 1.652,-2.318 0.413,-2.774 0.827,-5.549 1.104,-8.341 0.376,-3.79 0.788,-7.591 1.554,-11.301 0.325,-1.574 0.981,-3.003 0.603,-4.639 -0.363,-1.573 -1.472,-2.381 -1.523,-4.064 -0.05,-1.739 -0.893,-2.033 -2.183,-3.241 -1.441,-1.349 -1.464,-2.766 -1.464,-4.479 0,-0.996 -0.157,-2.248 0.378,-3.165 1.359,-1.474 4.05,-2.23 5.126,-1.127 1.177,0.625 1.589,0.271 1.495,-1.088 -0.146,-2.117 -3.402,-3.258 -5.234,-2.243 -0.01,-1.531 -0.823,-4.183 -0.107,-5.511 0.697,-1.292 3.23,-0.248 4.148,-0.248 2.195,0 4.252,-0.04 6.443,0.05 0.388,0.02 1.628,0.144 1.745,-0.462 0.06,-0.314 -0.124,-1.223 0.293,-1.495 1.538,-1 1.164,2.14 2.422,1.522 1.074,-0.528 1.669,-1.867 2.588,-2.603 1.686,-1.35 2.526,0.678 2.936,1.641 0.813,1.913 0.815,2.848 0.624,4.713 -0.04,0.439 -0.317,1.426 0.482,1.279 1.118,-0.206 0.894,-0.838 1.774,0.05 1.075,1.083 1.777,2.471 3.195,3.126 1.905,0.879 3.175,-0.512 4.644,-1.236 2.915,-1.436 1.354,1.99 1.782,2.772 0.71,-0.231 1.877,-2.076 2.308,-2.696 0.734,-1.054 1.055,-1.691 2.337,-2.187 1.072,-0.415 1.652,-0.565 2.468,-1.365 0.58,-0.569 2.096,-1.646 2.036,-0.09 0.856,-1.422 1.812,-1.942 2.23,-3.6 0.33,-1.304 0.823,-1.257 1.982,-1.747 0.498,-0.211 2.38,-1.181 2.605,-1.52 1.379,-2.073 0.342,-2.452 -1.278,-2.256 -0.795,0.09 -2.128,0.07 -2.765,-0.462 -0.374,-0.313 0.06,-1.741 -0.08,-2.141 -0.743,-2.009 -1.519,-2.787 -1.47,-6.131 0.02,-1.401 -1.027,-2.368 -2.114,-3.485 -0.621,-0.639 -2.645,-2.906 -1.696,-3.859 0.65,0.285 0.988,1.201 1.692,1.27 0.963,0.09 3.035,-0.614 3.284,0.836 0.173,1.012 0.562,1.27 1.678,1.12 1.837,-0.247 2.896,0.661 3.206,0.104 1.444,-2.595 2.561,3.173 4.569,2.807 1.312,-0.24 0.101,-2.696 0.762,-3.725 0.402,-0.626 1.48,-0.308 2.066,-1.009 0.853,-1.021 1.666,0.369 2.539,0.07 1.373,-0.475 4.467,-1.298 5.088,-2.459 0.04,-0.08 1.668,-1.02 1.858,-1.005 0.801,0.06 1.773,0.502 2.316,-0.48 0.881,-1.594 4.13,-2.634 1.822,-5.622 1.093,-0.165 2.025,0 3.128,-0.31 0.896,-0.258 1.559,0.03 2.154,0.937 1.263,1.929 -0.353,3.315 -0.659,5.028 -0.157,0.88 1.926,0.422 3.046,1.542 0.249,0.249 -0.313,0.973 -0.1,1.471 0.346,0.808 0.73,1.436 1.178,2.17 0.496,0.813 -1.781,2.969 -1.961,3.641 -0.18,0.669 -0.193,1.436 -0.369,2.159 -0.323,1.326 -1.06,2.353 -1.22,3.712 -0.236,2.016 0.05,3.859 1.378,5.161 0.949,0.932 -0.111,3.852 1.133,3.756 -0.1,0.24 -0.192,0.48 -0.29,0.72 1.499,0.169 2.63,1.849 3.229,2.972 0.498,0.934 1.5,0.07 2.092,0.943 0.529,0.78 1.432,0.587 1.896,0.682 0.528,0.108 1.06,-1.33 1.652,-1.821 2.104,-1.746 3.543,-1.578 5.22,-2.302 0.964,-0.417 1.448,0.174 2.262,-0.808 1.077,-1.299 2.197,-2 4.076,-1.418 1.528,0.473 2.328,-0.454 3.924,0 1.041,0.293 3.916,1.752 4.306,-0.02 0.359,-1.633 -1.657,-1.761 -0.906,-3.271 1.379,-2.772 1.657,-0.381 3.305,-0.798 1.043,-0.265 1.777,-0.51 2.728,-0.861 2.015,-0.745 1.924,-0.344 3.423,0.9 0.297,0.246 0.08,-0.592 0.437,-0.04 0.446,0.691 1.148,0.928 1.799,1.421 0.842,0.638 1.628,0.721 2.503,1.198 0.373,0.355 0.927,-1.087 2.87,-1.783 0.49,-0.272 1.106,0.379 1.627,0.426 0.642,0.06 3.103,-0.637 2.639,0.686 0.708,-0.334 1.833,0.5 2.417,-0.02 0.825,-0.741 1.561,-1.053 2.181,-2.007 0.875,-1.346 2.528,-5.672 3.414,-7.01 2.796,-4.219 5.407,-7.671 4.138,-10.442 0.09,0.577 1.595,3.652 1.99,4.083 -0.329,-0.936 -1.115,-2.094 -0.29,-3.024 2.186,1.354 2.469,3.532 2.23,5.904 0.124,-0.698 0.191,-1.459 0.79,-1.944 -0.08,3.135 0.242,6.407 1.349,9.356 0.452,1.206 2.308,4.864 0.951,5.979 1.048,-0.346 1.223,0.786 1.553,1.473 0.643,1.338 2.162,0.801 3.277,1.263 2.544,1.055 2.054,4.055 -0.15,5.04 0.573,-0.162 1.216,-0.06 1.66,0.359 -0.969,0.969 -2.651,1.839 -3.042,3.248 -0.202,0.725 -1.027,1.053 -1.417,1.646 -0.591,0.898 -0.852,1.897 -1.572,2.726 -0.976,1.122 -2.23,1.938 -3.323,2.932 -1.35,1.229 -2.054,2.88 -3.19,4.282 -1.053,1.299 -1.44,2.301 -1.292,3.973 0.08,0.937 -1.646,1.103 -1.707,2.39 -0.08,1.735 -1.35,0.8 -2.238,0.771 -0.813,-0.03 -3.369,1.226 -3.668,2.007 0.719,-0.167 4.602,-0.905 3.52,0.87 0.735,-0.809 1.881,-0.735 2.771,-1.259 1.039,-0.611 1.837,-1.275 2.96,-1.757 1.462,-0.628 3.622,-2.449 4.43,-3.825 1.892,1.098 0.09,3.939 1.318,5.458 0.495,0.609 0.02,2.24 0.834,2.481 0.681,0.2 1.86,-0.196 1.447,0.992 1.598,0.313 4.458,-2.6 4.75,0.72 -0.143,-1.023 0.867,-1.213 1.632,-1.36 0.382,0.01 0.654,-0.159 0.816,-0.514 0.297,-0.791 1.145,-0.497 1.801,-0.646 -0.852,2.674 -1.646,4.421 -1.52,7.199 1.22,-1.575 0.499,-5.002 2.547,-5.968 1.363,-0.642 1.588,-0.833 2.395,-2.149 1.332,-2.175 1.696,-0.565 3.048,0.268 -0.03,-0.457 -0.145,-0.891 -0.35,-1.3 0.753,-0.05 1.49,-0.223 2.23,-0.36 -0.76,-0.382 -1.613,-0.07 -2.38,0.07 -0.194,-1.051 0.55,-1.095 1.139,-1.659 0.893,-0.856 -0.07,-2.757 1.029,-3.843 1.296,-1.28 0.93,-0.201 1.792,-0.538 0.606,-0.236 1.875,-1.764 2.02,-0.22 1.194,-1.165 1.261,0.462 2.37,0.07 -0.477,-0.41 -0.588,-1.027 -0.29,-1.58 0.681,0.199 2.306,0.596 1.95,1.65 0.236,-0.128 0.476,-0.248 0.72,-0.36 0.1,0.267 0.193,0.534 0.29,0.801 0.622,-0.494 0.72,-0.498 0.72,0.35 0.576,-0.19 0.98,-0.676 1.01,-1.29 -0.362,0.932 0.911,1.106 0.57,2.021 0.09,-0.586 0.466,-0.964 1.08,-0.73 0,0.619 -0.416,1.087 -1.01,1.23 1.028,-0.597 1.964,0.864 2.95,-0.07 -0.132,1.354 0.868,0.553 1.16,-0.15 -0.413,1.64 0.963,0.961 0.86,2.021 0.386,-0.154 0.676,-0.417 0.87,-0.79 -0.133,0.928 1.024,0.589 1.22,1.439 0.246,-0.234 0.486,-0.474 0.72,-0.72 0.05,0.539 0.241,1.019 0.58,1.44 0.238,-0.192 0.475,-0.385 0.71,-0.58 0.123,0.72 0.407,1.063 1.08,0.359 -0.525,0.375 -0.663,0.972 -0.28,1.51 0.149,-0.554 0.576,-0.98 1.149,-1.08 -0.813,0.732 -0.524,2.293 0.221,2.961 0.325,-0.609 -0.07,-1.635 0.756,-1.953 1.494,-0.58 0.825,0.493 1.544,0.723 -0.04,-0.601 0.316,-1.072 0.86,-1.29 -0.25,0.472 -0.37,0.976 -0.36,1.51 1.709,-1.025 -0.224,2.034 1.59,0.931 -0.25,0.229 -0.49,0.47 -0.72,0.72 0.583,0.202 1.116,-0.08 1.439,-0.57 -0.491,1.064 1.239,0.482 0.49,1.909 -0.669,1.275 -0.354,2.337 -2,2.841 0.592,-0.372 1.055,-0.04 1.22,0.57 0.04,-0.915 1.049,-2.321 1.893,-1.134 0.902,1.271 -0.678,1.668 -1.175,2.623 -0.424,0.814 -1.178,3.324 -0.887,4.207 0.322,0.977 -1.228,1.788 -0.55,2.515 0.09,-1.373 1.719,-1.789 2.3,-2.88 0.577,-1.084 0.198,-2.9 0.826,-3.792 0.321,-0.458 1.77,-1.499 2.239,-0.709 0.77,1.296 -1.668,1.987 -1.834,3.061 0.71,-0.457 0.95,-0.287 0.72,0.51 0.839,-0.406 2.018,-3.692 2.45,-2.02 0.07,-1.154 2.296,-1.78 3.16,-1.29 -0.09,-2.272 4.617,0.244 5.452,0.725 0.592,0.341 3.853,1.668 3.908,2.295 0.71,-0.463 2.593,0.708 2.24,-0.79 0.943,0.209 1.581,0.914 2.44,1.29 0.99,0.432 2.052,0.366 2.88,1.16 -0.02,-1.385 0.839,-1.238 1.915,-1.277 2.157,-0.08 4.063,-0.942 6.26,-0.473 4.022,0.858 7.744,4.292 10.884,6.752 1.04,0.819 2.24,0.957 3.11,1.988 0.82,0.988 1.47,2.092 2.25,3.106 0.89,1.144 2.07,1.654 2.88,2.778 0.87,1.2 2.46,1.332 3.42,2.573 0.96,1.246 2.35,0.742 3.44,1.815 1.27,1.243 3.49,0.741 5.04,0.547 3.57,-0.445 6.21,0.889 7.24,4.429 0.41,1.371 1.01,2.736 1.03,4.188 0,0.438 -0.36,1.171 0,1.339 0.38,0.191 0.6,0.722 0.75,1.09 0.65,1.549 1.75,5 0.91,6.633 0.23,-0.351 0.45,-0.71 0.64,-1.08 -0.15,1.638 1.05,3.611 -0.64,4.82 0.27,0.06 0.53,0.137 0.79,0.22 -0.67,1.355 0.4,2.987 -0.43,4.215 -0.85,1.272 -0.21,2.986 -0.88,4.322 -0.77,1.551 -1.04,3.293 -1.76,4.868 -0.79,1.733 -2.51,2.864 -3.19,4.665 -0.25,-0.178 -0.49,-0.368 -0.72,-0.57 0.1,0.73 -0.17,1.639 -0.87,0.43 0.13,0.46 0.42,0.701 0.87,0.721 -1.05,2.071 -2.58,4.773 -4.32,6.34 -0.72,0.646 -1.69,0.904 -2.42,1.546 -0.76,0.669 -1.35,1.545 -2.26,2.044 0.15,-0.615 -0.24,-1.048 -0.8,-1.22 -0.1,0.669 0.78,0.885 0.65,1.51 -0.15,0.805 -0.85,1.879 -1.65,0.87 0.4,0.516 1.33,1.014 0.77,1.792 -0.33,0.451 -1.69,1.945 -1.14,0.288 -0.45,0.717 -0.35,1.62 -1,2.24 0.29,-0.09 0.58,-0.187 0.86,-0.29 -1.58,2.261 -4.1,13.653 -8.21,12.96 0.76,-1.722 -0.99,-2.043 -1.51,-3.391 0,0.781 -0.89,2.976 -1.58,1.301 0.22,0.701 1.3,0.989 1.27,1.744 -0.1,1.327 -1.74,2.274 -1.27,3.726 -1.15,-0.78 -0.91,1.208 -0.94,2.02 0.1,-0.372 0.21,-0.732 0.36,-1.079 0.39,1.01 0.4,1.885 0.36,2.949 -0.28,-0.222 -0.54,-0.462 -0.79,-0.72 0.63,0.529 1.19,2.239 0.94,3.03 0.2,-0.504 0.39,-1.011 0.57,-1.521 0.1,3.029 -0.86,5.774 -0.42,8.848 0.37,2.637 1.52,5.398 1.65,8.027 0.23,4.668 -2.7,9.016 -1.4,13.804 0.72,2.67 -0.97,2.998 -2.11,5.005 -1.32,2.313 -1.52,5.187 -1.19,7.782 0.23,1.852 1.33,5.583 -0.86,6.546 -2.072,0.909 -0.41,4.955 -2.869,5.287 1.749,1.544 -1.21,3.478 -2.207,4.428 -0.854,0.814 -0.607,1.428 -0.909,2.52 -0.445,1.611 -1.178,3.063 -0.919,4.78 0.135,0.893 0.782,2.288 0.112,3.103 -1.105,1.345 -2.795,1.303 -4.184,2.132 -0.942,0.563 -1.913,1.612 -2.336,2.628 -0.274,0.658 0.05,1.268 0.236,1.898 0.197,0.64 -0.63,0.98 -0.303,1.7 -0.983,-1.09 -3.803,-0.55 -5.04,-0.29 -0.724,0.15 -1.887,0.55 -2.59,0.15 -1.043,-0.6 -0.302,-1.62 -0.36,-2.52 -2.316,0.27 -0.415,1.23 -0.724,2.4 -0.306,1.15 -4.934,0.7 -5.977,1.27 0.707,-0.76 1.928,-0.42 2.81,-0.72 -0.948,-0.85 -2.008,-1.31 -3.183,-0.6 -1.043,0.64 -1.511,0.13 -2.589,0.26 -0.782,0.1 -2.082,0.17 -2.355,1.1 -0.255,0.87 1.079,1.25 1.578,1.62 -1.137,0.92 -2.651,-0.1 -3.395,1.05 -0.64,0.94 -1.667,1.05 -2.552,1.67 -0.782,0.54 0.181,1.37 -0.603,1.89 -1.084,0.71 -2.931,-1.3 -4.471,0 -0.162,0.13 -1.229,2.09 -1.612,1.61 -0.334,-0.42 -0.07,-1.04 -0.908,-0.89 0.441,1.31 -1.253,1.46 -2.193,2.08 -1.154,0.77 -1.687,1.87 -2.598,2.86 -0.993,1.07 -2.521,1.37 -3.597,2.34 -0.918,0.83 -1.442,2.09 -2.483,2.79 0.239,0.14 0.479,0.29 0.72,0.44 -0.808,0.83 -1.614,1.81 -2.09,2.88 -0.07,-0.55 0.07,-1.03 0.43,-1.44 -0.752,0.32 -1.531,0.11 -2.23,-0.22 0.325,1.49 -0.506,2.35 -1.94,1.15 -0.01,0.86 2.02,1.74 2.8,1.66 -0.538,0.5 -0.725,1.17 -0.86,1.87 -0.107,0.55 -1.227,0.37 -1.58,0.65 0.482,0 0.962,0 1.44,0.1 -0.217,0.68 0.06,1.38 -0.134,2.05 -0.233,0.8 -1.081,0.94 -1.306,0 0.278,0.59 0.15,1.39 0.803,1.67 0.854,0.36 0.355,2.17 0.557,2.87 0.322,1.1 1.691,2.72 1.08,4.1 1.056,-0.25 0.948,0.99 0.08,1.15 0.951,0.72 0.208,3.8 0.969,5.07 0.713,1.19 -0.552,4.15 -0.609,5.37 -0.378,-0.28 -0.691,-0.62 -0.94,-1.01 0.259,0.61 0.236,1.35 1.01,1.59 -0.804,1.13 -2.082,1.81 -3.112,2.7 -1.097,0.96 -1.855,2.24 -2.534,3.5 -1.651,3.09 -2.133,6.38 -3.01,9.72 -0.823,3.13 -2.38,5.98 -4.188,8.65 -1.741,2.57 -4.273,4.4 -6.307,6.75 0.362,-0.93 -0.155,-2.06 -0.36,-2.96 1.06,0.29 1.478,0.38 2.417,-0.27 0.835,-0.58 1.301,-1.92 2.056,-2.34 1.043,-0.59 1.219,-1.07 1.215,-2.28 0,-0.78 0.135,-2.14 1.083,-1.02 -0.355,-1.14 0.181,-1.57 0.853,-2.37 0.551,-0.65 0.667,-1.4 0.546,-2.23 -0.09,-0.61 -0.726,-2.62 0.61,-1.37 0.03,-0.32 -0.396,-2.25 -0.893,-2.08 -0.316,0.11 -2.045,1.41 -2.057,1.8 -0.475,-0.54 -0.747,-1.18 -1.452,-1.43 -0.832,-0.3 -0.672,-1.48 -1.429,-1.88 -0.07,1.97 0.868,1.89 1.65,3.31 -1.653,0.4 -0.451,2.31 -0.57,3.38 -0.115,-0.53 -0.331,-1.01 -0.649,-1.44 -0.237,0.68 0.407,1.55 0.07,2.12 -0.151,0.25 -0.682,0.21 -0.608,0.6 0.311,1.64 -1.084,2.51 -2.246,3.18 -0.917,0.52 -0.55,1.66 -0.813,2.53 -0.221,0.72 -2.041,2.48 -0.29,2.66 -0.93,0.57 -0.269,1.85 0.65,1.14 0.148,0.92 -0.528,1.77 -0.898,2.55 -0.605,1.26 -0.559,2.79 -0.752,4.15 -0.38,2.69 -2.019,4.29 -3.41,6.47 -0.566,0.88 -1.304,1.38 -1.762,1.19 -0.486,-0.19 -1.131,-1.35 -1.369,-1.9 -0.444,-1.03 -0.259,-1.89 -0.326,-2.77 -0.09,-1.15 1.039,-2 1.542,-2.95 0.79,-1.49 -0.919,-2.15 -1.929,-2.62 -1.176,-0.55 -1.657,-1.57 -2.368,-2.6 -1.659,-2.38 -3.975,-2.27 -5.533,-3.95 -1.288,-1.35 -2.795,-2.1 -4.365,-2.97 -0.575,-0.27 -0.794,-0.85 -1.37,-1.11 -1.638,1.04 -3.619,-2.52 -5.32,-3.86 0.874,1.25 -2.64,3.35 -2.562,0.72 0.06,-2.09 -2.521,-3.42 -3.993,-4.53 -1.093,-0.83 -3.251,-3.69 -4.899,-2.5 -0.549,0.4 -0.577,1.14 -1.448,1.36 -0.811,0.22 -1.931,0.11 -2.667,-0.81 1.541,-0.61 1.128,-3.04 2.894,-3.76 1.578,-0.64 2.198,-2.84 2.815,-4.47 0.699,-1.86 2.016,-3.42 2.937,-5.15 0.467,-0.88 1.592,-3.21 2.813,-1.95 0.292,-0.58 0.03,-1.1 -0.57,-1.3 0.971,-1.17 1.963,-2.69 3.301,-3.44 1.369,-0.77 1.621,-1.38 2.56,-2.4 0.947,-1.03 2.154,-1.19 3.326,-1.78 0.856,-0.44 2.469,-2.32 3.554,-1.81 0.248,-1.78 0.186,-3.2 0.138,-4.98 -0.06,-2.15 -0.265,-3.28 -0.995,-5.29 -0.517,-1.41 -0.842,-3.05 -2.421,-3.61 -0.912,-0.32 -2.64,-0.45 -2.842,0.85 -0.285,-0.27 -0.984,-0.1 -1.5,-0.42 -0.371,-0.24 -0.166,-1.22 -0.203,-1.85 -0.1,-1.7 0.445,-2.92 0.654,-4.66 0.142,-1.2 -0.139,-2.94 0.398,-4.04 0.56,-1.14 -1,-2.06 0.291,-3 -0.883,-0.6 -1.543,-1.67 -2.69,-1.81 -1.206,-0.14 -2.094,0.87 -3.14,1.23 -3.036,1.06 -3.69,-1.9 -4.25,-4.17 -0.333,-1.35 -1.298,-2.74 -1.546,-4.11 -0.873,-3.17 -1.798,-4.344 -2.877,-5.9 -1.21,-0.318 -2.393,-0.558 -3.403,-1.441 -1.087,-0.95 -1.078,-0.24 -2.054,1.341 -1.988,3.23 -1.691,-0.04 -2.643,-0.167 -1.37,-0.175 -3.014,-0.146 -4.243,-0.815 -0.654,-0.356 -3.257,-0.623 -3.457,-1.454 -0.204,-0.849 0.436,-1.645 0.642,-2.437 0.201,-0.775 -0.589,-1.929 -0.287,-2.706 0.531,-1.369 -0.03,-2.614 0.246,-3.935 0.215,-1.014 -1.598,-1.401 -0.634,-2.543 -1.175,-0.477 -1.622,-2.481 -2.224,-3.758 -1.315,-1.84 3.112,-1.909 1.242,-3.353 -2.262,-1.746 -1.395,-3.044 -0.326,-5.491 0.289,-0.661 1.235,-2.031 0.885,-2.662 -0.593,-1.069 -0.07,-1.86 0.204,-3.054 1.168,-3.205 0.371,-3.653 -0.696,-5.979 -0.977,-1.459 -0.894,-3.823 -1.813,-3.452 -1.586,0.64 -3.698,-1.417 -4.26,-3.144 -0.373,-1.146 -0.839,-2.518 -0.874,-3.729 -0.03,-1.21 0.868,-2.226 0.827,-3.496 -2.433,0.556 -4.995,0.368 -7.448,0.117 -1.557,-0.159 -5.1,0.313 -6.221,-0.937 -1.022,-1.141 -0.807,-3.494 -1.049,-4.913 -0.322,-1.886 -2.557,-2.993 -2.632,-4.707 0.622,-0.06 1.245,-0.09 1.87,-0.07 -0.421,-2.075 -1.092,-4.925 -1.8,-6.485 -0.394,-0.865 -0.441,-1.051 -0.385,-1.873 0.07,-1.058 0.119,-1.874 -0.759,-2.567 -2.177,-1.721 -4.504,-2.858 -5.68,-2.725 -3.949,0.448 -2.914,0.115 -4.128,0.105 -0.985,0 -2.28,-2.183 -2.747,-2.81 -0.511,-0.684 -0.875,-0.361 -1.552,-0.415 -0.61,-0.05 -1.945,-1.04 -2.49,-1.308 -0.382,-0.188 -0.934,-0.136 -1.434,-0.372 -1.168,-0.551 -1.195,-1.448 -1.685,-2.108 -0.636,-0.858 -0.774,-0.673 -1.64,-0.287 -1.019,0.455 -1.556,-0.712 -2.248,-1.166 -1.797,-1.183 -2.325,0.195 -4.149,-0.234 -2.09,-0.49 -2.294,-0.652 -3.431,-2.249 -0.536,-0.753 -2.46,-1.98 -3.343,-2.072 -0.866,-0.09 -0.552,-1.347 -1.07,-1.922 -0.377,-0.417 -1.235,-0.343 -1.229,-0.995 0.01,-1.42 -1.642,-2.693 -1.734,-4.211 -0.05,-0.861 0.591,-1.383 0.695,-2.259 0.09,-0.716 -0.941,-0.851 -1.088,-1.663 -0.127,-0.7 -0.203,-1.547 -0.22,-1.99 -0.03,-0.889 0.419,-1.609 0.563,-2.386 0.276,-1.487 0.377,-3.858 -0.998,-4.809 -0.334,0.314 -0.618,1.119 -1.171,1.075 -1.384,-0.111 -2.459,-0.171 -3.844,0.06 -1.516,0.256 -4.081,0.577 -5.065,1.702 -1.66,1.896 -1.906,3.144 -4.182,3.211 -0.52,0.01 -1.956,1.049 -2.082,1.841 -0.176,1.105 -1.392,0.649 -2.033,0.587 -1.016,-0.1 -1.819,0.809 -1.956,1.612 -0.183,1.069 -1.184,1.73 -2.352,2.032 -0.377,0.1 -2.134,1.014 -1.791,-0.362 0.09,-0.366 -1.063,-0.434 -1.896,-0.461 -2.199,-0.07 -5.358,-0.519 -7,-0.422 -1.039,0.06 -2.176,1.315 -3.305,0.967 -0.673,-0.207 -1.411,-1.321 -2.135,-0.685 -0.323,-2.637 -0.51,-5.559 -0.581,-8.06 -0.04,-1.281 0.15,-1.544 0.525,-2.631 0.02,-0.352 -0.09,-0.667 -0.32,-0.945 -0.372,-0.722 0.298,-1.037 0.456,-1.684 -1.66,0.164 -3.438,3.163 -4.792,4.241 -2.013,1.605 -5.363,0.939 -7.668,0.649 0.392,-1.246 -0.65,-3.176 -1.575,-3.971 -1.657,-1.423 -4.532,-0.48 -6.345,-1.428 2.109,-2.763 1.422,-3.544 -0.849,-5.875 -0.484,-0.497 -0.59,-0.845 -0.789,-1.479 -0.212,-0.674 -0.928,-0.973 -1.34,-1.496 -0.949,-1.202 -0.729,-2.716 -2.206,-3.681 1.475,-0.846 -1.331,-2.533 -1.718,-3.446"></path>
		<path id="path2886" d="m 1005.94,815.96 c 1.08,-2.827 -1.86,-0.525 0,0"></path>
		<path id="path2814" d="m 899.89,711.78 c 0.72,-0.143 1.353,-0.577 1.87,-1.08 -0.794,-0.115 -1.659,0.242 -1.87,1.08"></path>
		<path id="path2816" d="m 901.62,712.78 c 0.584,-0.653 1.517,-0.503 2.15,-1.08 -0.668,-1.095 -2.582,-0.07 -2.15,1.08"></path>
		<path id="path2846" d="m 914.72,680.24 c 0.167,-0.24 0.333,-0.48 0.5,-0.72 -0.801,-0.23 -0.968,0.01 -0.5,0.72"></path>
		<path id="path2848" d="m 915.37,682.32 c 1.108,-0.547 0.535,-1.509 0,-2.231 -1.084,0.502 -0.504,1.552 0,2.231"></path>
		<path id="path2818" d="m 903.85,711.34 c 1.971,-0.483 6.736,-5.188 5.597,-7.432 -1.163,-2.29 -3.39,0.793 -3.684,2.014 -0.215,0.896 0.174,1.854 -0.726,2.447 -0.975,0.641 -1.7,1.724 -1.187,2.971"></path>
		<path id="path2820" d="m 907.74,702.78 c 0.746,-0.499 2.766,-1.862 1.8,-2.96 -1.04,0.545 -1.453,1.933 -1.8,2.96"></path>
		<path id="path2822" d="m 907.81,709.11 c 1.071,-0.375 1.916,-1.916 1.22,-2.949 -0.01,1.16 -1.233,1.802 -1.22,2.949"></path>
		<path id="path2824" d="m 910.90,706.09 c -0.823,0.275 -1.43,1.022 -1.58,1.87 1,-0.242 1.23,-1.35 2.021,-1.87 -0.147,0 -0.294,0 -0.441,0"></path>
		<path id="path2826" d="m 909.82,703.28 c 0.323,-0.708 0.469,-1.507 1.3,-1.8 -1.119,-1.111 -1.579,1.022 -1.3,1.8"></path>
		<path id="path2828" d="m 909.68,706.88 c 0.651,-0.726 1.072,-1.661 1.857,-2.268 0.439,-0.34 0.689,-1.256 -0.189,-0.944 -0.955,0.34 -1.75,2.273 -1.668,3.212"></path>
		<path id="path2830" d="m 910.18,703.35 c 0.58,-0.174 1.042,-0.644 0.79,-1.29 -0.514,0.237 -0.865,0.702 -0.79,1.29"></path>
		<path id="path2832" d="m 911.77,701.05 c 0.53,-0.574 1.227,-0.948 1.754,-1.525 0.66,-0.725 -0.457,-0.99 -0.958,-0.761 -1.025,0.466 -3.012,1.847 -0.796,2.286"></path>
		<path id="path2834" d="m 910.83,703.57 c 0.611,-0.324 1.908,-0.783 1.44,-1.729 -0.933,0.07 -1.053,1.091 -1.44,1.729"></path>
		<path id="path2836" d="m 911.19,705.87 c 0.373,-0.217 0.636,-0.526 0.79,-0.93 -0.605,0 -0.932,0.315 -0.79,0.93"></path>
		<path id="path2838" d="m 911.41,698.53 c 0.02,0.144 0.05,0.287 0.07,0.431 0.565,-0.07 1.045,-0.311 1.44,-0.72 -0.537,-0.396 -1.131,-0.213 -1.51,0.289"></path>
		<path id="Brazil_Marajo" d="m 912.41,711.27 c 0.535,0.862 0.897,1.863 1.621,2.598 0.545,0.554 2.784,0.719 1.629,0.07 1.025,0.117 2.303,-0.49 3.253,-0.214 0.672,0.195 1.658,0.736 1.427,-0.506 0.152,0.272 0.319,0.536 0.5,0.79 0.708,-0.48 1.434,-1.163 1.44,-2.09 0.403,1.495 2.97,0.426 3.79,0 1.496,-0.778 1.452,-2.35 2.32,-3.636 0.836,-1.239 1.1,-2.479 1.384,-3.925 0.267,-1.357 1.849,-3.662 -0.523,-3.808 -1.855,-0.114 -4.198,-1.271 -5.96,-0.51 -0.777,0.336 0.08,0.667 -1.152,0.613 -1.085,-0.05 -1.972,-0.194 -3.029,-0.473 -1.931,-0.509 -4.451,-1.371 -5.728,0.788 -0.703,1.188 -0.763,3.076 0.838,3.533 -0.581,-0.125 -1.158,-0.269 -1.73,-0.431 -0.238,0.663 0.246,0.966 0.21,1.591 -0.04,0.72 -0.621,1.267 -0.237,2.036 0.419,0.84 1.621,-0.264 2.257,-0.1 -0.984,1.659 -0.773,0.469 -2.52,0.72 0.385,0.894 0.253,2.005 0.21,2.949"></path>
		<path id="path2842" d="m 914.00,698.53 c 0.961,0.712 0.946,-0.32 0.632,-0.952 -0.725,-1.457 -1.497,0.09 -0.632,0.952"></path>
		<path id="path2844" d="m 914.94,697.09 c 0.725,-1.075 1.273,-2.34 0.28,-3.46 -0.448,0.875 -1.303,3.173 -0.28,3.46"></path>
		<path id="path2850" d="m 917.74,698.53 c 0.698,1.412 2.07,-0.825 2.656,-1.428 1.53,-1.576 -1.203,-1.303 -2.048,-1.039 -0.834,0.26 -2.712,0.342 -2.998,1.386 -0.241,0.881 1.907,1.02 2.39,1.081"></path>
		<path id="path2852" d="m 916.37,695.58 c 0.404,-0.326 2.35,-1.811 1.615,-2.435 -1.174,-0.997 -2.501,1.528 -1.615,2.435"></path>
		<path id="path2854" d="m 916.45,696.58 c 0.454,-0.192 0.837,-0.479 1.15,-0.86 -0.607,-0.09 -1.014,0.302 -1.15,0.86"></path>
		<path id="path2856" d="m 916.45,692.12 c 0.718,-0.02 1.604,-0.226 1.51,-1.149 -0.763,-0.222 -1.77,0.197 -1.51,1.149"></path>
		<path id="path2858" d="m 918.17,690.53 c 0.456,-0.269 0.529,-0.625 0.22,-1.069 -0.435,0.275 -0.508,0.631 -0.22,1.069"></path>
		<path id="path2860" d="m 920.12,698.53 c -1.031,1.581 1.511,1.277 2.314,1.008 1.417,-0.475 -1.086,-2.228 -2.314,-1.008"></path>
		<path id="path2862" d="m 926.31,714.15 c 0.239,-0.625 0.382,-1.272 0.43,-1.939 -0.898,0.315 -1.375,1.316 -0.43,1.939"></path>
		<path id="path2864" d="m 930.13,708.61 c 1.948,1.908 0.423,-2.321 0,0"></path>
		<path id="path2866" d="m 935.89,704.50 c 0.76,0.347 0.03,-0.752 0,-0.79 0,0.263 0,0.527 0,0.79"></path>
		<path id="path2872" d="m 944.96,707.38 c 0.395,-0.108 0.588,-0.371 0.58,-0.79 -0.77,-0.166 -0.963,0.1 -0.58,0.79"></path>
		<path id="path2874" d="m 956.62,710.70 c 0.556,-0.202 0.864,-0.653 0.58,-1.229 -0.278,0.818 -0.471,0.985 -0.58,0.5 0,0.243 0,0.486 0,0.729"></path>
		<path id="path2876" d="m 958.35,713.00 c 0.263,-0.1 0.527,-0.193 0.79,-0.29 -0.688,-0.455 -0.952,-0.358 -0.79,0.29"></path>
		<path id="path2878" d="m 959.94,725.10 c 0.469,-0.945 0.824,-1.887 0.79,-2.96 -1.143,0.486 -0.744,2.009 -0.79,2.96"></path>
		<path id="path2882" d="m 966.63,718.90 c 0.217,-0.24 0.433,-0.48 0.65,-0.72 -0.767,-0.07 -0.984,0.169 -0.65,0.72"></path>
		<path id="path2868" d="m 942.08,926.55 c 0.218,0.22 0.435,0.43 0.65,0.65 0.252,-0.7 0.528,-1.45 -0.07,-2.09 -0.407,0.4 -0.6,0.88 -0.58,1.44"></path>
		<path id="path2870" d="m 944.53,939.30 c 0.651,-0.9 1.231,-2.7 0.43,-3.68 -1.052,0.63 -0.539,2.73 -0.43,3.68"></path>
		<path id="path2880" d="m 965.26,905.96 c 0.104,-0.66 -0.446,-1.11 -0.14,-1.8 -0.915,-0.19 -1.224,0.75 -1.37,1.44 0.547,-0.1 1.05,0.1 1.51,0.36"></path>
		<path id="path2884" d="m 971.53,899.48 c 0.591,-0.1 1.108,-0.45 1.44,-0.94 -0.696,-0.49 -1.781,0 -1.44,0.94"></path>
		<path id="path2888" d="m 1006.95,812.22 c 0.55,-0.523 1.89,-1.392 0.79,-2.16 0.18,0.886 -0.84,1.308 -0.79,2.16"></path>
	</g></svg>
