<svg xmlns="http://www.w3.org/2000/svg" viewBox="1957.56 446.23 28.97 28.97"><path id="bt" d="m 1959.56,463.719 c 0,-0.587 0.11,-0.719 0.47,-1.027 0.55,-0.463 0.22,-1.425 0.81,-1.859 1.28,-0.934 1.78,-3.116 2.67,-4.409 0.98,-1.416 2.34,-2.746 4.19,-2.713 0.45,0 1.94,0.203 2.13,0.726 0.16,0.475 -0.28,1.147 0.37,1.354 1.12,0.358 2.45,0.225 3.62,0.225 0.7,0 1.08,1.134 1.85,0.445 0.63,-0.559 0.79,-0.812 1.7,-0.537 1.18,0.361 2.66,0.665 2.64,2.086 0,1.598 0,3.218 2.14,3.094 2.08,-0.119 1.7,1.684 1.56,2.867 0,0.488 1.24,1.819 0.68,2.094 -1.33,0.651 -2.61,0.783 -3.93,0.285 -0.55,-0.206 -1.77,0.53 -2.42,0.57 -0.98,0.06 -2.01,0.08 -2.99,0.05 -1.5,-0.04 -2.62,-1.408 -4,-0.594 -1.06,0.633 -2.58,1.705 -3.93,1.209 -1.17,-0.428 -1.81,-1.395 -3.25,-1.277 -2.54,0.208 -3.33,-1.179 -4.31,-2.592" fill="#2B1D24">
		
	</path></svg>
