<svg xmlns="http://www.w3.org/2000/svg" viewBox="1440.6 845.86 91.76 91.76"><path id="bw" d="m 1451.33,912.799 0.85,-23.98 6.82,0 0.96,-31.844 c 2.41,-0.584 8.55,-0.945 12.05,-2.156 1.09,-0.377 3.76,-0.943 4.85,-0.317 1.48,0.847 1.76,2.61 2.48,3.998 1.92,-1.517 3.43,-4.623 5.7,-4.676 0.85,-0.02 0.76,0.477 1.38,0.563 0.81,0.111 1.28,-0.992 1.88,-1.351 1.95,-1.162 3.98,-0.998 3.64,-0.294 -0.1,0.199 0,1.309 0.1,1.546 0.52,1.312 1.25,2.564 2.11,3.681 0.84,1.094 1.52,1.681 2.14,3.565 0.45,1.346 0.62,1.631 1.01,2.909 0.81,2.683 2.76,4.976 5.2,6.233 2.59,1.331 4.95,1.058 4.07,5.172 2.36,-0.551 4.2,-0.275 3.18,2.857 -0.35,1.078 -0.23,1.897 0.39,2.835 0.67,1.018 1.14,3.442 2.22,3.776 2.15,0.67 4.02,0.558 6.33,1.344 1.71,0.583 0.23,1.388 0.76,2.266 0.4,0.678 1.93,0.463 2.17,1.435 -2.69,0.333 -2.26,0.904 -3.26,2.294 -1.11,1.553 -4.14,0.78 -5.46,2.196 -1.18,1.276 -2.17,3.412 -3.77,4.67 -0.18,0.14 -0.8,0.716 -1.45,1.173 -1.08,0.76 -2.27,1.038 -3.1,1.97 -1.09,1.243 -1.31,1.607 -1.5,3.475 -0.23,2.294 -1.57,2.815 -3.2,4.754 -0.95,1.139 -2.53,1.455 -4.13,1.716 -1.16,0.188 -0.47,0.635 -0.7,1.755 -0.29,1.473 -1,2.808 -1.48,4.22 -0.71,2.096 -1.82,2.827 -3.97,2.641 -1.94,-0.168 -1.71,1.227 -4.21,0.678 -1,-0.218 -3.37,-1.329 -4.22,-1.386 -1.24,-0.08 -2.05,-0.855 -2.76,-1.749 -1.07,-1.33 -3.96,-2.304 -5.46,-0.373 -1.37,1.766 -0.76,3.736 -2.03,5.551 -0.62,0.896 -1.51,1.511 -2.35,2.089 -1.04,0.713 -1.34,1.864 -2.23,2.69 -0.66,0.616 -1.22,0.349 -1.96,0.649 -0.24,0.21 -0.27,0.454 -0.21,0.803 -0.29,0.797 -1.49,1.018 -2.19,0.973 -1.11,-0.07 -1.73,-0.348 -2.8,-0.432 -0.97,-0.08 -1.84,-0.458 -3.08,0.572 -1.81,-3.457 1.97,-5.022 0.65,-9.72 -0.5,-1.782 -1.21,-3.76 -2.13,-5.37 -0.8,-1.406 -2.36,-2.106 -3.28,-3.41" fill="#2B1D24">
		
	</path></svg>
