<svg xmlns="http://www.w3.org/2000/svg" viewBox="1440.6 845.9 91.8 91.8"><path fill="#2b1d24" d="m1451.3 912.8.9-24h6.8l1-31.8c2.4-.6 8.5-1 12-2.2 1.1-.4 3.8-1 4.9-.3 1.4.8 1.7 2.6 2.4 4 2-1.5 3.5-4.6 5.7-4.7.9 0 .8.5 1.4.6.8.1 1.3-1 1.9-1.4 2-1.1 4-1 3.6-.3l.1 1.6q.9 2 2.1 3.7c.9 1 1.6 1.7 2.2 3.5l1 3c.8 2.6 2.8 5 5.2 6.2 2.6 1.3 5 1 4 5.1 2.4-.5 4.3-.2 3.2 3a3 3 0 0 0 .4 2.7c.7 1 1.2 3.5 2.3 3.8 2.1.7 4 .6 6.3 1.4 1.7.5.2 1.3.8 2.2.4.7 1.9.5 2.1 1.5-2.7.3-2.2.9-3.2 2.3-1.1 1.5-4.2.7-5.5 2.2-1.2 1.2-2.2 3.4-3.8 4.6l-1.4 1.2c-1.1.8-2.3 1-3.1 2-1.1 1.2-1.3 1.6-1.5 3.4-.2 2.3-1.6 2.9-3.2 4.8-1 1.1-2.5 1.4-4.1 1.7-1.2.2-.5.6-.7 1.8q-.6 2.1-1.5 4.2-.9 3-4 2.6c-2-.1-1.7 1.3-4.2.7-1-.2-3.4-1.3-4.2-1.4q-1.8-.2-2.8-1.7c-1-1.4-4-2.3-5.5-.4-1.3 1.8-.7 3.7-2 5.5q-1 1.4-2.3 2.1c-1 .7-1.4 1.9-2.3 2.7-.6.6-1.2.4-2 .7q-.3.3-.1.8c-.3.8-1.5 1-2.2 1l-2.8-.5c-1 0-1.9-.4-3.1.6-1.8-3.5 2-5 .7-9.7q-.8-2.8-2.2-5.4c-.8-1.4-2.3-2.1-3.3-3.4"/></svg>
