<svg xmlns="http://www.w3.org/2000/svg" viewBox="1458.26 201.66 70.71 70.71"><path id="by" d="m 1463.14,248.643 c 0.47,-1.238 1.13,-2.41 2.58,-2.674 1.43,-0.261 1.86,-1.353 1.71,-2.682 -0.37,-3.119 -3.07,-5.294 -3.57,-8.369 1.63,0.417 3.74,0.118 5.44,0.313 0.52,0.06 1.3,-0.337 1.8,-0.462 1,-0.252 0.75,-0.714 1.47,-1.326 0.45,-0.378 1.01,-0.02 1.48,-0.245 0.38,-0.178 0.56,-0.595 0.95,-0.778 0.75,-0.35 2.3,-0.451 1.82,0.842 0.42,0.137 1.09,0.09 1.36,-0.327 0.58,-0.9 -1.04,-1.208 -1.5,-1.4 1.64,-1.784 0.36,-3.687 2.66,-4.896 1.07,-0.562 1.18,-1.709 2.59,-1.583 1.54,0.137 0.79,-0.658 1.95,-1.226 -1.61,-0.428 -3.25,-1.128 -1.59,-3.049 1.06,-1.226 3.4,-1.586 4.87,-1.142 1.79,0.535 1.84,-1.871 3.47,-2.471 0.87,-0.319 2.2,0.587 2.63,0.236 1.63,-0.145 6.16,0.06 6.54,1.19 0.37,0.344 -0.24,1.085 0.19,1.503 0.58,0.563 2.59,-0.215 3.2,-0.507 2.14,-1.027 2.96,-0.45 4.88,0.909 0.52,0.369 1.9,0.516 1.86,1.615 0,1.323 -0.1,1.608 0.59,2.803 0.43,0.787 0.63,1.051 -0.15,1.619 -1.07,0.771 0.66,1.906 1.3,2.524 1.38,1.325 1.82,3.439 3.98,4.188 0.63,0.215 1.65,0.415 1.92,1.118 0.36,0.907 -0.69,1.808 0.22,1.809 0.38,-0.05 0.87,-0.04 1.22,-0.175 0.5,-0.102 1.09,0.207 1.59,0.269 1.67,0.211 0.64,0.591 1.32,1.365 0.35,0.403 1.39,0.658 1.86,1.292 0.98,1.315 -0.56,1.428 -1,1.722 -0.8,0.526 -1.05,0.873 -2.28,1.173 -1.53,0.373 -2.4,-1.005 -3.74,-0.725 -3.34,0.697 -1.22,1.989 -0.1,2.875 0.74,0.563 0.59,1.729 0.79,2.54 0.33,1.329 1.33,2.43 2.04,3.577 -1.61,0 -0.94,-0.403 -3.78,0.496 -1.18,-0.682 -3.17,0.51 -3.81,2.573 -0.28,0.912 0.27,1.592 0.42,3.021 0.16,1.605 -1.84,0.224 -2.24,-0.265 -1.17,-1.418 -2.38,0.238 -3.81,-0.571 -3.31,1.805 -2.41,-0.475 -3.95,-0.965 -0.92,-0.481 -2.43,0.433 -2.29,1.495 -0.55,-0.248 -0.57,-1.084 -1.08,-1.295 -0.53,-0.22 -1.19,0.396 -1.65,0.06 -0.64,-0.465 -1.28,-0.428 -2.02,-0.345 -1,0.112 -1.46,-0.563 -1.59,0.638 -0.62,-0.158 -1.07,-0.726 -1.71,-0.792 -0.72,-0.07 -1.53,0.56 -2.11,-0.236 -1.22,-1.69 -3.07,-1.016 -4.79,-1.376 -1.77,-0.369 -3.81,-1.242 -5.61,-0.921 -2.39,0.08 -4.32,0.199 -6.34,0.229 -2.17,0 -2.09,0.931 -3.56,2.125 -0.79,0.632 -1.5,0.122 -2.34,-0.04 -1.12,-0.219 -0.91,0.46 -1.16,1.106 -0.76,1.147 0.1,-3.38 0.1,-3.705 0.1,-2.465 -2.7,-1.048 -3.01,-2.705" fill="#2B1D24">
		
	</path></svg>
