<svg xmlns="http://www.w3.org/2000/svg" viewBox="404.9 -166.2 694.7 694.7"><g fill="#2b1d24"><path d="M814.5 95.7q-1.5.2-2.3.7 1.5.8 3.1.2-1.4.5-2.9.5l-2 .8c-1.3.5-3 .1-4.1 1q1 .6 2.3.4c-.9.1-1.8 1.6-2.6 1.5s-.8-1-2-.8a7 7 0 0 0-3.6 1.8c-.8.7-3 1.5-3.1 2.7 0 1.4 2.2.6 3 .4l-1.6.6.8.5q-2.9-.2-5.2 1.6c-.8.6-2.6 2.4-.6 2.6l-.7.8q.8.8 2 .6c.6 0 .8.7 1.3.9 1.1.3 2.4 1 3.3-.1.5.6.7 1.5 1.6 1.7 1.3.2 2.3-.6 3.6-.6q0 1-1 1h1.2q-1.9.9-3.7 1.5c.5-1 1.9-1.4 2.8-1.7-1.3-.2-4.4 0-5.2 1.4l.8.5c-1 .2-2.2 1.2-3.3 1.2-.4 0-2.3 1.2-2 1.5 1.4.9 3.8-.3 5-.8l-1.5.4c.3-.4 2.2-2.1 2.7-1.3.8 1.2-1.8 2.2-2.4 2.7q.7.4 1.5.1c-2.7.5-5 1.8-7.4 3-2.5 1-4.3 1.2-6.9 1.4-.7 0-4 1.6-4 2.4-.1 1 .8.9 0 1.7q-.9.7-.3 1.5c-1.9.3-2.3 2.6-4.2 2.7l-1.5-.2q-1.5-.2-1.8.4.1 1 1.1 1.1-.8.8-1.9 1.2c1.7-.8 0-2.3-.5-3.3.9-.7 1.5.7 2.4.1q0 .5.7.5h1.8c1-.3 1.3-1 1.8-1.8a3 3 0 0 0-2.3.2q1.1-.7 2.4-1.1c-1.1-1-2.8.5-3.9.6 0-1 1.1-1 1.7-1.5q-.8.1-1.5-.5c1.4-1 2.3-1.2 3.6-2.3 1.3-1.3 2.8-2.9 4.5-3.5q-2 .3-3.8 1-1 .8-2.2.9c.9-1 2.2-1.1 3-2-1.2.2-2.3.7-3.6.2 1.5-.1.2-1.2-.5-1.6l-2-.5c-.9 0-1.4 1.5-2.4 1.6-1.1.2-2.3-.2-3.3-.4-.2 1 1 1.6-.1 2.3.4-1.6-1-.5-.7.3 0 .4.4 1 .3 1.5 1-.8 3.3-1.7 4.4-1 1.5 1 0 1.4.4 2-1.8 0-4.3 1.5-5-1-.9-2.8-3.1-1.2-1.5.3-1.6 0-3.2 1-4.6.7-1.2-.3-2.4-.9-3.7-1-3-.4-5.7.6-8.7.7-1.3 0-3.5-.4-4.7 0-1 .3-1.3-.5-2.2-.5-.8-.1-3-1.4-2-2.2.1 0-9.3 1.1-6-1q-.7-.2-1.5 0l.7-.6c-1.6 0-1.6.4-3-.7.9-.8 1.2 0 1.6-1.4.2-.8.9-1.5-.1-2-1.7-1-4.6 0-6.3.4-5 1.4-10.1 1-14.6 4q.7.3 1.5 0-.9 1.2.4.3c-2 1 1 .6 1.5.5.8 0 1.5-.3 2.3 0l-.7-.8c1.3-1.3 2.6.5 4 0 .7-.3 1.7-.8 2.5-.7.4 0 1.4.5 1.7 0 1-1.8 5.1-1.4 7-2-1.5.7-1.9 1.7-3.7 1.8a10 10 0 0 0-4.7 1.2c-1.3 1-2.7.5-4.1 1l-4.4.8c1.8-.5.2-.5 0-.2q-.6.8.5.6c-1 .7-2.8.2-3.4 1.6-.4 1 .6 1.3-.5 2.4-.8.8.2 1.8-.4 2.2s-.4 1-.7 1.7c-.8-1.9-2 1.7-2.5-.3a2 2 0 0 0 1.5-.8c-.4.2-1.3 0-1.6.3-.3.4-.7 1.3-1.2 1.4-1 .3-.2 2.5 0 3.2-1-.4-1-2-1-2.9l-.7.6c.5-.7-.2-1-.8-1.3q1 0 1.3-.9c-.7 0-2-.4-1.2-1.3.8.9 3 1.2 3.8.2 1-1.2-.3-3-1.6-1.8l1-1.4c-1-.7-2.2 1-3 1.4-.6-1 1.2-1.7 1.3-2.7q-1.5-.3-3 .2c.2-.7-.3-1.7-1-1.2a2 2 0 0 0 .8-1c-.7-.3-3 .5-3.7.7q-2.3.3-4.5 1c1.9-1.2-1.7.1-2.3.2-1 0-1.4-.2-2.2.3-.3.2-1.9-.4-2.4-.3l-3.1.4a31 31 0 0 1-7-.2c-2-.3-4.4-1.5-6.4-1.3.8-.6 2-.3 3-.8 1.1-.8.6-1 2.2-1.2 1.5 0 2.5-1 4.2-.8q1.6.4 3-.9c1-1-1-3.1-2-3.3-1.3-.2-2.5-1.6-3.8-1.1-1 .3-1.8 0-2.7.2l.4.7c-1 .8-4.7-.2-5.7-.4-1.5-.3-3.3-.4-4.5-1.2a9 9 0 0 0-4.9-1.7 7 7 0 0 1-4.1-1.6 8 8 0 0 0-5.3-1.8c-2 0-3.7-.7-5.7-.1s-3.6 2-5.4 2.6q-3 1.2-6.3.5c1-1.3 3-1.8 4.6-2.1q-.7-.4-1.6-.4 1.1-1.7 2.8-2.4c-1.6.7-3.6-1-5 .8 1.5-.7 2.3-.3 3.5-.5-1.3.5-4.4.6-5.3 1.8q.9-.2 1.6.3c-1-.5-3 0-3.8.8 2 .4-2.2 1-2.6 1.3q1.2-.5 2.3 0c-1.7.5-4 1-5-.7-1.1-1.7.6-2.6 1-4 .4-1.2 0-2.9-1.3-3.4-1-.4-3.5 1.3-1.8 1.3l-.7.6 1.5.3c-1.5.4-3.1.1-4.6.8l-3 1.5c-1 .5-4.3 2.3-5.3 1.3.8-1.1 2.2-.8 3.1-1.7-3.2 1.5-7 1-10.3 2.2-2.8.9-5.4 3.2-8.3 3.7.3-.2 3.4-2 1.5-1.3q.8-.3 1.5-1l-1.5.8c.8-.3 1.4-1.6 2.1-1.7q.8 0 1.5-.2 2.2-1 4.6-1.3c2.4-.5 6-.5 7.7-2.5-1.3.1-.6-.5 0-.9-1.1.6-2.5 1.3-3.7 1.2-.6 0-3.3 0-1.6-.5l-4.6 1.3c-.9.4-2.6 1.8-2.4.3q-2.1 1.2-4.5 1.6l-2.1.3-1-.2c-1 .2-2.5.5-.8.6-1.4.2-2.5-.4-3.9.4q-1.3 1-3 1.4l-7.1 1.3q-1.9.3-3.6 1.3c-.8.5-.6 1.5-1 2.2-.9 1.8-1.5-.5-1.4-1.3-1.4.1-3.4-.6-4.6.4 1.7 0-.4.4.3 1.4-1 .2-1.8-.9-2.6-1.3-1.4-.7-3-.1-4.5-.3-1-.1-5.8-1.3-5.2-3-.9 1-1.8-.3-2-1.2 0-.6-2-.8-2.3-.8-1.9-.4-4.7-.6-6.6-.5l-85.8 71.1c2 1 3-.2 4.7.7 2.3-.3 4.5-1.7 7-1-.9.5-2.2 1-2.8 2s1 1 .9 2c-.1 1.4.6 2.7 1 4s-.6 2.3-1.2 3.2l4.5-1.3 3.7-1.1c1.2-.6 1.7-1.8 3.2-2 1.2 0 .8-1 1.7-1.2 1-.2 1.8 0 3.6-.7.6-.3 1.7-.9 2.4-.4 2 1.4-.5 2-.7 3.3 0 .8 1.7 1.2 1.3 2.1-.4.8-.9 1.4-.3 2 .6.8 1.3 2 .7 3.5-.2.3-.6 2.8-.7 3.3q-.4 1.8-.5 3.7 0 1.4-.9 2.5c-.5.5-1.2 1.2 0 1.6-1.3.6-1.3 2.2-1.6 3.4 1-.2 4.5 1.6 4.6 2.5s.8.5.8 1c0 .7 1.2.6 1.5.6-.8 2-3 2.2-4.2 4.5q-.7 1.5-2 2.5c-.7.5-1.7.6-1.7 1.7l1.2-.9-.9 1h2.2c-1.4.7-2.7.3-4.2 1.4-.8.6-2.1 1.7-.3 1.8-1 .2-1.5-1-2.6-.4-.8.4.2 1.9 1.1 1.2q-1.2.6-1.5 1.7c-.3-.8 0-1.8-.4-2.6-.6.5-2.9 2.6-1.1 2.4l-1 1q1 .6 2.9.2-1.3.1-1.2 1.8c0-1.7-1.3-1.5-2-.3-.8 1.3-.1 4 .7 5.2 1.2-.9 2-2.1 3.4-2.8.7-.3 1.8-.6 2.2-1.4-.9 1.6 2.3-.5 2.8-1-.1.9-1.6 1 0 1.4-1.2-.5-4.4 1.2-3.5 2.8.3.6 2 .1 2.8.4-1 0-2 0-2.8.8-.2-.4-.8-1.7-1.3-1.7s-.4.7-.5.9c-.5.5-1.4 3-.2 1.8 1 1.2-1.5 1.6-1.3 2.8.2 1.5 1.9.2 2.6 0-1.2.7-2 1.9-3.1 2.6l-3 2.4q1.7 0 3-1.2l-.2.8q.5 0 .8-.4-.6.8-.7 1.4c1.5-1 4-1.5 6.1-2.4q-.4.8 0 1.2c0 .2.7.1 1.2 0-1.3.5-.2 1.6-1 2.6-.1-.8.1-2.2-.9-2.2q-1 0-1.7.6c-.4.3-2.3 1-2.6 1.1q-1 .4-1.6 1.2c-.5.4-1.3.2-1.8.7-1 .8-2 2.2-1.9 3.5l1.4-.5c1-.8 1.6-2 3.2-2.3q-.9.2-1.2 1c1.6-1 4.6 1.3 5.7-1-.3 1.8-3 1.1-4.2 1a6 6 0 0 0-3.5 1.3l-2.2 1.6c1.3-.2 2.5.1 3.8-.1-.3.1-6.6.7-4.9 1.8l.6.3c-2.7 1.4 4.1 2 1.3 1.3 2 .5 3.9.7 5.2-1q-.4 1 0 1-.9-.1-1.3.8c.4-.1 1.8-.7 2.2-.3.7.8-1 1.3-1.3 1.6 2.8-.5 4.7-.8 6.6-3.2-.8 3-5 3.4-7.3 3.5.3.6 1.2.1 1.7.2-.8.2-1.7.2-2.2 1 .9-.1 3.2-.6 3.2.5.8-.7 1.8-2.2 3-2-1 0-1.4 1-1.9 1.8 1-.2 1.8.6 2.7 0l2-1.3c.9-.5 1-1 1.5-1.7l1.3-1c.2.4-2.2 3-2.9 3.2l-1.4.8-.6 1 .7-.6c-1 1.4 1 .6 1.4.3q1.3-.7 2.8-.7c-.5.1-3.3.5-3 1.4.1.6-1.6 2.5-2.2 2.6s.5 1.6 1 1.7q1 .1 2-.3c.7-.3 1.4-1.7 1.3-.1 0-.6.3-1.5 1-1.7s1.7-.7.9-1.5c2 .5-1 1.5-1.1 2.2-.2.9-1.4 1.4-.6 2.3q.2.3.8.1-1.3.3-2 1.3c.9-2.2-1.3-1.4-.9-.3s1.8 1.5 2.6.7c.9-1 2.2-1.1 3.3-1.8-1.6 1.2-2.4 3.7-.6 3-1.1.3-2.5.5-2.3 1.7l.8-.3q-.9.4-1.3 1.2c.7 0 1.8-.5 2.4.7l185.3-.2.3-3.9c.7-.6 2.1.5 1.9 1.8-.3 1-1.1 2.4-1 3.5s5.2.4 4.5 2c1.7.5 3-.9 4.5-1 1.2 0 2.3.8 3.4 1q-.4 1 .6 1c-.4.6.1 2 .6 1.3q.5-1 1.5-.3.8.8 1.8 1-.3.6.3 1c2 .6 4-1.4 6-1.4-.8 1.4 1.6 1.2 2.2 1.1 1.7-.1 2.6.9 4.2.8 3.7-.2 5-4.8 8.6-4.5l-2 1.9c2.2-.5 2.8-2.8 4.6-4 1.3-.8 1.6.5.5 1.2-.8.4-1.8.9-2 1.8.7-.3 1-1 1.9-1.2q1.3-.2 2.2-1.3c.5-1-.2-2.6 1.6-2.3.8.2 3.3 1.2 3.8 1.8.4.3 1.4 0 1.8 0q1 0 1.9.3c1.7.2 3-.3 2.8 2.2-.1 1.2-1 3 0 4.1 1.6 1.6 4.7 0 6.6.3-.5 1-2.9 2.7-1.9 3.8s1.5 1.4.5 2.6c-.3.4-2.1 1.5-1.3 2 .4.2 1.7.4 1.6 1-1.2-.1-2.4 2.1-1 .9-.3.8-1.2 1-1.5 2 .8.1 4.4-.4 2.3 1.2 1 .7 2.3.3 3.4.8a9 9 0 0 0 4 .8c1.6 0 3.3-.3 5 .1.8.2 3.3 0 2.2 1.2l1.6-.7-.9.6c1.8-.3.3.6-.2.8 1.2-.7 2.6.4 3.7-.6-1 1.3.7.4 1.5.7q.9.1 1 1c0 .6-.3 2.4 1 1.7 0 .5-.8 2 .1 2.3q.8 0 1.3-.5c.3.7-.8 1-.6 1.4q.6 1-.5 1c.4.8 1.1 1.5 1.1 2.5l.8-.4c-.7 1.7-2.5-.6-2.9.6s0 2.4-1.5 2.7c-2 .4-3-3-5-1l.9-1.6q-.9-.3-1.6.2.9-.4 1.2-1.3c-1.6.5-.9-1.2-1-1.8-.3-.9-1.7-1-2.5-1.1 2.2 2.2.8 5.4-1.3 7a14 14 0 0 0-4.7 6.3c-1.2 3.2-3.2 4.5-6.4 5.6-2 .7-2.2 4-4.2 4.2 2.9 2.5-1.3 1.7-3 1.9-1.1.1-2.6 2-1.1 2.7 1 .5 2.2-.7 2.9.5 1-1.4 3-2.4 4.7-2.6 1.6-.2 2.7-1.6 4-2.4 3.3-2 7.1.4 10.6-.1l-2.3-.4q2.6-2 5.9-2.2c1.8-.3 3.7.4 5.5-.4-1.2-1 0-2 .3-3.2-1.2.2-6.5 1.5-3.8-1q2.6-2.7 6.1-3.8c3-.8 6-.9 8.9-1.4.7-.2 4.4.2 4 1.3l2.2-.6c-1.8 0 .3-1.2.7-1.5l-1.5.5c.5-1.4-2.8-.6-3.3-.5q1.3-.5 2.6-.7c.5-.1 3-.3 1.1.6 1.1.1 2-.7 3-1q1.5-.1 2.8-.6c1.9-1 3.7-1.6 5.5-2.8 1.8-1 5.7-2.8 7.8-3.3l21.3.2c1.7 0 .9.2 1.9-1.5.8-1.3 2.2-.8 3.4-1.5l.3.7c.2 0 1-.6 1-.8 0-.8.5 0 .8-.5.7-1 1-1.6 2-2.2 1.8-1 2.4-2 3.3-3.8.5-1.2 1.6-1.5 2.5-2.4 1.1-1 1.8-2.7 3-3.8l3.4-3c.4-.2 3-2.8 3.4-2 .3.5 0 1.3.5 1.9 1 1.1 4.3-1.6 5.7-.6 2.9 1.9.1 5.8-.8 8.3-.5 1.3-2.8 4.5-1.2 5.6.8.5 1.4.4.8 1.3-.5.7-1.2 2.1-.3 3 .7-.5 1.7-1.2 1.6.1 1.2-.8.8.5 1.7.7 1 .2 1.8-1.1 2.7-.6.5.3 1.4-.7 2-.8q1.3-.1.4-1 .9-.4 1.8-1.1l-1.1 1.5c1.2 1.6 4.7-.9 6-1.5 1-.6 3.1-.7 4-1.4 1.4-1.4 1.6-1.6 1.8-3.5q.1 1.2.7 2.4a2 2 0 0 1 1.5-.6c-1.6.7-2.9 1.9-4.4 2.7-.3.2-1.1.5-1.3.9-.2.7.4 1.1 1 .6 1-1 3-.6 4.3-.5 1.7.1 3.4-.1 5.1.3-1.5 1-7 0-6.2 3.1-.6 0-.2-1.8-1.4-.9q.5-.7.2-1.5c-3.3 2-8 1.8-10.5 5l1.5-.5c-.9.4-2.1 1.9-2.4.5-1.3.9-2.7 1.4-3.7 2.6 1-.6 1.8-1.8 3-1.6-1.7 1.3-6 4.9-3.9 7.5l1.1-1c.2.3.2 2 .5 2.2.7.3 1.4-.3 1.6.7.2-1 1.5-1 1.5-2.3l.7.4.4-.8c.4 2 2.7-.8 3.3-1.3 1-.8 4-2 4-3.3l.7.3c.1-1 2-3.4 1.8-1.5.8-.1.6-.4.6-.9-.1-.6 1-.8 1.5-1-1.6 1.4 3 3.3 2 0 .7 1.6 3-.1 4.2-.2 1.9 0 4-1 5.7-1.9a20 20 0 0 1 5.8-2c1-.1 3.5 0 3.8-1.4-.8-.3-1.7.3-2.3-.6 1.7 0 1.2-2.3 0-2.3-.6 0-1 1-1.7.4q-.6-1-.9-2a10 10 0 0 1-6 2q.5-.6 1.2-.7c-1-.7-2.2-.4-3.3-.4-.8 0-1.3-.7-2-.8-1.6-.3-2.4-.2-3.7-1.6.8-.1 1.7-.1 2.3-.8q-1.8-.6-3.8-.8c-1.7-.1-.2-1.2-1.6-.9 1.5-.6.2-3.7.6-5 0-.3 1.3-1.4 0-1.4-1 0-1.8.4-2.9 0 3.2-1 4.2-3.7 6.8-5.5-1.3.6-.4-.5-1.4-.7q-1 0-1.7.2a13 13 0 0 0-3.7 1.5c0-2.3-.4-2.2-2.5-3q-1-.6-2-.5c-.9.1-1.5.6-2.3.3 1.3-.1 2.2-1 3.5-1 1 0 2.2-.4 3-.3 1.7.2 3 1.9 4.8 1 2.4-1.2 4.4-2.4 7-3.3.7-.3 1.6-1.3 1.3-2.1q-.3-.7-1-.8c1.2-.3-1.2-.7.5-.5q.8 0 1.4.3c.9-2.1-4-3.6-5.3-3.8q-3.5-.3-7 .4-3.5.8-6.9 2.3c-2.3.8-4.6.8-6.9 1.8-4.8 2-10.5 4.7-14.4 8.2q-3.2 3-6.8 5.3c-2.4 1.5-5 2.2-7.7 3.1l4.5-2.7c1.2-.9 2.5-2.7 3.8-3.2a15 15 0 0 0 7-5.7q-.4-.1-.7-.5l.7.4c.9.1 2-1 2.7-1.4 2-1.4 3.3-3.5 5.6-4.5 1.1-.5 4.1-1.6 4.2-3q.4.6-.3 1.1.8-.4 1.5-.4c-1-1.3 3.2-1.6 4.2-1.7q2.3 0 3.6-1.7c1.3-1.6 5-6.4 7.6-5.1-.9-1.7 1.7-.5 2.3-.7q2.5-.8 5.1-.8c2.8-.3 6.3 1 9 .2 1.7-.5 3 1 4.6.4q2.2-.7 4.5-.5t4.6.5c.6 0 .6.8 1.1.8l1.2-.4-1.3.7c2.5-.3 4.4-1 7-1 1 .1 1.8-.3 2.8-.1q1.2.2 2.2-.1c1-.4 1.3-1.4 2.2-1.6.5-.2 1.2-.1 1.5-.6 1.2-1.4 3.2-1.8 4.6-3-.2 1.4.4.5.7 0 .4-1.2-.2-.9 1-1.3q1.1-.4 2.1-1c.5-.4-.3-.7 0-.9 1-.8 2.7 0 4-.3s2.6-1.2 4-1.5 2.7.6 4.1.2c1.5-.5 2.7-1.7 4.1-2.3q2.3-.9 4.4-2.2.7-.9 1.8-1-.4-.8.2-1.5-1.2-.4-2.2-1.2c1 .4 2 .2 3 .6.4-1.7-3.7-1.6-4.6-1.9 1 0 3.2.7 3-.5.7.2 1.6.9 1.8-.3-.7 0-1.6 0-1.7-.9 2.2.1 2.7-1.1.5-2 1.1 0 2.4 0 3-1.1.4-.8.1-2-1-1.7.4-1-1.3-1.6.3-1.8-1.1.2-2.7 0-3.6-.8q.9.4 1.3-.7c-1 .9-2.2 0-3.1.5-1 .6-1.6 1.8-2.8 1.8.6-1-.3-.9-1-.9 1.1-.7 2.5-1 3.7-1.8-1-.6-.4-2.4-1.2-2.8-.6-.3-1.4 0-2-.2-1-.2-3.9-1-4 .6q1.5-.2 3 .1c-1 .4-2 .2-3 .4q-1.6.3-3.1 1c-1.2.3-2.8 2.1-3.9 2-.9 0-1.6.7-2.4 1s-2 0-2.7.9-3 2-4.2 1.6l1.5-.4c-2-.2.9-1.2 1.4-1.1-.3-1-1.5-1.5-2.4-1.8-1-.2-2.3-.1-1.4-1.4.2.5 3 2.3 3.5 2.1 1.5-.3 2-2 4-2 2.8.2 7.6-1.5 9.8-3.2-.9.2-8 2.6-8.2 1.3 2.9.5 5.6-1 8.3-1.5 1-.2 1.9-1 3-1.2 1.3-.2 2.6.1 3.8-.7H943c1-.3 2.1.2 2.6-1-.7-.8-2-.4-2.8-1-.5-.4-2.7-.7-3.4-.7-.9 0-2.4-1.2-3.1-1 1.4 0 0-.8.8-1.7-1 0-1.9 1-3 1q1.4-.5 2.2-1.7c-2.3-.1-4.3 4-6.5 3.7 1-.5 1.7-1.5 2.8-2 .7-.2 2-.7 1.6-1.8-.7.6-2.2 1.3-3 .5.8.2 1.7-.4 1.4-1.3l-4.2 2.5c.6-.7 1.6-1 2-1.9-1.5-.4-3.4 1.3-4.6 2q1.3-1.3 3-2-.7.1-1.5.5c.7-.9 3-1.1 3.1-2.5l-1.5.6q1.2-.5.7-1.8c0-.3 1-.8 1-1.2-.9-.2-1.4.9-2 1.2q.6-.6.6-1.5-.7.9-1.9.7c.7 0 1.1-1 .5-.9-.4 0-1.5 0-1.9-.3l.7-.6c-.5 0-2.6-.3-.7-.8-1.8.8 0-1 .2-1.3-1.2.3-3 .4-4-.6.3 0 3.7.3 1.6 0 2.2.1-1.3-1.2-1.5-1.3.9-.6 2.4.2 3-1l-3-.2 1.7-.1c-1-.3-2.3-.8-2.8-1.8l3 .1c-.8.2-1.7-.1-2.2.6.5.3 4.3 1.7 3.5 0q-.4.1-.7.4c.5-.9 3.1-2.4 4.2-2 .9.2.2-1.4 0-1.6-.5-.7-1.6-.1-2.3-.8 2.9-1.2-1.9-1.4-2.3-1.9.7.4 3.4-.6 3.8-1.2s-.5-.8-.3-1.3.7-.9.4-1.4c-.7.4-1.6 0-2 .9.7-1.2-.6-1-1.3-.8q1-.5 2.3-.5.2-1.2-.8-.5l.5-.7q-1.5-.2-3 .4c-.6.4-1.8 1.3-2.7 1q1.2-1 2.7-1.1c.4-.2 3.1-1 1.3-1.2 1.4.3 1.3-.8 2-1.7q-1.9 0-3.6.8c2.1-1.2-2 .3-2.3.2.5 0 2.3-1 .6-.9.9-.2 4.5-.3 4.5-1.7 0-.6.9-1 0-1.4-.7-.2-1.3.3-1.9.1.7 0 2.2-1.6.5-.7q.7-.7 1.5-1c-1.4-.1-4-.3-5 .8l-.1-.8c1.8 0 3.1 0 4.3-1.7q-.7.5-1.5.5.9 0 .9-1-.8 0-1.5.6.3-1-1-1.1c1-.1 1.8-.1 2.3-1q-.7-.5-1.5 0 1-1.2-.3-.4l.6-.7c-1.5.2-.1-2.6.6-2.7-1 0-1.6.8-2.5.8.4-.5.5-1 1.2-1.4q-1.4.5-2.7.6c.6-.1 4.1-1.6 2.3-1.3 1.8-.8-.4-.7-.8-.6l1.5-.4c-1.6-1.2-3 1.1-4.1 2-.6.4-2.4 1.6-1.6 2.2-1.2-.3-2.7-.8-3 1-.3 1 1.3 1.2 1.5 2-.8-.5-1.6-.4-2.6-.7.4.6.2 1.8-.7 1 .2 1-.9 1.5-1.5.8-1 1.3.8 1.3 1.5 1.8q-1-.2-2.1 0c-.4 0-3.4 1.3-1.4 1.5-.5.2-1.5-.2-1.8.2-.7.7.4.9.3 1.5-.3.9-1.6 2.1-2.5 2.4.5-1 3-3.7.1-4-1-.1-1.9 1.6-2.5 2.2s-1.2.3-2 .5l-3 1.2c-2 .9-3.1 1.7-4.5 3.4.5-1.4 2.3-2.6 1.8-4.3-1 1-1.9 2.5-3.4 2.8 1-.8 2.5-1.4 2.8-2.7.4-2-2 .1-2.5.6l-1 1q-1.1 1.5-3 2-3 .7-5.7 1.8c2.3-1.6 6.6-1.7 8.7-3.7q1.2-1 1.4-2.9c.3-2.8-1-2.6-3.5-2.5-2.2 0-3.8 2.2-6 2.3l.8-.8c-.8.3-1.4-.4-2.1-.5 1.2.1 3.4-.3 3.2-2 1 .3.4 1.2.6 2 .7-.5 3.8-2.6 2.1-3q.9-.9 2.1-.5c.3-1.5-1.5-.8-2.3-1 .6-.3.5-.6.6-1.1s.9-.6 1.2-.8.9-2.2.8-2.6c-.1-.7-2.5-.6-3-.6q-2.2 0-4.4-.6c1.2-.2 2.4.5 3.7.4.7 0 3.9.2 3.4-.3 2.8.3 2.1-4.2 4.5-5.3.7-.3 1.7-.3 2-1.1.5-.8-.2-2.2-1-1-.7.9-2 1.6-3.4.9 2.6-1.7-2-1.3-2.3-1.4q-1-.6-2.3-.7c-1-.2-1.7.5-1.7-.6-1 .6-1.4-.5-1.4-1.2q.8.2 1.5-.3-.8 0-1.5-.2 1.2-.8 2.5-1c-.5-1.7-1.8-.7-3-.5.6-.3 1-1.1 0-1.2l.5-.7c-1.8-.2-2-.3-3.7.2.8-.4 2.3-1.1 2.2-2.2-1.5.7-1.7-1.2-2.8-1.6-1.7-.6-2.3-1-4-.4-.9.3-6 1-5 2.2-2.2-2-4.4-1.6-6.9-.5l1.6-1c-2.3 0-4.4-1.3-6.6-2-2.3-.5-3.6.3-5.7 1-1.8.8-3 1.4-3.9 3.2-.7 1.4 0 3 1.5 3.6-.9-.4-2.6 1.8-3.1 2.6-1.1 1.5-3.7 1.4-4.4 3.3l1.4-.2c-1.7.7 1.2.1 1.6 0-.7.7-1.6 1-2 1.8l1.4.4c-.6.3-1.8.4-2.2 1-.3.4.5 1.2.4 1.7q-.3.8-1 1.2.9-.2 1.6.3c-.8.3-1.2 1.8-2 1.9-.7 0-1.5.1-1.4 1l-1.4-.4c.1.8-3 2.4-1.3 2.5-2.4.5-3.8 2.6-6 3.4-2 .7-1.4 1.3-2.6 2.7.7 0 1.6 1 1.9 1.6.3.8 1.1 1 1.8 1.5 1.5 1 2 3.3 1.9 5-.2 4.7-3.2 9.4-6.8 12.4A51 51 0 0 1 815 225c-2.2 1-4.9 2-7.2 2.5-1.6.3-4 .2-5 1.7 1 .2.4 1 .1 1.7-.5 1 .9 1.5-.3 1.8l1.5.6c-1.1.3-.6.7 0 1-.7.3-1.3 1.4-.2 1.6-.8-.3-1.2.8-2 .8 1.3.2.6.7 0 1 2-.3-.8.9-.6 1.6.3 1-.9 2.4-1.4 3.2l.7.3c-.7.4-.3.8.3.9q-.4 1-1.3.8.5 1 0 1.8c.7-.1.7.7.5 1.2-.3.7-1.2 1-.3 1.3-1.4.2-2.2 1.8-3.5 2.4-.5.2-.9.1-.7.7.1.5-1.4 1-1.6 1.3.9.8-.3 1.8.9 1.9-1 0-2.8 1.7-2.3 2.7-.6-.2-.2-1.5-.1-2 0-1.3-1.8-.8-.7-2-1.8-.2-3.6 1.8-4.5 3.1-1.2 1.7.8 2.7.1 4.5.2-2.1-1.9-5.1-4.3-4.8-1.9.3-3.5 2.5-5.5 2.3 2.5-1.5 6.6-2.4 5.7-6-.4-1.6-1.7-2-2.8-3-1.2-1-1.7-1.1-3.4-.6.7-.7 1.7-.7 2.6-1 1.1-.6.1-2.3-.2-3q-.7-1.3-1.6-2.4l2.9-3.1c.7-1.2 1-2.4 1.9-3.5 1.1-1.4 0-2.7.7-4.1.8-1.5 2.4-2.6 3.5-3.8.8-.9 1-2.3 1.7-3-.8.3-1.1-.5-1.8-.7s-2 .2-2.5.5l.7-.7c-.7-.4-2.1-.1-3-.3-.6 0-2-1-1.2.3-1.4-.3-1.2-1-2.8-.7-.9.3-2.5.3-3.5.3-1.3.1-2.3-.5-3.6.1l-3 2c.9-1.2 2.7-1.6 3.4-3-1.1-.2-1.4-1.2-2-2-.8-1-2.3-1-3.5-1.4s-5.4-2.6-6.6-1.8c1.6-2-1-3.8-2.2-5.1-.8-.8-1-1.6-2.1-1.9l-3.2-.7c-3.3-.8-5.4-2.8-9-2.2-3 .5-6 2-9 2.3l2.3-1c-1.8-.1-3.2 1.4-5 1.2 2.6-.7 5.1-2.4 5.7-5.2.6-2.6 1.1-6 2.4-8.4 1-1.7-.7-.6-1.7-1.2q-1.4-.6-3-.2-1 .1-1.6.6l.3-.4c-1 .7-1.3-1.2-2.1-.9l.7-1.1-1.3-.4c.4-.2 1.3 0 1.6-.5q.6-1 1.7-1.6c1-.6 1-2.4 2-3.2.5-.7 5.6-5 4.6-6q1.2.3.7-.5c2.3.8 4.8-3.5 7-4l1.5-1.5c-.3-1 .9-.3 1.4-.5-1-2.4 5.6-2.3 6-4q-.8 0-.6-1c1 .1 2.3 1 2.3-.7 1.4 1 1.7-.8 2.6-1 .9-.4 2-.8.4-1.3.8 0 2 0 2 1l.8-.7-.8-.4c.9 0 2.7-2 3.2-1.6.7.6 1.3-.8 2.2 0 .4.3 1.3-.2 1.6-.4-.6-.4-3.7-1.5-1-1.8q2.2-.2 4.4.2c1.1.1 2-.5 3-.8s1.9 0 2.8-.6q1-.7 1.6-1.7c.4-1-1-1.5.4-1.5-.8-.7-1.8-.2-2.5-.8q-.7-.6-1-1.3c-.6-.6-2-.1-3.5.3q.4-.1.7-.5c-1.6-.6-4.3-.9-5.6-2.1-.1 1.8-2.8.5-2-.2s2.1.3 1.4-1.5c.5 3.2 7 2.9 9.1 3.5.8.2 6.4 2.4 6 .3.9.1 1.6.7 2.4.5.7 0 1.1-.7 1.7-1 .9-.4.8-2.6 2.3-1.3q.6-.8 0-1.4.8-.4 1.4-.4l-.3.4q.9.3 1 1.3c0-1.4 1.8-.3 2.4-.1v-1.4c.5 3.2 7.4-.3 8.7-1.2 1.8-1.1 3.7-2.9 5.7-3.4a9 9 0 0 0 4.5-2.7c1.3-1.6-2.7-1.4-3.4-1.4q-3.3 0-6.4-.4c-.4 0-1.4-1.4-1.6-1.7q-.8-1.8-2.9-2.1c-1.2-.2-2.7-.8-4-.6-1 .1 0 .9-2 .2 1.3-1.5 4.5 0 6.1-.1-1.7.3.7.4 1.2.5s1.5.1 2-.2l-1-.6c2.5 0 4.5 2 7 2.3h-2.1c1.6.8 2.2 2.4 4.1 2.3 2 0 3.5-.1 5.2-1.2s3.8-1.3 5.4-2.6c1.4-1.1 3.3-1.3 4.8-2.3-.6-1.3-2.9-.6-3.2-2q1 0 .8-1c1.3.5 4.5.5 5.8 0 2.3-.7 1.7.2 1.3 2 1.5-.3 3 .5 4.4.8-.3-.6-.3-1.7.7-1.5 0 1.2.1.4 1 .8q.7.5 1.6.5c1.5-.3.8-2.3.1-3l.7-.4c-1 0-.8-.5-.3-1l-1.5-.3c2.5.3-1.7-.7.8-.6-1.2-.9-2.4.5-3.7.3q1.6-1.1 3.7-.9c-2-.4 1.3 0 1.6 0h-1.2q1 .3 1.2 1.1c-1.2-.2-1 1.1 0 .8q1.1-.3 2-1l-1.9 2c.4.6 1.9 1 .7 1.9a26 26 0 0 0 9-2.7c1-.4 1.5-.3 2.5-1a6 6 0 0 1 3.3-1.3c1.6 0 5.8-2.4 4.6-4.5-.9-1.6-2.7-2.7-.1-3.9q-.7.3-1.5 0c.6-.4 1-.8 0-1 1.3-.3.6-.7 0-1 .3-.1 2.8-.8 3-.7 1 .7.6.3 2 0 1.6-.5 4-.3 4.5-2.5-1.3-.1-2.5-.5-3.8-.2 1.4-.4 5.4-.5 5.8-2.3-.9 0-1.7-.5-2.5-.6l-2 .3c1.8-.6-1.1-1.4.8-1.2-1.4-.7-3-.7-4.6-1 1-.1 2.5.4 3.4 0q.8-.6 1.4-.7c-3-.7-6-.5-9-1.5-1.3-.5-2.9.2-4.2.4-.9 0-1.6-.4-2.5-.3.5.2-1.7.7-1 1.9-.6 0-2.2 1.4-.6.7q-1 .1-.6 1h-.8c-.2 1 .8 1.3 1.5 1-1.3.6.5.7 1.4 1.2-.3 0-3.4-.2-1.4.5-.4.2-1.4-.3-1.7.2q-.1.7-.8.4.6.7 1.4.4c-2 2-4.8-.7-6.5 2-1.6 2.8-4.9 4-7.6 5.2-.8.3-4.1 4-4.6 3.6-1.3-1-2.2.6-3.3 1-.7.2-2.2 1-2.8.6 2.1-1.2 0-2.7-.4-4.2-.5-2 2.1-4.1 3.6-4.8l-.5.7c2.3.6 3.3-1.4 4.2-3 .6-1.4-1.6-3.3-2.6-4-1.5-1.1-3.5.9-4.9 1.4q-1.2.6-1.8 1.8c-.7.9-1.7.6-2.4 1.2.6.9-.8 1.3-1.5 1.7q-1.2 1-2.6 1.1c.4-.5.6-1-.5-.8q1.5 0 0-.5l1.2-1c.6-.6 2.6-2 1-1.8 2.2-.5.2-3-.7-3.6q.8 0 1.6-.3c-1.3 1 1.3.1 1.7-.1.8-.6 2.1-1 3-.7-1.3-1.1-4.3-.5-6-.6q1.2-.2 2.3-.7c-1.6-1.1-3 1.1-4.6.8-.7-.2-.8-.9-1.5-1.1-.8-.3-1.5 0-2.3 0l1.5-.3h-1.5c2.2-.7 4.3-1.8 6.5-2.2-.5-.8-1.6-.7-2.4-.3 1.7-1.6 4-.6 6-.8q-.4-.8.3-1.4c-.8-.2-1.4.5-2.2.3.8-.1 1.2-1.3 0-1.3 1.3-.5.3-1.5-.6-1.4l.4-.7-1.1-.3c1.2 0 2.5-1.7 3-2.7.7-1.5-.4-2.3-1.5-3l.7-.7a5 5 0 0 0-3.9.3c.5-.3 1.2-.9-.2-.7l1.5-.9q-.7-.8-2.2-.7m-222 16.3.7-.2q-1.2 0-.7.2m45.8 20c1-.2 2.1.5 3 .1-2 .5 1 .5 1.6.7-1.8 1.1-4 1-6 1.6-1.8.7-4.2 1.6-6.1 2 .6.6 3 .8 3.8.4-2 .4.3.5.7.4q1.4-.3 2.7 0 3 0 5.7-1l1.7-1q1.7-.6 3.5-.8-1.5.4 0 .4-1.5.4-3 1.2c.8.4 1.5 0 2.3 0-1.4.4-1.9 1.3-3 2-.5.3-4 .6-2.2 1.2-1.2.3-2.6 1.1-3.7 1.3.6.7 1.5.3 2.3 0l-1.5.6c2 .3-1.6 1-2.2 1q-1.2.3-2.6.2c-.8-.2-1.2-1.2-2.1-1.2h-2.3c-.4 0-2.7.3-.8.5q-1.5.7-3.1.9c-.8.6.4 1.2 1 1.1 0 1-1.4 1-2 1-1.4 0-2.6.8-3.9 1.2q-2.4 1-5 1.6c-1 .3-3.1 1.5-4.2 1.1-.9-.3 1-1.1 1.3-1.2q1.8-.4 3.5-1c2.3-.8 5.4-1.3 6.7-3.5-4.5-.8-7.6 1.7-11.3 3.7-2.5 1.4-7.6.8-10-.5 1.3-.7 2.9-.5 4.3-.9 1.5-.4.9-.8 1.7-1.6.7-.7 2-.8 3-.9q2-.4 3.9-1.4c-.3-1-1.3-1-2-1.3 3-.7 6.4 1.2 9.1-.6-.8-.4-1.1-1.3-2-1.6-1-.4-2 0-3 0-2.3 0-3.3.2-5.3 1.5.3-1.6-4.4-.2-5.2-.8-.5-.5-2.2-.2-2.7.2q-.6.6-1.3 1c-.7.4-1-.6-1.5.4-1.4-1.2.8-2.6 2-2.5 1.7 0 4 .1 5.6-.3a56 56 0 0 1 9.9-1.7c1.2 0 2.4-.7 3.7-.8q2.9-.3 5.6-1.3 3.3-.8 6.8-1 1.4-.1 2.6-.5m24.3 31.3c2.6-.2 5.6.2 7.7 1l-1.5.7 1.5-.3q-1.7 1-3.7 1.3l1.5-.8a19 19 0 0 0-17 2.5c2.2-1 4.7-2.2 7.2-2.3 2 0 4.4-1.6 6.2-.5-1-.1-2.7-.6-3.5.3 1.3 0 2.6-.2 3.8.3-2.3 1-4.8.7-7.2 1 .7.4 1.5 0 2.3 0a7 7 0 0 0-2.3.7q2.6-.6 5.1-.8c-1.3.7-2.9.7-4.3 1.2h1.5c-1.5.4-3-.2-4.4 0-.6 0-4.2 1.3-2.4.9q-2.2.7-4.5 1.7l1.5-.2q-4.6 2.3-9.3 4.2c-2.7 1-4.9.6-7.5 1.2-1.6.3-2.2.8-3.1 2-1 1.3-2.8.8-4 .9-3 .2-7.3 2.3-10.1 1.2-2 .2-3.3-1.2-5.2-1.3q-1.2.2-2.3-.2c-.8-.5-.3-1.7-1.4-2 1 0 1.5 1.3 2.5 1.2s1.9 0 2.6-.5c1-.6 1-1 2.4-.6q1.8.6 3.5 0l-.3-.8c.8-.4 1.8 0 2.5-.6q.9-.9 2-1.6c1.6-.9 2.8-.2 4.6-.7 1-.2 3.4-.4 2.4-1.8-.6-.7.4-2.2-1-2q1.3-.4 1.5-2c-.8.4-2-.4-2.2-1.2q-.2-1 .8-.8c.9 0 .2.6.8.9 1 .5 2 .6 2.9 1.3 1.7 1.2 2 .4 3.8.6l-.5.7c1.3.2.9 2.3 2 2.2 1.4 0 2.4.3 3.8 0 3.2-.6 6-1 9-2.5 3.1-1.7 6.3-3.6 10-4.3q1-.2 2.3-.2M489.4 221c-.5.5-.8 1.7.3 1.5q-1 0-2.2.6zM676 235.4q1.7-.1 3 .3c.6.4 1.7 1.5 2.5.8-.3.7-.7 6.2-1 6.2a38 38 0 0 0-2.3 7.8c0 .8.4 2.2-.3 2.6-.9.4.3 3.4.2 4-.5 1.5-4 3.4-3.2 5.3-.5.2-1-.5-1.5-.4q-.8.6-1 1.6c-.6.9-2.3 1.4-2.2-.2s2-3.8 3.2-4.8c.9-.7 2.4-1 2.8-2.2-1.1-.1-1.8 1-2.9 1.3.6-1 4.4-2.6 3.5-4.1-.6-1.2-2.8 2-3.7 1.5.4-1.7 2.8-2.5 1.8-4.5q-.7.5-1.5.5.9-.3 1-1.3c-1.2-.4-1.9 1.5-2.8 2-1.4.7-.7-2.8-.9-3.3q-.4-.3-.5-.9.3-.2.3-.6-.6-1-1-2.3c0-2 2.7-1.4 3.7-2.4-1.4-.2-2.8 0-4-1.1 1.7-1.5 4.5-5.6 6.8-5.8M484 239q.8.1 0 1.5-.6-.8 0-1.5m3 4.8q0 1.5-1.7 2 1.2-.7 1.8-2m-9 14.2q-2 1-4.4 1l-.7-.2c1.8 0 3.9-.5 5-.8m356.2 22.6c1.7-.2 3.7 1 5.1 1.6l-1.3-.4a4 4 0 0 0-3.5 0l.5-.8q-.7-.4-1.5-.3z"/><path d="M480.3 228.2q-.9 0-1.5.6zm-4.5 1.2c-1-.3-1.7.5-2.3 1.2q1.2-.4 2.3-1.2m-8.9 38.2-.6.7c.7.7 1.7.5 2-.3-.6 1.4.6.1 1.4.5l-.7 1.6c1-.3 1.8.4 3 .2-2 1-3.2.4-4.7 2.4q1.9 0 3.8-.4l-.7.8q.9 0 1.4-.7-.5.8-1.4 1.2.8.3 1.4-.3-.3 1 .7 1c-.7.4-1.4 1-2.3.8 1.5 1.8 1.5 1 3.5.7-2 .8 1.2.5 1.7.4a4 4 0 0 0 2.6-2.2c-.4 1.9-2.7 2.2-4 3.1-.9.7-1.1.7-.3 1.5.4.4 2 1.6 2.6 1.3.4-.3 3.2 2 4.5 1.7l2.3-.6c.7-.3.6-1.5 1-2q-1 0-1.5.9c.6-1 1.5-2.7.6-3.7 1.9-.6-.1-2.2-1-2.7-1.2-.8-3.4-1-2.1-3 .5-.7-.1-1.7-.2-2.5 0-.8.6-2.2.4-3-.2-.6-4.4-1.3-5-1.4-1.4 0-3.7-.6-4.9-1.5-1.6-1.2-2.7-2-4.9-1.5-1 .3-3.3 2-1.5 3q.9.4 1.9 0c.5 0 2.8-.8 1-1l2.3.2q-1.4 0-1.7 1.5c.6-2.4-5.2 1.2-2.6.7-.3.8-1.2 1.2-1.8 1.8.8.2 3-1.1 3 .6.6-.5 1.5-.4 2.2-.7q-.8.3-1.4 1m6.5-22.2c1.7 0 2.4-2 3.8-2.5-.8 1-2 1.5-2.7 2.6 1.4.8 4.5-2.9 4.3-4.1-.4-2.8-4.2.5-5 1.5.7.5 2.6-.3 2.2-1.3l.5.8c-1.1 0-4.1 1.4-3 3"/><path d="M477.8 244.4c-1.2.3-2.5 2.3-2.7 3.4 1.3-.6 2.1-2.1 2.7-3.4m.7 5.3c1.3-.6 3.4-.7 4.1-2.2-2.7 0-5.5 1.9-7.4 3.8 1.4 0 2.1-1.1 3.3-1.6m.6-11.3q-1.4.5-2.4 1.7c1.2-.5 1.9-.5 2.4-1.7m.2 5.8-1 .3c-.6.2-.8 1-1.2 1.5q1.2-.7 2.2-1.8m.3 20.2.8-.4-1.5.4zm.5 6.6v.9zm.1-3.4c.6-.3 1.6-1.8 1.3-2.4-1.4.2-.8 1.5-1.3 2.4m1.7-3.8q-.9.2-1.6.6 1.1.5 1.6-.6"/><path d="M482.4 264a2 2 0 0 1-1.5.8c1 0 1.2 1 .4 1.6 1-.3 2-1.6 1-2.4m.5 2q-1 .3-.8 1.2.8-.4.8-1.3m1.4 6c-.1-1.3-.8-1.9-1.8-2.6-.5 1.1 1 2 1.8 2.6m-1.4-.2q-.3 1 .7.2zm1.2-6.5q-1.1.4-.6 1.4.6-.6.5-1.4m.5 11.4q-.6.8-.5 1.8c1 0 1.1-1.1.5-1.8m.8-11.4q-.6 0-.9.6.9.3.9-.6m-.5 10.9q.3.8 1.2.9zm1.8-6.5q-1.1 0-1.6 1 .7-.6 1.6-1m2.5 3.1q-.5.1-.7.5zm.5-.9q-.5-.2-.8.3.4 0 .8-.3M889.6 193c-1-.8-1.2 1-1.8 1.4.9.2 1.6-.7 1.8-1.5m-130.9-21.3q.6 0 1-.5-.9-.5-1 .5m28.3 69.6a8 8 0 0 0-4.2-.2c-1.5.2-4 1.5-1.4 2.4 1.5.5 4 1.8 5.5 1.4 1.6-.4.4-2.8 0-3.6m6.7 9c-.8-.1-2.9.4-2.9 1.5 1.1-.5 2.2-.4 3-1.5m.6-9.7q1 .1.5-.8-.7.1-.5.8m12.6-21.5c1 .8 2.9-1.2 3.7-1.8-.4 1.2-1.7 1.6-2.6 2.4.6-.5 1.4-.4 2.1-.6 1.2-.4 2.2-1.6 3.1-2.4 0 1-1 1.6-1.5 2.2q1.8-1.7 3.4-3.5c.2 1.4-2.2 2.6-3 3.6q1.4-1.7 3.3-3c1-.6.2-1.5 0-2.3 0-.2-4.2 3-4.6 3.3q1.6-1 2.6-2.9c-2 2-4.8 2.9-6.5 5m5.7-7.8q-.8-.2-.7.7zm1.4 6.4-2 2.1q1.2-.7 2-2.1m-.7-7.1q-.4 0-.9.5.9.7 1-.5m4.4 4.3c-.9-.6-2.6 1.8-3 2.3q2.1-.3 3-2.3m58.2 70.3q-.6.9-1.3 1.4c-.8-1 .6-1.2 1.2-1.4m.3-.8-.4.8q-.1-.6.4-.8m-25.7 27.2q0 .9-1 1.2 0-1 1-1.2m2.4 3.8-.8.6q.3-.4.8-.6m-26.4-127.5.5-.9q-1 .1-1.3 1zm16-8.2q-1.6-.2-3 .6 1.6.3 3-.6m-26.1 26.2c.4-.2.6-.2.5-.8zm-8.1 10.7a9 9 0 0 0 4.5-2.6c-.8.6-4.8 1.5-4.5 2.6M853 43.8c.7 0 2-.3 2.6 0 .9.5 0 .9 1.4 1 1 0 3-.8 3.3-1.7.3-.6-2-.8-2.3-.8q-2.9-.4-5 1.5m12.8 10q-.6 0-1 .3l.7.4q0-.4.3-.7m4.7-10.7q.7.4 1.5.5l-2.4.2c1.7-.2 0 .6 1 1q1 .5 2 .5 3.6 0 7-.9c-2.6 2.6-6.8.2-9.7 1.9q.6.8 1.7.4l-.7.7c1.9.6 5.4-.3 7.2-.6q-1.2.2-2.3.7c1.8.5 3.8-.3 5.4-1q-1.5.9 0 .5c.8 0 1-.6 1.6-.7.5 0 .8.4 1.5.3q1.2-.2 2.3-.1l-2.1.4q3.2.3 6.4 0c-2.5.8-5.3-.3-7.8.7 1.6.7 3.4 0 5 .2q2.9.2 5.6-.1c-1.6.5-3.4.3-5 .4-1.8 0-3.6.4-5.5.2q-5.1-.2-10.3 1c.7 1.3 2.5.9 3.7 1.3-1 .5-2.1 0-3.2 0 1.3 1 1.5 1.2 3.2 1 1.8-.3 3.6.4 5.4.4-2.4.5-4.8-.2-7.1.5.7 1.2 3.5 1.7 4.8 1.8l3.3.5c.6 0 4.2-1 2.1-1.1 1.6-.6 3 0 4.3.9.6-1-.4-2.8 1.1-3-.6 3.4 3 3 4.7 1.7.5-.3 1-1.7 1.8-1.4 1.4.5 2.2.7 3.5 0l-.8-.6a11 11 0 0 1 5.4-2.6c-1.2.7-2.9 1-3.6 2.3 2 1.7 5.8-2.1 7.8-1.7 1.2.3 3.4-.8 4.8-.9q3.3-.2 6.4-.8c-1.1-2.6-1.8-1.8-4-1.1l.8-.7c-2-1.8-4.7.8-7 .2 1.7-1 3.8-1.3 5.4-2.4q-1.5.4-3 .5 1.5-.5 3-.6c-.5-1.2-2.2-.9-3.2-.7.3-.3 4-.9 2.9-2-1-.9-3.8-.2-4.7.5l.8.6c-1.3.6-2.7.8-3.8-.4.3 0 2.9-.6 1-.6 2.3-.5-2.4-.7-2.5-.8-.5-.6-2.4-.4-3.1-.2 1.6-.3.4-.6 0-1.2s-.9-1.5-1.7-1.6c2-.4-2.4-1.5-3.2-1.6-1.8-.1-4.8-.4-6.4.3 1.2 1.3 3.3.1 4.8.7-1.8 1-4.3.6-6.3.4l1.5.3-2.2.3q-1.2 0-2.2-.4c-.7 0-4.4.6-2.8 1l-1.5.2q1 .5 2.3.2c-2.2.1 2.4.4 2.8.5q-1.2.3-2.4.2c.6.6 1.5.5 2.4.7-2 .2-3.8-.4-5.7-.2-1.7.1-3.7.7-5.3.6q.7 0 1.5.6-2.7.3-5.5.2 1.5 0 0 .4 2.7.5 5.5.2l-1.5.3c1.4 1.1 4.8 0 6.5 0l-3.2.5.6.6c-3.3.3-7-1.5-10.1-.7 1.6.5.2.5-.5.7"/><path d="M883.5 39.2a20 20 0 0 0-4.8 0c.8.4 4.5.7 4.8 0m15.2 13.5c-1 0-2.4.5-3 1.3q1.5-.4 3-1.3m15.2-3.8-4 1c2 .3 5.4.3 7.1-1zm-123.4 4.6c1.2.3 3 .2 4.1-.5 2.5-1.4-2.6-2.3-3.7-2.2-2.5.2-5 1-7.4 1.3-2.9.3-5.8.2-8.6 1.2.9.7 2.3.2 3.3 0 1.6-.2 3 .5 4.5.5 1.3 0 2.3-1 3.6-.3 1.2.7 2.9.1 4.2 0M657 92.3c-1.3.6-2.6 1.6-4 1.7-1.7.2-2.7 2-4.4 2 1.5.3 3-.3 4.6.1-2 .3.7 1 1.2 1.1.7.3 1.9.7 1.7 1.7s-2 2.9-.2 3.3c2.7.5 6.6-1.3 9.1-2.2 1.7-.6 4 0 5.9-.3q3.1-.4 5.5-2.4c3.9-3.2 8.6-3 12.9-5.2 2-1.1 4.6-1 6.7-2 2-.9 4.4-1 6.6-1.5l7.7-1.5c2-.4 4.2-.5 6.2-1.1.4-.2 2.7-.9 2.4-1.6-.2-.4-1.2-.6-1.6-1l-1.5-2c-1.4-1.6-4.1-1.6-6-1.4-2.4.3-4.5 1.7-6.8 1.8.7-.4 1.7-.5 2-1.4-1.6 0-3.5.1-4.7 1.3.5-1 1.9-1.1 2.8-1.4-2.3.1-3.7-1-5.7-1.8-2.7-1.1-6.4.2-9.2.3-3 0-6.4-.1-9.3.5-1.2.3-4.6 3.3-2.2 4.2-3.8 2.2-8.9 2.1-12.3 5 1.7-.1 0 1-.6 1q-1.2-.1-2.4.1c-.7.2-.9 1.3-1.6 1.7q-1.3.7-2.8 1m59.3-22.8c.7-.2 3.8-.4 4-1.2.1-.7 2.4-2 3.2-2q-.2.8-.7 1.4 1.5.1 2.8-.8c1-.8 2.3-.4 3.2-1.1l-.8-.5c1.6-.8 3.2-.1 4.7-1.2 1.3-.9 2.4-.3 3.7-1-1.1 1.4-3.1 2-4.7 2.6 3.1 2.3 5.4-.9 8.5-1q1.9 0 3.7-.3c.8-.1 3-1.2 1.3-1.8 1-.6 2.2 0 3.2-.2q-.9-.4-1-1.3c2-.6 4.2-.4 6.2-1.1-.6-2.8-5-.9-6.5-1.1l.8.5c-.5.5-3.2.6-4 .5q-2.5-.4-5.2-.3c-4.4.3-8.2 2.1-12.5 2.9q-5.3 1.1-10.7 2.8c-2 .5-4 .2-5.9.5-2.2.3-4.2 1.5-6.4 2l3.2-.5q-1.5.5 0 .3l-2.4 1c1.6 1 3.9-.6 5.6-.3 1 .2 1.7.6 3 .2 1-.4 1.8-1.5 3-1.2l-.7.7.7.4-1.5.8c.8.4 1.5-.3 2.2.3"/><path d="m704.1 68-.6.3q.8 0 1.4-.3zm-.4 1h.7zm8.8 0c-.9-.3-2.4.7-3 1.3q1.6-.3 3-1.3m18.5-1.3c-2.4-.1-4.8.9-7.2 1.3-2 .4-4.9.7-6.4 2.2 1.5 0 2.6.6 4.1.2l3.8-1.1c1.8-.5 4.5-1 5.7-2.6m-2.3 6.7.8-.2q-.7.4-1.5.4c.7.4 3 1.2 3.4-.1.1-.5 2-.2 2.5-.5l-.8.6c.7 1 2.6.5 3.4.3.6-.2 3.7-1.9 1.7-1.6.6-.5.8-.2 1.3 0 .7.5 2-.4 2.6-.7.5-.2.4-1.1 1.1-.4.7.6 2 0 2.7 0l-2.8.7c-.5.2-2.8.5-1 .9l-1.7.3c1 1 2.7.4 4 .3s3.5-1.5 4.6-1l-.7.6c2.7 1.2 5.6-1.1 8.4-.6-3.6 1.7-7.6 1.5-11.5 1.8-2 .1-3.9 1-6 1q-2.8.1-5.6 1c2.3 4.4 12.2 1.1 15.6.7 3-.4 5.7-1.7 8.8-1.8 2.8-.1 5.8-1.8 8.5-1.5-1.8 1 1 .8 1.6.9q2 .2 3.7-1l-.6.7c2 1.4 5.7 0 7.8-.4q4-.8 7.4-2.9c.7-.4 4-2 3.7-3s-2.8-.9-3.5-.8-5 1.2-2.9 1.6q-1.2 0-2.2.8.2-.9 1-1.3c-1.8-.5-3.6.2-5.4.6q1.3-1 3-1.2c-.7-1-2.2-.5-3.2-.5 1-.7 2-.7 3-1.2.9-.3 1.2-1.3 0-1.2.7-.3 2.8-1.6 2.7-2.5-3.2-.7-6.3 1.4-9.3 2-1 .3-2.5 0-3.4.9.5 1.2 2.2.8 3 1.6l-2.8 1c-.9.3-2 0-2.7.5 1.3.3 2.8.3 3.8 1.3-1.3 1.7-3.5 1.1-5.4 1-2.6-.2-5.2.2-7.8 0 0-.7 1-2 1.6-1.9a10 10 0 0 0-4 0c1-.5 2.2-.3 3.2-.6-2.2-2.6-5.3-2.3-8.7-1.8q.4-.9 1.2-1.3c-1-2.3-8.5-.5-10 .6 1.2.8 3.5 1 4.9.8-1.9.5-4 .1-6-.1-2.7-.3-4 1-6.5 1.7 1 .7 2.5.4 3.7.3 1.9-.2 3.7 0 5.6-.2-2.1 1-4.7.5-7 .7-2.7.2-5.4.3-8 1.3 1.3.6 3.1.5 4.5.4q3.7-.3 7.3-1c-5.7 1.6-11.6 1-17.3 2.9 1.5 1.6 4.4.8 6.2.4l-.8.6zm26-10.5c1.3-.2 2.7 0 4-1-1.8-1-5.6-.5-7.2.6q1.5 0 3.2.4"/><path d="M759.3 69.2q-.8 0-1.5.3zM786.6 56q1.6 0 3.1-.7c-1.2-1-3.2-.6-4.6-.4l-6.5.5c-1.6 0-11.6-.2-11 3.3l2.5 1.1c1.2.3 2.6-.2 3.8-.4 3.3-.5 7.4.5 10-2-.6-.7-1.5-.4-2.3-.4.9-1.5 3.6-.8 5-1m5.3 18.6c.9-.3 3.3-2 1.1-2.3-2.1-.5-3.7 1.2-5.7 1.6.5 1.8 3.4.8 4.6.7m5.8-6.7c2.4.3 9.2 1.7 10.5-1.4-1.6-.5-3.5 0-5.2.2s-3.9-.1-5.3 1.2"/><path d="M808 68c-1.5-.5-3.2 0-4.7.2s-3.3 0-4.6.9c2.7 0 6.9.7 9.2-1.1"/><path d="M801.3 69.2h-2.4c.7.5 1.6.2 2.4 0m-1.4-2.9c2.6 0 5.4.3 7.9-.8a7 7 0 0 0-3.7-1c2.1-.6-2-.2-2.5 0-1.2.3-.8 1.3-1.7 1.8m8.7 2.5c-2-1.6-6.5.5-8.6 1.2 3 .4 5.8-.6 8.6-1.2m-3.8-7.6c1-.2 2.5 0 3.1-.9s-.7-1.2-1.3-1c2.2-.9-.2-2.5-1.6-2.4-.5 0-1.5 1.4-1.6 1.9 0 .4-.7 1-.4 1.5.4.5 1.3.5 1.8.9m4.1-.4a2 2 0 0 0-1.7.6q1 0 1.7-.6m7.3-8.4c-.6 2.9 9 .6 10.4.8-2.2.4 2.5.6 3 .6 1.1.1 3.3 0 3.8 1.2q-1.5.4-.2 1.3c1.2.7 2.8.5 4 .4q2 0 3.7-1c.9-.5 1.1-2.3-.4-2 .7-1 2-1.3 3-1.7q-.7-.6-1.6-.4c1-.2 1.3-.8.2-1-1.2-.5-2.6.4-3.8-.1l1.5-.8c-1-.2-2-.8-3-.9-1.7 0-3.5.7-5 1.2.5-.8 1.5-.7 1.2-1.8-.3-1.3-2.6-1-3.6-1a18 18 0 0 0-10 1.3c.9 1 2 .3 3 .5q-1.3 1-3 1.4c2.1.4 4-1.4 6.1-1q-.9 1.1-2.3 1c.5.7 2.8.4 3.5.1-1.2 1-2.6.6-4 1q1.2.2 2.4.1c-1 1-2.5.8-3.7.6q-2.7-.6-5.2.2m7.7 11.3c.1-.3-3.2 0-3.5 0-1.3.3-3 .2-4.1 1 2.6.2 5-.6 7.6-1m3.4-7.5c-1.2-.1-4.7-.7-5 1 2.1.8 4.7.4 6.9 0-.2-.9-1.2-.9-1.9-1m-1.9 7.5c.8 0 1.7.6 2.6 0q-1.4-.5-2.6 0m16.4-2-1.5.3c.2 0 1.8.3 1.5-.3m5.2 6.9c-1 0-2.5-.1-3 1 1.2 1.5 2.3-.1 3-1m-.6-1.1-1.6.6q.9 0 1.6-.6m3.6-10.6q1.2-.4 2.3-.4c-2.3 0 .5-.3.8-.3h3.5c2-.1 4-.2 5.8-1.3q-.5-1-1.4-.8l3.8-.8c-1.5-1.6-3.5-.4-5.3-1.1 1.9-.5-2-1.3-2.5-1.5q-1.5-.4-3-.3c-.6 0-4.6.3-3.1 1.7-.8.1-1.7-.2-2.4.4l.8.5c-1.6.8 1.1.6-.7 1q2 .1 4 .6c-1.2 1.2-3.2-.1-4.6.6q1 .5 2.2.8-1.4.1-.2.9"/><path d="M810.8 75.2q2.3 0 4.6-1c-2 .8.8.8 1.3.5.6-.2 1.4.3 2 .3s1.9-.3 2.6-.2c.4 0 1-1 1.4-1.2 0 1 1.2.7 1.8.5q-.1-.9-1-1 1-1 2.2-.8c-2-.3 1.2-.7 1.5-1 .2 1.5 2-.3 2.6-.6l-1.6-.5c.7-.4 1.7-.4 2.3-1q.6-.7 1.3-1 .7-.2 1.3-.8c.6-.6.2-1.5 1.3-1.7q-.7-1-2-1c1.8-.2-1-.8-1.7-.7q.8.3 1.5.1c-.7.4-2.8 0-3.1.6-.5.7-1.2.6-1.9 1q1-.9-.3-.7l-2.4-.7q-2 0-3.9.4c-.4 0-2.3.3-1.8 1 .5.8 2.3.2 3 .7q-1.2.4-2.6.2c.7.8 2.4.9 3.4.8-1.2.6-2.7-.6-3.3 1a2 2 0 0 0 1.7.3q-1.5.5-3.2.3c.9-1.2-1.7-1 .2-1.3l-1.5.1c.6-.8.1-1-.6-1 1-.8-.2-1.2-1-1.3q-2.5-.2-4.6 1.4 2 .1 4-.1c-.2 0-4.5.7-3.8 1.5.3.3 1.2.1 1.5.2q-.8 0-1.5.4c.2 1 1.2 1 2 .8-2.4.9-4.4-1.1-7 0 1.7.3-1 .6-1.5.6-.7.1-2.6.2-2.5 1.3q4.7.1 9.4-.5c3.6-.4 7.3-.3 11-.8q-1.5.4-3.2.3c-.5 0-4.5.8-2.5.8l-2.5.2h1.4l-1.8.3c2 0-1.8.2-2.3.2 2 .5-.4.6-.8.5q.7.6 1.7.4c-2.1.4.7.4 1 .4-.8.2-2.4-.3-3 .4s.4 1.3 1 1.4m5.1 6c-1.6-.5-3.2.4-4.8.4-1.9 0-3.6.6-5.4.8q.7.5 1.5.5c-2.1 0 .3.3.7.3q1.4 0 2.7-.2c1.7-.2 4-.5 5.3-1.8"/><path d="m813.8 71.3.8-.4-4 .4q1.4-.2 3.2 0m-.8 8.2q-.8 0-1.5.3.7.1 1.5-.3m8.6-1.9a7 7 0 0 0-3.2 1c1 .2 2.5-.1 3.1-1m20.8-6.8q-4.3.6-8.4 1.5l1.5.2-2.3.5c1.8.2-.8.4-1.3.5q-1.7.3-3.1 1.4c.7 0 1.4.7 2.1.1-1 1 2 1.6 2.6 1.8q3.1.8 6.5.7c4.1-.2 9-6 2.4-6.7m-11.6 6.7q-.8 0-1.5.6 1 .4 2.3.3 0-1-.8-1m5.5-6.4c-1.2-.2-6.5-.2-6.3 1.7 1.1-.2 2.5-1.3 3.6-1.2.8 0 2.4.8 2.7-.4m16-4.4c1.2.4 3.5-1.4 4.7-.6 1 .6-.8 3 1.2 3-1.2.8-1.1 2-2.7 2.3-1.4.3-3.3 1-4 2.5l1.5.2c-1 .7-3.5 2-1.3 3 2 .8 3.6-.4 5.6-1.2q-.6.7-1.6.8c1.2 0 .2.7.8.9.9.3 2 0 2.9.3 2.9.8 4.5-.7 7-1.4l-.5.7c1.3-.1 2.5-1.9 3.7-.6-1 0-2.4.9-3 1.6 1.3.8 4.6.6 6 0 .6-.1 3.6 1.4 3.4-.2q1.6 1 3.1-.3c-.3 1.5 3.1 1 3.7 0-.3 1.9 2.7-.2 3.2-.5l-.6.8c1.6 1 5.2.4 7 0 1.4-.4 2.9-2.7 4-1.8-1.8 2.7 3.8 2.5 5.4 2.4s3.2-.8 5-.6q2.6.1 5-1.4l-.6-.8c1-.8 1.4.2 2.4.4a6 6 0 0 0 3-.5c-.3-1.8-3.1-.4-4.2-.3.4-2.1 5.4-1.2 6.7-2.8-.8-1.2-2.3-.7-3.4-.6q1-.2 1.9-.6c-1.4-1.4-3.7-.3-5.4-.7l.8-.5c-3.1-2.5-8.2.5-11.6-.3-2.5-.6-4.8.5-7.3.7-2.4.3-5.2.4-7.5 1q.6.7 1.7.7l-5.3.3c2-.1-1-1.3-1.5-1.5a3 3 0 0 0-3 1c.9-1.6-3-.3-3.6-.3 1.4-.2 0-1-.6-1.2-1.4-.4-1.4 1-2 1.3-.9.4-1 0-1.3-.6-.5-.7-2 0-2.6.1 2.4-.5-1.9 0 .7-.5 1-.2 2.2 0 3.1-.7-.3-.9-1.3-1-2-.5 1.2-1.2-.7-1.2-1.5-1-1.6.1-4.2-.3-5.4.8 1.7-1.6 4.1-1 6.2-1.5q-1.6-.2-3.2 0c2-.4-1.7-.6-2.2-.6q1.5 0 0-.6c1.8-.3 4.3.6 6.2.8-2.2-.4 1.3-.3 1.7-.2q1.6.1 3.3-.4c-1.3-2.1-6.6-1.6-8.7-1.6 1.4-.8 3 .2 4.6 0-1-2.4-4.6-1.5-6.5-1.2-1.5.3-3 0-4.6 0-1.7.1-3.2 1-4.8 1.4 1.1-.6 2.5-.8 3.6-1.6 2-1.3-3.2-1.5-3.7-1.6-2.3-.4-4.1-1-6.5-.9q-2 0-4 .4-.8 0-1.4.4.1 1 1 .8c-.6 0-2.8 0-3.2.5 1.6.7 3.7 1.5 5.5.8-1 .6-2.1.5-3.2.7 0 1.4 4 1 4.8 1.1l-3.2.3c1 .7 2.2 0 3.3 0 1.3-.2 2.7.3 4 .2m15.4-9.3q-1.6-.6-3.4-.3l-5-.2c-2.7.2-5.7-.5-8 1.2.9 2 5.7.8 7.3.7 3.2-.1 6.1.8 9-1.4"/><path d="M873.5 65.4q2-.7 3.7-1.8c-1.2-1.7-6.1-.2-3.7 1.8m.8-5.2a2 2 0 0 0-1.4.6c.9.2 1.7.4 2.2-.6zm5.1.3c.7-.2 3.3-.4 2.9-1.7-.5-1.3-2.9-1.2-4-1q-1.5.2-2.8 1.1c-1.8 1.3 3.2 1.6 3.9 1.6"/><path d="M881 64.5q-.3.9-1.3 1.3c.6-.3 1.3-.3 1.4-1 .2-.9 1.7-1.4 2.4-1.5-1.2.5-1.3 2-2.4 2.6 1 0 2.5.4 3.5.2 1-.1 1.3-1.5 2.4-1.4-.4 1.6 1.8 1.3 2.7 1 1.1-.2 2.6-1.7 3.3-.7q-1 0-1.7 1c3.1.3 6.4 1 9.5.3l-2.3-.7q.4-.8 1.2-1c.2 2.6 3.5-.3 4.1-.3 1 0 .5 1.3 1.7 1.4 1 0 3-.1 2.8-1.7q1 .7 0 1.5c1.5.7 4.4.7 5.1-1-1 0-.8-.4-.3-1 .4 1.3 2 .6 3 .6-.7.2-1.8 0-1.8 1 1 .3 4.6-.8 5 .8l-3.1 1.7q4.6-1 9.3-1.1c1 0 4.8-2.5 5.5-1.4s6-1.3 6.5-2.2c1-1.9-5.3.1-5.6 0l.8-.6-2.4-.1q1.8-.3 3.1-1.4c-2.2-1.5-4.5.6-6.8.4l1.6-.7q-2.2-.3-4.6-.3c-2 0-2.8.4-4.8-.2 1.6-.3 3.4.4 4.9-.5q-.9.2-1.6-.5.8-.5.8-1.4l2 1.7q2 .9 4 .8 2 .1 3.8-.3c.6 0 5-.5 3 0q1.8 0 3.8-.5c.7-.2 4.3-1.5 2.6-1.8 1.1-.2.8-1.4-.2-1.5l3.2-.2c1.5 0 3 .4 4.5.3 1.2-.1 2.3-.9 3.6-.7q2 .6 3.5-.7c-1.5 0-3.6.4-4.9-.7 2.2.2 7.6 1 9.4-.9-2-.7-4.2-.4-6.3-1 2.2-.1 4.5.2 6.7 0q1.3.2 2.5-.3c.7-.5 1.1-1.4 2-1.5-2.3-.8-5-.4-7.4-.4 1.1-.2 2.3 0 3.3-.5-4.3-1-8.4.7-12.6 1q1.8-.8 3.8-1.2c-1.6-.6-3.3-.2-5-.4l7.6.1c1.9 0 4 .4 5.9-.3-3.2-.7-6.4-.1-9.5-.5 3 0 6.4-.4 9.4 0 2.4.2 5.3 2 7.8.7l-.7-.7 1.5-.2q-7-.7-14.3-.2c2-.3-1.1-.5-1.6-.7l3.3.2c.8 0 .6-1 1-.9l2.6 1q1.5 0 3-.3c-1-1.4-3.2-.4-4.7-1 3.5.4 7.2 1.2 10.7.6q3.4-.6 6.6-.4c1.1 0 4-1 1.5-1.6q-2.6-.5-5.1-.3c2.5-1.4 5.4.2 8.1-.2q0 .4-.3.8c3.3.9 7 0 10.3-.9a2 2 0 0 0-1.7-.3c1.5-.6 3.4.1 4.8-.9-.8-.8-2.4-.4-3.4-.2q-2.4.2-5 .1 1.2-.2 2.5-.2l-1.6-.5q2.8.4 5.5 0c1.8-.1 3.9.6 5.6-.3-1.1-.3-.3-1.4-1.4-1.6 1-.2 1.5.5 2.4.8 1 .4 2.4 0 3.4-.2q4.6-1.5 9.5-2.3l10.1-2c3.1-.5 6.4-.3 9.4-1.4-1.2-1-3.3-.6-4.7-.4q-3.6.5-7 .7c-5.4.3-10.7 1.4-16 1.6l1.5-.3h-1.8q9.3-.9 18.5-2c-3.2-1-6.6.9-10 0h1.8q-1.4-1-3-1c1-.1 2 .4 3 .6 1.5.4 3 .1 4.5 0l10.1-.4h-2.3c6.5-.5 12.9-.7 19.3-1.9.8-.1 6.9-.9 6.4-1.7-.7-1.2-3.6-1-4.7-.6 2.4-.5-.8-.2-1-.1l-3.8.3q1.2 0 2.3-.6c-.9-.1-1.5-.7-2.4-.9l1.6-.1c-1.3-1.1-3.1-.2-4.5-.1-1 0-1.6-.7-2.5-.5q-1.2.4-2.4.4a72 72 0 0 0-15.1.8c3.8-1.1 8.2.5 11.9-1.4q-3-.5-6-.3c-2.6.1-5.4-.5-8-.1q1.5-.4-.2-.2l-3-.4a23 23 0 0 0-5.6.5q1.2.2 2.3.6-1.7.1-3.2-.5l.8-.5q-5.3-.4-10.3.8c1.3 0 2.5.9 3.9 1-1.3.6-3.2 0-4.4-.4-1.9-.8-3.1-1.4-5.3-1.1h-6c-1.4 0-3.6-.6-5 .4 1.7.3 3.2.9 5 .9q-1 0-1.7.3l3.2.5c-1.5.2-3 .9-4.6.6a3 3 0 0 0 1.6-.6c-1.3-.3-2.1-.6-3.4-1.2s-3.5.5-4.6-.1l1.6-.4c-1.4-.4-3.3.7-4.6.1-1.8-.7-4.4.1-6.2.2.7.4 1.5.2 2.3.3-2 .5.7.6 1.1.6l3.8.2q-1.5.1-3.2-.2c-1 0-2.5.4-3.5.2-1.9-.4-4.1-1.5-6-.4q1.2.1 2.1 1c-2 0-5.3-1.8-7 0l2.4.3c-1.8 0-4-.7-5.7.7 4 1.2 8.3.7 12 2.8q-1.6 0-3-.7l-4.3-.6c-1.7-.3-5.7-2-7.1-.7.8.9 2 .5 3.1.9q-2.4-.4-4.8-.2l.8-.5c-1.6-1.8-4.3-.9-6.3-1.3 2.2-.2-.7-.4-1.2-.5q-1.9 0-3.7.5.9 0 1.5.7c-1.9 0-5.6-.8-7.1.8 2.3.2 5.1-.4 7.3.8-.7.8-4.7-.8-3.4.6q-1.8-1-4-1c-.6 0-4 .3-2.3.9-.8 0-1-.8-1.7-1-.8-.3-2.1 0-3 0q-2 0-4 .3c-.7.1-2.3.3-3 .6 2.2 0-.7.2-1.2 0q-2-.2-4 0c-3 .3-5.9 1.2-8.8 1.4 1.9.1 3 .4 5 0 2-.3 3.9.1 5.9.1-2.2.3-4.8 0-6.8 1 1.7 1 4.5.2 6.3-.1l-3.4.8q1.9 0 3.8.3c-2.3-.1-4.7-.3-6.9.4.6 1.4 3 1 4 1q3.9-.4 7.6-.4 4.4-.1 8.6-.8c2-.4 4.5-1 6.7-.4-3.8.9-8.2 1.5-12 1.5-4.2 0-8.6-.6-12.7.6 4.8 3 10.5.8 15.4-.3 3.2-.8 6.6-.5 9.8-.8 3-.2 6.2-1 9.2-.3-4.2-.2-8.4.5-12.6.7q-3.2.2-6.3.9c-1.5.2-3.5.4-4.5 1.6q1.5.2 2.8 0c.4-.1 3.3-.6 1 .3 2.8-.1 6 .6 8.8-.2 1-.2 1.4-1 2.5-1.3q1.3-.3 2.7-.1l-2.2.6c2.8.1 5.9-1.5 8.7-.6-2.4.4-6.3-.4-8.3 1.5q5.8 0 11.5-.7c4-.4 7.5-1.5 11.3-2.4l-1-.4c2.6.8 5.4-.4 8-.9H967c2-.2 4-.8 6-.4l-6.4.8c2.2 0 .5.2 0 .3l-2.5.4c-1 .2-3 .4-3.5 1.6 3.2-.3 6.7-1 9.8 0-5.3 0-10.8-.1-16 1.3 2.8.5 5.6 0 8.3.2-4.4.5-8.8.3-13.2.7-4 .3-9-.5-12.8.9 1.9 1.2 3.4 1.4 5.4 2.1-.9-.1-1.5.7-2.2 1 2.5 1.3 5.8.7 8.4.4q-2.6.8-5.4.8l-2.4-.4q-1 .2-2.3.1c1.4-.5 0-.9-.7-1.5q-1.4-1.1-3.2-1.8c-2.6-1.3-5.3-.4-8-.6-2.4-.2-5.2-.9-7.2.9-.9.7 3.5.8 4.2 1.3-1.4-.5-5.5-1.3-6 1 1.2 0 2.8-.3 3.9.3.7.4 1.1 1.5 2 1.6q0 .8-.7 1.5c1.2-.2 2 .8 3 1-2 .2-4.2-1.7-6 0l7.6.5q1.9.3 3.8.2c1.3-.3 2.5-1 3.9-.7-1.5.1-2.5 1.1-4.1 1.1-1.8 0-4.1-.6-5.8.2 1.3.4 2.7.1 3.9.5q-.8 0-1.6.3l.7.6c-1.1.4-3.6-1-4.8-1.4-2-.7-4.8-.7-7-.6q-3.2 0-6.4.4-1.7.3-3.2.8c-.4.1-3.3 1.1-1.3 1q-1.5 0-3 .3c-.7.2-3.4 2.2-1.1 2q-1.3-.1-2.4.4 5.3.3 10.2-1.6c-1.3.7-3 1-4 2 2-.2 4-.2 5.8-1 1.8-.6 3.4-2 5.4-2.1-.6.2-3.2 1.3-1.4 1.3-.9.2-1.8.2-2.4 1 1.3-.4 2.6.2 3.9.1-1.6.3-4.3-1-5.5.7 1.1.1 2.2-.2 3.3 0-2.4-.1-5.5-.2-7.7.9 1.8 1 4.2-.2 6.2.2-1.5-.2-4.1-.6-5.4.6q.7-.3 1.5 0-1.5-.1-2.4 1 2 .2 3.9-.3a6 6 0 0 0-2.3 1 19 19 0 0 0 8.1-1c2.4-.6 5.2-2.8 7.7-2.4-2.2.6-4.2 1.8-6.4 2.6l-3.1.7c-.6.2-3.4.7-1.4 1.3-1.7-.2-3.7-.9-5.1.2-1 .7-4.6-.8-5.9-.7 2.8-1.6-.4-2.6-2-2.9-2.5-.4-6-.4-8 1.6 1 .1 1.3 1.2.3 1.7 1.3.4 2.7-.3 4 0l-1.6.2c-2.4.5 2 0-.8.8l1.6.1c-.7.5-1.5 0-2.2 0-1 0-1.7.5-2.6.5q-3 0-5.9.5c-1.5.3-3.7.3-5 1-.6.2-.5.6-1 1-.7.5-1.6.5-2.3 1.1.8-.1 1.1.8 1.8 1 1.1.2 1.9-1 3-1.3"/><path d="m905.7 58.2-1.6.2c1.1-.2 2 .7 3.2.2q-.7-.6-1.6-.4m9 9q.4.3.8 0zm12.3.5c-1.7-.4-4.4.7-5.6 1.9.7.3 1-.2 1.7-.3.8 0 1.5.3 2.2 0l-.6-.7c.8-.3 1.7-.3 2.3-1m18.2-11.2q-1 0-1.6.5.9 0 1.6-.5M843.3 110l2.5.2c.3 0 2-.3 1-.8-.6-.3-4-1-3.5.6m18.4 1.6q-.9-.5-1.6.3zm4.4-.2q.6 1 1.5.4-.7-.4-1.5-.4"/><path d="M867.3 111q0 .8.8.3zm12.4 2.7c1-1.1 4.8-.4 4.8-2.2q-1.2 0-2.5.3c-1.2.4-1.7-.1-2.8-.3-.8 0-.1.7-.6.7-.9.1-1.4-.6-2.3 0 1.5.6 2.3.5 3.4 1.5m-1.6 8.3q-1 .3-.6 1.4l1.4-.5c.7-.3-.5-.9-.8-.8m9.6-7.6c-1.6 0-2.7 1.3-4 1.8-1.5.6-3.3.5-4.1 2.1 1.6.4 3.3-.5 4.7-1.3 1.3-.8 3.4-1 4.2-2.5zm-7.3 6.9c1 0 1.5-1 2.3-1.4q-.7-.4-1.6 0c1.7.6-.8.8-1.4 1.2zm3.4 7.6c-1.3 2.1 7 1.1 7.8 1 1.5-.4 4.1-1 5.1-2.3.7-.8.8-2 1.5-2.7.5-.5 1.7-.8 1.5-1.7-.3-1.8-6.2-1-7.4-.7-1.7.2-9.7 3.8-8.5 6.3m7.6-17c-2 0-3.6 1.3-5.4 1.8.8.1 6.4-.6 5.4-1.8m4 2.1c-1.4 0-3 2.6-2 2.4s3.6-.7 3.5-2q-.7.1-1.6-.4m5.7 8.2c1.3.3 2.8-2.3 1.3-2.7-.6-.2-1.6 0-2 .7-.8 1 .2 1.2.7 2m5.8 2.4c-.9.2-3.5-.1-2.7-1.1q-.8.2-1.3.6c-.6.3-1.2-.3-1.8 0-1.4.8-.2 2 .9 2.2 2.1.4 5 .6 6-1.5q-.5-.3-1.1-.2m-2.7-4.9q-.5.2-.8.8l1.6-.1zm1.3 1.5q-.8.8 0 1.5 1-.7 0-1.5M855.1 82l.6-.6q-.8 0-1.3.4zm45.1 7.7c1.7.5 2.2 1 4.2.7q3-.6 6-.9c3 0 8.1 1.8 10.7 0q-1.3-.2-.4-.8c.2-.5-.6-.6-.6-1.1 0-.8-1.2-1.7-1.8-2.2-1.8-1.7-6-1-8.3-1l-3.8-.2c-1-.2-2-.8-3.2-.8-.6 0-2.6.6-2.8 1.3-.2 1-1 .7-1.5 1.5.5 1 1.7.2 2.2.9.4.6-.6 2-.7 2.6m-.2 2.9q-.6 0-.6.7zm3.1.1-.7.7zm19.5 4.9q.5.3.8 0zm1.7-3.3q-.5 0-.8.3zm3.6 6.4c.9 0 1.2-1 1.9-1.5l-1.5.4.7-.8c-.7 0-2.7 1.6-1.1 2m1.5-2.9q-1 0-1.5 1zm1.2.4-.7.6c.7.2 1.7.2 1.6-.8zm2.8 4.1c-1.2-.2-1.9 1.2-3 1 .4 1.2 4.4.6 4.6-.7q-.8 0-1.6-.3m4.6-.6q-.9 0-1.5.6.8 0 1.5-.6m9.8 10.4c-.6.6-1.9.4-2.6.9 1 .5 2.3.3 2.6-1m1.8.9q-1 0-1.6.6.8 0 1.6-.6m-31.1 21-.8.6q1.2.6.8-.5m4.4 37.5q-.9-.2-1.6.4.9.2 1.6-.4m.5 11.9c1.8-.5-.7-1.3-1.4-1.1 0 .8.9.8 1.4 1.1m3.8-12.7c-1.6-.5-1.2 1.5.3 1.6q0-.8-.3-1.6m3.9-29.3q-.8 0-1.4.3.8 0 1.4-.3m.1 24.2q-.8-.2-1.5.4.8.2 1.5-.4m2.7.5c-1.4-.7-2.6 0-3.7.8 1.6.5 2.3-.3 3.7-.8m1.2-8h-.6l.7.8zm3.4-8.7c-.7-.9-2.6.8-3 1.3 1-.3 2.4-.4 3-1.4m-1-12.8h-.7q.5.7 1.4.4zm1 15.4q-1 0-1 1 1 .2 1-1m.7 5.6c-1.4-.5-1.4 1.7-1 2.4 1 0 .7-1.8 1-2.4m.1-6q-.7 0-.1.8zm.9-33c.5.7 2.4 1 3.1.6zm1 38.2h-.7c.6.4.5.1.7 0m.6-36.8q.3.2.8.2zm4.2 2.4.8.1zm2.7 1.1q.4-.2.7-.7a6 6 0 0 0-2.2.5zm3.9-.1q-.3 1 .7.1zm7.1 4q-.6.3-1 .9.8 0 1.4-.2 0-.4-.4-.8m1 2.7.7-.1c-.8-.3-1.7-.6-2.3.1zm-.1 11.6h-1.4c.3.9 1.6 1.2 1.4 0m.9-10.4h.7zm1 .5-.7-.2q.4.4.7.2m.7 5.8-.8.4zm-.2-5.9c1 .5 2.3-.3 3-1-1 0-2.1.6-3 1m3-1.1h-.7zM884.8 151q-.5 0-.8.3l.8.2zm4.9-.5c-.9-.1-.9 1-1.6 1.3.8 0 1.1-.8 1.6-1.3m8.5 13.7c-.8-.5-2.3-1-3-.1a2 2 0 0 1 1.6.4c-1.4-.3-.6 2 1 1.7 1.2-.3 2-1.6.4-2m-2.7-1.1q.3.3.8.2zm.1-.2q.3.3.8.2zm8.1 18.7c-1.4-.6-3.6 1.4-4 2.6.9 0 5.4-1 4-2.6m24.4-8.1c-.8-.9-3.8-1.3-4.7-.1-.2.3 1.8 1.3 2 1.4 1.5.7 1.9-.3 2.7-1.3m-191.5-53.1q-1.3-.3-2.4.5c.8.9 2.1 1.1 3 .3zm18.1-1.4c-1.1-.8-3 0-3.7 1 1.3.3 3 .4 3.7-1m4-3.2-1.6.8q1 0 1.6-.8m5.2 1.5c-.8-.9-2.6.6-2.7 1.6 0 .4 3.7.1 2.7-1.6m-.4-3.7c-.5-1-1.7-.1-1.6.7a2 2 0 0 0 1.6-.7m1.8 4.1c.5-.3 1-1.4 0-1.1-.7.1-1 1.1 0 1.1m15.9 3.7q2.8-.4 5.2-1.6c1.5-.8 3.3-.3 4.8-1.4-1-.8-2 .6-3-.2l.9-2.2q-1-.2-1.5.8c.3-1.2 1.7-1.6.3-2.6l-1.6-.9c-.6-.4-.5-1.5-1.5-.7 1.8-2.7-7.9-1.2-5.4 1-.9-.7-3.9 0-2.4 1.2-2.5 1-6 .5-8.1 2-.7.3-.6 1.6.3 1.5.8 0 1.6-.7 2.5-.5l-.8.5q1.6 1.2 3 .1c-1.3 1.3 1.9 1 2.2 1.7.6 1 4 .7 5.1 1.3m-6.1-16.2q-1.2-.1-1.7 1 .7.3 1.6.3-.2-1 .8-.8zm15.8 8.1q-1.6.1-3.1-.2c.6 1.6 2.3 1.7 3 .2m3.8-.1c-1-.9-3.9-.2-3.5 1.4.8-.3 1.2-1.5 2.2-1.1l-1 1.5c1-.3 2.3-.6 2.3-1.8m-35-28.4c-.5-.7-1.3-.2-1.6.2zm2.6.7c1-.1 2.2.6 3 1.2l-.7.8c1.5-.2.5 2 1.5 2 1.3.3 2.7-1 3.9-1.5.7-.4 7.2-2.3 5.3-3.8-2.5-1.8-11-1-13 1.3m18.1 7.7c.5.4 4.4.1 3.5 1.3 1.8-.8 1.4.8 2.2 1.8 1.3 1.6 1.7 2 .8 4 2.8.6 4.9.3 7.5-1.1-1.5-1.4.7-2.2 1.8-2.7l-1.6 1.1c1 1.3 3.6 1 5 .6 1.1-.2 2.2-1 3.5-1 .4 0 3.6-.5 1.5-.7a2 2 0 0 1 1.5-.5l-.8-.5q1 0 1.8-.5c.7-.6.7-1.4-.3-1.5 2.2.2 4.2-.8 4.8-3-1.2.6-2.6.5-3.8 1 .6-.4 1.6-1.6.2-1.7q1 0 1.1-.9c-2.1-.7-4.1 0-6.2.6.4-1.3 2.8-1.6 3.9-1.9l6.4-1.5c-.2-1-1.2-.7-2-.5 1.3-1.5 4-.2 5.3-1.5 1-1-2.5-1.5-3-1.2 2.1-.8-.8-.2-1-.2l-2.9.6c-1.5 0-3.3-.1-4.7.7 0-2.3-3.2-1.8-4.4-1.2q1 .4 2.1 0c-1 .6-1.8.3-2.9.1-1.4-.2-3.2.2-4.5.8l1.6 1c-.6.9-1.6.2-2.4 0-1.3-.4-2.5.4-3.7.7q1.7 1.5 3.9 1.3l1.5-.4c.7 0 .8 1 1.8 1q-.7.4-1.4-.2c-.8-.4-2 0-2.7.4 2.1.2.3 2.3-1 2.1q.9-.1 1-1.1c-1.8.1-.8 1.2-2 1.8a11 11 0 0 1-5.7.4c.8-.3.2-.7-.1-1.7-.5-1.7-3.6-.5-4.5 0-.8.3-2.8.9-2.8 2 .1 1.3 2.3.7 2.5 2zm33.7 63.4c.3 1.5-2.2 2.7-2.5 4.2-.3 2 5.7-.3 6.3-.6 2.5-1.3 4.7-2.8 7.5-3.7 1.6-.4 1.5-1.4 2.8-2.1s2.5-.4 3.7-1q0 .9-.8 1c.7.7 2 .6 2.8 1 1 .5-1.5 1-1.4 1.4 0 .4 1.2.4 1.5.4 1.4.1 2 .3 3.3.9 3.2 1.5 5.8-.6 9-1.4-.2-.9-1.2-1-1.9-1q.9 0 1.2-.9c-.7 0-.7-.4-1.2-.7s-1 .4-1.6.4l-5.2.3c.8-1.3 3-.2 2.7-2-.1-.7.9-1 .8-1.8s-.8-1.4-1.4-1.8c-.6-.3-1.6 0-2-.4-.5-.7-1-.8-1.9-1.2-.7-.4-.2-1.4-.7-1.7-.8-.4-2.5-.3-3.4-.4.4-.7-.5-1.8-1.1-1.9-.8-.1-2.3 1.6-3.2 1.9-.5-1 .9-1.5-.4-2.1.4-.4 1.1-.4 1.5-.8s.1-1 .5-1.5q-.8-.5-1.5 0c1.2-1.4-1.5-.7-2-.4q-2 1-3.4 2.5-2.9 2.7-5.4 5.6c-1 1-2 1.6-2.8 2.7-.6.9-.1 2.4-1.4 2.8-2.8.8-6 1-8 3.3 1 1.3 2.6.2 3.8-.1 2-.5 4 .1 5.8-1"/><path d="M811.9 89.6q-1.4-.2-2 1 1.3.2 2-1"/><path d="M813.7 87.5c-.6-.1-3.5.5-3.1 1.5.4 1.3 3.8-.3 3.1-1.5m2.3 7.2q-1.2 0-2.2.7c.8.6 2.5.5 3.4.5l1.8-.1c.4-.1 1.8-.8.3-.2q2.7-1.4 5.6-2.6c2.4-1 .4-2.5-1.3-2.4 3.6-1.3 7 .3 10.5.3a9 9 0 0 0 4.1-1.4l2-1.2c.7-.3 2.8-.8 1.2-1.1 2.1-.1 3.8-2.3 5.7-2.3 2.1 0 3.8-2.5 6-2.1-2-1.2-5.3-1.5-7.5-1-.5.1-2.5 1-2.7.2-.5-1.1-1-.7-2.2-1a7 7 0 0 0-3.4-.3q-2 .3-4 .3c-2 .2-5 0-6.6 1.4l.9.4q-.7.8.3 1.3-1.2.4-2-.5c-.7-.5-1.7 0-2.4.3-1.9.7-2.4 3-4 4-.6.5-3.7 1.8-2.9 3 1 1.5-1.1 2.7-2 3.8h2.2zm1.2 72c-.5.8.5 1.4-.3 2.1 1.2.4 2.3-1 3.4 0 .8.6 2.7-.8 3.4-1.1 2.7-1.5 5.4-2.5 8-4.3-2.4-1.8-5 .5-7.5.3-1.3-.2-2-.5-3 .6-1.3 1.2-2.6 1.6-4 2.4m.3-54.7a2 2 0 0 0 1.2-1q-1 0-1.2 1m1.8 3.8c1.6-.1.7-1.9-.6-.5q1.3-.7.6.5m.2 3.5q1 .3 1.4-.7-.9-.1-1.4.7m3.4-5.1c-.5-.5-2 .4-2.4.7.8 1 1.7-.1 2.4-.7m8.8 25.4c-1.5-.6-3 1.3-1.8 2.6 1.6 1.6 1.7-1.7 1.8-2.6m4.3-16.1c.7-1.1-.6-1-1.3-.7q-1.6.5-2.6 2c-.4.5-1.2 1.8.2 1.7 1.8 0 2.7-1.8 3.7-3m1.4 16c-.4-.4-2.8-1.6-2.8-.2 0 .3.6.4.8.5.4.2-.3 1.4-.4 1.7h2.3l-.8.5c.8.1 2.4.8 2.7-.4q-1.2 0-2.2-.6c.8-.1 1.5-1.2.4-1.5m-.9 33.2c1 2 3.7-1.2 4.7-1.9.8-.5 4-3.5 1.3-4-1.8-.2-9.2 4.6-6 6m1-73.2c-.8 1.8 10 1.3 10.4 1.4-1.2 1.2 1.8 1.8 2.5 1.8-2.2 0-4.5 1-6.7.4-1.9-.5-4.2-1.3-6.2-1l.7.7c-.4.2-1.5.6-1.6 1-.2.7.8 1.2.7 2-.1 1.2 3 1.2 3.8 1.7h-1.6c.7.2 4.1.6 2.4.2 1.4-.3 3 .4 4.4 0l-.7-.6c1-.6 3 0 1.5.2 1 .6 2.8-.5 3.8-.9-.6.4-2.8 1.1-2.4 2.1.7 1.7 3.8 1.6 5.2 1.4q-1-.6-2.3-.4 1.5-.5 3-.2c1.2.2 1.9-.3 2.5.3 1.1 1 3.6.6 5 .5 1.5 0 3-.4 4.7 0q.7.4 1.6.6l1.4.8c.7 0 2.5-.8 3.1-1q-.9-.4-1.7-1.1c-.9-.7-2-.8-3-1.4q4.1 1 7.3 3.6c.5.3 2 0 1.3-.7-.5-.4-.6-1-1.3-1.1-.6-.1-1 .2-1.4-.3 2.4-2 6.9 2.2 9.1.5 0 1.7 5 .9 5.8.6 1-.2 1.8-1.5 1.6-2.6-.1-.6-2.6-.9-3.1-1l1.3-.6c.5-.1.7.7 1.2.3.5-.5 1.9-2 2.7-1.3q-.7.4-1.6.6 0 .8.8.8c.7-.1.1 1 1.1.5-.4 1.4 1.6.8 2.3.7 2.2-.2-.4 2.8-.8 3.4 1.5.5 3.1-1 4.6-1q-1.2.2-2.3.6c.7.4 1.5-.2 2.3.3-.2 1.2-1.7.9-2.5 1 1.1 1.5 3.8 0 5.3 0-.9.4-2.2.2-3 .9-.4.5 3.8 1.4 3.6 2.7s-3.9 1-4.9 1q-1.4-.1-2.3.8v.6c0 .4-1 .7-1.2 1.2 2.1.4 6-.7 7.6-2.1 1-.8 1.1.5 2 .5 1.2 0 1.6-1.6 3-1-.4.2-3.6.9-1.6.7-2 .5.5.1.7 0q-.6.7-1.5 1 .8.3 1.5-.3c-1.4.5 0 2 .8 2.3 1 .4 2.7-.3 1.3-1.3q1.2-.1 2.3.4c-.5 0-1.5 1-1.8 1.4-1 1.3.4.7.2 1.5l2.5-.8-1.4.7c.8-.3 1.4.6 2.2.4-.5.7-.5 1.6-1.2 2.2 1.8.8-.5 3.6.7 4.9-1.1.4-1.8 1.2-3 1.4q-1.7.2-3 1.2c-1.7 1.4 1.3 1.4 2.1 1.5 1.8.2 4.3 1.4 6 0 1.9-1.5 2-2.8 4.8-2-1.8.4 0 .2-.2.8q-.3.8.7 1c.8 0 5.7 1.3 3.8 1.8l1.5-.3q-1.2.3-2.3.8c.7.3 1.4-.6 2 0l-1.3.3c.6.2 1-.2 1.6 0l-2.7 1.3c-1 .4-2.3-.3-3.5 0s-2.1-.6-3.5 0c-1.5.6-2.8 2-4.5 2 .5-.6 1.3-.5 1.8-1-1.3-.3.3-.7.6-1.8q.6-1.2-.5-1.8a21 21 0 0 0-6.5-1c-1.7 0-13 2.8-12.6 4.7.2 1.1 1.8 1.6 2.2 2.6 1 2.8-2.2 1.3-3.5 1.7l-3.4 1.3-2.8-.3c-.8 0-.8 1-2 .9-1-.1-2.3-.7-3.3 0 1 .5 1.7 2.2 2.5 1.6-.5.8-1.6.6-2.3 1.3q.6.4.4 1c-.9.1-1-.7-.8-1.3s1.4-.1 1.6-.9c.4-1.4-2.2-1.8-3-2-.7-.3-6.9-1.9-6.4-.5-.8-.3-1 .8-1.4 1.2q-1 .8-2.4.8a7 7 0 0 0-2.6 1c-1 .6-1.3 2-2.7 2 1.5-.2.2.5.4 1.4q.3 1 1.2 1.5c1.4.8 3.3.3 4.8.9.7.3.4-.5.9-.7.6-.4 1.6.1 2.3 0q1-.1 2-.5.8-.2 1.5-.1-.4-1.2.7-.5c-1.4-2 3-.2 3.4 0 .9.2 2.4.8 3.2 0 1.1-1.3.4-1.6-.6-2.6 1.1 0 2-.7 3-.9-.5.5-2.1 1.1-1 2 .6.5 2.2-.2 2.7-.7 0 1-1.7 1-.2 1.5-1-.2-1 1-1.6 1.3.7.1 2.3-.9 2.2-1.8.6.7 1.7.5 1.8-.5q1 .4.4 1.2c1 0 1.2-1.1 2.2-.8l-2 1.2c-.5.4.2 1.8.6 2h.4c.4-.2.4 1.4.5 1.6l.7-.7q0 .9-.6 1.5c.7 1 2 0 3-.1q-1.5.6-2.3 1.7c1-.5 2.1 0 3-.5-1-.1-.5-.3 0-.6.4 1.3 2.2 1.2 3.1 1.6-1.7 1.4-3.9 1.5-6 1.2 1.5.2 1 1.3 1.8 2.2 1 1.4 3 1 4 0a3 3 0 0 1-2.2 1.2c1.5.1 2.7 1.3 4 1.8 1.7.7 3.6 0 5.3.2-2 0-1.2 1.5 0 2.3 1.2 1 3 1.7 4.5 1.8 2.2.3 4 .5 6.2 1.4 1.8.8 3.8 1.7 5.8 1.2l-.4-1.4q1 0 1.5-.8-1-.2-.7-1.2h-1.5q1.4-.2.4-.6c-.2-.6.4-1 0-1.5s-1.7-.6-2.2-.7l.2-.8c-1.2 0-.8-2-2.3-1.2 1.7-.6-.3-.7-.8 0q.3-1 1.3-1-3.6-.5-4.5-4.1c-.5-2.1 3.1-.3 3.5-.6-.1 1 1.3 2.1 2 2.4q.6-1.4.3-3c.4 1 2.5 5.4 3.6 3q-.2.7-.2 1.6l.7-.7c.1.8-.6 1.6.5 2-1-1.1 1.2-.7.6-2.2.8 1.2 0 1.8 1.5 2.7q.3-.8 0-1.4c.5.6 1.4 1.4 2.2.7l-.8.6q1 0 1.5-.7c-1.2 1.5 1.1 2 2 .9.1.4-2.4 3.2.3 2.7 1.3-.3.1-2.4.2-3.2 1-.1 1.4 1.1 2.3 1 1.3-.2.6-1.8.8-2.5q-1 .3-1-.6 1 .1 1.5-.7l-.8-.4c.8-.3.7-1.3 1.6-1.4q-.2-.8-.7-1.5 1 .8 1.1 2c0 .5-.3 1.1 0 1.6.6.8 1.3 0 1-.7 1.3.2.9-1.7 1.6-2.3q-.7-.5-1.5-.5c.6-1 1.5.4 2.6.6l-.8-.8c.2 0 .8-.4.8-.7 0-.5-2 .4-2.3.3q.6-.7 1.6-1-1-.5-2.3-.4c1-.3 0-1-.7-1 1.4-.5.4-.8-.3-.7.6-.8 1 0 1.7-.4q1.1-.6 1.7-1.6c-.6.1-1.4 0-2 .5 1.7-1.2-.7-.5-1.5-.4 0-.9 1.2-1 1.7-1.6-1.8 0 1-1.3-.8-1.2-.7 0-.8 1.3-1.7 1.2l.5-.8q-1 .1-1.7 1l1-1.5c-.7.1-1.6-.3-1.7-1.2l-1.5 1.5c0-1 1-1.3-.2-1.6q.8 0 1.4-.8c-.8 0-1.4.8-2.2.6q.9-.2 1.3-1c-1-.1-.5-1.5-2-1 .8-.4 2 0 2.5-1l-1.5.2q0-.9.9-1.2c-1-1.4-3.4 0-4.5.7l2.3-2q-.7-.2-1.6-.2.7-1-.5-.9 1.3 0 .4-1c.5.8 1.6.6 1.5-.4q-.6 0-1.2-.4c-.8-.4-1.6 0-2.5-.2 2-.3 2.7.3 4.5.7-.5.2-1.1 1.5-.1 1.6.9 0 2.9-.2 3.7-.6 1.3-.6-.2-1.3-.7-1.7-.7-.5-.3-1.2-.6-2 1.4-.2 2 1.8 3.3 1l-.7-.6 1.5-.3c-.4-.9-1.3-.8-2.1-.9 1-.6 3.9 1 3.5-.6q.7.3 1.6.3c-1.5.3-.7 2.1.5 1.4q-.3.8-.9 1.4 1.2.1 2.2-.4c-1.7.4.3 1.4 1.3 1a10 10 0 0 0 3.2-1.9c-.7.8-4.7 2.1-4.3 3.4 2-.6 4-.4 6.1-1.1 1.5-.6 2.7-1.9 4.4-2-1.1.7-4.2 1-3.8 2.8-1.8-.2-5 0-5.6 2.3 1.3.3 2.5-.5 3.8-.4-1 .2-2 .9-3 .7.8 1.3 2 .3 3-.2-.4.3-3.2 1.6-3 1.9.2.6 3.2-.3 3.8-.2q-1.6 0-3 1c1.4.1-.4 1.6 1.3 1.2.8-.2 1.7-1.4 2.5-1.9q-.9.6-1.3 1.3.7.5 1.5.2-1 .2-.9 1.1c.6-.7 1.6-.2 2.2-1-1.3 1.1 1.2.9-.5 1.3q.9 0 1 1 1-1 2.2-1.7.5-.6.8-1.3c0-.7-1-1.3.4-1l-.6-.9q.8 0 1.5-.3-.6-.5-1.4-.6c.9-.4 2.4-.3 1.8-1.7.5.7 2.6 3.5 2.8 1-.4 1 .8 1 1.4.8l-.8-.5q1.1.1.6-1c.4.2 3.8 0 2.5-1-.4-.3-2-.3-2-1 1.1 1.3 3 .4 4.5.7 0-2-3.3-.6-3.4-2.4.7 1.1 2.1.6 3 .3q0-1-1-.8c1-.6 1.6.2 2.5.6 1.2.5 2.4-.2 3.6-.3q-1.1-.7-2.2-.3 1-.6 2.2-.5c-.2-1.4-1.5-1.4-2.6-1.1.8-.3 1.4-.7 2.2-.2.6.4 1.1.9 2 .6 1.4-.4.5-2.1-.7-2 2-.5-1-.5-1.5-.4a3 3 0 0 1 1.6-.2q-.8-.7-1.6 0c.8-.8-.3-1.1-.9-.6s-1.5.7-1.4 1.9c-.2-.4-.4-1.8-1.1-1.5-1 .3-1.4 2-2.6 2q1.2-.9 1.6-2.3c-1.7-.1-2.9.9-4.2 1.9 1.2-1.3-1-.6-1.8-.7 1-.1 3-.6 3.7-1.2.5-.4.6-1 1.3-1.3q1-.2 1.7-1c-1.3-1-4 1.6-5.3 1.9q1.2-.4 2.3-1.2c-1.8-1.5-6 .7-7.9 1.3.8-1.8 3.5-1.2 5-1.7-1.2-.6-3.3 0-4.5.4 1-.6 2-.3 3-.6a6 6 0 0 0-2.2-.5c1.1-.2 2.3.4 3.4.3 1.8-.1 1.1-1.4-.4-1.2.7-.2 1.7-.3 2-1.1q-1.2.2-.6-.8-1.1 0-2.3.3l1.5-.3c0-1.6-1.8-.5-2.3.1 0-1.5-1.6-.2-2.3.4a5 5 0 0 1 3.5-2.3c-.8-1.8-4.6.6-4.5 2.4-.8-.7-.3-1.7.5-2-1-1.7-3.4 1.1-4.2 1.9.4-1.5 2.8-2.5 3-3.8-.8 1.1-4.4 2.6-5.6 2.2 1.1 0 1.9-.7 3-1-.7-.4-1.3-.7 0-.8q-1.4-.8-2.2.6c1-1.4-.7-.6-1.2-.3q.7-.8 1.5-1.3c-.8-.1-1.6-.6-2.4-.1-.7.3-1.3 1-2.1.8 1.1.1 1.9-1.1 3-1.2-.9-.7-2.3-.3-3 .4 1.7-1-.3-.5-.8-.4 2-1 4.5-.4 6.7-.9-1.1-.5-2.2.4-3.3 0-.8-.3-1.4-.9-1.9.3q0-1 1-1c-1.3-.6-2 .3-3 1l.7-.8a8 8 0 0 0-3.8-.5c1.8-.3-.5-.4-.8-.2 1.3-.9 3.1-.5 4.6-.6q-1.5-.6-3-.5c-1.5.1-2.2-.6-3-.5q1.5 0-.1-.3c1.2-.3 2.5.3 3.7.4l4 .1q-1.2-.6-2.3-.8c.7-.1 1.4.3 2.1.2q-.8-1-2.2-.8c1.4-.6 3-.1 4.5-.3-1.7-1.5-5.2-1.7-6.8 0q1-.9-.3-.6 1.6 0 3.1-.6l-1.2-.2c1.3-.4 2.6 0 3.9 0-1-1.2-4-1-5.4-.6 2-1.2 5-.3 6.8.5q1.9.6 3.8.3c.4 0 4 .7 2.7-1-1.5-2-5.1-.9-7.3-1.6a7 7 0 0 0-3.9 0c-1.8.3-3.7 0-5.5.1 1.7-.6 3.7 0 5.5-.3q3-.3 5.9-1.2c.9-.4 6 .5 6-1-.1-1-1.1-2.7-2.2-3-1.8-.5-3.5 1.5-5 2.2s-3.1.3-4.7 1q-1 .5-2 .3c-1.2 0-2.1.7-3 1.2 2.4-2.6 7-1.2 9.8-3.6-1.3-1.3-4-.5-5.5 0-.8.3-1.2 1.4-2 1.2-1.2-.1-2.4.7-3.6.9q2.1-.8 4.2-1.2-.7-.7-1.5-.1 3.9-1.8 8.1-2c1-.2 2.2-1.4 3-1.2.4 0 2-.1 1.2-.7-1.2-.9-4.1-1.8-5.4-1.5s-2.5 1-4 1q-.7 0-1.3.3c-.4.5 0 .8-.8.8.4-1.8 3.8-1.7 5-2.4-1.4-1-4.6.4-6 .9-2.8 1-4.6 3.5-7.3 4.6q2.3-1.6 4.4-3.4c-2-1.1-3 1.3-4.9 1.6 1.2-.3.7-.6 0-.8 1.3-.3 2.3-1.6 3.7-1.5 1.2.2 1.7 0 2.9-.5s3.6-1 4.2-2.3c.8-1.8-4.4.6-4.6.7l-4.3.8c-1.4.3-2.9 1.3-4.3 1.2 1.2 0 2-.9 3.1-1.2-.7-.5-1.5-.1-2.3-.2 2-.4 4.6-2.3 6.6-1.9 1.2.2 3.5-.3 4-1.6.6-2.1-4.5-2.2-5.5-2-3 .7-4.9 3.3-7.8 4 1-.4 1.8-1.6 3-1.6-2-1.7-3.2 1.5-5.3 1.4 1.4-.2 2.6-1.5 3.8-2.2-1.8.5 0-1 .4-1.2-1.6-1-4 2-5.5 2.4q1.4-.7 2.3-1.6l-1.6.1c1.9-.5 3.5-1.6 5.4-2-1.3-1-3.1 0-3.8 1.2q0-1 .9-1c-1-.7-2.7.1-3.5.6q-.7.6-1.1 1.3c-.6.7-1.9 1-2.7 1.4l2-1c.8-.5-.3-1.5-1-1 1-.6 2.2-.4 3.1-1-1.3-.7-3.1.6-4.4.7l3.1-.9q-1-.4-2.3-.1l5.2-.9c1.5-.3 2.1-.8 3.5-1.3-2.2-3.7-9.4 2.2-12 2 1.3 0 2.2-.8 3.2-1.4s2.2-.6 3-1.3c-2.4-.8-4.5.8-6.8 1.4q2.1-1.4 4.7-1.7c1.4-.1 3.1.2 4.3-.7 2.1-1.6-2.6-3.7-4-1.8.9-1.3-4.4-1.9-5.4-1.9q-2.8 0-5.5 1c-.3 0-2.7.7-2.3 1.4.8 1.4 4.6 1.2 5.9 1.8-1-.3-2.6-.5-3.4.4l.6-.7c-1-.8-3.7-1.3-4.2.2.5-1.3-1.3-1.3-1.5-.4 0 .4 2.5 2.7 3 2.9-1 .1-1.1-1-2-1q-.5.8.5 1.2c-1.9.1-.6-4.3-3.7-1.6l.8.4c-.8.2-1.5-.3-2.3 0 1-.8 2.2-1.2 3-2.3-1.3-1.3-3.3-.2-4.5.5.8-.4 1-1.3 1.5-2-.8.3-4.6 1.7-2.2 2.4-1.4.3-1.3-1.9-3 0a8 8 0 0 1-4.6 1.9l.8-.6-.8-.5c1-.5 2-.1 3-.3-2.3-.6 2.2-2.2 2.6-2.5-1.6-1.1-4 1-5.4 1.3 2.8-1 5.5-2.6 8.4-3.4-1.4-1 0-1.8.8-2.5-.5-.8-1.4-.8-2.2-1 2.2-2.7.8-3.7-2.3-3.4-1.7.2-3.4 0-5 .3q-3 .5-5.7 1.2 1 .3.6 1.1c-1.1-1.2-3.4-.9-4.7-.3-.6.2-.5 1.1-1.4.4-.7-.5-2 .1-2.6.6 1.7 1.5 4.1.5 6 1.6-1.8-.2-3.9 0-5.5-.5-.8-.3-3-.4-3.7.3 1.8.7 4.2 1.8 6 2-2 .1-3.8-1.3-5.8-1.4-1 0-5.2 2.1-3.3 2.7q-1.1 0-.4.9c1 1 2.3.2 3.5 0-2 .5.3.6.8.6-4.5.6.5 1.4-1 3-.1-1.6-2.3-2-3.6-2.2q-1.1-.2-2 .6c-1.1 1-2.3 1-3.7 1 .3.3 1.8 1.1 1.6 1.6q-.3.2-.8 0c.7 1.2 2.6 1.4 3.7.9-.1 1.7-1.6 1.8-2.5 3-.6.7-2.4 2.5-3.4 2.4.4-.4.7-1 0-1.3l1.5-.1c-1.7-2.1-8.6 1-10.7 1q1.4-.7 3-.7c1.1-.3 2.2-1 3.5-1s2 0 3.3-.3c.4-.2 2.3-.3 2.5-.6.4-1-6-2.7-3.1-6 .7-.8 1.9-.9 2.6-1.7.9-.8-1-1.3-.1-2.3s2.6-1.4 3.8-2q2.6-1.5 5.4-2.5t5.7-1.7c2-.5.2-1.2-.8-1.2q-6-.1-12 .5c-4.1.6-7.9 2.4-11.7 3.8a6 6 0 0 0-3.4 2.4c-.7 1-1.4.3-2.4.8q-1.5 1.1-3.1 2c-.6.3-3.3 2-1.4 2-1.1.8-2.8.8-3.6 2-.8 1.4-1.7 1.9-2.8 3m2.2 41.2q-.4-.2-.8.2zm4.8-3.1c-.5 0-1.3-.4-1.5-.7-.4 1 .9 1.2 1.4.7m8.6 28q-.2.8.7 0zm1.3 0q-.2.9.7 0zm2.4-7-2.3.3c.1 2.2 2.2 3.2 4 2.2 3-1.7-.4-2.2-1.7-2.5"/><path d="M861.8 122.2q-.7-.7-1.5-.1.8.2 1.5 0m1 32.7c-.5-.6-1.7-.1-2.2.2q1.1.5 2.2-.2m2.8 3.9c.8-1.5-2.8-1.7-3.6-1.3.4 1.8 2.6 2.5 4 1.6zm9.2 5.8-.6.6c.9.3 2.1.9 3 0-.9-.2-1.7 0-2.4-.6m1.3-12.4q.4.3.7.2zm-294.4-39.2h.7zm.5.1q.4 0 .7-.2zm-28.8.5 1.5-.8q-1.2-.1-2.3.5zm18.8.5q.3-.8-.8-.3.4 0 .8.3m.2 1q.4-1-.8-.5zm1-2q.8 0 1.5-.5-.8 0-1.5.6"/><path d="M565.7 117.6c.3-.7 2.3-.3 2.8-.5-1.4.5-1.6-1.2-.4-1.5.7-.1 1 1 1.8.8-.4 0-1.1-.4-.8-1 .5-1 1 .2 1.5-.2.7-.4.7-.4 1.4 0 .9.4 1.1-.6 1.8-1 1-.7 2.6-.2 3.8-.2 1.3 0 2.7-2.4 4.2-1.3q-1.4.2-.3.7c.6.3 1.3-.2 1.8-.3-1.4 1.5-12.5 3.1-10.6 6.4-1.5-.5.7-2.9-1.9-1.6-1 .5-1.6-.6-2.5-.4s-2 .9-2.6 0M677 110c-.5.8-1.2 2.2.3 2.5-1.8.6.3.9.7.7-2.4 1.2 3.6 2.3 4 2.3 3.3.2 6.3-.2 9.5.3q-1.5 1-2.4 2.3-.7.7-.8 1.6c0 .8 1.4.7-.1 1.2 1.7 1 3.7-.1 5.5-.1h3.5c.4 0 3.7.2 1.8-.4l3-.3c-1.9.6 1.2.4 1.7.4 1.5 0 2.8-.5 4.3-.5 1.8 0 4-.4 5.7-.7 1.9-.4 3.6-1.7 5.6-1.6q3 0 5.7-.7c1.9-.5 3-1.5 4.7-2.3q1.5-.8 3.2-.9c1.6 0-1 1.8-1.3 2 1 .8 2.2.2 3.2.2 1.3 0 2.3 1.1 3.7.5-.5 1-1.5.7-2.3 1.1 1.7 1.4 3.2 0 5 .1.8 0 1.5.8 2.4.8 1.1.1 1.5.3 2.6 0 .9-.3 2 .3 3 0l2.9-.9c1.7-.4 4 .1 5-1.8q-.8-.6-1.5.1 1-1 2.3-1.6c-1.8-2.2-7.4 1-9 2.2.9-1.3 2.6-1.6 3.6-2.8-1.4 1-.1-.5-1.4-.8.3-1.4 1.7-.1 2.5.2 1.3.7 2.3-.3 3.3-1 .5-.5 2.2-1.5 3-1.2.5.2.6.9 1.3 1 1 .4 2-.7 2.8-1.2-1.4.9-.4 1.8.9 1.7 1.6-.2 2.4-1.9 3.2-3.1q-.7-.4-1.6-.6c-.6 0-.7.6-1.5.2l.7-.7c-.6-.5-1.2.2-1.7-.3-.6-.7-2-1.2-2.8-1.5 1-1.3-1-.9-1.5-.7-1.5.7-1.8-1-3-1 .5-1.3-1.4-2.2-.4-3 1.1-.6 3.6-1.2 4.2-2.2.6-1.2 0-2.4.5-3.5q1-1.6 2.3-3.2l.9-1.5.8-1c.2-2.1-.6-1.2-1.8-2.2-1.7-1.4-2-1.3-4-.9-1.4.3-2.9-1.8-4.5-.5l.5.7c-2.6 0-4.5 2.4-5.6 4.5-.6 1-3.6 3.2-1.9 4.7-2-.4-4.6 3-6.5 1.2q.8-1.2 2-1.7h-.8c-.4-.7 3-3.8 3.5-4.1q-.7-.8-1.6-.2c2.4-.9-1.8-1.3-.9-2.5-1.6.5-3.4-1.7-5-.3-1 .9 2.1 1.7 2.6 1.6-.8.8-1.8-.2-2.8.4 1.4 0 1 1.9-.6.8 1.2 1.2-2.6 0-3.4.2l-2.1 1c-.6.2-3 .3-1-.3-1.5-.4-3.5.7-4.6 1.6q.6-.6 1.4-.9c-2 .4 1.2-.9 1.7-1q2.3-.3 3.9-1.6c-1-.2-1.8-1-2.8-1.2l-3.3-.7c-2-.4-4.4.4-6.2 1.5 1.9.4-1 .8-1.5 1 2.2-.6-1.4 0-1.8 0q-1.7.6-3.5.4c.7-.9 3.5-1.3 4.6-1.7a9 9 0 0 0 3.6-2.4c1.8-2-5.2-1-5.8-.9l-10.5 2c-2.4.3-4.3 1-6.6 1.6-2.7.7-5.4 1-7.9 2.3q.5.8 1.4.7c-1.3 2.1-11 1.3-10.7 5.1 1.5-.5 2.4 0 3.8 0q1.5-.1 3.1-.5l-1.5.5c1.8 0-.3.5-.7.6q-1.2-.1-2.3.4c.5.7 1.7.8 2.5.7 1.4 0 2.1-.5 3.5-.4 1.8.2 3.8-.4 5.6-.6 2-.1 4 .4 5.9 0-2 .8-4.1.2-6.1.6q.7.3 1.5.2c-2 1-5 .6-7.2 1.1s-4.4.3-6.5.7c-1.3.3-2.9.5-3.9 1.3-.8.7 1 2.5 1.6 2.5q4.2-.2 8.3.1c3 .2 5.9-.4 8.9-.5 2.6-.1 4.6.1 7.1.7.8.2 3.2 0 3.7.6s.6 1.2 2 .9c-.7 1-2 .7-3 .6-1.4-.1-2.6.5-4 .5-2.8-.1-5.8-.7-8.7-.8q-5.2.1-10.4.8c-2.9.4-6 .3-8.7 1.5m19.2 12.5c-.5-.3-1.2.2-1.5.5q.8-.4 1.5-.5m1.3 2.5-2.2.8q1.1-.2 2.2-.8m3.5-.7-.7.2z"/><path d="M702.1 121v-.4q-.8 0-1.4.6zm1 3q.6 0 1-.4l-2.5.7q.8 0 1.5-.3m3.5-1.1q-1.1 0-2.1.7 1-.2 2.1-.7m-.4 3.4h-.7zm-.2 5.6-.5.7q1.2.1.4-.7m.5-7.9-.8.5q1.1.7.7-.5"/><path d="M707.4 132.2q-.8.1-1.5 1zm.8-7.4q-.6.1-1 .5.9.5 1-.5m.5 3.2q-.6.1-.8.5zm.7-.1q-.5.5-1.1.7 1 .2 1.1-.7m1.1.8c-.6-.4-1.3.4-1.6.7q1 0 1.6-.7"/><path d="M711.2 127.3c-.9-.5-1.3.9-1.9 1.3.6-.6 1.7-.4 2-1.3m-.3-1.9c-.4-.4-1.1-.1-1.6 0zm2.1-.4c-.4-.3-1.2.3-1.5.6q.9 0 1.5-.5m-2.9 5.5.7.6q-1 .5-1.1-.5zM923 188.1q.4-.7 1.3-1c.5 1-.8 1.2-1.4 1m13.9-32.1q.7.1 1.3-.5c.7-.4 1.4.5.2 1l.8.7q-1.3-.4-2.3-1.2m-11.1 58.9-1.6-.1c.6.6 1.7 1 2.3.2zm.5-1.3-.8.5c.7.6 1.6.3 2.4.4a2 2 0 0 0-1.6-.9m2.7-2.9c-.8-.7-1.9.3-2.1 1.1-.7 2.3 2.7.3.7-.1q.8-.2 1.4-1m-1.2 6q-1 .3-1 1.2c.8.4 2-.4 1-1.2m-.2-10.4a2 2 0 0 0 1.3-.8c-.6-.2-1.8-.2-1.3.8m1.9-3.3q-1-.3-1.5.5 1 .3 1.5-.5m-1.2 3.5q0 .3.6 0zm.1-.1 1.2-.6q-.8 0-1.2.6m2.1-2.6c0-1-1.2-.2-1.5.2q.7.5 1.5-.2M876 299.1c0-.4-.3-.6 0-1.1-2.1-.4-2-.1-1.4-2q-1.1.3-2.2-.3c.8-1.6 2.7-2.4 4-3.3q-.4 1.1-1 2.1c-.5.9 1.4 2-.4 2.8 1 .4 1.6-.8 2.5-.7l1.7.7c2.1 1.7 6.6-.4 9.2.2q-1.1.8-2.5.8c-1 0-1.8 1.2-2.7 1.6 1.9 0-.1 1.6-.9 1.8-1 .2-1.3-1.1-2.1-.9q.7 0 .6-1c-.3-.8-1.2 0-.2-1-1.7 1.2-2.6 1.5-4.6.3m14 5.7c-2.1-3.2 2.2-5.2 4-7 1.3-1.4 3-2.7 4.2-4 2-2.2 1 .4 2.6.6a19 19 0 0 1-4 5.2q.5-.7 1.5-.6-1 1-2.3 1.6-1.5.4-3 1.4c.7-.5 1.4-1.2 2.3-1-.7 1.2-3.1 1.4-3 2.9.7-.5 1.5-.8 1.4.4.8-.3 2.6-2 3.3-2.6-.7.2-1.5.8-2.1.1l4-2.4-2.2 1c.6-.5 3.7-2.6 2.8-.4.7-1.6 1.4.3 2.4 0q-.3.9-1.1 1.4l.7.6c-2-.2-2.8 1.6-4.4 2.2q-1.4.7-2.9.6c-1.3 0-3 .2-4.2 0m1-14.5c.5-1.5 3.4-2.8 4.9-2.8-.6.7-1.3.3-2 .7q-1 .5-1.8 1.2l1.5-1c-.6.9-1.8 1-2.5 1.9l.8.5q-.8.3-1.5.2z"/><path d="M892.8 305.2q-.8 1.1-1.2 0 .6-.4 1.2 0m1.5 14q-.4 0-.7-.3 1.1.2 2.2-.2-.7.6-1.5.5m50.5-31.7q-.7 1.2-1.7 2 .5-1.2 1.7-2m5.3-4.6c0 1.3-1.8.8-2.3.2.8-.3 1.6.3 2.3-.2M943 227q-1.2 0-2 .7c.6 1 1.5.3 2.2 0q-1.5.3-.2-.7m3 2.7-.7.4q1 .5.7-.4m5.2 9-.7.3q.8.6 1.4-.2zM888.9 269c3.2.3 5 2.5 7.8 3.7 2.5 1.1 2.2 3-.6 2.7s-5.7-.6-8.2-2.3c-1-.7-1.4-2-2.5-2.8q-1.5-1-3.2-1.5c2.2-1.3 4.4 0 6.7.2"/><path d="M915.8 287.6c-1.7-.1-7.7 1.8-5.5-2.2.7-1.1 2.4-1.8 3.5-2.4q2.5-1.7 5.4-2.9c-2 .3-3.8-.5-5.8.3.1-1.4 2.3-1.8 3.3-2.4l-1.5 1.3c.8-.3 1.3.7 1.8 0q1-1.5 2-2.5c.8-1 1-1.3 2.3-1.3.9 0 1.1 1.3 2.1.7-1.4.3-1.4-1.6.3-1.2-1.4 0-.5-.5 0-.8-3.8.5 1.3-4.5 1.1-2 1-.1.2-1.5.8-2.5.7-1.1 1.9-1.8 2.7-2.8 1-1 3-5 4.8-4.3l-.7-.8q1.5-.3 2.7-1.1c1-.9 1.6-2.3 2.5-3.2 2-2 5-1.8 7.3-3.4q-.1.8.8 1.1c0-1.5 2.6-.7 1.3.5-1.7 1.4-3.8-.4-4.2 2 .2 0 2.7-.5 1.6.5l-1.2 1.3c-.6.6-2 2.4-2.2 1-.7.6-.7 1.7-1.6 2.4-1.2.9-2 2.1-3.2 3.1l-2.2 2.4-1.4 1c-.3.7.6 1-.1 1.6l5.8-4.5c.2.6.4.6 0 1.1 1.4.1 3 .6 4.2 0-.2 1.4-4.4 2.6-5.5 3.2.7-.3 1.4-.8 2.2-.5-.7.3-.6 1-1.2 1.3l-1.5.8 2-.7c.7-.1 1.1.6 1.9.4l-.3 1q.6-.9 1.5-1.2v1.5c1-.4.7-1.5 1.6-2 .4 1.4-2 3.4-2.8 4.3l1.5-.7-.3-.7c.7-.4 3-.1 3-1.4.2 1.6 2.2-.9 3.1-1.3q0 1.2-.7 2.2c.6-.3.9-1.2 1.5-1.3s1.2 0 1.7-.3c1.4-.7 2.5 1.3 3.7 1.7-1.3 1-4.2 3.5-6 3.7.8.2 1.5-.2 2.2-.1q-.4.8-1.3.6l.1 1.1q1-.1 1-1 .3.9 1.2.4-1 .9-2.3 1c1.7.1-1.6 1-2 1.8.5-.2 3.2-1.8 1.8-.2l1.4-1c-.8 1.5 1.4.2 1.8-.2.9-1 .6-.6 1.2-.1s1.2-1.7 1.8-.5c.4.6-.3 1.1-.8 1.4-1.2.6-2.3.8-3.3 1.6q-1 .9-2 .4c-1.4-.6-1.3 1.3.4 1q-.7.6-1.6.4.8.3 1.6 0c-.2.8-1.4 2-2 1.6 0 .7-.5 1.8.7 1.3-.2.3-.4 1.7.5 1.4.3-.2 1.3-2 1.6-2.4.8-1 3.4-3.3 4.9-2.6-1.4.5-2.2 2-3.1 3q-.6.5-1 1.1c-.2.5.2 1-.1 1.5 2 0 2.3-2.3 4-2.6-.3 1-.1 2-.7 2.8l-2.7 4.2c-.2.4-2 3-2.6 2.3-.9-.8-1.8-.1-2.8.4-.6-.9.3-1.7.9-2.2-1.5 1.4-.1-.5.4-.8-1.6 0 0-1 .4-1.6-1.8.5-3.2 3.3-5.4 2.8.8-3 4.3-3.7 4.1-6.6 0-.6 0-3-1.3-2-1.5 1.2-2.2 3-4 4.1l1.3-1.5c-1.8 1.5-3.3 1-4.9 3-1.5 2-3 2.5-5.3 2.6-.6 0-2.1-.2-1.2-1.2s2.4-.7 3.5-1.3 1.8-1.5 2.8-2.3c.6-.6 1.5-.4 2.2-.8l1.5-1c-.8 0-1.5.5-2.2.4q.3-.8 1.1-1.4c-1.6 1-1.7 1.2-3.7 1 .4 1.3-1 1.3-1.7 2.1 0-1.2-.5-.6-1.5-.5l.5-.7q-1.2.1-2.2.6c.7-1 2-1 3-1.5-1.6 1 0-1.5.2-2-.4.9-1.4.9-2.2 1.4l-.3-.7c-.3.5-2.4 2.5-1.5.8-.2 1.1-2.4 1-3.3 1.3q-1.2.3-2.3-.2c-.7-.2-1.8.3-1.4-.5q-1.9.4-3.6 0c-1-.3-4 .4-2.7-.8z"/><path d="m945.1 261-.8.7q.2-.7.8-.6m2.7 9.6c-.5.6-2.4 1.8-2.5.5.8-.4 1.7 0 2.5-.5m3.2-.9.5.8q-1.2.1-2.2.6c-.1-1 1-1.5 1.8-1.4m-482.2-1.2c-.8 0-2.5 1.6-1.7 2.2 1 .8 2.2-1.3 1.7-2.2m1.3 4.1q-1 0-1 1 1 0 1-1m.8 1.3q-.2.5 0 .8zm1.9-20.6c-1.6 0-2 2.4-1.4 2.3s1.2-1.7 1.4-2.3m-.2 9.1q0-.8-.8-.2zm2.7-11.9c-1.6-.7-2.2 1.2-2.8 2.3 1.2-.1 2-1.5 2.8-2.3M473 238l.6-.4c-.5 2.4-.6 4.2 1.8 1.7l-.8-.6c1.3 0 .6-2.4 0-3.2-1.3-1.5-1.4 2.3-1.7 2.4m.7 12 1-.8q-1 0-1 .8"/><path d="M475 249.5c-.6-.1-1.4.4-1.2 1.2q.8-.5 1.3-1.2m-.7 11.7q.9 0 1.5-.6-.7 0-1.5.6M476 240c-.6.2-1.9 1-1.4 1.9.7-.3 1.5-1 1.5-1.9m.6 22.6-2.2.6c.8.1 1.7.2 2.2-.6m-1.1-28.8q-.6.3-.8.8zm.1 15.8-.7.7q1 .2 1.4-.6zm2.7 11.2c-1.2 0-2.6.4-3.2 1.4 1.1.2 3 0 3.2-1.4"/><path d="M475.2 261.3v.3q.5 0 .8-.4zm.5-21.9q-.3.3-.3.7zm1.3 8.2q-.8.3-1.3 1 1-.1 1.3-1"/><path d="M477 248.6q-1.1-.3-1 .9 1 0 1-.9m-3.1-1.4q-.5.9-1.3 1.3c-.2-.6.4-1.9 1.3-1.3m0-.2c-.7-.9 1.4-1.2 1.9-1.3-.4.6-.9 2-2 1.4m-18.1 2.7q-.8.2-.7 1.1.9-.3.7-1.1m1.6-4.8q-.7 0-1.3.5 1 .4 1.3-.6m-.5-.8-.7.2zm-.8-1c.7 1 1.7.4 2.2-.4-.8-.2-1.7-.4-2.1.4m14.2-2.2v.5c1-.2 2.1-.4 2-1.8 0-.8-1.4-2.3-2.4-2.1s.7 2.8.4 3.4m4.1-6.9c-1-.5-3.4.4-3.4 1.6.3-1.6.4-.1 1.2-.4q.5-.4 1.3-.4-.9.1-1.4.8c.8.2 2.5-.6 2.3-1.7m-1.6 2.2c-.7.2-2.1.9-1.3 1.6.7.7 1.2-1.2 1.3-1.6m-.3 8.1c-1.3.1-1.3 2.1-.7 2.9q1.6-1.2.7-2.9m-.1-5.6q.5 0 .9-.4-.5 0-1 .4m1.3 2.6q-.8.5-1 1.4c1 .4.8-.8 1-1.4m-19.1-3.5c.6-3 2.5-4.8 5.6-4.3q-.3.9-1 1.3c.4-.4 3.4-1.7 2.8 0-.6 2-3.4 1.8-5 2.6l1.6-.2q-.9.3-1.6 1c2-1 3.5-1.6 5-3 1.3-1.2 3-1 4.5-1.8-1.7 2-4.3 2.9-6.1 4.8-1.8 2-3.8 2.8-6.4 3.4q.1-1-.8-1c.4 0 2.5-.6.7-.8l1.6-.1c-.4-.8-1.5-.9-1.6-1.8z"/><path d="M455 241.4c.7 0 4.2-1.3 3.7.2-.3 1-1 .3-1.8.6s-.9 1.4-1.8 1.5c1.4-.4.4 1.5.1 2-.4.7 0 3.2 1.3 2.8-.1 1-2.3 2-1.4.6l-.7.5c-.4-.7.1-1.7-.3-2.4-.5-.8-1.1-2.1-.2-2.8-1.2.7-.8-.3-.4-.8q.6-.6 1.6-.9-1-.4-2.3-.4c.6-.8 1.5-.6 2.3-.9m277.5 44.7q-.9-.1-1.5.7 1 0 1.5-.7m5.4 14.4c.4 0 1.8-1.1 1-1.5-1.2-.6-2.4 1-1 1.5m3.4 1q-1 0-1.4.8c.6.4 1.7.1 1.4-.9m8.3 4q1.5-1 2.9-2.4c-1.2.2-.7-.2-.2-.7q-.8.4-1.3 1c.5-1.7-1.3-2-2.1-.6-.2-2.1-2-.5-3 0-1.1.6-3.3-2.5-4.2-.3 1.8 0 3.2 1.4 4.9 1.6.7 0 1.1 1 1.8 1 .8 0 1.5-.7 2.1-1q-.5.7-1.4.9zm-26.4-28c-.7-.4-2.6-.3-2.2.9.8-.4 1.7 0 2.2-.9"/><path d="M723.8 277.4q-.9-.2-.1.7z"/></g></svg>
