<svg xmlns="http://www.w3.org/2000/svg" viewBox="1372.41 639.27 188.61 188.61"><path id="cd" d="m 1393.81,748.499 c 0.69,-0.521 1.53,-0.08 1.8,-1.012 0.22,-0.755 0.84,-3.721 0.31,-4.328 -1.38,-1.588 4,-3.988 5.01,-4.891 0.27,1.147 1.95,1.314 2.02,2.521 0.54,-0.559 1.25,-0.89 1.85,-1.371 0.81,-0.656 0.47,-1.845 1.18,-2.589 1.2,1.591 3,-1.453 4.41,-0.744 1.35,0.676 0.11,0.977 -0.1,1.824 -0.23,0.951 0.37,1.993 0.37,2.949 0.6,-0.772 1.92,0.202 2.73,-0.359 1.19,-0.829 1.93,-2.404 2.84,-3.516 0.47,-0.576 2.39,-1.501 2.49,-2.024 0.27,-1.382 1.42,-1.713 2.56,-2.2 2.66,-1.134 3.13,-6.138 3.07,-8.528 0,-1.819 0.12,-3.463 -0.11,-5.279 -0.22,-1.742 1.97,-2.189 2.71,-3.567 1.73,-3.247 1.6,-5.301 5.12,-7.692 1.48,-1.007 2.38,-2.189 3.37,-3.577 0.98,-1.382 0.27,-3.4 0.67,-4.985 0.35,-1.392 1.03,-7.368 1.09,-8.935 0.1,-1.771 1.09,-3.324 1.38,-5.05 0.29,-1.671 -0.2,-3.438 0.17,-5.092 0.71,-3.114 2.57,-5.662 3.63,-8.623 0.62,-1.72 0.33,-3.533 0.28,-5.287 0,-0.809 0.35,-1.657 0.22,-2.448 -0.11,-0.705 -0.53,-1.293 -0.72,-1.971 -0.31,-1.078 1.57,-1.049 2,-2.032 0.6,-1.357 1.23,-2.549 2.25,-3.647 0.99,-1.052 2.22,-1.952 3.73,-1.941 1.27,0 1.78,1.112 2.6,1.293 1.89,0.419 3.65,2.466 4.35,4.206 0.58,1.421 2.62,0.36 3.77,0.707 0.63,0.188 0.94,1.033 1.66,1 0.63,-0.03 0.77,-0.145 1.42,0.191 0.99,0.506 1.19,0 2.17,-0.06 0.65,-0.04 1.36,0.302 1.96,0.522 1.07,0.398 2.54,1.173 3.71,0.76 2.1,-0.738 1.46,-5.749 4.25,-5.88 1.59,-0.08 2.01,3.142 4.09,1.177 0.88,-0.831 6.94,-1.633 6.57,-3.625 1.26,-0.05 1.68,1.669 2.88,1.548 1.45,-0.146 3.93,-0.364 4.53,-1.908 0.23,-0.576 -0.35,-1.151 0.41,-1.533 0.93,-0.466 1.7,-0.188 2.42,0.528 1.17,1.147 2.25,-0.203 3.54,0.408 0.64,0.302 1.17,0.782 1.79,1.105 0.73,0.376 1.25,0.06 2.02,0.172 1.83,0.275 2.54,-1.756 4.47,-0.662 0.73,0.416 3.28,2.021 3.28,2.97 0,0.465 0.6,1.612 1.05,1.796 1.9,0.773 3.71,3.567 5.73,1.659 1.15,-1.082 2,-1.298 3.52,-0.555 1.56,0.765 2.18,0.455 3.11,-1.363 1.21,-2.397 4.32,3.607 4.48,4 0.71,1.754 5.45,1.985 4,4.723 0.92,-0.216 2.04,-0.273 2.27,0.9 0.11,0.313 0.27,0.603 0.48,0.867 0.12,0.602 -0.7,1.727 -0.61,2.355 0.29,2.012 0,4.015 -0.34,5.933 -0.15,1.011 0.6,0.878 1.74,0.678 0.52,-0.09 2.5,1.295 2.14,2.396 -0.86,2.629 -4.13,5.237 -6,7.185 -0.62,0.644 -1.87,2.357 -2.62,2.99 -0.75,0.632 -0.83,0.09 -1.26,0.918 -0.54,1.034 0.12,2.297 -0.53,3.355 -0.73,1.174 -1.45,2.943 -1.61,4.325 -0.14,1.238 -0.12,2.489 -0.2,3.731 -0.11,1.453 -0.3,2.722 -0.45,4.102 -0.11,1.009 0.15,2.425 -0.31,3.349 -0.53,1.051 -1.38,1.445 -2.15,2.296 -1.19,1.317 -1.09,1.742 -1.14,3.287 0,1.018 -1.11,2.163 -1.67,2.89 -1.21,1.603 0.48,3.278 1.42,4.805 0.71,1.151 1.22,1.959 0.7,3.544 -1.91,1.674 0.4,6.932 -1.4,8.659 1.31,0.757 1.07,-2.637 1.53,-2.063 0.45,2.673 -1.22,4.611 -1.23,7.23 0,3.402 2.85,4.969 1.64,7.322 -0.7,1.358 -1.43,1.657 -0.84,2.532 0.9,1.34 1.28,3.548 3.06,7.032 1.19,2.328 4.59,1.892 4.79,7.5 0.1,2.201 1.8,0.993 2.46,4.37 -4.7,1.073 -8.17,1.196 -12.89,2.206 1.95,3.224 -3.12,4.564 -4.03,6.979 2.71,0.838 1.81,5.035 1.63,7.086 -0.14,1.493 0.43,2.903 0.34,4.381 0,0.775 -0.21,1.511 -0.52,2.18 -0.45,0.968 -0.76,1.698 -1.01,2.72 -0.49,2.006 -1.17,3.153 0.1,5.093 0.89,1.35 2.52,3.048 3.69,4.155 0.53,0.497 3.31,2.201 3.52,1.167 0.39,-1.837 0.87,-1.494 2.68,-2.012 0,2.897 -0.1,5.805 -0.18,8.701 0,0.447 0.32,2.356 -0.43,2.431 -0.88,0.09 -1.07,-0.928 -0.46,-1.413 -1.3,-1.593 -4.21,3.376 -5.58,0.392 -0.46,-0.994 -0.89,-2.254 -1.56,-3.155 -0.38,-0.512 -1.4,-1.171 -1.52,-1.776 -0.23,-1.183 -0.46,-2.555 -1.95,-2.597 -1.25,-0.03 -1.79,-1.34 -2.98,-1.484 -1.01,-0.121 -1.62,0.635 -2.31,-0.466 -0.54,-0.854 -0.56,-2.098 -1.34,-2.799 -1.11,-1 -1.91,-4.476 -2.88,-1.358 -1,3.216 -2.76,1.525 -5.27,1.614 -1.69,0.06 -2.09,-0.477 -3.51,-1.124 -0.1,-0.04 -1.6,-0.401 -1.64,-0.394 -2.28,0.4 -2.96,-3.062 -2.15,-4.641 -1.4,0.08 -2.81,0.375 -4.11,0.87 -1.61,0.608 -1.95,1.4 -3.74,0.65 0.69,-1.238 0.73,-2.872 0.13,-2.843 -0.78,0.04 -1.11,-0.627 -1.65,-1.14 -1.25,-1.191 -1.08,0.215 -1.38,0.318 -1.11,0.385 -1.6,0.328 -2.6,0.07 -1.21,-0.313 -1.96,0.53 -3.03,0.908 -1.37,0.485 -2.24,-0.437 -3.13,-0.283 -0.32,0.05 -1.59,-0.08 -1.63,-0.06 -0.86,0.463 -1.3,1.761 -2.48,1.732 0.27,-0.889 -0.27,-1.587 -0.42,-2.422 -0.22,-1.147 0.58,-1.353 0.83,-2.235 0.58,-2.045 -0.22,-5.594 -1.46,-7.239 -1.51,-2.007 -2.16,-3.263 -1.97,-5.861 0.19,-2.685 1.13,-5.502 0.43,-8.174 -0.27,-1.021 -0.99,-1.907 -0.98,-2.99 0,-1.224 0.7,-2.37 0.79,-3.585 0.15,-2.002 -1.14,-1.78 -2.77,-1.795 -1.54,-0.01 -3.07,-0.04 -4.61,0.02 -3.17,0.134 -2.69,-0.557 -1.79,-3.234 -0.71,0 -1.41,-0.18 -2.1,0.09 -0.46,0.182 -0.12,0.385 -0.38,0.609 -0.84,0.717 -4.68,0.09 -5.8,0.09 0.37,0.946 -0.32,2.053 -0.16,3.064 0.13,0.817 0.16,2.114 -1.14,1.836 0.42,1.246 -0.33,2.482 -0.1,3.74 -0.53,0 -3.97,0.114 -4.53,-0.209 -1.65,-0.955 -4.55,0.828 -5.11,0.878 -1.31,-0.213 -2.54,-0.151 -3.97,-0.144 -1.82,-0.38 -2.61,-4.163 -3.52,-5.497 -0.32,-0.47 -0.57,-0.807 -0.91,-1.274 -0.61,-0.864 -0.33,-1.484 -0.46,-2.405 -0.22,-1.639 -1.94,-2.716 -1.69,-4.456 0.22,-1.565 0,-2.871 -0.74,-3.785 -1.02,-1.277 -1,-1.747 -2.6,-1.67 -4.38,0.21 -8.73,0.382 -13.11,0.132 -3.54,-0.201 -7.68,0.384 -11.15,-0.285 -2.78,-0.536 -5.08,3.601 -6.72,-0.577" fill="#2B1D24">
		
	</path></svg>
