<svg xmlns="http://www.w3.org/2000/svg" viewBox="1402.61 583.61 115.51 115.51"><path id="cf" d="m 1481.12,617.073 c -0.11,2.051 -1.9,2.329 -1.63,3.838 0.26,-0.09 0.53,-0.191 0.79,-0.287 0.21,0.801 -0.23,1.52 -0.5,2.231 1.6,0.291 3.48,-0.122 4.96,0.692 0.38,0.126 0.56,0.389 0.56,0.873 -0.43,1.907 -0.1,2.543 1.42,2.798 1,0.243 2.39,0.06 3.25,0.711 1,0.756 1.51,1.592 2.59,2.396 1.69,1.253 0.39,2.222 0.37,2.852 0,1.06 1.47,1.822 2.29,2.306 0.88,0.522 1.84,1.1 2.75,1.567 1.78,0.909 1.24,1.4 1.89,2.436 0.46,0.732 2.44,1.103 1.9,2.189 -0.73,1.446 -0.13,1.696 0.76,2.526 0.81,0.76 -0.1,1.397 1.29,2.312 0.89,0.583 1.78,0.879 2.75,1.38 1.57,0.806 2.16,1.757 2.09,3.466 -0.1,1.596 1.02,2.472 1.51,3.823 -1.26,-1.37 -2.94,-1.926 -4.06,-0.763 -0.47,0.494 -1.45,0.372 -2.03,0.313 -0.28,-0.1 -0.56,-0.08 -0.82,0.06 -0.65,0.328 -0.88,-0.284 -1.38,-0.479 -1,-0.39 -1.82,-1.2 -2.88,-0.897 -2.13,0.605 -2.2,-0.807 -3.55,-1.016 -0.87,-0.133 -1.47,0.423 -1.3,1.28 0.27,1.403 -1.38,1.618 -2.36,1.926 -0.98,0.306 -2.32,0.751 -3.22,0.09 -0.49,-0.355 -1.55,-1.883 -1.84,-0.928 -0.39,1.31 -3.07,2.18 -4.21,2.386 -2.07,0.377 -3.4,2.325 -4.28,1.367 -0.99,-1.083 -2.1,-2.648 -3.75,-0.724 -0.5,0.585 -0.45,1.467 -0.83,2.107 -0.53,0.874 -0.64,2.06 -1.58,2.701 -1.3,0.894 -4.38,-1.06 -6,-1 -0.95,0.03 -1.14,0.315 -2.25,-0.05 -1.14,-0.379 -1.53,0.174 -2.32,-0.804 -0.79,-0.982 -2.45,-0.148 -3.57,-0.348 -1.39,-0.251 -1.42,-2.175 -2.2,-2.932 -1.35,-1.318 -3.4,-2.23 -4.7,-3.021 -1.83,-1.115 -4.44,1.19 -5.37,2.789 -0.53,0.91 -1.28,1.819 -1.65,2.806 -0.28,0.771 -1.39,0.639 -1.68,1.078 -0.46,0.703 0.71,2.148 0.63,2.963 -0.13,1.182 -0.24,1.696 -0.19,4.354 -0.99,-1.654 -3.51,-0.224 -5.21,-0.477 -0.77,-0.113 -2.08,-0.73 -2.78,-1.055 -1.36,-0.626 -2.48,0.651 -3.86,0.924 -2.03,0.402 -3.66,-0.299 -4.11,2.22 -0.24,1.36 -0.1,2.841 -0.35,4.158 -0.33,1.768 -1.52,3.474 -2.13,5.174 -0.45,-1.98 -0.81,-3.744 -0.96,-5.757 -0.14,-2.021 -2.28,-1.915 -3.34,-3.095 -0.52,-0.581 -5.95,-6.924 -3.47,-6.987 -1.28,-0.907 -1.02,-2.901 -2.34,-3.931 -1.71,-1.335 -1.46,-3.253 -1.53,-5.26 0,-0.75 -1,-1.263 -0.97,-1.766 0,-0.742 0.47,-1.5 0.52,-2.282 0,-0.854 0,-1.776 -0.19,-2.607 -0.22,-0.781 -1.18,-0.417 -1.47,-1.437 0.49,-0.796 1.23,-1.325 1.93,-1.908 1.1,-0.904 1.21,-1.943 1.91,-3.079 1.21,-1.932 2.03,-4.825 3.39,-6.664 1.67,-2.281 1.94,-0.721 4.09,-1.348 1.13,-0.327 2.01,-0.563 3.1,-0.912 1.08,-0.345 0.79,-1.519 1.93,-1.928 0.31,1.209 1.26,1.899 1.94,2.88 0.6,-1.199 2.45,-1.783 3.02,-2.213 1.78,-1.356 4.58,-1.902 6.71,-1.907 1.87,0 3.7,0.525 4.62,-1.201 0.64,-1.218 3.26,-3.379 3.13,-4.541 -0.1,-0.721 -1.69,-0.536 -1.76,-1.46 -0.11,-1.42 4.24,-1.457 5.38,-1.438 3.56,0.06 7.47,-1.338 9.79,-4.221 1.23,-1.517 1.98,-3.146 3.56,-4.318 0.8,-0.593 3.03,-2.613 2.59,-3.541 -0.56,-1.169 0.36,-2.338 1.76,-2.677 1.6,-0.384 2.83,-2.385 4.69,-2.429 2.24,-0.05 2.76,1.404 3.75,2.606 1.56,1.89 3.25,3.297 4.17,5.319 0.93,2.07 1.05,3.762 0.84,5.799 z" fill="#2B1D24">
		
	</path></svg>
