<svg xmlns="http://www.w3.org/2000/svg" viewBox="1402.6 583.6 115.5 115.5"><path fill="#2b1d24" d="M1481.1 617c0 2.1-1.9 2.4-1.6 4l.8-.4c.2.8-.3 1.5-.5 2.3 1.6.2 3.5-.2 5 .6q.5.2.5 1-.7 2.5 1.4 2.7c1 .3 2.4 0 3.3.7 1 .8 1.5 1.6 2.6 2.4 1.6 1.3.3 2.2.3 2.9 0 1 1.5 1.8 2.3 2.3l2.8 1.5c1.7 1 1.2 1.4 1.9 2.5.4.7 2.4 1 1.9 2.2-.8 1.4-.2 1.7.7 2.5s0 1.4 1.3 2.3q1.3.8 2.8 1.4 2.2 1 2 3.5c0 1.6 1 2.4 1.6 3.8-1.3-1.4-3-2-4.1-.8-.5.5-1.5.4-2 .3a1 1 0 0 0-.9 0c-.6.4-.8-.2-1.3-.4-1-.4-1.9-1.2-3-.9-2 .6-2.1-.8-3.5-1q-1.3-.1-1.3 1.3c.3 1.4-1.3 1.6-2.3 2-1 .2-2.3.7-3.2 0-.5-.4-1.6-1.9-1.9-1-.4 1.4-3 2.2-4.2 2.5-2 .3-3.4 2.3-4.3 1.3-1-1-2-2.6-3.7-.7-.5.6-.5 1.5-.9 2.1-.5.9-.6 2-1.5 2.7-1.3.9-4.4-1-6-1-1 0-1.2.3-2.3 0-1.1-.4-1.5.1-2.3-.8s-2.4-.2-3.6-.4c-1.4-.2-1.4-2.2-2.2-3-1.3-1.2-3.4-2.2-4.7-3-1.8-1-4.4 1.2-5.3 2.8l-1.7 2.8c-.3.8-1.4.7-1.7 1.1-.4.7.7 2.2.7 3-.2 1.2-.3 1.7-.2 4.3-1-1.6-3.5-.2-5.2-.4l-2.8-1c-1.4-.7-2.5.6-3.9.8-2 .4-3.6-.3-4 2.3q-.3 2-.4 4.1c-.4 1.8-1.6 3.5-2.2 5.2q-.7-2.9-1-5.8c0-2-2.2-1.9-3.3-3-.5-.6-6-7-3.4-7-1.3-1-1-3-2.4-4-1.7-1.3-1.4-3.2-1.5-5.2 0-.8-1-1.3-1-1.8 0-.8.5-1.5.5-2.3l-.1-2.6c-.3-.8-1.2-.4-1.5-1.4q.8-1.1 2-2c1-.9 1.1-1.9 1.8-3 1.2-2 2-4.8 3.4-6.7 1.7-2.3 2-.7 4.1-1.3l3.1-1c1-.3.8-1.5 2-1.9.2 1.2 1.2 2 1.9 2.9.6-1.2 2.4-1.8 3-2.2 1.8-1.4 4.6-2 6.7-2 1.9 0 3.7.6 4.6-1.1.7-1.2 3.3-3.4 3.2-4.6-.1-.7-1.7-.5-1.8-1.4-.1-1.4 4.2-1.5 5.4-1.5 3.5.1 7.4-1.3 9.8-4.2 1.2-1.5 2-3.1 3.5-4.3.8-.6 3-2.6 2.6-3.5-.5-1.2.4-2.4 1.8-2.7 1.6-.4 2.8-2.4 4.7-2.4 2.2 0 2.7 1.4 3.7 2.6 1.6 1.9 3.3 3.3 4.2 5.3q1.3 2.8.8 5.8"/></svg>
