<svg xmlns="http://www.w3.org/2000/svg" viewBox="1370.7 660.7 87.2 87.2"><path fill="#2b1d24" d="M1385.6 732.6c.6-1.8 1-2.3 2.4-3.4 1.3-1 1.7 2.3 3.4 1.2.3-.1 0-1.6.2-2.1.6-1.2-.6-1.4-1.3-1.9-.6-.4 1-4.2-1.6-3.5 1-1.2.7-2.8.3-4.2 1 .2 1.5.1 2.6.1.4 0 .7.8 1 .7 1.4-.4 3.7 0 3.4-2-.2-1.3-.7-4.1 1.9-2.8 1 .5 2.6 3.3 2 4.4 1.2-.7 2.3.7 3.5.5 1-.3 2-2 2.3-3 .3.7.9 4 1.6 3.9.5-.1 2-1.5 1.9-2.1s0-2.8.7-3.2c.8-.5 1.6-2 .5-2.8 1.5-.5.8-3.3.5-4.3-.5-1.5 1-3.3.3-4.6-.4-.8-1.5-1-2.3-1-.5-.4 0-1.5-1-1.6-2.5-.3-.6-1.6-1-3.1-.1-1 .2-3.2 1.2-3.9s2-.3 2.6-1.7c.5-1.1-.3-2-.7-2.9-.7-1.7-1-3.3-3.2-3-1.9.3-3.6 1.4-5.5 1.7.5-1.4 0-3-.2-4.4-.1-1.6.9-3 1-3.9 0-.6 7.6.3 8.3.2 1.3-.2 1.7.2 3 .3 1 0 1.1 1.4 2.5 1 2.7-.7 5.6 1.2 7.4 3 1-1.2 0-2.1.1-3.4 0-1.1 1.2-1.8 1.5-2.7q1-2 1.6-4c.3-1.2-.1-2.3.1-3.4.2-.8.4-2 1.3-2.5s2.4 0 3.5-.5c1.3-.5 2.2-1.4 3.6-.7s2.3 1.1 3.8.9c2-.3 4.4-1 4.1 1.6a23 23 0 0 1-2.9 7.4c-1.3 2.2-1.2 3.7-1.3 6.4q0 2.2-.7 4.3c-.5 1.6-.8 2.4-.8 4l-.2 3.3q-.2 1.8-.7 3.6c-.6 2.7.7 4.4-1.6 6.9-2 2.2-4.1 2.8-5.5 5.3l-1.7 3.7c-1 2.4-3.3 2.8-3.1 4.2v7.4c0 2.6-1.2 6.6-3.6 7q-1.7.5-2.1 2c-.2.6-1.8 1.3-2.3 1.9l-2.5 3.2c-1.2 1.3-2.5-.2-3.2.8 0-1-.9-2.6-.2-3.4.5-.6.7-1.2-.3-1.5-1.3-.4-3 2.3-4.2.8-.6.6-.5 1.4-.8 2-.4 1-1.6 1.3-2.2 2-.1-1.2-1.8-1.4-2-2.5-1 1.6-1.9-3.3-3.4-.9-.6.8-1.4.8-2 1.3l-2.5 2.6c-1.6 1.8-2-1.5-2.3-2.4-.7-2.5-3.4-4.6-5.2-6.3"/></svg>
