<svg xmlns="http://www.w3.org/2000/svg" viewBox="1370.69 660.71 87.16 87.16"><path id="cg" d="m 1385.6,732.579 c 0.58,-1.763 0.93,-2.285 2.39,-3.391 1.29,-0.979 1.74,2.272 3.43,1.239 0.24,-0.148 -0.1,-1.606 0.19,-2.148 0.57,-1.165 -0.64,-1.426 -1.34,-1.867 -0.61,-0.39 1.12,-4.221 -1.57,-3.473 0.94,-1.286 0.67,-2.824 0.28,-4.25 1.09,0.256 1.54,0.141 2.59,0.157 0.47,0 0.69,0.712 1.12,0.606 1.3,-0.316 3.59,0.02 3.29,-1.931 -0.2,-1.333 -0.65,-4.167 1.9,-2.795 0.93,0.501 2.58,3.28 1.98,4.324 1.19,-0.682 2.31,0.792 3.52,0.5 1.04,-0.251 2.04,-1.931 2.31,-2.88 0.32,0.583 0.89,3.845 1.62,3.783 0.54,-0.05 1.96,-1.459 1.87,-2.074 -0.1,-0.626 0.1,-2.781 0.69,-3.15 0.84,-0.491 1.64,-2.095 0.57,-2.809 1.45,-0.513 0.74,-3.3 0.43,-4.313 -0.48,-1.549 1.12,-3.265 0.38,-4.635 -0.44,-0.813 -1.57,-1.053 -2.39,-1.053 -0.45,-0.335 0,-1.462 -1.01,-1.555 -2.49,-0.241 -0.55,-1.553 -0.86,-3.092 -0.21,-1.059 0.16,-3.145 1.14,-3.853 1.03,-0.743 1.93,-0.366 2.59,-1.768 0.51,-1.089 -0.31,-1.907 -0.71,-2.853 -0.73,-1.712 -0.97,-3.316 -3.19,-2.963 -1.92,0.305 -3.62,1.352 -5.53,1.679 0.54,-1.42 0,-2.968 -0.18,-4.403 -0.15,-1.575 0.85,-3.065 0.9,-3.864 0,-0.644 7.69,0.204 8.36,0.132 1.29,-0.139 1.74,0.203 2.97,0.295 1.03,0.08 1.18,1.462 2.57,1.084 2.72,-0.744 5.56,1.186 7.42,3.013 0.88,-1.251 0,-2.179 0.1,-3.499 0,-1.091 1.13,-1.741 1.52,-2.693 0.56,-1.34 1.23,-2.645 1.56,-4.067 0.26,-1.141 -0.15,-2.193 0.1,-3.295 0.19,-0.836 0.41,-2.08 1.25,-2.539 1.07,-0.588 2.42,0 3.56,-0.494 1.24,-0.53 2.2,-1.379 3.59,-0.734 1.35,0.632 2.28,1.199 3.82,0.95 1.88,-0.305 4.35,-1.008 4.09,1.637 -0.23,2.262 -1.82,5.398 -2.9,7.336 -1.27,2.276 -1.26,3.775 -1.28,6.412 0,1.462 -0.27,2.946 -0.71,4.351 -0.48,1.539 -0.85,2.377 -0.87,4.054 0,1.083 -0.1,2.139 -0.16,3.241 -0.1,1.088 -0.39,2.467 -0.65,3.526 -0.69,2.695 0.61,4.441 -1.64,6.91 -2.01,2.21 -4.14,2.836 -5.49,5.31 -0.65,1.175 -1.19,2.447 -1.71,3.737 -0.96,2.395 -3.27,2.755 -3.12,4.216 0.23,2.4 0,4.745 0,7.407 0,2.588 -1.15,6.573 -3.61,7.005 -0.9,0.158 -1.83,1.104 -2.12,2.052 -0.15,0.508 -1.77,1.201 -2.25,1.777 -0.86,1.036 -1.48,2.254 -2.48,3.278 -1.26,1.3 -2.52,-0.245 -3.26,0.711 0,-0.927 -0.84,-2.601 -0.2,-3.363 0.52,-0.607 0.77,-1.153 -0.28,-1.48 -1.3,-0.405 -3.08,2.301 -4.2,0.814 -0.56,0.587 -0.46,1.323 -0.75,2.015 -0.39,0.92 -1.62,1.26 -2.28,1.945 -0.1,-1.206 -1.75,-1.374 -2.02,-2.521 -0.9,1.649 -1.81,-3.271 -3.36,-0.859 -0.53,0.827 -1.41,0.757 -2.06,1.32 -0.65,0.563 -1.77,1.865 -2.44,2.613 -1.59,1.757 -2.07,-1.515 -2.32,-2.46 -0.67,-2.464 -3.34,-4.61 -5.15,-6.305" fill="#2B1D24">
		
	</path></svg>
