<svg xmlns="http://www.w3.org/2000/svg" viewBox="1347 276.7 35.6 35.6"><path fill="#2b1d24" d="m1349.5 300.2.8-1.3c.3-.7-.2-1.2 0-1.8.3-.9 1.9-1.6 2-1.9q0-1.7 2.4-2.9 1.2-.9 2.3-2.4c-1.6.2-.6-2.3.7-1.1 1.4 1.3 2-.8 3.4-1-.7.8 3 .2 3.6.2 1.3 0 2.4.1 2.6-.7-1 .4-1.2-.6-.3-.9q.6-.1 1.3.2c1 .4 2.2.4 2.4.5 1.1.4 2.5.6 3.4 1.4 1.2 1-.6 2.7-.8 3.9 2.3-.3 2.5 1.3 4.4 1.7.8.2 1.1-1.4 2-1.1 1 .3.1 1.4 0 2 0 .4 1 1.7 0 1.7-.7 0-1.2-1.2-1.8-.6-.3.2-1 1.4-.5 1.6 1 .5.4.8.2 1.7-.9-.3-1-1.4-2.1-1.1s-1.3.5-2.2-.5c-.1 0-1.2-1.8-1.3-.4s-.1 1.7-1 2.7c-1.3 1.2-.2 4.2-2.1 1.4q-.7-1-1.6-1.4c-.9-.7-.5-2-1.4-2.6q-.7 1-2 1.5c1 1-1 2.9-2.1 2.8-2.1-.2-3.9 1.1-5.5-.6-.5-.6-1.3-1.2-1.1-2.1.3-1.3-.8-1.7-1.9-1.5-1.9.1-1.6 2.5-3.8 2.5"/></svg>
