<svg xmlns="http://www.w3.org/2000/svg" viewBox="1347.05 276.71 35.59 35.59"><path id="ch" d="m 1349.53,300.15 c 0.22,-0.435 0.47,-0.857 0.73,-1.269 0.33,-0.647 -0.18,-1.167 0,-1.775 0.34,-0.909 1.9,-1.616 1.96,-1.906 0.21,-1.166 0.79,-1.907 2.45,-2.854 0.9,-0.511 1.47,-1.572 2.33,-2.419 -1.61,0.193 -0.63,-2.333 0.69,-1.134 1.43,1.29 2.07,-0.831 3.45,-1.026 -0.72,0.841 2.92,0.195 3.59,0.23 1.3,0.07 2.33,0.109 2.61,-0.717 -1,0.371 -1.2,-0.555 -0.3,-0.865 0.37,-0.126 0.74,0.01 1.3,0.232 0.95,0.371 2.15,0.394 2.35,0.466 1.11,0.418 2.5,0.575 3.4,1.367 1.19,1.041 -0.58,2.737 -0.78,3.895 2.3,-0.289 2.48,1.374 4.36,1.738 0.81,0.157 1.13,-1.374 2.01,-1.123 1.04,0.293 0.15,1.454 0.1,1.987 -0.1,0.414 0.84,1.708 -0.1,1.733 -0.66,0.02 -1.18,-1.175 -1.81,-0.619 -0.23,0.2 -1.01,1.376 -0.46,1.626 0.96,0.441 0.39,0.776 0.24,1.713 -0.94,-0.376 -0.98,-1.388 -2.16,-1.152 -1.16,0.23 -1.28,0.475 -2.23,-0.432 -0.1,-0.09 -1.12,-1.842 -1.26,-0.409 -0.13,1.314 -0.1,1.634 -1.06,2.627 -1.21,1.266 -0.12,4.234 -2.05,1.4 -0.44,-0.631 -0.95,-0.94 -1.54,-1.386 -0.91,-0.68 -0.55,-1.972 -1.44,-2.593 -0.51,0.642 -1.12,1.291 -1.94,1.513 0.9,1.047 -1.08,2.889 -2.19,2.786 -2.1,-0.194 -3.84,1.136 -5.44,-0.554 -0.57,-0.596 -1.35,-1.222 -1.16,-2.16 0.28,-1.311 -0.76,-1.626 -1.88,-1.513 -1.88,0.191 -1.56,2.536 -3.8,2.593" fill="#2B1D24">
		
	</path></svg>
