<svg xmlns="http://www.w3.org/2000/svg" viewBox="1226.4 601.2 63.9 63.9"><path fill="#2b1d24" d="M1235 642.2c.5-.9 1.6-1.1 2-2.1l.5-2.4c0-1.3-.4-3.6-1.4-4.6q1-.7 2 .1c.2-.7 1.4-1.6.9-2.4s.3-2.1 1.2-1.6c-.7-1-2-1.7-2.2-3-.6-2.3 3.8-.4 4.5-.1-.5-1.6-.3-3.3-2.3-3.7.3-1 .3-2.2 1.7-2.4-1.1-1.3-1.3-1-1-3-2.4 1.6-2.3-3.8-2-5s1.2-1.5 2.2-1.8c.5-.1.6-1.2 1-1.5.6-.6 1.4-.2 2-.5 0 1.4 2.8 2.8 4 2.3-.9-1.3.4-1.4 1.4-1.4 1.2 0 .8-2 .8-2.8.5.3 1 1.2 1.7 1s.7-1.4 1.4-1.7c.6 1-.2 4.4 1.2 4.8s.3-2.5 4.2-2.4c.4 0-.8 1.1 2.3 1.3 1.5 0 1.8 3 2 3.3 1 1.2 3 2.5 5 3 0-1.8 2.5-2.2 3.7-2.7s4 .9 4.8-.2c1.2 1.4 1.7 3 3.3 4.5l.5-.7c.5 1.4-.6 2.8-.4 3.5.3 1.2 1 1.8 1.2 3.2.1 1.2.8 3 .4 4.2s-1 1.8-1.7 3c-.8 1.4-2.1 2.3-2 4 0 2-1 3.6-1.5 5.2s-.2 4.3.8 5.7q1.6 2.1 1 4.6c2.6-.8 1.1 3.1 1.6 4.3q-.8 0-1.5.3l.5-.8c-1.2 1.8-2.2-.5-2.5-1.4-.6.7-.9 1.7-2 1.8q-1.2 0-2.2-.8c-.4.7-1.3 0-1.6-.3.6-.1 1.3.5 1.8-.2l-.8-.6c.3 1.5-.2.1-1.2.4.2.4-2.4.2-3 .2-.4 0-3.6.6-3.3.8 1.6.9 4.7-2 6-.3q-3 .2-5.8.8c-.5 0-1.4.3-1.7-.3s-2.3-.4-3 .3c1.2-.5 1.8-.3 3 0-2.5.4-5.2.2-7.5 1.2-2 .9-3.8 2.5-6 2.7-1.1.1-3.6 1.4-4.4 2.2-1.9 1.8-2.2-1.5-1.9-2.9q.6-2.5 1.4-4.8.8-2.9-1.4-5c-.8-.6-2-1-2-2.5.2-1.7-5-.2-4-2.2q-1 .1-1.7-.6"/></svg>
