<svg xmlns="http://www.w3.org/2000/svg" viewBox="1226.44 601.24 63.92 63.92"><path id="ci" d="m 1235.05,642.222 c 0.43,-0.925 1.54,-1.127 1.93,-2.121 0.26,-0.659 0.46,-1.711 0.5,-2.414 0.1,-1.275 -0.43,-3.592 -1.35,-4.537 0.59,-0.624 1.41,-0.303 2.01,0.07 0.13,-0.756 1.34,-1.58 0.86,-2.412 -0.38,-0.673 0.25,-2.106 1.16,-1.62 -0.69,-1.022 -1.89,-1.656 -2.2,-2.917 -0.58,-2.373 3.85,-0.507 4.57,-0.179 -0.52,-1.576 -0.32,-3.334 -2.37,-3.672 0.37,-1.052 0.38,-2.173 1.73,-2.376 -1.12,-1.331 -1.34,-1.043 -0.94,-3.024 -2.44,1.573 -2.34,-3.84 -2.02,-5.04 0.31,-1.156 1.13,-1.45 2.15,-1.75 0.55,-0.163 0.59,-1.196 1.02,-1.562 0.63,-0.538 1.38,-0.19 2.09,-0.504 -0.15,1.404 2.69,2.806 3.82,2.304 -0.77,-1.267 0.53,-1.339 1.46,-1.324 1.24,0.02 0.8,-2.033 0.84,-2.852 0.49,0.271 0.99,1.189 1.66,1.008 0.64,-0.175 0.77,-1.378 1.44,-1.656 0.55,0.998 -0.23,4.356 1.2,4.714 1.31,0.322 0.26,-2.508 4.2,-2.389 0.38,0.01 -0.84,1.136 2.31,1.335 1.48,0.09 1.79,3.023 1.99,3.263 1.04,1.241 2.98,2.548 4.91,2.941 0,-1.747 2.59,-2.124 3.82,-2.592 1.12,-0.428 4.03,0.857 4.75,-0.216 1.2,1.431 1.69,2.989 3.31,4.535 0.18,-0.231 0.35,-0.471 0.51,-0.72 0.47,1.429 -0.64,2.794 -0.43,3.516 0.34,1.201 1.05,1.781 1.21,3.17 0.14,1.15 0.85,3.091 0.43,4.174 -0.48,1.219 -1.09,1.872 -1.69,2.979 -0.79,1.474 -2.14,2.331 -2.1,3.965 0.1,2.127 -0.99,3.677 -1.42,5.254 -0.46,1.669 -0.25,4.359 0.78,5.713 1.01,1.333 1.48,3.132 1.09,4.565 2.56,-0.709 1.06,3.18 1.48,4.393 -0.52,0 -1.02,0.06 -1.51,0.216 0.15,-0.275 0.31,-0.54 0.5,-0.792 -1.2,1.808 -2.2,-0.467 -2.45,-1.368 -0.65,0.72 -0.9,1.718 -2.01,1.8 -0.72,0.05 -1.64,-0.288 -2.16,-0.792 -0.4,0.733 -1.31,0.04 -1.66,-0.288 0.63,-0.138 1.32,0.475 1.8,-0.216 -0.21,-0.234 -0.45,-0.426 -0.72,-0.576 0.3,1.438 -0.29,0.1 -1.29,0.36 0.21,0.427 -2.37,0.183 -3,0.252 -0.32,0.04 -3.51,0.607 -3.26,0.746 1.61,0.867 4.75,-1.906 6.04,-0.278 -1.99,0.109 -3.9,0.437 -5.86,0.784 -0.44,0.08 -1.35,0.266 -1.63,-0.253 -0.4,-0.731 -2.33,-0.398 -3.02,0.261 1.13,-0.454 1.76,-0.333 2.88,0.07 -2.45,0.281 -5.06,0.147 -7.38,1.145 -1.99,0.861 -3.78,2.48 -6.01,2.707 -1.14,0.116 -3.57,1.4 -4.4,2.204 -1.88,1.807 -2.21,-1.531 -1.92,-2.906 0.35,-1.636 0.92,-3.442 1.37,-4.795 0.6,-1.794 0.1,-3.752 -1.33,-4.944 -0.86,-0.723 -2.12,-1.048 -1.97,-2.563 0.16,-1.738 -5.14,-0.226 -4.07,-2.224 -0.64,0.145 -1.21,-0.138 -1.65,-0.576" fill="#2B1D24">
		<!--Ivory Coast-->
	</path></svg>
