<svg xmlns="http://www.w3.org/2000/svg" viewBox="640.2 823.7 380.9 380.9"><g fill="#2b1d24"><path d="m871.4 1174.7-.7-.5zm13.9 3.6.1-.6q-.7-.2-1.5.2.8-.1 1.4.4m2.4-.1q0-.7-.8-.3zm1 .1-.7-.7zm-3.1-6.3c-1.2-1.5-7.2-2.8-8.5-.9 1-.5 1.3 1 1.9 1.5s3.7.4 2 .6l1.5.1c.4 0 0-.4.1-.6.6-.5 1.2.8 1.5 1 1 .4 1.8-.9 1.5-1.7m-2.1 4 .5-.7q-1.2-.4-.5.7m3.1 1.3a2 2 0 0 0-1-1.2l-.5.8zm-1.2-6.4c0 .6 1 .5 1.5.5zm1.9 1.9q-.6 0-1 .5.8.4 1.5.2zm2.1.4c.5-.5 0-1-.6-.7zm-56.6-16.7c-.6 0-.8-.1-.8.6zm2.8 2.8.5-.7q-1.3-.3-.5.7m1.9-1.6-1.1.1.6.7-1.5-.3c.6.2 3 1 2-.5m7 6.1a7 7 0 0 1 2.6-1.2c-.8-.2-.9-1.5.2-1-.3-1.5-1.9-.8-2.4-1.7-.5-.7-1.7-1.3-1.6 0-.3-.6-1.4-1.7-1.5-.3-.4-.6-1.7-2.3-2.6-1.7l.4.8h-1.5q1.4.9 3 1.3c-1.1.1-3-1.5-3.7 0q1-.3 1 .6c1.8-.8 1.3.4 2 1.5q.8 1 1.5.1 1-1.3 2.6-.6l-.8.8.8.5q-.7.4-1.5.5.7 0 1.5.4"/><path d="M841.6 1163.8c0-1-1-1-1.5-.5q.9-.2 1.5.5m6.1-.5h-.4q.6 1-.5 1.1c1 1 2.4-.6.9-1m.4 2.8c.2-.4.2-.6.8-.5q-.7-.6-1.5 0zm.2-4.7q-.4 0-.7.3z"/><path d="M851.1 1162.2c-.6-.2-1 .4-1.4-.3s-1.6.6-2 .7c.3 1.2 3.5 1.3 3 2.8 2 0 .1-1.4-.4-2q.7.6 1.5.3-.6-.7-.7-1.5m-1.3 4.4-.7-.2z"/><path d="M850.2 1166.3q.4-1-.7-.5zm3.8-3.5q-1.4-.6-2.6-.3c.1.1 2.2 4 2.2 1.2 0 1.7 2 0 1.6 1.7l1.6-.6c-.4-.5-2.2-2.6-1.8-.6q-.9-.5-1-1.4m-1.3 6.1c-.1-.5 0-.7-.7-.7z"/><path d="M853.7 1164.7q0 .6.6.7zm6-.1c-.3-1-1.2-1.4-1.6-2.2q.7.6 1.5 0c-1.2-.5-1-2.1-2.1-2.7-1.6-.8-.9 1.4-.2 1.9a2 2 0 0 0-1.5 0q1.3 2.5 4 3m-.4 5.9.2-.6c-1 .1-1.8-.5-2.8-.2q0 .4.4.7c.6-.8 1.6-.5 2.2.1m1.1-6.5q.3-1.4-.7-.3zm3.4 8.6q.1-1.2 1.2-.7c-.4-1-2-.8-2.8-1q.9 0 1.3-.8c-.6-.1-1 .6-1.7.5q-1-.3-2.1-.1c.7 1.7 3.3.3 4 2m-2.4-7.5c.2-1-1-.8-1.4-.5z"/><path d="M862.7 1169.6a2 2 0 0 0-1.5.4q.9.2 1.5-.4m3.3.6-.5.7c.6 0 .5-.2.5-.7m1 2.7q-.1-.5-.7-.5zm.1-1.7c1.3-.2 2.8.1 3.8-.9-1-.2-3.5-.6-4.4.2z"/><path d="M867 1172c.2.6 2.2.9 2.8.7-.7 1.4 2.7 2.2 3.5 1.7l-1.5-1c-2-1.3 1.4-.6-.8-1.3.9-.3 2 .8 3 .9s1.7 1.1 1.3 1.7c.8-.5 3 0 3.9.3 1 .2 1.2 1.5 2.5 1.2q-1-1.5-2.7-2.2c-1-.3-2.4-.1-3-1 .8.7 2 .4 3 .2-1.9-1.3-4.6-.2-6.1-2 1.4.6 1.9.4 3.3.4 1 0 .4-1-.3-1.2q-1.7-.1-3.3.5c-.6.2-4-.4-2.9 1.1-.4-1.2-2-.8-2.8 0m.8 1.4q-1 .1.3.5z"/><path d="M870 1174.2q-.1-.6-.8-.5zm-49.9-28.9c.9-.3.2-1.2-.3-1.4q-.2.8.3 1.4m1.9 1.9c.4-1 .3-3.8-1.3-3.6l.8 1.4c-1.3-.3-.2 1.7.5 2.2"/><path d="M822.7 1147.3c.5-.5.8-2.6-.5-2.2zm1.6 1.5c.8-1-1-.7-1.5-.8zm-.9-2.1q.6 0 1.1-.8-1-.1-1.1.8m3.1-.9c0-1-2.2-2-3-1.9q1.4 1.2 3 1.9m.3-1.3.5-.4-2-1.7c.3 1.2.2 1.6 1.5 2.1m1.7 4.9q.6-.1 1-.7c-.9-.4-2.7-2.4-3.7-1.3.9-.2 1.6.5 2.3.8-1.8-.5 0 1 .4 1.2m8.5 7.6q.9.3 1.9.1c-1.1-.3-2-1.2-3-1.5 2.2 2.2-3.1-2.1-.7.1-1.6-1.2-3.2-1.2-5-1.7-1.3-.3-2.5-1.8-4-1.5 1.8.9 3.1 2 5.1 2.7 1 .3 2 .1 3 .5.9.3 1.6 1.7 2.7 1.4"/><path d="M827.4 1147.3q-.2-.6-.8-.4zm1-2.7c0-.7-1-.9-1.5-1q.7.7 1.5 1m2.2 3.4c-.3-1.4-2.4-2.3-3.7-2.4.8 1.3 2.6 1.5 3.7 2.4m-2.3-2.6c-.3-.3 0-.6-.7-.4zm2.2 4 .5-.1c-.5-1-1.7-1.6-2.7-1.5z"/><path d="M829.1 1146.2q.8-.6-.5-.7zm.5 1.7q.2-.7-.8-.3.5 0 .8.3m1.8 4.3c1-.6.6-2.7-.7-2.5-1 .2.7 2.1.7 2.5m2 3.2q.2.3.7.5zm2.3-1.4c-.2-1-1.6-.8-2.3-.4q1.2-.3 2.3.5m-1.9-7.5q1-.4.6-1.3-.8.4-.6 1.3m-22.3-17.9c-.5-1.5-2-2.2-3.6-2.4.2.8 1 2 1.8 1 .1 1 1.3.8 1.8 1.4m2.5 3.3q.3-.8 1-1.3c-.8.5-1.6.5-1.4-.6q-.5.3-1-.2c-.5-.4-1.3.1-2 0 .6.5 2.5.7 2.4 1.7-1 .2-.8-1-1.8-.9q-.1.7.4 1.3c.6.6 1.8-.1 1.1 1.1q.9-.2 1.2-1m.2 4c.3-.7-.4-1.3-.7-1.8q1 .4 1-.6c-.7.2-1.4-.4-2.1.1q1 .5.2 1.3c.9 0 .7 1 1.6 1m.6-3.3q-.3-.3-.7 0zm1.5 3.5c0-.6-.2-1.4-1-1.3q0 .9 1 1.3m.5-2.6q.5-.4.5-1-1 0-.5 1"/><path d="M818.7 1137c0-.6-1.6-2.3-2.2-1.8-1 1 1.5 1.7 2.2 1.7"/><path d="M819.4 1138.8q.7-1.2 2-.7c-1.2-.8-1.3-2.6-3.2-2.3l1.2 1.5-2.3-.4c0 .9 1.5 1.8 2.2 1.1zm-1.7 4.3c1.1-.2.6-1.7.7-2.5q-.9.6-1.2-.4c0 .9-.1 2.2.5 3m4-6.6c0-.9-1.2-1.3-1.8-1.6 1.3 0 .4-.2-.1-.8q-.9-1-2-.5.8.7 1.2 1.5c.7 1 1.8.8 2.7 1.4m-2.5 5.2c.8-.2 1.3-1 1.5-.2v-1l.8.6c-.7-1.2-1.7-2.5-2.8-.6q1 .4.5 1.2"/><path d="M821.7 1139.6c.1-.8-.9-.8-1.2-1.5-.7.9.6 1.2 1.2 1.5m1 .1.5-.2q-.8-1.1-2-2zm2 1.9q-.2-1.2-1.4-1 .5.7 1.4 1"/><path d="m824.7 1141 .7-.5q-.5-1-1.3-.3zm1.9 0q0-1-.9-1 0 1 .9 1m-19.8-22.4c1.3-1.4-3.2-6-5-5.1.4.4 1.5.9 1.6 1.4 0 .8 1.1.7-.1 1.2.6.2 1.4-.6 1.7.2.3.7 1 2 1.8 2.3m-3.1-7.3q.3-.7-.3-1.1l-.5.7z"/><path d="M804 1118.5c1 .2 1.7-.5 1.1-1.4-.6-1.1-1.2-.4-2.1-.1q.5 1 1.8 1.1z"/><path d="M804.4 1119.4q1-.3 1.7-1c-.9-.3-1.5.6-2.3.2zm.3-8.5q.4-1.2-.7-.6zm1.8 2.4q.4-1.3-.8-2.1-.4.7 0 1.4c-.5-.4-1.8-.7-1.5.4.8-.7 1.5.1 2.3.3m.5 3.1c2.3-1.7-1-3-2.6-2.7q1 1.6 2.6 2.7m.9 5.4c-.1-1.2-2.4-2.3-3.3-1.6.2 1.4 2.6.4 3.3 1.6"/><path d="M806.4 1113.8c-.2-.6-1-.8-1.5-.7q.8.2 1.5.7m-.4 8.1q0-.7-.8-.3zm.9 1.5c-.3-1 1.5-1.7-.2-2.2 0 1-1.7 2 .2 2.2m1-2.3.8-.4a2 2 0 0 0-2.1-1.1zm-.7-8.1q-.2-.5-.6-.8z"/><path d="M807.8 1119.7q0-.7-.6-1-.5 1 .6 1m2.8-1.2c1.3-.3-2.5-4-3-4.6l.3 1.5 1 1.4c-.6-1.3-2-.5-1.4.7.6 1 2.3.6 3.1 1m-2.6 7.2q-.2-.3-.6-.4z"/><path d="M814 1129.5q1 .5 2 0l-.5-.6c1.3.9.8-1.4-.3-1.5 2 .3-.8-2.2-.5-.2-.2-1.7-.3-4.1-1.6-5.3-.5-.5-.2-1.2-1-1.5-.5-.1-1-2.8-1-.9-.8-3-3.6 1.3-1.6.4-1.6.4 0 1.4.7.7-.5.7.8 2.7 1 3.4l-1.5-.9c1 2-1.8-.9 0 1.2q-.6-.7-1.5-.6l1.5 1.4-2.2-1.6c-.1 1.3 1.3 1.6 2 2.5.6 1 1.7 2.4 3 2.5.1-1-1-1.3-1-2.2-.1-1 .8-1 1-1.8.8 0 1 1.1-.2.8q0 .9.9 1.2l-.8.4q.6.7 1.5 1c1 .6-.8 1.3.8 1zm-5.8-10.5q1-.9-.3-.8 0 .4.3.7m0-7.2c.2-.4.5-.3.2-.8z"/><path d="M810.6 1123.5c.3-1.3-1.8-3-2.2-1.6-.2.5 1.9 1.3 2.2 1.6m-1.4-.2q-.2-.3-.7-.3zm.8-7.7c1-.8-.3-1.6-1.1-1.6zm0-3.1c.9-.2 1.9 0 2.5-.8-1.2-.6-2.4-.1-3.6-.3q.1 1 1.1 1.1m2.1 4.1c.2-.7-.9-1-1.3-1.3-.4.9.8 1 1.3 1.3m1.5.3q-.4-1-1.5-.8zm.6-4.1q0-.6-.7-.6zm1.2 13.5.7-.5q-.6-.8-1.5-1zm0-12.7-.7-.4zm-16.5-20.3-.8-.4zm.4.2.7.2-.1-1.5q-1.1.4-.6 1.3m5.3 1.6c0-.6.1-1.6-.8-1.5q0 .8.8 1.5m1 .6q.4-.7 1-1c-.7-.8-1.9.2-1 1m.3-1.9q-.1-.6-.7-.8zm.5-5.2-.7-.7zm-.4 17q.5-.3.5-1-1.2 0-.5 1m1.3-8c.3-1.1-.6-2-1.5-1.1q.8.3 1.5 1"/><path d="M807.2 1096q-.3-.6-1-.8 0 .9 1 .8m-10.5-16.4c-.4-.1-.3-.4-.8-.1zm3.1 2.9c.5-.6-.4-.7-.8-.4zm-5.7-22.2q-.9-.7-1.2.4c-.5.7-1.9-.8-2.5-.8 1.3 1.3.2 3 .8 4 1 1.8 1 4.3 1.8 6 .3.8-.5 1.3-.1 2 .3.9 1.3 1.1 2 1.3l2 .5c1.3.1.2-1.9.1-2.3 2-.2 0-1.7-.6-2.3h1.4c-.3-.5-4.2-3-2-3-1.7-1 0-1.5.8-2.2q-1.6-1.5-2.5-3.6m-2.6 15.4.7-.5q-.8-.6-1.5 0zm2.3 11q.4-1-.7-.7zm1.2-2.1q.1-.6-.5-.7z"/><path d="M796.1 1067.2q.3-1-.7-.1zm1-.7q-.3-1.1-1.5-1 .9.4 1.5 1m.2 18.2q-.6-1-1.5-.1zm-.1-1.3q.5-.4.3-1.2-.7.7-1.5.4.3.9 1.2.8m-.2-3.4-.7-.2zm0 1.4-.6-.2zm1-3.1q-.2-1 .7-1.1c-.8.2-1.6-.2-2.3.6q.8 0 1.5.5m.5 7.8c.2-.8-.7-1.1-1.3-1q.5.7 1.3 1m-.7-25.6q0-.6-.6-.8zm1.2 9.7q-.7-.6-1.5-.4z"/><path d="M799 1085.7c.9-.3 1.4-1 2.3-1.1q-1.2-1.1-2.8-.7c-1.6.5-.4 1.5.6 1.8m.1-4.1.2-1q-.7-.3-1.5-.1.4.8 1.3 1m-.2-2.9-.6-.2zm.7 4.9.2-.6-1.5-.4q.4.9 1.3 1"/><path d="M799.7 1080.5q-.3-.6-.9-.9 0 1 .9.9m-.7 6.8c1 .3 2-.2 2.9-.5q-1.7-1.2-2.8.5m1.2 2.6q.1-1.1-1-1.3.1.9 1 1.2m-.1-8.2q.2-1.1-.8-.1z"/><path d="M800.2 1090.6q.3-1-.7-.2zm.7-10.6c.3-.9-.6-1.4-1.2-1.5q.4.8 1.2 1.4m-.4 2.8q.6-.7-.5-.7zm.2 3.4v-.8l-.7.6zm.4 7.8c1-.5 1.3-2.5-.1-2.6-1.6-.1 0 2 .1 2.6m1-6.6-2 .6c.2 1.5 3 1.4 4.1 1.2-.1-1-1.1-1.8-2-1.8"/><path d="m802.8 1090.4 1.3-.2c-.4-.8-2-1.2-2.9-.8q.7.7 1.6 1m-.3-3.5c.4-.8-.4-1.5-1.2-1.2q.4.8 1.2 1.2m-.1-1.8 1-.2c-1.1-2.1-2.8-.5-1 .2m-.2-22.1q.2-.8-.7-.4zm.4 29.2c.4-.7 1.3-.4 1.8-.2-.4-1.1-2.5-1.1-1.8.2m.4-6.3h.5q0-1-.9-.7z"/><path d="M803.6 1091q0-1-.8-.2zm.4-12c-.2-.8-.3-1.5-1.2-1q.3 1 1.1 1m.2 14.5c1.1-.7-.5-1.7-1.3-1.2q.5.8 1.3 1.2m4.3-8.5-.6-.8c1-.3.8-1.3-.2-1.4q-.5 0-.9-.2c-.8-.7-.7.3-1.8-.3q-.2.9.7 1.2-.7.5-1.5.5c.2.7.7 1.7 1.6 1.5-1.6.3 0 1 .6 1 1 .2 1.6-.9 2-1.5m-1.7 8.7c0-.3-.4-2.7-1-2.5-1.8.7.3 2 1 2.5m-4.3.4-.3-.8q1.5.2.2.8m33.8 53.8-.1-.8.4.8z"/><path d="M771.6 857.3c1.6-1 3.5-.1 4-2.3.4-1-1-2.5-.2-3.4q.3-.2.6-.1c.6 0 1.2-1 1.6-1.5 0 1.3 1.3 1.8 1.6 3q.5 1.4 2.1 1.6c-1 1 .5 3.6.8 4.6.9 2.6 1.4 4.1 3.6 5.9 2 1.6 1.1 2.1.3 4.1-.2.4 1.4 1.4 1.4 2 0 1-1.3 1-1.9 1.3 1.1 1 .3 2.1 1 3.2.3.6 1 .4 1.4 1 .5.7 0 .7 0 1.5.3 2.2 3.3 3.2 3.5 5.7.3 3 2.4 5.6 3.2 8.5.7 2.2.7 5 3.8 4 3.3-1 3.4 1 3.1 3.7-.2 2 0 5.9-1.8 7.4q-5.7 1.5-7.1 5c-.3 1 1.2 2.6 1.6 3.5-2.3.1-.7 3.7-.2 4.8l1.4 3.2c.5 1.5-1 1.8-.8 3.1.1 1.9 3.2 3.3 2.8 5-.3.9-2 1.7-2.7 1.3-1-.5-1.4 2.3-1.5 2.8a17 17 0 0 1-3 8.3c-1.5 2 .4 3.5-.4 5.7-.4 1.1-1.6 1.2-1.2 2.6.4 1.2 1.2 2.2 1.5 3.3l.7 1.9.7 1.6c.4 1.2-.9 3-2 1.7.8 1 0 2.8 0 4 0 .7.5 1.8-.3 2.4-.5.5-.5.4-.6 1.4-.1 1.7 1.2 3.4 2 4.7.4.7.8.5 1.2 1.1s.3 1.4-.4 1c.5 2 2.5 3 2.8 4.9q.1 1 1.3 1.7c1.1.6 0 1.7.2 2.6.6 2.2 3 .3 2.9 2.8 0 2-.3 3.7.8 5.5.2.2 1 1.8 0 1.8-.7 0-.7.5-.9 1l-.5 2.5c-.2 1 .2 1.9.3 2.9.1 1.4-.6 1.7-1 1.6-.8-.3.2.5.6 1a13 13 0 0 1 2.3 6q.2 1-.7 1.2c-.6.1-.8 1-.8 1.5-.1 1.6-1.5.1-2 2.1q-.2 1.3.3 2.5.2 1.3.8 2.5c1.2 2.1 1 3 1.1 4.3.2 1.7 1.7 2.6 2.4 4q.5 1.4 1.5 2.6c.3.4 1 1.4.7 2-.6 1.4-2.8 1.3-2.3 3.2.2 1.2-.3 4 .6 5-1 .2-1.8.5-.9.7.4.1 2.4 4.1.3 3.5.3 1 1 1.1 1.3 2 .2.6-.2 1.6-.3 2.2q-.5 2.7 1.6 4.5c1.1 1 1.3 3 1.4 4.8.1 1.5 1.7 2.4 2.5 3.6-.6.6-1.7.3-2 1.3-.1.8 1 2 1.2 3 .1 1.2.7 3.5 1.7 4.1.8.6 2.6.2 2.7 1.7 0 1.3-2 .3 0 2l1.3 1c.8 1 0 .6.2 1.2s.7.8 1 1.4c.5.8-.3 1.3 0 2 .6 1 .7 1.7 1.7 2 1.4.2 3.1-.3 4.2.8.3.3 0 2-.2 2.2-1 1-2.8.5-4 .5-2.4.1.3 1.1 1.4 1.2 2.5.2 6 2.7 3.2 5-.3.2-.7-.1-1 .3-.4.6.8 1.3 1 1.9 0 .5.6.6 1 1 .4.6-.4 1.9-1.1 1.9 1 .7 3.8 3.3 3 4.8-.4.7-1 .8-.5 1.8.1.3 0 1.1.3 1.3q.7.3 1 1.2c-1.1-.2-2 2.7-2 3.5 0 1-.2 1.9.4 2.7.6.7 3.2 2.1 2.9 3.2-.2.6-1 .7-1.3 1.3-.3 1 1.6 2.1.7 3.5-.4.8-1.3.3-1.6 1.1-.4 1-.1 2.7-2 2.4.2 1-.2 2.4.7 3 1.2.7 1.7 2.2 1.8 3 .1 1.2 2 2 2.7 3 .6.9 1 2.2 2.1 2.7.8.3 1.2-.2 1.7-.6.7-.5 1.2-.2 2-.2 1.5 0 1.8.2 2.8 1.7.7 1-.3 2.4.7 3 .9.4 1.6 2.3 1 3.2 1.5.2 3.5 1.8 4.3 3 1 1.3 5.5.5 6.8.4 5.6-.6 11.2.8 17.4 3-1.5 0-2.8-.7-4.2-1-2.6-.4-1.3 1-2.1 2-.7 1-2.2 0-3 1-1 1.2-2.8 1-4.2 1.4 1 1.1 1 2.6 1.3 4s1 2 1.7 3.1c1.7 3-2.3 2-3.8 1.7-1.8-.3-6-1.5-6.6-3.5-.7-2 3.2-.8 1.5.5 1 0 .7-1.1 1-1.6.3-.3 2.3 1.4 1.3 2.4 1.6-.5-1.3-3 1.7-3.5.5 0 .6-1.5.6-1.8 0-1-1.7-.8-2.3-1.4 0 1-1.5 2-2.2 2.6-1.2 1-2.4-.5-3.6.3.9-.2 1.6.6 2.2 1q-.7.3-1.5 0 .3.8-.2 1.4 1.4.4 2.2 1.4c-2.1.6-5.8-1.8-7.4-3.2q1.8.6 3.8.5c-.2-1-2.5-1-2.6-3 0-1 2-1.6 1.6-.1 1.2-.4 1.4-.3 2.3-1.4s3.2.6 4.5-.3c-.8-1-6-1.8-6.3 0-.7-.2-1.3-.5-.1-1-.7 0-3.4.1-2.8 1.4q.7-.7 1.5-.1a2 2 0 0 1-1.2 1.1c.3.6 1.5 2.2 0 2.3-.9.1-2.9-1-1.1-1.6-.9.3-1.6-.4-2.2-.9h1.5l-.8-.4c1-.6-.1-1.8 1.2-1.5q-1.5-.6 0-.5h-1.5q.8.7.3 1.5-.4-.7-1.3-.9 0 1-.9 1.4.5-1-.6-.8c1.6-1.4-2.3-3.8-2.6-5 .7.7 1.9 1.5 3 1.4.4 0 2.3-1.7 1.8.3.8-.5 2.2.3 1-1 .5 1.7-.6-.6-.6-1.4.9.1 1.6 1 2.2 1.4 1.2 1 .5 1.8-.2 2.7.7-.5 1.5-.1 2.2-.1-1-.5-.2-1.7-1.1-2.2-.6-.3-2.4-1.7-.8-1.9-1-.8-1.4-2-2.5-2.6s-2.6-.8-3.6-1.7l-.4.7c.9-.1 5.3 1 5.2 2.3 0 1-4.6-1.4-5.3-1.3.5.6 1.2.5 1.7 1s.2 1.3 1.2 1.3a3 3 0 0 0-.7 1.4q-.9-1.7-2.2-2.9c.8 1 2 2.3 1.9 3.7-1.1-1-2.6-1.4-3.2-3l1.5 1.2c-.4-.7-1.6-1.2-1.3-2.1-.5 0-1 .4-1.5.3-.4 0-.3-.8-1-.9-.5 0-1.3-1.6-1.4-2.2 1.2.4 2 1.5 3 2.2-1-1.1-1.6-2.5-2.7-3.5 1.5 1.4.3-.4-.4-.5l-.2.7q-.9-.3-1.6-.9c1 1.7-1.4-1-1.8-1.4s.7-.6.9-.6l1-.1c1.2 0-1.2-1.4.6-.4-.6-.5-.6-1.7.5-1.6-.9 0-1.8-.8-1.2-1.7-.8.7 0 2.3-.6 3.1-.6 1-3.1-2.4-3.6-2.7q.8.3 1.5.8c-1.5-1.4 0-.4.8-.5-.9-.8-3-.7-3.4-1.9 0 1.7-1.8-.8-2.8-.9 1-2 4.3 1.1 5.9.9-1.5-.3-4.4-1.2-4.6-3 1.2 0 2 1.2 3.2.8q-1.2-.1-.6-1.2c-.7 1.7-4.2-1-1.8-1.4-.5.2-2.5-.4-1.4-1.1 1.5-.9 2.6.7 4 1.1l-2.9-1.7c-.4-.3-1-.3-1-1s.7-.8 1.2-.5c-.8-.4-2.2-3.3-.6-2.4q-.8-.6-1.5.1c.4.4.4 3.3.1 3.7-1-1-2.8-3-2.7-4.6 0-.4-1.3-1-.7-1.6.4-.3 1.5-.4 2-.2-.2-.1-3.8-.5-2.5-1.8.6-.5 2 .3 2.6.5q-1-.7-.5-1.5c-.4 0-3.3-.2-1.5-.8-1.7.8-2.7-2.5-4.4-2-.3-2 2.6.3 3 .8l-1-1.4c1.3-.2 2.3.4 3.6.8.5.2 1 0 1.5.3.7.5 1.5.3 2 .7q.4-.6 0-1.2c-.4 1.6-2.8-.6-2.9-1.4 1 .7 2 .5 3 .8l-1.1-.2c-.9-.1-1.3-1-1.9-1.4s-1-.2-1.5-.8c-.3-.5 0-1-.6-1.5.7.8.9 2.8-.8 2.4-1.4-.3-4.3 0-5.3-1q1-.4.5-1.2c1.4-.4 2 1.3 3.3 1.6-1.1-.2-.5-1.4.4-1-.2-1.4-1 0-1.7-.5-.6-.3-.8-1-1.5-1-.8 0 .3-3.4 1.5-1.5q-.3-1 .6-1 0-.4-.4-1c-.1 1-1 1.3-1.5.4l1.5-.4c-.5-.7-1.5-.8-2.1-1.2-1.4-.9-1.7-1.3-3.3-.5q.9-.2 1.5.6-1.8-.4-3.5-1.2c-2-1-.6-1.5-1.3-2.7-.7 1.3-3.5 1.5-3.6 2.8 1.3-2.1 3.4 3.1.4.8-2-1.5-.2-5.5 2.2-4.5q-1.2-.2-.5-1.2c1.2 1 .6-1.2 1.8 0-1-.7.3-1.6-.8-2.3.6 2.8-2.8.5-.8.6-.7 0-1.6-.3-1.8-1.1 1 .3 2-.6 3-.4s1 1.1 2 1.2c-1.3-1 0-1.3.8-1.4s.6 1 1.5 1c-.5.8.6 2.1.3.6 2.2 1-1 2.4-2.3 1.8.8.5 3.5 1 4.5.8q-1-.3-.9-1.3 1 .4 1.7 1.3c.3.9-.6 1.6-.2 2.4 1.4-.2 1.9-3.6 1.6-4.7q-.2 1.2-1 2.3c.2-1.6-2-5.4 1-5.4-.8-.4-1.6.2-2 1-.2-.8-.7-1.7-.5-2.4.2-.8 1.1-.8 1.4-1.7q1 1 2 1.3c1 .5 1.3-.5.5-.4q-.8 0-1.5-.6c-1-.6-2 0-2.9-.5 1.6-1.2-2.1-2.4.8-2.8 2.1-.2 3-3.2 2-4.9-.8 1.3-5.3-1.2-5.2-2.4q.3-.4.7 0c-1.3-1.4 1.4-2.3.5-3.5-.2 1-1 1-1 0 0-1.1-.9-.7-1.4-1.8-.4-1 0-1.3.3-2.2 0-.4-.9-1.9.6-1.5 0-.9-.6-1-1.1-1.6-.4-.5-.3-1.1-.6-1.6-1.1-1.9.3-.8 1.5-1-1.1-.2-2.3-1.5-2.6-2.5 1.6-.6 2.4.8 3.2 2-.2-1.6-1.2-3.1-2-4.4-1.4 1.4-3.5-.6-1.7-1.8 1-.7 2.6-1.3 1.2-2.7.9 4-2.2 1-4 .6-1.4-.3-.4 1.8-1.2 2.3-1 .8-5.2-.5-3-1.5-4 0-4.5-6.3-5-9-.1-1.2-.9-4-.3-5.1.5-1.2 1.3-.2 1.1-1.7-.2-1 .3-2 0-3.1-.4-1.7-.9-2.5-2-4.2s-2.6-3.3-3.2-5.3c-.3-1.2 0-2.1-1-3.2l-1.7-2.2c-.3-.7.2-1.1 0-1.7-.5-1-1-1.6-1-2.7 1 .6 2.4 1 2.9-.3.5-1.6-1.1-2.8-.6-4.4q0 .9 1 .9l-.3-1.2c-.2-.7.4-1.5.4-2.3 0-1.5-.9-2.5 0-4 .8-1.1-.6-1.8 0-3.2.4-1 1.2-2.8 1.4-3.9.3-2.6-.8-5.4-.7-8 0-1.5 1.4-2.7 1.4-4s-1-2.5-1.4-3.5.2-2 .5-2.9c.4-.8-.2-2.3-.3-3.1-.1-.6.3-1.1-.2-1.7q-.8-.9-1.1-1.9c-.6-1.6-.8-3-1.5-4.7-1.2-2.9-2.6-6-3-9.1-.4-1.6 0-1.8 1-2.6 1-.6 0-2 .7-2.8.5-.7-1.3-5-1.9-5.4-.8-.7-1.8-2.5-1.2-3.6.7-1.4.8-2.7 1.3-4.2.3-1-.4-2.7-.3-3.8 0-1.7 1.3-2.7.6-4.5-1-2.6.4-5.9.4-8.7 0-2.4-1.5-4.5-1.4-6.8.1-1.3 1.5-1.5 1.5-2.8 0-1.7-1.3-3.4-1.7-5-.4-1.8 0-3.5-.3-5.3-.1-.9-.5-1.5-.2-2.4q.5-1 .3-2.3c-.2-.9-1.6-.3-1.8-1.4-.3-1 .1-2.2.2-3.3 1.7 1.5 1.6-3.4 1.6-4.2 0-4.2.8-9-.8-13-1.7-4.3-.6-9-2.2-13.3q-1-2.9-1.7-5.8c-.2-1.2.4-3.6-1-4.2"/><path d="M856.2 1157c-.5-.7-1.3-2.2-.7-3 .2 1 1.6.9 1.5-.1-.1-.6-1.8-1.2-2.3-1.3.9-.8 2 .1 2.8.3 1.9.5 1-1.7 1.6-2.5s2.3 1 2.9 1.2c1.1.3 2-1 3-.4 1.2.7 1.3 2.3 2 3.3q1.5 2.2 2.3 4.6c1.6 3.7 4 7.1 5.2 10.9l-2.2-1q.6.7 1.5 1c-1 1-3.6.3-4.8 0-.6-.3-1.3-1.3-2-1.1-.9.2-1 .5-1.8-.3l.5 1c-.5-.6-3 .5-2.1-1-.1.7-2.6 1.1-3.3.8l1.4-1c-.9-.6-2 .5-3 .7q0-.8-.6-1.5c-.4 1.8-1.7-.3-2.3-.6 1 1.3-1 .8-1.7.7-.5 0-1.2.5-1.7.4-.5-.2-.7-1.2-1.1-1.5.9 0 1.5.7 2.3.8q0-1-1-.9.8-.2 1.5.4c-1.6-1.5 3.2.1 3.7-.5s0-1.4 1.2-1c.9.2 0 2.6 1.4 2.2q-.7-.5-.6-1.4c1.2 0 2.5 1.6 3.7 1-1.2-.7-2.5-1-3.6-1.9-1-.7-2.3-.1-3-1.3 2 .3 4.3.9 6 2.1-.7-.4-.9-1.3.2-1 1 0 1.6 1 2.3 1.5a3 3 0 0 0-1.1-1.3c.9-.3 1.9 1 2.5.5 1-.6 2.5 1 1.7 2q.5-1 1.4-.5c-1-.9-.1-1 .6-.8-2.6-2.3-8-1.5-10-4.7-1.5-2.3 4-1.8 3.4-3.9-.9-2.5-6 1.7-7.7-1"/></g></svg>
