<svg xmlns="http://www.w3.org/2000/svg" viewBox="640.17 823.74 380.86 380.86"><g id="cl" fill="#2B1D24">
		
		<path id="path6426" d="m 871.37,1174.66 c -0.168,-0.24 -0.405,-0.39 -0.71,-0.43 0.236,0.15 0.473,0.29 0.71,0.43"></path>
		<path id="path6432" d="m 885.34,1178.26 c 0.02,-0.19 0.05,-0.38 0.07,-0.57 -0.531,-0.13 -1.035,-0.1 -1.51,0.21 0.526,-0.1 1.006,0.1 1.44,0.36"></path>
		<path id="path6440" d="m 887.65,1178.19 c 0.119,-0.49 -0.121,-0.59 -0.72,-0.29 0.24,0.1 0.481,0.2 0.72,0.29"></path>
		<path id="path6442" d="m 888.66,1178.34 c -0.15,-0.29 -0.367,-0.53 -0.65,-0.72 0.217,0.24 0.433,0.48 0.65,0.72"></path>
		<path id="path6428" d="m 885.56,1172.00 c -1.135,-1.51 -7.188,-2.84 -8.5,-0.86 1.103,-0.55 1.323,0.92 1.917,1.46 0.514,0.46 3.773,0.44 2.043,0.63 0.505,0.1 1.012,0.1 1.521,0.1 0.405,-0.1 -0.09,-0.48 0.1,-0.64 0.589,-0.5 1.153,0.82 1.485,0.98 0.93,0.44 1.734,-0.85 1.435,-1.64"></path>
		<path id="path6430" d="m 883.47,1175.96 c 0.167,-0.21 0.333,-0.43 0.5,-0.65 -0.8,-0.3 -0.967,-0.1 -0.5,0.65"></path>
		<path id="path6434" d="m 886.64,1177.33 c -0.172,-0.54 -0.509,-0.95 -1.01,-1.23 -0.221,0.24 -0.388,0.5 -0.5,0.8 0.501,0.15 1.005,0.3 1.51,0.43"></path>
		<path id="path6436" d="m 885.41,1170.85 c 0.08,0.63 1.047,0.55 1.45,0.57 -0.453,-0.26 -0.936,-0.46 -1.45,-0.57"></path>
		<path id="path6438" d="m 887.29,1172.79 c -0.392,0 -0.705,0.19 -0.94,0.51 0.453,0.26 0.933,0.33 1.44,0.21 -0.167,-0.24 -0.334,-0.48 -0.5,-0.72"></path>
		<path id="path6444" d="m 889.37,1173.22 c 0.573,-0.55 0.114,-1.03 -0.57,-0.72 0.165,0.26 0.355,0.5 0.57,0.72"></path>
		<path id="path6364" d="m 832.78,1156.52 c -0.546,0 -0.771,-0.12 -0.79,0.58 0.277,-0.17 0.54,-0.36 0.79,-0.58"></path>
		<path id="path6372" d="m 835.59,1159.33 c 0.17,-0.24 0.34,-0.48 0.51,-0.72 -0.892,-0.24 -1.062,0 -0.51,0.72"></path>
		<path id="path6374" d="m 837.46,1157.67 c -0.363,0 -0.723,0.1 -1.08,0.15 0.187,0.25 0.38,0.48 0.58,0.71 -0.497,-0.14 -1,-0.26 -1.51,-0.35 0.644,0.24 2.969,1.03 2.01,-0.51"></path>
		<path id="path6376" d="m 844.52,1163.79 c 0.753,-0.53 1.678,-0.97 2.59,-1.15 -0.775,-0.27 -0.907,-1.56 0.141,-1.08 -0.271,-1.5 -1.809,-0.76 -2.382,-1.68 -0.424,-0.68 -1.701,-1.31 -1.578,0 -0.315,-0.61 -1.42,-1.69 -1.51,-0.29 -0.412,-0.56 -1.711,-2.33 -2.59,-1.65 0.135,0.25 0.279,0.49 0.43,0.72 -0.503,-0.1 -1.007,-0.1 -1.51,0 0.989,0.5 1.84,1.14 2.95,1.36 -1.107,0.1 -2.923,-1.53 -3.67,-0.1 0.594,-0.15 0.96,0.1 0.94,0.72 1.865,-0.83 1.326,0.39 2.063,1.49 0.382,0.56 1.115,0.8 1.479,0.11 0.501,-0.95 1.611,-0.99 2.579,-0.59 -0.245,0.24 -0.484,0.48 -0.72,0.72 0.259,0.2 0.523,0.4 0.79,0.58 -0.485,0.23 -0.988,0.39 -1.51,0.5 0.533,0 1.036,0.11 1.508,0.36"></path>
		<path id="path6378" d="m 841.64,1163.79 c 0.03,-0.9 -0.966,-0.95 -1.51,-0.5 0.605,-0.14 1.108,0 1.51,0.5"></path>
		<path id="path6380" d="m 847.69,1163.29 c -0.146,0 -0.293,0.1 -0.439,0.1 0.425,0.55 0.261,0.94 -0.431,1.01 1.017,1.04 2.383,-0.63 0.87,-1.08"></path>
		<path id="path6382" d="m 848.12,1166.24 c 0.205,-0.45 0.18,-0.68 0.79,-0.58 -0.503,-0.4 -1.006,-0.4 -1.51,0 0.22,0.22 0.459,0.42 0.72,0.58"></path>
		<path id="path6384" d="m 848.34,1161.49 c -0.26,0 -0.5,0.13 -0.72,0.28 0.24,-0.1 0.48,-0.18 0.72,-0.28"></path>
		<path id="path6386" d="m 851.14,1162.21 c -0.635,-0.22 -1.081,0.4 -1.407,-0.3 -0.286,-0.61 -1.587,0.64 -2.043,0.66 0.359,1.2 3.545,1.28 3.09,2.81 1.966,0 0.05,-1.43 -0.43,-2.02 0.397,0.46 0.877,0.58 1.44,0.36 -0.37,-0.43 -0.586,-0.94 -0.65,-1.51"></path>
		<path id="path6388" d="m 849.63,1165.16 c -0.244,-0.24 -0.508,-0.45 -0.79,-0.65 0.263,0.22 0.527,0.44 0.79,0.65"></path>
		<path id="path6390" d="m 849.77,1166.60 c -0.215,-0.13 -0.452,-0.21 -0.71,-0.22 0.237,0.1 0.474,0.15 0.71,0.22"></path>
		<path id="path6392" d="m 850.21,1166.31 c 0.289,-0.74 0.05,-0.9 -0.72,-0.5 0.24,0.17 0.48,0.34 0.72,0.5"></path>
		<path id="path6394" d="m 853.95,1162.78 c -0.73,-0.34 -1.804,-0.46 -2.59,-0.28 0.174,0.14 2.246,3.96 2.23,1.15 -0.02,1.7 1.919,0.1 1.58,1.73 0.557,-0.11 1.087,-0.31 1.59,-0.58 -0.373,-0.52 -2.118,-2.64 -1.73,-0.65 -0.562,-0.25 -0.98,-0.75 -1.08,-1.37"></path>
		<path id="path6396" d="m 852.66,1168.90 c -0.08,-0.5 0,-0.71 -0.65,-0.72 0.217,0.24 0.433,0.48 0.65,0.72"></path>
		<path id="path6398" d="m 853.74,1164.65 c 0.06,0.45 0.06,0.6 0.57,0.73 -0.19,-0.24 -0.38,-0.48 -0.57,-0.73"></path>
		<path id="path6400" d="m 859.71,1164.58 c -0.274,-0.89 -1.182,-1.4 -1.58,-2.23 0.459,0.47 0.939,0.49 1.439,0.1 -1.129,-0.53 -1.019,-2.18 -2.09,-2.73 -1.58,-0.8 -0.836,1.37 -0.14,1.87 -0.516,-0.17 -1.023,-0.15 -1.521,0.1 0.935,1.52 2.113,2.57 3.892,2.95"></path>
		<path id="path6402" d="m 859.42,1170.49 c 0.07,-0.19 0.146,-0.38 0.22,-0.58 -0.997,0.13 -1.874,-0.49 -2.88,-0.21 0.1,0.27 0.24,0.51 0.43,0.72 0.599,-0.82 1.608,-0.55 2.23,0.1"></path>
		<path id="path6404" d="m 860.50,1163.94 c 0.206,-0.88 -0.03,-0.98 -0.72,-0.29 0.24,0.1 0.48,0.2 0.72,0.29"></path>
		<path id="path6406" d="m 863.89,1172.57 c 0.238,-0.64 0.438,-1.2 1.22,-0.72 -0.377,-1.02 -1.979,-0.79 -2.81,-0.93 0.592,0 1.089,-0.31 1.3,-0.86 -0.649,-0.1 -1.09,0.65 -1.717,0.54 -0.696,-0.12 -1.398,-0.34 -2.103,-0.11 0.683,1.7 3.308,0.31 4.11,2.08"></path>
		<path id="path6408" d="m 861.44,1164.94 c 0.148,-0.92 -0.981,-0.74 -1.439,-0.43 0.478,0.15 0.958,0.29 1.439,0.43"></path>
		<path id="path6410" d="m 862.74,1169.55 c -0.574,-0.1 -1.08,0.1 -1.52,0.43 0.589,0.15 1.095,0 1.52,-0.43"></path>
		<path id="path6412" d="m 866.05,1170.20 c -0.193,0.24 -0.387,0.48 -0.58,0.72 0.62,0 0.552,-0.22 0.58,-0.72"></path>
		<path id="path6414" d="m 867.06,1172.86 c -0.167,-0.26 -0.406,-0.43 -0.72,-0.5 0.24,0.17 0.48,0.34 0.72,0.5"></path>
		<path id="path6418" d="m 867.13,1171.21 c 1.274,-0.16 2.766,0.1 3.81,-0.87 -1.083,-0.24 -3.558,-0.63 -4.46,0.15 0.188,0.27 0.405,0.51 0.65,0.72"></path>
		<path id="path6420" d="m 866.91,1171.93 c 0.339,0.69 2.255,0.93 2.88,0.79 -0.674,1.34 2.7,2.22 3.529,1.73 -0.498,-0.37 -1.005,-0.73 -1.523,-1.08 -1.926,-1.29 1.401,-0.61 -0.787,-1.3 0.889,-0.31 2.042,0.83 3.035,0.9 0.95,0.1 1.615,1.16 1.215,1.69 0.794,-0.51 3.028,0.1 3.914,0.3 1.03,0.25 1.218,1.55 2.496,1.22 -0.807,-0.94 -1.453,-1.74 -2.66,-2.17 -0.918,-0.32 -2.374,-0.14 -3.03,-1 0.782,0.68 2.074,0.39 2.96,0.14 -1.808,-1.24 -4.5,-0.19 -6.05,-1.94 1.416,0.55 1.885,0.36 3.283,0.38 1.097,0 0.468,-1.07 -0.284,-1.2 -1.106,-0.18 -2.272,0.16 -3.322,0.48 -0.595,0.18 -3.929,-0.36 -2.847,1.14 -0.465,-1.24 -2.099,-0.78 -2.809,-0.1"></path>
		<path id="path6422" d="m 867.70,1173.37 c -0.682,0.11 -0.585,0.3 0.29,0.57 -0.1,-0.19 -0.194,-0.38 -0.29,-0.57"></path>
		<path id="path6424" d="m 869.94,1174.23 c -0.155,-0.44 -0.158,-0.61 -0.72,-0.5 0.24,0.17 0.481,0.34 0.72,0.5"></path>
		<path id="path6318" d="m 820.11,1145.29 c 0.86,-0.26 0.178,-1.21 -0.29,-1.44 -0.13,0.53 -0.03,1.01 0.29,1.44"></path>
		<path id="path6322" d="m 821.98,1147.16 c 0.435,-0.93 0.276,-3.81 -1.29,-3.6 0.231,0.5 0.495,0.98 0.79,1.44 -1.322,-0.27 -0.183,1.68 0.5,2.16"></path>
		<path id="path6326" d="m 822.70,1147.30 c 0.467,-0.55 0.759,-2.58 -0.5,-2.23 -0.02,0.79 0.397,1.47 0.5,2.23"></path>
		<path id="path6328" d="m 824.29,1148.82 c 0.782,-0.96 -1.069,-0.7 -1.521,-0.8 0.517,0.25 1.023,0.52 1.521,0.8"></path>
		<path id="path6332" d="m 823.35,1146.73 c 0.496,-0.1 0.879,-0.36 1.15,-0.79 -0.62,-0.17 -1.065,0.18 -1.15,0.79"></path>
		<path id="path6334" d="m 826.52,1145.79 c 0.01,-0.99 -2.224,-1.93 -3.03,-1.87 0.913,0.81 1.93,1.37 3.03,1.87"></path>
		<path id="path6340" d="m 826.81,1144.50 c 0.167,-0.12 0.333,-0.24 0.5,-0.36 -0.789,-0.44 -1.224,-1.29 -2.02,-1.73 0.354,1.22 0.241,1.58 1.52,2.09"></path>
		<path id="path6344" d="m 828.54,1149.39 c 0.41,-0.1 0.72,-0.28 0.93,-0.65 -0.854,-0.48 -2.649,-2.4 -3.67,-1.29 0.881,-0.26 1.595,0.43 2.3,0.79 -1.766,-0.5 -0.03,0.97 0.44,1.15"></path>
		<path id="path6346" d="m 836.96,1157.02 c 0.64,0.19 1.287,0.21 1.939,0.1 -1.115,-0.28 -1.916,-1.2 -3.02,-1.52 2.252,2.2 -3.08,-2.15 -0.72,0.1 -1.555,-1.17 -3.133,-1.2 -4.907,-1.66 -1.389,-0.36 -2.542,-1.88 -4.093,-1.5 1.877,0.86 3.188,2.05 5.157,2.65 0.993,0.3 2.042,0.12 3.02,0.52 0.815,0.33 1.611,1.74 2.624,1.36"></path>
		<path id="path6348" d="m 827.38,1147.30 c -0.227,-0.39 -0.257,-0.52 -0.79,-0.36 0.263,0.12 0.527,0.24 0.79,0.36"></path>
		<path id="path6350" d="m 828.39,1144.64 c -0.06,-0.71 -0.964,-0.91 -1.51,-1.01 0.475,0.38 0.978,0.72 1.51,1.01"></path>
		<path id="path6352" d="m 830.55,1148.02 c -0.27,-1.42 -2.392,-2.34 -3.67,-2.45 0.801,1.31 2.571,1.49 3.67,2.45"></path>
		<path id="path6354" d="m 828.32,1145.36 c -0.328,-0.29 -0.07,-0.55 -0.72,-0.36 0.24,0.12 0.481,0.24 0.72,0.36"></path>
		<path id="path6356" d="m 830.48,1149.39 c 0.167,0 0.333,-0.1 0.5,-0.14 -0.476,-0.98 -1.666,-1.54 -2.729,-1.44 0.727,0.56 1.6,0.9 2.229,1.58"></path>
		<path id="path6358" d="m 829.11,1146.22 c 0.515,-0.4 0.349,-0.64 -0.5,-0.72 0.167,0.24 0.334,0.48 0.5,0.72"></path>
		<path id="path6360" d="m 829.62,1147.88 c 0.12,-0.52 -0.147,-0.61 -0.8,-0.29 0.266,0.1 0.533,0.2 0.8,0.29"></path>
		<path id="path6362" d="m 831.41,1152.20 c 1.012,-0.56 0.593,-2.71 -0.709,-2.47 -1.014,0.18 0.713,2.07 0.709,2.47"></path>
		<path id="path6366" d="m 833.36,1155.37 c 0.167,0.27 0.407,0.44 0.72,0.5 -0.24,-0.16 -0.479,-0.33 -0.72,-0.5"></path>
		<path id="path6368" d="m 835.66,1154.07 c -0.196,-0.98 -1.581,-0.88 -2.23,-0.5 0.797,-0.27 1.602,0 2.23,0.5"></path>
		<path id="path6370" d="m 833.79,1146.58 c 0.573,-0.2 0.941,-0.67 0.649,-1.29 -0.533,0.23 -0.86,0.71 -0.649,1.29"></path>
		<path id="path6272" d="m 811.54,1128.73 c -0.545,-1.5 -2.104,-2.23 -3.601,-2.38 0.202,0.79 0.938,1.86 1.8,1.01 0.09,1.03 1.251,0.76 1.801,1.37"></path>
		<path id="path6286" d="m 813.92,1132.04 c 0.251,-0.54 0.611,-1 1.08,-1.37 -0.838,0.55 -1.576,0.49 -1.37,-0.57 -0.378,0.19 -0.7,0.13 -0.965,-0.17 -0.604,-0.46 -1.325,0.1 -1.985,0 0.538,0.45 2.445,0.7 2.3,1.66 -0.959,0.22 -0.827,-1.04 -1.8,-0.87 0.03,0.42 0.05,1.01 0.392,1.32 0.595,0.56 1.818,-0.19 1.128,1.06 0.567,-0.12 1.028,-0.53 1.22,-1.08"></path>
		<path id="path6290" d="m 814.14,1136.14 c 0.224,-0.71 -0.396,-1.32 -0.73,-1.87 0.564,0.29 1.021,0.1 1.08,-0.57 -0.798,0.2 -1.494,-0.45 -2.23,0.14 0.7,0.25 0.792,0.75 0.22,1.22 0.907,0 0.738,1.09 1.66,1.08"></path>
		<path id="path6294" d="m 814.71,1132.83 c -0.197,-0.19 -0.437,-0.21 -0.72,-0.1 0.24,0 0.48,0.1 0.72,0.1"></path>
		<path id="path6300" d="m 816.15,1136.29 c 0.1,-0.64 -0.104,-1.4 -0.93,-1.3 0.06,0.58 0.424,1.05 0.93,1.3"></path>
		<path id="path6304" d="m 816.66,1133.70 c 0.319,-0.29 0.509,-0.65 0.57,-1.08 -0.637,0.1 -0.94,0.5 -0.57,1.08"></path>
		<path id="path6306" d="m 818.67,1136.94 c 0.03,-0.56 -1.594,-2.25 -2.16,-1.73 -1.054,0.99 1.527,1.71 2.16,1.73"></path>
		<path id="path6308" d="m 819.39,1138.81 c 0.427,-0.67 1.234,-1.15 2.02,-0.72 -1.217,-0.81 -1.347,-2.57 -3.17,-2.31 0.423,0.48 0.806,0.99 1.15,1.52 -0.762,-0.14 -1.522,-0.31 -2.3,-0.36 0.06,0.83 1.541,1.77 2.229,1.07 0.02,0.27 0.05,0.54 0.07,0.8"></path>
		<path id="path6310" d="m 817.74,1143.13 c 1.057,-0.28 0.526,-1.78 0.64,-2.52 -0.541,0.42 -1.023,0.18 -1.22,-0.43 0.03,0.9 -0.06,2.23 0.58,2.95"></path>
		<path id="path6314" d="m 821.70,1136.57 c 0.03,-0.85 -1.208,-1.3 -1.81,-1.58 1.351,0 0.365,-0.24 -0.138,-0.77 -0.567,-0.6 -1.128,-0.92 -1.942,-0.52 0.623,0.36 0.813,0.98 1.22,1.52 0.68,0.91 1.787,0.8 2.67,1.35"></path>
		<path id="path6316" d="m 819.17,1141.83 c 0.85,-0.23 1.286,-1.11 1.52,-0.21 -0.04,-0.31 -0.04,-0.62 0,-0.94 0.268,0.16 0.531,0.33 0.79,0.5 -0.717,-1.18 -1.642,-2.51 -2.74,-0.57 0.61,0.2 0.847,0.68 0.43,1.22"></path>
		<path id="path6320" d="m 821.70,1139.60 c 0.143,-0.81 -0.895,-0.85 -1.16,-1.51 -0.693,0.9 0.575,1.25 1.16,1.51"></path>
		<path id="path6324" d="m 822.70,1139.67 c 0.17,0 0.34,-0.1 0.51,-0.14 -0.6,-0.74 -1.148,-1.54 -1.95,-2.09 0.456,0.76 0.923,1.51 1.44,2.23"></path>
		<path id="path6330" d="m 824.65,1141.62 c -0.04,-0.7 -0.647,-1.25 -1.37,-1.09 0.325,0.5 0.808,0.9 1.37,1.09"></path>
		<path id="path6338" d="m 824.72,1140.97 c 0.217,-0.14 0.433,-0.29 0.65,-0.44 -0.269,-0.64 -0.795,-0.81 -1.3,-0.28 0.187,0.27 0.404,0.51 0.65,0.72"></path>
		<path id="path6342" d="m 826.59,1140.97 c 0.03,-0.57 -0.292,-0.91 -0.86,-0.94 -0.03,0.58 0.292,0.92 0.86,0.94"></path>
		<path id="path6206" d="m 806.79,1118.57 c 1.286,-1.34 -3.186,-6.05 -4.9,-5.11 0.297,0.42 1.396,0.93 1.471,1.42 0.128,0.84 1.159,0.69 -0.101,1.18 0.671,0.28 1.461,-0.54 1.762,0.23 0.286,0.73 1.056,1.92 1.768,2.28"></path>
		<path id="path6218" d="m 803.70,1111.30 c 0.238,-0.46 0.141,-0.84 -0.29,-1.15 -0.218,0.21 -0.388,0.45 -0.51,0.72 0.266,0.15 0.533,0.29 0.8,0.43"></path>
		<path id="path6220" d="m 804.06,1118.50 c 0.995,0.22 1.609,-0.54 1.08,-1.44 -0.651,-1.1 -1.274,-0.32 -2.17,-0.1 0.197,0.88 1.095,0.95 1.8,1.15 -0.237,0.12 -0.474,0.24 -0.71,0.36"></path>
		<path id="path6224" d="m 804.42,1119.37 c 0.635,-0.16 1.19,-0.55 1.649,-1.01 -0.859,-0.27 -1.443,0.67 -2.3,0.29 0.2,0.26 0.417,0.5 0.651,0.72"></path>
		<path id="path6226" d="m 804.70,1110.87 c 0.292,-0.72 0.05,-0.91 -0.72,-0.57 0.24,0.19 0.479,0.38 0.72,0.57"></path>
		<path id="path6230" d="m 806.50,1113.25 c 0.242,-0.78 -0.07,-1.67 -0.79,-2.09 -0.326,0.48 -0.326,0.96 0,1.44 -0.522,-0.45 -1.786,-0.67 -1.51,0.43 0.762,-0.75 1.5,0.1 2.3,0.22"></path>
		<path id="path6232" d="m 807.01,1116.42 c 2.259,-1.67 -1.065,-2.97 -2.59,-2.74 0.67,1.07 1.579,1.99 2.59,2.74"></path>
		<path id="path6234" d="m 807.87,1121.82 c -0.09,-1.21 -2.331,-2.31 -3.31,-1.66 0.281,1.48 2.623,0.4 3.31,1.66"></path>
		<path id="path6236" d="m 806.43,1113.75 c -0.24,-0.6 -0.947,-0.72 -1.51,-0.65 0.541,0.13 1.044,0.35 1.51,0.65"></path>
		<path id="path6242" d="m 805.93,1121.89 c 0.119,-0.49 -0.121,-0.59 -0.72,-0.29 0.24,0.1 0.48,0.2 0.72,0.29"></path>
		<path id="path6254" d="m 806.86,1123.40 c -0.218,-0.95 1.525,-1.7 -0.21,-2.23 0.134,0.96 -1.683,1.94 0.21,2.23"></path>
		<path id="path6258" d="m 807.87,1121.10 c 0.263,-0.12 0.527,-0.24 0.79,-0.36 -0.41,-0.76 -1.219,-1.2 -2.08,-1.16 0.45,0.49 0.88,1 1.29,1.52"></path>
		<path id="path6260" d="m 807.22,1112.96 c -0.172,-0.27 -0.363,-0.54 -0.57,-0.79 0.189,0.27 0.38,0.53 0.57,0.79"></path>
		<path id="path6262" d="m 807.80,1119.73 c 0.02,-0.5 -0.195,-0.85 -0.65,-1.08 -0.301,0.61 0.05,0.99 0.65,1.08"></path>
		<path id="path6264" d="m 810.61,1118.50 c 1.32,-0.28 -2.461,-4.02 -2.95,-4.6 0.09,0.51 0.18,1.01 0.28,1.51 0.223,0.56 0.779,0.85 0.94,1.44 -0.547,-1.31 -2.073,-0.53 -1.334,0.68 0.556,0.91 2.212,0.59 3.064,0.97"></path>
		<path id="path6266" d="m 808.09,1125.70 c -0.203,-0.2 -0.443,-0.34 -0.72,-0.43 0.24,0.15 0.48,0.29 0.72,0.43"></path>
		<path id="path6268" d="m 813.92,1129.52 c 0.668,0.3 1.581,0.35 2.16,0 -0.179,-0.23 -0.372,-0.44 -0.58,-0.65 1.313,0.92 0.778,-1.32 -0.28,-1.51 1.958,0.38 -0.851,-2.11 -0.51,-0.14 -0.169,-1.68 -0.261,-4.12 -1.627,-5.35 -0.517,-0.47 -0.211,-1.21 -0.956,-1.44 -0.51,-0.16 -1.087,-2.84 -1.087,-0.92 -0.776,-3.07 -3.575,1.3 -1.51,0.36 -1.648,0.43 -0.103,1.46 0.65,0.72 -0.521,0.68 0.784,2.74 0.93,3.46 -0.42,-0.4 -0.9,-0.71 -1.439,-0.93 1.006,2.03 -1.766,-0.88 0,1.22 -0.328,-0.47 -0.854,-0.77 -1.44,-0.65 0.521,0.44 1,0.92 1.44,1.44 -0.778,-0.48 -1.328,-1.25 -2.16,-1.66 -0.122,1.35 1.298,1.59 1.932,2.49 0.687,0.99 1.777,2.48 3.108,2.55 0.07,-0.97 -1,-1.34 -1.08,-2.22 -0.08,-0.91 0.876,-0.96 0.94,-1.81 0.843,0.11 1.093,1.12 -0.15,0.86 -0.02,0.61 0.388,1.01 0.94,1.16 -0.267,0.14 -0.53,0.28 -0.79,0.43 0.241,0.56 0.995,0.65 1.454,0.94 0.996,0.63 -0.77,1.32 0.847,1.01 -0.254,0.22 -0.517,0.44 -0.792,0.64"></path>
		<path id="path6270" d="m 808.23,1118.94 c 0.787,-0.45 0.456,-0.81 -0.36,-0.72 0.121,0.24 0.24,0.48 0.36,0.72"></path>
		<path id="path6274" d="m 808.23,1111.66 c 0.182,-0.35 0.43,-0.28 0.22,-0.79 -0.07,0.27 -0.146,0.53 -0.22,0.79"></path>
		<path id="path6276" d="m 810.61,1123.47 c 0.319,-1.24 -1.766,-2.94 -2.234,-1.6 -0.187,0.53 1.918,1.3 2.234,1.6"></path>
		<path id="path6278" d="m 809.24,1123.33 c -0.177,-0.23 -0.417,-0.32 -0.72,-0.29 0.24,0.1 0.479,0.2 0.72,0.29"></path>
		<path id="path6280" d="m 809.96,1115.55 c 1.076,-0.76 -0.305,-1.55 -1.08,-1.51 0.364,0.5 0.723,1.01 1.08,1.51"></path>
		<path id="path6282" d="m 810.03,1112.53 c 0.854,-0.26 1.854,-0.1 2.52,-0.79 -1.205,-0.62 -2.405,-0.14 -3.67,-0.29 0.107,0.6 0.549,1.02 1.15,1.08"></path>
		<path id="path6284" d="m 812.12,1116.63 c 0.18,-0.71 -0.879,-1.07 -1.3,-1.37 -0.432,0.94 0.74,1.07 1.3,1.37"></path>
		<path id="path6288" d="m 813.63,1116.85 c -0.291,-0.55 -0.874,-0.92 -1.51,-0.79 0.477,0.32 0.98,0.58 1.51,0.79"></path>
		<path id="path6292" d="m 814.21,1112.82 c -0.06,-0.4 -0.295,-0.62 -0.72,-0.65 0.24,0.22 0.48,0.44 0.72,0.65"></path>
		<path id="path6296" d="m 815.43,1126.28 c 0.217,-0.17 0.433,-0.34 0.65,-0.51 -0.353,-0.48 -0.861,-0.85 -1.44,-1 0.214,0.53 0.477,1.04 0.79,1.51"></path>
		<path id="path6298" d="m 815.43,1113.61 c -0.223,-0.15 -0.463,-0.27 -0.72,-0.36 0.24,0.12 0.48,0.24 0.72,0.36"></path>
		<path id="path6166" d="m 798.87,1093.30 c -0.237,-0.17 -0.5,-0.29 -0.79,-0.36 0.263,0.12 0.526,0.24 0.79,0.36"></path>
		<path id="path6176" d="m 799.30,1093.52 c 0.24,0.1 0.48,0.1 0.72,0.14 0.03,-0.48 -0.02,-0.96 -0.14,-1.44 -0.643,0.19 -0.941,0.69 -0.58,1.3"></path>
		<path id="path6222" d="m 804.56,1095.10 c 0.121,-0.63 0.185,-1.65 -0.79,-1.51 0.111,0.59 0.374,1.09 0.79,1.51"></path>
		<path id="path6240" d="m 805.64,1095.68 c 0.209,-0.45 0.546,-0.76 1.01,-0.94 -0.744,-0.88 -1.942,0.16 -1.01,0.94"></path>
		<path id="path6244" d="m 805.86,1093.81 c -0.09,-0.36 -0.306,-0.63 -0.649,-0.8 0.216,0.27 0.433,0.54 0.649,0.8"></path>
		<path id="path6248" d="m 806.36,1088.62 c -0.155,-0.29 -0.372,-0.53 -0.649,-0.72 0.216,0.24 0.433,0.48 0.649,0.72"></path>
		<path id="path6250" d="m 806.00,1105.62 c 0.36,-0.21 0.526,-0.52 0.5,-0.94 -0.816,-0.1 -0.983,0.23 -0.5,0.94"></path>
		<path id="path6252" d="m 807.29,1097.55 c 0.331,-1.05 -0.588,-1.96 -1.51,-1.08 0.582,0.25 1.085,0.61 1.51,1.08"></path>
		<path id="path6256" d="m 807.22,1096.04 c -0.187,-0.45 -0.52,-0.74 -1,-0.86 0.07,0.56 0.43,0.88 1,0.86"></path>
		<path id="path6144" d="m 796.71,1079.62 c -0.364,-0.15 -0.304,-0.39 -0.79,-0.14 0.263,0 0.527,0.1 0.79,0.14"></path>
		<path id="path6174" d="m 799.81,1082.50 c 0.442,-0.65 -0.424,-0.7 -0.8,-0.36 0.266,0.12 0.533,0.24 0.8,0.36"></path>
		<path id="path6130" d="m 794.12,1060.26 c -0.711,-0.54 -0.893,-0.14 -1.244,0.42 -0.432,0.68 -1.859,-0.78 -2.426,-0.78 1.247,1.27 0.116,2.98 0.762,4.03 1.074,1.73 0.902,4.3 1.756,6.03 0.366,0.74 -0.437,1.2 -0.105,2.02 0.321,0.79 1.322,1.02 2.061,1.22 0.64,0.17 1.295,0.37 1.954,0.45 1.359,0.18 0.207,-1.82 0.123,-2.23 2.093,-0.24 0,-1.69 -0.65,-2.31 0.48,0.1 0.96,0.1 1.44,0 -0.26,-0.47 -4.179,-3.03 -2.021,-3.02 -1.636,-0.96 0.07,-1.52 0.87,-2.16 -1.037,-1.03 -2.043,-2.26 -2.52,-3.67"></path>
		<path id="path6132" d="m 791.45,1075.74 c 0.263,-0.16 0.506,-0.36 0.73,-0.58 -0.48,-0.32 -0.96,-0.32 -1.44,0 0.237,0.2 0.473,0.39 0.71,0.58"></path>
		<path id="path6134" d="m 793.83,1086.68 c 0.235,-0.59 -0.113,-0.93 -0.72,-0.72 0.219,0.26 0.459,0.5 0.72,0.72"></path>
		<path id="path6136" d="m 795.06,1084.59 c -0.07,-0.43 -0.07,-0.59 -0.58,-0.72 0.193,0.24 0.386,0.48 0.58,0.72"></path>
		<path id="path6138" d="m 796.14,1067.17 c 0.128,-0.62 -0.112,-0.64 -0.72,-0.1 0.24,0 0.48,0 0.72,0.1"></path>
		<path id="path6140" d="m 797.14,1066.45 c -0.158,-0.68 -0.833,-1.09 -1.51,-0.87 0.566,0.18 1.07,0.47 1.51,0.87"></path>
		<path id="path6142" d="m 797.29,1084.74 c -0.306,-0.72 -1.051,-0.68 -1.521,-0.15 0.507,0 1.014,0.1 1.521,0.15"></path>
		<path id="path6146" d="m 797.22,1083.44 c 0.336,-0.35 0.43,-0.75 0.28,-1.22 -0.421,0.47 -0.925,0.59 -1.51,0.35 0.205,0.53 0.646,0.9 1.23,0.87"></path>
		<path id="path6148" d="m 797.00,1079.91 c -0.232,-0.1 -0.472,-0.11 -0.72,-0.1 0.24,0 0.48,0 0.72,0.1"></path>
		<path id="path6150" d="m 797.07,1081.35 c -0.201,-0.18 -0.441,-0.23 -0.72,-0.14 0.24,0 0.481,0.1 0.72,0.14"></path>
		<path id="path6152" d="m 797.94,1078.26 c -0.08,-0.54 0.172,-1.04 0.79,-1.08 -0.81,0.25 -1.676,-0.18 -2.31,0.57 0.549,0 1.056,0.22 1.52,0.51"></path>
		<path id="path6154" d="m 798.44,1086.10 c 0.171,-0.77 -0.773,-1.11 -1.37,-1.08 0.341,0.51 0.797,0.87 1.37,1.08"></path>
		<path id="path6156" d="m 797.72,1060.54 c 0.03,-0.41 -0.16,-0.67 -0.58,-0.79 0.193,0.27 0.386,0.53 0.58,0.79"></path>
		<path id="path6158" d="m 798.87,1070.19 c -0.407,-0.37 -0.887,-0.52 -1.44,-0.43 0.481,0.14 0.961,0.28 1.44,0.43"></path>
		<path id="path6160" d="m 799.09,1085.67 c 0.77,-0.31 1.342,-1.06 2.229,-1.08 -0.712,-0.65 -1.89,-0.93 -2.818,-0.65 -1.568,0.48 -0.435,1.46 0.589,1.73"></path>
		<path id="path6162" d="m 799.16,1081.57 c 0.04,-0.32 0.141,-0.64 0.29,-0.94 -0.516,-0.2 -1.046,-0.25 -1.59,-0.14 0.299,0.53 0.732,0.88 1.3,1.08"></path>
		<path id="path6168" d="m 799.09,1078.62 c -0.184,-0.21 -0.424,-0.29 -0.72,-0.22 0.24,0.1 0.48,0.15 0.72,0.22"></path>
		<path id="path6170" d="m 799.66,1083.51 c 0.1,-0.21 0.193,-0.43 0.29,-0.65 -0.493,-0.16 -0.996,-0.28 -1.51,-0.36 0.217,0.52 0.667,0.91 1.22,1.01"></path>
		<path id="path6172" d="m 799.66,1080.49 c -0.143,-0.43 -0.43,-0.72 -0.86,-0.87 -0.03,0.58 0.286,0.9 0.86,0.87"></path>
		<path id="path6178" d="m 799.09,1087.26 c 0.88,0.37 1.971,-0.18 2.8,-0.44 -0.911,-0.74 -2.234,-0.69 -2.8,0.44"></path>
		<path id="path6180" d="m 800.31,1089.85 c 0.156,-0.62 -0.399,-1.1 -0.94,-1.23 0.02,0.59 0.381,1.06 0.94,1.23"></path>
		<path id="path6182" d="m 800.24,1081.64 c 0.09,-0.76 -0.177,-0.81 -0.79,-0.14 0.263,0 0.527,0.1 0.79,0.14"></path>
		<path id="path6186" d="m 800.24,1090.64 c 0.179,-0.71 -0.06,-0.81 -0.72,-0.29 0.24,0.1 0.479,0.2 0.72,0.29"></path>
		<path id="path6188" d="m 800.89,1079.91 c 0.31,-0.81 -0.575,-1.35 -1.23,-1.44 0.338,0.54 0.749,1.02 1.23,1.44"></path>
		<path id="path6190" d="m 800.53,1082.72 c 0.401,-0.46 0.231,-0.7 -0.51,-0.72 0.169,0.24 0.34,0.48 0.51,0.72"></path>
		<path id="path6192" d="m 800.74,1086.10 c 0.101,-0.26 0.101,-0.52 0,-0.79 -0.275,0.15 -0.515,0.35 -0.72,0.58 0.24,0.1 0.479,0.14 0.72,0.21"></path>
		<path id="path6194" d="m 801.10,1093.88 c 0.985,-0.49 1.284,-2.51 -0.14,-2.59 -1.562,-0.1 -0.04,2.01 0.14,2.59"></path>
		<path id="path6196" d="m 802.11,1087.26 c -0.611,0.32 -1.309,0.38 -1.939,0.64 0.177,1.46 3.022,1.4 4.03,1.23 -0.141,-0.95 -1.101,-1.88 -2.091,-1.87"></path>
		<path id="path6198" d="m 802.76,1090.35 c 0.457,-0.1 0.913,-0.1 1.37,-0.14 -0.429,-0.83 -2.084,-1.23 -2.88,-0.79 0.423,0.44 0.927,0.75 1.51,0.93"></path>
		<path id="path6200" d="m 802.47,1086.90 c 0.441,-0.79 -0.384,-1.49 -1.15,-1.23 0.234,0.55 0.618,0.96 1.15,1.23"></path>
		<path id="path6202" d="m 802.40,1085.10 c 0.313,-0.1 0.627,-0.14 0.94,-0.22 -1.078,-2.1 -2.719,-0.43 -0.94,0.22"></path>
		<path id="path6204" d="m 802.18,1062.99 c 0.143,-0.54 -0.1,-0.66 -0.72,-0.36 0.24,0.12 0.48,0.24 0.72,0.36"></path>
		<path id="path6208" d="m 802.62,1092.22 c 0.385,-0.69 1.241,-0.45 1.8,-0.21 -0.382,-1.12 -2.477,-1.14 -1.8,0.21"></path>
		<path id="path6210" d="m 803.05,1085.89 c 0.167,0 0.333,0 0.5,0 0,-0.61 -0.315,-0.92 -0.93,-0.72 0.143,0.24 0.286,0.48 0.43,0.72"></path>
		<path id="path6212" d="m 803.62,1091.00 c 0.07,-0.65 -0.188,-0.72 -0.79,-0.22 0.263,0.1 0.526,0.15 0.79,0.22"></path>
		<path id="path6214" d="m 803.91,1078.97 c -0.116,-0.78 -0.195,-1.46 -1.08,-0.93 0.112,0.54 0.526,0.91 1.08,0.93"></path>
		<path id="path6216" d="m 804.13,1093.45 c 1.083,-0.67 -0.506,-1.69 -1.3,-1.15 0.26,0.54 0.728,0.97 1.3,1.15"></path>
		<path id="path6228" d="m 808.37,1085.02 c -0.164,-0.28 -0.354,-0.54 -0.57,-0.79 1.068,-0.28 0.842,-1.36 -0.159,-1.45 -0.329,0 -0.639,0 -0.93,-0.2 -0.858,-0.7 -0.691,0.32 -1.791,-0.29 -0.224,0.62 0.151,1.05 0.72,1.22 -0.467,0.36 -0.994,0.53 -1.58,0.5 0.196,0.74 0.713,1.73 1.65,1.53 -1.625,0.29 0.04,0.98 0.617,1.05 0.908,0.12 1.578,-0.98 2.043,-1.57"></path>
		<path id="path6238" d="m 806.58,1093.74 c 0.05,-0.37 -0.396,-2.75 -1.005,-2.52 -1.8,0.66 0.33,1.96 1.005,2.52"></path>
		<path id="path6464" d="m 802.25,1094.10 c -0.07,-0.26 -0.14,-0.53 -0.21,-0.8 0.979,0.1 1.048,0.37 0.21,0.8"></path>
		<path id="path6462" d="m 835.95,1147.88 c -0.02,-0.26 -0.05,-0.52 -0.07,-0.79 0.181,0.25 0.324,0.51 0.43,0.79 -0.121,0 -0.24,0 -0.36,0"></path>
		<path id="path6470" d="m 771.58,857.29 c 1.585,-0.898 3.479,-0.09 4.11,-2.311 0.291,-1.023 -1.113,-2.525 -0.309,-3.389 0.191,-0.124 0.397,-0.157 0.62,-0.1 0.644,0 1.21,-1.069 1.559,-1.481 0,1.25 1.333,1.804 1.673,2.913 0.331,1.077 0.998,1.482 2.067,1.696 -0.991,0.944 0.461,3.587 0.803,4.579 0.889,2.583 1.406,4.099 3.608,5.88 1.991,1.61 1.111,2.125 0.252,4.159 -0.149,0.354 1.46,1.369 1.454,2.055 0,0.858 -1.326,0.93 -1.867,1.257 1.079,1 0.203,2.076 0.87,3.17 0.332,0.544 1.173,0.395 1.51,0.93 0.46,0.732 -0.08,0.799 0,1.521 0.257,2.19 3.241,3.234 3.485,5.76 0.297,3.059 2.346,5.617 3.205,8.49 0.659,2.198 0.647,4.998 3.787,3.998 3.246,-1.03 3.436,0.99 3.116,3.65 -0.245,2.04 -0.09,5.89 -1.831,7.4 -3.704,1.07 -6.287,2.72 -7.108,5.1 -0.3,0.87 1.247,2.56 1.605,3.47 -2.273,0.1 -0.715,3.7 -0.236,4.75 0.419,0.93 1.065,2.23 1.401,3.19 0.517,1.48 -0.869,1.81 -0.78,3.15 0.124,1.87 3.224,3.3 2.779,4.88 -0.269,0.96 -1.908,1.8 -2.7,1.41 -0.959,-0.48 -1.381,2.27 -1.419,2.74 -0.201,2.51 -1.098,5.65 -3.045,8.36 -1.44,2 0.43,3.51 -0.355,5.73 -0.391,1.1 -1.603,1.18 -1.199,2.58 0.339,1.17 1.171,2.13 1.509,3.29 0.197,0.67 0.423,1.17 0.622,1.84 0.181,0.62 0.529,1.11 0.71,1.66 0.396,1.23 -0.873,3.07 -2.037,1.64 0.839,0.96 0.07,2.86 0.07,3.95 0,0.75 0.469,1.89 -0.27,2.54 -0.542,0.47 -0.588,0.36 -0.647,1.35 -0.101,1.67 1.159,3.37 1.968,4.75 0.394,0.67 0.808,0.45 1.251,1.07 0.384,0.55 0.322,1.37 -0.424,1.03 0.546,1.9 2.468,2.89 2.815,4.83 0.139,0.77 0.519,1.34 1.324,1.74 1.069,0.54 -0.03,1.72 0.181,2.57 0.569,2.25 2.899,0.3 2.871,2.86 -0.02,2.02 -0.271,3.65 0.836,5.41 0.172,0.28 1.071,1.8 0.04,1.87 -0.715,0 -0.79,0.44 -0.936,0.95 -0.237,0.82 -0.381,1.65 -0.517,2.49 -0.165,1.01 0.183,1.93 0.291,2.93 0.147,1.39 -0.6,1.7 -1,1.56 -0.804,-0.27 0.192,0.56 0.593,1.13 1.332,1.9 2.048,3.9 2.298,5.98 0.08,0.68 -0.03,1.07 -0.673,1.15 -0.596,0.1 -0.83,1 -0.846,1.46 -0.06,1.65 -1.478,0.13 -1.896,2.13 -0.185,0.88 -0.106,1.64 0.201,2.53 0.292,0.85 0.326,1.67 0.787,2.47 1.219,2.12 0.983,2.96 1.161,4.34 0.213,1.63 1.676,2.51 2.338,3.93 0.435,0.94 0.835,1.81 1.5,2.63 0.315,0.39 1.033,1.41 0.763,2.04 -0.587,1.37 -2.813,1.27 -2.356,3.19 0.285,1.19 -0.277,4.05 0.589,4.89 -0.996,0.32 -1.706,0.58 -0.825,0.79 0.355,0.1 2.406,4.12 0.32,3.46 0.208,1.11 1.003,1.15 1.278,1.97 0.22,0.65 -0.213,1.61 -0.339,2.21 -0.405,1.91 0.325,3.2 1.651,4.54 1.061,1.07 1.274,3.09 1.378,4.8 0.09,1.47 1.729,2.38 2.511,3.62 -0.577,0.55 -1.735,0.3 -1.943,1.24 -0.183,0.82 1.003,2.13 1.119,3.11 0.131,1.11 0.683,3.4 1.656,4.06 0.879,0.61 2.62,0.19 2.695,1.67 0.06,1.29 -1.88,0.34 0.06,1.92 0.389,0.32 0.968,0.76 1.32,1.15 0.785,0.87 -0.112,0.58 0.139,1.17 0.241,0.57 0.714,0.79 1.048,1.32 0.521,0.82 -0.333,1.35 0.07,2.08 0.518,0.93 0.564,1.7 1.602,1.9 1.4,0.27 3.104,-0.27 4.176,0.85 0.283,0.29 0.1,1.99 -0.172,2.23 -1.026,0.93 -2.766,0.49 -3.918,0.53 -2.507,0.1 0.187,1.06 1.293,1.15 2.513,0.21 6.054,2.75 3.241,4.99 -0.295,0.24 -0.76,-0.1 -0.995,0.31 -0.411,0.63 0.782,1.28 0.92,1.86 0.127,0.53 0.682,0.62 0.976,1.01 0.481,0.63 -0.324,1.9 -1.041,1.93 1.018,0.75 3.861,3.33 3.034,4.79 -0.388,0.69 -0.972,0.86 -0.496,1.81 0.135,0.27 0.01,1.14 0.324,1.28 0.535,0.24 0.702,0.64 0.947,1.19 -1.103,-0.16 -2.018,2.76 -1.963,3.58 0.06,0.95 -0.217,1.85 0.416,2.67 0.547,0.71 3.147,2.1 2.869,3.15 -0.171,0.65 -1.074,0.72 -1.254,1.32 -0.302,1 1.555,2.15 0.693,3.54 -0.45,0.73 -1.375,0.28 -1.682,1.09 -0.396,1.03 -0.08,2.68 -1.959,2.37 0.156,1.02 -0.187,2.38 0.717,2.95 1.17,0.74 1.732,2.26 1.812,3.1 0.113,1.18 2.005,2.02 2.662,2.95 0.637,0.91 1.056,2.2 2.146,2.69 0.749,0.34 1.148,-0.19 1.706,-0.58 0.661,-0.47 1.179,-0.17 1.903,-0.16 1.557,0 1.839,0.16 2.828,1.68 0.688,1.05 -0.252,2.34 0.743,2.92 0.869,0.5 1.536,2.41 0.969,3.24 1.496,0.19 3.482,1.87 4.346,3 1,1.31 5.501,0.51 6.762,0.39 5.592,-0.53 11.252,0.84 17.399,2.96 -1.476,0 -2.815,-0.61 -4.24,-0.87 -2.598,-0.49 -1.282,0.93 -2.09,2.02 -0.712,0.95 -2.142,0 -2.978,0.97 -1.009,1.12 -2.835,0.9 -4.152,1.33 0.873,1.15 0.945,2.6 1.239,3.96 0.287,1.33 1.11,2.07 1.733,3.21 1.659,3.02 -2.296,1.99 -3.803,1.68 -1.809,-0.37 -5.922,-1.51 -6.616,-3.5 -0.697,-2 3.181,-0.85 1.547,0.48 0.93,0 0.641,-1.11 1,-1.6 0.258,-0.35 2.295,1.44 1.3,2.4 1.575,-0.54 -1.296,-2.97 1.665,-3.5 0.511,-0.1 0.624,-1.48 0.625,-1.85 0,-1.02 -1.719,-0.8 -2.29,-1.35 0.04,1.06 -1.492,2.04 -2.23,2.59 -1.253,0.92 -2.372,-0.51 -3.6,0.29 0.894,-0.17 1.593,0.6 2.229,1.08 -0.52,0.11 -1.023,0.1 -1.51,-0.15 0.195,0.54 0.122,1.05 -0.22,1.52 0.909,0.12 1.615,0.76 2.24,1.37 -2.175,0.55 -5.865,-1.81 -7.42,-3.17 1.073,0.51 2.579,0.46 3.74,0.43 -0.187,-0.97 -2.469,-1.04 -2.55,-2.93 -0.05,-1.13 1.932,-1.59 1.55,-0.17 1.261,-0.37 1.449,-0.25 2.331,-1.32 0.894,-1.07 3.255,0.52 4.499,-0.33 -0.798,-1.04 -6.075,-1.79 -6.33,0 -0.709,-0.25 -1.217,-0.56 -0.07,-1.01 -0.678,0 -3.406,0.1 -2.81,1.37 0.482,-0.47 0.986,-0.49 1.51,-0.1 -0.205,0.55 -0.661,0.97 -1.22,1.15 0.374,0.62 1.521,2.15 0.06,2.28 -0.907,0.1 -2.921,-1.07 -1.137,-1.56 -0.894,0.28 -1.586,-0.47 -2.23,-0.94 0.503,0.1 1.007,0.1 1.51,0 -0.275,-0.13 -0.542,-0.27 -0.8,-0.43 0.993,-0.61 -0.117,-1.79 1.23,-1.44 -1.058,-0.39 -1.058,-0.56 0,-0.5 -0.503,-0.17 -1.006,-0.17 -1.51,0 0.53,0.37 0.662,0.97 0.28,1.51 -0.246,-0.51 -0.721,-0.88 -1.29,-0.94 0.03,0.6 -0.321,1.12 -0.86,1.37 0.311,-0.7 0.09,-0.96 -0.65,-0.79 1.633,-1.34 -2.303,-3.8 -2.6,-5.04 0.685,0.77 1.894,1.53 2.962,1.48 0.493,0 2.396,-1.73 1.868,0.25 0.758,-0.45 2.197,0.31 1.08,-1.01 0.391,1.7 -0.65,-0.54 -0.65,-1.37 0.847,0.1 1.589,0.94 2.207,1.44 1.147,0.92 0.426,1.74 -0.267,2.66 0.703,-0.46 1.493,-0.13 2.24,-0.1 -0.982,-0.49 -0.242,-1.67 -1.126,-2.2 -0.54,-0.32 -2.345,-1.69 -0.743,-1.9 -0.974,-0.77 -1.407,-1.98 -2.497,-2.63 -1.167,-0.7 -2.608,-0.72 -3.633,-1.69 -0.189,0.21 -0.332,0.45 -0.43,0.72 0.91,-0.1 5.346,1.06 5.225,2.3 -0.1,1.02 -4.649,-1.35 -5.295,-1.29 0.459,0.63 1.137,0.49 1.697,0.94 0.599,0.47 0.214,1.35 1.184,1.36 -0.37,0.42 -0.61,0.9 -0.721,1.44 -0.676,-0.99 -1.183,-2.2 -2.16,-2.95 0.772,0.99 1.919,2.33 1.87,3.67 -1.114,-0.98 -2.577,-1.38 -3.16,-2.88 0.495,0.37 0.998,0.73 1.51,1.08 -0.39,-0.69 -1.596,-1.13 -1.37,-2.09 -0.467,0 -0.977,0.47 -1.44,0.36 -0.463,-0.11 -0.36,-0.79 -0.945,-0.9 -0.613,-0.1 -1.401,-1.65 -1.505,-2.19 1.264,0.31 2.036,1.41 3.02,2.16 -0.985,-1.12 -1.594,-2.54 -2.73,-3.53 1.564,1.41 0.373,-0.36 -0.36,-0.51 -0.07,0.24 -0.146,0.48 -0.22,0.72 -0.6,-0.15 -1.126,-0.44 -1.58,-0.86 1.011,1.63 -1.391,-1.06 -1.768,-1.39 -0.462,-0.42 0.687,-0.62 0.847,-0.65 0.323,-0.1 0.647,-0.1 0.974,-0.1 1.243,0.1 -1.185,-1.42 0.667,-0.36 -0.648,-0.55 -0.6,-1.68 0.43,-1.66 -0.844,0 -1.775,-0.8 -1.149,-1.65 -0.808,0.72 -0.07,2.24 -0.585,3.1 -0.611,1.01 -3.142,-2.44 -3.665,-2.74 0.545,0.18 1.048,0.45 1.51,0.79 -1.509,-1.36 0.127,-0.36 0.87,-0.43 -0.939,-0.83 -3.007,-0.76 -3.39,-1.94 0,1.67 -1.873,-0.8 -2.88,-0.87 1.022,-2.03 4.292,1.1 5.91,0.87 -1.429,-0.33 -4.382,-1.19 -4.61,-2.96 1.184,-0.1 2.011,1.17 3.24,0.72 -0.773,0 -0.946,-0.54 -0.649,-1.15 -0.706,1.73 -4.189,-0.92 -1.73,-1.37 -0.557,0.14 -2.543,-0.48 -1.407,-1.15 1.496,-0.87 2.629,0.73 3.928,1.15 -0.947,-0.58 -1.995,-1.21 -2.8,-1.72 -0.42,-0.27 -1.116,-0.33 -1.08,-1.01 0.03,-0.66 0.749,-0.8 1.22,-0.51 -0.781,-0.37 -2.175,-3.26 -0.58,-2.44 -0.539,-0.35 -1.042,-0.3 -1.51,0.14 0.378,0.36 0.426,3.28 0.149,3.74 -1.104,-1.08 -2.856,-3 -2.768,-4.64 0.02,-0.38 -1.31,-1.08 -0.694,-1.56 0.459,-0.36 1.562,-0.39 2.092,-0.2 -0.233,-0.17 -3.927,-0.56 -2.579,-1.81 0.563,-0.52 2,0.23 2.579,0.44 -0.604,-0.32 -0.851,-0.92 -0.43,-1.51 -0.497,0.1 -3.338,-0.18 -1.52,-0.8 -1.772,0.81 -2.724,-2.48 -4.46,-1.94 -0.267,-1.93 2.612,0.33 3.09,0.79 -0.33,-0.5 -0.687,-0.98 -1.07,-1.44 1.348,-0.21 2.352,0.46 3.578,0.85 0.521,0.17 1.089,0 1.562,0.33 0.66,0.48 1.493,0.22 2.05,0.69 0.256,-0.44 0.209,-0.85 -0.14,-1.22 -0.309,1.59 -2.715,-0.58 -2.81,-1.44 0.914,0.72 1.982,0.5 3.03,0.79 -0.388,-0.15 -0.789,-0.21 -1.204,-0.2 -0.822,-0.1 -1.211,-0.95 -1.826,-1.38 -0.547,-0.39 -1.051,-0.2 -1.51,-0.79 -0.364,-0.47 -0.111,-1.07 -0.57,-1.52 0.633,0.85 0.838,2.85 -0.802,2.46 -1.397,-0.33 -4.301,-0.1 -5.318,-1.09 0.624,-0.16 0.843,-0.62 0.43,-1.15 1.431,-0.38 2.048,1.31 3.311,1.58 -1.117,-0.21 -0.449,-1.35 0.43,-1.01 -0.159,-1.32 -0.91,0 -1.717,-0.47 -0.554,-0.3 -0.809,-1.04 -1.522,-1.04 -0.734,0 0.304,-3.38 1.51,-1.44 -0.211,-0.59 0,-0.96 0.65,-0.93 -0.09,-0.36 -0.229,-0.7 -0.43,-1.01 -0.126,0.92 -1,1.2 -1.44,0.29 0.47,-0.16 0.95,-0.28 1.44,-0.36 -0.475,-0.66 -1.477,-0.79 -2.126,-1.22 -1.355,-0.88 -1.669,-1.33 -3.274,-0.44 0.577,-0.19 1.154,0 1.51,0.51 -1.201,-0.3 -2.437,-0.52 -3.535,-1.12 -1.928,-1.05 -0.56,-1.52 -1.285,-2.77 -0.699,1.38 -3.512,1.57 -3.601,2.81 1.31,-2.1 3.414,3.17 0.455,0.86 -1.944,-1.53 -0.202,-5.5 2.136,-4.54 -0.696,-0.1 -0.923,-0.57 -0.5,-1.15 1.191,0.93 0.592,-1.28 1.79,0 -0.96,-0.73 0.334,-1.64 -0.79,-2.3 0.653,2.75 -2.789,0.48 -0.72,0.57 -0.743,-0.1 -1.602,-0.3 -1.8,-1.15 0.964,0.35 1.866,-0.61 2.918,-0.41 0.908,0.17 1.082,1.14 1.982,1.2 -1.299,-0.89 0.09,-1.25 0.823,-1.34 0.876,-0.12 0.61,0.99 1.557,1.06 -0.52,0.7 0.594,2.02 0.28,0.5 2.145,0.97 -1.073,2.38 -2.3,1.8 0.825,0.5 3.494,0.93 4.46,0.86 -0.543,-0.25 -0.89,-0.77 -0.859,-1.37 0.621,0.41 1.37,0.61 1.654,1.38 0.306,0.84 -0.585,1.53 -0.145,2.37 1.422,-0.19 1.84,-3.63 1.59,-4.68 -0.236,0.77 -0.423,1.58 -0.94,2.23 0.107,-1.53 -2,-5.39 1.01,-5.33 -0.852,-0.47 -1.715,0.19 -2.16,0.87 -0.152,-0.7 -0.63,-1.59 -0.43,-2.31 0.229,-0.83 1.158,-0.84 1.43,-1.65 0.54,0.65 1.33,0.9 2.054,1.27 0.933,0.48 1.182,-0.53 0.412,-0.46 -0.621,0 -1.006,-0.24 -1.499,-0.55 -0.916,-0.57 -1.941,-0.1 -2.837,-0.55 1.577,-1.18 -2.183,-2.4 0.771,-2.74 2.121,-0.24 3.054,-3.23 1.97,-4.89 -0.748,1.23 -5.327,-1.23 -5.224,-2.42 0.194,-0.24 0.449,-0.26 0.764,0 -1.327,-1.4 1.35,-2.31 0.5,-3.46 -0.238,0.87 -1.031,0.89 -1.066,0 -0.04,-1.19 -0.817,-0.74 -1.348,-1.84 -0.459,-0.96 0.04,-1.34 0.25,-2.17 0.119,-0.48 -0.85,-1.89 0.584,-1.55 0,-0.88 -0.573,-1 -1.052,-1.58 -0.395,-0.48 -0.255,-1.11 -0.562,-1.62 -1.14,-1.88 0.295,-0.79 1.463,-1.05 -1.125,-0.15 -2.283,-1.4 -2.59,-2.45 1.606,-0.57 2.397,0.79 3.17,1.94 -0.162,-1.51 -1.216,-3.03 -1.95,-4.31 -1.462,1.37 -3.563,-0.63 -1.773,-1.81 1.133,-0.75 2.686,-1.3 1.204,-2.73 0.893,3.94 -2.192,1.07 -3.96,0.64 -1.351,-0.32 -0.417,1.82 -1.162,2.31 -1.112,0.73 -5.268,-0.5 -3.019,-1.51 -3.951,-0.1 -4.495,-6.27 -4.926,-8.99 -0.191,-1.2 -0.98,-3.95 -0.427,-5.15 0.554,-1.19 1.377,-0.14 1.134,-1.67 -0.169,-1.06 0.268,-2.07 0,-3.15 -0.406,-1.61 -0.855,-2.49 -1.996,-4.16 -1.161,-1.7 -2.578,-3.26 -3.159,-5.28 -0.358,-1.25 0,-2.13 -0.961,-3.2 -0.642,-0.72 -1.274,-1.38 -1.743,-2.24 -0.39,-0.71 0.149,-1.09 -0.111,-1.63 -0.467,-0.96 -0.985,-1.63 -0.839,-2.76 0.83,0.61 2.326,1.01 2.766,-0.28 0.547,-1.6 -1.098,-2.82 -0.536,-4.4 0.03,0.57 0.37,0.88 0.94,0.86 -0.02,-0.4 -0.109,-0.79 -0.266,-1.16 -0.19,-0.73 0.415,-1.53 0.406,-2.29 -0.02,-1.52 -0.875,-2.52 0.05,-3.96 0.746,-1.16 -0.608,-1.84 -0.05,-3.22 0.424,-1.05 1.227,-2.82 1.373,-3.91 0.355,-2.66 -0.773,-5.46 -0.65,-8.07 0.07,-1.45 1.416,-2.69 1.349,-3.98 -0.06,-1.13 -0.953,-2.45 -1.382,-3.49 -0.363,-0.88 0.205,-2.06 0.539,-2.86 0.361,-0.87 -0.258,-2.28 -0.365,-3.13 -0.08,-0.62 0.299,-1.13 -0.148,-1.7 -0.469,-0.59 -0.894,-1.18 -1.142,-1.9 -0.55,-1.6 -0.774,-3.08 -1.449,-4.67 -1.224,-2.9 -2.579,-6.04 -3.11,-9.15 -0.27,-1.58 0.05,-1.73 1.152,-2.53 0.858,-0.62 0,-2.01 0.59,-2.82 0.552,-0.76 -1.233,-4.95 -1.854,-5.46 -0.781,-0.65 -1.771,-2.51 -1.224,-3.53 0.763,-1.43 0.868,-2.71 1.355,-4.24 0.31,-0.97 -0.401,-2.68 -0.384,-3.75 0.03,-1.73 1.338,-2.78 0.663,-4.54 -1.011,-2.64 0.389,-5.91 0.409,-8.7 0.02,-2.44 -1.5,-4.46 -1.384,-6.77 0.07,-1.33 1.485,-1.56 1.436,-2.84 -0.07,-1.7 -1.292,-3.36 -1.651,-5.04 -0.375,-1.76 -0.08,-3.49 -0.333,-5.24 -0.127,-0.88 -0.452,-1.47 -0.211,-2.39 0.197,-0.74 0.511,-1.5 0.348,-2.29 -0.193,-0.94 -1.609,-0.37 -1.841,-1.4 -0.245,-1.09 0.119,-2.26 0.219,-3.34 1.697,1.52 1.609,-3.44 1.593,-4.173 -0.09,-4.222 0.765,-9.078 -0.806,-13.042 -1.683,-4.246 -0.571,-8.913 -2.157,-13.238 -0.661,-1.801 -1.386,-3.97 -1.714,-5.854 -0.216,-1.184 0.345,-3.592 -1.035,-4.23"></path>
		<path id="path6472" d="m 856.18,1156.95 c -0.517,-0.67 -1.31,-2.11 -0.72,-2.95 0.202,0.97 1.667,0.89 1.51,-0.15 -0.08,-0.55 -1.771,-1.12 -2.23,-1.29 0.825,-0.77 1.907,0.17 2.758,0.37 1.855,0.43 1.016,-1.76 1.58,-2.56 0.604,-0.85 2.29,1.1 2.926,1.26 1.136,0.29 2.027,-1.04 3.062,-0.4 1.14,0.71 1.215,2.28 1.919,3.31 0.974,1.43 1.67,3.03 2.349,4.61 1.575,3.67 3.908,7.06 5.206,10.83 -0.7,-0.42 -1.531,-0.51 -2.23,-0.93 0.408,0.41 0.888,0.7 1.44,0.86 -1.038,1.11 -3.541,0.42 -4.734,0 -0.611,-0.23 -1.304,-1.24 -1.99,-1.04 -0.912,0.26 -1.073,0.51 -1.847,-0.23 0.172,0.31 0.342,0.62 0.51,0.93 -0.529,-0.55 -2.904,0.56 -2.09,-1.01 -0.14,0.77 -2.644,1.17 -3.31,0.87 0.457,-0.39 0.937,-0.75 1.439,-1.08 -0.887,-0.52 -2.113,0.54 -2.96,0.72 -0.04,-0.57 -0.278,-1.05 -0.71,-1.44 -0.326,1.81 -1.613,-0.3 -2.24,-0.65 0.997,1.36 -1.015,0.86 -1.7,0.75 -0.546,-0.1 -1.193,0.5 -1.68,0.33 -0.514,-0.17 -0.693,-1.13 -1.149,-1.44 0.871,-0.1 1.485,0.64 2.3,0.79 -0.05,-0.57 -0.402,-0.96 -1.01,-0.86 0.585,-0.22 1.092,-0.1 1.52,0.36 -1.641,-1.55 3.171,0.1 3.663,-0.53 0.415,-0.52 -0.04,-1.38 1.23,-1.03 0.872,0.24 -0.02,2.65 1.437,2.28 -0.472,-0.32 -0.771,-0.85 -0.65,-1.44 1.251,0 2.493,1.57 3.75,1.01 -1.207,-0.67 -2.529,-1.02 -3.635,-1.87 -0.965,-0.75 -2.271,-0.17 -2.995,-1.37 2.028,0.33 4.296,0.94 5.98,2.16 -0.638,-0.4 -0.846,-1.27 0.199,-1.11 0.933,0.14 1.604,1.09 2.321,1.61 -0.25,-0.55 -0.633,-0.98 -1.149,-1.3 0.94,-0.34 1.951,0.93 2.589,0.51 1.017,-0.67 2.464,0.93 1.65,1.94 0.271,-0.58 0.807,-0.85 1.37,-0.43 -0.866,-0.9 -0.09,-0.95 0.65,-0.86 -2.652,-2.27 -8.018,-1.5 -10.048,-4.7 -1.438,-2.27 4.071,-1.79 3.408,-3.85 -0.827,-2.57 -6.054,1.66 -7.689,-0.96"></path>
		
	</g></svg>
