<svg xmlns="http://www.w3.org/2000/svg" viewBox="1337.7 577.4 114.8 114.8"><path fill="#2b1d24" d="M1366.2 657q1.4-1.4 1.5-3.3c0-1.1 1.5-3.3 1.1-4s-.6-1.1.6-2.4l3.5-3.8c.8-.7 1.7-1 2-2 .4-.7 1.7-2.9 2.6-3.1s1.5 1 2.7.7c1-.2 1-1.5 1.3-2.3.2.8 2.2 2.9 3 3 .7.3 1 1.3.6 2.1-.2.6.8 1.4 2 1.2.3-.6 2.2-2.3 1.7-3.4-.3-.7 1.2-1.7 1.7-2 .9-.8 0-1.8.5-2.8q1.7-2.5 2.8-5.8c.3-1 0-2 .2-2.9.2-.7 1.4-1 1.3-2.1-.3-.1 2.5.3 3.1-2.5.1-.7 1.2-3.8.2-4 1.2-.6 3-1.4 3.2-2.8l.1-2.6c0-1 1-.9 1.4-1.5q.5-1.3.8-3l.8-2.6c.2-1.3 1-3.6 2.2-4 .7-.4 4.7-.3 5.2-2.6.2-.6-.5-1.1-.4-1.9l.4-3c.3-1.1-1.8-2.1-2.5-2-.5.3-1.3-.9-1.5-2.4-.2-2.3-.1-3.2-.4-3.9.8 0 2.2 0 2.9.7 1 1.1 0 2.3 2.2 2.9 1.1.3 1.2 3 1.3 3.9s-.1.1.8 1c2 1.8-.1 7.2.2 9.6.3 3.3 1.9 7 4.9 8.7-1.2 1-2.8.6-3.7 0l-2.3.4c-2.3 0-4.5-1.4-5.7.5-1.3 2.2-1.2 2.6.7 4.7q2.8 3 5.8 5.8a10 10 0 0 1 1.8 2.2c.8 1.4 1.5 4.4 2.3 5.9.9 1.4-.9 2.4-1.3 3-.7 1-1.7 3.1-2.3 4.6l-.9 1.8-1.4 2.7c-.6 1.2-3.7 2.5-2 3.2 1.4.5 1.3 1.9 1 3.6q.1 1.2-.5 2.2l1 1.3c.2 1.4-.1 3.7.8 4.9.6.7 1.5 1 1.7 2.1.2.8.6 2 1.4 2.5-2.5.1 3 6.6 3.5 7 1.2 1 3 1.5 3.1 2.4.2.7.3 1 .3 1.7q.2 2.4.8 4.8c-1.8.9.2 4-1 4.9q-1.5-1.6-3.7-2.5c-.6-.2-2.5-1-3-.6s-2 .3-2.4-.6l-2.4-.6c-.6-.2-2.6 0-3.5-.1q-2.4 0-4.8-.3-.6.2-1.4 0c-.6-.2.3-.8-.9-.7-1.4.1-2.7.4-4.2 0-1.8-.4-3.3 0-5-.1-1.2 0-3.3-.7-4.4-.1-.3.2-.2 1.1-.6 1.1h-7.9c-3.2.2-4-1.6-3.3-4.7.4-1.7 1-3.6.1-5.3-.4-.8-2-2.1-.3-2.7-1 .5-2.7-.3-1.6-1.4.5-.5 1.8-1.5.1-1.5q.5-.6.5-1.2c-.5 1.2-1 .2-1.8.2q.6.7 0 .5l-.2 1.1q-1-.1-.8-1.1c-.5 1-2.2-.3-2.4-1-.3-1.3-.4-3.3-1.2-4.3-1 1.2-.8-.2-1.5-.2l.2 1.4c-2 .3-.9-1.6-.7-2.7"/></svg>
