<svg xmlns="http://www.w3.org/2000/svg" viewBox="1337.66 577.43 114.76 114.76"><path id="cm" d="m 1366.16,656.909 c 0.94,-0.805 1.53,-1.993 1.57,-3.188 0,-1.117 1.5,-3.278 1.09,-4.047 -0.42,-0.783 -0.59,-1.096 0.57,-2.398 1.15,-1.293 2.28,-2.609 3.55,-3.79 0.73,-0.679 1.65,-0.969 2.03,-1.91 0.32,-0.811 1.59,-2.962 2.49,-3.217 0.99,-0.281 1.57,1.036 2.79,0.77 0.96,-0.211 1.02,-1.551 1.24,-2.308 0.18,0.77 2.25,2.873 2.98,3.069 0.74,0.195 0.94,1.231 0.65,2.018 -0.21,0.568 0.83,1.42 1.95,1.157 0.34,-0.582 2.2,-2.306 1.74,-3.345 -0.32,-0.722 1.19,-1.684 1.71,-2.102 0.87,-0.694 0,-1.75 0.47,-2.684 0.92,-1.833 2.22,-3.509 2.85,-5.805 0.26,-0.974 -0.1,-2 0.19,-2.918 0.21,-0.712 1.34,-0.957 1.29,-2.141 -0.34,-0.1 2.51,0.283 3.09,-2.513 0.13,-0.631 1.22,-3.751 0.15,-3.96 1.23,-0.626 3.04,-1.422 3.25,-2.825 0.13,-0.915 0.1,-1.673 0.1,-2.589 0,-0.954 0.96,-0.871 1.39,-1.525 0.52,-0.796 0.46,-1.923 0.79,-2.922 0.33,-1.042 0.64,-2.043 0.77,-2.674 0.26,-1.228 0.96,-3.529 2.24,-4.048 0.67,-0.271 4.69,-0.241 5.2,-2.515 0.15,-0.64 -0.52,-1.138 -0.42,-1.883 0.16,-1.29 0.25,-2.027 0.47,-3.005 0.25,-1.145 -1.85,-2.132 -2.52,-1.919 -0.56,0.205 -1.28,-0.975 -1.54,-2.451 -0.21,-2.345 -0.1,-3.224 -0.42,-3.899 0.87,0 2.22,-0.08 2.9,0.677 1,1.12 0,2.241 2.18,2.854 1.15,0.315 1.28,2.98 1.35,3.901 0.1,0.92 -0.11,0.148 0.84,1.052 1.91,1.817 -0.15,7.182 0.12,9.562 0.37,3.306 1.93,7.08 4.92,8.738 -1.21,1.038 -2.73,0.548 -3.71,0.06 -1.01,0.09 -1.23,0.252 -2.3,0.292 -2.22,0.09 -4.49,-1.358 -5.62,0.479 -1.37,2.229 -1.2,2.615 0.62,4.701 1.83,2.09 3.83,3.904 5.84,5.812 0.61,0.576 1.41,1.459 1.81,2.212 0.79,1.465 1.44,4.457 2.31,5.883 0.87,1.45 -0.89,2.468 -1.33,3.056 -0.7,0.936 -1.66,3.103 -2.29,4.62 -0.21,0.503 -0.71,1.282 -0.91,1.793 -0.38,0.944 -0.96,1.696 -1.4,2.616 -0.61,1.277 -3.73,2.533 -1.94,3.255 1.32,0.528 1.21,1.87 1.03,3.615 -0.1,0.789 -0.13,1.498 -0.57,2.175 0.1,-0.08 0.96,1.171 0.97,1.261 0.23,1.472 -0.13,3.726 0.85,4.908 0.61,0.73 1.42,1.004 1.69,2.139 0.21,0.846 0.57,1.983 1.35,2.533 -2.47,0.06 3.09,6.609 3.56,6.987 1.2,0.959 2.88,1.526 3.09,2.394 0.16,0.651 0.29,1.008 0.32,1.641 0.1,1.602 0.44,3.267 0.8,4.817 -1.88,0.878 0.2,4.003 -1,4.896 -1.07,-1.053 -2.26,-2 -3.71,-2.464 -0.63,-0.202 -2.51,-0.965 -3.02,-0.623 -0.66,0.44 -1.96,0.364 -2.37,-0.619 0,-0.05 -2.2,-0.464 -2.42,-0.548 -0.67,-0.266 -2.59,-0.06 -3.48,-0.116 -1.61,-0.09 -3.25,-0.07 -4.86,-0.3 -0.27,-0.04 -1.07,0.216 -1.38,0.06 -0.61,-0.297 0.27,-0.907 -0.86,-0.795 -1.48,0.147 -2.78,0.388 -4.29,0.06 -1.78,-0.381 -3.24,-0.08 -5.02,-0.137 -1.17,-0.04 -3.25,-0.698 -4.36,-0.09 -0.31,0.174 -0.19,1.103 -0.53,1.103 -1.1,0 -2.2,0 -3.31,0 -1.53,0 -3.06,0.06 -4.59,0.09 -3.29,0.07 -4,-1.735 -3.31,-4.789 0.4,-1.74 1,-3.627 0.1,-5.311 -0.44,-0.794 -1.97,-2.138 -0.36,-2.664 -0.91,0.52 -2.66,-0.336 -1.61,-1.384 0.56,-0.552 1.79,-1.51 0.17,-1.568 0.31,-0.348 0.48,-0.756 0.5,-1.224 -0.51,1.232 -1.05,0.252 -1.87,0.288 0.3,0.408 0.52,0.7 0,0.432 0,0.394 0,0.778 -0.14,1.152 -0.66,-0.02 -0.98,-0.536 -0.79,-1.152 -0.57,1.041 -2.21,-0.264 -2.42,-1.03 -0.33,-1.211 -0.4,-3.282 -1.26,-4.226 -0.99,1.218 -0.8,-0.216 -1.44,-0.216 0.11,0.474 0.19,0.953 0.22,1.439 -2.05,0.256 -0.93,-1.66 -0.72,-2.736" fill="#2B1D24">
		
	</path></svg>
