<svg xmlns="http://www.w3.org/2000/svg" viewBox="1795.1 161.6 455.8 455.8"><g fill="#2b1d24"><path d="M1826.5 357.3c1 0 1.8-.5 1.5-1.6-.3-1.4-1-1.2-.5-2.7.3-1.3 1.4-.8 2.3-1.2 1.1-.5 1.6-2 2.8-2q-.3-.8-.1-1.5c.7.2 2.2.9 3 .3q.6-1 1.7-1.4c.8 0 1.2 2 1.7 2.4.9.8 2.6-.3 3.7-.2 2 .2 2.2-2.7 2.5-4.2q.2-1.7 2-1.4 2.3.4 4.7 0c.8-.3 2 0 2.6-.6.8-.7.6-2.1 1.4-3 1.7-2 5.2-2.2 7.3-4 .8-.6 1.2-1 2.3-1 1.3 0 1-.5.5-1.5l-1.6-3.6c-.8-1.5 1-1.9 2-2.2q-.6-.6-1.4-.9c.4-.7 1.2-1.6 2-1 .7-1.3-1-1.5-1-2.5 0-1.5-1.5-2.5-2.3-3.6q-1.7-2-2.9-4.6c-.4-1.2.3-3-.8-3.5-.9-.5-4.6 0-3.6-1.6.6-.9 2.8-1.1 3.8-1.4 1.8-.6 3.6-.7 5.4-1.4s2 .3 3.6.9c1.1.5 2.1-.8 3.3 0 1.4 1 1.4-.6 1.1-1.5-.4-1.4-2.1-.6-2.8-1.6s0-2.6 0-3.6c.2-1.4-.2-3-.2-4.5 0-1.4.6-2.9.4-4.2q-.4-2.5 2-1.5 1.6 1 3.5 1.5c1.8.4 3.5-.2 5.2 0 1.4 0 1.8 1.8 3 .8 1-.8 2.3-1 3.2-1.7 1.7-1.5-2.4-5.5-2.9-7.1-.2-.9-.4-3.2.4-3.8s2 0 3-.4c2.3-1 2.1-2.1 1.4-4.3-.5-1.4 1.1-1.4 2-1.4 1 0 2.6.7 4.5-.2.6.5 1.4 1.5.9 1.6-1.3.3 1 1.3 1.3 1.5 1.7.7.2 1.3 1.2 1.8 1.4.6 3.3.7 4.4 2s4.5 3.1 6.3 2.6c1.9-.5 3.8 2.5 4.6 1 .8.2 2.8 1.4 3.7 2.2 1.2 1.2 1.8 2.7 3 3.8q2 1.3 3.7 3.3c1.6 2 1.5 1.1 1.6 2.3.4 3.5 2 3.7 1 5q-1.5 2 .4 4c.9.8 2 2 3.3 2.3q2.4.6 4.9.8l5 .7 4.6-.1c3 .1 5.6 1.7 7.8 2.8l2 .9c1.9 1.2 2.8 1.6 4.3 2.1 1.1.5 2 .3 3.2.4 1.5.3.9 1.5 1.6 2.1 1.3 1.1 2.3 1.2 3.3 2.7q1.3 1.8 2.8 3.5 2 1.6 4.1 3c.9.7.9 1.8 2 2 1.5.2 3.1-.4 4.8-.5 2.4-.2 7 1.3 10.7 1.4l5.5.5c1.7 0 3-1.1 4.7-1q3 .4 5.8 1c1.7.1 3.1-.5 5.2.6 1.4.7 2.3 2 3.7 2.5 2 .8 4.4 1 6.6 1.6 3.2.7 6 2 10 1.7 1.4-.1 1.5.4 2.7 1 1.2.8 4.4.6 3.6.8a32 32 0 0 1 8.4-5c1.2-.3 3.3-1.2 5-1.3q2.9-.5 6.3-.7c3.1 0 7 .6 9-.8 1.3-.8 3.3-1.2 4.2-2.3s1.1-2.7 1.8-3.9c.7-1 1.6-.7 2.7-2l1.5-1.4c.2-.3.7-.1.8-.4.4-2.1-4.7-4.3-6-5.7-.9-1 .2-1.5-.3-2.7-.7-1.5.2-3 1.7-3.5 2-.7 3.4 1.4 9.4 2.7.8.1 2.9.6 3 0 .3-1.4 2-1.4 2.6-2.4.5-.9.5-2 1.2-2.8s2.3 0 3.2 0c2.2.3 4.7-1.1 6-3 .5-1-1.2-1.7-.4-3.3.6-1.3.2-2.5 3.4-2.1 1 0 1.6.3 1.8-1.2 0-1.2 1.8-.3 2.4-.3.4 0 2-1.2 2.7-1.3q1-.2 1.9 0c1.3.5 2-.6 1.8-.3.5 0 1.6.6 2.2.7q1.5.4 3.1.3c3.6-.3.2-3.3-1.2-4.2q-5.9-4.1-11.8-6.9c-1.8-.8-4.6-1.5-5.8.7-1.5 3-3.7-.5-6 0l-3.2.1c-1 .2-1.1 1.6-2.5.8-.8-.5-4-2-3.2-3.4.5-.8 1-.7.5-1.7q-.7-1.3-.6-2.8-.1-4.8-.5-9.6c2.4 1.2 5 1.2 7.3 2.2 2.6 1.1 2.7-1.2 4.3-2.6 1.1-1 4-.8 4.2-2 .3-1-1.5-1.3-2.1-2-.5-.4-.3-1-.3-1.5-.1-1 .5-1.3.1-2.2q-.4-.7-.1-1.4c.4-.9-.2-1.4-.2-2.3 0-2-1-3.7 1-5 2-1.6-.8-3.3-1.6-4.6-.7-1.2-2.2-2.2-3.7-1.7-1.2.5-1.8-.4-2.6-1.3 2-.6 1.4-4 3.8-4.4 3-.5 5.7-1.6 8.6-1.5 3 .2 5.4-1.3 8.3 0 1 .3 3 .6 4 1.4 1.5 1 3.4 1 5 1.8-.5-2.1 6.2 0 6 1-.3.6 2.7 1.4 3.4 1.8.6.3.2.7.7 1l2.3 1.5c1.5 1 3.6 1.9 4.3 3.2q1 1.6 2.6 2.8c1 .6 1.5 1.6 3 2.1 1.4.5 2.1 2.4 3.3 3.3l4 2.9c1 .9 1.3 2.2 2.3 3 1.2 1.1 2 .7 2.6 2.3.9 2.6 4.9 4.8 7.5 4.3 1.1-.2 2.7-.3 3.7.3 1.6.9 3.2 1 4.9 1.8-1.3-2.3 2 .6 2.5.6 1.2 0 2.8 1.9 3.8 2.5 1.7 1 3.2.2 4.9.8.5.2.2 1.4.6 1.9q.8.8 1.9 1.2c1.6 1 1.3 2 2 3.5.4 1 3.8 3 4.8 3.4.6.2 1.3-.4 2-.4 1 0 1.8.6 2.8.5 1.2-.2 5.1 0 4.7-1.4s1.8-2.5 3.3-2.3c0 0 1.3.5 1.4.2.2-.9.1-1.1 1-1.3.9-.3 2.3-1.4 3.4-1.2.5.1 2.3.6 2.7 1q0 1.5.9 2.5c1 1 3 2.2 2.1 4-.2.3-.9.7-1.2 1-.8.8.4 1.4.7 2l.2 1.7c.2 1 1.1 1.8 1 2.9 0 1.2 2.6 3.2.6 3.9 1.3.9.2 1.3.2 2.4 0 .8 1.1 1.4.9 2.2-.4.9-1.8.2-.8 2.4l.8 2c.2 1-5.5-.8-6.4-1-.4 0-2.8-1.1-3-.8-.4.8-.3 2.1-1.1 2.6-.6.3-1.7.5-2.1 1s1.3 1.6 1.5 1.8q3 3.3 5 7.4c1.1 2.2 3.4 3.7 3.2 6.3-.1 1.2.5 1.9-.8 1.7q-1.8-.5-2.8 1.2c2.1.5 3 2.4 3.9 3.4 1.1 1.4-4.5-2.5-5.5-4q-1.3-1.8-3.5-1.6c.3 1 1.8 3.6 1.2 4.5-.5.7-1.8 0-2.5.5-.9.8.8 2.4-1.2 2.9-1.8.4-3.7 0-5.5.5 1 1.3 4.4 2.7 4 4.5-.2 1-4.4.3-5.3.2q-1.5-.2-2.7-.8c-.9-.6-1.8-2.1-3-2-.6 0-.8.8-1.5.8 0 1.6.2 2.5-.4 4.1-.2.7-.3 1.9-1 2.4-.3.2-1.8.3-1.7.8.1.7-.5.6-.9 1.1q-.4.6-1.2.7c-.5.2-1 1.2-1.2 1.3a4 4 0 0 0-2.7 4c0 2-3.2 2-4.3.9.1 1-1.4 1-2 1 .2.7-.5.9-1 1-1.3.2-2.2 1.1-3.2 1.9s-1.6 1-1.8 2.3c0 1-1.2.9-.9 1.8q-.7-.4-1.6-.4c.8 1-2.5 3.6-3.3 1.1-.4-1.3 2.1-1.2 2.4-1.6.5-.5-.1-1-.2-1.5 0-.7 1-1 1.4-1.5-2.3 1-3.4-.6-5.4-.9q.5-.8 1.5-1c-1.3-1.9-.4-1.6 1-3 .6-.6 1-2.5 1-3.4.3-3.1-4.6-2.5-5-5.3.2 1.9-1.6 1-2.6.7-1.2-.4-3.9 1-2 1.7-1.4.3-2.2 2.5-2.1 3.8 0 1.1-3.2 2.3-4 2.8q-1 .6-1.7 1.7c-.7 1.3.6 2 .3 3-.8 2.4-2.8 1.6-4.6 2.7-1.3.8-2.6-1.2-4-1-1.9.4-.9 3.6-.4 4.9.7 2.1 3.2 2.9 4.9 4 .5.5 1.8.6 2.4.4 1-.4 1.3 1 2.2 1.2q.3-.8 0-1.5c1.4 0 3.4 1.4 4.1 2.7 1 1.8-.4 3.5 1.5 5q2.2 1.5 4.5 1c1.1-.1 2.5-.8 1.2-1.9.6-.3 3.5-2.7 1.4-2.7 1.2.2 2.3-.9 3.4-1.2 1-.3 2.7.8 3.3 1.5q.7.9 1.7.4c.5-.1 1 .7 1.2 1 1 1 2.7-.5 3.7.5l.3-1c1.5 1.2 3.6.4 5.1 1.4l-.8.5c1.6 1.3-.8 1.6.7 2.7q.9.7-.3 1.4c-1.3.5-1.4-.7-2-1.5l-.5 1.1c-.2-1-.9-.7-1.5-.2-.3.3-2.8 2.1-1.4.6-.8.5-2.3 2-3.2 2-.7.2-2.2-.7-1.9.6 1.1-.9 2 .5 1.4 1.5-.3-.8-1.2-.8-1.4 0s.7 1.2.6 2c-.1.4-1.2.9-1.5.8-1-.2-.6-1.4-1.4-1.9 1 1.4-.4.3-1.2.4 0 1 1.2 2.2 2.2 2.2-2 .3-.9 4-3.3 3.3 0 1-.2 3-.7 3.9-.9 1.4-.2 2.3.2 3.7 1-1 2.7.4 3.6 1 1.6 1.2 3.5 1.7 5.3 2.5 1.4.6 2 2.8 2.8 4 1.3 1.8 2.5 3.9 4.1 5.3 1.2 1 2.3 2.6 2.4 4.1.1 1.8 2.9 2.1 4.2 2.7 1.1.5.6 1.2 1.2 2 .4.7 1.1.7 1.8 1 1 .6 3.5 1.8 2.8 3.4-1.6-.4-3.3-2-5-1.5-2.3.7-2.2-1-4.2-1.7s-2.8 1.8-4.4.9q-1.1-.7-1.8-2c-.7-.9-1.6-.8-2.5-1.3q.7.6.4 1.4.6-.7 1.3 0l-.8-.7c.9-.3 2.6 2 1 1.2 1.1.8 2.5 2.5 4.1 1.8.7-.3.6-1 1.4-1 .7.1 1.7.5 2.1 1 .3.4 0 .8.5 1l2.5 1c1.8.6 3.4 2.2 5 3.1 1 .5 3.1 2.5 3 3.7 0 .6-1.2.4-1.5.4-1.2.1-1.9 1.1-2.8 1.8q-1 .4-1.4 1.5c-.1.3-.2 1.2-.7 1.2-.8 0-1.3-.8-2.3-.4q-1.2.6-2.1 1.6c.4-.2 2.2-1.7 2.7-1.3 1 .7 1 2.5 2.4 2.5l-1-.5c1.8.2 2.8-1.8 4.5-1.3q1.5.6 2.4 2c1 1 3 1.1 4.2 1.4q-1 .6-1.8 1.7l-.7 1c-.4.4-1 .2-1.4.6l.6.8c.4-.7 1.2-1.6 2-.8-.4-.5-.3-1.6.5-1.2 1 .5.2 1.3.6 2 0 0 .9 2.5 0 1.9-.5-.3-.5-1.2-1-1.6l.3 1.5q-.9 0-1.2-.8c.3 1.3 0 .4-.4 0q-.2.8-.7 1.5c1-.1 2.3.7 2.4 1.7q-.6-.7-1 .1c.8 0 1.6 1 .8 1.6-1 .6-2.6-.7-3.5-1 .5.3.8 1.1 1.4 1.4.8.3 1.4-.4 1.9.7.2.5 1.6 1.7.9 2.3-.6.5-1.4.5-1 1.6-1-.4-1-1.7-2-2-.3.4-.3.5-.8.7 1.4.2-.7 4.4-3 1.6.3 1 2.6.8 2.3 2-.2 1-1.3 3 0 3.7q-.9.4-.6 1.5c.2 1.5-1-.1-.6 1l-1.4-1.4c0 .5 2.5 2.3.4 1.9.4.8-.3 1.6-1 1.9.8 1.2 1.4 3.3-1 2.7q1.1-.6.7-1.9l-.8 1q-.8-.5-1-1.4-.5.9-1.4.6.5.6.4 1.4c1.2-.5 2.5 1.5.9 1.4 0 .9 1.1 1.3 1.4.3.9.9-.1.8-.7 1.4q-.9 1-1.2 2.3-1.4-1-3-1.4c.8.5 1.3 1.8 2.4 1.7s1.4-1.4 2.4 0c-.8.3-.5 1.5-.8 2.3-.3 1.2 1.6 1.3 1.2 2.6q-.3-1.5-.8 0a4 4 0 0 0-1.9-1.6 2 2 0 0 1-1 1.5c.6.2 2 .4 1.7 1.3-.3 1.3-1.3-.6-1.3 1.1-.2-.7-.9-2-1.7-1 1 .4.1 1.9 1.3 2-.3.7-2 2-2 .6q-.9.8 0 1.2c.9.5.2 1.8-.2 2.3l-1.2-1.3c-.3 1-1.5 1.6-2 .4-.6.8-2 .3-1.1 1.5q-.8-.3-1.7 0 .9.8 2 .4-.2 1 .7 1c-.2.5-.7.5-1 .8-.7.5-.3 1.5-1.2 2q.5-1-.6-.8c.3.8-.2 1.5-.2 2.3-.1-1.5-1.6 0-2.3 0-.2.2-.8 2.7-1.5 2s-1.2-1-1.3.2q-.2 2-2.2 1.5c.8.3 1.9.3 2 1.4-.8-1.1-.8.6-1.4 0-.3.8.2 2-1 2.3-.7.2-2 .5-2.8 0 1.1 1.2-3 1.8-2.1 0-.7.7-1.5.4-2.2 0 .1.7 1.8 1.5 1.4 2.3-.3.4-1 0-1.2-.2-.8-.5-1.6-.4-1.5-1.5-.4.7-2 1.7-2.7 1.3 1.3.4.5 1.4-.3 1.2-.9-.3-.8-1.4-.2-1.9q-1.4 0-2.1 1.2c1 .2-.1 1.1 1 1.4l-.7.4c-.5-1.5-4-1.4-4.9-.1 0-2.1-2.7-2.7-2.4-4.9-.3 1.4-.3.6-.9 0q.8-1 2.2-.7c-1.1-.8-2 .8-3.2.3 1.6.6 0 1.9-1.1 1.5.4.1 1.9.7 2 1.2h-.6c1 .6 3 3.5 2.2 4.8-1 1.3-3-2.6-3.5-3.1 0 1.2 1.5 2.4 2.1 3.4q-.9.3-1 1.1-.9-.5-1-1.4c-1.2.6 0 2.1-.7 3-1-1.3-1.7-.3-2.4.6-.5.7-2-.7-1.2-1.5q-1 .4-.9-.7c-.1.8.5 1.7.2 2.5-.3 1-3-.8-3.6-1 1.3 1.7-.4.9-1.3 1 1.6.6-.8 3-1.8 1.5q-.3 1-1.1 1.3c.5-1-.8-.4-1.6-.2s-2.2.5-2.7 1.3q.2-.6.6-1.1-1 .7-.6 1.8c-1.6.5-1-.6-2-1.3-.4.8.7 1.3 0 2-.5.6-1.6 1.1-1.2 2q.6.7 1.6.8c.6.2.4 1.8-.1.1 0 1.3 1.8 2 1.7 3.2-.1 2.1-3 1-4.2 1.7.1-.8-.8-2 .5-1.3-.2-1.2-2.4-1-1.6-2.6-1 .1-.4-1.3-1.2-1.4-.5-.1-.7-2.1-.3-2.5.7-.7-.2-1.2.8-1.8 1.5-1-.6-1.5-1.2-2l.3.8c-1 .3-1.6-1.4-2.1-2q-.5.8.5 1.4c-.4.4-1.8 1.7-2.4.7-.9 2-1-1-1.5-1.4s-2.4.5-1.3-1l-.8-.3q0 .8.4 1.5c-.9-.2-1.3-1.8-2.2-1.6q.5-.8-.3-1.2c-.3.5-.5 1.2-.6.2-.2 1 1.4 1.7.8 2.8-.3.5-1.3-.7-1.7-.7q.4 1-.6 1.6c0-.7-1.6-1-2.5-1.3-1.8-.5-2.8 1.3-3.2-.1l-.7.4c-.7-1-1.7-.9-2.5-1.5-.4-.4-.2-.6-.4-1s-1.5-1.1-2.5-.7c-.6-1.9-1.6-3.3-1.6-5.3 1.7.6 1-3.7-1.7-2.5-1 .5-1.3-.3-2-.7-1-.5-1.5.4-2.7 0-2.1-1-3-2-4.2-3.6-.5 1.2-2 1.3-3 2.1-.5.5.6 1.5-.1 2.2-.7.6-4.4 2.5-4 .4-1.3 0-1.7 3.1-2.1 2.8q-1-.6-1.7-1.6c-1.2-1.2-1.1.1-1.5 1-1.4-1.6-1.6-2-2.7 0-1 2-2.4 0-3.3-.9-2.1-1.7-2.4.8-3.2 2.2-.5.8-1.1-.1-1.7 0h-1.2c-.5.2-.4-.6-.8-.6-1.9 0-1 3.7-.5 4.4q.9 1 1.5 2.4l.5 1c.1.5-.3 1-.3 1.4 0 .6 1.2 1.8.6 2.3-.7.6-1.5-.9-2.4-.6-1.4.4-1.5.5-2-.9q-1-1.8-1.4-3.7c-1.2.9-3.3 3.4-5 2.4-.7-.5-.9.6-1.5.5s-.9-1.6-.6-2c-2.5 0-.6-2.5-2-3.2a8 8 0 0 0-4.8-.4c-2 .3-.4-2.6-.3-3.3.2-1-1-4 1-3.9-.6-1.5-1.5-1.6-3-1.6-2 0-1.8-1.6-2.6-2.8 0-.2-.7-.9-.6-1 .7-1-.7-1.7-1-2.4-.8-1.2 1-1.8.7-3-1.8 1.3-4-.3-5.8.7-.4.2-2.9 2.2-3.3 1.8-.9-.7 0-1.4.4-2 .2-.8-.2-2-.6-2.5-.6-.9-1-.8-1.2-2q-.3-1.6 1.3-1.8c-.8-1.3-.2-2.3-.2-3.6 1.7 1.5 1.8-2.4 2-3 2.4.2.6-.8 2.3-2 .2-.2 1.1.3 1.2-.2 0-.8-1-1.5-1.3-2.2 1.5.6.7-2.1.7-2.8q0-2.6-.9-5c-.4-1.2-.4-2.5-1.1-3.5a6 6 0 0 0-2.5-2.4q.4.9-.5 1.2c-.5-1-1.5-2-1.8-3.2-.3-1-.3-1.7-1.1-2.5-1.3-1.2-3.4-1.6-4.5-3-.1.8-.6 2.2-.7 2.7l-.3.5c-.3.2 0-.2-.8-1s-1.3 0-2.2-.3c-.8-.4-1.8-1.1-2.7-1.1-.8 0-1.1 1-2 .7-.7-.2-.1-1.2 0-1.5q.8-.9 1.1-1.8c.3-1-1.5-1.4-1.2-2.7-.6.2-1.3 1.1-2 1-1.6-.4.2-2 .7-2.2l-2.2-1.9c-.7-.5-2.8 1-3.4 1.5s-.3 1.4-.9 1.7c-.5.4-1.4 0-1.9-.2-.2-.1-2.3-1.4-1.4-.4-.7-.3-1.7-1.1-2.4-1.3-.8-.2-1.4.4-2.2.9-1.2.7-1.8 2-2.6 3-1 1.2-2.1 1.1-3.6 1.4-1.7.3-1 1.4-1.7 2.4s-2.3 1.3-2.6 2.5c-.4 1.4-.4 2.5-2.3 2.5-1.3 0-2.2.8-3.4.7h-1.5c-.3-.2-.1-.7-.2-1.2 0-1-2.2-1.4-3-1.4-1.2 0-.8 1.4-2.6.3q-2.9 0-4-.5c-1-.6 0-1.4-1.1-1.8a4 4 0 0 0-4 .7c-1.3.9-2 3-2.8 4.4-.5 1-1.8 2.1-1.9 3.3-2.7-2.1-.7-3.7-1.3-5.3-.8-2.4-3.5-.5-5.3-.4l.1.8c-1.6-.5-4 .1-5.6 0-1.6 0-2.6-.5-4-1.3-.5-.2-1.4-.8-2-.5-.5.2-.2 1-.8 1.2-.8.1-2.5-1.1-2.6-2-.2.2-.2 3.1-1 1.9-.7-1.3-2.3-2-2.8-3.4-.3 1.1-4.2.7-4.4-.4-.2-.5.4-1.5 0-2s-1.9.7-2.7.2c-1.2-.8-4-1.7-4.6-3.2-.6-1.9-2.5-3.9-4.4-2-.7.8-3-2.2-3.3-2.6-1-1.2-3-1.5-4.4-2.4q-3.4-2-6.3-4.6c-.7-.7-1.7-.6-2.6-.9s-1 1-2 .5c.4 2.7-1.1 3-2.6 1.3a10 10 0 0 0-5-2.7c-.4-.1-1.4-.2-1.7-.6-.4-.5.4-1.4-.5-1.8a3 3 0 0 1-1.8-1c-1-.9-1.7-.2-2.9-.5-1.7-.5-2.4-2.4-3.6-3.6-1.2-1.1-2.4 2.2-3.2-.1-.2-.9.1-1.7-.4-2.4q-.7-1-.8-2.3c-.2-1-1.2-1.5-1.8-2.1-1-.9-.8-2.2-1.6-3.2 2-1.4 2.4-.4 3.5 1 .5.6 1.4.8 1.8 0 .6-1 1.6-.8 2.2-1.6.7-1-.3-2-.9-2.7-.5-.6-.2-2-.8-2.2-2.3-.8-2.2-.6-3.9-2.3a9 9 0 0 1-2-5.8c0-.2 2.5-1 .4-1.7-1.8-.5-3.2-2-5-3-2.3-1.4-1.6-4.7-5.5-7-2.3 0-9.3-.4-9.4-3.8-.7.2-1.7 1.3-2.5.7-.5-.5-2-1.5-2.4-2.1-.2-.6-.2-1.9-.4-2.6a5 5 0 0 0-1.5-2.4c-1-1-2.8-.5-3.5-1.5s-3-2.4-3.9-.8c-.7-1.7-2.7-.4-3.4-1.7-.9-1.7 2.3-1 2.7-1 2-.4 1.2-2.1.1-2.8-.9-.5-.4-.8-.5-1.7 0-.4-.7-1.6-.8-2-.3-.6-1-.6-1.2-1.3-.3-.8 0-1.6-.2-2.4-.3-1.5-2.8-1.9-4-2.1-1.6-.4-2.7 1.8-3.9.2-.4-.5-2-2.7-.5-2.7l-1.8-2c-.6-.5-.4-1.6-.6-2.4"/><path d="M2164.1 358.1q.2-.9-.7-.6zm8.9.9-.8-.2zm14.8 64.5c1.3.6 4.4 4 6 2.4-1-.8-4.8-3.6-6-2.4m9.1 32 .1.3c1.3-.3.2-1.9-.1-.3m1.9-16.5c.7-.1 1.5.4 2.3 0-.5-.8-2-1.5-2.8-.8zm-.2-2.6q.3.5 1 .4-.2-1-1-.4m1.8 5.3q.3-1-.7-.2zm-23.2 51.8.6.5c1-1-.5-1.4-.6-.5m14.4-15.5c.7 1.4 1-.4.8-1q-.5 0-.8.2l.8.6zm-4.6-5 1.5.6q-1 .4-1.5-.7m-5.4 13.4q-.3 1 .7.8.2-.8-.7-.8m-63.1 45.1c-.4.6.3 3 .5 3.6.2 1 .1 2.7 1 3.5 1 1 2.6.9 3.8 1.6 1 .7 2.8.8 4.1.7-.5-1.4 1.4-2.2 2-1.3-.4-.6 2-2.6 2.4-3 .5-.5 1.2-3.4.4-3.7.9-.5 1.8-3 1.6-4 1.9 1.4.8-2.2.5-2.9-.5-1.2-3.8-2.4-2.4.3-.5-.6-2.7-1.5-1.5 0-.7-1.9-2.7-.7-3.3.2-.5-1.3-2.6-1-3.5-.4l.5.8c-.9.3-1.4-.8-2.2-.6-1 .3-.5 1.6.3 1.8-1.8.5-2.9 2.2-4.2 3.4m9.5-14.2c.9-.2 1.7-.5 2.2.3.5-1.5-1.7-1.5-2.1-.3m1.9-2.1q-1 .5.4.8zm9.2-3.1q.5-.2.6-.9-.7.1-.6 1m5.9-1.3q-.6.1-.8.8 1 0 .8-.9m1.3 1.2a2 2 0 0 0-.4-1.5q0 .8.4 1.5m2.8-11.5c.1.2 1.2 1.6 1.6 1.2q-.5-.9-1.6-1.2m1.1 1.4q0 .6.6.7zm4 2c.8-.2 1.5-.6 2.1.2l-.7.6q.6-.6 1.2-.2c1.2.9-1.2 0-.2 1.4-.9-.2-4-.9-2.4-2"/><path d="M2153.3 506.5c0-.8 1-1 1.4-1.2.1.8-.7 1.2-1.4 1.2m2.5-.7q0 .6.6.7-.2-.5-.6-.7m-4.7.7c.1 0 .2.4.2-.1v.8zm32.6-20.2-.8.5q.6.4 1.4.3zm14.3 8.6c.1.7.5 1.3.2 2q-.3 1 .2 1.8c1 1 1.3 2.6 2 3.8.7 1.5 2.3 2 3.3 3.2.3.4.9 3 1.7 2.6 1-.5.3-2.1.2-3q-.2-1.7 1-3.3c1.7-2.5 2-7.3 1.9-10.3-.1-.6-.5-1.6-.3-2.2l.6-1.6c.2-1.6-.4-2.8-.4-4.3 0-.8.8-1.4.1-2-.4-.5-2.7-2.3-3.3-1.7-.9.9-2.7 1.1-3.2 2.4s-.3 2-1.3 3.2c-.8 1-1 2.5-1.4 3.7-.5 1.9-1.8 3.7-1.4 5.7"/><path d="m2183.7 486.3-.8.5q.6.4 1.4.3zm14.3 8.6c.1.7.5 1.3.2 2-.1.7-.3 1.2.2 1.8 1 1 1.3 2.6 2 3.8.7 1.5 2.3 2 3.3 3.2.3.4.9 3 1.7 2.6 1-.5.3-2.1.2-3q-.2-1.7 1-3.3c1.7-2.5 2-7.3 1.9-10.3-.1-.6-.5-1.6-.3-2.2l.6-1.6c.2-1.6-.4-2.8-.4-4.3 0-.8.8-1.4.1-2-.4-.5-2.7-2.3-3.3-1.7-.9.9-2.7 1.1-3.2 2.4s-.3 2-1.3 3.2c-.8 1-1 2.5-1.4 3.7-.5 1.9-1.8 3.7-1.4 5.7"/></g></svg>
