<svg xmlns="http://www.w3.org/2000/svg" viewBox="1795.1 161.6 455.79 455.79"><g id="cn" fill="#2B1D24">
		
		<g id="cnx">
			
			<path id="path2708" d="m 1826.53,357.318 c 1.01,0 1.73,-0.506 1.51,-1.584 -0.3,-1.48 -1.02,-1.203 -0.57,-2.765 0.37,-1.264 1.43,-0.818 2.37,-1.195 1.09,-0.439 1.52,-1.982 2.81,-2.016 -0.21,-0.464 -0.26,-0.944 -0.15,-1.44 0.74,0.153 2.24,0.881 2.93,0.265 0.51,-0.462 1.08,-1.231 1.81,-1.333 0.77,-0.106 1.13,1.881 1.65,2.336 0.88,0.773 2.59,-0.276 3.72,-0.178 2.06,0.179 2.21,-2.749 2.45,-4.184 0.19,-1.183 0.73,-1.627 2.02,-1.436 1.63,0.242 3.14,0.273 4.72,-0.08 0.82,-0.183 1.96,0.123 2.64,-0.519 0.74,-0.709 0.61,-2.109 1.32,-2.937 1.77,-2.083 5.24,-2.29 7.3,-3.976 0.83,-0.678 1.26,-1.044 2.31,-1.07 1.36,-0.03 0.99,-0.525 0.58,-1.509 -0.53,-1.253 -0.99,-2.351 -1.61,-3.555 -0.8,-1.576 0.91,-1.927 2,-2.203 -0.42,-0.4 -0.9,-0.712 -1.44,-0.936 0.44,-0.657 1.19,-1.645 2.09,-1.008 0.58,-1.317 -1.02,-1.447 -1.08,-2.542 -0.1,-1.434 -1.51,-2.438 -2.3,-3.506 -1.09,-1.466 -2.24,-2.94 -2.86,-4.677 -0.41,-1.145 0.27,-3.008 -0.81,-3.505 -0.92,-0.419 -4.65,0.02 -3.61,-1.539 0.6,-0.881 2.81,-1.13 3.79,-1.438 1.8,-0.561 3.57,-0.705 5.37,-1.354 1.8,-0.646 2.07,0.26 3.56,0.852 1.18,0.475 2.19,-0.746 3.37,0.08 1.37,0.955 1.39,-0.624 1.11,-1.555 -0.43,-1.395 -2.17,-0.586 -2.87,-1.627 -0.6,-0.89 0,-2.592 0.11,-3.563 0.12,-1.464 -0.24,-3.002 -0.23,-4.479 0,-1.397 0.6,-2.932 0.32,-4.291 -0.34,-1.639 0.51,-2.101 1.96,-1.404 1.22,0.588 2.29,1.147 3.63,1.463 1.75,0.411 3.43,-0.246 5.18,-0.07 1.35,0.134 1.82,1.904 3.06,0.859 0.95,-0.804 2.26,-0.912 3.16,-1.718 1.65,-1.469 -2.46,-5.515 -2.93,-7.1 -0.25,-0.86 -0.44,-3.209 0.42,-3.812 0.83,-0.58 2.04,0.01 2.95,-0.396 2.32,-1.037 2.14,-2.114 1.41,-4.265 -0.48,-1.405 1.13,-1.392 2.05,-1.413 1.01,-0.02 2.52,0.693 4.43,-0.219 0.58,0.546 1.38,1.493 0.91,1.619 -1.25,0.342 1.01,1.337 1.34,1.48 1.66,0.708 0.14,1.305 1.15,1.783 1.41,0.663 3.32,0.693 4.39,1.994 1.2,1.46 4.48,3.168 6.31,2.646 1.9,-0.539 3.77,2.458 4.63,0.989 0.76,0.238 2.81,1.416 3.67,2.24 1.21,1.165 1.81,2.707 3.07,3.804 1.1,0.955 2.53,1.829 3.66,3.243 1.62,2.029 1.46,1.125 1.59,2.292 0.39,3.522 1.98,3.741 1.08,4.985 -1.02,1.398 -0.92,2.834 0.33,4.023 0.86,0.817 1.97,1.966 3.27,2.297 1.61,0.407 3.2,0.627 4.91,0.848 1.6,0.206 3.38,0.523 5,0.643 1.56,0.113 3.05,-0.129 4.61,-0.06 2.92,0.124 5.56,1.729 7.83,2.783 0.79,0.367 1.57,0.679 1.88,0.87 1.98,1.213 2.85,1.601 4.4,2.188 1.12,0.426 2.02,0.248 3.19,0.406 1.51,0.204 0.87,1.418 1.62,2.054 1.31,1.094 2.3,1.189 3.3,2.717 0.8,1.206 1.87,2.363 2.82,3.45 1.11,1.269 2.78,1.962 4.06,3.027 0.89,0.745 0.86,1.802 2.04,1.967 1.43,0.199 3.08,-0.381 4.72,-0.484 2.46,-0.155 7.09,1.299 10.78,1.463 1.82,0.08 3.6,0.483 5.42,0.437 1.74,-0.04 2.95,-1.113 4.73,-0.989 1.89,0.132 3.97,0.679 5.85,0.93 1.62,0.215 3.11,-0.424 5.14,0.631 1.39,0.719 2.33,2.019 3.76,2.558 2,0.751 4.4,1.072 6.57,1.579 3.22,0.752 5.96,2.047 9.99,1.714 1.42,-0.118 1.53,0.352 2.68,1.09 1.17,0.747 4.39,0.533 3.6,0.663 -1.3,0.21 6.66,-4.475 8.38,-4.954 1.22,-0.34 3.29,-1.226 5.12,-1.34 1.98,-0.123 3.79,-0.678 6.22,-0.66 3.13,0.02 6.91,0.637 9.08,-0.783 1.23,-0.802 3.24,-1.227 4.17,-2.334 0.9,-1.06 1.07,-2.676 1.78,-3.848 0.62,-1.029 1.59,-0.785 2.64,-2.026 0.44,-0.521 0.96,-0.811 1.49,-1.383 0.27,-0.299 0.72,-0.136 0.8,-0.476 0.48,-2.063 -4.71,-4.266 -5.96,-5.612 -0.9,-0.962 0.2,-1.502 -0.33,-2.698 -0.68,-1.542 0.27,-3.113 1.69,-3.577 2.04,-0.666 3.46,1.427 9.44,2.7 0.8,0.169 2.87,0.587 3,-0.02 0.29,-1.342 2.01,-1.394 2.6,-2.362 0.54,-0.887 0.5,-1.958 1.17,-2.777 0.63,-0.784 2.36,-0.05 3.2,0.03 2.24,0.216 4.7,-1.182 6,-3.131 0.57,-0.853 -1.12,-1.632 -0.37,-3.233 0.61,-1.3 0.19,-2.433 3.36,-2.121 1.02,0.101 1.67,0.347 1.8,-1.142 0.11,-1.24 1.85,-0.285 2.41,-0.321 0.4,-0.03 1.95,-1.146 2.76,-1.326 0.65,-0.145 1.2,-0.06 1.84,0.01 1.28,0.552 1.99,-0.548 1.83,-0.28 0.5,0 1.6,0.605 2.18,0.718 1.06,0.203 2.06,0.408 3.13,0.3 3.56,-0.358 0.16,-3.342 -1.17,-4.26 -3.96,-2.74 -7.88,-4.902 -11.81,-6.806 -1.84,-0.89 -4.68,-1.544 -5.81,0.628 -1.52,2.944 -3.75,-0.432 -6.04,0 -0.84,0.154 -2.38,-0.02 -3.16,0.128 -1.02,0.19 -1.15,1.57 -2.51,0.806 -0.86,-0.486 -3.99,-2.07 -3.19,-3.417 0.44,-0.759 1.05,-0.733 0.45,-1.679 -0.59,-0.939 -0.6,-1.724 -0.58,-2.786 0.1,-3.197 -0.26,-6.393 -0.51,-9.576 2.37,1.137 4.98,1.107 7.27,2.124 2.61,1.157 2.8,-1.152 4.39,-2.609 1.11,-1.011 3.92,-0.808 4.2,-1.994 0.22,-0.953 -1.52,-1.252 -2.15,-1.911 -0.46,-0.482 -0.24,-1.041 -0.29,-1.599 -0.1,-0.889 0.52,-1.29 0.11,-2.203 -0.25,-0.415 -0.28,-0.851 -0.11,-1.309 0.37,-0.939 -0.17,-1.465 -0.17,-2.388 0,-1.956 -0.95,-3.614 0.91,-4.998 2.08,-1.546 -0.78,-3.225 -1.53,-4.588 -0.67,-1.209 -2.25,-2.199 -3.67,-1.633 -1.27,0.506 -1.87,-0.47 -2.62,-1.299 2.04,-0.689 1.4,-3.951 3.82,-4.419 2.87,-0.557 5.63,-1.657 8.59,-1.494 2.94,0.161 5.39,-1.294 8.25,-0.117 1.03,0.425 3.09,0.69 4.09,1.454 1.42,1.099 3.33,1.034 4.91,1.839 -0.48,-2.136 6.24,0.08 5.96,0.939 -0.23,0.706 2.76,1.456 3.49,1.859 0.57,0.313 0.2,0.721 0.7,1.023 0.79,0.472 1.46,0.89 2.23,1.447 1.5,1.08 3.6,1.932 4.33,3.256 0.61,1.1 1.63,2.058 2.65,2.726 0.93,0.615 1.51,1.691 2.93,2.176 1.47,0.499 2.18,2.369 3.34,3.244 1.31,0.98 2.71,1.882 3.98,2.924 1.08,0.883 1.31,2.163 2.33,3.081 1.14,1.023 2.05,0.662 2.59,2.233 0.88,2.573 4.89,4.803 7.5,4.314 1.11,-0.207 2.7,-0.314 3.7,0.241 1.64,0.908 3.19,1.09 4.89,1.786 -1.29,-2.261 1.99,0.622 2.52,0.648 1.23,0.06 2.74,1.852 3.79,2.462 1.71,0.985 3.24,0.194 4.89,0.85 0.49,0.196 0.25,1.431 0.62,1.881 0.43,0.511 1.3,0.879 1.87,1.203 1.66,0.959 1.34,1.997 1.99,3.474 0.47,1.049 3.79,2.939 4.82,3.394 0.61,0.268 1.26,-0.377 1.94,-0.377 1.02,0 1.86,0.63 2.9,0.504 1.17,-0.143 5.11,0.02 4.7,-1.346 -0.44,-1.446 1.79,-2.528 3.22,-2.375 0.1,0 1.33,0.547 1.41,0.19 0.19,-0.827 0.13,-1.06 1.05,-1.303 0.85,-0.224 2.31,-1.36 3.34,-1.142 0.58,0.122 2.38,0.594 2.77,1.008 -0.1,0.975 0.18,1.771 0.86,2.467 0.99,1.018 3.1,2.236 2.14,3.947 -0.21,0.363 -0.92,0.791 -1.23,1.103 -0.76,0.777 0.38,1.354 0.67,1.985 0.25,0.512 0.12,1.118 0.23,1.658 0.21,0.994 1.11,1.83 1.04,2.881 -0.1,1.237 2.61,3.237 0.54,3.887 1.29,0.941 0.2,1.298 0.26,2.405 0,0.817 1.11,1.416 0.82,2.237 -0.31,0.893 -1.8,0.244 -0.78,2.404 0.28,0.586 0.76,1.262 0.87,1.916 0.16,1.054 -5.54,-0.69 -6.44,-0.893 -0.39,-0.09 -2.85,-1.156 -3.03,-0.816 -0.38,0.751 -0.31,2.102 -1.09,2.556 -0.63,0.364 -1.68,0.515 -2.11,1.014 -0.41,0.479 1.29,1.62 1.51,1.845 2.09,2.168 3.66,4.7 5,7.378 1.12,2.245 3.39,3.689 3.19,6.345 -0.1,1.158 0.55,1.844 -0.79,1.646 -1.13,-0.166 -2.16,0.02 -2.81,1.196 2.14,0.494 3.08,2.424 3.9,3.405 1.14,1.362 -4.44,-2.47 -5.47,-4.013 -0.86,-1.278 -1.98,-1.638 -3.47,-1.553 0.27,0.919 1.73,3.543 1.14,4.44 -0.46,0.697 -1.81,-0.02 -2.44,0.511 -0.92,0.783 0.76,2.395 -1.26,2.91 -1.81,0.461 -3.7,0.03 -5.5,0.492 0.94,1.282 4.41,2.772 4,4.537 -0.21,0.943 -4.35,0.308 -5.31,0.16 -0.9,-0.136 -1.83,-0.332 -2.63,-0.794 -0.92,-0.542 -1.82,-2.126 -3.04,-1.989 -0.64,0.07 -0.75,0.804 -1.52,0.82 0.1,1.637 0.19,2.52 -0.35,4.097 -0.24,0.696 -0.35,1.874 -0.99,2.348 -0.32,0.242 -1.85,0.302 -1.76,0.846 0.13,0.707 -0.51,0.611 -0.83,1.134 -0.37,0.339 -0.79,0.548 -1.29,0.627 -0.44,0.223 -0.87,1.265 -1.12,1.342 -1.57,0.475 -2.78,2.191 -2.76,3.948 0,2.069 -3.14,2.139 -4.29,0.925 0.16,1.093 -1.36,0.969 -2.02,0.935 0.27,0.8 -0.45,0.95 -1.05,1.051 -1.25,0.208 -2.15,1.162 -3.12,1.901 -0.97,0.731 -1.63,1.039 -1.75,2.361 -0.1,0.963 -1.2,0.872 -0.92,1.814 -0.48,-0.331 -1.01,-0.475 -1.58,-0.432 0.77,1.04 -2.59,3.581 -3.34,1.122 -0.39,-1.283 2.09,-1.258 2.43,-1.631 0.5,-0.541 -0.14,-0.989 -0.2,-1.529 -0.1,-0.674 0.99,-1.027 1.32,-1.49 -2.24,0.992 -3.4,-0.533 -5.4,-0.864 0.36,-0.508 0.9,-0.885 1.52,-1.008 -1.26,-1.89 -0.37,-1.584 1.03,-2.981 0.64,-0.641 0.9,-2.553 0.98,-3.427 0.27,-3.147 -4.59,-2.48 -4.97,-5.256 0.23,1.828 -1.65,1.03 -2.62,0.683 -1.22,-0.439 -3.85,0.943 -1.98,1.693 -1.42,0.278 -2.26,2.466 -2.14,3.806 0.1,1.104 -3.16,2.316 -3.91,2.818 -0.72,0.485 -1.39,0.841 -1.8,1.656 -0.67,1.33 0.63,1.988 0.31,3.008 -0.76,2.419 -2.8,1.608 -4.61,2.711 -1.23,0.755 -2.52,-1.225 -3.88,-0.969 -1.97,0.372 -0.98,3.598 -0.53,4.819 0.79,2.137 3.2,2.92 4.92,4.124 0.54,0.38 1.83,0.521 2.45,0.277 1.02,-0.403 1.26,1.076 2.13,1.221 0.24,-0.504 0.24,-1.008 0,-1.512 1.46,0 3.46,1.464 4.14,2.754 0.95,1.778 -0.39,3.495 1.55,4.988 1.31,1.002 2.9,1.273 4.48,1.019 1.12,-0.18 2.47,-0.795 1.2,-1.921 0.61,-0.36 3.48,-2.736 1.37,-2.735 1.21,0.226 2.32,-0.839 3.41,-1.168 1.03,-0.312 2.69,0.764 3.31,1.517 0.53,0.656 0.99,0.578 1.73,0.354 0.43,-0.128 0.95,0.731 1.17,0.952 1,1.013 2.68,-0.478 3.7,0.576 0.11,-0.306 0.21,-0.617 0.29,-0.936 1.52,1.073 3.64,0.273 5.11,1.368 -0.27,0.138 -0.53,0.282 -0.79,0.432 1.59,1.29 -0.82,1.652 0.69,2.726 0.6,0.431 0.52,1.086 -0.27,1.402 -1.32,0.522 -1.45,-0.681 -2,-1.464 -0.17,0.375 -0.36,0.735 -0.58,1.08 -0.16,-1.083 -0.84,-0.768 -1.45,-0.219 -0.35,0.317 -2.86,2.111 -1.43,0.58 -0.82,0.528 -2.3,1.925 -3.22,2.092 -0.65,0.118 -2.21,-0.751 -1.82,0.571 1.06,-0.93 2,0.46 1.37,1.44 -0.31,-0.759 -1.2,-0.81 -1.37,0.07 -0.15,0.748 0.68,1.184 0.54,1.955 -0.1,0.353 -1.15,0.857 -1.47,0.781 -1.02,-0.242 -0.59,-1.434 -1.45,-1.872 0.97,1.394 -0.39,0.234 -1.15,0.36 0,0.938 1.18,2.255 2.16,2.232 -2.04,0.308 -0.86,3.904 -3.31,3.312 0,0.97 -0.19,3.019 -0.69,3.858 -0.84,1.396 -0.14,2.315 0.26,3.702 1.03,-0.984 2.69,0.42 3.52,1.03 1.63,1.204 3.53,1.648 5.34,2.476 1.43,0.649 1.95,2.793 2.8,3.981 1.28,1.8 2.49,3.883 4.14,5.363 1.13,1.02 2.24,2.55 2.34,4.084 0.12,1.822 2.88,2.08 4.2,2.665 1.15,0.513 0.64,1.196 1.2,2.072 0.43,0.673 1.14,0.674 1.81,1.009 1.09,0.552 3.54,1.767 2.8,3.383 -1.56,-0.431 -3.28,-1.986 -4.99,-1.5 -2.28,0.653 -2.2,-0.978 -4.15,-1.704 -1.96,-0.729 -2.81,1.764 -4.46,0.86 -0.81,-0.447 -1.27,-1.21 -1.79,-1.946 -0.65,-0.913 -1.58,-0.861 -2.46,-1.397 0.44,0.342 0.61,0.933 0.35,1.439 0.4,-0.467 0.84,-0.491 1.3,-0.07 -0.27,-0.206 -0.54,-0.422 -0.79,-0.647 0.87,-0.327 2.64,1.974 0.94,1.224 1.17,0.782 2.53,2.522 4.16,1.779 0.66,-0.299 0.58,-0.936 1.42,-0.892 0.72,0.04 1.65,0.357 2.11,0.943 0.29,0.364 0,0.808 0.44,1.05 0.8,0.396 1.73,0.514 2.56,0.837 1.79,0.699 3.33,2.311 5.06,3.217 0.95,0.5 3.02,2.487 2.96,3.689 0,0.558 -1.2,0.345 -1.52,0.374 -1.22,0.111 -1.88,1.114 -2.79,1.787 -0.6,0.449 -1.34,0.681 -1.47,1.47 -0.1,0.351 -0.13,1.203 -0.64,1.234 -0.87,0.05 -1.37,-0.79 -2.35,-0.41 -0.83,0.319 -1.44,1.066 -2.1,1.625 0.46,-0.227 2.2,-1.662 2.7,-1.309 0.96,0.671 0.98,2.494 2.42,2.461 -0.3,-0.19 -0.62,-0.358 -0.94,-0.504 1.71,0.259 2.77,-1.77 4.41,-1.299 1.14,0.324 1.7,1.249 2.47,2.034 0.93,0.932 2.97,1.134 4.21,1.425 -0.85,0.398 -1.22,1.041 -1.8,1.728 -0.2,0.365 -0.44,0.701 -0.72,1.008 -0.44,0.341 -1.02,0.16 -1.44,0.576 0.14,0.279 0.33,0.519 0.57,0.72 0.44,-0.63 1.29,-1.51 2.09,-0.792 -0.42,-0.422 -0.34,-1.564 0.49,-1.112 0.92,0.503 0.12,1.281 0.56,2.019 0,0.01 0.88,2.443 0,1.839 -0.52,-0.336 -0.47,-1.201 -0.93,-1.594 0.11,0.474 0.19,0.954 0.22,1.44 -0.61,0.16 -1.02,-0.226 -1.15,-0.793 0.26,1.335 -0.12,0.488 -0.44,0 -0.13,0.58 -0.37,1.108 -0.72,1.584 0.93,-0.188 2.31,0.694 2.45,1.656 -0.43,-0.452 -0.76,-0.404 -1,0.145 0.76,-0.05 1.62,1 0.76,1.527 -1.07,0.653 -2.58,-0.628 -3.5,-1.023 0.49,0.386 0.78,1.199 1.37,1.439 0.83,0.339 1.4,-0.346 1.92,0.678 0.24,0.489 1.59,1.726 0.92,2.326 -0.61,0.545 -1.38,0.506 -1.04,1.604 -0.94,-0.432 -0.99,-1.689 -1.95,-2.088 -0.27,0.476 -0.3,0.574 -0.79,0.792 1.43,0.192 -0.69,4.439 -3.02,1.584 0.31,1.05 2.63,0.847 2.33,2.06 -0.27,1.044 -1.33,2.938 0,3.629 -0.73,0.343 -0.72,0.813 -0.61,1.503 0.22,1.489 -1.03,-0.07 -0.61,0.944 -0.49,-0.425 -0.97,-0.857 -1.44,-1.296 0,0.52 2.52,2.313 0.43,1.872 0.37,0.854 -0.29,1.634 -1.08,1.872 0.87,1.215 1.52,3.375 -1.01,2.736 0.76,-0.314 1.12,-1.102 0.79,-1.872 -0.34,0.273 -0.61,0.609 -0.79,1.008 -0.48,-0.35 -0.86,-0.859 -1.01,-1.44 -0.3,0.532 -0.84,0.854 -1.44,0.576 0.37,0.412 0.52,0.892 0.44,1.44 1.18,-0.533 2.55,1.533 0.86,1.368 0.1,0.889 1.17,1.366 1.44,0.288 0.89,0.921 -0.1,0.879 -0.71,1.476 -0.62,0.614 -0.94,1.462 -1.23,2.268 -0.78,-0.725 -1.96,-1.135 -2.96,-1.439 0.78,0.489 1.26,1.863 2.37,1.678 1.1,-0.184 1.48,-1.331 2.39,0.05 -0.74,0.305 -0.47,1.511 -0.71,2.274 -0.38,1.26 1.57,1.3 1.14,2.622 -0.23,-0.96 -0.49,-0.96 -0.8,0 -0.45,-0.693 -1.09,-1.283 -1.87,-1.584 -0.1,0.605 -0.4,1.138 -0.93,1.439 0.52,0.284 1.84,0.466 1.62,1.368 -0.31,1.301 -1.33,-0.572 -1.33,1.081 -0.16,-0.745 -0.88,-2.033 -1.66,-0.936 0.99,0.349 0.13,1.819 1.29,1.871 -0.26,0.797 -1.94,2.021 -1.94,0.648 -0.79,0.634 -0.61,0.804 0,1.225 0.82,0.524 0.12,1.773 -0.27,2.303 -0.42,-0.417 -0.83,-0.85 -1.22,-1.296 -0.25,0.948 -1.49,1.549 -2.01,0.432 -0.55,0.792 -1.89,0.292 -1.08,1.439 -0.55,-0.16 -1.1,-0.185 -1.66,-0.07 0.5,0.548 1.23,0.756 1.94,0.504 -0.14,0.576 0.14,0.915 0.72,0.936 -0.2,0.532 -0.69,0.53 -1.06,0.852 -0.58,0.504 -0.2,1.465 -1.1,2.028 0.32,-0.699 0.1,-0.963 -0.65,-0.792 0.29,0.776 -0.2,1.466 -0.21,2.232 -0.1,-1.453 -1.53,0.07 -2.3,0.07 -0.16,0.181 -0.73,2.691 -1.51,1.928 -0.69,-0.671 -1.15,-1.02 -1.28,0.238 -0.15,1.383 -0.8,1.709 -2.18,1.506 0.83,0.319 1.86,0.299 2.09,1.368 -0.93,-1.134 -0.86,0.632 -1.52,-0.07 -0.29,0.879 0.23,2 -0.93,2.352 -0.76,0.23 -2.07,0.524 -2.81,0.1 1.08,1.145 -3.09,1.725 -2.16,-0.07 -0.63,0.703 -1.45,0.408 -2.16,0.07 0.14,0.614 1.79,1.431 1.35,2.18 -0.27,0.459 -0.88,0.07 -1.15,-0.112 -0.83,-0.567 -1.6,-0.478 -1.5,-1.492 -0.45,0.613 -2.1,1.616 -2.66,1.225 1.27,0.444 0.44,1.417 -0.32,1.206 -0.9,-0.247 -0.87,-1.328 -0.26,-1.854 -0.85,0 -1.62,0.442 -2.08,1.152 0.96,0.175 -0.1,1.161 1,1.439 -0.21,0.191 -0.45,0.335 -0.72,0.433 -0.46,-1.546 -4.01,-1.408 -4.82,-0.144 -0.1,-2.108 -2.74,-2.657 -2.45,-4.896 -0.29,1.435 -0.25,0.578 -0.86,0.07 0.48,-0.806 1.3,-0.942 2.16,-0.792 -1.11,-0.776 -2.05,0.79 -3.17,0.288 1.6,0.643 -0.1,1.884 -1.15,1.512 0.4,0.162 1.91,0.723 1.99,1.209 -0.16,0.127 -0.34,0.132 -0.55,0.01 0.9,0.596 3.06,3.477 2.16,4.752 -0.96,1.352 -2.99,-2.558 -3.46,-3.096 -0.1,1.289 1.49,2.443 2.09,3.456 -0.53,0.124 -0.93,0.536 -1.01,1.08 -0.53,-0.263 -0.93,-0.754 -0.93,-1.368 -1.31,0.601 0,2.088 -0.8,2.952 -0.99,-1.274 -1.71,-0.249 -2.37,0.659 -0.45,0.614 -2.03,-0.696 -1.15,-1.523 -0.62,0.242 -1.01,-0.06 -0.94,-0.72 -0.12,0.836 0.49,1.699 0.23,2.535 -0.33,1.053 -3.06,-0.858 -3.62,-1.023 1.3,1.643 -0.42,0.888 -1.36,0.937 1.63,0.642 -0.74,3.095 -1.8,1.584 -0.17,0.543 -0.53,1.08 -1.08,1.296 0.54,-1.099 -0.8,-0.431 -1.54,-0.258 -0.91,0.215 -2.2,0.511 -2.78,1.338 0.16,-0.412 0.38,-0.796 0.64,-1.152 -0.6,0.419 -1.07,1.143 -0.64,1.872 -1.56,0.47 -1.01,-0.642 -1.95,-1.368 -0.37,0.821 0.74,1.358 0,2.098 -0.51,0.521 -1.63,1.054 -1.17,2 0.26,0.541 1.03,0.569 1.52,0.739 0.69,0.236 0.48,1.775 -0.1,0.132 0.11,1.264 1.87,1.922 1.77,3.179 -0.15,2.118 -3.03,1.08 -4.22,1.646 0.1,-0.728 -0.78,-1.891 0.51,-1.224 -0.26,-1.223 -2.46,-0.976 -1.59,-2.664 -1.01,0.135 -0.38,-1.312 -1.22,-1.403 -0.54,-0.06 -0.69,-2.074 -0.34,-2.446 0.71,-0.733 -0.17,-1.243 0.8,-1.835 1.5,-0.91 -0.61,-1.433 -1.18,-1.947 0.13,0.259 0.25,0.523 0.36,0.792 -1.11,0.239 -1.67,-1.411 -2.16,-2.088 -0.35,0.597 -0.1,1.159 0.5,1.439 -0.42,0.47 -1.83,1.701 -2.37,0.72 -0.88,2.021 -1.07,-1.031 -1.52,-1.368 -0.52,-0.396 -2.39,0.438 -1.29,-1.079 -0.26,-0.09 -0.52,-0.164 -0.79,-0.217 -0.1,0.526 0.1,1.007 0.36,1.44 -0.88,-0.133 -1.29,-1.798 -2.16,-1.584 0.4,-0.506 0.22,-0.998 -0.36,-1.224 -0.23,0.514 -0.45,1.241 -0.58,0.216 -0.19,1.061 1.43,1.72 0.83,2.802 -0.29,0.52 -1.28,-0.689 -1.69,-0.642 0.28,0.621 0,1.202 -0.58,1.512 0,-0.646 -1.68,-0.958 -2.53,-1.21 -1.82,-0.541 -2.79,1.266 -3.16,-0.158 -0.24,0.145 -0.48,0.289 -0.72,0.433 -0.69,-1.049 -1.7,-0.904 -2.51,-1.562 -0.39,-0.327 -0.19,-0.556 -0.42,-0.951 -0.23,-0.383 -1.48,-1.122 -2.47,-0.656 -0.61,-1.915 -1.66,-3.36 -1.65,-5.327 1.71,0.602 0.93,-3.704 -1.66,-2.522 -1.04,0.476 -1.3,-0.286 -2.1,-0.682 -0.96,-0.479 -1.38,0.419 -2.61,-0.09 -2.14,-0.894 -2.99,-1.84 -4.22,-3.541 -0.52,1.212 -1.98,1.35 -2.9,2.115 -0.59,0.489 0.51,1.469 -0.23,2.215 -0.61,0.615 -4.36,2.439 -3.99,0.421 -1.3,0.05 -1.62,3.093 -2.08,2.801 -0.66,-0.416 -1.2,-1.08 -1.73,-1.64 -1.14,-1.191 -1.06,0.1 -1.45,1 -1.39,-1.609 -1.58,-1.957 -2.67,0.06 -1,1.853 -2.42,-0.119 -3.37,-0.912 -2.08,-1.721 -2.38,0.745 -3.2,2.123 -0.51,0.851 -1.11,-0.08 -1.67,-0.06 -0.38,0.01 -0.84,0.07 -1.21,0.183 -0.49,0.147 -0.37,-0.665 -0.8,-0.665 -1.88,0 -0.97,3.637 -0.5,4.332 0.53,0.788 1.2,1.542 1.49,2.466 0.2,0.292 0.39,0.594 0.55,0.907 0.1,0.526 -0.37,0.984 -0.36,1.512 0,0.559 1.19,1.735 0.65,2.231 -0.71,0.671 -1.54,-0.849 -2.43,-0.58 -1.36,0.412 -1.52,0.51 -2.07,-0.894 -0.48,-1.208 -1.23,-2.381 -1.33,-3.71 -1.21,0.905 -3.31,3.439 -4.91,2.403 -0.77,-0.495 -0.94,0.651 -1.59,0.517 -0.65,-0.139 -0.86,-1.588 -0.56,-2.056 -2.51,-0.03 -0.66,-2.502 -2,-3.164 -1.47,-0.726 -3.27,-0.632 -4.81,-0.416 -1.98,0.279 -0.41,-2.579 -0.29,-3.276 0.19,-1.027 -1,-3.95 0.91,-3.873 -0.51,-1.516 -1.48,-1.656 -2.95,-1.656 -1.93,0 -1.76,-1.575 -2.56,-2.81 -0.1,-0.113 -0.75,-0.859 -0.62,-1.048 0.68,-0.969 -0.69,-1.633 -1.1,-2.352 -0.69,-1.208 1.05,-1.728 0.75,-2.933 -1.74,1.29 -3.91,-0.35 -5.73,0.67 -0.42,0.235 -2.88,2.182 -3.3,1.844 -0.88,-0.692 0,-1.415 0.33,-2.125 0.28,-0.704 -0.2,-1.825 -0.59,-2.406 -0.59,-0.902 -0.95,-0.782 -1.18,-2.076 -0.17,-0.962 0.24,-1.66 1.26,-1.739 -0.77,-1.271 -0.1,-2.268 -0.14,-3.6 1.68,1.526 1.8,-2.423 1.95,-2.952 2.47,0.178 0.69,-0.879 2.3,-2.088 0.25,-0.19 1.14,0.313 1.2,-0.125 0.11,-0.877 -0.99,-1.52 -1.27,-2.251 1.48,0.577 0.72,-2.089 0.72,-2.819 0,-1.588 -0.37,-3.434 -0.91,-4.924 -0.42,-1.186 -0.43,-2.501 -1.1,-3.565 -0.52,-0.827 -1.15,-1.735 -2.46,-2.372 0.29,0.575 0,1.025 -0.57,1.225 -0.52,-1.038 -1.49,-2.083 -1.82,-3.177 -0.3,-0.966 -0.26,-1.795 -1.07,-2.517 -1.32,-1.195 -3.38,-1.667 -4.53,-2.947 -0.1,0.766 -0.54,2.147 -0.61,2.636 0,0.223 -0.31,0.378 -0.39,0.527 -0.22,0.176 0.1,-0.285 -0.74,-1.069 -0.87,-0.853 -1.34,0.08 -2.21,-0.316 -0.79,-0.36 -1.77,-1.067 -2.67,-1.058 -0.84,0 -1.16,1.08 -2.06,0.722 -0.64,-0.256 -0.11,-1.178 0.1,-1.534 0.31,-0.561 0.92,-1.14 1.08,-1.757 0.25,-0.991 -1.57,-1.444 -1.2,-2.688 -0.64,0.183 -1.32,1.063 -2.04,0.896 -1.63,-0.372 0.18,-1.874 0.74,-2.119 -0.65,-0.59 -1.53,-1.384 -2.25,-1.898 -0.71,-0.51 -2.81,1.07 -3.4,1.479 -0.6,0.421 -0.3,1.354 -0.88,1.747 -0.51,0.352 -1.45,-0.1 -1.9,-0.285 -0.17,-0.07 -2.31,-1.381 -1.43,-0.324 -0.66,-0.386 -1.68,-1.178 -2.38,-1.368 -0.82,-0.219 -1.45,0.463 -2.24,0.932 -1.15,0.674 -1.76,1.938 -2.6,2.913 -1.06,1.237 -2.09,1.208 -3.58,1.468 -1.64,0.287 -1,1.398 -1.72,2.413 -0.66,0.932 -2.27,1.351 -2.56,2.457 -0.37,1.444 -0.39,2.501 -2.34,2.571 -1.26,0.04 -2.18,0.82 -3.41,0.655 -0.46,-0.06 -1.21,0.111 -1.5,-0.05 -0.28,-0.162 -0.1,-0.66 -0.12,-1.158 0,-0.887 -2.28,-1.396 -3.05,-1.38 -1.19,0.02 -0.81,1.43 -2.54,0.269 -2.12,-0.07 -3.28,-0.105 -4.01,-0.472 -1.13,-0.568 0,-1.42 -1.15,-1.757 -1.43,-0.428 -2.65,-0.204 -3.92,0.64 -1.33,0.887 -2.13,2.97 -2.82,4.399 -0.52,1.086 -1.85,2.129 -1.94,3.32 -2.72,-2.093 -0.72,-3.726 -1.26,-5.265 -0.84,-2.444 -3.52,-0.559 -5.39,-0.432 0,0.265 0.1,0.529 0.14,0.792 -1.62,-0.471 -3.92,0.134 -5.64,0.1 -1.56,-0.03 -2.55,-0.629 -3.99,-1.358 -0.51,-0.254 -1.36,-0.798 -1.96,-0.538 -0.54,0.231 -0.19,1.092 -0.76,1.196 -0.87,0.158 -2.58,-1.083 -2.63,-1.99 -0.2,0.17 -0.25,3.128 -0.98,1.9 -0.75,-1.25 -2.36,-1.987 -2.84,-3.412 -0.25,1.163 -4.16,0.677 -4.44,-0.35 -0.15,-0.549 0.41,-1.516 0,-1.97 -0.46,-0.47 -1.84,0.586 -2.64,0.109 -1.26,-0.759 -4.11,-1.713 -4.61,-3.198 -0.62,-1.828 -2.5,-3.829 -4.43,-1.906 -0.69,0.693 -2.92,-2.281 -3.28,-2.709 -0.98,-1.178 -2.93,-1.425 -4.39,-2.314 -2.27,-1.385 -4.3,-2.924 -6.26,-4.674 -0.74,-0.669 -1.77,-0.57 -2.67,-0.859 -0.96,-0.312 -0.97,0.918 -2.02,0.519 0.4,2.62 -1.08,2.951 -2.6,1.276 -1.37,-1.499 -3.09,-2.199 -4.99,-2.717 -0.4,-0.11 -1.34,-0.228 -1.63,-0.574 -0.44,-0.535 0.38,-1.397 -0.58,-1.777 -0.72,-0.288 -1.08,-0.372 -1.71,-0.95 -1.08,-0.991 -1.79,-0.278 -2.94,-0.618 -1.74,-0.512 -2.45,-2.387 -3.61,-3.53 -1.17,-1.154 -2.44,2.119 -3.18,-0.185 -0.26,-0.811 0.1,-1.633 -0.43,-2.391 -0.49,-0.767 -0.68,-1.395 -0.83,-2.28 -0.16,-0.952 -1.11,-1.532 -1.77,-2.119 -0.97,-0.868 -0.75,-2.201 -1.57,-3.143 1.96,-1.462 2.34,-0.396 3.47,0.955 0.56,0.666 1.4,0.783 1.85,0.04 0.56,-0.933 1.52,-0.859 2.12,-1.67 0.73,-1 -0.26,-1.977 -0.84,-2.669 -0.47,-0.55 -0.23,-2.059 -0.8,-2.231 -2.35,-0.708 -2.2,-0.544 -3.87,-2.239 -1.89,-1.912 -2.12,-5.35 -2.05,-5.82 0,-0.235 2.53,-0.973 0.42,-1.652 -1.83,-0.587 -3.25,-2.005 -4.97,-3.04 -2.36,-1.428 -1.61,-4.729 -5.53,-7.026 -2.32,0.102 -9.32,-0.379 -9.46,-3.731 -0.69,0.177 -1.68,1.287 -2.42,0.624 -0.57,-0.515 -2.1,-1.422 -2.41,-2.09 -0.27,-0.613 -0.2,-1.835 -0.39,-2.548 -0.26,-0.982 -0.74,-1.771 -1.49,-2.466 -1.05,-0.978 -2.85,-0.431 -3.5,-1.433 -0.71,-1.084 -3.01,-2.396 -3.9,-0.799 -0.72,-1.738 -2.72,-0.458 -3.4,-1.724 -0.9,-1.672 2.24,-0.966 2.69,-1.048 1.88,-0.339 1.14,-2.083 0.1,-2.739 -0.9,-0.557 -0.48,-0.849 -0.51,-1.724 0,-0.391 -0.68,-1.565 -0.86,-1.984 -0.26,-0.592 -0.98,-0.656 -1.21,-1.316 -0.28,-0.774 0,-1.605 -0.18,-2.395 -0.3,-1.457 -2.74,-1.856 -3.94,-2.119 -1.6,-0.351 -2.73,1.78 -3.94,0.249 -0.4,-0.495 -2.06,-2.758 -0.45,-2.768 -0.52,-0.724 -1.21,-1.279 -1.84,-1.901 -0.61,-0.612 -0.36,-1.685 -0.62,-2.426"></path>
			<path id="path2726" d="m 2164.14,358.11 c 0.13,-0.588 -0.19,-0.789 -0.73,-0.647 0.22,0.233 0.47,0.448 0.73,0.647"></path>
			<path id="path2730" d="m 2172.92,359.046 c -0.18,-0.227 -0.42,-0.322 -0.72,-0.288 0.24,0.1 0.48,0.192 0.72,0.288"></path>
			<path id="path2740" d="m 2187.75,423.486 c 1.39,0.618 4.44,4.068 6.05,2.377 -0.97,-0.805 -4.8,-3.609 -6.05,-2.377"></path>
			<path id="path2744" d="m 2196.9,455.454 c 0,0.12 0.1,0.239 0.14,0.359 1.25,-0.352 0.13,-1.909 -0.14,-0.359"></path>
			<path id="path2748" d="m 2198.77,438.966 c 0.78,-0.106 1.53,0.388 2.3,0 -0.48,-0.78 -1.96,-1.481 -2.74,-0.72 0.14,0.241 0.29,0.48 0.44,0.72"></path>
			<path id="path2750" d="m 2198.55,436.374 c 0.24,0.353 0.58,0.496 1.01,0.432 -0.1,-0.651 -0.49,-0.832 -1.01,-0.432"></path>
			<path id="path2752" d="m 2200.42,441.702 c 0.14,-0.581 -0.11,-0.653 -0.72,-0.217 0.24,0.07 0.48,0.145 0.72,0.217"></path>
			<path id="path2734" d="m 2177.24,493.542 c 0.19,0.168 0.38,0.336 0.58,0.504 0.95,-1.009 -0.52,-1.44 -0.58,-0.504"></path>
			<path id="path2742" d="m 2191.57,478.062 c 0.72,1.313 0.97,-0.508 0.79,-1.08 -0.28,0.02 -0.54,0.1 -0.79,0.217 0.26,0.216 0.52,0.432 0.79,0.647 -0.27,0.07 -0.53,0.143 -0.79,0.216"></path>
			<path id="path2766" d="m 2187.03,472.95 c 0.48,0.256 0.99,0.472 1.51,0.647 -0.64,0.348 -1.24,-0.07 -1.51,-0.647"></path>
			<path id="path2736" d="m 2181.63,486.27 c -0.21,0.59 0,0.948 0.65,0.864 0.12,-0.492 -0.1,-0.934 -0.65,-0.864"></path>
			<path id="China_Hainan" d="m 2118.49,531.414 c -0.37,0.587 0.36,2.945 0.48,3.602 0.2,1.078 0.14,2.68 0.96,3.526 0.99,1.035 2.67,0.838 3.84,1.544 1.12,0.671 2.88,0.794 4.15,0.76 -0.5,-1.414 1.36,-2.25 1.92,-1.299 -0.38,-0.652 2.03,-2.611 2.42,-2.979 0.56,-0.523 1.26,-3.441 0.41,-3.786 0.93,-0.493 1.86,-2.961 1.66,-3.961 1.87,1.391 0.76,-2.215 0.47,-2.915 -0.48,-1.166 -3.83,-2.401 -2.42,0.25 -0.44,-0.541 -2.64,-1.426 -1.51,0.07 -0.65,-1.897 -2.65,-0.712 -3.24,0.145 -0.55,-1.225 -2.66,-1.066 -3.53,-0.36 0.16,0.268 0.33,0.531 0.51,0.792 -0.86,0.292 -1.4,-0.805 -2.16,-0.576 -1,0.297 -0.51,1.623 0.29,1.8 -1.79,0.494 -2.94,2.206 -4.25,3.385"></path>
			<path id="path2712" d="m 2128.06,517.157 c 0.8,-0.16 1.61,-0.493 2.16,0.36 0.53,-1.499 -1.69,-1.511 -2.16,-0.36"></path>
			<path id="path2714" d="m 2130.01,515.142 c -0.59,0.354 -0.47,0.594 0.36,0.721 -0.12,-0.241 -0.24,-0.481 -0.36,-0.721"></path>
			<path id="path2716" d="m 2139.15,512.046 c 0.39,-0.188 0.6,-0.5 0.65,-0.937 -0.6,0.09 -0.6,0.435 -0.65,0.937"></path>
			<path id="path2718" d="m 2145.13,510.75 c -0.43,0.138 -0.7,0.426 -0.8,0.864 0.58,0.03 0.88,-0.282 0.8,-0.864"></path>
			<path id="path2720" d="m 2146.42,511.902 c 0.1,-0.561 -0.1,-1.065 -0.43,-1.512 0.1,0.527 0.2,1.031 0.43,1.512"></path>
			<path id="path2722" d="m 2149.23,500.382 c 0.1,0.232 1.15,1.647 1.59,1.224 -0.42,-0.521 -0.86,-1.144 -1.59,-1.224"></path>
			<path id="path2724" d="m 2150.31,501.822 c 0.1,0.436 0.1,0.593 0.58,0.721 -0.2,-0.241 -0.39,-0.481 -0.58,-0.721"></path>
		</g>
		<g id="hk">
			
			<g id="hk-">
				<path id="path2764" d="m 2154.34,503.838 c 0.75,-0.259 1.47,-0.625 2.09,0.144 -0.23,0.215 -0.47,0.406 -0.72,0.576 0.3,-0.263 0.86,-0.448 1.22,-0.17 1.12,0.867 -1.25,0.08 -0.28,1.395 -0.85,-0.179 -4.02,-0.834 -2.31,-1.945"></path>
				<path id="path2762" d="m 2153.33,506.502 c 0,-0.753 0.9,-0.923 1.37,-1.224 0.1,0.788 -0.68,1.256 -1.37,1.224"></path>
				<path id="path2760" d="m 2155.78,505.782 c 0,0.375 0.19,0.615 0.58,0.72 -0.1,-0.326 -0.29,-0.566 -0.58,-0.72"></path>
			</g>
			
		</g>
		<g id="mo">
			
			<path id="mo-" d="m 2151.1,506.502 c 0.13,-0.08 0.24,0.421 0.15,-0.145 0.12,0.278 0.14,0.566 0.1,0.864 -0.1,-0.239 -0.15,-0.479 -0.22,-0.719"></path>
			
		</g>
		<g id="tw">
			
			<path id="path2738" d="m 2183.73,486.335 c -0.26,0.216 -0.54,0.384 -0.86,0.504 0.45,0.267 0.93,0.339 1.44,0.217 -0.17,-0.26 -0.36,-0.5 -0.58,-0.721"></path>
			<path id="path2746" d="m 2197.91,494.903 c 0.19,0.717 0.58,1.315 0.34,2.076 -0.19,0.624 -0.39,1.169 0.15,1.7 1,0.976 1.33,2.582 1.97,3.848 0.74,1.471 2.34,1.896 3.29,3.167 0.3,0.408 0.94,3.044 1.69,2.651 0.98,-0.507 0.4,-2.174 0.29,-2.985 -0.18,-1.308 0.19,-2.287 0.93,-3.354 1.77,-2.551 2.09,-7.293 1.89,-10.309 -0.1,-0.624 -0.46,-1.561 -0.25,-2.175 0.2,-0.617 0.53,-0.972 0.6,-1.652 0.16,-1.583 -0.38,-2.74 -0.38,-4.271 0,-0.792 0.79,-1.433 0.1,-2.078 -0.44,-0.394 -2.71,-2.193 -3.28,-1.623 -0.91,0.903 -2.71,1.127 -3.22,2.396 -0.52,1.309 -0.37,2.075 -1.3,3.197 -0.86,1.024 -1.05,2.491 -1.39,3.733 -0.5,1.832 -1.83,3.698 -1.4,5.679"></path>
			<g id="tw-">
				<path id="path2738-" d="m 2183.73,486.335 c -0.26,0.216 -0.54,0.384 -0.86,0.504 0.45,0.267 0.93,0.339 1.44,0.217 -0.17,-0.26 -0.36,-0.5 -0.58,-0.721"></path>
				<path id="path2746-" d="m 2197.91,494.903 c 0.19,0.717 0.58,1.315 0.34,2.076 -0.19,0.624 -0.39,1.169 0.15,1.7 1,0.976 1.33,2.582 1.97,3.848 0.74,1.471 2.34,1.896 3.29,3.167 0.3,0.408 0.94,3.044 1.69,2.651 0.98,-0.507 0.4,-2.174 0.29,-2.985 -0.18,-1.308 0.19,-2.287 0.93,-3.354 1.77,-2.551 2.09,-7.293 1.89,-10.309 -0.1,-0.624 -0.46,-1.561 -0.25,-2.175 0.2,-0.617 0.53,-0.972 0.6,-1.652 0.16,-1.583 -0.38,-2.74 -0.38,-4.271 0,-0.792 0.79,-1.433 0.1,-2.078 -0.44,-0.394 -2.71,-2.193 -3.28,-1.623 -0.91,0.903 -2.71,1.127 -3.22,2.396 -0.52,1.309 -0.37,2.075 -1.3,3.197 -0.86,1.024 -1.05,2.491 -1.39,3.733 -0.5,1.832 -1.83,3.698 -1.4,5.679"></path>
			</g>
		</g>
	</g></svg>
