<svg xmlns="http://www.w3.org/2000/svg" viewBox="659.46 579.58 167.21 167.21"><path id="co" d="m 697.275,684.846 c -0.264,-0.07 -0.528,-0.144 -0.792,-0.216 0.281,-1.72 2.127,-2.263 3.528,-1.44 0.759,-1.468 -1.129,-2.852 -0.381,-4.349 0.958,-1.921 3.111,-1.823 4.917,-2.13 0.343,-0.06 0.223,-0.889 0.69,-0.608 0.343,0.206 1.122,0.387 1.127,-0.218 0.01,-1.207 1.589,-2.708 0.631,-3.494 1.717,-0.05 2.034,-2.256 2.54,-3.428 0.4,-0.926 1.181,-1.567 1.996,-2.116 -1.014,-0.828 0.189,-0.953 0.504,-1.8 -0.707,0.03 -1.61,0.611 -1.872,-0.432 0.554,-0.144 0.96,-0.551 0.936,-1.152 -0.545,-0.191 -1.651,1.267 -1.764,0.144 -0.118,-1.178 0.554,-1.412 1.476,-1.873 -1.447,0.01 -0.786,-1.912 -0.588,-2.704 0.387,-1.555 0.05,-3.639 -0.103,-5.223 -0.114,-1.199 -0.646,-2.343 -0.729,-3.538 -0.04,-0.654 2.047,-0.911 1.692,-2.438 -0.212,-0.914 -2.315,-3.013 -0.919,-3.542 1.255,-0.475 0.178,-3.138 -0.367,-3.746 -1.099,-1.227 -1.234,-3.062 -2.421,-4.096 -0.781,-0.68 0,-1.537 0.453,-2.159 0.548,-0.749 0.02,-1.726 0.677,-2.362 0.361,0.427 0.625,0.907 0.792,1.44 1.536,-1.075 3.721,-3.175 3.011,-5.261 -0.728,-2.137 -2.086,-2.59 -0.779,-4.604 0.743,0.961 1.551,2.273 2.192,3.341 0.661,1.102 2.284,1.438 0.832,2.779 1.95,2.238 0.993,-4.18 0.717,-4.867 -0.396,-0.99 4.167,-3.272 4.75,-4.072 0.733,-1.007 1.257,-2.697 2.482,-3.228 0.694,-0.3 2.338,-0.129 2.728,-0.908 0.555,-1.107 -0.52,-1.507 -0.294,-2.189 0.401,-1.213 0.568,-2.737 1.281,-3.815 -1.059,-0.108 -0.772,-0.459 -0.05,-0.827 0.657,-0.336 0.403,-1.24 0.385,-1.804 -0.04,-1.324 2.188,-1.695 2.188,-2.158 0,-0.693 2.716,-3.371 3.349,-3.354 1.254,0.03 2.313,1.145 3.563,1.159 -1.056,-0.14 -0.906,1.005 -1.872,1.008 0.734,2.721 2.34,-0.9 2.708,-1.881 0.917,-2.449 2,-2.273 4.578,-1.843 3.519,0.587 4.639,-1.701 7.414,-3.364 1.526,-0.915 5.965,-2.004 4.596,-4.647 0.583,-0.174 2.232,-0.7 1.296,0.504 1.08,-0.165 0.4,-1.238 1.584,-1.776 1.426,-0.647 2.679,-0.648 3.897,0.37 4.155,3.473 -4.79,4.88 -6.13,6.59 -0.716,0.913 -0.987,2.246 -1.835,3.039 -0.589,0.551 -1.547,0.445 -2.072,1.042 -0.989,1.124 -2.026,2.84 -2.662,4.188 -0.949,2.009 -0.989,4.071 -1.527,6.188 -0.53,2.079 -2.041,4.578 -3.423,6.208 1.147,0.03 2.033,-0.414 2.88,-1.152 0.183,0.488 0.255,0.993 0.216,1.513 2.18,-0.563 1.449,3.304 2.555,4.71 1.579,2.008 2.013,3.188 1.089,5.655 -0.464,1.24 -1.209,3.893 0.468,4.522 1.903,0.713 0.895,2.979 2.853,3.441 0.792,0.187 1.55,-0.317 2.324,-0.4 1.263,-0.136 2.414,0.711 3.682,0.595 1.129,-0.103 2.075,-0.905 3.227,-0.883 1.024,0.02 1.786,1.009 2.754,1.237 0.711,0.167 1.374,-0.43 2.023,0.139 0.854,0.748 1.432,2.116 2.062,3.043 0.584,0.86 1.12,1.733 1.646,2.627 0.68,1.154 0.961,0.831 1.988,1.128 1.495,0.433 2.87,-0.823 4.819,-0.04 0.596,0.239 1.909,-0.343 2.553,-0.357 1.411,-0.03 2.611,0.08 3.849,-0.671 1.402,-0.85 3.718,0.822 2.982,2.297 -0.421,0.843 -1.446,1.49 -1.63,2.433 -0.227,1.161 0.241,1.77 -0.862,2.521 -1.469,1 -0.887,5.025 -1.032,6.657 -0.173,1.939 0.63,4 0.994,6.048 0.274,1.542 3.23,3.579 2.751,5.152 -0.59,1.935 -4.237,2.69 -4.157,5.01 1.322,-0.993 4.552,2.641 4.97,3.744 -0.09,0.299 -0.07,0.601 -0.132,0.907 0.171,0.561 0.604,1.116 0.605,1.717 0,1.249 0.728,2.569 1.037,3.806 0.122,0.489 0.771,2.384 0.904,3.142 0.134,0.758 -0.271,0.268 -0.874,0.456 -1.006,0.313 -1.316,-0.164 -1.069,-0.754 0.406,-0.967 -0.172,-7.297 -2.692,-7.2 -0.985,0.04 -3.657,5.13 -4.407,2.322 -0.28,-1.045 -1.624,-1.521 -1.476,0 0.167,1.705 -2,1.081 -3.159,1.081 -1.738,0 -3.477,0 -5.215,0 -1.15,0 -2.392,-0.677 -3.523,-0.178 -1.69,0.744 -0.345,4.538 -0.518,5.938 1.369,-0.925 4.58,-0.123 5.196,1.388 0.228,0.559 0.357,2.441 -0.709,2.344 -0.659,-0.06 -1.058,-0.936 -1.768,-0.809 -1.567,0.28 -4.307,0.711 -4.422,2.54 -0.14,2.228 -0.336,5.346 1.588,6.803 0.971,0.735 2.104,1.37 2.054,2.76 -0.05,1.334 0.631,1.845 1.152,2.971 1.183,2.555 -0.349,6.05 -0.71,8.663 -0.868,6.291 -0.727,13.134 -2.67,19.207 -0.467,-1.157 -1.384,-1.994 -2.211,-2.911 -0.942,-1.044 -2.134,0 -3.224,-0.622 -1.011,-0.575 1.536,-4.832 1.888,-5.432 0.687,-1.168 2.747,-3.462 1.7,-4.583 -0.453,-0.484 -0.916,-1.76 -1.648,-1.503 -1.302,0.456 -2.783,-1.623 -3.11,-1.893 -1.25,-1.034 -2.307,0 -3.626,0.649 -1.258,0.614 -2.09,-1.04 -3.245,-1.233 -0.705,-0.119 -2.705,2.983 -5.05,2.273 -0.82,-0.249 -1.383,-0.242 -2.402,-0.11 -1.406,0.184 -2.148,0.04 -3.254,-0.82 -0.863,-0.671 0.04,-2.455 -0.266,-3.475 -0.423,-1.392 -2.629,-0.637 -2.876,-2.034 -0.176,-0.995 -0.672,-2.13 -1.072,-3.058 -0.42,-0.975 -1.687,-0.557 -2.288,-1.416 -0.651,-0.931 -1.069,-1.194 -1.94,-1.487 -1.108,-0.372 -1.759,-1.869 -1.843,-2.869 -0.159,-1.906 -3.647,-4.956 -5.422,-5.476 -0.342,-0.101 -0.7,-0.498 -1.003,-0.02 -0.328,0.521 -0.32,0.529 -1.019,0.211 -1.041,-0.474 -2.642,-1.035 -3.519,-1.721 -0.681,-0.533 -3.837,-4.515 -4.211,-1.68 -0.194,1.473 -5.748,-0.404 -6.901,-0.61 -1.87,-0.334 -0.494,-1.916 -1.872,-2.505 -1.209,-0.517 -0.674,-1.547 -2.231,-1.566 -1.224,-0.01 -3.643,-1.372 -4.548,-2.12 -1.523,-1.256 -2.758,-2.798 -3.93,-4.399" fill="#2B1D24">
		
	</path></svg>
