<svg xmlns="http://www.w3.org/2000/svg" viewBox="659.5 579.6 167.2 167.2"><path fill="#2b1d24" d="m697.3 684.8-.8-.2c.3-1.7 2.1-2.2 3.5-1.4.8-1.5-1.1-2.9-.4-4.4 1-1.9 3.1-1.8 5-2 .3-.1.2-1 .6-.7.4.2 1.2.4 1.2-.2 0-1.2 1.6-2.7.6-3.5 1.7 0 2-2.3 2.5-3.4q.7-1.4 2-2.2c-1-.8.2-1 .5-1.8-.7 0-1.6.7-1.8-.4q.9-.2.9-1.1c-.5-.2-1.7 1.2-1.8.1 0-1.2.6-1.4 1.5-1.9-1.4 0-.8-1.9-.6-2.7.4-1.5 0-3.6 0-5.2q-.5-1.7-.8-3.5c0-.7 2-1 1.7-2.5-.2-.9-2.3-3-1-3.5s.2-3.1-.3-3.8c-1.1-1.2-1.2-3-2.4-4-.8-.7 0-1.6.4-2.2.6-.8 0-1.7.7-2.4l.8 1.5c1.5-1.1 3.7-3.2 3-5.3s-2-2.6-.8-4.6l2.2 3.3c.7 1.1 2.3 1.5.9 2.8 1.9 2.3 1-4.2.7-4.8-.4-1 4.1-3.3 4.7-4.1.8-1 1.3-2.7 2.5-3.2.7-.3 2.3-.2 2.7-1 .6-1-.5-1.5-.3-2.1q.4-2.1 1.3-3.9-1.3-.1 0-.8c.6-.3.4-1.2.4-1.8 0-1.3 2.1-1.7 2.1-2.1 0-.7 2.8-3.4 3.4-3.4 1.2 0 2.3 1.1 3.6 1.2-1.1-.2-1 1-2 1 .8 2.7 2.4-1 2.8-2 1-2.4 2-2.2 4.6-1.8 3.5.6 4.6-1.7 7.4-3.3 1.5-1 6-2 4.6-4.7.6-.1 2.2-.7 1.3.5 1-.1.4-1.2 1.6-1.7q2-1.1 3.9.3c4.1 3.5-4.8 5-6.2 6.6-.7 1-1 2.3-1.8 3-.6.6-1.6.5-2 1.1-1 1.1-2.1 2.8-2.7 4.2-1 2-1 4-1.6 6.2-.5 2-2 4.6-3.4 6.2a4 4 0 0 0 2.9-1.2q.3.8.2 1.5c2.2-.5 1.4 3.3 2.6 4.8 1.5 2 2 3.1 1 5.6-.4 1.3-1.2 3.9.5 4.5 2 .7 1 3 2.9 3.5.8.2 1.5-.3 2.3-.4 1.3-.2 2.4.7 3.7.6 1.1-.1 2-1 3.2-1 1 .1 1.8 1 2.8 1.3.7.2 1.3-.4 2 .2.8.7 1.4 2 2 3l1.7 2.6c.7 1.2 1 .9 2 1.2 1.5.4 2.8-.9 4.8 0 .6.2 1.9-.4 2.5-.4q2.2.2 3.9-.7c1.4-.9 3.7.8 3 2.3-.4.8-1.5 1.5-1.7 2.4-.2 1.2.3 1.8-.8 2.5-1.5 1-.9 5-1 6.7-.2 2 .6 4 1 6 .2 1.6 3.2 3.6 2.7 5.2-.6 2-4.2 2.7-4.2 5 1.4-1 4.6 2.7 5 3.8l-.1.9c.1.5.6 1 .6 1.7 0 1.2.7 2.5 1 3.8l1 3.1c0 .8-.3.3-1 .5q-1.5.3-1-.8c.4-1-.2-7.3-2.7-7.2-1 0-3.7 5.2-4.4 2.3-.3-1-1.6-1.5-1.5 0 .2 1.8-2 1.1-3.2 1.1h-5.2c-1.1 0-2.4-.6-3.5-.1-1.7.7-.3 4.5-.5 5.9 1.4-1 4.6-.1 5.2 1.4.2.5.3 2.4-.7 2.3-.7 0-1-1-1.8-.8-1.6.3-4.3.7-4.4 2.6-.2 2.2-.3 5.3 1.6 6.8 1 .7 2 1.3 2 2.7s.7 1.9 1.2 3c1.2 2.5-.4 6-.7 8.7-.9 6.2-.8 13-2.7 19.2q-.9-1.7-2.2-3c-1-1-2.1 0-3.2-.6-1-.6 1.5-4.8 1.9-5.4.6-1.2 2.7-3.5 1.7-4.6-.5-.5-1-1.8-1.7-1.5-1.3.5-2.8-1.6-3.1-1.9-1.3-1-2.3 0-3.6.7s-2.1-1-3.3-1.3c-.7 0-2.7 3-5 2.3a5 5 0 0 0-2.4-.1c-1.4.2-2.2 0-3.3-.8-.8-.7 0-2.5-.2-3.5-.5-1.4-2.7-.6-3-2q-.3-1.6-1-3c-.4-1-1.7-.7-2.3-1.5-.6-1-1-1.2-2-1.5s-1.7-1.9-1.8-2.9c-.1-1.9-3.6-5-5.4-5.4-.3-.1-.7-.5-1 0s-.3.5-1 .1c-1-.4-2.7-1-3.5-1.7-.7-.5-3.9-4.5-4.2-1.7-.2 1.5-5.8-.4-7-.6-1.8-.3-.4-1.9-1.8-2.5-1.2-.5-.7-1.5-2.2-1.5-1.3 0-3.7-1.4-4.6-2.2a24 24 0 0 1-4-4.4"/></svg>
