<svg xmlns="http://www.w3.org/2000/svg" viewBox="644.23 599.52 31.79 31.79"><g id="cr" fill="#2B1D24">
		
		<path id="Costa_Rica_mainland" d="m 647.883,608.886 c 0.427,-0.347 1.579,-1.96 1.658,-2.496 0.128,-0.867 -1.815,-1.925 -1.079,-2.36 0.875,-0.516 1.101,-1.257 1.695,-2.247 0.234,-0.391 3.104,1.004 3.518,1.209 2.014,1 1.747,0.347 3.615,-0.171 0.822,-0.227 1.182,1.048 2.543,0.806 0.613,0.799 0.819,1.563 1.879,1.763 1.332,0.25 3.26,0.3 3.2,-1.115 0.588,1 0.01,1.171 0.584,2.043 0.479,0.731 0.772,1.587 1.092,2.395 0.676,1.707 1.35,2.304 2.486,3.438 1.029,1.026 1.563,2.67 2.876,3.348 0.722,0.372 0.614,1.164 -0.284,0.894 -0.685,-0.206 -0.852,-1.032 -1.708,-0.421 0.385,0.673 -0.452,2.301 -0.486,3.41 -0.03,1.141 2.723,1.517 0.844,2.495 -1.516,0.789 0.518,2.486 -0.798,3.643 -1.453,1.276 -0.09,2.031 -0.396,3.601 0.09,-0.793 -0.257,-1.405 -0.769,-1.974 -0.325,-0.221 -0.621,-0.475 -0.888,-0.763 0.09,-0.299 0.167,-0.601 0.232,-0.906 -0.285,-0.954 -1.379,-3.058 -2.68,-2.262 0.249,1.16 1.748,1.589 1.296,2.952 -1.072,-0.335 -2.75,-0.712 -3.012,-2.043 -0.171,-0.866 0.99,-1.533 1.069,-2.421 0.195,-2.193 -2.198,-3.027 -3.612,-4.129 -0.861,-0.671 -1.074,-1.145 -2.267,-1.176 -1.175,-0.03 -1.866,-0.604 -1.816,-1.832 0.119,-2.913 -3.35,-2.906 -4.473,-4.959 0.223,0.557 0.271,1.153 0.477,1.713 0.326,0.887 1.12,0.778 1.734,1.31 0.855,0.741 -0.161,2.247 -0.958,2.559 -0.966,0.378 -1.787,-1.66 -2.833,-1.893 -1.76,-0.396 -3.1,-2.589 -2.739,-4.411"></path>
		
	</g></svg>
