<svg xmlns="http://www.w3.org/2000/svg" viewBox="644.2 599.5 31.8 31.8"><path fill="#2b1d24" d="M647.9 608.9c.4-.4 1.6-2 1.6-2.5.2-.9-1.8-2-1-2.4.8-.5 1-1.2 1.7-2.2.2-.4 3 1 3.5 1.2 2 1 1.7.3 3.6-.2.8-.2 1.2 1 2.5.8.6.8.9 1.6 2 1.8s3.2.3 3.1-1.1c.6 1 0 1.1.6 2q.7 1.1 1 2.4c.8 1.7 1.4 2.3 2.6 3.5 1 1 1.5 2.6 2.9 3.3.7.4.6 1.2-.3.9-.7-.2-.9-1-1.7-.4.3.6-.5 2.3-.5 3.4s2.7 1.5.8 2.5c-1.5.8.5 2.5-.8 3.6-1.4 1.3 0 2-.4 3.6q.1-1.1-.7-2l-1-.7.3-1c-.3-.9-1.4-3-2.7-2.2.3 1.2 1.8 1.6 1.3 3-1-.4-2.7-.7-3-2-.2-1 1-1.6 1-2.5.3-2.2-2.1-3-3.5-4.1-.9-.7-1.1-1.2-2.3-1.2q-1.9 0-1.8-1.8c0-3-3.4-3-4.5-5l.5 1.7c.3 1 1.1.8 1.7 1.3.9.8-.1 2.3-1 2.6s-1.7-1.7-2.8-1.9c-1.7-.4-3-2.6-2.7-4.4"/></svg>
