<svg xmlns="http://www.w3.org/2000/svg" viewBox="660.37 466.71 91.4 91.4"><g id="cu" fill="#2B1D24">
		
		<path id="Cuba_island" d="m 666.96,509.24 c 1.386,-0.501 2.853,-1.799 4.392,-1.008 0.505,-1.136 -0.906,-2.096 0.1,-3.21 0.813,-0.904 2.109,-2.264 3.108,-2.93 1.183,-0.788 2.714,-1.084 4.047,-1.521 1.147,-0.376 2.185,-1.131 3.424,-1.104 2.576,0.06 4.725,-1.256 7.273,-1.445 1.182,-0.09 2.607,-0.173 3.726,0.301 0.257,0.108 0.568,0.299 0.574,0.62 0.931,-0.44 1.97,-0.587 2.88,-1.079 -1.494,0.393 0.137,1.232 0.947,0.938 0.747,-0.271 2.998,-0.296 3.26,0.13 0.411,0.667 1.513,1.659 2.388,1.396 1.022,-0.307 2.384,0.876 3.27,0.128 -0.208,0.252 -0.4,0.516 -0.576,0.792 1.65,0.432 1.329,1.207 2.47,2.331 1.495,1.473 2.174,1.108 4.144,1.288 1.881,0.172 2.611,1.018 4.115,1.926 0.57,0.344 1.381,0.262 1.768,0.906 0.357,0.595 0.824,1.663 1.616,0.821 -0.296,0.882 0.421,1.491 1.235,1.565 0.951,0.09 1.248,0.926 2.077,1.242 -0.345,-0.689 -0.583,-1.582 -1.44,-1.8 0.775,0.171 3.286,1.147 2.88,2.305 -0.516,-0.07 -1.02,-0.19 -1.512,-0.36 0.353,0.455 0.49,0.961 0.792,1.439 1.102,-1.889 1.438,0.27 2.736,0.289 -0.178,0.251 -0.37,0.491 -0.576,0.72 0.475,-0.279 0.979,-0.351 1.512,-0.216 -0.1,0.263 -0.195,0.526 -0.288,0.791 0.546,0.107 1.026,0.348 1.44,0.721 -0.103,-1.956 2.665,0.312 3.228,0.711 0.737,0.522 1.411,-0.104 2.199,-0.177 1.28,-0.119 1.736,1.655 0.333,1.842 0.264,0.144 0.528,0.287 0.792,0.432 -0.602,0.188 -1.134,0.578 -1.512,1.08 2.055,0.438 5.536,-0.305 7.171,1.105 1.383,1.194 1.756,2.446 3.682,2.715 2.279,0.317 -0.729,1.907 -1.665,2.016 -0.284,0.03 -5.173,1.337 -5.273,1.176 0.03,-0.255 0.168,-0.457 0.405,-0.604 -0.905,0 -0.855,1.153 -2.398,1.003 -1.648,-0.161 -3.189,-0.749 -4.861,-0.822 -4.189,-0.182 -8.411,1.396 -12.613,1.26 0.06,-2.222 2.817,-2.754 4.265,-3.833 0.853,-0.636 1.375,-1.236 0.541,-1.922 -0.624,-0.514 0.253,-2.153 -1.254,-1.783 -2.823,0.695 -5.669,0.175 -7.283,-2.431 -0.579,-0.935 -0.476,-2.174 -0.64,-3.221 -0.08,-0.479 -0.194,-0.997 -0.513,-1.381 -0.379,-0.457 -1.213,-0.271 -0.372,-0.694 -1.289,-0.616 -2.568,0.345 -3.816,0.468 -1.297,0.128 -2.4,-1.082 -3.59,-1.297 -1.164,-0.211 -1.879,-0.02 -2.51,-0.784 -1.004,-1.213 -2.336,-1.145 -2.54,-3.067 -0.222,1.608 -5.1,1.13 -5.184,-1.008 -0.285,0.464 -0.429,0.968 -0.433,1.512 -0.435,-0.01 -0.774,-0.197 -1.017,-0.548 -0.618,-0.623 -1.598,-0.387 -2.366,-0.387 -1.265,0 -2.359,-0.749 -3.24,-1.586 0.67,-0.737 1.96,-0.354 2.821,-0.498 1.281,-0.215 1.197,-1.513 0.08,-1.887 -2.197,-0.738 -6.335,-0.809 -8.316,0.494 -1.227,0.808 -2.624,1.703 -3.61,2.799 -0.922,1.023 -1.576,0.257 -2.666,0.71 -0.624,0.259 -1.291,-0.135 -1.889,0.223 -0.632,0.379 -0.417,0.994 -0.894,1.472 -1,1.004 -2.626,0.91 -3.672,1.872 0.307,-2.918 -3.114,0.754 -3.456,-1.152 0.09,0.07 0.19,0.143 0.286,0.216"></path>
		<path id="Cuba_Isla_de_la_Juventud" d="m 681.29,513.13 c -0.771,-0.179 -1.624,-0.484 -1.8,-1.368 1.546,1.656 0.896,-1.283 0.909,-1.751 0.03,-1.011 1.57,-1.417 2.331,-1.057 0.796,0.378 1.399,1.829 1.38,2.658 -0.02,1.126 -2.036,1.292 -2.82,1.518"></path>
		<path id="path3586" d="m 703.18,499.95 c -0.264,-0.05 -0.528,-0.1 -0.792,-0.145 0.245,-0.163 0.509,-0.283 0.792,-0.36 0,0.169 0,0.337 0,0.505"></path>
		<path id="path3588" d="m 714.41,521.12 c -0.276,-0.227 -0.541,-0.467 -0.792,-0.721 0.654,-0.02 0.621,0.217 0.792,0.721"></path>
		<path id="path3590" d="m 716.00,504.63 c -0.496,-0.181 -0.976,-0.396 -1.44,-0.648 0.816,-0.369 2.291,-0.95 2.592,0.36 -0.388,0.08 -0.772,0.179 -1.152,0.288"></path>
		<path id="path3592" d="m 718.80,505.93 c -0.645,-0.381 -1.611,-0.403 -1.8,-1.296 1.137,-0.658 1.4,0.522 1.8,1.296"></path>
		<path id="path3594" d="m 719.81,507.37 c -0.832,-0.126 -1.319,-1.009 -0.792,-1.729 0.237,0.426 1.078,1.145 0.792,1.729"></path>
		<path id="path3596" d="m 720.75,509.02 c -0.48,-0.384 -0.96,-0.768 -1.44,-1.151 1.025,-0.934 3.052,0.09 1.44,1.151"></path>
	</g></svg>
