<svg xmlns="http://www.w3.org/2000/svg" viewBox="660.4 466.7 91.4 91.4"><g fill="#2b1d24"><path d="M667 509.2c1.3-.5 2.8-1.8 4.4-1 .5-1.1-1-2 0-3.2.9-.9 2.2-2.2 3.2-3 1.1-.7 2.7-1 4-1.4s2.2-1.2 3.4-1.1c2.6 0 4.8-1.3 7.3-1.5 1.2 0 2.6-.2 3.7.3q.5.2.6.6 1.5-.4 2.9-1c-1.5.4.1 1.2 1 .9.7-.3 3-.3 3.2.1.4.7 1.5 1.7 2.4 1.4 1-.3 2.4.9 3.2.2l-.5.7c1.6.5 1.3 1.3 2.4 2.4 1.5 1.5 2.2 1 4.2 1.3 1.9.1 2.6 1 4.1 1.9.6.3 1.4.3 1.8.9.3.6.8 1.7 1.6.8-.3.9.4 1.5 1.2 1.6 1 0 1.3 1 2.1 1.2-.3-.7-.6-1.6-1.4-1.8.7.2 3.2 1.2 2.8 2.3l-1.5-.3.8 1.4c1.1-1.9 1.5.3 2.8.3l-.6.7a2 2 0 0 1 1.5-.2l-.3.8q.8.1 1.4.7c0-2 2.7.3 3.3.7.7.5 1.4 0 2.2-.1 1.2-.2 1.7 1.6.3 1.8l.8.4a3 3 0 0 0-1.5 1.1c2 .4 5.5-.3 7.2 1.1 1.3 1.2 1.7 2.5 3.6 2.7 2.3.3-.7 2-1.6 2-.3 0-5.2 1.4-5.3 1.2q0-.3.4-.6c-.9 0-.9 1.2-2.4 1-1.6-.1-3.2-.7-4.9-.8-4.1-.2-8.4 1.4-12.6 1.3 0-2.3 2.8-2.8 4.3-3.9.8-.6 1.4-1.2.5-1.9-.6-.5.3-2.2-1.2-1.8-2.8.7-5.7.2-7.3-2.4-.6-1-.5-2.2-.6-3.2q0-.8-.6-1.4c-.3-.5-1.2-.3-.3-.7-1.3-.6-2.6.3-3.8.5-1.3 0-2.4-1.1-3.6-1.3-1.2-.3-2 0-2.5-.8-1-1.2-2.4-1.2-2.6-3-.2 1.5-5 1-5.2-1.1q-.4.7-.4 1.5-.6 0-1-.5c-.6-.7-1.6-.4-2.4-.4q-1.8-.2-3.2-1.6c.6-.7 2-.4 2.8-.5 1.3-.2 1.2-1.5 0-1.9-2.1-.7-6.3-.8-8.2.5q-2.1 1.2-3.6 2.8c-1 1-1.6.3-2.7.7-.6.3-1.3-.1-1.9.2s-.4 1-.9 1.5c-1 1-2.6 1-3.7 1.9.3-3-3 .7-3.4-1.2z"/><path d="M681.3 513.1q-1.4-.1-1.8-1.3c1.5 1.6.9-1.3.9-1.8 0-1 1.6-1.4 2.3-1 .8.3 1.4 1.8 1.4 2.6 0 1.1-2 1.3-2.8 1.5m21.9-13.1-.8-.2.8-.4zm11.2 21.1-.8-.7c.7 0 .6.2.8.7m1.6-16.5-1.4-.6c.8-.4 2.3-1 2.6.3zm2.8 1.4c-.6-.5-1.6-.5-1.8-1.4 1.1-.6 1.4.6 1.8 1.3m1 1.5q-1.4-.4-.8-1.8c.3.5 1.1 1.2.8 1.8m1 1.6-1.5-1.1c1-1 3 0 1.4 1.1"/></g></svg>
