<svg xmlns="http://www.w3.org/2000/svg" viewBox="1536 385.2 18.9 18.9"><g fill="#2b1d24"><path d="m1537.6 395.8-.3-.8c1 1 2.4-.9 3.6-.8 1.7 0 .4-1.6 2-1.6s3.2.3 5-.1c2-.5 3.6-2.6 5.7-2.6-1.3.8-2.5 2.7-3.9 3.2-1.6.5 0 2 .6 2.7-.6 0-2.2 0-2.7.4s-.7 1.2-1.5 1.5c-.7.2-3.4.5-3 1.7-2.2-1.1-4.5-.8-5.5-3.6"/><path d="M1545 395.8c-.1-.2.4-.1 0-1.3l-2.6.1c-2 .8-1.8-.5-1.6-.4 1.9.1.5-1.6 2-1.6 1.8 0 3.3.3 5-.1 2-.5 3.7-2.6 5.8-2.6-1.3.8-2.5 2.7-4 3.2-1 .3-.6 1.1 0 1.8.2.4-.4.2-.7.2l-.4-.2-.3.3c-1.7.8-3.1.9-3.2.6"/></g></svg>
