<svg xmlns="http://www.w3.org/2000/svg" viewBox="1387.1 242.7 53.1 53.1"><path fill="#2b1d24" d="M1390.8 265q1.1.2 1.5 1.2c.3-2.6 4-1.9 4.7-2.4 2.6-2 6-3 8.8-4l-.8-.6q1.1-.5 1.9.2c.4.5.8 1.4 1.6 1.1.5-.2 1.2 0 1.3-.7.1-.8.5-.6 1-.5q1 .1 1.3 1.2c.7 1.9 4.5-.2 4.6 2 .4-.3 1.3-.5 1.8-.4 1.8.4 0 1.5-.6 2 1.3.4 1.7 1 2.4 2 .9 1.3 2.3-.1 3.1-.7q-.7-.4-.8-1.5c1.9.5 3.6 2 5.6 1.3 0 1 0 2.5 1 2.4 1.1 0 1.5-.3 2.7.3s1.6.2 2.3 1.6c-1.1-.8 1.3.2 2.4 2.5-1.4.5-3.3.7-4.5 1.6-.8.6-.8 2-1.7 2.4s-2 1.6-4 1.6c-1.3 0-2.2 0-3 1.6-.6-2.4-4-.7-5.4-1.2l-3.7-1.3c-1-.3-3-.9-4-.8l-.2 2q-1.6 0-1.8 1.7c-1.5-.6-1.5 0-3-.1-1-.1-1.8-1.2-2.6-1.7l-3-1.8c-1-.6-2.1-2-3.2-2.4-1.7-.7-2-3-3.6-3.9 2.1-2-2-2-2.1-4.8"/></svg>
