<svg xmlns="http://www.w3.org/2000/svg" viewBox="1387.12 242.73 53.1 53.1"><path id="cz" d="m 1390.78,264.942 c 0.74,0 1.33,0.618 1.51,1.296 0.26,-2.592 4,-1.925 4.72,-2.477 2.59,-1.972 5.96,-2.961 8.75,-3.93 -0.23,-0.223 -0.48,-0.438 -0.72,-0.648 0.63,-0.146 1.36,-0.374 1.85,0.182 0.43,0.494 0.82,1.424 1.61,1.15 0.54,-0.188 1.22,-0.08 1.33,-0.711 0.12,-0.759 0.44,-0.608 0.94,-0.48 0.84,0.214 1.07,0.342 1.31,1.133 0.71,1.901 4.53,-0.178 4.62,2.11 0.37,-0.398 1.3,-0.537 1.85,-0.429 1.79,0.355 0,1.42 -0.62,1.942 1.25,0.434 1.68,1.1 2.39,2.097 0.88,1.22 2.3,-0.208 3.08,-0.729 -0.47,-0.395 -0.74,-0.898 -0.79,-1.512 1.86,0.487 3.59,1.903 5.61,1.296 0,0.93 -0.11,2.478 0.96,2.395 1.14,-0.09 1.55,-0.298 2.76,0.269 1.29,0.607 1.59,0.169 2.25,1.572 -1.13,-0.768 1.35,0.242 2.37,2.503 -1.31,0.486 -3.28,0.722 -4.44,1.591 -0.84,0.625 -0.84,2.005 -1.72,2.44 -0.89,0.443 -2,1.585 -3.96,1.55 -1.29,-0.02 -2.22,0 -2.97,1.648 -0.66,-2.401 -3.99,-0.683 -5.49,-1.2 -1.23,-0.426 -2.45,-0.918 -3.69,-1.322 -1.02,-0.327 -2.95,-0.864 -4,-0.79 0.1,0.685 -0.21,1.333 -0.14,2.016 -1.02,-0.141 -1.79,0.668 -1.8,1.656 -1.51,-0.603 -1.54,0.05 -3.03,-0.09 -0.99,-0.09 -1.81,-1.152 -2.58,-1.674 -1,-0.67 -2.06,-1.232 -3.1,-1.835 -0.97,-0.563 -2.07,-1.96 -3.1,-2.365 -1.72,-0.674 -2.12,-3.059 -3.67,-3.9 2.18,-1.92 -1.89,-2.045 -2.09,-4.754" fill="#2B1D24">
		
	</path></svg>
