<svg xmlns="http://www.w3.org/2000/svg" viewBox="1342.8 221.1 74.6 74.6"><g fill="#2b1d24"><path d="M1366.7 226.3c-.7.2-.8 1.2-.6 1.8q0-.7.8-1-.5-.1-.2-.8m.9.8h-.6q.7.2 1.2 0zm1.7-.1c-.6-.1-.4.1-1 .2.4.2.9 1.5 1.1 1.9s1.2 1 1 1.5c-.6.8-1.9.3-2.4 1.3q1 .4 2.1 0c-1.6.7.1 1.2.4 2.1q-1.2 0-.4 1c.6.5 1.4.3 2.1.5q1 .6 1.6 1.4c.6.7 1.4.8 2 1.4-1.7-.2-2.2-1.7-3.5-2.5-.9-.5-1.9.1-2.8 0-1 0-2.1-.4-2.3 1-.1.6.4 1 .4 1.7l-.3 1.3c-.1-.8 0-1.5-.7-1.8-1-.5-1.3.4-.7 1q-.8.2-1.4-.2c2.3-1.6-4-1.9-4.8-1.8-.8.2-2.1 1.5-2 2.4 0 .7 2.7 1 2.2.9-1.1-.6-1.9 3.7-2 4.6-.4 1.2-1.4.3-2.3 1-1.4.8 1.2 1.3 1.5 1.8 1 1.7-2.4 2.2-1.3 3.4s-3.6 1-4.3.6c.4 1.1-.3.1-1.1.7 0 .2-.3.3 0 .7.9.3 2 2.4 1.5 3.4s-2.2 2.2-1.4 3.3c.5.7.1 1.6.2 1.8.3.7 2 .7 1.2 1.8 1-.2.9 1 1.2 1.5-3 0-3.5 2.3-.7 3.7 2 1 0 2.9.7 3.7.2.2 2 2.5 2.6 2.5.7-.2.1-.6 1.1-.4.6 0 0 1 1 .7h1.1c1.3-.5 1.4.2 2.6.6q1.7.4 3.5.6-1.3 1.1-2.5 2.6c-.8 1-1 2.7-1.6 4-.4.8-1.8 6.6.3 4.9-.7.8 2.9.2 3.6.2q2.1.3 2.7-.8c-1.6.6-1-1.5.8-.6 1.3.7 4.4 1 5.8 1.8.8.5 5.1.2 4 2.2 1.5 0 1.6-1.5 2-2.7.7.6 2.2.6 3 .5-.7.4 1.2 1 1.5 1 .9 0 1.4-.8 2.2-.9 1.6-.1 3.1-1.3 4.9-.8l-.1-.8 2.4.5 1.2-.3c.5 0 .6 1 1 1.2 1.1 1 1.1.5 1.4-.6.3-1-1-.6-.9-1.5s.1-1-.7-1.9q-.7-1 .5-1.5c.8-.4 3.4-.8 3.4-2 0-2.1 1.5-.3 2.3-1.2 1.4-1.7-1-3-2.2-3.5l-3.6-2.6c-1.6-.9-2-3-3.5-3.8 1.2-1 .6-1.8-.5-2.4-1-.5-1.1-1.4-1.5-2.1q1-.2 1.4 1c.2-2.6 3.6-1.5 5-2.6 2.2-1.8 5.9-2.8 8.5-3.8l-.7-.6c1-.2 1.2-.5 2 .6 2.2 2.8 3.6-2.3 2.5-3.6-.1-.8-1.4-.9-1.5-1.5-.1-.9 0-1.2-.7-2-.4-.4.2-.8.4-1.3 1-2.6-1.6-3.4-1-4.2 1.5-1.6-2.4-2.1-3-3.6.8-.6 3-4 1.6-4.2-.3-1.1-.6-2.3-1.8-2.8-.8-.2-2-.4-2-1.4 0-.5-.3-2-1-2-.5 0-1.4 0-1.2.5-.8-.5-2.5-2.5-3.3-2.6-1.6-.1-2.7 0-4 1.2-.1-1.3 2.2-1.4 3-1.3-1.6-.6-1.9-.1-3.1.8-.6.5-1.9 1-1.5 2 .1-1.7-3.1-.3-3.9.2 1.5-.7-.1.5-.4 1.2-.6-.5-4-1.3-3.3 0q-.2-.8-1-.9c1-1 1.9-1.6 2.1-3.1-1.3.3-2.1.8-3.4.2-.8-.4-2.1-.9-2.5.3-.1-.5-.2-.5.2-1q-1.1-.4-2.1 0c.5-.2 1.6-1.8.4-1.7 2-1-4.8-1.5-4.6-1.4-.6-.3-2-.6-2.7-.6"/><path d="M1367.7 228.9q.3-1.1-.7-.2zm16.3 2.1h1.3q-.5-1.1-1.8-.7zm12.9.7c1-.2.6-1.2.2-1.7q1.2 0 2.2.5c-.3-1-2.2-.7-.7-1.6-.1 1.4 1.5.2 1.7 1 .1.4-.6 1-.1 1.3q.7.2.7.8c-.7 0-1.4-.5-2 0-.5.5-1.7.3-2-.3m4.5 2.3-.2-1c.7 1 2.1.9 2.8 1.9s-2 .9-2.4.7c1-.2 0-1.3 1.2-1.3q-.8 0-1.4-.2"/></g></svg>
