<svg xmlns="http://www.w3.org/2000/svg" viewBox="1361.2 190.92 51.93 51.93"><g id="dk" fill="#2B1D24">
		
		<path id="Denmark_mainland" d="m 1365.22,213.39 c 0.1,-0.24 0.19,-0.479 0.29,-0.72 0.42,0.462 1.67,1.209 2.31,0.792 0.27,1.211 1.08,0.771 1.28,-0.104 0.48,-2.109 3.45,-1.16 1.88,-0.399 0.65,0.06 1.64,-0.122 1.59,0.863 0.23,-0.906 0.24,-1.321 -0.72,-1.224 0,-0.738 -0.25,-1.836 0.41,-2.394 0.43,-0.276 0.9,-0.386 1.41,-0.331 0.81,0.05 1.27,-0.298 1.98,-0.298 0.86,0 1.4,0.04 2.21,0.361 0.99,0.394 0.69,1.625 1.19,2.373 -1.01,-0.09 -1.96,0.214 -2.88,0.576 0.93,0.02 1.58,-0.694 2.54,-0.284 0.56,0.243 -0.57,1.316 -0.6,1.724 0.25,-1.354 3.85,-0.642 4.56,-0.08 0.6,0.48 -0.6,2.341 -1.21,2.339 -0.62,0 -0.88,-0.06 -1.12,0.691 -0.75,-0.17 -0.89,-0.68 -0.36,-1.225 -1.38,-0.457 -1.32,0.708 -1.38,1.682 -0.1,1.574 -1.3,1.268 -2.43,1.559 0.42,0.04 1.25,0.506 0.76,1.055 -0.61,0.694 -1.88,0.104 -2.64,0.241 0.53,0.19 1.06,0.382 1.59,0.576 -1.26,1.286 -1.82,0.544 -0.97,2.469 0.52,1.166 -1.59,1.133 -1.55,2.283 0.99,-0.111 2.19,0.484 1.94,1.657 -0.73,-0.05 -0.65,-0.786 -1.34,-0.25 -0.74,0.575 -1.55,0.413 -2.35,0.163 -1.1,-0.344 -3.83,-0.112 -3.22,-2.002 -0.58,0.219 -1.03,-0.104 -1.22,-0.647 3.37,0 -0.74,-2.789 -0.94,-3.313 -0.16,1.577 -0.99,0.07 -1.07,-0.632 -0.1,-0.885 0.1,-1.803 -0.1,-2.679 0.1,0.661 1.28,1.855 1.66,0.72 0.18,-0.538 -1.9,-2.831 -1.59,-0.936 -0.61,-1.188 -0.31,-3.385 0.1,-4.609"></path>
		<path id="path4494" d="m 1375.01,225.92 c 0.5,0.328 0.98,2.094 1.95,1.439 1.01,-0.679 -1.24,-1.851 -1.95,-1.439"></path>
		<path id="path4492" d="m 1368.46,212.67 c 1.01,-0.234 1.68,-1.287 1.44,-2.304 -0.38,0.272 -0.8,0.47 -1.26,0.592 -0.45,0.136 -0.34,0.939 -0.9,1.136 0.22,0.22 0.46,0.412 0.72,0.576"></path>
		<path id="path4496" d="m 1375.09,222.10 c 0,1.212 1.62,1.976 1.87,3.168 0,-1.049 0.69,-0.526 0.87,0.102 0.15,0.521 2.33,0.586 2.69,0.521 1.88,-0.336 2.16,-3.004 0.18,-3.431 0.24,-0.138 0.48,-0.281 0.72,-0.432 -0.17,-0.303 -0.38,-0.566 -0.64,-0.793 0,0.721 -0.45,1.404 -1.23,1.297 1.42,-1.579 -3.88,-0.466 -4.46,-0.432"></path>
		<path id="path4498" d="m 1379.55,227.72 c 0.1,-0.771 -0.94,-1.03 -1.44,-1.296 0.44,0.479 0.92,0.911 1.44,1.296"></path>
		<path id="path4500" d="m 1380.13,226.28 c 0.29,0.07 0.57,0.144 0.86,0.215 0,-0.837 -0.41,-0.606 -0.86,-0.215"></path>
		<path id="path4502" d="m 1381.14,219.01 c -0.43,-0.07 -0.72,-0.311 -0.87,-0.72 0.42,0.501 0.39,0.98 -0.1,1.439 0.57,0.143 0.91,-0.134 0.94,-0.719"></path>
		<path id="path4504" d="m 1381.49,226.78 c -0.55,0.502 -0.56,1.218 0.1,1.655 0.32,-0.889 1.38,-1.928 0.93,-2.952 -0.2,0.538 -0.54,0.97 -1.01,1.297"></path>
		<path id="path4506" d="m 1383.08,208.21 c 0.4,-0.114 0.64,-0.378 0.72,-0.792 -0.56,-0.02 -1.04,0.174 -1.44,0.575 0.24,0.07 0.48,0.145 0.72,0.217"></path>
		<path id="Denmark_Sjaelland" d="m 1383.87,223.40 c 0.66,0.235 0.75,0.935 1.26,1.195 0.46,0.237 1.26,0.04 1.76,0 1.42,-0.116 1.74,1.471 0.51,1.04 0.31,0.06 1.34,0.372 1.38,0.788 -0.18,0.218 -0.42,0.267 -0.73,0.147 0,0.589 0.91,2.686 1.22,3.168 0.2,-0.545 1.2,-1.607 1.19,-2.112 0,-0.623 -1.11,-0.792 -1.33,-1.343 0.55,0.223 1.1,0.223 1.65,0 -0.85,-1.193 0.12,-1.646 1.14,-2.019 1.24,-0.452 -0.13,-1.098 -0.58,-1.545 -0.98,-0.982 0.91,-1.437 1.45,-1.813 1.25,-0.865 -0.48,-2.224 0.66,-3.047 -1.38,-1.369 -2.94,-0.293 -4.39,0.288 1.06,0.427 1.66,2.733 0.1,2.809 0.41,-0.595 0.81,-1.283 0.43,-2.017 -0.3,0.199 -1.1,2.072 -1.51,1.813 -0.66,-0.423 -0.46,-1.901 -0.1,-1.957 -0.59,-0.479 -1.61,-0.368 -2.3,-0.288 0.37,-0.09 0.61,0.02 0.72,0.31 -0.31,1.287 -2.73,1.54 -3.67,1.49 0.46,0.521 3.18,2.967 1.15,3.095"></path>
		<path id="path4510" d="m 1383.22,227.93 c 0.96,0.68 4.44,2.146 5.4,0.945 1.09,-1.352 -1.07,-1.403 -1.76,-1.31 -1.34,0.184 -1.99,-1.568 -3.35,-0.571 0.16,0.242 0.33,0.481 0.5,0.72 -0.26,0.07 -0.53,0.144 -0.79,0.216"></path>
		<path id="path4512" d="m 1390.86,226.35 c -0.1,0.288 -0.15,0.576 -0.22,0.864 0.29,-0.09 2.62,-0.569 2.39,-1.008 -0.26,-0.471 -1.78,0.113 -2.17,0.144"></path>
		<path id="path4514" d="m 1392.94,221.17 c 0.34,0.813 0.6,0.764 0.8,-0.145 -0.27,0.05 -0.54,0.1 -0.8,0.145"></path>
		<path id="Denmark_Bornholm" d="m 1408.78,224.69 c -0.97,-0.764 -2.62,0.1 -1.44,0.983 1.89,1.416 3.06,-0.803 1.44,-0.983"></path>
		<path id="path4550" d="m 1366.95,212.67 c -1.46,-0.915 -0.21,-2.526 0.75,-3.227 1.35,-0.984 3.58,-0.482 5.14,-0.638 1.4,-0.139 2.12,-1.617 2.92,-2.567 0.89,-1.058 3.51,-1.761 4.87,-2.207 -1.62,1.441 0.29,2.415 -0.55,4.063 -0.94,1.822 -1.94,1.902 -3.79,1.337 -0.88,-0.271 -1.67,-0.08 -2.56,0.156 -0.99,0.259 -1.79,-0.145 -2.74,0.04 -0.84,0.166 -2.01,0.418 -2.59,1.106 -0.38,0.443 -0.71,1.824 -1.45,1.792 0.62,-0.104 0.97,0.238 0.87,0.864 -0.31,-0.217 -0.6,-0.457 -0.87,-0.721"></path>
	</g></svg>
