<svg xmlns="http://www.w3.org/2000/svg" viewBox="757.7 520.4 31.8 31.8"><path fill="#2b1d24" d="M761 542.5c.4-.6.7-2 .3-2.6l-1.4-2.3c1 0 3.2-1.5 2.1-2.6-1-1 2-1.6.8-3-.4-.5.1-1.5.3-2 .2-.9-.6-1.8-.2-2.7 1-2 3 0 4.2-.5q1.5-.8 3-.1l3 1q1 .9 2.3 1c1 0 1.2-.2 1.3 1 .2 2 1.1 2.3 3 1.8q1.2-.5 2.2 0c-.3 1-1.1 1-2 1-.8-.2-2.6.4-1 .8.6.2 3.3 1.2 3.9 1 1.7-.9 2.8 1.3 3.8 2.3 2.2 2-1.2 2.9-1.6 3.7-.7 1.3-1 0-1.6-.6s-1.2-.2-2-.4l-1.5-.3c-.6 0-1.2.5-1.8.2-2.5-1.6-3.2 1.4-5.2 1.7-.4.1-2 .4-2.4 0-.6-.4 0-1.4-.8-1.8-.4.8-1.3.7-1.9 1.3-.4.5-1-.3-1.3.4a16 16 0 0 1-3.2 5.5c-.3-.7-1.2-1-1.3-1.8-.2-.7-.2-1.5-1-2m24.2-.5-1.5-.6c.5 0 1.3 0 1.5.5"/></svg>
