<svg xmlns="http://www.w3.org/2000/svg" viewBox="1224.6 365.3 181.3 181.3"><path fill="#2b1d24" d="m1238.9 462.4.5-10.8c-.5-3 4-4 5.6-5.4.8-.7 2.1-2.2 3.3-2.1 1.1 0 1.3-1.6 2.8-1.9 2.3-.4 3.4 1.8 4.8-1.2.4-1 1.9-.6 2.7-.7q2.3-.2 4.3-.9c2.8-1 3-4 5.4-5.3q1.6-.6 3.3-1c1.2-.4 2-1.9 3.4-2.1.5-.1 3-.3 2-1.7-.7-.9-1.8-1.2-.3-2.5-2-.6-.2-2.7 1.2-2.5 2 .1 3.8-.6 4.5-2.4 1.3-3.5 10.4-.4 13-1-3-1.4 2.1-3 .5-4.3q-1.2-.8-2.2-1.8c-.7-1-.3-2.2-1-3.2-.8-1.1-.4-2-.2-3.1.2-1-.6-1-.5-2.1q.2-1.5.1-3c0-1.3-.8-2.3.5-3.2-1.3-.6-.8-1.3-1-2.3-.2-1.2-2.5-1.7-3-3 2.4 0 3.5-.6 5.5-1.6.9-.5 1.4-.5 2-1.4q.5-1.2 1.7-2c.5-.3 1.4-1 2-.6s1.5-.4 2-.8c1.1-1.1 2.7 1.6 4-.9 1.6-3.3 7.1-4.7 10.3-5 2.4-.3 4.7-1 7-.8 1.8 0 3-2.1 4.5-1.3.6.4.5.2.7-.2 0-.1 2.7 0 3-.2 2.3-1 4.6-.6 7-.6 2-.1 2.4.3 4 1.4 1.8 1.5 2.5-.7 4.2-.9.5 0 3.8-.2 3.6-1.1-.3-1.8 2.1-.7 2.7-.3 1.2.8 3 1.2 4.2.2.7-.6.3-1.3 1.6-1 .9.3 1.6 1 2.6 1-.8 1.3 1.2.8 1.9.6 1.3-.3 2.7 0 4-.4.1 1.8-2.2 2.7-3.2 3.8 2.7.6.1 4.4.7 6.1 1 3 .5 5.3-.1 8.3-.5 2.5-3.3 4.4-5.1 6-1 1-.5 3.4.1 4.4 1 1.7.5 3.5 2.6 4.3 2.8 1 2 4.7 4.3 6.4q1.7 1 3.2 2.3c1.2 1.4 1.4 3.6 1.7 5.3.5 3.5 2.2 7.4 2.2 11 0 1-2 .5-.7 2.3q2 2.5 2.7 5.7c1.4 7.1-.7 7 .4 10.7q.8 2.4-.1 4.7c-.8 2-.1 3.7.3 5.6.6 2.9-.6 3-2.7 4.5-2.3 1.8 1.6 5.2 2.6 6.7 1.9 3 .7 6.4 3.2 9.1 1 1 2.1-.2 3.2-.1 1.3.1 2.7 1 3.9 1.5 2.8 1 3.7 3.4 4.8 6 .5 1.3 1 1.5-.4 2.2a238 238 0 0 0-40.6 30c-.7 1-3 3.5-4.7 4.4-1.3.8-3.3.8-4.7 1.1l-6 1.3c-1 .2-9.7 3.2-9.4 0 .2-1 1-1.4.8-2.6 0-.5.1-3-.3-3.2q-2.3-1-5-1.4c-.8-.1-1.8-2.1-2.5-2-3.4.9-4-2.6-4.6-3.1-.8-.7-2-.7-2.7-1.2s-.1-2-.6-2.8q-1-1.6-2.5-2.4-2.4-1.5-4.6-3.3l-11-8.6a885 885 0 0 0-53.4-39.6"/></svg>
