<svg xmlns="http://www.w3.org/2000/svg" viewBox="1224.57 365.28 181.29 181.29"><path id="dz" d="m 1238.86,462.438 0.51,-10.872 c -0.47,-2.924 4.01,-3.888 5.62,-5.358 0.8,-0.729 2.11,-2.218 3.34,-2.142 1.08,0.07 1.32,-1.547 2.73,-1.82 2.3,-0.445 3.47,1.779 4.85,-1.26 0.43,-0.941 1.86,-0.547 2.68,-0.655 1.48,-0.196 2.97,-0.397 4.36,-0.913 2.8,-1.036 2.92,-4.046 5.31,-5.308 0.98,-0.521 2.27,-0.578 3.31,-0.962 1.28,-0.474 2.12,-1.908 3.44,-2.173 0.48,-0.1 3.08,-0.309 2.02,-1.679 -0.69,-0.885 -1.78,-1.207 -0.37,-2.496 -2.02,-0.554 -0.2,-2.668 1.28,-2.544 1.96,0.164 3.77,-0.534 4.46,-2.367 1.33,-3.511 10.39,-0.401 12.98,-1.065 -2.97,-1.338 2.16,-2.972 0.55,-4.213 -0.76,-0.587 -1.61,-1.104 -2.23,-1.854 -0.71,-0.867 -0.34,-2.11 -1.04,-3.172 -0.74,-1.11 -0.33,-2.024 -0.12,-3.129 0.2,-1.036 -0.6,-1.048 -0.49,-2.053 0.11,-0.939 0.1,-2.071 0.1,-3.006 0,-1.255 -0.81,-2.262 0.43,-3.236 -1.29,-0.528 -0.77,-1.249 -0.96,-2.216 -0.25,-1.288 -2.48,-1.706 -2.97,-3.031 2.4,0 3.42,-0.587 5.45,-1.627 0.89,-0.453 1.45,-0.454 1.98,-1.388 0.48,-0.827 0.83,-1.521 1.71,-1.991 0.5,-0.266 1.46,-1.038 1.98,-0.624 0.68,0.537 1.54,-0.396 1.99,-0.81 1.18,-1.073 2.79,1.628 3.99,-0.84 1.61,-3.307 7.15,-4.738 10.4,-5.112 2.31,-0.266 4.65,-0.902 6.98,-0.745 1.74,0.117 2.93,-2.099 4.44,-1.246 0.66,0.371 0.51,0.163 0.76,-0.25 0,-0.09 2.66,-0.05 3.05,-0.206 2.25,-0.893 4.52,-0.556 6.89,-0.622 1.98,-0.05 2.44,0.354 3.95,1.487 1.92,1.447 2.58,-0.693 4.25,-0.897 0.53,-0.06 3.85,-0.209 3.67,-1.192 -0.33,-1.77 2.09,-0.68 2.66,-0.294 1.2,0.805 3.01,1.212 4.24,0.228 0.68,-0.541 0.24,-1.245 1.52,-0.924 0.92,0.228 1.63,0.9 2.63,0.847 -0.84,1.391 1.24,0.904 1.9,0.732 1.32,-0.343 2.74,-0.02 4.01,-0.445 0.1,1.794 -2.18,2.673 -3.17,3.816 2.7,0.582 0.11,4.377 0.65,6.116 0.95,3.021 0.56,5.304 -0.1,8.284 -0.53,2.452 -3.25,4.362 -5.08,5.971 -1.06,0.938 -0.54,3.388 0.1,4.427 1,1.681 0.54,3.513 2.61,4.299 2.83,1.072 2,4.651 4.28,6.355 1.05,0.791 2.3,1.363 3.19,2.356 1.21,1.343 1.39,3.544 1.67,5.248 0.58,3.52 2.25,7.431 2.25,10.98 0,0.958 -2.02,0.591 -0.72,2.323 1.26,1.679 2.3,3.653 2.72,5.719 1.43,7.11 -0.68,7.066 0.4,10.712 0.51,1.739 0.53,3.01 -0.14,4.703 -0.76,1.911 -0.1,3.698 0.35,5.605 0.62,2.883 -0.66,2.929 -2.71,4.477 -2.33,1.766 1.55,5.196 2.56,6.754 1.9,2.912 0.76,6.369 3.28,9.088 0.96,1.044 2.07,-0.208 3.11,-0.13 1.3,0.1 2.72,1.084 3.95,1.529 2.79,1.016 3.73,3.364 4.77,6.022 0.49,1.259 0.98,1.411 -0.38,2.185 -14.2,9.052 -28.52,18.11 -40.61,29.885 -0.7,1.012 -2.95,3.544 -4.69,4.51 -1.33,0.733 -3.28,0.8 -4.74,1.103 -1.99,0.411 -3.98,0.801 -5.97,1.222 -0.99,0.211 -9.72,3.21 -9.35,0.121 0.13,-1.089 0.91,-1.511 0.81,-2.717 0,-0.463 0.1,-2.895 -0.39,-3.136 -1.47,-0.734 -3.3,-1.07 -4.92,-1.381 -0.8,-0.154 -1.87,-2.184 -2.48,-2.034 -3.49,0.858 -4.04,-2.627 -4.67,-3.148 -0.75,-0.616 -2.03,-0.672 -2.71,-1.189 -0.76,-0.581 -0.1,-2.025 -0.56,-2.805 -0.58,-0.981 -1.58,-1.834 -2.53,-2.391 -1.61,-0.954 -3.12,-2.087 -4.59,-3.234 -3.67,-2.849 -7.28,-5.783 -10.93,-8.654 -14.09,-11.076 -28.16,-22.111 -42.9,-32.316 -3.52,-2.44 -7.05,-4.845 -10.6,-7.232" fill="#2B1D24">
		
	</path></svg>
