<svg xmlns="http://www.w3.org/2000/svg" viewBox="671.7 681.7 64.3 64.3"><g fill="#2b1d24"><path d="M682 717.5c1.5.5 1.5-1.8 1.4-2.7q-.1-1-.6-2c-.4-1.2.9-2 .4-3.2s-1.9-2.9.4-3.1q1.3-.1 1.5-1.4c.2-1.2.9-1 1.9-1.1-1.7-.2-1.9-2.3-.8-3.3 1.5-1.6 2.5-2.7 2.7-5 0-.6-1-3.6-.4-4s3.4-2.4 3.4-.4c-.4-1.2 1-1.8 2-2 .8-.4 2.8-1.6 3-.4q.4-1.5 1.3-2.8c2 1.9 5.1 5.3 8.1 5.3 1 0 1 1.1 1.9 1.4 1.2.4.1 2.8 2.2 2.7 1.6 0 2.8.8 4.4.8.6 0 1.8.7 2-.3 0-.3-.5-.6 0-.8 1.4-.7 2.6.6 3.4 1.6 1.4 1.7 3.2 1.7 4.9 2.8h-2.6c-.1.5 1.8 2.3 2.1 2.8 1 1.5.3 3 1 4.6q-.8.2-1.4-.5a22 22 0 0 1-9.2 14.2c-2.4 1.6-5.4 2-8 3.1a7 7 0 0 0-2.8 2.6l-.8 1c-.2.6.2 1-.3 1.5-.5-2.3-1.5 2.2-1.6 2.4a10 10 0 0 0-1.5 5c.1 2-1.3 1.9-1.8 3.4-.5 1.6-.4 1.9-1.9 1.8-1.8 0-2.2-2-2.8-3.3-.7-1.7-1.5-.4-2.6-1-.8-.4-1.7-2-2.6-1-1.4 1.3-2.8 1-1.4-1-1-.1-1.2-1.4-.5-2 .5-.4 1.3-.2 1.8-.6.8-.6-.4-4.5-1.3-4.8 1.1-.6 2-.3 2.7-1.6q.8-1.7 1.1-3.6c.5-1.5.5-1.5 0-2.9s-.6-2.6.3-3.8c-1.6.8-.6 2.6-.8 4-.4 2.1-1.9.2-.3 0q-1.1-.2-.6-1.2c-.5.5-2.3 2.7-2 3.5l-3.3-2.8c-.9-.4-1.9-.7-2-1.9"/><path d="M690.4 721.4q.4-.8 0-1.4-.3.8 0 1.4m-1.1.2q-1.4.2-2 1.5c0 .2.2 2.1.8 1.7.2-.2.6-1.2.5-1.4 0-.5 1.2-.9 1.5-1.3zm-88.1-18.7c.8-.2 1-1.7 0-2-1.6-.4-1 1.5 0 2"/><path d="M600.4 698.5c1.2.3 1.2 1 1.6 2 .4 1.3 1.6 2.2 2 3.5-1.4.4-4 2.3-1.6 3.4 1.3.6 4-.5 4.2-2 .2-1-1.4-1.1-1.2-2 .2-1.3-1-1.8-1.6-2.8-1-1.7-1-3.5-3.4-2m7.6 3.2c.8-1-.5-1.8-1.4-1.8-2 0 1.3 1.8 1.4 1.8m1-5.5q.7-1.1-.5-.7zm1 9c1.6-.4 1.5-2.6-.2-2.4-1.8.3-1.4 2.4.3 2.4m-.8 5 .6-.8c-.9-.7-1.5.4-.6.8m6.9-3.4c.8 0 2.3-1.5 1.7-2.4-.8.1-2.4 1.5-1.7 2.4"/></g></svg>
