<svg xmlns="http://www.w3.org/2000/svg" viewBox="1447.49 175.25 44.18 44.18"><g id="ee" fill="#2B1D24">
		
		<path id="Estonia_Saaremaa" d="m 1451.84,202.66 c 1.11,-0.414 0.82,-1.347 1.44,-2.088 0.43,-0.518 1.26,-0.344 1.82,-0.573 0.34,0.02 0.66,0.07 0.99,0.141 0.32,-0.232 0.63,-0.486 0.92,-0.761 0.67,-0.365 1.23,-1.186 2.1,-0.896 -1.23,-1.163 -2.39,-1.349 -4.03,-1.224 -0.88,0.07 -1.38,-0.124 -2.1,0.533 -0.56,0.51 -1.77,0.1 -2.44,0.187 0.93,0.75 -0.11,1.493 1.14,2.291 1.46,0.929 -0.72,1.502 0.16,2.39"></path>
		<path id="Estonia_Hiiumaa" d="m 1454.72,193.30 c -1.02,0.93 -2.22,1.018 -3.53,1.152 0.97,0.498 2.28,-0.02 2.81,1.209 0.39,0.897 1.18,0.757 1.59,-0.03 0.18,-0.352 1.56,-0.235 1.27,-1.044 -0.28,-0.785 -1.67,-0.675 -2.14,-1.287"></path>
		<path id="Estonia_Muhu" d="m 1458.32,197.48 c 0.48,0.24 0.89,0.145 1.22,-0.288 -0.34,-0.531 -0.92,-0.771 -1.51,-0.504 0.1,0.263 0.19,0.528 0.29,0.792"></path>
		<path id="Estonia_Vormsi" d="m 1458.18,193.59 c 0,0.216 0,0.432 0,0.647 0.27,-0.155 0.51,-0.348 0.72,-0.576 -0.24,-0.02 -0.48,-0.05 -0.72,-0.07"></path>
		<path id="Estonia_mainland" d="m 1460.41,197.40 c -0.54,-1.469 1.34,-1.236 2.16,-1.584 -0.6,-0.158 -1.82,0.335 -2.31,-0.07 -0.86,-0.709 0.74,-1.32 0.22,-2.16 -0.25,0.136 -0.49,0.279 -0.72,0.432 0.15,-0.474 -0.1,-1.201 0.29,-1.595 0.83,-0.952 2.34,-0.679 3.45,-0.709 -0.18,-0.271 -0.32,-0.559 -0.43,-0.864 1.07,0.604 1.54,-0.801 2.57,-0.634 0.53,0.09 2.18,0.779 1.97,-0.374 0.63,0.03 4.95,0.684 4.17,-0.864 1.59,0.536 3.73,0.298 5.41,0.499 1.49,0.176 2.74,0.802 4.19,0.989 1.4,0.182 6.69,-0.899 7.25,0.673 -1.39,-0.02 -1.6,0.717 -1.92,1.862 -0.37,1.292 -2.03,1.703 -2.01,2.826 0,0.856 0.61,1.422 0.83,2.221 0.2,0.715 -0.39,1.288 -0.14,2.003 0.18,0.513 0.88,0.898 1.24,1.254 0.55,0.551 0,1.035 1.14,1.569 -1,1.114 -2.42,1.63 -2,2.808 -0.89,0.03 -2.07,-0.496 -2.93,-0.615 -0.97,-0.135 -1.62,0.804 -2.56,0.616 -2.02,-0.403 -3.62,-2.153 -5.51,-2.936 -0.54,-0.225 -1.5,-0.745 -2.09,-0.703 -0.76,0.05 -1.2,-0.53 -1.87,-0.521 -1.61,0.02 -3.17,1.889 -4.79,1.425 0.14,-0.75 0.38,-2.691 0.75,-3.278 0.47,-0.745 -0.66,-1.099 -1.05,-0.344 -1.16,2.281 -4.42,-1.9 -5.31,-1.925"></path>
	</g></svg>
