<svg xmlns="http://www.w3.org/2000/svg" viewBox="1447.5 175.3 44.2 44.2"><path fill="#2b1d24" d="M1451.8 202.7c1.1-.5.9-1.4 1.5-2.1.4-.5 1.2-.4 1.8-.6l1 .1 1-.7c.6-.4 1.1-1.2 2-1q-1.7-1.4-4-1.1c-.9 0-1.4-.2-2.1.5-.6.5-1.8 0-2.5.2 1 .7 0 1.5 1.2 2.3 1.4.9-.7 1.5.1 2.4m2.9-9.4c-1 1-2.2 1-3.5 1.2 1 .4 2.3 0 2.8 1.2q.8 1.2 1.6 0c.2-.4 1.6-.3 1.3-1.1s-1.7-.7-2.2-1.3m3.6 4.2q.8.3 1.2-.3-.5-.9-1.5-.5zm-.1-3.9v.6l.7-.5zm2.2 3.8c-.5-1.5 1.3-1.2 2.2-1.6-.6-.1-1.8.4-2.3 0-.9-.8.7-1.4.2-2.2l-.7.4c.1-.5-.1-1.2.3-1.6.8-1 2.3-.7 3.4-.7l-.4-.8c1 .6 1.5-.9 2.5-.7.6.1 2.2.8 2-.4.6 0 5 .7 4.2-.8 1.6.5 3.7.3 5.4.5 1.5.2 2.7.8 4.2 1 1.4.1 6.7-1 7.2.6-1.4 0-1.6.8-1.9 1.9-.4 1.3-2 1.7-2 2.8 0 .9.6 1.4.8 2.2s-.4 1.3-.1 2c.2.6.9 1 1.2 1.3.6.6 0 1 1.2 1.6-1 1-2.4 1.6-2 2.8-1 0-2.1-.5-3-.6-1-.2-1.6.8-2.5.6-2-.4-3.6-2.2-5.5-3q-1-.5-2.1-.7c-.8 0-1.2-.5-1.9-.5-1.6 0-3.2 2-4.8 1.4.2-.7.4-2.6.8-3.2.4-.8-.7-1.1-1-.4-1.2 2.3-4.5-1.9-5.4-1.9"/></svg>
