<svg xmlns="http://www.w3.org/2000/svg" viewBox="1477.31 417.83 99.69 99.69"><path id="eg" d="m 1485.39,438.966 c -1.43,-2.281 1.51,-4.671 1.15,-7.01 -0.39,-2.512 -2.68,-4.265 0.94,-7.246 0.1,1.83 2.21,1.175 3.31,0.846 2.02,-0.601 3.68,0.07 5.69,0.271 2.2,0.22 4.3,0.709 6.43,1.276 0.9,0.24 1.04,1.218 1.96,1.5 0.81,0.25 1.42,0.149 2.23,0.06 0.54,-0.06 0.79,0.786 1.4,0.912 0.66,0.138 1.34,0.141 2.02,0.208 2.16,0.214 3.6,1.571 5.63,1.91 1.97,0.328 3.84,-0.993 5.25,-2.193 0.73,-0.622 1.41,-1.298 2.08,-1.985 0.57,0.447 1,0.907 1.73,0.792 -0.42,-0.208 -0.33,-0.327 -0.87,-0.288 0.71,-0.376 1.41,-1.059 1.59,-1.872 1.22,0.732 2.37,-0.583 3.6,-0.574 -0.82,0.378 -1.61,0.848 -2.24,1.511 0.22,-0.128 5.18,-1.628 2.81,-1.8 1.75,-0.58 2.89,1.427 4.57,1.188 0.81,-0.114 1.57,-0.909 2.42,-0.611 0.79,0.276 1.17,1.425 1.87,1.871 -0.71,-0.498 -1.44,-1.592 -2.38,-1.655 0.28,0.746 -0.75,2.157 0.46,2.447 1.32,0.315 0.7,0.642 1.56,1.44 0,-0.294 2.35,-1.288 0.65,-2.088 1.81,0.422 2.42,2.096 4.54,1.91 0.69,-0.06 2.73,-1.334 2.37,0.178 1.32,-0.838 2.8,-0.349 4.21,-0.776 1.25,-0.375 2.5,-0.864 3.5,-1.733 l 6.08,16.049 c -1.54,1.955 -1.19,5.571 -2.17,7.887 -0.57,1.354 -0.55,2.198 -0.53,3.629 0,1.224 -1.55,2.408 -1.16,3.601 -0.75,-0.687 -1.74,-0.997 -2.56,-1.571 -1.04,-0.729 -1.77,-1.791 -2.48,-2.818 -0.9,-1.302 -3.55,-2.152 -3.16,-4.107 0.38,-1.97 -1.52,-3.336 -2.49,-4.724 -1.34,-1.917 -2.3,-4.15 -2.84,-6.436 -0.9,0.969 -1.86,3.083 -0.92,4.189 1.61,1.895 1.44,4.221 2.79,6.179 1.17,1.696 2.35,3.772 3.81,5.219 0.65,0.64 1.38,1.191 1.97,1.888 0.31,0.365 1.58,2.457 0.1,1.316 1.24,0.966 0.21,2.196 1,2.992 1.05,1.068 1.61,2.2 2.16,3.546 0.27,0.662 0.72,1.229 1.11,1.824 0.29,0.455 -0.29,1.035 -0.32,1.48 0,0.595 0.94,1.478 1.2,1.991 0.61,1.174 1.27,2.32 1.89,3.492 2.02,3.85 4.06,7.632 5.97,11.541 0.75,1.529 1.84,2.624 2.78,3.998 0.88,1.279 2.41,1.675 3.22,2.976 -0.77,0.04 -1.54,-0.09 -2.23,-0.432 -0.5,2.089 -0.26,5.278 0.81,6.51 1.01,1.172 -1.33,3.526 -2.76,3.596 -0.71,0.03 -0.98,-0.481 -1.69,0.314 -0.56,0.627 -0.86,1.703 -1.12,2.507 -0.29,0.929 -0.73,1.75 -1.75,1.989 -0.83,0.193 -2.33,0.02 -2.77,0.975 -0.8,1.743 -0.31,3.777 -2.77,3.582 -2.86,-0.228 -4.32,-2.548 -5.83,-2.485 -4.96,0.208 -7.82,0.661 -11.71,0 0.11,-0.391 0.56,-1.218 0.28,-1.62 -0.7,-1.017 -1.24,0.827 -1.47,1.16 -0.93,1.334 -5.6,0.532 -7.09,0.532 l -40.09,-0.09 -1.43,-54.185 c -0.15,-2.533 -0.1,-5.19 -0.44,-7.699 -0.3,-2.158 -0.85,-5.35 -1.82,-7.295" fill="#2B1D24">
		
	</path></svg>
