<svg xmlns="http://www.w3.org/2000/svg" viewBox="1572.82 537.36 59.66 59.66"><g id="er" fill="#2B1D24">
		
		<path id="path6816" d="m 1603.62,561.29 c 0,0.565 0.64,2.264 -0.37,1.439 0.43,1.274 2.64,1.157 3.68,1.08 -0.51,-1.101 -1.95,-0.03 -2.33,-1.169 -0.15,-0.44 -0.16,-1.849 -0.98,-1.35"></path>
		<path id="Eritrea_mainland" d="m 1576.98,567.49 c 1.2,-1.081 1.14,-2.777 1.57,-4.211 0.47,-1.556 1.12,-3.069 1.68,-4.597 0.51,-1.405 -0.94,-7.236 1.31,-7.549 0.45,-0.06 2.12,0.276 2.39,-0.173 0.73,-1.215 0.17,-2.148 1.61,-2.604 1.16,-0.367 2.5,-1.278 3.71,-1.756 1.79,-0.706 1.85,-2.542 3.13,-3.732 2.24,4.467 3.88,8.765 4.98,13.642 0.26,1.163 0.24,2.313 0.77,3.41 0.57,1.186 1.12,2.127 1.35,3.43 0.16,0.888 1.28,0.963 1.53,1.906 0.22,0.87 0.4,2.361 1.17,2.956 0.96,-0.681 -0.61,-3.266 0.39,-3.431 0.98,-0.162 1.56,1.07 1.63,1.8 0.1,0.855 0.69,2.313 1.51,2.692 1.16,0.536 1.89,-1.037 3.07,0.283 0.98,1.091 1.1,1.899 2.68,2.116 1.82,0.251 2.51,1.65 3.48,3.098 0.94,1.396 1.76,2.816 3.22,3.737 0.69,0.435 1.3,0.969 1.88,1.539 0.29,0.286 1.7,2.223 1,0.477 0.97,0.617 0.96,1.982 1.27,2.948 0.26,0.842 1.2,0.612 1.74,1.182 0.53,0.551 2.61,4.446 3.4,2.494 0.79,0.738 1.17,1.078 0.72,1.62 -1.15,0.542 -2.07,1.286 -2.09,1.928 -0.1,2.224 -1.82,-0.959 -3.8,0.606 0.25,-0.57 -0.33,-2.337 -2.48,-3.813 -1.9,-2.857 -3.12,-4.839 -4.28,-5.148 -2.06,-0.552 -2.72,-3.093 -3.96,-4.795 -1.34,-1.843 -3.33,-1.933 -5.03,-3.242 -1.59,-1.226 -2.54,-0.207 -4.01,-0.648 -1.16,-0.344 -3.16,-1.426 -4.3,0.03 0,-0.896 -1.83,-2.677 -1.43,-2.056 0.18,0.295 -1.29,1.904 -2.37,1.967 -0.7,0.04 -2.21,0.251 -2.94,-0.854 -1.34,-2.02 -1.78,-0.368 -3.35,-2.945 -0.6,2.317 -1.48,4.552 -2.37,6.768 -0.48,-0.686 -1.74,-3.248 -2.91,-2.614 -0.74,0.396 -0.65,1.134 -1.69,1.055 -2.85,-0.218 -2.8,-0.338 -3.54,1.453 -0.54,-2.548 -0.68,-6.427 -0.69,-8.787"></path>
	</g></svg>
