<svg xmlns="http://www.w3.org/2000/svg" viewBox="1236 299.6 108.3 108.3"><path fill="#2b1d24" d="m1244.1 328 .2-.3c-.9.1-1-.7-.7-1.3.4-1.1 1.2-.8 1.9-1.5 1.2-1.4 4-.8 5.8-1.6-1.4.1-.5-.3 0-.6l-1 .3c-.1-1 3-3.4 3-1.8l1.5-.9c.1 1 4.3.6 4.3 2.4 1.3-1.7 5-.4 6.8-.7 1.5-.2 1.9-.3 3.4 0q2.6.8 5.2 1.2 3.5.5 6.6-.4 2.3-.4 4.2.7c1.6 1 1.4-.4 2.9-.2 1.3 0 2.6.6 3.9.8.8.2 3.3-.7 3.6-.1s2.8-.1 2.4 1.3c-.1.3-.5.7-.2 1 .6.7.4-.1 1 0 2 0 4.8 2 5.6 2.3.4.1 1-.3 1.3-.1.6.2 1 1 1.4.9q2.3-.5 5 .2-.3-.8.3-1.5c.9 0 1.5 0 3 1 1.3 0 2.5.5 2.2 2.6 1.7-.3 1.6-1.5 1.8-.7.3.2 2 1.3 2.4 1.1.5-.1 1-.5 1.5-.3 1.1.5 2.2.9 3.1.2.7-.6 1.3-.5 3-.3.6 0 0 1 .8 1 0 .7-.5.5-1 .8-.6.5 0 1.8 0 2.5 0 1.8-4 3.2-5.4 3.7-1 .5-1.3 1.4-2.2 1.8q-1.7.5-3.5.8c-2.7.6-4.3 1.8-6.4 3.3 1.6 1.3 0 1.6-1 2.2-1.8 1-2 3.3-3.7 4.4-2.8 1.7-3.8 6.9-1.5 9.3 1.4 1.5 2.5 2 .2 3.4-1.3.8-2.4 1.2-3.4 2.4q-1 1.2-1.7 2.8-.5 1-.6 2c0 .7 1 1.5.3 0 1 1.6-2.8 1.7-3.5 1.8-1.7.2-4.1 1.8-4.6 3.5-.3 1.4-1.5 4-3.1 2.8-1-.8-1.7.3-2.5.6-1.2.5-2.4-.2-3.6 0-2.6.4-5.2 0-7.8.1-1.4 0-1.7.3-2.7 1.3-1.2 1-2.7.6-4 1.3-.7.3-1.3 2.6-2 2.5-.7 0-.5 1.2-1.6 1.1-1 0-1.7-1.6-2.6-1.5s-1.7-2-2-2.6c1.4-.3-.2-1.2-.6-1.5-1-.7.2-1.9 1-2.1q-.8-.3-.8.6c-.5-.5-4.3-3.1-3.5-3.9-1.3-.1 0 .6-1.4.6-.7 0-1.5.3-2 0-1-.3-1-2.6-.8-3.3q.3-1 1-1.6c.6-.5.6-1.4 1.1-1.9 1-1 1.5-.2 2.2-1.8-1.4.4-2.5-1.4-2.5-2.6-.1-1.8 2-2.6 2.5-4.2.3-.9-1.3-2-1.7-2.8-.3-.6 0-1-.5-1.5l-1.2-1.5h2.8c1 0 .7-.5 1-1.1.5-.8 1.3-.9.4-3.2-.3-.6 1-1 1-1 .7-.3.5-1.3.5-1.8s.2-4.7-.4-4.6c1-.2 1.5-1.3 2.4-1.9.6-.4 3-2.4 2.7-3s-2.2-.5-2.3-1c0-.7.4-2.5-.3-1.9-.5.4-3.9-.5-4 0 0 1.3-2 .8-2.8.6-1-.5-2.2 0-3.2.4-2.1.8-.8-1.4 0-2q-1 0-.8-.9-1 .7-2.2.8c-1 .2-1.6 1-2.5 1.4-.8-2 1.5-2.3 2-3.9q-.5 1-1.8 1c.1-.9 1-1.2 1.6-1.6-.7.3-1.7.4-1.6-.6 0-.7 1.1-1 1.3-1.7-.7.6-1.7.5-2 1.4-.8-1 .4-1.9 1.1-2.5-.7.6-1.7.8-2-.3m-73.9 131.3c-1.1-.7-.2-1.8.8-1.5zm2-7.7-.7.4c0-.7-1.4-2.7 0-3 1.5-.3 1.2 1.8.7 2.6m3.8 4.6c-.8-.5-.8-1.9.3-1.6s.4 1.4-.4 1.6m4.1.2-1.5-3.2c2.2-.5 3.8-1.2 6-2-.8 1.6-2.7 4.5-4.5 5.2m8 2.1c-1.8-.2-2.1-3.1-.3-3.5 2.8-.7 2 2.7.3 3.5m9.4-2.7-.7-.4c2.2-.7 2.4-4 4-5.5 1-1 .4 2.7.3 3-.7 1.8-2.4 1.7-3.6 2.9m4.5-6.9-.8-.2c.3-.7 2.7-3.7 3.2-2.2.5 1.2-1.8 1.8-2.4 2.4m113.9-86.3c-1.4-.3-.9-1.6.1-2.1q.8-.4 1.5 0c.7.7-1.3 1.4-1.5 2m0 1.7q-.3-1.2.7-.4zm13.6-6.7c-1.3 1.5-1.2.8-2.8.5-1.7-.3-.6-2.1-2.6-1.3-1.7.8-.3-1.3.2-1.7q2.2-1.5 4.9-2.2c-.8.2-1 1.2-.4 1.7s1.3-.2 1.8.2c.7.6-1 2.2-1 2.8m3.7-5c1.3-1.2 3.4-.2 3.6 1.5-1 .1-3.2-.6-3.6-1.5"/></svg>
