<svg xmlns="http://www.w3.org/2000/svg" viewBox="1236.03 299.58 108.3 108.3"><g id="es" fill="#2B1D24">
		
		<path id="Spain_mainland" d="m 1244.12,328.09 c 0.1,-0.12 0.15,-0.24 0.22,-0.36 -0.93,0.08 -0.96,-0.709 -0.7,-1.366 0.41,-1.059 1.16,-0.776 1.83,-1.492 1.28,-1.386 4.06,-0.733 5.85,-1.533 -1.45,0.06 -0.52,-0.354 0,-0.648 -0.31,0.113 -0.62,0.209 -0.94,0.288 -0.22,-0.945 2.96,-3.367 2.96,-1.8 0.48,-0.288 0.96,-0.576 1.44,-0.864 0.12,1.063 4.29,0.578 4.32,2.376 1.27,-1.644 5,-0.367 6.76,-0.647 1.51,-0.24 1.9,-0.329 3.49,0.05 1.69,0.403 3.41,0.779 5.13,1.07 2.34,0.397 4.49,0.177 6.64,-0.339 1.36,-0.326 2.97,-0.02 4.16,0.698 1.62,0.976 1.38,-0.377 2.88,-0.269 1.33,0.09 2.63,0.623 3.93,0.873 0.78,0.151 3.31,-0.691 3.65,-0.142 0.38,0.597 2.73,-0.128 2.31,1.313 -0.1,0.305 -0.46,0.67 -0.19,0.967 0.61,0.693 0.42,-0.08 1.07,-0.05 2.05,0.105 4.76,2.036 5.6,2.362 0.41,0.156 0.89,-0.247 1.31,-0.09 0.54,0.197 0.9,0.985 1.41,0.88 1.41,-0.295 3.2,-0.228 4.91,0.24 -0.23,-0.626 0,-1.068 0.36,-1.512 0.87,0.02 1.49,0.09 3.03,1.041 1.27,0.04 2.45,0.459 2.15,2.559 1.74,-0.277 1.63,-1.53 1.75,-0.666 0.33,0.187 2.07,1.244 2.48,1.109 0.49,-0.157 0.95,-0.518 1.51,-0.295 1.06,0.425 2.2,0.843 3.08,0.131 0.67,-0.544 1.3,-0.466 2.91,-0.294 0.62,0.07 0.12,1.061 0.87,0.952 0,0.768 -0.48,0.533 -0.92,0.882 -0.64,0.517 0,1.794 0,2.463 -0.1,1.85 -4.13,3.186 -5.49,3.751 -1.03,0.424 -1.3,1.389 -2.15,1.793 -1.03,0.488 -2.44,0.473 -3.54,0.75 -2.67,0.672 -4.29,1.832 -6.44,3.321 1.67,1.337 0.1,1.592 -1.05,2.245 -1.68,0.959 -2,3.271 -3.64,4.32 -2.8,1.789 -3.79,6.915 -1.49,9.364 1.4,1.491 2.53,1.944 0.22,3.388 -1.33,0.836 -2.35,1.188 -3.43,2.38 -0.65,0.706 -1.23,1.787 -1.68,2.815 -0.28,0.645 -0.6,1.368 -0.61,2.084 0,0.597 0.96,1.405 0.37,-0.03 0.92,1.512 -2.81,1.626 -3.53,1.712 -1.74,0.209 -4.15,1.788 -4.57,3.503 -0.36,1.474 -1.58,4.101 -3.16,2.827 -0.97,-0.78 -1.69,0.27 -2.49,0.599 -1.16,0.476 -2.41,-0.24 -3.64,-0.04 -2.56,0.42 -5.11,0.126 -7.73,0.177 -1.4,0.03 -1.71,0.288 -2.72,1.237 -1.16,1.085 -2.69,0.64 -4.03,1.31 -0.66,0.333 -1.32,2.582 -1.92,2.523 -0.74,-0.07 -0.55,1.155 -1.7,1.127 -0.93,-0.02 -1.64,-1.623 -2.53,-1.526 -0.97,0.106 -1.71,-1.924 -1.94,-2.649 1.28,-0.225 -0.31,-1.149 -0.69,-1.441 -0.91,-0.703 0.17,-1.908 1.05,-2.16 -0.55,-0.176 -0.82,0.12 -0.86,0.648 -0.47,-0.501 -4.31,-3.101 -3.46,-3.889 -1.33,-0.146 0,0.555 -1.45,0.587 -0.64,0.01 -1.43,0.256 -2.05,0.03 -0.9,-0.326 -0.86,-2.611 -0.74,-3.35 0.11,-0.646 0.62,-1.13 1.05,-1.575 0.53,-0.547 0.6,-1.407 1.06,-1.866 1.08,-1.055 1.52,-0.241 2.21,-1.887 -1.37,0.454 -2.48,-1.368 -2.52,-2.521 -0.1,-1.792 2.02,-2.666 2.53,-4.249 0.27,-0.857 -1.36,-2.003 -1.74,-2.76 -0.32,-0.639 0,-1.012 -0.47,-1.56 -0.4,-0.46 -0.93,-0.952 -1.19,-1.512 0.91,0.255 1.87,0.07 2.8,0.07 0.96,0 0.7,-0.565 1.03,-1.162 0.42,-0.745 1.26,-0.847 0.34,-3.114 -0.27,-0.669 0.96,-1.017 1.08,-1.076 0.65,-0.308 0.42,-1.224 0.39,-1.779 0,-0.429 0.2,-4.685 -0.36,-4.548 1.01,-0.244 1.48,-1.338 2.44,-1.946 0.56,-0.351 2.96,-2.402 2.67,-2.98 -0.35,-0.711 -2.19,-0.56 -2.26,-0.996 -0.11,-0.676 0.39,-2.542 -0.33,-1.917 -0.49,0.424 -3.87,-0.515 -3.95,0.07 -0.16,1.221 -2.13,0.771 -2.82,0.493 -1.09,-0.447 -2.21,0.07 -3.24,0.439 -2.11,0.76 -0.82,-1.427 0,-2.008 -0.63,0.08 -0.89,-0.264 -0.79,-0.864 -0.62,0.591 -1.46,0.612 -2.24,0.755 -0.99,0.18 -1.57,0.983 -2.44,1.405 -0.79,-2.063 1.5,-2.287 2.01,-3.889 -0.37,0.704 -1.13,0.925 -1.87,0.937 0.16,-0.823 0.94,-1.151 1.59,-1.512 -0.66,0.289 -1.64,0.362 -1.59,-0.648 0,-0.72 1.17,-0.995 1.3,-1.728 -0.64,0.596 -1.65,0.537 -2.02,1.439 -0.72,-1.04 0.43,-1.877 1.15,-2.448 -0.73,0.588 -1.66,0.75 -1.94,-0.356"></path>
		<path id="path5984" d="m 1170.18,459.41 c -1.08,-0.715 -0.22,-1.846 0.86,-1.513 -0.21,0.55 -0.5,1.054 -0.86,1.513"></path>
		<path id="path5986" d="m 1172.19,451.71 c -0.22,0.144 -0.44,0.288 -0.65,0.432 -0.1,-0.735 -1.45,-2.748 -0.1,-3.024 1.54,-0.307 1.26,1.819 0.72,2.592"></path>
		<path id="path5988" d="m 1175.93,456.25 c -0.73,-0.451 -0.77,-1.805 0.36,-1.584 1.18,0.231 0.45,1.469 -0.36,1.584"></path>
		<path id="path5990" d="m 1180.04,456.46 c -0.59,-1.015 -0.91,-2.158 -1.51,-3.168 2.17,-0.51 3.82,-1.185 5.9,-2.016 -0.75,1.605 -2.66,4.536 -4.39,5.184"></path>
		<path id="path5992" d="m 1187.96,458.62 c -1.78,-0.252 -2.08,-3.15 -0.25,-3.555 2.82,-0.625 1.96,2.761 0.25,3.555"></path>
		<path id="path5994" d="m 1197.39,455.89 c -0.22,-0.144 -0.43,-0.288 -0.65,-0.432 2.13,-0.706 2.41,-3.971 3.95,-5.441 0.97,-0.929 0.45,2.709 0.31,3.076 -0.66,1.679 -2.45,1.646 -3.61,2.797"></path>
		<path id="path5996" d="m 1201.86,449.05 c -0.24,-0.1 -0.48,-0.192 -0.72,-0.288 0.3,-0.652 2.62,-3.685 3.16,-2.192 0.45,1.253 -1.81,1.832 -2.44,2.48"></path>
		<path id="Spain_Ibiza" d="m 1315.83,362.65 c -1.44,-0.261 -0.89,-1.58 0.1,-2.078 0.46,-0.235 1.05,-0.312 1.46,0.06 0.69,0.633 -1.24,1.369 -1.53,2.015"></path>
		<path id="Spain_Formentera" d="m 1315.90,364.30 c -0.23,-0.827 0,-0.972 0.72,-0.432 -0.24,0.144 -0.48,0.288 -0.72,0.432"></path>
		<path id="Spain_Majorca" d="m 1329.51,357.61 c -1.35,1.52 -1.22,0.758 -2.84,0.495 -1.72,-0.279 -0.57,-2.13 -2.54,-1.283 -1.75,0.751 -0.31,-1.36 0.19,-1.724 1.51,-1.093 3.08,-1.583 4.83,-2.167 -0.73,0.208 -1.03,1.125 -0.33,1.628 0.54,0.392 1.31,-0.15 1.82,0.25 0.69,0.548 -1.08,2.195 -1.13,2.801"></path>
		<path id="Spain_Menorca" d="m 1333.26,352.64 c 1.29,-1.224 3.45,-0.288 3.6,1.44 -0.92,0.147 -3.11,-0.604 -3.6,-1.44"></path>
	</g></svg>
