<svg xmlns="http://www.w3.org/2000/svg" viewBox="1542.9 553.2 132.5 132.5"><path fill="#2b1d24" d="M1552.1 630.3c.2-1.1 1.3-1.7 1.3-3 0-2 1.4-2.1 3.1-1.9 1.6.3 2.9.8 4-.9.8-1.1.3-3.2.1-4.4-.3-2.2-.6-4.4.2-6.5q.6-1.1 1-2.3c.5-1.2 0-2 0-3.2q.1-1.9 1.3-3.2c.9-1 2.2.1 2.2 1.2.5-.5 2.5-3.6 1.5-4.6-.6-.5.3-1.8.5-2.4.3-1-.4-2.4.6-3.3 1.5-1.4 2.2-3.3 3.1-5.2.4-.9.7-1.7 1.7-1.7.4 0 2.3.1 2.5-.3.5-1.5.4-3.4.7-5q.1-1.3.8-2.4c.7-1.4.5-2.8.8-4.4.6-2.8 1.8-1.8 4-1.8.8 0 1-1.7 2.2-1 1 .5 1.4 1.7 2 2.6q1.5-3.4 2.4-6.8.4.9 1.3 1.5c.6.3 1.3 0 1.7.8q1 2 3.2 1.4 1-.1 1.6-.7c.3-.2.5-1 .8-1.2.5-.1 1.4 1.7 1.5 2 1.5-1.8 4 .4 5.5 0 2-.6 4.2 1.6 6 2.4 2.3 1 3 4 5 5.6 1.1 1 2.6 1.7 3.3 3s1 2.3 2.2 3.2c2 1.5 2.8 2.7 1.5 5-1.5 2.7-3.6 4.2-3.1 7.5.2 1.6-.4 3.6 1.9 3.5 1.4-.1 2.7-.8 4-1.1 1.1-.3 1.5.7 2.5.3 0 1.7-2 3.2-1.1 5.2 1.1 2.4 2.2 3 3.7 5 .5.8 1.3 3.2 1.9 3.8.6.7 1 .5 1.7 1 1 .8 2.5 2.5 3.8 3 5.1 1.8 9.7 3.8 14.8 5.6 2.4 1 4.4 2 6.9 2.6 2.3.5 5.3.1 7.6.1l-21.4 25.4c-1.3 1.5-2.3 1.7-4.2 1.4-3-.4-7.3-.5-11.3 3.1-1 1-1.4 2.2-3 2.5-1.3.3-2.8.2-4.1 1-1.4.7-1.3 2-3.2 1.6-1.5-.4-3.7 1-5.1-.6-.6-.6-1-1.6-2-1.8-1 0-2.2.6-3 1-1.3.6-3.4 1.7-4.2 2.9l-2.2 3.3c-1-1-3.1-1-4.4-1-1 .1-1.6-.7-2.5-.8s-1.9.2-2.8 0c-3.7-.2-.6-.7-10.3-6.6-1.6-1-4 .2-6-.5-1-.4-2.4-2.2-2.8-3-.6-1.2.4-2.8 0-4.1s-2.8-1.9-3.6-.9c-.5-.4-1.2-1.8-1.6-2.5-.9-1.4-1.2-3.4-1.9-5q-.5-1.9-1.3-3.6-.5-.8-1.2-1c-.5-.3-.5-.8-1-1.2l-.6-.4c-.8-.2-.9-1-1.3-1.6-1-1.3-1.6-2.8-2.8-3.9q-1.5-1-3.2-1.4c-1.1-.1-2.7-.1-3.2-1.3"/></svg>
