<svg xmlns="http://www.w3.org/2000/svg" viewBox="1542.92 553.18 132.51 132.51"><path id="et" d="m 1552.13,630.342 c 0.14,-1.166 1.25,-1.783 1.26,-2.968 0,-2.028 1.43,-2.219 3.14,-1.929 1.52,0.258 2.83,0.74 3.95,-0.936 0.78,-1.157 0.27,-3.168 0.12,-4.439 -0.26,-2.121 -0.57,-4.408 0.23,-6.452 0.31,-0.8 0.72,-1.556 1.01,-2.365 0.43,-1.188 0,-1.984 -0.1,-3.16 0,-1.176 0.62,-2.359 1.38,-3.242 0.87,-1.016 2.18,0.197 2.15,1.297 0.51,-0.556 2.52,-3.638 1.52,-4.607 -0.57,-0.55 0.34,-1.851 0.51,-2.405 0.34,-1.091 -0.4,-2.47 0.57,-3.359 1.56,-1.425 2.18,-3.301 3.14,-5.221 0.41,-0.812 0.66,-1.659 1.65,-1.706 0.41,-0.02 2.36,0.192 2.54,-0.299 0.54,-1.495 0.41,-3.355 0.65,-4.921 0.13,-0.891 0.49,-1.585 0.86,-2.406 0.67,-1.471 0.5,-2.846 0.8,-4.378 0.56,-2.893 1.78,-1.833 3.97,-1.856 0.85,0 1.02,-1.732 2.21,-1.044 0.93,0.536 1.44,1.772 2.03,2.612 0.89,-2.216 1.77,-4.45 2.37,-6.768 0.34,0.528 0.73,1.197 1.3,1.512 0.62,0.343 1.33,0.07 1.71,0.821 0.74,1.482 1.65,1.657 3.2,1.376 0.57,-0.104 1.17,-0.259 1.62,-0.65 0.27,-0.234 0.51,-1.12 0.79,-1.2 0.52,-0.148 1.37,1.64 1.47,2.029 1.48,-1.852 3.97,0.299 5.48,-0.104 2.08,-0.553 4.21,1.663 5.98,2.413 2.38,1.004 3.06,4.073 5,5.617 1.16,0.928 2.68,1.671 3.4,3.038 0.66,1.25 0.97,2.298 2.14,3.193 1.96,1.505 2.81,2.661 1.51,4.943 -1.53,2.697 -3.63,4.232 -3.14,7.526 0.24,1.636 -0.4,3.629 1.94,3.469 1.37,-0.09 2.73,-0.75 4.05,-1.087 1.08,-0.273 1.49,0.672 2.5,0.339 -0.11,1.711 -2.09,3.151 -1.14,5.14 1.14,2.389 2.19,3 3.67,5.127 0.49,0.708 1.37,3.066 1.93,3.716 0.56,0.649 1.04,0.446 1.69,0.976 1.01,0.817 2.55,2.556 3.82,3.013 5.11,1.839 9.7,3.756 14.79,5.634 2.41,0.89 4.37,1.948 6.87,2.537 2.31,0.546 5.28,0.166 7.62,0.166 l -21.38,25.382 c -1.31,1.529 -2.35,1.674 -4.2,1.424 -3.05,-0.411 -7.31,-0.585 -11.28,3.068 -1.06,0.966 -1.42,2.167 -2.95,2.471 -1.41,0.281 -2.9,0.231 -4.21,0.946 -1.41,0.773 -1.31,2.096 -3.17,1.671 -1.55,-0.357 -3.73,0.924 -5.1,-0.595 -0.58,-0.646 -1.05,-1.647 -2.02,-1.761 -0.94,-0.11 -2.2,0.573 -3.01,0.945 -1.27,0.586 -3.4,1.713 -4.21,2.914 -0.88,1.3 -1.51,2.283 -2.12,3.278 -0.96,-0.928 -3.15,-1.07 -4.4,-0.955 -0.97,0.09 -1.66,-0.687 -2.52,-0.872 -0.91,-0.191 -1.92,0.228 -2.82,0.144 -3.68,-0.344 -0.58,-0.817 -10.27,-6.648 -1.66,-0.994 -4.06,0.139 -6.09,-0.578 -0.94,-0.333 -2.36,-2.178 -2.78,-3.028 -0.59,-1.185 0.42,-2.753 0,-4.054 -0.34,-1.172 -2.75,-1.883 -3.55,-0.857 -0.49,-0.474 -1.17,-1.879 -1.58,-2.505 -0.93,-1.445 -1.26,-3.386 -1.89,-4.987 -0.47,-1.202 -0.7,-2.558 -1.35,-3.685 -0.3,-0.52 -0.66,-0.705 -1.16,-0.959 -0.56,-0.28 -0.58,-0.837 -0.99,-1.207 -0.26,-0.165 -0.36,-0.31 -0.67,-0.347 -0.79,-0.221 -0.87,-1.073 -1.29,-1.646 -0.94,-1.278 -1.58,-2.838 -2.83,-3.863 -0.92,-0.75 -2.02,-1.263 -3.2,-1.406 -1.09,-0.131 -2.61,-0.14 -3.19,-1.282" fill="#2B1D24">
		
	</path></svg>
