<svg xmlns="http://www.w3.org/2000/svg" viewBox="1424.68 103.23 90.48 90.48"><g id="fi" fill="#2B1D24">
		
		<path id="Finland_mainland" d="m 1436.00,116.98 c 0.83,-0.912 1.98,0.108 2.95,-0.432 -0.25,-0.211 -0.49,-0.427 -0.72,-0.648 2.66,-1.594 5.18,0.357 7.14,2.291 1.38,1.358 4.07,2.25 6.04,1.671 1.07,-0.313 1.76,-0.466 2.63,-1.107 0.79,-0.59 2.99,0.326 3.84,0.569 1.22,0.347 1.3,1.025 2.54,0.802 1.06,-0.194 1.29,-2.021 2.74,-2.121 0.73,-0.05 1.4,-0.133 1.24,-1.032 -0.29,-1.544 0.32,-2.977 0.69,-4.456 0.88,-1.169 2.58,-2.411 4.31,-2.011 1.6,0.368 2.59,-0.242 4.04,-0.855 1.59,-0.671 2.75,0.716 4.15,1.234 1.47,0.54 2.93,0.852 4.42,1.217 4.54,1.109 -1.43,3.374 1.09,4.969 -1.15,0.628 -2.61,0.725 -3.61,1.063 0.55,0.07 2.89,0.187 1.81,1.27 -1.08,1.073 -1.46,1.867 -0.1,2.985 1.28,1.059 2.94,1.119 4.36,1.882 1.25,0.672 2.52,1.494 3.7,2.292 2.83,1.911 -4.88,4.472 -3.39,6.568 2.18,3.047 5.86,4.877 7.16,8.69 -0.77,0.04 -1.54,0.283 -2.28,0.417 0.97,0.275 0.52,1.793 0,2.494 -0.39,0.529 1.16,0.854 1.39,1.378 -1.36,0.293 -1.43,1.357 -0.52,2.176 0.89,0.8 2.35,-0.189 2.98,1.24 -2.77,1.247 1.16,2.602 2.27,3.155 2.44,1.225 -1.18,3.511 -2.32,4.086 3.39,1.559 6.59,3.373 9.62,5.507 1,0.871 0.5,1.294 0.1,2.442 -0.73,1.937 -1.98,2.763 -3.5,3.956 -3.52,3.913 -6.67,7.047 -11.94,9.981 -0.93,0.659 -1.88,1.343 -2.74,2.089 -0.42,0.298 -0.82,0.649 -1.09,1.086 -0.49,0.717 -1.53,0.164 -2.2,0.226 -0.96,0.09 -1.02,-0.77 -2.1,-0.264 -0.81,0.387 -1.58,0.705 -2.51,0.708 -0.39,0.02 -0.74,-0.07 -1.06,-0.283 -0.1,0.335 -0.3,0.555 -0.62,0.659 -0.8,0.248 -1.82,-0.167 -2.48,-0.587 0.62,0.706 0.27,0.95 -0.43,1.008 0.1,0.242 0.18,0.481 0.29,0.72 -0.75,0.191 -1.6,-0.117 -1.58,-1.008 -0.72,1.2 -2.78,1.205 -3.99,1.453 -0.68,0.139 -1.28,0.406 -1.93,0.62 -0.49,0.159 -0.54,0.764 -1.04,0.9 -0.92,0.249 -1.19,-0.57 -2.16,-0.32 -1.47,0.379 -3.1,1.164 -4.64,0.876 0.3,-0.174 0.59,-0.366 0.87,-0.576 -1.2,0.449 -2.06,1.396 -3.39,1.512 0.46,-0.266 1.06,-0.54 1.34,-1.037 0.61,-1.103 -1.23,-0.1 0.47,-0.835 -0.68,0.1 -1.21,-0.206 -1.73,-0.582 -0.9,-0.644 0,-1.259 0.64,-1.866 -0.61,0.189 -4.79,1.564 -3.39,-0.216 -1.33,-0.28 -2.7,-0.267 -3.86,-1.075 -0.48,-0.341 -1.88,-1.402 -1.61,0 -0.41,-0.32 -1.53,-0.696 -1.38,-1.106 0.29,-0.741 -0.61,-2.621 -1,-3.285 2.45,0.03 -0.47,-4.88 1.95,-3.6 -1.05,-0.713 -2.35,-2.585 -2.7,-3.802 -0.29,-0.987 0.44,-1.635 -0.21,-2.708 -0.48,-0.786 -0.98,-1.887 -1.49,-1.986 0.56,-0.678 1.89,-3.729 3.1,-3.168 -0.56,-0.438 -1.05,-1.221 -0.65,-1.944 1.08,1.224 3.66,0.464 4.83,-0.216 -0.32,-0.266 -1.54,-1.967 0,-0.864 -0.23,-0.242 -0.47,-0.481 -0.72,-0.72 0.89,0.943 1.44,-1.663 3.17,-0.864 -0.34,-1.498 2.03,-1.969 3.02,-2.232 -0.1,-0.265 -0.14,-0.529 -0.22,-0.792 0.97,-0.04 1.43,-0.567 1.99,-1.271 0.9,-1.139 2.29,-1.588 3.27,-2.617 0.64,-0.669 0.92,-1.56 1.68,-2.209 1.16,-0.995 2.54,-0.28 3.79,-0.02 -0.18,-0.231 -0.34,-0.472 -0.5,-0.721 0.39,-0.133 0.73,-0.35 1.01,-0.648 -0.39,-0.471 -1.54,-0.822 -1.41,-1.297 0.22,-0.773 0.63,-1.72 -0.1,-2.329 -1.09,-0.94 -4.25,-0.746 -4.49,-2.35 -1.06,0.664 -2.04,0.07 -2.73,-0.806 -0.81,-1.046 -1.6,-1.613 -2.52,-2.521 -1.5,-1.459 2.14,-3.651 0,-5.478 -0.39,-0.329 -1.72,-1.283 -1.45,-1.841 0.18,-0.368 1.29,-1.356 0.5,-1.661 -1.09,-0.415 -1.51,0.02 -1.61,-1.484 0,-0.466 0,-0.952 -0.1,-1.413 -0.1,-0.462 0.86,-0.387 0.82,-0.637 -0.15,-0.92 -2.13,-1.384 -2.77,-1.759 -0.63,-0.363 -0.69,-1.105 -1.48,-1.415 -0.8,-0.311 -1.67,-0.329 -2.5,-0.497 -1.47,-0.297 -3.05,-1.021 -4.44,-1.576 -2.12,-0.849 -4.3,-2.773 -6.59,-3.037"></path>
		<path id="Finland_Eckero" d="m 1435.49,183.58 c -0.57,0.634 -0.57,0.765 0.29,0.936 0,-0.339 -0.11,-0.651 -0.29,-0.936"></path>
		<path id="Finland_Fasta_Aland" d="m 1437.22,185.09 c 0.97,0.159 1.03,-0.773 0.58,-1.368 0.47,-0.13 1.02,0.845 1.53,0.6 1.03,-0.497 -2.09,-1.558 -2.61,-1.463 0.52,0.428 0.54,1.035 0.1,1.512 0,-0.591 -0.4,-0.958 -1.01,-0.721 0.24,0.66 0.47,1.718 1.44,1.44"></path>
		<path id="Finland_Lemland" d="m 1437.94,185.45 c 2.67,1.023 0.91,-0.811 0,0"></path>
		<path id="path4636" d="m 1439.96,185.96 c 0.26,0.127 0.53,0.127 0.79,0 -0.27,0 -0.53,0 -0.79,0"></path>
		<path id="path4638" d="m 1443.63,161.19 c 1.48,-0.173 0.41,-1.593 -0.72,-0.647 0.21,0.242 0.45,0.458 0.72,0.647"></path>
		<path id="path4642" d="m 1446.01,181.71 c 0.26,-0.02 0.53,-0.05 0.79,-0.07 -0.55,-0.491 -0.81,-0.467 -0.79,0.07"></path>
		<path id="path4644" d="m 1448.38,159.53 c -0.26,0.1 -0.53,0.191 -0.79,0.287 0.31,0.03 0.57,-0.07 0.79,-0.287"></path>
		<path id="path4646" d="m 1449.32,159.82 c -0.24,0.02 -0.48,0.05 -0.72,0.07 0.71,0.666 0.95,0.642 0.72,-0.07"></path>
		<path id="path4648" d="m 1449.90,182.79 c -0.25,-0.246 -0.51,-0.462 -0.8,-0.648 -0.59,0.976 0.59,1.287 1.3,1.08 -0.15,-0.05 -0.52,-0.443 -0.5,-0.432"></path>
		<path id="path4650" d="m 1449.68,184.59 c -0.2,-0.113 -0.41,-0.256 -0.65,-0.288 0.22,0.1 0.43,0.192 0.65,0.288"></path>
		<path id="path4652" d="m 1449.97,184.52 c 0.48,0.21 0.72,0.114 0.72,-0.288 -0.24,0.1 -0.48,0.192 -0.72,0.288"></path>
		<path id="path4660" d="m 1452.92,156.01 c -0.26,0.02 -0.53,0.05 -0.79,0.07 0.24,0.188 0.5,0.332 0.79,0.433 0.1,-0.315 0.34,-0.636 0,-0.504"></path>
		<path id="path4662" d="m 1452.27,183.44 c 0.24,0.02 0.48,0.05 0.72,0.07 -0.33,-0.597 -0.34,-0.343 -0.72,-0.07"></path>
		<path id="Finland_Kimitoon" d="m 1452.70,185.96 c 0.57,-0.06 1.15,0 1.73,-0.04 1.12,-0.07 0.72,-1.711 1.58,-2.193 -0.83,0.518 -2.13,0.79 -3.09,0.576 1.66,0.631 -0.59,0.378 -0.22,1.657"></path>
		<path id="path4666" d="m 1455.22,185.96 c 0.39,0.669 1.68,1.212 1.73,0 -0.58,0.157 -1.16,0.157 -1.73,0"></path>
		<path id="path4670" d="m 1461.70,147.15 c 1.39,0.713 1.31,-0.591 2.31,-0.216 -0.44,-0.661 -2.06,-0.626 -2.31,0.216"></path>
		<path id="path4688" d="m 1451.55,183.87 c -0.26,-0.186 -0.54,-0.258 -0.86,-0.217 0.46,-0.206 1.17,-0.351 1.58,0.07 -0.24,0.05 -0.48,0.1 -0.72,0.145"></path>
		<path id="path4690" d="m 1452.41,183.08 c 0.1,-0.159 0.2,-0.23 0.37,-0.215 -0.13,0.07 -0.25,0.144 -0.37,0.215"></path>
	</g></svg>
