<svg xmlns="http://www.w3.org/2000/svg" viewBox="1424.7 103.2 90.5 90.5"><g fill="#2b1d24"><path d="M1436 117c.8-1 2 0 3-.5l-.8-.6c2.7-1.6 5.2.4 7.2 2.3 1.4 1.3 4 2.2 6 1.7 1-.4 1.8-.5 2.6-1.1s3 .3 3.9.5c1.2.4 1.3 1 2.5.8 1-.2 1.3-2 2.8-2 .7-.1 1.4-.2 1.2-1.1-.3-1.6.3-3 .7-4.5.9-1.2 2.6-2.4 4.3-2s2.6-.2 4-.8c1.6-.7 2.8.7 4.2 1.2l4.4 1.2c4.6 1.1-1.4 3.4 1.1 5-1.1.6-2.6.7-3.6 1 .5.1 2.9.2 1.8 1.3-1 1-1.5 1.9-.1 3 1.3 1 3 1.1 4.4 1.9q1.8 1 3.7 2.3c2.8 1.9-5 4.4-3.4 6.5 2.2 3 5.8 5 7.1 8.7l-2.2.4c1 .3.5 1.8 0 2.5s1.1.9 1.3 1.4c-1.3.3-1.4 1.4-.5 2.2 1 .8 2.4-.2 3 1.2-2.8 1.3 1.2 2.6 2.3 3.2 2.4 1.2-1.2 3.5-2.3 4q5 2.3 9.6 5.6c1 .8.5 1.3 0 2.4-.7 2-2 2.8-3.4 4-3.5 3.9-6.7 7-12 10l-3.8 3.1c-.5.7-1.5.2-2.2.3-1 0-1-.8-2.1-.3q-1.2.6-2.5.7-.6 0-1-.3a1 1 0 0 1-.7.7q-1.3.2-2.5-.6.9 1-.4 1l.3.7c-.8.2-1.6-.1-1.6-1-.7 1.2-2.8 1.2-4 1.5l-2 .6c-.4.1-.4.7-1 .9-.9.2-1.1-.6-2.1-.3-1.5.3-3.1 1.1-4.6.8l.8-.5c-1.2.4-2 1.4-3.4 1.5l1.4-1c.6-1.2-1.3-.2.4-.9q-1 0-1.7-.6c-.9-.6 0-1.2.6-1.8-.6.1-4.7 1.5-3.3-.3-1.4-.2-2.7-.2-3.9-1-.5-.4-1.9-1.4-1.6 0-.4-.4-1.5-.7-1.4-1.1.3-.8-.6-2.7-1-3.3 2.5 0-.5-5 2-3.6-1-.7-2.4-2.6-2.7-3.8-.3-1 .4-1.7-.2-2.7-.5-.8-1-2-1.5-2 .5-.7 1.9-3.8 3-3.2-.5-.4-1-1.2-.6-2 1 1.3 3.7.5 4.8-.2-.3-.2-1.5-2 0-.8l-.7-.7c1 1 1.5-1.7 3.2-.9-.4-1.5 2-2 3-2.2l-.2-.8q1.3-.1 2-1.3c.9-1.1 2.3-1.6 3.2-2.6.7-.7 1-1.6 1.7-2.2 1.2-1 2.6-.3 3.8 0l-.5-.8q.6-.2 1-.6c-.4-.5-1.5-.8-1.4-1.3.2-.8.6-1.7 0-2.3-1.2-1-4.3-.8-4.6-2.4-1 .7-2 0-2.7-.8l-2.5-2.5c-1.5-1.5 2.1-3.7 0-5.5-.4-.3-1.7-1.3-1.5-1.8s1.3-1.4.5-1.7c-1-.4-1.5 0-1.6-1.5V126c-.2-.5.8-.4.7-.6-.1-1-2-1.4-2.7-1.8s-.7-1-1.5-1.4l-2.5-.5q-2.2-.6-4.5-1.6c-2-.8-4.3-2.7-6.5-3m-.5 66.5q-1 .7.3 1 0-.6-.3-1m1.7 1.4c1 .2 1-.7.6-1.3.5-.1 1 .9 1.5.6 1-.5-2-1.5-2.6-1.4q.8.7.1 1.5 0-1-1-.7c.2.6.5 1.7 1.4 1.4m.8.4c2.6 1 .9-.9 0 0m2 .5h.8z"/><path d="M1443.6 161.2c1.5-.2.4-1.6-.7-.7zm2.4 20.5h.8q-.8-.8-.8 0m2.4-22.2-.8.3q.5 0 .8-.3m.9.3h-.7q1.1 1.1.7 0m.6 23-.8-.7c-.6 1 .6 1.3 1.3 1.1zm-.2 1.8-.7-.3zm.3-.1q.7.3.7-.3zm3-28.5h-.9l.8.5c.1-.3.4-.6 0-.5m-.6 27.4.7.1c-.3-.6-.3-.3-.7 0m.4 2.5h1.7c1.1-.1.7-1.8 1.6-2.3-.8.5-2.1.8-3 .6 1.6.6-.7.4-.3 1.7m2.5 0c.4.6 1.7 1.2 1.7 0zm6.5-38.8c1.4.7 1.3-.6 2.3-.3-.4-.6-2-.6-2.3.2m-10.1 36.8q-.4-.3-1-.2 1-.5 1.7 0zm.8-.9.4-.1z"/></g></svg>
