<svg xmlns="http://www.w3.org/2000/svg" viewBox="1270.03 243.9 111.64 111.64"><g id="fr" fill="#2B1D24">
		
		<g id="frx">
			<path id="France_mainland" d="m 1277.96,284.094 c 0.89,-0.422 1.96,-0.686 2.95,-0.504 0.34,-1.514 -1.67,-0.473 -2.09,-1.512 0.92,-0.307 2,-0.194 2.96,-0.145 -0.75,-0.129 -1.77,0.138 -1.23,-0.792 -0.58,-0.03 -2.55,1.079 -2.79,0.108 -0.32,-1.325 1.7,-2.125 2.66,-2.315 1.29,-0.256 2.51,-0.36 3.82,-0.324 1.85,0.05 3.04,-1.75 5.1,-1.501 -0.24,0.665 2.23,2.987 2.92,2.708 0.47,-0.226 0.91,-0.484 1.34,-0.772 0.94,-0.521 0.88,0.152 1.66,0.302 0.77,0.148 1.37,-0.462 1.42,0.787 0.5,-0.347 -0.24,-0.762 0.17,-1.327 0.43,-0.577 0.65,0.299 1.02,0.397 0.88,0.232 2.02,0 2.91,-0.15 -1.89,-0.553 -1.2,-3.219 -1.04,-4.608 0.1,-0.676 -0.95,-1.354 -1.3,-1.826 -0.6,-0.813 0,-2.049 -0.9,-2.711 0.65,0.114 1.25,0.434 1.9,0.569 0.71,0.148 1.58,-0.549 2.21,-0.235 0.97,0.488 -0.24,1.954 1.1,2.724 0.39,0.222 1.09,-0.173 1.49,-0.177 1.17,-0.01 2.29,0.385 3.43,0.601 1.11,0.211 2.08,0.179 3.07,-0.39 0.9,-0.515 2.11,-0.496 2.93,-1.075 -0.65,0.256 -1.75,0.386 -2.38,0.03 -1.27,-0.731 1.67,-2.529 2.15,-2.748 1.55,-0.694 3.31,-0.611 4.88,-1.241 0.91,-0.365 2.13,-2.453 3.26,-1.869 -0.99,-0.639 -0.38,-5.064 0.44,-5.893 0.81,-0.814 4.94,-2.286 6.01,-1.391 0.54,0.456 -0.52,2.21 1.06,2.601 1.63,0.403 1.25,0.04 2.41,0.383 1.08,0.325 0.74,1.156 1.57,1.56 1.09,0.527 2.19,-0.1 2.05,1.586 0.65,-0.419 1.78,-0.322 2.46,-0.08 1.3,0.444 0.75,2.039 0.49,2.965 0.87,0.145 1.85,0.414 2.71,0.07 0.85,-0.341 1.05,-1.314 1.9,-1.654 0.1,0.536 -0.15,2.933 0.58,2.959 1.07,0.04 3.23,1.451 3.56,2.478 -0.1,-0.296 4.07,0.378 4.28,0.396 1.02,0.09 1.77,-0.122 2.58,0.715 0.63,0.66 1.07,1.697 2.03,1.948 0.21,-0.1 0.37,-0.244 0.5,-0.438 0.31,-0.321 0.46,0.105 0.79,0.15 0.19,0.07 0.24,0.196 0.15,0.377 -0.1,0.392 0.86,0.178 1.01,0.191 1.03,0.09 1.61,-0.538 2.56,0.183 1.01,0.768 3.09,0.91 4.35,1.121 -1.54,1.365 -2.97,2.863 -3.47,4.891 -0.24,0.986 -0.83,1.892 -0.99,2.886 -0.1,0.65 0.12,0.914 -0.14,1.749 -0.31,1.009 0.46,1.85 -0.22,2.476 -0.58,0.528 -1.02,1.037 -1.88,0.96 -0.72,-0.06 -0.78,-1.131 -1.65,-0.648 -0.62,0.349 -0.68,1.463 0.36,1.296 -0.78,0.826 -1.48,1.807 -2.38,2.52 -0.55,0.358 -1.09,0.734 -1.61,1.128 -0.43,0.39 -0.39,1.154 -0.76,1.608 -0.62,0.774 -1.83,1.138 -2.02,2.232 0.14,0.373 0.24,0.757 0.29,1.151 -0.15,0.709 -0.81,0.962 -1.08,1.584 1.19,-0.149 1.63,-0.555 1.94,-1.691 0.31,-1.118 2.37,-1.032 3.21,-0.797 1,0.283 0.32,1.927 1.04,2.728 1.27,1.392 0.49,1.914 -0.65,2.857 0.61,0.857 2.88,2.445 2.26,3.701 -0.43,0.843 -3.57,2 -3.56,2.144 0,0.994 1.97,1.841 2.63,2.408 0.96,0.82 -1.33,2.281 -1,3.365 0.4,1.316 2.92,2.808 4.25,2.275 1.67,-0.669 1.42,0.304 0.79,1.417 -1.52,2.681 -4.43,4.033 -7.03,5.786 0.17,0.244 0.34,0.484 0.51,0.72 -0.97,0.139 -1.78,0.637 -2.69,0.955 -0.97,0.343 -1.6,-0.197 -2.52,-0.124 -1.4,0.11 -2.26,-1.056 -3.93,-0.903 0.67,-1.731 -2.2,-0.404 -2.23,-1.41 0.18,-0.312 0.47,-0.394 0.86,-0.246 0,-0.567 -0.37,-0.887 -0.94,-0.864 0.48,0.734 0.1,0.842 -0.59,0.875 -1.09,0.05 -1.2,-0.01 -1.5,-1.307 0.39,2.583 -0.27,0.936 -1.94,0.936 -0.97,0 -1.76,-0.61 -2.7,-0.656 -1.15,-0.06 -2.42,1.249 -3.45,1.719 -0.8,0.367 -3.62,1.411 -3.44,2.5 0,0.357 -0.13,0.689 -0.32,0.996 -0.45,0.4 -0.41,0.756 0.11,1.068 0.4,1.252 0.14,1.879 0.87,3.086 -0.69,0.197 -1.29,-0.149 -1.97,-0.108 -0.7,0.04 -1.06,0.605 -1.69,0.777 -1.52,0.415 -2.45,-1.16 -3.91,-0.1 -0.1,0.07 -2.12,-0.872 -2.34,-1.035 -0.57,-0.423 0.73,-0.369 -0.18,-0.978 -0.53,-0.353 -1.48,-0.508 -1.93,0.07 -0.21,-1.289 -1.64,-0.75 -2.41,-1.362 -1.07,-0.845 -3.26,-1.387 -2.92,0.643 -1.2,-0.173 -2.55,-0.475 -3.76,-0.253 -0.67,0.123 -1.12,0.313 -1.69,-0.203 -1.02,-0.914 -0.94,-0.538 -1.97,-0.552 -1.03,-0.01 -5.97,-3.26 -6.48,-1.944 -0.94,-0.386 -0.27,-1.066 -0.21,-1.721 0.1,-0.779 -2.2,-0.424 -2.67,-1.015 2.86,-1.059 3.1,-5.023 3.62,-7.601 0.21,-1.012 0.39,-2.607 1.23,-3.329 1.23,-1.052 -0.42,-1.2 -0.53,-0.01 -0.17,-2.436 0.32,-5.421 1.37,-7.632 1.01,0.569 2.02,1.244 2.45,2.376 0.1,0.504 0.19,1.008 0.29,1.512 0.23,0.641 0.87,0.729 0.86,1.512 0.29,-1.007 -0.73,-1.782 -0.83,-2.736 -0.14,-1.466 -0.66,-2.459 -1.96,-3.172 -0.54,-0.298 -1.15,-0.705 -1.6,-1.142 -0.74,-0.712 1.19,-0.357 1.58,0 -0.91,-0.441 -0.96,-4.294 -0.43,-5.04 -1.19,0.835 -4,-0.808 -4.55,-1.915 -0.49,-0.979 -1.6,-1.488 -1.82,-2.631 -0.2,-1.043 1.71,-2.185 -0.69,-2.293 0.28,-0.333 0.34,-0.938 0.7,-1.192 0.92,-0.638 1.76,0.435 2.62,0.544 -1.53,-1.009 -2.13,-0.674 -3.73,-0.466 -0.8,0.105 -2.36,-1.08 -0.88,-1.262 -0.41,-0.407 -0.24,-0.671 0.5,-0.792 -1.13,-0.282 -2.75,0.642 -3.67,-0.36 0.51,0 0.99,-0.127 1.44,-0.36 -0.9,-0.604 -2.57,-0.359 -2.81,0.864 0,-0.8 -0.92,-1.548 -0.1,-2.231 -0.35,0.876 -1.92,0.819 -0.94,-0.288 -1.99,1.73 -4.67,-2.209 -6.69,-0.07 -0.81,-1.117 -1.48,-1.803 -2.87,-2.092"></path>
			<path id="path2166" d="m 1288.54,290.43 c -0.32,-0.336 -0.68,-0.625 -1.08,-0.864 0.1,0.566 0.47,0.961 1.08,0.864"></path>
			<path id="path2168" d="m 1294.74,293.67 c -0.2,-0.459 -0.2,-0.628 -0.8,-0.504 0.26,0.168 0.53,0.336 0.8,0.504"></path>
			<path id="path2172" d="m 1300.21,300.006 c -0.27,-0.572 -1.04,-0.448 -1.51,-0.36 0.52,0.02 1.03,0.138 1.51,0.36"></path>
			<path id="path2174" d="m 1300.49,302.958 c 0.49,-0.705 -0.1,-1.911 -1,-1.44 0.45,0.398 0.78,0.878 1,1.44"></path>
			<path id="France_Corsica" d="m 1367.17,332.118 c 0.41,-0.415 0.49,-1.257 1.04,-1.534 1.1,-0.55 2.35,-0.692 3.39,-1.385 0.93,-0.619 0.27,-2.364 1.54,-2.266 0.15,2.196 1.2,5.361 0.68,7.488 -0.55,2.244 -1.65,4.389 -2.62,6.479 -0.38,-0.593 -3.91,-1.882 -2.02,-2.664 -0.51,-0.119 -0.99,-0.311 -1.44,-0.575 0.49,-0.312 0.84,-0.833 0.79,-1.44 -1.01,0.237 -1.15,-0.887 -0.57,-1.439 -0.86,-0.216 -1.4,-1.342 -0.22,-1.584 -0.25,-0.332 -0.44,-0.691 -0.57,-1.08"></path>
		</g>
		<path id="gf" d="m 883.326,678.438 c 1.288,-0.06 2.316,-2.268 2.755,-3.237 0.818,-1.809 0.01,-3.822 1.246,-5.47 1.463,-1.953 0.119,-3.393 -1.127,-4.948 -1.292,-1.613 -1.24,-4.493 -1.364,-6.461 -0.144,-2.293 0.19,-3.596 1.863,-5.193 0.623,-0.595 1.399,-1.252 1.599,-2.131 0.259,-1.139 0.553,-2.562 2.168,-1.952 1.048,0.396 1.767,1.244 2.881,1.549 1.203,0.331 2.664,0.312 3.682,1.126 1.194,0.957 2.781,4.602 4.656,4.469 -0.315,0.462 -0.531,0.966 -0.649,1.513 0.532,-2.396 4.637,1.715 2.3,3.312 1.132,-0.417 0.474,-1.475 1.038,-2.229 0.856,-1.146 1.521,1.525 1.587,2.094 0.312,2.698 -1.758,5.554 -3.161,7.702 -1.612,2.468 -2.733,4.557 -3.784,7.338 -0.39,1.032 -0.893,1.905 -1.76,2.607 -0.36,0.292 -1.005,0.964 -1.479,1.089 -0.781,0.207 -1.396,-0.418 -2.231,-0.02 0.344,-0.981 -0.271,-0.985 -1.008,-0.757 -1.03,0.319 -1.91,-0.1 -2.889,-0.431 -0.494,-0.167 -2.415,1.225 -2.722,1.59 -0.57,0.677 -3.224,-1.159 -3.601,-1.556">
			
		</path>
		<g id="gp">
			
			<g id="gp-">
				<path id="path2582" d="m 836.526,557.838 c -0.346,0.584 -0.882,4.254 -1.787,1.758 -0.509,-1.405 0.288,-2.788 1.787,-1.758"></path>
				<path id="path2584" d="m 836.526,557.694 c 0.63,-0.573 -0.01,-1.692 1.01,-1.872 0.136,0.916 0.898,1.574 1.649,2.017 -0.707,0.244 -2.277,0.965 -2.659,-0.145"></path>
				<path id="path2586" d="m 838.395,561.222 c -0.608,-0.627 -0.488,-0.938 0.36,-0.936 0.121,0.41 0,0.722 -0.36,0.936"></path>
			</g>
			
		</g>
		<g id="mq">
			
			<path id="mq-" d="m 840.336,573.966 c -0.583,-0.893 -1.3,-0.133 -1.584,-0.979 -0.275,-0.819 -0.646,-1.706 -0.657,-2.583 -0.01,-1.149 1.181,-0.144 1.494,0.25 0.61,0.767 1.462,2.361 0.747,3.312"></path>
			
		</g>
		<g id="re">
			
			<path id="re-" d="m 1719.46,880.259 c -0.11,-1.988 -3.99,-0.81 -3.55,1.09 0.67,2.866 6.03,3.098 3.55,-1.09"></path>
			
		</g>
		<g id="yt">
			
			<path id="yt-" d="m 1643.43,810.989 c 0.47,-0.643 1.08,-2.018 0,-2.45 -0.28,0.563 -0.41,1.917 0,2.45"></path>
			
		</g>
	</g></svg>
