<svg xmlns="http://www.w3.org/2000/svg" viewBox="1270 243.9 111.6 111.6"><g fill="#2b1d24"><path d="M1278 284a5 5 0 0 1 3-.4c.3-1.5-1.8-.5-2.2-1.5q1.5-.3 3-.2c-.8-.1-1.8.2-1.2-.8-.6 0-2.6 1.1-2.8.1-.4-1.3 1.7-2 2.6-2.3q1.9-.3 3.8-.3c1.9 0 3-1.7 5.1-1.5-.2.7 2.3 3 3 2.7l1.3-.8c1-.5.9.2 1.7.3.7.2 1.3-.4 1.4.8.5-.3-.3-.7.2-1.3s.6.3 1 .4q1.5.2 2.9-.1c-2-.6-1.2-3.3-1-4.7 0-.6-1-1.3-1.4-1.8-.6-.8 0-2-.9-2.7l2 .6c.7.1 1.5-.6 2.2-.3 1 .5-.3 2 1 2.8.4.2 1.1-.2 1.5-.2q1.8.1 3.5.6 1.5.4 3-.4c1-.5 2.2-.5 3-1-.7.2-1.8.3-2.4 0-1.3-.8 1.7-2.6 2.1-2.8 1.6-.7 3.4-.6 5-1.2.8-.4 2-2.5 3.2-1.9-1-.6-.4-5 .4-5.9.8-.8 5-2.3 6-1.4.6.5-.5 2.2 1 2.6 1.7.4 1.3 0 2.5.4 1 .3.7 1.2 1.6 1.6s2.2-.1 2 1.5c.7-.4 1.8-.3 2.5 0 1.3.4.7 2 .5 3 .8 0 1.8.3 2.7 0 .8-.3 1-1.3 1.9-1.7 0 .6-.2 3 .6 3 1 0 3.2 1.5 3.5 2.5 0-.3 4 .4 4.3.4 1 0 1.8-.1 2.6.7.6.7 1 1.7 2 2l.5-.5c.3-.3.5.1.8.2q.3 0 .2.3c-.1.4.8.2 1 .2 1 .1 1.6-.5 2.5.2 1 .8 3.1 1 4.4 1.1a10 10 0 0 0-3.5 5l-1 2.8c0 .7.1 1-.1 1.8-.3 1 .4 1.8-.2 2.4s-1 1-2 1c-.6 0-.7-1.1-1.6-.7-.6.4-.7 1.5.4 1.3q-1.1 1.4-2.4 2.6l-1.6 1-.8 1.7c-.6.8-1.8 1.1-2 2.2l.3 1.2c-.1.7-.8 1-1 1.6q1.5-.2 1.9-1.7c.3-1.2 2.3-1 3.2-.8 1 .3.3 1.9 1 2.7 1.3 1.4.5 2-.6 2.9.6.8 2.8 2.4 2.2 3.7-.4.8-3.6 2-3.5 2.1 0 1 2 1.8 2.6 2.4 1 .8-1.3 2.3-1 3.4.4 1.3 3 2.8 4.2 2.2 1.7-.6 1.5.4.8 1.5-1.5 2.6-4.4 4-7 5.8l.5.7q-1.4.3-2.7 1c-1 .3-1.6-.3-2.5-.2-1.4.1-2.3-1-4-.9.7-1.7-2.1-.4-2.2-1.4q.3-.4.9-.3 0-.8-1-.8.6.9-.5.9c-1.1 0-1.2 0-1.5-1.4.4 2.6-.3 1-2 1-1 0-1.7-.6-2.7-.7s-2.4 1.3-3.4 1.7c-.8.4-3.6 1.5-3.5 2.5q0 .6-.3 1-.6.6.1 1.1c.4 1.3.2 1.9.9 3.1-.7.2-1.3-.2-2-.1-.7 0-1 .6-1.7.8-1.5.4-2.4-1.2-3.9-.1 0 0-2-1-2.3-1-.6-.5.7-.4-.2-1-.5-.4-1.5-.6-2 0-.1-1.3-1.6-.7-2.3-1.3-1.1-.9-3.3-1.4-3 .6q-1.8-.4-3.7-.3-1 .5-1.7-.2c-1-.9-1-.5-2-.5s-6-3.3-6.5-2c-.9-.3-.2-1-.2-1.7.1-.7-2.2-.4-2.6-1 2.8-1 3-5 3.6-7.6.2-1 .4-2.6 1.2-3.3 1.2-1-.4-1.2-.5 0-.2-2.5.3-5.4 1.4-7.7q1.7.8 2.4 2.4l.3 1.5c.2.7.9.8.9 1.5.2-1-.8-1.7-.9-2.7q0-2.2-2-3.2l-1.5-1.1c-.8-.7 1.2-.4 1.5 0-.9-.4-1-4.3-.4-5-1.2.8-4-.9-4.5-2-.5-1-1.6-1.5-1.9-2.6-.2-1 1.8-2.2-.6-2.3.2-.3.3-1 .7-1.2.9-.6 1.7.5 2.6.6-1.6-1-2.2-.7-3.8-.5-.8.1-2.3-1-.8-1.3q-.7-.6.5-.8c-1.2-.2-2.8.7-3.7-.3q.8 0 1.4-.4c-.9-.6-2.5-.3-2.8.9 0-.8-.9-1.6 0-2.2-.4.8-2 .8-1-.3-2 1.7-4.7-2.2-6.7-.1-.8-1.1-1.5-1.8-2.9-2"/><path d="m1288.5 290.4-1-.8q0 1 1 .8m6.2 3.3q-.1-.8-.8-.5zm5.5 6.3c-.3-.6-1-.4-1.5-.4q.8 0 1.5.4m.3 3c.5-.7-.1-2-1-1.5q.7.6 1 1.5m66.7 29.1c.4-.4.5-1.2 1-1.5 1.1-.6 2.4-.7 3.4-1.4s.3-2.4 1.5-2.3c.2 2.2 1.2 5.4.7 7.5q-1 3.4-2.6 6.5c-.4-.6-4-1.9-2-2.7q-.7-.1-1.5-.5.9-.6.8-1.5c-1 .3-1.1-.9-.5-1.4-.9-.2-1.4-1.4-.3-1.6zM883.3 678.4c1.3 0 2.3-2.2 2.8-3.2.8-1.8 0-3.8 1.2-5.5 1.5-2 .1-3.4-1.1-5-1.3-1.5-1.2-4.4-1.4-6.4-.1-2.3.2-3.6 1.9-5.2q1.1-.8 1.6-2.1c.3-1.1.6-2.6 2.2-2 1 .4 1.7 1.3 2.8 1.6 1.3.3 2.7.3 3.7 1.1 1.2 1 2.8 4.6 4.7 4.5l-.7 1.5c.6-2.4 4.7 1.7 2.3 3.3 1.2-.4.5-1.5 1-2.2 1-1.2 1.6 1.5 1.7 2 .3 2.8-1.8 5.6-3.2 7.8a36 36 0 0 0-3.8 7.3q-.5 1.6-1.7 2.6c-.4.3-1 1-1.5 1.1-.8.2-1.4-.4-2.3 0 .4-1-.2-1-1-.8q-1.4.4-2.9-.4c-.4-.2-2.4 1.2-2.7 1.6-.5.7-3.2-1.2-3.6-1.6m-46.8-120.6c-.3.6-.9 4.3-1.8 1.8-.5-1.4.3-2.8 1.8-1.8m0-.1c.7-.6 0-1.7 1-1.9q.5 1.4 1.7 2c-.7.3-2.3 1-2.7-.1m1.9 3.5q-1-1 .4-1 .1.7-.4 1m1.9 12.8c-.5-1-1.3-.2-1.5-1q-.6-1.2-.7-2.6c0-1.1 1.2-.1 1.5.3.6.7 1.5 2.3.7 3.3m879.2 306.3c-.1-2-4-.9-3.6 1 .7 3 6 3.1 3.6-1m-76.1-69.3c.5-.7 1.1-2 0-2.5-.3.6-.4 2 0 2.5"/></g></svg>
