<svg xmlns="http://www.w3.org/2000/svg" viewBox="1357.99 673.96 62.96 62.96"><g id="ga" fill="#2B1D24">
		
		<path id="path5980" d="m 1369.04,704.65 c 0.1,0.19 0.19,0.38 0.29,0.57 0.28,-0.486 0.2,-0.916 -0.22,-1.29 0,0.24 0,0.48 -0.1,0.72"></path>
		<path id="Gabon_mainland" d="m 1368.03,706.23 c -0.47,-0.634 -0.83,-1.454 -0.43,-2.229 0,0.586 0.24,1.089 0.65,1.51 0.16,-1.633 1.13,-0.284 1.08,0.65 0.16,-1.995 2.19,-3.13 2.41,-5.08 0.15,-1.348 -0.71,-3.969 0.47,-5 0.1,0.657 0.54,1.13 0.86,1.66 0.22,-1.082 1.81,-0.481 2.3,0.43 -0.13,-0.921 0.86,-1.26 1.59,-1.23 -1.82,0 -3.23,-0.378 -4.27,-1.989 -0.41,-0.642 -1.75,-1.458 -0.27,-1.754 0.63,-0.126 1.48,0.194 1.51,0.944 0.53,-1.195 -0.37,-2.785 0,-4.06 0.19,-0.699 1.04,-0.629 1.56,-0.347 0.93,0.507 1.59,-0.114 2.61,-0.114 l 8.97,0.144 0,-9.892 c 0.4,-2.303 1.35,-1.414 3.07,-1.338 1.46,0.07 3.26,0.266 4.8,0.181 1.47,-0.08 2.97,0.413 3.96,0.362 2.33,-0.12 4.19,-1.347 2.6,2.365 -0.98,2.311 0.62,4.505 -0.17,6.574 1.72,-0.295 3.28,-1.213 4.98,-1.584 3.2,-0.693 2.81,1.201 3.77,2.804 0.9,1.511 1.68,3.717 -1.37,4.423 -1.67,0.388 -1.76,3.24 -1.6,4.564 0.1,0.629 -1.26,2.358 0.23,2.437 0.73,0.04 1.45,0.597 1.37,1.128 -0.12,0.758 1.61,0.62 2.24,1.254 1.4,1.395 -0.3,3.167 0,4.675 0.16,0.959 1.29,3.819 -0.42,4.704 1.09,0.726 0.33,2.614 -0.68,3.024 -0.28,0.114 -0.68,2.511 -0.6,2.607 0.63,0.735 -1.08,2.526 -1.91,2.441 -0.87,-0.09 -1.17,-3.107 -1.56,-3.823 -0.27,0.929 -1.36,2.844 -2.43,2.973 -1.08,0.13 -2.34,-1.202 -3.4,-0.593 0.73,-2.828 -4.69,-7.296 -3.92,-2.581 0.45,2.759 -0.63,2.795 -3.21,3.038 -0.82,0.08 -0.59,-0.613 -1.4,-0.554 -1.06,0.08 -1.29,-0.02 -2.35,-0.264 0.39,1.426 0.66,2.964 -0.28,4.25 1.04,-0.37 1.75,0.214 1.7,1.254 0,0.897 -0.22,1.657 -0.1,2.12 0.44,0.431 0.98,0.432 1.26,0.852 0.62,0.944 -0.1,1.075 0,1.884 0.1,0.659 0.49,1.572 -0.69,1.636 -1.24,0.07 -1.27,-0.994 -2.17,-1.541 -0.9,-0.549 -2.86,2.809 -3.08,3.436 -1.66,-1.301 -3.1,-4.01 -4.25,-5.76 -1.68,-2.572 -4.23,-4.632 -6.41,-6.761 1.21,-0.75 1.61,2.026 2.74,0.64 -0.81,0.08 -1.97,-0.927 -2.85,-1.144 -1.41,-0.349 -2.44,-3.604 -3.34,-4.755 0.91,0.08 1.24,1.081 2.09,1.3 -0.78,-1.25 -0.92,-0.954 -2.03,-1.601 -0.5,-0.293 -0.35,-1.183 -0.47,-1.625 -0.3,-1.085 -1.08,-1.94 -1.61,-2.904 0.69,0.58 2.08,1.849 1.87,2.89 0.72,-0.248 1.47,-0.41 2.24,-0.359 -0.42,-0.317 -0.76,-0.704 -1.01,-1.16 -0.17,0.572 -0.59,0.867 -1.16,0.58 0.1,-0.754 0.69,-1.438 0.37,-2.23 -1.13,3.291 -3.21,-3.06 -3.75,-3.462"></path>
	</g></svg>
