<svg xmlns="http://www.w3.org/2000/svg" viewBox="1358 674 63 63"><g fill="#2b1d24"><path d="m1369 704.7.3.5q.4-.7-.2-1.3z"/><path d="M1368 706.2q-.8-1-.4-2.2 0 .8.7 1.5c.1-1.6 1-.3 1 .7.2-2 2.2-3.2 2.4-5.1.2-1.4-.7-4 .5-5q.2.9.9 1.6c.2-1 1.8-.4 2.3.5-.2-1 .8-1.3 1.6-1.3-1.9 0-3.3-.3-4.3-2-.4-.6-1.8-1.4-.3-1.7.6-.1 1.5.2 1.5 1 .6-1.3-.3-2.8 0-4.1q.5-.9 1.6-.4c1 .5 1.6 0 2.6 0h9V680c.4-2.3 1.3-1.4 3-1.4q2.4.3 4.8.2c1.5 0 3 .4 4 .4 2.3-.1 4.2-1.4 2.6 2.3-1 2.4.6 4.5-.2 6.6 1.7-.3 3.3-1.2 5-1.6 3.2-.7 2.8 1.2 3.8 2.8s1.7 3.8-1.4 4.5c-1.7.3-1.8 3.2-1.6 4.5.1.7-1.3 2.4.2 2.5.8 0 1.5.6 1.4 1-.1.8 1.6.7 2.2 1.3 1.4 1.4-.3 3.2 0 4.7.2 1 1.3 3.8-.4 4.7 1.1.7.4 2.6-.7 3-.2.2-.6 2.6-.6 2.7.7.7-1 2.5-1.9 2.4s-1.1-3.1-1.5-3.8c-.3.9-1.4 2.8-2.5 3-1 0-2.3-1.3-3.4-.6.8-2.9-4.6-7.3-3.9-2.6.5 2.7-.6 2.8-3.2 3-.8 0-.6-.6-1.4-.5-1 0-1.3 0-2.3-.3.4 1.4.6 3-.3 4.2q1.6-.3 1.7 1.3l-.1 2.1c.4.4 1 .4 1.2.9.7 1 0 1 0 1.8.1.7.5 1.6-.6 1.7-1.3 0-1.3-1-2.2-1.6-1-.5-2.9 2.9-3 3.5-1.8-1.3-3.2-4-4.3-5.8-1.7-2.6-4.3-4.6-6.5-6.7 1.3-.8 1.7 2 2.8.6-.8 0-2-1-2.9-1.1-1.4-.4-2.4-3.6-3.3-4.8 1 0 1.2 1 2 1.3-.7-1.2-.8-1-2-1.6-.4-.3-.3-1.2-.4-1.6q-.6-1.6-1.6-3c.7.7 2 2 1.8 3q1.2-.4 2.3-.4-.7-.5-1-1.2-.3 1-1.2.6c.1-.7.7-1.4.4-2.2-1.1 3.3-3.2-3-3.8-3.5"/></g></svg>
