<svg xmlns="http://www.w3.org/2000/svg" viewBox="1240.9 172.8 101.8 101.8"><g fill="#2b1d24"><path d="M1260.6 231c.6-1 2-1 2.9-1.6l-1-.7c1.9.5 2.6-1.5 3.5-2.5s2.6.3 2.8-1.5c1.6.8 3.7-1.1 5.3 0 .7.5 1 1.5 1.4 2.2-.1-.1 1.2 1.4 1.2 1 0 .4-1.4 1-1.6 1.3.5 0 2-.7 2.3 0s1 2-.2 2.3c.2-.7 0-1.7-1-1.5q.8.7.2 1.4.4-.2.7 0c.1.5-1 1.2-1.4 1.2-1 .1-1 1.8-2.2 1.4-1-.3-1.2-.6-2 0-.7.4-2 0-1.6-1-.4 0-3.2-3-3.4-1.1-.3 3.5-4.5.2-5.9-1m8.3-21.7c-1-.3-.4-1.3.4-1.6-1.2-2.4-2.4 2-.4 1.6m.4-3.2c0-.2 1.3-1.1.7-1.3s-2.2-.3-2.2.8q.8 0 1.4.5"/><path d="M1268.9 206.8q.3-1.2-.7-.4zm1.5 7.7 1-.7q-.8-.1-1 .7m2.6-12.5c1.2 1.7 2.6-1.3 1.2-.8.7-.1 3-1.1 1.5-1.4 1.4-.6 1.1-2.4-.3-1.4l-2.2 1c-.8.5-.1 1.3-1.1 1.6l-.1-.8a3 3 0 0 0-1.5.7c.6.5 1 1 0 1.2l1.4.6-1.5.8c.8 1.3 2.4-.5 2.6-1.4m-1 11.4q.8-.3 1.3-1a2 2 0 0 0-1.3 1m1.6 8.1c1.2-.5 2.2-1.7.6-2.6-1-.6-1.7 1.2-2 1.8l1.5-.7q.2.8-.1 1.5m2.9-11.7c.8-.3 2.2-1 2-2-3.1 1-1.8-2.8-3.5-3.4l-.3 1.5c-1.4-.4-1.2.5-2.3.3-.2 1.5 1.6.6 2.2 1.3-1.6 0 0 1.1.7 1 .7 0 1.5-.3 2.2 0q-1 .3-1 1.3"/><path d="M1275.7 267.6c1 .2 2.2-1.5 2.8-2 1.3-1 3.7-.2 4.6-1.7 0 .9 1.8 1.8 2.6 1.9 1.4 0 2.3-2.8 2.3-3.8.5.8 2 0 2.6-.2 1.5-.6 3.1.1 4.2 1.2.1-1 1-.6 1.7-.5s2.6-.5.8-.9c.8 0 6 0 4.6-1.4.8.9 2 .2 3 .4q.5 0 .3.5c0 .4 1.8 0 1.8 0q2.3-.5 4.5.1c1.2.4 3-.6 4.2-.9 1.1-.3 1.4-.7 2.1-1.3s2.3-.6 2.8-1.7-5.1-1.3-5.7-1.4l1.1-.5q-1.1-.3-2.1.2c.6-.7 1.5-.4 2.3-.6 1.4-.3 1.4-1.6 0-1.8q.7 0 1.2-.5c.9-.4 1.5.4 2.4-.4q-.3-.7-1.1-.9c.5-.1 2 0 .4-.6 2 .7 2.4-.7 3.3-2.2 1.1-2 1-3.8-1.3-5-1.3-.6-4.3-1.5-5.6-.4-.4.4-.6 1.2-1.2 1.4-.9.3-1.4-1.1-2.3-.9 1.1-1.8 3.5-1.9 1.5-4.4-1.7-2.2-3.5-2-5.9-2.4 1.6-.6 4.4 0 5.7 1-.3-1-3.5-3.8-1.3-4.4-1.4-.4-1.7-1.9-2.7-2.8-1-1-2.3-.9-3.5-1-2-.4-2.4-5-2.6-6.5-.2-2.4-3.3-4.6-5.7-5-.6-.1-1.1-1-1.8-.4a2 2 0 0 1-1.4.6c-1.6 0-3.7 0-4.9-1.2 2.4 1.8 4-.7 6.5-.7 1.4 0 .9-1 .2-1.7-1-.8-2.1.5-3.2.4q4.2-.8 7-4.1c.8-1 1-2.2 1.7-3.3.5-.7 1.8-1.2 1.5-2.2-.7-2-4.5-1.2-6-1-1.7.1-3.3-.5-4.9 0-1.3.4-2.9 1.2-4.2 1.4.2-.6 1-.7 1.2-1.4q-1.2.1-2.2.5c.8-.9 3-.3 3.4-1.6-1-.3-2.2 0-3.1-.8 1.7.7 1.3.3 2.5-.5l3-1.5c.3-.2 5.2-3.4 2.7-4-1.6-.2-3.5.5-5 .8q-1.4.4-2.6.3-.5 0-.7-.2c-.2-.3-1.2.4-1.6.6.8-1.3.1-.4-.5-.7q-.4-.4-.9-.6c-.6.2-.4 2-1.3 2.4.3.2 1 .4 1 .7-2.3-1-1.6 1.4-2.7 1.7q.9.4 1.2 1.2c-.7.3-3.2-.6-3 .8-.2-1.3-1.8 1 0 2h-1.5c-.1 1.4 1 1.4 2 1.3q-.8.2-1.4.8 1.1-.4 1.8.5c-1-1.1-2.2 1-.1.8-.3.1-3.7.3-1.3 1.1-1-.9-2.2.8-.8 1.1q-1 0-1 .8c-.7-.4-1.8-.3-2.4.3 1.1.2 2.7-.5 3.7.2-.8-.4-1.3.6-2.1.2.6 3 4.3-.6 5.5-1.3-.5.5-.7 1.4.4.9-.5.1-3.6 1.5-1.6 1.3l-.7.7 1.5-.1-1.8.3-.9.8c-.4.2-.1.9-.2 1.3 0 .4-2 3.2-.3 1.2-.8.5-.7 2.8.5 1.8-1.3.7-1.3 2.1-2.2 3.2-.6.8 1.3 1.4 1.5-.2.1-1 1.6-2.3 1.2-3.4-.5-1.4 1.7-2.4 2.6-2.9-.6.5-2.2 1.4-2 2.4q.1.7.8.4.3.6 1 1.2 0-1-.8-1.5c.6-.8.9-.3 1 .3 1-.9.3-2.6 1.5-2.4q-.7.8-.2 1.5c-.1-1.4.7 0 1.5.4-.5 0-1.8-.5-2 .3-.5 1.6.5 1.6 1 2.7.9 2-3.4 3-2.6 5.3 0-.2-1-1-1.1-.5-.3 1 1.2 2.2 1.8 2.8q-.8-2.4 1.6-1.3c1.3.6 1.6.6 1.6-1 1.5 1.5 2.4.9 4.1.4.5-.2 1.3-.3 1.2-1l3.5.1c-1.3.9-2.9 1-3.6 2.5-.5 1 .4 4.3 1.9 3.5q-.3.8.3 1.4l.7-1.3c.3.9 1 .5 1.5.2-.5.6-.5 1.4-1 2.1-.3.4-1.6 2 .1 1.8-1.7.9-1.2 3.9 1 3.2-1 .7-4-2-2.5 1-2-1.8-4.8 0-7 0 .8-1-1.7-2-2.3-1.4-1.3 1 .8 2.6 2 1.5-1.1 1.3-2.8 2-4 3.4 1.5.1 2.9-1.5 4.3-.8q-.3 1 .5 1.5c-.8.4-.6 1.5.4 1.4-.8.1-.9.9-1.2 1.5q-.8 1.2-2.2 1.5c-1.7.7-4.3 1.1-5.4 2.6q1 .3.4 1.3 1.2.2 2-.6-.5 1-1.8.8c1 1.3 4-.1 5-.8 0 1 1.1 1 1.8.8q-.4.7-1.2.4c.2 1.3 1.1.6 1.9.3 1.1-.5 1.7 1.2 2.7 1.7 1.8.7 2.1-.9 3.6-1.1q2.2-.4 4-2c-1.2 1.4-3 2.5-4.3 3.8-.3.4.2.8-.6 1h-2.5c-1.2-.3-3.2-.7-4.3 0-.7.4-.8 1.2-1.5 1.6-1 .6-1.1-.9-1.5.8 0 .7-1.8 3.3-2.7 3.1q-.6-.1-.8.5c-.4 1-1.7 1.4-2.6 1.8q-1 .3-2 1c-.2.2.1.8.4.8.9-.2 2-1 2.4.3m-1.1-57.1.4-.2q-.3-1-1.1-.3z"/><path d="M1274.4 215.8c1.3 0 2.5-.6 3.7-.8-.2-1.4-3.1-2.7-4-1.2q.9 0 1.5.7c-.5.4-1.2 1 .1.7a2 2 0 0 0-1.3.6m1.3 4c.6-1 1.6-1.7 1.8-2.9-1 .6-1.5 1.7-2.5 2.2zm.8-12.4q.3-.7.4-1.5-.7.7-.4 1.5m3.9 15.4c1-.4.7-2.5-.4-2.4-1.3 0-.7 2.4.4 2.3m14.8-26.9q.3-1-.7-1.3-.1.9.7 1.3m0-1.6c.8.6 2.8 1 3.4 0-.8 0-2 0-2.4-1-.2-.8-2.2 0-1 1m1.8 1.9q.3-.3.3-.9-1.1 0-.3 1m.8-4q0-.8-.6-1-.4.8.6 1m1.2.3 1.3-.9q-1 0-1.4 1m8.9-6.6-.4.8c1.6 0 1.7-2.7 2.2-3.7q-1 0-.7-1l-.8.5a2 2 0 0 1 .3-1.5c-.9 0-.7 1-1.6.8q.5.8 1.4 1.2a4 4 0 0 1-2.2.5c.2 1.3.3.3 1.3.6q1.4.6.5 1.8m1.6-3.9c.5-.4 1.3-1.6.1-1.6.1.5-.4 1.1 0 1.6m1.7-1.4c1-1.8-2-.3 0 0m-.2.9.7-.3q-1.1-.6-.8.3m-8.5 81.2q.9 0 1.5-1c-1.2-.6-1.9-.4-3 .3q.8.2 1.5.7"/></g></svg>
