<svg xmlns="http://www.w3.org/2000/svg" viewBox="1240.94 172.84 101.81 101.81"><g id="gb" fill="#2B1D24">
		
		<path id="United_Kingdom_Northern_Ireland" d="m 1260.61,230.96 c 0.61,-0.97 1.98,-0.951 2.88,-1.512 -0.33,-0.243 -0.65,-0.508 -0.94,-0.793 1.85,0.577 2.56,-1.489 3.44,-2.5 0.84,-0.961 2.58,0.303 2.83,-1.46 1.63,0.755 3.67,-1.128 5.3,0 0.66,0.456 1.05,1.522 1.36,2.209 -0.1,-0.124 1.21,1.35 1.18,1.088 0,0.278 -1.39,0.974 -1.58,1.168 0.5,-0.05 1.99,-0.688 2.32,-0.03 0.34,0.668 0.98,2.028 -0.16,2.334 0.18,-0.708 -0.1,-1.652 -1.01,-1.44 0.56,0.331 0.49,0.913 0.14,1.368 0.29,-0.154 0.54,-0.133 0.75,0.06 0.1,0.493 -1.05,1.131 -1.43,1.171 -0.98,0.103 -0.98,1.739 -2.17,1.386 -1,-0.297 -1.18,-0.609 -2.04,-0.05 -0.72,0.476 -1.91,-0.01 -1.59,-0.986 -0.4,0.02 -3.15,-3.046 -3.34,-1.078 -0.32,3.479 -4.59,0.188 -5.94,-0.939"></path>
		<path id="path2640" d="m 1268.89,209.21 c -0.95,-0.34 -0.4,-1.306 0.43,-1.584 -1.22,-2.379 -2.44,2.04 -0.43,1.584"></path>
		<path id="path2642" d="m 1269.25,205.97 c 0,-0.219 1.33,-1.103 0.74,-1.279 -0.66,-0.198 -2.24,-0.322 -2.18,0.775 0.54,-0.01 1.02,0.155 1.44,0.504"></path>
		<path id="path2644" d="m 1268.89,206.77 c 0.2,-0.77 0,-0.89 -0.72,-0.36 0.24,0.12 0.48,0.24 0.72,0.36"></path>
		<path id="path2646" d="m 1270.40,214.54 c 0.32,-0.29 0.68,-0.53 1.08,-0.721 -0.58,-0.13 -0.96,0.153 -1.08,0.721"></path>
		<path id="path2648" d="m 1273.06,202.09 c 1.17,1.623 2.5,-1.417 1.16,-0.937 0.7,-0.09 3.03,-1.064 1.51,-1.367 1.34,-0.609 1.08,-2.389 -0.33,-1.412 -0.7,0.48 -1.52,0.592 -2.24,1.02 -0.77,0.465 -0.1,1.275 -1.1,1.616 0,-0.265 0,-0.529 -0.1,-0.792 -0.55,0.106 -1.03,0.347 -1.44,0.72 0.61,0.435 0.97,0.909 -0.1,1.152 0.52,0.111 1,0.327 1.44,0.647 -0.5,0.231 -0.98,0.495 -1.44,0.792 0.79,1.315 2.41,-0.573 2.59,-1.439"></path>
		<path id="path2650" d="m 1271.98,213.53 c 0.55,-0.184 0.98,-0.52 1.3,-1.009 -0.55,0.143 -1.03,0.51 -1.3,1.009"></path>
		<path id="path2652" d="m 1273.57,221.60 c 1.19,-0.529 2.21,-1.682 0.59,-2.587 -1.04,-0.58 -1.61,1.164 -1.96,1.795 0.48,-0.293 0.98,-0.533 1.51,-0.72 0.1,0.518 0.1,1.022 -0.14,1.512"></path>
		<path id="path2654" d="m 1276.52,209.86 c 0.83,-0.229 2.15,-0.969 2.01,-2.017 -3.16,1.115 -1.82,-2.705 -3.52,-3.312 -0.18,0.464 -0.28,0.943 -0.29,1.439 -1.43,-0.335 -1.24,0.571 -2.31,0.36 -0.18,1.447 1.58,0.549 2.24,1.224 -1.64,0.118 0,1.143 0.66,1.137 0.69,0 1.47,-0.357 2.14,-0.06 -0.59,0.141 -0.98,0.607 -0.93,1.226"></path>
		<path id="United_Kindgom_Great_Britain" d="m 1275.73,267.61 c 0.88,0.2 2.14,-1.517 2.82,-2.057 1.24,-0.994 3.68,-0.169 4.52,-1.687 0,0.931 1.86,1.832 2.62,1.891 1.43,0.111 2.36,-2.708 2.35,-3.764 0.45,0.84 2.02,0 2.59,-0.211 1.52,-0.535 3.07,0.162 4.18,1.22 0.1,-0.93 1.04,-0.649 1.66,-0.536 0.68,0.124 2.62,-0.476 0.79,-0.832 0.83,0 6.07,-0.03 4.6,-1.44 0.88,0.895 1.99,0.195 3.03,0.433 0.27,0.05 0.39,0.203 0.36,0.452 0,0.427 1.74,-0.04 1.73,-0.04 1.53,-0.194 2.99,-0.264 4.49,0.179 1.26,0.372 3.03,-0.596 4.27,-0.921 1.09,-0.287 1.33,-0.647 2.06,-1.318 0.79,-0.722 2.32,-0.562 2.79,-1.65 0.52,-1.207 -5.11,-1.374 -5.7,-1.455 0.4,-0.107 0.79,-0.252 1.16,-0.433 -0.73,-0.169 -1.5,-0.348 -2.16,0.145 0.65,-0.693 1.53,-0.417 2.35,-0.575 1.37,-0.267 1.32,-1.652 -0.1,-1.801 0.53,0.11 0.87,-0.333 1.29,-0.538 0.83,-0.407 1.46,0.424 2.38,-0.399 -0.23,-0.494 -0.61,-0.782 -1.15,-0.864 0.57,-0.107 1.95,-0.02 0.43,-0.575 2.1,0.63 2.4,-0.728 3.29,-2.223 1.17,-1.938 0.96,-3.811 -1.29,-4.925 -1.3,-0.646 -4.28,-1.548 -5.56,-0.443 -0.45,0.379 -0.6,1.2 -1.19,1.398 -0.9,0.301 -1.44,-1.145 -2.38,-0.936 1.17,-1.765 3.58,-1.875 1.56,-4.454 -1.67,-2.135 -3.51,-2.01 -5.87,-2.315 1.57,-0.679 4.35,-0.09 5.61,0.937 -0.29,-1.005 -3.5,-3.761 -1.22,-4.393 -1.48,-0.378 -1.76,-1.864 -2.74,-2.808 -0.92,-0.882 -2.33,-0.854 -3.48,-1.034 -1.93,-0.302 -2.46,-4.899 -2.58,-6.39 -0.2,-2.481 -3.31,-4.631 -5.69,-5.067 -0.62,-0.114 -1.15,-0.983 -1.83,-0.373 -0.43,0.394 -0.84,0.583 -1.43,0.574 -1.55,-0.02 -3.7,0.07 -4.86,-1.174 2.41,1.792 4.05,-0.721 6.48,-0.721 1.38,0 0.89,-1.067 0.16,-1.64 -1.03,-0.81 -2.07,0.477 -3.19,0.344 2.84,-0.553 5.16,-1.875 6.99,-4.128 0.82,-1.013 1.07,-2.21 1.77,-3.247 0.48,-0.721 1.81,-1.19 1.44,-2.256 -0.68,-1.924 -4.48,-1.189 -6.06,-1.013 -1.64,0.183 -3.22,-0.463 -4.82,0.01 -1.34,0.403 -2.87,1.24 -4.21,1.485 0.2,-0.684 0.99,-0.745 1.22,-1.44 -0.79,-0.07 -1.5,0.301 -2.23,0.504 0.87,-0.894 3.06,-0.273 3.46,-1.655 -1.04,-0.243 -2.28,0 -3.17,-0.721 1.71,0.654 1.38,0.224 2.5,-0.526 0.92,-0.619 2.03,-0.88 2.97,-1.476 0.38,-0.245 5.27,-3.435 2.72,-3.948 -1.55,-0.313 -3.48,0.435 -5,0.73 -0.84,0.165 -1.74,0.372 -2.6,0.302 -0.22,-0.02 -0.51,-0.06 -0.65,-0.243 -0.24,-0.299 -1.25,0.457 -1.6,0.626 0.77,-1.252 0.1,-0.388 -0.46,-0.723 -0.22,-0.134 -0.6,-0.619 -0.91,-0.547 -0.63,0.146 -0.39,1.979 -1.29,2.422 0.28,0.15 0.86,0.355 0.86,0.648 -2.18,-1 -1.52,1.378 -2.59,1.728 0.55,0.228 1,0.67 1.22,1.225 -0.7,0.273 -3.21,-0.662 -3.02,0.791 -0.22,-1.335 -1.84,0.928 -0.1,2.017 -0.48,-0.06 -0.96,-0.09 -1.44,-0.07 -0.11,1.394 1.04,1.401 2.09,1.296 -0.53,0.167 -1.01,0.431 -1.44,0.792 0.64,-0.238 1.35,-0.104 1.73,0.505 -0.94,-1.088 -2.2,1.006 -0.1,0.863 -0.22,0.08 -3.67,0.23 -1.29,1.08 -1.03,-0.921 -2.19,0.803 -0.79,1.08 -0.58,-0.08 -0.92,0.211 -0.94,0.792 -0.78,-0.372 -1.79,-0.277 -2.45,0.288 1.14,0.266 2.72,-0.497 3.74,0.216 -0.81,-0.372 -1.34,0.588 -2.16,0.216 0.68,2.966 4.36,-0.631 5.55,-1.296 -0.47,0.521 -0.75,1.346 0.43,0.864 -0.58,0.117 -3.6,1.492 -1.65,1.296 -0.24,0.237 -0.49,0.478 -0.73,0.72 0.52,0.03 1.02,-0.02 1.52,-0.144 -0.3,0.161 -1.66,0.217 -1.74,0.325 -0.25,0.306 -0.62,0.567 -0.95,0.776 -0.38,0.245 -0.11,0.943 -0.16,1.332 0,0.421 -2.02,3.169 -0.32,1.167 -0.85,0.592 -0.7,2.831 0.5,1.8 -1.32,0.744 -1.36,2.18 -2.22,3.27 -0.61,0.763 1.29,1.328 1.48,-0.196 0.14,-1.091 1.59,-2.355 1.22,-3.395 -0.52,-1.479 1.7,-2.384 2.62,-2.918 -0.61,0.534 -2.23,1.346 -2.06,2.372 0.12,0.485 0.4,0.606 0.84,0.363 0.24,0.463 0.55,0.872 0.93,1.225 0.17,-0.613 -0.19,-1.224 -0.72,-1.512 0.57,-0.766 0.87,-0.26 1.01,0.359 1.01,-0.897 0.31,-2.615 1.51,-2.376 -0.5,0.419 -0.57,0.899 -0.21,1.44 -0.15,-1.361 0.68,0.08 1.51,0.432 -0.56,-0.03 -1.85,-0.51 -2.09,0.317 -0.46,1.582 0.6,1.554 1.1,2.672 0.84,1.905 -3.45,3.014 -2.61,5.291 -0.1,-0.161 -1.04,-1.032 -1.17,-0.537 -0.25,0.949 1.29,2.247 1.82,2.841 -0.56,-1.657 0.1,-1.985 1.65,-1.282 1.28,0.581 1.53,0.539 1.58,-1.021 1.5,1.48 2.43,0.887 4.11,0.4 0.52,-0.151 1.33,-0.319 1.22,-1.048 1.15,0.141 2.31,0.06 3.46,0.144 -1.29,0.86 -2.85,0.972 -3.6,2.521 -0.47,0.98 0.42,4.258 1.87,3.456 -0.21,0.541 -0.11,1.021 0.29,1.439 0.31,-0.407 0.57,-0.838 0.79,-1.295 0.21,0.886 0.97,0.448 1.44,0.144 -0.47,0.642 -0.46,1.461 -1.01,2.16 -0.31,0.406 -1.59,2.064 0.15,1.8 -1.75,0.873 -1.2,3.866 0.93,3.168 -0.97,0.71 -3.92,-2.004 -2.44,0.936 -1.99,-1.698 -4.83,0.06 -6.99,0 0.8,-0.981 -1.71,-1.897 -2.35,-1.358 -1.29,1.09 0.81,2.616 2.06,1.503 -1.17,1.317 -2.84,2.087 -3.96,3.456 1.46,0.114 2.79,-1.536 4.25,-0.792 -0.36,0.601 0,1.192 0.51,1.512 -0.86,0.398 -0.63,1.504 0.36,1.368 -0.81,0.116 -0.87,0.891 -1.18,1.488 -0.41,0.783 -1.44,1.251 -2.22,1.541 -1.74,0.644 -4.25,1.085 -5.39,2.515 0.62,0.248 0.85,0.764 0.36,1.296 0.78,0.164 1.56,0.07 2.09,-0.576 -0.37,0.694 -1.13,0.915 -1.87,0.864 0.98,1.24 3.97,-0.171 4.97,-0.864 0,1.043 1.15,1.08 1.87,0.864 -0.3,0.443 -0.71,0.563 -1.23,0.36 0.2,1.251 1.13,0.641 1.87,0.295 1.14,-0.531 1.77,1.222 2.76,1.657 1.82,0.792 2.12,-0.85 3.6,-1.065 1.62,-0.235 2.72,-1.078 4.01,-2.04 -1.23,1.48 -2.97,2.503 -4.32,3.888 -0.35,0.361 0.17,0.796 -0.58,0.892 -0.84,0.108 -1.7,0.16 -2.54,-0.01 -1.19,-0.246 -3.19,-0.659 -4.33,0.03 -0.69,0.412 -0.73,1.229 -1.43,1.648 -0.96,0.576 -1.15,-0.856 -1.49,0.851 -0.14,0.686 -1.83,3.282 -2.7,3.084 -0.54,-0.122 -0.68,-0.1 -0.88,0.5 -0.33,0.955 -1.68,1.389 -2.52,1.734 -0.68,0.275 -1.42,0.574 -2,1.036 -0.23,0.19 0.1,0.849 0.33,0.793 0.9,-0.197 2,-0.976 2.45,0.32"></path>
		<path id="path2658" d="m 1274.50,210.51 c 0.14,-0.07 0.28,-0.144 0.43,-0.216 -0.19,-0.685 -0.67,-0.803 -1.15,-0.288 0.24,0.168 0.48,0.336 0.72,0.504"></path>
		<path id="path2660" d="m 1274.43,215.84 c 1.26,-0.09 2.44,-0.61 3.67,-0.864 -0.25,-1.357 -3.11,-2.686 -3.96,-1.224 0.58,0.05 1.06,0.285 1.44,0.72 -0.5,0.386 -1.19,0.943 0.15,0.72 -0.52,0.05 -0.95,0.27 -1.3,0.648"></path>
		<path id="path2662" d="m 1275.66,219.80 c 0.61,-0.941 1.67,-1.71 1.87,-2.88 -0.96,0.575 -1.49,1.696 -2.52,2.159 0.19,0.267 0.4,0.507 0.65,0.721"></path>
		<path id="path2664" d="m 1276.52,207.41 c 0.22,-0.482 0.36,-0.986 0.43,-1.513 -0.45,0.418 -0.6,0.922 -0.43,1.513"></path>
		<path id="path2666" d="m 1280.41,222.75 c 0.96,-0.389 0.66,-2.447 -0.44,-2.376 -1.28,0.08 -0.69,2.448 0.44,2.376"></path>
		<path id="path2670" d="m 1295.24,195.75 c 0.14,-0.581 0,-1.159 -0.72,-1.225 -0.15,0.585 0.19,1.027 0.72,1.225"></path>
		<path id="path2672" d="m 1295.24,194.17 c 0.75,0.679 2.75,1.021 3.38,0 -0.78,-0.05 -2.11,0 -2.39,-0.966 -0.23,-0.782 -2.2,-0.02 -0.99,0.966"></path>
		<path id="path2674" d="m 1296.97,196.11 c 0.24,-0.236 0.36,-0.524 0.36,-0.864 -0.77,-0.05 -0.89,0.234 -0.36,0.864"></path>
		<path id="path2676" d="m 1297.76,192.15 c 0.1,-0.496 -0.1,-0.832 -0.58,-1.008 -0.26,0.567 0,0.932 0.58,1.008"></path>
		<path id="path2678" d="m 1298.91,192.51 c 0.42,-0.343 0.88,-0.631 1.37,-0.864 -0.64,-0.09 -1.15,0.285 -1.37,0.864"></path>
		<path id="path2776" d="m 1307.77,185.96 c -0.12,0.264 -0.24,0.528 -0.36,0.792 1.57,0 1.65,-2.687 2.23,-3.673 -0.6,-0.05 -0.93,-0.394 -0.79,-1.006 -0.24,0.168 -0.48,0.336 -0.72,0.504 -0.1,-0.509 0,-0.99 0.28,-1.441 -0.9,-0.123 -0.74,1.018 -1.65,0.792 0.39,0.487 0.87,0.871 1.44,1.151 -0.68,0.381 -1.45,0.553 -2.23,0.505 0.25,1.269 0.34,0.331 1.31,0.659 0.79,0.269 1.19,1.081 0.49,1.717"></path>
		<path id="path2778" d="m 1309.42,182.14 c 0.52,-0.403 1.3,-1.609 0.1,-1.656 0.1,0.535 -0.4,1.156 -0.1,1.656"></path>
		<path id="path2780" d="m 1311.22,180.70 c 1.05,-1.753 -2.06,-0.265 0,0"></path>
		<path id="path2782" d="m 1310.93,181.57 c 0.24,-0.1 0.49,-0.191 0.73,-0.287 -0.72,-0.39 -0.97,-0.294 -0.73,0.287"></path>
		<path id="path5354" d="m 1302.37,262.78 c 0.62,-0.06 1.16,-0.429 1.51,-0.937 -1.18,-0.655 -1.85,-0.447 -2.95,0.216 0.51,0.173 0.99,0.413 1.44,0.721"></path>
	</g></svg>
