<svg xmlns="http://www.w3.org/2000/svg" viewBox="1580.4 303.9 57.4 57.4"><g fill="#2b1d24"><path d="M1584.3 323.7c0-3.9 8-.3 9.5.3 1.8.8 3.2 1.4 5.3 1 1-.2 1.8-.4 3 .3.4.3 1.9-.1 2.7.3l4.1 2.3c.4.2 1.2.3 2.2 1.4.7.7-.2.3.6.6 2.2.9 5.4-2.8 6.8.1.4-1.9 2.4-.5 2.7-.3l1.2.9c.8.3 2.5-.3 2.9 1 .3.8-.7 1.4.1 2.2 1.4 1.2 3 1.2 4.5 1.8 2.4 1-1.2 1.8 0 3.2.7.8 4 2.2 3.9 3.3-.5 2.5-3.3 0-4 .2-2 .8-3.2-1.5-5.1-1.9q-1.2-.3-2 .5c-.6.4-2 1-1.8 1.3l-3.7-.1c-1.2 0-2.3.7-3.7.6l-2.9-.2c-.2 0-1.8 0-1.6-.6q.3-.7-.4-.7s-1.7-1.8-2.6-1.5c.6-1.5-1.6-.6-1.8.3-.3 1-3.2-.1-4-.3-.4.1-.5 1-1.4.5-.4-.2-1.2-.7-1.6-.5q-.1-.2.2-.9c.6-1.6 1.3-2.5.2-4-1-1.6-1.2-3.5-2.2-5-.9-1.3-2.4-1.2-3.4-2.4-.8-1-2.6-1.2-3.9-1.4-1.7-.3-2.1-2.1-3.7-2.3"/><path d="M1584.3 323.7c1.7.2 2.1 2 3.8 2.3 1.3.2 3 .3 4 1.4.8 1.2 2.4 1.1 3.3 2.4l.6 1.2.3-.1.4-.6.4-.6q.6-.2.9-.6v-2q0-.6.8-1.1c.5-.3.4-1 .3-1q-2.8.4-5.3-1c-1.5-.6-9.4-4.2-9.5-.3m26.9 5.6c.6.7-.3.3.5.6 1.2.5 2.7-.4 4-.8q.2 0 .3.6-.1.3.4.7l1.4.7c.3.2.5 1.4.5 1.6 0 .1 0 .8-.6 1l-1.2.5c-.1 0-.4.2-.9-.4s-1.8-1.1-1.9-1.2l-1.2.7c-.3.1-1.5-.4-1.6-.6v-1l-.5-.7q-.5-.6 0-1.1z"/></g></svg>
