<svg xmlns="http://www.w3.org/2000/svg" viewBox="1260.95 597.88 64.07 64.07"><path id="gh" d="m 1276.52,644.454 c -0.46,-2.453 -0.63,-4.418 0.45,-6.732 0.92,-1.99 0.36,-2.686 1.1,-4.681 0.55,-1.477 2.53,-3.528 3.12,-4.811 0.81,-1.744 0.17,-4.332 -0.36,-6.124 -0.21,-0.714 -0.51,-1.17 -0.8,-1.837 -0.32,-0.715 0.15,-1.468 0.2,-2.201 0.12,-1.683 -0.69,-2.868 -0.35,-4.489 0.37,-1.733 -0.34,-3.593 -0.66,-5.279 -0.15,-0.801 -1,-1.701 -0.51,-2.545 0.39,-0.664 0.93,-1.607 0.69,-2.412 4.19,0.375 8.06,-0.27 12.52,0.03 0.9,0.06 3.56,-0.172 3.78,0.349 0.39,0.964 1.96,-0.572 2.78,-1.166 0.83,-0.605 3.22,-0.101 2.7,0.97 -0.8,1.633 -0.99,3.254 1.36,5.017 1.94,1.459 0.85,0.863 1.18,2.373 0.16,0.731 0.25,0.673 0.18,1.513 -0.1,0.85 -0.1,2.226 -0.31,3.303 -1.06,-0.164 -0.61,0.594 -1.08,1.225 0.65,0.11 1.11,-0.623 1.71,-0.455 0.88,0.245 0.86,1.509 0.66,2.154 -0.4,1.239 0.45,4.435 -1.22,4.133 0.42,1.067 1.55,1.724 2.2,2.636 0.77,1.092 0.1,1.422 -0.35,2.436 -0.54,1.232 0.5,2.853 -0.19,4.014 -0.83,1.388 -0.91,2.075 0.23,3.258 0.54,0.559 -0.1,1.96 -0.32,2.602 -0.61,1.552 -0.76,2.246 0.12,3.792 0.56,0.977 1.75,1.838 2.64,2.529 0.24,0.189 1.76,1.086 1.79,1.196 0.21,0.823 -1.13,1.221 -1.35,1.914 -0.29,0.943 -0.94,1.744 -2.07,1.616 -0.63,-0.07 -0.83,-1.484 -1.17,-1.905 -0.74,-0.907 -1.99,-0.56 -2.97,-0.978 0.79,0.636 2.08,0.244 2.92,0.862 1.66,1.221 -0.88,1.995 -1.71,2.14 -3.14,0.551 -5.12,2.333 -7.73,3.887 -1.49,0.891 -3.15,0.87 -4.75,1.521 -0.96,0.395 -2.06,0.609 -2.88,1.273 -0.69,0.552 -1.25,1.286 -2.05,1.7 -0.81,0.428 -1.46,0.284 -2.07,-0.352 -0.83,-0.863 -1.73,-0.976 -2.82,-1.303 -1.15,-0.343 -2.07,-0.07 -2.78,-1.241 0.94,-0.03 0.47,-0.161 1.41,-0.134 -0.42,-1.213 0.99,-5.071 -1.57,-4.362 0.86,-1.533 -0.75,-4.164 -1.67,-5.431" fill="#2B1D24">
		
	</path></svg>
