<svg xmlns="http://www.w3.org/2000/svg" viewBox="1261 597.9 64.1 64.1"><path fill="#2b1d24" d="M1276.5 644.5c-.4-2.5-.6-4.5.5-6.8.9-2 .3-2.7 1-4.7.6-1.4 2.6-3.5 3.2-4.8.8-1.7.2-4.3-.4-6l-.8-2c-.3-.6.2-1.4.2-2.1.1-1.7-.7-2.9-.3-4.5.4-1.8-.4-3.6-.7-5.3-.1-.8-1-1.7-.5-2.5.4-.7 1-1.7.7-2.5 4.2.4 8-.2 12.5 0 1 .1 3.6-.1 3.8.4.4 1 2-.6 2.8-1.1s3.2-.1 2.7 1c-.8 1.6-1 3.2 1.3 5 2 1.4.9.8 1.2 2.3.2.7.3.7.2 1.5s-.1 2.3-.3 3.3c-1-.1-.6.6-1 1.3.6 0 1-.7 1.6-.5.9.2.9 1.5.7 2.2-.4 1.2.4 4.4-1.2 4 .4 1.2 1.5 1.8 2.2 2.7.7 1.1 0 1.4-.4 2.5s.5 2.8-.2 4c-.8 1.4-.9 2 .3 3.2.5.6-.1 2-.4 2.6-.6 1.6-.7 2.3.2 3.8.5 1 1.7 1.9 2.6 2.6l1.8 1.2c.2.8-1.1 1.2-1.4 1.9q-.5 1.6-2 1.6c-.7 0-.9-1.5-1.2-2-.7-.8-2-.5-3-.9.8.6 2.1.2 3 .9 1.6 1.2-1 2-1.8 2.1-3.1.6-5 2.3-7.7 3.9-1.5.9-3.1.9-4.7 1.5q-1.6.4-3 1.3-.8 1-2 1.7t-2-.4q-1.3-1-2.9-1.3c-1.1-.3-2 0-2.7-1.2.9 0 .4-.2 1.4-.1-.5-1.3 1-5.1-1.6-4.4.9-1.5-.8-4.2-1.7-5.4"/></svg>
