<svg xmlns="http://www.w3.org/2000/svg" viewBox="1171.76 569.03 26.48 26.48"><g id="gm" fill="#2B1D24">
		
		<path id="gm-" d="m 1173.63,582.894 c 1.41,-1.109 1.21,-1.047 1.92,0.515 0.54,1.183 2.21,-0.407 3.05,0.206 -1.8,-0.925 3.69,-1.469 4.03,-1.656 -1.42,-0.09 -3.12,-0.03 -4.44,0.547 -1.14,0.498 -1.79,0.828 -2.5,-0.486 -0.64,-1.171 0.64,-1.188 1.45,-1.126 2.14,0.161 4.31,0.06 6.45,0.06 0.55,0 0.32,-1.731 1.59,-1.371 1.02,0.29 2.01,-0.961 3.06,-0.41 0.53,0.279 0.66,0.966 1.18,1.278 0.51,0.301 0.98,-0.245 1.51,0 0.56,0.266 0.39,1.111 1.01,1.374 0.66,0.279 1.49,-0.246 2.1,-0.43 0.73,-0.218 2.48,-0.07 2.37,1.05 -0.11,1.029 -1.76,1.395 -2.57,1.512 -3.41,0.492 -7.03,-3.443 -7.52,-2.504 -0.58,1.089 -0.72,1.455 -2.84,1.423 -0.75,-0.01 -2.81,0.44 -2.36,1.578 0.1,0.222 -6.68,-0.54 -6.96,1.065 -0.41,-0.796 -0.69,-1.745 -0.53,-2.629"></path>
		
	</g></svg>
