<svg xmlns="http://www.w3.org/2000/svg" viewBox="1182 580.1 65 65"><g fill="#2b1d24"><path d="M1186.9 603.6c1-1.2.9-3.2 2.1-4.3.9-.7 2.6-.9 3.6-1.4s2 .1 3.1-.4q1.2-.6 1.2-1.9c-.2-1.2-2.3-1.7-2-2.6s2-.6 2.3-1.5-.5-2.3-.2-2.6h3.6l1.5.5c.3.1-.4 1.8.7 1 .8-.4 2.4.7 2.8 1l1.6.6c1-.1 1.8-1 3-.8 1.6.2 3.3-.6 4.5 0-.6 1.1-1.5 2 0 3.3 1 .8 2.3-2 3.3-1.7 2.5 1 1 4 3.1 1.5 2.8-3.2 4.5.4 5.6.2q.8-.4 1.6-1.3c.5-.4 1.6-.5 1.9-.9.4-.7-1.4-2.4 1-1.8.6.1 1.9.7 1.8 1.7 0 .4.4 2 .6 2.2 1.2 1.1-.2 4 1.2 3.3.2 1.4 2.9 1.5 2.6 3.2q-.8-.1-1.3.5-.8 1-1.1 2.4c.7-.1 1.1-.8 2-.8 1.4-.2 1 1.6 1 2.6 0 .7-.4 1.9 1 2.6.2.2 1.3 1 1.5 1.6.2.9-.6 1.3-1.3 1.8-.5.3-.5 1.8-.5 2.5 0 1.2.5 4 2.2 3-.3 2-.1 1.6 1 3-1.4.2-1.4 1.3-1.7 2.3 2 .4 1.8 2.1 2.3 3.7-1-.4-4.1-1.6-4.5-.5-.5 1.3 1.5 2.6 2.2 3.6-.8-.4-1.3 1-1.3 1.1.1.8.4.6.2 1-.1.5-1 1.8-1 2-.2-.3-1.3-.8-1.9-.3-.3.3.1-.5-.9-1-.9-.3-1.2 1.7-1.4 2.1-.7 1.4-1.2 1.6-2.7 2.2 0-1.7-1.4-2-2.8-1.4q.6-1.6.7-3.4c0-.5-.2-2.9-.3-2.7s-.3.7-.3-.8c0-.2-.5-1 0-1.7-2.3-2.6-2.5-1.2-2.8-1.4-.8.7-1 .3-2.1.1q-1.2 0-2.2.5c-.4.3-2 1.1-2.2 1.5-.1-1.5 1.9-3.4 1.6-3.8-1.3-1.7.6-2.2-1.3-3.5-.6-.4.2-1-.1-1.6-2.1-3.8-3-6.8-7.7-6.1-1.3.2-1.6.6-2.7.8-2 .5-2.6-.5-3.4 1.4-.7 1.5-1.3 3.3-2.2 3.8s-1 .7-1.4 1.6c-.5 1-1.7.2-2.4.8q-.1-1 1-1.2l-.6-.7-.5.7v-1.5l-.9.1c.2-.9-1-1-.5-2-1.3 1.4-.7-2-1.1-2.4q0 .9-.8.7l.5-1.6c-.3 1-1 .7-1.7.2-1-.7-.4-1.1-.8-2q-.7.1-1 1c0-1.9-4-1.7-2.9-4l-1 .2q.9-1.6 1.3-3.4-.7.7-1 1.5c-.1-1.2-.6-.6-1 0 0-.8-.2-2.5.8-2.8q-1.2.5-2.5.4"/><path d="M1186.7 603.8c-.4.5-.4 1.4.5 1.6q-.3-.9.3-1.6z"/></g></svg>
