<svg xmlns="http://www.w3.org/2000/svg" viewBox="1181.98 580.09 65.03 65.03"><g id="gn" fill="#2B1D24">
		
		<path id="Guinea_mainland" d="m 1186.88,603.63 c 1,-1.242 0.9,-3.277 2.16,-4.336 0.86,-0.717 2.51,-0.863 3.54,-1.397 1.02,-0.533 2.07,0.113 3.12,-0.443 0.69,-0.366 1.27,-1.024 1.17,-1.841 -0.15,-1.217 -2.3,-1.7 -1.95,-2.643 0.32,-0.846 2.03,-0.596 2.26,-1.45 0.26,-0.958 -0.46,-2.335 -0.2,-2.632 l 3.61,-0.01 c 0.53,0.135 1.11,0.533 1.49,0.562 0.28,0.09 -0.35,1.718 0.75,1.047 0.76,-0.46 2.33,0.597 2.75,0.929 0,0.05 1.67,0.54 1.63,0.544 1.05,-0.101 1.8,-0.903 2.94,-0.779 1.66,0.182 3.32,-0.538 4.52,0 -0.58,1.163 -1.45,2.022 0.12,3.337 0.89,0.747 2.21,-2.106 3.25,-1.712 2.5,0.949 0.88,3.943 3.07,1.45 2.81,-3.195 4.53,0.464 5.59,0.195 0.63,-0.16 1.05,-0.76 1.63,-1.243 0.47,-0.394 1.62,-0.505 1.85,-0.881 0.43,-0.726 -1.34,-2.442 1.11,-1.813 0.52,0.135 1.78,0.733 1.69,1.718 0,0.327 0.41,2 0.64,2.218 1.16,1.099 -0.22,3.985 1.21,3.211 0.18,1.437 2.85,1.504 2.57,3.215 -0.64,0.03 -0.89,-0.01 -1.3,0.483 -0.56,0.683 -0.9,1.582 -1.13,2.422 0.75,-0.122 1.18,-0.736 2.03,-0.829 1.39,-0.149 0.98,1.629 0.94,2.617 0,0.727 -0.34,1.919 1,2.665 0.25,0.14 1.37,0.875 1.55,1.533 0.23,0.885 -0.62,1.311 -1.3,1.817 -0.44,0.327 -0.45,1.82 -0.44,2.498 0,1.259 0.45,4.065 2.2,2.947 -0.39,1.981 -0.18,1.693 0.94,3.024 -1.35,0.203 -1.35,1.324 -1.73,2.376 2.05,0.337 1.86,2.096 2.37,3.672 -1.05,-0.365 -4.14,-1.574 -4.53,-0.546 -0.5,1.347 1.52,2.688 2.16,3.642 -0.76,-0.393 -1.3,1.071 -1.29,1.123 0.16,0.798 0.44,0.537 0.28,1.029 -0.16,0.499 -1.03,1.774 -1.02,1.88 -0.21,-0.184 -1.3,-0.717 -1.9,-0.188 -0.33,0.283 0.1,-0.563 -0.89,-1.044 -0.94,-0.332 -1.24,1.672 -1.47,2.131 -0.67,1.33 -1.16,1.607 -2.64,2.197 -0.1,-1.679 -1.45,-1.946 -2.81,-1.439 0.38,-1.099 0.61,-2.228 0.65,-3.395 0,-0.445 -0.13,-2.877 -0.27,-2.651 -0.1,0.168 -0.27,0.61 -0.29,-0.842 0,-0.223 -0.52,-1.025 0,-1.656 -2.31,-2.651 -2.48,-1.225 -2.85,-1.413 -0.78,0.624 -1.02,0.225 -2.09,0.115 -0.74,-0.08 -1.54,0.111 -2.16,0.481 -0.38,0.229 -1.99,1.078 -2.16,1.44 -0.15,-1.452 1.83,-3.328 1.51,-3.766 -1.27,-1.717 0.67,-2.237 -1.3,-3.502 -0.6,-0.38 0.2,-1.032 -0.1,-1.57 -2.1,-3.868 -2.9,-6.868 -7.64,-6.155 -1.27,0.192 -1.58,0.591 -2.71,0.847 -1.97,0.451 -2.59,-0.561 -3.44,1.373 -0.67,1.549 -1.23,3.344 -2.21,3.781 -0.88,0.395 -0.94,0.716 -1.34,1.589 -0.49,1.037 -1.73,0.199 -2.44,0.851 -0.1,-0.671 0.35,-1.159 1.01,-1.224 -0.14,-0.278 -0.34,-0.518 -0.58,-0.72 -0.18,0.232 -0.34,0.472 -0.5,0.72 -0.1,-0.479 -0.1,-0.958 -0.1,-1.44 -0.26,0.02 -0.52,0.05 -0.79,0.07 0.23,-0.891 -1.07,-1.06 -0.51,-1.943 -1.32,1.333 -0.67,-2.117 -1.15,-2.448 0.1,0.578 -0.25,0.789 -0.79,0.647 0.23,-0.508 0.4,-1.036 0.5,-1.584 -0.31,1.06 -1.01,0.692 -1.66,0.217 -0.92,-0.676 -0.44,-1.155 -0.79,-2.088 -0.49,0.177 -0.82,0.513 -1,1.008 -0.11,-1.814 -3.94,-1.66 -2.88,-3.96 -0.32,0.118 -0.66,0.19 -1.01,0.216 0.57,-1.057 0.96,-2.235 1.29,-3.385 -0.43,0.437 -0.77,0.94 -1,1.513 -0.12,-1.171 -0.58,-0.57 -0.94,0 -0.17,-0.79 -0.28,-2.463 0.72,-2.808 -0.8,0.444 -1.64,0.422 -2.52,0.43"></path>
		<path id="path5380" d="m 1186.74,603.77 c -0.43,0.548 -0.39,1.45 0.43,1.584 -0.22,-0.583 -0.1,-1.087 0.36,-1.512 -0.26,-0.02 -0.53,-0.05 -0.79,-0.07"></path>
	</g></svg>
