<svg xmlns="http://www.w3.org/2000/svg" viewBox="1440.16 330.98 72.22 72.22"><g id="gr" fill="#2B1D24">
		
		<path id="Greece_mainland" d="m 1447.66,355.374 c 0.52,0.12 1.21,0.223 1.72,-0.02 1.09,-0.521 -0.7,-1.226 0.95,-1.058 -0.58,-1.441 -0.98,-1.389 0.4,-2.137 0.87,-0.471 1.46,-1.126 1.77,-2.075 0.43,-1.31 0.91,-1.195 1.74,-2.132 0.81,-0.904 -0.44,-2.006 -0.39,-2.934 0.61,0.4 1.56,-0.151 2.57,-0.129 2.23,0.05 3.38,-1.291 5.23,-2.117 1.19,-0.53 2.59,0.18 3.91,-0.267 0.84,-0.286 0.3,-1.399 1.48,-1.376 0.78,0.02 1.7,0.786 2.39,0.3 0.93,-0.651 2.33,-0.256 3.38,-0.398 1.05,-0.142 2.05,-1.304 3.05,-1.622 0.79,-0.251 2.13,-0.694 2.81,0.02 0.6,0.624 1.07,1.79 2.16,1.443 1.19,-0.375 1.91,0.549 3.02,0.768 1,0.195 1.9,-0.427 2.9,-0.387 0.9,0.04 2.13,0.304 2.91,-0.297 0.97,-0.749 -0.1,-1.687 -0.38,-2.46 -0.5,-1.386 2.52,-0.384 2.84,-0.205 1.02,0.566 0.83,1.488 1.21,2.487 -2.22,0.953 -1.65,1.516 -1.76,2.917 -0.1,1.094 -0.73,1.963 -2.08,2.609 0.42,-1.15 -4.86,-1.383 -5.68,-1.707 -1.59,-0.63 -1.57,-0.312 -2.99,0.627 -0.99,0.647 -1.9,-1.194 -2.83,-0.731 -1.31,0.65 -1.36,2.394 -3.34,1.67 -1.48,-0.542 -1.38,0.16 -0.99,1.149 0.21,0.535 0.99,0.138 0.56,0.907 -0.29,0.522 0.34,1.141 0.74,0.715 0.81,-0.867 2.86,1.914 3.3,2.41 -1.14,0.622 -2.59,-1.824 -3.76,-1.923 -2.72,-0.226 0.89,2.452 1.03,3.219 -1.27,0.411 -2.6,-1.813 -3.65,-2.235 -0.88,-0.353 -0.99,0.208 -0.66,0.87 0.49,0.967 1.45,1.209 2.22,1.869 -1.86,0.777 -2.31,-0.854 -2.85,-2.018 -0.6,-1.313 -2.56,-1.487 -3.41,-2.59 0.56,-0.163 0.84,-0.569 0.72,-1.152 -4.02,0.551 -2.17,5.02 -0.69,6.967 0.79,1.034 5.97,5.772 2.27,6.136 1.58,-0.552 0.1,-2.719 -1.08,-2.376 -1.53,0.448 -0.21,3.294 1.01,2.809 -0.78,1 -2.06,1.602 -3.32,1.224 0.82,0.423 3.1,1.049 3.45,1.856 0.28,0.648 1.07,-0.403 1.51,0.257 0.42,0.623 -0.64,0.688 0.82,1.099 1.53,0.433 2.48,1.317 3.93,1.968 1.07,0.481 1.01,1.381 0.87,2.388 -0.15,1.11 0.8,2.1 0.23,3.161 -1.22,-0.969 -2.28,-2.637 -3.92,-2.944 -1.2,-0.224 -2.36,0.726 -3.5,0.639 0,0.995 0.89,0.1 0.96,1.162 0,0.691 1.22,3.164 1.42,1.359 0.25,0.494 1.54,1.033 1.07,1.728 0.11,-0.161 -2.16,1 -1.8,1.008 -1.02,-0.02 -0.33,-1.054 -1.11,-1.365 -0.76,-0.307 -1.7,-0.377 -2.34,-0.939 -0.13,1.775 1.55,3.343 2.13,4.93 0.35,0.944 0.81,1.761 0.56,2.764 -0.23,0.885 1.12,1.143 0.93,1.972 -0.1,0.368 -2.63,-2.196 -2.85,-2.539 -1.27,-2.018 -2.38,1.199 -2,2.377 -1.09,0.155 -1.47,-2.918 -2.26,-3.469 -0.5,-0.353 -0.3,-1.329 -1.12,-1.247 -1.07,0.107 -0.89,1.467 -0.79,2.196 -2.16,-0.367 -2.91,-2.856 -2.04,-4.638 0.7,-1.449 -3.55,-4.231 -4.23,-5.227 0.85,-0.269 1.28,-1.471 1.89,-2.045 0.6,-0.559 1.3,0.04 1.96,-0.531 0.45,-0.395 0.95,-1.303 1.67,-1.164 1.32,0.255 2.22,1.612 3.68,1.743 1.15,0.102 1.9,0.938 2.82,1.494 0.74,0.441 1.09,-0.436 1.86,-0.896 0.61,-0.372 1.44,-0.921 0.1,-1.091 -0.75,-0.09 -1.39,0.02 -2.07,-0.407 -0.79,-0.488 -0.95,-1.355 -1.58,-0.343 -0.37,-0.522 -0.8,-0.979 -1.3,-1.368 0.11,1.871 -2.57,0.392 -3.33,0.563 -1.95,0.437 -3.2,1.047 -4.23,-0.778 -0.14,0.655 -0.74,1.139 -1.29,1.44 -0.37,-1.188 -0.67,-2.487 -1.72,-3.265 -0.55,-0.411 -2.11,-1.526 -1.31,-2.352 0.3,-0.312 4.25,0.932 2.45,-0.72 -0.56,-0.509 -2.66,-0.635 -2.52,0.647 -0.59,-1.745 -2.21,-1.994 -3.35,-3.122 -0.79,-0.792 -0.67,-2.948 -2.05,-3.07"></path>
		<path id="path6492" d="m 1498.35,381.294 c -1.17,-1.104 1.74,-2.073 2.52,-1.872 -0.62,0.49 -2.47,0.925 -2.52,1.872"></path>
		<path id="path6518" d="m 1447.52,357.318 c 0.26,0.168 0.52,0.336 0.79,0.504 -1.4,0.27 -3.24,-2.124 -3.17,-3.384 2.8,-0.276 0.41,2.246 2.38,2.88"></path>
		<path id="path6520" d="m 1451.7,366.606 c 0,-0.24 0,-0.479 0,-0.72 0.52,0.429 0.26,1.191 0.75,1.584 0.54,0.434 1.06,0.89 1.26,1.584 -0.63,0.245 -2.36,0.04 -2.3,-0.936 -0.24,0.147 -0.48,0.291 -0.72,0.432 -0.7,-1.299 0.55,-1.086 1.01,-1.944"></path>
		<path id="path6522" d="m 1452.7,362.646 c 0.37,0.445 0.29,2.549 -0.58,1.916 -0.5,-0.367 -0.18,-2.065 0.58,-1.916"></path>
		<path id="path6524" d="m 1453.06,367.182 c -0.36,-0.428 -0.63,-0.908 -0.79,-1.44 0.36,0.423 0.63,0.903 0.79,1.44"></path>
		<path id="path6526" d="m 1454.14,372.87 c -0.7,-0.431 -1.6,-1.069 -1.51,-2.017 1.52,0 2.41,0.8 1.51,2.017"></path>
		<path id="path6528" d="m 1469.77,383.814 c 0.49,0.579 1.21,1.682 0,1.944 -0.16,-0.578 -0.74,-1.47 0,-1.944"></path>
		<path id="path6530" d="m 1472.93,369.846 c 0.47,0.755 0.1,0.944 -0.57,0.937 0,-0.415 0.21,-0.727 0.57,-0.937"></path>
		<path id="path6532" d="m 1473.01,372.654 c -0.2,-0.248 -0.37,-0.512 -0.51,-0.791 0.81,-0.233 0.98,0.03 0.51,0.791"></path>
		<path id="Greece_Euboea" d="m 1473.44,365.814 c 0.33,-1.482 -3.69,-4.209 -4.9,-3.168 0.58,-0.65 1.23,-1.68 2.22,-1.708 1.14,-0.03 1.56,1.291 2.24,1.945 1.01,0.981 2.49,0.588 3.68,1.132 1.39,0.635 0.72,2.477 1.47,3.534 0.6,0.848 1.86,0.561 2.34,1.632 0.65,1.466 -1.61,0.278 -1.93,0 -0.73,-0.676 -1.2,-2.281 -2.05,-2.7 -0.92,-0.451 -2.44,0.424 -3.07,-0.658"></path>
		<path id="path6536" d="m 1474.01,360.63 c -0.26,-0.198 -0.5,-0.415 -0.72,-0.648 0.54,-0.14 0.85,0.06 0.72,0.648"></path>
		<path id="Greece_Crete" d="m 1478.7,393.966 c -0.96,0.209 -2.98,0.08 -3.89,-0.313 -0.93,-0.403 -0.33,-1.923 -0.29,-2.639 0.23,0.148 0.47,0.292 0.72,0.432 0.26,-0.472 0.36,-0.976 0.29,-1.512 0.58,1.768 2.02,1.025 3.38,0.864 -1.35,0.525 -0.36,0.761 0.21,1.28 0.86,0.789 1.66,0.64 2.7,0.268 2.15,-0.769 4.4,0.58 6.56,0.685 0.61,0.03 1.76,-0.593 1.79,0.47 0,0.439 -0.29,1.018 0.38,0.976 1.01,-0.06 2.15,-0.961 3.15,-0.77 0.48,0.09 0.61,1.137 0.32,1.46 -0.38,0.434 -1.17,0.416 -1.69,0.413 -2.08,-0.01 -4.09,0.198 -6.13,0.599 -0.75,0.146 -1.72,0.439 -2.44,0.03 -0.62,-0.358 -0.51,-1.134 -1.16,-1.441 -1.21,-0.578 -2.62,-0.487 -3.9,-0.799"></path>
		<path id="path6540" d="m 1478.77,373.95 c -0.29,-0.583 0,-1.062 0.57,-1.297 0.1,0.561 -0.1,0.994 -0.57,1.297"></path>
		<path id="path6542" d="m 1479.49,381.51 c 0,-0.264 0,-0.528 0,-0.792 0.5,0.497 1.1,0.43 1.51,-0.143 0,0.948 -0.89,0.772 -1.51,0.935"></path>
		<path id="path6544" d="m 1479.78,347.741 c -1.01,-0.281 -1.11,-2.119 0.14,-1.872 1.12,0.225 0.9,1.722 -0.14,1.872"></path>
		<path id="path6546" d="m 1480.13,363.294 c -0.1,-0.814 -1.17,-0.842 -0.86,-1.729 0.89,0.06 1.19,0.981 1.51,1.656 -0.22,0.02 -0.44,0.05 -0.65,0.07"></path>
		<path id="path6548" d="m 1482.08,379.279 c -0.12,-0.24 -0.24,-0.48 -0.36,-0.721 0.82,0 0.94,0.24 0.36,0.721"></path>
		<path id="path6550" d="m 1483.3,352.638 c 0.81,-0.123 1.6,0.354 2.38,-0.07 -0.28,0.467 -0.42,0.971 -0.43,1.513 -1.11,-0.607 -2.8,0.707 -1.95,-1.441"></path>
		<path id="path6552" d="m 1483.45,372.582 c -0.66,-0.707 -1.21,-1.535 -2.02,-2.089 0.2,-0.241 0.44,-0.433 0.72,-0.575 0.34,1.145 2.15,1.146 1.3,2.664"></path>
		<path id="path6554" d="m 1483.74,372.654 c 0.66,0.199 1.68,0.127 1.72,1.08 -0.75,0.141 -1.5,-0.381 -1.72,-1.08"></path>
		<path id="path6556" d="m 1483.95,382.014 c -0.27,-0.144 -0.53,-0.288 -0.79,-0.432 0.53,-0.06 0.46,0.172 0.79,0.432"></path>
		<path id="path6558" d="m 1485.46,378.702 c -0.63,-0.494 -0.58,-1.089 0.15,-1.44 0.43,0.477 0.34,1.052 -0.15,1.44"></path>
		<path id="path6560" d="m 1486.4,374.958 c -0.55,-0.749 -0.39,-0.966 0.5,-0.648 -0.17,0.216 -0.34,0.432 -0.5,0.648"></path>
		<path id="path6562" d="m 1486.83,381.51 c -0.24,-0.192 -0.48,-0.384 -0.72,-0.576 0.54,-0.32 1.07,-0.05 0.72,0.576"></path>
		<path id="path6564" d="m 1486.9,348.39 c 0,0.24 0,0.479 0,0.72 -0.58,0.113 -1.02,-0.198 -1.08,-0.792 0.36,-0.102 0.72,-0.08 1.08,0.07"></path>
		<path id="path6566" d="m 1487.33,379.206 c -0.27,-0.36 -0.82,-1.028 -0.55,-1.542 0.15,-0.279 0.93,-0.925 1.25,-0.673 0.56,0.437 -0.23,1.986 -0.7,2.215"></path>
		<path id="path6568" d="m 1489.86,380.502 c 0.28,-0.798 1.07,-1.155 1.87,-1.152 -0.69,0.281 -1.21,0.835 -1.87,1.152"></path>
		<path id="path6570" d="m 1490.72,368.55 c -1.6,-0.616 0.34,-2.477 -1.44,-3.168 1.88,-2.438 3.29,2.006 1.44,3.168"></path>
		<path id="path6572" d="m 1490.86,374.094 c 0.1,-1.3 1.65,-1.107 2.52,-1.512 -0.42,0.933 -1.56,1.437 -2.52,1.512"></path>
		<path id="path6574" d="m 1493.17,361.566 c -0.82,-0.09 -1.56,-0.495 -2.24,-0.936 0.23,-0.18 0.48,-0.348 0.73,-0.504 -0.67,-0.06 -1.5,0.299 -2.09,-0.122 -1.11,-0.784 0.12,-1.144 0.83,-1.338 2.23,-0.604 2.92,0.249 4.13,2.396 -0.58,-0.355 -1.09,-0.05 -1.36,0.504"></path>
		<path id="path6576" d="m 1496.7,372.942 c -0.13,-0.138 -2.73,-0.904 -1.14,-1.335 0.85,-0.23 1.75,0.422 2.57,0.184 -0.23,0.613 -0.78,1.074 -1.43,1.151"></path>
		<path id="path6578" d="m 1497.34,377.622 c -0.24,-0.216 -0.48,-0.433 -0.72,-0.648 0.57,0 0.55,0.203 0.72,0.648"></path>
		<path id="path6580" d="m 1498.21,379.134 c -0.55,-0.702 -0.4,-0.942 0.43,-0.72 -0.15,0.241 -0.29,0.48 -0.43,0.72"></path>
		<path id="path6582" d="m 1500.22,392.31 c -0.29,-1.361 -0.24,-2.375 0.29,-3.672 0.19,0.776 0.42,3.239 -0.29,3.672"></path>
		<path id="Greece_Rhodes" d="m 1505.48,387.126 c -0.73,1.979 -1.35,-0.231 -1.45,-1.007 -0.2,-1.493 2.06,-2.571 3.32,-2.81 0.21,0.875 -0.29,1.691 -0.53,2.493 -0.43,1.446 -0.55,0.246 -1.34,1.324"></path>
	</g></svg>
