<svg xmlns="http://www.w3.org/2000/svg" viewBox="1440.2 331 72.2 72.2"><g fill="#2b1d24"><path d="M1447.7 355.4h1.7c1-.6-.7-1.3 1-1.1-.6-1.4-1-1.4.3-2.1q1.4-.7 1.8-2.1c.4-1.3 1-1.2 1.7-2.1.9-1-.4-2-.3-3 .6.4 1.5-.1 2.5-.1 2.2 0 3.4-1.3 5.2-2.1 1.2-.6 2.6.2 4-.3.8-.3.3-1.4 1.4-1.4.8 0 1.7.8 2.4.3 1-.6 2.4-.2 3.4-.4 1-.1 2-1.3 3-1.6.9-.2 2.2-.7 2.9 0s1 1.8 2.1 1.5 2 .5 3 .7 2-.4 3-.3c.9 0 2 .3 2.9-.3 1-.8-.1-1.7-.4-2.5-.5-1.4 2.5-.4 2.8-.2 1 .6.9 1.5 1.2 2.5-2.2 1-1.6 1.5-1.7 2.9q-.1 1.6-2.1 2.6c.4-1.1-4.9-1.4-5.7-1.7-1.6-.6-1.6-.3-3 .6-1 .7-1.9-1.2-2.8-.7-1.3.6-1.4 2.4-3.3 1.7-1.5-.6-1.4.1-1 1.1.2.5 1 .1.5 1-.3.4.4 1 .8.6.8-.8 2.8 2 3.3 2.4-1.2.7-2.6-1.8-3.8-1.9-2.7-.2.9 2.5 1 3.2-1.2.5-2.6-1.8-3.6-2.2q-1.2-.3-.7.9c.5 1 1.5 1.2 2.2 1.8-1.8.8-2.3-.8-2.8-2-.6-1.3-2.6-1.5-3.4-2.6q.8-.2.7-1.1c-4 .5-2.2 5-.7 7 .8 1 6 5.7 2.3 6 1.6-.5 0-2.6-1.1-2.3-1.5.5-.2 3.3 1 2.8q-1.3 1.7-3.3 1.2c.8.5 3 1 3.4 1.9.3.6 1.1-.4 1.6.3s-.7.6.8 1 2.5 1.4 3.9 2c1 .5 1 1.4.9 2.4-.2 1.1.8 2.1.2 3.2-1.2-1-2.3-2.7-4-3-1.1-.2-2.3.8-3.4.7 0 1 .9 0 1 1.1 0 .7 1.2 3.2 1.4 1.4.2.5 1.5 1 1 1.7.1-.1-2.1 1-1.8 1-1 0-.3-1-1-1.3q-1.3-.3-2.4-1c-.1 1.8 1.5 3.4 2.1 5q.8 1.3.6 2.7c-.3.9 1 1.2.9 2-.1.4-2.6-2.2-2.8-2.6-1.3-2-2.4 1.2-2 2.4-1.1.2-1.5-2.9-2.3-3.4-.5-.4-.3-1.4-1.1-1.3-1.1.1-1 1.5-.8 2.2-2.2-.4-3-2.9-2-4.6.6-1.5-3.6-4.3-4.3-5.3.9-.2 1.3-1.4 1.9-2s1.3 0 2-.5c.4-.4 1-1.3 1.6-1.2 1.4.3 2.3 1.6 3.7 1.7 1.2.1 2 1 2.8 1.5s1.1-.4 1.9-.9c.6-.3 1.4-.9 0-1q-1 0-2-.5c-.8-.4-1-1.3-1.6-.3q-.5-.8-1.3-1.4c.2 1.9-2.5.4-3.3.6-2 .4-3.2 1-4.2-.8q-.4 1-1.3 1.5-.4-2-1.7-3.3c-.6-.4-2.1-1.5-1.3-2.4.3-.3 4.2 1 2.4-.7-.5-.5-2.6-.6-2.5.7-.6-1.8-2.2-2-3.4-3.2-.7-.7-.6-2.9-2-3m50.7 25.9c-1.2-1.1 1.7-2 2.5-1.9-.7.5-2.5 1-2.6 1.9m-50.8-24 .8.5c-1.4.3-3.2-2.1-3.2-3.4 2.8-.2.4 2.3 2.4 3m4.2 9.2v-.7c.5.4.3 1.2.8 1.6q.8.6 1.2 1.6c-.6.2-2.4 0-2.3-1l-.7.4c-.7-1.2.5-1 1-1.9"/><path d="M1452.7 362.6c.4.5.3 2.6-.6 2-.5-.4-.2-2.1.6-2m.3 4.6-.7-1.5zm1.1 5.7c-.7-.5-1.6-1.1-1.5-2 1.6 0 2.4.8 1.5 2m15.7 10.9c.5.6 1.2 1.7 0 2-.2-.6-.8-1.5 0-2m3.2-14q.5 1.1-.6 1 0-.6.5-1m.1 2.9-.5-.8q1.2-.4.5.8m.4-6.9c.4-1.5-3.7-4.2-4.9-3.2.6-.6 1.3-1.6 2.3-1.7 1.1 0 1.5 1.3 2.2 2 1 1 2.5.6 3.7 1.1 1.4.6.7 2.5 1.5 3.5.6.9 1.8.6 2.3 1.7.6 1.4-1.6.3-2 0-.7-.7-1.1-2.3-2-2.7-1-.5-2.4.4-3-.7m.5-5.2-.7-.6q.8-.3.7.6m4.7 33.4c-1 .2-3 0-3.9-.3-1-.4-.3-2-.3-2.7l.7.4q.5-.7.3-1.5c.6 1.8 2 1 3.4.9-1.3.5-.4.8.2 1.3q1.3 1 2.7.2c2.2-.7 4.4.6 6.6.7.6 0 1.7-.6 1.8.5 0 .4-.3 1 .4 1 1 0 2.1-1 3.1-.8.5.1.6 1.1.3 1.5q-.7.5-1.7.4-3 0-6.1.6c-.7.1-1.7.4-2.4 0-.7-.3-.5-1.1-1.2-1.4-1.2-.6-2.6-.5-3.9-.8m.1-20q-.4-1 .5-1.3.2.8-.5 1.2m.7 7.6v-.8q.8.7 1.5-.1c0 1-.9.7-1.5 1m.3-33.9c-1-.2-1.1-2 .1-1.8 1.1.2 1 1.7-.1 1.8m.3 15.6c0-.8-1.1-.8-.8-1.7.9 0 1.2 1 1.5 1.6zm1.9 16q0-.4-.3-.7 1.2 0 .4.7m1.2-26.7c.8 0 1.6.4 2.4 0a3 3 0 0 0-.4 1.5c-1.2-.6-2.8.7-2-1.5m.2 20q-1-1.2-2-2.1l.7-.6c.3 1.2 2.1 1.2 1.3 2.7m.2.1c.7.2 1.7 0 1.8 1q-1.3.2-1.8-1m.3 9.3-.8-.4c.5 0 .4.2.8.4m1.5-3.3q-1-.8.1-1.4.6.7-.1 1.4m.9-3.7q-.8-1.2.5-.7zm.4 6.5-.7-.6q1-.4.7.6m.1-33.1v.7q-1 .1-1-.8zm.4 30.8c-.2-.4-.8-1-.5-1.5.1-.3 1-1 1.2-.7.6.4-.2 2-.7 2.2m2.6 1.3q.5-1.2 1.8-1.1zm.8-11.9c-1.6-.7.4-2.5-1.4-3.2 1.9-2.5 3.3 2 1.4 3.2m.2 5.4c0-1.2 1.6-1 2.5-1.4-.4 1-1.6 1.4-2.5 1.5m2.3-12.5q-1.2-.2-2.3-1l.8-.5c-.7 0-1.5.3-2.1-.1-1.1-.8 0-1.1.8-1.3 2.2-.6 3 .2 4.1 2.4q-.8-.4-1.3.5m3.5 11.4c-.1-.2-2.7-1-1.1-1.4.8-.2 1.7.4 2.5.2q-.4 1-1.4 1.1m.6 4.7-.7-.6q.7 0 .7.6m.9 1.5q-.8-1.1.4-.7zm2 13.2q-.5-2 .3-3.7c.2.8.4 3.3-.3 3.7m5.3-5.2c-.7 2-1.4-.2-1.5-1-.2-1.5 2-2.6 3.3-2.8.3.9-.2 1.7-.5 2.5-.4 1.4-.5.2-1.3 1.3"/></g></svg>
