<svg xmlns="http://www.w3.org/2000/svg" viewBox="598 541.3 41.2 41.2"><path fill="#2b1d24" d="M602.8 572.7c.8-1 .7-2 1-3.2.1-.6 1-1 .7-1.6-.3-1.1-.3-1.3.4-2.5 1-1.7 1.9-3.8 2.6-5.3.7-1.4 3.5-.6 5-.6.8 0 5.1.5 5.6-.2l.4-3c-.5-.5-1.2-.3-1.4-1q0-1.4-1.2-2c-1.7-1-2.7-2.7-4-4 1 0 2.8.4 3.4-.7s-.2-2.9.7-3.9 5-.3 6.3-.3h7.6c-.7 2.7-.7 5.5-1.2 8.3q-1 4.2-1.6 8.4c1.3-.2 4.2-.2 4.4 1.6q.2-.7 1-1.2l-.6-.7 2.6 1.7c-2.4 1-4 3.5-6.2 4.8-1 .6-2.4 1.3-2 2.8.1 1 .4 1.7-.5 2.5-.8.7-3 1.1-2.8 2.3.1.7-.4.5-.9 1l-.8 1.1c-1 .5-3.4.6-3 2.7q-1.6-1.1-3.5-1.6c-1.3-.3-2.7.2-4 0-3.3-.4-5.8-3.2-8-5.4"/></svg>
