<svg xmlns="http://www.w3.org/2000/svg" viewBox="1172.3 583 26.9 26.9"><g fill="#2b1d24"><path d="M1177 599.3v-.6l-.8.6zm.5-3.1q.9-.5-.3-.8 0 .4.3.8m.6 7 .9-.5c-.6-1.2-2-.4-.9.5m1.2-7.5-1 .2c0 1 1.3.9 1-.2m0 3.2-.3.7q1 .4 1-.6zm1.8 3.1q.6-.5.8-1.2-.9.3-.8 1.2m3.6.1q.4-1-.8-.5z"/><path d="M1174.2 592c.7-.5 1.6-.1 2.3-.5q1.2-.6 2.5-.8c1.9 0 3.7.4 5.3-1 1.4-1.2 3.2-.8 4.9-.8h7.8c-.2 1 .9 2.2 0 3-.5.5-1.9.4-2 1.2-.3 1 3.4 1.8 1.5 3.9-1 1-2.3.5-3.5.7-1.1.2-2.5 1-3.6 1.4-2 .6-1 4.1-3 4.8-.6-1.8-.8-2-2.5-3l.5-.7c-1.5 1-.1-3.4 2-1.7-.5-1.4-1.8-.5-2.5.1-.7-1.3-.9-2.1.7-2.7 1.3-.4 1.8 1 3 1q-1.2-.8-.4-1.7-.8-.2-1.4.1c-.7.4-1.3 0-2 0q-1 .4-1.7 1.1c-.7.6-1.6.5-2.4.7 0-1.3 1.1-1.7 2-2.5-1.2 0-2.2 1.2-3.5 1-2.4-.6-.8-2.7.3-3.5l-1.3.2-.8.8c-1 0-1.4-1-2.3-1.1"/></g></svg>
