<svg xmlns="http://www.w3.org/2000/svg" viewBox="813.99 619.67 73.36 73.36"><path id="gy" d="m 832.346,647.118 c 0.729,-1.434 1.953,-2.131 1.743,-4.34 -0.142,-1.497 0.538,-1.946 1.444,-2.442 0.204,-0.112 0.725,-1.011 1.412,-0.555 0.875,0.58 0.823,-0.05 1.582,-0.575 0.668,-0.465 1.967,-0.795 2.313,-1.441 0.302,-0.564 -0.172,-1.416 -0.896,-1.157 -1.806,0.645 -0.845,-1.194 -1.607,-2.191 -0.692,-0.907 0.174,-1.95 0.754,-2.665 0.729,-0.9 0.58,-0.85 1.624,-1.383 1.401,-0.716 2.166,-2.137 3.44,-2.753 1.733,-0.839 0.347,-1.472 -0.44,-2.891 1.176,1.375 2.896,2.283 4.251,3.456 -0.655,-1.004 -2.009,-1.242 -2.52,-2.376 1.665,0.753 3.407,1.846 4.639,3.211 0.993,1.101 2.253,3.235 3.485,3.953 1.373,0.8 1.729,3.376 1.243,4.73 -0.364,1.015 -0.89,1.709 -1.018,2.825 -0.111,0.965 -0.135,2.017 -0.708,2.85 1.904,-0.349 0.466,-5.006 3.401,-3.964 2.203,0.782 4.91,2.354 5.448,4.899 1.435,-1.292 2.451,1.376 2.652,2.403 0.351,1.788 -0.332,4.485 -1.492,5.877 1.928,0.546 0.274,1.924 -0.165,2.448 -0.422,0.505 -5.458,-1.08 -5.172,2.23 0.174,2.011 0.149,3.322 -0.163,5.296 -0.21,1.328 0.983,3.96 1.954,4.859 0.992,0.918 0.329,2.021 1.815,2.231 0.311,0.04 1.118,-0.341 1.308,-0.04 0.612,0.959 0.691,2.149 0.86,3.24 0.314,2.036 2.432,3.695 2.432,5.697 0,2.034 2.301,1.972 3.03,3.204 -2.463,1.577 -4.856,-1.6 -7.214,0.338 -0.395,0.324 -0.63,0.764 -0.983,1.123 -0.649,0.661 -1.47,0.375 -2.256,0.648 -1.442,0.501 -1.506,1.218 -3.206,1.24 -0.528,0 -0.83,0.418 -1.172,0.755 -0.261,0.04 -0.501,0.14 -0.72,0.288 0.06,0.299 0.103,0.601 0.117,0.907 -0.374,0.749 -2.458,1.082 -3.217,0.822 -0.528,-0.181 -0.187,-0.792 -0.937,-0.798 -0.597,0 -1.793,-0.45 -2.019,-1.063 -0.363,-0.991 -1.782,-2.528 -2.875,-2.675 0.1,-0.239 0.195,-0.479 0.29,-0.72 -1.011,0.06 -0.894,-0.842 -0.771,-1.533 0.213,-1.202 -0.101,-1.665 -0.826,-2.54 -1.202,-1.45 -1.146,-4.214 -0.773,-5.933 0.287,-1.325 1.269,-2.541 1.275,-3.94 0,-1.211 0.342,-1.121 1.042,-2.143 0.439,-0.64 1.375,-1.764 0.962,-2.527 -0.332,-0.611 -1.2,-1.464 -1.2,-2.193 0,-0.702 0.37,-1.373 -0.439,-1.725 -0.56,-0.243 -1.984,-0.265 -2.327,-0.842 -0.323,-0.542 0.805,-2.172 0.916,-2.802 0.185,-1.05 0.05,-2.264 -0.788,-3.018 -1.247,-1.125 -3.293,0.646 -4.804,-0.101 -1.797,-0.887 -3.909,-4.438 -4.724,-6.2" fill="#2B1D24">
		
	</path></svg>
