<svg xmlns="http://www.w3.org/2000/svg" viewBox="620.82 543.7 55.21 55.21"><g id="hn" fill="#2B1D24">
		
		<path id="Honduras_mainland" d="m 624.63,573.68 c 0.542,-1.348 2.303,-1.653 1.461,-3.342 -0.472,-0.945 0.844,-2.392 1.577,-2.724 1.694,-0.766 3.023,-2.23 4.396,-3.474 0.539,-0.489 1.264,-0.92 1.896,-1.299 0.732,-0.439 1.146,0.165 1.739,-0.534 0.817,-0.963 2.679,-1.82 3.647,-0.833 0.704,0.719 4.192,0.8 5.239,0.704 1.461,-0.133 3.688,0.222 4.945,-0.582 0.45,-0.288 3.791,-1.028 1.956,-1.596 1.641,-0.05 3.052,0.979 4.681,1.008 1.68,0.03 3.635,-1.201 5.138,0.13 1.278,1.132 2.007,0.01 3.286,0.662 1.489,0.759 2.262,2.513 3.384,3.672 -0.519,-0.264 -1.008,-1.08 -1.645,-1.08 -0.621,0 -1.164,0.108 -1.667,-0.36 0.482,0.271 0.506,0.823 0.629,1.288 0.09,0.342 1.039,1.064 1.315,1.376 0.197,-0.577 -0.07,-0.96 -0.647,-1.079 0.699,-0.755 1.802,1.411 3.168,0.72 0.09,0.473 0.244,0.655 -0.07,1.08 1.452,-0.366 0.126,-1.34 -0.576,-1.584 2.335,0.329 1.896,2.304 3.744,3.023 -1.315,0.225 -2.538,0 -3.701,0.806 -1.016,0.712 -3.098,1.391 -4.334,1.358 -0.981,-0.02 -1.88,1.025 -2.722,0.772 -0.596,-0.179 -1.155,-0.399 -1.699,-0.704 -0.252,-0.142 -0.275,-0.649 -0.525,-0.7 -1.37,-0.278 -1.51,1.463 -1.995,2.212 -0.313,0.483 -0.865,0.713 -1.152,1.224 -0.157,0.279 0.208,0.768 -0.06,0.963 -0.998,0.724 -4.139,2.494 -4.619,4.149 -2.18,-1.391 -2.615,-2.608 -4.021,-0.24 -0.977,1.645 -3.947,0.132 -3.792,1.572 0.154,1.429 0.781,3.092 -0.902,3.374 -0.886,0.148 -0.744,1.105 -0.979,1.742 -0.408,1.105 -1.953,0.706 -2.835,0.824 0.652,-1.06 -2.595,-2.526 -0.288,-3.385 -0.712,0.236 -1.668,0.225 -1.8,-0.72 -0.21,0.799 -0.865,1.026 -1.512,0.504 0.855,-0.279 0.701,-1.172 0.746,-1.874 0.07,-1.138 1.111,-2.411 -0.895,-2.427 -0.658,0.52 -1.013,0.423 -1.067,-0.29 -0.204,-0.255 -0.468,-0.354 -0.792,-0.299 -0.934,0.106 -1.724,0.849 -2.672,0.858 0.712,-1.601 -5.25,-4.155 -5.977,-4.895"></path>
		<path id="path6082" d="m 647.09,557.77 c 0.871,-0.577 1.834,-0.998 2.808,-1.368 -1.009,0.01 -2.305,0.409 -2.808,1.368"></path>
	</g></svg>
