<svg xmlns="http://www.w3.org/2000/svg" viewBox="620.8 543.7 55.2 55.2"><path fill="#2b1d24" d="M624.6 573.7c.6-1.4 2.3-1.7 1.5-3.4-.5-1 .8-2.4 1.6-2.7q2.4-1.4 4.4-3.5l1.9-1.3c.7-.4 1.1.2 1.7-.5.8-1 2.7-1.8 3.6-.8.8.7 4.2.8 5.3.7 1.4-.2 3.7.2 5-.6.4-.3 3.7-1 1.9-1.6 1.6 0 3 1 4.7 1 1.6 0 3.6-1.2 5.1.1 1.3 1.2 2 0 3.3.7 1.5.8 2.3 2.5 3.4 3.7-.5-.3-1-1.1-1.7-1.1q-.9.2-1.6-.4.5.6.6 1.3c0 .4 1 1 1.3 1.4q.3-1-.6-1c.7-.8 1.8 1.3 3.1.6q.3.6 0 1.1c1.4-.3 0-1.3-.6-1.6 2.3.4 1.9 2.3 3.7 3-1.3.3-2.5 0-3.7.9a9 9 0 0 1-4.3 1.3c-1 0-1.9 1-2.7.8l-1.7-.7-.6-.7c-1.3-.3-1.5 1.5-2 2.2l-1.1 1.2c-.2.3.2.8 0 1-1 .7-4.2 2.5-4.7 4.1-2.2-1.4-2.6-2.6-4-.2-1 1.6-4 .1-3.8 1.6.2 1.4.8 3-.9 3.3-.9.2-.7 1.1-1 1.8-.4 1-2 .7-2.8.8.6-1-2.6-2.5-.3-3.4-.7.3-1.7.2-1.8-.7q-.5 1.2-1.5.5c.8-.3.7-1.2.7-1.9.1-1.1 1.1-2.4-.9-2.4q-1 .8-1-.3l-.8-.3c-1 .1-1.7.9-2.7.9.7-1.6-5.2-4.2-6-5m22.4-15.8q1.5-.9 2.9-1.4c-1 0-2.3.4-2.8 1.4"/></svg>
