<svg xmlns="http://www.w3.org/2000/svg" viewBox="1397.6 290.7 46.9 46.9"><g fill="#2b1d24"><path d="m1401.4 305.8 1.5.3c.7.2 1.2-.5 1.5-.6.2 0 1.6 1.4 3.7-1.3 1.4 1.2 2.4.8 3.8 1.6 1.9 1 1-1.3 1.8-1.5l-1-.5c2.8-2 3.5.1 2.5-3.8-.2-.5 2.3-.9 2.7-1.3.7-.6 0-.4.7-.8l1.1.2c-1.9-2.1 1.7-1.3 2.4-.5.5.5 3.2 2 3.6 2.6q2.3 2.2 5.8 3.1c5.4.3 3-1 5.3-1.4 0-.5.4.6.7 1.2.5 1 0 2.2 1.5 2.2-2.3 1.6 2.7 2.5 2.2 2.9l-2.2.5c.7 1.2-.3 3.2-1.8 2-1-1.8-1-.8-1.4-1.3q-1.4-.7-2.8-.3c-1 .3-1-.5-2 0-.7.4-1.2 0-1.9-.2q-2.5-.1-4.8-1c-1.1.1.5.6-1.3.1-1.4-.4-1.5 0-2 .8-.9 1.8-1 1-2.7-.3-2.2-1.6-2 1.4-1.8 2.5.1.7-.1.8.6 1.1a6 6 0 0 1 2.1 1.6c1 1.3 0 3 2 4.2 1.9 1.1 3 3 4.7 4.3 1.4 1 2 2.4 3.3 3.4 1.5 1.3.7 2.8-1 .8s-6-5-8.8-3.9q-.9.4-1.5-.6c-.6-.8-.3-1-1.4-1.5-1.6-.8-3.8-2.6-4.4-4.3q1.5-.2 2.9.1c-1.3-1-3-1.7-3.8-3-.8-1.2-.3-2.7-1-3.9-.7-1-2.1-2-3.3-2.3-.8-.2-1.6 2.2-1.4 2.9-.4-.2-.5 0-.8-.4q0 1.3-1 2.3c-.5-.4-2.1-2.4-1.3-3-1 .1-1.4-2.4-1.6-3.1z"/><path d="M1430 327.9c.8-.7 1.7.3 2.7 1.2 1.3 1.1 4.1 1.4 3.2 2.4-1.1-.1-3.1-1.8-4-2.5s-1.9-.5-2.8-.8c-1-.4-1.8-1.3-3-1.1 1.2-1 3.5.5 4.4 1.2zm-23.2-18q-.7-.7-.4-1.5c.8 1.3 1 3 1.4 4.4-1-.1-1.8-2.2-1-3m1.8.1c-.6-.1-1.8-1.4-.7-1.8.8-.2 1.3 1.5 1.9 1.8q-.6.6-1.2 0m.5 1.4.8.4q-1 .5-.8-.4m1.5 5.4-.7-.6q.4.2.7.6m.7-2.1a10 10 0 0 1-1.9-2.2c1 1.2 2.5 1.6 3.3 2.9-.7.5-1-.1-1.4-.7m.1 3.4-.7-.6c.9 0 1.1 1.1 1.8 1.5q-.8 0-1.1-.9m1.6 1.5q.8.4 1.5 1.1-.8-.4-1.5-1.2m0-1.2-.7-.5q.6 0 .7.5m2.8 3 .8.3q-.5 0-.8-.3m4.1 1.4h.7zm1.1 1.5-.7-.3q.5 0 .7.3m2.2.6c-.8 0-1.7-.2-1.8-1q1.5-.2 3 .4zm1.4 3.1-1.6-.2c1-.8 2.8-.7 3.8 0-.8.1-1.5-.3-2.2.2m1.3-1.8q-2.3 0-4.5-.6c1.7-.5 3.5.4 5.2.3zm4.8 3.5-2.3-.5q1.2-.1 2.3.5"/></g></svg>
