<svg xmlns="http://www.w3.org/2000/svg" viewBox="1397.56 290.71 46.89 46.89"><g id="hr" fill="#2B1D24">
		
		<path id="path4066" d="m 1401.44,305.77 c 0.49,0.115 0.98,0.244 1.48,0.351 0.64,0.138 1.15,-0.483 1.5,-0.604 0.17,-0.06 1.62,1.336 3.72,-1.349 1.31,1.278 2.37,0.816 3.78,1.602 1.85,1.027 0.94,-1.24 1.76,-1.44 -0.36,-0.08 -0.66,-0.388 -1.01,-0.504 2.85,-2.047 3.53,0.111 2.49,-3.785 -0.13,-0.496 2.37,-0.942 2.78,-1.334 0.63,-0.601 0,-0.391 0.63,-0.82 0,0 0.99,0.247 1.16,0.252 -1.9,-2.167 1.67,-1.302 2.38,-0.587 0.51,0.504 3.22,2.134 3.58,2.626 1.45,1.628 3.56,2.425 5.82,3.161 5.38,0.3 2.94,-1.113 5.32,-1.441 0,-0.519 0.38,0.582 0.69,1.231 0.45,0.936 0,2.154 1.43,2.21 -2.29,1.593 2.75,2.504 2.22,2.834 l -2.22,0.55 c 0.72,1.191 -0.21,3.149 -1.72,1.975 -1,-1.77 -0.97,-0.836 -1.47,-1.317 -0.94,-0.343 -1.8,-0.54 -2.74,-0.292 -1.03,0.27 -0.96,-0.519 -1.97,0.03 -0.74,0.408 -1.24,-0.02 -1.95,-0.184 -1.69,-0.04 -3.18,-0.581 -4.77,-1.035 -1.17,0.106 0.46,0.6 -1.36,0.106 -1.33,-0.361 -1.44,-0.02 -1.89,0.803 -0.98,1.771 -1.13,0.992 -2.82,-0.265 -2.19,-1.616 -1.89,1.345 -1.75,2.448 0.1,0.682 -0.13,0.806 0.58,1.11 0.63,0.273 1.7,0.948 2.14,1.567 0.93,1.287 0,3.087 1.95,4.248 1.9,1.11 2.97,2.961 4.73,4.275 1.42,1.058 2.07,2.369 3.29,3.436 1.48,1.287 0.74,2.769 -0.93,0.819 -1.73,-2.017 -6.04,-4.973 -8.83,-3.934 -0.73,0.272 -1.11,0 -1.58,-0.617 -0.58,-0.755 -0.22,-0.957 -1.33,-1.504 -1.6,-0.799 -3.81,-2.61 -4.44,-4.328 1,-0.172 1.9,-0.03 2.89,0.145 -1.3,-0.952 -2.9,-1.665 -3.8,-3.062 -0.76,-1.167 -0.26,-2.662 -0.99,-3.819 -0.65,-1.017 -2.09,-1.989 -3.25,-2.306 -0.85,-0.233 -1.63,2.224 -1.47,2.851 -0.37,-0.152 -0.5,-0.04 -0.79,-0.36 -0.11,0.824 -0.31,1.706 -0.94,2.304 -0.51,-0.395 -2.17,-2.439 -1.37,-3.096 -0.91,0.211 -1.35,-2.287 -1.58,-3.024 0.21,0.02 0.43,0.05 0.65,0.07"></path>
		<path id="path4068" d="m 1430.02,327.87 c 0.74,-0.657 1.66,0.34 2.68,1.24 1.28,1.123 4.13,1.358 3.23,2.432 -1.16,-0.161 -3.17,-1.794 -4.08,-2.525 -0.8,-0.64 -1.84,-0.543 -2.76,-0.859 -1,-0.342 -1.83,-1.227 -2.96,-1.079 1.18,-0.906 3.46,0.498 4.4,1.224 -0.17,-0.145 -0.34,-0.289 -0.51,-0.433"></path>
		<path id="path4070" d="m 1406.77,309.87 c -0.41,-0.437 -0.53,-0.94 -0.36,-1.513 0.83,1.372 0.98,2.96 1.44,4.464 -0.96,-0.143 -1.89,-2.246 -1.08,-2.951"></path>
		<path id="path4072" d="m 1407.99,314.33 c -0.39,-0.498 -0.79,-0.978 -1.22,-1.44 0.51,0.368 0.95,0.865 1.22,1.44"></path>
		<path id="path4074" d="m 1408.64,309.87 c -0.65,-0.07 -1.8,-1.394 -0.72,-1.729 0.75,-0.233 1.33,1.443 1.87,1.729 -0.39,0.398 -0.78,0.398 -1.15,0"></path>
		<path id="path4076" d="m 1409.14,311.31 c 0.24,0.144 0.48,0.288 0.72,0.432 -0.65,0.306 -0.89,0.162 -0.72,-0.432"></path>
		<path id="path4078" d="m 1410.58,316.71 c -0.24,-0.192 -0.48,-0.384 -0.72,-0.576 0.32,0.1 0.56,0.292 0.72,0.576"></path>
		<path id="path4080" d="m 1411.30,314.62 c -0.7,-0.672 -1.4,-1.37 -1.87,-2.232 0.88,1.22 2.43,1.662 3.31,2.88 -0.7,0.537 -1.12,-0.116 -1.44,-0.648"></path>
		<path id="path4082" d="m 1411.37,318.01 c -0.24,-0.216 -0.47,-0.433 -0.71,-0.648 0.93,0.07 1.15,1.165 1.87,1.584 -0.55,-0.112 -0.94,-0.424 -1.16,-0.936"></path>
		<path id="path4086" d="m 1413.03,319.45 c 0.56,0.312 1.06,0.695 1.51,1.152 -0.57,-0.262 -1.16,-0.615 -1.51,-1.152"></path>
		<path id="path4088" d="m 1413.03,318.22 c -0.24,-0.168 -0.48,-0.336 -0.72,-0.504 0.36,0.01 0.6,0.18 0.72,0.504"></path>
		<path id="path4090" d="m 1415.77,321.17 c 0.26,0.12 0.52,0.24 0.79,0.36 -0.28,-0.09 -0.54,-0.209 -0.79,-0.36"></path>
		<path id="path4092" d="m 1419.87,322.61 c 0.24,-0.02 0.48,-0.05 0.72,-0.07 -0.24,0.1 -0.48,0.12 -0.72,0.07"></path>
		<path id="path4094" d="m 1421.02,324.13 c -0.24,-0.12 -0.48,-0.24 -0.72,-0.36 0.31,0 0.55,0.119 0.72,0.36"></path>
		<path id="path4096" d="m 1423.18,324.70 c -0.74,0 -1.68,-0.186 -1.8,-1.08 1,-0.03 2,0.1 2.95,0.432 -0.3,0.365 -0.69,0.581 -1.15,0.648"></path>
		<path id="path4098" d="m 1424.55,327.80 c -0.5,-0.117 -1,-0.188 -1.51,-0.216 0.89,-0.775 2.78,-0.649 3.74,-0.07 -0.75,0.235 -1.53,-0.165 -2.23,0.288"></path>
		<path id="path4100" d="m 1425.85,325.93 c -1.48,0.05 -2.98,-0.08 -4.4,-0.504 1.69,-0.556 3.41,0.346 5.12,0.288 -0.24,0.07 -0.48,0.144 -0.72,0.216"></path>
		<path id="path4102" d="m 1430.67,329.53 c -0.72,-0.251 -1.49,-0.35 -2.23,-0.504 0.76,-0.167 1.59,0.11 2.23,0.504"></path>
	</g></svg>
