<svg xmlns="http://www.w3.org/2000/svg" viewBox="739.3 521 25.5 25.5"><g fill="#2b1d24"><path d="M744 537.3c1.7.7 2.3.5 4 .5-2 .3.9.8 1.3.8l3.3.4c1.6.2 1.3-.4 2.5-.8.8-.3 2 .3 2.1-.7.3-1.7-3-2.3-2.6-4.5.5-2.2.8-3.7-2-4.2-1.2-.3-3.8-.2-1.6-1.7 2.6-1.9 4.6-.7 7.2.1 1.7.5 4.7-.2 4.9 2.2 0 .8-.7 2-.2 2.8.6 1-1 1.7-1.1 2.3-.2.4.5.5.4 1.3-.1 1-1.3 1.9-2.4 1.8 1.3 1.1 2.3 3.3 1.2 4.9-1.5-2.1-4.2-1.9-6.5-1.3s-7.2-2-8.5.4c-1 2-2.3-1.2-3.9-1.5-2.5-.4.1-4 1.9-2.8"/><path d="m747.3 542.4-.8-.3c.6-.2.4 0 .8.3m6.4-5.6c-.2-.1-4.4-2-2.9-2.2 1-.2 3.7.9 3 2.2m1.9-11.3-.8-.2q1-.6 1.8.2z"/></g></svg>
