<svg xmlns="http://www.w3.org/2000/svg" viewBox="1414.7 265.2 52.7 52.7"><path fill="#2b1d24" d="M1418.3 294q1-1.4 2.6-1.1a5 5 0 0 1-.3-3c.2-.8 1.2-1 1.5-1.8.2-.6-2.2-.9-.9-1.4 1-.3 2 1.3 2.7.1.6-.9 1-2 1.4-2.4q.6-.5 2 .9c3 2.2 5.8 1 9.2.7-1.9-1.5.8-1.6 2-1.7.5 0 2-.5 2-1.2.3-1.2 1.3-.3 2.2 0 1.1.5 3 0 3.8-.8.6-.6.4-2.2 1.2-2.5 1.5-.6 3.3.3 4.8.4.6-1 1.6-.3 2.1.3q1.3 1.4 3 .7c2-.8 3 1.6 5 2.3 2.1.8.6 2 0 2.4-.8.9-2.3.1-3 1-.4.8-1.7 1.8-1.7 2.5 0 .8-1.6 3.3-2.7 5.2-.5.8-1.4 1.6-1.7 2.5-.2.8 0 1.5-1.6 2-.9.1-1.6-.3-2 .5-.7.9-1.4.2-2.1.5q-1.7.3-3.5-.1c-.8 0-2-.5-2.7 0-.7.8-1 1.4-2 1.5q-1.7 0-3.2.5c-.9.4-1.1 1.3-2.2 1.4-1.8.2-4-.2-5.5-1.1-.9-.6-1.7-.5-2.3-1.4q-1.4-1.6-3.2-2.5-1.5-.9-2.5-2.4c-.5-.9-1.2-2.3-2.4-2"/></svg>
