<svg xmlns="http://www.w3.org/2000/svg" viewBox="1414.66 265.18 52.66 52.66"><path id="hu" d="m 1418.29,293.958 c 0.68,-0.722 1.55,-1.31 2.59,-1.08 -0.33,-0.873 -0.56,-2.045 -0.28,-2.96 0.24,-0.775 1.22,-1.029 1.47,-1.812 0.2,-0.646 -2.13,-0.883 -0.85,-1.366 0.98,-0.366 2.01,1.269 2.73,0.06 0.51,-0.852 0.96,-2.007 1.39,-2.403 0.42,-0.397 0.81,-0.04 1.98,0.87 2.89,2.237 5.82,1.104 9.18,0.694 -1.86,-1.482 0.8,-1.54 1.94,-1.65 0.55,-0.05 1.99,-0.547 2.14,-1.243 0.24,-1.189 1.23,-0.247 2.09,0.09 1.17,0.459 3.01,-0.02 3.85,-0.827 0.62,-0.587 0.39,-2.249 1.15,-2.553 1.5,-0.59 3.31,0.274 4.82,0.42 0.65,-1.038 1.56,-0.345 2.15,0.259 0.88,0.906 1.75,1.26 2.93,0.771 2.05,-0.851 3.06,1.603 4.99,2.288 2.15,0.759 0.67,1.918 0.12,2.421 -0.9,0.825 -2.4,0.08 -3.02,1.04 -0.48,0.734 -1.79,1.738 -1.81,2.454 0,0.764 -1.55,3.246 -2.63,5.149 -0.48,0.849 -1.47,1.587 -1.72,2.562 -0.19,0.754 0,1.458 -1.64,1.883 -0.82,0.216 -1.52,-0.18 -2.05,0.597 -0.59,0.878 -1.32,0.198 -2.06,0.442 -1.1,0.356 -2.37,0.05 -3.47,-0.06 -0.78,-0.08 -2.02,-0.528 -2.67,0.09 -0.75,0.708 -0.97,1.307 -2.09,1.359 -1.03,0.05 -2.13,0.152 -3.09,0.552 -0.89,0.374 -1.14,1.261 -2.21,1.396 -1.78,0.225 -4.08,-0.216 -5.55,-1.149 -0.84,-0.535 -1.63,-0.416 -2.3,-1.328 -0.83,-1.13 -2,-1.787 -3.16,-2.548 -1.05,-0.698 -1.88,-1.31 -2.52,-2.404 -0.52,-0.865 -1.17,-2.238 -2.4,-2.019" fill="#2B1D24">
		
	</path></svg>
