<svg xmlns="http://www.w3.org/2000/svg" viewBox="1998.82 516.85 407.08 407.08"><g id="id" fill="#2B1D24">
		
		<path id="Indonesia_New_Guinea" d="m 2303.74,707.24 c 0.23,-0.566 0.13,-1.07 -0.29,-1.511 2.24,-0.571 4.11,-0.697 5.86,-2.308 1.62,-1.496 3.31,-2.133 5.49,-1.595 2.21,0.544 3.31,2.173 5.21,2.992 1.92,0.828 3.9,-0.273 5.69,1.121 -1.37,1.014 -0.1,2.375 0.53,3.397 0.79,1.381 -0.11,2.533 -0.62,3.807 -1.3,3.264 0.64,7.164 2.11,10.006 0.5,-0.734 -0.19,-2.384 0.64,-2.928 1.16,-0.767 1.02,2.666 1.03,2.992 0,0.653 0.24,0.813 0.68,1.25 0.64,0.627 0.34,1.473 0.91,2.113 1.11,1.238 3.37,1.9 4.64,0.582 0.92,-0.958 1.87,-1.807 2.82,-2.738 0.99,-0.979 1.19,-2.29 2.51,-3.13 1.19,-0.753 0.85,-3.544 2.37,-3.553 1.8,-0.01 2.66,0.159 4.34,-0.718 1.21,-0.628 1.27,-1.049 0.73,-2.175 -0.41,-0.867 2.23,-2.095 2.76,-2.378 1.34,-0.713 2.58,-1.206 4,-0.475 1.85,0.955 4.06,1.622 5.72,2.872 1.39,1.05 2.98,1.629 4.53,2.414 1.06,0.537 3.14,2.179 4.39,1.743 1.57,-0.551 2.23,0.647 3.84,0.625 1.69,-0.02 2.52,1.723 4.2,1.496 l -1.62,30.983 c -0.17,1.674 -1.44,2.87 -1.37,4.648 0,0.733 0.98,1.129 0.98,1.589 0,1.117 -0.19,2.264 -0.27,3.38 -0.36,5.254 -0.76,10.525 -1.25,15.77 -2.16,-1.087 -2.6,-3.551 -4.24,-5.113 -0.81,-0.772 -3.9,-2.735 -2.45,-4.097 -0.94,0.738 -2.63,0.425 -3.75,0.874 -0.97,0.382 -2.74,0.47 -2.23,-1.093 -0.48,0.587 -1.71,1.694 -2.52,1.702 -1.24,0.01 0.21,-2.112 0.33,-2.412 0.42,-0.979 1.79,-3.176 0.8,-3.71 -0.9,-0.481 -1.16,-1.665 -1.85,-2.351 1.18,-1.015 2.74,0.76 3.67,-0.79 -1.63,1.623 -3.75,-0.935 -4.89,-1.939 1.5,-1.73 3.22,0.289 4.75,0.359 -1.33,-0.516 -2.46,-1.435 -3.67,-2.16 1.42,-0.249 0.19,-0.685 -0.27,-1.174 -0.67,-0.692 -1.32,-1.525 -1.59,-2.465 -0.34,-1.209 -1.46,-3.473 0.13,-4.071 -1.57,0.58 -1.66,-1.115 -0.22,-1.37 -0.54,0 -1.88,0.854 -2.3,0.221 -0.5,-0.757 0.5,-1.75 0.14,-2.59 -0.46,1.846 -1.83,-1.1 -2.43,-1.36 -1.03,-0.444 -1.09,-0.699 -1.87,-1.059 -0.61,-0.278 -2.07,-0.689 -2.43,-1.298 -0.51,-0.84 -3.6,-0.908 -4.56,-1.492 -1.51,-0.916 -3.27,-1.914 -4.96,-2.458 -1.63,-0.524 -4.03,-0.04 -5.45,-0.741 -1.27,-0.625 -2.96,-1.49 -3.5,-2.9 -0.5,-1.31 1.6,-1.104 2.31,-1.223 -0.87,-0.263 -1.97,-0.708 -2.66,0.173 -0.79,0.992 -1.31,-0.535 -2.02,-0.753 0,1.476 -2.32,0.391 -1.23,-0.64 -1.58,0.01 -2.19,0.03 -2.59,-1.881 -0.1,0.556 -0.37,1.01 -0.82,0.439 -0.64,-0.807 -0.14,-1.311 -0.21,-2.154 -0.14,-1.543 1.4,-2.415 1.46,-3.975 -0.38,0.81 -1.73,1.097 -1.73,2.107 0,0.902 0.1,2.304 -1.22,2.223 1.13,0.504 0.23,1.092 -0.14,1.72 -0.25,0.227 -0.49,0.467 -0.72,0.72 0,0.479 -0.1,0.959 -0.1,1.44 -0.35,1.022 -2.43,2.102 -3.52,1.8 -0.95,-0.268 -1.52,-2.512 -1.55,-3.351 0,-0.566 0.73,-0.619 1.12,-0.799 1.02,-0.478 -0.55,-1.761 -0.29,-2.61 -1.24,0.747 -2.78,-3.252 -4.52,-3.322 -2.69,-0.11 -1.24,-1.962 0.7,-2.158 2.01,-0.205 3.46,1.791 4.86,-0.546 1.04,-1.749 4.24,-2.306 3.42,0.546 0.22,-0.485 0.39,-0.988 0.5,-1.51 0.28,1.381 1.87,-0.327 1.81,1.15 0.21,-1.199 0.62,-0.532 0.93,0.08 0.29,-0.627 0.34,-1.44 -0.22,-1.95 0.49,0.105 0.98,0.06 1.45,-0.14 -0.42,-0.501 -0.4,-0.981 0.1,-1.44 -1.54,1.146 -0.36,-0.82 -0.1,-1.15 -1.65,0.138 -2.54,1.187 -4.32,0.912 -1.1,-0.171 -2.58,0.874 -3.53,0.523 -1.17,-0.431 -1.67,0.369 -2.58,-0.545 -0.32,-0.316 -1.23,0.263 -1.54,0.282 -1.01,0.06 -1.82,-0.866 -2.58,-1.392 0.18,-0.245 0.38,-0.485 0.58,-0.72 -0.82,0.142 -1.55,-0.808 -1.26,-1.58 0.11,-0.288 0.5,-0.682 0.44,-1.015 -0.14,-0.848 -1.46,0.532 -0.56,-1.005 -0.73,0.144 -0.92,0.154 -0.85,-0.649 -1.04,1.507 -3.06,-1.128 -3.96,-1.08 0.85,1.133 -1.21,0.96 -1.73,0.595 -1.47,-1.016 1.38,-2.892 1.65,-3.906"></path>
		<path id="Indonesia_West_Timor" d="m 2241.03,785.07 c 0.39,0.295 0.34,0.604 0.94,0.36 0.2,1.067 -1.77,1.406 -1.95,2.811 0.86,-0.266 1.73,-0.03 2.6,-0.199 1.14,-0.217 1.98,-1.431 3.13,-1.464 1.86,-0.05 2.49,-0.583 3.72,-1.958 0.8,-0.887 2.13,-2.009 2.46,-3.122 0.51,-1.692 -0.52,-0.333 0.97,-0.829 0,0 0.25,0.04 0.54,-0.756 -0.32,-0.05 -0.39,-0.95 -0.38,-1.674 1.63,-2.156 -0.72,-2.533 -0.71,-2.626 -2.98,1.204 -0.66,1.843 -4.16,2.523 -0.87,0.17 -0.2,2.65 -0.81,3.042 -0.62,0.392 -0.78,-0.93 -1.21,-0.364 -0.43,0.566 -1.87,-1.449 -2.18,-0.758 -0.31,0.692 -2.7,4.246 -2.96,5.014"></path>
		<path id="Indonesia_Kalimantan" d="m 2132.74,691.04 c 0.93,-0.626 0.3,-1.282 0.5,-2.125 0.26,-1.095 1.85,-1.166 2.02,-2.413 -0.33,0.544 -0.74,1.023 -1.22,1.439 -0.88,-1.292 0.21,-2.565 1.04,-3.522 0.54,-0.623 0.7,-1.208 0.98,-1.959 0.36,-0.973 1.61,-1.199 2.3,-1.862 -0.13,0.89 -1.31,1.981 0,2.517 0.19,0.08 0.67,2.179 1.05,2.59 1.1,1.202 3.08,2.143 3.79,3.677 0.28,0.593 1.5,1.107 2.09,1.412 1.1,0.57 2.65,-0.557 3.6,-0.98 1.89,-0.843 3.69,0.271 5.7,0.08 0.81,-0.08 1.54,-0.697 2.25,-1.076 1.06,-0.567 0.76,-1.953 1.57,-2.828 0.83,-0.912 5.09,-1.836 5.75,-0.441 0.62,1.327 4.51,2.593 5.75,1.827 1.07,-0.662 1.31,-1.717 2.76,-1.216 0.72,0.247 1.29,-0.34 1.9,-0.585 0.51,-0.205 1.11,0.456 1.63,0.43 -0.28,-1.386 2.66,-4.404 1.85,-5.299 -1.39,-1.544 1.73,-3.514 2.9,-3.917 -0.69,-0.845 -1.97,-3.955 0.16,-4.211 2.68,-0.323 0.67,-1.98 2.2,-3.447 0.59,-0.565 -0.17,-2.877 -0.1,-3.85 0.1,-0.9 0.32,-2.04 0.72,-2.851 0.35,-0.698 1.07,-1.031 1.25,-1.842 1.41,0.527 1.77,0.808 3.28,0.159 0.51,-0.221 1.77,1.684 1.9,-0.304 0.97,0.944 2.82,0.707 4.04,0.595 1.57,-0.143 2.52,1.556 4.03,1.422 -0.46,0.321 -0.96,0.513 -1.51,0.575 0.27,0.237 2.98,2.492 1.15,1.585 0.37,0.262 1.33,0.437 1.52,0.873 0.19,0.437 0.17,0.872 0.71,1.07 -0.87,1.107 -2.27,0.415 -2.66,-0.72 0.17,0.489 0.24,0.993 0.21,1.512 -0.78,-0.482 -2.14,-0.433 -2.95,-0.07 1.03,0.398 1.56,1.454 2.67,1.729 -0.29,0.566 -0.42,1.815 -1.37,1.368 0.7,0.917 1.75,1.3 2.81,1.655 -0.88,1 0.82,1.098 -0.58,1.296 0.48,0.02 0.94,0.139 1.37,0.36 -1.43,0.39 0.36,1.203 0.91,1.871 0.62,0.765 1.17,1.6 1.68,2.442 0.64,1.059 -0.71,3.142 -1.95,3.103 0.81,0.284 0.41,1.089 1.04,1.612 0.91,0.753 1.81,1.53 2.76,2.235 0.76,0.568 1.21,1.54 2.1,1.86 1.19,0.429 2.03,1.643 2.82,2.573 0.33,0.392 1.2,0.08 0.59,1.031 -0.74,1.17 -1.96,0.589 -3,1.112 -1.71,0.866 -3.73,-1.519 -5.08,-2.066 0.62,0.912 1.11,2.063 -0.35,2.146 -1.32,0.07 -1.74,2.093 -2.08,3.085 -0.9,2.65 -1.33,5.686 -1.17,8.449 0.38,-0.438 0.86,-0.678 1.44,-0.72 -0.19,0.594 -1.14,1.304 -0.43,1.58 -0.69,0.422 -0.69,1.017 0,1.439 -0.94,0.264 -1.98,1.382 -2.23,0.07 -0.29,1.857 -3.75,5.774 -4.25,2.02 -0.73,1.313 0.5,2.341 -0.98,3.37 -0.68,0.474 -0.35,1.213 -0.82,1.811 -0.56,0.694 -1.58,0.671 -2.09,1.439 2.26,-0.859 1.51,2.29 0.43,3.101 0.56,0.549 1.7,-0.212 2.17,0.356 0.46,0.553 -0.46,2.69 -0.8,3.173 -0.4,-0.466 -0.88,-0.585 -1.44,-0.359 1.41,1.226 -0.44,5.153 -1.44,3.16 -0.27,0.875 0.46,1.628 0.94,2.239 -1.98,0.363 -1.37,3.374 -3.04,4.048 -1.83,0.74 -3.67,1.97 -5.53,2.792 -0.49,0.216 -4.35,2.829 -4.19,1.356 0.1,-0.894 0,-1.875 0,-2.787 0.1,-1.3 -0.78,-2.377 -0.46,-3.689 -1.46,1.433 -2.46,0.893 -1.44,-1.08 -0.66,1.122 -2.13,1.844 -1.8,-0.141 -0.16,1.053 -2.94,3.5 -3.75,1.877 -0.28,-0.561 0.5,-0.992 0,-1.582 -0.99,-1.083 -2.04,0.879 -2.33,-0.585 0.32,1.666 -1.82,-1.299 -2.02,-2.02 0,1.508 -1.61,3.187 -2.89,3.842 -1.34,0.682 -2.5,-1.237 -3.8,-0.304 -0.47,0.338 -2.28,2.947 -2.63,1.253 -0.43,-2.062 0.27,-3.904 -0.83,-5.941 -0.87,2.233 -1.17,1.193 -2.82,1.147 -0.69,-0.02 -1.26,0.582 -1.8,0.922 -1.02,0.648 -1.69,0.07 -2.72,-0.119 0.33,-0.364 0.69,-0.701 1.08,-1.01 -0.84,0.126 -1.11,1.208 -2.02,1.08 0.38,-2.191 -1.83,-0.977 -2.73,-0.29 -1.05,-1.31 -0.21,-3.482 -0.68,-4.993 -0.31,-1.027 -0.12,-2.113 -0.31,-3.157 -0.16,-0.881 -1.53,-1.589 -1.44,-2.36 0,-0.181 0.78,-1.114 0.87,-1.383 0.32,-0.962 0.49,-1.796 -0.1,-2.683 -0.4,-0.606 -0.49,-1.259 -0.83,-1.841 -0.42,-0.708 -1.31,-0.97 -1.26,-1.943 -0.21,0.25 -0.43,0.489 -0.65,0.72 -0.77,-1.473 -1.58,-0.118 -2.62,-0.748 -0.59,-0.356 -0.22,-1.014 0,-1.417 0.27,-0.406 1.23,0.06 1.57,0.07 -0.57,-0.314 -0.9,-1.078 -1.52,-1.234 -0.47,-0.117 -1.07,-0.03 -1.37,-0.495 -0.42,-0.652 -0.67,-3.309 0.66,-2.511 -0.35,-0.928 -0.92,-2.051 0.22,-2.159 -0.96,-1.269 -2.24,-2.372 -2.58,-3.985 -0.14,-0.674 -0.77,-2.861 -0.16,-3.433"></path>
		<path id="path2528" d="m 2324.91,732.51 c -0.51,0.321 -0.37,0.561 0.43,0.72 -0.15,-0.24 -0.29,-0.48 -0.43,-0.72"></path>
		<path id="path2530" d="m 2326.42,713.72 c -0.65,0.219 -0.73,0.962 -0.5,1.51 0,-0.546 0.2,-1.049 0.5,-1.51"></path>
		<path id="path2532" d="m 2327.58,716.02 c -0.53,-0.118 -0.58,0.122 -0.15,0.721 0.1,-0.241 0.1,-0.481 0.15,-0.721"></path>
		<path id="path2540" d="m 2331.46,706.74 c -0.91,0.194 -0.76,1.996 0.21,1.72 0.58,-0.161 0,-1.467 -0.21,-1.72"></path>
		<path id="path2542" d="m 2333.19,711.34 c 0,0.146 -0.1,0.293 -0.1,0.439 0.51,-0.03 1.02,-0.131 1.51,-0.289 -0.48,-0.04 -0.96,-0.09 -1.44,-0.15"></path>
		<path id="path2544" d="m 2335.14,704.14 c 0,1.131 1.9,2.56 2.72,1.306 0.59,-0.893 -2.27,-1.262 -2.72,-1.306"></path>
		<path id="path2546" d="m 2336.00,712.42 c -0.1,0.24 -0.1,0.48 -0.14,0.72 1.85,0.127 3.45,1.141 5.25,1.521 0.76,0.161 1.57,0.506 2.36,0.295 0.88,-0.234 1.88,-0.761 2.82,-0.586 -0.77,-1.121 -2.73,-1.048 -3.91,-1.19 -2.13,-0.257 -4.24,-0.539 -6.38,-0.76"></path>
		<path id="path2548" d="m 2349.32,770.74 c -0.1,0.24 -0.15,0.48 -0.22,0.72 1.48,-0.494 3.09,-0.271 4.63,-0.279 1.5,0 2.39,-0.777 3.55,-1.665 0.5,-0.39 3.66,-4.271 3.02,-5.057 -1.83,-2.268 -3.02,-2.504 -5.83,-1.333 -2.89,1.205 -4.01,5 -5.15,7.614"></path>
		<path id="path2550" d="m 2358.17,771.32 c 0.24,-0.07 0.48,-0.146 0.73,-0.22 -0.38,-0.733 -0.34,-2.142 -1.55,-1.655 -1.6,0.646 -0.32,1.838 0.82,1.875"></path>
		<path id="path2552" d="m 2357.82,756.78 c 0,0.568 0.39,0.939 0.93,1.08 -0.1,-0.548 -0.39,-0.96 -0.93,-1.08"></path>
		<path id="path2206" d="m 2036.41,678.01 c 0.31,0.219 1.45,0.339 1.27,-0.423 -0.1,-0.368 -1.33,-1.134 -1.62,-1.432 -0.37,-0.372 -0.82,-0.71 -1.38,-0.593 0.29,-0.8 -0.81,-1.405 -1.37,-1.656 -0.29,-0.132 -0.53,-0.73 -0.93,-0.408 -0.72,0.596 -0.71,1.198 0,1.826 1.2,1.048 3.32,1.058 4.01,2.686"></path>
		<path id="Indonesia_Sulawesi" d="m 2211.73,743.31 c -0.34,1.213 0.31,2.326 0.14,3.53 1.12,-0.52 1.76,1.628 3.01,0.699 0.86,-0.635 0.87,-0.757 1.97,-0.63 1.04,0.12 1.74,-1.067 2.73,-0.29 -0.1,-1.688 -1.43,-3.145 -0.81,-4.877 0.75,-2.118 1.15,-3.503 0.89,-5.824 -0.22,-1.941 0.22,-3.465 0.4,-5.353 0.1,-0.862 0,-1.718 0.1,-2.582 0.15,-1.448 -0.5,-1.446 -0.86,-2.674 -0.69,-2.388 3.44,-4.34 5.25,-3.774 1.63,0.511 1.13,4.159 0.27,5.113 -2.42,2.681 1.67,5.731 3.98,6.971 0.97,0.526 -1.49,4.198 -0.49,5.693 0.54,0.806 2.31,1.219 3.22,1.352 1.12,0.163 0.83,-1.646 0.96,-2.285 0.28,-1.438 2.31,-1.176 3.32,-1.587 0.6,-0.245 3.03,0.998 1.63,-0.752 1.1,1.851 2.57,-1.901 0.65,-2.45 -0.34,1.761 -0.81,-0.665 -1.73,-0.65 0.2,-0.264 0.39,-0.527 0.58,-0.79 -0.79,-0.03 -1.78,-1.07 -2.23,-1.649 -0.74,-0.945 0.23,-1.722 -0.44,-2.67 0.36,0.09 0.72,0.161 1.08,0.22 -0.82,-0.502 -0.6,-1.718 0.44,-1.66 -0.19,-0.369 -0.44,-0.692 -0.75,-0.967 -0.58,-0.628 -0.16,-1.298 -0.55,-1.983 -0.32,-0.574 -1.08,-0.618 -1.44,-1.149 -0.41,-0.604 -0.54,-1.566 -0.87,-2.239 -0.51,-1.015 -0.93,-2.009 -2,-2.533 -0.88,-0.427 -1.29,-2.255 -2.46,-1.708 0.1,-0.622 0.1,-1.246 0.1,-1.87 1.22,1.032 2.18,1.974 3.41,0.272 1.07,-1.477 2.19,-1.498 3.7,-2.342 2.07,-1.158 3.59,-6.019 6.31,-5.933 0.78,0.03 0.91,2.268 1.81,1.323 0.54,-0.563 1.56,-2.003 1.02,-2.805 -0.91,-1.332 -4.43,-0.923 -5.52,-0.03 0.59,0.06 1.1,0.302 1.51,0.72 -1.41,0.05 -5.49,-0.944 -5.99,0.892 -0.33,1.229 -4.03,1.183 -3.8,-0.531 -1.23,0.756 -2.51,2.01 -3.13,3.328 -0.67,1.435 -0.98,2.282 -2.64,1.92 -1.09,-0.236 -2.12,-0.52 -2.42,-1.748 -0.16,-0.619 -0.21,-1.245 -0.55,-1.804 -0.63,-1.028 -1.06,-0.191 -1.75,-0.697 -2.24,-1.626 -2.34,-6.686 -1.37,-8.934 0.55,-1.289 1.48,-2.734 2.76,-3.417 1.05,-0.563 3.63,0.367 4.73,0.766 0.77,0.282 2.27,-0.37 2.96,-0.692 1.44,-0.667 1.84,0.353 3.24,0.565 1.55,0.235 3.62,-0.605 5.28,-0.564 1.99,0.05 3.26,0.162 4.85,1.31 1.98,1.428 8.12,0.465 9.73,-1.418 1.11,-1.293 1.5,-2.742 2.83,-3.938 1.43,-1.288 1.37,-3.47 2.91,-4.622 -0.54,-0.344 -0.85,-0.944 -0.65,-1.584 -0.56,0.146 -1.36,-0.254 -1.84,0.151 -0.71,0.607 -0.67,1.793 -1.65,2.094 -1.5,0.459 -0.55,0.921 -1.26,1.859 -0.41,0.541 -1.41,0.332 -1.69,1.073 -0.72,1.856 -3.56,2.187 -5.14,1.846 -1.34,-0.289 -2.92,-0.597 -4.3,-0.528 -0.77,0.04 -1.51,0.894 -2.14,0.638 -1.99,-0.802 -3.4,-1.183 -5.53,-1.405 -1.1,-0.114 -1.74,-0.437 -2.9,-0.319 -1.33,0.134 -1.73,-1.68 -2.41,-1.667 -0.86,0.02 -4.09,-1.573 -4.28,0.233 -0.25,2.461 -2.48,4.805 -4.29,2.223 -0.17,0.807 -0.43,1.42 -1.06,1.971 -0.84,0.745 -0.67,1.896 -1.49,2.559 -1.57,1.263 0.48,3.463 -1.13,4.61 -0.13,-0.566 -0.54,-0.95 -1.15,-0.79 0.4,1.528 1.58,1.154 1.1,2.916 -0.44,1.606 1.03,3.078 0.56,4.715 -0.33,-0.61 -0.47,-1.314 -1.01,-1.801 -0.9,2.437 -2.81,3.71 -2.95,6.48 -0.1,1.237 0.1,2.556 0,3.761 -0.1,1.412 -1.42,2.327 -1.52,3.838 -0.12,2 -3.39,2.924 -2.88,4.595 0.28,0.941 1.04,0.353 0.23,1.686 -0.71,1.154 0.22,3.653 0.68,4.841 0.65,-0.73 2.33,-1 3.24,-1.049 1.99,-0.107 0.41,1.822 1.06,2.978 1.07,1.92 0.81,3.562 0.47,5.773 -0.28,1.81 -0.75,4.628 -1.96,6.046"></path>
		<path id="path2366" d="m 2231.60,742.52 c -2.33,0.806 -0.24,3.407 -0.12,3.295 0.62,-0.57 0.56,-2.649 0.12,-3.295"></path>
		<path id="path2368" d="m 2232.25,702.63 c -0.39,-0.723 -1.41,-0.752 -1.44,0.22 0.52,0.197 1,0.123 1.44,-0.22"></path>
		<path id="path2370" d="m 2233.33,701.84 c -0.46,-0.655 -1.03,-0.636 -1.51,0 0.47,0.332 1.03,0.32 1.51,0"></path>
		<path id="path2372" d="m 2235.78,745.62 c 0.3,-0.37 1.04,-1.164 0.77,-1.706 -0.5,-0.992 0.49,-1.438 0.76,-2.293 0.15,-0.467 0.75,-3.654 -0.53,-2.964 -0.63,0.341 -1.47,0.79 -2.02,1.247 -1.04,0.858 0.53,1.957 -0.21,2.874 -0.28,0.354 -1.03,1.576 -0.79,2.043 0.39,0.755 1.66,0.531 1.65,-0.359 0.11,0.389 0.23,0.776 0.37,1.158"></path>
		<path id="path2378" d="m 2240.24,736.69 c -1.85,0.03 -2.53,4.02 -2.61,5.432 -0.1,1.473 -0.67,2.108 -1.21,3.452 -0.67,1.665 0.37,1.221 1.3,2.206 0.45,-0.613 0.49,-1.433 0.97,-2.019 0.47,-0.59 1.35,-0.269 1.8,-0.833 0.65,-0.806 -0.69,-2.225 -1.48,-1.399 0.22,-0.876 0.17,-1.794 0.42,-2.667 0.16,-0.575 1.22,-2.482 1.46,-0.793 0.8,-1.335 -0.73,-2.109 -0.65,-3.379"></path>
		<path id="path2386" d="m 2242.33,712.78 c 0,-0.511 0,-1.014 0.14,-1.51 2.75,1.425 2.06,-4.005 -0.14,-0.65 -0.72,-1.063 0.72,-1.362 -0.73,-1.81 -0.5,-0.153 -1.09,-0.216 -1.55,0.08 -1.06,0.685 -0.81,2.448 -0.53,3.456 0.81,-0.414 1.27,-1.228 1.65,-2.01 0.79,0.568 0,2.357 1.16,2.44"></path>
		<path id="path2388" d="m 2240.17,733.01 c -0.82,0.344 -0.73,1.849 0.1,2.164 1.21,0.47 1.9,-1.905 -0.1,-2.164"></path>
		<path id="path2394" d="m 2242.98,708.97 c -0.24,0.305 -0.39,0.232 -0.15,0.72 0.1,-0.24 0.1,-0.48 0.15,-0.72"></path>
		<path id="path2396" d="m 2243.33,713.22 c -0.32,0.124 -0.48,0.364 -0.5,0.72 0.17,-0.24 0.33,-0.48 0.5,-0.72"></path>
		<path id="path2398" d="m 2243.41,744.03 c 0.1,0.512 0,0.716 0.65,0.721 -0.22,-0.241 -0.43,-0.481 -0.65,-0.721"></path>
		<path id="path2400" d="m 2244.63,745.90 c 0,0.407 0.29,0.624 0.72,0.65 -0.24,-0.217 -0.48,-0.434 -0.72,-0.65"></path>
		<path id="path2404" d="m 2246.65,749.58 c -0.52,0.518 -0.35,0.758 0.5,0.72 -0.17,-0.24 -0.33,-0.48 -0.5,-0.72"></path>
		<path id="path2408" d="m 2251.33,712.93 c -1.26,1.836 -0.26,3.436 1.94,2.73 0.35,-0.215 0.71,-0.407 1.08,-0.575 0.42,0.08 0.84,0.125 1.26,0.122 0.8,-0.399 2.19,-0.08 2.56,-1.126 -0.58,0.07 -0.96,-0.232 -1.08,-0.79 -0.93,1.312 -4.37,-0.854 -5.76,-0.361"></path>
		<path id="path2414" d="m 2258.89,674.77 c -0.74,-0.173 -0.82,0.07 -0.22,0.72 0.1,-0.24 0.15,-0.48 0.22,-0.72"></path>
		<path id="path2416" d="m 2260.40,669.58 c 0.43,-0.902 -0.84,-3.777 -1.95,-2.521 1.18,0.324 0.78,2.031 1.95,2.521"></path>
		<path id="path2418" d="m 2258.89,714.01 c -1.04,1.085 1.62,1.141 2.13,1.149 1.4,0.02 3.48,0.24 4.56,-0.859 -2.21,-0.325 -4.54,0.492 -6.69,-0.29"></path>
		<path id="path2422" d="m 2262.99,715.66 c -1.55,0.334 -0.14,3.851 0.65,4.399 0.32,-0.558 -0.29,-3.834 -0.65,-4.399"></path>
		<path id="path2424" d="m 2268.03,731.72 c 1.06,-0.526 3.37,-0.876 4.05,-1.885 0.85,-1.276 0.38,-2.212 -0.95,-2.505 1.06,-1.191 -1.24,-1.925 -2.03,-2.122 -1.49,-0.37 -2.81,0.09 -4.29,0.253 -1.81,0.197 -2.18,1.092 -1.37,2.834 0.85,1.831 2.91,2.529 4.59,3.425"></path>
		<path id="path2426" d="m 2268.17,665.77 c 0.19,-0.577 0,-1.155 -0.5,-1.512 0.14,0.512 0.31,1.016 0.5,1.512"></path>
		<path id="path2428" d="m 2268.46,664.11 c 0.78,-0.813 0.98,-2.084 0.83,-3.163 -0.1,-0.555 -0.56,-2.199 -1.08,-0.882 -0.35,0.917 0.71,1.644 0.36,2.339 -0.32,0.639 -0.96,1.113 -0.11,1.706"></path>
		<path id="path2432" d="m 2273.00,700.90 c -0.9,-0.387 -1.62,1.641 -1.01,2.16 1.05,0.898 1.15,-1.614 1.01,-2.16"></path>
		<path id="path2434" d="m 2273.00,703.86 c -0.87,0.451 -0.43,1.808 0.58,1.51 -0.11,-0.536 -0.3,-1.04 -0.58,-1.51"></path>
		<path id="path2438" d="m 2273.72,691.18 c -0.22,0.343 -0.1,0.476 0.22,0.79 -0.1,-0.263 -0.15,-0.527 -0.22,-0.79"></path>
		<path id="path2440" d="m 2275.23,701.26 c -0.24,0.315 -0.48,0.628 -0.72,0.939 -0.25,-0.235 -0.49,-0.476 -0.72,-0.72 -0.66,1.998 0.31,1.269 0.94,2.66 0.14,0.308 -0.79,1.63 0.2,1.393 0.53,-0.128 1.11,-0.434 1.3,0.269 0.23,0.811 3.1,-0.549 0.7,-1.21 -0.98,-0.27 -1.21,-0.835 -0.68,-1.684 0.33,-0.528 -0.73,-1.353 -1.02,-1.647"></path>
		<path id="path2442" d="m 2274.22,695.36 c -0.18,0.34 -0.33,0.251 0,0.721 0,-0.241 0,-0.481 0,-0.721"></path>
		<path id="path2444" d="m 2274.58,710.98 c -1.11,0.865 -0.53,2.422 0.79,2.601 0.56,0.08 1.05,-0.36 1.61,-0.36 0.6,0 1.19,0.191 1.8,0.225 2.05,0.115 0,-1.854 -0.58,-2.167 -1.34,-0.687 -2.3,-1.338 -3.62,-0.299"></path>
		<path id="path2446" d="m 2274.51,692.19 c -0.17,-0.02 -0.34,-0.05 -0.5,-0.07 0.13,0.287 0.3,0.551 0.5,0.791 0,-0.241 0,-0.481 0,-0.721"></path>
		<path id="path2452" d="m 2276.38,698.53 c 0.1,0.894 -0.29,1.828 0.34,2.603 0.61,0.749 1.26,1.11 1.61,2.065 0.39,1.043 2.32,3.292 3.24,2.742 -2.61,-2.668 -2.91,-5.887 -3.43,-9.319 -0.22,-1.487 -0.16,-2.71 1.69,-1.766 1.58,0.803 3.86,1.29 5.62,1.445 -1.11,-0.539 -1.13,-1.883 -2.02,-2.589 -0.9,-0.71 -3.43,-0.594 -2.33,-2.428 0.73,-1.224 2.66,-1.263 3.03,-2.787 0.25,-1.028 -0.48,-2.753 0,-3.506 -1.85,-0.469 -3.87,1.355 -4.61,2.881 1.72,0.08 0,0.977 -0.44,1.166 -1.04,0.411 -0.59,1.532 -1.08,2.297 -0.51,0.793 -1.59,-0.02 -1.91,-0.549 -0.58,-0.939 0.61,-1.547 1.25,-1.967 1.32,-0.866 2.18,-3.534 1.46,-5.052 -0.31,-0.65 -1.41,-0.886 -1.14,-1.757 0.25,-0.835 1.39,-1.351 1.07,-2.346 -1.77,0.01 -2.56,2.235 -2.98,3.607 -0.45,1.454 -1.61,4.025 -1.34,5.464 0.12,0.707 0.43,1.445 0.83,2.042 0.16,0.284 0.38,0.492 0.68,0.623 -0.48,0.6 -0.65,1.335 -0.58,2.089 0.1,0.986 0.44,1.55 1.03,2.284 0.59,0.737 0.18,1.935 0.1,2.758"></path>
		<path id="path2454" d="m 2275.45,708.75 c -0.26,0.193 -0.53,0.387 -0.79,0.58 0.53,0.07 1.04,-0.02 1.51,-0.29 -0.24,-0.1 -0.48,-0.193 -0.72,-0.29"></path>
		<path id="path2456" d="m 2275.01,726.82 c -0.44,0.602 -0.24,0.842 0.58,0.721 -0.19,-0.241 -0.39,-0.481 -0.58,-0.721"></path>
		<path id="path2458" d="m 2276.09,725.89 c -0.18,0.26 -0.25,0.547 -0.21,0.86 0.27,0 0.53,-0.04 0.79,-0.141 -0.17,-0.26 -0.36,-0.499 -0.58,-0.719"></path>
		<path id="path2462" d="m 2277.97,723.80 c -0.23,0.369 -0.47,0.729 -0.72,1.08 0.57,-0.119 0.85,-0.502 0.72,-1.08"></path>
		<path id="path2464" d="m 2293.45,728.62 c 1.61,0.93 3.25,1.576 4.73,2.727 1.71,1.338 1.95,-0.668 1.67,-2.005 -0.17,-0.823 -1.27,-1.088 -1.44,-1.871 -0.16,-0.808 -0.16,-1.71 -0.97,-2.188 -0.73,-0.442 -1.02,-1.019 -1.98,-0.832 -0.97,0.188 -1.9,0.05 -2.69,-0.572 -0.77,-0.609 -1.76,-1.071 -2.76,-1.04 -1,0.03 -1.47,0.844 -2.35,1.038 -0.78,0.17 -1.08,-0.237 -1.5,-0.725 -0.14,-0.174 -2.59,0.128 -2.95,0.103 -3.36,-0.244 -6.91,2.145 -5.53,5.877 0,-0.76 1.07,-3.848 2.16,-3.601 -0.35,1.016 1.46,2.639 2.32,2.8 0.36,0.07 4.41,-3.298 3.44,-0.71 0.63,-0.139 4.36,1.362 4.57,0.08 0.19,-1.107 3.09,-0.188 3.28,0.924"></path>
		<path id="path2466" d="m 2278.40,729.63 c -0.57,0.274 -1.01,0.843 -0.87,1.51 0.85,-0.107 1.44,-0.767 2.24,-1 -0.77,1.292 1.03,0.06 0.86,-1.16 -0.81,0.06 -1.38,0.822 -2.23,0.65"></path>
		<path id="path2468" d="m 2279.55,678.73 c 0.22,-0.328 0.37,-0.222 0.1,-0.72 0,0.24 -0.1,0.48 -0.1,0.72"></path>
		<path id="path2470" d="m 2280.70,681.10 c 2.7,-0.609 3.7,-2.908 2.09,-5.328 -0.32,0.781 -1.2,0.979 -1.73,1.558 -0.92,1 -0.95,2.623 -0.36,3.77"></path>
		<path id="path2474" d="m 2281.57,728.98 c -0.21,0.268 -0.24,0.558 -0.1,0.87 0.3,-0.144 0.57,-0.337 0.8,-0.58 -0.24,-0.1 -0.48,-0.194 -0.72,-0.29"></path>
		<path id="path2478" d="m 2282.65,728.77 c -0.27,0.747 0.32,1.383 1.08,1.01 -0.1,-0.568 -0.49,-0.986 -1.08,-1.01"></path>
		<path id="path2482" d="m 2289.06,698.53 c 0.37,0.646 0.94,1.178 1.65,1.44 -0.5,-0.517 -1,-1.107 -1.65,-1.44"></path>
		<path id="path2484" d="m 2293.88,716.02 c 0.49,0.166 0.99,0.286 1.51,0.36 0.55,-0.01 0.85,-0.514 1.44,-0.431 -0.58,-0.797 0.63,-1.185 0,-2.395 -0.67,-1.297 -3.54,0.846 -4.69,1.026 0.18,0.811 0.9,1.41 1.73,1.44"></path>
		<path id="path2486" d="m 2293.09,708.46 c -0.3,0.148 -0.57,0.342 -0.8,0.58 0.69,0.382 0.96,0.189 0.8,-0.58"></path>
		<path id="path2488" d="m 2294.89,698.60 c 0.12,0.24 0.24,0.48 0.36,0.72 0.1,-0.602 -0.1,-0.413 -0.36,-0.72"></path>
		<path id="path2490" d="m 2299.57,702.34 c 3.01,0.851 0,-2.043 -0.65,-2.73 0.85,-0.12 1.42,0.791 1.87,1.338 0.86,1.021 1.09,0.142 1.92,0.556 1.56,0.783 1.7,-1.458 0.56,-2.083 -1.07,-0.588 -6.68,-1.43 -6.8,0.688 1.43,-0.965 0.64,0.594 -0.22,0.29 0.69,0.882 2.25,0.28 1.95,1.87 0.1,-0.544 0.47,-0.956 1.01,-1.08 0.14,0.378 0.26,0.761 0.36,1.151"></path>
		<path id="path2494" d="m 2297.48,705.73 c -0.26,1.356 3.39,0.878 3.02,-0.51 -0.77,0.862 -2.06,0.21 -3.02,0.51"></path>
		<path id="path2496" d="m 2298.92,702.20 c -0.43,0.178 -0.77,0.464 -1.01,0.86 0.62,0.38 2.03,-0.437 1.01,-0.86"></path>
		<path id="path2500" d="m 2300.94,706.30 c -2.74,0.456 -1.66,2.364 -0.18,3.83 0.86,0.851 2.57,-3.366 0.18,-3.83"></path>
		<path id="path2506" d="m 2302.74,707.17 c -0.23,0.32 -0.45,0.18 -0.29,0.72 0.1,-0.24 0.19,-0.48 0.29,-0.72"></path>
		<path id="path2508" d="m 2303.17,733.81 c 0.12,0.447 0.1,0.633 0.65,0.72 -0.22,-0.24 -0.44,-0.48 -0.65,-0.72"></path>
		<path id="path2510" d="m 2304.10,732.87 c -0.63,-0.09 -0.55,0.146 0.22,0.721 -0.1,-0.24 -0.15,-0.48 -0.22,-0.721"></path>
		<path id="path2522" d="m 2318.65,734.10 c -0.29,0.997 1.68,1.209 2.16,1.72 -0.56,-0.783 -1.6,-0.939 -2.16,-1.72"></path>
		<path id="path2346" d="m 2208.06,768.94 c -0.51,0.198 -0.68,0.558 -0.51,1.08 0.67,-0.06 0.84,-0.529 0.51,-1.08"></path>
		<path id="path2278" d="m 2103.44,755.12 c -0.31,0.134 -0.57,0.327 -0.79,0.58 0.69,0.384 0.95,0.19 0.79,-0.58"></path>
		<path id="Indonesia_Java" d="m 2114.82,751.01 c -0.64,-0.496 -3.85,-1.09 -4.47,-0.5 -0.1,-2.038 -1.98,0.629 -2.23,1.3 -0.26,0.679 -0.3,3.95 -1.73,2.66 -0.24,1.075 -0.91,1.937 -1.3,2.95 -0.43,-1.01 -1.34,-0.734 -2.08,-0.28 2.32,1.126 5.06,-0.224 7.15,1.23 0.65,0.453 1.59,0.489 2.3,0.832 1.15,0.546 -0.45,1.381 -0.62,2.17 -0.46,2.13 5.67,1.76 6.81,1.964 2.19,0.393 4,1.991 6.19,2.554 0.69,0.178 1.63,0.411 2.31,0.06 0.73,-0.373 0.56,-1.009 1.6,-1.039 2.65,-0.08 5.33,0.55 7.8,1.371 3.06,1.015 6.01,2.65 9.14,3.367 1.31,0.298 3.17,0.02 4.33,0.593 1.2,0.586 2.23,0.05 3.54,0.175 2.68,0.258 5.67,1.924 8.13,0.241 2,-1.375 4.32,1.132 6.05,2.025 0.58,0.302 4.14,0.52 4.06,0.931 -0.13,0.747 0.99,1.196 1.59,0.901 0.45,-0.219 -0.74,-1.719 -0.87,-1.931 -1.22,-1.862 0.25,-3.707 0.43,-5.623 0.11,-1.203 -1.08,-1.428 -1.95,-1.701 -1.49,-0.468 -1.95,0.181 -3.34,0.04 -1.31,-0.128 -3.1,0.826 -4.24,0.265 -0.72,-0.356 -2.8,-1.051 -3.13,-1.846 -0.29,-0.679 0.98,-3.895 -0.69,-2.483 0.33,-1.065 -0.59,-2.098 -0.51,-3.171 -0.97,0.497 -2.27,0.155 -3.31,0.255 -0.41,-0.04 -0.74,-0.227 -1.01,-0.548 -0.71,-0.623 -1.46,-0.155 -2.23,-0.566 -0.4,-0.216 -1.08,-1.891 -1.78,-1.05 -0.69,0.831 -2.09,0.688 -2.62,-0.252 -1.27,-2.224 -2.75,-2.496 -3.79,0.269 -0.35,0.931 -0.96,3.048 -2.38,2.581 -0.8,-0.261 -0.96,-0.675 -1.85,-0.614 -0.72,0.05 -1.47,0.237 -2.19,0.08 -1.41,-0.313 -2,-0.235 -3.36,-0.15 -0.79,0.05 -2.05,-0.99 -2.75,-0.608 -2.85,1.546 -3.46,-2.444 -4.54,-3.967 -1,-1.405 -0.82,-0.104 -1.72,-0.104 -1.07,0 -1.98,-1.537 -3.08,-0.987 -1.05,0.522 -1.77,-0.852 -2.41,-1.393 -1.06,-0.888 -1.85,-0.526 -3.02,-1.22 -0.21,1.01 -1.22,2.396 -2.23,1.216"></path>
		<path id="path2296" d="m 2130.08,765.06 c 0.1,0.757 0.99,0.685 1.51,0.72 -0.46,-0.332 -0.96,-0.572 -1.51,-0.72"></path>
		<path id="path2308" d="m 2161.83,758.22 c -0.73,-0.117 -2.6,1.334 -1.74,2.056 0.82,0.681 2.77,1.27 2.89,0.104 1.18,1.397 2.69,0.588 4.09,0.09 0.58,-0.207 1.2,-0.374 1.82,-0.237 -0.13,-0.969 0.95,-0.947 1.58,-1.149 -0.25,-1.44 -2.18,-1.103 -3.19,-0.963 -1.8,0.25 -3.69,-0.377 -5.45,0.103"></path>
		<path id="path2310" d="m 2160.46,748.14 c -0.58,0.09 -0.69,0.502 -0.5,1 0.68,-0.01 0.83,-0.457 0.5,-1"></path>
		<path id="path2312" d="m 2172.27,759.66 c 0.1,0.533 0,0.776 0.65,0.789 -0.2,-0.276 -0.42,-0.54 -0.65,-0.789"></path>
		<path id="path2314" d="m 2172.92,768.58 c -0.94,1.776 1.43,2.638 2.65,3.217 0.77,0.365 1.38,0.738 1.9,1.423 0.94,1.238 -0.23,0.908 -0.29,1.802 0,0.585 2.32,-2.089 2.42,-2.125 0.98,-0.346 3.43,-1.315 2.2,-2.606 -0.88,-0.934 -2.64,-2.251 -3.97,-1.521 -1.52,0.837 -3.42,0.861 -4.91,-0.19"></path>
		<path id="path2316" d="m 2173.71,760.30 c 0.21,0.183 0.44,0.183 0.72,0 -0.24,0 -0.48,0 -0.72,0"></path>
		<path id="path2318" d="m 2179.76,757.71 c -0.61,0.324 -0.74,0.879 -0.22,1.37 0.55,-0.684 1.47,-0.788 2.24,-0.431 -0.34,-0.867 -1.24,-0.885 -2.02,-0.939"></path>
		<path id="path2320" d="m 2180.98,774.78 c 0.23,-0.385 0.23,-0.771 0,-1.16 -0.28,0.17 -0.52,0.387 -0.72,0.65 0.24,0.17 0.48,0.34 0.72,0.51"></path>
		<path id="path2322" d="m 2187.03,769.66 c -1.04,0.52 -2.32,1.487 -2.2,2.81 0.11,1.053 -0.26,2.756 -1.61,1.66 -1.12,1.72 4.67,1.239 4.89,1.51 -0.48,-1.053 1.04,-3.073 1.55,-3.927 0.78,-1.31 -1.63,-2.428 -2.63,-2.053"></path>
		<path id="path2328" d="m 2198.55,775.78 c 1.55,-0.799 3.08,-1.059 3.96,-2.729 0.33,0.554 -0.43,1.702 0.14,1.998 0.61,0.317 1.04,0.08 1.61,-0.143 0.71,-0.288 1.29,0.132 1.99,0.235 -0.36,-0.479 -0.84,-0.745 -1.43,-0.8 1.37,-0.831 3.35,0.727 3.74,-1.51 -1.25,1.547 -1.1,-1.318 -1.4,-1.917 -0.72,-1.452 -2.24,0.04 -2.2,1.127 -0.22,-1.084 -1.05,-2.927 -2.28,-1.557 -0.94,1.035 -1.72,-1.003 -2.19,-1.53 -0.7,-0.771 -3.57,-0.185 -2.74,1.105 1.01,1.577 2.34,1.952 3.9,2.842 -0.49,0.656 -1.81,1.011 -2.56,1.18 -1.29,0.289 -1.44,-0.903 -1.99,-1.72 -1.26,-1.902 -5.23,-1.227 -6.55,0.281 -0.63,0.724 0,1.854 -0.56,2.592 -0.79,0.989 0.62,1.783 1.41,1.993 0.5,0.13 0.92,0.154 1.34,-0.174 0.79,-0.607 0.76,-0.207 1.77,-0.247 1.43,-0.06 2.6,-1.493 4.04,-1.026"></path>
		<path id="path2330" d="m 2196.03,771.18 c 0.5,-0.612 0.79,-1.356 1.22,-2.02 -1.5,-0.688 -1.37,1.085 -1.22,2.02"></path>
		<path id="path2342" d="m 2206.04,781.11 c 0.68,1.787 2.34,1.73 3.96,1.91 1.91,0.213 3.43,1.983 4.58,3.354 2.16,2.572 7.13,0.245 4.53,-2.63 -0.81,-0.896 -1.42,-1.641 -2.61,-1.643 0,0 -1.88,-2.309 -2.12,-2.528 -0.18,-0.162 -3.38,-0.111 -3.53,-0.01 -1.49,0.956 -3.56,-0.562 -4.81,1.55"></path>
		<path id="path2350" d="m 2210.65,771.53 c -0.41,0.671 -0.9,1.455 -0.22,2.17 0,-0.994 1.99,-1.476 0.22,-2.17"></path>
		<path id="path2352" d="m 2211.87,772.97 c 0.2,0.566 0.13,1.096 -0.21,1.59 0.96,0.238 0.8,-0.873 1,-1.44 -0.26,-0.05 -0.53,-0.1 -0.79,-0.15"></path>
		<path id="path2354" d="m 2214.53,774.85 c 0.77,-0.412 2.25,0.05 3.15,-0.05 0.82,-0.09 2.07,0.09 2.88,0.254 0.89,0.182 1.36,1.176 2.38,0.711 0.71,-0.321 2.39,0.298 2.11,-1.067 2.23,0.938 3.19,0.322 5.35,-0.464 1.44,-0.525 6.48,0.188 5.74,-2.706 0.99,0.191 0.88,-1.043 1.8,-1.069 -0.41,-1.19 -1.68,-2.965 -2.02,-0.65 0.45,-0.285 0.93,-0.334 1.44,-0.149 -1,1.151 -2.79,1.229 -3.55,2.64 -0.91,1.708 -2.45,0.572 -3.42,-0.327 -0.91,-0.852 -2.04,0.556 -3.01,0.168 -0.52,-0.205 -0.48,0.203 -0.81,0.509 -0.51,0.481 -1.49,-0.357 -1.86,-0.628 -1.25,-0.901 -3.22,-1.463 -4.7,-1.809 -2.33,-0.544 -3.07,0.34 -5.01,1.303 -0.97,0.484 -1.6,0.471 -1.71,1.82 -0.1,0.698 0.22,2.768 1.24,1.513"></path>
		<path id="path2356" d="m 2219.94,748.64 c -1.23,0.412 -0.63,4.976 -0.36,5.9 0.25,-1.973 0.69,-3.904 0.36,-5.9"></path>
		<path id="path2358" d="m 2220.58,759.30 c -0.22,0.357 -0.22,0.717 0,1.08 0.28,-0.146 0.52,-0.34 0.72,-0.58 -0.24,-0.166 -0.48,-0.333 -0.72,-0.5"></path>
		<path id="path2360" d="m 2221.81,761.46 c 0.2,0.616 1.08,0.298 1.44,0.14 -0.49,0.03 -0.97,-0.02 -1.44,-0.14"></path>
		<path id="path2362" d="m 2224.98,790.33 c 0.25,0.106 0.49,0.06 0.72,-0.15 -0.24,0.05 -0.48,0.1 -0.72,0.15"></path>
		<path id="path2364" d="m 2226.49,789.82 c 0,0.12 -0.1,0.24 -0.15,0.36 0.57,0.219 1.43,0.06 1.89,-0.344 0.23,-0.186 0.29,-0.414 0.17,-0.685 -0.49,-0.916 -1.33,0.364 -1.91,0.669"></path>
		<path id="path2374" d="m 2234.91,791.70 c -0.31,0.466 -0.33,0.946 -0.1,1.44 1.22,-0.693 3.06,-1.898 4.39,-2.24 -0.25,-0.464 -0.47,-0.944 -0.65,-1.439 -1.37,0.628 -2.14,1.694 -3.67,2.239"></path>
		<path id="path2380" d="m 2236.93,772.26 c 0.1,0.213 0.14,0.426 0.21,0.64 0.3,-0.532 0.71,-0.962 1.23,-1.29 -0.59,-0.02 -1.07,0.195 -1.44,0.65"></path>
		<path id="path2382" d="m 2238.44,770.24 c -0.34,0.282 -0.5,0.642 -0.5,1.079 0.61,-0.08 2.01,0.197 2.23,-0.649 0.28,-1.066 -1.24,-0.713 -1.73,-0.43"></path>
		<path id="path2384" d="m 2239.66,786.44 c -0.51,0.328 -0.84,0.904 -0.86,1.51 0.94,0.125 1.12,-0.824 0.86,-1.51"></path>
		<path id="path2390" d="m 2240.82,770.17 c 0.19,0.22 0.36,0.459 0.5,0.72 -0.56,0.229 -1.46,0.643 -1.65,1.283 -0.33,1.132 1.8,0.276 2.23,0.587 -0.15,-1.358 1.93,-2.451 3.02,-2.66 -1.4,-1.546 -2.13,0.457 -3.1,0.93 0.48,-1.04 -0.25,-0.976 -1,-0.86"></path>
		<path id="path2402" d="m 2245.21,770.74 c -0.31,0.294 -0.45,0.654 -0.43,1.079 0.61,-0.146 1.16,0.172 1.44,0.721 0.58,-0.609 1.78,-2.078 1,-2.95 -0.39,0.801 -1.25,0.93 -2.01,1.15"></path>
		<path id="path2406" d="m 2249.09,768.94 c -0.42,0.468 -0.99,1.66 0.36,0.94 -0.75,0.333 -1.4,1.015 -1.44,1.87 1.77,-0.169 3.82,-0.02 5.48,-0.772 1.05,-0.472 0.69,-1.576 -0.35,-1.759 -0.61,-0.108 -1.15,0.15 -1.76,0.09 -0.77,-0.07 -1.5,-0.476 -2.29,-0.37"></path>
		<path id="path2410" d="m 2258.02,769.09 c -0.56,-0.06 -0.98,0.9 -1.08,1.29 0.54,-0.239 0.94,-0.717 1.08,-1.29"></path>
		<path id="path2420" d="m 2259.10,767.94 c 1.5,-1.257 2.97,-0.971 4.75,-0.661 0.95,0.165 1.9,-1.672 3.1,-1.649 -1.57,-1.931 -2.38,-1.242 -4.63,-0.363 -0.64,0.246 -1.08,-0.328 -1.61,-0.1 -0.97,0.418 -1.47,1.814 -1.61,2.772"></path>
		<path id="path2430" d="m 2271.85,763.54 c -0.31,0.378 -0.46,0.812 -0.44,1.3 0.64,-0.222 0.95,-0.727 0.44,-1.3"></path>
		<path id="path2436" d="m 2273.36,769.23 c -0.18,0.85 0.1,0.899 0.72,0.15 -0.24,-0.05 -0.48,-0.1 -0.72,-0.15"></path>
		<path id="path2450" d="m 2274.37,768.66 c -0.32,1.255 2.06,1.676 2.3,0.279 -0.79,0.145 -1.56,-0.06 -2.3,-0.279"></path>
		<path id="path2460" d="m 2276.74,769.59 c 0,0.217 0.1,0.434 0.1,0.65 0.27,-0.179 0.51,-0.396 0.71,-0.65 -0.27,0 -0.53,0 -0.79,0"></path>
		<path id="path2472" d="m 2281.28,759.73 c -0.32,0.193 -0.49,0.48 -0.5,0.86 0.78,0.09 0.95,-0.197 0.5,-0.86"></path>
		<path id="path2476" d="m 2282.43,769.45 c 0.23,0.489 0.61,0.706 1.15,0.65 -0.11,-0.607 -0.57,-0.875 -1.15,-0.65"></path>
		<path id="path2480" d="m 2288.55,766.06 c -0.64,0.559 -0.31,1.929 0.63,1.912 1.78,-0.03 0.97,-2.096 -0.63,-1.912"></path>
		<path id="path2492" d="m 2296.90,770.82 c 1.18,-0.396 2.25,-1.135 3.24,-1.88 -1.24,0.48 -2.48,0.362 -3.24,1.88"></path>
		<path id="path2498" d="m 2298.20,763.47 c -0.13,0.619 0.11,0.642 0.72,0.07 -0.24,-0.02 -0.48,-0.05 -0.72,-0.07"></path>
		<path id="path2502" d="m 2299.49,762.75 c -0.12,0.193 -0.23,0.387 -0.35,0.58 0.57,0.194 0.96,-0.07 1.08,-0.65 -0.24,0.02 -0.49,0.05 -0.73,0.07"></path>
		<path id="path2504" d="m 2304.32,760.16 c -1.19,0.07 -4.53,4.052 -3.38,5.109 -2.33,-1.073 -0.71,4.782 0.47,2.077 0.52,-1.198 1.82,-1.783 2.46,-2.923 0.53,-0.943 -0.1,-3.073 1.1,-3.474 -0.18,-0.293 -0.4,-0.556 -0.65,-0.789"></path>
		<path id="path2512" d="m 2305.11,760.16 c 0.38,0.638 1.24,0.464 1.73,1.01 0,-0.987 -0.99,-1.067 -1.73,-1.01"></path>
		<path id="path2516" d="m 2313.39,747.70 c -0.18,-0.231 -0.42,-0.301 -0.72,-0.209 0.31,0.521 -0.19,2.125 0.5,2.339 1.09,0.336 0.41,-1.744 0.22,-2.13"></path>
		<path id="path2518" d="m 2313.97,746.84 c -0.63,-0.131 -0.66,0.109 -0.1,0.72 0,-0.24 0,-0.48 0.1,-0.72"></path>
		<path id="path2520" d="m 2313.97,750.51 c 1.29,-0.96 2.58,-4.366 3.02,-5.9 -1.09,0.384 -0.97,1.451 -1.34,2.334 -0.52,1.244 -1.29,2.213 -1.68,3.566"></path>
		<path id="path2524" d="m 2323.69,751.95 c -0.2,0.888 -0.37,2.092 0.36,2.811 -1.45,-0.08 -1.93,4.254 0.47,3.113 3.11,-1.485 1.09,-4.488 -0.83,-5.924"></path>
		<path id="path2534" d="m 2327.94,755.62 c -0.52,0.327 -0.58,1.002 -0.36,1.521 0.37,-0.447 0.49,-0.954 0.36,-1.521"></path>
		<path id="path2536" d="m 2327.94,754.40 c -0.67,0.392 -0.58,0.632 0.28,0.72 -0.1,-0.24 -0.19,-0.481 -0.28,-0.72"></path>
		<path id="path2538" d="m 2328.94,754.54 c 0.85,-2.607 -0.61,-0.843 0,0"></path>
		<path id="path2230" d="m 2081.84,746.05 c 0.2,-0.974 -1.2,-2.093 -1.94,-1.15 0.7,0.337 0.99,1.512 1.94,1.15"></path>
		<path id="path2202" d="m 2027.55,648.41 c 1.08,0.341 0.52,-1.038 -0.5,-0.721 0.17,0.241 0.33,0.481 0.5,0.721"></path>
		<path id="Indonesia_Sumatra" d="m 2044.62,653.09 c -0.64,0.37 -1.46,0.925 -2.25,0.706 -0.75,-0.209 -0.96,-0.89 -1.81,-0.912 -1.42,-0.04 -2.66,0.699 -4.12,0.558 -1.72,-0.166 -2.85,-0.73 -3.98,-2.021 -0.83,-0.963 -3.16,-2.305 -4.43,-1.413 -4.71,3.296 6.7,12.52 8.51,14.933 0.68,0.92 1.61,0.956 2.67,1.148 1.73,0.318 2.29,2.257 3.08,3.534 0.61,0.981 1.84,3.441 2.89,3.884 1.82,0.771 1.11,2.544 1.62,4.171 0.48,1.532 2.06,1.149 3.23,1.966 0.75,0.519 1.48,1.077 2.22,1.611 0.91,0.657 1.83,1.332 2.62,2.139 1.1,1.134 0,1.258 0.38,2.517 0.4,1.509 1.05,2.963 1.46,4.488 0.44,1.615 1.6,3.301 1.48,5.005 -0.12,1.797 1.27,0.694 1.95,1.501 1.12,1.321 2.76,1.013 3.07,3.171 0.39,2.813 4.1,4.64 4.73,7.59 0.1,0.422 -0.61,0.47 -0.28,0.925 0.45,0.617 0.85,1.268 1.2,1.951 0.78,1.548 2.4,3.582 2.46,5.338 0.1,1.698 0,2.776 1.06,4.249 0.79,1.109 1.99,1.89 2.65,3.085 0.79,1.424 1.2,2.859 2.46,3.991 1.24,1.12 2.97,1.871 3.73,3.444 0.75,1.552 0.62,2.463 2.06,3.645 1.45,1.197 2.74,2.562 4.14,3.829 1.2,1.095 2.37,2.129 3.82,2.883 1.44,0.752 1.64,1.31 2.35,2.596 0.38,0.682 0.87,1.321 1.35,1.936 0.41,0.438 0.86,0.84 1.33,1.204 0.3,0.266 -0.1,0.559 0.32,0.824 0.26,0.189 2.66,3.308 2.67,1.658 0,-0.967 -0.91,-1.706 -1.01,-2.661 -0.14,-1.342 1.97,0.391 2.22,0.614 1.79,1.591 3.54,1.598 3.33,-1.419 1.12,0.967 1.87,2.932 3.46,3.24 0.95,0.185 0.92,-2.691 0.94,-3.177 0.1,-1.872 0.36,-3.732 0.5,-5.603 0.1,-0.997 0.72,-2.411 0.27,-3.367 -0.34,-0.738 -0.58,-1.159 -0.34,-1.953 0.28,-0.965 1.07,-2.258 0.94,-3.288 -0.1,-0.764 -0.95,-0.797 -0.75,-1.83 0.17,-0.897 0.72,-1.68 1.17,-2.452 0.49,-0.833 0.87,-1.188 0.68,-2.226 -0.17,-0.987 -0.98,-0.585 -1.54,-1.165 -0.76,-0.791 -1.96,-3.43 -1.51,-4.46 -0.87,-0.142 -5.05,-1.242 -5.4,-0.36 -0.13,-0.259 -0.25,-0.521 -0.36,-0.789 -0.91,1.136 -1.03,2.736 -2.38,3.529 0.4,-0.587 2.23,-2.585 0.43,-2.6 0.97,-0.395 2.13,-1.244 1.97,-2.437 -0.12,-0.898 -1.06,-0.585 -1.62,-0.924 -0.57,-0.345 -0.89,-1.827 -1.02,-2.402 -0.38,-1.688 -0.78,-3.291 -1,-5.021 -0.13,-1.064 -3.24,-1.178 -4.16,-0.966 -0.72,0.167 -2.09,-1.254 -2.62,-1.69 -0.89,-0.737 -0.53,-2.284 -0.91,-3.33 0.4,0.482 1,0.575 1.51,0.209 -0.2,-0.833 -1.01,-0.943 -1.73,-1 0.59,-0.04 1.02,-0.455 1.16,-1.01 -0.48,-0.03 -0.97,0.02 -1.44,0.141 0.85,-0.248 1.35,-1 1.98,-1.562 0.48,-0.433 1.73,-0.306 2.02,-0.792 0.48,-0.803 -1.29,-2.545 -1.75,-3.063 -1.27,-1.436 -2.22,-1.316 -3.69,-0.269 -1.15,0.809 -4.03,2.855 -5.26,1.225 2.55,1.463 7.46,-3.06 2.81,-4.109 -0.74,-0.167 -1.5,0.154 -2.23,-0.141 -0.82,-0.333 -1.16,-1.265 -1.83,-1.792 -1.37,-1.083 -0.6,-3.308 -2.09,-4.458 -0.55,-0.424 -1.13,-1.082 -1.72,-1.425 -0.64,-0.366 -1.48,-0.05 -2.18,-0.418 -1.14,-0.595 -1.05,-2.362 -1.79,-3.332 -0.36,-0.478 -2.93,-2.989 -3.49,-1.49 -0.43,1.116 0.93,2.541 1.07,3.627 -0.47,-0.479 -0.6,-1.123 -0.98,-1.655 -0.63,-0.88 -1.79,-1.012 -2.55,-1.729 -1.26,-1.187 -1.39,-3.085 -2.59,-4.319 -0.34,0.466 -0.41,0.97 -0.21,1.512 -0.2,-0.362 -1.45,-2.813 -1.01,-0.864 -0.81,-0.93 0.4,-2.088 -0.83,-2.888 -1.11,-0.724 -1.97,-1.987 -3.06,-2.799 -1.25,-0.935 -2.27,-2.438 -3.72,-3.072 -0.52,-0.226 -1.07,-0.345 -1.59,-0.58 -0.89,-0.406 -0.75,-1.063 -1.33,-1.673 -0.75,-0.801 -2.09,-0.853 -2.86,-1.588 -0.96,-0.924 0.32,-2.541 -0.71,-3.378 -1.23,-1.009 -1.47,-1.019 -2.01,-2.608 -0.46,-1.349 -2.76,-3.145 -3.83,-4.097"></path>
		<path id="path2208" d="m 2047.14,693.20 c 1.49,1.597 2.01,-2.856 1.35,-3.759 -0.79,-1.063 -2.03,-3.071 -3.27,-3.606 -0.91,-0.396 -1.44,0.892 -2.4,0.308 0.15,1.342 1.34,2.333 1.92,3.489 0.35,0.717 1.18,0.965 1.6,1.628 0.38,0.603 0.45,1.326 0.8,1.94"></path>
		<path id="path2210" d="m 2044.33,680.81 c 0,-0.72 -0.54,-1.907 -1.44,-1.224 0.54,0.334 1.02,0.742 1.44,1.224"></path>
		<path id="path2212" d="m 2053.33,702.63 c 0.19,-0.638 -0.1,-1.267 -0.58,-1.66 -0.4,0.541 -0.69,1.375 -0.85,2.023 -0.2,0.868 1.72,0.901 1.43,-0.363"></path>
		<path id="path2214" d="m 2052.03,698.53 c 0.37,1.068 0.94,2.047 1.51,3.021 0.24,-0.798 -0.39,-3.15 -1.51,-3.021"></path>
		<path id="path2216" d="m 2053.83,684.49 c 0.11,-0.562 -0.13,-0.562 -0.72,0 0.24,0 0.48,0 0.72,0"></path>
		<path id="path2218" d="m 2055.70,697.74 c -0.2,-0.952 -1.7,-0.8 -2.23,-0.291 0.67,0.445 1.47,0.499 2.23,0.291"></path>
		<path id="path2220" d="m 2057.94,714.15 c 2.98,-0.421 -1.67,-6.247 -1.59,-7.63 -0.49,0.269 -1.32,0.138 -1.67,0.625 -0.5,0.701 -0.82,2.05 -0.29,2.802 1.01,1.422 1.59,3.783 3.55,4.203"></path>
		<path id="path2222" d="m 2063.48,719.12 c -0.19,-0.771 -1.17,-3.485 -2.23,-2.762 -1.17,0.799 1.7,2.445 2.23,2.762"></path>
		<path id="path2224" d="m 2064.49,722.58 c 0.23,0.854 1.22,0.459 1.53,-0.09 0.45,-0.81 -1.04,-2.033 -1.61,-2.365 -0.3,0.823 0.23,1.617 0.1,2.45"></path>
		<path id="path2226" d="m 2067.87,727.40 c 0,-0.551 -0.48,-0.965 -0.38,-1.505 0.12,-0.699 0.54,-0.534 0.33,-1.229 -0.15,-0.507 -0.78,-2.076 -1.55,-1.784 -1.15,0.437 1.04,4.059 1.6,4.518"></path>
		<path id="path2228" d="m 2078.24,681.75 c -0.3,-1.424 -2.28,-1.862 -2.8,-0.323 -0.28,0.857 0.26,2.078 1.21,2.267 1.14,0.228 1.18,-1.283 1.59,-1.944"></path>
		<path id="path2232" d="m 2083.57,685.49 c -1.07,-0.454 -2.31,-0.39 -3.32,-1.008 -0.2,1.054 0.69,1.533 1.57,1.694 0.87,0.158 1.33,0.955 1.96,1.474 0,-0.726 0.1,-1.466 -0.21,-2.16"></path>
		<path id="path2234" d="m 2083.71,688.16 c -0.44,-0.748 -1.09,-1.589 -2.01,-1.728 -0.24,1.315 -0.11,3.668 1.58,3.959 0.26,-0.724 0.13,-1.513 0.43,-2.231"></path>
		<path id="path2236" d="m 2088.10,691.76 c -0.5,-0.946 -1.47,-1.593 -2.48,-1.886 -0.56,-0.164 -1.07,-0.968 -1.43,-1.038 -0.42,-0.08 -0.8,2.311 -0.29,2.653 1.18,0.792 2.89,-0.02 4.06,0.99 0,-0.239 0.1,-0.479 0.14,-0.719"></path>
		<path id="path2238" d="m 2088.97,691.18 c -0.31,-1.235 -4.22,-3.62 -3.68,-1.439 1.5,-0.672 2.15,1.924 3.68,1.439"></path>
		<path id="path2240" d="m 2089.98,693.49 c -0.11,-0.513 -0.42,-0.803 -0.94,-0.871 -0.36,0.542 -0.29,1.022 0.21,1.44 0.27,-0.159 0.51,-0.349 0.73,-0.569"></path>
		<path id="path2242" d="m 2090.98,689.67 c -0.2,-0.29 -0.47,-0.505 -0.79,-0.647 -0.1,0.607 0.21,0.85 0.79,0.647"></path>
		<path id="path2244" d="m 2091.56,692.19 c -0.18,-0.567 -0.62,-0.943 -1.23,-0.72 0,0.601 0.38,1.117 0.87,1.44 0.12,-0.24 0.24,-0.48 0.36,-0.72"></path>
		<path id="path2248" d="m 2093.22,700.90 c -0.53,-0.36 -2.48,-0.153 -1.68,0.782 0.48,0.572 1.59,-0.229 1.68,-0.782"></path>
		<path id="path2252" d="m 2094.87,690.53 c 0.2,-0.753 -0.1,-0.896 -0.79,-0.43 0.26,0.143 0.53,0.286 0.79,0.43"></path>
		<path id="path2256" d="m 2096.45,688.73 c -0.52,-1.201 -1.51,0.163 -1.51,0.878 0,0.855 1.62,-0.06 1.51,-0.878"></path>
		<path id="path2258" d="m 2096.67,691.69 c 0.39,-0.718 0.2,-0.958 -0.58,-0.72 0.19,0.24 0.39,0.48 0.58,0.72"></path>
		<path id="path2262" d="m 2100.41,689.67 c -1.03,-2.517 -3.91,-0.152 -2.71,0.295 0.8,0.298 1.16,-0.474 1.42,0.855 0.26,1.336 1.32,-0.591 1.29,-1.15"></path>
		<path id="path2264" d="m 2097.46,692.48 c 0,-0.278 -0.1,-0.541 -0.21,-0.79 0.1,0.263 0.14,0.527 0.21,0.79"></path>
		<path id="path2266" d="m 2099.05,701.55 c -0.35,0.275 -1.02,0.414 -1.44,0.549 -0.8,0.258 0.54,1.838 0.64,2.261 0,-0.72 0.42,-0.946 1.01,-0.5 0.19,-0.859 0.82,-1.705 -0.21,-2.31"></path>
		<path id="path2268" d="m 2098.62,697.16 c -0.41,0.453 -0.25,0.716 0.5,0.789 -0.17,-0.263 -0.33,-0.525 -0.5,-0.789"></path>
		<path id="path2270" d="m 2099.33,698.53 c 0.1,0.514 -0.8,2.405 0.28,2.266 0.61,-0.08 0.98,-0.409 1.59,-0.102 0.62,0.315 1.14,0.819 1.88,0.426 -0.38,-0.607 -3.04,-2.662 -3.75,-2.59"></path>
		<path id="path2272" d="m 2100.05,691.90 c -0.25,-0.01 -0.49,0.04 -0.72,0.15 0.24,-0.05 0.48,-0.1 0.72,-0.15"></path>
		<path id="path2274" d="m 2099.62,696.73 c -0.33,0.703 0.72,1.268 1.16,1.511 -0.37,-0.52 -0.75,-1.023 -1.16,-1.511"></path>
		<path id="path2282" d="m 2105.60,713.43 c 0.84,1.158 -1.3,1.682 -1.73,2.45 0.88,0.716 1.56,1.301 2.74,0.865 0.8,-0.293 2.13,0.39 2.36,1.21 0.2,0.726 0.76,1.597 0.87,2.236 0.28,1.471 -0.59,2.088 1.08,3.005 0.72,0.394 3.98,2.894 4.76,2.184 0.78,-0.707 -0.41,-1.035 -0.65,-1.619 -0.37,-0.924 0.76,-2.595 1.66,-2.771 -1.14,-0.688 -2.7,-0.354 -3.75,-1.221 -0.97,-0.799 -1.31,-2.777 -1.2,-3.955 0.1,-0.7 -0.41,-2.962 -0.88,-3.535 -1.32,-1.625 -3.03,0.243 -1.81,1.73 -0.51,0.07 -3.35,-3.846 -3.45,-0.579"></path>
		<path id="path2286" d="m 2116.62,723.66 c -0.22,0.07 -0.43,0.139 -0.65,0.209 0.15,0.597 0.6,0.856 1.15,0.511 -0.14,-0.259 -0.31,-0.499 -0.5,-0.72"></path>
		<path id="path2290" d="m 2121.66,723.01 c -0.34,0.121 -0.63,0.311 -0.87,0.57 0.56,0.269 0.89,0.05 0.87,-0.57"></path>
		<path id="path2292" d="m 2123.45,720.70 c -0.95,0.967 -1.18,2.638 -1.07,3.914 0.11,1.362 2.12,2.079 1.79,0.627 0.59,0.04 1.48,1.684 2.07,1.105 0.8,-0.794 1.62,-2.402 1.49,-3.569 -0.19,-1.707 -2.9,-2.355 -4.28,-2.077"></path>
		<path id="path2294" d="m 2125.76,665.26 c 0.62,0.102 1.18,0.455 1.58,0.937 -0.59,-0.368 -0.97,-0.06 -1.01,0.575 1.79,0.257 2.29,-1.537 1.6,-2.891 -1.24,-2.403 -2.76,-0.496 -2.17,1.379"></path>
		<path id="path2298" d="m 2130.94,713.43 c 0.3,0.03 0.59,-0.02 0.87,-0.14 -0.3,-0.03 -0.6,0.02 -0.87,0.14"></path>
		<path id="path2302" d="m 2133.17,712.14 c -0.41,-0.32 -0.81,-0.32 -1.22,0 0.16,0.284 0.38,0.523 0.65,0.72 0.22,-0.218 0.41,-0.458 0.57,-0.72"></path>
		<path id="path2306" d="m 2139.29,707.53 c -1.13,-1.601 -3.43,0.908 -2.01,2.301 0.68,-0.677 2.46,-0.985 2.01,-2.301"></path>
		<path id="path2324" d="m 2188.69,726.97 c -2.61,-1.094 -1.77,5.536 -1.23,6.41 0.69,-1.134 1.43,-0.789 1.33,-2.342 -0.1,-1.218 -0.58,-2.905 -0.1,-4.068"></path>
		<path id="path2326" d="m 2189.84,728.05 c -0.82,0.149 -0.75,1.017 -0.22,1.44 0.11,-0.473 0.19,-0.953 0.22,-1.44"></path>
		<path id="path2332" d="m 2197.54,669.73 c -0.16,0.657 0.1,0.729 0.72,0.216 -0.24,-0.07 -0.48,-0.144 -0.72,-0.216"></path>
		<path id="path2334" d="m 2198.41,668.86 c -0.31,0.695 0.35,1.305 0.93,1.513 0.1,-0.649 0.1,-1.743 -0.93,-1.513"></path>
		<path id="path2336" d="m 2198.62,663.10 c 0,0.621 0.38,1.037 1.01,0.72 -0.1,-0.578 -0.44,-0.858 -1.01,-0.72"></path>
		<path id="path2338" d="m 2198.91,701.77 c -0.23,0.208 -0.32,0.472 -0.29,0.79 0.1,-0.263 0.19,-0.527 0.29,-0.79"></path>
		<path id="path2340" d="m 2200.14,667.64 c 0,0.517 0.29,0.853 0.79,1.008 0,-0.526 -0.3,-0.869 -0.79,-1.008"></path>
		<path id="path2344" d="m 2206.40,678.51 c 0,0.518 0.29,0.925 0.72,1.224 -0.22,-0.421 -0.46,-0.829 -0.72,-1.224"></path>
		<path id="path2556" d="m 2195.89,668.07 c 0,-0.168 0.1,-0.336 0.1,-0.504 0.77,0.11 1.48,0.427 2.16,0.792 -0.76,0.138 -1.52,-0.04 -2.23,-0.288"></path>
		<path id="path2558" d="m 2199.20,662.53 c 0.87,-0.116 2.02,-0.281 1.8,1.009 -0.84,0.174 -1.25,-0.574 -1.8,-1.009"></path>
		<path id="path2564" d="m 2324.48,750.73 c 0,0.594 0.29,1.098 0.72,1.511 -0.2,-0.343 0.15,-2.436 0.3,-2.909 0.38,-1.207 -0.89,-0.581 -0.52,-1.632 0.98,0.492 1.61,-1.117 2.02,-1.7 0.71,-1 1.64,1.145 1.63,1.688 0,1.421 -0.13,2.947 -0.21,4.368 -0.13,2.229 -1.79,1.207 -2.93,0.405 1.47,1.748 -3.82,-1.891 -1.01,-1.731"></path>
		<path id="path2566" d="m 2326.21,752.96 c 0.3,0.197 1.24,1.418 0.62,1.71 -1.01,0.476 -1.69,-1.459 -0.62,-1.71"></path>
	</g></svg>
