<svg xmlns="http://www.w3.org/2000/svg" viewBox="1998.8 516.9 407.1 407.1"><g fill="#2b1d24"><path d="M2303.7 707.2q.4-.7-.3-1.5c2.3-.5 4.2-.7 6-2.3q2.2-2.3 5.4-1.6c2.2.6 3.3 2.2 5.2 3s4-.3 5.7 1.1c-1.4 1-.1 2.4.5 3.4.8 1.4 0 2.6-.6 3.8-1.3 3.3.7 7.2 2.1 10 .5-.7-.2-2.3.7-2.9 1.1-.7 1 2.7 1 3 0 .7.2.8.7 1.3.6.6.3 1.4.9 2 1 1.3 3.4 2 4.6.7l2.8-2.8c1-1 1.2-2.3 2.5-3.1 1.2-.8.9-3.6 2.4-3.6 1.8 0 2.7.2 4.4-.7 1.2-.6 1.2-1 .7-2.2-.4-.8 2.2-2 2.8-2.3 1.3-.7 2.5-1.2 4-.5 1.8 1 4 1.6 5.7 2.9q2.2 1.4 4.5 2.4c1 .5 3.1 2.2 4.4 1.7 1.6-.5 2.2.7 3.8.6 1.7 0 2.6 1.8 4.2 1.5l-1.6 31c-.2 1.7-1.4 2.9-1.4 4.7 0 .7 1 1.1 1 1.6l-.2 3.3-1.3 15.8c-2.2-1-2.6-3.5-4.2-5.1-.8-.8-4-2.7-2.5-4.1-1 .7-2.6.4-3.7.9-1 .4-2.8.4-2.3-1.1-.4.6-1.7 1.7-2.5 1.7-1.2 0 .2-2.1.3-2.4.5-1 1.8-3.2.8-3.7s-1.1-1.7-1.8-2.4c1.2-1 2.7.8 3.7-.8-1.7 1.6-3.8-1-5-2 1.6-1.6 3.3.4 4.8.4q-1.9-.9-3.6-2.1c1.4-.3.1-.7-.3-1.2a6 6 0 0 1-1.6-2.5c-.3-1.2-1.5-3.4.1-4-1.5.6-1.6-1.1-.2-1.4-.5 0-1.9.9-2.3.2-.5-.7.5-1.7.1-2.6-.4 1.9-1.8-1-2.4-1.3-1-.5-1-.7-1.9-1-.6-.4-2-.8-2.4-1.4-.5-.8-3.6-.9-4.5-1.5q-2.4-1.5-5-2.4c-1.6-.6-4 0-5.5-.8-1.2-.6-3-1.5-3.5-2.9s1.6-1 2.4-1.2c-1-.3-2-.7-2.7.2-.8 1-1.3-.6-2-.8 0 1.5-2.3.4-1.3-.6-1.5 0-2.1 0-2.5-1.9q-.2 1.1-.9.4c-.6-.8-.1-1.3-.2-2.1-.1-1.6 1.4-2.4 1.5-4-.4.8-1.7 1.1-1.7 2.1s0 2.3-1.3 2.2c1.2.5.3 1.1-.1 1.8l-.7.7-.1 1.4c-.4 1-2.5 2.1-3.5 1.8-1-.2-1.6-2.5-1.6-3.3 0-.6.7-.6 1.1-.8 1-.5-.5-1.8-.3-2.6-1.2.7-2.7-3.3-4.5-3.4-2.7 0-1.2-2 .7-2.1 2-.2 3.5 1.8 4.9-.6 1-1.7 4.2-2.3 3.4.6l.5-1.5c.3 1.4 1.9-.4 1.8 1.1.2-1.2.6-.5 1 .1q.4-1-.3-2 .8.2 1.5 0-.7-.8 0-1.5c-1.5 1.1-.3-.8 0-1.2-1.7.2-2.6 1.2-4.4 1-1-.2-2.5.8-3.5.5-1.2-.5-1.7.3-2.6-.6-.3-.3-1.2.3-1.5.3-1 0-1.8-.9-2.6-1.4l.6-.7c-.8.1-1.6-.8-1.3-1.6l.5-1c-.2-.9-1.5.5-.6-1q-1 .3-.8-.7c-1 1.5-3.1-1.1-4-1 .9 1-1.2 1-1.7.5-1.5-1 1.4-2.8 1.6-3.9M2241 785c.4.4.4.7 1 .4.2 1.1-1.8 1.4-2 2.8.9-.2 1.8 0 2.6-.2 1.2-.2 2-1.4 3.2-1.4 1.8 0 2.4-.6 3.7-2 .8-.9 2.1-2 2.4-3.1.5-1.7-.5-.3 1-.8q.1.2.5-.8c-.3 0-.4-1-.3-1.7 1.6-2.1-.8-2.5-.7-2.6-3 1.2-.7 1.9-4.2 2.5-.9.2-.2 2.7-.8 3-.6.5-.8-.9-1.2-.3-.5.6-1.9-1.4-2.2-.7s-2.7 4.2-3 5M2132.7 691c1-.6.3-1.2.5-2 .3-1.2 1.9-1.3 2-2.5l-1.2 1.4c-.8-1.3.2-2.5 1-3.5q.8-.9 1-2c.4-1 1.7-1.1 2.4-1.8-.2.9-1.3 2 0 2.5.2 0 .6 2.2 1 2.6 1.1 1.2 3 2.1 3.8 3.7.3.6 1.5 1 2 1.4 1.2.6 2.7-.6 3.7-1 1.9-.8 3.7.3 5.7 0q1.2-.2 2.2-1c1.1-.5.8-2 1.6-2.8.8-1 5.1-1.8 5.8-.5.6 1.4 4.5 2.6 5.7 1.9 1-.7 1.3-1.7 2.8-1.2.7.2 1.3-.4 1.9-.6s1 .4 1.6.4c-.3-1.4 2.7-4.4 1.9-5.3-1.4-1.5 1.7-3.5 2.9-4-.7-.8-2-3.9.1-4.1 2.7-.3.7-2 2.2-3.5.6-.5-.2-2.8 0-3.8q0-1.5.6-2.9c.4-.7 1.1-1 1.3-1.8 1.4.5 1.8.8 3.3.1.5-.2 1.7 1.7 1.9-.3 1 1 2.8.8 4 .6 1.6-.1 2.5 1.6 4 1.5q-.7.5-1.5.5c.3.3 3 2.5 1.2 1.6.3.3 1.3.5 1.5.9q.1.7.7 1c-.9 1.2-2.3.5-2.7-.7q.3.7.3 1.6c-.8-.5-2.2-.5-3-.1 1 .4 1.6 1.4 2.7 1.7-.3.6-.4 1.8-1.4 1.4q1.2 1.2 2.8 1.6c-.9 1 .8 1.1-.6 1.3q.8 0 1.4.4c-1.4.4.4 1.2 1 1.9l1.6 2.4c.6 1-.7 3.1-2 3.1.9.3.5 1.1 1 1.6l2.8 2.3c.8.5 1.3 1.5 2.1 1.8 1.2.4 2 1.7 2.9 2.6.3.4 1.2 0 .6 1-.8 1.2-2 .6-3 1.1-1.8.9-3.8-1.5-5.1-2 .6.9 1 2-.4 2.1-1.3 0-1.7 2.1-2 3.1a23 23 0 0 0-1.2 8.4 2 2 0 0 1 1.4-.7c-.2.6-1.1 1.3-.4 1.6q-1 .7 0 1.4c-1 .3-2 1.4-2.2.1-.3 1.9-3.8 5.8-4.3 2-.7 1.3.5 2.4-1 3.4-.7.5-.3 1.2-.8 1.8s-1.6.7-2 1.5c2.2-.9 1.4 2.2.3 3 .6.6 1.7-.2 2.2.4s-.4 2.7-.8 3.2q-.6-.7-1.4-.4c1.4 1.3-.5 5.2-1.5 3.2-.2.9.5 1.6 1 2.2-2 .4-1.4 3.4-3 4l-5.6 2.9c-.5.2-4.3 2.8-4.2 1.3v-2.8c.1-1.3-.8-2.3-.4-3.7-1.5 1.5-2.5 1-1.5-1-.6 1-2.1 1.8-1.8-.2-.1 1-3 3.5-3.7 1.9-.3-.6.5-1 0-1.6-1-1-2 .9-2.4-.6.4 1.7-1.8-1.3-2-2 0 1.5-1.6 3.2-2.9 3.9s-2.5-1.3-3.8-.3c-.4.3-2.3 2.9-2.6 1.2-.4-2 .3-3.9-.8-6-1 2.3-1.2 1.3-2.9 1.2q-.9.2-1.8 1c-1 .6-1.6 0-2.7-.2l1.1-1c-.8.1-1.1 1.2-2 1 .4-2.1-1.8-.9-2.7-.2-1.1-1.3-.3-3.5-.7-5-.3-1-.1-2.1-.3-3.2-.2-.8-1.6-1.5-1.5-2.3 0-.2.8-1.1.9-1.4q.6-1.4-.1-2.7l-.8-1.8c-.5-.7-1.3-1-1.3-2l-.6.8c-.8-1.5-1.6-.2-2.7-.8-.6-.4-.2-1 0-1.4s1.3 0 1.6 0c-.6-.3-.9-1-1.5-1.2q-.8.1-1.4-.5c-.4-.6-.7-3.3.7-2.5-.4-1-1-2 .2-2.1-1-1.3-2.2-2.4-2.6-4-.1-.7-.8-2.9-.1-3.5"/><path d="M2325 732.5q-.9.5.3.7zm1.4-18.8c-.6.2-.7 1-.5 1.5q0-.7.5-1.5m1.2 2.3q-.8-.2-.2.7zm3.9-9.3c-1 .2-.8 2 .2 1.8.6-.2 0-1.5-.2-1.8m1.7 4.6-.1.5 1.5-.3zm1.9-7.2c0 1.2 2 2.6 2.8 1.3.5-.8-2.3-1.2-2.8-1.3m.9 8.3-.1.7c1.8.2 3.4 1.2 5.2 1.6.8.1 1.6.5 2.4.3.9-.3 1.9-.8 2.8-.6-.8-1.2-2.7-1-4-1.2zm13.3 58.3-.2.8c1.5-.5 3-.3 4.6-.3s2.4-.8 3.6-1.7c.5-.4 3.6-4.3 3-5-1.8-2.3-3-2.5-5.8-1.4-3 1.2-4 5-5.2 7.6"/><path d="m2358.2 771.3.7-.2c-.4-.7-.3-2.1-1.5-1.7-1.7.7-.4 1.9.8 2m-.4-14.6q0 .9 1 1-.2-.8-1-1M2036.4 678c.3.2 1.5.3 1.3-.4-.1-.4-1.3-1.1-1.6-1.4q-.6-.7-1.4-.6c.3-.8-.8-1.4-1.4-1.7-.3-.1-.5-.7-1-.4q-.9.9 0 1.8c1.3 1 3.4 1 4 2.7m175.4 65.3c-.3 1.2.3 2.3.2 3.5 1-.5 1.7 1.7 3 .7.8-.6.9-.7 2-.6 1 .1 1.7-1 2.7-.3-.1-1.7-1.4-3.1-.8-4.9.7-2 1.1-3.5.9-5.8-.3-2 .2-3.4.4-5.3V728c.2-1.5-.4-1.5-.8-2.7-.7-2.4 3.4-4.3 5.2-3.8 1.7.5 1.2 4.2.3 5.1-2.4 2.7 1.7 5.8 4 7 1 .5-1.5 4.2-.5 5.7.5.8 2.3 1.2 3.2 1.4 1.1.1.9-1.7 1-2.3.3-1.5 2.3-1.2 3.3-1.6.6-.3 3 1 1.6-.8 1.1 1.9 2.6-1.9.7-2.4-.3 1.8-.8-.7-1.7-.7l.5-.7c-.8 0-1.7-1.1-2.2-1.7-.7-1 .2-1.7-.4-2.7l1 .3c-.8-.6-.6-1.8.5-1.7l-.8-1c-.5-.6-.1-1.3-.5-2l-1.5-1.1-.8-2.2q-.6-1.6-2-2.6c-.9-.4-1.3-2.2-2.5-1.7l.1-1.9c1.2 1 2.2 2 3.4.3 1.1-1.5 2.2-1.5 3.7-2.3 2.1-1.2 3.6-6 6.3-6 .8 0 1 2.3 1.8 1.4.6-.6 1.6-2 1-2.8-.8-1.4-4.4-1-5.5 0q.9 0 1.6.6c-1.5.1-5.5-.9-6 1-.4 1.2-4 1.1-3.8-.6q-2 1.3-3.2 3.3c-.6 1.5-1 2.3-2.6 2-1-.3-2.1-.6-2.4-1.8q-.1-.9-.6-1.8c-.6-1-1-.2-1.7-.7-2.3-1.6-2.4-6.7-1.4-9a7 7 0 0 1 2.8-3.3c1-.6 3.6.3 4.7.7.8.3 2.3-.3 3-.7 1.4-.6 1.8.4 3.2.6s3.6-.6 5.3-.6c2 0 3.2.2 4.8 1.3 2 1.5 8.1.5 9.8-1.4 1-1.3 1.5-2.7 2.8-4 1.4-1.2 1.4-3.4 2.9-4.5q-.9-.6-.7-1.6c-.5.1-1.3-.3-1.8.1-.7.6-.7 1.8-1.6 2.1-1.5.5-.6 1-1.3 1.9-.4.5-1.4.3-1.7 1-.7 2-3.6 2.2-5.1 1.9q-2.2-.5-4.3-.5c-.8 0-1.5.9-2.2.6-2-.8-3.4-1.2-5.5-1.4-1.1-.1-1.7-.4-2.9-.3-1.3.1-1.7-1.7-2.4-1.7-.9 0-4.1-1.6-4.3.3-.2 2.4-2.5 4.8-4.3 2.2q-.2 1.1-1 2c-.9.7-.7 1.8-1.5 2.5-1.6 1.3.4 3.5-1.2 4.6q-.1-1-1.1-.8c.4 1.6 1.6 1.2 1 3-.4 1.5 1.1 3 .6 4.7q-.3-1.1-1-1.8c-.9 2.4-2.8 3.7-3 6.4q.2 2 0 3.8c0 1.4-1.3 2.3-1.4 3.8-.2 2-3.4 3-3 4.6.4 1 1.1.4.3 1.7-.7 1.2.2 3.7.7 4.9.6-.8 2.3-1 3.2-1 2-.2.4 1.7 1.1 2.9 1 2 .8 3.5.5 5.8-.3 1.8-.8 4.6-2 6m19.8-.8c-2.3.8-.2 3.4-.1 3.3.6-.6.5-2.6.1-3.3"/><path d="M2232.3 702.6c-.4-.7-1.5-.7-1.5.2q.8.4 1.4-.2m1.1-.8q-.7-.9-1.5 0 .8.6 1.5 0m2.5 43.8c.3-.4 1-1.1.8-1.7-.5-1 .4-1.4.7-2.3.2-.4.8-3.6-.5-3l-2 1.3c-1 .9.5 2-.2 2.9-.3.3-1 1.6-.8 2 .4.8 1.6.6 1.6-.3z"/><path d="M2240.2 736.7c-1.8 0-2.5 4-2.6 5.4 0 1.5-.6 2.1-1.2 3.5-.7 1.6.4 1.2 1.3 2.2.5-.6.5-1.5 1-2s1.3-.3 1.8-.9c.6-.8-.7-2.2-1.5-1.4l.4-2.6c.2-.6 1.2-2.5 1.5-.8.8-1.4-.7-2.1-.7-3.4m2.1-23.9.2-1.5c2.7 1.4 2-4-.2-.7-.7-1 .7-1.3-.7-1.8q-.8-.2-1.5 0c-1.1.8-.9 2.5-.6 3.5q1.2-.7 1.7-2c.8.6 0 2.4 1.1 2.5m-2.1 20.2c-.8.4-.8 1.9 0 2.2 1.3.4 2-2 0-2.2"/><path d="M2243 709c-.3.3-.4.2-.2.7zm.3 4.2q-.5.2-.5.7zm.1 30.8c.1.5 0 .7.7.8zm1.2 1.9q0 .6.8.7zm2.1 3.7q-.9.7.5.7zm4.6-36.6c-1.2 1.8-.2 3.4 2 2.7l1-.6 1.3.1c.8-.4 2.2 0 2.6-1.1q-1 0-1.1-.8c-1 1.3-4.4-.9-5.8-.4m7.6-38.1q-1.2-.3-.2.7zm1.5-5.2c.4-1-.8-3.8-2-2.5 1.2.3.8 2 2 2.5m-1.5 44.4c-1 1 1.6 1.2 2.1 1.2 1.4 0 3.5.2 4.6-.9-2.2-.3-4.6.5-6.7-.3m4.1 1.7c-1.6.3-.2 3.8.6 4.4.4-.6-.3-3.9-.6-4.4m5 16c1-.5 3.4-.9 4-1.9q1.4-2-.9-2.5c1-1.2-1.2-1.9-2-2-1.5-.5-2.8 0-4.3.2q-2.6.2-1.4 2.8c.9 1.8 3 2.5 4.6 3.4m.2-65.9q.3-1-.5-1.5zm.3-1.7q1-1.3.8-3.2c-.1-.5-.6-2.2-1-.8-.4.9.6 1.6.3 2.3s-1 1.1-.1 1.7m4.5 36.8c-.9-.4-1.6 1.6-1 2.2 1 .9 1.1-1.7 1-2.2m0 3c-.9.4-.4 1.8.6 1.5q-.2-.8-.6-1.5m.7-12.7q-.2.4.2.8zm1.5 10.1-.7.9-.7-.7c-.7 2 .3 1.2 1 2.6 0 .3-.9 1.7.1 1.4.6-.1 1.1-.4 1.3.3.3.8 3.1-.5.7-1.2q-1.5-.4-.6-1.7c.3-.5-.8-1.3-1-1.6m-1.1-5.9c-.2.3-.3.2 0 .7zm.4 15.6c-1.1.8-.5 2.4.8 2.6l1.6-.4 1.8.2c2 .2 0-1.8-.6-2.1-1.3-.7-2.3-1.4-3.6-.3m-.1-18.8h-.5l.5.7zm1.9 6.3c0 1-.3 1.9.3 2.6s1.3 1.1 1.6 2.1 2.4 3.3 3.3 2.7c-2.6-2.6-3-5.8-3.5-9.3-.2-1.5-.1-2.7 1.7-1.7 1.6.8 3.9 1.2 5.7 1.4-1.2-.5-1.2-1.9-2-2.6-1-.7-3.5-.6-2.4-2.4.7-1.2 2.7-1.3 3-2.8.3-1-.4-2.8 0-3.5-1.8-.5-3.8 1.3-4.6 2.9 1.7 0 0 1-.4 1.1-1 .4-.6 1.6-1.1 2.3-.5.8-1.6 0-2-.5-.5-1 .7-1.6 1.3-2 1.4-.8 2.2-3.5 1.5-5-.3-.7-1.4-1-1.1-1.8s1.4-1.3 1-2.3c-1.7 0-2.5 2.2-3 3.6s-1.6 4-1.3 5.4q.2 1.1.8 2 .3.6.7.7-.7 1-.6 2a4 4 0 0 0 1 2.4c.7.7.3 2 .2 2.7m-1 10.3-.8.5q.8.1 1.5-.3zm-.5 18q-.6 1 .6.7zm1-.9-.1.9.8-.2zm2-2.1-.8 1q1 0 .8-1"/><path d="M2293.5 728.6c1.6 1 3.2 1.6 4.7 2.7 1.7 1.4 2-.6 1.7-2-.2-.8-1.3-1-1.5-1.8s-.2-1.7-1-2.2c-.7-.5-1-1-2-.8q-1.5.2-2.6-.6-1.2-1-2.8-1c-1 0-1.5.8-2.3 1q-1 0-1.5-.7c-.2-.2-2.6 0-3 0-3.3-.2-6.9 2.2-5.5 6 0-.8 1-4 2.1-3.7-.3 1 1.5 2.7 2.4 2.8.3.1 4.4-3.3 3.4-.7.6-.1 4.4 1.4 4.6.1.2-1.1 3-.2 3.3 1"/><path d="M2278.4 729.6q-1 .5-.9 1.5c.9 0 1.5-.7 2.3-1-.8 1.3 1 .1.8-1.1-.8 0-1.3.8-2.2.6m1.2-50.9c.2-.3.3-.2 0-.7zm1.1 2.4c2.7-.6 3.7-3 2-5.3-.2.8-1.1 1-1.6 1.5-1 1-1 2.7-.4 3.8m.9 47.9q-.3.3-.1.9l.8-.6zm1.1-.2c-.3.7.3 1.4 1 1q-.1-1-1-1m6.3-30.3q.6 1 1.7 1.5-.7-.8-1.6-1.5m4.8 17.5 1.5.4c.5 0 .8-.5 1.4-.5-.5-.7.7-1.1 0-2.3-.6-1.3-3.5.8-4.7 1q.4 1.3 1.8 1.4m-.9-7.5-.7.5q1 .6.8-.5m1.8-9.9.3.7c.2-.6 0-.4-.3-.7m4.7 3.7c3 .9 0-2-.7-2.7.9-.1 1.4.8 1.9 1.3.8 1 1 .2 2 .6 1.5.8 1.6-1.5.5-2-1.1-.7-6.7-1.5-6.8.6 1.4-1 .6.6-.3.3.7.9 2.3.3 2 1.9q.2-1 1-1.1zm-2.1 3.4c-.3 1.4 3.4 1 3-.5-.8.9-2 .2-3 .5"/><path d="M2299 702.2a2 2 0 0 0-1 .9c.5.3 2-.5 1-.9m2 4.1c-2.8.5-1.7 2.4-.2 3.8.8.9 2.5-3.3.1-3.8m1.8.9c-.2.3-.4.1-.3.7zm.5 26.6q-.2.7.6.7zm.9-.9q-.9-.2.2.7zm14.6 1.2c-.3 1 1.6 1.2 2.1 1.7-.6-.8-1.6-1-2.2-1.7M2208 769q-.7.2-.5 1 1-.1.6-1m-104.7-13.9-.8.6q1 .6.8-.6m11.4-4.1c-.6-.5-3.8-1-4.5-.5 0-2-2 .6-2.2 1.3s-.3 4-1.7 2.7c-.2 1-1 2-1.3 3-.4-1-1.3-.8-2-.4 2.2 1.2 5-.2 7 1.3l2.4.8c1.1.5-.5 1.4-.7 2.2-.4 2.1 5.7 1.7 6.9 2 2.1.3 4 2 6.1 2.5q1.2.5 2.4 0c.7-.3.5-1 1.6-1q4 .1 7.8 1.4c3 1 6 2.6 9 3.3 1.4.3 3.3 0 4.4.6s2.3 0 3.6.2c2.6.3 5.6 2 8 .3 2-1.4 4.4 1 6.1 2 .6.3 4.2.5 4.1 1-.1.7 1 1.1 1.6.8.4-.2-.7-1.7-.9-2-1.2-1.8.3-3.6.5-5.5 0-1.2-1.1-1.5-2-1.7-1.5-.5-2 .1-3.3 0s-3.1.8-4.3.3c-.7-.4-2.8-1-3.1-1.9-.3-.7 1-3.9-.7-2.5.3-1-.6-2-.5-3.1-1 .5-2.3.1-3.3.2q-.7 0-1-.5c-.7-.7-1.5-.2-2.3-.6-.4-.2-1-1.9-1.7-1s-2.1.6-2.7-.3c-1.2-2.2-2.7-2.5-3.7.3-.4.9-1 3-2.4 2.6-.8-.3-1-.7-1.9-.7q-1 .2-2.2.1c-1.4-.3-2-.2-3.3-.1-.8 0-2-1-2.8-.6-2.8 1.5-3.4-2.5-4.5-4-1-1.4-.8-.1-1.7-.1-1.1 0-2-1.5-3.1-1-1 .5-1.8-.8-2.4-1.4-1-.9-1.9-.5-3-1.2-.3 1-1.3 2.4-2.3 1.2"/><path d="M2130 765c.2.8 1 .7 1.6.8q-.7-.6-1.5-.7m31.7-6.9c-.7-.1-2.6 1.4-1.7 2 .8.8 2.8 1.3 2.9.2 1.2 1.4 2.7.6 4 0l1.9-.2c-.1-1 1-1 1.6-1.1-.3-1.5-2.2-1.1-3.2-1-1.8.3-3.7-.4-5.5.1m-1.3-10.1q-.8.2-.5 1 1 0 .5-1m11.8 11.6q-.2.7.6.7zm.7 8.9c-1 1.8 1.4 2.6 2.6 3.2q1.1.5 1.9 1.4c1 1.3-.3 1-.3 1.8 0 .6 2.3-2 2.4-2.1 1-.3 3.4-1.3 2.2-2.6-.9-1-2.6-2.3-4-1.5-1.5.8-3.4.8-4.9-.2m.8-8.3q.3.3.7 0zm6.1-2.6q-1 .5-.3 1.4 1-1 2.3-.5c-.4-.8-1.3-.8-2-.9m1.2 17.1a1 1 0 0 0 0-1.2l-.7.7zm6-5.1c-1 .5-2.3 1.4-2.2 2.8.1 1-.2 2.7-1.6 1.6-1.1 1.7 4.7 1.3 5 1.5-.6-1 1-3 1.5-3.9.7-1.3-1.7-2.4-2.7-2m11.6 6.1c1.5-.8 3-1 4-2.7.2.5-.5 1.7 0 2q.8.3 1.7-.2c.7-.3 1.3.1 2 .2a2 2 0 0 0-1.5-.8c1.4-.8 3.4.8 3.8-1.5-1.3 1.6-1.1-1.3-1.4-1.9-.8-1.4-2.3 0-2.2 1.1-.3-1-1-2.9-2.3-1.5-1 1-1.7-1-2.2-1.5-.7-.8-3.6-.2-2.8 1 1 1.6 2.4 2 4 2.9-.5.7-1.9 1-2.6 1.2-1.3.3-1.4-1-2-1.7-1.3-2-5.2-1.3-6.5.2-.7.8 0 1.9-.6 2.6-.8 1 .6 1.8 1.4 2q.8.3 1.3-.1c.8-.7.8-.3 1.8-.3 1.4 0 2.6-1.5 4-1"/><path d="m2196 771.2 1.3-2c-1.6-.7-1.4 1-1.3 2m10 9.9c.7 1.8 2.4 1.7 4 2 2 .1 3.4 1.9 4.6 3.3 2.1 2.5 7.1.2 4.5-2.7-.8-.9-1.4-1.6-2.6-1.6l-2.1-2.5c-.2-.2-3.4-.1-3.5 0-1.5 1-3.6-.6-4.9 1.5m4.7-9.6c-.5.7-1 1.5-.3 2.2 0-1 2-1.5.3-2.2m1.2 1.5q.3.7-.2 1.6c1 .2.8-1 1-1.5zm2.6 1.9c.8-.5 2.3 0 3.2-.1q1.4 0 2.9.3c.9.1 1.3 1.1 2.3.7.8-.4 2.4.3 2.2-1.1 2.2 1 3.1.3 5.3-.5 1.4-.5 6.5.2 5.7-2.7 1 .2 1-1 1.8-1-.4-1.2-1.6-3-2-.7q.8-.4 1.5-.1c-1 1.1-2.8 1.2-3.6 2.6-.9 1.7-2.4.6-3.4-.3s-2 .5-3 .1q-.5-.1-.8.6c-.5.4-1.5-.4-1.9-.7-1.2-.9-3.2-1.4-4.7-1.8-2.3-.5-3 .4-5 1.3-1 .5-1.6.5-1.7 1.8-.1.7.2 2.8 1.2 1.5m5.5-26.2c-1.3.5-.7 5-.4 6 .2-2 .7-4 .3-6m.7 10.7a1 1 0 0 0 0 1q.4-.1.7-.5zm1.2 2.2c.2.6 1 .3 1.4.1zm3.2 28.8q.3.1.7-.1zm1.5-.5-.2.4a2 2 0 0 0 2-.4q.3-.2.1-.6c-.5-1-1.3.3-2 .6m8.6 1.9q-.6.8-.2 1.4c1.2-.7 3-1.9 4.4-2.2l-.6-1.4c-1.4.6-2.2 1.7-3.7 2.2m2.1-19.4.1.6q.4-.8 1.3-1.3-.9 0-1.5.7m1.5-2.1q-.5.5-.5 1.1c.6 0 2 .2 2.3-.6.3-1.1-1.3-.7-1.8-.5m1.3 16.2q-.8.6-.9 1.6c1 0 1.1-.9.9-1.6m1.1-16.2.5.7c-.5.2-1.4.6-1.6 1.3-.4 1.1 1.8.2 2.2.6-.1-1.4 2-2.5 3-2.7-1.4-1.5-2.1.5-3 1 .4-1.1-.3-1-1-1m4.3.6q-.4.5-.4 1.1 1-.1 1.4.7c.6-.6 1.8-2 1-3-.4.9-1.2 1-2 1.2m3.8-1.7c-.3.4-.9 1.6.5.9q-1.3.5-1.5 1.9c1.8-.2 3.8 0 5.5-.8 1-.5.7-1.6-.4-1.8l-1.7.1c-.8 0-1.5-.5-2.3-.4m8.9.1c-.5 0-1 1-1 1.4a2 2 0 0 0 1-1.3m1.1-1.1c1.5-1.3 3-1 4.8-.7.9.1 1.8-1.7 3-1.7-1.5-1.9-2.3-1.2-4.6-.3-.6.2-1-.4-1.6-.1-1 .4-1.5 1.8-1.6 2.7m12.8-4.4q-.6.6-.5 1.3c.6-.2 1-.7.4-1.3m1.6 5.7q-.3 1.4.7.2zm1-.5c-.4 1.2 2 1.6 2.3.2a5 5 0 0 1-2.3-.2m2.3.9.1.6q.4-.2.7-.6zm4.6-9.9a1 1 0 0 0-.5.9q1.2 0 .5-.9m1.1 9.8q.4.7 1.2.6-.2-1-1.2-.6m6.2-3.5c-.7.6-.4 2 .6 2 1.8 0 1-2.1-.6-2m8.3 4.8q1.8-.7 3.2-1.9c-1.2.5-2.4.4-3.2 2m1.3-7.4q-.2.9.7 0zm1.3-.7-.4.5q1 .3 1.1-.6zm4.8-2.6c-1.2 0-4.5 4-3.4 5-2.3-1-.7 4.9.5 2.1.5-1.2 1.8-1.7 2.5-2.9.5-1-.1-3 1-3.5zm.8 0c.4.6 1.3.4 1.7 1 0-1-1-1.1-1.7-1m8.3-12.5q-.3-.3-.7-.2c.3.5-.2 2.1.5 2.3 1 .4.4-1.7.2-2.1m.6-.9q-1-.1-.1.8zm0 3.7c1.3-1 2.5-4.4 3-5.9-1.1.4-1 1.5-1.4 2.3zm9.7 1.5c-.2.8-.4 2 .4 2.8-1.5-.1-2 4.2.4 3 3.1-1.4 1.1-4.4-.8-5.8m4.3 3.6q-.8.6-.4 1.5.6-.7.3-1.5m.1-1.2q-1 .6.2.7zm1 .1c.8-2.6-.7-.8 0 0m-247.2-8.5c.2-1-1.2-2-1.9-1.1.7.3 1 1.5 2 1.2m-54.3-97.7c1 .4.5-1-.5-.7zm17 4.6q-1 1-2.2.8c-.8-.2-1-.9-1.8-1-1.5 0-2.7.8-4.2.6a6 6 0 0 1-4-2c-.8-1-3.1-2.3-4.4-1.4-4.7 3.3 6.7 12.5 8.5 15 .7.9 1.6.9 2.7 1 1.7.4 2.3 2.3 3 3.6.7 1 2 3.5 3 4 1.8.7 1 2.5 1.6 4 .5 1.6 2 1.2 3.2 2l2.2 1.7 2.7 2c1 1.2 0 1.4.3 2.6l1.5 4.5c.4 1.6 1.6 3.3 1.5 5s1.3.7 2 1.5c1 1.3 2.7 1 3 3.2.4 2.8 4.1 4.6 4.7 7.6.1.4-.6.4-.2.9l1.2 2c.7 1.5 2.4 3.5 2.4 5.3.1 1.7 0 2.8 1 4.2q1.5 1.5 2.7 3.1c.8 1.4 1.2 2.9 2.5 4 1.2 1.1 3 1.9 3.7 3.4.8 1.6.6 2.5 2 3.7l4.2 3.8q1.8 1.7 3.8 3c1.5.7 1.7 1.2 2.4 2.5l1.3 2 1.4 1.1c.3.3-.1.6.3.9.2.2 2.6 3.3 2.7 1.6 0-1-1-1.7-1-2.6-.2-1.4 2 .4 2.2.6 1.8 1.6 3.5 1.6 3.3-1.4 1.1 1 1.9 2.9 3.5 3.2 1 .2.9-2.7.9-3.2l.5-5.6c.1-1 .7-2.4.3-3.3q-.7-1-.4-2c.3-1 1.1-2.3 1-3.3-.1-.8-1-.8-.8-1.8q.4-1.4 1.2-2.5c.5-.8.9-1.2.7-2.2s-1-.6-1.6-1.2c-.7-.8-2-3.4-1.5-4.4-.9-.2-5-1.3-5.4-.4l-.3-.8c-1 1.2-1 2.8-2.4 3.6.4-.6 2.2-2.6.4-2.6 1-.4 2.1-1.3 2-2.5-.1-.9-1-.6-1.6-.9s-1-1.8-1-2.4q-.7-2.5-1-5c-.2-1-3.3-1.2-4.2-1-.7.2-2.1-1.2-2.6-1.7-1-.7-.6-2.3-1-3.3q.6.8 1.6.2-.4-1.1-1.8-1 .9-.1 1.2-1l-1.5.1c.9-.2 1.4-1 2-1.5.5-.5 1.8-.3 2-.8.5-.8-1.2-2.6-1.7-3-1.3-1.5-2.2-1.4-3.7-.4-1.1.9-4 2.9-5.3 1.3 2.6 1.4 7.5-3 2.9-4.1-.8-.2-1.5.1-2.3-.2s-1.1-1.2-1.8-1.8c-1.4-1-.6-3.3-2-4.4l-1.8-1.5c-.7-.3-1.5 0-2.2-.4-1.1-.6-1-2.3-1.8-3.3-.3-.5-3-3-3.5-1.5-.4 1.1 1 2.5 1.1 3.6q-.6-.7-1-1.6c-.6-1-1.8-1-2.5-1.8-1.3-1.1-1.4-3-2.6-4.3q-.6.8-.2 1.5c-.2-.3-1.5-2.8-1-.8-.9-1 .4-2.1-.9-3-1-.6-2-1.9-3-2.7-1.3-1-2.3-2.5-3.8-3l-1.5-.7c-1-.4-.8-1-1.4-1.6-.7-.8-2-.9-2.8-1.6-1-1 .3-2.6-.7-3.4-1.3-1-1.5-1-2-2.6-.5-1.4-2.8-3.2-3.9-4.1m2.5 40.1c1.5 1.6 2-2.9 1.4-3.8-.8-1-2-3-3.3-3.6-.9-.4-1.4 1-2.4.3.2 1.4 1.4 2.4 2 3.5.3.7 1.1 1 1.5 1.7z"/><path d="M2044.3 680.8c0-.7-.5-1.9-1.4-1.2q.8.4 1.4 1.2m9 21.8q.3-1-.6-1.6l-.8 2c-.2.9 1.7.9 1.4-.4m-1.3-4.1 1.5 3c.3-.7-.3-3.1-1.5-3m1.8-14q.2-.9-.7 0zm1.9 13.2c-.2-1-1.7-.8-2.2-.3q1 .7 2.2.3m2.3 16.5c3-.5-1.7-6.3-1.6-7.7-.5.3-1.4.2-1.7.6-.5.7-.8 2-.3 2.8 1 1.5 1.6 3.8 3.5 4.3m5.6 4.9c-.2-.8-1.2-3.5-2.2-2.7-1.2.8 1.6 2.4 2.2 2.7m1 3.5c.2.8 1.2.4 1.5-.1.5-.8-1-2-1.6-2.4-.3.8.2 1.6.1 2.5m3.4 4.8c0-.6-.5-1-.4-1.5.1-.7.5-.5.3-1.2-.1-.5-.8-2.1-1.5-1.8-1.2.4 1 4 1.6 4.5m10.3-45.6c-.3-1.5-2.2-2-2.8-.4-.2.9.3 2.1 1.2 2.3 1.2.2 1.2-1.3 1.6-2m5.4 3.8c-1.1-.5-2.3-.4-3.3-1-.3 1 .6 1.5 1.5 1.7s1.3 1 2 1.4z"/><path d="M2083.7 688.2q-.6-1.4-2-1.8c-.2 1.3-.1 3.7 1.6 4zm4.4 3.6a4 4 0 0 0-2.5-2c-.5 0-1-.9-1.4-1s-.8 2.3-.3 2.7c1.2.8 2.9 0 4 1z"/><path d="M2089 691.2c-.3-1.3-4.3-3.6-3.7-1.5 1.5-.6 2.1 2 3.7 1.5m1 2.3q-.1-.7-1-.9-.5.8.2 1.5zm1-3.8-.8-.7q-.1 1 .8.7m.6 2.5q-.3-1-1.3-.7 0 .8.9 1.4zm1.6 8.7c-.5-.4-2.5-.2-1.7.8.5.6 1.6-.2 1.7-.8m1.7-10.4q.3-1.1-.8-.4z"/><path d="M2096.5 688.7c-.6-1.2-1.6.2-1.6 1s1.7-.2 1.5-1m.3 3q.6-1.1-.6-.7zm3.7-2c-1-2.5-3.9-.2-2.7.3.8.3 1.2-.5 1.4.8.3 1.4 1.3-.6 1.3-1.1m-2.9 2.8-.2-.8zm1.5 9.1-1.4.5c-.8.3.6 1.8.7 2.3q0-1.2 1-.5c.2-.9.8-1.7-.2-2.4m-.5-4.3q-.6.6.5.7zm.7 1.3c.1.5-.8 2.4.3 2.3.6 0 1-.4 1.6-.1s1.1.8 1.9.4c-.4-.6-3-2.6-3.8-2.6m.7-6.6-.7.2zm-.4 4.8c-.3.7.7 1.3 1.2 1.5zm6 16.7c.8 1.2-1.3 1.7-1.7 2.5.8.7 1.5 1.3 2.7.8.8-.2 2.1.4 2.4 1.3l.8 2.2c.3 1.5-.6 2 1.1 3 .7.4 4 2.9 4.8 2.2s-.4-1-.7-1.6c-.3-1 .8-2.6 1.7-2.8-1.2-.7-2.7-.4-3.8-1.2s-1.3-2.8-1.2-4c.1-.7-.4-3-.8-3.5-1.4-1.6-3 .2-1.9 1.7-.5 0-3.3-3.8-3.4-.6"/><path d="m2116.6 723.7-.6.2q.3 1 1.1.5zm5.1-.7q-.6.1-1 .6 1 .3 1-.6m1.8-2.3q-1.4 1.7-1.1 4c0 1.3 2.1 2 1.8.5.6 0 1.4 1.7 2 1.1.8-.7 1.7-2.4 1.5-3.5-.2-1.7-2.9-2.4-4.3-2.1m2.4-55.4q.9 0 1.5.9-1-.5-1 .6c1.8.2 2.3-1.6 1.6-3-1.2-2.3-2.7-.4-2.1 1.5m5.2 48.1.8-.1zm2.2-1.3q-.6-.4-1.2 0 .2.5.6.8zm6.1-4.6c-1.1-1.6-3.4 1-2 2.3.7-.6 2.4-1 2-2.3m49.4 19.5c-2.6-1.1-1.8 5.5-1.2 6.4.7-1.2 1.4-.8 1.3-2.4-.1-1.2-.6-2.9-.1-4m1.1 1c-.8.2-.7 1-.2 1.5zm7.7-58.3q-.2 1 .8.2zm.9-.8c-.3.7.4 1.3 1 1.5 0-.7 0-1.8-1-1.5m.2-5.8q0 1 1 .7 0-.9-1-.7m.4 38.7q-.4.3-.4.8zm1.1-34.2q0 .9.8 1 0-.7-.8-1m6.3 10.9q0 .8.7 1.2zm-10.5-10.5v-.4q1.3.1 2.2.8-1.1.1-2.2-.3"/><path d="M2199.2 662.5c.9 0 2-.3 1.8 1-.8.2-1.2-.5-1.8-1m125.3 88.2q0 .9.7 1.5c-.2-.3.2-2.4.3-2.9.4-1.2-.9-.5-.5-1.6 1 .5 1.6-1.1 2-1.7.7-1 1.6 1.1 1.6 1.7l-.2 4.4c-.1 2.2-1.8 1.2-3 .4 1.6 1.7-3.7-2-1-1.8"/><path d="M2326.2 753c.3.2 1.3 1.4.6 1.7-1 .4-1.7-1.5-.6-1.7"/></g></svg>
