<svg xmlns="http://www.w3.org/2000/svg" viewBox="1239.8 221.2 36.7 36.7"><g fill="#2b1d24"><path d="M1245.8 254.3h-.7c1-.8 2-1.9 3.3-2-1.3-.2-3.4 1.5-4.5.6-1.3-1.1 2.9-3.2 3.7-3-1.2-.5-3 0-4.2.3-.3-1 .7-1.2 1.5-1.3q.6 0 1.1-.3c.4-.1 1 .5 1.9.4l-.8-1.6c1.3 0 1.8-1.2 3.2-1.2 1.6 0 3.1-.6 4.8-.8q-.9 0-1.3-.8c-2 1.3-3.7 1.3-6 1.7.6-.5 3.9-2 3.5-3.2-.6-1.5 2.6-1.5 3.3-2.2l-3.7-.1c-.6 0-1.7-.7-2.5-.8l.5-.7c-.8-.2-1.3.5-2 0l.7-.4-.7-.5c.8-.2.5-.3 1-.6.6-.4 1.3 0 1.8 0-.7 0-1.6-.6-.7-1.3q.6-.3 1.4-.3c2-.7-1.9-1-1.7-.7-.3-.4.6-.4.7-.3-.4-.7.3-2-.9-1.3q.5-.6 0-1.2l-.7.7q.2-.8.7-1.4c0 1.1 1.7 0 2.8-.2 1 0 2.4.2 2.6 1.5.5-2.3 3 0 4.2-1.1l-.8-.5c.8-1 3-.9 3.2-2.1-1.2-.2-2.5.1-3.7-.5q.6-1.2 2-.8-.6-1 .6-.7c-.6-.8 0-2 .8-2.4 1.3-.7 2.5-.1 3.8-.3-.6-1 .3-1 .7-.5.5 1 0 1-.3 1.9a1 1 0 0 0 .7-1.9c1.6-1 2.2-.5 3.7-.2-.8 1-2.7 1.1-3 2.4-.4 1.1-1.8 2.7-3.3 2l1 .8c-1.4.9-3.6.7-1.9 2.3q1.3 1 2.8 1.4c.8.2 1.5.6 1.9-.8.2-.7-.1-1.4 1.5-1 1 .3 1.5 1.5 2 1.7 0 1.4 1 1 1.7 1 .7-.2.6-.7 1.5.2l-1.5.7c-.2 0 .6 1.1.5 1.7 0 .7 2 2.8 0 3.1 1.3 2 .7 3.3-.2 5.3-.4 1-1 3.2-2.5 3 1.7.2.6 1.6-.6 1.4-1-.2-2.4.6-2.7-.8.6 1.8-2.8 1.2-3.7 1.5s-.3 1.1-1.7 1.1c-1 0-1.6 1.5-3 1.4.8-1.2-.7-.9-1.3-.6 1.1.3.7.8 0 1.2l-.8.7c-.3.5-.7 0-1.1.2l-3.3.8c-1.2.4-2.7 0-3.8.5q.4-.8 1.3-1.1l-1.5.4q1-.8 2.2-1c-1-.6-2.8 0-3.6.6"/><path d="M1258.6 226.3c.1 0-.1.5.2.1.2-.3 0 0-.2-.1m-10.4 9c1.1-.5-1-.9-1.6-.6q.9 0 1.6.6"/></g></svg>
