<svg xmlns="http://www.w3.org/2000/svg" viewBox="1239.82 221.24 36.73 36.73"><g id="ie" fill="#2B1D24">
		
		<path id="path5402" d="m 1245.78,254.29 c -0.24,0.02 -0.48,0.05 -0.72,0.07 0.95,-0.859 1.96,-1.92 3.31,-2.088 -1.26,-0.212 -3.34,1.568 -4.49,0.593 -1.29,-1.096 2.92,-3.179 3.77,-2.897 -1.26,-0.562 -2.98,-0.08 -4.25,0.216 -0.34,-1.016 0.73,-1.173 1.47,-1.27 0.39,-0.05 0.83,-0.08 1.18,-0.267 0.33,-0.178 1.04,0.46 1.81,0.313 -0.17,-0.551 -0.44,-1.055 -0.79,-1.513 1.37,0 1.78,-1.251 3.21,-1.231 1.66,0.02 3.15,-0.634 4.78,-0.784 -0.55,-0.02 -1.03,-0.344 -1.22,-0.864 -2.09,1.341 -3.69,1.292 -6.12,1.729 0.66,-0.464 3.95,-2.088 3.54,-3.18 -0.58,-1.558 2.62,-1.519 3.3,-2.221 -1.25,-0.08 -2.43,-0.123 -3.68,-0.113 -0.61,0 -1.66,-0.654 -2.44,-0.751 0.14,-0.241 0.28,-0.48 0.43,-0.72 -0.73,-0.219 -1.3,0.48 -2.01,0.07 0.24,-0.163 0.48,-0.331 0.72,-0.504 -0.24,-0.17 -0.48,-0.338 -0.72,-0.504 0.85,-0.138 0.52,-0.239 1.12,-0.621 0.49,-0.309 1.23,0.03 1.76,-0.03 -0.75,0.1 -1.59,-0.563 -0.77,-1.219 0.34,-0.27 1.06,-0.217 1.46,-0.347 2.02,-0.653 -1.93,-0.911 -1.76,-0.65 -0.27,-0.405 0.62,-0.426 0.78,-0.303 -0.46,-0.74 0.3,-1.967 -0.94,-1.297 0.34,-0.431 0.31,-0.839 -0.1,-1.224 -0.21,0.225 -0.41,0.465 -0.58,0.72 0.11,-0.526 0.33,-1.006 0.65,-1.439 0.11,1.134 1.69,-0.05 2.83,-0.125 1.07,-0.07 2.44,0.203 2.57,1.493 0.54,-2.353 3.01,0.05 4.25,-1.152 -0.27,-0.137 -0.53,-0.281 -0.79,-0.432 0.79,-1.037 2.97,-0.932 3.16,-2.16 -1.22,-0.237 -2.54,0.145 -3.67,-0.504 0.26,-0.854 1.18,-1.077 1.95,-0.792 -0.29,-0.624 -0.31,-1.05 0.64,-0.719 -0.58,-0.759 0,-1.996 0.76,-2.395 1.33,-0.712 2.51,-0.109 3.78,-0.271 -0.58,-1.004 0.38,-1.087 0.7,-0.514 0.58,1.02 0,1.016 -0.27,1.883 1.09,0.02 1.52,-1.155 0.72,-1.873 1.57,-1.09 2.15,-0.497 3.68,-0.216 -0.83,0.926 -2.66,1.129 -3.07,2.412 -0.36,1.129 -1.71,2.688 -3.2,2.052 0.29,0.285 0.61,0.55 0.94,0.793 -1.32,0.829 -3.56,0.632 -1.83,2.224 0.76,0.695 1.86,1.111 2.75,1.395 0.85,0.269 1.51,0.594 1.91,-0.756 0.21,-0.714 -0.1,-1.395 1.46,-1.004 1.04,0.262 1.53,1.504 2.11,1.667 0,1.402 0.95,1.007 1.66,0.936 0.63,-0.06 0.61,-0.558 1.51,0.289 -0.5,0.255 -1.13,0.278 -1.57,0.669 -0.14,0.129 0.65,1.135 0.58,1.69 -0.1,0.78 1.88,2.803 -0.1,3.184 1.32,2.028 0.75,3.237 -0.1,5.267 -0.42,1.053 -1.02,3.186 -2.52,3.013 1.64,0.223 0.56,1.623 -0.64,1.403 -0.95,-0.176 -2.42,0.587 -2.67,-0.827 0.62,1.848 -2.79,1.157 -3.74,1.493 -0.88,0.313 -0.3,1.157 -1.68,1.157 -1.07,0 -1.61,1.477 -3,1.382 0.83,-1.22 -0.68,-0.883 -1.3,-0.648 1.11,0.317 0.73,0.847 0,1.269 -0.33,0.13 -0.59,0.335 -0.8,0.616 -0.25,0.492 -0.67,0.06 -1.12,0.247 -1.06,0.433 -2.19,0.415 -3.29,0.771 -1.23,0.397 -2.64,0 -3.79,0.553 0.31,-0.522 0.74,-0.906 1.3,-1.151 -0.53,0.08 -1.04,0.22 -1.52,0.432 0.63,-0.568 1.42,-0.857 2.23,-1.08 -0.94,-0.498 -2.79,0.06 -3.59,0.649"></path>
		<path id="path5352" d="m 1258.59,226.28 c 0.14,0.11 -0.1,0.476 0.18,0.144 0.26,-0.336 0,-0.03 -0.18,-0.144"></path>
		<path id="path5348" d="m 1248.15,235.28 c 1.16,-0.498 -0.96,-0.87 -1.51,-0.576 0.58,0 1.08,0.183 1.51,0.576"></path>
	</g></svg>
