<svg xmlns="http://www.w3.org/2000/svg" viewBox="1772.17 371.78 288.15 288.15"><g id="in" fill="#2B1D24">
		
		<path id="India_mainland" d="m 1810.76,492.894 c -0.1,-1.698 1.77,-1.728 2.99,-1.728 1.45,0 0.74,-2.228 0.68,-3.024 0.87,0.509 3.34,0.186 4.13,0.272 1.97,0.213 3.32,1.285 5.61,0.863 0.15,-0.03 0,-1.146 0.69,-1.161 0.75,-0.02 1.81,-1.26 2.86,-0.724 1.26,2.01 2.36,1.378 4.14,-0.04 -2.42,-1.73 -0.46,-1.986 -0.61,-2.533 -0.82,-2.888 -2.8,-4.491 -3.44,-6.065 -0.43,-1.046 0.23,-2.841 -1.68,-2.474 -2.42,0.465 -3.28,-1.312 -3.2,-2.86 0.1,-1.312 0.56,-3.583 -0.48,-4.237 -1.69,-1.058 -4.42,-0.495 -5.16,-3.048 -0.53,-1.828 1.06,-3.949 2.05,-5.285 0.71,-0.959 0.96,-1.783 1.51,-2.837 0.38,-0.743 1.48,-2.287 2.57,-2.018 1.43,0.35 1.3,2.587 2.85,2.729 0.89,0.08 1.58,-0.582 2.35,-0.922 0.94,-0.419 2.1,-0.261 3.08,-0.476 2.1,-0.46 1.86,-2.207 3.19,-3.557 1.61,-1.632 0.65,-3.818 2.99,-5.146 2.14,-1.214 3.01,-2.725 3.67,-5.108 0.49,-1.742 0,-4.05 2.13,-4.769 0.72,-0.245 1.6,-0.406 2,-1.146 0.55,-1.041 -0.8,-1.275 -0.79,-1.8 0,-0.632 1.66,-2.858 2.04,-3.436 0.71,-1.077 2.43,-1.658 2.93,-2.828 -1.54,-0.03 -1.15,-1.474 -1.16,-2.521 0,-1.271 -1.18,-2.227 -1.15,-3.318 0,-1.909 3.73,-2.27 4.79,-3.501 1.81,-2.114 -3.23,-2.319 -4.13,-2.649 -0.93,-0.339 -0.68,-1.712 -1.66,-2.243 -0.67,-0.363 -1.48,-0.357 -2.17,-0.672 0.29,-0.765 0,-1.202 -0.69,-1.552 -0.7,-0.374 -2.71,-1.542 -2.17,-2.456 0.51,-0.866 0.88,-1.789 -0.12,-2.486 -0.61,-0.427 -1.63,-1.333 -0.75,-2.09 0.35,-0.301 2.42,-1.694 0.67,-1.85 -0.29,-0.03 -3,-0.05 -2.22,-1.034 0.98,-1.236 -0.32,-1.144 -1.09,-1.743 -0.96,-0.746 0.64,-2.7 1.27,-3.086 1.61,-0.993 3.3,-0.233 4.97,0.139 1.89,0.421 3.76,0.894 5.65,1.332 1.61,0.373 2.56,-0.628 3.99,-1.125 1.24,-0.433 2.55,-0.377 3.78,-0.771 0.38,-0.123 2.57,-2.353 2.41,-2.642 -0.46,-0.783 1.85,-1.98 2.47,-2.483 0.5,-0.403 1.04,-0.85 1.65,-1.065 0.52,-0.181 0.51,0.05 0.87,0.314 1.44,1.035 1.47,1.46 1.98,2.086 0.83,1.037 0.95,3.234 2.35,4.233 1.74,1.248 4.76,2.692 6.33,3.817 0.5,0.357 -0.76,0.904 -1.03,1.232 -0.48,0.579 -0.28,0.588 0.19,2.406 0.41,1.525 1.14,2.83 2.22,4.062 0.98,1.109 2.8,1.031 3.55,1.79 0.38,0.389 0.1,1.043 0.31,1.516 0.26,0.534 0.49,0.905 0.83,1.373 1.23,1.662 -0.5,2.255 -1.22,2.867 -0.98,0.823 -1.72,2.085 -2.91,0.246 -0.95,-1.467 -1.72,-1.756 -3.2,-0.653 0.52,0.592 0.72,1.266 0.92,2.005 0.23,0.827 1,1.285 1.58,1.841 1.65,1.579 0.82,2.724 1.87,3.837 0.62,0.659 -0.19,3.473 1.29,2.989 0.53,-0.172 0.79,-0.661 1.35,-0.854 0.88,-0.302 1.27,0.699 1.6,1.238 0.48,0.77 1.87,2.382 2.77,2.56 1.06,0.213 2.02,-0.506 2.91,0.512 0.54,0.618 1.09,0.571 1.76,0.92 0.66,0.337 0.68,0.947 0.55,1.408 -0.22,0.763 1.03,0.881 1.71,1.066 2.12,0.573 3.64,1.124 4.95,2.71 -1.99,0.118 -2.19,3.863 -3.56,4.825 -0.13,0.09 -0.43,1.157 -0.59,1.49 -0.56,1.187 0.57,0.985 0.38,2.111 -0.17,1.051 -1.66,2.379 -0.77,3.317 0.69,0.729 3.31,2.889 3.31,1.433 1.22,0.753 2.96,1.419 4,2.07 1.81,1.123 2.28,1.982 3.73,2.846 0.42,0.255 3.02,2.01 3.62,1.769 1.41,-0.565 2.5,0.816 3.71,1.433 0.51,0.263 2.25,0.29 2.53,0.631 0.97,1.187 1.1,1.509 2.79,1.852 0.89,0.181 1.77,0.818 2.65,0.164 1.18,-0.873 2.16,0.104 3.47,0.683 -0.85,-2.261 4.81,0.04 5.2,0.154 1.56,0.475 1.02,2.567 2.46,2.899 1.23,0.284 2.49,0.808 3.24,1.88 0.61,0.858 1.99,-0.31 2.72,-0.371 1.77,-0.149 0.9,2.526 3.25,1.567 0.69,-0.283 3.71,0.761 4.37,1.16 1.71,1.025 2.1,0 3.67,-0.521 0.14,1.122 1.47,1.962 2.84,1.411 0.42,-0.171 2.71,0 3.27,0.02 1.2,0.03 1.47,-0.281 1.65,-1.572 0.3,-2.2 -0.83,-2.673 -1.67,-4.556 -0.47,-1.033 -0.1,-2.488 0,-3.587 0.12,-1.333 -0.2,-2.365 -0.27,-3.665 1.33,-0.09 2.86,-1.223 4.19,-0.835 2.62,0.761 0.33,4.006 1.45,5.37 0.2,0.245 1.18,0.823 0.88,1.25 -0.48,0.658 -0.92,0.575 -0.39,1.517 1.15,2.072 2.69,2.009 4.7,2.271 1.35,0.176 2.19,1.373 3.53,1.231 0.56,-0.06 1.34,-0.141 1.83,-0.472 0.5,-0.344 1.62,-1.565 2.35,-1.056 1.82,1.274 4.1,0.856 6.19,0.776 0.64,-0.02 1.6,-0.928 1.96,-0.5 0.55,0.659 2.49,0.08 3.29,0 1.96,-0.188 -0.32,-1.347 0,-2.898 0.6,-3.358 -2.97,-1.376 -3.37,-3.022 -0.24,-0.964 -0.95,-2.236 0.5,-1.886 1.15,0.281 2.31,-0.142 3.32,-0.394 1.45,-0.36 2.56,0.179 2.91,-2.46 0.15,-1.132 2.94,-2.227 3.07,-3.744 0.21,-2.394 3.14,-1.087 4.53,-2.449 1.11,-1.091 1.76,-2.355 3.01,-3.347 0.45,-0.366 1.08,-0.799 1.59,-1.091 0.44,-0.252 2.58,1.323 3.03,1.588 -0.53,-0.532 -0.27,-0.612 0.65,-0.109 0.72,0.301 1.48,0.868 2.29,0.835 0.83,-0.03 0.7,-1.021 1,-1.547 0.53,-0.94 2.32,-1.66 3.26,-2.039 0.21,-0.08 2.44,1.914 2.7,2.141 -1.7,1.453 -1.49,1.341 -0.97,1.907 0.55,0.597 1.86,-0.579 2.23,-0.684 -0.3,1.056 1.63,1.788 1.29,2.626 -0.51,1.274 -1.1,1.644 -1.36,2.919 -0.19,0.908 1.44,-0.169 1.76,-0.257 1.34,-0.373 2.72,1.38 4.09,0.964 1.17,-0.357 2,1.127 2,2.125 0,0.373 0.55,0.679 0.49,0.957 -0.14,0.669 -1.24,1.455 -1.67,1.928 -2.44,2.672 1.19,3.696 1.61,5.73 -1.72,0.73 -2.39,-2.101 -3.41,-1.893 -3.54,0.722 -4.39,0.557 -5.1,1.764 -0.6,1.014 -1.01,1.805 -1.88,2.126 -0.7,0.208 -0.45,0.535 -0.83,0.523 -0.45,0.368 0,0.667 -0.72,1.056 -0.36,0.189 -1.58,-0.232 -2.14,1.058 -0.34,0.787 -0.1,1.772 0.13,2.585 0.18,0.62 0.65,1.046 0.84,1.626 0.25,0.775 -0.27,1.52 -0.33,2.28 -0.17,2.125 -3.05,3.305 -2.26,5.011 0.28,0.612 1.06,1.37 1.01,2.093 -0.24,3.572 -2.16,6.302 -2.88,9.996 -0.72,-0.575 -2.59,-1.13 -3.49,-1.364 -0.46,0.03 -0.91,0.191 -1.35,0.287 -0.58,-0.117 -0.64,-0.624 -1.32,-0.484 0.74,2.036 1.06,3.754 1.18,5.913 0.1,0.91 0.15,3.784 -1.5,2.56 0.26,1.969 0.1,3.413 0.88,5.273 0.28,0.661 0.92,2.88 -0.59,2 0.15,3.63 -1.19,1.964 -2.52,0.433 0.12,0.582 -0.21,1.279 -0.67,1.639 -1.2,-4.941 -2.69,-9.429 -4.27,-14.729 -0.25,-1.298 -1.78,0.678 -2.58,-0.03 0.45,0.575 0.18,1.423 -0.21,2.143 -0.49,0.909 0,1.798 0,2.693 0,0.905 -0.52,1.856 -1.62,1.048 -0.83,-0.605 -1.12,-1.737 -1.78,-2.268 0.1,0.485 0.1,0.966 -0.1,1.44 -0.65,-1.475 -1.69,-2.915 -2,-4.404 -0.33,-1.583 1.42,-3.027 0.99,-4.381 0.75,0.1 2.08,0.334 1.94,-0.864 0.49,0.758 1.18,-0.395 1.87,0.217 0.22,-1.89 2.92,-3.796 1.73,-6.049 0.45,0.04 2.05,0.12 1.16,-0.784 -1.04,-1.059 -2.66,-1.774 -4.11,-1.807 -1.22,-0.03 -2.16,-0.166 -3.77,-0.109 -1.7,0.06 -3.21,0.289 -4.89,0.165 -2.44,-0.181 -7.47,0.307 -7.15,-2.892 0.13,-1.358 -0.53,-5.916 -2.69,-5.733 0.35,0.614 0.17,1.194 -0.1,1.801 -1,-0.555 -2.5,-0.818 -3.21,-1.801 -0.6,-0.823 -0.78,-2.333 -2.12,-2.087 0.47,0.419 0.8,0.923 1.01,1.512 -0.63,-0.203 -1.37,-0.144 -2.32,-0.67 -0.45,-0.251 -0.53,-0.943 -0.96,-1.287 -0.58,-0.462 -1.38,-0.779 -1.98,-1.211 l -0.19,0.955 c 0.34,0.01 1.28,0.117 1.56,0.988 -2.27,0.861 -3.73,4.09 -0.98,5.182 1.1,0.436 1.5,1.628 2.44,2.252 0.7,0.458 1.99,-0.344 2.1,0.631 0.16,1.421 2.12,0.883 1.19,2.376 -0.62,-0.328 -1.64,-0.225 -2.31,-0.161 -0.91,0.09 -1.12,0.146 -1.21,0.986 -0.1,0.896 -0.96,2.765 -1.74,1.047 -0.1,1.478 -1.79,2.25 0.32,3.856 1.12,0.86 2.78,0.788 3.74,1.601 1.82,1.54 0.95,2.166 1.19,2.936 0.25,0.79 -1.93,1.559 -0.63,2.807 1.15,1.101 1.11,0.908 1.44,1.3 0.31,0.377 -0.16,1.255 0.1,1.992 0.1,0.279 1.04,0.259 1.18,0.3 0.77,0.229 0.34,1.455 0.4,1.912 0.1,0.925 0.38,1.521 0.51,2.452 0.18,1.261 0.57,1.99 1.01,3.124 0.49,1.235 0.97,2.723 0.36,3.928 -0.28,-0.179 -0.57,-0.347 -0.86,-0.504 0.22,0.482 1.91,2.378 1.33,2.863 -0.62,0.518 -1.46,-0.407 -1.48,-0.991 -0.13,0.782 -0.72,1.467 -1.22,0.432 -0.52,-1.09 0.11,-2.463 0.1,-3.6 -0.68,0.336 0.1,1.023 -0.72,1.655 0.18,-0.762 -0.31,-1.49 0.1,-2.231 -1.36,1.037 -0.12,4.393 -0.36,5.832 -0.31,-0.952 0.1,-2.487 -0.86,-3.168 0,0.104 0.24,2.674 -0.19,2.39 -0.14,-0.182 -0.26,-0.372 -0.37,-0.571 -0.82,-1.163 -0.1,1.727 -0.81,-0.451 0.33,0.515 0.35,1.043 0.1,1.584 -0.99,-0.893 -0.96,-2.817 -1.08,-4.032 -0.18,-1.87 -1.66,-1.511 -2.23,-3.024 0.24,1.516 2.71,1.223 1.55,3.164 -1.31,2.187 -2.53,3.078 -5.01,3.821 -1.31,0.395 -3.11,1.083 -3.4,2.617 -0.2,1.043 0.78,4.454 1.6,5.23 -0.5,0.391 -1.29,0.792 -1.53,1.425 -0.37,0.965 0.57,1.04 -0.58,1.957 -1.38,1.093 -1.9,3.2 -3.58,1.011 0.24,0.823 1.2,1.219 1.88,1.584 -2.1,1.051 -4.35,2.116 -6.7,2.447 0.74,-0.404 0.95,-2.2 -0.22,-1.795 -1.21,0.415 -2.27,2.151 -1.87,3.379 0.15,-0.464 1.26,-2.003 1.66,-1.224 -0.73,0.21 -1.86,2.127 -2.56,2.812 -1.58,1.537 -2.38,3.412 -3.47,5.302 -1.11,1.912 -2.42,3.809 -4.49,4.753 -1.78,0.81 -1.99,3.182 -3.74,3.981 1.16,0.699 -4.47,3.328 -5.1,3.893 -0.61,0.552 -1.26,1.356 -1.58,2.116 -0.52,1.227 1.12,1.539 0.57,2.94 -1.09,2.774 -4.37,2.534 -6.77,2.653 -0.98,0.05 -1.09,0.753 -1.31,1.585 -0.24,0.908 -1.21,2.523 -1.14,3.373 -0.77,-0.384 -0.79,-1.166 -1.08,-1.872 0.32,0.813 -0.18,1.566 -0.43,2.304 0.54,-2.436 -2.99,-1.055 -3.62,0.126 -0.92,1.731 -2.1,4.379 -1.42,6.31 0.56,1.588 1.21,3.312 1.23,4.938 0,2.786 0.59,4.997 1.36,7.707 -0.23,-0.468 -1.35,-2.709 -1.23,-0.864 -0.64,-1.322 -0.62,0.392 -0.13,0.692 0.63,0.384 1.23,0.43 1.66,1.115 0.79,1.256 0.11,4.524 -0.1,5.883 -0.36,2.428 -1.79,4.274 -2.51,6.559 -0.56,1.779 0.28,4.356 -1.02,5.839 0.22,-0.216 0.46,-0.407 0.72,-0.575 0.81,0.945 0.82,2.296 0.81,3.468 0,1.925 0.42,3.827 0.35,5.748 -0.51,-0.04 -1.01,-0.11 -1.51,-0.216 1.95,0.629 0,0.318 -0.39,0.225 -0.72,-0.195 -1.78,-0.568 -2.22,0.321 -0.23,0.462 -0.6,1.022 -0.32,1.547 0.41,0.785 -0.75,1.551 -1.11,2.154 -0.71,1.17 -2.09,3.734 -0.1,4.588 0.52,0.222 1.18,0.157 1.69,-0.05 0.37,-0.145 1.12,1.161 1.35,1.365 -1.98,-2.047 -5.28,-0.768 -7.42,0.288 -2.79,1.373 -1.51,3.984 -2.85,6.098 -0.68,1.067 -2.01,1.801 -3.13,2.301 -1.77,0.788 -2.78,0 -4.1,-1.198 -0.61,-0.551 -5.32,-5.521 -3.82,-5.904 -1.32,0.475 -1.84,-2.178 -2.31,-3.294 -0.66,-1.586 -1.38,-3.461 -0.93,-5.202 0.39,0.625 0.55,1.362 0.58,2.088 0.17,-1.735 -0.1,1.671 0.94,1.801 -0.36,-0.947 -0.1,-2.026 -0.51,-2.952 -0.36,-0.792 -1.16,-1.22 -1.22,-2.16 0,1.841 -0.58,0.06 -0.54,-0.339 0.1,-0.932 -0.44,-1.222 -0.87,-2.227 -0.77,-1.789 -1.39,-3.656 -2.07,-5.478 -0.26,-0.686 -4.47,-7.531 -4.23,-7.868 -2.65,-3.262 -4.48,-7.186 -5.4,-11.274 -0.32,-1.454 -0.51,-2.779 -1.03,-4.145 -0.34,-0.906 -0.72,-1.749 -1.09,-2.639 -0.28,-0.671 -1.31,-2.386 -0.11,-1.958 -1.33,-0.445 -1.02,-2.293 -1.73,-3.24 -0.45,-0.602 -2.67,-1.801 -0.79,-2.16 -1.11,0.508 -1.67,-0.82 -1.99,-1.634 -0.25,-0.639 -0.46,-1.303 -0.78,-1.913 -0.32,-0.625 -1.32,-0.914 0,-1.062 -0.63,-0.16 -1.17,-1.061 -1.15,-1.682 0,-0.644 -0.69,-0.842 -1.18,-1.54 -1.2,-1.686 -1.99,-3.696 -2.62,-5.653 -0.44,-1.361 -0.81,-2.789 -0.81,-4.229 0,-1.5 -0.81,-2.901 -1.05,-4.375 -0.22,-1.381 -1,-2.564 -1.42,-3.893 -0.27,-0.869 -1.85,-3.742 -0.41,-3.181 -0.26,-0.332 -2.25,-2.902 -0.5,-1.943 -0.28,-1.054 -1.56,-1.728 -1.08,-2.952 0.24,0.188 0.48,0.38 0.72,0.576 0,-0.615 -0.17,-1.119 -0.65,-1.513 1.04,-0.41 0.49,-1.41 0.29,-2.159 -0.1,0.606 -0.28,1.154 -0.72,1.584 -0.78,-1.255 -0.54,-4.08 1.22,-2.088 -0.29,-0.706 -2.9,-1.151 -2.08,-2.144 0.29,-0.346 -0.92,-1.771 -1.05,-2.212 -0.36,-1.181 -0.4,-2.347 -0.16,-3.557 0.38,-1.892 1.51,-3.871 0.76,-5.808 -0.1,-0.252 -0.61,-3.564 -1.57,-2.337 0.33,-0.868 0.14,-0.893 -0.58,-0.07 0.89,-1.058 -0.64,-1.379 -0.38,-2.159 0.16,-0.506 0.3,-1.048 0.38,-1.575 0.11,-0.768 2.69,-1.252 3.17,-2.169 -1.89,1.415 -6.24,0.316 -3.31,-1.801 -0.99,0.443 -2.16,-0.255 -1.44,-1.367 0.62,-0.952 1.6,0.02 2.23,-0.937 -0.98,0.253 -3.05,-0.107 -3.6,-1.08 -0.1,0.491 -1.03,0.681 -1.01,0.576 -0.1,0.472 0.62,0.548 0.64,1.274 0,0.978 -0.67,1.273 -1.5,1.533 0.19,0.246 0.38,0.486 0.58,0.721 -0.58,-0.154 -1,0.18 -1.16,0.72 2.03,0.629 2.91,1.958 1.57,3.846 -0.47,0.669 -0.21,1.604 -1.13,1.951 -1.12,0.421 -2.13,1.166 -3.15,1.779 -1.8,1.083 -3.85,2.417 -6.03,1.705 -2.2,-0.717 -4.81,-2.778 -6.11,-4.672 -1.94,-2.817 -4.83,-4.587 -7.1,-7.06 -0.6,-0.651 -2.29,-2.866 -0.33,-3.139 0.53,-0.07 0.56,0.949 0.96,1.167 0.77,0.415 2.18,0.09 2.32,-0.904 0.76,1.065 4.25,-0.938 4.96,-1.656 0.62,-0.624 0.5,-1.591 0.94,-2.304 0.47,-0.749 1.67,-1.252 0.65,-2.16 -0.51,0.508 0,1.711 -0.97,1.656 -1.07,-0.06 -1.95,0.148 -2.98,0.5 -0.89,0.3 -1.24,1.124 -2.24,1.076 -1.23,-0.06 -2.45,-0.648 -3.52,-1.204 -1.07,-0.555 -2.28,-1.038 -3.24,-1.745 -0.78,-0.564 -0.83,-1.966 -1.75,-2.296 -3.11,-1.124 0.53,-3.533 1.45,-4.25 -1.66,-0.188 -2.75,2.985 -4.39,2.231 0.32,-0.496 0.34,-1 0.1,-1.517"></path>
		<path id="path5460" d="m 2007.82,593.19 c -0.2,0.342 -0.35,0.237 0,0.72 0,-0.241 0,-0.48 0,-0.72"></path>
		<path id="path5466" d="m 2013.73,624.654 c 0,0.241 0,0.481 0.1,0.721 0,-0.241 0,-0.481 -0.1,-0.721"></path>
		<path id="India_Little_Andaman" d="m 2004.58,605.286 c -0.17,-0.348 -0.36,-0.684 -0.57,-1.009 -0.64,0.526 -1.01,1.558 -0.84,2.368 0.45,2.047 2.1,-0.121 1.41,-1.359"></path>
		<path id="India_Andaman" d="m 2005.16,586.998 c -1.43,1.191 0,4.762 0.14,6.191 -1.79,-0.331 -2.14,5.617 0.22,5.4 -1.05,-0.735 0.1,-0.813 0.1,-1.646 0,-0.994 -0.59,-1.929 -0.25,-2.928 0.25,-0.758 0.91,-1.412 0.76,-2.274 -0.25,-1.347 0.36,-0.445 0.61,-1.675 0.25,-1.239 -1.15,-2.499 -0.85,-3.455 0.29,-0.934 2.06,-2.874 0.23,-3.287 0.75,-0.583 0.62,-1.488 0.1,-2.159 -1.83,1.407 -0.6,3.954 -1.01,5.833"></path>
		<path id="path5454" d="m 2004.51,586.422 c -0.12,0 -0.24,0 -0.36,0 0.1,0.281 0.2,0.546 0.36,0.792 0,-0.264 0,-0.528 0,-0.792"></path>
		<path id="path5456" d="m 2007.1,618.606 c -0.34,0.153 -0.5,0.417 -0.5,0.792 0.81,0.231 0.98,-0.03 0.5,-0.792"></path>
		<path id="path5458" d="m 2006.82,594.702 c 0.16,0.253 0.4,0.396 0.71,0.432 -0.24,-0.144 -0.48,-0.288 -0.71,-0.432"></path>
		<path id="path5462" d="m 2012.29,629.262 c -2.06,0.754 1.87,1.551 0,0"></path>
		<path id="path5464" d="m 2013.29,627.534 c -1.03,0.06 -0.35,1.206 0.1,1.512 -0.23,-0.494 -0.25,-0.997 -0.1,-1.512"></path>
		<path id="path5468" d="m 2014.88,634.446 c -0.6,0.23 -0.74,0.919 -0.43,1.44 0.57,-0.302 0.85,-0.865 0.43,-1.44"></path>
		<path id="path5470" d="m 2016.25,636.39 c -2.67,-1.325 -0.51,2.813 0,3.672 0.8,-1.783 0,-2.11 0,-3.672"></path>
	</g></svg>
