<svg xmlns="http://www.w3.org/2000/svg" viewBox="1772.2 371.8 288.1 288.1"><path fill="#2b1d24" d="M1810.8 492.9c-.1-1.7 1.7-1.7 3-1.7s.7-2.3.6-3c.9.5 3.4.1 4.2.2 2 .2 3.3 1.3 5.6.9.1 0 0-1.2.7-1.2s1.8-1.2 2.8-.7c1.3 2 2.4 1.4 4.2 0-2.5-1.8-.5-2-.6-2.6-.9-2.9-2.8-4.5-3.5-6-.4-1 .2-2.9-1.7-2.5-2.4.4-3.2-1.3-3.2-2.9.1-1.3.6-3.6-.5-4.2-1.6-1-4.4-.5-5.1-3-.5-1.9 1-4 2-5.4q.9-1.3 1.5-2.8c.4-.7 1.5-2.3 2.6-2 1.4.3 1.3 2.6 2.9 2.7.9.1 1.5-.6 2.3-.9q1.5-.4 3.1-.5c2.1-.4 1.9-2.2 3.2-3.5 1.6-1.7.6-3.8 3-5.2 2.1-1.2 3-2.7 3.6-5 .5-1.8 0-4.1 2.2-4.9q1.2-.2 2-1.1c.5-1-.8-1.3-.8-1.8s1.6-2.9 2-3.4c.7-1.1 2.5-1.7 3-2.9-1.6 0-1.2-1.4-1.2-2.5 0-1.3-1.2-2.2-1.2-3.3 0-2 3.8-2.3 4.8-3.5 1.8-2.1-3.2-2.3-4-2.7-1-.3-.8-1.7-1.8-2.2l-2.1-.7q.4-1-.7-1.5c-.7-.4-2.7-1.6-2.2-2.5s.9-1.8-.1-2.5c-.6-.4-1.6-1.3-.8-2 .4-.4 2.5-1.7.7-1.9-.3 0-3 0-2.2-1 1-1.3-.3-1.2-1-1.8-1-.7.5-2.7 1.2-3 1.6-1 3.3-.3 5 0l5.6 1.4c1.6.4 2.6-.6 4-1.1 1.2-.5 2.5-.4 3.8-.8.3-.1 2.5-2.3 2.4-2.6-.5-.8 1.8-2 2.4-2.5q.7-.7 1.7-1c.5-.3.5 0 .9.2 1.4 1 1.4 1.5 2 2.1.8 1 .9 3.3 2.3 4.3 1.7 1.2 4.8 2.6 6.3 3.8.5.3-.7.9-1 1.2-.5.6-.3.6.2 2.4a10 10 0 0 0 2.2 4c1 1.2 2.8 1.1 3.6 1.9.3.3 0 1 .3 1.5l.8 1.3c1.2 1.7-.5 2.3-1.2 3-1 .7-1.7 2-3 .2q-1.2-2.3-3.1-.7.7 1 .9 2 .5 1.1 1.6 1.9c1.6 1.5.8 2.7 1.8 3.8.7.7-.2 3.5 1.3 3l1.4-.9c.9-.3 1.2.7 1.6 1.3s1.8 2.3 2.7 2.5c1.1.2 2-.5 3 .5.5.7 1 .6 1.7 1q.9.6.6 1.4c-.3.7 1 .8 1.7 1 2.1.6 3.6 1.2 5 2.7-2 .2-2.3 3.9-3.6 4.9-.2 0-.5 1.1-.6 1.5-.6 1.1.5 1 .4 2-.2 1.1-1.7 2.4-.8 3.4.7.7 3.3 2.9 3.3 1.4 1.2.8 3 1.4 4 2 1.8 1.2 2.3 2 3.7 3 .4.2 3 2 3.6 1.7 1.5-.6 2.5.8 3.8 1.4.5.3 2.2.3 2.5.7 1 1.2 1 1.5 2.8 1.8.9.2 1.7.8 2.6.2 1.2-.9 2.2 0 3.5.7-.9-2.3 4.8 0 5.2.1 1.6.5 1 2.6 2.5 3q1.9.2 3.2 1.8c.6.9 2-.3 2.7-.4 1.8-.1 1 2.6 3.3 1.6.7-.3 3.7.8 4.3 1.2 1.7 1 2.1 0 3.7-.6.1 1.2 1.5 2 2.8 1.4h3.3c1.2 0 1.5-.2 1.7-1.5.3-2.2-.9-2.7-1.7-4.6-.5-1-.1-2.5 0-3.6q0-1.8-.3-3.6c1.4-.1 2.9-1.2 4.2-.9 2.6.8.3 4 1.5 5.4.2.3 1.1.8.8 1.3s-.9.5-.3 1.5c1.1 2 2.6 2 4.7 2.3 1.3.1 2.1 1.3 3.5 1.2q.9 0 1.8-.5c.5-.3 1.6-1.5 2.4-1 1.8 1.2 4 .8 6.2.7.6 0 1.6-.9 2-.5.5.7 2.4.1 3.2 0 2-.2-.3-1.3 0-2.9.6-3.3-3-1.3-3.4-3-.2-1-1-2.2.5-1.9 1.2.3 2.3-.1 3.4-.4 1.4-.3 2.5.2 2.9-2.4.1-1.2 3-2.3 3-3.8.2-2.4 3.2-1 4.6-2.4 1-1.1 1.7-2.4 3-3.4q.7-.6 1.6-1c.4-.3 2.5 1.3 3 1.5q-.7-.8.6 0c.8.2 1.5.8 2.3.8.9 0 .7-1 1-1.6.6-1 2.4-1.6 3.3-2 .2-.1 2.4 1.9 2.7 2.1-1.7 1.5-1.5 1.4-1 2 .6.5 1.9-.7 2.3-.8-.3 1 1.6 1.8 1.2 2.7-.5 1.2-1 1.6-1.3 2.9-.2.9 1.4-.2 1.7-.3 1.4-.3 2.8 1.4 4.1 1s2 1.1 2 2.1c0 .4.6.7.5 1-.1.6-1.2 1.4-1.6 1.9-2.5 2.7 1.1 3.7 1.6 5.7-1.8.8-2.4-2-3.4-1.9-3.6.8-4.4.6-5.1 1.8-.6 1-1 1.8-2 2.1-.6.2-.4.6-.8.5-.4.4 0 .7-.7 1.1-.3.2-1.6-.2-2.1 1-.4.8-.1 1.8.1 2.6l.9 1.7c.2.7-.3 1.5-.4 2.3-.1 2-3 3.3-2.2 5 .2.6 1 1.3 1 2-.3 3.6-2.2 6.4-2.9 10-.7-.5-2.6-1-3.5-1.3q-.7 0-1.3.3c-.6-.1-.7-.6-1.4-.5.8 2 1.1 3.7 1.2 6 .1.8.2 3.7-1.5 2.5.3 2 .1 3.4.9 5.2.3.7 1 3-.6 2 .2 3.7-1.2 2-2.5.5q.1 1-.7 1.6c-1.2-5-2.7-9.4-4.3-14.7-.2-1.3-1.7.7-2.5 0q.4 1-.2 2c-.5 1 0 1.9 0 2.8s-.6 1.8-1.7 1c-.8-.6-1-1.7-1.7-2.2l-.1 1.4c-.7-1.5-1.7-3-2-4.4-.4-1.6 1.4-3 1-4.4.7.1 2 .4 1.9-.8.5.7 1.2-.4 1.9.2.2-2 2.9-3.8 1.7-6 .4 0 2 0 1.1-.9-1-1-2.6-1.7-4-1.8h-8.8c-2.4 0-7.4.4-7-2.8 0-1.4-.6-6-2.8-5.7q.5.9 0 1.8c-1-.6-2.6-.9-3.3-1.8s-.8-2.4-2-2.1q.6.6 1 1.5-1-.1-2.4-.7c-.5-.2-.5-1-1-1.3l-2-1.2-.1 1c.3 0 1.2.1 1.5 1-2.2.8-3.7 4-1 5.1 1.1.5 1.5 1.7 2.5 2.3.7.5 2-.3 2 .6.2 1.5 2.2 1 1.3 2.4-.6-.3-1.7-.2-2.3-.2q-1.4 0-1.2 1c-.1 1-1 2.8-1.8 1 0 1.6-1.8 2.3.3 4 1.2.8 2.8.7 3.8 1.5 1.8 1.6 1 2.2 1.2 3s-2 1.5-.7 2.8l1.5 1.3c.3.4-.2 1.2 0 2 .2.3 1.1.2 1.3.3.7.2.3 1.4.4 1.9 0 1 .3 1.5.5 2.4.1 1.3.5 2 1 3.2s1 2.7.3 3.9l-.8-.5c.2.5 1.9 2.4 1.3 2.8-.6.6-1.5-.4-1.5-1-.1.8-.7 1.5-1.2.5-.5-1.1.1-2.5.1-3.6-.7.3.1 1-.7 1.6.2-.7-.3-1.4 0-2.2-1.3 1 0 4.4-.3 5.8-.3-1 .1-2.4-.8-3.1 0 0 .2 2.6-.2 2.4l-.4-.6c-.8-1.2 0 1.7-.8-.5q.4.8.1 1.6c-1-.9-1-2.8-1-4-.3-1.9-1.7-1.5-2.3-3 .2 1.5 2.7 1.2 1.5 3.1a8 8 0 0 1-5 3.9c-1.3.4-3 1-3.4 2.6a10 10 0 0 0 1.6 5.2c-.5.4-1.3.8-1.5 1.4-.4 1 .6 1-.6 2-1.4 1-1.9 3.2-3.6 1q.6 1.1 2 1.6c-2.2 1-4.4 2.1-6.8 2.4.8-.4 1-2.2-.2-1.8s-2.3 2.2-1.9 3.4c.2-.5 1.3-2 1.7-1.2-.7.2-1.9 2.1-2.6 2.8-1.6 1.5-2.4 3.4-3.4 5.3q-1.7 3.1-4.5 4.8c-1.8.8-2 3.1-3.8 4 1.2.6-4.4 3.3-5 3.8q-1 1-1.7 2.1c-.5 1.3 1.2 1.6.6 3-1 2.8-4.4 2.5-6.8 2.6-1 0-1 .8-1.3 1.6-.2 1-1.2 2.5-1.1 3.4-.8-.4-.8-1.2-1-1.9.2.8-.3 1.6-.5 2.3.5-2.4-3-1-3.6.2-1 1.7-2.1 4.3-1.4 6.3.5 1.6 1.2 3.3 1.2 4.9 0 2.8.6 5 1.3 7.7-.2-.5-1.3-2.7-1.2-.9-.6-1.3-.6.4-.1.7.6.4 1.2.5 1.6 1.2.8 1.2.1 4.5 0 5.8-.4 2.5-1.9 4.3-2.6 6.6-.5 1.8.3 4.3-1 5.8l.7-.5q1 1.5.8 3.4c0 2 .5 3.9.4 5.8l-1.5-.2c2 .6 0 .3-.4.2-.7-.2-1.8-.6-2.2.3q-.6.7-.4 1.6c.5.7-.7 1.5-1 2.1-.8 1.2-2.2 3.7-.2 4.6q1 .2 1.7 0c.4-.2 1.1 1.1 1.4 1.3-2-2-5.3-.8-7.4.3-2.8 1.4-1.6 4-2.9 6q-1.2 1.7-3.1 2.4c-1.8.8-2.8 0-4.1-1.2-.6-.6-5.3-5.5-3.8-6-1.4.6-1.9-2-2.4-3.2-.6-1.6-1.3-3.5-.9-5.2q.6 1 .6 2c.2-1.7-.1 1.8 1 1.9-.4-1-.2-2-.6-3-.3-.8-1.1-1.2-1.2-2.1 0 1.8-.6 0-.5-.4 0-.9-.5-1.2-.9-2.2q-1.2-2.7-2-5.5c-.3-.7-4.5-7.5-4.3-7.8a28 28 0 0 1-5.4-11.3q-.4-2.2-1-4.2l-1.1-2.6c-.3-.7-1.3-2.4-.1-2-1.4-.4-1-2.2-1.8-3.2-.4-.6-2.6-1.8-.7-2.2-1.2.6-1.7-.8-2-1.6l-.8-1.9c-.3-.6-1.3-1 0-1-.6-.2-1.2-1.1-1.2-1.7 0-.7-.7-.9-1.1-1.6a21 21 0 0 1-3.5-9.9c0-1.5-.8-2.9-1-4.3s-1-2.6-1.4-4c-.3-.8-1.9-3.7-.5-3.1-.2-.3-2.2-3-.5-2-.2-1-1.5-1.7-1-3l.7.7q0-1-.7-1.5c1-.5.5-1.5.3-2.2q0 .9-.7 1.6c-.8-1.3-.5-4.1 1.2-2.1-.3-.7-2.9-1.2-2-2.2.2-.3-1-1.7-1.1-2.2a7 7 0 0 1-.2-3.5c.4-2 1.5-3.9.8-5.8-.1-.3-.6-3.6-1.6-2.4q.6-1.3-.6 0c1-1.1-.6-1.4-.3-2.2l.3-1.6c.2-.7 2.7-1.2 3.2-2.1-1.9 1.4-6.2.3-3.3-1.8-1 .4-2.2-.3-1.4-1.4.6-1 1.6 0 2.2-1-1 .3-3 0-3.6-1-.1.5-1 .7-1 .5-.1.5.6.6.6 1.3q0 1.3-1.5 1.6l.6.7q-.9-.2-1.2.7c2 .6 3 2 1.6 3.8-.5.7-.2 1.6-1.1 2l-3.2 1.8c-1.8 1-3.8 2.4-6 1.7s-4.8-2.8-6.1-4.7c-2-2.8-4.8-4.6-7.1-7-.6-.7-2.3-3-.3-3.2.5 0 .5 1 1 1.2.7.4 2.1 0 2.2-1 .8 1.1 4.3-.9 5-1.6.6-.6.5-1.6 1-2.3s1.6-1.2.6-2.2c-.5.6 0 1.8-1 1.7q-1.5 0-3 .5c-.8.3-1.2 1.1-2.2 1a9 9 0 0 1-3.5-1.1q-1.6-.7-3.3-1.8c-.7-.5-.8-2-1.7-2.3-3.1-1 .5-3.5 1.4-4.2-1.6-.2-2.7 3-4.3 2.2q.5-.8 0-1.5m197 100.3c-.2.3-.3.2 0 .7zm5.9 31.5.1.7zm-9.1-19.4-.6-1q-1 1-.8 2.3c.4 2 2 0 1.4-1.3m.6-18.3c-1.5 1.2 0 4.8.1 6.2-1.8-.3-2.1 5.6.2 5.4-1-.7.1-.8.1-1.7 0-1-.6-1.9-.2-2.9.2-.7.9-1.4.7-2.3-.2-1.3.4-.4.6-1.6.3-1.3-1.1-2.5-.8-3.5s2-2.9.2-3.3q1-1 .1-2.1c-1.8 1.4-.6 4-1 5.8m-.7-.6h-.4l.4.8zm2.6 32.2q-.5.3-.5.8 1.2.4.5-.8m-.3-23.9q.3.4.7.4zm5.5 34.6c-2 .7 1.9 1.5 0 0m1-1.8c-1 0-.4 1.2 0 1.5a2 2 0 0 1 0-1.5m1.6 6.9q-1 .6-.4 1.5.9-.5.4-1.5m1.4 2c-2.7-1.3-.6 2.8 0 3.7.8-1.8 0-2.1 0-3.7"/></svg>
