<svg xmlns="http://www.w3.org/2000/svg" viewBox="1579.83 368.24 85.92 85.92"><path id="iq" d="m 1585.76,409.806 c 4.36,-2.14 8.19,-4.228 12.07,-6.894 1.24,-0.847 2.57,-1.896 3.28,-2.978 1.36,-2.079 0.27,-4.826 0.55,-5.604 0,-3.231 0.9,-3.631 0.71,-5.184 -0.21,-1.735 -2.68,-4.782 -0.77,-6.267 1.09,-0.85 2.45,-0.815 3.57,-1.754 0.95,-0.789 3.49,-2.855 2.73,-3.688 -0.34,-0.382 0.35,0.03 0.87,-0.122 0.85,-0.258 1.13,-1.061 1.5,-1.741 0.37,-0.669 4.17,-0.05 5,0.27 0.66,0.253 1.33,0.493 2.03,0.636 1.14,0.236 1.48,-0.504 2.47,-0.688 2.51,-0.465 0.8,2.819 2.22,2.691 1.04,-0.09 1.45,-1.662 2.59,-1.619 1.44,0.05 1.39,2.513 2.03,3.364 0.3,0.404 0.69,0.333 0.94,0.839 0.31,0.618 -0.1,1.497 0.42,2.005 1.1,1.072 3.51,2.128 2.53,3.979 1.62,-0.364 2.29,1.097 3.02,1.372 1.38,0.525 1.41,-0.576 4.4,0.216 -0.26,1.124 -1.57,0.863 -2.04,1.732 -0.79,1.468 1.45,2.56 1.58,3.894 0.17,1.761 -1.98,-0.175 -1.92,1.61 0,0.804 -0.84,0.668 -1.07,1.425 -0.25,0.856 0.17,1.494 0.32,2.283 -0.54,0 -1.05,-0.147 -1.51,-0.433 -0.12,0.724 -0.62,1.274 0,1.874 0.62,0.652 1.09,0.931 0.74,2.002 -0.33,1.021 -1.24,1.253 -0.36,2.048 0.75,0.68 1.41,1.493 2.26,2.062 0.85,0.568 5.25,4.342 2.74,5.047 0.98,0.238 0.73,1.377 1.54,1.189 1.16,-0.269 1.81,0.469 2.74,0.993 1.7,0.964 2.79,3.154 5.16,3.338 1.12,0.09 3.18,3.736 4.17,4.61 1.5,1.323 0.58,2.689 0.2,4.508 -0.18,0.869 -0.13,3.336 1.16,3.428 0.45,0.03 1.2,-0.06 1.56,0.39 0.45,0.579 0.45,1.746 0.35,2.454 -0.23,1.571 0.59,2.032 2.34,3.298 0.89,0.639 0.69,2.62 1.95,2.923 -0.65,0.05 -4.52,-0.502 -4.61,-1.21 0.53,1.258 -1.68,0.248 -2.54,0.21 -1.25,-0.05 -2.87,0.242 -3.44,1.446 -1.23,2.609 -1.01,7.806 -5.17,7.33 l -10.52,-1.204 c -3.52,-0.503 -3.65,-2.354 -6.87,-4.377 -8.91,-6.551 -17.44,-14.4 -27.41,-18.768 -3.58,-1.569 -6.77,-1.436 -10,-2.15 2.03,-2.199 -0.42,-1.23 -1.03,-2.166 -0.15,-0.232 -0.27,-0.695 -0.14,-0.929 0.51,-0.584 0,-1.178 -0.32,-2.03 -0.7,-1.886 -1.37,-3.74 -1.97,-5.66" fill="#2B1D24">
		
	</path></svg>
