<svg xmlns="http://www.w3.org/2000/svg" viewBox="1605 328.7 178.6 178.6"><g fill="#2b1d24"><path d="m1697.4 466.8.7-.1q-.7-.5-1.5-.2zm5.8 2.6q.2-.9-.7-.1zm13-3.8c-1.2 1-2 2.7-4 2.4-.1 1.8 2.6 0 3.2-.3s1.4 0 2-.4c.9-.4 1-1.8 2.1-2-1.2-1-2.1.9-3.4.3"/><path d="M1617.4 358c2-.7 2.7.8 2.6-2.4 0-1.4 1.2-.8 2-.2 1 .6 1.4 1.6 2.2 2.3l2.3 2c1.5 1.3 2.2 2 4.4 2.4 1.3.2 3.3.4 4.6 0 .7-.2 3.2-2.4 3.5-3 .3-.9 1.3-1 2-1.5q.9-1 2-1.9c2-1.3 3.8.7 5 2.2-2.7 1 1 3.2-.6 3.5-2.7.7.1 2.3 1.3 3q1.2 1 2.4 1.7c.4.2 1.5 0 1.6.2 1 2.2 1 6 3.4 7.2 2.1 1.1 4.6.6 6.7 1.5 1.4.6 1.9 2.1 3 3 1.2 1 3 1.7 4.5 2.3 2.7 1.2 6.3 2 9.2 1.2 3.4-1 7.8-2.7 11.5-2.2q-1.2.3-2.3.3c.5.4 2.6 1.2 2.8.1.3-1-1.2-3.5-1.5-4.5 1.8.4 3 .3 4.7-.3 1.8-.8.6-1.5 1.4-2.8a10 10 0 0 1 4.1-3c2-.8 4 .4 6 0-.6-1.2.9-1.3 1.8-1.4s2.3.3 3.4.2c1.6-.2 1.6 0 2.4 1.4s2.7 1.4 4 1.6c1.5.3 2.6 1.8 4.1 1.9 1.8.1 3.2-.2 4.9.5s2.2 1.3 3.2 2.7 3 1.3 4.4 2.2c1.1.7 1.5 2.2 2.7 3 1.4.8 4.8-.8 5.9.3.8 1 1 3.6 1.2 4.6.2 1.2-.7.8.2 1.5.5.5 1 2.6 1.2 3.3 0 1.2-1 2-.7 3.2.2 1.7.8 5.3-1.7 5.6.3.3 1.1 1 1 1.4 0 .7-1.6.9-1.9 1.7-.5 1.6.4 5.3 2.3 5.4 2.4.2.2 2.1-.1 3.3-.6 1.8 2 5.8 2.5 7.8.6 2.3.4 4.6 2 6.3 1.2 1.4 4 .7 5.6 1.5 1.7.8 1.6 3.5 1.1 5-.4 1.4-1.8 2.7-2.6 4-.6 1.1-2.1 3.6-2.8 4l1.8 1.8c3.7 3.2 4.9 8 7.8 9.5l2.7 1.2q1.3 1 2.9 1.3c1.3 0 1.8 4.7 1.8 6 .2 4.1 1 3 3.4 3 1.1 0 .5 3 .4 4.2-.2 2.4-7.9.2-6.6 3.4-.8-.2-2 .3-2.4.9-1.4 1.8-1.2 4.9-1.3 7.3 0 .7.2 2.2-1 1.7.5 2-3.6.2-4.2 0s-2.4 0-2.6-1c-.3-1.5-2-.6-1.2 0-.3 0-4 0-4.3-.3-1.2-1-3.4-.8-4.7-.4-1.1.4-2-.2-2.8-.8-1.1-.9-2-.4-3.3-.7-1-.3-1.8.5-2.8.1-1-.3-1.2-1.6-2.2-.5.3-1.4-2.7-1-3.6-1.8-1.7-1.6-2.3-5.3-2.7-7.5-.5-2.9-3-4.4-5.8-4.2-1.3 0-2.2 1.1-3.4 1.5-1 .3-2.3.5-1.7 1.6.4.8-2.2.4-2.4.5-1.3.3-1.8 1.6-2.9 2.2-1.8.9-3.5-1.6-5.3-1.6-2.2 0-3.4.4-4.8-1.6-.7-1-2.2-1.4-3.2-2l-4-2.1c1.3-1.3-2-2.5-2.8-2.8l-2-1.2c-1.1-.2-2.5.2-3.4-.5-1.9-1.4-2.3-2.7-3.6-4.7-.6-1-.2-2.3-1.2-3-.6-.6-1.6-.8-1.6-1.9 1.2.2 1-.9.1-1-.6-.2-2-.1-1.5-1.1.8-1.4-1.5-2.9-2.2-3.6q-1.7-1.8-2.6-4c-1-2.7-3.1 2-4.3.4-.7-1-1.9-.3-2.4-1.3-.2-.5-1.7-.8-2.2-1.5q1.2.2 2.2 0c-.2-1-1.4-1.3-2.2-.8l.6.6c-2.1-.2 1.3 4.7-2.4 3.1.3.8-.4 1-1 .7-.8-.3-.8-1.3-1-2-.7-1.5-2.8-1.6-3-3.4-.2-1.2.4-3.5-1.3-3.5-2.6.1-1.8-3.4-1.4-5.2.5-2.3-.7-2.8-2-4.4-1.5-1.7-1.2-2.7-3.5-3.1-1.7-.3-2.8-2.2-4.2-3.1-.8-.5-1.6-1.2-2.6-1.1-1.6.1-.6-.8-1.8-1.2 2.6-.8-2.5-4.8-3.3-5.5l-1.7-1.6c-.9-.8 0-1 .3-2q.4-1.2-.6-1.9c-.7-.5-.1-1.4 0-2l1.5.4-.5-2c-.1-1 1.1-.8 1.2-1.7.2-1.2.2-.8 1.2-.8s.9-1 .5-1.5c-.5-.9-1.8-1.8-1.5-3 .3-1 2-.8 2.2-2-.7.2-1.2-.3-1.9-.2-.8 0-1.7.5-2.5 0-1.2-.7-1.4-1.6-3-1.3 1.1-2.5-3-3.2-2.9-5q.3-1.3-.9-1.7c-.2 0-1.7-3.3-1.6-3.7.4-1.5-.6-1-1.4-2s-.4-2.7-1.2-3c-.4-.3-2.1-.8-2-1.5a5 5 0 0 1 1.3-3.2c-2.2-.4-1.2-3.3-2.1-4.3-.6-.7-.4-1.2-.7-2-.2-.3-1-2-1.6-2.7"/></g></svg>
