<svg xmlns="http://www.w3.org/2000/svg" viewBox="1605.05 328.73 178.61 178.61"><g id="ir" fill="#2B1D24">
		
		<path id="path4560" d="m 1697.43,466.83 c 0.22,-0.115 0.46,-0.163 0.72,-0.145 -0.48,-0.294 -0.98,-0.342 -1.51,-0.144 0.26,0.1 0.52,0.194 0.79,0.289"></path>
		<path id="path4562" d="m 1703.19,469.42 c 0.13,-0.601 -0.11,-0.648 -0.72,-0.144 0.24,0.05 0.48,0.1 0.72,0.144"></path>
		<path id="path4564" d="m 1716.15,465.61 c -1.18,0.987 -2,2.694 -3.89,2.376 -0.17,1.771 2.51,-0.04 3.12,-0.305 0.64,-0.281 1.38,-0.06 2.02,-0.363 0.9,-0.425 1.06,-1.826 2.13,-1.924 -1.21,-1.177 -2.14,0.774 -3.38,0.216"></path>
		<path id="Iran_mainland" d="m 1617.37,357.97 c 1.99,-0.679 2.7,0.792 2.66,-2.355 0,-1.365 1.18,-0.858 2.04,-0.224 0.85,0.623 1.32,1.616 2.09,2.319 0.75,0.679 1.6,1.228 2.34,1.908 1.53,1.392 2.19,2.166 4.39,2.505 1.36,0.21 3.29,0.356 4.62,-0.04 0.73,-0.217 3.2,-2.359 3.45,-3.046 0.3,-0.792 1.39,-0.963 1.99,-1.478 0.69,-0.597 1.3,-1.308 2.05,-1.831 1.99,-1.365 3.76,0.716 4.97,2.167 -2.64,0.995 0.94,3.218 -0.54,3.553 -2.74,0.622 0.1,2.232 1.27,2.96 0.83,0.513 1.56,1.305 2.45,1.711 0.35,0.163 1.43,-0.05 1.54,0.177 1.1,2.233 0.94,5.913 3.41,7.209 2.1,1.104 4.6,0.585 6.73,1.494 1.38,0.592 1.84,2.133 2.96,3.026 1.22,0.978 3.07,1.668 4.5,2.304 2.69,1.196 6.29,2.029 9.17,1.164 3.47,-1.038 7.82,-2.716 11.49,-2.144 -0.74,0.278 -1.53,0.193 -2.3,0.288 0.53,0.395 2.6,1.169 2.89,0.09 0.26,-0.942 -1.21,-3.531 -1.5,-4.494 1.72,0.338 3.01,0.308 4.63,-0.375 1.84,-0.779 0.58,-1.456 1.41,-2.736 0.83,-1.272 2.76,-2.531 4.16,-3.056 2.02,-0.765 3.98,0.409 6,-0.03 -0.69,-1.146 0.83,-1.259 1.72,-1.334 1.11,-0.1 2.38,0.312 3.47,0.201 1.55,-0.159 1.56,0.04 2.32,1.446 0.72,1.336 2.73,1.306 4.08,1.549 1.49,0.269 2.53,1.772 4.11,1.897 1.76,0.139 3.15,-0.152 4.86,0.487 1.69,0.63 2.24,1.313 3.16,2.735 0.94,1.448 3.06,1.243 4.39,2.137 1.17,0.793 1.56,2.257 2.76,2.986 1.35,0.825 4.79,-0.762 5.84,0.37 0.88,0.947 1.07,3.585 1.25,4.606 0.2,1.16 -0.74,0.735 0.18,1.524 0.56,0.488 1.09,2.557 1.17,3.289 0.14,1.153 -0.91,1.945 -0.7,3.175 0.29,1.675 0.87,5.266 -1.63,5.55 0.23,0.315 1.08,1.021 1.01,1.44 -0.12,0.67 -1.65,0.874 -1.93,1.745 -0.52,1.563 0.38,5.239 2.29,5.368 2.44,0.166 0.23,2.096 -0.14,3.324 -0.55,1.791 2.02,5.806 2.53,7.818 0.57,2.292 0.38,4.516 1.95,6.263 1.26,1.394 3.99,0.664 5.62,1.481 1.71,0.855 1.6,3.487 1.17,4.936 -0.45,1.49 -1.82,2.724 -2.57,4.061 -0.62,1.11 -2.2,3.629 -2.83,4.075 0.79,0.8 1.44,1.42 1.82,1.758 3.61,3.219 4.86,7.909 7.76,9.502 0.88,0.482 1.77,0.778 2.68,1.223 0.86,0.418 1.9,1.164 2.87,1.227 1.35,0.09 1.8,4.75 1.86,5.947 0.19,4.188 0.96,3.043 3.36,3.066 1.15,0.01 0.49,3 0.41,4.182 -0.16,2.389 -7.85,0.198 -6.62,3.431 -0.72,-0.162 -2.01,0.311 -2.4,0.86 -1.32,1.853 -1.15,4.93 -1.28,7.376 0,0.676 0.2,2.133 -1,1.699 0.56,1.885 -3.55,0.201 -4.2,0 -0.73,-0.227 -2.41,-0.07 -2.6,-1.09 -0.27,-1.404 -1.9,-0.566 -1.19,0.08 -0.32,0.06 -3.98,-0.05 -4.29,-0.293 -1.17,-0.938 -3.44,-0.799 -4.75,-0.396 -1.1,0.341 -1.9,-0.271 -2.75,-0.878 -1.14,-0.81 -2.08,-0.317 -3.32,-0.649 -0.98,-0.265 -1.83,0.538 -2.82,0.128 -0.91,-0.377 -1.13,-1.666 -2.16,-0.504 0.27,-1.406 -2.74,-1.004 -3.58,-1.788 -1.76,-1.647 -2.28,-5.3 -2.68,-7.563 -0.5,-2.846 -3.07,-4.414 -5.87,-4.2 -1.27,0.1 -2.18,1.163 -3.37,1.508 -0.99,0.288 -2.26,0.484 -1.69,1.638 0.37,0.739 -2.21,0.409 -2.39,0.451 -1.28,0.311 -1.78,1.648 -2.88,2.196 -1.85,0.924 -3.54,-1.602 -5.34,-1.602 -2.2,0 -3.43,0.431 -4.8,-1.594 -0.68,-1.011 -2.2,-1.338 -3.23,-1.908 -1.34,-0.742 -2.65,-1.552 -4.05,-2.186 1.35,-1.284 -1.95,-2.478 -2.72,-2.828 -0.7,-0.319 -1.32,-0.94 -2.06,-1.118 -1.04,-0.25 -2.43,0.161 -3.3,-0.492 -1.92,-1.443 -2.38,-2.76 -3.65,-4.768 -0.6,-0.949 -0.19,-2.249 -1.15,-3.016 -0.64,-0.523 -1.67,-0.812 -1.67,-1.819 1.18,0.115 1.01,-0.925 0.13,-1.121 -0.59,-0.131 -2.06,-0.02 -1.46,-1.064 0.77,-1.355 -1.5,-2.836 -2.2,-3.547 -1.19,-1.198 -2.06,-2.474 -2.66,-4.037 -1.03,-2.677 -3.12,2.008 -4.26,0.407 -0.76,-1.073 -1.91,-0.31 -2.42,-1.324 -0.24,-0.485 -1.72,-0.745 -2.18,-1.482 0.75,-0.05 1.49,0.243 2.23,0 -0.25,-0.998 -1.42,-1.268 -2.23,-0.792 0.19,0.222 0.38,0.438 0.58,0.647 -2.14,-0.28 1.35,4.627 -2.38,3.097 0.25,0.749 -0.39,0.945 -0.97,0.692 -0.8,-0.354 -0.84,-1.285 -1.12,-2.003 -0.59,-1.482 -2.68,-1.604 -2.93,-3.438 -0.15,-1.166 0.38,-3.487 -1.27,-3.436 -2.6,0.08 -1.79,-3.48 -1.44,-5.246 0.47,-2.347 -0.69,-2.778 -2.06,-4.427 -1.4,-1.677 -1.13,-2.643 -3.4,-3.072 -1.72,-0.327 -2.86,-2.176 -4.23,-3.12 -0.75,-0.515 -1.62,-1.163 -2.58,-1.083 -1.6,0.132 -0.64,-0.77 -1.81,-1.221 2.56,-0.782 -2.48,-4.771 -3.3,-5.466 -0.6,-0.509 -1.12,-1.116 -1.7,-1.643 -0.87,-0.781 -0.1,-0.962 0.28,-1.939 0.33,-0.89 0.15,-1.324 -0.58,-1.894 -0.72,-0.567 -0.15,-1.407 0,-2.091 0.46,0.285 0.97,0.429 1.51,0.433 -0.12,-0.638 -0.43,-1.231 -0.5,-1.88 -0.12,-1.123 1.12,-0.941 1.21,-1.773 0.13,-1.214 0.17,-0.87 1.19,-0.864 0.96,0 0.85,-0.866 0.53,-1.417 -0.54,-0.926 -1.84,-1.813 -1.51,-3.043 0.28,-1.062 1.9,-0.79 2.18,-1.966 -0.7,0.202 -1.2,-0.321 -1.88,-0.252 -0.82,0.08 -1.72,0.482 -2.52,0.04 -1.22,-0.674 -1.41,-1.66 -3.02,-1.296 1.1,-2.538 -3.01,-3.271 -2.85,-4.968 0.1,-0.989 0,-1.339 -0.91,-1.733 -0.24,-0.102 -1.7,-3.295 -1.6,-3.721 0.36,-1.531 -0.66,-0.92 -1.41,-1.963 -0.75,-1.032 -0.38,-2.758 -1.22,-3.119 -0.44,-0.189 -2.14,-0.722 -2.08,-1.407 0.1,-1.025 0.58,-2.443 1.36,-3.177 -2.16,-0.443 -1.17,-3.286 -2.13,-4.379 -0.54,-0.612 -0.36,-1.158 -0.7,-1.873 -0.19,-0.396 -1.05,-2.004 -1.56,-2.814"></path>
	</g></svg>
