<svg xmlns="http://www.w3.org/2000/svg" viewBox="1172.96 111.23 72.63 72.63"><path id="is" d="m 1181.05,144.054 c 1.05,-0.04 2.56,-0.354 3.6,-0.576 0.57,-0.122 0.37,-1.023 1.12,-0.574 1,0.606 1.81,-1.216 1.97,0.43 0.53,-0.216 1.04,-0.48 1.52,-0.792 0.11,1.09 1.47,0.802 2.23,0.144 -0.46,0.372 -0.97,0.66 -1.52,0.864 0.68,0.561 0.9,-0.07 1.46,-0.308 0.38,-0.16 1.53,0.672 2.29,0.451 -1.88,0.456 -3.98,0.906 -5.47,2.232 0.76,-0.06 1.48,0.213 2.23,0.288 0.75,0.08 1.49,-0.368 2.23,-0.07 -1.56,2.498 -6.51,-0.947 -8.21,1.584 -0.17,-1.32 -0.73,-0.298 -1.48,-0.122 -0.9,0.212 -1.84,0.122 -2.75,0.122 -1.86,0 -0.82,1.821 0.55,1.328 1.45,-0.525 2.33,-0.637 3.93,-0.469 0.77,0.08 1.51,0.05 2.28,0.05 0.78,0 1.71,0.992 2.44,0.53 -0.57,0.169 -1.09,0.576 -1.29,1.151 0.55,0.09 0.89,0.45 0.93,1.008 1.04,-0.868 2.67,-1.504 4.03,-1.512 -0.34,0.581 -1.17,0.63 -1.75,0.761 -0.69,0.156 -2.36,1.697 -0.62,1.255 -0.56,0.03 -1.07,0.223 -1.51,0.576 1.31,0.287 2.36,-1.08 3.67,-0.504 -0.66,0.08 -3.86,0.822 -1.95,1.584 -0.56,0.122 -1.17,-0.163 -1.72,0.07 0.12,1.181 -0.83,0.886 -1.8,1.08 -0.45,0.289 -0.89,0.326 -1.32,0.11 -0.14,-0.21 -0.33,-0.367 -0.56,-0.469 -0.91,0.308 -0.78,1.257 -0.86,2.016 1.67,-0.09 3.69,-0.106 5.33,-0.432 0.79,-0.158 1.59,0.164 2.39,0.09 0.88,-0.08 1.22,-0.944 2.22,-0.738 -0.14,0.253 -0.27,0.517 -0.37,0.792 0.44,0.08 1.27,0.561 1.71,0.211 0.8,-0.644 1.19,0.485 -0.1,0.365 0.79,0.563 1.66,-0.06 2.23,-0.576 0.2,0.264 0.34,0.552 0.44,0.864 -0.34,0.05 -0.68,0.119 -1.01,0.216 0.79,1.571 2.46,1.053 3.87,1.303 1.68,0.299 3.19,0.914 4.92,0.989 1.31,0.06 2.65,0.02 3.93,-0.273 0.59,-0.132 1.17,-0.319 1.68,-0.626 1.28,-0.759 -0.2,-0.767 1.08,-1.105 -1.81,-0.361 1.77,-0.667 2.33,-0.696 0.99,-0.05 2.78,-0.05 3.14,-1.248 0.1,1.837 3.19,-0.1 4.13,-0.587 1.81,-0.931 3.69,-1.61 5.44,-2.613 1.02,-0.586 2.05,0.759 3.14,0.345 0.61,-0.23 4.18,-2.212 2.34,-2.33 0.61,-0.701 2.11,-0.321 1.15,-1.439 0.94,1.456 2.18,-0.304 3.38,-0.145 -1.36,-0.685 1.27,-0.904 -0.65,-0.936 0.52,0.03 1.02,-0.01 1.52,-0.144 -0.7,-0.282 -1.4,-0.603 -2.16,-0.72 1.28,-0.864 2.44,1.213 3.64,-0.298 0.76,-0.952 -1.79,-0.927 -2.2,-0.927 0.76,-0.08 1.54,-0.06 2.16,-0.576 -0.78,-0.193 -1.59,-0.176 -2.38,-0.07 0.79,-0.159 2.51,-0.769 2.23,-1.871 -0.86,0.271 -1.78,-0.559 -2.59,-0.721 -1.1,-0.223 -1.8,0.339 -2.66,0.937 0.59,-0.627 1.98,-1.059 1.73,-2.16 -1.02,0.07 -2,0.379 -3.03,0.432 0.21,-0.775 1.34,-0.965 1.63,-1.697 0.26,-0.681 -2.28,-0.816 -2.64,-1.398 0.89,0.04 0.77,-0.245 0.96,-0.88 0.22,-0.745 1.85,-0.667 2.43,-0.919 -1.37,0.267 -4.35,0.03 -4.83,1.8 -0.48,-0.462 -1.85,-0.898 -1.6,-1.657 0.39,-1.21 -2.26,-1.311 -2.81,-1.028 -0.56,0.284 -1.71,-0.409 -1.5,0.692 0.27,1.406 -0.93,1.346 -1.07,2.354 -0.24,-0.264 -2.56,-0.973 -2.95,-0.937 -1.26,0.12 -1.95,1.629 -2.88,2.304 -0.33,-0.854 -3.08,-3.042 -3.98,-1.804 -0.28,0.375 0,1.192 0.28,1.486 0.67,0.675 0.46,1.519 0.24,2.334 -1.03,-1.313 -1.68,-4.61 -3.96,-4.104 -0.66,0.146 -0.73,0.777 -1.22,0.885 -0.58,0.128 -1.1,-0.264 -1.69,0.02 -0.81,0.391 -0.15,1.726 -0.78,2.352 -1.06,1.042 -2.58,-2.196 -3.23,-2.672 -1.16,-0.838 -2.06,0.767 -1.72,1.734 0.28,0.792 -0.64,3.221 -1.29,2.221 -0.22,1.788 -0.91,-0.354 -1.53,-0.475 -1.67,-0.325 -1.51,3.251 -2.36,1.482 0,0.81 -0.66,1.408 -0.51,2.232 -0.4,-1.017 0,-2.915 -1.73,-2.232 2.31,-0.371 -0.86,-1.646 -0.93,-2.448 1.77,2.184 3.62,-1.853 1.51,-1.439 1.37,-0.463 0.43,-0.634 -0.17,-0.82 -0.82,-0.255 -0.59,-0.749 -1.22,-1.218 -0.66,-0.485 -1.63,-0.119 -2.04,-0.943 -0.2,-0.394 -1.14,-0.694 -1.54,-0.763 -0.3,-0.05 -3.58,0.513 -2.96,0.917 0.86,0.561 2.61,0.67 3.61,0.595 -0.95,0.257 -2.35,-0.379 -2.95,0.721 0.59,0.278 2.08,0.498 2.2,1.334 0.1,0.581 -1.24,0.801 -1.48,1.258 1.28,-1.748 -0.25,-1.476 -1.37,-0.936 0.46,-0.861 0.27,-0.981 -0.57,-0.36 0.16,-0.23 0.31,-0.47 0.43,-0.72 -0.6,-0.327 -1.25,-0.681 -1.94,-0.764 -0.55,-0.07 -1.97,0.285 -0.44,0.691 -0.96,0.217 -0.96,0.504 0,0.863 -0.65,-0.408 -1.42,-0.5 -2.16,-0.647 -0.36,1.294 1.4,1.298 2.16,1.656 -0.9,-0.09 -2.28,-0.782 -2.95,0.216 0.92,0.541 1.96,0.36 2.95,0.648 -0.51,0.03 -1.01,0.1 -1.51,0.216 0.38,0.198 0.79,0.294 1.22,0.288 -1.39,0.954 -2.95,-1.228 -4.46,-0.721 0.19,0.525 0.61,0.932 1.15,1.08 -0.96,0.163 -0.96,0.403 0,0.721 -1.19,-0.359 -2.74,-1.219 -3.53,0.287 1.06,0 2.13,-0.03 3.03,0.649" fill="#2B1D24">
		
	</path></svg>
