<svg xmlns="http://www.w3.org/2000/svg" viewBox="1173 111.2 72.6 72.6"><path fill="#2b1d24" d="M1181 144c1.1 0 2.6-.3 3.6-.5.6-.1.4-1 1.2-.6 1 .6 1.8-1.2 2 .4l1.5-.8c0 1.1 1.4.8 2.2.2l-1.5.9c.6.5.9-.1 1.4-.4.4-.1 1.6.7 2.3.5q-3 .4-5.5 2.2 1.1 0 2.3.3c.7 0 1.5-.4 2.2 0-1.6 2.4-6.5-1-8.2 1.5-.2-1.3-.7-.3-1.5 0h-2.7c-1.9 0-.9 1.8.5 1.4 1.5-.6 2.3-.7 4-.5h2.2c.8 0 1.7 1 2.5.6a2 2 0 0 0-1.3 1.1q.8.2 1 1 1.7-1.3 4-1.5c-.4.6-1.2.6-1.8.8-.7.1-2.4 1.7-.6 1.2q-.9 0-1.5.6c1.3.3 2.3-1 3.6-.5-.6 0-3.8.8-2 1.6-.5.1-1-.2-1.6 0 0 1.2-.9 1-1.8 1.1q-.8.5-1.4.1l-.5-.4c-1 .3-.8 1.2-.9 2q2.7 0 5.4-.4c.7-.2 1.5.1 2.3 0 1 0 1.3-.9 2.3-.7l-.4.8c.4 0 1.3.6 1.7.2.8-.6 1.2.5-.1.4.8.5 1.7 0 2.2-.6l.5.9q-.6 0-1 .2c.8 1.6 2.4 1 3.8 1.3q2.4.7 5 1 2 0 3.9-.3 1-.2 1.7-.6c1.2-.8-.2-.8 1-1.1-1.8-.4 1.8-.7 2.4-.7 1 0 2.8 0 3.1-1.3.1 1.9 3.2 0 4.1-.6q2.8-1.2 5.5-2.6c1-.6 2 .8 3.1.4.6-.3 4.2-2.2 2.4-2.4.6-.7 2-.3 1.1-1.4 1 1.5 2.2-.3 3.4-.1-1.4-.7 1.3-1-.7-1l1.6-.1q-1-.5-2.2-.7c1.3-.9 2.4 1.2 3.6-.3.8-1-1.7-1-2.2-1q1.2.1 2.2-.5-1.2-.3-2.4-.1c.8-.2 2.5-.8 2.3-1.9-1 .3-1.8-.5-2.6-.7q-1.5-.2-2.7 1c.6-.7 2-1.1 1.7-2.2l-3 .4c.2-.8 1.3-1 1.6-1.7s-2.2-.8-2.6-1.4c.9 0 .8-.2 1-.9s1.8-.6 2.4-.9c-1.4.3-4.4 0-4.8 1.8-.5-.5-1.9-.9-1.6-1.6.3-1.3-2.3-1.4-2.9-1-.5.2-1.7-.5-1.5.6.3 1.4-.9 1.4-1 2.4-.3-.3-2.6-1-3-1-1.2.2-2 1.7-2.9 2.3-.3-.8-3-3-4-1.8-.2.4 0 1.2.3 1.5.7.7.5 1.5.3 2.4-1-1.4-1.7-4.7-4-4.1-.6.1-.7.7-1.2.8s-1.1-.2-1.7 0c-.8.4-.1 1.8-.8 2.4-1 1-2.5-2.2-3.2-2.7-1.2-.8-2 .8-1.7 1.8.3.8-.7 3.2-1.3 2.2-.2 1.8-1-.4-1.5-.5-1.7-.3-1.5 3.3-2.4 1.5 0 .8-.7 1.4-.5 2.2-.4-1 0-2.9-1.7-2.2 2.3-.4-.9-1.6-1-2.4 1.8 2.1 3.7-1.9 1.5-1.5 1.4-.5.5-.6-.1-.8-.8-.3-.6-.8-1.2-1.2-.7-.5-1.7-.1-2-1-.3-.4-1.2-.7-1.6-.7-.3 0-3.6.5-3 .9.9.5 2.6.7 3.6.6-1 .2-2.3-.4-3 .7.7.3 2.2.5 2.3 1.3 0 .6-1.3.8-1.5 1.3 1.3-1.8-.3-1.5-1.4-1q.7-1.3-.5-.3l.4-.7q-1-.6-2-.8c-.5 0-2 .3-.4.7q-1.5.3 0 .9-1-.5-2.2-.7c-.3 1.3 1.4 1.3 2.2 1.7-.9-.1-2.3-.8-3 .2 1 .5 2 .4 3 .6l-1.5.3q.6.3 1.2.2c-1.4 1-3-1.2-4.4-.7q.3.8 1.1 1.1-1.5.3 0 .7c-1.2-.3-2.7-1.2-3.5.3q1.6-.2 3 .7"/></svg>
