<svg xmlns="http://www.w3.org/2000/svg" viewBox="1343.5 285.08 103.2 103.2"><g id="it" fill="#2B1D24">
		
		<path id="Italy_mainland" d="m 1353.69,308.599 c 1.01,-1.075 3.67,-0.167 3.55,-2.404 0,-0.902 -0.71,-1.298 -1.28,-1.916 -0.31,-0.319 -0.67,-0.687 -0.94,-1.042 0.85,-0.483 1.7,-1.549 1.18,-2.127 0.9,0.24 1.89,1.116 2.86,0.779 1.22,-0.424 1.77,-0.219 2.93,-0.132 0.77,0.06 1.7,-0.869 2.05,-1.461 0.28,-0.454 0.32,-0.857 0,-1.277 0.82,-0.222 1.43,-0.871 1.94,-1.513 0.89,0.552 0.54,1.273 1.03,2.055 0.46,0.746 1.17,0.946 1.81,1.565 0.25,0.239 0.31,0.953 1.25,1.531 0.3,0.186 0.17,-1.853 0.84,-2.476 0.75,-0.708 1,-1.168 1.09,-2.317 0.17,-1.959 0.82,-0.569 1.25,-0.105 0.74,0.777 1,0.893 1.93,0.576 1.5,-0.514 1.5,0.589 2.54,1.115 0.1,-0.659 0.61,-1.325 -0.23,-1.707 -0.75,-0.342 0.25,-1.688 0.73,-1.784 0.47,-0.1 0.99,0.606 1.44,0.727 0.97,0.267 0.1,-1.321 0.16,-1.641 0.19,-0.622 0.28,-0.827 0.38,-1.115 0.63,0.06 2.21,0.546 2.57,0.732 0.96,0.489 1.61,-0.769 2.17,-1.271 0.74,-0.669 1.91,-0.479 2.82,-0.426 1.46,0.09 2.87,-1.012 4.29,-0.716 -1.58,0.943 1.62,3.4 2.5,3.681 2.66,0.844 4.53,0 7.19,0.764 -0.11,1.007 -1.19,1.697 -1.7,2.324 0.59,0.337 1.19,0.713 1.87,0.864 -0.58,0.676 -1.46,1.651 -0.21,2.016 -0.74,0.963 0.46,1.324 0.86,1.404 0.95,0.189 1.22,1.755 -0.22,1.476 1,-2.077 -1.72,-0.911 -2.23,-0.72 -0.22,-1.433 -1.96,-0.128 -2.47,0.19 -0.55,0.349 -1.13,0.672 -1.72,0.966 -0.39,0.195 -3.68,1.259 -1.64,0.21 -0.55,0.113 -1.28,0.04 -1.73,0.433 -0.33,0.279 -0.17,1.43 -0.79,1.296 0,0.333 1.22,2.044 1.34,2.077 1.82,0.502 0.67,3.155 -0.4,1.955 -2.09,3.686 2.59,7.188 5.12,8.799 1.24,0.789 3.24,1.344 4.1,2.581 1.27,1.801 1.94,4.17 2.68,6.225 0.95,2.638 4.41,5.337 6.88,6.471 1.83,0.84 2.8,1.099 4.83,0.827 0.76,-0.101 4.11,-0.594 3.7,1.145 -0.2,0.83 -2.57,1.602 -1.71,2.617 0.94,1.095 3.43,1.718 4.7,2.172 2.03,0.725 3.86,1.442 5.55,2.796 1.74,1.381 3.87,1.791 5.56,3.316 1.13,1.025 2.65,2.099 2.36,3.807 -0.1,0.388 -0.14,2.134 -0.72,2.192 -0.8,0.08 -1.78,-0.393 -2.2,-1.083 -0.92,-1.506 -0.86,-3.25 -3.13,-3.021 -1.83,0.184 -2.2,-1.009 -2.45,-1.692 -1.93,0.325 -2.36,0.306 -3.57,2.098 -0.75,1.111 -1.3,2.505 -1.57,3.82 -0.32,1.507 1.6,1.874 2.64,2.352 1.67,0.767 1.97,1.96 2.14,3.648 0.27,2.85 -4.66,0.801 -4.19,4.242 0.22,1.683 -0.23,1.815 -1.31,2.958 -0.91,0.968 -1.61,2.162 -2.69,2.956 -1.02,0.747 -1.88,0.327 -2.39,-0.762 -0.78,-1.658 1.63,-2.427 1.75,-3.935 0,-0.512 -0.21,-1.129 0.14,-1.586 0.59,-0.764 1.75,-0.193 2.07,-1.176 0.27,-0.856 -0.81,-1.827 -1.02,-2.609 -0.32,-1.215 -0.43,-2.283 -1.09,-3.393 -0.78,-1.33 -0.9,-3.323 -1.94,-4.447 -0.63,-0.669 -1.06,-0.51 -1.65,-0.02 -0.7,0.585 -1.43,-0.603 -1.89,-0.973 -0.52,-0.418 -1.37,-0.308 -1.53,-1.149 -0.13,-0.693 0.32,-0.9 0,-1.752 -0.8,-1.839 -2.87,-1.882 -4.38,-0.92 0.77,-1.179 0.53,-2.285 -1.07,-2.124 -1.19,0.119 -1.87,-1.64 -2.3,-2.462 -0.76,-1.461 -1.67,-0.611 -2.92,-0.979 -0.67,-0.196 -1.29,-0.51 -2.01,-0.339 -1.5,0.357 -0.53,0.159 -1.57,-0.686 -1.03,-0.837 -2.32,-1.067 -3.34,-1.991 -1.14,-1.025 -1.8,-2.541 -3.04,-3.406 -1.08,-0.752 -1.5,-0.561 -2.22,-1.735 -0.74,-1.226 -2.67,-2.666 -4.13,-1.758 0.84,-1.407 -2.59,-5.039 -3.86,-4.859 0.15,-0.02 -1.87,-5.757 -1.95,-6.13 -0.69,-3.377 -2.99,-3 -5.42,-4.635 -2.51,-1.691 -5.71,-2.61 -7.81,0.119 -0.75,0.969 -1.37,2.087 -2.49,2.689 -0.4,0.214 -4.01,1.361 -3.76,0.435 0.18,-0.68 2.88,-3.675 -0.34,-2.538 -1.92,0.68 -5.54,-2.352 -3.16,-4.32 0.86,-0.706 0.7,-1.29 -0.31,-1.801 -1.67,-0.843 -2.15,-2.125 -1.93,-2.213"></path>
		<path id="Italy_Pantelleria" d="m 1391.24,380.739 c -0.17,-0.24 -0.34,-0.479 -0.51,-0.72 0.76,-0.09 0.93,0.146 0.51,0.72"></path>
		<path id="Italy_Sardinia" d="m 1365.6,348.987 c -0.25,-0.575 -0.74,-0.94 -1.08,-1.445 -0.64,-0.931 -0.14,-1.803 -0.28,-2.803 1.9,2.146 4.34,-0.421 5.83,-1.704 0.54,-0.465 1.3,-1.265 2.08,-0.771 0.51,0.323 0.86,1.184 1.59,0.818 -0.26,0.559 0,0.906 0.57,0.937 -0.24,0.194 -0.47,0.387 -0.71,0.577 1.47,-0.06 2.1,3.365 1.79,4.391 -0.27,0.894 -1.61,1.373 -0.78,2.419 0.82,1.038 0.1,3.678 0,4.93 0,0.938 0,2.88 -0.9,3.471 -0.86,0.546 -2.3,-0.538 -3.26,-0.452 -0.5,0.764 -0.33,2.88 -1.82,2.631 -1.41,-0.237 -1.44,0.139 -2.14,-1.263 -0.19,0.241 -0.39,0.481 -0.58,0.72 -0.24,-0.203 -0.43,-0.443 -0.58,-0.72 1.25,-0.25 0.46,-1.034 0.42,-2.106 0,-1.319 0.14,-2.63 0.23,-3.942 0.24,0.19 0.48,0.383 0.72,0.576 0,-0.454 0.19,-0.932 0,-1.383 -0.16,-0.49 -0.89,-0.312 -0.99,-0.896 -0.1,-0.525 0.55,-1.23 0.54,-1.833 0,-0.787 -0.86,-1.413 -0.68,-2.152"></path>
		<path id="Italy_Elba" d="m 1379.86,329.403 c -0.71,-0.434 -1.55,-0.05 -2.23,-0.576 0.73,-0.34 1.58,-0.261 2.23,-0.792 0.1,0.456 0.1,0.912 0,1.368"></path>
		<path id="Italy_Sicily" d="m 1397.21,373.539 c -0.88,-0.03 -2.15,-0.304 -2.69,-1.072 -1.17,-1.667 1.21,-2.915 1.75,-3.968 1.07,1.563 1.77,0.67 3.01,-0.02 1.9,-1.055 3.25,1.854 5.43,1.393 1.25,-0.265 2.49,-0.05 3.75,-0.28 1.16,-0.209 2.24,-1.392 3.37,-1.383 1,0 1.19,0.746 2.14,0.07 0.62,-0.436 2.31,-1.218 3.04,-0.795 -0.92,1.145 -1.83,2.508 -2.42,3.86 -0.4,0.942 -1.61,2.829 -1.34,3.851 0.24,0.893 1.85,2.229 1.35,3.238 -0.41,0.853 -1.54,1.495 -0.97,2.587 -1.14,0.266 -2.51,0.149 -3.62,-0.192 -1.56,-0.48 -1.48,-2.314 -2.99,-2.933 -1.6,-0.654 -3.3,-0.742 -4.85,-1.602 -1.59,-0.879 -3.02,-2.718 -4.96,-2.761"></path>
	</g></svg>
