<svg xmlns="http://www.w3.org/2000/svg" viewBox="1343.5 285.1 103.2 103.2"><g fill="#2b1d24"><path d="M1353.7 308.6c1-1 3.7-.2 3.5-2.4 0-1-.7-1.3-1.2-2l-1-1c.9-.4 1.7-1.5 1.2-2 .9.2 1.9 1 2.9.7 1.2-.4 1.7-.2 2.9-.1.8 0 1.7-1 2-1.5q.5-.7 0-1.3 1.3-.4 2-1.5c.9.6.5 1.3 1 2 .5.8 1.2 1 1.8 1.6.3.3.3 1 1.3 1.6.3.1.1-1.9.8-2.5q1-.8 1.1-2.3c.2-2 .8-.6 1.2-.1.8.7 1 .9 2 .5 1.5-.5 1.5.6 2.5 1.2.1-.7.6-1.4-.2-1.8-.8-.3.2-1.6.7-1.7s1 .6 1.5.7c1 .3 0-1.3.1-1.7l.4-1c.6 0 2.2.5 2.6.7 1 .5 1.6-.8 2.1-1.3.8-.7 2-.5 2.9-.4 1.4 0 2.8-1 4.3-.8-1.6 1 1.6 3.4 2.5 3.7 2.6.9 4.5 0 7.1.8 0 1-1.2 1.7-1.7 2.3q.9.6 2 .9c-.7.7-1.6 1.6-.3 2-.7 1 .5 1.3.9 1.4 1 .2 1.2 1.8-.3 1.5 1-2.1-1.7-1-2.2-.7-.2-1.5-2-.2-2.5.1l-1.7 1c-.4.2-3.7 1.3-1.6.2-.6.1-1.3 0-1.8.5-.3.2-.1 1.4-.7 1.3 0 .3 1.2 2 1.3 2 1.8.5.7 3.2-.4 2-2 3.7 2.6 7.2 5.1 8.8 1.3.8 3.3 1.3 4.1 2.6q1.8 2.9 2.7 6.2c1 2.6 4.4 5.3 6.9 6.5 1.8.8 2.8 1 4.8.8.8-.1 4.1-.6 3.7 1.1-.2.9-2.6 1.6-1.7 2.6 1 1.1 3.4 1.8 4.7 2.2q3 1 5.5 2.8c1.8 1.4 4 1.8 5.6 3.3 1.1 1 2.7 2.1 2.4 3.8-.1.4-.2 2.2-.8 2.2q-1.3 0-2.2-1c-.9-1.6-.8-3.3-3-3-2 .1-2.3-1-2.5-1.8-2 .4-2.4.3-3.6 2.1a11 11 0 0 0-1.6 3.9c-.3 1.5 1.6 1.8 2.7 2.3 1.6.8 2 2 2.1 3.7.3 2.8-4.7.8-4.2 4.2.2 1.7-.2 1.8-1.3 3q-1.2 1.6-2.7 3-1.6.9-2.4-.9c-.8-1.6 1.7-2.4 1.8-3.9q-.2-.8.1-1.6c.6-.7 1.8-.2 2-1.1.4-.9-.7-1.9-1-2.7q-.3-1.7-1-3.3c-.8-1.4-1-3.4-2-4.5q-.8-.9-1.6 0c-.7.6-1.4-.6-1.9-1s-1.4-.3-1.5-1.1c-.2-.7.3-1 0-1.8-.8-1.8-2.9-1.9-4.4-1 .8-1 .5-2.2-1-2-1.3 0-2-1.7-2.4-2.5-.7-1.5-1.7-.6-2.9-1q-1-.4-2-.3c-1.5.3-.5.1-1.6-.7-1-.8-2.3-1-3.3-2-1.2-1-1.8-2.5-3-3.4-1.1-.7-1.6-.6-2.3-1.7-.7-1.3-2.7-2.7-4.1-1.8.8-1.4-2.6-5-3.9-4.8.2 0-1.8-5.8-2-6.2-.6-3.4-3-3-5.3-4.6-2.6-1.7-5.8-2.6-7.9.1q-.9 1.6-2.4 2.7c-.4.2-4 1.4-3.8.4.2-.7 2.9-3.6-.3-2.5-2 .7-5.6-2.4-3.2-4.3q1.3-1-.3-1.8c-1.7-.9-2.2-2.2-2-2.2m37.4 71.7-.5-.7q1.2 0 .5.7m-25.6-31.7q-.4-.8-1-1.5c-.7-.9-.2-1.8-.4-2.8 2 2.2 4.4-.4 5.9-1.7.5-.4 1.3-1.2 2-.7.6.3 1 1.1 1.6.8q-.3.8.6 1l-.7.5c1.5 0 2.1 3.4 1.8 4.4-.3.9-1.6 1.4-.8 2.4s.1 3.7 0 5c0 .9 0 2.8-.9 3.4s-2.3-.5-3.3-.4c-.5.7-.3 2.8-1.8 2.6-1.4-.3-1.4.1-2.1-1.3l-.6.7-.6-.7c1.3-.2.5-1 .4-2q0-2 .3-4l.7.6q.2-.8 0-1.4c-.2-.5-.9-.3-1-1 0-.5.6-1.2.5-1.8s-.8-1.4-.6-2.1"/><path d="M1379.9 329.4c-.8-.4-1.6 0-2.3-.6.8-.3 1.6-.2 2.3-.8zm17.3 44.1c-.9 0-2.1-.3-2.7-1-1.2-1.7 1.2-3 1.8-4 1 1.6 1.7.7 3 0 1.9-1 3.2 1.8 5.4 1.4 1.3-.3 2.5 0 3.8-.3 1.1-.2 2.2-1.4 3.3-1.4s1.2.8 2.2 0c.6-.4 2.3-1.1 3-.7q-1.5 1.8-2.4 3.8c-.4 1-1.6 2.9-1.3 3.9.2.9 1.8 2.2 1.3 3.2s-1.5 1.5-1 2.6q-1.8.4-3.6-.2c-1.6-.5-1.5-2.3-3-3-1.6-.6-3.3-.6-4.8-1.5-1.6-.9-3-2.7-5-2.8"/></g></svg>
