<svg xmlns="http://www.w3.org/2000/svg" viewBox="1554.22 406.91 41.98 41.98"><path id="jo" d="m 1560.41,444.51 c -0.14,-2.414 0.83,-4.713 0.86,-7.113 0,-2.759 1.26,-4.805 1.59,-7.431 0.14,-1.094 -0.18,-2.21 -0.1,-3.321 0.1,-1.05 0.43,-2.083 0.47,-3.106 0.1,-2.144 -0.21,-4.72 -0.29,-6.884 -0.1,-1.837 2.22,-1.271 3.27,-0.547 1.73,1.192 3.28,2.997 5.6,2.541 2.34,-0.46 4.49,-2.655 6.42,-3.942 2.47,-1.644 4.93,-3.462 7.52,-4.901 0.8,2.56 1.85,5.031 2.73,7.561 -0.89,0.09 -0.31,1.309 0.26,1.456 0.91,0.233 2.06,0.09 0.59,1.631 -4.61,2.817 -9.23,4.31 -14.76,5.692 l 8.25,8.667 c -0.74,0.365 -2.7,0.321 -3.23,0.987 -0.61,0.766 0.1,2.312 -0.57,3.078 -1.09,1.285 -3.85,0.191 -5.26,1.541 -1.61,1.54 -2.14,4.435 -4.44,5.342 -2.09,0.819 -6.81,-0.704 -8.92,-1.251" fill="#2B1D24">
		
	</path></svg>
