<svg xmlns="http://www.w3.org/2000/svg" viewBox="2164.3 291 212.2 212.2"><g fill="#2b1d24"><path d="m2224.2 487.4-.4 1.2 1.4-.2q-.2-1-1-1m2.1-.3q0 .9 1 .8c.6-.1.3-1 .3-1.5q-.3 1-1.3.7m8.3-3.7c-.6.9.6 1.5 1.3 1q-1-.1-1.3-1m7.7-13.1q-.7.5.5.7zm7.5 2.7c1-.4.6-2.6 1.2-3.3.8-1 2.6-1.8 2-3.2-1 .1-1.7 2.4-2.7 1.1 0 1 .4 1.4-.3 2.2s-.9 2.3-.2 3.1m3.5-11.5.3.5.5-.8zm1.7-4.2c-.6.6.2 1.7 1 1.5zm1.2-2.5q.2.5.7.5zm2.9-2.8c-.7.5-4.4 2.2-2 3.1 1.4.6.4-.5.8-1.2.5-.8 2.2-.8 1.2-2m-20.2-53.4c-1.6.4-.5 2.8.5 3-.5-.8-.3-2-.5-3m.5 4q-.4-.6-1-.4c.2 1.7 1.6 1.6 1 .4m.1 13.2.4 1 1.5-.7c-.5-.8-1.4-.6-2.1-1zm2.3-3.1-.3-.4c0 .7-.4 1.7.6 1.8zm2.2-2.1-.5-.3-.2 1.5q.8-.3.7-1.2m0-4.4h-.7q.3.9 1.2.6zm2 4.2c-.4-.2-1.3-.2-1.6 0-.4.4.7 1.5.9 1.7q1 .7 2.4 1c.6.3.7 1.3 1.3 1.7-.5-.3-1.1 0-1.6-.3l-.9-1.5c-1.4 1.1 1.6 2.2 1.7 3.3.2-.4 2-1.8 2.3-1 .1.6-.1 1.5.8 1.3 1-.3.2-3-1.5-2 .5-.9-.3-1.8-1-2.4 1.1-1.6 3.5 1.7 4.1 2.6 1 1.4 2 3.3 1 5.1-.6 1-1.4.8-1 2.2l1 2c.4.4 2.5 3.6.5 2.9.8.8 1.2 1.4 2.4 1.5.6 0 .8.7 1.4.6 1-.2.3-.9-.1-1.1-.9-.5-1.6-2.3-1-3.2.8-1 2.3 1 .6.4q.6 1.2 1.5 2.2.6 1.5.2 3c1.1-.5 1.6-1.5 2.6-2.2-2-1.3-.6-1.8 1-1 1.1-2.2-.9-5.5-.7-8 0-.3-.3-2.2-.1-2.5.6-1.1 1.9-2.3.1-3.2l.5-.7c-1 0-1-.7-1.7-1.3-.8-.7-2-.1-2.9-1 1.2-.5 1.5-2.4.2-3-1.8-.7-3.3 2-5-.4-1-1.4-.3-2-2.1-1.8-1.4.1-3.2 1.2-2.2 2.8-1.8 0-1 0-2.2 1.3-.7-1.7-1.2 0-1 1"/><path d="M2250.2 418q.2 1 .8 2c2.9-1.6-1.5-3.6-.8-2m0 6.6q.9.2.3-.8 0 .4-.3.8m1.8-19.6c0-1.4 2 .2 3.2-.2 2.3-.9 3.9-.3 6 1-.8-.6-1.3-4.4.1-4.5.8 0 1.2 1 2 1.2.4.1 2.8-1 3.1-1.4q0 .6.5.7.3-.4.1-1c.6.5 1.3.4 1.2-.5.9.5 1.5-.5 2.4-.1 1.3.4 2.1-1.3.7-.8 1.4-.4 2.6-1.2 4-1.5 1.5-.2 2.6 1.2 4 1 1-.3 2.2-1.2 3 0 .6 1.2-.7 2.5-1.6 3q1.3.9 1.3 2.4c0 1.2 1.3 1.7 2.1 2.2 1 .4 1.2 1.5 2.2 1.9l2.2.9c1 .2 1.4-3.8 1.6-4.4s.1-1.9.5-2.3c1-.8 2.3-.1 3.3-.6a7 7 0 0 0-2.9-2.5c-1.7-.8-1-1.6-1-3 0-.7.5-2 1.1-.7.4.7.2 2.5 1.5 2.2q-.7-.6-.4-1.4c.4 1.9 2.8.2 3.2 1.7q-1 .2-1 1.1c2.5-1.4 5.4-.5 8-.1-1.7-1.6 1-6.3 3.2-3.7l-.8.3c.6.9.4 2.7 1.6 3.1 1.2.5 1.5-1.5 1.4-2.2-.1-1-1-1.7-1.2-2.6-.2-2.1 3.3-.5 4 .1.5-.9-2.5-2.6-.5-3-1.1-1.3 3-1.8 1.8.6-.3.6-.4 4.4.7 4.7.5.1 3-2.2 3-2.8 0-.8-.7-1.4-.7-2.2-.1-1.2 1.2-1.7 2-2.2q-3.4-2.3-4.7-6.4-.4-1.5-.4-3.1 0-.7.7-.8c.4-.2 0-.6 0-1-.2-2.9-2.7-5.2-4-7.5-1.7-2.7-.4-5.2 2.6-3.2-1.1-1.2-3.3-6.2-1-6.7-.8-.6-.2-1.9-.8-2.7-.4-.6-.4-1.4-1-2.1l-1.5-2.6c-.6-.8-1.2-1-1.7-1.9-1-1.7-3.3-2.6-4.8-3.9-2-1.6-3.3-4.4-4-6.8-1 1-3.6-1.6-4.3-.5-1 1.6 2.4 3.9 2.9 1.6 1.1.5 2.3 2.2 1.5 3.4l-2.2-1.1q.5.8 0 1.5c-1.2-.3-1.6-1.6-2.3-2.5-.8-.9-1.9-.5-2.7-1.2 0 1 2.1 3.2 1.2 4-.5.5-2.2 1-1.2 2 .7.7 2.2 1.7 2.5 2.7s.4 3-1.1 2c.3 1 .8.9 1.6.9 1.2 0 2 1.3 2.5 2 1.3 2.2 1.7 6 1.3 8.4-.2 1.9 1.6 5.1-.4 6.3-2.3 1.2-1.1 3.4-2.3 5.6-1 1.8-3 1.9-4.6 2.9-1 .6-2.2 3.6-3.6 1.1-.4-.7-.3-1.6-1.2-1.8-.6 0-1.3-1.2-.5-1.1 1.6.3 1-2.3 1.3-2.8-1.2-.3-3 .7-3.5 1.8-.5 1.5 2.3 3.4 2 5.4q-.6 2.2-2 3.8c-1.6 2 1.7 3.3 1.6 5-1.3-1-.3.8-1.6.3.5 2.4-4-.3-2.6 1.3-.4-.2-1.4-.3-1.5-1s.4-1.7-.9-1.3q-.8.2-1.4.6c-1.3.4-2.6 0-3.8.6q-1.2.6-2.6.8c-.9.1-2.7-.4-3.4 0-1 .7-1.3.2-2.2-.3s-2.7.6-3.6 1c1.6 1.7-4.8 6.6-5.3 8s-3.4.2-3.4 1.6c0 1 1 2.4 1.5 3.3"/><path d="M2251.8 417.7c.2 1 1.5.2 1.5-.5q-.8-.3-1.5.5m7.9-31.7q-1 0-.3.8zm.3 49.2c-1.3.2-.3 1.6.5 1.8 1.5.3.4-1.7-.5-1.9m.4-50.8c-.6.3-.7 1.1.1 1.3 1.2.3.5-1-.1-1.3m2.6 21c-.3-.5-1.3.2-1.5.3q.8 0 1.4-.3m-.7-3.1q-1.2.4.2.7zm2.3 5.5c-.5 1.1-1.9 1.4-2.7 2.4 1 0 1.5-.8 2.3-1 .1.3.5 1.6 1 1.5.9 0 1.2.6 0 .8 1 .3.9 2.5 2 2.3 1 0 1.1 1 2 1.4.7.3 1.5-.2 2.1.5-1.5-1-.6-4 0-5.2 1.6-3.3 4.3-1 6.4.3l.2-2.3c.2-.9 1.1-1.4 1.6-2.2s-1.5-2.8-1.5-3.8c-1.7.3-2.8-.8-4.4-1-1.3-.3-2.4 1.4-3.4.9 1.4 1.1.7 2-.7 2.3-2.1.6-1.9-.8-3.8-1.1-.2 1-.1 3.8-1.1 4.1m-1.5-4.6c-.8.4-.3.9.4.7zm0 28.8c-.9.5-.8 4.1.4 3.7-.5-1.2.1-2.5-.5-3.7m3.1-29.8q-.7-.3 0 .7zm5.8-96c-.5 0 .9 1 1.1 1q-.2-.8-1.1-1m3 94q-.8-.5-1.3.4c.5.4 1.8.6 1.3-.5m-.6-92.1c-.1.9.8 1.3 1.5.7q-.7-.6-1.5-.7m2.2-1.8c.6 1 .8 2.3 1.7 3.1 1.4 1.2 3 2.5 3.8 4.2q1.3 2.3 2.2 4.8c.5 1.5-1 2 0 3.3 1.2 1.4 3.7 4.5.2 4-1.6-.1-3.4-1.5-5-1.4-.9 0 .2 1.5.5 1.7.9.6 1.7.9 1.6 2.1-.4 2.3-3 1-1.9 4 .8 2.3 3.2 2.2 4.6 3.8.9 1 .4 2.6 1.2 3.7 1.3 1.9 1.7.7 3.1 0-1-.7 0-1.6 1-1.8.2 0 3.2.8 2.5-.5-.6-.9-2.6-1.4-3.5-2-1.3-1-3-.8-4.3-1.7-.7-.5-1.2-1.6-.7-2.5s1.8 0 2.4.3l2.2 1.4c.8.3 1.8-1.6 2.6-2 2.4-1.4 5.8 1.8 8 2.6 1.6.5 5 2.7 6.6 2.5 1-.2.5-1.2.2-1.8q-1-1.7-.3-3.8c1.3-3 3.2-3.2 6.2-2.4-1.4-1.7 3.1.2 1.6-1.8q1-.5 2.3-.3-.1-1 .8-1.4c-1-1-.9.4-1.6.7-.4.2-1.1-.7-1.3-.8-.3-.3-3-2.8-1-1.9-1.4-.6-3-1-3.3-2.7-.2-1.2.2-3.4-1.2-4-.2 1.2-.5 3.2-1.8 3.6-1.6.5-4-2-4.9-1-.3-.8-1-.7-1.7-.6-1 .2-1.2-.6-2-1-2.7-1-5.1-1.8-7.6-3.4l-8.4-5.5c-1-.6-2-1.6-3.2-1.8-.8-.2-.7 1-1.6.4m2.9 93.6c-1.1 0-1.8 2.2-1 2.8 1.4 1.2.9-2.4 1-2.8m-1.1-66.1q0 1 .9.8 0-1-1-.8m11.6 33.8c-.8.3-1.7 2-.6 2.4 1 .4.8.7.6 1.8 1.2 0 1.7-1.2 1.1-2.1q-.3-.4-.7-.4c-.4-.2-.3-1.3-.4-1.7m20.5 30.2q-.4 1 .7.8z"/></g></svg>
