<svg xmlns="http://www.w3.org/2000/svg" viewBox="2164.28 291.04 212.17 212.17"><g id="jp" fill="#2B1D24">
		
		<path id="path3482" d="m 2224.18,487.42 c -0.23,0.353 -0.37,0.737 -0.43,1.153 0.5,0.04 0.98,-0.03 1.44,-0.218 -0.1,-0.555 -0.45,-0.895 -1.01,-0.935"></path>
		<path id="path3484" d="m 2226.34,487.13 c 0,0.538 0.33,0.802 0.87,0.792 0.67,-0.136 0.36,-1.1 0.36,-1.512 -0.16,0.587 -0.64,0.885 -1.23,0.72"></path>
		<path id="path3486" d="m 2234.55,483.39 c -0.57,0.876 0.6,1.527 1.3,1.008 -0.6,-0.06 -1.07,-0.469 -1.3,-1.008"></path>
		<path id="path3496" d="m 2242.25,470.29 c -0.41,0.357 -0.24,0.598 0.51,0.72 -0.17,-0.24 -0.34,-0.479 -0.51,-0.72"></path>
		<path id="path3504" d="m 2249.82,472.95 c 0.97,-0.332 0.62,-2.523 1.21,-3.271 0.72,-0.905 2.56,-1.791 1.88,-3.21 -0.94,0.175 -1.65,2.406 -2.66,1.152 0.13,1.063 0.48,1.341 -0.25,2.222 -0.63,0.76 -0.88,2.302 -0.18,3.107"></path>
		<path id="path3514" d="m 2253.34,461.36 c 0.1,0.168 0.19,0.337 0.29,0.505 0.21,-0.212 0.38,-0.453 0.51,-0.721 -0.27,0.07 -0.53,0.143 -0.8,0.216"></path>
		<path id="path3516" d="m 2254.93,457.18 c -0.55,0.635 0.23,1.736 1.01,1.512 -0.27,-0.553 -0.6,-1.057 -1.01,-1.512"></path>
		<path id="path3518" d="m 2256.22,454.66 c 0.12,0.331 0.36,0.522 0.72,0.575 -0.24,-0.191 -0.48,-0.383 -0.72,-0.575"></path>
		<path id="path3520" d="m 2259.10,451.85 c -0.73,0.584 -4.45,2.247 -2.09,3.168 1.45,0.568 0.54,-0.515 0.94,-1.224 0.43,-0.759 2.11,-0.791 1.15,-1.944"></path>
		<path id="path3488" d="m 2238.87,398.43 c -1.6,0.334 -0.5,2.723 0.58,3.024 -0.55,-0.857 -0.36,-2.069 -0.58,-3.024"></path>
		<path id="path3490" d="m 2239.37,402.39 c -0.22,-0.427 -0.55,-0.547 -1,-0.36 0.22,1.671 1.6,1.522 1,0.36"></path>
		<path id="path3492" d="m 2239.52,415.64 c 0.1,0.323 0.21,0.636 0.36,0.938 0.46,-0.31 0.97,-0.526 1.51,-0.649 -0.46,-0.861 -1.36,-0.604 -2.09,-1.008 0.1,0.239 0.14,0.479 0.22,0.719"></path>
		<path id="path3494" d="m 2241.75,412.47 c -0.1,-0.12 -0.19,-0.24 -0.29,-0.36 0,0.674 -0.36,1.676 0.65,1.8 -0.24,-0.452 -0.36,-0.931 -0.36,-1.44"></path>
		<path id="path3498" d="m 2243.98,410.38 c -0.17,-0.1 -0.33,-0.192 -0.5,-0.288 -0.2,0.485 -0.28,0.989 -0.22,1.512 0.53,-0.198 0.87,-0.641 0.72,-1.224"></path>
		<path id="path3500" d="m 2243.98,405.92 c -0.22,0.02 -0.43,0.05 -0.65,0.07 0.16,0.552 0.58,0.871 1.16,0.648 -0.17,-0.239 -0.34,-0.479 -0.51,-0.719"></path>
		<path id="Japan_Kyushu" d="m 2245.93,410.24 c -0.32,-0.253 -1.22,-0.254 -1.52,0.01 -0.42,0.351 0.69,1.432 0.88,1.634 0.65,0.659 1.58,0.694 2.39,1.018 0.63,0.251 0.73,1.268 1.27,1.659 -0.45,-0.231 -1.09,0 -1.51,-0.288 -0.47,-0.324 -0.55,-1.037 -0.94,-1.439 -1.39,1.082 1.6,2.191 1.66,3.312 0.22,-0.404 1.98,-1.893 2.31,-0.957 0.18,0.507 -0.1,1.385 0.87,1.18 1.04,-0.229 0.13,-2.938 -1.52,-1.879 0.53,-0.987 -0.31,-1.863 -1.01,-2.447 1.13,-1.612 3.45,1.627 4.12,2.569 1,1.41 1.93,3.321 0.94,5.09 -0.59,1.053 -1.39,0.784 -0.92,2.196 0.25,0.737 0.62,1.293 1.04,1.935 0.31,0.489 2.37,3.661 0.43,2.97 0.75,0.798 1.23,1.36 2.38,1.476 0.57,0.06 0.82,0.737 1.44,0.612 0.9,-0.181 0.24,-0.896 -0.16,-1.112 -0.88,-0.482 -1.61,-2.249 -0.94,-3.157 0.77,-1.046 2.29,0.897 0.6,0.381 0.3,0.855 1.03,1.435 1.43,2.231 0.49,0.971 0.29,1.922 0.22,2.952 1.11,-0.449 1.63,-1.52 2.59,-2.16 -1.99,-1.317 -0.62,-1.823 1.01,-1.008 1.15,-2.232 -0.84,-5.483 -0.67,-7.924 0,-0.437 -0.36,-2.277 -0.15,-2.63 0.66,-1.1 1.91,-2.297 0.17,-3.125 0.16,-0.246 0.33,-0.485 0.51,-0.72 -1.06,0.05 -1.14,-0.686 -1.78,-1.271 -0.78,-0.715 -2.05,-0.184 -2.83,-0.961 1.13,-0.545 1.43,-2.437 0.16,-3.021 -1.77,-0.814 -3.27,1.961 -4.97,-0.477 -0.97,-1.402 -0.3,-2.063 -2.17,-1.833 -1.33,0.162 -3.12,1.206 -2.17,2.883 -1.77,-0.06 -1,0.05 -2.15,1.296 -0.75,-1.728 -1.25,0.03 -1.01,1.005"></path>
		<path id="path3506" d="m 2250.17,417.94 c 0.1,0.75 0.56,1.383 0.8,2.088 2.9,-1.589 -1.52,-3.648 -0.8,-2.088"></path>
		<path id="path3508" d="m 2250.17,424.57 c 0.62,0.166 0.74,-0.07 0.36,-0.72 -0.12,0.24 -0.24,0.479 -0.36,0.72"></path>
		<path id="Japan_Honshu" d="m 2251.98,405.05 c 0.11,-1.405 2.04,0.105 3.19,-0.298 2.34,-0.824 3.89,-0.254 6.02,1.018 -0.77,-0.602 -1.29,-4.361 0.14,-4.464 0.8,-0.06 1.18,0.98 1.9,1.19 0.51,0.15 2.86,-1.044 3.22,-1.406 0,0.369 0.16,0.59 0.47,0.662 0.21,-0.256 0.24,-0.549 0.1,-0.877 0.59,0.42 1.29,0.276 1.23,-0.576 0.81,0.489 1.5,-0.457 2.36,-0.141 1.26,0.458 2.12,-1.266 0.73,-0.794 1.35,-0.35 2.53,-1.208 3.91,-1.441 1.52,-0.259 2.69,1.169 4.06,0.902 1.02,-0.199 2.17,-1.17 2.92,0.162 0.63,1.104 -0.62,2.442 -1.53,2.896 0.78,0.589 1.43,1.407 1.34,2.448 -0.12,1.173 1.28,1.707 2.11,2.123 0.9,0.451 1.19,1.549 2.17,1.907 0.75,0.271 1.43,0.719 2.2,0.917 0.9,0.233 1.42,-3.785 1.59,-4.371 0.16,-0.558 0.1,-1.878 0.54,-2.29 0.94,-0.805 2.29,-0.138 3.3,-0.662 -0.91,-1.163 -1.59,-1.864 -2.95,-2.497 -1.66,-0.772 -1.06,-1.524 -1.08,-3.002 0,-0.663 0.61,-1.923 1.21,-0.662 0.34,0.737 0.15,2.462 1.45,2.201 -0.45,-0.397 -0.58,-0.877 -0.36,-1.44 0.43,1.924 2.76,0.228 3.17,1.729 -0.55,0.145 -0.96,0.552 -0.94,1.151 2.44,-1.438 5.33,-0.532 7.92,-0.144 -1.69,-1.61 1.11,-6.273 3.25,-3.672 -0.27,0.09 -0.53,0.186 -0.8,0.287 0.59,0.858 0.43,2.682 1.58,3.099 1.24,0.454 1.47,-1.476 1.39,-2.252 -0.1,-0.987 -1.06,-1.606 -1.16,-2.596 -0.2,-2.063 3.29,-0.451 3.88,0.165 0.57,-0.916 -2.38,-2.611 -0.43,-3.023 -1.08,-1.302 2.96,-1.842 1.84,0.615 -0.29,0.629 -0.4,4.41 0.71,4.697 0.43,0.111 2.9,-2.26 2.91,-2.8 0,-0.843 -0.61,-1.41 -0.64,-2.197 -0.1,-1.243 1.22,-1.694 2.09,-2.188 -2.34,-1.516 -3.99,-3.766 -4.77,-6.438 -0.28,-0.975 -0.4,-2.07 -0.38,-3.084 0,-0.62 0.12,-0.581 0.62,-0.815 0.46,-0.212 0,-0.636 0,-0.967 -0.16,-2.909 -2.62,-5.204 -4.04,-7.523 -1.66,-2.718 -0.36,-5.159 2.68,-3.205 -1.12,-1.203 -3.28,-6.226 -1.01,-6.695 -0.8,-0.643 -0.17,-1.891 -0.74,-2.694 -0.46,-0.65 -0.42,-1.424 -0.98,-2.118 -0.63,-0.785 -0.92,-1.817 -1.58,-2.629 -0.59,-0.729 -1.2,-1.047 -1.67,-1.856 -1.02,-1.737 -3.32,-2.58 -4.8,-3.852 -1.93,-1.66 -3.34,-4.436 -3.98,-6.867 -1.09,0.991 -3.68,-1.595 -4.35,-0.484 -0.99,1.637 2.43,3.87 2.91,1.564 1.11,0.527 2.3,2.238 1.51,3.456 -0.71,-0.453 -1.46,-0.816 -2.23,-1.151 0.31,0.504 0.31,1.008 0,1.512 -1.2,-0.298 -1.59,-1.603 -2.31,-2.448 -0.75,-0.887 -1.82,-0.544 -2.66,-1.225 0,1.046 2.13,3.239 1.19,4.053 -0.49,0.418 -2.23,0.86 -1.23,1.863 0.77,0.768 2.24,1.793 2.57,2.795 0.29,0.894 0.33,3.042 -1.16,2.017 0.29,1.013 0.81,0.864 1.65,0.862 1.12,0 1.95,1.259 2.45,2.09 1.3,2.137 1.69,5.854 1.35,8.284 -0.27,1.884 1.59,5.177 -0.42,6.288 -2.31,1.271 -1.15,3.484 -2.31,5.635 -0.96,1.773 -3.08,1.865 -4.62,2.889 -0.96,0.64 -2.17,3.606 -3.59,1.114 -0.39,-0.676 -0.25,-1.604 -1.22,-1.782 -0.58,-0.106 -1.25,-1.249 -0.48,-1.11 1.63,0.289 1,-2.331 1.28,-2.814 -1.13,-0.316 -3.06,0.695 -3.43,1.814 -0.5,1.545 2.23,3.377 1.88,5.375 -0.28,1.599 -0.99,2.583 -1.94,3.828 -1.59,2.076 1.73,3.283 1.62,5.038 -1.33,-1.097 -0.27,0.754 -1.58,0.288 0.5,2.343 -4.1,-0.339 -2.59,1.296 -0.44,-0.279 -1.44,-0.309 -1.56,-0.938 -0.12,-0.699 0.38,-1.771 -0.83,-1.432 -0.52,0.146 -0.97,0.473 -1.48,0.626 -1.26,0.378 -2.61,-0.01 -3.81,0.594 -0.83,0.427 -1.6,0.705 -2.54,0.833 -0.89,0.122 -2.74,-0.425 -3.41,0.03 -0.96,0.644 -1.34,0.185 -2.22,-0.311 -0.98,-0.558 -2.69,0.528 -3.6,0.885 1.6,1.795 -4.77,6.702 -5.24,8.068 -0.5,1.435 -3.45,0.174 -3.41,1.584 0,1.124 0.93,2.417 1.46,3.381"></path>
		<path id="path3512" d="m 2251.83,417.73 c 0.18,0.909 1.48,0.157 1.51,-0.504 -0.58,-0.19 -1.15,0.03 -1.51,0.504"></path>
		<path id="path3522" d="m 2259.68,386.05 c -0.64,-0.08 -0.74,0.184 -0.29,0.792 0.1,-0.264 0.19,-0.528 0.29,-0.792"></path>
		<path id="path3524" d="m 2259.97,435.15 c -1.28,0.226 -0.24,1.689 0.53,1.838 1.5,0.291 0.44,-1.677 -0.53,-1.838"></path>
		<path id="path3526" d="m 2260.40,384.32 c -0.59,0.294 -0.66,1.13 0.1,1.297 1.19,0.27 0.54,-1.06 -0.1,-1.297"></path>
		<path id="path3528" d="m 2262.92,405.27 c -0.24,-0.458 -1.23,0.2 -1.44,0.288 0.49,-0.02 0.97,-0.116 1.44,-0.288"></path>
		<path id="path3530" d="m 2262.20,402.17 c -0.84,0.299 -0.77,0.539 0.21,0.72 -0.1,-0.24 -0.14,-0.48 -0.21,-0.72"></path>
		<path id="Japan_Shikoku" d="m 2264.50,407.65 c -0.52,1.188 -1.9,1.487 -2.66,2.448 0.9,0.06 1.46,-0.768 2.23,-1.08 0.17,0.416 0.5,1.679 1.12,1.631 0.81,-0.06 1.13,0.526 0,0.745 0.82,0.271 0.81,2.497 1.91,2.351 0.97,-0.13 1.13,1.023 1.91,1.321 0.77,0.294 1.57,-0.167 2.23,0.504 -1.51,-1.042 -0.6,-3.903 0,-5.196 1.56,-3.316 4.3,-0.912 6.33,0.372 0.21,-0.76 0,-1.547 0.21,-2.304 0.27,-0.903 1.12,-1.479 1.6,-2.269 0.45,-0.751 -1.47,-2.747 -1.52,-3.779 -1.68,0.348 -2.78,-0.803 -4.34,-1.083 -1.3,-0.233 -2.43,1.501 -3.37,0.939 1.32,1.177 0.66,1.979 -0.79,2.376 -2.09,0.57 -1.83,-0.833 -3.74,-1.152 -0.17,0.956 -0.13,3.853 -1.16,4.176"></path>
		<path id="path3534" d="m 2262.92,402.97 c -0.69,0.4 -0.21,0.885 0.43,0.72 -0.15,-0.24 -0.29,-0.48 -0.43,-0.72"></path>
		<path id="path3536" d="m 2262.92,431.84 c -0.81,0.418 -0.72,4.108 0.5,3.672 -0.51,-1.184 0.12,-2.511 -0.5,-3.672"></path>
		<path id="path3538" d="m 2266.01,401.96 c -0.55,-0.104 -0.55,0.135 0,0.72 0,-0.24 0,-0.48 0,-0.72"></path>
		<path id="path3540" d="m 2271.78,306.05 c -0.46,-0.08 0.9,0.908 1.15,1.008 -0.18,-0.52 -0.61,-0.909 -1.15,-1.008"></path>
		<path id="path3542" d="m 2274.80,399.94 c -0.54,-0.297 -1,-0.05 -1.3,0.433 0.49,0.458 1.79,0.639 1.3,-0.433"></path>
		<path id="path3544" d="m 2274.15,307.78 c -0.1,0.883 0.86,1.302 1.51,0.72 -0.43,-0.39 -0.94,-0.631 -1.51,-0.72"></path>
		<path id="Japan_Hokkaido" d="m 2276.38,306.05 c 0.62,1.021 0.77,2.212 1.7,3.048 1.39,1.246 3.02,2.546 3.85,4.249 0.74,1.493 1.59,3.17 2.16,4.728 0.54,1.485 -1,2.086 0.1,3.368 1.09,1.318 3.64,4.436 0.11,4.025 -1.6,-0.185 -3.4,-1.521 -4.92,-1.479 -0.94,0.03 0.13,1.473 0.44,1.679 0.86,0.588 1.73,0.89 1.54,2.154 -0.34,2.273 -2.87,0.977 -1.82,3.974 0.8,2.275 3.16,2.162 4.57,3.802 0.89,1.037 0.42,2.575 1.21,3.738 1.25,1.849 1.68,0.62 3.13,0.05 -0.99,-0.777 0,-1.728 0.88,-1.896 0.24,-0.04 3.29,0.783 2.53,-0.488 -0.55,-0.906 -2.57,-1.412 -3.44,-2.021 -1.28,-0.89 -2.98,-0.748 -4.3,-1.66 -0.74,-0.511 -1.25,-1.615 -0.76,-2.481 0.48,-0.854 1.89,-0.07 2.46,0.229 0.76,0.388 1.4,1.102 2.17,1.408 0.81,0.324 1.82,-1.557 2.57,-1.986 2.47,-1.415 5.81,1.763 8.03,2.563 1.6,0.578 4.93,2.722 6.63,2.519 1.04,-0.124 0.49,-1.206 0.2,-1.763 -0.7,-1.334 -0.86,-2.334 -0.27,-3.801 1.22,-3.088 3.13,-3.181 6.12,-2.43 -1.33,-1.684 3.13,0.22 1.66,-1.729 0.7,-0.299 1.46,-0.508 2.23,-0.36 -0.1,-0.634 0.28,-1.148 0.86,-1.367 -0.95,-1.097 -0.91,0.345 -1.59,0.675 -0.41,0.2 -1.16,-0.688 -1.3,-0.814 -0.32,-0.291 -2.97,-2.77 -1,-1.877 -1.4,-0.631 -3,-0.937 -3.29,-2.708 -0.19,-1.157 0.13,-3.354 -1.24,-3.917 -0.21,1.136 -0.51,3.11 -1.82,3.526 -1.57,0.5 -3.99,-1.936 -4.88,-0.933 -0.28,-0.872 -0.92,-0.812 -1.66,-0.683 -1.03,0.179 -1.23,-0.59 -2.09,-0.919 -2.66,-1.026 -5.09,-1.914 -7.57,-3.428 -2.86,-1.745 -5.53,-3.782 -8.38,-5.542 -0.93,-0.575 -2.09,-1.593 -3.19,-1.813 -0.79,-0.158 -0.73,1.023 -1.59,0.36"></path>
		<path id="path3548" d="m 2279.26,399.73 c -1.09,-0.06 -1.78,2.148 -0.99,2.804 1.47,1.216 0.93,-2.416 0.99,-2.804"></path>
		<path id="path3550" d="m 2278.18,333.63 c 0,0.579 0.29,0.875 0.87,0.792 0,-0.608 -0.25,-0.937 -0.87,-0.792"></path>
		<path id="path3552" d="m 2289.70,367.40 c -0.78,0.268 -1.68,1.921 -0.62,2.404 0.95,0.43 0.77,0.716 0.62,1.773 1.18,-0.03 1.71,-1.128 1.12,-2.119 -0.2,-0.195 -0.44,-0.325 -0.72,-0.389 -0.37,-0.203 -0.26,-1.299 -0.4,-1.669"></path>
		<path id="path3556" d="m 2310.22,397.64 c -0.29,0.651 -0.1,0.891 0.65,0.72 -0.2,-0.256 -0.42,-0.496 -0.65,-0.72"></path>
	</g></svg>
