<svg xmlns="http://www.w3.org/2000/svg" viewBox="1543.63 652.06 93.4 93.4"><path id="ke" d="m 1560.76,707.599 c 1.52,-1.106 -2.28,-5.712 2.98,-4.631 0,-0.287 0.31,-0.881 0,-1.425 l 3.13,-0.406 c -2.07,-3.145 -2.97,-0.677 -3.95,0.186 -0.85,0.738 -2.91,-2.527 -2.81,-4.517 0.8,-1.444 0.27,-2.1 1.76,-3.453 1.11,-1.005 1.99,-4.317 3.79,-5.126 0.85,-0.384 0.73,-0.515 0.68,-1.269 -0.1,-1.164 1.28,-1.724 1.58,-2.76 0.35,-1.231 0.45,-2.437 0.58,-3.672 0.1,-1.111 -1.01,-1.898 -1.25,-3.143 -0.52,-2.795 -2.24,-3.402 -2.5,-4.633 -0.2,-0.977 -0.74,-1.806 -1.07,-2.736 -0.22,-0.409 -0.34,-0.844 -0.37,-1.307 0,-0.623 0.7,-0.977 0.51,-1.646 -0.17,-0.59 -0.81,-0.745 -1.31,-0.931 -1.13,-0.421 -0.3,-1.279 -1.5,-1.157 0.49,-1.121 -0.91,-2.199 -0.77,-2.982 0.13,-0.786 1.09,-1.4 1.62,-1.96 1.87,-1.955 4.15,-1.394 6.59,-1.394 1.41,0 2.81,-0.116 4.21,-0.131 0.69,0 1.4,-0.04 2.09,0.07 0.59,0.09 0.77,1.127 1.48,1.401 2.18,0.847 4.61,-0.187 6.84,0.846 2.32,1.081 4.81,3.071 6.63,4.849 0.92,0.906 1.66,1.542 2.99,1.688 0.87,0.1 2.84,-0.443 3.53,0 1.9,1.218 4.82,0.136 6.48,1.729 0.23,-1.133 1.79,-2.782 2.49,-3.758 1.25,-1.736 3.92,-2.431 5.76,-3.291 1.97,-0.917 2.31,1.242 3.78,2.101 1.01,0.59 2.1,0.205 3.15,0.01 0.85,-0.155 1.87,0.406 2.67,-0.03 -1.23,2.101 -2.36,4.397 -3.85,6.322 -1.57,2.032 -2.99,3.163 -2.98,5.893 0,6.449 0.1,12.897 0.1,19.347 0,4.833 -0.97,9.416 2.28,13.365 1.1,1.339 2.75,3.068 1.57,4.823 -0.69,1.035 -2.76,2.925 -4.06,1.73 -0.11,0.26 -0.2,0.523 -0.29,0.79 -0.21,-0.25 -0.4,-0.514 -0.57,-0.79 0.34,0.786 1.21,2.235 0.43,3.029 -0.14,-1.958 -0.95,0.285 -1.14,0.736 -0.41,0.926 -1.18,1.104 -2.07,1.229 -1.96,0.276 -2.75,2.009 -2.12,3.662 0.28,0.757 -1.1,2.947 -1.67,3.41 -0.97,0.789 -1.79,6.098 -2.87,5.644 0.47,2.056 -1.59,3.517 -1.94,5.399 -0.84,-0.609 -0.74,0.456 -1.44,0.291 -0.88,-0.208 -2.01,-1.747 -2.69,-2.265 -3.01,-2.291 -6.78,-4.783 -8.64,-7.256 -0.49,-0.654 -1.38,-0.758 -0.36,-1.89 1.45,-1.6 -1.09,-3.529 -2.39,-4.345 l -25.07,-15.68" fill="#2B1D24">
		
	</path></svg>
