<svg xmlns="http://www.w3.org/2000/svg" viewBox="1543.6 652.1 93.4 93.4"><path fill="#2b1d24" d="M1560.8 707.6c1.5-1.1-2.3-5.7 3-4.6 0-.3.3-1 0-1.5l3-.4c-2-3.1-2.9-.6-3.9.2-.8.8-2.9-2.5-2.8-4.5.8-1.4.3-2 1.8-3.4 1-1 2-4.4 3.8-5.2.8-.4.7-.5.6-1.2 0-1.2 1.3-1.8 1.6-2.8q.5-1.8.6-3.7c.1-1-1-1.9-1.2-3.1-.6-2.8-2.3-3.4-2.5-4.6l-1.1-2.8q-.3-.6-.4-1.3c0-.6.7-1 .5-1.6s-.8-.8-1.3-1c-1.1-.4-.3-1.2-1.5-1.1.5-1.1-.9-2.2-.8-3 .2-.8 1.1-1.4 1.7-2 1.8-2 4.1-1.4 6.6-1.4h6.2c.6 0 .8 1.1 1.5 1.4 2.2.8 4.6-.2 6.9.8 2.3 1.1 4.8 3 6.6 4.9 1 .9 1.7 1.5 3 1.7.9 0 2.8-.5 3.5 0 2 1.2 4.8.1 6.5 1.7.2-1.1 1.8-2.8 2.5-3.8 1.2-1.7 4-2.4 5.8-3.3 2-.9 2.3 1.3 3.7 2.1 1 .6 2.1.2 3.2 0 .8-.1 1.9.5 2.7 0q-1.8 3.3-3.9 6.3c-1.6 2-3 3.2-3 6l.1 19.3c0 4.8-1 9.4 2.3 13.3 1.1 1.4 2.8 3.1 1.6 4.9-.7 1-2.8 2.9-4 1.7l-.4.8-.5-.8c.3.8 1.2 2.2.4 3-.2-2-1 .3-1.2.8-.4.9-1.1 1-2 1.2-2 .3-2.8 2-2.1 3.7.2.7-1.1 2.9-1.7 3.4-1 .8-1.8 6-2.9 5.6.5 2-1.6 3.5-2 5.4-.8-.6-.7.5-1.4.3-.8-.2-2-1.7-2.7-2.3-3-2.3-6.7-4.7-8.6-7.2-.5-.7-1.4-.8-.4-2 1.5-1.5-1-3.4-2.3-4.3z"/></svg>
