<svg xmlns="http://www.w3.org/2000/svg" viewBox="1789.3 300.8 82.5 82.5"><path fill="#2b1d24" d="M1796.3 352c1.1-2 3.4-1.4 4.5-.9.5.3 3.2 1.1 2.2 2 1.1-.2 2.3-2 2.9-2.5 1.1-1 1.4-1.2 3-.5l1.1.7c.7.3.6-.9 1.2 0 .3.6 1.5-.3 2.2-.3-2.2-1.2 2-1.4 2.4-1.4q-.5-.7-.5-1.6c1.2.5 2 .8 2.7-.6.2-.4 2.2-1 1.4-1.5-.4-.2-1.7-.3-2.2-.3-1.7 0-2.6-2.2-4.4-1.1-.1-1.8-1.2-1-2.2-2-1-.8-2.4-1.7-3-2.8q.5 1 .2 2a1 1 0 0 1-1 .5q.4.6 0 1.2c-1.2-1.2-3.9.3-4.7-1.7q-.5-1.4-2-.8c-.8.2-1.7-.8-2.6-.9.4-2.4 4.5-4.3 6-5.8-2-1.1-3.4 0-2.2-2.6.3-.8 0-1.3.8-1.8s2-.2 2.7-.7c1.6-1 5.4.5 7 1q.8 0 1.4.6c1 .7 1.4.4 2.4.5s2 1.3 3 1c-1-1-2-4.6-.4-5.5.4-.2 3.4-1 3-1.6q3.3 1.2 6.2 2.8c.8.4 4.3 1.6 5.2 1.2.8-.4.1-1.2 1.1-1.2 1.5 0 3 .5 4.4.3 1-.1 2-.6 3-.6 1.2 0 2.1.8 3.2.5q1.6-.3 3.2.2h4c2.1.2 5.4 1 7 2.4.8.6 1.1 1.4 2.2 1.4q1.3-.1 2.3.4c1 .6 2.7 1.5 3.2 2.6.1.4-2.7 1.3-3.3 1.8-1.7 1.4-4.4 2-6.4 3.4q-1.5.7-1.4 2c0 1-.8 2-2 1.9q-1.5 0-3 .3-1.7 0-3.5-.3c-1.6 0-1.6 2-1.7 3.3-.6 3.4-2.3 2.2-4.4 2.8-2.3.7-2-1.6-3-2.4-.6-.5-1.6 1-2 1.2-1 .7-1.8 0-3-.3a2 2 0 0 0 .1 1.5c-.9 0-1.5.8-2 1.5-.7 1-2.2.4-3 1.4-1 1.5 1.7 3.3-.1 4.5-.8.5-1.7-.4-2.5.2-1 .8-2.2.7-3.4.5-1.3-.1-4.1-.4-4.4 1.6-1.7-1.6-3-.5-4-1.4 0 .3 0-.5-.4-.9l-1.4-.2c-.4-.2-.2-.7-.6-1-.3-.1-3 2-4.1 1.9-.8-.1-1-.4-1.5-1-.8-1-2.1-.6-3-.2l-.2-.8q-.9.6-2.4.4c-2.2-.3-2.8.9-3.7.3s-1.3-5 .1-3.2q0-.9.3-1.3"/></svg>
