<svg xmlns="http://www.w3.org/2000/svg" viewBox="1789.35 300.83 82.52 82.52"><path id="kg" d="m 1796.32,352.06 c 1.13,-1.973 3.36,-1.433 4.51,-0.924 0.49,0.217 3.2,1.08 2.15,2.005 1.13,-0.259 2.28,-1.985 2.89,-2.51 1.16,-1.011 1.4,-1.24 2.99,-0.551 0.41,0.179 0.79,0.616 1.18,0.757 0.63,0.226 0.54,-0.913 1.12,0.02 0.34,0.549 1.5,-0.405 2.19,-0.383 -2.16,-1.149 2.02,-1.397 2.45,-1.368 -0.28,-0.544 -0.58,-1.014 -0.51,-1.655 1.19,0.512 2.08,0.817 2.72,-0.587 0.15,-0.344 2.16,-0.984 1.4,-1.441 -0.39,-0.238 -1.74,-0.359 -2.24,-0.349 -1.64,0.03 -2.62,-2.139 -4.39,-1.079 -0.1,-1.806 -1.14,-1.011 -2.15,-1.91 -1.05,-0.927 -2.4,-1.809 -2.97,-2.842 0.11,0.597 0.43,1.389 0.12,1.978 -0.21,0.32 -0.52,0.477 -0.91,0.469 0.19,0.409 0.19,0.817 0,1.225 -1.27,-1.192 -3.95,0.297 -4.76,-1.699 -0.42,-1.054 -0.9,-1.173 -1.94,-0.857 -0.84,0.257 -1.8,-0.808 -2.66,-0.828 0.36,-2.445 4.48,-4.353 6.05,-5.832 -2.12,-1.098 -3.49,0.06 -2.27,-2.646 0.32,-0.716 0,-1.26 0.83,-1.729 0.85,-0.487 1.98,-0.213 2.71,-0.697 1.53,-1.014 5.37,0.423 6.91,0.906 0.55,0.119 1.04,0.345 1.48,0.677 0.91,0.667 1.34,0.357 2.36,0.465 1.02,0.106 1.97,1.363 3.03,1.008 -1.05,-0.986 -2.01,-4.613 -0.42,-5.481 0.38,-0.21 3.44,-0.943 3.08,-1.574 2.1,0.688 4.18,1.799 6.15,2.786 0.77,0.382 4.29,1.633 5.23,1.174 0.72,-0.354 0.1,-1.224 1.08,-1.224 1.44,0 2.9,0.543 4.33,0.357 1.04,-0.136 2.01,-0.646 3.08,-0.646 1.12,0 2.06,0.829 3.2,0.487 1.02,-0.304 2.19,0.01 3.2,0.191 1.31,0.231 2.58,-0.03 3.89,0.06 2.19,0.14 5.43,0.95 7.14,2.36 0.74,0.605 1.03,1.42 2.14,1.379 0.94,-0.04 1.52,-0.02 2.34,0.45 1.01,0.583 2.64,1.486 3.12,2.627 0.14,0.334 -2.67,1.285 -3.22,1.738 -1.75,1.456 -4.48,2.1 -6.45,3.4 -0.91,0.604 -1.43,0.949 -1.41,2.024 0,0.921 -0.74,1.986 -1.99,1.879 -1.07,-0.09 -1.94,0.207 -3.02,0.33 -1.21,0.138 -2.32,-0.23 -3.51,-0.267 -1.58,-0.05 -1.52,1.885 -1.71,3.233 -0.51,3.483 -2.3,2.234 -4.33,2.816 -2.33,0.668 -1.96,-1.586 -2.99,-2.421 -0.59,-0.48 -1.59,1.014 -2.05,1.283 -1.07,0.636 -1.83,-0.09 -2.99,-0.329 -0.11,0.497 -0.1,0.977 0.15,1.44 -0.94,0.02 -1.51,0.864 -2.01,1.535 -0.72,0.987 -2.22,0.39 -2.97,1.434 -1.07,1.484 1.66,3.32 -0.18,4.461 -0.76,0.47 -1.72,-0.393 -2.53,0.261 -0.95,0.773 -2.16,0.625 -3.33,0.484 -1.32,-0.161 -4.17,-0.436 -4.46,1.618 -1.69,-1.645 -2.93,-0.518 -3.95,-1.413 -0.1,0.246 -0.1,-0.537 -0.46,-0.909 -0.39,0.03 -0.95,-0.11 -1.33,-0.183 -0.44,-0.28 -0.18,-0.744 -0.61,-0.988 -0.31,-0.178 -2.99,2.003 -4.12,1.832 -0.84,-0.128 -0.97,-0.355 -1.51,-1.033 -0.75,-0.947 -2.11,-0.55 -3.07,-0.186 0,-0.264 -0.1,-0.527 -0.1,-0.792 -0.58,0.423 -1.42,0.531 -2.37,0.412 -2.24,-0.283 -2.83,0.874 -3.75,0.278 -1.01,-0.656 -1.31,-4.952 0.1,-3.21 0,-0.518 0.22,-1.034 0.29,-1.241" fill="#2B1D24">
		
	</path></svg>
