<svg xmlns="http://www.w3.org/2000/svg" viewBox="2073.6 567.9 47.4 47.4"><g fill="#2b1d24"><path d="M2077.2 583.5q0-1.1-.3-2.3c2.4.1 3.4-3.3 4.1-5 .8-2 4.8-3.4 6.4-2.2.7.5 1.5.2 2.6 0 1.3-.3.9.4 4.1-.2s1.9 2.7 4 .7c.2 3 3.6.8 4.8 2.8.6 1 2.6 1 2.4-.5-.1-.8-2-1.8-.8-2.6.4-.3.9.4 1-.4.1-.6.7-.4 1.1-.4.6 0 .5-.9 1-1 .7 0 1.3 1 1.8 1.3 2 1.5 5-.7 6-2.4q0 .9-.2 1.7c-.2.6-.8 1.5-.7 2.1q-.1 1 .3 1.8.9 1.2.9 2.3c.4 1.9 1.7 2.4 1.2 4.6q-.4 1.2 0 2.7.4 1.3.6 2.7c.9 3.5-2.1 2.8-2.5 3.1l-2 1.7c-1.7 1.3-2.5 1-3.9 1 .7.8 0 1.8.5 2.7-.8-.2-3-1.7-3.6-.7-.4.7-1.3.8-1 1.6q.2 1.6.9 2.7c.5 1 2.2 1 2.4 2.3-1 .2-.2.8-.2 1.6l-2-.6c-.6-.3-.8-1.4-1.6-1.2-1.5.3-3.4 1.7-4.7.4-.8.8.1 1.8-.8 2.8s-1.9.5-3 1c-.8.3-1 .8-2 .3s-3-.7-3.4-1.7c.2 1-1.2 1.8-2 1.1-1-.9-.1-1 .5-1.7.7-.8-.2-2.7-.8-3.3-1.2-.9-1.3 1.5-1.5 2.1-.7-.6-1.1.3-1.8 0-1-.5-.4-2-.6-2.9-.2-.7.5-1.8-.3-2.4-.5-.3-1.7-1.6-.3-1.8q-1-.4-1.1.6c.2-1.3-.9-2.4-1.3-3.4-.5-1.2.2-2.9-.6-4a27 27 0 0 1-3.6-7m14.8 24.7q-.6.7-1.4.8c1 .7 1 2 1.8 3-.3-1.3.7-2.8-.5-3.8"/><path d="M2083.8 599.9h-.4l.5.8zm2.2 6.3q.6-.9-.6-.7z"/></g></svg>
