<svg xmlns="http://www.w3.org/2000/svg" viewBox="2073.6 567.92 47.36 47.36"><g id="kh" fill="#2B1D24">
		
		<path id="Cambodia_mainland" d="m 2077.16,583.47 c 0,-0.754 0,-1.519 -0.29,-2.232 2.39,0.08 3.4,-3.35 4.13,-5.084 0.81,-1.893 4.8,-3.316 6.41,-2.18 0.7,0.495 1.52,0.207 2.63,-0.04 1.23,-0.274 0.86,0.475 4.1,-0.152 3.08,-0.595 1.82,2.708 3.97,0.711 0.15,3.016 3.59,0.812 4.79,2.813 0.58,0.98 2.59,1.03 2.4,-0.463 -0.1,-0.824 -1.93,-1.834 -0.83,-2.604 0.46,-0.323 0.91,0.328 1.05,-0.422 0.12,-0.612 0.64,-0.398 1.1,-0.438 0.59,-0.05 0.5,-0.866 0.99,-0.909 0.66,-0.06 1.33,0.861 1.8,1.206 2.07,1.516 4.96,-0.715 6,-2.392 0,0.553 0,1.204 -0.16,1.744 -0.21,0.594 -0.83,1.469 -0.76,2.073 0.1,0.743 -0.12,1.221 0.33,1.749 0.69,0.811 0.74,1.61 0.88,2.316 0.4,1.907 1.68,2.396 1.19,4.613 -0.19,0.863 -0.37,1.746 0,2.762 0.28,0.787 0.46,1.798 0.66,2.625 0.83,3.515 -2.15,2.848 -2.59,3.148 -0.91,0.626 -1.34,1.138 -2.04,1.694 -1.62,1.286 -2.39,1.046 -3.78,1.053 0.63,0.769 0,1.756 0.5,2.592 -0.82,-0.159 -2.96,-1.61 -3.6,-0.614 -0.42,0.653 -1.31,0.751 -1.13,1.597 0.19,0.892 0.5,1.904 0.97,2.692 0.54,0.922 2.2,0.972 2.39,2.302 -0.95,0.138 -0.12,0.796 -0.14,1.584 -0.67,-0.215 -1.46,-0.193 -2.06,-0.59 -0.53,-0.344 -0.77,-1.402 -1.54,-1.251 -1.48,0.29 -3.39,1.714 -4.75,0.4 -0.77,0.79 0.17,1.853 -0.82,2.834 -0.95,0.953 -1.82,0.476 -2.93,0.92 -0.82,0.328 -0.94,0.854 -1.94,0.423 -1,-0.423 -3.04,-0.719 -3.53,-1.729 0.27,1.068 -1.2,1.8 -1.98,1.104 -1.02,-0.922 -0.1,-1.119 0.51,-1.752 0.7,-0.741 -0.15,-2.717 -0.8,-3.234 -1.15,-0.926 -1.29,1.493 -1.48,2.083 -0.71,-0.599 -1.15,0.273 -1.8,-0.05 -0.99,-0.487 -0.39,-2.059 -0.63,-2.875 -0.22,-0.742 0.51,-1.807 -0.26,-2.347 -0.54,-0.376 -1.69,-1.684 -0.34,-1.858 -0.57,-0.302 -0.96,0 -1.08,0.576 0.19,-1.228 -0.86,-2.321 -1.29,-3.385 -0.47,-1.19 0.15,-2.854 -0.59,-3.917 -1.57,-2.27 -2.75,-4.422 -3.65,-7.1"></path>
		<path id="path6044" d="m 2091.92,608.24 c -0.32,0.455 -0.75,0.695 -1.3,0.721 0.97,0.748 1.07,2.032 1.8,2.951 -0.36,-1.23 0.68,-2.687 -0.5,-3.672"></path>
		<path id="path6024" d="m 2083.78,599.89 c -0.15,0 -0.29,0 -0.43,0 0.16,0.291 0.35,0.555 0.58,0.792 0,-0.264 -0.1,-0.528 -0.15,-0.792"></path>
		<path id="path6026" d="m 2086.09,606.22 c 0.35,-0.609 0.13,-0.849 -0.65,-0.72 0.2,0.256 0.42,0.495 0.65,0.72"></path>
	</g></svg>
