<svg xmlns="http://www.w3.org/2000/svg" viewBox="2173.2 323.6 52.7 52.7"><path fill="#2b1d24" d="M2182.2 351.8q.4-1.5 1.6-2.5c.5-.6 1.3-.3 1.5-1 .3-1.3 3-1.4 3-2.7 0-.8.8-.5 1.3-.6 1-.2 1-1.7 1.2-2.3.5-1.8-.4-4 .8-4.6.5-.3 1-1.1 1.7-.8 1 .5 1.6 1.3 2.6 1.8q2.4 1.4 5.2 1.4c1 .1 3 .3 2.3-1.4-.3-.7-1.2-.8-1.8-1.3q-1-1-1.8-2.2 2.5-.4 5-.4c2.3-.2 1-1.6 1.5-2.7.4-1 1.8-.3 2.5-.7 1-.4-.8-3.9-1-4.6q2.5-.2 3.6 1.6c1 1.9 4 2.4 5.4 4.2-.6.5-1.2-.3-1.8-.1-.5 0-.7 1.2-.8 1.5-.5 1.2-1.7 3.2-1.3 4.5.2 1 5 5.6 2.9 6.7q-1.2.4-2 1.4c-.2.5.2 1.2-.2 1.6-.6.6-1.2.6-1.7 1.4q-.4 1-1.2 2c-.6.5-1.5.4-2.3.7q-.8.5-1.6 1.3c-.7.6-1.3 1-.4 1.6.7.6.8 1.8 1 2.7-.3-1.1-.7-.5-.7.3.2 1.6 2 1 3 1.7 1.6 1 7 3.1 6.7 5.4-.3 3.4-6.5 0-8.1 2.7-.6 1-.6 3.3-1.7 3.1-.6 0-3.8-1.1-2.6.6-.6-.4-1.9-.7-2.4-1.1q-1.1-1.2-2.8-1.4l1.5.9c-.8 0-.9 1.4-1.8 2.2-.6-1 .6-.6.5-1.2-.2-.8-1.2-1.2-1.2 0-.5-1.3-2.2 0-2.9-1.3 1.7 0-.4-1.2 1.3-.6-.9-1-2.7-.5-3.8-.7q.2-1 1.2-.6c-1.4-1-.1-2.5-1.1-3.6 1 .8.6-.6 1.9-.7q1.4-.1 2.6.5c-1-1.8-4.5 0-4.5-2.6 0-1 .5-2.5.2-3.5s-1.3-.8-.8-2c-1.8 1-4-1.1-5.7-1.7q.5.8-.1 1.4-.5-1.4-2-1.7c-.4-.2-2.6-1.8-1-1.9z"/></svg>
