<svg xmlns="http://www.w3.org/2000/svg" viewBox="2173.17 323.57 52.72 52.72"><path id="kp" d="m 2182.21,351.774 c 0.27,-0.971 0.83,-1.744 1.6,-2.515 0.51,-0.517 1.33,-0.281 1.47,-0.928 0.28,-1.334 2.97,-1.421 2.97,-2.757 0,-0.808 0.87,-0.44 1.35,-0.57 0.93,-0.25 1.09,-1.694 1.24,-2.281 0.46,-1.786 -0.47,-3.961 0.76,-4.65 0.48,-0.274 1.01,-1.117 1.69,-0.779 0.96,0.481 1.65,1.33 2.59,1.854 1.66,0.928 3.36,1.228 5.2,1.385 1.02,0.09 3.11,0.226 2.37,-1.431 -0.32,-0.719 -1.25,-0.831 -1.8,-1.296 -0.74,-0.63 -1.29,-1.452 -1.87,-2.23 1.61,-0.412 3.45,-0.261 5.11,-0.414 2.18,-0.201 1,-1.583 1.44,-2.684 0.38,-0.952 1.73,-0.32 2.43,-0.635 1.02,-0.454 -0.71,-3.907 -0.92,-4.621 1.54,-0.09 2.83,0.236 3.57,1.565 1.05,1.907 4.04,2.419 5.43,4.194 -0.65,0.484 -1.2,-0.234 -1.88,-0.109 -0.41,0.07 -0.67,1.214 -0.79,1.522 -0.47,1.185 -1.64,3.205 -1.31,4.527 0.23,0.93 5.08,5.621 2.93,6.682 -0.71,0.352 -1.59,0.646 -1.97,1.418 -0.24,0.494 0.21,1.168 -0.2,1.572 -0.61,0.589 -1.26,0.619 -1.72,1.433 -0.36,0.64 -0.6,1.4 -1.16,1.909 -0.64,0.584 -1.55,0.417 -2.3,0.74 -0.65,0.277 -1.11,0.832 -1.61,1.298 -0.69,0.634 -1.37,0.938 -0.47,1.67 0.74,0.605 0.88,1.803 1.05,2.682 -0.34,-1.163 -0.75,-0.527 -0.67,0.304 0.15,1.587 1.87,0.958 2.95,1.627 1.62,1 7.02,3.157 6.76,5.458 -0.39,3.37 -6.57,0.06 -8.18,2.677 -0.58,0.935 -0.57,3.306 -1.68,3.116 -0.58,-0.1 -3.77,-1.157 -2.57,0.57 -0.66,-0.403 -1.9,-0.644 -2.42,-1.104 -0.8,-0.722 -1.64,-1.299 -2.76,-1.344 0.44,0.351 0.92,0.638 1.44,0.863 -0.73,0.07 -0.86,1.38 -1.8,2.16 -0.62,-0.965 0.6,-0.558 0.5,-1.151 -0.14,-0.809 -1.2,-1.183 -1.15,-0.07 -0.56,-1.219 -2.2,-0.02 -2.88,-1.224 1.66,0 -0.44,-1.238 1.3,-0.648 -0.91,-0.948 -2.74,-0.426 -3.89,-0.648 0.15,-0.596 0.64,-0.873 1.22,-0.647 -1.41,-0.95 -0.1,-2.443 -1.08,-3.528 1.06,0.768 0.56,-0.649 1.88,-0.724 0.82,-0.05 1.88,0.08 2.59,0.508 -0.88,-1.829 -4.44,0.03 -4.49,-2.588 0,-1.03 0.54,-2.539 0.26,-3.502 -0.29,-0.98 -1.31,-0.872 -0.88,-2.118 -1.81,1.165 -4.04,-1.01 -5.62,-1.656 0.36,0.521 0.3,1 -0.15,1.44 -0.22,-0.971 -1.09,-1.376 -1.91,-1.734 -0.47,-0.201 -2.7,-1.806 -1.04,-1.866 -0.31,-0.24 -0.62,-0.48 -0.93,-0.72" fill="#2B1D24">
		<!--North Korea-->
	</path></svg>
