<svg xmlns="http://www.w3.org/2000/svg" viewBox="2193.51 360.77 54.34 54.34"><g id="kr" fill="#2B1D24">
		<!--South Korea-->
		<path id="path6028" d="m 2205.82,371.50 c -0.79,0.479 0.37,2.223 1.23,1.439 -0.23,-0.604 -0.65,-1.134 -1.23,-1.439"></path>
		<path id="path6030" d="m 2210.79,383.67 c -0.24,-0.453 -0.57,-0.813 -1.01,-1.08 0.1,0.544 0.47,0.956 1.01,1.08"></path>
		<path id="path6032" d="m 2215.47,396.56 c -0.61,0.556 -0.46,0.82 0.43,0.792 -0.15,-0.264 -0.29,-0.528 -0.43,-0.792"></path>
		<path id="path6034" d="m 2217.20,400.16 c -0.39,-0.313 -0.82,-0.529 -1.3,-0.647 -0.54,2.13 1.66,1.585 1.3,0.647"></path>
		<path id="Korea_Jeju" d="m 2223.68,408.37 c -0.99,-0.1 -5.54,1.133 -3.61,2.604 2.01,1.525 6.29,-1.932 3.61,-2.604"></path>
		<path id="path6038" d="m 2219.58,401.24 c 0.21,0.403 0.55,0.571 1,0.504 -0.19,-0.506 -0.52,-0.674 -1,-0.504"></path>
		<path id="path6040" d="m 2226.49,396.49 c -0.1,1.423 0.81,1.585 2.01,1.585 -0.14,-0.735 -1.37,-1.395 -2.01,-1.585"></path>
		<path id="path6042" d="m 2231.09,396.92 c 1.17,1.917 2.67,-0.302 1.01,-1.009 0,0.59 -0.44,0.97 -1.01,1.009"></path>
		<path id="path6046" d="m 2206.76,372.22 c 0.64,-0.786 1.22,0.693 1.87,0.792 -2.44,-1.045 -1.3,-4.585 0.53,-5.636 1.51,-0.867 3.46,0.07 5.09,-0.231 0.51,-0.09 1.13,0 1.58,-0.31 1.07,-0.755 0,-1.44 0.43,-2.319 2.64,1.996 4.63,4.869 7.13,7.063 2.27,1.994 4.73,3.953 6.54,6.398 1.35,1.827 1.48,3.73 2.25,5.783 0.21,0.575 1.9,4.625 2.37,2.717 0.86,1.005 1.52,3.908 1.15,5.185 -0.25,-0.206 -0.49,-0.423 -0.72,-0.648 0.5,1.643 0.88,3.431 -1,4.32 -0.1,-0.915 -2.24,-0.588 -3.32,-1.152 0.73,1.329 -0.62,0.364 -0.86,1.512 0.98,-0.553 1.11,0.801 0.86,1.513 -0.68,-1.676 -2.91,-0.127 -3.38,-2.088 -0.12,1.615 -2.06,0.461 -2.59,1.728 0.33,0.333 0.84,0.471 1.23,0.724 0.72,0.465 -0.74,0.388 -0.22,1.437 -0.78,-0.563 -0.95,-1.597 -1.73,-2.16 -0.16,0.355 -0.36,0.691 -0.58,1.008 0.52,0.522 1.29,0.856 1.59,1.584 -0.36,0.02 -0.72,0.02 -1.08,0 0.25,0.151 0.49,0.319 0.72,0.504 -0.55,1.097 -1.54,-0.245 -2.02,-0.647 0.98,0.228 1.11,-1.589 -0.1,-1.44 -1.05,0.131 -1.32,2.156 -1.37,2.952 -0.58,-0.227 -1.06,-0.586 -1.44,-1.08 0,0.719 -0.34,1.36 -0.58,2.016 -0.84,-0.212 -1.3,-1.091 -0.86,-1.871 -0.73,0.04 -2.78,-0.555 -2.09,-1.656 0.16,0.527 0.59,0.899 1.15,0.936 -0.53,-0.759 -0.38,-0.95 0.44,-0.574 -0.45,-0.312 -0.93,-0.552 -1.45,-0.722 0.55,0.09 1.01,-0.08 1.37,-0.504 -0.2,-0.265 -0.44,-0.48 -0.72,-0.647 -0.18,1.922 -2.36,-1.683 -2.88,-2.088 0.46,0.188 0.94,0.261 1.44,0.216 -1.18,-0.698 -1.38,-3.57 0,-4.104 -0.51,-0.04 -1.01,-0.111 -1.51,-0.216 0.14,-0.479 0.44,-0.826 0.89,-1.04 0.45,-0.27 0.35,-1.149 0.62,-1.552 -0.51,0.158 -1.01,0.158 -1.51,0 0.25,-0.566 0.69,-1.045 1.22,-1.368 -1.46,1.643 -4.31,-2.078 -3.38,-3.528 -0.96,0.487 -0.9,-0.325 -1.03,-0.989 -0.15,-0.698 -1.64,-1.763 -1.56,-0.379 -0.49,-0.846 -1.65,-0.785 -1.95,-1.8 0.72,0 1.06,-0.228 0.51,-1.008 0.5,1.063 0.64,1.063 0.43,0 0.58,-0.107 1.04,0.21 1.15,0.792 0.43,-0.524 0.38,-1.004 -0.14,-1.439 1.18,0.88 2.61,0.688 3.17,2.304 -0.3,-0.6 0.12,-1.104 0.57,-1.44 -0.74,0.141 -1.71,-0.335 -1.36,-1.224 -1.01,0.682 -2.74,-1.836 -0.8,-1.656 -0.93,-0.25 -1.75,-1.028 -2.41,-1.686 -0.17,-0.366 -0.33,-0.74 -0.47,-1.122 -0.4,-0.497 -0.97,-0.506 -1.22,-1.16"></path>
	</g></svg>
