<svg xmlns="http://www.w3.org/2000/svg" viewBox="2193.5 360.8 54.3 54.3"><g fill="#2b1d24"><path d="M2205.8 371.5c-.8.5.4 2.2 1.2 1.4q-.3-.9-1.2-1.4m5 12.2q-.4-.7-1-1.1 0 .9 1 1m4.7 13q-1 .8.4.8zm1.7 3.6q-.6-.6-1.3-.7c-.5 2.1 1.7 1.6 1.3.7m6.5 8.2c-1-.1-5.6 1.1-3.6 2.6s6.3-2 3.6-2.6m-4.1-7.2q.3.6 1 .5-.3-.7-1-.5m6.9-4.7c-.1 1.4.8 1.6 2 1.6-.1-.8-1.4-1.4-2-1.6m4.5.5c1.3 1.8 2.8-.4 1.1-1q0 .8-1 1"/><path d="M2206.8 372.2c.6-.8 1.2.7 1.8.8-2.4-1-1.3-4.6.6-5.6 1.5-.9 3.4 0 5-.3q1 0 1.6-.3c1.1-.7 0-1.4.5-2.3 2.6 2 4.6 4.9 7 7q3.8 2.9 6.6 6.5c1.4 1.8 1.5 3.7 2.3 5.8.2.5 1.9 4.6 2.4 2.7.8 1 1.5 3.9 1.1 5.2l-.7-.7c.5 1.7.9 3.4-1 4.3-.1-.9-2.3-.6-3.3-1.1.7 1.3-.7.3-.9 1.5 1-.6 1.1.8.9 1.5-.7-1.7-3-.1-3.4-2-.1 1.5-2 .4-2.6 1.6q.5.5 1.2.8c.7.4-.7.4-.2 1.4-.8-.6-1-1.6-1.7-2.2l-.6 1c.5.6 1.3 1 1.6 1.6h-1.1l.7.5c-.5 1.1-1.5-.2-2-.6 1 .2 1.1-1.6-.1-1.4-1 0-1.3 2.1-1.4 3q-.8-.5-1.4-1.2 0 1-.6 2-1.4-.4-.8-1.8c-.8 0-2.8-.6-2.1-1.7q.3.9 1.1 1-.8-1.2.5-.6-.7-.5-1.5-.7.8 0 1.4-.5l-.7-.7c-.2 2-2.4-1.7-3-2q.8.2 1.5.1c-1.2-.7-1.4-3.5 0-4l-1.5-.3q.2-.7.9-1c.4-.3.3-1.2.6-1.6q-.7.3-1.5 0 .4-.8 1.2-1.3c-1.4 1.6-4.3-2.1-3.4-3.6-1 .5-.9-.3-1-1s-1.6-1.7-1.6-.3c-.4-.9-1.6-.8-1.9-1.8q1.2 0 .5-1 .7 1.5.4 0 .9-.2 1.2.7.7-.8-.2-1.4c1.2.9 2.7.7 3.2 2.3q-.3-1 .6-1.4c-.7.1-1.7-.4-1.4-1.3-1 .7-2.7-1.8-.8-1.6a6 6 0 0 1-2.4-1.7l-.5-1.1c-.3-.5-1-.5-1.2-1.2"/></g></svg>
