<svg xmlns="http://www.w3.org/2000/svg" viewBox="1644.67 436.87 16.47 16.47"><g id="kw" fill="#2B1D24">
		
		<g id="kw-">
			<path id="path5440" d="m 1657.11,439.18 c 0.14,0.313 -1.7,3.358 0.58,3.132 1.97,-0.196 0,-2.463 -0.58,-3.132"></path>
			<path id="path5486" d="m 1645.81,446.74 c 3.2,-1.167 1.71,-7.661 5.06,-8.277 1.29,-0.238 3.13,-0.358 4.83,1.042 0.44,0.362 1.56,2.708 1.12,3.276 -0.95,-1.335 -2.31,0.929 -2.81,1.584 1.46,-0.194 3.09,0.374 3.45,1.954 0.44,1.921 1.91,3.633 2.55,5.573 -1.24,-0.711 -4.32,0.486 -5.53,-0.366 -0.95,-0.665 -1.07,-2.105 -1.44,-3.1 -0.51,-1.33 -5.29,-0.973 -7.23,-1.686"></path>
		</g>
		
	</g></svg>
