<svg xmlns="http://www.w3.org/2000/svg" viewBox="1600.2 127.8 314.6 314.6"><g fill="#2b1d24"><path d="M1717 301.8c1.8.8 2.4-.5 2-.5.4.5 2-.3 2.5.3s-.7.5-.1 1.2c.5.8-1.4.3-1 1 .5.7-3.7-.5-3.3 0l-1.5-.2zm-4.3 1.4c-.8-.5-.2-.7-1-1.1-.6-.4-2 .8-2.5.5s0 1.4-.3 1.3l-.3-.1c.4.4.8 1-.5 1.4l-16.2 4.7 6.9 31.6-2.5-.1c-1.2-.1-2.6-1-3.4-1.7-1.7-2-3.1-4.4-5.6-5.5a12 12 0 0 0-7.3-1.2c-2.9.3-5.1 2.2-6.8 4.6.2-1.3-1.1-2.4-.6-3.7s1.6-3.2 0-4.3l.8.5c1.1-1.5-3.2-1.8-4-2.1-1-.4-1.6.5-2.4-.3a7 7 0 0 1-1.6-2.2c-.4-1.2-2.5 1.3-2.8-1.5q0-1.4-1.1-2-1.4-1.6-2.3-3.4-1.3-2.3-3.8-2.7c-1-.2-3.2-1.2-1.9-2.6 1-.9 3-.4 4 0 .7.1 1.2.7 1.9.9 1 .2 2-.3 3-.1-.8-1.4-3-1.5-4-2.5s.8-4 1.9-4.4l1.8-1 1 .5c.6.2 1.5-.2 2.1-.2 2.2-.2 5.4 1.6 7.3.5-1-.5-3.1-.8-3.6-2-.8-1.8 2-4 1.4-6a14 14 0 0 0-2.9-5.1c-.5-.7-2.7-1-3.4-.3-3 3-8.8-4.7-11-.1-.2.2-1.6.3-1.8.3-1-.1-1.1 1-1.8 1.5q-1 .7-2 1.1l-1.4.4c-.8 0-2-1-1 .4l-1.5-.8.9 1q-.6-.3-.7.1c-.2 1-1.2 0-.3 1-1-.7-5.3-2.2-5.5-2.9-.3-1.6 5.5 1.1 2-2.4-2.6-2.6-4.2-5.8-7.2-6.8q-1.8-.6-3.7-.3c-.6.4-.7.9-1 .6-1-.5-1.2-1.6-1.8-2.4l.7-.5c-2-2.5-1-1.2-2.2-2a4 4 0 0 1-2.3-1c-.5-.3-.6-1.5-.5-1.6v-.4q.3-1.8 1.6-2.8 1-.6.5-1.5c-.8-1.3-2-1.3-2.1-3.2-.1-2.1.5-2.3 1.9-3.6 1-.9-.3-2.5.6-3.4 2.2-2.1 5.8 4.2 7.6 4.5 1 .1 4-.9 2.4-2.2-1.2-1-1-3.9-2.6-4.4 2 .3 2.5-.2 4.3-1.4 1.5-1-1-2 .7-2.5 3.1 0 1.5-1 5-1.5 1.4-.4.3-3.6 2.6-2.5l-.5-1.4c.6.1 4 .6 4 1.2.8 2.4 1.9-.2 2.7 1.2.5-.6.2-1.3 1-1.7q1.4-.3 2.6-1c1.4 4.5 5.6 1.2 8.4 3 1 1 .3 1.5 4.1 2.4 1.4 1.3 2.4 1.7 3.7 2.5-.4.6.3 3.3 1 2.7 1.5-1.5-1.1-3.2-1.1-4 .9-.7 2.7.5 3.4 1.1 1.2 1.2 3 1 4 2 1.2 1 2 .5 3-.5.4-.3.3-1 .7-1.3q1.1-.5 1.3-1.7a3 3 0 0 1 1.6.6c0-1 3-1.3 3.5-.6q.6.8 1.5 1.3c.9.6 1.4-.5 2.2 0 0-2.4-.2-1.8 1.8-1.5 1 .2 1.2-1.2 2.4-.5.8.5 1.3 1.6 2 2.4 1.6 2.2 7.6 1 6.4 2.8 1-.1 1.7 0 2.2-.9.2-.4-.2-1.8.5-2 .8-.4 1.4 1 2 1.2.8.5 2.2.5 3 .4 1.1 0 4-.3 4.2-1.7.2-.8-.8-3.1.5-3.3-1-.3-1.7-1.3-2.9-1.4-1-.1-1.2.1-2-.6s-1.3-1-2.4-1c-1.4 0-1.3-.6-2.4-1.2-.8-.5-1.4-.4-2.3-.7-.8-.4-1-1.2 0-1.1 4.4-2.8 1.8 0 5.2-2.9-.5-.3-3-2.5-3-2.9-.2-.9 2-1.4 1-2.4 3.3-.4 1.4-.5 4.9.2q.8 0 2.1-.5c.9-.4-1-1-1.6-1.2l-4.8-1.1c-2-.8 1.7-1.7 1.8-1.7q-.7-.9-1.6-.4c-1 .2-2-.4-2.9-.9 2.5-.2.5-1.8-.3-2.4h1.5c-.4-1.4 3.3-.4 3.8-.2 1.1.5 1.3-.3 2.4-.5 1.2-.2 1.5 1 2.5 1-.3-1.9 1.6-1.5 3-1.5l.4-.7c1.7-.6 3.2-.3 4.8-.4.3-.1-.2-.9 1.1-.8.8 0 2-.4 3-.2.8.1 1.4-.6 2.1-.1 1 .7 1 0 1-.7 0-2.4 6.4-1.7 7.7-2 3.5-1.3 6.2-.7 10.4-3-.7-.2-1.2-.2-.6-.6 1.5-1.3 2.3-.4 2.1-1.9q.9.3 1.8.1l-.6-.7c.8 0 2.1.9 2.7.4l2.2.3c.5.2 4.3 2.7 5.2 1s3.2.1 3.7.8q.7.8 1 1.8c.5 1 1.7 1.4 2.5 1.9-1 1 1.6 3.1-.5 3.3 1.4 1.7 2.1.3 3.7 1.2q.7.4 1.7-.7c.5-.6 1.9.2 2.4.1q-.8-.5-.7-1.5c1 .5 1.9 2 3.1 2-1 .8-.1 1 .3 2q.7-.7 1.6-.7-.5-.8-1.5-.5c1-3 6 3.2 7.3-.3q.9.7 1 1.8c-1.4-.2-2.3.8-2.3 1.5 0 1 2 1.3 1.9 2 1-1 1.6-1.7 3-1.7 1 .8 1.1.1 2 .5.5.3.7.9 1.2.9-.1-2.2 1-2.3 2.6-2.9.7-.2 2.8-1 1.9-2.2q1.3 0 2.5-.5c.9-.2 1.5-1 2.2-1.5l1.4-.2 2.1-.8-.6.8q1 .3.5 1.4c-.3 1-1.2.2-1.9.6 3 2.3 6.7 3.6 10 5.5s6 4.4 8.9 7q4.8 4.1 9.4 8.7c2 1.8 4.6 6 7.2 6.5-1.3-1.2 2.1-.7 1.3-2.6-.7-1.6.3-1.2.7-1.6 2-.3 1.4.4 2.6.6 1 .1.7 0 1 .3.7.9-.6 2.2 1.4 1.7 1.3-.3 1.7 1.7 2.9 2q.9 0 1.8-.5c.9-.3 2 .8 2.5.4 1-.9 1 .5 3-1.3l1.1-.3c.6 0 .5-.6 1-.7 4-.6 7.8 3.3 9.4 5.5 1 1.3 3.3 1.1 4.8 1.6 1.7.5 1.6 1.7 2.8 2.9q.8.6 1.4 1.4c1.6.7 4.8.2 5.7 1 1.5.8 1.8-.8 2-1 .3-.5 2-2 2.2-.6 0 .7-.5 1.5.8 1.5q1 .2 1.8 1.4.8 1 2 1.1c.6.2 1.2 1 1.4 1.2-1 0-4.2-.5-3.1 1.8q1.1 2.3-1.2 3.6c-1.3.7-3.5-.4-3.8 1.6-.6 3.6 1.8 4.8 3 7.8 1.3 2.6-1.7 2.7-2.5 3.4-1 .7-1.7 1.2-2.7 0-.9-.9-2.6-.4-3.8-.3-3.1.3-4.6-1-6.7-1.7-2.3-.8-.6 4-1.7 5.6 0 1.8.8 4.3 0 7.4-.3 2.4 3.7.3 3.3 3.8-.2 1.2-1.2.5-1.7.2-1-.5-1.7.3-2.8.1-.8-.1-2.4-1.5-3.2-1.1-1 .5-2.5.5-3.6 1-1.4.4-5.9.9-6.2 2.1-.3 1.8 4.4.4 4.3 2.2-.3 3 2.3 6.3 3.2 7.3.8 1 1.8 2.2 2.1 3.4.4 1.5 2 1.9 1.1 2.7-.9-.6-1.7.4-2.1 1l1.5 1c-3.3.5-1.8 2.4-1.8 2.6.4 1 1.7 2.7 1.6 4-1-1.5-3.7-3.2-4.8-3-2.1.4-2.4-1.4-4-2.1-1.4-.7-4.4-1.8-6-1.6-3.3.3-6.5-.6-7.3-.2s-1.3-.3-2-.4c-1-.2-2.5-.1-3.3.4-1.2.6-5.7-.7-5.6 0 .3 3.5-10-2.5-12-3 .4.6-2.6 1.3-3 1.5-1.5 1-.6 4.5.4 5.5-.8.3-1.8-.5-2.5-.8-3.2-.4-2-.1-3.7-1.1-2-.7-4.5-1.5-6.7-1.4-2.2 1-2.3.4-3.5.9-.2 0-.7.9-.9 1.8-.4 1.6-1.2 1.5 1 2.1-1.5-.1-2.4 1.3-2.8 1.5-1 .5-1.6-.7-2.3.7-1.5 3-2.7 2.2-4.8 3.6l-1.9 1.5c-.7.5.2 1.6-.4 1.9-1 .4-1.6 1.6-2.1 2.3-.6 1 .6 1.6.7 2.7-1.3-.3-4.9-.3-4.4-2.4.2-1.3-1-2.6-2.3-2.6-2.4-.1-7 1.9-8.5-.6q-1.3-2.3-2.1-4.8c-.9-2.1-2-.8-3.4-1.8-2-1.4-1.7-5.9-2-8-2.4.6-2.5-.2-4.1-1.9-2-2-3.3-2-4.2-3.5-2.6-2.4-2.7-.1-4.9.3-3.4.6-6.4-.4-9.6-.5q-2.3.1-4.6 1c-2.8.6-4.3-1.4-5.7-2.7l-5-4.8c-2-1.7-1.1-1.2-3.4-2.4l-7.7-3.8.5-2.2c-.8-.7-1.7-2.2-3.2-1.8.6.6 1 .7 2 2l-1 1.5-5-2.8c.1-.4-1.1-2.2.4-1.5-.7-.5.1 0 .4-.7zm2.4-2.2c.1-1.3-1.8-2.4-1.5-2.2 3.3.1 2.4 1.8 2.2 2zm102-6.7c.3.6 2.5 1 3.4.9s2.2-1.2 3.2-.8c.6.3 1.3.1 1.9.3.7.2.8.9 1.4 1.1s1-.2 1.6 0c.6 0 3.1 1.4 1.6 0 .6.3 1.4 0 2 .5.5.7 1.3-.2 2-.4q1.6-.3 3.2.1c1.2.3 2.2 1 3.3 1.2v-1.5c.6.2.6-.2 1.1-.5.7-.4 1.7.5 2.3.6a2 2 0 0 1-1.2-1.1c.7 0 3.9-.6 3.4 1.2q-.2.4-.5.4c-.5.2 0 .8-.1 1.2-.4 1.3-4.6 0-3.9 1.4-.6-.8-1.5-.2-2.3-.2-1 0-1.6-.8-2.5-.8-1.1 0-2.1-1-3.2-.8a14 14 0 0 1-4 0c-1-.1-9.4.5-8.4-1.4-1.7 0 .3 1-.8 1.4-.8.3-1.2 1-1.9.3q-.2.8-.9 1c-.4.2-.2 1.5-.3 1.8-.2 1.7-3.3.3-2.7 1.9l.3 1.3.1 1.4-.7.6c-.2 1.6 2.3 2.9 1.6 4.5-.8.4-.8-.4-1-1-.3-1-1.7-1.5-2.5-2.1-.6-.5-2.5-1.5-2.8-2-.4-.7.6-1.4-.2-2 1.1.4 1.2-1.4.7-2-1.2-1.3 1.1-1.2 1.9-1.3-1.7-.8 1-2.7 1.9-3 1-.3 0-1.2.7-1.7s1.6.2 2.2-.5m-97.5.5c1.5-.2 1.5.3 1.8 1l.2.6q.4 1 1.6 1c.1 0 2.5-.2 1.3-1.1q.8-.6 1-.5c.2 0-1 1.7-.8 1.6 1-.3 1 1.3.3 1.7s-1.6 1.4-2.5 1q.3-.4-.1-1c-.7-.9-.3-1-1.3-.6s-1.3-.5-2-.6-1.2.3-1.9 0c-.8-.3-1.3-1.4-.4-2 1.5-1 1.7.4 2.3 1.3q.2-.5.1-1c.8.3 1.3.5 1.8-.3q-.8-.3-1.5-1.1"/><path d="M1718.2 303.3c.7.5 3-.3 1.8-.6 1-.3 1.2-.7-.4-1l-2.7 1.1q-1.4.8 1.3.5"/></g></svg>
