<svg xmlns="http://www.w3.org/2000/svg" viewBox="1600.17 127.75 314.55 314.55"><g id="kz" fill="#2B1D24">
		
		<path id="path3898" d="m 1717.01,301.772 c 1.81,0.823 2.42,-0.451 1.95,-0.491 0.41,0.555 2.07,-0.322 2.57,0.362 0.49,0.684 -0.68,0.466 -0.16,1.191 0.52,0.725 -1.4,0.257 -0.91,0.937 0.49,0.68 -3.72,-0.446 -3.32,0.101 l -1.57,-0.303 z m -4.31,1.394 c -0.79,-0.453 -0.23,-0.674 -0.92,-1.07 -0.69,-0.397 -2.07,0.766 -2.61,0.465 -0.53,-0.3 0,1.477 -0.3,1.311 -0.22,-0.116 -0.19,-0.04 -0.3,-0.101 0.41,0.382 0.83,1.053 -0.51,1.411 l -16.12,4.737 6.85,31.549 c -0.95,0.04 -1.57,-0.05 -2.52,-0.101 -1.19,-0.07 -2.62,-0.909 -3.33,-1.714 -1.74,-1.996 -3.17,-4.314 -5.64,-5.443 -2.7,-1.231 -4.4,-1.505 -7.26,-1.209 -2.92,0.302 -5.17,2.196 -6.85,4.636 0.17,-1.336 -1.13,-2.397 -0.61,-3.729 0.55,-1.388 1.59,-3.167 0.11,-4.334 0.22,0.191 0.44,0.359 0.7,0.504 1.11,-1.45 -3.19,-1.782 -4.03,-2.117 -0.88,-0.349 -1.52,0.495 -2.32,-0.302 -0.62,-0.62 -1.28,-1.291 -1.61,-2.117 -0.48,-1.193 -2.57,1.298 -2.82,-1.512 -0.1,-0.96 -0.34,-1.515 -1.11,-2.116 -1.07,-0.824 -1.61,-2.215 -2.32,-3.327 -1.02,-1.604 -1.96,-2.376 -3.83,-2.721 -1.01,-0.184 -3.18,-1.152 -1.82,-2.52 0.93,-0.927 2.95,-0.419 4.04,-0.101 0.66,0.194 1.16,0.745 1.81,0.908 0.93,0.231 2.03,-0.27 3.02,-0.101 -0.76,-1.319 -2.95,-1.405 -4.03,-2.419 -1.01,-0.949 0.84,-3.975 1.92,-4.435 0.31,-0.134 1.65,-0.899 1.81,-0.907 0.37,0.09 0.68,0.215 1.01,0.403 0.61,0.239 1.49,-0.148 2.12,-0.202 2.17,-0.185 5.34,1.634 7.25,0.504 -1.07,-0.538 -3.11,-0.753 -3.62,-2.016 -0.72,-1.755 1.99,-3.917 1.41,-6.047 -0.55,-1.979 -1.66,-3.603 -2.83,-5.04 -0.56,-0.694 -2.75,-0.951 -3.42,-0.302 -3.07,2.949 -8.78,-4.728 -11.09,-0.101 -0.1,0.188 -1.57,0.319 -1.71,0.302 -1.01,-0.122 -1.13,1 -1.82,1.512 -0.62,0.46 -1.33,0.765 -2.01,1.109 -0.45,0.217 -0.92,0.371 -1.41,0.403 -0.8,0.04 -1.9,-1.062 -1.01,0.403 -0.48,-0.315 -0.98,-0.592 -1.51,-0.806 0.28,0.289 0.61,0.62 0.9,0.907 -0.34,-0.106 -0.57,-0.1 -0.7,0.202 -0.19,1.003 -1.17,-0.105 -0.31,0.907 -0.91,-0.632 -5.3,-2.15 -5.44,-2.822 -0.33,-1.611 5.45,1.132 1.92,-2.419 -2.57,-2.576 -4.12,-5.83 -7.16,-6.754 -1.09,-0.332 -2.5,-0.678 -3.63,-0.302 -0.6,0.374 -0.73,0.832 -1.11,0.605 -0.86,-0.521 -1.14,-1.649 -1.71,-2.419 l 0.71,-0.504 c -2.09,-2.557 -1.03,-1.22 -2.22,-2.016 -0.84,0 -1.88,-0.565 -2.32,-0.907 -0.45,-0.345 -0.6,-1.593 -0.5,-1.714 v -0.403 c 0.33,-1.101 0.58,-2.154 1.61,-2.822 0.52,-0.339 0.87,-0.824 0.5,-1.411 -0.83,-1.345 -2.07,-1.326 -2.11,-3.226 -0.1,-2.134 0.55,-2.363 1.91,-3.628 0.91,-0.844 -0.32,-2.534 0.61,-3.427 2.19,-2.105 5.79,4.285 7.55,4.536 1.09,0.153 3.95,-0.896 2.42,-2.218 -1.16,-1.012 -1.04,-3.836 -2.62,-4.334 1.97,0.24 2.52,-0.212 4.34,-1.411 1.52,-1.002 -1.06,-1.992 0.7,-2.52 3.1,0.04 1.5,-1.024 4.94,-1.512 1.5,-0.379 0.39,-3.574 2.62,-2.52 -0.19,-0.479 -0.31,-0.932 -0.5,-1.411 0.68,0.145 3.97,0.66 4.13,1.21 0.69,2.421 1.76,-0.208 2.62,1.209 0.52,-0.636 0.15,-1.267 0.91,-1.713 1.07,-0.161 1.8,-0.6 2.72,-0.907 1.37,4.405 5.58,1.148 8.37,3.023 1.08,0.925 0.33,1.396 4.13,2.319 1.34,1.337 2.34,1.714 3.63,2.52 -0.36,0.61 0.34,3.246 1.01,2.62 1.49,-1.415 -1.13,-3.107 -1.11,-4.032 0.93,-0.646 2.75,0.542 3.42,1.21 1.18,1.17 2.99,0.981 4.04,1.915 1.16,1.034 1.91,0.595 3.02,-0.403 0.37,-0.336 0.2,-1.026 0.6,-1.31 0.62,-0.436 1.38,-0.794 1.31,-1.714 0.57,0.03 1.17,0.256 1.62,0.605 0,-1.063 3.06,-1.371 3.52,-0.605 0.3,0.479 1.05,1.016 1.52,1.31 0.83,0.527 1.38,-0.48 2.21,-0.1 0,-2.311 -0.26,-1.712 1.72,-1.412 1.05,0.161 1.26,-1.187 2.42,-0.503 0.83,0.49 1.36,1.558 2.01,2.419 1.64,2.165 7.57,0.899 6.45,2.721 0.88,-0.06 1.67,0.06 2.12,-0.806 0.25,-0.489 -0.16,-1.842 0.5,-2.117 0.88,-0.362 1.4,0.981 2.02,1.31 0.81,0.426 2.22,0.423 3.12,0.403 1.05,-0.02 3.9,-0.39 4.14,-1.713 0.14,-0.841 -0.87,-3.165 0.5,-3.326 -1.01,-0.333 -1.78,-1.274 -2.92,-1.411 -0.97,-0.116 -1.22,0.108 -2.02,-0.605 -0.77,-0.684 -1.32,-0.901 -2.42,-0.907 -1.36,0 -1.31,-0.676 -2.42,-1.311 -0.74,-0.424 -1.34,-0.357 -2.21,-0.705 -0.8,-0.315 -1,-1.203 0,-1.109 4.34,-2.754 1.8,-0.04 5.14,-2.822 -0.44,-0.283 -2.97,-2.542 -3.03,-2.923 -0.14,-0.87 2.02,-1.366 1.11,-2.419 3.24,-0.393 1.37,-0.512 4.84,0.202 0.52,0.106 1.27,-0.148 2.12,-0.504 0.88,-0.376 -0.97,-1.044 -1.62,-1.21 -1.58,-0.409 -3.3,-0.555 -4.83,-1.109 -2.04,-0.735 1.75,-1.632 1.81,-1.713 -0.46,-0.687 -0.92,-0.57 -1.61,-0.403 -1.03,0.249 -1.96,-0.336 -2.83,-0.807 2.45,-0.202 0.41,-1.841 -0.3,-2.419 0.49,-0.09 0.94,-0.142 1.41,0 -0.39,-1.425 3.3,-0.412 3.83,-0.201 1.16,0.455 1.34,-0.311 2.42,-0.504 1.21,-0.215 1.47,0.934 2.52,1.008 -0.3,-1.909 1.58,-1.512 3.03,-1.512 0.1,-0.24 0.2,-0.465 0.3,-0.706 1.71,-0.652 3.23,-0.295 4.84,-0.403 0.27,-0.154 -0.19,-0.879 1.11,-0.806 0.79,0.04 1.98,-0.399 3.02,-0.202 0.76,0.143 1.39,-0.613 2.12,-0.101 0.98,0.693 0.91,0.07 0.9,-0.705 0,-2.349 6.41,-1.692 7.76,-2.016 3.47,-1.304 6.19,-0.694 10.39,-3.024 -0.65,-0.117 -1.23,-0.108 -0.61,-0.605 1.56,-1.251 2.33,-0.338 2.12,-1.814 0.59,0.168 1.2,0.173 1.81,0.101 -0.21,-0.244 -0.38,-0.469 -0.6,-0.706 0.76,0.05 2.09,0.84 2.72,0.403 0.78,0.1 1.29,0.126 2.12,0.303 0.57,0.124 4.3,2.615 5.24,1.008 0.99,-1.705 3.21,0.09 3.73,0.705 0.55,0.659 0.66,1.049 1,1.815 0.45,0.998 1.63,1.444 2.52,1.915 -0.95,0.992 1.56,3.168 -0.5,3.326 1.35,1.666 2.1,0.326 3.63,1.209 0.51,0.294 1.09,0 1.71,-0.705 0.52,-0.599 1.92,0.173 2.42,0.101 -0.55,-0.276 -0.85,-0.895 -0.7,-1.512 1.05,0.468 1.9,1.942 3.12,2.016 -1.01,0.75 -0.14,0.955 0.3,1.915 0.41,-0.441 1.01,-0.615 1.61,-0.605 -0.32,-0.498 -0.93,-0.771 -1.51,-0.504 1.06,-2.982 5.96,3.212 7.26,-0.302 0.53,0.42 1.01,1.11 1.01,1.814 -1.36,-0.19 -2.32,0.759 -2.32,1.512 0,0.957 1.95,1.289 1.91,1.915 0.97,-0.895 1.58,-1.706 3.03,-1.613 0.95,0.797 1.12,0.08 1.91,0.403 0.55,0.328 0.8,0.904 1.31,0.907 -0.13,-2.111 1,-2.28 2.52,-2.822 0.74,-0.261 2.86,-1.123 1.92,-2.217 0.86,-0.07 1.72,-0.198 2.52,-0.504 0.91,-0.223 1.5,-1.032 2.22,-1.512 0.47,-0.171 0.89,0 1.41,-0.202 0.93,-0.356 1.19,-0.463 2.11,-0.806 -0.2,0.252 -0.43,0.53 -0.6,0.806 0.67,0.174 0.78,0.744 0.5,1.411 -0.38,0.947 -1.22,0.207 -1.91,0.605 3.04,2.306 6.68,3.586 9.98,5.443 3.3,1.862 6.02,4.48 8.87,6.955 3.25,2.826 6.34,5.806 9.47,8.769 1.88,1.78 4.52,5.975 7.16,6.551 -1.29,-1.247 2.13,-0.765 1.31,-2.62 -0.72,-1.623 0.24,-1.19 0.7,-1.613 1.97,-0.334 1.38,0.415 2.62,0.605 0.9,0.135 0.65,0.01 1.01,0.302 0.62,0.868 -0.69,2.155 1.31,1.714 1.37,-0.302 1.75,1.687 2.93,1.915 0.61,0.12 1.25,-0.172 1.81,-0.403 0.91,-0.381 2.1,0.779 2.52,0.403 1.04,-0.925 1.07,0.445 3.02,-1.311 0.27,-0.236 0.8,-0.24 1.11,-0.302 0.56,-0.111 0.5,-0.63 1.01,-0.706 3.95,-0.587 7.75,3.297 9.37,5.443 0.98,1.291 3.27,1.158 4.74,1.613 1.72,0.529 1.6,1.755 2.82,2.923 0.53,0.504 0.98,0.816 1.41,1.411 1.61,0.735 4.8,0.177 5.75,0.907 1.5,0.885 1.79,-0.685 2.02,-1.008 0.27,-0.404 1.89,-1.901 2.11,-0.504 0.11,0.709 -0.46,1.518 0.81,1.512 0.69,0 1.22,0.734 1.81,1.411 0.58,0.663 1.23,0.988 1.92,1.109 0.7,0.123 1.26,0.875 1.51,1.21 -1.07,-0.02 -4.23,-0.53 -3.13,1.713 0.82,1.646 0.35,2.748 -1.2,3.629 -1.33,0.75 -3.52,-0.354 -3.83,1.612 -0.58,3.637 1.81,4.815 3.12,7.761 1.17,2.633 -1.76,2.776 -2.62,3.427 -0.93,0.699 -1.63,1.167 -2.62,0.101 -0.92,-0.992 -2.67,-0.519 -3.83,-0.403 -3.15,0.315 -4.57,-1 -6.75,-1.713 -2.3,-0.778 -0.53,3.935 -1.62,5.644 -0.12,1.78 0.75,4.235 -0.1,7.358 -0.29,2.421 3.77,0.314 3.33,3.83 -0.15,1.178 -1.14,0.483 -1.72,0.202 -0.96,-0.47 -1.7,0.282 -2.72,0.1 -0.81,-0.147 -2.45,-1.467 -3.22,-1.108 -1.07,0.499 -2.53,0.522 -3.63,0.907 -1.39,0.484 -5.88,0.954 -6.15,2.217 -0.38,1.778 4.4,0.335 4.23,2.218 -0.26,2.908 2.38,6.242 3.23,7.257 0.82,0.975 1.81,2.214 2.12,3.427 0.35,1.431 1.99,1.826 1.1,2.721 -0.89,-0.637 -1.67,0.351 -2.11,1.008 0.54,0.224 1.09,0.506 1.51,0.907 -3.36,0.58 -1.79,2.473 -1.81,2.621 0.4,0.954 1.66,2.711 1.61,4.032 -0.98,-1.541 -3.72,-3.243 -4.84,-3.024 -2.07,0.405 -2.37,-1.349 -4.03,-2.117 -1.39,-0.644 -4.34,-1.747 -5.85,-1.613 -3.39,0.303 -6.55,-0.562 -7.36,-0.201 -0.8,0.357 -1.31,-0.268 -2.11,-0.403 -0.95,-0.159 -2.42,-0.06 -3.23,0.403 -1.21,0.69 -5.72,-0.676 -5.64,0 0.39,3.509 -9.93,-2.417 -11.9,-3.024 0.36,0.631 -2.64,1.403 -3.02,1.613 -1.58,0.868 -0.64,4.458 0.4,5.443 -0.82,0.276 -1.8,-0.521 -2.52,-0.807 -3.2,-0.4 -2.08,-0.1 -3.73,-1.108 -2.03,-0.665 -4.49,-1.489 -6.65,-1.412 -2.28,1.025 -2.35,0.484 -3.53,0.908 -0.24,0 -0.69,0.916 -0.9,1.814 -0.39,1.583 -1.2,1.511 1.01,2.117 -1.53,-0.148 -2.42,1.275 -2.83,1.511 -0.89,0.522 -1.61,-0.698 -2.31,0.706 -1.46,2.912 -2.67,2.186 -4.74,3.629 -0.63,0.439 -1.34,0.909 -1.92,1.411 -0.67,0.58 0.17,1.647 -0.4,1.915 -0.98,0.459 -1.66,1.585 -2.12,2.318 -0.64,1.013 0.58,1.63 0.71,2.721 -1.33,-0.361 -4.86,-0.286 -4.44,-2.419 0.25,-1.255 -0.9,-2.564 -2.31,-2.62 -2.32,-0.09 -7.02,1.918 -8.47,-0.605 -0.89,-1.532 -1.49,-3.1 -2.12,-4.737 -0.82,-2.139 -1.97,-0.872 -3.32,-1.815 -2.07,-1.436 -1.71,-5.872 -2.02,-8.063 -2.42,0.652 -2.57,-0.142 -4.13,-1.814 -1.99,-2.133 -3.28,-1.973 -4.24,-3.528 -2.6,-2.368 -2.69,-0.135 -4.83,0.302 -3.46,0.545 -6.41,-0.436 -9.58,-0.504 -1.69,-0.04 -3.01,0.488 -4.64,0.907 -2.76,0.716 -4.31,-1.278 -5.74,-2.62 -1.7,-1.596 -3.33,-3.34 -5.04,-4.838 -1.94,-1.698 -1.04,-1.159 -3.33,-2.319 l -7.66,-3.805 0.44,-2.22 c -0.82,-0.75 -1.71,-2.262 -3.14,-1.794 0.6,0.59 0.96,0.655 2.01,1.906 l -0.95,1.545 -5.09,-2.809 c 0.11,-0.364 -1.12,-2.188 0.38,-1.5 -0.65,-0.436 0.12,0.105 0.42,-0.654 z m 2.42,-2.117 c 0.1,-1.37 -1.86,-2.414 -1.51,-2.217 3.27,0.08 2.4,1.791 2.21,2.016 z m 101.9,-6.753 c 0.34,0.59 2.59,1.019 3.43,0.907 0.95,-0.126 2.26,-1.247 3.22,-0.806 0.62,0.279 1.29,0.131 1.92,0.302 0.67,0.183 0.8,0.872 1.41,1.109 0.64,0.251 1,-0.18 1.61,-0.101 0.55,0.07 3.11,1.54 1.62,0 0.59,0.441 1.38,0 1.91,0.605 0.6,0.675 1.31,-0.228 2.12,-0.403 1.06,-0.232 2.06,-0.182 3.12,0.101 1.2,0.321 2.19,0.904 3.33,1.209 0,-0.504 -0.1,-1.008 -0.1,-1.512 0.66,0.168 0.73,-0.223 1.21,-0.504 0.65,-0.388 1.69,0.48 2.31,0.605 -0.52,-0.201 -1,-0.582 -1.2,-1.109 0.71,-0.04 3.84,-0.567 3.42,1.21 0,0.241 -0.43,0.307 -0.6,0.403 -0.42,0.236 0,0.831 -0.1,1.21 -0.37,1.229 -4.51,0.06 -3.83,1.411 -0.63,-0.856 -1.51,-0.202 -2.32,-0.202 -0.93,0 -1.58,-0.806 -2.52,-0.806 -1.13,0 -2.12,-0.946 -3.23,-0.806 -1.5,0.188 -2.5,0.199 -4.03,0 -0.91,-0.118 -9.32,0.524 -8.36,-1.412 -1.67,0.05 0.37,0.968 -0.81,1.412 -0.75,0.282 -1.15,0.998 -1.82,0.302 -0.14,0.56 -0.42,0.767 -0.9,1.008 -0.44,0.218 -0.24,1.435 -0.3,1.814 -0.27,1.68 -3.33,0.219 -2.73,1.814 0.19,0.486 0.22,0.77 0.31,1.311 0.1,0.485 0.12,0.918 0.1,1.411 -0.24,0.193 -0.47,0.415 -0.71,0.605 -0.17,1.575 2.32,2.869 1.61,4.535 -0.8,0.389 -0.85,-0.466 -1,-1.008 -0.3,-1.09 -1.73,-1.475 -2.52,-2.116 -0.59,-0.475 -2.5,-1.477 -2.83,-2.016 -0.39,-0.646 0.65,-1.424 -0.2,-2.016 1.16,0.411 1.24,-1.326 0.71,-1.915 -1.19,-1.313 1.15,-1.266 1.91,-1.31 -1.69,-0.796 1.07,-2.768 1.92,-3.024 0.99,-0.298 0,-1.17 0.7,-1.714 0.66,-0.545 1.56,0.225 2.22,-0.504 z m -97.47,0.504 c 1.5,-0.172 1.59,0.283 1.82,1.008 0.1,0.213 0.1,0.338 0.2,0.605 0.27,0.561 0.92,0.909 1.61,1.051 0.16,0.03 2.551,-0.231 1.34,-1.201 0.53,-0.434 0.88,-0.428 1.05,-0.445 0.18,-0.02 -1.02,1.651 -0.88,1.603 1.03,-0.337 1.07,1.312 0.31,1.713 -0.67,0.352 -1.59,1.4 -2.52,1.008 0.24,-0.377 0.18,-0.668 -0.1,-1.008 -0.67,-0.924 -0.31,-1.021 -1.31,-0.604 -0.85,0.35 -1.26,-0.533 -2.02,-0.605 -0.65,-0.06 -1.15,0.299 -1.81,0 -0.83,-0.372 -1.29,-1.394 -0.41,-2.016 1.47,-1.036 1.7,0.383 2.32,1.31 0.1,-0.356 0.13,-0.744 0.1,-1.108 0.79,0.384 1.238,0.601 1.778,-0.205 -0.58,-0.277 -1.088,-0.518 -1.478,-1.106 z"></path>
		<path id="path7142" d="m 1718.19,303.325 c 0.69,0.443 3.05,-0.304 1.8,-0.593 0.94,-0.354 1.16,-0.708 -0.43,-1.062 l -2.63,1.142 c -0.82,0.502 -0.64,0.736 1.26,0.513 z"></path>
	</g></svg>
