<svg xmlns="http://www.w3.org/2000/svg" viewBox="2041.32 497.96 86.03 86.03"><path id="la" d="m 2052.82,522.486 c 0.29,-1.167 -0.1,-2.838 1.01,-3.672 0.63,-0.478 2.34,0.06 2.45,-1.008 -1.48,0.878 -0.3,-1.761 -0.11,-2.24 0.31,-0.792 0.3,-1.223 1.16,-1.605 0.72,-0.322 2.12,-1.06 1.9,-2.059 0.99,0.694 0.68,3.819 2.53,2.925 1.25,-0.598 1.2,0.511 2.39,0.596 1.31,0.09 -0.13,-1.91 -0.17,-2.032 -0.3,-1.003 0.63,-1.385 0.25,-1.948 -0.78,-1.127 -0.92,-1.889 -1.5,-2.546 -0.8,-0.918 -0.93,-2.027 -1.09,-2.607 -0.21,-0.764 0.12,-2.699 1.28,-2.352 0.47,0.142 0.28,0.601 0.51,0.571 2.62,-0.341 1.04,-0.227 2.16,0.14 0.14,0.03 0.27,0.693 1.01,1.451 0.89,0.904 1.8,1.726 2.75,2.579 0.73,0.653 0.77,2.132 1.76,2.431 0.71,-0.716 0.15,-1.696 0.38,-1.289 0.49,1.003 0.9,0.584 1.28,1.554 0.23,0.608 -0.27,1.558 0.1,3.201 0.36,1.618 2.45,3.914 3.87,3.866 1.31,-0.04 1.77,0.535 3.03,1.308 0.62,-0.844 0.47,-1.67 1.54,-2.216 1.3,-0.663 2.22,0.08 3.31,0.908 0.62,0.468 1.64,0.927 1.75,1.78 0.12,0.88 -1.22,0.757 -1.41,1.472 0.67,0.272 2.08,0.08 2.3,0.963 0.22,0.846 0.6,0.831 1.08,0.909 2.7,0.437 1.59,2.691 0.29,3.024 1.48,0.424 -1.38,2.181 -2.44,2.021 -0.25,-0.04 -2.83,-0.827 -3.03,-0.293 -0.24,0.652 1.4,1.581 0.86,2.034 -0.51,0.425 -2,0.857 -0.54,1.589 1.02,0.512 0.66,0.126 1.7,0.755 1.05,0.63 3.24,2.362 4.12,2.979 0.7,0.487 4.83,0.932 3.94,1.759 -0.27,0.255 -0.65,0.573 0.46,2.188 0.52,0.753 1.44,1.613 2.05,1.661 0.75,0.06 1.22,1.327 1.48,1.862 0.59,1.225 1.38,2.13 2.31,3.101 0.54,0.558 3.04,2.725 3.54,2.864 0.97,0.272 1.99,2.566 2.16,2.793 0.67,0.912 0.5,2.289 1.03,3.057 0.18,0.263 0.67,1.251 1.02,1.306 0.43,0.07 0.8,-0.287 1.22,-0.05 0.84,0.489 0.46,0.929 1.54,1.201 0.41,0.103 1.78,1.886 3.42,2.432 -0.38,0.86 -1.62,1.154 -1.95,2.044 -0.35,0.967 2.27,2.117 2.8,2.72 0.94,1.072 1.91,1.488 1.4,3.086 -0.17,0.544 -0.94,0.99 -0.94,1.311 0,0.391 0.24,0.178 0.65,1.396 0.45,1.361 -1.43,3.135 -3.88,3.753 -1.97,0.498 -2.94,-1.536 -3.76,-1.678 -0.62,-0.107 -0.25,0.589 -0.66,0.762 -0.41,0.172 -1.32,-0.119 -1.31,0.324 0,0.61 -0.59,0.825 -1.12,0.557 -0.1,-0.04 -0.67,0.59 -0.49,0.899 0.49,0.825 1.8,1.774 0.84,2.754 -0.54,0.55 -1.68,0.26 -2.27,-0.61 -0.36,-0.532 -1.96,-0.913 -2.97,-0.851 -1.1,0.07 -2.33,-1.321 -1.41,-2.088 0.68,-0.571 1.79,-1.228 1.68,-2.29 -0.11,-0.987 0.27,-2.247 -0.1,-3.031 -0.19,-0.399 -0.82,-0.616 -0.78,-1.387 0,-0.584 0.5,-1.114 0.72,-1.621 -0.28,0.136 -0.53,0.12 -0.75,-0.05 -0.15,-0.808 1.73,-1.865 0.5,-3.106 -0.66,-0.672 -3.29,-1.468 -1.62,-2.606 -2.78,-1.089 -5.66,-2.972 -6.1,-6.262 -0.35,-2.555 0.57,-6.118 -2.05,-7.675 -2.68,-1.588 -3.53,-5.707 -6.63,-6.376 -0.4,-0.09 -5.6,-1.378 -4.01,0.586 -0.88,0.175 -0.98,2.436 -1.78,2.472 -0.22,0.01 -1.06,0.297 -1.63,0.744 -1.01,0.787 -1.62,-0.568 -1.95,-0.608 -1.58,-0.193 -2.11,-1.267 -3.07,-1.879 -1.05,-0.681 -1.28,2.101 -2.59,1.143 -0.1,1.979 -2.47,3.357 -3.62,4.728 -0.53,0.633 -1.28,0.283 -1.86,-0.316 -0.64,-0.667 -0.12,-1.896 0.16,-2.597 0.45,-1.093 0.59,-1.831 0.42,-3.017 -0.1,-0.708 -0.8,-1.924 -0.71,-2.542 0.18,-0.358 0.41,-0.685 0.68,-0.979 0.37,-0.613 0.1,-0.632 0,-1.254 -0.1,-1.362 0.54,-2.149 -0.14,-3.452 -0.97,-1.838 0,-4.632 -3.08,-3.778 -0.37,0 -0.65,0.144 -0.83,0.441 -0.3,0.698 -0.39,0.09 -0.98,0.21 -1.03,0.206 -1.73,-0.48 -2.24,-1.473 -0.72,-1.413 1.26,-2.823 0.43,-3.872 -0.34,-0.431 -1.36,-1.753 -1.79,-2.014 -0.67,-0.392 -0.95,0.618 -1.73,0.833 -0.1,-0.241 -0.1,-0.481 -0.15,-0.721" fill="#2B1D24">
		<!--Laos-->
	</path></svg>
