<svg xmlns="http://www.w3.org/2000/svg" viewBox="1896.89 610.94 39.15 39.15"><g id="lk" fill="#2B1D24">
		
		<path id="path6496" d="m 1907.74,619.83 c 0.22,0.51 1.04,0.828 1.44,1.151 -0.16,-0.684 -0.72,-1.183 -1.44,-1.151"></path>
		<path id="path6498" d="m 1908.82,632.79 c 0,3.21 1.21,16.343 7.12,14.41 2.69,-0.88 6.69,-2.723 8.12,-5.29 1.17,-2.117 1.7,-5.852 0.24,-7.969 0,0.377 -1.33,-2.188 -1.65,-2.52 1.86,1.327 -0.43,-1.459 -0.7,-1.906 -0.87,-1.416 -0.89,-3.043 -1.61,-4.502 -0.55,0.464 -1.15,0.303 -1.51,-0.288 1.78,0.141 -2.25,-4.864 -2.46,-5.573 -0.24,-0.764 -4.76,-5.995 -5.6,-5.227 0.93,0.219 1.45,1.111 2.09,1.728 -0.98,-0.57 -2.78,-3.051 -3.96,-1.512 0.54,0.812 1.54,0.888 2.23,1.512 0.12,-0.886 2.47,0.541 2.95,1.225 -0.43,-0.328 -2.81,-0.885 -3.46,-0.864 0.49,0.673 0,0.693 -0.32,1.161 -0.48,0.646 0.55,1.699 -0.1,2.742 -1.48,2.429 -1.21,6.716 -1.32,9.561 -1.15,-0.336 -0.62,-1.835 -0.65,-2.664 -1.12,1.733 0.39,4.174 0.57,5.976"></path>
		<path id="path6500" d="m 1908.75,614.72 c 0.13,0.483 0.1,0.689 0.72,0.576 -0.24,-0.192 -0.48,-0.384 -0.72,-0.576"></path>
	</g></svg>
