<svg xmlns="http://www.w3.org/2000/svg" viewBox="1896.9 610.9 39.1 39.1"><g fill="#2b1d24"><path d="M1907.7 619.8q.6.8 1.5 1.2-.3-1.1-1.5-1.2"/><path d="M1908.8 632.8c0 3.2 1.2 16.3 7.1 14.4 2.7-.9 6.7-2.7 8.2-5.3 1.1-2.1 1.7-5.8.2-8 0 .4-1.3-2.1-1.7-2.5 2 1.3-.4-1.4-.7-1.9-.8-1.4-.8-3-1.6-4.5q-.8.7-1.5-.3c1.8.2-2.2-4.8-2.4-5.5-.3-.8-4.8-6-5.6-5.3.9.2 1.4 1.1 2 1.8-1-.6-2.7-3.1-3.9-1.6.5.9 1.5 1 2.2 1.6.1-1 2.5.5 3 1.2a10 10 0 0 0-3.5-.9c.5.7 0 .7-.3 1.2-.5.6.5 1.7-.1 2.7-1.5 2.4-1.2 6.7-1.3 9.6-1.2-.4-.6-1.9-.7-2.7-1 1.7.4 4.2.6 6"/><path d="M1908.8 614.7q-.2.8.7.6z"/></g></svg>
