<svg xmlns="http://www.w3.org/2000/svg" viewBox="1207.81 621.81 41.74 41.74"><path id="lr" d="m 1213.09,638.622 c 1.04,-0.383 1.07,-2.029 1.81,-2.781 1.36,-1.378 3,-2.558 4.29,-4.006 0.84,-0.949 0.25,-2.216 0.91,-3.057 0.98,-1.244 1.6,-0.537 2.25,-2.377 0.27,-0.742 0,-0.852 0.18,-1.011 -1.36,-0.455 1.37,-0.429 2.06,-0.189 0.68,0.233 1.07,-0.546 1.71,-0.508 0.89,0.05 1.56,1.109 2.19,1.617 -0.42,0.538 -0.2,1.063 0,1.614 0.16,0.406 -0.1,1.354 0.35,0.907 0.48,2.114 0.25,4.012 -0.44,6.048 1.36,-0.507 2.73,-0.239 2.81,1.439 1.63,-0.653 2.31,-1.138 2.84,-2.827 0.15,-0.498 0.29,-1.47 0.96,-1.568 0.73,-0.109 1.39,1.464 1.65,2.031 0.93,2.046 0.93,3.147 0.59,5.342 -0.15,0.973 -0.76,1.811 -1.2,1.934 -0.58,0.205 -0.91,0.817 -1.01,0.899 0.1,0.237 0.48,0.643 1.64,0.67 -0.58,2.108 3.66,0.391 4.09,1.96 0.15,0.559 -0.14,1.332 1.02,2.097 0.92,0.603 1.83,1.375 2.17,2.332 0.78,2.221 0,3.484 -0.31,4.638 -0.7,2.575 -1.65,4.364 -0.48,6.793 -1.19,0.224 -2.13,-0.262 -3.09,-0.81 -1.27,-0.722 -2.81,-0.823 -3.96,-1.771 -2.1,-1.723 -4.83,-2.508 -6.78,-4.44 -2.17,-2.158 -3.9,-4.731 -6.11,-6.846 -0.7,-0.665 -5.83,-2.441 -4.62,-3.594 -0.93,0.09 -2.08,-1.345 -2.88,-1.728 -1.6,-0.768 -1.46,-1.659 -2.66,-2.808" fill="#2B1D24">
		
	</path></svg>
