<svg xmlns="http://www.w3.org/2000/svg" viewBox="1443.8 203.5 43 43"><path fill="#2b1d24" d="M1446.8 217.5c1 .2 1.3-.9 2-1.4s2-.7 2.9-.9q3.5-.6 7.1-.4c1.4.6 3 .1 4.3.5 1.5.1 4.6.8 6-.1 2-1.3 2 0 3.3 1 .7.6 1.7.5 2.6.6a5 5 0 0 1 3 1.6c.5.5 3.6 2.6 4.2 2.2-.4 2.1-.3 2.7 1.7 3.2-1.2.6-.3 1.6-2 1.3-1.3-.3-1.4 1-2.4 1.5-2.3 1.3-1 2.9-2.8 5 .5.1 1.4.2 1.6.9.1.8-1 1-1.5.8.6-1.5-1.7-1-1.8-.8-.6 1.4-2.3.4-3 1.8-.2.5-1.4.5-2 .8-.8.5-2.4 0-3.4 0-.5 0-2.6.4-2.8-.4a5 5 0 0 0-2.1-2.8c-1.3-3.4-.4-3.1.2-4.5 0-.2-1.9-1.8-2.2-1.8-.8 0-4.8.2-6-.8-1.4-1.1-3.4-1.5-3.7-.4 0-1-1.7-2.4-2.2-3.4-.7-1-.6-2.3-1-3.5"/></svg>
