<svg xmlns="http://www.w3.org/2000/svg" viewBox="1442.5 184.31 53.52 53.52"><path id="lv" d="m 1446.29,213.966 c 0.1,0.24 0.19,0.479 0.29,0.72 -0.1,-1.25 -0.39,-2.567 0.48,-3.628 0.38,-0.455 1.05,-0.777 1.21,-1.392 0.19,-0.772 0,-1.44 0.38,-2.202 0.79,-1.471 1.76,-2.147 3.34,-2.538 0.77,-0.188 2.82,-1.412 3.42,-0.681 0.95,1.16 1.99,1.665 3.07,2.659 1.23,1.129 1.73,2.626 3.46,3.177 1.35,0.435 2.68,-0.133 3.79,-0.919 1.6,-1.138 1.37,-2.502 0.69,-4.136 -0.27,-0.646 -0.55,-1.358 -0.4,-2.076 0.61,0.174 1.23,-0.27 1.71,-0.553 0.97,-0.562 2.84,-1.369 3.86,-0.723 0.67,0.428 1.97,0.305 2.85,0.794 1.32,0.729 2.43,0.93 3.6,1.987 0.95,0.864 1.84,1.379 3.05,0.761 1.36,-0.689 2.87,0.345 4.3,0.395 1,0.04 3.65,2.164 3.45,2.963 -0.12,0.439 -0.72,2.159 -1.07,2.511 2.14,-0.259 1.29,0.624 2.23,0.981 1.11,0.42 2.13,4.267 2.33,5.31 -0.44,0.198 -1.14,-0.503 -1.91,-0.108 -0.59,0.3 -1.07,1.049 -1.44,1.567 -0.22,0.292 -0.13,0.764 -0.49,0.961 -1.15,0.631 -2.59,-0.726 -3.88,-0.08 -1.48,0.747 -2.17,1.492 -3.9,0.536 -1.42,-0.786 -2.7,-1.805 -4.04,-2.721 -1.28,-0.884 -2.91,-0.437 -4.18,-1.234 -1.1,-0.697 -1.33,-2.193 -2.83,-1.307 -1.31,0.77 -1.76,0.74 -3.2,0.88 -1.29,0.125 -2.83,-0.718 -4.24,-0.697 -1.46,0.02 -1.68,0.268 -3.11,-0.225 -0.86,-0.298 -3.12,-0.06 -4.05,-0.06 -1.46,0 -2.75,0.233 -4.15,0.574 -0.9,0.216 -2.32,0.422 -2.71,1.422 -0.25,0.657 -0.99,0.985 -1.44,0.429 -0.79,-0.964 -0.55,-2.198 -0.47,-3.348" fill="#2B1D24">
		
	</path></svg>
