<svg xmlns="http://www.w3.org/2000/svg" viewBox="1442.5 184.3 53.5 53.5"><path fill="#2b1d24" d="m1446.3 214 .3.7c-.1-1.3-.4-2.6.5-3.6.3-.5 1-.8 1.2-1.4.2-.8 0-1.5.4-2.2a5 5 0 0 1 3.3-2.6c.8-.2 2.8-1.4 3.4-.7 1 1.2 2 1.7 3 2.7 1.3 1.1 1.8 2.6 3.5 3.2q2.1.4 3.8-1c1.6-1 1.4-2.4.7-4q-.5-1-.4-2.2 1 .1 1.7-.5c1-.6 2.9-1.4 3.9-.7.7.4 2 .3 2.8.8 1.4.7 2.5.9 3.6 2q1.4 1.4 3 .7c1.4-.7 3 .4 4.4.4 1 0 3.6 2.2 3.4 3 0 .4-.7 2.1-1 2.5 2.1-.3 1.3.6 2.2 1 1.1.4 2.1 4.2 2.3 5.3-.4.2-1.1-.5-1.9-.1q-.8.6-1.4 1.5l-.5 1c-1.2.6-2.6-.7-3.9 0-1.5.7-2.2 1.4-3.9.5l-4-2.8c-1.3-.9-3-.4-4.2-1.2-1.1-.7-1.3-2.2-2.8-1.3-1.4.8-1.8.7-3.2.9-1.3 0-2.9-.7-4.3-.7s-1.7.2-3-.3c-1-.3-3.2 0-4.1 0a17 17 0 0 0-4.2.6c-.9.2-2.3.4-2.7 1.4q-.6 1.1-1.4.4c-.8-1-.6-2.2-.5-3.3"/></svg>
