<svg xmlns="http://www.w3.org/2000/svg" viewBox="1362.2 402.1 137.2 137.2"><path fill="#2b1d24" d="M1372.4 438.7c-1-.9 1.1-1.8 1.6-2 1.7-.8 2.5-1.2 3.5-2.8.8-1.3 1.6-2 1.3-3.5-.3-1.4-1-2.9-.8-4.3.2-2 2.6-1.5 3-3s1.7-2.3 3-3c1-.4 4.2-1.3 4.3-2.7 0-.7-.7-1.1-.6-1.8q0-2 .3-4l4.4 2.1q2.3 1.4 4.8 1c1.7-.1 3-1.2 4.7-.6 1.6.6 3.3.6 4.8 1.3 1.4.6 2.5 1.6 3.8 2.2 1.2.4 2.9 0 4 .7 1.2.9 1.4 2.4 1.7 3.8q.4 2.7 2.4 4.4c2.5 2.2 5.6 1.7 8.7 2.2s7.4 2 9.8 4c2 1.5 3.8 4.2 6.6 4a9 9 0 0 0 7.4-6.4c.3-1.5-.7-2.7-1.2-4a8 8 0 0 1-.3-4.8c.9-2.8 5.5-6.3 8.5-6.4 1.5 0 2.4-1.2 3.8-1.3q2.2-.1 4.4.2 2.3.7 4.6 1.9c1.9.7 1.4 1 1.5 2.5 0 1.4 2.1 1.6 3 1.7 2 .1 3 1 4.8 1.5s3.4-.1 5.1.2c1 .2 2.5 2 2.1 3.1-.4 1-1.7 1.3-1.8 2.5-.3 1.7.8 3 1 4.5.4 1.7-.7 3.3-1.3 4.8-.6 1.6 1 3.5 1.3 5.1q.8 4.2 1.1 8.4l1.8 75.3h-7.5l.2 4.3-59.7-33.7-13.5 6.5c-1.2.3-2.6-1.6-3.2-2.3-2.8-2.8-5.9-3.3-9.6-4.2-1.3-.3-3-.4-4.2-1.2-1-.5-1.4-2.2-1.8-3.1-1.1-2.8-2.5-3.6-5.3-4.6-.9-.4-1.7-1.1-2.7-1.1s-2 1.1-3 .1c-.7-.8-2-2.8-2-4 0-2.3-.3-3.1-1.5-5-1-1.6-4.3-4.3-2.9-6.3 1.6-2.4 4.1-1.5 3-5.3q-1-2.6-.2-5.3c.6-1.7.9-3 .3-4.8s-.2-3.6 0-5.4q.3-3.3-.9-6.5-1-2.6-2.6-5"/></svg>
