<svg xmlns="http://www.w3.org/2000/svg" viewBox="1362.22 402.07 137.22 137.22"><path id="ly" d="m 1372.42,438.678 c -0.96,-0.829 1.1,-1.805 1.63,-2.052 1.61,-0.745 2.47,-1.172 3.44,-2.748 0.78,-1.267 1.57,-1.885 1.26,-3.517 -0.26,-1.407 -0.93,-2.825 -0.78,-4.293 0.19,-2.013 2.64,-1.498 3.03,-2.941 0.42,-1.555 1.69,-2.357 2.99,-2.975 0.99,-0.475 4.23,-1.358 4.26,-2.736 0,-0.69 -0.67,-1.117 -0.59,-1.85 0.13,-1.342 0.18,-2.69 0.31,-4.032 1.29,0.9 3.03,1.355 4.42,2.209 1.46,0.896 3.11,1.201 4.81,1.015 1.71,-0.188 2.98,-1.275 4.74,-0.637 1.57,0.569 3.24,0.628 4.77,1.28 1.36,0.581 2.46,1.63 3.83,2.168 1.2,0.471 2.83,-0.02 3.9,0.719 1.26,0.873 1.5,2.371 1.74,3.773 0.31,1.794 1.02,3.224 2.41,4.429 2.53,2.176 5.65,1.666 8.69,2.217 3.04,0.554 7.38,1.939 9.83,3.917 1.95,1.582 3.75,4.253 6.55,4.002 3.22,-0.291 6.67,-3.134 7.39,-6.372 0.33,-1.495 -0.68,-2.658 -1.14,-4.005 -0.5,-1.485 -0.87,-3.192 -0.36,-4.729 0.93,-2.82 5.57,-6.318 8.52,-6.417 1.52,-0.05 2.41,-1.154 3.82,-1.262 1.44,-0.11 2.97,-0.136 4.38,0.208 1.64,0.401 3.07,1.195 4.63,1.805 1.85,0.723 1.36,0.974 1.45,2.59 0.1,1.309 2.18,1.586 3.13,1.656 1.83,0.138 3.01,0.967 4.7,1.457 1.68,0.487 3.44,-0.08 5.15,0.236 0.96,0.176 2.42,2.102 2.07,3.114 -0.36,1.068 -1.66,1.34 -1.84,2.542 -0.25,1.66 0.81,2.891 1.1,4.435 0.33,1.737 -0.79,3.275 -1.38,4.785 -0.63,1.602 1.01,3.505 1.29,5.163 0.46,2.826 0.96,5.498 1.14,8.396 l 1.78,75.281 c -2.49,0 -4.98,0 -7.48,0 0.1,1.439 0,2.883 0.14,4.32 l -59.65,-33.761 -13.53,6.482 c -1.14,0.313 -2.55,-1.557 -3.21,-2.222 -2.8,-2.783 -5.83,-3.352 -9.55,-4.197 -1.32,-0.302 -3.06,-0.456 -4.24,-1.19 -0.94,-0.582 -1.38,-2.224 -1.77,-3.174 -1.14,-2.791 -2.53,-3.55 -5.26,-4.578 -0.91,-0.341 -1.77,-1.111 -2.77,-1.085 -0.97,0.02 -2.02,1.104 -2.93,0.118 -0.74,-0.8 -2.02,-2.856 -2.04,-3.963 0,-2.316 -0.26,-3.162 -1.54,-5.134 -0.98,-1.52 -4.24,-4.22 -2.84,-6.243 1.62,-2.334 4.1,-1.441 3.04,-5.269 -0.53,-1.915 -0.91,-3.386 -0.26,-5.329 0.56,-1.665 0.9,-3.039 0.28,-4.76 -0.64,-1.81 -0.14,-3.622 0,-5.461 0.19,-2.18 -0.13,-4.379 -0.86,-6.438 -0.62,-1.766 -1.53,-3.429 -2.62,-4.947" fill="#2B1D24">
		
	</path></svg>
