<svg xmlns="http://www.w3.org/2000/svg" viewBox="1159.18 377.61 151.74 151.74"><g id="ma" fill="#2B1D24">
		<path id="ma-" d="m 1207.6,456.891 c 1.42,-0.515 2.97,-0.581 4.43,-0.903 2.71,-0.598 5.47,-1.456 7.52,-3.42 2.01,-1.926 4.1,-3.439 6.2,-5.224 2.01,-1.709 3.55,-3.989 5.17,-6.064 1.09,-1.408 3.6,-5.462 1.48,-6.998 -0.82,-0.594 -1.39,-0.614 -0.87,-1.715 0.52,-1.093 0.47,-2.186 0.53,-3.378 0.16,-3.319 1.36,-4.8 3.39,-7.273 1.16,-1.414 0.84,-2.853 1.33,-4.479 0.35,-1.177 1.32,-2.089 2.2,-2.89 1.88,-1.713 3.37,-3.822 5.73,-4.888 2.57,-1.161 5.3,-2.068 7.75,-3.465 4.86,-2.765 7.19,-9.5 9.03,-14.457 0.18,-0.479 0.82,-2.923 1.56,-2.848 0.91,0.09 1.83,-0.275 2.6,-0.69 0.98,-0.524 1.17,0.773 1.45,1.471 0.55,1.348 1.28,2.264 2.47,3.108 2.48,1.762 4.54,1.269 7.38,0.929 2.35,-0.281 5.34,1.149 6.77,-1.614 0,0.9 0.22,1.124 0.35,1.807 0.13,0.732 1.46,1.102 0.3,-0.08 0.63,0.872 1.75,1.317 2.76,0.814 1.03,-0.513 1.65,0.544 2.28,1.13 0.68,0.629 1.89,0.985 2.3,1.872 0.46,1.014 -0.54,1.943 0.87,2.52 -0.76,0.599 -0.52,1.699 -0.37,2.505 0.23,1.276 -0.2,2.398 0,3.629 0.12,0.989 0.76,1.62 0.51,2.682 -0.37,1.597 -0.19,2.164 0.57,3.569 0.39,0.715 0,1.352 0.43,2.007 0.57,0.974 1.47,1.361 2.32,2.032 1.57,1.237 -3.12,3.291 -0.61,4.24 -2.59,0.664 -11.65,-2.445 -12.98,1.065 -0.69,1.833 -2.5,2.531 -4.46,2.367 -1.48,-0.125 -3.3,1.99 -1.28,2.544 -1.71,1.562 1.43,2.719 0.68,3.46 -0.86,0.847 -2.35,0.541 -3.28,1.214 -0.96,0.706 -2.02,1.764 -3.17,2.159 -0.86,0.298 -1.84,0.272 -2.65,0.726 -1.57,0.879 -2.21,2.722 -3.36,4.012 -1.32,1.479 -3.77,2.057 -5.69,2.133 -1.44,0.06 -3,-0.549 -3.58,1.172 -0.62,1.836 -2.43,0.461 -3.87,0.568 -1.02,0.07 -1.62,0.584 -2.27,1.292 -0.67,0.72 -1.45,0.568 -2.28,0.9 -0.96,0.383 -1.55,1.331 -2.32,1.969 -0.81,0.678 -1.82,1.1 -2.65,1.773 -1.62,1.313 -3.04,1.504 -2.88,3.776 0.16,2.26 -0.1,4.765 -0.33,7.012 l -33.295,0.2355 c 0.325,-0.3805 1.445,-2.1625 1.835,-2.3065 z">
			
		</path>
		<g id="eh">
			<path id="eh-" d="m 1175.07,511.098 c 0.25,-1.479 0.63,-2.866 1.42,-4.156 0.96,-1.564 2.72,-1.567 3.3,-3.522 0.31,-1.002 0.29,-2.545 1.28,-3.143 0.57,-0.338 0.23,-1.473 0.68,-2.12 0.7,-1.035 3.54,-4.569 2.75,-5.912 -0.53,0.342 -0.98,0.819 -1.29,1.368 1.24,-2.73 4.38,-4.739 6.45,-6.846 2.75,-2.807 2.21,-5.708 3.55,-9.151 1.1,-2.815 1.95,-5.922 4.68,-7.481 3.02,-1.718 4.66,-3.119 5.91,-6.441 0.79,-2.112 1.4322,-3.7375 1.77,-4.495 l 33.5,-0.271 -0.47,14.596 -24.86,0.287 -1.14,21.833 c -1.48,1.067 -3.59,1.184 -5.13,2.145 -2.33,1.445 -3.26,2.991 -3.08,5.737 0.11,1.596 1.33,9.911 -0.36,10.391 h -27.65 c -2.12,0 -2.46,3.467 -2.24,4.969 -1.18,-2.086 0.57,-5.625 0.93,-7.788 z">
				
			</path>
			<path id="xz" d="m 1204.3359,513.81806 c 1.4348,-3.25592 -0.7351,-9.61749 0.5235,-13.55463 2.2587,-3.27505 4.9455,-3.46286 7.8192,-4.55674 l 0.9102,-21.79448 25.0944,-0.13098 0.276,-14.24258 h -1.213 c 0.088,0.84672 0.033,1.71319 0,2.54548 0.3341,0.59573 0.1721,1.04538 -0.1107,1.33335 -0.2825,0.28796 -0.717,0.40096 -1.2135,0.36343 -1.4223,0.16337 -3.1502,-0.57724 -4.3017,0.72731 -0.8673,0.76076 -1.9349,2.01199 -3.0882,1.09091 -0.7804,-0.78831 -1.6701,0.77238 -2.5369,0 -0.9002,-0.57147 -1.8103,-1.12521 -2.8679,-1.21213 -1.6929,-0.23159 -3.1835,0.88123 -4.8531,1.09092 0.3806,0.99222 0.8207,2.1757 -0.331,2.78791 -0.9851,1.19201 -2.0036,2.54952 -2.4263,4.12127 -0.4665,0.25585 -1.2138,0.22338 -1.7649,0.36344 -0.551,0.13992 -1.3914,0.34792 -1.5992,1.12126 -0.2761,1.55017 -0.5134,3.11172 -0.8274,4.69697 -0.3614,1.11234 -0.6668,2.39431 -1.1028,3.51521 -0.4363,1.12092 -0.9513,2.04626 -1.9857,2.66669 -1.5164,1.14566 -3.5286,1.91243 -4.1913,4 -0.6034,1.29286 -1.3165,2.66404 -2.7575,2.90915 -1.2848,0.71753 -2.9665,1.16715 -3.4192,2.9091 -1.2102,2.6728 -1.6797,5.61082 -2.3165,8.48494 0,1.76255 -0.5971,3.4768 -1.9852,4.48493 -0.5546,0.72055 -1.2926,1.47355 -1.6548,2.30305 0.2241,1.14329 -0.4476,2.4136 -1.213,3.15152 -1.6987,0 -3.3948,-0.0106 -5.1399,-0.0106 -1.8426,0 -3.891,-0.10926 -6,-0.109 -3.699,0 -4.102,-0.348 -5.361,0.205 -0.369,1.594 -0.55,2.775 -0.337,3.268 0.571,-1.887 0.659,-2.473 2.975,-2.443 z">
				
			</path>
		</g>
	</g></svg>
