<svg xmlns="http://www.w3.org/2000/svg" viewBox="1159.2 377.6 151.7 151.7"><g fill="#2b1d24"><path d="m1207.6 456.9 4.4-1c2.7-.5 5.5-1.4 7.5-3.3q3-2.8 6.2-5.3c2-1.7 3.6-4 5.2-6 1.1-1.4 3.6-5.5 1.5-7-.8-.6-1.4-.6-.9-1.7.6-1.1.5-2.2.6-3.4.1-3.3 1.3-4.8 3.4-7.3 1.1-1.4.8-2.8 1.3-4.5q.7-1.6 2.2-2.9c1.9-1.7 3.4-3.8 5.7-4.8q4-1.6 7.8-3.5c4.8-2.8 7.2-9.5 9-14.5.2-.4.8-2.9 1.6-2.8q1.4 0 2.6-.7c1-.5 1.1.8 1.4 1.5a7 7 0 0 0 2.5 3c2.5 1.8 4.5 1.3 7.4 1 2.3-.3 5.3 1.2 6.7-1.6 0 .9.2 1.1.4 1.8.1.7 1.4 1.1.3 0q1 1.3 2.7.7c1-.5 1.7.6 2.3 1.2.7.6 1.9 1 2.3 1.8.5 1-.5 2 .9 2.6-.8.6-.5 1.7-.4 2.5.2 1.2-.2 2.4 0 3.6.1 1 .8 1.6.5 2.7-.4 1.6-.2 2.1.6 3.5.4.8 0 1.4.4 2q1 1.3 2.3 2c1.6 1.3-3 3.4-.6 4.3-2.6.7-11.6-2.4-13 1-.6 2-2.5 2.6-4.4 2.5-1.5-.2-3.3 2-1.3 2.5-1.7 1.6 1.4 2.7.7 3.5-.9.8-2.4.5-3.3 1.2-1 .7-2 1.7-3.2 2.1l-2.6.8c-1.6.8-2.2 2.7-3.4 4-1.3 1.4-3.7 2-5.7 2.1-1.4 0-3-.5-3.5 1.2-.7 1.8-2.5.4-4 .5q-1.3.2-2.2 1.3c-.6.8-1.4.6-2.3 1-1 .3-1.5 1.3-2.3 1.9l-2.6 1.8c-1.6 1.3-3 1.5-3 3.8q.3 3.4-.2 7l-33.3.2c.3-.4 1.4-2.2 1.8-2.3"/><path d="M1175 511.1q.4-2.2 1.5-4.2c1-1.5 2.7-1.5 3.3-3.5.3-1 .3-2.5 1.3-3.1.5-.4.2-1.5.7-2.1.7-1 3.5-4.6 2.7-6a4 4 0 0 0-1.3 1.4c1.2-2.7 4.4-4.7 6.5-6.8 2.7-2.8 2.2-5.7 3.5-9.2 1.1-2.8 2-6 4.7-7.5 3-1.7 4.7-3 5.9-6.4l1.8-4.5 33.5-.3-.5 14.6-24.9.3-1.1 21.8c-1.5 1.1-3.6 1.2-5.1 2.2-2.4 1.4-3.3 3-3.1 5.7.1 1.6 1.3 10-.4 10.4h-27.6c-2.1 0-2.5 3.5-2.3 5-1.1-2.1.6-5.6 1-7.8"/><path d="M1204.3 513.8c1.5-3.2-.7-9.6.6-13.5 2.2-3.3 4.9-3.5 7.8-4.6l.9-21.8 25-.1.4-14.3h-1.3v2.6q.5.9 0 1.3t-1.3.4c-1.4.1-3.1-.6-4.3.7-.8.8-2 2-3 1.1-.8-.8-1.7.8-2.6 0a7 7 0 0 0-2.9-1.2c-1.7-.2-3.2.9-4.8 1 .4 1 .8 2.3-.4 2.9q-1.7 1.8-2.4 4l-1.7.5c-.6 0-1.4.3-1.6 1l-.9 4.8-1 3.5q-.6 1.7-2 2.7c-1.6 1.1-3.6 1.9-4.3 4-.6 1.2-1.3 2.6-2.7 2.9-1.3.7-3 1.1-3.4 2.9q-1.6 4-2.3 8.5 0 2.7-2 4.4l-1.7 2.3q.1 2-1.2 3.2h-5.1l-6-.1c-3.7 0-4.1-.4-5.4.2q-.7 2.5-.3 3.2c.5-1.8.6-2.4 3-2.4z"/></g></svg>
