<svg xmlns="http://www.w3.org/2000/svg" viewBox="1486 278.3 29.9 29.9"><g fill="#2b1d24"><path d="M1488.6 282.3c.7-.4.6-.1.9-.8.2-.4.9-.4 1.3-.3 1 0 2.4.1 3.4-.6 2-1.5 3.5 3.3 5.5 2.4.3 1.2 1-.4 1.3 1 .3-1.3 1.5-.8 2.1-.1.3.3 1 1.3 1.5.9.6-.6.7.2 1.2.8 1 1.5.6 1.9 1.6 3.2.3.4.2 1.3.6 1.6s.5-.6.9 0c.7.9-1 4-.6 2.7.7-2.3 5.7 2.8 3.6 3.6.7.3.8 1 1.5 1.1-1.6 1.8-4.6-2-5.7.3l-.5-1.3c-2.6 1-.5 2.8-1.9 4.7l-2 3q.1.6-.4 1c-.5 0-1.4-.4-1.5.6-1-.9-.7-1.3-1-2.3-1.1-3.1.4-5.1 0-7.3a12 12 0 0 0-2.7-4.5c-2-1.9-3-3-4.4-5.4-1.2-2-2.2-4.2-4.7-4.3"/><path d="M1501 284c.3-1.3 1.5-.8 2.1-.1.3.3 1 1.3 1.5.9.6-.6.7.2 1.2.8 1 1.5.6 1.9 1.6 3.2.3.4.2 1.3.6 1.6s.5-.6.9 0c.7.9-1 4-.6 2.7.7-2.3 5.7 2.8 3.6 3.6h-.6l-3.5-1.7c-.7-.5-.6-1.1-.6-1.5s-1.3-1.1-1.5-1.3q-.2-.5-.1-1.4c0-.6-.7-1.7-1-2.4-.4-.8-.7-2-1-2.3l-1.3-.6q-.8-.5-1-1-.4-.5-.3-.6"/></g></svg>
