<svg xmlns="http://www.w3.org/2000/svg" viewBox="1585.8 792.8 136.6 136.6"><g fill="#2b1d24"><path d="M1625.4 889.4c.5 2.4-.7 5.3 1 7.4.8 1 .8 2.2 1.3 3.4.3 1 1.4 1.3.4 2.5-1.1 1.2-1 5.2-.2 6.6q1 1.8 1.6 3.7c.4 2 1.7 2.5 3 3.6-1.7-1-.2.4.2.5l2 .3c1.6.4 2.4 2.1 4 2.5 2.7.6 5.5-2.9 8-3.6 1-.3 2 .3 2.8 0q.8-.5 2-.9c1-.2 1.5-1.4 1.9-2.2q.8-1.6 1.2-3.4c.4-1.7 1.4-3 2-4.6l2.7-8.6c1-4.2 2.8-8 4.3-12 1.1-3.4 1.8-6.8 3.3-10 .4-1 1.2-2.4.8-3.5.5 0 1-2 1.2-2.4l2.2-6.8c1.3-3.2 2.6-6 3.3-9.4.5-2.6-1.3-6.4 1.9-8 .6-.4 1.3-2.4 1.3-3.1v-2.2c.2-1-1-.8-1-1.8 0-.7-.7-6.2 1-5.4 1.6.6 1 3.7 2.5 4.3 1.6.5 2.7-3.9 2.9-4.8.2-1.4-.7-2.1-1-3.3-.8-2.3-.7-4.5-.8-6.9-.2-4.2-1.2-8.8-2.9-12.6l-.7.5q.2-.7-.4-1c-.6-.6.3-1-.2-1.6s-.8-3-2-2.2q-.2-.3-.2-.8c2.2.2-1-3-.6-.3.1 1.1-2.1 3.1-3.1 3 1.9 1 .6 3.9.3 5.2-.6 1.9-.6 3.1-3 3.2.4 1.3 0 .2-.7 1q-.6 1-.7 2.1c-.6 0-2.8-4.4-3-1.3q-.1 1.5.6 2.8c.3 1-.3 3.4-.4 1.6-.2.9-2.9 1-1.8 3 .5 1 2.7.6 1.8 2.3.3-1.3-1-1.5-1.9-.8-1 .8-1 2.8-2.5 3.3-.2-1.1.8-2 .6-3.1-1 .2-.8 1-1.3 1.8s-1.7 1.2-1.9 2c0 .7.6 1.4.8 2 .6 1-1.3 1.1-1.8 1.6 0-.7 1.3-2.7-.4-2.6-1 0-1.9 1.3-2.6 1.8-.6.3-2 1-1.8 1.9q-.2.6-.1 1.3c.1.7.9.4 1 1-.7 0-1.6.2-1.7-1-.2-1.4-1.6-1.3-1.6.1-.4-.5-2-.7-2.5-.4-.7.3-.5 1.5-1 2 0-1.5-1.7-.3-1.8.6q-.3-.7-.9-1.3c-.8.6-1.5 1.6-2.5 2s-2.6-.4-3.3.3c-.4.3-.1 3.2-.4 2.9.3 1.1-.6 2.5-1.1 3.4-1 1.6-4 4.5-2.8 6.4.8 1.3.1 3.6.2 5.1.2 1.8 1.4 3.2 1.4 4.9 0 1.6-.1 2.6.8 4 .9 1.5.4 2.2-.1 3.6-.4 1 1 1.4.3 2.5l-2.2 3.6q-1.4 1.8-2.3 3.9c-.4 1-.1 2.8-1.4 3.3-1.7.6-2 .6-2.2 2.5-.2 1.6-1.6 3-2 4.6"/><path d="M1667.4 814.5c.4-.6-.1-1.3-.5-1.7-.7.6-.5 1.7.5 1.7m11.3 28.9v-.5c-.4.9-1.5 1.8-1 2.8z"/></g></svg>
