<svg xmlns="http://www.w3.org/2000/svg" viewBox="1585.85 792.79 136.56 136.56"><g id="mg" fill="#2B1D24">
		
		<path id="Madagascar_island" d="m 1625.35,889.388 c 0.57,2.403 -0.64,5.333 1.06,7.432 0.84,1.027 0.82,2.18 1.25,3.368 0.39,1.094 1.49,1.266 0.41,2.508 -1.07,1.218 -0.9,5.173 -0.21,6.615 0.64,1.311 1.27,2.284 1.62,3.737 0.45,1.888 1.68,2.417 3.07,3.56 -1.75,-1.016 -0.24,0.343 0.2,0.479 0.64,0.2 1.32,0.132 1.97,0.297 1.57,0.401 2.43,2.137 3.99,2.483 2.71,0.599 5.54,-2.861 8.03,-3.593 0.92,-0.269 1.88,0.277 2.73,-0.03 0.66,-0.246 1.24,-0.69 1.95,-0.826 1,-0.19 1.6,-1.375 1.98,-2.198 0.52,-1.108 0.87,-2.287 1.19,-3.464 0.44,-1.63 1.44,-2.953 1.95,-4.518 0.93,-2.89 1.93,-5.683 2.72,-8.648 1.13,-4.221 2.83,-7.991 4.29,-12.081 1.19,-3.315 1.86,-6.705 3.33,-9.914 0.43,-0.937 1.24,-2.42 0.81,-3.486 0.5,-0 1.08,-2.029 1.2,-2.365 0.85,-2.244 1.3,-4.616 2.22,-6.828 1.34,-3.232 2.55,-5.983 3.25,-9.448 0.52,-2.585 -1.25,-6.358 1.9,-8.055 0.61,-0.333 1.29,-2.285 1.37,-3.055 0.1,-0.719 -0.1,-1.427 0,-2.146 0.17,-0.971 -1.03,-0.859 -1.01,-1.789 0,-0.706 -0.72,-6.181 1.04,-5.435 1.5,0.64 0.99,3.759 2.44,4.27 1.63,0.571 2.69,-3.823 2.87,-4.787 0.26,-1.391 -0.67,-2.085 -1.05,-3.32 -0.69,-2.267 -0.63,-4.47 -0.71,-6.805 -0.16,-4.288 -1.18,-8.833 -2.91,-12.668 -0.25,0.159 -0.48,0.329 -0.71,0.51 0.19,-0.583 -0.1,-0.699 -0.41,-1.056 -0.58,-0.581 0.32,-0.947 -0.2,-1.582 -0.49,-0.605 -0.81,-2.883 -2.06,-2.122 -0.1,-0.259 -0.1,-0.522 -0.1,-0.79 2.17,0.208 -0.99,-3.076 -0.63,-0.322 0.14,1.083 -2.09,3.083 -3.12,3.061 1.93,0.969 0.68,3.823 0.29,5.11 -0.57,1.897 -0.54,3.109 -2.88,3.17 0.28,1.373 -0.15,0.287 -0.81,1.079 -0.47,0.575 -0.49,1.399 -0.7,2.081 -0.59,-0.02 -2.73,-4.402 -3.04,-1.302 -0.11,1.108 0.27,1.83 0.67,2.823 0.35,0.893 -0.28,3.338 -0.44,1.579 -0.16,0.859 -2.82,0.961 -1.77,2.938 0.55,1.049 2.68,0.638 1.84,2.322 0.29,-1.31 -1.07,-1.43 -1.88,-0.805 -1.13,0.876 -1.03,2.844 -2.58,3.324 -0.2,-1.109 0.87,-1.96 0.65,-3.1 -1.11,0.244 -0.85,1.009 -1.3,1.8 -0.43,0.767 -1.69,1.183 -1.87,2.09 -0.13,0.629 0.53,1.334 0.8,1.847 0.51,1.002 -1.3,1.213 -1.88,1.684 0.12,-0.692 1.38,-2.702 -0.4,-2.657 -1.02,0.03 -1.84,1.298 -2.61,1.829 -0.52,0.354 -1.92,1.089 -1.77,1.893 0.1,0.408 -0.27,0.922 -0.12,1.306 0.21,0.534 0.93,0.436 1.09,1.079 -0.8,-0.05 -1.63,0.111 -1.77,-1.013 -0.18,-1.415 -1.57,-1.391 -1.62,0.08 -0.33,-0.552 -1.93,-0.711 -2.49,-0.438 -0.7,0.345 -0.43,1.527 -0.96,2.018 0,-1.494 -1.71,-0.318 -1.81,0.58 -0.24,-0.462 -0.53,-0.896 -0.86,-1.3 -0.86,0.597 -1.52,1.627 -2.52,2 -0.94,0.35 -2.61,-0.41 -3.37,0.303 -0.38,0.349 -0.1,3.195 -0.37,2.887 0.27,1.152 -0.55,2.48 -1.11,3.417 -0.93,1.565 -3.93,4.483 -2.78,6.372 0.8,1.303 0.11,3.654 0.23,5.172 0.15,1.725 1.39,3.162 1.38,4.858 0,1.579 -0.11,2.58 0.75,3.981 0.91,1.504 0.39,2.181 -0.1,3.646 -0.32,1.053 1,1.379 0.38,2.51 -0.67,1.205 -1.54,2.353 -2.26,3.532 -0.78,1.267 -1.74,2.533 -2.3,3.917 -0.42,1.071 -0.1,2.857 -1.43,3.332 -1.63,0.57 -2.02,0.602 -2.18,2.477 -0.13,1.56 -1.54,2.99 -1.93,4.589"></path>
		<path id="Madagascar_Nosy_Be" d="m 1667.4,814.508 c 0.36,-0.626 -0.1,-1.292 -0.5,-1.73 -0.71,0.583 -0.54,1.746 0.5,1.73"></path>
		<path id="Madagascar_Nosy_Boraha" d="m 1678.71,843.378 c 0,-0.143 0,-0.287 0,-0.43 -0.44,0.802 -1.54,1.704 -1.08,2.74 0.46,-0.725 0.66,-1.568 1.08,-2.31"></path>
	</g></svg>
