<svg xmlns="http://www.w3.org/2000/svg" viewBox="1196.78 471.97 148.9 148.9"><path id="ml" d="m 1208.55,570.798 c 1.35,-0.325 1.95,0.406 3.05,-1.003 0.93,-1.189 0.51,-3.749 0.97,-5.231 1.02,-3.385 5.73,2.223 6.21,3.282 0.9,-2.462 2.39,-3.811 5.22,-2.662 1.86,0.755 5.81,0.621 6.22,-1.947 1.06,2.568 6.28,1.42 8.33,1.264 5,-0.382 10.13,-0.111 15.15,-0.111 1.76,0 3.94,-0.206 5.69,-0.03 1.28,0.131 0.91,-2.002 1.03,-3.098 0.14,-1.242 1.35,-3.634 0.1,-4.458 -2.24,-1.425 -1.64,-2.683 -1.62,-4.492 l -5.23,-70.076 13.25,0 c 13.69,10.263 26.54,20.482 39.5,30.661 1.56,1.125 4.48,2.253 4.27,4.597 -0.1,0.733 -0.18,1.387 1.14,1.914 0.64,0.256 1.35,0.435 1.89,0.797 0.9,0.604 0.75,1.69 1.48,2.413 0.68,0.688 1.4,0.782 2.29,0.936 0.64,0.111 0.17,-0.593 1.32,-0.02 0.83,0.411 1.19,1.507 2.14,1.805 1.47,0.466 3.44,0.59 4.81,1.397 1,0.589 0.71,3.357 0.28,4.321 -0.59,1.341 -1.45,2.613 0.69,2.918 2.25,0.324 4.81,-0.878 7.04,-1.155 -0.29,6.143 0.59,12.668 -0.21,18.752 -0.1,0.7 0.12,1.176 -0.4,4.506 -0.17,1.088 0.21,-0.3 -1.31,2.901 -0.47,0.983 -0.45,2.172 -0.87,3.186 -0.41,0.977 -1.37,1.275 -2.15,1.877 -0.95,0.739 -0.3,1.713 -1.61,1.489 -0.3,-0.05 -2.93,-0.751 -3.05,-0.297 -0.31,1.188 -8.51,0.786 -9.75,0.885 -3.04,0.242 -2.98,-0.131 -5.13,2.222 -0.67,0.739 -2,1 -2.95,0.792 -0.55,-0.1 -1.8,-0.112 -2.36,-0.1 -0.99,-0.02 -0.92,-0.78 -0.92,0.459 -0.72,-0.271 -1.41,-0.615 -2.11,-0.912 -1.71,-0.714 -2.12,0.483 -2.76,0 -0.63,-0.464 -1.71,-1.073 -3.12,0.187 -1.47,1.313 -3.61,2.408 -4.45,2.972 -1.42,0.946 -2.45,1.692 -3.9,2.056 -1.19,0.299 -0.22,2.816 -1.98,2.045 -1.08,-0.474 -2.07,-1.132 -3.22,-0.337 -0.98,0.677 -1.5,1.921 -1.86,2.99 -0.2,0.611 -0.48,1.592 -0.77,2.171 -0.25,-0.172 -1.84,-0.56 -2.47,-0.665 0.56,1.01 0,2.503 0.15,3.601 -0.98,-0.03 -1.76,-0.193 -1.51,1.008 -1.04,-0.103 -4.02,-1.615 -3.96,-2.881 -1.9,4.541 -3.3,2.4 -2.34,4.018 0.53,0.896 0.55,1.574 0.33,2.346 -0.1,0.315 -2.36,-0.08 -1.81,0.87 1.02,1.758 0.57,3.651 -1.4,5.318 -0.92,0.776 -2.02,0.461 -3.13,0.663 -1.03,0.188 -1.62,1.315 -2.74,1.259 2,0.502 0.55,1.544 1.15,1.896 1.03,0.598 0.16,3.244 -0.41,4.189 -0.19,0.312 -1.26,0.443 -1.2,0.743 0.33,1.514 0.53,3.385 -0.52,4.748 -0.42,0.547 -1.64,0.527 -2.23,0.691 -1.24,0.344 -0.59,1.987 -2.16,1.844 -1.73,-0.159 -0.59,-3.612 -1.18,-4.68 -0.67,0.278 -0.8,1.481 -1.44,1.656 -0.67,0.182 -1.17,-0.737 -1.66,-1.008 0,0.818 0.4,2.87 -0.84,2.852 -0.93,-0.01 -2.23,0.06 -1.46,1.324 -1.13,0.502 -3.97,-0.899 -3.82,-2.304 -0.58,0.259 -1.53,-0.04 -1.97,0.494 -0.7,0.838 -0.61,1.836 -1.99,1.954 1.02,-1.903 -2.35,-2.184 -2.36,-3.803 0,-1.035 0.26,-2.243 0,-3.25 -0.35,-1.436 -2.26,0.243 -2.92,0.212 0.25,-0.922 0.99,-3.357 2.38,-2.88 0.5,-1.389 -2.35,-1.902 -2.52,-3.24 -0.91,0.516 -0.83,-0.505 -0.74,-1.086 0.18,-1.312 -0.34,-1.817 -0.9,-2.916 -0.44,-0.866 0.11,-2.093 -0.9,-2.6 -0.4,-0.198 -1.78,-0.964 -2.19,-0.578 -0.45,0.424 1,1.491 0,1.952 -1.1,0.522 -1.98,1.408 -3.09,1.966 -0.78,0.387 -1.65,-0.728 -2.28,-0.987 -1.37,-0.559 -2.43,-0.459 -3.4,0.698 -2.44,2.91 -1.1,-0.556 -3.22,-1.273 -1.38,-0.465 -2.83,3.938 -4.18,0.541 -0.43,-1.086 1.36,-2.08 0.49,-3.306 -0.5,-0.706 -0.11,-2.389 0.17,-3.128 0.31,-0.872 -2.34,-5.841 -2.89,-3.683 -0.62,-0.177 -1.62,-2.11 -1.89,-2.697 -0.25,-0.528 0.55,-1.586 0.52,-2.631 0,-1.57 0.13,-2.238 -0.98,-3.473 -0.38,-0.429 -0.79,-0.941 -0.53,-1.559 0.44,-1.059 0.13,-1.058 -0.29,-2.099" fill="#2B1D24">
		
	</path></svg>
