<svg xmlns="http://www.w3.org/2000/svg" viewBox="1196.8 472 148.9 148.9"><path fill="#2b1d24" d="M1208.6 570.8c1.3-.3 1.9.4 3-1 1-1.2.5-3.8 1-5.2 1-3.4 5.7 2.2 6.2 3.2.9-2.4 2.4-3.8 5.2-2.6 1.9.7 5.8.6 6.2-2 1 2.6 6.3 1.5 8.3 1.3 5-.4 10.2-.1 15.2-.1 1.8 0 4-.2 5.7 0 1.3 0 .9-2 1-3.1.2-1.3 1.4-3.7.1-4.5-2.2-1.4-1.6-2.7-1.6-4.5l-5.2-70h13.2c13.7 10.2 26.6 20.4 39.5 30.6 1.6 1.1 4.5 2.3 4.3 4.6-.1.7-.2 1.4 1.1 2q1 .2 2 .7c.8.6.7 1.7 1.4 2.4q1 .9 2.3 1c.6 0 .2-.6 1.3 0 .8.3 1.2 1.4 2.2 1.7 1.4.5 3.4.6 4.8 1.4 1 .6.7 3.4.2 4.4-.5 1.3-1.4 2.6.7 2.9 2.3.3 4.8-.9 7-1.2-.2 6.2.7 12.7-.1 18.8l-.4 4.5c-.2 1 .2-.3-1.3 2.9-.5 1-.5 2.2-1 3.2-.3 1-1.3 1.2-2 1.8-1 .8-.4 1.8-1.7 1.5-.3 0-3-.7-3-.3-.3 1.2-8.5.8-9.8 1-3 .2-3-.2-5.1 2.1-.7.8-2 1-3 .8h-2.3c-1 0-1-.8-1 .4l-2-1c-1.8-.6-2.2.6-2.8 0-.6-.4-1.7-1-3.1.3s-3.6 2.4-4.5 3c-1.4.9-2.4 1.6-3.9 2-1.2.3-.2 2.8-2 2-1-.4-2-1-3.2-.3-1 .7-1.5 2-1.8 3l-.8 2.2-2.5-.7c.6 1 0 2.5.2 3.6-1 0-1.8-.2-1.5 1-1 0-4-1.6-4-2.9-1.9 4.6-3.3 2.4-2.3 4q.7 1.4.3 2.4c-.1.3-2.4 0-1.8.9q1.5 2.7-1.4 5.3c-1 .8-2 .4-3.1.6-1 .2-1.7 1.4-2.8 1.3 2 .5.6 1.5 1.2 1.9 1 .6.1 3.2-.4 4.2-.2.3-1.3.4-1.2.7.3 1.5.5 3.4-.6 4.8-.4.5-1.6.5-2.2.7-1.2.3-.6 2-2.2 1.8s-.5-3.6-1.1-4.7c-.7.3-.8 1.5-1.5 1.7s-1.2-.7-1.6-1c0 .8.4 2.9-.9 2.8-1 0-2.2 0-1.4 1.4-1.2.5-4-1-3.9-2.3-.5.2-1.5 0-2 .4-.6.9-.5 1.9-2 2 1.1-1.9-2.3-2.2-2.3-3.8 0-1 .3-2.2 0-3.3-.3-1.4-2.2.3-2.9.3.3-1 1-3.4 2.4-3 .5-1.3-2.4-1.8-2.5-3.2-1 .6-.9-.5-.8-1 .2-1.4-.3-1.9-.9-3-.4-.8.1-2-.9-2.6-.4-.2-1.8-1-2.2-.5s1 1.5 0 2q-1.5.8-3 1.9c-.8.4-1.7-.8-2.3-1q-2-1-3.4.7c-2.5 2.9-1.1-.6-3.3-1.3-1.3-.4-2.8 4-4.1.6-.5-1.1 1.3-2.1.4-3.3-.5-.8 0-2.4.2-3.2s-2.3-5.8-2.9-3.7c-.6-.1-1.6-2-1.9-2.7-.2-.5.6-1.5.6-2.6 0-1.6 0-2.2-1-3.5q-.7-.6-.6-1.5c.5-1 .2-1-.2-2.1"/></svg>
