<svg xmlns="http://www.w3.org/2000/svg" viewBox="1932.4 438.7 187 187"><g fill="#2b1d24"><path d="M1992.6 515.2c.1-.5-.2-2 .6-2.1 1-.1 1.6.9 2.9 1.2q-1-2.9-1.4-5.8s.9-.8.7-1.6c.7.2 1.1 1.8 2 1.5.7-.2.4-1.5.5-2 1.5 1 .8-1.3.6-2-.8-1.8-.7-3.3-.9-5.2 1.5 1 1.5-1.2 1.5-2.2q0-3.3-1.3-6.4.6 0 1 .3c.6.4.6.1 1.4 0 .8-.2 3.2.8 3.9 1.3 0-3.3 4.5-9.1 2-11.7-1.4-1.4 1.5-3.3 1.8-4.7s.8-2.5 0-3.9c-.7-1.1-.9-3.4.4-4.2.4-.3 1.6 0 1.6-.6.1-.7 1.4-1 1.9-1.6q.8-.9 1.4-2c.7-1.2 2.6-1 3.8-1.2.6-.1 1.3-.5 1.9 0 .7.7 1.4 2.3 2.7 1.7-.2-1-1.3-1.6-2-2.4-1.2-1.4-.4-2.6.7-3.7 1.6-1.5.8-1.3.8-3 0-.6.5-.4.4-1s.6-1.6.6-2.3c1.3 1.5 4 1.7 5.1 3.6.4.7.3 1.6.7 2.3q.7 1.4 1.6 2.7 1-.3.6-1.2c3 1.4 3.2 4.4 4 7.4q.6 2 .6 4.2c0 .6.7 2.7-.9 2 .4.7 2.7 3 .4 2.4-.4 0-1.1 1.1-1 1.4.2 1-1.1.8-1.6.7-.1.6-.3 4.5-2 3 .2 1.3-.6 2.3.2 3.6-1.3 0-1.2 1-1.1 2s.8 1.2 1.2 2c.2.4.7 1.5.6 2-.3.7-1.4 1.6-.5 2.3.4.4 2.9-1.6 3.3-1.8 1.8-1 4 .6 5.7-.7.3 1.1-1.2 1.6-.8 2.7q.4.9 1.2 1.4c.5.6-.3 1.3.1 1.6 1.3 1.1 1 2.7 2 3.2 1.5.7 3-.7 4 2-1.6-.2-1 2.4-.8 3.4s-1.7 3.8 0 3.6c1 0 4-.5 5.2.5 1.2 1.1-.6 3.1 1.8 3.1-.3.5 0 1.5.3 1.9.5.7 1-.8 1.8-.3 1.6 1 3.7-1.5 5-2.4 0 1.2 1 2-.2 3-.5.5-1.7.8-2 1.4-.3.4-1.8 4-.4 3.2 0 1-1.8.5-2.4 1-1.1.9-.7 2.5-1 3.7-.7-1.4-2.6.2-4.4.3.5.6 1 1.2.2 1.6q-1.4.3-2.6.2c-.9.1-.3 1.7-.5 2.3q-.4 1-1.3.5c-.5-.4-1.5.7-2.4.9l-3.3-.6c.3-.4-1.7 2-1.6 3.1l.5 1.5c.1.8-.7 1.9-.5 2.6.2 1 1.2 2 .5 3-.6.8-2.5.9-3-.1.3 1 1 3 2.4 2.5q0 1 .7 1.8c.6.8.3 1.6.6 2.4.5 1.5 2.5 3.1 3.4 4.3 1.1 1.3 2.6 1.7 3.4 3.8.7 1.7 1 3.5 2.1 5q.6-.7.9-1.5c1 .8.7 2.3-.1 3-.8.6-1.8 0-1.4 1.8.2 1 .6 2.9.5 4-.1.8-1.6.6-1.3 1.7-.7-.7-1.2-.2-1.3.6q-.2 1.9.9 3.4c1.5 2.5 4 4.3 5.6 6.4q2.6 3.1 2.3 6.8c-.2 1.2-.4 1.2.2 2.5.5 1.2.6 1.8 1.4 2.9q1.2 1.5 1.4 3c.1 1.3 1.2 3.4 1.5 4 .6 1.3-1 3.4-1.9 4.9-.8 1.2-1.8 2.5-3 4.7-.6 1 0 1.6-.4 2.5-.6 1.3-.7 2.6-1.5 3.9-.8-1.3-.7-3.3-1-4.9-.2-.6-.5-1.1 0-1.5.8-.5.3-.7.6-1.3q1.2-2 .7-4.2c-.2-.7-.6-3 .7-3l-.3-1q-.6.6-1.5 1c-.1-1.1 1.3-1.7-.2-1.5 1.7-.8-.8-2 .6-2.8q-1 .1-1.3-.7.6-.1 1-.5c-.6-.3-1-1.1 0-1.3-1-.3-.4-1.2-.5-2q-.3-2-1.3-4-.8-1.9-2-3.8c-.5-1.2-.6-2.7-1.4-3.8.4 1 .8 3.4 0 4.3.4-.8-.4-1.6-.4-2.4-.1-.8-.1-2-.3-2.7s-3-5.4-1.2-4.5l-.4-.8-.7.4c-1.2-3-1-6.5-2.1-9.6l-1-1.5c-.3-.5 0-1 0-1.6 0-1-.7-2.8.5-3.2-.8 0-2.2.6-2.8-.1-1-1.5-2-3-2-4.8-.7.4-.6-.6-1.2-1.2q-1-.6-1.4-1.6c-.2.2 0 1.8 0 2.1 0 1.2.8 2.5.2 3.7-.5 1-1 2.3-2.3 2.4-1.2 0-2.6-1.6-1.7-2.7-1.4.3-.2 1.4.2 2.3.5 1.2-.8 2.6-1.9 1.4 1.2.9-1.1 2.3-2 1.5.3 1-.6 4.8-2.4 4.1-1-.3 0-2.8-.2-3.6 0 .1-1 3.5-.5 1.3q-.5.9-.4 2c-1-.5-1.2-2.5-.4-3-1.1-.7-.7 4.3-2.1 3-.7-.6-.1-3.8.5-4.1-1 .4-1.4 2.5-1.9 3.5l-.8-.7c.9-.4 1-1.3 1.2-2.1-.4.7-.5 1.8-1.5 1.9 1-1.5.5-3.3.7-5h-.4c.6 1.2-1 3.9-2.2 4.3-1.6.7-.3-6.1 0-7 .1-.7 0-3 .3-3.3 1-1 0-3.9-.6-5-.6-1.4-.4-3.6-1.5-4.8q-.6-.8-1-1.8c-.4-.8-1.6-1.4-.4-1.6-.8-.6-1.9-.8-1.9-2 0-1 0-2.5-.4-3.3.1.7.4 2.3-.8 1.4.6.7 1 2 .6 2.9-1.7-.7-2.8-2.5-3.8-4-.3-.4.6-.8.9-.3q.5.6 1.2.7c1 .3 2.1-.2 1.3-1.4-.5-.6-2.7-1.4-1.4-2.4l-1.7-.2.2-1.5c-.7.3-1.6-.5-2-1-.6-.8-1.2-.2-2.2-.6q.6 1.1 1 2.3l-.9-1.5q0 .8.3 1.5c-.8-1.2-1.3-2-.5-3.4l-1 .1.6-1.5-.4.2q-.1-.7 0-1.6c-.5 1.2-.4 2.5-1 3.7-1-.4-.5-1-.4-1.7.1-.9-.9-1.6-1.3-2.3.1.8.6 1.6.1 2.3a5 5 0 0 0-2.5-3c-1.3-.8-1.5-3-2.2-4.6"/><path d="M1998 521.7q-.1.5.5.8zm1.5 3.8 1 1.5q-.4-1.2-1.3-2.2zm3.7.5c-.2.5.5 1.2.9 1.5q0-1-.9-1.6m2.8 9.3-1 .3c2.3 2.7 2.3-.4 1-.3m2-4.2c-.4-.9-1.5-.9-2-1.6-1.1 1 1 3 2 1.6m8.3 27c-.5.5-2.2 2.2-1.2 3 .7-.8 1.8-1.8 1.2-3m1.7 2.8c-.2.3-.4.2 0 .7zm19.8-5c-.4.1-.5 1.7 0 1.7 1 0 1-1.6 0-1.8m7 36.5q.4-.3.4-.8-1.3-.3-.4.8m1 5.5q0-.8-.5-1.5zm-.2-4.4h.4l-.7-.8zm1-7q.6-1-.5-1.5zm1.5 19.5q0-1.4-1.2-2.1l-.4.7c1-.5 1.3.7 1.6 1.4m-1.3-6.3c1.2-.1 1-2.3.6-3zm.5-8c.4.6 2-2.7-.3-2.2q.3 1.1.3 2.2m.3 20.5.2.8q.6-.4.6-1.3zm1-14q.3.7 1 .7c.3-2.3-2.3-2.7-1-.6m-.1-3.4.6 1 .7-.6q-.8-.4-1.4-1.1z"/><path d="M2048.4 591.1c.2-.4.4-.2.1-.8z"/></g></svg>
