<svg xmlns="http://www.w3.org/2000/svg" viewBox="1932.43 438.67 186.99 186.99"><g id="mm" fill="#2B1D24">
		
		<path id="Myanmar_mainland" d="m 1992.63,515.21 c 0.1,-0.554 -0.22,-2.045 0.59,-2.137 1.02,-0.114 1.55,0.897 2.87,1.201 -0.77,-1.854 -1.04,-3.857 -1.39,-5.814 0,-0.02 0.88,-0.756 0.67,-1.602 0.73,0.262 1.14,1.815 2.04,1.53 0.65,-0.204 0.36,-1.48 0.48,-1.963 1.51,0.881 0.86,-1.338 0.59,-2 -0.78,-1.86 -0.63,-3.305 -0.88,-5.273 1.48,1.103 1.54,-1.167 1.51,-2.103 -0.1,-2.307 -0.5,-4.292 -1.29,-6.465 0.34,-0.02 0.65,0.08 0.92,0.299 0.68,0.458 0.64,0.123 1.45,-0.02 0.82,-0.146 3.25,0.876 3.89,1.38 0,-3.304 4.52,-9.193 1.96,-11.766 -1.36,-1.365 1.52,-3.268 1.83,-4.632 0.36,-1.589 0.84,-2.508 0,-3.915 -0.65,-1.158 -0.85,-3.383 0.41,-4.24 0.39,-0.267 1.58,0.09 1.65,-0.606 0.1,-0.646 1.36,-1.075 1.85,-1.549 0.63,-0.6 0.98,-1.21 1.4,-1.961 0.71,-1.277 2.57,-1.091 3.81,-1.283 0.6,-0.09 1.33,-0.511 1.86,0 0.71,0.681 1.44,2.271 2.75,1.733 -0.2,-1.106 -1.29,-1.641 -1.96,-2.429 -1.22,-1.441 -0.4,-2.551 0.69,-3.648 1.58,-1.574 0.75,-1.325 0.75,-3.026 0,-0.603 0.48,-0.452 0.43,-1.01 -0.1,-0.693 0.57,-1.657 0.59,-2.342 1.34,1.496 4.05,1.738 5.14,3.649 0.39,0.693 0.27,1.548 0.62,2.255 0.47,0.958 1.18,1.778 1.66,2.736 0.56,-0.199 0.86,-0.649 0.57,-1.225 2.98,1.388 3.24,4.425 4.05,7.379 0.4,1.457 0.53,2.661 0.58,4.233 0,0.624 0.71,2.688 -0.88,2.068 0.38,0.6 2.7,2.98 0.32,2.342 -0.37,-0.1 -1.06,1.132 -1,1.427 0.2,0.94 -1.06,0.731 -1.55,0.696 -0.15,0.529 -0.27,4.479 -1.95,2.952 0.1,1.332 -0.63,2.328 0.15,3.6 -1.34,0.105 -1.2,0.939 -1.15,1.991 0.1,1.09 0.88,1.193 1.26,2.037 0.17,0.368 0.72,1.523 0.56,1.937 -0.29,0.72 -1.42,1.657 -0.5,2.382 0.43,0.338 2.89,-1.609 3.31,-1.844 1.81,-1.02 3.98,0.619 5.73,-0.67 0.28,1.125 -1.19,1.568 -0.82,2.686 0.21,0.634 0.73,0.95 1.16,1.418 0.55,0.591 -0.21,1.243 0.16,1.578 1.26,1.132 0.9,2.72 2.01,3.217 1.51,0.677 2.91,-0.72 4.01,1.901 -1.66,-0.124 -0.98,2.453 -0.85,3.465 0.15,1.103 -1.71,3.847 0,3.652 0.96,-0.111 4.04,-0.541 5.17,0.484 1.2,1.093 -0.57,3.095 1.85,3.127 -0.33,0.502 -0.1,1.426 0.27,1.853 0.56,0.693 1.09,-0.815 1.87,-0.313 1.6,1.036 3.7,-1.498 4.92,-2.403 0.1,1.255 1.04,1.957 -0.12,3.002 -0.54,0.482 -1.75,0.848 -2.07,1.403 -0.24,0.436 -1.81,4.102 -0.33,3.227 -0.12,1.069 -1.82,0.53 -2.45,1.008 -1.1,0.834 -0.73,2.505 -1.01,3.672 -0.65,-1.434 -2.62,0.2 -4.39,0.288 0.47,0.606 0.96,1.228 0.17,1.581 -0.78,0.35 -1.82,0.21 -2.54,0.269 -0.9,0.07 -0.37,1.696 -0.54,2.286 -0.18,0.661 -0.81,0.762 -1.29,0.441 -0.46,-0.315 -1.49,0.749 -2.44,0.905 -0.33,0.05 -3.26,-0.592 -3.25,-0.6 0.3,-0.316 -1.72,2.026 -1.58,3.139 0.1,0.572 0.38,1.008 0.48,1.542 0.12,0.726 -0.71,1.848 -0.55,2.551 0.22,0.933 1.2,1.947 0.55,2.914 -0.58,0.873 -2.51,0.994 -3.05,-0.05 0.3,1.065 0.95,3.031 2.45,2.592 -0.13,0.679 0.35,1.228 0.71,1.736 0.57,0.8 0.29,1.644 0.55,2.44 0.48,1.487 2.53,3.114 3.45,4.237 1.11,1.343 2.59,1.77 3.43,3.827 0.68,1.672 0.86,3.537 2.08,5.04 0.4,-0.441 0.69,-0.945 0.87,-1.513 0.91,0.749 0.75,2.285 -0.1,2.952 -0.82,0.669 -1.84,-0.06 -1.44,1.848 0.2,0.97 0.65,2.836 0.53,3.913 -0.1,0.852 -1.59,0.72 -1.33,1.728 -0.7,-0.629 -1.12,-0.115 -1.27,0.652 -0.22,1.099 0.35,2.501 0.89,3.426 1.47,2.504 3.98,4.301 5.58,6.316 1.71,2.156 2.65,4.383 2.32,6.872 -0.15,1.146 -0.37,1.171 0.18,2.467 0.52,1.229 0.68,1.822 1.44,2.9 0.75,1.072 1.23,1.954 1.37,3.094 0.14,1.213 1.25,3.282 1.56,3.971 0.54,1.206 -0.99,3.385 -1.93,4.832 -0.82,1.262 -1.76,2.482 -3.02,4.691 -0.58,1.024 0.1,1.603 -0.35,2.487 -0.65,1.299 -0.72,2.645 -1.49,3.94 -0.86,-1.354 -0.74,-3.344 -1.09,-4.863 -0.15,-0.621 -0.48,-1.156 0.13,-1.538 0.75,-0.465 0.18,-0.744 0.54,-1.322 0.78,-1.245 0.95,-2.736 0.65,-4.197 -0.14,-0.692 -0.57,-2.989 0.69,-2.985 -0.2,-0.333 -0.3,-0.693 -0.29,-1.08 -0.35,0.483 -0.86,0.859 -1.44,1.008 -0.18,-1.028 1.23,-1.588 -0.22,-1.439 1.66,-0.794 -0.78,-2.05 0.58,-2.809 -0.6,0.158 -1.1,-0.151 -1.3,-0.72 0.39,-0.06 0.75,-0.203 1.08,-0.433 -0.66,-0.352 -1.11,-1.133 -0.1,-1.367 -0.89,-0.295 -0.36,-1.159 -0.49,-1.959 -0.22,-1.33 -0.73,-2.728 -1.24,-3.973 -0.54,-1.309 -1.33,-2.562 -1.97,-3.831 -0.6,-1.209 -0.66,-2.669 -1.48,-3.773 0.38,1.029 0.85,3.382 0.1,4.319 0.27,-0.853 -0.46,-1.616 -0.53,-2.437 -0.1,-0.774 -0.1,-2.042 -0.27,-2.747 -0.17,-0.669 -2.92,-5.397 -1.22,-4.464 -0.1,-0.286 -0.19,-0.55 -0.36,-0.792 -0.24,0.144 -0.48,0.288 -0.72,0.432 -1.24,-3.095 -0.97,-6.559 -2.1,-9.643 -0.22,-0.597 -0.75,-0.921 -1.02,-1.473 -0.23,-0.492 0,-1.071 0,-1.587 0,-0.944 -0.72,-2.788 0.52,-3.28 -0.8,0.127 -2.19,0.678 -2.79,-0.1 -1.08,-1.417 -1.94,-2.975 -2.04,-4.797 -0.71,0.474 -0.57,-0.565 -1.18,-1.121 -0.52,-0.479 -1.19,-0.894 -1.41,-1.615 -0.15,0.183 0.11,1.736 0.11,2.09 0,1.219 0.72,2.466 0.1,3.741 -0.47,0.924 -1.07,2.206 -2.26,2.304 -1.23,0.102 -2.63,-1.555 -1.73,-2.664 -1.42,0.357 -0.19,1.404 0.19,2.279 0.52,1.211 -0.75,2.596 -1.85,1.465 1.17,0.826 -1.16,2.293 -2.02,1.439 0.29,1.104 -0.58,4.851 -2.4,4.164 -0.93,-0.354 -0.1,-2.843 -0.26,-3.588 0,0.07 -0.98,3.496 -0.5,1.224 -0.3,0.615 -0.42,1.264 -0.36,1.944 -0.9,-0.443 -1.15,-2.403 -0.44,-2.952 -1.06,-0.695 -0.64,4.324 -2.08,3.074 -0.68,-0.595 -0.1,-3.847 0.5,-4.154 -1.05,0.413 -1.34,2.563 -1.87,3.528 -0.31,-0.186 -0.58,-0.426 -0.79,-0.72 0.88,-0.369 1,-1.279 1.22,-2.088 -0.41,0.707 -0.58,1.765 -1.58,1.871 1.08,-1.461 0.59,-3.298 0.79,-4.968 -0.14,0.01 -0.29,0.01 -0.43,0 0.56,1.202 -1.07,3.892 -2.19,4.342 -1.62,0.651 -0.31,-6.197 -0.1,-6.956 0.21,-0.762 0,-3.011 0.4,-3.411 1.07,-1.014 -0.1,-3.866 -0.6,-4.984 -0.65,-1.438 -0.43,-3.623 -1.5,-4.802 -0.45,-0.5 -0.71,-1.151 -1.01,-1.748 -0.43,-0.895 -1.62,-1.423 -0.4,-1.665 -0.85,-0.587 -1.87,-0.785 -1.87,-2.027 0,-0.925 0,-2.412 -0.44,-3.229 0.12,0.673 0.42,2.223 -0.79,1.367 0.56,0.682 1,2.039 0.58,2.881 -1.74,-0.709 -2.81,-2.511 -3.83,-3.989 -0.28,-0.404 0.6,-0.815 0.9,-0.266 0.23,0.413 0.82,0.557 1.23,0.677 0.94,0.271 2.14,-0.227 1.27,-1.369 -0.48,-0.645 -2.67,-1.477 -1.37,-2.397 -0.59,-0.01 -1.16,-0.08 -1.73,-0.216 0.18,-0.489 0.25,-0.993 0.21,-1.512 -0.66,0.323 -1.57,-0.455 -1.94,-0.916 -0.68,-0.861 -1.27,-0.255 -2.23,-0.668 0.33,0.769 0.76,1.5 1.01,2.304 -0.31,-0.495 -0.6,-1 -0.87,-1.512 -0.13,0.525 0,1.006 0.29,1.44 -0.86,-1.18 -1.32,-1.92 -0.57,-3.313 -0.33,0.06 -0.67,0.09 -1.01,0.07 0.2,-0.511 0.41,-1.015 0.64,-1.512 -0.14,0.03 -0.26,0.104 -0.35,0.216 -0.15,-0.552 -0.15,-1.104 0,-1.656 -0.5,1.209 -0.42,2.561 -1.01,3.744 -0.96,-0.422 -0.52,-0.948 -0.41,-1.705 0.12,-0.882 -0.89,-1.61 -1.32,-2.255 0.13,0.734 0.56,1.516 0.1,2.231 -0.36,-1.333 -1.36,-2.411 -2.5,-3.036 -1.31,-0.713 -1.54,-3.01 -2.18,-4.521"></path>
		<path id="path4568" d="m 1997.96,521.69 c 0,0.371 0.11,0.636 0.5,0.792 -0.17,-0.264 -0.33,-0.529 -0.5,-0.792"></path>
		<path id="path4570" d="m 1999.54,525.51 c 0.33,0.479 0.62,0.983 0.87,1.512 -0.21,-0.819 -0.56,-1.62 -1.16,-2.231 0.1,0.239 0.19,0.479 0.29,0.719"></path>
		<path id="path4572" d="m 2003.22,525.94 c -0.25,0.578 0.49,1.23 0.86,1.513 0,-0.616 -0.38,-1.153 -0.86,-1.513"></path>
		<path id="path4574" d="m 2006.02,535.16 c -0.4,0.02 -0.75,0.141 -1.08,0.36 2.34,2.691 2.36,-0.41 1.08,-0.36"></path>
		<path id="path4576" d="m 2007.97,530.98 c -0.42,-0.847 -1.47,-0.877 -2.02,-1.584 -1.05,1.065 1.05,3.05 2.02,1.584"></path>
		<path id="path4578" d="m 2016.32,557.98 c -0.49,0.531 -2.26,2.198 -1.23,2.952 0.74,-0.779 1.81,-1.762 1.23,-2.952"></path>
		<path id="path4580" d="m 2017.98,560.79 c -0.2,0.342 -0.35,0.237 0,0.72 0,-0.24 0,-0.48 0,-0.72"></path>
		<path id="path4582" d="m 2037.78,555.75 c -0.39,0.172 -0.51,1.728 0,1.728 0.98,0 0.95,-1.607 0,-1.728"></path>
		<path id="path4584" d="m 2044.83,592.18 c 0.21,-0.224 0.33,-0.487 0.36,-0.792 -0.86,-0.141 -0.98,0.123 -0.36,0.792"></path>
		<path id="path4586" d="m 2045.77,597.65 c 0,-0.543 -0.15,-1.022 -0.51,-1.439 0.2,0.466 0.37,0.946 0.51,1.439"></path>
		<path id="path4588" d="m 2045.55,593.26 c 0.14,0 0.28,0 0.43,0 -0.18,-0.292 -0.4,-0.557 -0.65,-0.792 0.1,0.264 0.15,0.528 0.22,0.792"></path>
		<path id="path4590" d="m 2046.56,586.28 c 0.45,-0.575 0.2,-1.168 -0.43,-1.439 0.14,0.481 0.28,0.96 0.43,1.439"></path>
		<path id="path4592" d="m 2048.14,605.79 c -0.1,-0.843 -0.51,-1.613 -1.22,-2.088 -0.19,0.214 -0.33,0.454 -0.43,0.72 0.98,-0.477 1.35,0.714 1.65,1.368"></path>
		<path id="path4594" d="m 2046.78,599.45 c 1.21,-0.08 1.09,-2.277 0.57,-2.952 -0.25,0.971 -0.44,1.96 -0.57,2.952"></path>
		<path id="path4596" d="m 2047.28,591.53 c 0.37,0.525 2,-2.688 -0.29,-2.232 0.14,0.737 0.44,1.466 0.29,2.232"></path>
		<path id="path4598" d="m 2047.64,612.05 c 0,0.24 0.1,0.479 0.14,0.72 0.45,-0.286 0.66,-0.694 0.65,-1.224 -0.28,0.142 -0.54,0.31 -0.79,0.504"></path>
		<path id="path4600" d="m 2048.58,598.09 c 0.17,0.416 0.48,0.632 0.93,0.647 0.36,-2.339 -2.25,-2.784 -0.93,-0.647"></path>
		<path id="path4602" d="m 2048.50,594.70 c 0.19,0.334 0.39,0.67 0.58,1.008 0.28,-0.168 0.52,-0.385 0.72,-0.648 -0.58,-0.226 -1.06,-0.586 -1.44,-1.08 0,0.24 0.1,0.48 0.14,0.72"></path>
		<path id="path4604" d="m 2048.43,591.10 c 0.14,-0.386 0.39,-0.243 0.1,-0.792 0,0.263 -0.1,0.528 -0.1,0.792"></path>
	</g></svg>
