<svg xmlns="http://www.w3.org/2000/svg" viewBox="1877.93 163.3 261.78 261.78"><path id="mn" d="m 1895.98,274.542 c 1.7,0.145 1.05,-0.968 1.39,-1.982 0.72,-2.173 4.53,0.402 4.3,-1.042 1.18,0.07 1.53,0.617 2.23,0.07 -0.14,-0.243 -0.28,-0.482 -0.43,-0.72 1.27,-0.2 1.88,-0.481 3.1,-0.937 -0.57,-0.348 -0.94,-0.964 -1.16,-1.584 0.32,-0.224 2.43,-0.43 2.21,-1.002 -0.29,-0.738 0.7,-0.716 1.21,-1.046 0.69,-0.456 1.9,-0.346 2.37,-0.71 0.55,-0.428 1.18,-1.334 2.3,-1.782 0.7,-0.278 1.42,-0.02 2.02,-0.769 0.45,-0.558 0.61,-1.046 1.35,-1.153 0.85,-0.123 3.54,0.07 2.8,-1.503 1.44,-0.02 2.04,1.662 2.92,1.293 0.24,-0.104 1.17,-1.046 1.48,-0.701 0.68,0.75 0.69,1.526 1.87,1.551 1.56,0.03 3.2,0 4.75,-0.05 1.72,-0.06 3.11,0.186 4.19,1.664 2.03,2.799 4.24,3.017 7.4,3.733 1.72,0.389 2.47,-0.423 4.02,-0.432 0.15,0 1.71,0.141 1.88,0.173 1.68,0.312 3.78,0.63 5.74,0.9 1.33,0.183 3.38,1.766 3.99,0.686 0.63,-1.116 1.11,-1.158 2.25,-1.421 1.1,-0.251 1.02,-1.876 0.96,-2.745 -0.1,-1.193 -0.85,-1.813 -1.86,-2.247 -1.56,-0.667 -2.03,-2.073 -3.34,-2.992 -0.94,-0.658 -2.16,-5.112 0,-4.405 -0.48,-1.021 -0.66,-2.115 0.66,-2.512 1.31,-0.394 1.04,-2.109 0.78,-3.104 1.61,0.394 3,1.07 4.7,1.662 1.63,0.568 3.22,1.336 4.95,1.578 1.77,0.246 3.12,0.565 4.92,0.803 1.62,0.217 4.06,1.64 5.6,1.233 3.02,-0.798 6.02,1.663 6.48,3.615 0.3,1.264 1.8,2.102 2.53,3.128 0.91,1.272 3.01,2.027 3.92,2.528 1.06,0.587 2.66,0.107 4.06,1.323 0.49,0.426 2.48,0.714 3.5,0.358 1.43,-0.497 1.55,0.201 3.52,-0.557 1.51,-0.583 3,-1.103 4.51,-1.477 2.99,-0.741 7.15,0.278 10.21,0.57 1.53,0.146 2.69,1.305 3.95,2.081 2.01,1.236 3.6,0.793 5.78,1.243 1.12,0.232 1.72,1.265 2.41,2.038 0.88,0.98 1.95,1.375 3.08,2.035 1.64,0.962 3.18,1.22 4.54,1.132 2.3,-0.149 3.79,0.437 5.82,0.854 1.62,0.332 3.05,0.249 4.68,0.32 1.19,0.05 2.77,0.617 3.48,-0.1 1.15,-1.161 1.96,-1.448 4.2,-1.618 0.94,-0.07 3.67,-1.091 5.33,-0.917 1.48,0.156 2.36,-0.15 2.73,-1.595 0.41,-1.561 1.47,-2.34 2.77,-3.231 1.24,-0.845 1.76,-1.099 3.36,-1.323 1.42,-0.2 2.88,-0.306 4.66,0.918 1.23,0.844 2.93,1.842 4.42,2.086 1.32,0.214 2.11,-0.231 3.24,-0.743 1.67,-0.754 4.3,0.502 4.99,1.26 l 0.87,12.358 c 1.39,1.15 -1.03,1.686 -0.24,2.744 0.77,1.032 2.42,2.106 3.26,2.54 1.2,0.619 1.66,-1.153 3.01,-1.042 1.73,0.141 3.34,-0.411 5.01,0.375 1.36,0.636 2.23,1.273 3.33,-0.155 0.94,-1.24 1.55,-1.891 3.21,-1.778 2.84,0.194 6.35,2.31 8.72,3.822 2.74,1.745 5.68,3.294 7.95,5.695 2.66,2.82 -1.74,2.647 -3.51,2.35 -1.18,-0.198 -2.36,-1.341 -3.25,-0.499 -0.29,0.272 -1.84,-0.208 -2.26,-0.181 -1.28,0.08 -2.14,0.729 -3.23,1.288 -0.77,0.391 -2.4,-0.666 -2.63,0.257 -0.25,1.006 -0.19,1.499 -1.44,1.421 -1.46,-0.09 -2.9,-0.281 -3.57,1.306 -0.25,0.59 -0.38,1.241 -0.4,1.879 0,0.689 0.84,1.36 0.69,1.909 -0.15,0.588 -2.11,2.014 -2.64,2.456 -0.98,0.822 -2.72,0.843 -3.93,0.815 -0.9,-0.02 -2.42,-0.818 -2.96,0.251 -0.51,1 -0.64,2.202 -1.49,3.03 -0.56,0.547 -1.23,0.411 -1.67,1.126 -0.33,0.541 -0.59,1.046 -1.3,0.985 -1.53,-0.131 -3.15,-0.421 -4.64,-0.737 -2.52,-0.533 -5.42,-3.57 -8.06,-1.551 -1.02,0.775 -0.96,2.09 -0.52,3.171 0.27,0.677 -0.2,1.304 0,1.974 0.21,0.705 0.82,0.767 1.29,1.224 0.91,0.896 6.87,4.213 4.37,5.3 -0.63,0.277 -1.55,1.315 -2.06,1.817 -0.69,0.688 -2,0.803 -2.38,1.822 -0.54,1.484 -1.06,3.184 -2.3,4.258 -1.01,0.871 -2.78,1.261 -3.98,1.986 -1.36,0.823 -3.83,0.587 -5.38,0.66 -2,0.1 -3.71,-0.346 -5.7,-0.03 -4.15,0.661 -7.68,1.098 -11.51,3.049 -1.56,0.791 -3.15,1.559 -4.51,2.665 -1.23,1.002 -1.01,1.164 -2.46,1.031 -0.89,-0.08 -1.85,0 -2.58,-0.592 -1.42,-1.155 -1.54,-1.195 -3.54,-0.982 -3.65,0.386 -7.26,-1.5 -10.8,-2.14 -1.66,-0.299 -3.46,-0.61 -4.99,-1.343 -1.67,-0.799 -2.7,-2.429 -4.62,-2.778 -1.69,-0.307 -3.41,-0.04 -5.11,-0.392 -1.48,-0.302 -2.98,-0.542 -4.47,-0.774 -1.74,-0.272 -2.98,0.701 -4.68,0.882 -2.21,0.233 -4.59,-0.386 -6.81,-0.458 -3.74,-0.121 -7.42,-1.628 -11.16,-1.223 -1.06,0.114 -2.91,0.668 -3.95,0.213 -0.48,-0.215 -0.77,-0.787 -0.99,-1.23 -0.36,-0.727 -1.37,-1.172 -2.03,-1.549 -2.9,-1.646 -4.23,-4.789 -6.63,-6.94 -0.92,-0.826 -2.38,-0.98 -2.54,-2.431 -0.15,-1.427 -3.19,-0.788 -4.51,-1.402 -1.52,-0.709 -3.13,-1.458 -4.55,-2.36 -1.28,-0.815 -2.75,-0.741 -3.99,-1.726 -2.84,-2.246 -6.69,-1.291 -10,-1.622 -2.74,-0.275 -5.55,-0.753 -8.26,-1.127 -2.38,-0.329 -5.52,-1.965 -5.84,-4.68 -0.15,-1.289 1.51,-2.528 0.59,-3.63 -1.17,-1.397 -0.56,-3.183 -1.59,-4.466 -1.33,-1.64 -2.41,-2.893 -4.18,-4.07 -1.62,-1.081 -2.09,-2.559 -3.32,-3.941 -0.82,-0.916 -2.35,-1.457 -3.36,-2.26 -0.93,-0.75 -0.31,0.26 -1.12,0.277 -0.65,0.01 -1.27,-0.516 -1.78,-0.849 -1.35,-0.881 -1.5,-0.6 -2.95,-0.504 -1.84,0.121 -3.7,-1.177 -5.08,-2.236 -1.07,-0.816 -2.16,-1.76 -3.51,-2.085 -1.28,-0.31 -1.9,-0.239 -1.85,-1.467 0,-0.895 -2.18,-1.042 -2.56,-1.894 -0.14,-0.292 0.3,-0.302 0.4,-0.481 0.29,-0.506 -0.81,-1.387 -1.01,-1.771" fill="#2B1D24">
		
	</path></svg>
