<svg xmlns="http://www.w3.org/2000/svg" viewBox="1877.9 163.3 261.8 261.8"><path fill="#2b1d24" d="M1896 274.5c1.7.2 1-1 1.4-2 .7-2.1 4.5.5 4.3-1 1.2 0 1.5.6 2.2 0l-.4-.6c1.2-.2 1.9-.5 3-1a3 3 0 0 1-1-1.6c.2-.2 2.3-.4 2.1-1-.3-.7.7-.7 1.2-1 .7-.5 2-.3 2.4-.7.5-.4 1.2-1.3 2.3-1.8.7-.3 1.4 0 2-.8.5-.5.6-1 1.4-1.1s3.5 0 2.8-1.5c1.4 0 2 1.6 2.9 1.3.2-.1 1.2-1 1.5-.7.6.7.7 1.5 1.8 1.5h4.8c1.7 0 3.1.2 4.2 1.6 2 2.8 4.2 3 7.4 3.8 1.7.4 2.4-.5 4-.5a40 40 0 0 1 7.6 1.1c1.3.2 3.4 1.8 4 .7s1.1-1.2 2.3-1.4c1-.3 1-1.9 1-2.8q-.4-1.7-2-2.2c-1.5-.7-2-2-3.3-3-1-.7-2.1-5.1 0-4.4-.5-1-.6-2.1.7-2.5s1-2.1.8-3.1l4.7 1.6c1.6.6 3.2 1.4 5 1.6l4.8.8c1.7.2 4 1.7 5.6 1.2 3-.7 6 1.7 6.5 3.7.3 1.2 1.8 2 2.5 3 1 1.4 3 2.1 4 2.6s2.6.1 4 1.3c.5.5 2.5.8 3.5.4 1.5-.5 1.6.2 3.5-.6l4.6-1.4c3-.8 7.1.2 10.2.5 1.5.2 2.7 1.3 4 2.1 2 1.3 3.5.8 5.7 1.3 1.1.2 1.7 1.2 2.4 2q1.4 1.3 3 2 2.6 1.4 4.6 1.2c2.3-.2 3.8.4 5.8.8 1.7.4 3 .3 4.7.3 1.2 0 2.8.7 3.5 0 1.2-1.2 2-1.5 4.2-1.7 1 0 3.7-1 5.3-.9q2.2.5 2.8-1.6c.4-1.6 1.4-2.3 2.7-3.2a6 6 0 0 1 3.4-1.3c1.4-.2 2.9-.4 4.6.9 1.3.8 3 1.8 4.5 2 1.3.3 2-.2 3.2-.7 1.7-.7 4.3.5 5 1.3l.9 12.3c1.4 1.2-1 1.7-.3 2.8.8 1 2.4 2 3.3 2.5 1.2.6 1.6-1.1 3-1 1.7.1 3.3-.4 5 .4 1.4.6 2.2 1.2 3.3-.2 1-1.2 1.6-1.9 3.2-1.8a22 22 0 0 1 8.8 3.8c2.7 1.8 5.6 3.3 8 5.7 2.6 2.9-1.8 2.7-3.6 2.4-1.2-.2-2.4-1.4-3.2-.5-.3.3-1.9-.2-2.3-.2-1.3 0-2.1.7-3.2 1.3-.8.4-2.4-.7-2.7.3-.2 1-.2 1.4-1.4 1.4-1.5-.1-2.9-.3-3.6 1.3q-.3.9-.4 1.9c0 .6.9 1.3.7 1.9-.1.6-2 2-2.6 2.4-1 .8-2.7.9-4 .8-.9 0-2.4-.8-3 .3-.4 1-.6 2.2-1.4 3-.6.6-1.2.4-1.7 1.1q-.3 1-1.3 1l-4.6-.7c-2.5-.5-5.4-3.6-8-1.6q-1.3 1.4-.6 3.2c.3.7-.2 1.3 0 2s.8.8 1.3 1.2c1 1 6.9 4.2 4.4 5.3a7 7 0 0 0-2 1.8c-.8.7-2 .8-2.5 1.8-.5 1.5-1 3.2-2.3 4.3-1 .9-2.8 1.3-4 2-1.3.8-3.8.6-5.3.7-2 0-3.7-.4-5.7 0-4.2.6-7.7 1-11.5 3q-2.5 1-4.6 2.6c-1.2 1-1 1.2-2.4 1q-1.5.1-2.6-.5c-1.4-1.2-1.5-1.2-3.5-1-3.7.4-7.3-1.5-10.8-2.1q-2.7-.4-5-1.4c-1.7-.8-2.7-2.4-4.6-2.8-1.7-.3-3.5 0-5.2-.4l-4.4-.7c-1.8-.3-3 .7-4.7.8-2.2.3-4.6-.3-6.8-.4-3.8-.1-7.4-1.6-11.2-1.2-1 0-2.9.6-4 .2q-.6-.5-1-1.2c-.3-.8-1.3-1.2-2-1.6-2.8-1.6-4.2-4.8-6.6-7-.9-.8-2.4-1-2.5-2.4s-3.2-.8-4.5-1.4q-2.4-1-4.6-2.3c-1.3-.8-2.7-.8-4-1.8-2.8-2.2-6.7-1.2-10-1.6l-8.2-1.1c-2.4-.3-5.5-2-5.9-4.7-.1-1.3 1.5-2.5.6-3.6-1.1-1.4-.5-3.2-1.6-4.5a18 18 0 0 0-4.1-4c-1.7-1.1-2.1-2.6-3.4-4-.8-1-2.3-1.5-3.3-2.3s-.3.3-1.1.3q-1-.2-1.8-.8c-1.4-1-1.5-.6-3-.5-1.8 0-3.7-1.2-5-2.3q-1.6-1.4-3.6-2c-1.2-.4-1.9-.3-1.8-1.5 0-1-2.2-1-2.6-2q0-.2.4-.4c.3-.5-.8-1.4-1-1.8"/></svg>
