<svg xmlns="http://www.w3.org/2000/svg" viewBox="1157.6 453.8 125.7 125.7"><g fill="#2b1d24"><path d="M1178.4 529q.7-1 .6-2.3c-.5.6-1 1.5-.6 2.3"/><path d="M1174.6 515.2c.2-.3.7-1.2 1.6-1.3h28c1.3-.8.4-7 .3-9.3s-.4-4 1.5-5.7c1.6-1.5 1.5-1.2 6.6-3.2l1.1-21.9 24.9-.3.3-11q14.2 9.5 28 19.7h-13.3l5.4 73c.5 1.1 1.7 1.7 1.8 2 .7 1.8-.2 2.4-.3 3.8 0 1.7-.2 3.2-.7 3.3h-15.9c-9 .4-12.9 1.6-13.7-1-.4 2.4-4 2.8-5.7 2-2.8-1-4.6-.6-5.7 2.6q-1-1.6-2.6-3-1.8-1.7-2.8-1.3c-2.3 1.2.9 7.6-4.8 7.2 0 .1-1.5-1-1.9-1.9-.5-1-1-.6-2-1.4-1-1-1-2.4-1.9-3-2.3-1.5-1.4-1.5-1.6-2.6s-1.6-2.9-2.2-2.9c-3.4 0-3.6-2.8-5.8-3.9a8 8 0 0 0-3.6-.8c-2.4-.1-3.2 2.2-8.5 1.8-1.1-.1-1-.9-2-.6s-2 3.4-2.4 4.1c0-5.2 3.5-9.4 4-14.5.3-3-.2-5.7-.6-8.7-.1-1 0-2.2-.7-3.2-.6-.8-1.7-1.3-1.8-2.4.8.2 1.7-.4 1.6-1.2q-.9.2-1.2 1c.2-1 1-1.7 1.5-2.7.3-.6-.1-1.5.2-1.9 1.6-1.8-.8-5-1.4-6.7l-.5 1.3c-1.6-1.2-1.2-3.7-2.8-4.9l-.9 3.2a6 6 0 0 1 .5-3.7"/></g></svg>
