<svg xmlns="http://www.w3.org/2000/svg" viewBox="1157.58 453.79 125.72 125.72"><g id="mr" fill="#2B1D24">
		
		<path id="path3878" d="m 1178.38,528.97 c 0.51,-0.641 0.61,-1.447 0.65,-2.232 -0.58,0.553 -1.08,1.421 -0.65,2.232"></path>
		<path id="Mauritania_mainland" d="m 1174.6,515.237 c 0.16,-0.371 0.67,-1.265 1.64,-1.315 l 27.88,-0.03 c 1.42,-0.747 0.44,-6.909 0.35,-9.281 -0.17,-2.384 -0.41,-3.937 1.5,-5.746 1.6,-1.514 1.54,-1.128 6.63,-3.207 l 1.12,-21.833 24.87,-0.291 0.34,-11.071 c 9.47,6.373 18.77,12.937 27.9,19.782 h -13.21 l 5.42,72.911 c 0.45,1.192 1.68,1.706 1.79,1.985 0.72,1.855 -0.23,2.415 -0.3,3.844 -0.1,1.675 -0.25,3.183 -0.74,3.363 l -15.88,0.02 c -9.03,0.312 -12.89,1.548 -13.69,-1.121 -0.39,2.416 -3.97,2.811 -5.73,2.11 -2.79,-1.107 -4.57,-0.64 -5.71,2.498 -0.65,-1.071 -1.59,-1.985 -2.56,-2.918 -1.15,-1.106 -2.25,-1.698 -2.86,-1.361 -2.29,1.269 0.9,7.651 -4.72,7.248 0,0.102 -1.51,-1.093 -1.92,-1.876 -0.51,-0.967 -1.09,-0.659 -2.06,-1.487 -1.05,-0.897 -0.98,-2.361 -1.84,-2.934 -2.31,-1.535 -1.4,-1.554 -1.61,-2.594 -0.27,-1.282 -1.57,-2.914 -2.22,-2.923 -3.4,-0.05 -3.64,-2.805 -5.84,-3.866 -1.12,-0.536 -2.08,-0.818 -3.58,-0.867 -2.33,-0.08 -3.14,2.203 -8.49,1.803 -1.13,-0.08 -0.98,-0.838 -1.94,-0.565 -0.93,0.342 -2.03,3.346 -2.4,4.133 0,-5.202 3.42,-9.445 3.92,-14.544 0.29,-3.07 -0.13,-5.666 -0.52,-8.672 -0.14,-1.084 -0.1,-2.273 -0.79,-3.192 -0.6,-0.802 -1.65,-1.372 -1.76,-2.464 0.8,0.25 1.69,-0.345 1.59,-1.224 -0.54,0.145 -0.97,0.552 -1.16,1.08 0.2,-1.044 1.04,-1.777 1.5,-2.694 0.29,-0.593 -0.14,-1.541 0.21,-1.938 1.57,-1.792 -0.83,-4.97 -1.42,-6.744 -0.24,0.428 -0.41,0.884 -0.5,1.368 -1.59,-1.202 -1.21,-3.688 -2.81,-4.896 -0.25,1.062 -0.64,2.092 -0.86,3.1635 -0.21,-1.3785 -0.1,-2.3295 0.46,-3.6545 z"></path>
	</g></svg>
