<svg xmlns="http://www.w3.org/2000/svg" viewBox="1521.92 774.32 77.98 77.98"><path id="mw" d="m 1548.94,817.129 c 0.25,-0.491 1.6,-2.661 2.08,-4.092 0.47,-1.438 0.38,-1.83 0.1,-3.71 -0.27,-1.724 3.62,-2.815 4.42,-3.667 -2.82,-0.858 -1.64,-5.488 -1.65,-7.527 0,-1.701 1.1,-2.42 0.17,-4.137 -1.07,-2.004 0.53,-1.554 1.6,-2.35 1.26,-0.935 1.57,-2.878 -0.54,-5.324 -1.69,-1.965 0.43,-2.56 -1.18,-3.627 -1.32,-0.88 -1.84,-0.843 -2.15,-1.169 -0.17,-0.179 0.32,-1.268 -0.15,-1.831 0.23,0.18 1.89,0.808 2.69,0.913 0.99,0.132 0.72,0.883 1.55,1 0.82,0.115 2.61,-0.03 3.12,0.943 0,1.308 0.1,2.851 1.68,4.779 1.44,1.737 0.1,2.09 0.29,3.479 0.18,1.181 0.61,6.728 0.63,7.373 0.1,2.554 -3.23,5.09 -2.35,6.608 3.39,5.847 2.31,5.762 2.12,6.937 -0.79,4.893 2.53,3.788 2.03,5.998 -1.24,5.459 2.04,4.571 1.89,1.973 l 2.72,3.492 c 0.63,0.325 0.26,-4.478 -1.56,-5.909 -1.65,0.25 -0.94,-1.301 -1.15,-1.744 1.3,0.634 1.45,0.724 2.98,3.048 1.02,1.538 1.92,3.15 3.29,4.748 1.52,1.774 1.56,3.477 0.99,5.726 -0.5,1.976 0.24,3.911 -0.1,5.961 -0.14,0.885 -0.41,1.937 -1.17,2.504 -0.84,0.631 -2.05,0.429 -2.85,1.118 -0.79,0.676 -0.54,2.135 -1.7,3.069 0.26,0.322 1.12,2.026 1.18,2.975 0,0.39 0,1.593 -0.36,1.995 -0.36,0.402 -1.78,0.308 -1.58,-0.434 0.43,-1.568 1.17,-1.132 -0.48,-2.715 -1.12,-1.074 -4.19,-4.089 -4.34,-5.29 -0.27,-2.093 -0.83,-1.611 -0.41,-3.25 0.2,-0.746 0.65,-2.348 1.19,-3.06 0.86,-1.13 0.71,-1.443 0.85,-2.86 0.16,-1.669 0.16,-3.884 -0.98,-5.542 -0.45,-0.65 -1.8,0.246 -3.01,0.387 -0.98,0.115 -2.45,-0.166 -2.49,0.753 -0.57,-0.62 -4.37,-5.058 -4.6,-4.966 -0.99,0.396 -3.02,-1.782 -2.77,-2.574 z" fill="#2B1D24">
		
	</path></svg>
