<svg xmlns="http://www.w3.org/2000/svg" viewBox="415 366.9 254.4 254.4"><g fill="#2b1d24"><path d="M452 417.1q9-1.1 18.1-1.6l-1.4 1.8 23.7 10h20.2v-3.7h13c1.8 0 2 .7 2.4 2.1.3 1.2 1.8 1.5 2.4 2.7.5 1 1.4 2.7 2.4 3.4s2.2 1 2.4 2.3q.5 2.4.1 5c-.5 3.7 2.9 5.4 5.5 7.2 1 .6 2.4 2 3.5 1.2q1.5-.9 2.3-2.3c.6-1.1 1.7-3 2.7-3.8.7-.5 2-.6 2.8-1q3 .1 6.3.7c.5.1 1.3 1.7 1.9 2.2.9.9 2.1 2.8 2.3 4q.7 2.6.9 5c0 1.9 1.2 3 1.8 4.5l.9 2.2c.3.6.8.5 1 1 .8 1.1-.2 3-.2 4.2 0 1.5 1.4 2.5 1.2 4.2.6 2.5 2.4 2 1.7 2 1 .2 1.6 1 2.7 1.6.8.5 1 1 1.8 1 1.8 0 3.2-.2 4.4 1.3 1 1.3 1.8-.7 3-.7-3.6 5.8-5.7 12.2-8.1 18.6-.9 4.5.6-5.2 4.1-11.3.7-1.2 1-2.7.2-2.5 0 0-.6 1.9-1.5.6 0 .6-.8 1.4-.8 1.5.6 3.2 0 2.7 0 3.7l-1.1 2.7s-.7-.6-.8-.5c0 1.4.5 1.3.5 1.9s-.7 1.6-.8 3.8c0 .5 0 .2-.5.7 1 1.6-.4 4-.5 5.7-.3 2-1.6 3.8-1.7 6q-.4 3.3 1.4 6c1.5 2 .8 2 0 4 0-.8 1-2 .4-2.6-1-1.2-1.1-2.7-1.8-4 .3 1.2-.2 2.5.3 3.7.4 1.1 1 1.3 1 2.6q.5 4.4 2.7 8c1.7 2.8 2.2 5 3 8 .2 1.2 1.2 2.2 1.6 3.4.3 1 .5 2 1.6 2.4-.6 0-1-.7-1.4-.3 1.2.3 0 2-.5 2.5 1.2 0 .2-1.3 1.2-1.5q.6 0 .7-.6 1.1.5 2.2.5 3.8.1 5.6 3.4c1 1.8 2 1.7 4 1.2 1.2-.4 3.4-.8 4.3-1.8l-2.2.8c1-.6 8.8-2.4 9-1.3-.4-2 5.5-3 6.3-1.5-1.6-.3 0 1.1-.2 1.8.5-.4 1-.2 1.6-.3l1.1.2.4-.8c1-.4 3-2.3.7-2.5l1.5-1.1-2.1 1.2c.9-1.5 2.8-2 4.2-2.9 2-1.1 2-2.8 2.9-4.6.4-1 1.3-1.4 1.9-2.2s.5-2 .6-2.9c.2-2.3 1.4-4 2-6l-.6.7c1.2-3.2 5.7-3.8 8.6-4.1q3-.4 5.8-1.6c2.6-.9 4.8.2 7.3.4q-.6-.3-1.3-.3c1.1-.3 2.3.5 3.4.8-1.9-.4 1.3-1.6 2.5-1 2 .8 1.3 3.2.7 4.8-.8 2-2.4 3-3.9 4.6q-1.2 1.2-2 2.8c-.2.6.2 3-.4 1.6.3 1.2-1.8 2.2-2 3.4 3.7-.4-1 1.8-.1 3q.4-1 1.3-1c-1 1.4-1.3 3.2-2 4.7-.7 1.2-2 3.7-2.1 5-1.7-1.8-.4-3.2-.8-5.3-1.1.8-1 .8-1.7 1.9-.4.8-1.1.8-1.9 1.2-1.6 1-2.7 3.5-3.6 5-.5-.5-1.5-1.3-2 0-.2 1-.8.5-2.2.5h-9.3c-.7 0-2.7-.3-2.8.8l-.2 2.5c-.2 2.3-2 1.6-3.8 1.6 1.3 1.3 2.3 3 3.9 3.8 1.4.8 1.3 2.5 2.7 3.2.3.1-.3 3.4-.4 3.2-2.4 1-6.3-.2-9.8 0-4.6 8.5-4 7.3-3.7 8.3.4.6-1.2 4.3-1.7 4.9l-2.2-2.5c-.4-.5-2.3-4-1-2.2-.3-1-1.6-1.4-2.2-2.1l-2.9-3.3c-2.2-2-3.4-3.9-6.3-4.9-.2 1.2 2.6 1.7 3.1 2.5q-2.5-1.6-5.5-1.8a2 2 0 0 0 1.1-1.1q-.9-.2-1.4.6c.1-1.8-1.5-1.2-1.7 0q.8 0 1.5.3c-2.7.2-4 1.8-6.4 2.6-2.2.6-4 1.6-6.3 2-1.7.4-2.4.2-4-.7a13 13 0 0 0-5.1-1.5q-1.4-.3-2.5-1.4c-1-.9-2-1-3.2-1.5-1-.4-1.2-1.2-2-1.8-.8-.8-2.4-1-3.5-1.2q-1.6-.3-3.3-.9l-3-1.9c-2.6-1.1-5.2-1.8-7.4-3.5-1.9-1.4-2.9-3.5-4.6-5-.6-.6-1.5-.3-2.2-.2-1.2.2-3.1-.6-4.2-1-1.8-.6-4.3-1.5-5.4-3l-1.5-2.6c-.8-1.4-2-1.5-3.2-2.4-.3-1.3-3.7-2-4.8-3-.6-.6-.5-1.5-1-2-.7-.7-1.4-2.3-1.8-3.2s-1.3-3.8 0-4.6c.9-.6 2-.3 2.7-1.1s-.9-1.5-1.5-1.4c.3-1 4.2-4.7 3.1-6-1-1.2-1.4-2-1.9-3.5-.5-1.6.2-2.8 0-4.5-.4-3.5-3.7-6.4-5.3-9.4a25 25 0 0 0-6.8-8.6c.8.3 1.5 1.4 2 0-1.4.2-3.8-1-3.2-2.6.4-1 .5-4.2-1.5-3.3 0-1.3-.2-.3-1-.8l-1.9-1.1q1.4.3.2-.2c-.3-.4-.2-1-.7-1.5l-1.5.8c-.2-.9.9-1 1-1.8-1 1-1.6.4-3 .1l.8-.5q-1-.8-1 .4 0-1.5.7-3c.1-.3 1.5-2.7 1.3-1.4.3-.5 1-1.6 1.4-.7.1-.7 0-1.4-.9-.8q.6-1.5-.7-2.7c-.7-.4-1.5.4-2.3-.3-.9-.8.1-3.2-1-3.5-.7-.2-3-.4-3.1-1.5 0-1.1-.2-4.9 1.3-4.9-.7 0-2.4-.3-2.1-.9q-.5.4-.7 1c0-1-1.5-1.1-2-1.8q-.6-1-1-2.3c-.2-.7-1-.8-1.4-1.4-.7-.9-.5-2.5-1.2-3.3-1.2-1.3-.2-2.6-.6-4-1.3.9-.9-1.8-1-2.5-.6-2-.6-3.2-.4-5.2 0-1.7-1.1-3.2-.7-4.9.2-.8 1.5-2.7 1.3-3.3-.5-1-2-1-2.9-1.3-1.4-.5.4-2.3-1.7-2.4-.8 0-1 .8-1.9.7-.8 0-1.4-.7-2-1.2-1-1.2-2.3-1.6-3.3-2.8 0 1 1 1.8.7 2.7l-1.9 3.6c-.5 1.2.3 2.3 0 3.5q-.2 2-.8 4c-1.2 3 .2 4.1 2 6.4a7 7 0 0 1 2.1 6c1.3-.9 1.8 1.4 2 2.2.1.4 0 1.2.4 1.5.3.3 1.4.5 1.1 1.1-.6 1.3-1 5 .2 6 1.6 1.5 1.4 4.2 3.3 5.3-1 .8-.1 3.4 0 4.5.7-.6.2-2.2 0-3 3.7.7 1 12.4 3.4 11.9a9 9 0 0 0 0 3.7c.4 1.2 1.4 1.9.5 3.2-1.2 1.7-.4 4.9 2 4.6-1.5.2-.1.3.1 0l.6-1.3c.4 1 2 2.2 2.7 2.9.4.3.3 2.5.6 3 .6 1.4 2.5 2.4.8 4-.7.7-3.3 2.7-4.3 2.3-1.2-.5-.6-3.3-1-4.4q-.8-1.1-1.8-2-1.3-1.4-2.5-3.1c-1.3-1.5-3.4-2.1-4.5-3.9-.9-1.4-3.1-2.2-2.6-4.3l-.5 1.4c.2-4.1 3.7-6.8 1.6-11-.8-1.7-2.6-2-3.6-3.5-.5-.7-1.3-1.8-1.3-2.7 0-.6.7-.7.5-1.5-.4.6-.5 1.7-1.2 2s-1.3-.4-2.1.2c-.6.4-1-.5-1.2-1-.4-.9-1.1-1-1.9-1.7l-.5-.8q-.7 0-1.3-.3c-.8-.6-.4-.9-.5-1.6-.4-1.8-3.1-2.1-3.2-4.1 1.7.2 3.9 1 5.4-.2 0 1.8 3.2 1.3 2.3 3.3.8-.7 1.3-3 .3-3.8 0 .4-.3 2.2-1.2 1.8-.5-.3.2-1.7.2-2.1l-.8.5c.9-1.9 3.5-3.6 2.5-6-1.1-2.3-2.4-5.4-4.6-7-1.7-1.3-3.2-2.4-3.6-4.7-.2-.8.4-1.5.6-2.3.3-1-.8-1.5-.3-2.1l-.7.5c-.5-1.9 1.5-2.7 0-4.5-.8-.8 0-1.5 0-2.4 0-1.1-.9-2-1-3q-.1-1.2.8-2c.5-.4-.2-1.2-.3-1.6q-.4-.4-.6-1l.2-1.4c-.1-1-.3-.7.3-1.8"/><path d="M497.7 482.3q0 .8.6 1.5a3 3 0 0 0-1.2-2.3zM433.2 446c-.9.4-.8 1.5-.3 2.2.5-.7-.1-1.5.3-2.2m20.4 7c-.5.6-2 2.5-.7 3 .4-.8 1.1-2 .7-3m13.4 30.7q0 .9.8.7-.4 1 .4 1.6c-1.4-1.8.8-4.2.7-6 0 1.3-1 2.6-1.8 3.7m3.4-36.2c.2-.9-.4-4.6-1.5-4.6-1.7-.1 1.3 4.3 1.5 4.6m-2 38.7c.6.6 1 1.3 2 1.4q-.5-1.4-2-1.4m7.5-36.4c1.2-1.2 1-2.8 1.7-4.3-2 .3-2 2.2-3.1 3.4zm2.7 23.2q-1.5.3-1.4 2c.3-.8 1.4-1.1 1.4-2m.6 8.3a3 3 0 0 0 .4 2.1c1-.7.3-1.7-.4-2.1m5.1 8.5q0-.9-.6-1.5 0 .8.6 1.5"/><path d="M498.3 481.8q-.3.8.4 1.5.2-.8-.4-1.5m5.3 29.2q0 .9 1 1 0-1-1-1m106.8 26.3c1 .2 1.7-.9 2.6-1.1-1-.1-1.9.7-2.6 1m38.6-13.9q1.5-1.1 2.3-2.9c-.9.8-3 1-2.3 2.9"/></g></svg>
