<svg xmlns="http://www.w3.org/2000/svg" viewBox="414.99 366.92 254.37 254.37"><g id="mx" fill="#2B1D24">
		
		<path id="Mexico_mainland" d="m 452.036,417.101 c 6.017,-0.595 12.023,-1.393 18.072,-1.585 -0.454,0.607 -1.094,1.065 -1.368,1.801 l 23.642,9.952 20.221,0.11 0.06,-3.827 12.951,-0.02 c 1.771,0.02 1.981,0.791 2.392,2.199 0.344,1.18 1.828,1.443 2.409,2.624 0.504,1.025 1.43,2.764 2.373,3.424 0.89,0.623 2.188,1.106 2.43,2.304 0.35,1.733 0.322,3.223 0.1,4.932 -0.493,3.788 2.85,5.462 5.492,7.248 0.922,0.623 2.351,1.947 3.508,1.236 0.834,-0.513 1.827,-1.394 2.273,-2.286 0.574,-1.149 1.727,-2.975 2.756,-3.769 0.648,-0.5 2.031,-0.686 2.792,-1.042 2.051,-0.05 4.153,0.438 6.22,0.689 0.589,0.118 1.324,1.667 1.894,2.197 0.934,0.867 2.143,2.86 2.388,4.079 0.331,1.651 0.745,3.336 0.839,5.024 0.1,1.774 1.234,2.841 1.811,4.455 0.265,0.738 0.52,1.48 0.896,2.171 0.295,0.542 0.825,0.523 1.098,0.984 0.671,1.13 -0.278,2.952 -0.285,4.154 0,1.512 1.367,2.586 1.178,4.232 0.601,2.522 2.466,1.99 1.692,2.072 1.012,0.1 1.659,0.879 2.764,1.557 0.717,0.44 0.972,0.958 1.748,0.983 1.792,0.06 3.172,-0.228 4.41,1.311 1.022,1.27 1.779,-0.689 3.058,-0.702 -3.619,5.824 -5.729,12.228 -8.155,18.553 -0.882,4.558 0.606,-5.181 4.145,-11.28 0.667,-1.149 0.907,-2.648 0.11,-2.462 0.09,0.01 -0.512,1.866 -1.458,0.586 -0.02,0.613 -0.768,1.433 -0.751,1.532 0.561,3.174 -0.08,2.705 -0.09,3.644 0,0.07 -1.012,2.566 -1.051,2.674 -0.04,0.107 -0.696,-0.539 -0.77,-0.461 0.06,1.408 0.466,1.262 0.435,1.864 -0.03,0.603 -0.662,1.686 -0.78,3.833 -0.03,0.504 -0.03,0.22 -0.488,0.684 1.056,1.637 -0.37,3.985 -0.54,5.688 -0.211,2.119 -1.559,3.833 -1.667,6.009 -0.111,2.23 0.136,4.247 1.459,6.1 1.423,1.993 0.773,1.909 -0.04,3.947 -0.09,-0.804 0.912,-1.937 0.417,-2.603 -0.937,-1.26 -1.144,-2.73 -1.857,-4.093 0.323,1.254 -0.194,2.588 0.288,3.816 0.435,1.106 0.989,1.22 1.074,2.563 0.177,2.804 1.301,5.712 2.71,8.063 1.621,2.703 2.188,4.882 2.9,7.89 0.298,1.26 1.227,2.196 1.643,3.399 0.359,1.04 0.485,1.992 1.609,2.492 -0.602,-0.05 -1.026,-0.773 -1.44,-0.359 1.294,0.346 -0.01,1.995 -0.432,2.52 1.215,-0.06 0.13,-1.354 1.18,-1.553 0.378,0.02 0.609,-0.155 0.692,-0.535 0.674,0.379 1.465,0.427 2.217,0.458 2.438,0.1 4.471,1.361 5.594,3.449 0.955,1.774 1.954,1.63 3.954,1.13 1.257,-0.315 3.419,-0.74 4.364,-1.725 -0.767,0.185 -1.531,0.425 -2.232,0.793 1.005,-0.602 8.829,-2.401 9.072,-1.297 -0.453,-2.016 5.483,-3.104 6.265,-1.512 -1.581,-0.284 0,1.091 -0.216,1.8 0.534,-0.455 0.964,-0.237 1.584,-0.288 0.38,0.08 0.764,0.129 1.152,0.145 0.1,-0.283 0.231,-0.548 0.402,-0.795 0.88,-0.351 2.897,-2.291 0.678,-2.445 0.488,-0.405 0.992,-0.789 1.512,-1.152 -0.709,0.426 -1.407,0.876 -2.16,1.225 0.88,-1.481 2.857,-2.042 4.262,-2.865 1.958,-1.146 1.934,-2.815 2.825,-4.651 0.463,-0.956 1.302,-1.404 1.93,-2.208 0.633,-0.811 0.472,-1.921 0.577,-2.875 0.251,-2.282 1.454,-3.935 2,-6.048 -0.16,0.288 -0.352,0.552 -0.576,0.792 1.156,-3.225 5.736,-3.841 8.643,-4.174 2.097,-0.24 3.773,-0.802 5.75,-1.53 2.582,-0.951 4.783,0.133 7.352,0.376 -0.438,-0.18 -0.895,-0.275 -1.368,-0.288 1.166,-0.299 2.305,0.42 3.384,0.721 -1.826,-0.375 1.325,-1.55 2.579,-0.979 1.872,0.853 1.292,3.258 0.696,4.776 -0.79,2.014 -2.459,3.12 -3.908,4.618 -0.759,0.786 -1.661,1.772 -2.031,2.817 -0.208,0.586 0.185,2.964 -0.432,1.656 0.292,1.169 -1.731,2.205 -1.872,3.384 3.584,-0.443 -1.021,1.812 -0.216,2.952 0.221,-0.54 0.69,-0.941 1.296,-0.936 -0.991,1.403 -1.279,3.134 -2.038,4.65 -0.62,1.239 -2.012,3.678 -2.067,5.069 -1.682,-1.868 -0.405,-3.288 -0.792,-5.328 -1.116,0.777 -1.049,0.806 -1.624,1.861 -0.464,0.851 -1.19,0.82 -1.942,1.239 -1.597,0.889 -2.738,3.417 -3.562,4.964 -0.495,-0.541 -1.548,-1.251 -1.965,0.05 -0.321,1.003 -0.881,0.453 -2.291,0.453 -3.097,0 -6.193,0 -9.29,0 -0.703,0 -2.682,-0.295 -2.828,0.78 -0.119,0.875 -0.08,1.616 -0.157,2.498 -0.216,2.349 -1.929,1.618 -3.773,1.618 1.307,1.325 2.264,2.978 3.834,3.816 1.475,0.787 1.314,2.482 2.771,3.188 0.301,0.146 -0.363,3.402 -0.45,3.183 -2.442,0.934 -6.333,-0.168 -9.768,-0.07 -4.621,8.608 -3.973,7.344 -3.711,8.375 0.351,0.569 -1.214,4.274 -1.747,4.909 -0.697,-0.872 -1.483,-1.668 -2.182,-2.539 -0.405,-0.505 -2.258,-4.05 -0.986,-2.142 -0.266,-1.049 -1.552,-1.463 -2.25,-2.157 -1.024,-1.019 -1.741,-2.274 -2.838,-3.274 -2.2,-2.006 -3.381,-3.877 -6.359,-4.864 -0.194,1.136 2.62,1.649 3.168,2.448 -1.737,-0.904 -3.533,-1.791 -5.544,-1.728 0.527,-0.202 0.951,-0.625 1.152,-1.152 -0.59,-0.09 -1.07,0.106 -1.44,0.576 0.142,-1.757 -1.497,-1.204 -1.728,0.07 0.533,-0.05 1.037,0.04 1.512,0.289 -2.68,0.18 -3.977,1.796 -6.41,2.527 -2.197,0.66 -4.022,1.657 -6.256,2.095 -1.686,0.331 -2.406,0.123 -4.063,-0.771 -1.841,-0.994 -3,-1.129 -5.045,-1.452 -1.068,-0.168 -1.717,-0.721 -2.502,-1.415 -1,-0.884 -1.978,-1.072 -3.186,-1.514 -0.979,-0.358 -1.195,-1.188 -1.93,-1.814 -0.896,-0.763 -2.471,-0.914 -3.573,-1.195 -1.088,-0.278 -2.337,-0.387 -3.354,-0.883 -1.065,-0.521 -1.857,-1.398 -2.967,-1.889 -2.564,-1.134 -5.146,-1.775 -7.41,-3.517 -1.868,-1.438 -2.883,-3.453 -4.541,-4.972 -0.649,-0.595 -1.49,-0.357 -2.254,-0.208 -1.151,0.226 -3.098,-0.592 -4.18,-0.976 -1.798,-0.638 -4.269,-1.505 -5.431,-3.108 -0.576,-0.794 -0.973,-1.679 -1.459,-2.524 -0.827,-1.438 -2.016,-1.491 -3.262,-2.359 -0.266,-1.335 -3.61,-2.018 -4.782,-3.072 -0.615,-0.553 -0.432,-1.435 -1.034,-2.032 -0.677,-0.671 -1.305,-2.223 -1.695,-3.106 -0.458,-1.035 -1.343,-3.879 -0.05,-4.677 0.899,-0.555 1.943,-0.255 2.712,-1.109 0.719,-0.799 -0.895,-1.465 -1.488,-1.339 0.333,-1.077 4.163,-4.688 3.09,-6.019 -0.987,-1.234 -1.355,-1.952 -1.874,-3.464 -0.559,-1.626 0.13,-2.876 -0.05,-4.501 -0.379,-3.488 -3.707,-6.402 -5.264,-9.449 -1.797,-3.517 -3.734,-6.115 -6.85,-8.607 0.849,0.368 1.542,1.417 1.944,0.07 -1.358,0.154 -3.688,-1.13 -3.145,-2.623 0.391,-1.075 0.494,-4.175 -1.463,-3.354 0,-1.274 -0.19,-0.31 -1.086,-0.783 -0.611,-0.324 -1.127,-0.868 -1.793,-1.088 0.879,0.176 0.954,0.115 0.223,-0.183 -0.392,-0.448 -0.293,-1.095 -0.727,-1.546 -0.442,0.397 -0.946,0.686 -1.512,0.864 -0.208,-0.911 0.886,-0.989 1.008,-1.801 -1.091,1.004 -1.649,0.396 -3.024,0.07 0.268,-0.162 0.532,-0.33 0.792,-0.504 -0.638,-0.533 -0.95,-0.389 -0.936,0.432 -0.04,-1.042 0.118,-2.073 0.609,-3.003 0.183,-0.346 1.523,-2.712 1.335,-1.388 0.28,-0.555 0.927,-1.602 1.368,-0.72 0.146,-0.753 0.04,-1.394 -0.864,-0.792 0.378,-0.928 0.242,-2.119 -0.691,-2.684 -0.739,-0.447 -1.523,0.353 -2.322,-0.366 -0.866,-0.78 0.164,-3.172 -0.902,-3.459 -0.74,-0.199 -3.128,-0.458 -3.189,-1.51 -0.07,-1.116 -0.152,-4.888 1.272,-4.869 -0.683,-0.08 -2.317,-0.327 -2.088,-0.937 -0.31,0.274 -0.526,0.61 -0.647,1.008 -0.04,-1.064 -1.504,-1.125 -2.053,-1.821 -0.469,-0.598 -0.619,-1.615 -0.897,-2.312 -0.287,-0.716 -1.107,-0.751 -1.515,-1.339 -0.629,-0.908 -0.442,-2.563 -1.128,-3.326 -1.189,-1.322 -0.276,-2.577 -0.672,-4.09 -1.269,0.981 -0.851,-1.759 -1.008,-2.376 -0.52,-2.046 -0.525,-3.22 -0.386,-5.271 0.114,-1.676 -1.07,-3.197 -0.673,-4.871 0.185,-0.776 1.515,-2.729 1.262,-3.322 -0.415,-0.973 -2.015,-0.961 -2.857,-1.258 -1.366,-0.481 0.408,-2.308 -1.747,-2.461 -0.734,-0.05 -1.031,0.801 -1.855,0.739 -0.788,-0.06 -1.433,-0.687 -1.916,-1.246 -1.017,-1.181 -2.363,-1.541 -3.419,-2.757 0.09,0.912 1.123,1.757 0.747,2.699 -0.466,1.164 -1.304,2.444 -1.877,3.595 -0.581,1.163 0.29,2.308 0.05,3.498 -0.262,1.307 -0.363,2.669 -0.861,3.918 -1.217,3.043 0.13,4.238 2.039,6.48 1.734,2.037 2.197,3.475 2.063,6.09 1.231,-0.935 1.811,1.282 1.984,2.079 0.09,0.419 0.04,1.264 0.388,1.582 0.277,0.257 1.394,0.51 1.134,1.08 -0.597,1.314 -0.958,4.912 0.211,6.012 1.578,1.486 1.386,4.145 3.267,5.23 -1.082,0.807 -0.154,3.4 -0.07,4.536 0.731,-0.634 0.296,-2.168 0.144,-2.952 3.661,0.62 0.86,12.374 3.312,11.809 -0.188,1.192 -0.286,2.573 0.07,3.744 0.378,1.237 1.358,1.905 0.445,3.21 -1.186,1.696 -0.371,4.892 2.075,4.638 -1.627,0.165 -0.191,0.218 0.03,-0.104 0.272,-0.392 0.302,-0.892 0.615,-1.265 0.379,0.936 1.891,2.25 2.657,2.876 0.421,0.345 0.318,2.499 0.583,3.1 0.602,1.364 2.562,2.325 0.787,3.976 -0.704,0.654 -3.269,2.709 -4.224,2.283 -1.254,-0.561 -0.606,-3.353 -1.121,-4.418 -0.377,-0.781 -1.06,-1.359 -1.706,-1.912 -1.043,-0.892 -1.599,-2.192 -2.5,-3.206 -1.314,-1.478 -3.377,-2.122 -4.471,-3.839 -0.917,-1.44 -3.146,-2.279 -2.605,-4.331 -0.132,0.492 -0.3,0.972 -0.504,1.439 0.213,-4.155 3.638,-6.804 1.585,-11.108 -0.792,-1.661 -2.589,-1.873 -3.646,-3.414 -0.482,-0.703 -1.221,-1.799 -1.251,-2.685 -0.02,-0.637 0.729,-0.786 0.504,-1.513 -0.446,0.551 -0.502,1.635 -1.224,1.944 -0.735,0.315 -1.342,-0.339 -2.098,0.21 -0.612,0.445 -0.988,-0.511 -1.157,-0.914 -0.405,-0.967 -1.173,-1.137 -1.929,-1.745 -0.146,-0.296 -0.328,-0.566 -0.547,-0.813 -0.421,-0.1 -0.839,-0.212 -1.253,-0.339 -0.762,-0.561 -0.401,-0.868 -0.545,-1.614 -0.342,-1.775 -3.077,-2.079 -3.199,-4.074 1.72,0.172 3.893,1.098 5.399,-0.216 -0.06,1.87 3.256,1.377 2.304,3.312 0.875,-0.684 1.319,-3.04 0.36,-3.815 0,0.443 -0.378,2.239 -1.248,1.812 -0.512,-0.252 0.195,-1.72 0.24,-2.1 -0.269,0.161 -0.532,0.329 -0.792,0.504 0.849,-1.845 3.513,-3.611 2.448,-5.904 -1.106,-2.384 -2.372,-5.48 -4.54,-7.083 -1.783,-1.318 -3.219,-2.373 -3.645,-4.673 -0.16,-0.863 0.436,-1.483 0.621,-2.303 0.243,-1.076 -0.783,-1.54 -0.284,-2.14 -0.226,0.209 -0.466,0.401 -0.72,0.576 -0.467,-1.934 1.519,-2.786 -0.1,-4.578 -0.74,-0.821 0.168,-1.453 0.168,-2.334 0,-1.184 -0.949,-1.962 -1.125,-3.051 -0.131,-0.813 0.319,-1.477 0.864,-1.987 0.477,-0.447 -0.167,-1.157 -0.366,-1.597 -0.229,-0.289 -0.428,-0.598 -0.597,-0.925 0.105,-0.479 0.201,-0.958 0.288,-1.44 -0.183,-1.039 -0.332,-0.689 0.241,-1.807"></path>
		<path id="path2614" d="m 497.685,482.261 c 0.104,0.538 0.296,1.042 0.576,1.513 0.01,-0.905 -0.481,-1.73 -1.152,-2.305 0.192,0.263 0.384,0.528 0.576,0.792"></path>
		<path id="path2594" d="m 433.244,445.973 c -0.914,0.459 -0.857,1.485 -0.36,2.231 0.492,-0.729 -0.131,-1.501 0.36,-2.231"></path>
		<path id="path2596" d="m 453.62,453.029 c -0.494,0.579 -2.017,2.484 -0.72,3.023 0.431,-0.898 1.106,-1.983 0.72,-3.023"></path>
		<path id="path2600" d="m 467.085,483.701 c -0.132,0.569 0.173,0.807 0.72,0.72 -0.321,0.573 -0.141,1.189 0.359,1.584 -1.404,-1.782 0.808,-4.232 0.72,-6.048 -0.06,1.375 -1.01,2.682 -1.799,3.744"></path>
		<path id="path2602" d="m 470.54,447.485 c 0.185,-0.865 -0.391,-4.546 -1.519,-4.602 -1.721,-0.08 1.232,4.353 1.519,4.602"></path>
		<path id="path2604" d="m 468.525,486.221 c 0.571,0.571 1.065,1.287 1.944,1.367 -0.271,-0.83 -1.036,-1.473 -1.944,-1.367"></path>
		<path id="path2606" d="m 476.085,449.789 c 1.155,-1.222 0.946,-2.806 1.584,-4.248 -2.022,0.288 -1.939,2.125 -3.096,3.384 0.493,0.306 0.997,0.594 1.512,0.864"></path>
		<path id="path2608" d="m 478.677,472.973 c -1,0.134 -1.367,1.046 -1.368,1.943 0.312,-0.752 1.407,-1.022 1.368,-1.943"></path>
		<path id="path2610" d="m 479.253,481.253 c -0.146,0.756 0.03,1.512 0.432,2.16 0.948,-0.665 0.343,-1.703 -0.432,-2.16"></path>
		<path id="path2612" d="m 484.365,489.821 c 0.123,-0.581 -0.115,-1.151 -0.576,-1.512 0,0.58 0.184,1.084 0.576,1.512"></path>
		<path id="path2616" d="m 498.332,481.829 c -0.277,0.576 -0.157,1.056 0.36,1.44 0.146,-0.546 0.03,-1.026 -0.36,-1.44"></path>
		<path id="path2618" d="m 503.589,510.917 c -0.07,0.618 0.315,1.025 0.936,1.008 0,-0.577 -0.347,-0.994 -0.936,-1.008"></path>
		<path id="path2634" d="m 610.365,537.269 c 1.015,0.226 1.699,-0.835 2.592,-1.08 -0.943,-0.137 -1.831,0.665 -2.592,1.08"></path>
		<path id="path2772" d="m 648.956,523.302 c 0.961,-0.759 1.88,-1.747 2.376,-2.881 -0.906,0.826 -3.072,0.894 -2.376,2.881"></path>
	</g></svg>
