<svg xmlns="http://www.w3.org/2000/svg" viewBox="2048.8 575 176.1 176.1"><g fill="#2b1d24"><path d="m2064.3 643 .4-2.1c.4-.9.9.8 2 1.2l2.2.4c.6.2.8 1.1 1.1 1.6.6.7 2.7.6 2 2.5-.4.8-1.4 3.3.9 2.8.7-.2 1.2-1.8 2.4-2s1.2 1.7 2 1.3 2.6-3.5 1.6-4.4c.9.3 2.3.7 2.9 1.5s.8 1.9 1.7 2.5c2 1.7 3.9 3.2 5.1 5.6a15 15 0 0 1 1.6 11c-.3 1.5 0 1.6.4 3 .7 2-.5 4.4.7 6.4.9 1.6 3 2.4 3.5 4.3.6 2.2 2 4 2.6 6.3.8 3-2.7 1.4-1 .3q-1 0-1.5-.9c.1.3.7 2.3-.1 1.7-.9-.6-2.8.7-3.6 1-.8-2.6-4-3.3-6-5l-1.3-1.3c-.7-.7-2-.7-2.8-1.3s-2.2-1.9-2.6-2.7q-.5-.8-1.4-.8c-1-.3-1.4-1.1-2.1-1.7q-1-.5-.2-1.1c.4-.6-.2-1.9-.4-2.4-.8-1.8-2.8-3-3.5-4.8-.4-.9-2.3-1.4-.1-2-1.3.1-2.6-2.6-2.2-3.5.6-1.8-.3-3.8-1.4-5.1s-.8-5-.8-6.5c0-2.2-1.3-3.9-2.2-5.9m74.2 37.7c-.3 2.6 5.3 4.7 5.2 2.4 0 .6 1 .7 1 1-.2.8 1.4 1.2 2 1.4.9.4 1.5-.4 2.2.5q1.3 1.1 2.9 1c-.7-1-2.3 0-2.6-1.6-.3-1 .5-1.7 1.3-.9q-1.1-.9-.6-2l.4-1.3c.2-1 .7-.6 1.3-1.2l-1.5.1c.7-.6 0-1.4.2-2.2.8 0 1.5.4 2.2.4-2.6-2 1.3-4.3 3-4.5 2.5-.4 6.2-1 8.3-2.5 1.9-1.3 2-4 3.6-5.5q3.1-2.7 3.5-7c2 .1 2 .8 2.3 2a8 8 0 0 0 3 2.8c1 .3 1.1-3.2.9-4-.7-2.2.5-2.3 1.5-3.4.3 1.8 0 4.5 2.3 5-.1-1.5-.1-3.1-1-4.2-1.1-1.7 1-.7 1.5-1.1s2.3-1.8.9-2.4c-2.2-.8 0-2.4.6-3.3-.2 1.8 2-.2 2.5-1l1.3-3.7c.3-.7.7-.4 1-.8l1.3-2c1-1.4 1-3.4 2.2-4.6 1 1.2-.2 2.4.3 3.6.8-.5 1.6-3.6 2.6-3.4.1 0 2.5 5.6 2.9 3 .1 1 2 1.5 2 2.8-.2.8-1.3.5-1 1.6.3 1.3.2 1.7-1.1 2.2.8-.5 1.6 0 2.4-.4.6-.4 1-1.2 1.8-.9 1.6.7 0 1.8-.7 2.1.1 1.6 1.7.1 2.2-.3 1.3-.8 2.8 1 3 2.2.8-1 2.3.7 2.7 1.4.7-1 2.7-.2 2.7 1 0 1.6-3.6 3-4.9 2.8-.9 0-4.4-1.2-3.3 1.3.4 1 2.7 1.4 2.6 2.6.7-.4 1.2.3.8 1s-1.4.5-2.1.6c-2.3.1-3.2.7-5.2-.9-.1.5.4 1.7-.1 2-.8.6-2.3-.5-2.9-1-1.3-.9-3.8.7-5.4-.9 0 2.1-1.4 0-2 .4-1.5.8-2 .2-3.1-.2-.2.8-.8 1-1.2 1.7q-.6 1.4-.8 2.9c-.1.7.2 2.2.3 3 0 1.2-.5.7-.8 1.8-.3 1.6.3 2.4-1.6 2.6-2.1.3-.8 3.5-.2 4.2-1.2.4-4.3 2.4-3 3.9.9.9-2 4-1.8 5.3-1 0-1-1-2.4 0-.9.6-1.7-.4-2.4.2-1.2 1-1.7 1.6-3.2 1.4s-3.7-1.2-4.1-2.1c-.6-1.2-4.8-.6-5.8.7-.5.7-.5 1.5-1 2.3 0 .2-1.8 1.2-2 1.2-1.3.5-3 0-4.5-.2-1.5-.1-2.5.7-3.8 1.3-1.5.7-2.6-.6-3.4-1-.4-.1-1-1.4-1.4-1.8q-1.6-1.2-2.8-2.4c-.5-.5-.7-2-1-2.5-1.4-.7-.2-1.4 0-2.5"/><path d="m2199.2 662.5-.1-.8q1 .1 1.8.8zM2151 677q-.1.6.7.7c-.4-1 .1-2.3-.9-3zm28.5-24.1q1 .3.3-.7zm12.1-16.5q.6-.4.8-1-1 0-.8 1m1.7-.9q-.4.7 0 1.3c1.6-.5 1-2.4 0-1.3m2.2 5.4q.3 0 .7-.3zm8.9 17.2q.6.7 1.4.2zM2108 674c.8-.4.8-1.4-.1-1.5zm23.6-.5q.3.3.8 0l-.4-.7zm-69.4-30.8-1.2.9c.7 1.5 2.4 0 1.2-1m3.8 8.8c-.8-.3-.9.5-.8 1.1 0 1.4 1-.2.9-1m30.4 22.3q-.6.2-.5.8 1.3.1.4-.8m116.1-15.4q.5-1.2 0-2.3z"/></g></svg>
