<svg xmlns="http://www.w3.org/2000/svg" viewBox="2048.82 575.02 176.1 176.1"><g id="my" fill="#2B1D24">
		
		<path id="Malaysia_mainland" d="m 2064.27,642.942 c 0.35,-0.614 0.2,-1.432 0.46,-2.058 0.36,-0.886 0.86,0.784 1.88,1.168 0.75,0.28 1.54,0.276 2.25,0.474 0.66,0.186 0.79,1.101 1.15,1.568 0.56,0.723 2.64,0.645 1.9,2.514 -0.3,0.751 -1.33,3.324 0.96,2.798 0.76,-0.176 1.2,-1.819 2.39,-1.97 1.2,-0.154 1.22,1.657 2.13,1.305 0.74,-0.292 2.47,-3.568 1.46,-4.429 0.92,0.292 2.3,0.67 2.92,1.511 0.6,0.833 0.85,1.846 1.68,2.515 2.08,1.665 3.91,3.196 5.15,5.601 1.25,2.428 2.12,4.887 1.98,7.668 0,1.069 -0.19,2.252 -0.39,3.303 -0.29,1.489 0,1.601 0.43,2.94 0.67,2.003 -0.56,4.433 0.63,6.448 0.92,1.558 3.03,2.387 3.53,4.274 0.59,2.231 2.06,4.105 2.63,6.363 0.76,3.031 -2.68,1.37 -1.1,0.271 -0.61,0.02 -1.12,-0.327 -1.37,-0.864 0.1,0.208 0.67,2.235 -0.17,1.632 -0.84,-0.608 -2.81,0.733 -3.57,1.104 -0.81,-2.641 -4.02,-3.369 -5.94,-4.992 -0.5,-0.419 -0.87,-0.924 -1.34,-1.36 -0.76,-0.699 -1.97,-0.68 -2.8,-1.281 -0.84,-0.604 -2.18,-1.896 -2.65,-2.768 -0.32,-0.603 -0.82,-0.66 -1.42,-0.821 -0.92,-0.25 -1.34,-1.086 -2.09,-1.607 -0.71,-0.497 -0.56,-0.633 -0.17,-1.175 0.42,-0.604 -0.14,-1.837 -0.39,-2.404 -0.79,-1.778 -2.79,-3.004 -3.51,-4.803 -0.35,-0.866 -2.24,-1.346 -0.1,-2.046 -1.28,0.183 -2.56,-2.476 -2.22,-3.412 0.66,-1.816 -0.31,-3.773 -1.4,-5.126 -0.97,-1.19 -0.77,-4.93 -0.77,-6.438 0,-2.205 -1.35,-3.95 -2.16,-5.903"></path>
		<path id="Malaysia_Borneo" d="m 2138.36,680.598 c -0.25,2.565 5.35,4.75 5.26,2.376 0,0.67 1.01,0.744 0.95,1.021 -0.2,0.847 1.41,1.213 2.01,1.433 0.92,0.339 1.47,-0.408 2.26,0.495 0.72,0.824 1.81,0.915 2.84,1.011 -0.72,-0.983 -2.25,-0.124 -2.63,-1.594 -0.24,-0.953 0.5,-1.752 1.33,-0.925 -0.8,-0.499 -0.85,-1.277 -0.58,-2.097 0.16,-0.395 0.29,-0.802 0.38,-1.222 0.21,-1.005 0.74,-0.613 1.35,-1.218 -0.51,0.05 -1.01,0.101 -1.51,0.144 0.69,-0.664 0,-1.451 0.22,-2.231 0.75,0 1.41,0.393 2.16,0.432 -2.61,-1.956 1.31,-4.282 2.92,-4.538 2.55,-0.405 6.23,-0.939 8.38,-2.456 1.86,-1.31 1.92,-4.002 3.57,-5.487 2.12,-1.902 3.33,-4.094 3.49,-6.959 2.09,0.04 1.96,0.764 2.37,1.973 0.26,0.739 2.28,2.548 3.04,2.758 0.98,0.274 1.06,-3.235 0.8,-4.059 -0.69,-2.171 0.51,-2.251 1.51,-3.355 0.35,1.824 0,4.461 2.36,4.987 -0.16,-1.454 -0.15,-3.126 -0.96,-4.218 -1.22,-1.661 0.83,-0.638 1.39,-1.084 0.52,-0.413 2.32,-1.796 0.89,-2.351 -2.16,-0.838 0,-2.439 0.62,-3.364 -0.18,1.821 2.07,-0.156 2.47,-0.934 0.6,-1.188 0.8,-2.535 1.35,-3.744 0.32,-0.689 0.72,-0.355 1.08,-0.794 0.43,-0.531 0.8,-1.433 1.27,-2.053 1.01,-1.355 0.89,-3.324 2.19,-4.571 1.01,1.186 -0.2,2.409 0.28,3.672 0.82,-0.524 1.58,-3.679 2.6,-3.493 0.1,0.01 2.52,5.6 2.88,3.062 0.12,1.043 2.06,1.501 1.92,2.753 -0.1,0.827 -1.25,0.523 -0.95,1.653 0.35,1.322 0.18,1.66 -1.12,2.146 0.81,-0.466 1.68,0.05 2.42,-0.372 0.61,-0.347 0.94,-1.22 1.8,-0.859 1.62,0.682 0.1,1.806 -0.69,2.095 0.16,1.559 1.67,0.07 2.26,-0.313 1.28,-0.812 2.79,1.076 2.92,2.185 0.88,-0.934 2.38,0.719 2.74,1.439 0.71,-0.968 2.71,-0.218 2.74,0.932 0,1.661 -3.61,2.974 -4.92,2.872 -0.91,-0.07 -4.4,-1.292 -3.32,1.257 0.42,1.004 2.74,1.429 2.55,2.644 0.71,-0.445 1.28,0.219 0.87,0.89 -0.45,0.723 -1.45,0.564 -2.16,0.622 -2.26,0.182 -3.2,0.76 -5.12,-0.863 -0.17,0.518 0.35,1.695 -0.17,2.054 -0.78,0.544 -2.28,-0.57 -2.84,-0.974 -1.31,-0.933 -3.8,0.594 -5.42,-0.936 0,2.078 -1.41,-0.02 -2.1,0.376 -1.38,0.788 -1.88,0.185 -3.05,-0.217 -0.17,0.77 -0.81,1.008 -1.15,1.655 -0.44,0.838 -0.69,1.99 -0.81,2.923 -0.1,0.738 0.24,2.218 0.29,2.977 0.1,1.287 -0.51,0.745 -0.75,1.803 -0.38,1.689 0.25,2.411 -1.68,2.671 -2.08,0.28 -0.77,3.435 -0.18,4.157 -1.17,0.403 -4.29,2.373 -2.9,3.917 0.81,0.895 -2.13,3.913 -1.85,5.299 -1.12,-0.01 -1.01,-1.021 -2.45,0 -0.84,0.592 -1.65,-0.401 -2.38,0.206 -1.2,0.985 -1.68,1.586 -3.22,1.352 -1.63,-0.247 -3.68,-1.189 -4.1,-2.095 -0.55,-1.174 -4.82,-0.604 -5.78,0.735 -0.47,0.666 -0.54,1.551 -0.95,2.322 -0.1,0.147 -1.89,1.148 -1.97,1.182 -1.37,0.543 -3.09,-0.07 -4.58,-0.197 -1.49,-0.125 -2.52,0.667 -3.79,1.268 -1.53,0.724 -2.62,-0.612 -3.39,-0.919 -0.41,-0.167 -0.99,-1.498 -1.43,-1.848 -1.1,-0.881 -2.07,-1.499 -2.84,-2.37 -0.47,-0.527 -0.62,-2.034 -0.96,-2.49 -1.38,-0.792 -0.19,-1.485 0,-2.558"></path>
		<path id="path2560" d="m 2199.2,662.526 c 0,-0.264 -0.1,-0.528 -0.14,-0.792 0.69,-0.06 1.26,0.352 1.8,0.721 -0.56,-0.02 -1.11,0 -1.66,0.07"></path>
		<path id="path4708" d="m 2150.96,676.926 c 0.1,0.498 0.16,0.74 0.72,0.792 -0.39,-0.997 0.12,-2.281 -0.86,-3.024 -0.1,0.752 0.18,1.481 0.14,2.232"></path>
		<path id="path4710" d="m 2179.47,652.878 c 0.73,0.266 0.83,0.02 0.29,-0.721 -0.1,0.241 -0.2,0.481 -0.29,0.721"></path>
		<path id="path4712" d="m 2191.57,636.39 c 0.43,-0.246 0.71,-0.605 0.86,-1.08 -0.57,0.1 -0.96,0.473 -0.86,1.08"></path>
		<path id="path4714" d="m 2193.29,635.454 c -0.25,0.472 -0.22,0.927 0.1,1.367 1.54,-0.537 0.91,-2.4 -0.1,-1.367"></path>
		<path id="path4716" d="m 2195.45,640.854 c 0.28,0.05 0.55,-0.02 0.8,-0.216 -0.27,0.07 -0.54,0.143 -0.8,0.216"></path>
		<path id="path4718" d="m 2204.38,658.134 c 0.41,0.44 0.89,0.512 1.44,0.216 -0.48,-0.111 -0.96,-0.182 -1.44,-0.216"></path>
		<path id="path2284" d="m 2108.05,673.974 c 0.7,-0.407 0.75,-1.327 -0.15,-1.512 0.13,0.495 0.18,1 0.15,1.512"></path>
		<path id="path2300" d="m 2131.59,673.47 c 0.25,0.201 0.51,0.201 0.79,0 -0.1,-0.263 -0.2,-0.503 -0.36,-0.72 -0.15,0.24 -0.29,0.48 -0.43,0.72"></path>
		<path id="path4700" d="m 2062.18,642.654 c -0.36,0.384 -0.76,0.696 -1.22,0.937 0.77,1.484 2.4,0.02 1.22,-0.937"></path>
		<path id="path4704" d="m 2066.07,651.438 c -0.88,-0.385 -0.97,0.444 -0.92,1.081 0.11,1.343 1.08,-0.2 0.92,-1.081"></path>
		<path id="path4706" d="m 2096.45,673.758 c -0.3,0.177 -0.44,0.44 -0.43,0.792 0.82,0.15 0.97,-0.114 0.43,-0.792"></path>
		<path id="path5822" d="m 2212.52,658.422 c 0.38,-0.749 0.31,-1.573 -0.1,-2.304 0.1,0.766 0.1,1.536 0.1,2.304"></path>
	</g></svg>
