<svg xmlns="http://www.w3.org/2000/svg" viewBox="1488 778.3 164.3 164.3"><g fill="#2b1d24"><path d="M1530 828.4q8.2-3.2 16.6-6.1l3.6-1.6c.4-.1 1.5-.8 2-.7l4.1 4.7c0-1 2-.6 3-.9.8-.2 2-1 2.7-.1 1.2 1.6 1.3 5.4.6 7.2-.8 2.3-2.7 4.3-1.5 6.6.3.5.1 1.2.5 1.7q.6.8 1.4 1.5a15 15 0 0 0 2.9 3c1 1 .9 1 .2 2.2s1.6 1.6 1.8 0a6 6 0 0 0-1.2-4.1c1.4-1 .7-3.2 2.7-3.6 2.8-.6 3-1.8 3.1-4.6l-.1-3.1c0-1.7 1-3.6.2-5.2-.7-1.6-2.2-3.2-3.1-4.7q-1.4-2.2-3-4.2c-.8-1-.5 0-1.2-1-.2-.6.1-2-.3-3.4-.6-1.9.5-3 .2-3.8-1.4-4.7-.5-3.5-.6-4.1.5-1.2 2.4-1 2-5.4 1.4.2 2.8.5 4.5 0 1-.3 2-1.5 3-.8.8.5 1.2 1.4 2 1.8.6.4 2.6.5 3.3.3 1-.3 1.9-2.2 3.2-.8 2.3 2.5 5.1-.5 6.3-2.3q1-1.5 2.7-.5c1.6 1 2 1 3.5 0 1.2-1 2.2-1.6 3.9-1.2.9.2 2.7-1.7 3.6-2q2.6-1.4 4.7-3.1c1.8-1.4 3 1 1.4 1.7l.8.3c-.8 1-.3 2-.8 3-.2.6-1.6 1.3-.7 2 .6.4.5 3 .6 4v2.2c0 1.2-.4.9 0 1.9l-.2 1.1q0 .9.5 1.5c.3.9-.1 2.2-.7 2.8 2 .3-.6 4.7.2 5 1.4.4 0 5 .5 6 1.5-.8-.2 2 .2 2.8.1-1.3 1.4-1 1.2.2-.2 1.4.1 2.3-1.3 3.1l.8.6c-1.7-.4-.3.2-.7.8q-.6.4-1 1c1.6-.6.2 1.9 0 2.4-.8 1.7-2.5 2.6-3.3 4.3s-2.1 2.6-3 4.2c-.7 1.2-5.4 2.8-5.3 4.1.1.6-3.5 1.3-4.2 1.7q-1 .6-2 .9c-1.2.3-1-.1-1.8.6q-2 1.5-4.3 2.4c-1.4.7-3.6 4.1-5.2 2.8 3 3.2-4.2 4.4-3.5 7.7q-1 0-1.1-.9c.1 1.2-1 2.6-.8 1-1.4 1.2-3 2-4.2 3.5l-3 3.7c-.5.4-2.4 2.5-3.1 1.6-.5-.5-1-2.4-2-1.8 1.7 0 1 2 1.4 2.6q.4.9.1 1.8 0 .5-.6.5.4.7.3 1.3c-.2 2.3.5 1.7 1.7 3.2q.8 1.2.8 2.9c0 .4-.3 3.5.3 1.6-.5 1.6.6 3.5.8 5.2.1 1 .5 2.1.3 3.2-.1.8-.5 1.8.4 2.4.2-1 .2-2 1-3 0 .3 0 2.8.3.7l-.6 3.5c-.1 1.1.6 2 .5 3-.4 3-2.4 5.6-2 8.6-.2-1.6 1 0 1-1.3 1.1 1.8-1 4.5-2 5.8-2 2.1-4.8 3.1-7.4 4q-4.4 1.4-8.5 3.9-2 .9-3 2.7c-.6 1.1-.9 2.5-2.4 2.7 1 0 2.6 3.4 3.4 1.3-.2 1.8.8 6.5-1 6.3l-4.6-.1c.1-1.5-.8-3.2-.6-4.3q.2-1.5-.9-2.8c-.5-.6-.4-2.1.1-3.3.3-.7.3-3.2.3-3.9l.2-5.1c.1-1.6-.2-2.6-.5-4.1-.4-2.2-1.9-4-2.3-6.2-.3-1-.1-2.1-.3-3.2q-.3-2.3-1-4.4c-.2-1-.6-.7 0-1.4l2.6-3c.9-.9 5.2-7 6.4-6.2-1.2-1.5 0-2.3.3-3.8.2-.9-.6-2.2.4-2.8 1.3-.8 1.7-2 2.5-3.3l.7-1.8c.4-1 .1-1.9.2-2.9l-.8.3q-.9-1.6-.7-2.6c.3-.7 1.2-1.3.9-2.2-.3-.8-1.5-.5-1.2-1.8.3-1 2-1.2 1.8-2.3-.2-2 1-1.3 1-2.6-.2-1.1-.8-2.2-.6-3.3.2-.8.7-1.7.5-2.4-.4-1.6-.3-2.6-.2-4.3q-.1-.7-.5-1.5c-.2-.7.6-2 .7-2.8q-1.4.6-2.2-.7c-.5-1-3.5-1-4.3-1.5-2.4-1.4-4.8-3-7.4-3.6-.8-.3-3.4-.2-4.3-.4-1.5-.4-1-2.8-1-3.9-.3-1.6-1.5-3-1.3-4.6"/><path d="M1567.4 887.1q.4-1.1.4-2.2c-.3.7-.7 1.5-.4 2.2m7.6-25.1q.8-.9-.4-.7zm27.1-22.1.7-.5-.2 1.2z"/></g></svg>
