<svg xmlns="http://www.w3.org/2000/svg" viewBox="1487.98 778.3 164.27 164.27"><g id="mz" fill="#2B1D24">
		
		<path id="Mozambique_mainland" d="m 1529.91,828.36 c 5.54,-2.081 11.09,-4.114 16.66,-6.104 1.25,-0.445 2.42,-1.037 3.65,-1.514 0.42,-0.161 1.48,-0.848 1.95,-0.702 l 4.16,4.651 c 0,-0.933 2.04,-0.607 2.98,-0.873 0.81,-0.228 2.03,-0.987 2.7,-0.125 1.23,1.594 1.24,5.456 0.6,7.223 -0.81,2.239 -2.7,4.252 -1.5,6.556 0.28,0.547 0.12,1.199 0.45,1.719 0.37,0.588 1.04,0.908 1.41,1.495 0.73,1.149 1.85,2.224 2.88,3.107 0.99,0.842 0.94,0.996 0.26,2.102 -0.72,1.181 1.62,1.626 1.77,0.04 0.15,-1.546 -0.29,-2.913 -1.18,-4.169 1.4,-1.024 0.67,-3.147 2.74,-3.576 2.8,-0.581 3.05,-1.803 3.06,-4.626 0,-1.027 -0.18,-2.075 -0.12,-3.1 0.1,-1.67 0.98,-3.514 0.26,-5.152 -0.72,-1.641 -2.22,-3.187 -3.18,-4.715 -0.9,-1.421 -1.77,-2.95 -2.91,-4.201 -0.83,-0.918 -0.52,-0.08 -1.27,-0.921 -0.22,-0.718 0.16,-2.128 -0.3,-3.522 -0.6,-1.825 0.47,-2.928 0.24,-3.737 -1.39,-4.678 -0.55,-3.533 -0.62,-4.121 0.54,-1.231 2.35,-1 1.91,-5.362 1.5,0.141 2.86,0.472 4.62,-0.04 0.99,-0.287 1.92,-1.51 3.01,-0.807 0.75,0.486 1.12,1.415 1.91,1.84 0.61,0.326 2.64,0.438 3.32,0.265 1.12,-0.288 1.92,-2.168 3.18,-0.797 2.35,2.544 5.16,-0.469 6.3,-2.338 0.62,-1.032 1.74,-1.06 2.72,-0.441 1.59,1.009 1.97,1 3.48,-0.06 1.27,-0.885 2.26,-1.508 3.9,-1.185 0.95,0.187 2.77,-1.628 3.66,-2.03 1.74,-0.792 3.19,-1.906 4.7,-3.065 1.83,-1.417 3.03,0.954 1.43,1.715 0.25,0.114 0.49,0.234 0.72,0.36 -0.72,0.938 -0.31,1.994 -0.72,3.02 -0.21,0.552 -1.6,1.267 -0.78,1.85 0.68,0.482 0.52,3.061 0.61,4.059 0.1,0.748 0.14,1.51 0.1,2.261 -0.1,1.139 -0.46,0.853 -0.14,1.862 0.1,0.376 0,0.746 -0.1,1.107 -0.15,0.698 0.29,0.91 0.47,1.514 0.27,0.878 -0.1,2.138 -0.66,2.827 2.01,0.285 -0.6,4.684 0.19,4.935 1.37,0.439 0,5.016 0.46,6.085 1.51,-0.895 -0.21,2.024 0.23,2.73 0.12,-1.273 1.4,-1.054 1.18,0.208 -0.24,1.368 0.1,2.338 -1.33,3.112 0.25,0.202 0.52,0.392 0.8,0.57 -1.65,-0.393 -0.23,0.208 -0.7,0.775 -0.3,0.358 -0.77,0.493 -0.96,0.955 1.59,-0.566 0.21,1.958 0,2.457 -0.8,1.685 -2.5,2.619 -3.32,4.293 -0.81,1.662 -2.14,2.628 -3.04,4.203 -0.69,1.208 -5.39,2.839 -5.22,4.153 0.1,0.608 -3.54,1.23 -4.24,1.664 -0.63,0.384 -1.34,0.691 -2.04,0.896 -1.13,0.331 -0.94,-0.102 -1.76,0.659 -1.18,1.095 -2.84,1.613 -4.25,2.345 -1.4,0.729 -3.63,4.137 -5.2,2.8 2.93,3.221 -4.2,4.458 -3.53,7.71 -0.61,0.08 -1.02,-0.313 -1.15,-0.87 0.14,1.143 -0.95,2.592 -0.79,1.01 -1.38,1.189 -3.03,2.005 -4.15,3.473 -0.99,1.299 -1.88,2.532 -3.07,3.666 -0.48,0.459 -2.4,2.476 -3.08,1.641 -0.45,-0.538 -1.01,-2.383 -2.01,-1.799 1.72,-0.104 1.12,2.072 1.46,2.6 0.32,0.497 0.3,1.304 0.1,1.826 -0.1,0.275 -0.3,0.434 -0.59,0.474 0.22,0.414 0.29,0.854 0.22,1.32 -0.19,2.273 0.56,1.645 1.73,3.141 0.65,0.839 0.84,1.832 0.83,2.872 0,0.403 -0.33,3.538 0.25,1.598 -0.44,1.693 0.68,3.523 0.86,5.25 0.1,1.035 0.47,2.118 0.3,3.163 -0.15,0.881 -0.53,1.86 0.42,2.458 0.17,-1.109 0.12,-2.108 0.87,-3.03 0,0.339 0,2.768 0.36,0.729 -0.21,1.171 -0.5,2.329 -0.6,3.516 -0.1,1.065 0.66,2.012 0.52,3.048 -0.37,2.827 -2.4,5.553 -1.94,8.556 -0.27,-1.642 0.94,0.05 1.01,-1.37 1.08,1.826 -1.02,4.556 -2.15,5.844 -1.85,2.129 -4.67,3.102 -7.27,4.017 -2.94,1.036 -5.89,2.114 -8.51,3.819 -1.19,0.77 -2.42,1.447 -3.08,2.763 -0.57,1.129 -0.85,2.442 -2.32,2.636 0.98,-0.01 2.55,3.49 3.38,1.37 -0.18,1.795 0.76,6.445 -1.1,6.317 l -4.47,-0.173 c 0.1,-1.472 -0.85,-3.138 -0.61,-4.278 0.19,-0.958 -0.27,-1.885 -0.92,-2.742 -0.48,-0.631 -0.37,-2.158 0.13,-3.362 0.28,-0.685 0.25,-3.14 0.28,-3.844 0.1,-1.724 0.1,-3.447 0.18,-5.167 0.12,-1.552 -0.23,-2.587 -0.48,-4.069 -0.38,-2.22 -1.89,-4.035 -2.35,-6.196 -0.23,-1.043 -0.1,-2.143 -0.24,-3.219 -0.26,-1.495 -0.56,-2.932 -0.96,-4.388 -0.27,-0.944 -0.69,-0.664 -0.16,-1.361 0.53,-0.418 2.01,-2.351 2.64,-2.99 0.93,-0.951 5.26,-7.046 6.4,-6.217 -1.14,-1.483 0,-2.342 0.36,-3.82 0.23,-0.909 -0.66,-2.178 0.34,-2.774 1.39,-0.829 1.76,-1.958 2.52,-3.387 0.33,-0.611 0.51,-1.128 0.75,-1.788 0.37,-1.041 0.1,-1.841 0.14,-2.851 -0.24,0.1 -0.48,0.193 -0.72,0.29 -0.53,-1.048 -0.9,-1.99 -0.7,-2.571 0.25,-0.705 1.15,-1.288 0.81,-2.232 -0.29,-0.81 -1.46,-0.522 -1.13,-1.824 0.25,-0.972 1.95,-1.13 1.81,-2.314 -0.24,-2.035 1.03,-1.272 0.91,-2.606 -0.11,-1.102 -0.72,-2.15 -0.51,-3.261 0.14,-0.781 0.65,-1.649 0.46,-2.428 -0.38,-1.551 -0.25,-2.602 -0.22,-4.266 0,-0.541 -0.28,-0.933 -0.43,-1.459 -0.22,-0.763 0.53,-2.06 0.66,-2.819 -1.06,0.297 -1.6,0.287 -2.16,-0.751 -0.53,-0.982 -3.56,-1.065 -4.35,-1.519 -2.43,-1.399 -4.75,-2.857 -7.36,-3.596 -0.84,-0.236 -3.46,-0.16 -4.37,-0.378 -1.48,-0.352 -0.88,-2.754 -1.02,-3.856 -0.2,-1.602 -1.4,-3.029 -1.26,-4.662"></path>
		<path id="path3382" d="m 1567.42,887.12 c 0.25,-0.717 0.4,-1.477 0.36,-2.24 -0.31,0.686 -0.66,1.476 -0.36,2.24"></path>
		<path id="path3384" d="m 1574.98,861.99 c 0.6,-0.574 0.46,-0.814 -0.43,-0.72 0.14,0.24 0.29,0.48 0.43,0.72"></path>
		<path id="path3466" d="m 1602.12,839.88 c 0.24,-0.167 0.48,-0.333 0.72,-0.5 0,0.42 -0.1,0.827 -0.21,1.221 -0.17,-0.241 -0.34,-0.481 -0.51,-0.721"></path>
	</g></svg>
