<svg xmlns="http://www.w3.org/2000/svg" viewBox="1380.82 837.05 119.99 119.99"><path id="na" d="m 1390.14,847.849 c 1.06,-0.165 1.89,-1.097 3.02,-0.896 0.97,0.171 1.84,0.902 2.86,0.707 2.12,-0.406 3.58,-2.884 6,-2.224 1.93,0.526 2.95,2.692 4.89,3.334 1.09,0.365 4.47,0.223 6.27,0.239 8.21,0.07 16.44,0.234 24.65,-0.1 2.17,-0.09 2.9,-0.247 3.93,1.67 1.3,2.439 3.25,1.9 5.6,2.158 3.07,0.337 6.34,0.197 9.22,1.207 1.11,0.388 2.1,0.528 3.08,-0.06 0.86,-0.524 1.69,-0.336 2.94,-0.03 1.26,0.308 2.01,0.1 2.85,-0.1 5.12,-1.189 10.92,-2.392 16.36,-3.42 1.05,-0.2 2.12,-0.682 3.21,-0.515 0.65,0.1 1.62,0.721 2.26,0.401 2.05,-1.02 2.99,1.138 4.34,2.064 -0.98,-0.256 -2.13,0.318 -3.06,0.681 -1.16,0.451 -1.5,2.182 -2.61,1.159 -1.79,-1.646 -5.29,3.747 -6.61,4.381 -0.64,-1.236 -1.33,-3.988 -3.16,-4.161 -2.36,-0.223 -5.3,0.967 -7.59,1.454 -2.71,0.573 -5.9,0.683 -8.59,1.185 l -1,31.899 -6.8,-0.1 -1.47,54.378 c 0.17,2.48 -1.96,1.44 -3.14,2.56 -0.59,0.56 -0.54,1.1 -1.71,1.5 -0.8,0.28 -1.17,0.61 -0.52,1.35 -1.79,0.53 -1.71,-0.14 -3.38,-0.39 -1.75,-0.26 -3.25,0.69 -5.32,0.24 -3.29,-0.7 -5.24,-1.92 -5.39,-2.52 -0.41,-1.68 0,-0.99 0,-2.32 -0.1,-0.53 -0.64,-0.39 -1.04,-0.8 -0.57,-0.6 -1.06,-1.86 -1.67,-1.48 -1.9,1.21 -1.37,3 -2.04,3.52 -0.94,0.73 -2.12,1.7 -3.11,0.46 -1.3,-1.64 -3.04,-2.94 -4.2,-4.69 -1.03,-1.56 -1.86,-3.228 -2.69,-4.895 -0.44,-0.885 -0.48,-1.837 -0.64,-2.792 -0.15,-0.986 -0.83,-1.5 -1.02,-2.398 -0.35,-1.647 0.38,-2.252 -0.84,-3.77 -0.48,-0.606 -0.32,-0.997 -0.3,-1.771 0,-1.251 -0.41,-2.334 -0.54,-3.554 -0.1,-0.869 0,-1.749 -0.27,-2.599 -0.36,-1.202 0.25,-2.365 0,-3.567 -0.4,-2.072 -1.39,-3.963 -2.14,-5.918 -0.85,-2.207 -0.21,-4.07 -0.43,-6.304 -0.15,-1.516 -0.38,-3.414 -0.24,-4.197 0.1,-0.367 0.99,-4.049 0.58,-3.96 -0.1,-1.983 -1.09,-3.925 -2.22,-5.516 -0.63,-0.895 -1.36,-1.729 -1.89,-2.693 -0.49,-0.886 -0.59,-1.97 -1.23,-2.777 -2.94,-3.719 -3.57,-8.234 -5.75,-12.264 -1.99,-3.694 -2.66,-8.768 -5.9,-11.674 -3.49,-3.125 -3.9,-7.688 -3.6,-12.097" fill="#2B1D24">
		
	</path></svg>
