<svg xmlns="http://www.w3.org/2000/svg" viewBox="1380.8 837 120 120"><path fill="#2b1d24" d="M1390.1 847.8c1.1-.1 2-1 3-.8s1.9.9 3 .7c2-.4 3.5-3 6-2.3 1.9.6 2.9 2.7 4.8 3.4 1.1.3 4.5.2 6.3.2q12.3.2 24.6 0c2.2-.2 3-.3 4 1.6 1.3 2.4 3.2 1.9 5.6 2.1 3 .4 6.3.2 9.2 1.2q1.5.8 3 0 1.4-.7 3 0c1.3.3 2 0 2.9-.1 5-1.2 10.9-2.4 16.3-3.5q1.5-.5 3.2-.5c.7.1 1.6.7 2.3.4 2-1 3 1.2 4.3 2-1-.2-2.1.4-3 .8-1.2.4-1.5 2.1-2.6 1.1-1.8-1.6-5.3 3.8-6.7 4.4-.6-1.2-1.3-4-3.1-4.2-2.4-.2-5.3 1-7.6 1.5-2.7.6-6 .7-8.6 1.2l-1 31.9-6.8-.1-1.5 54.4c.2 2.4-2 1.4-3.1 2.5-.6.6-.5 1.1-1.7 1.5q-1.4.3-.5 1.4c-1.8.5-1.7-.2-3.4-.4-1.8-.3-3.3.7-5.3.2-3.3-.7-5.3-1.9-5.4-2.5-.4-1.7 0-1 0-2.3-.1-.6-.7-.4-1-.8-.6-.6-1.1-1.9-1.7-1.5-2 1.2-1.4 3-2 3.5-1 .7-2.2 1.7-3.2.5-1.3-1.7-3-3-4.2-4.7q-1.5-2.4-2.7-5-.5-1.2-.6-2.7c-.2-1-.9-1.5-1-2.4-.4-1.6.3-2.2-.9-3.8-.5-.6-.3-1-.3-1.7l-.5-3.6q0-1.3-.3-2.6c-.4-1.2.3-2.4 0-3.6-.4-2-1.4-4-2.1-5.9-.9-2.2-.2-4-.5-6.3-.1-1.5-.3-3.4-.2-4.2.1-.3 1-4 .6-4q-.3-3-2.2-5.5l-2-2.6c-.4-1-.5-2-1.2-2.8-2.9-3.7-3.5-8.3-5.7-12.3-2-3.7-2.7-8.8-6-11.7-3.4-3-3.8-7.6-3.5-12"/></svg>
