<svg xmlns="http://www.w3.org/2000/svg" viewBox="1292.98 477.3 138.17 138.17"><path id="ne" d="m 1302.94,573.75 c -1.06,-1.252 0.18,-3.534 0.1,-4.968 1.27,0.447 2.85,0.32 4.18,0.335 1.58,0.02 1.98,-0.79 2.92,-1.873 1.12,-1.304 2.43,-0.979 4.04,-1.104 2.04,-0.16 4.09,-0.347 6.14,-0.388 0.97,-0.02 1.92,-0.02 2.89,0.09 1.9,0.222 0.11,-0.582 1,-0.809 1.42,-0.365 3.29,1.556 3.91,-0.07 0.54,-1.428 2.22,-1.626 2.78,-2.918 0.58,-1.325 0.56,-2.745 1.29,-4.037 1.53,-2.695 1.19,-5.679 1.34,-8.759 0.22,-4.39 0.15,-8.787 0.13,-13.181 0,-2.731 0.22,-3.442 2.93,-4.073 2.4,-0.559 4.89,-0.691 7.28,-1.28 2.83,-0.695 4.69,-3.473 6.69,-5.42 2.91,-2.829 5.7,-5.91 8.91,-8.406 6.53,-5.087 13.78,-9.694 20.76,-14.147 3.29,-2.098 6.45,-4.395 9.74,-6.494 3.08,-1.965 7.21,0.05 10.48,0.946 2.87,0.783 5.17,2.647 7.13,4.826 0.84,0.939 1.1,0.983 2.13,0.274 1.47,-1.004 3.04,-1.81 4.57,-2.708 0.72,3.818 1.32,7.555 1.62,11.421 0.12,1.537 1.02,2.596 1.81,3.849 0.45,0.715 0.87,1.464 1.17,2.255 0.29,0.741 -0.52,1.341 0.12,2.074 0.82,0.943 2.2,1.746 2.55,3.021 0.43,1.56 -1.35,3.171 -1.49,4.732 -0.43,4.656 -1.17,9.296 -1.17,13.983 0,2.02 -0.21,4.031 -0.27,6.049 0,1.623 0.18,3.607 -0.37,5.163 -0.46,1.341 -1.8,2.484 -2.67,3.579 -1.4,1.776 -2.93,3.448 -4.35,5.208 -2.34,2.894 -4.32,6.209 -5.62,9.684 -0.32,0.838 -0.69,1.654 -1.26,2.352 -0.28,0.333 -0.85,0.24 -1.06,0.646 -0.65,1.27 0.92,4.869 1.13,6.267 -0.69,0 -1.58,-0.174 -2.2,0.23 -0.66,0.429 -0.55,0.89 -1.29,1.22 -1.67,0.734 -2.88,1.412 -4.14,2.743 -1.95,2.05 -3.1,1.158 -5.47,0.198 -2.76,-1.123 -5.25,-1.273 -8.2,-1.351 -2.53,-0.07 -4.7,0.395 -6.62,2.131 -0.66,0.591 -1.14,1.269 -1.64,1.985 -0.86,1.239 -1.38,0.452 -2.62,0.566 -2.91,0.267 -4.16,-1.204 -6.59,-2.175 -1.77,-0.711 -3.81,-3.215 -5.95,-2.082 -0.81,0.428 -1.42,1.138 -2.21,1.597 -0.61,0.353 -1.57,-0.18 -1.84,0.409 -1.12,2.421 -3.08,-0.579 -3.54,-1.587 -1.07,-2.377 -2.73,-3.287 -5.14,-3.722 -1.37,-0.247 -2.41,-1.408 -3.81,-1.536 -1.25,-0.114 -1.74,1.175 -3.06,1.148 -2.39,-0.05 -4.57,-0.247 -6.31,1.736 -0.57,0.651 -1.17,0.969 -1.25,1.863 -0.13,1.482 -0.18,2.728 -1.07,3.976 -1.19,1.685 -2.65,2.798 -2.57,5.037 0,0.471 -0.24,5.252 -0.53,5.088 -1.42,-0.801 -4.48,-6.201 -5.97,-6.02 -0.47,0.06 -0.66,0.627 -1.07,0.785 -0.55,0.21 -1.78,0.06 -2.15,0.619 -0.19,0.289 0.64,2.682 0.1,2.664 -0.5,-0.02 -1.67,-2.145 -1.91,-2.537 -0.77,-1.279 -0.17,-1.542 0.9,-1.969 -0.35,-0.712 -0.41,-1.702 -1.08,-2.216 -1.21,-0.927 -1.96,1.003 -3.22,0.781 -2.33,-0.414 -6.15,-4.107 -5.06,-6.557 0.65,0.475 1.29,0.493 2.01,0.145 -0.35,-0.294 -4.89,-3.479 -5.04,-3.171 0.33,-0.677 -1.35,-1.947 -1.57,-2.704 -0.37,-1.302 -0.1,-2.513 -1.31,-3.416" fill="#2B1D24">
		
	</path></svg>
