<svg xmlns="http://www.w3.org/2000/svg" viewBox="1293 477.3 138.2 138.2"><path fill="#2b1d24" d="M1303 573.8c-1.1-1.3.1-3.6 0-5q2.1.5 4.2.3c1.6 0 2-.8 3-1.9 1-1.3 2.4-1 4-1q3-.4 6.1-.4h3c1.8.3 0-.5 1-.8 1.3-.3 3.2 1.6 3.8 0 .6-1.5 2.2-1.7 2.8-3s.6-2.7 1.3-4c1.5-2.7 1.2-5.7 1.3-8.8q.3-6.5.2-13.1c0-2.8.2-3.5 2.9-4.1 2.4-.6 4.9-.7 7.3-1.3 2.8-.7 4.7-3.5 6.7-5.4 2.9-2.8 5.7-6 8.9-8.4 6.5-5.1 13.8-9.7 20.7-14.2l9.8-6.5c3-2 7.2.1 10.5 1q4.2 1.4 7 4.8c1 1 1.2 1 2.2.3l4.6-2.7a105 105 0 0 1 1.6 11.4c.1 1.5 1 2.6 1.8 3.9q.8 1 1.2 2.2c.3.8-.5 1.4.1 2 .8 1 2.2 1.8 2.6 3.1.4 1.6-1.4 3.2-1.5 4.7-.5 4.7-1.2 9.3-1.2 14l-.3 6c0 1.7.2 3.7-.3 5.2-.5 1.4-1.8 2.5-2.7 3.6l-4.4 5.2a35 35 0 0 0-5.6 9.7q-.5 1.3-1.2 2.4c-.3.3-.9.2-1.1.6-.7 1.3 1 4.9 1.1 6.3-.7 0-1.6-.2-2.2.2s-.5.9-1.3 1.2c-1.6.8-2.8 1.4-4.1 2.8-2 2-3.1 1.1-5.5.2a22 22 0 0 0-8.2-1.4c-2.5 0-4.7.4-6.6 2.1l-1.6 2c-.9 1.3-1.4.5-2.7.6-2.9.3-4.1-1.2-6.5-2.2-1.8-.7-3.9-3.2-6-2l-2.2 1.5c-.6.4-1.6-.1-1.8.4-1.2 2.5-3.1-.5-3.6-1.5-1-2.4-2.7-3.3-5.1-3.8-1.4-.2-2.4-1.4-3.8-1.5s-1.8 1.2-3.1 1.1c-2.4 0-4.6-.2-6.3 1.8q-1 .8-1.3 1.8.2 2.2-1 4c-1.2 1.7-2.7 2.8-2.6 5 0 .5-.2 5.3-.5 5.1-1.4-.8-4.5-6.2-6-6-.5 0-.7.7-1 .8-.6.2-1.8 0-2.2.6-.2.3.6 2.7 0 2.7-.4 0-1.6-2.2-1.8-2.5-.8-1.3-.2-1.6.9-2-.4-.7-.4-1.7-1.1-2.2-1.2-1-2 1-3.2.7-2.4-.4-6.2-4-5-6.5q.8.7 2 .1c-.4-.3-5-3.4-5.1-3.1.3-.7-1.4-2-1.6-2.7-.4-1.3 0-2.6-1.3-3.5"/></svg>
