<svg xmlns="http://www.w3.org/2000/svg" viewBox="1313.9 567.1 105.8 105.8"><g fill="#2b1d24"><path d="M1321.2 630.3c.9-3.1-.4-6.9 1-9.8.3-.7 1.5 0 2.1-.8 1-1.2.1-2.6 1.2-3.8.7-.8.6-2 1.5-2.5s2.2-1.6 1.8-2.9c-.4-1-.8-1.8.5-2 1.8-.4.3-3 .1-3.8s.1-1.5-.3-2.3l-1.3-1.8c-.7-1.4.4-2.6.8-3.8.5-1.6.1-3.2.2-4.8.2-2 .7-2.4 2-3.7a6 6 0 0 0 1.7-4.5c0-1.3.9-2.1 1.8-3q1.8-1.2 4-1.2c1.9 0 2.9-.7 4.6-1.2 1-.2 2.3 1 3.2 1.4 1.4.7 2.9.3 4.1 1.5q1.5 1.6 2.4 3.6.4.8 1.2 1.2c1.2.4 1.4-1 2.4-1 3.1-.4 4.1-3.3 7.4-1q.8.6 1.3 1.3c.1.2 1 .1 1.3.2 1.3.8 1.9 1.8 3.7 1.9 1 0 3.2.6 4 .2 1.4-.6 1.8-2.3 2.9-3 2.6-2 6.6-2.2 9.8-2q2.4.3 4.6 1.4c1.2.7 2.7 1.6 4.2 1.1 1.4-.5 2-2 3.2-3q1-.7 2-1c1.3 0 .4-.2 1.1-.7 2.6-1.7 3.5.7 4.4 2.5.9 1.5 2.5 1.7 2.1 5.9 0 .4.7 2.3 1 2.6.6.4 1 0 1.6.3 3.2 1.1.3 4.3 1.3 5.8 1.2 2-2.8 3.5-4.3 3.3-2.1-.2-3 4.6-3.5 6.3l-.8 3c-.3 1.1-1.6 1-1.6 2.2 0 1.1.2 2.5-.6 3.5q-1.2 1-2.7 1.7c1 .2 0 3-.1 3.6q-.5 2.7-3.2 2.9c.2 1-.6 1.1-1 1.7-.7.8-.2 1.9-.3 2.7-.4 2-1.5 4.3-2.8 6-1 1.4 1 2.3-1.6 4-1 .7-.4 1.4-.8 2.4-.2.7-1.1 1.3-1.4 2-.4.6-1.5.2-2 0s-.4-1.9-.4-2.4-2-1-2.3-1.7c-.4-1.1-1-.8-1.2-2-.3.8-.3 2.1-1.3 2.3-1.2.3-1.7-1-2.7-.7-1.8.6-2.1 3.3-3.3 4-1.5 1-6.3 6-5.6 6.6 1 1-.8 3.7-.8 4.4 0 1.3-.5 2.4-2 4.8-.7-.1-1.3-1-1-1.6-.6.4-1.1-.2-1.4-.7.6 2.4 1.2 2.9-1.5 3.3-1.1.2-4.7.9-3.7-1.4-.5 1-.5 1.2-1.6 1.1s-1-.4-2.1-1.1c.5.4 1.2 2.4-.1 2-1-.4.4-2.5-1.2-1.7q.9 1.1.5 2.6c-.7-.3-1.6-2.9-1.3-3.7-.8.8.5 2.8 0 3.8-.5 1.4-.5-1.8-.5-2-.1.3-.3 2.5-.4.6q.1.9-.5 1.6 0-.8-.4-1.4c.3.6.3 1.6-.7 1.5-1.7-.2-1.2.2-1.7-1.4 0 1.5-1.2 2.9-1.4.7 0 1.4-.4.5-1.5 0q-1.5-1-2.2-2.6c-.5-.9-1.1-1.9-.9-3 .2-.7.3-1.4-.7-1q-.4-1.2.7-1.4c1.5-.4 0-1 1.2-1.6-.8 0-1.5 1.2-2.3 1-2.6-.6 1-1.5 1.6-1.6q-.7-.8-1.5-.2l.1-1c-.1 1-1.3 1.6-1.7.5-.4-1 .8-1.5 1.4-2a5 5 0 0 0-1.8 1.2 10 10 0 0 0-5.6-5.4q-1.9-.4-3.9-.3c-1 0-2.3.4-3.1-.3 1 .2 2.5-.5 3.1-1.4-1 0-1.8 1.3-2.9.4q-.5.7-.2 1.5c-1.8.2-3.5 0-5.2.3-.1-1 .5-2 .5-3 0-1.2-.4-2-.1-3.1.4-1.9.4-5.5-.6-7.1"/><path d="M1355.4 660.7q1.5-.3.5-1.3a2 2 0 0 0-.5 1.2"/><path d="m1357.3 660.2.7-.4q-.8 0-1.4.3z"/></g></svg>
