<svg xmlns="http://www.w3.org/2000/svg" viewBox="1313.86 567.06 105.81 105.81"><g id="ng" fill="#2B1D24">
		
		<path id="Nigeria_mainland" d="m 1321.16,630.27 c 0.9,-3.12 -0.4,-6.833 0.97,-9.781 0.34,-0.721 1.61,-0.08 2.21,-0.776 1.03,-1.187 0.1,-2.625 1.15,-3.813 0.69,-0.778 0.65,-2.009 1.49,-2.5 0.89,-0.516 2.21,-1.616 1.78,-2.872 -0.34,-0.975 -0.78,-1.783 0.52,-2.05 1.82,-0.374 0.35,-2.985 0.16,-3.768 -0.19,-0.798 0.1,-1.5 -0.34,-2.272 -0.35,-0.663 -0.91,-1.19 -1.26,-1.862 -0.7,-1.378 0.32,-2.544 0.73,-3.825 0.49,-1.543 0.15,-3.188 0.26,-4.789 0.13,-1.934 0.65,-2.333 2.01,-3.664 1.16,-1.146 1.67,-2.875 1.62,-4.469 0,-1.345 0.9,-2.146 1.86,-2.948 1.14,-0.944 2.54,-1.204 3.97,-1.261 1.88,-0.07 2.89,-0.753 4.62,-1.189 1,-0.256 2.32,0.902 3.15,1.32 1.44,0.721 2.94,0.3 4.18,1.507 1.1,1.066 1.63,2.338 2.37,3.627 0.29,0.489 0.67,1.008 1.23,1.192 1.19,0.387 1.36,-0.946 2.31,-1.05 3.15,-0.349 4.19,-3.179 7.49,-0.836 0.46,0.323 0.96,0.704 1.26,1.188 0.14,0.235 1.01,0.117 1.26,0.252 1.38,0.737 1.92,1.764 3.7,1.831 1.04,0.04 3.21,0.61 4.12,0.208 1.28,-0.569 1.72,-2.227 2.81,-3.054 2.64,-1.99 6.63,-2.161 9.78,-1.862 1.65,0.157 3.13,0.601 4.6,1.374 1.23,0.648 2.77,1.602 4.22,1.072 1.38,-0.509 2.1,-2.094 3.24,-2.953 0.63,-0.471 1.23,-0.911 2.04,-0.955 1.23,-0.07 0.38,-0.32 1.06,-0.774 2.62,-1.749 3.46,0.731 4.42,2.51 0.81,1.512 2.44,1.635 2.05,5.826 0,0.463 0.68,2.31 1.09,2.64 0.5,0.407 0.89,0.03 1.51,0.256 3.25,1.173 0.29,4.374 1.28,5.897 1.25,1.942 -2.77,3.435 -4.23,3.282 -2.19,-0.23 -2.98,4.558 -3.55,6.29 -0.33,0.984 -0.51,2.024 -0.81,3.006 -0.33,1.097 -1.56,0.93 -1.59,2.169 0,1.109 0.24,2.518 -0.61,3.502 -0.72,0.832 -1.76,1.205 -2.73,1.701 1.08,0.212 0,2.976 -0.1,3.601 -0.22,1.791 -1.38,2.813 -3.17,2.88 0.17,0.937 -0.56,1.144 -1.05,1.739 -0.63,0.742 -0.12,1.841 -0.29,2.725 -0.4,2.051 -1.42,4.208 -2.71,5.898 -1.11,1.454 0.94,2.345 -1.62,4.011 -1.08,0.702 -0.43,1.466 -0.81,2.475 -0.25,0.665 -1.12,1.297 -1.46,1.922 -0.33,0.605 -1.42,0.247 -1.88,0.06 -0.56,-0.225 -0.43,-1.891 -0.47,-2.39 0,-0.578 -2.02,-1.102 -2.3,-1.768 -0.43,-1.06 -0.95,-0.704 -1.24,-1.933 -0.22,0.757 -0.28,2.097 -1.24,2.308 -1.22,0.266 -1.74,-1.042 -2.72,-0.724 -1.77,0.572 -2.15,3.332 -3.3,4.088 -1.49,0.982 -6.26,5.86 -5.63,6.507 1.02,1.036 -0.81,3.701 -0.81,4.448 0,1.271 -0.49,2.319 -2.03,4.78 -0.62,-0.157 -1.19,-1.028 -0.9,-1.606 -0.66,0.425 -1.16,-0.224 -1.44,-0.721 0.63,2.367 1.23,2.903 -1.52,3.302 -1.09,0.158 -4.67,0.873 -3.66,-1.358 -0.47,0.906 -0.49,1.148 -1.58,1.08 -1.21,-0.08 -1,-0.387 -2.17,-1.152 0.55,0.401 1.21,2.469 -0.1,1.947 -0.87,-0.349 0.42,-2.448 -1.12,-1.659 0.43,0.868 0.8,1.692 0.43,2.664 -0.72,-0.303 -1.54,-2.884 -1.29,-3.672 -0.83,0.713 0.54,2.794 0.11,3.768 -0.59,1.358 -0.59,-1.829 -0.55,-2.112 -0.14,0.397 -0.36,2.579 -0.43,0.647 0,0.57 -0.1,1.211 -0.5,1.656 0,-0.517 -0.17,-0.997 -0.43,-1.44 0.3,0.619 0.28,1.616 -0.67,1.531 -1.71,-0.153 -1.24,0.239 -1.71,-1.387 0,1.537 -1.18,2.872 -1.44,0.648 0,1.443 -0.36,0.497 -1.41,-0.02 -1.04,-0.507 -1.74,-1.518 -2.26,-2.503 -0.5,-0.925 -1.12,-1.934 -0.86,-3.011 0.18,-0.72 0.27,-1.38 -0.73,-1.094 -0.19,-0.782 -0.11,-1.221 0.69,-1.382 1.55,-0.312 0.1,-0.87 1.26,-1.569 -0.83,0.06 -1.55,1.179 -2.36,0.996 -2.58,-0.584 0.95,-1.485 1.57,-1.572 -0.42,-0.505 -0.9,-0.577 -1.44,-0.216 0,-0.313 0,-0.625 0.1,-0.937 -0.16,0.899 -1.3,1.548 -1.73,0.432 -0.4,-1.01 0.81,-1.456 1.37,-2.016 -0.66,0.266 -1.25,0.721 -1.73,1.225 -0.99,-2.247 -3.18,-4.733 -5.63,-5.358 -1.19,-0.304 -2.62,-0.46 -3.85,-0.385 -0.96,0.06 -2.37,0.477 -3.19,-0.233 1.04,0.205 2.58,-0.491 3.17,-1.368 -1.07,-0.05 -1.83,1.21 -2.88,0.36 -0.38,0.452 -0.48,0.956 -0.29,1.512 -1.73,0.226 -3.49,-0.104 -5.19,0.288 -0.1,-1.08 0.55,-2.031 0.58,-3.096 0,-1.102 -0.47,-1.911 -0.19,-3.05 0.45,-1.855 0.49,-5.42 -0.6,-7.1"></path>
		<path id="path5382" d="m 1355.36,660.65 c 0.91,-0.06 1.24,-0.624 0.5,-1.224 -0.31,0.349 -0.48,0.756 -0.5,1.224"></path>
		<path id="path5386" d="m 1357.30,660.22 c 0.24,-0.144 0.48,-0.288 0.72,-0.432 -0.51,0 -0.99,0.127 -1.44,0.359 0.24,0.03 0.48,0.05 0.72,0.07"></path>
	</g></svg>
