<svg xmlns="http://www.w3.org/2000/svg" viewBox="633 565.9 42.7 42.7"><path fill="#2b1d24" d="M636.8 585.6c.9.3 1 1.3 2 1.2.2-.3-.3-.6.2-.6l2.2-.3c1-.3.4-1.6 1-2s1.3-.1 1.4-.9c.2-.9-.6-2.7 0-3.4s1.7-.1 2.3 0c.9 0 1.2-.7 1.7-1.2 1.7-2.1 2-.6 3.8.5.3-1.7 2.7-2.9 4.1-4.1 1 0 0-.8 1.1-1.7.9-.8.9-2 1.8-2.6 1-.8 1.4.5 2.3 1 1.2.7 1.8 0 3-.5s3.5-.6 4.6-1.2l1.6-1c.8-.1 1.5.2 2.3 0-.6.4-1 1.8-1.9 1-.8 1.4 1.3 3.7.6 5.5-.6 1.8-2 2.8-2.6 4.7-.7 2.4-.4 4.7-.8 7.1-.2 1.2.3 4.3-1.1 4.4 0-1.3.8-2.3.6-3.8-1 .3 0 2-1.8 2.5 1.2 1.5.3 3 .4 4.7q-.4-.7-.2-1.5c-.2 1-.8 1.9-.8 2.9 1.8-.7.4 1.8 0 2.4-.9 1.5-1.5 3.1-.4 4.7.5.8 1.5 1.4 0 2-1 .4-2.5.3-3.2-.3l-.6-.7c-.7-1-.4-.6-1.3-.7-.7-.2-1-1-1.8-.8q-1 .1-1.7.6c-.3.2-1.1-.1-1.6-.3l-3.4-1.5c-.2 0-.7 0 .2-.2.6.1 7 3.5 5.4-1-.4-.3-1.9-3.2-2.2-3.5s-2.4-1.7-2.6-2.2-1.8-1-2.1-1c-1.4.3-.5 4.1-.8 3.7.4.3 1.1 3.4 2.3 4-.2 0 0 .3-.3.2-.8-.3-.6 2.7-1.8.1q-1.2-2-3.2-3.5c-2.2-2-3-5-5.4-7-1.5-1.3-4.8-3.9-3.3-5.7"/></svg>
