<svg xmlns="http://www.w3.org/2000/svg" viewBox="632.96 565.86 42.73 42.73"><path id="ni" d="m 636.795,585.558 c 0.907,0.381 0.935,1.337 2.088,1.225 0.161,-0.27 -0.34,-0.546 0.126,-0.618 0.474,-0.06 1.77,-0.132 2.207,-0.263 0.949,-0.284 0.349,-1.587 1.021,-2.059 0.502,-0.352 1.287,-0.08 1.409,-0.794 0.155,-0.907 -0.649,-2.746 -0.08,-3.467 0.523,-0.667 1.725,-0.13 2.38,-0.04 0.829,0.107 1.163,-0.624 1.632,-1.18 1.758,-2.082 1.993,-0.6 3.836,0.576 0.306,-1.748 2.666,-2.923 4.123,-4.144 0.993,-0.07 -0.05,-0.776 1.083,-1.73 0.86,-0.721 0.839,-1.892 1.762,-2.587 1.046,-0.788 1.443,0.527 2.297,0.996 1.239,0.681 1.816,-0.06 2.986,-0.462 1.271,-0.44 3.487,-0.571 4.669,-1.216 0.537,-0.293 0.966,-0.795 1.584,-0.937 0.77,-0.176 1.531,0.132 2.304,0 -0.656,0.313 -1.015,1.706 -1.872,0.937 -0.81,1.409 1.274,3.74 0.576,5.544 -0.675,1.747 -2.075,2.746 -2.648,4.65 -0.713,2.371 -0.424,4.742 -0.816,7.137 -0.19,1.163 0.31,4.235 -1.072,4.413 0.04,-1.361 0.816,-2.355 0.576,-3.816 -0.917,0.229 -0.03,1.896 -1.728,2.448 1.153,1.487 0.307,3.038 0.36,4.68 -0.266,-0.451 -0.338,-0.931 -0.216,-1.44 -0.166,0.985 -0.796,1.861 -0.792,2.881 1.856,-0.666 0.395,1.817 0.03,2.423 -0.876,1.443 -1.506,3.129 -0.384,4.731 0.5,0.713 1.443,1.368 -0.08,1.973 -0.889,0.354 -2.415,0.295 -3.181,-0.313 -0.23,-0.198 -0.425,-0.426 -0.585,-0.685 -0.647,-0.953 -0.426,-0.611 -1.297,-0.762 -0.669,-0.116 -1.085,-0.923 -1.816,-0.771 -0.592,0.122 -1.131,0.321 -1.644,0.601 -0.323,0.176 -1.161,-0.108 -1.587,-0.297 -2.183,-0.969 -3.167,-1.43 -3.466,-1.458 -0.149,-0.01 -0.726,-0.06 0.228,-0.223 0.608,0.1 7.073,3.508 5.382,-0.972 -0.346,-0.38 -1.89,-3.196 -2.232,-3.542 -0.329,-0.333 -2.32,-1.684 -2.519,-2.223 -0.212,-0.577 -1.837,-0.951 -2.162,-0.895 -1.341,0.231 -0.472,4.038 -0.735,3.611 0.319,0.329 1.069,3.457 2.258,4.024 -0.16,-0.01 0.04,0.318 -0.285,0.213 -0.864,-0.279 -0.649,2.649 -1.836,0.08 -0.666,-1.444 -2.066,-2.439 -3.17,-3.499 -2.188,-2.101 -3.1,-4.969 -5.442,-7.004 -1.504,-1.307 -4.744,-3.882 -3.27,-5.741" fill="#2B1D24">
		
	</path></svg>
