<svg xmlns="http://www.w3.org/2000/svg" viewBox="1331.3 235.3 29.6 29.6"><g fill="#2b1d24"><path d="m1336.5 253.1-.7.1c.7.3 1.7 1.4 2.5.6q-.7-.8-1.8-.7"/><path d="M1336.8 252.8c1.2-.5 2 1.6 3 .7-.8-.4-2-1.8-3-.7m6.1-10q1-.5.6-1.5-.9.5-.6 1.5m1.7-2.3q-.5.1-.8.5zm1.3-.7q1.1-.2 2.2-.8-1.2.3-2.2.8m3.1-.6q.8 0 1.5-.4-.7 0-1.5.4m-15.7 17.5c.1-1.4 4.9-.3 5.8-.3-.8.8-2.1 1.4-3.3.9-.7-.4-2.2 0-2.5-.6"/><path d="M1342.7 243.8a19 19 0 0 1-4.5 7.6c-1 .8 1.3 1.5 1.8 1.7 1.2.4 2.7-.6 3 .3-1.5-.3-3.1 1.1-4.6.5 1.3.8-.3.2-.9.6.6.4 1.7.2 1.8 1-1.1.4-1.8-.7-2.6-1.2-1 0-2.1-.3-2.7.7.7 1 2.1.8 3.1.7.9 0 3.6 1.4 3.5-.3q1 .8 1.7-.1c.3.9 1.6.6 2.1 0 .6 2 3.5 2 5.2 2.7-1.1 1.4-2.3 3.4.8 3.4 1.3 0-.3-2 0-2.4.6-1.2 2-2.4 1.6-4q-.4-1.2-1.6-2c-.1-1.7 1.8.1 1.3-1.2.6.3 4 .6 4.2-.3.1-.5-.6-1 0-1.4q.4 0 .7-.4c2.6-2.5-2-2.5-1.2-3.7.5-.9 2.3.2 2.4-.7.1-1.1.8-2 1-3 .4-1.7-2.3-3.6-4-3.4-2.4.3-6.5.8-7.2 4.4-.4 1.7 1.5 2.7 1.7 2.8.9.4.5 1 0 1.3l-1.4 1.2c-.7.6-1.8-.5-2.6-.5.2-.5 3.2-1.2 2-3.2-2-1.8-4.3-2-4.6-1.1m-560 350.8c-.1-.5.1-1.5-.4-1.7q-.6-.1-.5-.8c1 .7 2.1 1.3 1 2.5"/></g></svg>
