<svg xmlns="http://www.w3.org/2000/svg" viewBox="1331.29 235.32 29.61 29.61"><g id="nl" fill="#2B1D24">
		
		<g id="nlx">
			<path id="path6448" d="m 1336.49,253.13 c -0.24,0.02 -0.47,0.05 -0.71,0.07 0.76,0.317 1.67,1.39 2.51,0.576 -0.49,-0.436 -1.13,-0.728 -1.8,-0.648"></path>
			<path id="path6450" d="m 1336.78,252.77 c 1.2,-0.455 1.94,1.582 3.1,0.72 -0.9,-0.427 -2.13,-1.809 -3.1,-0.72"></path>
			<path id="path6452" d="m 1342.90,242.77 c 0.62,-0.24 1.05,-0.809 0.58,-1.44 -0.53,0.298 -0.85,0.837 -0.58,1.44"></path>
			<path id="path6454" d="m 1344.56,240.46 c -0.25,0.146 -0.53,0.282 -0.72,0.504 0.24,-0.168 0.48,-0.336 0.72,-0.504"></path>
			<path id="path6456" d="m 1345.86,239.81 c 0.75,-0.233 1.54,-0.381 2.23,-0.792 -0.78,0.133 -1.56,0.348 -2.23,0.792"></path>
			<path id="path6458" d="m 1349.02,239.17 c 0.53,-0.01 1.03,-0.133 1.51,-0.36 -0.54,0 -1.04,0.113 -1.51,0.36"></path>
			<path id="path6482" d="m 1333.33,256.66 c 0.12,-1.335 4.84,-0.285 5.76,-0.288 -0.82,0.827 -2.14,1.447 -3.27,0.919 -0.73,-0.346 -2.22,0.05 -2.49,-0.631"></path>
			<path id="Netherlands_mainland" d="m 1342.7171,243.77656 c -1.05,2.914 -2.3071,5.36444 -4.5671,7.58144 -0.87,0.858 1.31,1.551 1.82,1.713 1.21,0.385 2.72,-0.589 3.12,0.303 -1.56,-0.3 -3.22,1.166 -4.73,0.504 1.35,0.861 -0.22,0.225 -0.81,0.604 0.56,0.394 1.62,0.198 1.71,1.109 -1.11,0.348 -1.75,-0.749 -2.52,-1.31 -0.95,0 -2.14,-0.308 -2.72,0.705 0.73,0.963 2.09,0.766 3.13,0.706 0.85,-0.05 3.59,1.406 3.42,-0.302 0.53,0.397 1.29,0.605 1.72,-0.101 0.35,0.863 1.65,0.584 2.11,0 0.55,2.027 3.5,2.006 5.24,2.721 -1.18,1.369 -2.33,3.389 0.71,3.427 1.31,0.02 -0.22,-2.04 0,-2.419 0.69,-1.172 2.09,-2.405 1.61,-3.931 -0.24,-0.778 -0.77,-1.727 -1.61,-2.016 -0.1,-1.767 1.81,0.07 1.31,-1.31 0.59,0.299 4.01,0.649 4.23,-0.302 0.11,-0.428 -0.62,-0.973 0,-1.311 0.28,-0.09 0.47,-0.242 0.71,-0.403 2.57,-2.564 -1.92,-2.542 -1.21,-3.729 0.53,-0.888 2.34,0.134 2.42,-0.706 0.11,-1.123 0.75,-1.952 1.01,-3.024 0.4,-1.649 -2.33,-3.63 -3.93,-3.426 -2.52,0.32 -6.5693,0.83846 -7.3248,4.39598 -0.3797,1.70495 1.4948,2.74002 1.7748,2.86102 0.84,0.367 0.48,0.925 0,1.31 -0.47,0.377 -0.93,0.839 -1.41,1.209 -0.71,0.555 -1.85,-0.535 -2.62,-0.504 0.24,-0.513 3.1618,-1.21317 1.9935,-3.2003 -2.01,-1.8365 -4.2864,-2.00914 -4.5864,-1.15514 z"></path>
		</g>
		<g id="bq">
			
			<path id="bq-" d="m 782.74,594.56 c -0.163,-0.412 0.08,-1.47 -0.445,-1.681 -0.443,-0.179 -0.638,-0.129 -0.485,-0.768 0.937,0.708 2.108,1.24 0.93,2.449"></path>
			
		</g>
	</g></svg>
