<svg xmlns="http://www.w3.org/2000/svg" viewBox="1324.73 25.82 189.07 189.07"><g id="no" fill="#2B1D24">
		
		<g id="xv">
			
			<path id="path6656" d="m 1386.82,53.48 c -1.12,-0.849 -2.74,-0.733 -3.79,-1.68 -1.02,-0.916 -1.83,-2.308 -3.41,-1.632 0.38,1.301 2.06,2.145 3.26,2.466 1.42,0.379 3.2,1.642 4.66,1.494 -0.23,-0.235 -0.46,-0.451 -0.72,-0.648"></path>
			<path id="path6658" d="m 1381.57,44.77 c -0.5,-0.383 -1.03,-0.431 -1.59,-0.144 0.53,0.06 1.06,0.103 1.59,0.144"></path>
			<path id="Norway_Spitsbergen" d="m 1382.58,48.01 c 0.2,1.164 2.07,0.337 2.66,0.07 -0.2,-0.252 -0.42,-0.492 -0.65,-0.72 0.79,0.388 1.66,-0.137 2.3,0.648 -0.61,0.221 -1.18,0.509 -1.72,0.864 0.62,0.192 1.25,0.384 1.87,0.576 -1.3,0.911 -2.89,-0.781 -4.18,0.215 1.35,0.277 1.78,1.761 3.07,2.083 1.57,0.392 3.26,0.118 4.85,0.581 -1.08,0.129 -2.23,-0.131 -3.24,0.36 1.57,0.94 3.31,1.614 5.13,1.562 1.26,-0.04 2.42,-0.102 3.66,-0.409 0.93,-1.026 1.74,-0.394 2.95,-0.864 -0.51,-0.252 -1.04,-0.468 -1.58,-0.648 0.67,-0.131 0.8,-0.583 0.35,-1.08 1.54,-0.512 3.26,1.208 4.11,-0.936 1.04,0.36 0.77,1.583 -0.29,1.584 0.76,1.124 2.36,0.867 3.47,0.542 0.69,-0.202 1.31,-0.494 1.92,-0.873 1.09,-0.678 1.31,-0.169 2.46,-0.174 -0.81,0.295 -1.62,0.663 -2.16,1.368 1.34,-0.136 2.69,0.123 4.03,0.216 -2.24,0.693 -4.88,-0.487 -7.01,0.627 -0.93,0.487 -1.84,0.247 -2.73,0.692 -1.7,0.849 -3.26,0.285 -5.02,0.769 0.2,0.252 0.42,0.492 0.65,0.721 -0.85,-0.372 -2.65,-0.971 -3.51,-0.416 -1.66,1.064 2.22,1.928 2.68,1.91 2.21,-0.09 4.38,-0.57 6.59,-0.7 1.35,-0.08 2.69,0.1 4.04,-0.03 1.17,-0.106 2.5,-0.737 3.66,-0.551 -0.46,0.529 -0.56,0.928 0.43,0.936 -1.87,-0.518 -3.79,0.144 -5.68,0.144 -2.02,0 -4.07,0.188 -6.05,0.648 2.5,0.844 5.27,0.203 7.7,1.368 -2.35,0.05 -4.88,-1.3 -7.29,-0.61 -0.99,0.281 -1.86,-0.363 -2.85,-0.276 -1.89,0.166 -1.24,1.267 -0.1,1.963 1.57,0.933 3.83,1.229 5.6,1.643 1.3,0.305 2.02,-0.245 3.22,-0.372 1.02,-0.107 2,0.414 2.97,0.605 -1.53,0.637 -3.26,-0.146 -4.75,0.72 1.37,0.326 3.15,0.923 4.31,1.772 1.22,0.897 5.19,-0.907 2.81,-1.412 0.48,-0.274 1.13,-0.379 1.52,-0.792 -0.1,-0.24 -0.19,-0.48 -0.29,-0.72 0.32,-0.142 0.61,-0.33 0.86,-0.565 0.54,-1.459 1.55,-2.315 3.14,-2.315 1.06,0 2.15,-1.537 1.36,-2.397 -0.89,-0.956 3.04,-1.342 3.35,-1.563 -0.26,-0.147 -0.52,-0.292 -0.79,-0.432 1.13,-0.02 0.46,-1.174 0.21,-1.728 2.5,-0.267 4.69,-1.21 7.25,-1.099 1.22,0.05 4.36,0.387 4.78,-1.278 -2.64,-0.556 -6.14,-0.264 -8.54,-1.469 -0.9,-0.454 -1.65,-0.695 -2.67,-0.557 -1.36,0.183 -1.94,-0.621 -3.12,-0.638 2.1,-0.442 -0.71,-1.874 -1.47,-2.104 -0.84,-0.249 -1.53,0.49 -2.18,0.864 -0.35,0.2 -0.73,0.294 -1.03,-0.05 -0.68,-0.786 0.62,-1.115 1.08,-1.731 -1.05,-0.325 -2.03,-0.847 -3.11,-1.098 -0.91,-0.209 -1.54,0.278 -2.36,0.162 -0.84,-0.118 -3.45,-1.642 -3.03,0.288 -3.68,-1.096 2.35,5.462 2.38,5.904 -1.36,-0.424 -2.14,-1.949 -3.74,-1.439 0.74,-1.193 -2.88,-3.208 -3.61,-3.58 -1.13,-0.568 -1.91,-0.494 -2.86,0.286 -0.65,0.535 -1.4,0.376 -2.04,0.839 -0.3,0.216 0.36,1.268 0.3,1.59 -1.05,-1.475 -2.48,-0.616 -3.89,-1.152 0.14,-0.266 0.28,-0.53 0.43,-0.792 -1.34,-0.05 -2.71,0.458 -4.03,0.07 1.24,0.02 2.35,-0.648 3.59,-0.648 1.1,0 2.26,0 3.32,-0.359 -0.25,-1.378 -2.78,-0.632 -3.64,-0.532 -0.91,0.105 -1.8,0.358 -2.71,0.441 -0.59,0.05 -3.21,-1.068 -2.29,0.45 -0.94,0.312 -1.32,-0.814 -2.16,-0.936 -0.64,-0.09 -3.44,0.818 -1.65,1.296 -0.4,0.01 -3.84,0.345 -1.52,0.432 -0.6,-0.05 -1.18,0.04 -1.73,0.288 0.77,-0.01 0.67,0.148 0.57,0.683 -0.13,0.607 1.27,0.925 1.6,1.263"></path>
			<path id="path6718" d="m 1417.71,43.11 c -0.76,0.326 -1.6,0.316 -2.38,0.576 3.14,0.729 6.28,1.513 9.51,0.864 3.46,-0.693 7.02,-0.4 10.51,-0.216 -2.58,0.9 -5.45,0.746 -8.13,0.647 0.67,0.504 1.5,0.505 2.3,0.576 -2.17,0.257 -4.32,-0.427 -6.48,-0.144 1.34,1.304 4.84,1.344 6.6,1.49 2.75,0.229 5.99,0.121 8.73,-0.194 -0.27,0.154 -0.54,0.322 -0.79,0.504 1.97,1.305 5.49,1.518 7.66,0.65 1.68,-0.67 2.5,-0.76 4.25,-0.619 1.17,0.09 2.71,-0.321 3.64,-1.039 -0.21,-0.242 -0.42,-0.482 -0.64,-0.721 2.02,-0.673 4.1,-1.198 6.19,-1.584 -0.81,-2.523 -4.09,-1.863 -6.09,-1.785 -1.62,0.06 -3.16,-0.519 -4.78,-0.519 -0.72,0 -1.58,-0.288 -2.28,-0.07 -0.67,0.208 -1,-0.752 -1.83,-0.506 2.25,0.239 -1.52,0.557 -1.95,0.912 -0.89,0.726 -2.21,0.153 -3.23,0.312 1.41,-0.65 -0.44,-1.285 1.08,-1.439 -0.69,-0.476 -1.55,-0.385 -2.31,-0.648 0.26,1.146 -1.09,1.085 -1.65,0.504 0.6,0.373 0.65,0.541 0.25,1.015 -0.31,0.364 0,1.182 -0.2,1.342 -1.03,0.799 -2.59,-1.124 -3.87,-0.556 2.18,-0.69 -0.99,-0.676 -1.46,-0.628 -0.96,0.1 -2.03,0.274 -2.88,-0.321 -1.36,-0.946 -3.91,-1.573 -5.52,-1.066 0.49,0.282 1.02,0.45 1.58,0.504 -1.12,1.349 -2.51,0.176 -3.88,0.144 0.42,0.804 1.3,1.136 2.16,1.008 -0.85,0.921 -2.29,0.14 -3.25,-0.108 -1.46,-0.377 -3.13,0.06 -4.6,0.181 0.38,0.06 3.67,0.589 1.58,0.504 1,0.234 2.07,0.383 3.1,0.216 -0.28,0.229 -0.59,0.301 -0.94,0.214"></path>
			<path id="path6720" d="m 1416.70,41.74 c 0.22,-0.168 0.43,-0.336 0.65,-0.504 -0.75,-0.174 -1.59,-0.389 -2.23,0.217 0.54,0.01 1.07,0.109 1.58,0.287"></path>
			<path id="path6730" d="m 1423.83,79.54 c 0.5,-0.146 0.77,-0.481 0.79,-1.008 -0.75,-0.318 -1.56,-0.201 -2.3,0.07 0.47,0.362 0.97,0.674 1.51,0.937"></path>
			<path id="path6732" d="m 1424.77,47.07 c 0.26,0 0.52,0 0.79,0 -0.74,-0.259 -1.62,-0.454 -2.31,0.07 0.51,0.02 1.01,0 1.52,-0.07"></path>
			<path id="path6738" d="m 1426.78,49.30 c 0.73,-0.08 1.47,-0.227 2.16,-0.504 -1.01,-0.216 -2.18,-0.548 -3.02,0.288 0.28,0.07 0.57,0.144 0.86,0.216"></path>
			<path id="path6740" d="m 1427.72,39.29 c 0.24,-0.07 0.48,-0.145 0.72,-0.217 -0.75,-0.06 -1.49,-0.141 -2.23,-0.215 0.5,0.155 1,0.298 1.51,0.432"></path>
			<path id="path6742" d="m 1426.21,52.54 c 1.32,0.265 2.35,0.335 3.45,1.176 0.96,0.728 1.98,0.403 3.09,0.4 0.49,0 5.35,-0.06 3.62,-1.62 -1.92,-1.729 -7.94,-0.743 -10.16,0.04"></path>
			<path id="path6744" d="m 1427.22,39.58 c -0.18,-0.225 -0.43,-0.272 -0.73,-0.145 0.24,0.05 0.49,0.1 0.73,0.145"></path>
			<path id="path6754" d="m 1430.60,58.95 c 3.09,0.825 6.18,-0.846 9.29,-0.576 -0.25,0.239 -2.01,0.997 -1.37,1.486 1.2,0.927 2.32,-0.03 3.5,-0.349 1.31,-0.354 2.17,-0.2 3.38,-0.983 1.38,-0.889 2.81,-1.165 4.42,-1.306 -1.09,-0.82 -2.6,-1.247 -3.95,-0.88 -1.48,0.406 -3.08,-0.356 -4.47,-0.776 0.39,-0.474 0.92,-0.845 1.51,-1.008 -1.92,-0.834 -3.87,-0.288 -5.86,-0.288 -2.18,0 -4.38,-0.04 -6.52,0.433 0.72,0.825 1.97,1.111 3.02,1.151 -0.13,0.618 -0.61,1.28 -0.97,1.79 -0.54,0.781 -1.82,0.137 -1.98,1.306"></path>
			<path id="path6780" d="m 1458.32,51.61 c 0.24,-0.168 0.48,-0.336 0.72,-0.504 -0.75,-0.144 -1.54,-0.882 -2.23,-0.144 0.51,0.194 1.01,0.41 1.51,0.648"></path>
			<path id="path6784" d="m 1461.56,42.10 c -0.24,0.12 -0.48,0.24 -0.72,0.36 0.52,0.04 1.02,-0.03 1.51,-0.217 -0.27,-0.05 -0.53,-0.09 -0.79,-0.143"></path>
			<path id="path6786" d="m 1464.66,50.38 c 2.19,-0.701 5.06,0.44 6.98,-0.576 -2.56,0.31 -5.57,-1.252 -7.85,0.504 0.29,0.02 0.58,0.05 0.87,0.07"></path>
			<path id="path6788" d="m 1479.27,42.68 c 3.14,-0.301 6.31,-0.297 9.43,-0.864 -2.96,-0.28 -6.69,-0.464 -9.43,0.864"></path>
		</g>
		<path id="Norway_Jan_Mayen" d="m 1273.35,104.24 c 1.08,-0.473 2.16,-1.089 3.36,-1.192 0.72,-0.06 2.12,0.04 2.58,-0.676 0.99,-1.549 -2.59,0.105 -2.95,0.317 -0.95,0.574 -2.49,0.334 -2.99,1.551"></path>
		<path id="Norway_mainland" d="m 1347.01,174.87 c 1.52,-0.736 3.18,-0.09 4.75,-0.576 -0.36,-0.06 -0.69,-0.02 -1.02,0.138 -0.72,0.238 -1.28,-0.296 -2,-0.282 2.32,-0.689 -1.54,-0.338 0.71,-0.792 -0.79,-0.124 -1.58,0.01 -2.37,0.07 0.79,-0.157 1.6,-0.152 2.37,-0.432 -0.69,0.16 -2.45,0.661 -2.44,-0.576 0.56,0.07 1.07,-0.07 1.51,-0.433 -1.93,0.194 1,-1.069 1.51,-1.08 0.61,-0.01 0.94,0.465 1.51,0.576 0.56,0.11 2.38,-0.459 1.08,0.793 0.31,-0.778 4.32,-1.3 5.12,-0.937 -0.87,-0.473 -1.91,0.133 -2.83,-0.04 -0.48,-0.09 -4.49,-0.257 -2.43,-0.325 -1.25,-0.09 -3.25,0.495 -4.32,-0.359 0.59,0.03 1.09,-0.157 1.51,-0.576 -0.33,-0.361 -1.81,-0.571 -1.75,-1.218 0.1,-0.927 2.12,0.72 2.18,1.29 0.27,-0.124 0.51,-0.292 0.72,-0.504 -1.32,0.01 -0.3,-1.563 0.87,-0.07 0.1,-0.705 0.9,-1.18 1.01,-0.344 0.1,0.511 2.08,0.412 2.44,0.416 -0.59,-0.13 -2.59,-0.937 -1.36,-1.673 1.47,-0.886 1.71,0 2.8,0.88 -1.93,-3.789 4.75,-1.102 2.09,0.648 0.57,0.141 1.1,0.05 1.59,-0.288 -0.6,-0.128 -1.04,-0.639 -0.44,-1.151 0.31,-0.268 1.18,0.124 1.59,-0.07 -1.7,0.06 -1.87,-0.832 -3.2,-1.323 -1.05,-0.389 -2.22,0.241 -3.28,-0.05 0.84,-0.279 1.73,-0.178 2.59,-0.288 -0.79,-0.482 -1.71,-0.09 -2.45,-0.72 1.38,-0.305 3.02,-0.725 4.4,-0.219 1.18,0.428 3.12,1.052 4.24,0.291 -0.52,0.138 -1.05,0.186 -1.58,0.145 0.19,-1.601 2.96,-1.447 4.03,-1.08 -1.35,-1.384 -3.16,0.831 -4.61,-0.216 0.5,-0.133 1.01,-0.276 1.51,-0.431 -1.14,0.06 -2.87,1.084 -3.81,0 0.46,-0.19 0.94,-0.263 1.44,-0.218 -0.62,-0.13 -1.15,-0.418 -1.59,-0.864 0.76,-0.533 1.68,-0.727 2.5,-0.156 0.83,0.582 1.59,-0.307 2.47,-0.131 0.8,0.161 1.5,-0.298 1.83,0.725 0.27,0.859 1.92,0.94 2.56,1.436 -0.78,-1.386 -2.86,-1.371 -3.24,-3.097 0.58,-0.367 1.48,0.387 1.81,0.778 0.81,0.948 0.38,0.754 1.86,0.806 -1.45,-0.141 -0.5,-0.743 0.15,-0.864 -0.3,-0.03 -2.89,-0.108 -0.79,-0.216 -0.32,0.02 -2.24,-0.657 -1.18,-0.897 1.22,-0.277 2.65,-0.328 3.91,-0.543 -0.75,0.1 -1.54,0.178 -2.23,-0.215 0.29,-0.271 0.54,-0.572 0.76,-0.901 0.43,-0.528 0.84,-0.198 1.38,-0.409 0.83,-0.327 1.69,-0.01 0.81,0.878 0.73,-0.336 1.52,-0.504 2.31,-0.647 -0.56,0.103 -1.11,0.08 -1.66,-0.07 0.45,-0.321 0.96,-0.514 1.51,-0.576 -0.5,-0.08 -1.01,-0.08 -1.51,0 0.77,-0.521 1.87,-0.762 2.76,-1.011 1.05,-0.293 2.51,1.499 0.99,2.163 0.75,-0.277 1.53,-0.12 2.3,-0.145 -1.96,-0.459 0.44,-0.909 0.97,-0.904 0.89,0.01 1.83,0.245 2.7,0.04 -0.54,-0.657 -0.4,-0.945 0.43,-0.864 -0.53,-0.188 -1.03,-0.141 -1.51,0.144 1.18,-0.907 2.54,-1.628 4.03,-1.8 -0.1,-0.647 -0.52,-0.86 -1.08,-0.576 0.23,-0.982 1.29,-0.943 2.02,-1.296 -0.66,-0.08 -2.46,0.326 -0.79,-0.648 -1.51,0.06 -2.4,1.746 -3.89,1.944 0.54,0 1.05,-0.146 1.51,-0.432 0.87,1.189 -1.95,2.071 -2.64,2.316 -2.26,0.807 -2.75,1.232 -4.05,-0.661 0.63,0 1.19,-0.31 1.65,-0.72 -1.04,0.25 -2.1,0.514 -3.09,0.937 0.56,-0.374 1.22,-0.872 -0.1,-0.864 1.14,-0.503 2.65,-1.579 3.96,-1.08 -0.54,-0.339 -1.07,-0.314 -1.58,0.07 0.23,-0.21 0.47,-0.402 0.72,-0.576 -1.64,0.333 0.1,-0.591 0.52,-0.934 0.53,-0.426 0.21,-0.975 1.14,-0.65 -0.72,-2.005 3.72,-1.483 3.31,-3.24 0.8,0.239 1.27,1.035 2.09,1.224 -0.1,0.273 -0.23,0.537 -0.37,0.793 0.73,-0.476 1.58,-0.891 2.45,-1.009 -1.41,0.144 -0.58,-0.861 0.15,-0.864 -0.49,-0.185 -1,-0.28 -1.52,-0.287 0,-1.144 1.6,-1.164 2.38,-1.368 -0.39,-0.01 -0.77,-0.06 -1.15,-0.144 1.31,-1.008 3.22,-1.272 4.75,-0.648 -2.55,-1.257 -4.42,1.187 -6.91,1.152 0.98,-0.292 0.96,-0.483 -0.1,-0.576 0.73,-0.383 1.58,-0.163 2.3,-0.576 -0.57,0.227 -1.14,0.251 -1.73,0.07 0.49,-0.198 0.99,-0.271 1.51,-0.217 -2.31,-0.467 2.58,-0.675 0,-0.504 0.7,-0.06 1.4,-0.229 2.02,-0.576 -1.79,0.05 0,-0.813 0.65,-0.144 0.12,-0.923 1.18,-1.021 1.37,-0.07 -0.58,0.239 -1.18,0.287 -1.8,0.145 1.68,0.779 3.96,-0.459 5.18,-1.584 -0.54,0.26 -1.03,0.605 -1.57,0.848 -0.5,0.221 -2.54,0.156 -0.73,-0.06 -1.01,-0.09 -0.88,-0.5 -0.36,-1.008 -0.6,-0.114 -1.15,0.185 -1.51,0.647 -0.52,-0.706 0.13,-2.278 1.08,-2.231 0.21,0.177 0.39,0.378 0.55,0.605 0.52,0.509 1.26,0.07 1.82,-0.101 -0.23,0.07 -1.93,-0.6 -2,-0.709 -0.92,-1.46 0.98,-1.057 1.71,-0.659 -1.88,-0.745 0.42,-3.595 2.59,-1.44 -0.26,-1.184 -2.05,-1.688 -3.02,-1.584 1,-0.03 2.76,-1.018 3.75,-1.378 0.92,-0.333 0.6,0.179 1.17,0.53 0.36,0.224 1.01,-0.1 1.42,-0.02 -1.22,-0.303 1.45,-0.797 2.01,-1.368 -2.02,0.482 -4.1,0.666 -6.12,1.151 0.51,-0.796 1.39,-0.872 2.24,-0.936 -0.79,-0.129 -1.6,0.09 -2.38,-0.145 0.66,-0.469 0.55,-1.033 -0.15,-1.367 0.74,-0.505 1.03,0.365 1.73,0.359 0.24,0 2.18,-0.943 2.31,-1.08 -1.17,-0.349 -2.33,1.039 -3.17,-0.359 0.52,-0.15 1.05,-0.174 1.58,-0.07 -0.37,-0.146 -0.76,-0.267 -1.15,-0.36 1.01,-0.264 2.04,0.291 3.03,-0.07 -0.3,0.03 -2.49,-0.102 -0.65,-0.289 -2.01,-0.196 1.21,-0.267 1.51,-0.287 -0.83,-0.128 -1.51,-0.649 -2.31,-0.864 0.79,-0.404 1.85,-0.774 2.75,-0.613 1.16,0.208 1.99,-0.844 3.16,-0.251 -0.48,-0.296 -1.01,-0.44 -1.58,-0.432 0.29,-1.014 3.59,-1.548 3.59,-0.792 0.86,-0.545 2.15,-0.158 2.88,0.432 0,-0.803 0.14,-0.943 0.94,-0.647 -0.99,-0.196 -1.97,-0.577 -2.99,-0.615 -1.43,-0.05 -2.47,0.56 -3.92,-0.03 0.59,-0.17 0.92,-0.773 1.51,-0.936 0.67,-0.185 0.96,0.683 1.51,-0.145 -0.52,0.04 -1.02,-0.03 -1.51,-0.216 0.69,-0.386 1.58,-0.95 2.38,-0.432 -0.29,0.144 -0.58,0.288 -0.87,0.432 0.73,-0.178 1.58,-0.298 2.31,-0.07 0.66,0.204 1.15,1.105 1.94,0.792 -1.63,-0.06 0.18,-1.39 0.94,-1.367 -1.28,-0.145 -2.48,0.54 -3.75,0.07 2.43,-0.533 -1.14,-0.02 0.28,-1.044 0.44,-0.319 1.19,0.08 1.67,0.04 -1.85,-0.296 0.82,-0.265 1.51,0.144 -1.85,-1.861 -3.64,0.169 -5.69,0.217 0.32,-0.524 0.89,-0.868 1.51,-0.864 -0.58,-0.04 -1.11,-0.236 -1.58,-0.576 0.5,-0.06 1,-0.09 1.51,-0.07 -2.45,-0.1 1.94,-0.555 2.37,-0.594 0.65,-0.06 2.2,0.356 2.46,-0.558 -1.2,-0.646 -2.49,-0.07 -3.75,-0.217 0.46,-0.877 1.41,-0.625 2.16,-1.008 -1.24,1.621 1.32,-0.767 2.1,-0.274 0.96,0.615 0.24,2.627 1.93,2.507 -0.59,-0.118 -1.03,-0.561 -1.15,-1.152 0.35,0.281 2.78,1.208 0.72,0 0.85,0.473 1.04,0.305 0.58,-0.504 0.52,0.15 1.05,0.174 1.58,0.07 -0.83,-0.05 -1.65,-0.185 -2.45,-0.432 0.38,-0.167 0.76,-0.312 1.15,-0.433 -0.54,-0.13 -1.09,-0.202 -1.65,-0.216 1.06,-0.08 1.06,-0.319 0,-0.72 1.11,0.331 2.09,1.017 3.24,1.224 -0.97,-0.259 -1.93,-0.923 -2.67,-1.584 1.19,-0.08 2.34,-0.394 3.49,0.07 0.5,0.05 1,0.08 1.5,0.09 0.53,0.146 0.38,0.599 1.06,0.632 -0.37,-0.03 -0.58,-0.196 -0.64,-0.508 0.2,-0.491 1.32,-0.32 1.65,-0.14 -1.98,-0.446 1.08,-0.451 1.51,-0.36 -1.56,-0.467 -2.56,-0.455 -4.14,-0.261 -1,0.123 -2.7,0.256 -3.56,-0.388 1.02,-0.188 0.61,-1.266 2.02,-1.48 1.35,-0.205 2.76,-0.06 4.1,0.112 -0.52,-0.239 -1.04,-0.455 -1.58,-0.647 0.7,-0.456 1.5,-0.13 2.23,0 -1.26,-0.181 -0.72,-0.546 -0.1,-0.864 -2.02,0.196 0.26,-2.11 1.95,-1.8 -1.92,-1.442 2.51,-3.853 2.16,-0.576 0.2,-1.337 1.66,-1.03 2.74,-0.576 -1.02,-0.474 -2.27,-0.496 -2.88,-1.584 0.9,-0.21 1.67,0.06 2.45,0.493 0.88,0.488 2.82,0.458 2.23,1.523 0.55,-0.06 1.02,-1.08 0.22,-1.08 -0.86,0 -1.67,0.18 -2.17,-0.721 0.43,-0.453 0.93,-0.573 1.51,-0.359 -0.52,-0.232 -1.04,-0.257 -1.58,-0.07 -0.17,-1.972 2.64,-1.759 3.89,-2.016 -0.12,1.07 0.1,1.945 -0.44,2.951 0.71,-0.47 1.01,-1.807 2.09,-1.295 -1.57,-0.09 -0.37,-2.373 -0.1,-1.297 0.32,-0.841 1.43,-0.524 1.51,-1.512 1.9,0.775 -0.7,4.246 -1.44,5.04 0.81,-0.549 1.83,-0.689 2.24,-1.698 0.41,-1.029 1.92,0.125 2.59,0.187 -2.41,-0.833 -1.37,-2.899 0.65,-3.313 -0.26,0.196 -0.5,0.412 -0.73,0.648 0.93,1.176 1.04,-0.58 2.02,0.144 -1.73,-2.457 4.57,0.664 4.97,0.721 -0.36,-0.416 -0.82,-0.656 -1.37,-0.721 0.88,0 0.96,-0.07 0.22,-0.234 -0.45,-0.312 -0.49,-1.359 0.64,-0.485 -0.3,-0.812 -2.23,-0.775 -0.5,-1.224 -1.19,0.356 -3.62,0.129 -4.54,-0.864 0.53,-0.188 1.04,-0.14 1.52,0.144 0.1,-0.264 0.14,-0.527 0.21,-0.792 0.55,0.278 1.08,0.59 1.59,0.937 0.24,-1.771 1.64,0.02 2.52,-0.721 -0.22,0.941 0.79,1.06 1.44,1.152 -0.56,-0.04 -0.92,-0.38 -1.01,-0.936 0.99,-0.166 2.05,0.208 3.02,0.359 -0.24,1.105 -1.84,0.946 -2.66,1.008 1.06,0.03 2.24,0.02 3.17,-0.575 0.12,1.892 1.94,1.124 3.09,1.08 -0.13,-0.413 -1.2,-0.281 -1.65,-0.72 0.68,-0.354 1.29,-0.769 -0.1,-0.937 0.33,0.02 2.79,-0.188 0.72,-0.36 0.83,0.169 1.32,-0.907 1.92,-1.264 0.9,-0.542 1.93,-0.286 2.91,-0.32 -1.46,-1.221 1.23,-1.071 1.8,-1.439 -0.72,-0.368 -1.56,-0.297 -2.23,-0.792 0.8,-0.663 1.63,0.41 2.37,-0.433 -2.08,-0.415 1.12,-0.782 1.88,-0.621 0,0.01 2.94,1.963 1.51,0.117 1.03,-0.1 2,0.9 3.02,0.36 -0.62,1.57 -2.93,1.674 -3.96,2.88 0.58,-0.143 0.92,0.135 0.94,0.72 -0.36,0.04 -1.52,1.112 -1.44,1.872 0.5,-0.283 1.47,0.269 1.67,-0.06 0.21,-0.358 0.5,-0.629 0.88,-0.815 0.45,-0.315 -0.22,-0.527 0,-0.851 1.21,-1.486 4.14,-3.749 5.97,-4.248 0.32,1.201 0.39,1.915 -1.08,2.016 1.39,-0.243 1.3,1.407 0.87,2.232 0.61,0.06 0.68,-0.255 1.01,-0.629 0.48,-0.543 1.34,-0.142 1.94,-0.163 -0.19,-0.262 -0.38,-0.526 -0.57,-0.792 0.51,-0.1 1.02,-0.07 1.51,0.07 -0.56,-0.122 -0.93,-0.573 -0.94,-1.151 0.86,0.06 1.51,-0.805 2.38,-0.433 -0.58,-0.714 -1.5,-0.615 -2.31,-0.791 0.55,-0.09 5.06,-2.543 5.41,-0.865 0.1,0.294 1.45,0.352 1.71,0.606 0.74,0.707 -2.96,1.146 -3.16,1.267 0.55,-0.06 1.06,0.06 1.52,0.359 -0.78,0.207 -1.51,0.565 -2.31,0.721 1,-0.03 2.4,-0.874 3.31,-0.145 -0.73,0.495 -1.57,0.778 -2.37,1.152 0.96,0.06 1.94,-0.314 2.88,-0.07 -0.51,0.3 -0.85,0.832 -0.65,1.439 -0.1,-1.012 0.9,-1.599 1.8,-1.512 -1.86,0.02 0.29,-2.186 0.9,-2.552 0.81,-0.488 3.84,-0.03 2.99,1.399 0.72,-0.215 2.35,-1.039 2.6,0.217 1.02,-1.036 3.56,0.428 1.86,0.792 1.56,-0.118 3.88,-0.335 5.15,0.939 0.81,0.826 -1.84,1.106 -2.21,1.181 -1.67,0.335 -2.61,1.333 -4.48,1.069 -1.5,-0.213 -4.41,-1.306 -5.73,-0.165 0.93,0.06 1.84,0.192 2.75,0.354 0.64,0.114 3.92,0.208 1.93,0.941 0.85,0.111 2.78,0.585 0.79,1.44 0.68,-0.08 1.35,-0.18 2.03,-0.288 0.1,0.582 0.42,0.603 1,0.576 -0.11,-0.401 -0.16,-0.81 -0.15,-1.225 0.78,0.04 1.68,0.14 1.95,1.009 0.38,-1.31 2.21,-0.837 2.55,0.183 0.7,2.087 -3.58,0.74 -4,0.249 0.77,1.466 -0.92,1.931 -1.98,2.111 -0.55,0.09 -2.14,0.148 -2.22,0.777 0,0.436 0.25,0.936 -0.92,1.573 -0.55,0.302 -1.06,0.01 -1.54,-0.279 -0.98,-0.6 0.3,-1.209 0.69,-1.59 1.04,-1.002 1.51,-2.416 -0.42,-2.92 -1.48,-0.387 -2.99,-0.604 -4.42,-1.166 -1.64,-0.641 -2.86,-2.24 -4.6,-1.123 -2.84,1.823 -7.09,-0.174 -8.12,3.375 -0.23,0.818 -0.41,1.619 -0.5,2.47 0,0.535 0.46,1.448 0,1.908 -0.57,0.506 -1.18,0.249 -1.8,0.555 -0.63,0.307 -0.96,0.977 -1.36,1.504 -0.96,1.237 -2.72,-0.198 -3.86,-0.5 -0.78,-0.203 -1.56,-0.361 -2.33,-0.592 -0.95,-0.284 -0.99,0.491 -1.7,0.808 -2.18,0.984 -4.49,0.789 -6.79,-0.164 -0.93,-0.384 -2.6,-2.143 -3.47,-2.812 -1.62,-1.24 -2.99,-1.483 -4.79,-0.553 0.24,0.222 0.48,0.438 0.72,0.648 -1.43,0.798 -3.82,0.01 -5.4,0.72 2.15,0.873 0.45,2.556 -0.79,3.313 0.52,0.117 1.03,0.285 1.51,0.504 -2.44,1.869 -5.39,-0.345 -7.91,-0.157 -1.26,0.09 -2.14,-0.75 -3.42,-0.26 -0.92,0.349 0.19,1.778 0,2.505 -0.54,2.528 -3.74,0.55 -5.31,1.073 -2.59,0.863 -3.55,3.495 -6,4.616 0.59,0.51 2.13,1.392 1.94,2.351 -0.15,0.808 -3.1,2.586 -3.79,3.351 -0.48,0.533 -0.83,0.712 -1.44,1.046 -0.72,0.396 0.39,1.22 0,1.755 -0.91,1.173 -3.96,1.194 -5.26,1.145 0.22,0.781 0.9,5.822 -0.12,6.376 -0.81,0.435 -1.15,1.805 -1.9,2.469 -1,0.881 -1.95,1.859 -2.8,2.891 1.41,0.468 3.99,1.354 2.86,3.397 -0.79,1.42 -4.71,0.368 -6.11,0.593 -1.29,0.208 -5.03,2.248 -5.1,3.793 0,0.809 -0.78,1.441 -0.72,2.168 0,0.572 1.29,2.13 0.82,2.454 -1.01,0.693 -0.42,2.664 0.1,3.716 1.02,2.093 -0.15,3.46 0.1,5.529 0.14,1.314 1.75,1.749 2.75,2.136 0.5,0.19 1.28,0.469 1.45,1.039 0.12,0.364 -0.73,2.509 -1.16,2.507 -1.32,0 -2.64,0.357 -2.09,1.901 0.33,0.922 1.22,1.475 1.59,2.375 0.43,1.056 -0.51,1.582 -0.4,2.594 0.1,0.86 -0.88,1.622 -1.58,1.889 -1.15,0.444 -2.25,-0.117 -2.14,1.241 0,0.731 -0.4,1.212 -0.73,1.768 -0.41,0.677 0.3,1.652 0.23,2.409 -0.1,0.724 -0.41,3.271 -1.58,3.061 -0.53,-0.1 -0.91,-1.002 -1.2,-1.361 -0.34,-0.43 -0.91,-0.352 -1.4,-0.605 -1.3,-0.659 -2.24,-0.594 -2.7,-2.128 -0.21,-0.682 -0.32,-1.409 -0.31,-2.122 0,-0.442 0.48,-2.333 0.65,-0.624 0.74,-1.379 -1.14,-1.853 -1.28,-0.417 -0.1,0.821 0.92,1.561 0,2.217 -0.19,-0.236 -0.38,-0.477 -0.57,-0.72 -0.12,0.613 -0.54,0.762 -1.08,0.504 1.05,0.963 1.25,1.587 0.86,2.952 0,-1.45 -0.1,-0.223 -0.56,0.187 -0.43,0.349 -0.95,0.535 -1.41,0.841 -0.74,0.496 -0.15,0.94 -1.25,0.408 -0.67,-0.319 -1.28,-0.731 -1.97,-1.004 1.9,0.821 -0.41,2.166 -1.51,2.089 0.17,0.239 0.34,0.479 0.51,0.72 -0.61,0.202 -1.23,0.299 -1.88,0.288 0.13,0.263 0.25,0.526 0.37,0.791 -1.44,0.216 -1.95,1.702 -3.11,2.395 -1.41,0.849 -2.94,1.241 -4.47,1.787 -0.65,0.229 -1.49,0.841 -2.19,0.836 -0.7,0 -1.34,-0.358 -2.05,-0.375 -1.13,-0.03 -3.15,0.408 -3.95,-0.682 0.47,-0.434 0.99,-0.77 1.58,-1.008 -2.53,1.558 -10.59,-3.5 -7.13,-5.4 -0.23,-0.184 -0.47,-0.352 -0.72,-0.504 1.5,-0.1 2.61,1.303 4.11,1.224 -0.27,-0.204 -0.53,-0.42 -0.79,-0.647 0.94,-0.546 2.06,-0.666 3.09,-0.937 -1.19,0.1 -2.4,0.342 -3.38,1.08 0.14,-0.631 -0.22,-1.191 -0.8,-1.44 0.51,-0.153 1.01,-0.297 1.52,-0.432 -1.85,-0.37 1.62,-1.262 2.23,-1.368 -0.51,-0.02 -1.01,0.05 -1.49,0.219 -0.89,0.261 -1.34,-0.07 -0.1,-0.219 -0.51,0.03 -1.02,-0.02 -1.52,-0.144 1.06,-0.682 2.02,-1.432 3.24,-1.8 -0.71,0.172 -1.36,-0.513 -1.77,0.261 -0.3,0.594 -1.31,1.146 -1.9,1.396 0,-0.564 0.38,-0.906 0.94,-0.938 -0.79,-0.03 -1.66,-0.05 -2.31,0.504 0.57,-0.267 0.91,-0.04 0.94,0.576 -0.54,-0.06 -1.05,0.06 -1.51,0.361 0,-0.553 0,-1.104 0,-1.657 -0.34,0.113 -0.65,0.281 -0.94,0.504 1.89,0.161 -0.67,2.397 -0.14,0.36 -0.12,1.566 -1.12,0.08 -1.09,-0.539 0,-0.893 0.84,-1.724 1.66,-1.981 -0.1,0.695 -0.23,1.609 -1.15,1.584 0.77,0.482 1.06,-0.06 1.27,-0.723 0.28,-0.89 1.62,-0.144 2.33,-0.501 -2.01,-0.249 0.96,-0.656 1.37,-1.008 -0.84,0.494 -1.96,0.208 -2.74,-0.289 0.7,-0.9 2.1,-2.247 3.32,-2.231 -1.92,-0.572 1.69,-2.117 2.3,-2.519 0.33,0.792 -0.25,1.5 -0.43,2.23 1.22,-1.357 1.57,-2.562 3.6,-2.734 -1.55,-0.256 -3.29,0.05 -4.73,0.627 -0.43,0.172 -1.85,1.212 -2.11,1.658 -1.93,3.319 -0.92,-0.205 -2.45,0.02 0.16,-0.473 0.28,-0.953 0.36,-1.44 -0.21,0.486 -0.95,2.031 -1.75,1.665 -0.65,-0.296 -0.4,-1.501 -1.2,-1.665 0.54,-0.147 0.97,-0.555 1.15,-1.08 0.72,2.105 2.69,-0.405 2.23,-1.8 -0.98,0.245 -1.48,1.439 -2.55,1.439 -1.05,0 -1.08,-1.567 -1.98,-1.871 0.87,0 1.9,0.381 2.44,1.08 -0.1,-0.649 -0.29,-1.696 0.72,-1.656 -0.93,-0.226 -2.58,1.18 -2.81,-0.504 0.66,0.486 0.78,0.483 1.08,-0.288 -0.77,0.201 -1.37,-0.972 0.22,-0.708 1.69,0.279 2.76,-0.386 4.39,-0.444 1.18,-0.04 2.72,0.747 3.81,0.03 1.15,-0.765 3.41,1.016 1.81,1.482 0.51,-0.292 1.04,-0.34 1.58,-0.145 -1.64,-1.191 2.29,-2 2.96,-2.016 -2.16,-0.27 -1.35,-1.132 -0.15,-2.232 -0.98,0.402 -2.22,1.396 -1.29,2.52 -0.78,-0.06 -1.53,0.349 -2.31,0.07 0.25,-0.235 0.52,-0.451 0.79,-0.647 -0.72,0.463 -4.27,0.635 -2.66,-0.72 -0.88,0.132 -0.73,0.879 -1.24,1.387 -0.73,0.74 -1.79,-0.03 -2.58,-0.153 -0.91,-0.144 -2.47,0.362 -3.34,0.622 -0.93,0.276 -1.65,-0.577 -2.49,-0.776 1.36,-0.01 0.58,-0.519 0,-0.864 0.92,-0.43 2.02,-0.572 3.02,-0.504 -0.98,-0.31 -2.08,0.04 -3.02,0.36 0.64,-0.844 0.48,-1.06 -0.5,-0.651"></path>
		<path id="path6606" d="m 1347.08,177.10 c -0.24,-0.245 -0.5,-0.46 -0.79,-0.647 -0.26,0.841 0,1.057 0.79,0.647"></path>
		<path id="path6608" d="m 1347.37,183.22 c -0.31,-0.242 -0.63,-0.482 -0.94,-0.72 0.18,0.513 0.28,1.041 0.29,1.584 0.6,0.03 0.85,-0.29 0.65,-0.864"></path>
		<path id="path6610" d="m 1346.72,181.78 c 0.26,0.191 0.53,0.384 0.79,0.575 -0.18,-0.316 -0.45,-0.508 -0.79,-0.575"></path>
		<path id="path6612" d="m 1346.79,181.35 c 0.25,0 0.49,-0.05 0.72,-0.144 -0.24,0.05 -0.48,0.1 -0.72,0.144"></path>
		<path id="path6614" d="m 1348.01,170.62 c 0.23,-0.694 -0.31,-0.68 -0.79,-0.504 0.26,0.168 0.53,0.336 0.79,0.504"></path>
		<path id="path6616" d="m 1347.66,191.36 c -0.42,0.57 -0.2,1.115 0.43,1.368 0.28,-0.643 0.31,-1.523 -0.29,-2.016 0,0.216 -0.1,0.432 -0.14,0.648"></path>
		<path id="path6618" d="m 1348.09,187.40 c -1.06,-0.03 -0.54,1.036 -0.65,1.656 0.16,-0.609 0.62,-0.944 1.22,-0.576 0,-0.434 -0.24,-0.794 -0.57,-1.08"></path>
		<path id="path6620" d="m 1348.66,186.24 c -0.36,0.522 -0.23,1.775 0.58,1.801 1.09,0.03 0.1,-1.712 -0.58,-1.801"></path>
		<path id="path6624" d="m 1349.60,185.96 c -0.24,0.05 -0.48,0.1 -0.72,0.144 0.7,0.05 1.26,0.83 1.81,0.04 0.49,-0.705 -0.79,-0.617 -1.09,-0.187"></path>
		<path id="path6626" d="m 1352.19,167.96 c -0.5,-0.146 -1,-0.169 -1.51,-0.07 0,1.144 1.18,0.832 1.51,0.07"></path>
		<path id="path6628" d="m 1353.41,167.09 c -0.24,-0.05 -0.47,-0.1 -0.71,-0.144 -0.1,0.479 -0.11,0.959 -0.15,1.439 0.5,-0.248 0.87,-0.712 0.86,-1.295"></path>
		<path id="path6630" d="m 1354.86,166.59 c -0.24,-0.05 -0.48,-0.07 -0.72,-0.07 0.24,0.02 0.48,0.05 0.72,0.07"></path>
		<path id="path6632" d="m 1354.35,166.81 c 0.26,0.1 0.53,0.192 0.79,0.288 -0.2,-0.253 -0.47,-0.349 -0.79,-0.288"></path>
		<path id="path6634" d="m 1358.38,164.50 c -0.26,0 -0.53,0 -0.79,0 0.32,0.157 0.66,0.277 1.01,0.36 -0.1,-0.12 -0.15,-0.24 -0.22,-0.36"></path>
		<path id="path6636" d="m 1359.03,163.57 c -0.26,-0.02 -0.53,0 -0.79,0 0.55,0.42 0.59,0.05 0.79,0"></path>
		<path id="path6638" d="m 1362.92,162.77 c 0.24,-0.168 0.48,-0.336 0.72,-0.504 -0.17,-0.281 -0.39,-0.521 -0.65,-0.72 0.1,0.824 -0.2,0.968 -0.86,0.432 -0.11,0.608 0.16,0.94 0.79,0.792"></path>
		<path id="path6642" d="m 1366.45,159.68 c -0.32,-1.075 -1.69,-0.737 -2.23,-0.07 0.72,0.216 1.51,0.517 2.23,0.07"></path>
		<path id="path6644" d="m 1365.73,161.33 c 0.26,-0.05 0.52,-0.1 0.79,-0.145 -0.46,-0.523 -1.07,-0.551 -1.51,0 0.24,0.05 0.48,0.1 0.72,0.145"></path>
		<path id="path6648" d="m 1367.02,160.83 c 0.46,0.32 0.96,0.417 1.51,0.289 -0.14,-0.929 -1.01,-0.944 -1.51,-0.289"></path>
		<path id="path6650" d="m 1367.24,158.81 c 0.83,0.915 4.23,0.172 4.61,-1.008 -0.51,-0.445 -1.24,-0.421 -1.86,-0.284 -0.47,0.105 -2.23,0.403 -0.45,0.645 -0.85,0 -1.72,-0.133 -2.3,0.647"></path>
		<path id="path6652" d="m 1370.34,156.73 c -0.76,-0.678 -2.18,0.271 -2.96,0.432 1.01,-0.06 2.15,0.443 2.96,-0.432"></path>
		<path id="path6654" d="m 1368.97,159.46 c -0.24,0.02 -0.48,0.05 -0.72,0.07 0.27,0.158 0.56,0.278 0.86,0.359 0,-0.143 -0.1,-0.287 -0.14,-0.431"></path>
		<path id="path6662" d="m 1382.58,147.44 c -0.27,0.168 -0.53,0.336 -0.8,0.504 0.54,-0.127 1.07,-0.295 1.59,-0.504 -0.27,0 -0.53,0 -0.79,0"></path>
		<path id="path6664" d="m 1382.50,147.87 c 0.85,-0.249 1.53,0.714 2.24,-0.145 -0.75,-0.328 -1.52,-0.1 -2.24,0.145"></path>
		<path id="path6666" d="m 1384.74,150.97 c 0.24,-0.02 0.47,-0.05 0.71,-0.07 -0.62,-0.158 -1.19,-0.494 -1.65,-0.936 -0.1,0.623 0.32,1.022 0.94,1.008"></path>
		<path id="path6668" d="m 1384.81,149.45 c -0.27,0.02 -0.53,0.05 -0.8,0.07 0.23,0.234 0.5,0.426 0.8,0.576 0,-0.215 0,-0.431 0,-0.647"></path>
		<path id="path6670" d="m 1385.10,150.03 c -0.24,0.5 0,0.62 0.72,0.359 -0.24,-0.119 -0.48,-0.238 -0.72,-0.359"></path>
		<path id="path6672" d="m 1387.62,146.14 c -0.58,-0.125 -1.16,0.112 -1.52,0.576 0.55,-0.06 1.06,-0.256 1.52,-0.576"></path>
		<path id="path6674" d="m 1387.47,142.25 c 0.3,0.219 0.64,0.291 1.01,0.216 -0.14,-1.002 -0.56,-0.749 -1.01,-0.216"></path>
		<path id="path6676" d="m 1391.65,140.31 c 0.59,-0.318 1.21,-0.535 1.87,-0.648 -0.97,-0.443 -2.13,-0.267 -2.59,0.793 0.24,-0.05 0.48,-0.1 0.72,-0.145"></path>
		<path id="path6678" d="m 1392.22,138.37 c -1.42,-1.098 -1.18,1.58 0.29,0.359 -0.1,-0.119 -0.2,-0.238 -0.29,-0.359"></path>
		<path id="path6680" d="m 1393.81,124.54 c -0.2,0.221 -0.37,0.461 -0.51,0.72 0.93,0.554 1.89,-0.528 1.52,-1.44 -0.39,0.165 -0.73,0.405 -1.01,0.72"></path>
		<path id="path6682" d="m 1394.24,137.93 c -0.24,0.1 -0.48,0.192 -0.72,0.288 0.25,-0.06 0.49,-0.16 0.72,-0.288"></path>
		<path id="path6684" d="m 1394.82,137.57 c -0.3,-0.09 -0.56,-0.02 -0.8,0.217 0.26,-0.07 0.53,-0.144 0.8,-0.217"></path>
		<path id="path6686" d="m 1395.18,124.47 c 0.66,0.139 1.2,-0.284 1.44,-0.864 -0.64,-0.369 -1.56,0.06 -1.44,0.864"></path>
		<path id="path6688" d="m 1396.18,133.40 c 0.51,-0.04 1.01,-0.09 1.52,-0.144 -0.52,-0.12 -1.03,-0.07 -1.52,0.144"></path>
		<path id="path6690" d="m 1397.33,123.39 c -0.17,0.24 -0.33,0.479 -0.5,0.72 1.08,-0.753 2.77,-0.382 3.67,-1.439 -0.66,0.116 -0.91,-0.473 -1.51,-0.504 -0.6,-0.03 -0.95,0.459 -1.58,0.288 0.4,0.477 0.23,0.668 -0.51,0.576 0.14,0.12 0.28,0.239 0.43,0.359"></path>
		<path id="path6692" d="m 1400.72,122.67 c 0.47,-0.508 -0.34,-0.649 -0.65,-0.648 0.22,0.216 0.43,0.432 0.65,0.648"></path>
		<path id="path6694" d="m 1400.36,130.88 c 0.19,0.791 0.79,1.061 0.79,-0.07 -0.27,0.02 -0.53,0.05 -0.79,0.07"></path>
		<path id="path6696" d="m 1401.15,122.81 c 1.23,0.868 3.88,-0.466 4.47,-1.656 -0.6,0 -1.11,0.208 -1.52,0.648 -0.42,-1.549 -2.39,0.703 -2.95,1.008"></path>
		<path id="path6698" d="m 1404.46,120.29 c 0.94,-0.04 2.09,-0.179 2.81,-0.864 -0.73,-0.187 -0.6,-0.338 -0.4,-0.836 0.23,-0.583 -1.21,-1.15 -1.54,-1.395 0,0.521 0,1.024 -0.22,1.512 -0.79,-0.94 -2.35,0.52 -3.38,1.008 1.11,0.938 2.57,-0.894 3.81,-0.36 -0.48,0.232 -0.98,0.377 -1.51,0.433 0.14,0.166 0.28,0.334 0.43,0.502"></path>
		<path id="path6700" d="m 1403.60,120.94 c 0.48,0.06 0.89,-0.08 1.22,-0.432 -0.65,-0.261 -1.39,-0.269 -2.01,0.07 0.26,0.12 0.52,0.24 0.79,0.36"></path>
		<path id="path6702" d="m 1404.75,118.13 c 0.11,-0.579 -0.16,-0.579 -0.79,0 0.26,0 0.52,0 0.79,0"></path>
		<path id="path6704" d="m 1404.10,122.89 c 0.27,-0.12 0.53,-0.24 0.8,-0.36 -0.33,0 -0.6,0.115 -0.8,0.36"></path>
		<path id="path6706" d="m 1405.04,125.26 c 0.52,0 1.02,-0.104 1.51,-0.288 -0.5,-0.417 -1.27,-0.427 -1.51,0.288"></path>
		<path id="path6708" d="m 1407.41,119.43 c 0.1,0.24 0.15,0.479 0.22,0.72 -0.47,0.173 -0.95,0.27 -1.44,0.288 0.75,0.817 -0.54,1.2 -0.57,2.017 0.67,-0.591 1.51,-0.931 2.37,-1.152 -0.23,0.257 -0.44,0.521 -0.65,0.792 0.44,0.02 1,0.43 1.44,0.288 0.54,-0.177 0.79,-1.037 1.23,-1.368 -0.1,1.662 0.7,0.233 1.08,-0.181 0.42,-0.463 1.07,-0.269 1.61,-0.291 0.98,-0.04 1.9,-1.395 0.86,-2.063 -0.44,-0.287 -1.38,-0.451 -1.77,0.03 -0.54,0.682 -1.68,1.211 -2.5,2.072 0,-0.209 2.3,-2.85 0.36,-1.44 0.65,-0.834 0.41,-2.121 -0.9,-1.491 -0.63,0.302 -0.88,1.736 0,1.779 -0.46,-0.159 -0.92,-0.159 -1.37,0"></path>
		<path id="path6710" d="m 1408.71,117.41 c 1.02,-0.186 2.33,-1.015 2.59,-2.089 -1.38,-0.73 -3.5,1.243 -3.89,2.448 0.51,0.158 0.94,0.04 1.3,-0.359"></path>
		<path id="path6712" d="m 1408.71,124.32 c -0.24,0.1 -0.48,0.192 -0.72,0.289 0.74,0.117 1.5,0.03 2.23,-0.145 -0.51,-0.04 -1.01,-0.09 -1.51,-0.144"></path>
		<path id="path6714" d="m 1411.37,121.23 c 2.16,1.513 1.66,-1.934 0,0"></path>
		<path id="path6716" d="m 1413.39,118.13 c 0.24,-0.12 0.48,-0.24 0.72,-0.36 -0.54,-0.276 -1.04,-0.229 -1.51,0.145 0.26,0.07 0.52,0.143 0.79,0.215"></path>
		<path id="path6722" d="m 1415.91,115.25 c 0.26,-0.02 0.53,-0.05 0.79,-0.07 -1.05,0.24 -1.05,0.48 0,0.72 -0.5,0.194 -1,0.362 -1.51,0.504 0.9,0.517 1.96,0.291 2.82,-0.175 1.02,-0.552 2.29,0.02 3.37,-0.256 -0.91,-0.208 -0.96,-0.435 -0.14,-0.681 0.47,-0.515 0.74,-1.722 -0.5,-1.048 1.76,-0.503 -0.12,-0.623 -0.73,-0.926 -1.9,-0.949 0.43,1.498 -1.22,-0.226 1.56,1.368 -1.14,0.136 -1.87,0.504 0.45,0.403 0.98,0.571 1.58,0.504 -1.09,0.396 -2.27,0.196 -3.38,0.433 0.71,-0.07 0.87,0.05 0.79,0.719"></path>
		<path id="path6724" d="m 1416.70,119.14 c -0.1,-1.126 -1.19,-0.48 -1.51,0.07 0.5,-0.06 1,-0.09 1.51,-0.07"></path>
		<path id="path6726" d="m 1416.78,118.21 c 0.45,0.466 1.09,0.589 1.65,0.216 -0.33,-0.412 -1.36,-1.041 -1.65,-0.216"></path>
		<path id="path6728" d="m 1425.78,112.30 c 0.42,-0.179 0.8,-0.418 1.15,-0.72 -0.69,-0.345 -1.4,-0.928 -2.23,-0.576 0.99,0.295 0.74,0.713 0.14,1.151 -0.14,-0.266 -0.28,-0.53 -0.43,-0.791 -0.54,0.296 -1.57,0.869 -0.1,0.863 -0.53,-0.162 -2.7,0.655 -0.79,0.432 -0.59,0.02 -1.12,0.213 -1.58,0.576 0.71,0.295 4,0.419 3.82,-0.935"></path>
		<path id="path6734" d="m 1424.84,110.00 c 0.48,-0.276 0.99,-0.516 1.51,-0.72 -0.5,0.08 -1.01,0.08 -1.51,0 0,0.241 0,0.48 0,0.72"></path>
		<path id="path6736" d="m 1425.56,110.00 c -0.48,3.038 4.26,0.12 4.75,0 -0.66,0.06 -1.21,-0.09 -1.64,0 -0.23,0.04 -0.51,-0.545 -0.81,-0.57 -0.83,-0.07 -1.53,0.355 -2.3,0.576"></path>
		<path id="path6746" d="m 1426.78,108.56 c 0.25,0.17 0.52,0.314 0.8,0.432 0.16,-0.667 -0.63,-1.35 -0.8,-0.432"></path>
		<path id="path6748" d="m 1428.22,108.99 c 0.32,0.09 0.63,0.06 0.94,-0.07 -0.32,0.02 -0.63,0.05 -0.94,0.07"></path>
		<path id="path6750" d="m 1430.74,110.00 c -0.51,0.295 -0.97,0.655 -1.37,1.079 0.77,-0.111 1.74,-0.18 2.02,-1.079 -0.22,0 -0.44,0 -0.65,0"></path>
		<path id="path6752" d="m 1431.61,108.92 c -0.64,-0.537 -1.44,-0.665 -2.24,-0.72 1.19,0.623 1.48,1.959 3.03,1.08 -0.27,-0.12 -0.53,-0.24 -0.79,-0.36"></path>
		<path id="path6756" d="m 1433.98,108.92 c 0.49,1.334 2.18,0.692 2.31,-0.504 -0.81,-0.286 -1.66,0.01 -2.31,0.504"></path>
		<path id="path6758" d="m 1435.78,111.37 c 0.14,-0.24 0.29,-0.48 0.44,-0.721 -0.57,-0.229 -1.01,0 -1.01,0.648 0.19,0.03 0.38,0.05 0.57,0.07"></path>
		<path id="path6760" d="m 1436.22,110.00 c 0.52,0.394 1.19,0.394 1.72,0 -0.46,0.06 -1.35,-0.444 -1.72,0"></path>
		<path id="path6762" d="m 1441.18,110.00 c 0,-0.173 -0.1,-0.17 -0.5,-0.288 0.16,0.1 0.33,0.193 0.5,0.288"></path>
		<path id="path6764" d="m 1450.11,104.53 c 0.1,-0.1 0.19,-0.192 0.29,-0.288 -0.74,0.08 -1.51,0.239 -2.23,-0.07 1.63,1.834 -3.63,0.02 -1.23,1.151 -0.77,0.01 -1.31,-0.644 -1.96,-0.09 -0.56,0.479 -1.95,0.113 -2.65,0.235 0.49,0.221 1,0.389 1.52,0.504 -0.23,0.208 -0.47,0.4 -0.72,0.576 0.96,-0.728 2.43,-0.146 3.52,-0.252 1.31,-0.131 2.38,-1.113 3.46,-1.765"></path>
		<path id="path6770" d="m 1447.16,108.20 c 0.26,0 0.53,0 0.79,0 -0.42,-0.837 -2.09,-1.122 -2.88,-0.793 0.51,0.708 1.3,0.704 2.09,0.793"></path>
		<path id="path6772" d="m 1451.19,105.89 c 0,-0.12 -0.1,-0.239 -0.14,-0.359 -1.02,1.162 -2.62,0.59 -3.75,1.512 0.8,0.622 1.82,-0.377 1.8,0.936 0.55,-0.41 3.22,-1.008 2.09,-2.089"></path>
		<path id="path6774" d="m 1453.42,106.25 c 0.82,-1.116 -0.34,-1.258 -1.21,-1.303 -1.93,-0.1 -0.1,1.535 1.21,1.303"></path>
		<path id="path6776" d="m 1452.56,102.94 c 0.42,0.432 0.92,0.576 1.51,0.433 -0.27,-0.394 -1.07,-1.12 -1.51,-0.433"></path>
		<path id="path6778" d="m 1453.06,102.37 c 0.23,0.141 0.47,0.117 0.72,-0.07 -0.24,0.03 -0.48,0.05 -0.72,0.07"></path>
		<path id="path6782" d="m 1463.72,102.94 c 0.26,0 0.52,0 0.79,0 -1.06,0.06 -0.85,-0.368 -0.36,-0.864 -0.57,-0.169 -1.14,-0.313 -1.72,-0.432 -0.76,0 -1.35,0.542 -2.1,0.576 0.5,0.108 0.78,0.628 1.14,0.928 0.5,0.407 1.71,-0.128 2.25,-0.208"></path>
		<path id="path6796" d="m 1347.08,180.99 c -0.24,-0.144 -0.48,-0.288 -0.72,-0.432 0.56,-0.336 1.12,-0.08 1.44,0.432 -0.24,0 -0.48,0 -0.72,0"></path>
		<path id="path6798" d="m 1347.87,171.13 c 0.26,0.12 0.53,0.239 0.79,0.359 -0.79,0.129 -1.61,0.05 -2.37,-0.216 0.49,-0.376 1.02,-0.424 1.58,-0.143"></path>
		<path id="path6800" d="m 1350.25,182.43 c -0.54,-0.167 -1.02,-0.431 -1.44,-0.792 0.73,-0.407 1.58,-0.593 2.23,-1.152 0.13,0.767 0.19,1.739 -0.79,1.944"></path>
		<path id="path6802" d="m 1353.78,190.28 c 0.29,-1.349 1.12,-0.636 2.08,-0.864 -0.72,0.215 -1.49,0.36 -2.08,0.864"></path>
		<path id="path6806" d="m 1364.00,162.27 c 0.1,-0.216 0.19,-0.432 0.29,-0.647 0.25,0.57 0,0.333 -0.29,0.647"></path>
		<path id="path6812" d="m 1486.90,110.72 c -1.43,-0.354 -0.7,1.741 0.87,0.432 -0.68,0.396 -0.97,0.252 -0.87,-0.432"></path>
	</g></svg>
