<svg xmlns="http://www.w3.org/2000/svg" viewBox="1324.7 25.8 189.1 189.1"><g fill="#2b1d24"><path d="M1386.8 53.5c-1.1-.9-2.7-.8-3.8-1.7-1-1-1.8-2.3-3.4-1.6.4 1.3 2 2.1 3.3 2.4 1.4.4 3.2 1.7 4.6 1.5zm-5.2-8.7q-.7-.6-1.6-.2zm1 3.2c.2 1.2 2 .3 2.6 0l-.6-.6c.8.3 1.7-.2 2.3.6q-1 .3-1.7.9l1.8.5c-1.3 1-2.9-.7-4.1.3 1.3.2 1.7 1.7 3 2 1.6.4 3.3.2 4.9.6-1.1.2-2.3-.1-3.3.4q2.4 1.6 5.2 1.5l3.6-.4c1-1 1.8-.4 3-.8l-1.6-.7q1-.3.3-1c1.6-.6 3.3 1.2 4.2-1 1 .4.7 1.6-.3 1.6.7 1.1 2.3.9 3.4.5l2-.8c1-.7 1.3-.2 2.4-.2q-1.3.4-2.1 1.4 2-.2 4 .2c-2.3.7-4.9-.5-7 .6-1 .5-1.9.2-2.8.7-1.7.8-3.2.3-5 .8l.7.7c-.9-.4-2.7-1-3.5-.4-1.7 1 2.2 1.9 2.6 1.9l6.6-.7h4c1.2-.2 2.6-.8 3.7-.6q-.8.9.5 1c-1.9-.6-3.8 0-5.7 0q-3 0-6 .7c2.4.9 5.2.2 7.6 1.4-2.3 0-4.8-1.3-7.3-.6-1 .3-1.8-.4-2.8-.3-1.9.2-1.2 1.3-.1 2 1.6.9 3.8 1.2 5.6 1.6 1.3.3 2-.2 3.2-.4 1 0 2 .5 3 .6-1.5.7-3.3-.1-4.8.8 1.4.3 3.2.9 4.4 1.7 1.2 1 5.1-.9 2.8-1.4q.7-.2 1.5-.8l-.3-.7.9-.6q.7-2.2 3-2.3c1.1 0 2.2-1.5 1.4-2.4-.8-1 3-1.3 3.4-1.5l-.8-.5c1.1 0 .5-1.1.2-1.7 2.5-.3 4.7-1.2 7.3-1 1.2 0 4.3.3 4.7-1.4-2.6-.5-6-.2-8.5-1.4q-1.2-.7-2.7-.6c-1.3.2-1.9-.6-3-.6 2-.5-.8-1.9-1.6-2.1s-1.5.5-2.1.8q-.7.4-1 0c-.7-.8.6-1.1 1-1.7q-1.5-.7-3-1.1c-1-.3-1.6.2-2.5.1s-3.4-1.6-3 .3c-3.7-1 2.4 5.5 2.4 6-1.4-.5-2.1-2-3.7-1.5.7-1.2-3-3.2-3.6-3.6q-1.6-.9-3 .3c-.6.5-1.3.4-2 .8-.2.2.4 1.3.4 1.6-1.1-1.5-2.5-.6-4-1.1l.5-.8c-1.3 0-2.7.4-4 0 1.2 0 2.3-.6 3.6-.6q1.6.1 3.3-.4c-.3-1.4-2.8-.6-3.7-.5l-2.7.4c-.6 0-3.2-1-2.3.5-1 .3-1.3-.8-2.1-1-.7 0-3.5.9-1.7 1.3-.4 0-3.8.4-1.5.5q-1 0-1.7.3c.7 0 .6.1.5.6 0 .7 1.3 1 1.6 1.3m35.2-4.9-2.4.6c3.2.7 6.3 1.5 9.5.8q5.2-.7 10.5-.2c-2.5 1-5.4.8-8 .7q1 .6 2.2.6c-2.2.2-4.3-.5-6.5-.2 1.4 1.3 4.9 1.4 6.6 1.5q4.4.3 8.8-.2l-.8.5c2 1.3 5.5 1.5 7.6.7 1.7-.7 2.5-.8 4.3-.7 1.2.1 2.7-.3 3.6-1l-.6-.7q3-1 6.2-1.6c-.8-2.5-4.1-1.9-6.1-1.8-1.6 0-3.2-.5-4.8-.5-.7 0-1.6-.3-2.3 0-.6.1-1-.8-1.8-.6 2.3.3-1.5.6-2 1-.8.7-2.2 0-3.2.2 1.4-.6-.4-1.2 1.1-1.4-.7-.5-1.5-.4-2.3-.6.3 1.1-1.1 1-1.7.5q.9.3.3 1c-.3.3 0 1.2-.2 1.3-1 .8-2.6-1.1-3.9-.5 2.2-.7-1-.7-1.4-.7-1 .1-2 .3-3-.3-1.3-1-3.8-1.6-5.4-1l1.5.5c-1 1.3-2.5.1-3.8 0q.8 1.3 2.1 1.1c-.8 1-2.3.1-3.2-.1-1.5-.4-3.2 0-4.6.2.3 0 3.6.6 1.5.5q1.6.4 3.1.2a1 1 0 0 1-.9.2"/><path d="m1416.7 41.7.7-.5c-.8-.1-1.6-.4-2.3.3zm7.1 37.8q.8-.1.8-1-1-.4-2.3.1zm1-32.5h.8q-1.3-.5-2.3.1zm2 2.3q1.1 0 2.1-.5c-1-.2-2.1-.6-3 .3zm.9-10 .7-.2-2.2-.2zm-1.5 13.2c1.3.3 2.4.4 3.5 1.2 1 .7 2 .4 3 .4.5 0 5.4 0 3.7-1.6-2-1.7-8-.7-10.2 0m1-12.9q-.3-.3-.7-.2zm3.4 19.4c3 .8 6.2-.9 9.3-.6-.3.2-2 1-1.4 1.5 1.2.9 2.3 0 3.5-.4 1.3-.3 2.2-.2 3.4-1a9 9 0 0 1 4.4-1.3 5 5 0 0 0-4-.9c-1.4.4-3-.3-4.4-.7a3 3 0 0 1 1.5-1c-2-.9-3.9-.3-5.9-.3q-3.2-.1-6.5.4 1.3 1.1 3 1.2-.2 1-1 1.7c-.5.8-1.7.2-1.9 1.4m27.7-7.4.7-.5c-.7-.1-1.5-.9-2.2-.1zm3.3-9.5-.8.4q.8 0 1.5-.3zm3.1 8.3c2.2-.7 5 .4 7-.6-2.6.3-5.6-1.2-8 .5zm14.6-7.7c3.1-.3 6.3-.3 9.4-.9-3-.3-6.7-.4-9.4.9m-205.9 61.5q1.5-.8 3.3-1.2c.7 0 2.1 0 2.6-.6 1-1.6-2.6 0-3 .3-1 .6-2.5.3-3 1.5m73.7 70.7c1.5-.8 3.2-.1 4.8-.6l-1 .1c-.8.3-1.3-.3-2-.2 2.3-.7-1.6-.4.7-.8h-2.4q1.2 0 2.4-.4c-.7.2-2.5.7-2.5-.6q.8.1 1.5-.4c-2 .2 1-1 1.5-1 .6-.1 1 .4 1.5.5s2.4-.5 1.1.8c.3-.8 4.3-1.3 5.1-1-.8-.4-1.9.2-2.8 0-.5 0-4.5-.3-2.4-.3-1.3-.1-3.3.5-4.3-.4q.8 0 1.5-.6c-.4-.3-1.8-.5-1.8-1.2.1-1 2.1.7 2.2 1.3l.7-.5c-1.3 0-.3-1.6.9 0 0-.8.9-1.2 1-.4.1.5 2 .4 2.4.4-.6-.1-2.6-1-1.3-1.7 1.5-.8 1.7 0 2.8 1-2-3.9 4.7-1.2 2 .6q1 .2 1.7-.3-1-.4-.5-1.2c.3-.2 1.2.1 1.6 0-1.7 0-1.9-.9-3.2-1.4-1-.4-2.2.3-3.3 0q1.4-.3 2.6-.3c-.8-.5-1.7-.1-2.4-.7 1.3-.3 3-.8 4.4-.2 1.1.4 3 1 4.2.2q-.7.2-1.6.2c.2-1.6 3-1.5 4-1-1.3-1.5-3.1.7-4.6-.3l1.6-.4c-1.2 0-3 1-3.9 0l1.5-.3a3 3 0 0 1-1.6-.8q1.3-1 2.5-.2c.8.6 1.6-.3 2.5-.1s1.5-.3 1.8.7 2 1 2.6 1.5c-.8-1.4-2.9-1.4-3.3-3.1.6-.4 1.5.3 1.8.7.8 1 .4.8 1.9.8-1.5-.1-.5-.7.1-.8-.3 0-2.9-.1-.8-.2-.3 0-2.2-.7-1.1-1l3.9-.5q-1.2.3-2.3-.2l.8-.9c.4-.5.8-.2 1.4-.4.8-.3 1.7 0 .8.9q1-.5 2.3-.7h-1.7q.7-.6 1.6-.6-.7-.2-1.6 0c.8-.5 2-.8 2.8-1 1-.3 2.5 1.5 1 2.1l2.3-.1c-2-.5.4-1 1-1q1.3.3 2.7.1-.8-1 .4-.8-.8-.3-1.5.1 1.8-1.4 4-1.8-.1-1-1-.6c.2-1 1.2-1 2-1.3-.7 0-2.5.4-.8-.6-1.5 0-2.4 1.7-4 2q.9 0 1.6-.5c.9 1.2-2 2-2.7 2.3-2.2.8-2.7 1.2-4-.6q1-.1 1.6-.8-1.5.3-3 1c.5-.4 1.2-.9-.1-.9 1.1-.5 2.6-1.6 4-1q-.8-.6-1.7 0l.8-.6c-1.7.4 0-.6.5-1 .5-.3.2-.9 1.1-.6-.7-2 3.7-1.4 3.3-3.2.8.2 1.3 1 2.1 1.2q0 .5-.4.8 1.2-.8 2.5-1c-1.4.1-.6-.9.2-.9l-1.6-.2c0-1.2 1.6-1.2 2.4-1.4l-1.1-.2a5 5 0 0 1 4.7-.6c-2.5-1.3-4.4 1.2-6.9 1.1q1.5-.3-.1-.5c.7-.4 1.6-.2 2.3-.6q-.8.3-1.7 0l1.5-.2c-2.3-.4 2.6-.6 0-.5a5 5 0 0 0 2-.5c-1.8 0 0-.8.7-.2 0-.9 1.1-1 1.3 0a3 3 0 0 1-1.8.1c1.7.8 4-.5 5.2-1.6l-1.6.9c-.5.2-2.5.1-.7-.1q-1.3-.1-.4-1-.9 0-1.5.6c-.5-.7.2-2.2 1.1-2.2l.6.6c.5.5 1.2 0 1.8 0l-2-.8c-1-1.5 1-1 1.7-.7-1.9-.7.4-3.6 2.6-1.4-.3-1.2-2-1.7-3-1.6 1 0 2.7-1 3.7-1.4s.6.2 1.2.6c.3.2 1-.1 1.4 0-1.2-.4 1.5-.8 2-1.4l-6.1 1.1c.5-.8 1.4-.8 2.2-.9l-2.3-.1q.9-.8-.2-1.4c.7-.5 1 .4 1.7.3.3 0 2.2-.9 2.3-1-1.1-.4-2.3 1-3.1-.4q.7-.2 1.6 0l-1.2-.4c1-.3 2 .3 3 0-.3 0-2.5-.2-.6-.4-2-.2 1.2-.2 1.5-.3q-1.2-.3-2.3-.8 1.3-.7 2.7-.6c1.2.2 2-.9 3.2-.3q-.7-.4-1.6-.4c.3-1 3.6-1.6 3.6-.8.9-.6 2.2-.2 2.9.4q-.2-1.2 1-.6l-3-.7c-1.5 0-2.5.6-4 0 .6-.2 1-.8 1.5-1 .7-.1 1 .8 1.5 0q-.7 0-1.5-.3c.7-.4 1.6-1 2.4-.4l-.9.4q1.2-.4 2.3 0c.7.2 1.2 1 2 .7-1.6 0 .2-1.3 1-1.3-1.4-.2-2.6.5-3.8 0 2.4-.5-1.2 0 .3-1 .4-.3 1.1 0 1.6 0-1.8-.3.8-.2 1.5.2-1.8-1.9-3.6.2-5.7.2q.7-.8 1.6-.9a3 3 0 0 1-1.6-.5l1.5-.1c-2.5-.1 2-.6 2.4-.6.6 0 2.2.4 2.4-.6-1.2-.6-2.5 0-3.7-.2.4-.9 1.4-.6 2.1-1-1.2 1.6 1.3-.7 2.1-.3 1 .7.3 2.7 2 2.6q-.9-.3-1.2-1.2c.4.3 2.8 1.2.7 0q1.3.7.6-.5.7.2 1.6 0-1.2 0-2.5-.4l1.2-.4-1.7-.2q1.5-.1 0-.7c1.1.3 2.1 1 3.3 1.2q-1.6-.6-2.7-1.6c1.2 0 2.3-.4 3.5 0l1.5.2c.5.1.4.6 1 .6q-.4 0-.6-.5c.2-.5 1.3-.3 1.7-.2-2-.4 1-.4 1.5-.3a9 9 0 0 0-4.2-.3c-1 .1-2.7.3-3.5-.4 1-.1.6-1.2 2-1.4a15 15 0 0 1 4 0l-1.5-.6c.7-.4 1.5-.1 2.2 0-1.2-.2-.7-.5 0-.8-2 .2.2-2.2 1.9-1.8-2-1.5 2.5-3.9 2.2-.6.2-1.4 1.6-1 2.7-.6-1-.5-2.3-.5-2.9-1.6q1.4-.3 2.5.5c.8.5 2.8.5 2.2 1.5.5 0 1-1 .2-1s-1.7.1-2.2-.8q.7-.6 1.6-.3a2 2 0 0 0-1.6 0c-.2-2 2.6-1.8 3.9-2.1-.2 1 0 2-.5 3 .7-.5 1-1.9 2.1-1.4-1.6 0-.4-2.3 0-1.2.2-.9 1.3-.6 1.4-1.6 2 .8-.7 4.3-1.4 5 .8-.5 1.8-.6 2.2-1.6s2 .1 2.6.2c-2.4-.9-1.4-3 .7-3.3l-.8.6c1 1.2 1-.6 2 .1-1.7-2.4 4.6.7 5 .8a2 2 0 0 0-1.3-.8q1.3 0 .2-.2c-.5-.3-.5-1.3.6-.5-.3-.8-2.2-.7-.5-1.2-1.2.4-3.6.1-4.5-.9q.8-.2 1.5.2l.2-.8 1.6 1c.2-1.8 1.6 0 2.5-.8-.2 1 .8 1 1.5 1.2q-1 0-1-1 1.5 0 3 .4c-.3 1-1.9 1-2.7 1q1.6.1 3.2-.6c0 2 2 1.1 3 1.1 0-.4-1.1-.3-1.6-.7.7-.4 1.3-.8 0-1 .2 0 2.7-.1.6-.3.9.1 1.4-1 2-1.3.9-.5 1.9-.3 2.9-.3-1.5-1.2 1.2-1 1.8-1.4-.8-.4-1.6-.3-2.3-.8.8-.7 1.7.4 2.4-.5-2-.4 1.1-.7 1.9-.6 0 0 3 2 1.5.1 1 0 2 1 3 .4-.6 1.6-3 1.7-4 2.9q1-.2 1 .7c-.4 0-1.5 1.1-1.4 1.9.5-.3 1.4.2 1.6-.1q.3-.5.9-.8c.5-.3-.2-.5 0-.9 1.2-1.5 4.1-3.7 6-4.2.3 1.2.4 1.9-1.1 2 1.4-.2 1.3 1.4.9 2.2.6 0 .6-.2 1-.6.5-.5 1.3-.1 2-.2l-.7-.7q.8-.1 1.6 0-1-.2-1-1.1c.9 0 1.5-.8 2.4-.5-.6-.7-1.5-.6-2.3-.8.5 0 5-2.5 5.4-.8 0 .3 1.4.3 1.7.6.7.7-3 1.1-3.2 1.3q.9-.2 1.6.3l-2.3.7c1 0 2.4-.8 3.3-.1q-1.2.7-2.4 1.1c1 .1 2-.3 2.9 0q-.9.5-.7 1.4c0-1 1-1.6 1.8-1.5-1.8 0 .3-2.2 1-2.6s3.8 0 3 1.4c.6-.2 2.3-1 2.5.3 1-1 3.6.4 1.9.8 1.5-.2 3.9-.4 5.1.9.8.8-1.8 1.1-2.2 1.2-1.7.3-2.6 1.3-4.5 1-1.5-.2-4.4-1.3-5.7-.1q1.4 0 2.8.3c.6.1 3.9.2 1.9 1 .8 0 2.8.6.8 1.4q1 0 2-.3.1.8 1 .6-.2-.6-.1-1.2 1.3-.2 1.9 1c.4-1.3 2.2-.9 2.6.2.7 2-3.6.7-4 .2.7 1.5-1 2-2 2.1-.6.1-2.2.2-2.2.8 0 .4.2 1-1 1.6q-.8.3-1.5-.3c-1-.6.3-1.2.7-1.6 1-1 1.5-2.4-.4-3l-4.5-1c-1.6-.7-2.8-2.3-4.6-1.2-2.8 1.8-7-.2-8 3.4l-.6 2.4c0 .6.5 1.5 0 2s-1.2.2-1.8.5q-.9.6-1.3 1.5c-1 1.2-2.8-.2-3.9-.5q-1.2-.2-2.3-.6c-1-.3-1 .5-1.7.8q-3.3 1.4-6.8-.1c-1-.4-2.6-2.2-3.5-2.8q-2.2-2-4.8-.6l.7.6c-1.4.8-3.8 0-5.4.8 2.2.8.5 2.5-.7 3.3l1.5.5c-2.5 1.9-5.4-.4-8-.2-1.2.1-2-.7-3.4-.2-.9.3.2 1.7 0 2.5-.5 2.5-3.7.5-5.3 1-2.6 1-3.5 3.5-6 4.7.6.5 2.2 1.4 2 2.3s-3.1 2.6-3.8 3.4q-.7.7-1.5 1c-.7.4.4 1.2 0 1.8-.9 1.1-4 1.2-5.2 1.1.2.8.9 5.8-.1 6.4-.9.4-1.2 1.8-2 2.5q-1.5 1.3-2.7 2.8c1.4.5 4 1.4 2.8 3.4-.8 1.5-4.7.4-6.1.6s-5 2.3-5.1 3.8c0 .8-.8 1.5-.7 2.2 0 .6 1.3 2.1.8 2.4-1 .7-.4 2.7.1 3.8 1 2-.1 3.4.1 5.5.1 1.3 1.8 1.7 2.8 2.1q1 .3 1.4 1c.1.4-.7 2.6-1.2 2.6-1.3 0-2.6.3-2 1.9.3.9 1.2 1.5 1.5 2.4.5 1-.5 1.5-.4 2.5s-.8 1.7-1.5 2c-1.2.4-2.3-.2-2.2 1.2q-.1 1-.7 1.7c-.4.7.3 1.7.2 2.5 0 .7-.4 3.2-1.6 3-.5 0-.9-1-1.2-1.3-.3-.5-.9-.4-1.4-.7-1.3-.6-2.2-.5-2.7-2l-.3-2.2c0-.4.5-2.3.7-.6.7-1.4-1.2-1.9-1.3-.4-.1.8 1 1.5 0 2.2l-.6-.7q-.1.8-1 .5c1 1 1.2 1.5.8 3 0-1.5 0-.3-.5.1l-1.5.8c-.7.5-.1 1-1.2.4l-2-1c2 .9-.4 2.2-1.5 2.1l.5.8q-.9.3-1.9.2l.4.8c-1.4.2-2 1.7-3.1 2.4q-2.2 1.2-4.5 1.8c-.6.2-1.5.9-2.2.8l-2-.3c-1.1 0-3.2.4-4-.7q.7-.7 1.6-1c-2.5 1.5-10.6-3.5-7.1-5.4l-.7-.5c1.5-.1 2.6 1.3 4 1.2l-.7-.6q1.5-.7 3-1-1.7.1-3.3 1.1.1-1-.8-1.4l1.5-.5c-1.8-.3 1.6-1.2 2.2-1.3q-.8 0-1.4.2c-1 .2-1.4 0-.1-.2l-1.6-.2q1.5-1.1 3.3-1.8c-.7.2-1.4-.5-1.8.3-.3.6-1.3 1.1-1.9 1.4q0-1 1-1-1.3-.1-2.4.5 1-.3 1 .6-.8-.1-1.5.4v-1.7l-1 .5c2 .2-.6 2.4-.1.4-.1 1.5-1.1 0-1.1-.6q.2-1.4 1.7-2c-.1.8-.3 1.7-1.2 1.6q1 .5 1.3-.7c.3-.9 1.6-.1 2.3-.5-2-.2 1-.6 1.4-1q-1.5.6-2.8-.3c.7-.9 2.1-2.2 3.4-2.2-2-.6 1.7-2.1 2.3-2.5.3.8-.3 1.5-.5 2.2 1.2-1.4 1.6-2.6 3.6-2.7q-2.4-.4-4.7.6c-.4.2-1.9 1.2-2.1 1.7-2 3.3-1-.2-2.5 0l.4-1.5c-.2.5-1 2-1.8 1.7-.6-.3-.4-1.5-1.2-1.7q.9-.2 1.2-1c.7 2 2.7-.4 2.2-1.8-1 .2-1.5 1.4-2.5 1.4s-1.1-1.6-2-1.9q1.5 0 2.4 1.1c0-.6-.3-1.7.8-1.7-1-.2-2.6 1.2-2.9-.5q.8.8 1.1-.2c-.7.2-1.3-1 .2-.8 1.7.3 2.8-.3 4.4-.4 1.2 0 2.8.8 3.8 0 1.2-.7 3.5 1 1.9 1.5q.8-.4 1.5-.1c-1.6-1.2 2.3-2 3-2-2.2-.3-1.4-1.2-.2-2.3-1 .4-2.2 1.4-1.2 2.5-.8 0-1.6.4-2.4.1l.8-.6c-.7.4-4.2.6-2.6-.8-.9.2-.8 1-1.3 1.4-.7.8-1.8 0-2.5-.1-1-.2-2.5.3-3.4.6-1 .3-1.6-.6-2.5-.8 1.4 0 .6-.5 0-.8q1.5-.7 3-.5c-1-.4-2 0-3 .3q1-1.2-.5-.6"/><path d="M1347 177.1q-.3-.4-.7-.6-.4 1.2.8.6m.3 6.1-1-.7q.3.7.3 1.6 1 0 .7-.9m-.7-1.4.8.6q-.2-.6-.8-.6m.1-.4.7-.2zm1.2-10.8q.1-1-.8-.5zm-.3 20.8q-.6.8.4 1.3.5-1-.3-2zm.3-4c-1 0-.5 1-.6 1.7q.4-1.1 1.3-.6 0-.7-.6-1.1"/><path d="M1348.7 186.2c-.4.6-.3 1.8.5 1.8 1.1 0 .1-1.7-.5-1.8m.9-.2-.7.1c.7 0 1.2.8 1.8 0 .5-.7-.8-.6-1.1-.1m2.6-18q-.7-.3-1.5-.1c0 1.1 1.2.8 1.5 0m1.2-.9h-.7l-.1 1.4q.8-.4.8-1.3m1.5-.5h-.8zm-.5.2.7.3zm4.1-2.3h-.8l1 .4zm.6-.9h-.8c.6.4.6 0 .8 0m4-.8.6-.5q-.1-.5-.6-.8 0 1.3-.9.5 0 1 .8.8m3.6-3.1c-.4-1-1.7-.8-2.3 0 .7.1 1.5.4 2.2 0m-.7 1.6.8-.1q-.7-.8-1.5 0zm1.3-.5q.7.5 1.5.3c-.1-1-1-1-1.5-.3m.2-2c.9 1 4.3.2 4.6-1q-.8-.5-1.8-.3c-.5.1-2.2.4-.5.7-.8 0-1.7-.2-2.3.6m3.1-2.1c-.7-.6-2.1.3-3 .5 1-.1 2.2.4 3-.5m-1.3 2.8h-.7l.8.4zm13.6-12.1-.8.5q.7-.1 1.6-.5zm-.1.5c.9-.3 1.5.7 2.2-.2q-1.1-.3-2.2.2m2.2 3.1.7-.1q-.9-.3-1.6-1-.1 1 1 1m0-1.4h-.8q.3.4.8.6z"/><path d="M1385.1 150q-.3.8.7.4zm2.5-3.9q-.9 0-1.5.6.8 0 1.5-.6m-.1-3.8q.4.3 1 .2-.3-1.3-1-.2m4.2-2 1.8-.6q-1.7-.8-2.6.8z"/><path d="M1392.2 138.4c-1.4-1.1-1.2 1.5.3.3zm1.6-13.9-.5.8c1 .5 1.9-.6 1.5-1.5zm.4 13.5-.7.2q.4 0 .7-.3m.6-.3q-.4-.1-.8.2zm.4-13.1q1 0 1.4-.9a.9.9 0 0 0-1.4.9m2.1-1.1-.5.7c1.1-.7 2.8-.4 3.7-1.4-.7 0-1-.5-1.5-.5s-1 .4-1.6.3q.6.6-.5.5zm3.4-.7c.5-.5-.3-.7-.6-.7zm-.3 8.2c.1.8.7 1 .7 0zm.8-8.1c1.2.9 3.8-.5 4.4-1.6a2 2 0 0 0-1.5.6c-.4-1.5-2.4.7-3 1m3.4-2.5q1.5 0 2.8-.9c-.8-.2-.6-.3-.4-.8s-1.2-1.2-1.6-1.4q0 .8-.2 1.5c-.8-1-2.3.5-3.4 1 1.1 1 2.6-.9 3.8-.3l-1.5.4z"/><path d="M1403.6 121q.8 0 1.2-.5-1-.4-2 0zm1.2-2.9q0-.7-.8 0zm-.7 4.8.8-.4a1 1 0 0 0-.8.4m.9 2.4q.8 0 1.5-.3-.9-.7-1.5.3m2.4-5.9.2.8-1.4.2c.7.9-.5 1.2-.6 2q1-.8 2.4-1.1l-.7.8c.5 0 1 .4 1.5.3s.8-1 1.2-1.4c0 1.7.7.2 1-.2.5-.4 1.2-.2 1.7-.3 1 0 1.9-1.4.9-2-.5-.3-1.4-.5-1.8 0-.6.7-1.7 1.2-2.5 2 0-.1 2.3-2.8.3-1.4.7-.8.5-2-.9-1.4-.6.3-.8 1.7 0 1.7a2 2 0 0 0-1.3 0"/><path d="M1408.7 117.4c1-.2 2.3-1 2.6-2-1.4-.8-3.5 1.2-3.9 2.4q.8.2 1.3-.4m0 6.9-.7.3q1.1.1 2.2-.1zm2.7-3.1c2.1 1.5 1.6-1.9 0 0m2-3.1.7-.3q-.8-.5-1.5.1zm2.6-2.8.7-.1q-1.5.4 0 .7l-1.5.5q1.5.7 2.8-.2c1-.5 2.3 0 3.4-.2q-1.5-.4-.2-.7c.5-.5.8-1.7-.5-1 1.8-.6 0-.7-.7-1-1.9-1 .4 1.5-1.2-.2 1.5 1.4-1.2.1-1.9.5q.7.6 1.6.5c-1 .4-2.3.2-3.4.4q1-.2.8.8m.8 3.8c-.1-1-1.2-.4-1.5.1zm.1-.9q.7.8 1.6.2c-.3-.4-1.3-1-1.6-.2m9-5.9 1.1-.7c-.7-.4-1.4-1-2.2-.6 1 .3.7.7.1 1.2l-.4-.8c-.5.3-1.6.8 0 .8-.6-.1-2.8.7-.9.5q-.9 0-1.6.5c.8.3 4 .5 3.9-.9m-1-2.3 1.5-.7h-1.5z"/><path d="M1425.6 110c-.5 3 4.2.1 4.7 0h-1.6c-.3 0-.5-.5-.8-.6q-1.3.2-2.3.6m1.2-1.4.8.4c.1-.7-.6-1.4-.8-.4m1.4.4h1zm2.5 1-1.3 1c.7 0 1.7-.1 2-1zm.9-1q-1-.8-2.2-.8c1.2.6 1.4 2 3 1q-.4 0-.8-.3m2.4.1c.5 1.3 2.2.6 2.3-.6q-1.3-.3-2.3.5m1.8 2.5.4-.8q-1-.3-1 .7zm.4-1.4q.8.6 1.7 0c-.4 0-1.3-.4-1.7 0m5 0q0-.2-.5-.3zm8.9-5.5.3-.3q-1.1.3-2.2 0c1.6 1.8-3.7 0-1.3 1.1-.7 0-1.3-.6-2 0-.5.4-1.9 0-2.6.2l1.5.5-.7.5c1-.7 2.5-.1 3.5-.2 1.4-.1 2.4-1.1 3.5-1.8m-2.9 3.7h.8c-.5-.8-2.1-1.1-3-.8q1 .8 2.2.8m4-2.3-.1-.4c-1 1.2-2.7.6-3.8 1.5.8.7 1.8-.3 1.8 1 .6-.4 3.2-1 2-2.1"/><path d="M1453.4 106.3c.8-1.2-.3-1.3-1.2-1.4-2 0 0 1.6 1.2 1.3m-.8-3.2q.6.6 1.5.4c-.3-.4-1.1-1.1-1.5-.5m.4-.5q.4.1.8-.1zm10.7.6h.8c-1 0-.8-.4-.4-1q-.7 0-1.7-.4c-.7 0-1.3.6-2 .6q.6.3 1 1c.6.4 1.8-.2 2.3-.3M1347 181l-.6-.4q.8-.5 1.4.4zm.9-9.9.8.4q-1.3.1-2.4-.2.7-.6 1.6-.2m2.4 11.3-1.5-.8 2.2-1.1c.2.8.2 1.7-.8 2m3.6 7.8c.3-1.4 1.1-.7 2-.9q-1 .2-2 .9m10.2-28 .3-.7c.2.6 0 .4-.3.7m122.9-51.6c-1.4-.3-.7 1.8.9.5q-1 .5-.9-.5"/></g></svg>
