<svg xmlns="http://www.w3.org/2000/svg" viewBox="1887.71 416.19 73.12 73.12"><path id="np" d="m 1892.91,447.894 c 0.39,-1.179 1.3,-1.776 0.7,-3.026 -0.37,-0.789 -0.29,-0.903 0,-1.717 0.61,-1.593 0.63,-1.161 1.28,-2.207 1,-1.586 1.6,-4.724 3.37,-3.391 0.31,0.236 0.78,1.011 1.29,0.617 0.81,-0.619 0.89,-1.233 0.75,-2.155 0.91,0.349 1.07,-0.938 1.68,-0.742 1.06,0.345 2.03,0.269 3.08,1.11 2.25,1.817 4.52,3.683 6.6,4.774 1.71,0.903 3.08,0.982 4.3,2.396 1.25,1.446 2.03,3.327 3.65,1.971 0.8,-0.667 1.86,-0.109 2.64,0.489 0.94,0.728 1.07,2.281 1.53,2.652 1.32,1.057 3.87,2.551 5.11,2.546 0.85,0 1.48,-0.941 2,0.276 0.29,0.66 -0.82,1.045 0.1,1.76 0.69,0.545 3.32,1.111 4.11,0.12 0.46,1.406 2.06,1.852 2.71,3.107 0.85,1.613 0.78,-1.33 1.11,-1.595 0,0.883 2.32,2.736 2.97,1.489 0.24,-0.464 0.4,-1.167 1.21,-0.764 0.72,0.355 0.97,0.206 1.62,0.626 1.99,1.275 2.38,1.133 3.85,1.219 1.29,0.08 3.64,-0.557 5.12,-0.07 1.05,0.346 0,4.489 0.17,5.67 0.3,2.252 2.37,3.189 1.84,5.722 -0.43,2.051 -2.08,1.067 -3.96,1.297 -1.48,0.18 -3.55,0.617 -3.82,-1.44 -1.35,0.451 -1.79,1.648 -3.31,0.736 -0.73,-0.436 -4.02,-1.594 -4.8,-1.29 -1.55,0.612 -1.28,-0.162 -2.11,-1.03 -1.27,-1.325 -2.21,0.653 -3.53,0 -0.66,-0.328 -1.69,-1.679 -2.95,-1.908 -1.54,-0.278 -1.36,-0.938 -1.97,-2.167 -0.62,-1.232 -6.98,-3.075 -6.24,-1.108 -0.83,-0.366 -2,-1.333 -2.97,-0.854 -1.33,0.666 -1.65,0.816 -3.21,0.125 -0.85,-0.378 -2.04,-0.432 -2.44,-1.406 -0.57,-1.405 -1.66,-0.372 -2.8,-1.061 -1.06,-0.643 -2.11,-1.811 -3.11,-1.557 -1.5,0.379 -2.9,-1.002 -4.44,-1.708 -1.33,-0.615 -2.11,-1.988 -3.39,-2.765 -1.34,-0.817 -2.81,-1.393 -4.14,-2.223 0,1.325 -1.46,0.1 -2.25,-0.408 -0.56,-0.356 -1.97,-1.275 -1.35,-2.113" fill="#2B1D24">
		
	</path></svg>
