<svg xmlns="http://www.w3.org/2000/svg" viewBox="2430.41 972.44 157.38 157.38"><g id="nz" fill="#2B1D24">
		
		<path id="path3560" d="m 2409.51,1134.27 c -0.5,-0.84 -4.19,1.38 -4.03,2.3 0.53,-0.25 1.44,0.14 1.77,-0.3 0.7,-0.95 1.18,-1.41 2.26,-2"></path>
		<path id="New_Zealand_Stewart_Island" d="m 2446.52,1103.31 c 1.88,0.95 1.14,-3.44 -0.73,-1.2 -1.34,1.61 -2.42,3.05 -4.53,3.79 0.66,0.46 2.97,-0.37 3.75,-0.58 0.57,-0.15 1.61,0 2,-0.53 0.64,-0.92 -0.57,-1.26 -1.21,-0.9 0.24,-0.19 0.48,-0.38 0.72,-0.58"></path>
		<path id="New_Zealand_South_Island" d="m 2442.27,1095.75 c 0.82,-0.21 1.59,-0.58 2.31,-1.01 -0.11,0.95 -1.28,0.76 -1.59,1.59 0.87,0 1.34,-0.94 2.23,-0.87 -0.94,0.27 -2.44,0.99 -2.73,2.02 1.21,0.12 3.15,1.01 4.25,0.21 1.28,-0.93 2.72,-0.31 1.79,1.37 0.72,0 1.49,-0.52 2.21,-0.3 1.15,0.35 -0.1,1.41 0,2.1 0.59,-0.31 2.16,-0.39 2.82,-0.29 0.54,0.1 0.12,0.86 0.99,0.87 2.47,0 4.67,-1.12 6.99,-1.74 0.44,-0.12 1.21,-1.05 1.7,-1.29 1.08,-0.52 2.32,-0.75 3.33,-1.44 0.92,-0.63 1.62,-1.48 2.75,-1.77 1.01,-0.26 2.29,-0.1 2.94,-1.1 -0.5,0.19 -1,0.36 -1.51,0.5 2.75,-1.25 4.68,-3.86 7.05,-5.66 1.11,-0.84 2.41,-1.4 3.47,-2.31 1.21,-1.04 1.99,-2.47 3.16,-3.54 2.14,-1.99 4.88,-2.84 7.52,-3.93 1.34,-0.55 2.95,-0.83 4.2,-1.5 0.85,-0.45 2.22,-1.94 3.11,-0.77 -0.5,0.21 -1,0.4 -1.51,0.57 1.22,-0.53 2.66,0.57 3.74,0.15 2.42,-0.91 0.66,-1.71 -0.64,-2.23 1.24,-0.3 1.46,-2.16 2.36,-2.9 1.56,-1.28 3.78,-1.88 5.55,-2.84 1.58,-0.86 2.76,-2.08 4.13,-3.21 1.17,-0.96 2.52,-1.42 3.84,-2.12 1.01,-0.54 1.59,-1 2.26,-1.87 0.86,-1.13 2.41,-1.45 3.53,-2.26 1.29,-0.93 0.77,-2.82 1.88,-3.84 1.15,-1.05 3.08,-1.01 3.95,-2.42 -0.47,0.57 -3.14,1.98 -3.74,1.08 1.06,-0.2 3.33,-0.56 3.17,-2.09 -1.16,0 -1.14,0.81 -1.99,1.06 -0.49,0.14 -1.95,1.03 -0.25,0.67 -0.77,0.1 -1.48,0.44 -2.23,0.58 0.66,-0.39 2.99,-1.9 1.37,-1.95 0.64,-0.14 1.21,-0.53 1.65,-1.01 -1.43,0.25 -2.6,1.15 -3.96,1.59 -1.29,0.42 -2.55,1.98 -4.03,1.44 0.56,-1.13 2.5,-2.8 2.23,-4.18 -0.38,0.2 -2.15,0.46 -1.81,-0.47 0.47,-1.34 2.15,-1.91 3.4,-1.62 -1.88,-0.95 -6.08,1.33 -7.56,2.6 -0.92,0.8 -1.6,1.82 -2.34,2.77 -1.02,1.31 -2.32,2.14 -3.61,3.15 -1.31,1.03 -2.53,1.29 -4.08,1.76 -1.44,0.43 -2.4,1.74 -3.36,2.81 -2.31,2.52 -4.83,4.67 -7.77,6.42 -1.28,0.77 -2.55,1.27 -3.97,1.7 -1.58,0.47 -2.93,1.51 -4.42,2.21 -3.2,1.52 -6.28,2.92 -9.58,4.24 -3.11,1.26 -6.43,1.94 -9.4,3.52 -1.22,0.65 -5.88,2.47 -5.25,4.32 -0.48,-1.74 -2.69,0.65 -3.48,0.93 -0.84,0.31 -3.68,1.32 -3.22,2.24 -0.72,-0.27 -1.62,0.21 -2.2,0.6 -0.62,0.41 -1.78,1.2 -0.39,1.2 -1.15,0 -0.84,1.34 -1.59,1.87 0.7,-0.75 0.58,-0.95 -0.36,-0.58 0.1,-0.41 -0.22,-1.44 -0.58,-0.65 -0.36,0.78 -1.57,1.28 -2.37,1.81 0.81,0.21 1.53,-0.25 2.31,-0.37 -0.76,0.32 -1.56,0.55 -2.31,0.87 0.5,0.16 1,0.16 1.51,0 -0.51,0.24 -1.03,0.4 -1.58,0.5 2.05,0.37 -1.39,0.93 -1.9,1.02 -1.06,0.19 -2.22,0.55 -2.35,1.79"></path>
		<path id="path3568" d="m 2527.81,1050.32 c -0.82,0.4 -1.85,0.77 -2.02,1.8 0.94,-0.19 1.59,-0.99 2.02,-1.8"></path>
		<path id="New_Zealand_North_Island" d="m 2530.18,1055.29 c -0.1,0.51 -0.18,1.01 -0.28,1.51 0.6,-0.34 1.32,-0.26 1.94,-0.58 0.14,0.61 0,1.12 -0.51,1.52 1.35,1.13 4.12,-0.96 5.26,-1.62 2.54,-1.5 4.66,-3.1 6.98,-4.94 1,-0.79 2.19,-1.94 3.45,-2.28 1.06,-0.28 1.54,-1.41 2.38,-2.01 1.04,-0.75 2.16,-1.13 3.14,-2.04 1.18,-1.11 2.19,-2.39 3.42,-3.46 -2.16,-0.42 1.72,-3.4 2.3,-3.79 1.33,-0.88 6.59,-2.71 5.62,0.41 1.77,-1.11 1.76,-3.65 3.7,-4.72 0.69,-0.38 1.49,-0.5 2.2,-0.86 1.24,-0.62 1.8,-1.61 2.65,-2.64 1.28,-1.55 2.38,-3.45 3.96,-4.64 0.81,-0.61 0.68,-1.28 -0.2,-1.76 -1.17,-0.62 -2.91,0.52 -3.9,1.07 -2.47,1.35 -4.74,3.57 -7.72,2.28 -0.73,-0.31 -4.77,-2.27 -4.87,-3.05 -0.1,-0.57 3.38,-6.9 1.73,-6.49 0.48,-0.45 1.05,-0.81 1.66,-1.08 -0.57,0 -1.12,0.12 -1.66,0.29 0.17,-0.77 0.34,-1.59 -0.14,-2.31 -0.7,0.28 -0.59,0.43 -0.42,0.97 0.22,0.65 -0.77,1.41 -1.02,1.91 -0.59,1.17 -0.56,3.2 -2.22,3.46 -0.85,0.13 -0.1,-1.66 -0.1,-2.02 0.1,-1.04 -2.81,-1.2 -3.49,-1.08 0,-0.1 1.11,-0.78 1.39,-1.28 0.43,-0.78 0.65,-1.35 1.18,-2.09 0.39,-0.54 1.63,-0.84 1.26,-1.66 -0.4,-0.86 -1.06,-2.57 -0.23,-3.39 -0.47,0 -0.88,-0.17 -0.69,-0.66 0.3,-0.77 1.29,0.14 1.7,0.44 0.64,-1.7 0.97,-3.49 0.93,-5.32 -0.48,0.12 -0.96,0.17 -1.44,0.14 0.12,0.26 0.24,0.53 0.36,0.79 -0.26,0.1 -0.52,0.1 -0.79,0.1 0.14,-0.59 -0.15,-1.73 0.86,-1.58 -0.98,-0.13 -1.15,-2.43 -2.23,-0.86 0.73,-1.13 -3.18,-1.4 -1.01,-1.8 -0.99,-0.38 -1.34,0.88 -2.01,1.29 0.66,-0.89 0.27,-3.52 -0.15,-4.46 0.58,0.1 1.02,-0.27 1.23,-0.79 -0.55,0.16 -2.8,0.12 -2.81,0.7 0,0.7 0.38,1.36 0.53,2.03 0.24,1.13 0.78,4.08 -1.18,3.96 0.26,0.96 0.29,1.97 0.36,2.95 0.53,-1.02 2.25,-0.81 2.45,-2.08 0.1,1.57 -2.21,1.13 -2.35,2.82 -0.19,2.29 1.13,4.35 0.55,6.75 1.44,0.27 1.06,-1.48 0.86,-2.3 0.56,0.15 0.98,0.6 1.15,1.15 -0.1,-1.52 0.82,0 1.59,-0.86 -0.68,0.29 -1.28,0.64 0,0.93 -0.41,0.28 -0.91,0.21 -1.32,0.45 -0.42,0.25 -0.43,1.23 0.6,0.49 -0.61,0.65 -0.68,1.59 -1.3,2.23 -0.36,-0.44 -0.5,-0.94 -0.43,-1.51 -1.25,0.31 -0.85,3.8 -1.23,4.75 0.74,0.11 2.06,-1.06 2.45,0 0.27,0.75 -1.5,1.69 -1.73,0.43 -0.56,0.34 -1.61,2.32 -0.35,2.45 -0.77,0.25 -1.09,1.14 -1.29,1.84 -0.11,0.41 -0.22,0.82 -0.32,1.24 -0.24,0.84 -0.8,0.79 -1.19,1.46 -0.35,0.59 -0.45,1.66 -0.87,2.16 -0.27,0 -0.54,0 -0.8,0 -0.55,0.48 -1.04,1.02 -1.52,1.57 -1.45,1.68 -2.43,3.97 -4.31,5.22 -1.81,1.21 -4.33,0.96 -6.27,2.13 -0.84,0.5 -1.55,1.25 -1.65,2.26 -0.11,1.15 1.28,1.21 1.9,1.81 0.93,0.9 1.03,1.67 2.4,2.14 1.34,0.46 1.57,1.7 1.1,2.93 -0.94,2.5 -3.36,4.15 -5.41,5.69 -0.83,0.62 -1.51,1.76 -2.55,2.07 -1.01,0.31 -2.24,0.94 -2.78,1.9 0.65,0.29 1.2,0 1.45,-0.65"></path>
		<path id="path3572" d="m 2558.26,1016.41 c -0.45,0.12 -0.88,0.28 -1.29,0.5 0.57,0.36 1.09,0.13 1.29,-0.5"></path>
		<path id="path3574" d="m 2563.37,1010.43 c -0.96,0.47 -1.28,2.76 -0.64,2.42 0.62,-0.33 0.43,-1.84 0.64,-2.42"></path>
		<path id="path3576" d="m 2571.37,1078.83 c 0,0.34 0,0.68 0,1.01 0.72,-0.29 1.43,-0.64 2.23,-0.65 -0.7,-0.73 -0.18,-3.02 1.01,-1.87 -0.22,0.27 -0.46,0.51 -0.72,0.72 0.68,-0.58 1.42,-1.11 2.23,-1.51 -1.31,0.32 -3.69,-0.85 -4.39,0.86 0.51,-0.17 1.01,-0.15 1.51,0.1 -0.3,0.79 -1.08,1.22 -1.87,1.37"></path>
		<path id="path3578" d="m 2572.23,1081.42 c 0.46,-0.14 0.68,-0.15 0.79,-0.72 -0.27,0.23 -0.54,0.47 -0.79,0.72"></path>
	</g></svg>
