<svg xmlns="http://www.w3.org/2000/svg" viewBox="2430.4 972.4 157.4 157.4"><g fill="#2b1d24"><path d="M2409.5 1134.3c-.5-.9-4.2 1.4-4 2.3.5-.3 1.4.1 1.8-.3a6 6 0 0 1 2.2-2m37-31c1.9 1 1.2-3.4-.7-1.2-1.4 1.6-2.4 3-4.5 3.8.6.5 3-.4 3.7-.6.6-.1 1.6 0 2-.5.6-1-.6-1.3-1.2-1zm-4.2-7.5 2.3-1c-.1.9-1.3.7-1.6 1.5.9 0 1.3-1 2.2-.8-1 .2-2.4 1-2.7 2 1.2.1 3.1 1 4.2.2 1.3-1 2.8-.3 1.8 1.4.7 0 1.5-.6 2.2-.3 1.2.3 0 1.4 0 2a7 7 0 0 1 2.9-.2c.5 0 0 .8 1 .8 2.4 0 4.6-1 7-1.7.4-.1 1.1-1 1.6-1.3q1.8-.6 3.4-1.4 1.2-1.2 2.7-1.8c1-.3 2.3-.1 3-1.1l-1.6.5c2.8-1.2 4.7-3.9 7.1-5.7q1.8-1 3.5-2.3l3.1-3.5c2.2-2 5-2.8 7.5-4q2.3-.6 4.2-1.4c.9-.5 2.3-2 3.2-.8l-1.6.6c1.3-.6 2.7.5 3.8.1 2.4-.9.6-1.7-.7-2.2 1.3-.3 1.5-2.2 2.4-3 1.6-1.2 3.8-1.8 5.6-2.8q2.2-1.3 4-3.2 2-1.3 4-2 1.3-.7 2.2-2c.8-1 2.4-1.4 3.5-2.2 1.3-1 .8-2.8 1.9-3.9 1.1-1 3-1 4-2.4-.5.6-3.2 2-3.8 1.1 1-.2 3.3-.6 3.2-2-1.2 0-1.2.7-2 1-.5.1-2 1-.3.6l-2.2.6c.7-.4 3-1.9 1.4-2q1-.1 1.6-1c-1.4.3-2.6 1.2-4 1.6-1.2.5-2.5 2-4 1.5.6-1.1 2.5-2.8 2.3-4.2-.4.2-2.2.5-1.8-.5.4-1.3 2.1-1.9 3.4-1.6-2-1-6.1 1.3-7.6 2.6q-1.4 1.2-2.3 2.8-1.6 1.8-3.7 3.1c-1.3 1-2.5 1.3-4 1.8s-2.4 1.7-3.4 2.8a34 34 0 0 1-7.8 6.4 17 17 0 0 1-4 1.7l-4.4 2.2q-4.7 2.4-9.5 4.3c-3.1 1.2-6.5 2-9.4 3.5-1.3.7-6 2.5-5.3 4.3-.5-1.7-2.7.7-3.5 1s-3.6 1.3-3.2 2.2c-.7-.3-1.6.2-2.2.6s-1.8 1.2-.4 1.2c-1.1 0-.8 1.3-1.6 1.9q1-1.2-.3-.6c0-.4-.2-1.5-.6-.7s-1.6 1.3-2.4 1.8c.8.2 1.6-.2 2.3-.3l-2.3.8q.8.3 1.5 0-.7.4-1.5.5c2 .4-1.4 1-2 1-1 .2-2.2.6-2.3 1.8"/><path d="M2527.8 1050.3c-.8.4-1.8.8-2 1.8q1.4-.5 2-1.8m2.4 5-.3 1.5 2-.6q.1.9-.6 1.5c1.4 1.2 4.1-1 5.3-1.6q3.6-2.1 7-5c1-.7 2.2-1.9 3.4-2.2 1-.3 1.6-1.4 2.4-2 1-.8 2.2-1.1 3.1-2l3.5-3.5c-2.2-.4 1.7-3.4 2.3-3.8 1.3-.9 6.5-2.7 5.6.4 1.7-1.1 1.7-3.6 3.7-4.7l2.2-.9q1.6-1 2.6-2.6c1.3-1.6 2.4-3.5 4-4.6q1.2-1-.2-1.8c-1.2-.6-3 .5-4 1-2.4 1.4-4.7 3.6-7.6 2.3-.8-.3-4.8-2.2-4.9-3-.1-.6 3.4-7 1.7-6.5l1.7-1-1.7.2q.5-1.2-.1-2.3-.9.3-.4 1c.2.6-.8 1.4-1 1.9-.6 1.2-.6 3.2-2.3 3.4-.8.2 0-1.6 0-2 0-1-2.9-1.2-3.6-1 0-.2 1.2-.8 1.4-1.3l1.2-2.1c.4-.6 1.6-.9 1.3-1.7s-1-2.6-.3-3.4q-.7 0-.6-.6c.3-.8 1.2.1 1.7.4q1-2.6.9-5.3-.7.2-1.5.1l.4.8-.8.1c.2-.6-.1-1.7.9-1.6-1-.1-1.2-2.4-2.3-.8.8-1.2-3.1-1.4-1-1.8-1-.4-1.3.9-2 1.3.7-1 .3-3.6-.1-4.5q.8 0 1.2-.8c-.6.2-2.8.1-2.8.7l.5 2c.3 1.2.8 4.1-1.2 4q.4 1.5.4 3c.5-1 2.3-.9 2.5-2.1 0 1.5-2.3 1.1-2.4 2.8-.2 2.3 1.1 4.3.6 6.7 1.4.3 1-1.4.8-2.3q.9.3 1.2 1.2c-.1-1.5.8 0 1.6-.9-.7.3-1.3.7 0 1l-1.4.4c-.4.3-.4 1.2.6.5-.6.7-.6 1.6-1.3 2.2a2 2 0 0 1-.4-1.5c-1.2.3-.8 3.8-1.2 4.8.7 0 2-1 2.4 0 .3.7-1.5 1.7-1.7.4-.6.3-1.6 2.3-.4 2.5q-1 .5-1.2 1.8l-.4 1.2c-.2.9-.8.8-1.2 1.5s-.4 1.7-.8 2.2h-.8l-1.6 1.5c-1.4 1.7-2.4 4-4.3 5.2s-4.3 1-6.2 2.2q-1.4.7-1.7 2.2c0 1.2 1.3 1.2 2 1.8.9 1 1 1.7 2.3 2.2 1.4.4 1.6 1.7 1.1 3-1 2.4-3.3 4-5.4 5.6-.8.6-1.5 1.8-2.5 2-1 .4-2.3 1-2.8 2q1 .4 1.4-.7"/><path d="m2558.3 1016.4-1.3.5q.8.5 1.3-.5m5.1-6c-1 .5-1.3 2.8-.7 2.4s.5-1.8.7-2.4m8 68.4v1q1-.5 2.2-.6c-.7-.7-.2-3 1-1.9l-.7.7 2.2-1.5c-1.3.3-3.7-.8-4.4.9q.8-.3 1.5 0-.5 1.3-1.8 1.5m.8 2.5q.7 0 .8-.7z"/></g></svg>
