<svg xmlns="http://www.w3.org/2000/svg" viewBox="1672.57 463.73 97.16 97.16"><g id="om" fill="#2B1D24">
		
		<path id="Oman_Musandam" d="m 1718.74,473.02 c 0.21,-0.579 0.47,-1.13 0.79,-1.655 0.68,0.76 1.33,-0.274 1.01,-0.937 0.58,0.316 1.76,2.303 0.29,1.944 0.94,0.655 0.25,4.669 -0.79,4.484 -1.41,-0.25 0.5,-3.744 -1.3,-3.836"></path>
		<path id="path4786" d="m 1692.82,533.32 c 10.52,-2.42 17.11,-4.956 21.88,-7.546 1.95,-3.719 -0.15,2.139 0.79,-2.003 0.76,-3.383 1.29,-6.76 2.05,-9.984 0.53,-2.231 1.78,-5.035 0.49,-7.159 -0.93,-1.528 -2.81,-2.834 -3.4,-4.522 -0.74,-2.122 3.27,-9.425 1.3,-10.581 0.88,-1.054 2.62,-0.142 3.39,-1.151 0.84,-1.107 -0.51,-0.738 -0.79,-1.296 -0.74,-1.486 -1.32,-4.749 -0.33,-6.256 0.46,-0.704 1.4,0.378 1.25,0.935 -0.46,1.737 1.3,-0.146 1.58,-0.41 0.85,-0.818 0.85,-0.68 1.38,0.474 0.89,1.918 2.05,3.731 3.47,5.303 2.23,2.485 5.36,3.378 8.55,4.018 1.49,0.299 2.76,0.886 4.27,1.056 2.03,0.228 3.14,2.7 4.31,4.08 0.93,1.113 1.57,2.457 2.51,3.522 0.97,1.109 1.48,1.155 2.77,1.668 3.01,1.204 -0.4,5.48 -1,7.247 -1.13,3.338 -4.71,5.08 -5.68,8.656 -0.22,0.844 -0.54,3.285 -1.87,2.883 -1.06,-0.317 -0.86,-2.337 -2.21,-1.496 -1.62,0.978 -1.53,4.493 -1.94,5.938 -0.55,1.889 0.1,3.353 0.57,5.183 0.4,1.496 0.66,2.627 -1.16,2.682 -2.92,0.09 -6.13,0.948 -6.85,4.096 -0.28,1.237 -0.51,2.597 -1.28,3.642 -0.97,1.301 -2.9,1.23 -4.43,1.345 -1.85,0.138 -2.59,0.439 -3.68,1.898 -1.05,1.412 -0.37,1.681 -0.45,3.294 -0.1,1.283 -1.38,2.214 -2.42,2.717 -0.5,0.241 -1,0.565 -1.51,0.164 -0.87,-0.693 -1.6,-0.504 -2.69,-0.504 -3.16,0 -5.92,3.065 -9.11,2.975 -2.06,-0.06 -1.14,-5.109 -3.35,-5.351 0.94,-0.98 -1.35,-4.426 -1.82,-5.289 -1.63,-3.012 -3.56,-7.004 -4.63,-10.26"></path>
		<path id="Oman_Masirah" d="m 1742.07,524.07 c 0.67,-0.595 0.9,-1.389 1.22,-2.19 0.19,-0.241 0.4,-0.446 0.65,-0.618 0.27,-0.321 -0.42,-1.322 -0.5,-1.657 -0.37,1.562 -2,2.723 -1.37,4.465"></path>
	</g></svg>
