<svg xmlns="http://www.w3.org/2000/svg" viewBox="1672.6 463.7 97.2 97.2"><g fill="#2b1d24"><path d="m1718.7 473 .8-1.6c.7.7 1.4-.3 1-1 .6.3 1.8 2.3.3 2 1 .6.3 4.6-.8 4.5-1.4-.3.5-3.8-1.3-3.9m-25.9 60.3c10.5-2.4 17.1-5 21.9-7.5 2-3.7-.1 2.1.8-2l2-10c.6-2.2 1.8-5 .5-7.2-.9-1.5-2.8-2.8-3.4-4.5-.7-2.1 3.3-9.4 1.3-10.6 1-1 2.6-.1 3.4-1.1.9-1.1-.5-.8-.8-1.3-.7-1.5-1.3-4.8-.3-6.3.5-.7 1.4.4 1.3 1-.5 1.7 1.3-.2 1.5-.5.9-.8.9-.6 1.4.5q1.3 3 3.5 5.3c2.2 2.5 5.3 3.4 8.5 4 1.5.3 2.8 1 4.3 1.1 2 .2 3.1 2.7 4.3 4l2.5 3.6c1 1.1 1.5 1.2 2.8 1.7 3 1.2-.4 5.4-1 7.2-1.1 3.4-4.7 5-5.7 8.7-.2.8-.5 3.3-1.9 2.9-1-.4-.8-2.4-2.2-1.5-1.6 1-1.5 4.5-2 5.9-.5 1.9.2 3.3.7 5.2.4 1.5.6 2.6-1.2 2.7-3 0-6.1 1-6.9 4q-.2 2-1.2 3.7c-1 1.3-3 1.2-4.5 1.3-1.8.2-2.6.5-3.6 2-1 1.4-.4 1.6-.5 3.2 0 1.3-1.4 2.2-2.4 2.8q-.7.5-1.5.1c-.9-.7-1.6-.5-2.7-.5-3.2 0-6 3-9.1 3-2 0-1.2-5.1-3.4-5.4 1-1-1.3-4.4-1.8-5.3-1.6-3-3.6-7-4.6-10.2"/><path d="M1742 524q1-.8 1.3-2.1l.6-.6c.3-.4-.4-1.4-.5-1.7-.3 1.6-2 2.7-1.3 4.5"/></g></svg>
