<svg xmlns="http://www.w3.org/2000/svg" viewBox="665 600.4 51 51"><g fill="#2b1d24"><path d="M668.7 627c-.7-.7 1-1.5 1.2-2.2.2-1.1-1-2.4.6-3.1 1.4-.6-1-1.4-1-2 0-1 .7-3.4.5-3.8 1-1 1.8 1.3 2.5-.1q1 .6 1.4 1.7v1.4c0 .4.7 0 .7.5-.3 2.4 2 1.5 3.5 1.8l-1-1.4c1.3-.4 2.5 2.6 4 2.8 3 .4 4.7-2 7.3-2.9 1.7-.6 3.8-1.2 5.1-2.5.7-.7 1.2-1.7 2.3-1.7 1.3 0 2.6.6 4 .4l-.7 1c2.5-.3 6 .3 7.9 2.3.9.9 2.9 4.8 4.5 4.3-1.2 1.9.2 2.7.8 4.6.7 2.1-1.5 4.2-3 5.3q-.2-.8-.8-1.5c-.5.8-.2 1-.3 1.5s-.7 1.2-1.2 2.6a11 11 0 0 1-3.8-7.2c1.6.6 1-1.4 1.7-2.1.8-.9 2.9 1.2 3.5 1.6q-.6-.9-1.6-1.3c-.8-.7-.6-1.7-1.1-2.5q.3 1-.7 1.5c.4-1.5-.9 0-1.4-1.3q.3.8 0 1.7c-.9-1.5-1-3.1-2.3-3.9q-1-.5-1.7-1.2c-1-.8-.5-.8-1.7-.7-1.5.1-4.2.4-4.6 2.4-.4 1.5-2.5 4.1-4.4 3.8-3-.5.2 3.9.9 4.6.5.5 1.6 1.7 1 2.5-.6.7-1.8.2-2.5.8-.9.8-3 2-4.2 1.3-.3-.1-.1-2.1-.3-2.6-.4-1-.1-2.4-.7-3.2q-.6.8-1.2 0c1.2 2.5-1.5 3-2.6 1-1-1.7-1-3-3-3.6-.6-.3-1.3.3-1.8-.4-.5-.9-1.3-.2-1.7-.9-.7 1-1.8 0-2.7.4-1 .6-.3 1.8-1 2.4q.2-1.4-.4-2.1"/><path d="M673 627.2q0 .8.5-.1zm4.8 5.2c-.5.5-1.3.8-1 1.6q.4 1.2 1.5.7-.5-1-.5-2.3m3.6 1.5q.8-.3 1.5-.9-.8.3-1.5.9m18.6-8.5c-.7 0-.8 1-.6 1.5 1 .1.8-1 .6-1.5"/></g></svg>
