<svg xmlns="http://www.w3.org/2000/svg" viewBox="638.5 686.4 183.3 183.3"><path fill="#2b1d24" d="M679.7 737.4c1-2 1.6-3.5 3.1-5.2q1-1.3 2.1-2.4c.6-.4 2-1 2-2 1 .3 2 4.4 1.2 4.9-.6.4-1.4 0-1.8.7s-.4 1.7.6 1.8c-.8 1.2-.6 2.6.7 1.2 1.2-1.3 1.8-.4 2.9.5s2-.4 2.8.8.8 3.3 2.6 3.7c1.5.3 1.6.2 2-1.5.7-1.6 1-2 2-3 0-2.2.4-3.1 1.2-4.8.4-.9.7-1.4.7-2.4 0-.6 1-2.5 1.3-.8q.4-.6.1-1.2c0-.6.8-1.2 1-1.6q1.3-1.5 3-2.3c2.5-1.1 5.5-1.6 7.8-3.2 4.8-3.3 8.2-8.3 9.2-14q.6.5 1.4.4c-.7-1.6 0-3.1-1-4.5-.3-.6-2.2-2.3-2.1-3q1.3.5 2.5 0c.8-.5.5-.6 1.4-.3q2.2.8 3.6 2.4c1.4 1.6 2.1 2.2 2.8 4.3.2.8-.1 1.5 1.1 1.6 1.1.1.8.6 1.6 1.3 1.6 1.4 2.7.7 3.3 3 .4 1.8.3 2.3 2.2 2.9 2.1.6.2 3 1.2 4.3q1 .8 2.4.8l1.6-.1 2.1.4c1.5 0 3.2-1.1 3.8-2.4.7-1.3 2.5 1.2 3.3 1.3 1.2 0 3-1.8 4-1.2q.8 1 1.8 1.9c.6.4 2 .3 2.5.7 1.5 1.7 1.6 2.3.3 4.2-1 1.6-2.9 4.2-3.1 6-.4 2.2 2.1.5 3 1.3q1.1 1.1 2 2.4.4.5.4 1c0 .6-.7.9-1.1 0l-.6.8c-1.1-1.5-3.6-2.5-5-.7-1.6 2-5.1 1.5-7.5 2-1.2.4-1.8 1.8-3 2.1s-.8 1-1.7 1.7c-2 1.8-3.4 1.3-3.4 4.4q.1 1.6-.6 3c-.6.8-1.3 1.7-1 2.9.2 1.2 1.2 2.9-.1 3.8-1.2.8-2.2 1.1-3.1 2.2a3 3 0 0 0-.8 2.7q.1.8.5 1.5-.9.3-1.6 1c-1.6 1.7 3.2 3.2 1.2 4.4q1.5 1.2 2 3 .1 1 1 1.4c.6.5.6 1.2 1 1.8.7 1.1 2 1.6 2.6 2.9.6 1.5-.6 2.4-1.4 3.5 1.8.9 4.4 0 6.2 1.2 1.1.8 2.2 2.8 1.7 4.2 2.4.3 5.5.8 7.6-.7 1.3-.9 3-4.2 4.9-4.2-.2.8-.9.9-.4 1.8s-.3 1.9-.3 3q.2 4.3.6 8.5c1-.8 1.6.8 2.5.8 1.4-.2 2.3-1.2 3.7-1.2 1.3 0 2.2-.2 2.6 1.1.6 2 2 3.6 3 5.4l3 5.4c.9 1.5 1.7 2.5.2 3.6-1.3 1-1.4 2.7-1 4.1.4 1.2.1 2.9.2 5 0 1 1.2 2.2 1.2 3.1l-.9 2.5c-.9.7-1.4 2.2-1.8 3.3-.7 2 1.3 2.2 1.3 3.7 0 1.2-.8 1.6-1 2.7-1.1-.8-3.8-3.5-4.3-1.5-.3 1.4.3 1 .5 2.7 0 .2-1.2-1.2-.7-.8 0 .3-1.6 1.8 1.3 2.9.1-1.4 1.8.8 2.6.6.5-.1.2.5.1 1.6 1 .2 2.6.7 2.7.1.1 0 .9.1 1 .3-.5 3.2-.1 2.5.3 2.8-.3.7.2.6-.3 1.2-.8 1-1.5 2.5-2.5 3.5l-1.3 1.1c-.6 1 .7.5.8 1.3.2 1 .6 1 .3 1.4-5.7 7.2-2 1-2.2 1.5-.5 1.1.9 2.6.1 3.9-.6 1-2 1.5-3.2 1.5-1.4 0-2.4-1-3.3-2-1.1-1-2.3-1.4-3.5-2.3-2.1-1.5-2-4.1-4.5-5.2-3-1.2-5-4.1-8-4.9-1.5-.3-3-1.4-4.3-2.2-1.6-.9-3.2-1.2-4.8-2l-4.3-3-5.2-3c-1.5-.7-2.4-2.6-3.5-3.8-1.6-1.5-3.7-2.4-4.8-4.3a8 8 0 0 0-2.4-3.1c-1-.6.3-2.8-1.3-2.5q0-.5.2-.8l.7.4c.6-3.2-.7-4.8-2.4-7.5-1.4-2.3-2.4-4.9-4.4-6.8q-1.2-.7-1.1-1.7c.2-.9-.4-2-.8-2.7a8 8 0 0 0-1.6-2.1c-.6-.5-1.7-.8-2-1.5v-1.2c0-.9-.6-1.9-1-2.6l-2.6-4.2q-1-2.1-1.8-4.4c-1.3-3.3-3.4-6-4.3-9.2-1.3-4.4-5-7-6.8-11.5-2-5-6-8.5-10.9-10.6-.4-.2-2-.6-2-1.2-.2-.8-.3-2.2.9-2 2 .2 1.3-1.8.6-2.8-1-1.5-2-2.1-2-4l.6-.7c0-.3-1-1-1.1-1.2-1-1.2-.4-1.8-.8-3"/></svg>
