<svg xmlns="http://www.w3.org/2000/svg" viewBox="2365 687.3 135.2 135.2"><g fill="#2b1d24"><path d="m2374.3 777.6 1.4-18.3c0-1.2-1.2-1.9-.9-3.2.2-1.2.9-2.6 1.3-3.6l1.7-31.4 4.5 1.7c3 1.5 5.6 3.6 8.9 4.5 1.6.4 3.2.2 4.8.8 1.8.8 3 2.3 4.5 3.3 1.3.8 1.5-.1 2.5 0 1.3.3 1.3 1.7 2.5 2 1.4.3 1.7 1.8 2.5 2.6 1 1 2.2.6 3.2 1.6s2 2.4 2.2 3.9c.2 1.3-.8 2.3-.7 3.4.2 1.6 4 1.9 5.2 2.3q1.9.8 3.6 2l1.4 1c.7.1 1.4-.3 2.2 0 1.7.5 4.4 4.4 3 6.2-1.3 1.3-4.3.2-5.8.3-2.4 0-.1 5 .6 6.2.9 1.2 2.3 2.2 3.2 3.4.6.8 2.2 2.3 3.4 1.8-.1 1.2 0 3.2.4 4.4q.3.8 1.1 1c.7.5.4 1.5.6 2.2.4 2 2 1.7 3.5 1.1 1-.4 3-.5 2.2 1.1-1.2 2.7-.1 3.6 2.6 3.7.5 0 2.5-.2 2.6.6.1 1-2 1-2.5 1.4l1.3 1.7c.7.6 1.8.6 2.6 1.2q2.2 1.2 4.6.7c-.8.3-1.7 1-2.6.8-.6 0-1.3-.5-1.5.5 1.6.4 3.4 1.2 1 2-1.6.4-3.7 1-4.6-1q.8.2 1.4-.4-.7-.4-1.2.2c-.1-1.5-2.4-1.4-3.4-1.4-1.8-.2-3.6-1.1-5.4-.8l.2-.8q-1.1.6-2.4.4c-.6 0-1.8-1-2.3-.7-1.4.8-2.3-1-3.1-.1-.3-1-1.5-1.3-1.5-2.3 0-.8-.6-1.8-1-2.4-.5-.7-1.5-.2-2-1-.5-.6-1.5-2-.8-2.8-2.5-.3-2-1.5-2.7-3.1-.6-1.6-2-5.2-3.6-6q-.8-.3-1.5-1c-.6-.4-1.5 0-2.2 0-1-.2-2-.9-3.2-1.1-1.9-.4-1-.7-1.4-2 0 1.1-1.2.5-1.5-.2-.2 1.5-1 .2-.9-.4-.4.7-.6 1.3-1 0l.2 2q-.5-.6-1.4-1c-.2 3.3-4-1.4-4.5-1.6.5 1.6 1.7 3 1.9 4.7l-.9-.3c.4 1.9-2.6-.4-3.5-.5.4.7 2.6 2.3 1.2 2.9l-2.8.5c-.8.1-1.5.5-2.3.2q-.7-.5-1.8-.3c-1 .2-1.7.8-2.2-.6q0 1.4 1.5 1.1 1.9-.4 3.4.8c2.2 1.4 4 4 1 5.3-1.4.6-2.9 2.2-4.4 2.3-1.4 0-2.6-1.2-4.1-1-1.8.1-3.6.5-5.3-.2-1.1-.5-2.1 1.3-3-.3"/><path d="M2394.6 774.1c.4-1.4-2-2-3-2.4q1.7 1 3 2.4m-.3-2.1c1-1-1-1.1-1.5-.5zm1-.4q0-.9-.8-.7zm.5-2.9q0-.7-.8-.3zm2.2-2.4q-.1-.7-.7-.7zm16.7-26.5q1.3-.8.4-2c-.7.4-1.3 1.3-.4 2m8.6 6c1.4-.1.8-2.2-.3-2.2-.8 0 0 2 .3 2.2m6.4 3.4c1-.8.7-3-.8-3-2 0 .2 2.5.8 3m-.2-30.3q.9.3.3-.7zm6.9 31.1c.4.7 1.2 1 1.5 1.7 1-.6 2.4-1 3.2 0 .7.7.6 1.5 1.8 1.4 1.6-.2 3.1.1 4.7-.2 2-.4 3-2.3 4.8-2.3s4.2-2.4 4-4.2c1 .1 5.7.8 5-1.7-.1-.4-1.8-3.3-.3-3 2.3.4 3-2.1 3-3.9 0-.7.1-1.4-.6-1.7s-1.4-.7-.6-1.4c-.7.2-2.2 1.8-2.8.9-.7-1-2.6-1-2.4.5s1 2.7.7 4.3c-.2 1.6-2.4.7-3.5 1.6s-1.4 2.4-2.3 3.6q-.6.5-1.6.6c-1.2.3-1-.2-2.1-.4-.9-.2-1.9 1.5-2.6.5-.9-1.2-.8-3.2.6-4-1.2-1.3-2.3 2.5-2 3 .7 1.1-4.4 1.6-5 1.6q-.8-.1-1.6-.6c-.9-.4-1.2.1-2 0-.7 0-2.4.4-2.8-.2-.6-.9-1.6 1.3-.7 2.2.7.7 1.4.5 2.1.8.6.3.8.9 1.5 1m5.8-10.7q.3-1-.7-.2zm2.5-27c.8-.7-.6-2.4-1.4-1.8-.4.4 1.1 1.7 1.4 1.8m.3 68.6c.3-.6.4-3.4-1-2.7-1.5 1 .3 2.2 1 2.7m3.8 1.6c1.5-1.6-.7-2.4-1.9-2.8-2.1-.8 0 1.4-1.2 2.2.9-.3 2.4 0 3 .6m-2.1-62.3c.6.5 1 1.3 2 1.4s2-.4 1.3-1.5c-.6-1-3.1-1.5-3.3 0m1.5 70.6c1.2-2-2.1-.1 0 0m.8-5.8h.6c-.9.7.7 1.2 1.1 1.4 1 .3 1.5-1.3.8-1.9q-.6.3-.7 1c-1.2-.5-1.7-2-2.7-2.6q.7 1 .9 2.2"/><path d="M2448.5 791q.3-.6.8-.7-.9-.3-.8.7m3.2-16c-.5-1-.2-2.7.2-3.6-.8.1-1.4 1.3-.2 1.4-.3.7-1 1.6 0 2.2m.7-50.6 1.4-.4q-.9-.4-1.5.4m14.2 7.6c-1-.2-1.5-2-2.1-2.7-1-1-2.8-2.7-4.2-3.2s-2.1-2-3.6-2.7c-.5-.2-.8.4-1-.4-.3-.7-1.8-1.2-2.4-1.8q.4 1-.6 1c.7.6 1.8.5 2.5 1.1l2.6 2.3q1.4 1.4 3 2.4c.9.5 1.9.6 2.6 1.2 1.5 1.2 2 3.2 2.8 4.9.6 1.1 0 2.3.1 3.4.2 1.2 1 2 1.4 3 1-.7 2.5-4.1 2-5.2-.3-1-1.1-1.5-1.5-2.3-.5-1-.6-.7-1.6-1m-4.3 59.3.7-.6-2.1-.2zm2-12.8c2.4-.1-.2-3.6-1.7-1.8.8.4.9 1.4 1.7 1.8m1 17.7q0-.7-.7-.6zm2.3 3.1q.8-.1 1.3-.7c-.6-.6-2.7-2-3.6-1.4.5.4.4 1 .9 1.5s1-.5 1.4.6m-1-72.8q.5-.8-.4-1.5-.3.9.4 1.5m5.4 71q.6-.4 1.4-.4c-.6-1-1.4 0-2.2 0zm8.7-51.7c1-1 1-2.8 0-3.7q-.7 1.7 0 3.7m2.4 6.6c.5.5 1.3.7 1.4 1.5.1 1 0 2 .8 2.9 1.1 1.1 5.1 1.5 4.7-.8q-.2-1.4-1-2.4c-.4-.4-.8-1.3-1.4-1.6q-.8-.1-1.3-.8c-1-2.4-2.5-4.7-5.2-5.6.7.8.3 2 .2 3-.1 1.5 1 2.6 1.8 3.8m5.2 7.8.7-.2c-.1-1-1.2-1-1.4 0zm2.5-1.2q.3-.8 0-1.4zm-70.2-41.1c-1-1.1.6-2.1 1.6-2.4 1.5-.4 3.2.5 4.6.7-1.3.3-1.4 1.3-3 1.3-.6 0-1.2-.6-1.8-.5-.5.1-1 .7-1.4.9"/></g></svg>
