<svg xmlns="http://www.w3.org/2000/svg" viewBox="2364.98 687.32 135.19 135.19"><g id="pg" fill="#2B1D24">
		<!--PNG-->
		<path id="Papua_New_Guinea_island" d="m 2374.30,777.58 1.44,-18.28 c -0.11,-1.25 -1.22,-1.875 -0.94,-3.244 0.24,-1.149 0.88,-2.537 1.31,-3.507 l 1.7,-31.475 c 1.1,0.448 3.43,1.184 4.49,1.724 2.95,1.505 5.64,3.639 8.89,4.493 1.6,0.421 3.26,0.187 4.8,0.853 1.78,0.769 2.93,2.245 4.53,3.24 1.27,0.787 1.5,-0.106 2.5,0.08 1.26,0.24 1.3,1.632 2.49,1.906 1.39,0.318 1.65,1.822 2.51,2.671 0.89,0.879 2.19,0.594 3.17,1.542 1.07,1.034 1.92,2.412 2.17,3.89 0.23,1.29 -0.81,2.336 -0.65,3.417 0.22,1.581 4.06,1.895 5.21,2.321 1.17,0.43 2.52,1.314 3.61,1.925 0.53,0.297 0.74,0.851 1.37,1.01 0.73,0.186 1.43,-0.218 2.16,0 1.77,0.528 4.47,4.458 2.96,6.212 -1.19,1.386 -4.2,0.222 -5.74,0.303 -2.43,0.128 -0.1,5.114 0.64,6.206 0.86,1.28 2.25,2.186 3.17,3.466 0.59,0.813 2.18,2.292 3.36,1.813 -0.1,1.188 0.11,3.169 0.47,4.306 0.19,0.606 0.58,0.836 1.08,1.133 0.7,0.42 0.44,1.429 0.57,2.111 0.38,2.05 2.04,1.718 3.55,1.128 1.07,-0.42 2.92,-0.542 2.17,1.12 -1.22,2.694 -0.14,3.519 2.6,3.657 0.52,0.03 2.55,-0.157 2.63,0.648 0.1,0.884 -1.97,0.99 -2.48,1.307 0.46,0.539 0.65,1.276 1.22,1.73 0.71,0.572 1.87,0.656 2.68,1.166 1.24,0.777 3.1,1.193 4.52,0.704 -0.72,0.317 -1.7,1.042 -2.53,0.893 -0.66,-0.117 -1.37,-0.531 -1.5,0.477 1.58,0.41 3.36,1.2 1,1.931 -1.58,0.485 -3.74,1.072 -4.6,-1 0.53,0.146 0.98,0.03 1.37,-0.36 -0.47,-0.263 -0.87,-0.189 -1.22,0.22 -0.1,-1.488 -2.34,-1.368 -3.37,-1.45 -1.79,-0.141 -3.58,-1.089 -5.42,-0.78 0.1,-0.265 0.14,-0.528 0.22,-0.79 -0.75,0.343 -1.58,0.568 -2.42,0.434 -0.59,-0.1 -1.75,-1.126 -2.3,-0.77 -1.36,0.886 -2.27,-0.92 -3.13,-0.104 -0.23,-0.922 -1.44,-1.286 -1.44,-2.3 0,-0.782 -0.58,-1.776 -1.04,-2.379 -0.51,-0.685 -1.5,-0.163 -2.03,-0.924 -0.42,-0.62 -1.43,-2.147 -0.75,-2.888 -2.45,-0.316 -2.07,-1.438 -2.72,-3.1 -0.61,-1.569 -1.97,-5.209 -3.62,-5.888 -0.54,-0.222 -0.97,-0.664 -1.41,-1.025 -0.6,-0.488 -1.53,0 -2.23,-0.1 -1.04,-0.134 -2.11,-0.841 -3.19,-1.051 -1.92,-0.374 -1.11,-0.73 -1.44,-2.09 0,1.195 -1.21,0.574 -1.52,-0.07 -0.14,1.496 -0.96,0.189 -0.86,-0.431 -0.36,0.653 -0.6,1.289 -0.94,0 0,0.696 0.1,1.39 0.15,2.08 -0.35,-0.479 -0.81,-0.812 -1.37,-1 -0.24,3.243 -4.09,-1.531 -4.53,-1.729 0.53,1.626 1.65,3.02 1.87,4.75 -0.29,-0.09 -0.58,-0.182 -0.87,-0.29 0.39,1.866 -2.62,-0.389 -3.53,-0.5 0.39,0.628 2.59,2.289 1.25,2.849 -0.89,0.372 -1.88,0.333 -2.81,0.498 -0.78,0.138 -1.51,0.489 -2.3,0.193 -0.62,-0.232 -1.12,-0.463 -1.8,-0.299 -1.05,0.256 -1.72,0.792 -2.18,-0.581 0,1.012 0.47,1.367 1.42,1.146 1.34,-0.308 2.29,0.05 3.44,0.783 2.21,1.401 3.93,4.04 0.92,5.324 -1.35,0.574 -2.8,2.121 -4.28,2.241 -1.4,0.114 -2.6,-1.182 -4.17,-1.04 -1.74,0.159 -3.59,0.6 -5.28,-0.168 -1.13,-0.517 -2.1,1.334 -3,-0.297"></path>
		<path id="path3962" d="m 2394.61,774.13 c 0.35,-1.458 -1.97,-2.07 -2.95,-2.38 1.06,0.65 2.13,1.438 2.95,2.38"></path>
		<path id="path3964" d="m 2394.32,772.04 c 0.96,-0.984 -0.93,-1.15 -1.51,-0.58 0.47,0.279 0.97,0.472 1.51,0.58"></path>
		<path id="path3966" d="m 2395.25,771.61 c 0.11,-0.581 -0.27,-0.775 -0.79,-0.72 0.25,0.256 0.51,0.496 0.79,0.72"></path>
		<path id="path3968" d="m 2395.76,768.66 c 0.12,-0.507 -0.12,-0.581 -0.72,-0.221 0.24,0.07 0.48,0.148 0.72,0.221"></path>
		<path id="path3970" d="m 2397.99,766.28 c -0.1,-0.41 -0.3,-0.649 -0.72,-0.72 0.24,0.24 0.48,0.48 0.72,0.72"></path>
		<path id="path3972" d="m 2414.70,739.78 c 0.88,-0.362 1.03,-1.314 0.43,-2.01 -0.77,0.4 -1.35,1.379 -0.43,2.01"></path>
		<path id="path3974" d="m 2423.33,745.76 c 1.4,-0.08 0.74,-2.201 -0.35,-2.18 -0.8,0.02 0.1,1.927 0.35,2.18"></path>
		<path id="path3976" d="m 2429.67,749.22 c 1.09,-0.839 0.76,-3.036 -0.79,-3.03 -1.9,0 0.23,2.55 0.79,3.03"></path>
		<path id="path3978" d="m 2429.45,718.90 c 0.62,0.167 0.74,-0.07 0.37,-0.72 -0.13,0.24 -0.25,0.48 -0.37,0.72"></path>
		<path id="Papua_New_Guinea_New_Britain" d="m 2436.37,750.08 c 0.47,0.623 1.28,0.89 1.58,1.66 0.93,-0.669 2.32,-0.958 3.19,0.01 0.64,0.697 0.59,1.429 1.78,1.313 1.54,-0.151 3.1,0.187 4.64,-0.117 2.02,-0.4 3.1,-2.333 4.83,-2.299 1.78,0.04 4.17,-2.462 3.92,-4.238 1,0.119 5.81,0.795 5.11,-1.689 -0.12,-0.426 -1.79,-3.363 -0.36,-3.066 2.36,0.489 2.96,-2.049 2.96,-3.846 0,-0.664 0.19,-1.423 -0.51,-1.744 -0.68,-0.308 -1.44,-0.624 -0.65,-1.395 -0.66,0.252 -2.13,1.853 -2.79,0.893 -0.71,-1.014 -2.56,-0.972 -2.38,0.567 0.17,1.465 0.97,2.709 0.74,4.27 -0.23,1.557 -2.43,0.735 -3.52,1.61 -1.17,0.948 -1.36,2.435 -2.27,3.563 -0.38,0.473 -1.11,0.441 -1.63,0.583 -1.2,0.324 -1,-0.16 -2.13,-0.36 -0.86,-0.152 -1.87,1.457 -2.55,0.532 -0.89,-1.23 -0.85,-3.193 0.62,-3.948 -1.25,-1.341 -2.33,2.39 -1.98,2.973 0.64,1.072 -4.46,1.59 -5,1.557 -0.71,-0.04 -1.07,-0.388 -1.71,-0.646 -0.84,-0.346 -1.2,0.149 -1.98,0.09 -0.68,-0.05 -2.42,0.307 -2.79,-0.249 -0.58,-0.895 -1.58,1.275 -0.66,2.224 0.65,0.668 1.33,0.471 2.1,0.806 0.57,0.249 0.77,0.843 1.44,0.941"></path>
		<path id="path3984" d="m 2442.20,739.42 c 0.15,-0.654 -0.1,-0.724 -0.72,-0.21 0.24,0.07 0.48,0.14 0.72,0.21"></path>
		<path id="path3986" d="m 2444.72,712.42 c 0.78,-0.726 -0.66,-2.431 -1.4,-1.776 -0.46,0.404 1.1,1.626 1.4,1.776"></path>
		<path id="path3988" d="m 2445.01,780.97 c 0.27,-0.53 0.34,-3.369 -0.96,-2.636 -1.56,0.88 0.21,2.157 0.96,2.636"></path>
		<path id="path3990" d="m 2448.75,782.62 c 1.53,-1.6 -0.63,-2.385 -1.83,-2.837 -2.15,-0.809 0,1.452 -1.19,2.188 0.85,-0.314 2.37,0.02 3.02,0.649"></path>
		<path id="path3992" d="m 2446.59,720.27 c 0.62,0.57 1.03,1.309 1.94,1.44 0.94,0.136 2.06,-0.453 1.35,-1.537 -0.6,-0.941 -3.13,-1.493 -3.29,0.1"></path>
		<path id="path3994" d="m 2448.10,790.76 c 1.17,-1.917 -2.11,-0.1 0,0"></path>
		<path id="path3996" d="m 2448.90,785.07 c 0.21,0 0.43,0 0.64,0 -0.93,0.61 0.65,1.153 1.07,1.303 1.05,0.372 1.48,-1.293 0.8,-1.873 -0.37,0.208 -0.61,0.519 -0.71,0.93 -1.22,-0.434 -1.68,-1.862 -2.74,-2.52 0.42,0.663 0.84,1.363 0.94,2.16"></path>
		<path id="path3998" d="m 2448.46,790.97 c 0.19,-0.337 0.48,-0.55 0.87,-0.64 -0.57,-0.201 -0.89,0.04 -0.87,0.64"></path>
		<path id="path4000" d="m 2451.70,774.99 c -0.47,-0.934 -0.19,-2.688 0.22,-3.601 -0.81,0.134 -1.44,1.29 -0.22,1.37 -0.3,0.763 -0.98,1.628 0,2.231"></path>
		<path id="path4002" d="m 2452.35,724.38 c 0.49,-0.09 0.97,-0.211 1.44,-0.37 -0.54,-0.316 -1.1,-0.12 -1.44,0.37"></path>
		<path id="Papua_New_Guinea_New_Ireland" d="m 2466.46,731.94 c -1.05,-0.148 -1.47,-1.913 -2.1,-2.591 -0.98,-1.057 -2.77,-2.703 -4.12,-3.244 -1.41,-0.57 -2.18,-2.086 -3.61,-2.66 -0.52,-0.209 -0.88,0.36 -1.1,-0.402 -0.22,-0.757 -1.76,-1.263 -2.32,-1.832 0.27,0.564 0,0.908 -0.57,0.93 0.7,0.616 1.72,0.546 2.42,1.178 0.86,0.777 1.71,1.559 2.62,2.282 0.99,0.791 1.92,1.815 3.05,2.409 0.85,0.443 1.84,0.563 2.6,1.18 1.47,1.201 1.98,3.246 2.79,4.877 0.57,1.129 0,2.307 0.13,3.483 0.1,1.144 0.9,1.963 1.37,2.95 0.89,-0.73 2.5,-4.147 2.04,-5.244 -0.37,-0.894 -1.2,-1.465 -1.59,-2.302 -0.49,-1.041 -0.61,-0.654 -1.61,-1.014"></path>
		<path id="path4006" d="m 2462.21,791.26 c 0.24,-0.19 0.48,-0.38 0.73,-0.57 -0.73,0 -1.45,-0.05 -2.16,-0.149 0.47,0.241 0.95,0.481 1.43,0.719"></path>
		<path id="path4012" d="m 2464.23,778.45 c 2.34,-0.09 -0.22,-3.523 -1.73,-1.8 0.79,0.413 0.89,1.437 1.73,1.8"></path>
		<path id="path4014" d="m 2465.17,796.23 c -0.11,-0.517 -0.1,-0.767 -0.72,-0.649 0.24,0.216 0.48,0.432 0.72,0.649"></path>
		<path id="path4016" d="m 2467.47,799.33 c 0.51,-0.136 0.97,-0.376 1.37,-0.721 -0.68,-0.625 -2.7,-2.011 -3.67,-1.439 0.49,0.402 0.47,1.101 0.93,1.51 0.59,0.527 0.99,-0.493 1.37,0.65"></path>
		<path id="path4018" d="m 2466.53,726.53 c 0.34,-0.577 0.1,-1.154 -0.43,-1.51 -0.22,0.602 -0.1,1.106 0.43,1.51"></path>
		<path id="path4020" d="m 2471.86,797.53 c 0.43,-0.311 0.91,-0.454 1.44,-0.43 -0.65,-0.953 -1.41,-0.05 -2.23,0 0.26,0.143 0.52,0.286 0.79,0.43"></path>
		<path id="path4024" d="m 2480.58,745.76 c 1.04,-0.895 1.1,-2.796 0,-3.67 -0.62,1.104 -0.39,2.534 0,3.67"></path>
		<path id="Papua_New_Guinea_Bougainville" d="m 2482.95,752.38 c 0.55,0.507 1.34,0.721 1.45,1.535 0.15,1.014 0,2.048 0.76,2.848 1.14,1.167 5.18,1.502 4.75,-0.737 -0.18,-0.941 -0.44,-1.596 -1.04,-2.39 -0.36,-0.473 -0.75,-1.353 -1.33,-1.589 -0.53,-0.218 -1.04,-0.229 -1.31,-0.813 -1.1,-2.435 -2.55,-4.726 -5.22,-5.614 0.72,0.794 0.24,2.022 0.17,2.938 -0.1,1.517 1.08,2.604 1.77,3.822"></path>
		<path id="path4028" d="m 2488.21,760.23 c 0.24,-0.07 0.48,-0.146 0.72,-0.22 -0.15,-0.948 -1.23,-1.064 -1.44,-0.07 0.24,0.1 0.48,0.193 0.72,0.29"></path>
		<path id="path4030" d="m 2490.73,759.01 c 0.15,-0.48 0.15,-0.96 0,-1.44 0,0.48 0,0.96 0,1.44"></path>
		<path id="Papua_New_Guinea_Manus" d="m 2420.45,717.90 c -0.97,-1.124 0.68,-2.128 1.61,-2.374 1.5,-0.397 3.2,0.43 4.66,0.715 -1.28,0.282 -1.37,1.289 -2.95,1.289 -0.64,0 -1.24,-0.582 -1.87,-0.5 -0.55,0.07 -0.97,0.649 -1.45,0.87"></path>
	</g></svg>
