<svg xmlns="http://www.w3.org/2000/svg" viewBox="2151.4 510.7 154.8 154.8"><g fill="#2b1d24"><path d="M2249.7 589.8q.3.3.4 0zm-57.3 41.2q.8-1.2-.3-2.2-.5 1.2.3 2.3m12.1 7.2q.1-1.2-1-.5zm10.9 16.6c.5-.3 3-1.7 3-2-.5-1.2-1.3 0-1.9.4-.7.5-2 .5-1.1 1.6m4.6-11.4.2 1.1q.5-.6-.1-1.1m5.9 4.5c2-1-1.1-2-2-1.9-1.1.2-1 1.5-.7 1.4.6-.3 2.4-.5 2.7.4m4-5.9q.4 1.3 1.9 1c.8-.5.8-1.4 1.3-2q-1-.2-1.9-.7c-.7-.1-1.2.8-1.9 1zm-.5 4q.3 1 1 .5zm7.5-10.4c2.7-1-2-1.7 0 0m4.7-15.7c1.2 0 .7-1.2.2-1.8-.7.3-1.1 1.4-.2 1.8m1-3.9q1.1 0 .7-.7-.8 0-.7.7m1-6 .6-.7c-.7 0-.6.1-.6.7m7.1 10c.3-.7-.3-1.9-1.2-1.1q.3 1 1.2 1.1m6.2 32q.3.2.7 0-.3-.2-.7 0m2.6-13q.2-1.2-.1-2.3c-1.3.2-.2 1.5.1 2.3m-65.8-14.7c-.4.7-.2 1.5-.4 2.2 2-2.4 4.7-3.2 6.5-6 .6-1 6.1-4.6 4.1-6.2 1.2.3.4-.5.5-1.2 0-1 1.4-1 2-1.1q1.4 0 1.4-1.5c.3-1.3 1.2-1 2.1-1.5 1.8-1.2.5-2.4-.3-3.7-.9-1.7.6-3.9-.8-5.3-.9.8.2 3.7-1 2.5l1.2 3q-1.3-.5-2-1.7c0 .9.6 1.6.8 2.4.3.9-.8 3.5-1.2 1.7q-.2.7-.9.9c-.4 0-.2 1.2-.3 1.4-.1.4-.8 0-1 .3-.2.5.4.8 0 1.4-.2-1.7-.9.3-1.1.7l-1.4 2.2c-1 1-1.5 2.5-2.5 3.4-.5.3-1 .1-1.4.5-.5.3-.5 1-1 1.3a9 9 0 0 0-3.3 4.3m17.6-24.2q.3-1.2-.8-.4zm.6-7.6-.8-.6c-1.2 2.4 1.9 2.8 3.6 2.8q0-.7-.7-1.3c-.8-.4-1.3-.2-2.2-1m-.7-13.6c.2.7 1 1.1 1.5 1.5q-.1-1.4-1.5-1.5m1 16.6-1 .2c.3.9 1.3 1 1.3 2 .6-.7 0-1.7-.3-2.3m1.2 12c-.1-1.3-1.7 0-1.7.7 1 .4.8-.8 1.7-.7m-.2-25.2c.2.4 1.8 1.7 2.2 2 1.6 1.3 1.2 3 2.4 4.3.5.6 4 6.9 4.7 3.2l.8-2.2c.2-.8-.6-1.5-.6-2.3q-.1-2.5-2.2-4.2c-1-1-6.3-2-7.3-.8m1.2 14.3-.2-1.5q-.4.8.2 1.5m-8.1-37.4c-.3 1.6 1 1.4 1.1 2.3q.3 2.3 1 4.4 1.1 1.6 1.3 3.5c.1.8 1.4 2.5 1.2.7 1.4.5.6 3.2 2.2 3.6 2.3.7.5-2.2.5-3.2.6.2 5.3 1.8 3.5 3l-2 1.8c-1 1 0 2.8.2 4q1-.1.5-1 2 0 1.7 2c.4-1.5 1.3-.2 1 .6.8-.2 1.9.3 2.5-.3l1.3-1.8c.1-.1 1.2-1 1.5-.7.9.7 2.1 1 3 1.8 1 1 3.1 2.5 3.4 4 .1.6 1 1.3 1.2.4q0-.8-.4-1.4c0-.2-1.1-1.6-.6-1.5-1.1-.7-.8-2.2-1.6-3.2 1.5-.2 3 1.6 3.7 2.7 1 1.4 2.8 1.5 3.6 3.3.3.5-.2 1.4.4 1.5q1.2.4 2 1c.6.3 1.1 1 1.7.7.5-.2 1.1-.9 1.7-.8-.1.9-1.7 1.3-1 2.3 0 .2 1.4 2.1 1.8 1.2.5-1.5 0-6.6-2.8-4.7-.3-.6 0-1-.2-1.6-.1-.8-1.2-1.8-1.9-2.2-1.7-1 2-2 2.9-1.5-.2-1-2-1.4-2.8-1.5-1.5-.2-1.7-1.4-3-1.6-.2 1 1.6 2.4 0 3-1 .4-1.4-2.3-2-3.2-1-1.8-5.3-3.3-5.2 0l-.6-1c-1 1 1 1.6.5 2.2-1 1-2.9-.4-3.6-1.1-.6-.6-3.2-5.1-1.3-5.3-1.7-1.2-3.6-4.8-2.8-6.8.6-1.4-.1-2.7.4-3.9.6-1.5 2.6-1.6 3.7-2.7l-.4 1.2c.9-1 .6-2.1 1-3.3.6-1.8 1.4-3.7 1.1-5.6-1 .4-.5-1-.9-1.4-.9-1.3-2-1.3-2.5-3q-.8-2.5.3-5c.4-.8-.8-3.2-1.6-2-.3.6-.3 1.7-1.2 1.5-.5 0-1.6-.6-2.1 0q-.6-1-1.4-1.4c-1-.7-2.5-1.7-3.8-1.3q-1 .1-1.7-.1c-.5-.1-.1.7-.6.7-1.4 0-.5.7-.6 1.5 0 1.5-.5 3.3-.7 4.8-.4 2.7 1.7 5 1.1 8-.4 2.3.5 4 .8 6.2.4 2.7-3.7-.9-4-2q-1.2.8-.5 2.2m7.5-28q.5.8 1.4 1c.2-.8-.7-1.4-1.4-1m.6 4.5h.8q-.5-.5-.8 0m2.4-12.9q.4-.6.5-1.2-.8.5-.5 1.2m1.6 13.1q.6-.6.5-1.5-.8.7-.5 1.5"/><path d="M2223 568.8c.3.9.7 2.6 1.7 3 .4-1.1.1-4.6-1.7-3m3.8 8.6c-.2-.9-1.4-1.5-2.2-1.7q.9 1 2.2 1.7m-2.2 4.9c0 1.6 2.5 2.8 2.6.5 0-1.2-2.2-1.8-2.6-.5m2-11.1q.3-1-.8-.5zm-.1 25.5c2.3.4 1.8 2.2 1.7 4q.2 1.8-.2 3.6c-.3 1.3.5 2.6 0 4 1.4.2 2.2-2 3.7-2 1 0 2.7-1.5 2.5-2.4s2.7-1.1 2.3-2.3c-.5-1.6.6-3.7-1.9-2 .6-.6-.3-1.5-1-1.3s-1.2 1-1.8.3q-.8-1.2-2-1.9-1.6-.4-2.5-1.4-.6.6-.8 1.4m.5-6.3c0 1.3-.6 2.4.4 3.5q.2-2.3.6-4.4c.2-.8-1.7-.3-1 .9m.1-18.8h.8q-.4-.2-.8 0m1.9 18.8q1 0-.2-.7zm1 46.3c-.3 2 2.5 2.9 2.7.5.1-.9.5-3.3 1.1-3.5s1-3.4 2.1-2.5c1 .7.6 2.1 1.2 2.9.2-1.3.7-.7 1 0 .3-.8 0-1.9 1-2.2q.7.8 0 1.5c.9 0 1.5 1.3 2.5 1.1q-.6-.6-.6-1.6c0-.3.7-.2.8-.5.2-.8-.7-.6.3-1.4.6-.5 1.2.4 1.7.7 1.6 1 3 1.2 3.6 3.3.2 1.2-1.3 2.2-1.4 3.5s.5 2.9.8 4c.4 2 2 3 3.6 3.9.7.4 3.3 2 4.1 1.3.6-.5.3-1.8 1.5-1.8.1 0-.2 5.6 1.5 4.4 1.1-.8 2.2-3.6 2-5-.3-1.9-1.7-2.7-2.5-4.2-.4-1 1.8-6.2 2.7-5.8.6.3 2 3.3 2.2 4s.1 1.4.2 2.1c.1 1.1 1 1.8 1.1 2.8 0-1.6.8-3.8-.5-5.2q1-.4 1.4.6c-1.1-1 .5-1.9 1-2.6 1-1.4.3-3.4 0-4.8-.2-1.2-1.8-1.3-1.2-2.6.4-.7.4-2.7-1-2 2.4-2-1.9-2.7-1.8-3.7 0-.6 1.2-1 1.4-1.5.5-1-.7-1.5-1-2.4-.2-.3.2-2.2-.5-1.8-1 .4-1 .1-1.6-.6-.5-.8 0-1.3-1.2-1.7-1.4-.4-1.7-1.7-3-2.3-.7 1.7.6 3.8 1.1 5.3.1.4.6 1.7 0 1.9-.8.2-2 0-2.3-.9-.7 2.1 0 2.3-2 1-1.8-1.4-.2 3.7-1.8 4-1 0-1.2-1.1-2-.7-1 .4-.8 2.2-1 3-.4 1-1.9.5-2.6 1.1-.4.4-1.1 1.2-1.7 1.2s.8-1 .6-.8c.8-.5 1-.8.8-1.8-.2-.7-1.2-4.2-2.4-2.5-.2-.6-.6-1.4-1.3-1.3.4 2-2 1.2-2.7 2.3-.6 1.2 0 2.4-1.6 3-1.6.5-4 0-4.8 2-.3.9 0 1.9-.2 2.8q-.3 1.8-1.2 3.5m.9-46.3q-.5.1-.8.6l1.8 1.5c.7-1 .1-2.1-1-2.1m2.9 26.6c.7.4 1.7.4 2.2 1.1.5.6.3 1.5.8 2 .8.7 1.9-.2 2.3-.9.7-1.3-.6-2.1-1-3.3-.6-2 .2-5.2.8-7.2.5-1.6 2.2-3.7 0-4.8q-1.1-.6-2.4-.2c-1.2.6-.7 1.7-1 2.8-.2.7-1 1-.7 1.7.3 1 .7 2 .3 2.9-.5 1.4-3.2.5-3.1 2.1 0 1.4 1 2.7 1.8 3.7"/><path d="M2232.8 608.5c.7-.3 2.2-2.3.8-2.6-1-.2-1.3 2-.8 2.6m4.3-19.8c-.8-1.3-1.7-3.1-3.3-3.8-.7 1.3 2.8 3 3.3 3.8m-.7 6-.2.8c1-.7 1.8-3.4 3-2l1.5 1.7c.6.8 1.7.9 2.3 1.7 1.1-2.2-1.8-3.5-2.8-4.7l-1.6-1.5c-.3-.2-2-1-2.4-1 .2.6 0 2.5.3 2.9.8 1-.1 1-.2 2.1m3.3-4.3q.4.8 1 1.3.1-1.7-1.3-2.6-.3.8.3 1.3m.1 21.6q0 2.3-.5 4.5c2 .6 1.6-4.3 2.5-5.3 1-1.2 2.1-2.2 2.3-3.9.2-2-.4-4-.4-6-1 .3-1.3 3.4-1.4 4.2-.5 2.3-2 4.2-2.5 6.6m1.9-27.9q.2-.7-.7-.3zm1.1-2.6c1.8-1.3 1.5-4.1-.9-4.6-.7 1.5-.2 3.6.9 4.6m.6 32.9c-.1 2.8 4.9-.4 5.5-.1-.4-1.5-.4-4.3-3-3.6-1 .2-3.7 2.9-2.5 3.7m1-24.1a8 8 0 0 0 2.5 3.9c.7.6 3 2.9 3.8 2.5-.3.7-.3 1.6-1.1 2q.7.5 1 1.2c-.7-.8-1.2.3-1.8.6-1 .6-2.5-1-3-1.7-.6.9.7 5.1 1.8 5.6-.2-2 2 .6 2.1 1.5.2 2.6-.3 4.5 2.4 5.7l-.5-2.2c.4.4 1.9.5 2-.3.1-.5-1-2.6-1.3-3-.6-1-.8-.9-.9-2.3 0-.9.2-2.3-.6-3 .6 0 2.3 1.6 2.3 1.5.6-.7 3.1.3 3.8.7-.5-.7-1-1.6-1.8-1.8 1.1-1-1.1-3.5-1.2-4.5s.3-2-.3-3c-.3-.6 1-.4 0-1-.7-.5-1.5-.2-1.4-1.2 0-1.2-1-1.3-2-1.5s-1.2-.2-2.3.1-2.4-.6-3.5.2"/><path d="M2246.8 599.4c1.3.2.3-2.8-1.2-1.9q.3 1.2 1.2 1.9m6.5 12.6.8.8c-.1-.7-.4-1.9-1.4-1.5zm2.9 0q1 .7.2 1.6c1 .1.8-1.4.7-2l-.7-1.8q.2-.7.1-1.6c-1.4.6-.3 1.8-1 2.8q1 0 .7 1m3.1 3.9q.6-.9-.3-1.5-.2.8.3 1.5m.5-3.9c-.4.5-.7 2.6.4 2.3s.3-2.1-.5-2.3m-13.5-5-.1-.8q1.2.2.1.8m4.3-7q.3.4.2 1-.2-.4-.2-1m-10.1 3.1c-.5-2.8 3.3-1.3 0 0"/></g></svg>
