<svg xmlns="http://www.w3.org/2000/svg" viewBox="2151.37 510.73 154.84 154.84"><g id="ph" fill="#2B1D24">
		
		<path id="path5902" d="m 2249.67,589.81 c 0.19,0.178 0.34,0.153 0.43,-0.07 -0.15,0.02 -0.29,0.05 -0.43,0.07"></path>
		<path id="path5800" d="m 2192.43,631.06 c 0.48,-0.783 0.48,-1.705 -0.29,-2.304 -0.32,0.773 -0.22,1.636 0.29,2.304"></path>
		<path id="path5806" d="m 2204.45,638.26 c 0.1,-0.796 -0.19,-0.964 -0.86,-0.504 0.27,0.196 0.56,0.364 0.86,0.504"></path>
		<path id="path5832" d="m 2215.40,654.89 c 0.45,-0.254 3.06,-1.666 2.94,-1.991 -0.45,-1.199 -1.21,-0.07 -1.82,0.361 -0.75,0.537 -1.98,0.559 -1.12,1.63"></path>
		<path id="path5838" d="m 2220.08,643.45 c -0.17,0.397 -0.15,0.781 0.1,1.152 0.35,-0.414 0.32,-0.798 -0.1,-1.152"></path>
		<path id="path5840" d="m 2225.98,647.91 c 1.97,-0.984 -1.11,-1.938 -2.06,-1.763 -1.02,0.192 -0.88,1.498 -0.64,1.368 0.66,-0.359 2.39,-0.526 2.7,0.395"></path>
		<path id="path5858" d="m 2230.09,641.93 c 0.14,0.87 0.97,1.36 1.78,0.986 0.84,-0.38 0.78,-1.284 1.31,-1.922 -0.74,0.06 -1.19,-0.512 -1.87,-0.648 -0.71,-0.142 -1.23,0.725 -1.87,0.864 0.19,0.264 0.41,0.504 0.65,0.72"></path>
		<path id="path5860" d="m 2229.51,646.04 c 0.21,0.558 0.57,0.726 1.08,0.504 -0.33,-0.237 -0.69,-0.405 -1.08,-0.504"></path>
		<path id="path5874" d="m 2237.07,635.60 c 2.66,-1.05 -2.16,-1.712 0,0"></path>
		<path id="path5882" d="m 2241.68,619.90 c 1.24,-0.06 0.72,-1.202 0.22,-1.8 -0.7,0.346 -1.14,1.382 -0.22,1.8"></path>
		<path id="path5888" d="m 2242.69,616.01 c 0.68,-0.04 0.92,-0.283 0.72,-0.72 -0.56,-0.05 -0.75,0.185 -0.72,0.72"></path>
		<path id="path5892" d="m 2243.70,609.97 c 0.19,-0.24 0.38,-0.479 0.57,-0.72 -0.67,0.01 -0.58,0.195 -0.57,0.72"></path>
		<path id="path5900" d="m 2250.75,620.05 c 0.34,-0.751 -0.29,-1.918 -1.15,-1.152 0.16,0.556 0.59,1 1.15,1.152"></path>
		<path id="path5908" d="m 2257.01,652.01 c 0.23,0.131 0.47,0.155 0.73,0.07 -0.24,-0.229 -0.49,-0.253 -0.73,-0.07"></path>
		<path id="path5910" d="m 2259.61,638.98 c 0.23,-0.776 0,-1.544 -0.15,-2.304 -1.25,0.25 -0.17,1.494 0.15,2.304"></path>
		<path id="Philippines_Palawan" d="m 2193.80,624.29 c -0.39,0.693 -0.25,1.49 -0.43,2.231 1.96,-2.429 4.74,-3.229 6.48,-5.976 0.64,-1.021 6.15,-4.616 4.17,-6.264 1.17,0.289 0.37,-0.516 0.44,-1.225 0.1,-0.864 1.48,-0.983 2.08,-1.063 1.03,-0.136 1.23,-0.538 1.4,-1.487 0.24,-1.323 1.2,-0.994 2.06,-1.554 1.81,-1.176 0.48,-2.33 -0.28,-3.686 -0.91,-1.628 0.56,-3.855 -0.8,-5.243 -0.88,0.764 0.19,3.678 -1.08,2.521 0.31,0.602 1.15,2.289 1.22,2.952 -0.74,-0.412 -1.6,-0.857 -1.87,-1.729 0,0.913 0.46,1.645 0.73,2.478 0.28,0.837 -0.77,3.423 -1.23,1.627 -0.1,0.558 -0.37,0.742 -0.88,0.88 -0.39,0.106 -0.18,1.22 -0.28,1.496 -0.14,0.348 -0.84,-0.104 -1,0.216 -0.25,0.508 0.41,0.86 0,1.439 -0.19,-1.695 -0.91,0.266 -1.16,0.723 -0.42,0.762 -0.83,1.536 -1.41,2.188 -0.93,1.032 -1.42,2.441 -2.51,3.342 -0.43,0.358 -0.93,0.192 -1.36,0.515 -0.5,0.369 -0.52,1.018 -1.04,1.317 -1.45,0.852 -2.69,2.725 -3.25,4.302"></path>
		<path id="path5812" d="m 2211.44,600.10 c 0.21,-0.762 -0.1,-0.905 -0.79,-0.432 0.26,0.144 0.52,0.288 0.79,0.432"></path>
		<path id="path5814" d="m 2211.94,592.47 c -0.22,-0.219 -0.46,-0.411 -0.72,-0.576 -1.27,2.401 1.87,2.809 3.53,2.809 0,-0.442 -0.21,-1.039 -0.61,-1.26 -0.82,-0.457 -1.34,-0.258 -2.2,-0.973"></path>
		<path id="path5816" d="m 2211.15,578.79 c 0.28,0.695 1,1.122 1.59,1.512 0,-0.89 -0.77,-1.477 -1.59,-1.512"></path>
		<path id="path5818" d="m 2212.23,595.35 c -0.31,0.07 -0.63,0.144 -0.94,0.216 0.17,0.892 1.24,0.966 1.16,1.944 0.65,-0.589 0,-1.566 -0.22,-2.16"></path>
		<path id="path5820" d="m 2213.38,607.30 c -0.1,-1.258 -1.73,-0.09 -1.72,0.72 0.97,0.388 0.8,-0.851 1.72,-0.72"></path>
		<path id="path5824" d="m 2213.24,582.10 c 0.15,0.414 1.75,1.692 2.13,1.991 1.61,1.274 1.22,2.934 2.39,4.274 0.51,0.588 3.99,6.938 4.76,3.239 0.17,-0.784 0.65,-1.448 0.8,-2.232 0.15,-0.778 -0.58,-1.471 -0.58,-2.25 0,-1.86 -0.94,-3.017 -2.2,-4.271 -1.01,-1.017 -6.34,-1.998 -7.3,-0.751"></path>
		<path id="path5828" d="m 2214.39,596.43 c 0,-0.511 -0.1,-1.015 -0.22,-1.512 -0.28,0.558 -0.21,1.062 0.22,1.512"></path>
		<path id="Philippines_Luzon" d="m 2206.33,558.99 c -0.32,1.593 0.96,1.391 1.11,2.294 0.25,1.383 0.35,3.162 1.05,4.381 0.67,1.174 1.02,2.204 1.22,3.516 0.13,0.795 1.4,2.547 1.23,0.753 1.34,0.504 0.57,3.118 2.13,3.584 2.29,0.688 0.48,-2.257 0.53,-3.224 0.58,0.212 5.33,1.771 3.49,3.086 -0.71,0.504 -1.33,1.115 -1.96,1.701 -1.03,0.939 0,2.794 0.12,3.997 0.61,-0.07 0.85,-0.437 0.58,-1.009 1.3,0.02 1.89,0.74 1.66,2.017 0.42,-1.496 1.36,-0.183 1.08,0.576 0.74,-0.122 1.82,0.334 2.43,-0.277 0.53,-0.522 0.67,-1.318 1.27,-1.767 0.18,-0.139 1.26,-0.97 1.53,-0.759 0.9,0.724 2.1,1.083 2.94,1.875 1.1,1.046 3.19,2.474 3.49,4.023 0.1,0.519 1.01,1.276 1.22,0.366 0,-0.491 -0.15,-0.95 -0.4,-1.379 -0.1,-0.241 -1.17,-1.691 -0.6,-1.508 -1.15,-0.723 -0.85,-2.273 -1.66,-3.239 1.55,-0.246 3.01,1.626 3.76,2.695 1.01,1.446 2.74,1.532 3.6,3.314 0.23,0.468 -0.29,1.374 0.39,1.521 0.74,0.159 1.36,0.686 2.04,1.012 0.54,0.261 1.02,1.015 1.64,0.688 0.45,-0.237 1.12,-0.925 1.68,-0.807 -0.12,0.884 -1.74,1.279 -1.04,2.308 0.13,0.186 1.48,2.115 1.83,1.163 0.56,-1.479 0,-6.612 -2.81,-4.694 -0.31,-0.609 0,-1.016 -0.13,-1.61 -0.19,-0.752 -1.27,-1.835 -1.92,-2.207 -1.71,-0.986 1.9,-1.95 2.84,-1.44 -0.16,-1.06 -1.88,-1.486 -2.75,-1.565 -1.47,-0.136 -1.72,-1.385 -2.94,-1.603 -0.31,1.002 1.57,2.461 0,3.024 -1.15,0.412 -1.48,-2.342 -1.99,-3.2 -1.03,-1.75 -5.36,-3.313 -5.28,-0.04 -0.17,-0.298 -0.36,-0.586 -0.57,-0.864 -0.97,0.9 1.01,1.464 0.45,2.095 -0.94,1.068 -2.86,-0.383 -3.55,-1.086 -0.61,-0.631 -3.26,-5.141 -1.3,-5.257 -1.77,-1.237 -3.61,-4.797 -2.8,-6.84 0.55,-1.393 -0.15,-2.662 0.35,-3.888 0.62,-1.518 2.65,-1.619 3.68,-2.736 -0.12,0.409 -0.24,0.817 -0.36,1.225 0.87,-0.986 0.59,-2.143 1,-3.311 0.61,-1.78 1.43,-3.69 1.09,-5.617 -1,0.473 -0.54,-0.909 -0.87,-1.369 -0.9,-1.271 -1.94,-1.312 -2.49,-3.061 -0.57,-1.795 -0.52,-3.185 0.23,-4.872 0.39,-0.875 -0.75,-3.274 -1.54,-1.997 -0.31,0.507 -0.36,1.625 -1.22,1.469 -0.52,-0.1 -1.65,-0.693 -2.11,-0.106 -0.28,-0.601 -0.85,-1.025 -1.4,-1.362 -1.09,-0.675 -2.5,-1.688 -3.8,-1.26 -0.55,0.185 -1.16,-0.118 -1.71,-0.167 -0.52,-0.05 -0.12,0.701 -0.61,0.701 -1.38,0 -0.51,0.765 -0.54,1.584 -0.1,1.464 -0.51,3.266 -0.72,4.752 -0.38,2.704 1.66,5.093 1.09,7.969 -0.45,2.332 0.51,4.072 0.82,6.243 0.39,2.691 -3.71,-0.898 -4,-2.044 -0.91,0.455 -0.82,1.436 -0.5,2.233"></path>
		<path id="path5826" d="m 2213.82,531.05 c 0.33,0.49 0.78,0.802 1.36,0.936 0.21,-0.815 -0.69,-1.375 -1.36,-0.936"></path>
		<path id="path5830" d="m 2214.39,535.52 c 0.26,-0.02 0.52,-0.05 0.79,-0.07 -0.41,-0.183 -0.6,-0.319 -0.79,0.07"></path>
		<path id="path5834" d="m 2216.84,522.56 c 0.23,-0.352 0.37,-0.735 0.43,-1.152 -0.47,0.261 -0.62,0.645 -0.43,1.152"></path>
		<path id="path5836" d="m 2218.35,535.73 c 0.48,-0.356 0.7,-0.935 0.51,-1.512 -0.45,0.413 -0.62,0.917 -0.51,1.512"></path>
		<path id="path5842" d="m 2223.03,568.78 c 0.23,0.884 0.69,2.579 1.66,2.951 0.42,-1.08 0.12,-4.529 -1.66,-2.951"></path>
		<path id="path5844" d="m 2226.78,577.42 c -0.22,-0.876 -1.38,-1.484 -2.16,-1.729 0.49,0.82 1.38,1.24 2.16,1.729"></path>
		<path id="path5846" d="m 2224.62,582.25 c 0,1.616 2.49,2.827 2.56,0.517 0,-1.176 -2.18,-1.815 -2.56,-0.517"></path>
		<path id="path5848" d="m 2226.56,571.23 c 0.21,-0.694 0,-0.886 -0.72,-0.576 0.24,0.192 0.48,0.383 0.72,0.576"></path>
		<path id="path5850" d="m 2226.49,596.72 c 2.33,0.414 1.77,2.229 1.73,4.019 0,1.298 0.18,2.221 -0.17,3.52 -0.36,1.354 0.43,2.644 0,3.981 1.34,0.284 2.19,-2.016 3.65,-2.016 0.96,0 2.73,-1.387 2.45,-2.333 -0.24,-0.828 2.8,-1.137 2.39,-2.317 -0.55,-1.565 0.57,-3.722 -1.94,-1.901 0.61,-0.673 -0.31,-1.585 -1.05,-1.421 -0.68,0.152 -1.13,1.013 -1.71,0.39 -0.67,-0.704 -1.14,-1.509 -2.05,-1.938 -0.86,-0.403 -1.96,-0.573 -2.53,-1.423 -0.38,0.409 -0.62,0.889 -0.72,1.439"></path>
		<path id="path5852" d="m 2227.06,590.38 c -0.1,1.3 -0.64,2.405 0.36,3.527 0.17,-1.48 0.29,-2.963 0.6,-4.41 0.18,-0.818 -1.67,-0.3 -0.96,0.883"></path>
		<path id="path5854" d="m 2227.14,571.59 c 0.24,-0.02 0.48,-0.05 0.72,-0.07 -0.25,-0.04 -0.49,-0.02 -0.72,0.07"></path>
		<path id="path5856" d="m 2229.01,590.38 c 0.62,0.09 0.55,-0.146 -0.22,-0.72 0.1,0.241 0.15,0.48 0.22,0.72"></path>
		<path id="Philippines_Mindanao" d="m 2230.09,636.68 c -0.37,2.035 2.42,2.893 2.63,0.514 0.1,-0.866 0.45,-3.26 1.11,-3.524 0.53,-0.209 0.91,-3.364 2.11,-2.436 0.87,0.668 0.51,2.104 1.2,2.854 0.19,-1.267 0.64,-0.651 1.01,0 0.28,-0.781 0,-1.861 1.01,-2.232 0.43,0.52 0.35,1.147 -0.15,1.584 0.99,0.04 1.61,1.261 2.6,1.08 -0.3,-0.436 -0.67,-1.028 -0.65,-1.584 0,-0.316 0.71,-0.28 0.79,-0.576 0.22,-0.779 -0.65,-0.597 0.36,-1.353 0.61,-0.464 1.22,0.352 1.69,0.645 1.59,0.996 3.02,1.271 3.56,3.377 0.28,1.145 -1.27,2.217 -1.39,3.44 -0.12,1.224 0.54,2.908 0.8,4.116 0.39,1.863 2.02,2.981 3.61,3.797 0.73,0.375 3.33,2.062 4.12,1.366 0.63,-0.557 0.29,-1.873 1.49,-1.811 0.11,0 -0.24,5.561 1.46,4.389 1.18,-0.814 2.21,-3.612 2.03,-4.976 -0.26,-1.918 -1.72,-2.722 -2.46,-4.27 -0.45,-0.935 1.82,-6.168 2.63,-5.78 0.63,0.298 2,3.261 2.28,3.982 0.26,0.702 0.11,1.435 0.17,2.161 0.1,1.06 0.95,1.767 1.11,2.796 0,-1.672 0.75,-3.84 -0.51,-5.256 0.62,-0.29 1.12,0.08 1.37,0.648 -1.07,-0.95 0.51,-1.902 1.03,-2.614 1.01,-1.375 0.3,-3.385 0,-4.856 -0.22,-1.208 -1.8,-1.213 -1.17,-2.525 0.36,-0.76 0.39,-2.717 -0.97,-2.101 2.31,-1.986 -1.93,-2.633 -1.87,-3.673 0,-0.608 1.21,-0.891 1.44,-1.488 0.42,-1.069 -0.77,-1.498 -1.08,-2.327 -0.15,-0.391 0.28,-2.259 -0.44,-1.885 -0.92,0.471 -1.09,0.138 -1.58,-0.569 -0.58,-0.838 0,-1.321 -1.27,-1.712 -1.41,-0.431 -1.67,-1.705 -2.9,-2.242 -0.75,1.625 0.56,3.763 1.05,5.298 0.11,0.351 0.63,1.645 0,1.83 -0.84,0.24 -1.98,0.03 -2.34,-0.864 -0.68,2.121 0,2.292 -1.94,0.91 -1.88,-1.3 -0.25,3.828 -1.8,4.041 -0.99,0.137 -1.19,-1.064 -2.11,-0.651 -0.95,0.431 -0.69,2.183 -0.99,3 -0.36,0.982 -1.79,0.544 -2.5,1.124 -0.42,0.337 -1.13,1.134 -1.7,1.159 -0.59,0.03 0.73,-0.916 0.61,-0.836 0.75,-0.496 0.9,-0.772 0.71,-1.718 -0.14,-0.734 -1.15,-4.267 -2.37,-2.562 -0.19,-0.589 -0.55,-1.337 -1.3,-1.297 0.42,1.981 -2.06,1.221 -2.64,2.297 -0.69,1.27 -0.1,2.438 -1.68,2.959 -1.6,0.527 -3.97,0.07 -4.73,2.096 -0.32,0.87 -0.12,1.879 -0.22,2.783 -0.13,1.196 -0.75,2.391 -1.24,3.472"></path>
		<path id="path5864" d="m 2230.95,590.38 c -0.26,0.164 -0.5,0.356 -0.72,0.576 0.61,0.487 1.24,0.959 1.8,1.512 0.67,-0.944 0.1,-2.094 -1.08,-2.088"></path>
		<path id="path5866" d="m 2233.90,616.95 c 0.68,0.493 1.67,0.479 2.24,1.151 0.48,0.567 0.23,1.471 0.8,1.982 0.79,0.705 1.84,-0.137 2.23,-0.838 0.74,-1.305 -0.62,-2.194 -0.96,-3.334 -0.65,-2.099 0.16,-5.19 0.82,-7.236 0.5,-1.558 2.16,-3.65 0,-4.791 -0.71,-0.376 -1.63,-0.495 -2.39,-0.155 -1.29,0.585 -0.75,1.712 -1.07,2.779 -0.21,0.688 -0.89,0.91 -0.64,1.729 0.28,0.91 0.67,1.904 0.31,2.857 -0.55,1.436 -3.2,0.518 -3.16,2.121 0,1.343 1.08,2.689 1.83,3.735"></path>
		<path id="path5868" d="m 2232.82,608.53 c 0.64,-0.292 2.16,-2.283 0.79,-2.618 -1.03,-0.253 -1.29,2.082 -0.79,2.618"></path>
		<path id="path5870" d="m 2237.14,588.73 c -0.83,-1.34 -1.78,-3.163 -3.31,-3.816 -0.75,1.266 2.74,2.988 3.31,3.816"></path>
		<path id="path5872" d="m 2236.35,594.70 c 0,0.264 -0.1,0.527 -0.1,0.791 1.01,-0.693 1.77,-3.42 2.99,-1.995 0.5,0.578 1.05,1.114 1.49,1.737 0.56,0.789 1.71,0.83 2.29,1.626 1.11,-2.146 -1.82,-3.451 -2.81,-4.625 -0.44,-0.523 -1.12,-1.101 -1.64,-1.519 -0.31,-0.251 -2.02,-1.063 -2.39,-1.055 0.26,0.687 0,2.505 0.35,2.909 0.74,0.998 -0.14,1.049 -0.21,2.131"></path>
		<path id="path5876" d="m 2239.59,590.38 c 0.27,0.527 0.63,0.983 1.08,1.368 -0.15,-0.972 -0.42,-2.162 -1.37,-2.664 -0.22,0.503 -0.12,0.935 0.29,1.296"></path>
		<path id="path5878" d="m 2239.74,612.05 c 0.1,1.506 -0.37,2.977 -0.51,4.464 2.06,0.544 1.62,-4.352 2.45,-5.322 1.03,-1.203 2.12,-2.178 2.3,-3.852 0.21,-1.993 -0.42,-3.956 -0.36,-5.946 -1,0.205 -1.28,3.326 -1.45,4.085 -0.51,2.302 -1.96,4.264 -2.43,6.571"></path>
		<path id="path5880" d="m 2241.61,584.19 c 0.12,-0.492 -0.12,-0.589 -0.72,-0.288 0.24,0.1 0.48,0.192 0.72,0.288"></path>
		<path id="path5884" d="m 2242.69,581.60 c 1.81,-1.271 1.54,-4.132 -0.87,-4.608 -0.71,1.478 -0.23,3.594 0.87,4.608"></path>
		<path id="path5886" d="m 2243.12,584.62 c -0.23,-0.193 -0.49,-0.241 -0.79,-0.145 0.26,0.05 0.53,0.1 0.79,0.145"></path>
		<path id="path5890" d="m 2243.33,614.50 c -0.16,2.803 4.84,-0.383 5.48,-0.145 -0.4,-1.444 -0.45,-4.291 -3.04,-3.583 -0.91,0.248 -3.69,2.932 -2.44,3.728"></path>
		<path id="path5894" d="m 2244.27,590.38 c 0.57,1.532 1.22,2.841 2.52,3.888 0.72,0.583 2.93,2.916 3.82,2.521 -0.31,0.713 -0.27,1.659 -1.16,1.943 0.44,0.363 0.8,0.795 1.08,1.296 -0.77,-0.844 -1.21,0.229 -1.84,0.593 -0.97,0.563 -2.49,-1 -2.91,-1.744 -0.72,0.887 0.64,5.152 1.73,5.615 -0.19,-1.934 2.08,0.562 2.13,1.548 0.13,2.513 -0.32,4.446 2.34,5.652 -0.12,-0.759 -0.51,-1.451 -0.51,-2.231 0.42,0.469 1.89,0.508 2.03,-0.29 0.1,-0.443 -1,-2.532 -1.27,-2.979 -0.62,-1.03 -0.8,-0.895 -0.9,-2.274 -0.1,-0.893 0.13,-2.297 -0.65,-2.952 0.6,-0.155 2.29,1.494 2.3,1.476 0.66,-0.774 3.14,0.212 3.82,0.612 -0.55,-0.639 -0.92,-1.537 -1.8,-1.8 1.13,-0.867 -1.14,-3.423 -1.24,-4.453 -0.11,-1.085 0.37,-2.05 -0.22,-2.974 -0.38,-0.59 1.05,-0.418 -0.1,-1.109 -0.62,-0.375 -1.42,-0.1 -1.36,-1.081 0.1,-1.262 -1.02,-1.306 -1.92,-1.504 -0.98,-0.214 -1.3,-0.23 -2.32,0.101 -1.19,0.378 -2.49,-0.673 -3.57,0.146"></path>
		<path id="path5896" d="m 2246.79,599.38 c 1.27,0.186 0.34,-2.777 -1.22,-1.872 0.34,0.653 0.52,1.476 1.22,1.872"></path>
		<path id="path5904" d="m 2253.34,612.05 c 0.27,0.234 0.54,0.474 0.8,0.72 -0.15,-0.683 -0.48,-1.826 -1.44,-1.512 0.19,0.284 0.4,0.548 0.64,0.792"></path>
		<path id="path5906" d="m 2256.22,612.05 c 0.57,0.399 0.64,1.009 0.15,1.512 1.07,0.158 0.82,-1.373 0.7,-1.963 -0.14,-0.618 -0.53,-1.164 -0.63,-1.781 -0.1,-0.562 0.28,-1.014 0.1,-1.584 -1.42,0.606 -0.29,1.812 -1.08,2.736 0.57,0.09 0.95,0.471 0.79,1.08"></path>
		<path id="path5912" d="m 2259.32,615.87 c 0.49,-0.511 0.15,-1.194 -0.36,-1.513 -0.1,0.553 0,1.057 0.36,1.513"></path>
		<path id="path5914" d="m 2259.75,612.05 c -0.36,0.484 -0.67,2.522 0.47,2.26 1.17,-0.266 0.3,-2.116 -0.47,-2.26"></path>
		<path id="path5920" d="m 2246.22,607.01 c 0,-0.264 -0.1,-0.528 -0.15,-0.792 0.81,0.12 0.87,0.384 0.15,0.792"></path>
		<path id="path5924" d="m 2250.53,600.03 c 0.12,0.3 0.18,0.611 0.15,0.937 -0.15,-0.297 -0.2,-0.609 -0.15,-0.937"></path>
		<path id="path5936" d="m 2240.38,603.13 c -0.53,-2.814 3.3,-1.367 0,0"></path>
	</g></svg>
