<svg xmlns="http://www.w3.org/2000/svg" viewBox="1398.59 213.35 76.92 76.92"><path id="pl" d="m 1403.89,243.846 c 0,-1.717 2.51,-2.166 1.57,-4.167 -0.33,-0.693 -1.09,-1.726 -0.8,-2.564 0.13,-0.388 1.47,0.108 1.75,0.107 -0.14,-0.566 0,-1.07 0.36,-1.512 -0.1,0.119 -0.15,0.239 -0.22,0.36 -0.44,-0.375 -0.94,-0.591 -1.51,-0.648 0.3,0.764 -0.88,0.331 -0.94,-0.36 1.66,0.623 4.31,-0.813 5.82,-1.418 1.8,-0.727 6.2,-0.529 7.33,-2.034 1.39,-1.838 4.65,-2.685 6.84,-3.262 2.73,-0.722 6.49,-1.302 8.81,0.666 -0.63,-0.431 -1.37,-0.872 -2.16,-0.576 0.95,0.893 1.19,2.609 2.57,3.009 1.67,0.481 3.9,-0.241 5.5,-0.705 -0.7,0.424 -1.56,0.535 -2.25,1 -0.99,0.67 1.11,0.286 1.49,0.09 2.57,-1.315 4.83,-0.258 7.89,-0.301 4.04,-0.06 9.73,0.941 13.74,0.35 3,-0.44 3.71,0.963 4.46,3.706 0.77,2.82 4.24,6.134 3.24,9.234 -0.5,1.569 -2.48,1.006 -3.31,2.209 -0.84,1.204 -1.56,2.116 0.47,2.492 3.25,0.602 0.54,3.785 1.51,5.54 1.01,1.847 1.37,4.061 4.15,5.412 -0.4,0.204 -0.81,0.396 -1.22,0.576 1.23,1.088 1.55,2.323 -0.2,2.973 -1.77,0.653 -3.35,2.363 -4.56,3.747 -1.04,1.195 -3.27,2.751 -2.58,4.598 0.29,0.773 0.2,1.594 0.49,2.361 0.23,0.609 0.92,0.4 0.8,1.225 -1.2,-0.845 -3,-0.83 -4.36,-1.313 -1.34,-0.476 -1.99,-1.5 -3.37,-1.868 -1.35,-0.363 -2.86,-0.575 -4.19,-0.02 -1.71,0.715 -1.91,0.06 -3.57,-0.14 -1.28,-0.157 -1.75,0.09 -2.68,0.885 -0.41,0.342 -0.93,0.779 -1.49,0.826 -0.95,0.08 -0.64,-0.931 -1.01,-1.392 -0.4,-0.496 -1.32,-0.907 -1.83,-1.519 -0.82,-0.986 -2.82,1.178 -3.71,1.303 0.23,-0.774 -3.08,-4.249 -4.19,-4.553 -1.24,-0.34 -1.85,-0.853 -3.06,-0.468 -1.27,0.401 -1.39,-1.718 -1.25,-2.468 -2.02,0.607 -3.75,-0.809 -5.61,-1.296 0,0.613 0.32,1.117 0.79,1.512 -0.78,0.522 -2.2,1.949 -3.08,0.729 -0.71,-0.997 -1.14,-1.663 -2.39,-2.097 0.33,-0.286 1.57,-0.948 1.3,-1.537 -0.35,-0.771 -2.09,-0.443 -2.53,0.02 -0.1,-1.972 -3.69,-0.558 -4.45,-1.698 -0.72,-1.085 0,-0.904 -1.63,-1.564 -1.25,-0.509 -0.23,1.414 -1.84,1.102 1.12,-2.794 1.86,-3.69 -0.28,-5.146 -0.93,-0.627 -0.2,-1.332 -0.92,-1.976 -0.95,-0.839 0.1,-1.231 0.26,-2.126 0.1,-0.55 -0.12,-1.542 -0.19,-2.101 -0.1,-0.563 -1.23,-0.422 -1.01,-1.362 0.15,-0.616 0.92,-1.227 0.1,-1.729 -1.01,-0.604 -1.97,-1.309 -2.83,-2.118" fill="#2B1D24">
		
	</path></svg>
