<svg xmlns="http://www.w3.org/2000/svg" viewBox="1398.6 213.3 76.9 76.9"><path fill="#2b1d24" d="M1403.9 243.8c0-1.7 2.5-2.1 1.6-4.1-.4-.7-1.1-1.7-.8-2.6 0-.4 1.4.1 1.7.1q-.2-.7.4-1.5l-.2.4q-.7-.6-1.6-.7c.3.8-.8.4-.9-.3 1.7.6 4.3-.9 5.8-1.5 1.8-.7 6.2-.5 7.3-2 1.4-1.8 4.7-2.7 6.9-3.3 2.7-.7 6.5-1.3 8.8.7-.6-.4-1.4-.9-2.2-.6 1 1 1.2 2.6 2.6 3 1.7.5 4-.2 5.5-.7l-2.2 1c-1 .7 1 .3 1.4.1 2.6-1.3 4.9-.2 8-.3 4 0 9.7 1 13.7.4 3-.5 3.7 1 4.4 3.7s4.3 6.1 3.3 9.2c-.5 1.6-2.5 1-3.3 2.2-.9 1.2-1.6 2.1.4 2.5 3.3.6.6 3.8 1.5 5.6s1.4 4 4.2 5.4l-1.2.5c1.2 1.1 1.5 2.4-.2 3a13 13 0 0 0-4.6 3.8c-1 1.2-3.3 2.7-2.6 4.6l.5 2.3c.2 1.2 1 .4.8 1.3-1.2-.9-3-.9-4.3-1.4-1.4-.4-2-1.5-3.4-1.8a7 7 0 0 0-4.2 0c-1.7.7-1.9 0-3.6-.2-1.2-.1-1.7.1-2.6.9q-.7.6-1.5.8c-1 .1-.7-1-1-1.4-.4-.5-1.4-.9-1.9-1.5-.8-1-2.8 1.2-3.7 1.3.2-.8-3-4.2-4.2-4.5-1.2-.4-1.8-.9-3-.5-1.3.4-1.4-1.7-1.3-2.5-2 .6-3.7-.8-5.6-1.3q0 .9.8 1.5c-.8.6-2.2 2-3 .8-.8-1-1.2-1.7-2.5-2.1.4-.3 1.6-1 1.3-1.6s-2-.4-2.5 0c-.1-2-3.7-.5-4.4-1.6s0-1-1.7-1.6c-1.2-.5-.2 1.4-1.8 1.1 1.1-2.8 1.8-3.7-.3-5.1-1-.7-.2-1.4-1-2-.9-.9.2-1.3.3-2.1.1-.6 0-1.6-.2-2.2 0-.5-1.2-.4-1-1.3.2-.6 1-1.2.1-1.7q-1.5-1-2.8-2.2"/></svg>
