<svg xmlns="http://www.w3.org/2000/svg" viewBox="1225.55 330.59 51.36 51.36"><g id="pt" fill="#2B1D24">
		
		<path id="Portugal_mainland" d="m 1240.23,358.69 c -0.1,-0.24 -0.15,-0.479 -0.22,-0.72 2.32,-0.176 3.12,-3.942 3.78,-5.654 0.59,-1.502 0.92,-3.165 1.35,-4.725 0.12,-0.422 0.52,-0.494 0.78,-0.787 0.21,-0.245 0.23,-1.84 -0.36,-0.138 0.26,-1.843 0.72,-2.943 0.32,-4.804 -0.13,-0.609 -1.06,-3.809 0.18,-3.837 -1.8,0.548 -0.36,-2.11 0.6,-2.52 1.09,-0.464 2.62,-0.524 3.51,-1.368 -0.11,0.601 0.16,0.949 0.79,0.864 -0.4,0.284 -1.76,2.106 -0.48,2.072 1.05,-0.03 2.14,-0.848 3.18,-0.675 1.37,0.227 1.89,0.771 3.27,0.04 0.45,-1.474 2.52,-0.345 3.75,-0.468 1.43,-0.144 0.62,0.892 0.72,1.664 0.1,0.5 1.76,0.802 2.14,1.149 0.83,0.758 -4.39,4.89 -5.07,5.056 0.59,-0.143 0.33,3.706 0.34,3.989 0,0.531 0.25,1.509 0,2.002 -0.34,0.654 -1.32,0.392 -1.54,1.234 -0.12,0.5 1.66,2.527 0.1,3.049 -0.61,0.198 -0.26,0.985 -0.76,1.282 -0.74,0.432 -2.6,0.268 -3.38,0.05 0.26,0.582 0.81,0.925 1.26,1.343 0.58,0.537 0.1,1.126 0.44,1.815 0.4,0.711 1.96,1.833 1.69,2.673 -0.46,1.442 -2.04,2.167 -2.45,3.626 -0.35,1.282 0.86,3.668 2.45,3.144 -0.69,1.654 -1.82,1.245 -2.65,2.909 -0.41,0.822 -1.2,1.371 -1.58,2.214 -0.52,1.138 0.63,2.26 0,3.4 -0.89,1.713 -3.46,1.917 -4.96,1.304 -1.81,-0.737 -4.22,-0.816 -5.83,0.541 -0.23,-0.739 0.31,-1.731 0.61,-2.371 0.48,-1.025 0.41,-2.336 0.88,-3.236 0.55,-1.063 -0.19,-1.816 -0.13,-2.877 0.1,-1.563 1.05,-2.624 0.1,-4.189 0.52,1.648 1.14,-0.159 1.01,-0.791 -0.32,0.764 -2.71,1.008 -3.53,1.296 0.41,-0.696 0.15,-1.491 0.36,-2.232 0.29,0.113 0.57,0.233 0.86,0.36 0.1,-0.554 0.49,-0.66 0.88,-0.911 0.56,-0.365 -0.1,-1.334 -0.1,-1.825 -0.51,0.675 -2.23,3.119 -3.29,2.317 -1.36,-1.025 0.98,-3.972 0.99,-5.268"></path>
		<path id="path3614" d="m 1102.78,365.45 c -0.61,0.122 -1.89,-0.749 -0.76,-1.028 0.71,-0.174 1.27,0.371 0.76,1.028"></path>
		<path id="path3616" d="m 1105.37,366.61 c -0.62,-0.36 -1.38,-0.309 -1.94,-0.792 0.59,-1.591 2.72,-0.03 3.46,0.576 -0.52,-0.04 -1.03,0.03 -1.52,0.216"></path>
		<path id="path3620" d="m 1108.69,365.17 c -1,-0.25 -2.5,-0.505 -2.95,-1.584 1.08,0.289 2.17,0.741 2.95,1.584"></path>
		<path id="path3622" d="m 1113.58,364.45 c -0.74,-0.126 -2.4,-0.979 -0.86,-1.512 1.07,-0.368 2.3,0.992 0.86,1.512"></path>
		<path id="path3624" d="m 1124.46,372.37 c -0.72,-0.105 -3.45,-0.514 -2.17,-1.729 1.17,1.363 3.07,0.213 4.54,0.576 0,1.095 -1.65,1.113 -2.37,1.153"></path>
		<path id="path3626" d="m 1126.69,379.06 c -0.37,-0.169 -0.68,-0.409 -0.94,-0.72 0.59,-0.157 0.96,0.09 0.94,0.72"></path>
		<path id="Portugal_Madeira" d="m 1180.97,416.14 c -0.73,-0.146 -1.31,-0.52 -1.82,-1.037 -0.42,-0.41 0.35,-1.032 0.78,-0.581 0.56,0.589 1.36,-0.358 2,0.365 0.71,0.796 -0.14,1.45 -0.96,1.253"></path>
	</g></svg>
