<svg xmlns="http://www.w3.org/2000/svg" viewBox="824.3 859.5 83.5 83.5"><path fill="#2b1d24" d="M833.8 891q1-4.4 1.4-8.8.2-2.4-.1-4.7c-.1-1.6.7-3 1.3-4.3 1-1.9.4-4.6 3.3-5q4.6-.6 9-2a14 14 0 0 1 12.5 1.2c1.7 1 4 2.3 4.2 4.5.1 1.3 1.1 5.4 2.5 5.8-.9 1.1.6 1.5.8 2.3.2.6 0 2.5 0 3.1l-.4 1.5c.1.7.6 1.3.4 2q-.7 1.5-.7 2.8c0 .5 5.4 2 6.2 2 1.1 0 2.5.5 3.6.5 1 0 1-2.5 2-1.7 1.1.7 2.8 1.6 4.1 1.8 1 .1 1.1.4 1.3 1.4.2 1.1 1 2 1.1 3.3.2 1.7 1.7 2.5 1.9 4.2s.6 5.6 3.2 5.4c1.4-.2 2.4-1.2 3.7-1.5 1.3-.2 2.2 1.3 3.1 1.9q-.8.7-.3 1.5c.6 1.1-.3 1.7 0 2.8s-.4 3.2-.6 4.3a18 18 0 0 0-.4 4.4l1 7c.2.6-.4 2.2-1.2 2.4-.4 0-1.6 1.7-1.4 2.2.1.4-1.7.7-2 .8q-.8.4-1 1.2c.3.6-.9 3.2-1.8 2.4-2-1.7-3-.2-4 1.6-.5-.2-1.2-1.2-1.9-1.1-.8.2-1 1-1.8-.1-.5-.7-1.2.3-2 .3q-1.2 0-2.3-.4c-2.3-.6-4.6-1.5-7-1.3-1.2.2-2 1-2.4-.4 0-.3.8-2.8 1.1-3 2.5-1.6 0-5.9 2.3-7 1-.5 1-3 1.7-4.2 1-2-.2-2.9-1.8-4.1-1.3-1-3.3-1-4.4-2a5 5 0 0 0-2.4-.9q-1.5-.5-2.8-1.4a39 39 0 0 1-5.3-3.7c-2-1.5-3.8-1.2-6-2-1.4-.6-3.3-.8-4.5-2.1-1.8-1.9-4.7-3.6-6-4.8a15 15 0 0 1-3.5-4.3c-.7-2-2.5-2.2-3.7-3.8"/></svg>
