<svg xmlns="http://www.w3.org/2000/svg" viewBox="824.26 859.55 83.48 83.48"><path id="py" d="m 833.786,890.979 c 0.699,-2.861 1.094,-5.846 1.435,-8.769 0.188,-1.619 -0.05,-3.119 -0.154,-4.726 -0.104,-1.555 0.739,-2.905 1.375,-4.263 0.897,-1.917 0.407,-4.666 3.304,-5.028 3.035,-0.38 6.107,-1.078 9.029,-1.982 4.753,-1.47 8.102,-1.191 12.401,1.205 1.71,0.953 4.111,2.277 4.244,4.494 0.08,1.33 1.106,5.402 2.497,5.83 -0.893,1.058 0.548,1.442 0.79,2.229 0.183,0.598 0,2.485 -0.1,3.166 -0.158,0.478 -0.248,0.968 -0.271,1.471 0.08,0.666 0.561,1.324 0.335,2.019 -0.268,0.828 -0.731,1.894 -0.639,2.753 0.05,0.51 5.361,2.064 6.138,2.079 1.141,0.02 2.502,0.491 3.614,0.436 1.076,-0.06 0.983,-2.51 2.059,-1.743 1.054,0.75 2.793,1.633 4.096,1.813 0.972,0.134 1.084,0.41 1.27,1.475 0.189,1.086 0.961,2.014 1.115,3.296 0.198,1.644 1.654,2.508 1.844,4.143 0.216,1.865 0.667,5.648 3.219,5.4 1.421,-0.138 2.383,-1.204 3.739,-1.467 1.255,-0.244 2.208,1.259 3.1,1.87 -0.553,0.4 -0.606,0.943 -0.313,1.518 0.573,1.125 -0.363,1.736 -0.07,2.814 0.311,1.132 -0.368,3.143 -0.574,4.248 -0.198,1.066 -0.509,3.312 -0.343,4.424 l 1.038,6.977 c 0.09,0.626 -0.415,2.245 -1.279,2.409 -0.424,0.08 -1.608,1.778 -1.431,2.186 0.179,0.413 -1.698,0.719 -1.929,0.836 -0.458,0.232 -1.12,0.735 -0.979,1.183 0.205,0.648 -0.951,3.26 -1.888,2.448 -1.957,-1.699 -3.023,-0.266 -3.896,1.556 -0.569,-0.217 -1.303,-1.207 -1.929,-1.078 -0.828,0.17 -0.988,0.909 -1.787,-0.113 -0.56,-0.717 -1.273,0.309 -2.043,0.332 -0.738,0.02 -1.606,-0.251 -2.302,-0.438 -2.333,-0.627 -4.606,-1.496 -7.074,-1.244 -1.169,0.12 -1.877,0.94 -2.284,-0.47 -0.08,-0.268 0.801,-2.791 1.064,-2.964 2.49,-1.64 -0.06,-5.86 2.286,-7.014 1.088,-0.535 1.067,-3.058 1.663,-4.158 1.067,-1.966 -0.147,-2.912 -1.799,-4.162 -1.291,-0.976 -3.216,-0.952 -4.355,-1.911 -0.676,-0.57 -1.537,-0.775 -2.383,-0.937 -1.039,-0.198 -1.969,-0.889 -2.849,-1.394 -1.97,-1.13 -3.451,-2.25 -5.255,-3.695 -1.976,-1.582 -3.806,-1.213 -6.022,-2.099 -1.374,-0.549 -3.27,-0.763 -4.517,-2.059 -1.805,-1.877 -4.64,-3.6 -5.924,-4.754 -1.542,-1.388 -3.185,-3.177 -3.589,-4.325 -0.681,-1.932 -2.496,-2.202 -3.68,-3.817" fill="#2B1D24">
		
	</path></svg>
