<svg xmlns="http://www.w3.org/2000/svg" viewBox="1441.5 264.2 75.2 75.2"><path fill="#2b1d24" d="M1446.7 300.4q1.1-.7 2.2-.3c.8.2.8-.8 1.4-1 .7-.3 1.4 0 2.1-.3 1-.3.8-1.5 1.3-2.3l1.5-2c.7-.8.6-1.5 1.1-2.3a9 9 0 0 0 1.4-2.3c.3-1 0-1.4.6-1.7q.9-.5 1.4-1.2c.7-1 2-.3 2.9-1l2-2c1-.7 2.3.2 3.4.4l3.1.5c1.3 0 2.9-.5 4 .3 2.2 1.4 2.4 2.2 4.4.3 1.3-1.2 3.9-.6 5.5-.9 1-.2.8-1 1.4-1.6.7-.7 2-.7 2.8-.6 2 .2 3.1 2.3 4 3.8q1.4 2.6 3.6 4.7c2 2 3 3.4 3.8 6.1.3 1-.2 2-.5 3s.2 2.2.3 3.3c.2 1.8.6 2.5 2 3.5.6.4 1.9 1.4 2.7.9 1-.5 5.6-3.1 6.2-.4.9 3.5-1 4.8-4.2 4.7.4-.3.8-2.2 0-2.2-1 0-.5 2.4-1.3 3l1.5-.3c-.7.3-2 .4-1.2 1.4l.8-.7c-.4 1.1-1.6 1.7-1.8 3-.2 1.2.8 3.3 0 4.5-.6-.5-1.6 0-2.1-.2s-1.8-1.3-2.5-2c-1-.3-2 .2-3.4-.4-1.1-.6-3-1.3-5.1-.4-4.7.5-5.7 3-7.8 3.6-1.4.3-3.2-.4-5-.6-2.4-.3-3.6.3-4.8.3-1 0-2.4-1-4.2-1.1-1 0-4 .7-4.6-.3-1-1.5 2.8-1.6-.7-2.8-.8-.3-1.1-.3-2.2-1.9-1-1.3 1.3-1 1.8-1.2-.6-.7-1.7-1.4-2.6-1-.6.1-.7 1.7-1.5 1.5-.7-.1-1.7-1.3-2.6-1.6q-1.7-.2-3-1.3c.9-.2 1-1.3 0-1.4 1-1 .5-1.6-.6-2q-2.2-.8-4-2.3c1.1-2.3-2.1-3.7-3.5-5.2"/></svg>
