<svg xmlns="http://www.w3.org/2000/svg" viewBox="1441.53 264.24 75.19 75.19"><path id="ro" d="m 1446.73,300.366 c 0.78,-0.536 1.38,-0.491 2.17,-0.287 0.76,0.198 0.81,-0.793 1.43,-1.009 0.68,-0.237 1.41,-0.06 2.09,-0.279 0.99,-0.31 0.8,-1.505 1.27,-2.245 0.44,-0.704 1.03,-1.295 1.53,-1.958 0.64,-0.853 0.56,-1.616 1.13,-2.387 0.51,-0.68 1.09,-1.479 1.37,-2.292 0.32,-0.946 -0.1,-1.386 0.62,-1.744 0.66,-0.353 0.86,-0.592 1.32,-1.179 0.72,-0.918 2.03,-0.264 2.9,-0.987 0.71,-0.597 1.2,-1.435 1.99,-1.949 1.08,-0.712 2.31,0.188 3.42,0.333 1.06,0.138 2.1,0.36 3.16,0.468 1.27,0.129 2.87,-0.43 4.01,0.306 2.16,1.394 2.36,2.235 4.37,0.317 1.26,-1.201 3.88,-0.59 5.47,-0.857 1.05,-0.176 0.86,-0.938 1.46,-1.601 0.65,-0.714 1.89,-0.76 2.78,-0.659 1.98,0.225 3.11,2.312 3.94,3.889 0.92,1.748 2.22,3.272 3.63,4.625 2.06,1.978 3.02,3.436 3.85,6.155 0.3,0.995 -0.29,2.004 -0.52,2.944 -0.25,1.081 0.22,2.229 0.31,3.32 0.13,1.813 0.57,2.551 2,3.56 0.55,0.387 1.86,1.332 2.69,0.855 0.91,-0.529 5.58,-3.111 6.22,-0.391 0.83,3.453 -1.02,4.742 -4.21,4.716 0.39,-0.314 0.73,-2.209 -0.1,-2.181 -0.99,0.03 -0.46,2.319 -1.19,2.901 0.47,-0.111 0.95,-0.183 1.44,-0.216 -0.73,0.316 -2.02,0.413 -1.15,1.367 0.26,-0.222 0.5,-0.462 0.72,-0.72 -0.31,1.139 -1.53,1.764 -1.73,2.952 -0.22,1.267 0.74,3.342 -0.1,4.525 -0.48,-0.408 -1.55,0.04 -2.03,-0.207 -0.38,-0.198 -1.77,-1.215 -2.52,-1.899 -1.02,-0.316 -1.99,0.17 -3.36,-0.488 -1.11,-0.531 -3.01,-1.224 -5.14,-0.363 -4.67,0.46 -5.68,3.087 -7.82,3.572 -1.31,0.298 -3.13,-0.342 -5.03,-0.585 -2.28,-0.293 -3.5,0.354 -4.76,0.324 -1.05,-0.02 -2.34,-1.088 -4.18,-1.16 -0.94,-0.04 -3.96,0.759 -4.6,-0.261 -0.94,-1.495 2.81,-1.559 -0.64,-2.806 -0.85,-0.308 -1.14,-0.26 -2.27,-1.845 -0.98,-1.379 1.32,-1.04 1.8,-1.275 -0.54,-0.664 -1.69,-1.369 -2.56,-1.059 -0.6,0.213 -0.76,1.796 -1.47,1.641 -0.72,-0.155 -1.75,-1.342 -2.67,-1.606 -1,-0.287 -2.16,-0.548 -2.92,-1.331 0.83,-0.243 1.03,-1.313 0,-1.439 0.96,-0.901 0.44,-1.529 -0.69,-1.926 -1.53,-0.535 -2.69,-1.432 -4.01,-2.322 1.18,-2.338 -2.09,-3.755 -3.43,-5.257" fill="#2B1D24">
		
	</path></svg>
