<svg xmlns="http://www.w3.org/2000/svg" viewBox="1430.3 296.7 43.2 43.2"><g fill="#2b1d24"><path d="M1442.9 299.8c-1.2-.5-2.2 1.3-2.6 1.5-.7.3-2 0-3.4.5.4 1 .7 1.6 1 2.7q0 .8 1 .9c-2 1.3 1.7 2.2 2.3 2.8-.1-.1-2 .4-2.3.5.6 1.2 0 1.8-.2 2.2q1.5-.7 2-.1c.4 1 .6 1-1.1 3.5-.5.8 1.2 2 2.7 3.1 1.6 1.5-1.1.8-1.6 1.1-.2.1 2.3 3 1.8 3.2q-2.2.9-4 .8c.6 0 1.8 1.4 3.7 3 .6.4.7 1 2 1.4 1.1.6 3 0 3.4 1.3l-1.4.9c.2 0 1 1.4.7 1.6 2 .6-.4 1.8 3 2.4 1 .2 1 4.8 1.1 3.7 1.5-1.3 1.3-3.5 4.7-2.3 0-1 1.2-.9 1.8-1.3.7.7 1.4-.7 2.5-.4.7.2 5.1-.3 4-2q-1-1.5-.2-2.6c.5-.6 1.2 0 1.8-.7l1.4-2.3c-1-.3-2.3-1.6-3-2.3-2.5-2.3-1.3-4.1 0-6.4-.2-.3-2-2-1.3-2.4s1.3-.2 1.8-.5c-.5-.6-2-1.5-2.8-.9-.2.3-1 1.6-1.3 1.6s-1-1-1.5-1.3l-3-1.2-1-.5c.9-.4 1.3-1.2 0-1.4 1.4-1.3.3-1.6-1-2-1.1-.5-2.7-1.6-3.8-2.3 1.4-2.6-1.4-2.6-1.8-4.4-.3-1.6-3.7-1.6-5.5-1.4z"/><path d="M1446.4 329c.3-.3 1.2-.9 1.6-.7 0-.7.1.1.4-.3.4-.8 1-.7 1.5-.9q1.4-.5.5-2 .7-.1 1.4-.6c.3 2 5.2 1.2 4.8 3.2-.2 1 1.8 1.3 2 2.1.3 1.2-2 2.4-1 3.4-.9.4-2 .4-1.8 1.4-1.2-.2-1-.8-2.7-.1-1.4.5-1.3 2.2-2 2.4-.5-.2.1-2.4-.9-3.2-.2-.8-1-.5-2-1.2-.5-1 0-1.4-1.1-1.7-.2-.5-1.2-1.5-.7-1.9"/></g></svg>
