<svg xmlns="http://www.w3.org/2000/svg" viewBox="1545.9 396 185.6 185.6"><g fill="#2b1d24"><path d="M1624.7 556.6c0-1-.5-3-1.3-3.6-.4-.3-2.5-4.5-2.3-2.5-.2-3.6-2.8-4.6-4.8-7-.7-1-1.8-2.3-2.2-3.5-.4-1.5-1.3-1.9-2-3-.5-.8-.1-1.4-.6-2.1-.4-.5-1-2.2-1.2-2.8l-.7-2c-.2-.5-.8-.5-1-1-.3-.5 0-1.1-.4-1.5l-1.4-.8-3-2.9c-1-1.2-2.2-.7-3.4-1.6-2-1.4-3.3-4-4.5-6.2-.7-1.1-.5-1.8-.6-3.1s-1-2.5-1.1-3.9c-.1-1.8.6-3.6.2-5.4q-.3-1.2-1-2.2c-.2-.4-1.7-2.2 0-1-.4-.9-1.2-.9-1.4-1.9q-.3-1.4-1-2.7-1.7-3.3-4.6-5.6c-1.2-1.2-2.5-1.4-4.1-1.8-.7-.2-1-1.5-1.2-2q-.7-1.6-2-3c2.6-1-1-5-1.8-6-.5-.7-2-2-2-2.9 0-1.5-1.9-2.4-2.5-3.8-2-4.2-5.2-7.6-7.5-11.8-.7-1.2-1.4-3.1-3-3.6-.6-.1-3.3-.6-3.3.7-1-.9.5-3 .8-3.9.5-1.8 0-3.7.4-5.5.3-2.3 0-.8.3-2.2 1.7.5 6.5 1.8 8.2 1.4 3.4-.8 3.4-5.7 6.6-6.2 1.2-.2 4.1 0 4-1.5-.3-3.7 1.3-2.6 3.5-3.4q-4.4-4.2-8.3-8.7c5.2-1.1 8.6-2.3 14.7-5.6 2.6.5 7.2.8 10 2.1 9.6 4.5 17.5 11.2 25.8 17.5q2.7 2 5 4.2c2 1.6 3.3 1.6 5.7 1.8l8.7 1c1 0 1.5-.5 2.7-.3q2.2.6 4.6.7c1.7.1 1.8 2 2.3 3.3.8 1.8 3.4.6 5 .8 1.5.1 1.7 1 2.2 2.2.5 1.4 3.2 3.1 2.8 4.6l-.5-.6c-.5 1 .6 1 .5 2 0 0 4.6.4 2.9 1.7.7.2 2 3.7 2.8 1.8-.5 1.7 3.7 3.6 4.7 4.7q-.9-.3-1.2-1c0 2 1.2 2 1.6 3.5.2 1 .1 2.8-1.2 1.7.1 1-.2 1.2.7 1.4a14 14 0 0 1 1.5 3l-.8-.8c.8 1.2 2.2 1.9 2.9 3.1.6 1.4.8 2.6 1.5 3.8.6 1 1.5 2.7 2.7 3 .6.1 2.6-.4 2.3.7q.4-1 1.2-.4c-.7.8-1.3 3 1 2.5l1.3 2.8c2.7 3 6.3 8.3 7.7 8.9 8.8 1 12.8 1.5 17.6 2.5q1-.2 1.3-1c1.1 2.5 3.5 3.8 4 5.4a7 7 0 0 1-.2 4c-1.2 4.9-2 13.8-3.8 14.8-12.5 6.8-28.1 9.1-43 11.6q-2.8 1-5.5 2.5a18 18 0 0 0-6 9c-.5 1.2-2 2.6-3.3 2.6-1.5 0-1.8-2.4-3-2.8-1.3-.5-2.3.2-3.5 0-1.8-.1-4.2.2-5.8-.7-2-1-3.4-.5-5.5-.5-2 0-4 1.1-5.8 1.1-2.4 0-2.7-1.8-4-1.5-1.5.5-2 2.6-2 4-.2 1.3 1.5 2 0 3-.2.2-.5 2.1-2.5 2.8zm-4.9-1.3q0-1.4-1-2 0 .4-.2.7c-.9 0-1.2-1-2-1.2.7 1.3 2.8 1.3 3.2 2.4m-2.4-3.8q.8.3.3.5zm.3.6q.3.4.2 1l-.7-.4z"/><path d="M1669 462.3q.6-.7 1.3 0z"/></g></svg>
