<svg xmlns="http://www.w3.org/2000/svg" viewBox="1545.87 395.96 185.6 185.6"><g id="sa" fill="#2B1D24">
		
		<path id="Saudi_Arabia_mainland" d="m 1624.65,556.58 c 0.1,-0.908 -0.46,-3.06 -1.28,-3.58 -0.41,-0.265 -2.43,-4.499 -2.31,-2.456 -0.19,-3.659 -2.72,-4.6 -4.74,-7.077 -0.77,-0.938 -1.84,-2.292 -2.2,-3.439 -0.46,-1.48 -1.3,-1.902 -2.06,-3.105 -0.44,-0.706 -0.1,-1.322 -0.58,-2.047 -0.36,-0.515 -0.97,-2.154 -1.21,-2.815 -0.23,-0.619 -0.36,-1.273 -0.65,-1.868 -0.27,-0.547 -0.83,-0.624 -1.1,-1.105 -0.25,-0.462 0,-1.092 -0.36,-1.497 -0.35,-0.409 -0.94,-0.466 -1.33,-0.828 -0.98,-0.909 -2.11,-1.828 -2.97,-2.841 -1.05,-1.23 -2.27,-0.715 -3.46,-1.585 -1.95,-1.446 -3.26,-4.131 -4.49,-6.187 -0.72,-1.197 -0.51,-1.882 -0.57,-3.145 -0.1,-1.368 -1.06,-2.5 -1.16,-3.883 -0.13,-1.815 0.62,-3.62 0.26,-5.428 -0.17,-0.824 -0.62,-1.521 -1.06,-2.216 -0.23,-0.366 -1.64,-2.181 0,-0.94 -0.35,-0.912 -1.14,-0.922 -1.35,-1.921 -0.18,-0.893 -0.62,-1.87 -0.97,-2.713 -0.97,-2.335 -2.85,-3.926 -4.62,-5.606 -1.29,-1.224 -2.56,-1.417 -4.14,-1.847 -0.67,-0.183 -0.99,-1.458 -1.18,-2.002 -0.42,-1.166 -1.24,-1.966 -1.97,-2.938 2.53,-0.922 -1,-5.075 -1.82,-6.08 -0.56,-0.675 -2.12,-1.905 -2.05,-2.796 0.11,-1.535 -1.86,-2.422 -2.53,-3.803 -2.02,-4.19 -5.2,-7.671 -7.43,-11.782 -0.68,-1.252 -1.44,-3.183 -2.94,-3.606 -0.69,-0.192 -3.37,-0.638 -3.42,0.621 -0.9,-0.82 0.55,-2.975 0.8,-3.836 0.53,-1.805 0.11,-3.683 0.41,-5.505 0.37,-2.309 0,-0.872 0.33,-2.247 1.73,0.512 6.47,1.785 8.19,1.41 3.41,-0.745 3.36,-5.71 6.57,-6.216 1.2,-0.19 4.15,0.114 4.02,-1.508 -0.29,-3.699 1.32,-2.589 3.56,-3.344 -2.92,-2.8 -5.71,-5.719 -8.38,-8.754 5.19,-1.085 8.64,-2.255 14.76,-5.525 2.59,0.498 7.22,0.78 10.06,2.096 9.55,4.422 17.42,11.182 25.71,17.491 1.76,1.337 3.47,2.664 5.1,4.137 1.87,1.677 3.17,1.593 5.63,1.831 2.83,0.274 5.82,0.675 8.66,0.937 1.04,0.1 1.56,-0.434 2.69,-0.19 1.52,0.329 3.11,0.515 4.66,0.656 1.65,0.148 1.78,2.064 2.31,3.277 0.77,1.802 3.4,0.664 4.89,0.795 1.54,0.136 1.74,0.971 2.25,2.232 0.54,1.365 3.25,3.104 2.83,4.635 -0.14,-0.241 -0.31,-0.457 -0.51,-0.647 -0.46,1.097 0.64,0.972 0.51,1.94 0,0.01 4.63,0.442 2.87,1.797 0.68,0.214 2.11,3.675 2.8,1.725 -0.46,1.736 3.71,3.686 4.67,4.741 -0.51,-0.154 -0.9,-0.466 -1.15,-0.934 0,1.914 1.18,1.942 1.6,3.478 0.24,0.9 0.14,2.799 -1.17,1.624 0.12,1.021 -0.21,1.224 0.72,1.412 0.14,0.03 1.36,2.665 1.44,2.971 -0.27,-0.233 -0.53,-0.473 -0.79,-0.719 0.8,1.169 2.22,1.826 2.85,3.12 0.64,1.308 0.83,2.508 1.6,3.779 0.59,0.978 1.44,2.654 2.67,2.954 0.55,0.137 2.58,-0.393 2.29,0.71 0.21,-0.56 0.7,-0.765 1.22,-0.432 -0.68,0.834 -1.3,3.108 1.01,2.519 -0.15,0.04 1.18,2.637 1.31,2.82 2.66,3.018 6.24,8.327 7.65,8.9 8.77,0.979 12.82,1.455 17.59,2.516 0.62,-0.148 1.16,-0.522 1.36,-0.924 1.07,2.46 3.48,3.747 3.89,5.344 0.37,1.443 0.26,2.401 -0.11,3.885 -1.27,4.968 -1.97,13.916 -3.8,14.905 -12.5,6.732 -28.13,9.087 -42.98,11.547 -1.93,0.682 -3.78,1.553 -5.54,2.57 -2.64,1.53 -5.21,6.125 -6.07,8.868 -0.4,1.268 -1.89,2.656 -3.28,2.662 -1.46,0 -1.73,-2.364 -2.92,-2.764 -1.35,-0.455 -2.34,0.235 -3.51,0.09 -1.8,-0.221 -4.22,0.06 -5.84,-0.772 -1.95,-1.003 -3.38,-0.543 -5.54,-0.539 -1.89,0 -3.89,1.162 -5.77,1.138 -2.34,-0.03 -2.68,-1.809 -3.9,-1.489 -1.63,0.429 -2.06,2.569 -2.15,3.922 -0.1,1.335 1.58,2.112 0.16,3.076 -0.27,0.185 -0.55,2.077 -2.59,2.75 0,-0.18 0.11,-0.228 0.1,-0.403"></path>
		<path id="path3380" d="m 1619.82,555.25 c 0,-0.811 -0.38,-1.567 -1.08,-2.017 0,0.265 0,0.529 -0.1,0.792 -0.94,0.04 -1.28,-0.954 -2.08,-1.224 0.78,1.298 2.79,1.272 3.24,2.449"></path>
		<path id="path5480" d="m 1617.37,551.43 c 0.53,0.132 0.65,0.3 0.36,0.504 -0.12,-0.168 -0.24,-0.336 -0.36,-0.504"></path>
		<path id="path5482" d="m 1617.73,551.93 c 0.22,0.31 0.26,0.646 0.14,1.008 -0.27,-0.07 -0.5,-0.193 -0.72,-0.359 0.19,-0.217 0.39,-0.433 0.58,-0.649"></path>
		<path id="path5488" d="m 1668.99,462.29 c 0.35,-0.539 0.91,-0.395 1.3,0 -0.43,0.08 -0.87,0.08 -1.3,0"></path>
	</g></svg>
