<svg xmlns="http://www.w3.org/2000/svg" viewBox="1456.55 485.2 145.81 145.81"><path id="sd" d="m 1489.21,614.522 c 0.31,-0.313 0.36,-0.917 0.63,-1.189 0.43,-0.427 1.06,-0.807 1.49,-1.233 0.67,-0.666 0,-2.09 0.68,-2.761 0.48,-0.481 1.98,0.233 2.55,-0.34 0.39,-0.394 2.69,-1.095 3.06,-0.723 0.5,0.504 0.43,2.178 0.68,2.422 0.21,0.212 0.97,0.08 1.15,0.255 0.32,0.329 0.35,0.957 0.55,1.36 0.13,0.267 0.45,0.581 0.59,0.722 0.51,0.511 0.23,1.889 0.68,2.337 0.3,0.294 1.24,0.737 1.57,0.85 0.88,0.292 4.4,-0.866 4.89,-1.36 0.11,-0.108 0.67,0.07 0.77,0.09 1.39,0.28 3.49,0.303 4.54,0.128 0.53,0.743 0.82,1.839 1.36,2.379 0.59,0.588 4.57,0.224 5.36,-0.17 0.26,-0.133 0.12,-0.757 0.25,-1.02 0.36,-0.71 1.45,-1.637 2.25,-2.039 0.93,-0.463 3.09,-0.07 3.61,-0.595 0.36,-0.36 -0.34,-2.334 0.17,-2.847 0.69,-0.687 1.95,-1.242 2.64,-1.657 1.96,0.463 2.78,1.937 3.99,3.144 0.68,0.677 1.64,0.998 2.21,1.573 0.17,0.164 0.38,-0.249 0.43,-0.298 0.14,-0.144 1.48,-0.04 1.78,-0.04 0.37,0 1.36,0.08 1.62,-0.17 1.31,-1.317 2.37,-3.31 3.78,-4.717 0.65,-0.655 0.73,-2.262 1.36,-2.889 1.16,-1.165 2.85,-2.232 3.35,-3.739 -1.51,-1.184 0.41,-4.61 -0.59,-5.608 -0.13,-0.132 -2.1,-1.85 -2.04,-1.912 0.67,-0.666 4.33,0.392 4.8,-0.553 0.31,-0.616 -0.1,-1.441 0,-1.912 0.39,-0.205 3.99,-0.03 3.99,0 0,0.757 -0.67,3.435 -1.06,4.207 -0.38,0.771 0.83,5.433 1.06,6.373 0.12,0.45 -0.29,2.128 -0.12,2.294 0.35,0.354 1.24,0.512 1.7,0.85 1.8,1.354 2.81,3.958 4.12,5.269 0.42,0.423 0,2.772 -0.77,2.167 0.15,4.269 -0.26,1.443 2.29,2.292 0.1,-0.639 0.2,-1.272 0.4,-1.899 l 0,0 c 0.47,-1.45 1.17,-2.494 1.11,-4.057 -0.1,-1.757 -0.23,-2.949 0.91,-4.387 0.86,-1.091 2.34,-0.179 2.31,1.037 0.61,-0.669 0.89,-1.21 1.36,-2.189 1.19,-2.473 -0.56,-2.439 0,-3.103 1.37,-1.621 0.34,-4.436 1.83,-5.419 1.44,-0.946 2.02,-4.113 2.92,-5.552 0.93,-1.468 2.13,-0.793 3.56,-0.992 0.95,-0.133 0.77,-2.984 0.79,-3.653 0,-1.888 1.15,-3.273 1.53,-5.069 0.55,-2.597 0.14,-5.46 0,-7.278 -0.1,-1.951 -0.7,-4.334 0,-5.659 0.99,-1.857 1.29,-4.379 2.14,-6.667 0.32,-0.89 0.79,-1.866 0.99,-2.795 0.22,-1.012 -0.32,-1.804 -0.13,-2.801 0.18,-1.015 0,-3.099 0.97,-3.65 0.67,-0.4 2.56,0.356 2.82,-0.56 0.5,-1.78 0.24,-1.97 2.2,-2.713 1.09,-0.411 3.56,-1.295 4.15,-2.263 0.46,-0.737 1.6,-2.721 1.87,-3.014 -0.16,-1.348 -2.45,-1.198 -2.51,-2.43 -0.94,0.84 -3.56,-3.539 -4.97,-3.778 -2.43,-0.413 -3.15,-5.119 -3.25,-7.158 -0.15,-2.904 -1.03,-5.522 -0.65,-8.377 0.17,-1.264 -0.26,-2.706 -0.76,-3.852 -0.69,-1.586 0.71,-2.303 1.06,-0.739 -0.1,-2.055 -2.46,-3.349 -3.02,-5.256 -0.69,-2.304 0.3,-3.19 -1.83,-4.673 -1.6,-1.119 -2.62,-3.237 -4.29,-4.111 -1.87,-0.977 -3.38,-1.741 -3.89,-3.96 -0.68,0.682 -2.46,3.372 -3.54,2.808 -1.41,-0.74 -1.86,1.128 -2.16,1.987 -0.59,1.655 -1.08,2.598 -2.88,2.907 -1.79,0.307 -2.25,0.682 -2.62,2.477 -0.82,3.925 -4.65,0.93 -6.51,-0.08 -1.61,-0.878 -4.44,-0.208 -6.2,-0.135 -2.3,0.1 -4.63,0.151 -6.9,-0.241 0.75,-0.694 0.36,-3.145 -0.75,-1.366 -1.1,1.758 -2.53,1.438 -4.38,1.438 -4.74,0 -9.48,0 -14.22,0 -9.66,0 -19.45,-0.09 -29.11,-0.09 0.2,5.758 0.4,11.61 0.5,17.371 -2.5,0 -4.99,0 -7.48,0 l 0.72,37.224 c -1.24,-0.384 -2.53,-0.857 -3.77,-0.212 -1.01,0.534 -1.99,-0.06 -3.03,0.453 -2.42,1.198 0.13,3.012 -1.38,4.94 -1.22,1.544 -1.43,3.224 -3.19,4.157 -1.1,0.586 0,3.331 0.71,3.981 -2.52,2.015 -4.15,2.699 -2.34,6.103 0.68,1.296 -0.17,1.842 -1.23,2.588 -1.13,0.797 -1.33,1.823 -1.83,3.046 0.98,2.646 2.83,0.157 4.48,1.112 0.98,0.568 -0.5,1.501 0,2.266 0.55,0.934 0.84,2.174 0.54,3.243 0.26,-0.131 0.52,-0.251 0.79,-0.36 0.78,1.26 -0.69,2.655 0,3.931 0.63,1.27 2.26,1.44 2.81,2.363 0.81,1.356 -0.89,2.601 -0.29,3.919 0.62,1.365 1.71,2.392 2.75,3.433 1.86,1.863 3.49,4.621 3.5,7.288 0,0.496 0.12,0.982 0.12,1.439 0,0.01 4.46,0 4.46,0 0.51,0.189 0.67,-0.236 1.06,-0.606 0.69,-0.06 0.84,0.899 1.24,-0.419 0.52,-0.321 0.82,-0.382 1.18,-0.877 z" fill="#2B1D24">
		
	</path></svg>
