<svg xmlns="http://www.w3.org/2000/svg" viewBox="1456.5 485.2 145.8 145.8"><path fill="#2b1d24" d="m1489.2 614.5.6-1.2 1.5-1.2c.7-.7 0-2 .7-2.8.5-.4 2 .3 2.6-.3.4-.4 2.7-1.1 3-.7.5.5.5 2.2.7 2.4s1 0 1.2.3c.3.3.3 1 .5 1.3l.6.7c.5.5.2 2 .7 2.4.3.3 1.2.7 1.5.8 1 .3 4.4-.8 5-1.3h.7c1.4.3 3.5.4 4.5.2.6.7.9 1.8 1.4 2.4.6.5 4.6.2 5.4-.2.2-.1 0-.8.2-1a6 6 0 0 1 2.3-2c.9-.5 3-.1 3.6-.7.3-.3-.4-2.3.1-2.8.7-.7 2-1.3 2.7-1.7 2 .5 2.8 2 4 3.2l2.2 1.5c.2.2.4-.2.4-.2.2-.2 1.5 0 1.8 0s1.4 0 1.6-.3c1.3-1.3 2.4-3.3 3.8-4.7.6-.6.7-2.2 1.4-2.9 1.1-1.1 2.8-2.2 3.3-3.7-1.5-1.2.4-4.6-.6-5.6l-2-2c.6-.6 4.3.5 4.8-.5.3-.6-.1-1.4 0-1.9.4-.2 4 0 4 0 0 .8-.7 3.4-1.1 4.2s.8 5.5 1 6.4c.2.4-.2 2.1 0 2.3.3.3 1.2.5 1.6.8 1.8 1.4 2.8 4 4.2 5.3.4.4 0 2.8-.8 2.2.1 4.2-.3 1.4 2.3 2.3q0-1 .4-2c.5-1.4 1.2-2.4 1-4 0-1.8-.1-3 1-4.4.9-1 2.3-.2 2.3 1q.8-.8 1.4-2.1c1.2-2.5-.6-2.5 0-3.1 1.3-1.7.3-4.5 1.8-5.5 1.4-.9 2-4 3-5.5.8-1.5 2-.8 3.5-1 1-.1.7-3 .8-3.7 0-1.8 1.1-3.2 1.5-5 .5-2.6.1-5.5 0-7.3-.1-2-.7-4.3 0-5.7 1-1.8 1.3-4.3 2.1-6.6q.7-1.5 1-2.8c.2-1-.3-1.8-.1-2.8s0-3.1 1-3.7c.6-.4 2.5.4 2.8-.5.5-1.8.2-2 2.2-2.7 1-.5 3.5-1.3 4.1-2.3.5-.7 1.6-2.7 2-3-.3-1.4-2.5-1.2-2.6-2.5-1 .9-3.6-3.5-5-3.7-2.4-.4-3.1-5.1-3.2-7.2-.2-2.9-1-5.5-.7-8.4q.2-2-.7-3.8c-.7-1.6.7-2.3 1-.8 0-2-2.4-3.3-3-5.2-.7-2.3.3-3.2-1.8-4.7-1.6-1.1-2.6-3.2-4.3-4-1.9-1-3.4-1.8-3.9-4-.7.6-2.5 3.3-3.5 2.8-1.5-.8-1.9 1-2.2 2-.6 1.6-1 2.5-2.9 2.8-1.8.4-2.2.7-2.6 2.5-.8 4-4.7 1-6.5 0-1.6-1-4.5-.3-6.2-.2q-3.4.3-7-.2c.8-.7.4-3.2-.7-1.4-1 1.8-2.5 1.4-4.3 1.4H1489l.4 17.3h-7.5l.8 37.2c-1.3-.3-2.6-.8-3.8-.2-1 .6-2 0-3 .5-2.5 1.2.1 3-1.4 5-1.2 1.5-1.4 3.2-3.2 4-1.1.7 0 3.4.7 4-2.5 2-4.1 2.8-2.3 6.2.6 1.3-.2 1.8-1.3 2.6-1 .8-1.3 1.8-1.8 3 1 2.6 2.8.2 4.5 1.1 1 .6-.5 1.5 0 2.3q.9 1.6.5 3.2l.8-.3c.8 1.2-.7 2.6 0 3.9s2.3 1.4 2.8 2.4c.8 1.3-.9 2.6-.3 3.9q1.1 2 2.8 3.4c1.8 1.9 3.5 4.6 3.5 7.3l.1 1.4h4.5q.6.1 1-.6c.7 0 .9 1 1.3-.4q.7-.3 1.1-.9"/></svg>
