<svg xmlns="http://www.w3.org/2000/svg" viewBox="1359.88 108.4 123.22 123.22"><g id="se" fill="#2B1D24">
		
		<path id="Sweden_mainland" d="m 1384.59,193.16 c 1.06,-0.185 1.39,1.806 2.15,1.601 1.2,-0.326 1.52,-3.081 1.11,-3.972 -0.72,-1.588 0.96,-1.944 0.72,-3.296 -0.35,-1.94 3.14,-0.659 3.6,-2.674 0.33,-1.482 0.81,-2.509 -0.17,-3.849 -0.54,-0.74 -1.89,-2.59 -0.4,-3.226 1.5,-0.634 1.97,0.03 2.51,-2.014 0.37,-1.383 -1.22,-1.636 -2.15,-1.981 -1.7,-0.641 -2.16,-1.924 -1.73,-3.503 0.52,-1.891 0.23,-2.883 -0.42,-4.625 -0.25,-0.685 -0.66,-1.759 -0.27,-2.449 0.31,-0.559 0.71,-0.45 0.52,-1.008 -0.24,-0.688 -0.77,-1.09 -0.89,-1.854 -0.14,-0.924 0.72,-1.399 0.69,-2.106 -0.1,-1.301 2.11,-2.434 2.73,-2.939 1.84,-1.49 3.57,-1.281 5.48,-1.007 1.27,0.182 3.52,0.244 3.18,-1.524 -0.35,-1.755 -2.21,-1.932 -2.98,-2.486 0.69,-0.851 1.47,-1.622 2.25,-2.396 0.71,-0.708 1.63,-2.525 2.44,-2.964 1.03,-0.554 0.35,-5.595 0.13,-6.376 1.57,0.06 3.66,-0.06 5.03,-0.93 0.65,-0.415 0,-1.031 0,-1.501 -0.1,-0.514 0.9,-0.701 1.18,-1 1.28,-1.36 2.57,-2.272 3.99,-3.436 1.17,-0.953 -1.07,-2.333 -1.58,-2.78 2.31,-1.06 2.96,-3.275 5.19,-4.32 1.43,-0.67 2.32,-0.486 3.78,-0.157 0.74,0.166 2.38,-0.361 2.28,-1.34 -0.1,-0.653 -0.65,-1.587 -0.37,-2.245 0.35,-0.831 2.97,0.185 3.57,0.07 1.5,-0.291 5.93,1.722 8.16,0.215 -0.49,-0.219 -0.99,-0.387 -1.51,-0.504 1.23,-0.756 2.93,-2.439 0.79,-3.313 3.27,-1.465 6.91,1.786 9.72,3.024 1.91,0.846 4.3,0.866 6.19,1.716 0.62,0.278 3.94,2.28 4.3,3.004 0.3,0.623 -0.6,0.601 -0.74,0.972 -0.1,0.14 0.1,0.324 0.14,2.045 0,0.429 0.83,0.534 1.21,0.635 1.45,0.392 0.41,1.045 -0.1,1.679 -0.55,0.697 1.18,1.784 1.6,2.121 0.95,0.755 0.67,2.238 -0.12,3.12 -1.63,1.804 2.38,3.596 2.89,5.326 -1.61,0.22 -4.41,1.089 -5.79,-0.172 0.23,0.227 0.44,0.467 0.64,0.721 -1.16,0 -2.11,-0.25 -3.09,-0.864 -0.19,1.971 -1.98,-0.9 -2.38,0.495 -0.19,0.663 0.62,1.335 0.72,1.953 -0.73,-0.02 -1.42,-0.282 -2.08,-0.576 0.25,0.157 0.52,0.301 0.79,0.432 -0.52,0.358 -1.07,0.43 -1.66,0.217 2.33,0.688 -1.78,1.021 -2.23,1.08 0.48,0.813 1.66,1.132 0.65,2.447 -0.35,0.455 -2.28,1.807 -2.88,1.512 0.4,0.459 0.91,0.747 1.51,0.864 -2.05,0.431 1.69,1.719 2.09,2.376 -1.41,0.679 -3.39,1.465 -3.95,3.079 -0.33,0.927 -2.88,2.003 -2.68,2.825 -0.15,-0.273 -0.32,-0.537 -0.5,-0.792 -0.37,0.935 -1.66,1.245 -2.53,1.403 -0.93,0.166 -1.22,2.046 -2.08,0.396 0.23,1.214 0,0.559 -0.87,0.588 -0.47,0.02 -0.86,1.102 -1.28,1.394 -1.52,1.055 -3.46,0.922 -5.05,2.123 0.5,0.06 1,0.09 1.51,0.07 0,0.804 -0.64,1.336 -1.4,0.958 -0.41,-0.207 -0.64,0.927 -1.4,0.555 1.83,-0.189 -0.42,-0.362 -0.72,-0.288 0.17,-0.815 -0.87,-1.17 -0.94,-1.944 -0.26,1.155 1.07,1.821 1.24,2.875 0.26,1.627 -1.96,2.74 -3.04,1.445 -0.56,1.288 0.17,2.215 1.51,2.304 -0.88,0.118 -1.34,1.522 -1.51,2.232 -0.26,1.089 1.15,1.647 0.79,2.592 -0.58,-0.584 -1.39,-1.02 -2.23,-0.792 2.73,0.617 -1.55,0.399 0.79,0.864 -2.01,-0.188 -0.63,0.238 -0.1,0.432 -2.1,-0.379 1.23,0.875 -0.79,1.08 1.03,0.358 0.45,1.744 0.52,2.509 0.1,1.127 0.8,1.754 1.35,2.675 -0.26,0.129 -0.53,0.249 -0.79,0.36 0.37,0.219 2.11,0.324 2.25,0.637 0.61,1.348 1.51,0.351 2.5,0.155 -0.55,1.981 2.89,1.699 3.67,2.808 -1.82,0.363 0.64,1.037 1.22,1.152 0.42,0.08 2.63,2.989 0.87,1.584 0.5,0.418 0.92,0.935 1.22,1.512 -1.11,0.04 -1.94,0.647 -2.79,1.285 -0.75,0.566 -2.93,0.895 -1.53,1.379 -0.55,0.146 -1.03,0.03 -1.44,-0.36 -0.12,0.885 2.63,1.412 2.31,0.07 0.5,0.276 1.53,1.954 0.1,1.152 1.9,0.654 -0.79,-0.03 -1.15,-0.143 0.11,0.592 0.56,1.033 1.15,1.15 -0.6,0.318 -1.28,0.365 -1.9,0.596 -0.87,0.321 -0.97,1.19 -1.68,1.632 -0.48,0.296 -0.82,-1.62 -1.6,-1.579 0.46,0.371 0.65,0.851 0.57,1.439 -0.24,-0.168 -0.48,-0.336 -0.72,-0.504 0.22,0.666 0.22,1.152 -0.72,0.721 0.13,0.236 0.25,0.476 0.36,0.72 -0.94,0.521 -1.93,0.462 -2.95,0.359 0.25,0.181 0.49,0.373 0.72,0.576 -1.6,0.85 -3.62,-0.678 -5.11,0.433 1.21,-0.301 2.95,-0.166 3.6,1.08 -0.97,0.531 -1.95,0.05 -2.95,0 1.52,0.53 4.15,2.971 1.51,3.959 0.64,-0.149 0.87,0.188 0.72,0.793 -0.5,-0.277 -1.03,-0.35 -1.59,-0.217 0.34,0.441 2.14,1.448 0.9,1.942 -1.09,0.438 0.95,1.086 0.32,1.912 -1.44,1.892 -0.1,3.864 -1.66,5.837 -1.01,1.272 -1.53,4.954 -3.84,4.262 -1.38,-0.414 -2.82,0.234 -4.22,0.144 -0.78,-0.05 -2.78,-0.22 -1.72,1.096 -1.36,0.53 -2.54,-0.292 -3.33,1.463 -0.46,1.003 0.63,1.78 0.73,2.739 0.18,1.803 -2.3,0.61 -3.03,0.675 -2.3,0.207 -4.17,0.286 -6.47,0.163 0.74,-0.03 1.26,-2.317 0.57,-3.05 -0.77,-0.809 -2.66,-3.002 -2.58,-4.15 2.46,0.862 1.03,0 0.86,-1.368 3.35,-0.554 0.1,-1.666 -0.75,-2.81 -0.79,-1.102 -1.92,-2 -2.42,-3.289 -0.32,-0.825 -0.68,-1.907 -1.8,-1.534 0,-0.551 0.1,-1.123 0,-1.67 -0.21,-0.945 -1.77,-1.074 -0.34,-1.57 -1.38,0.492 0,-3.791 0.1,-4.319 -0.92,-0.193 -1.39,0.838 -2.31,0.72 0.41,-0.485 0.79,-0.989 1.15,-1.512 -1.34,-0.136 -0.27,0.765 -1.51,1.151 -0.13,-0.676 -0.61,-0.828 -1.15,-0.432 0.57,-1.354 -1.52,-5.127 -0.29,-5.972"></path>
		<path id="path3388" d="m 1387.47,199.93 c -0.48,0.24 -0.96,0.48 -1.44,0.72 0.41,0.562 2.04,0.83 2.36,-0.01 0.2,-0.525 -0.45,-1.396 -0.92,-0.706"></path>
		<path id="path3390" d="m 1387.11,201.51 c -0.15,0.24 -0.29,0.479 -0.43,0.72 0.6,0.09 1.12,-0.245 1.37,-0.792 -0.32,0.02 -0.63,0.05 -0.94,0.07"></path>
		<path id="Sweden_Oland" d="m 1417.35,214.54 c 0.12,0.448 0.16,0.904 0.14,1.367 1.21,-0.248 1.72,-2.531 1.99,-3.501 0.52,-1.834 1.41,-3.453 2.12,-5.21 -1.19,-0.03 -1.53,2.157 -2,2.916 -0.86,1.374 -2.65,2.526 -2.25,4.428"></path>
		<path id="path3394" d="m 1427.43,193.73 c -0.24,0.12 -0.48,0.24 -0.72,0.36 0.27,-0.05 0.51,-0.173 0.72,-0.36"></path>
		<path id="Sweden_Gotland" d="m 1429.45,209.93 c -0.3,-0.818 2.48,-3.085 3.09,-3.528 -2.74,-0.263 3.29,-4.536 -1.16,-3.611 -1.25,0.261 -2.41,1.313 -3.24,2.255 -0.73,0.844 -0.41,3.953 0.87,4.165 -0.41,0.453 -0.75,0.957 -1,1.512 0.63,0.131 1.15,-0.257 1.44,-0.793"></path>
		<path id="path3398" d="m 1428.08,182.86 c 0.31,0.343 0.69,0.487 1.15,0.432 -0.33,-0.528 -0.8,-0.968 -1.37,-1.223 0.1,0.263 0.14,0.527 0.22,0.791"></path>
		<path id="path3400" d="m 1429.01,193.16 c -0.17,0.24 -0.33,0.48 -0.5,0.721 0.49,-0.175 0.51,-0.28 0.5,-0.721"></path>
		<path id="path3402" d="m 1429.74,190.21 c 0.24,-0.145 0.47,-0.288 0.71,-0.433 -0.59,-0.233 -0.98,0.02 -1,0.648 0.1,-0.07 0.19,-0.142 0.29,-0.215"></path>
		<path id="path3404" d="m 1433.33,202.73 c 0.54,0.212 1.03,0.116 1.45,-0.287 -0.53,-0.639 -1.17,-0.417 -1.45,0.287"></path>
		<path id="path3408" d="m 1448.31,143.05 c -0.24,-0.02 -0.48,-0.05 -0.72,-0.07 0.46,0.381 0.36,0.235 0.72,0.07"></path>
		<path id="path3454" d="m 1421.09,166.52 c 0.17,0.375 0.41,0.231 0.15,0.792 -0.1,-0.264 -0.1,-0.529 -0.15,-0.792"></path>
	</g></svg>
