<svg xmlns="http://www.w3.org/2000/svg" viewBox="1359.9 108.4 123.2 123.2"><g fill="#2b1d24"><path d="M1384.6 193.2c1-.2 1.4 1.8 2.1 1.6 1.2-.4 1.6-3.1 1.1-4-.7-1.6 1-2 .8-3.3-.4-2 3.1-.7 3.6-2.7.3-1.5.8-2.5-.2-3.8-.5-.8-1.9-2.6-.4-3.3s2 0 2.5-2c.4-1.4-1.2-1.6-2.1-2q-2.5-1-1.8-3.5c.5-1.8.3-2.8-.4-4.6-.2-.7-.7-1.7-.3-2.4s.7-.5.6-1q-.6-.9-1-1.9c0-1 .8-1.4.8-2.1-.1-1.3 2-2.4 2.7-3 1.8-1.4 3.6-1.2 5.5-1 1.2.2 3.5.3 3.1-1.5-.3-1.7-2.2-1.9-3-2.5l2.3-2.3c.7-.8 1.6-2.6 2.5-3 1-.6.3-5.6 0-6.4 1.7 0 3.7 0 5.1-1 .7-.3 0-1 0-1.4 0-.5 1-.7 1.2-1q2-1.9 4-3.5c1.2-1-1-2.3-1.6-2.7 2.3-1.1 3-3.3 5.2-4.4 1.4-.6 2.3-.4 3.8-.1.7.2 2.4-.4 2.3-1.4-.1-.6-.7-1.5-.4-2.2s3 .2 3.6 0c1.5-.2 5.9 1.8 8.1.3l-1.5-.5c1.2-.8 3-2.5.8-3.3 3.3-1.5 7 1.8 9.7 3 2 .8 4.3.9 6.2 1.7.6.3 4 2.3 4.3 3 .3.6-.6.6-.7 1-.1.1 0 .3.1 2 0 .5.8.6 1.2.7 1.5.4.4 1 0 1.6-.6.7 1.1 1.8 1.5 2.2 1 .7.7 2.2-.1 3-1.6 1.9 2.4 3.7 2.9 5.4-1.6.2-4.4 1.1-5.8-.2l.6.8q-1.6 0-3-.9c-.2 2-2-.9-2.4.5-.2.7.6 1.3.7 2q-1 0-2-.6l.7.4q-.7.6-1.7.2c2.4.7-1.7 1-2.2 1.1.5.8 1.7 1.1.7 2.4-.4.5-2.3 1.9-3 1.6q.7.6 1.6.8c-2 .5 1.7 1.7 2 2.4-1.3.7-3.3 1.5-3.9 3-.3 1-2.8 2-2.6 2.9l-.5-.8c-.4 1-1.7 1.3-2.6 1.4-1 .2-1.2 2-2 .4.2 1.2 0 .6-1 .6-.4 0-.8 1.1-1.2 1.4-1.5 1-3.5 1-5 2.1h1.5q-.2 1.5-1.4 1c-.5-.2-.7 1-1.4.6 1.8-.2-.5-.4-.8-.3.2-.8-.8-1.2-1-2-.2 1.2 1.2 1.9 1.3 3 .3 1.6-2 2.7-3 1.4-.6 1.3.2 2.2 1.5 2.3-.9.1-1.3 1.5-1.5 2.2-.3 1.1 1.1 1.7.8 2.6q-1-1-2.2-.8c2.7.6-1.6.4.7.9-2-.2-.6.2 0 .4-2.2-.4 1.2.9-.8 1.1 1 .4.4 1.7.5 2.5 0 1.1.8 1.8 1.3 2.7l-.8.3c.4.3 2.1.4 2.3.7.6 1.3 1.5.3 2.5.1-.6 2 2.9 1.7 3.7 2.8-1.9.4.6 1 1.2 1.2.4 0 2.6 3 .8 1.6q.8.7 1.3 1.5-1.6.1-2.8 1.3c-.8.5-3 .9-1.6 1.4q-.8.2-1.4-.4c-.1.9 2.6 1.4 2.3 0 .5.3 1.5 2 .1 1.2 2 .7-.8 0-1.1-.1q.1 1 1.1 1.1l-1.9.6c-.9.3-1 1.2-1.7 1.6-.5.3-.8-1.6-1.6-1.5q.8.5.6 1.4l-.7-.5c.2.7.2 1.2-.7.7q0 .4.3.7-1.5.7-3 .4l.8.6c-1.6.8-3.6-.7-5.1.4 1.2-.3 3-.2 3.6 1-1 .6-2 .1-3 0 1.5.6 4.2 3 1.5 4q1-.1.8.8-.7-.3-1.6-.2c.3.5 2.1 1.5.9 2-1.1.4 1 1 .3 1.9-1.5 1.9-.1 3.8-1.7 5.8-1 1.3-1.5 5-3.8 4.3-1.4-.4-2.8.2-4.2.1-.8 0-2.8-.2-1.8 1.1-1.3.6-2.5-.3-3.3 1.5-.4 1 .6 1.8.7 2.7.2 1.8-2.3.6-3 .7q-3.2.3-6.5.2c.8 0 1.3-2.4.6-3-.8-.9-2.6-3-2.6-4.2 2.5.8 1 0 .9-1.4 3.3-.6.1-1.7-.8-2.8-.7-1.1-1.9-2-2.4-3.3-.3-.8-.7-2-1.8-1.5V205c-.2-1-1.7-1-.3-1.6-1.4.5 0-3.8 0-4.3-.8-.2-1.3.8-2.2.7l1.1-1.5c-1.3-.1-.2.8-1.5 1.2q-.2-1-1.1-.5c.5-1.3-1.6-5.1-.3-6"/><path d="m1387.5 200-1.5.7c.4.5 2 .8 2.4 0 .2-.6-.5-1.5-1-.8m-.3 1.6-.4.7q1 .1 1.3-.8zm30.3 13v1.4c1.3-.2 1.8-2.5 2-3.5l2.2-5.2c-1.2 0-1.5 2.2-2 3-.9 1.3-2.6 2.4-2.2 4.3m10-20.8-.7.4q.4 0 .7-.4m2.1 16.3c-.3-.9 2.4-3.2 3-3.6-2.7-.3 3.3-4.5-1.1-3.6a7 7 0 0 0-3.3 2.2c-.7.9-.4 4 1 4.2q-.7.8-1 1.5.8.2 1.3-.8m-1.4-27q.6.4 1.2.4-.5-.8-1.3-1.2zm1 10.3-.5.7q.6-.2.5-.7m.7-3 .7-.4q-.9-.4-1 .6z"/><path d="M1433.3 202.7q.8.3 1.5-.3-.9-.8-1.5.3m15-59.7h-.7c.5.4.4.2.7 0m-27.3 23.5c.3.4.5.3.2.8z"/></g></svg>
