<svg xmlns="http://www.w3.org/2000/svg" viewBox="1398.26 287.37 25.24 25.24"><path id="si" d="m 1401,301.582 c -0.13,-0.618 0.46,-1.373 0.87,-1.72 -0.68,-0.151 -1.27,-0.527 -1.87,-0.864 1.51,-1.646 0.79,-2.65 2.67,-2.199 0.7,0.169 4.89,1.645 5.49,1.113 1.19,-1.06 2.26,-2.229 3.99,-2.121 0.91,0.06 2.01,0.507 2.87,-0.02 0.88,-0.536 1.94,-0.584 2.84,-0.02 -0.77,-0.967 0.43,-2.487 1.48,-1.65 0.81,0.651 1.81,2.283 2.42,3.162 -0.81,-0.123 -3.45,-0.799 -2.03,0.864 -0.8,-0.03 -1.25,-0.559 -1.58,0.367 -0.19,0.517 -2.18,0.986 -2.77,1.342 -0.45,0.277 0.39,1.643 0.35,2.233 -0.1,0.921 -2.2,0.99 -3.06,1.745 0.35,0.116 0.65,0.423 1.01,0.504 -0.64,0.131 -0.18,2.439 -1.41,1.648 -1.42,-0.908 -2.79,-0.491 -4.14,-1.792 -0.46,1.104 -2.05,2.049 -3.26,1.504 -0.5,-0.224 -0.49,-0.239 -0.89,0.153 -0.6,0.595 -1.86,0.09 -2.54,-0.07 0.76,-0.667 2.31,-0.919 1.73,-1.944 -0.46,-0.811 -2.54,-0.598 -1.51,-1.943" fill="#2B1D24">
		
	</path></svg>
