<svg xmlns="http://www.w3.org/2000/svg" viewBox="1420.5 257.3 43.2 43.2"><path fill="#2b1d24" d="M1423.5 279.2c.8-2 1.7-1.7 3.6-1.7.7 0 3.8-1.5 3.8-2.2.3-2.5 6.4-4.5 5.8-2.6.8 0 2.4-1.8 3.3-1.5 1.3.5 2.7 1.9 2.4 2.5 1.2.9 1.6.3 2.9-.7.4-.3 1.6-.7 2.3-.5 2.4.9 3.4-.1 5.2 0 2 0 3 0 4.7 1.6.7.6 2.4.8 3 1 .4 0 .3 0-.2 1.5-.5 1.4-1.8 2.7-2 4 0 .2.5.6-.3.5-2.5 1.4-3.9-1.4-4.4-1.2s-.7.4-1.4.3l-2.6-.6c-2-.2-2.5.2-2.7 2.1-.1 1.3-3.2 2-4.3 1.5-2.6-1.4-1.4-.3-2.5.6-1 .9-5.9.4-3.5 2.2-1.6.2-3.2.8-5 .6q-.9.1-2.4-.1l-2.2-1.2c-1.1-.5-2.5-1.4-3-2.5-.3-.5 0-1-.2-1.5-.3-1-.2-1.3-.3-2.1"/></svg>
