<svg xmlns="http://www.w3.org/2000/svg" viewBox="1420.49 257.28 43.24 43.24"><path id="sk" d="m 1423.47,279.198 c 0.78,-2.03 1.76,-1.671 3.63,-1.691 0.72,0 3.75,-1.504 3.83,-2.167 0.31,-2.546 6.35,-4.498 5.79,-2.623 0.79,-0.109 2.43,-1.844 3.28,-1.526 1.34,0.495 2.72,1.911 2.41,2.462 1.15,0.913 1.55,0.342 2.85,-0.613 0.45,-0.329 1.68,-0.732 2.33,-0.498 2.39,0.856 3.37,-0.152 5.18,-0.132 2.04,0.02 3.01,0 4.73,1.645 0.68,0.643 2.41,0.836 2.96,1.039 0.44,0.07 0.36,-0.01 -0.17,1.548 -0.47,1.363 -1.75,2.699 -1.94,3.893 0,0.236 0.48,0.639 -0.31,0.573 -2.57,1.382 -3.92,-1.427 -4.48,-1.253 -0.59,0.183 -0.68,0.481 -1.38,0.346 -0.83,-0.161 -1.77,-0.479 -2.61,-0.563 -1.99,-0.199 -2.44,0.192 -2.64,2.091 -0.13,1.27 -3.22,2.036 -4.28,1.457 -2.6,-1.417 -1.48,-0.286 -2.57,0.654 -0.95,0.827 -5.84,0.322 -3.52,2.156 -1.58,0.193 -3.18,0.755 -4.88,0.636 -0.58,-0.04 -1.62,0.09 -2.45,-0.127 -0.75,-0.194 -1.56,-0.844 -2.27,-1.193 -1.07,-0.532 -2.44,-1.44 -3.03,-2.524 -0.25,-0.46 0,-1.037 -0.17,-1.534 -0.29,-0.927 -0.12,-1.215 -0.29,-2.056" fill="#2B1D24">
		
	</path></svg>
