<svg xmlns="http://www.w3.org/2000/svg" viewBox="1195.5 609.7 31 31"><g fill="#2b1d24"><path d="m1202.5 632.7-.2.5 3 .8c.1-.3.3-.9-.2-1.2-.7-.4-1.8 0-2.6-.1"/><path d="M1199.6 620.4c.6-.5 1.4 0 2-.5s.5-1.5 1.3-1.8c1.4-.4 2.3-3 2.7-4.1.7-2 2.8-.5 4.2-1.5 1.2-.8 4.7-.9 6 0q1.5 1.6 2.5 3.6l1.1 2c.2.6-.4 1.2 0 1.6s1 .3 1 1-.2 1.7.3 2.2c.6.7-1.6 3-1.4 4 .1-.3 1.7-1.1 2.1-1.4 1.5-.9 1.3.4.9 1.5-.4 1.3-2.3 1-2.4 2.8s-.3 1.6-1.3 2.7q-1 1.2-2.6 2.4c-1.5 1.1-2.2 3.9-2.8 3.7a71 71 0 0 1-7.5-4.1c1.6.4.4-.3 0-.6.6-.5 1.5-.5 2.1-1-1.3 0-3.2.3-2.1-1.7-.9 2-2-.2-2.7-.1-.6 0-1-3.5-1-4-1.2.3-2.9-.6-2-2l1.4 1c-1.2-.6.6-1.7 1.3-1.6-.3-.5-.1-.4 0-1-.7 1.3-1.4.7-2.2.2l-.2.8c-1-1.6-.2-2.2 1.2-2.6-.5-.7-1.6-.6-2-1.5"/></g></svg>
