<svg xmlns="http://www.w3.org/2000/svg" viewBox="1195.55 609.73 31.01 31.01"><g id="sl" fill="#2B1D24">
		
		<path id="Sierra_Leone_Sherbro" d="m 1202.52,632.667 c -0.1,0.168 -0.14,0.336 -0.21,0.504 0.97,0.304 1.93,0.721 2.95,0.864 0.17,-0.384 0.3,-0.916 -0.13,-1.191 -0.74,-0.473 -1.8,-0.127 -2.61,-0.177"></path>
		<path id="Sierra_Leone_mainland" d="m 1199.57,620.426 c 0.61,-0.565 1.4,-0.07 2.09,-0.504 0.66,-0.419 0.48,-1.563 1.29,-1.8 1.33,-0.391 2.23,-2.965 2.65,-4.127 0.7,-1.941 2.75,-0.512 4.2,-1.481 1.24,-0.83 4.71,-0.894 5.95,0.02 1.19,0.88 1.77,2.383 2.54,3.602 0.41,0.636 0.85,1.286 1.12,1.995 0.19,0.519 -0.39,1.15 0,1.521 0.45,0.458 0.94,0.352 0.99,1.124 0,0.604 -0.19,1.652 0.27,2.138 0.65,0.683 -1.54,2.894 -1.41,4.063 0.16,-0.362 1.78,-1.212 2.16,-1.44 1.48,-0.89 1.24,0.33 0.88,1.446 -0.41,1.275 -2.28,0.927 -2.45,2.777 -0.16,1.772 -0.22,1.687 -1.2,2.721 -0.78,0.824 -1.54,1.642 -2.65,2.451 -1.5,1.09 -2.17,3.861 -2.83,3.661 -0.7,-0.214 -6.52,-3.345 -7.45,-4.128 1.62,0.461 0.35,-0.306 -0.1,-0.575 0.69,-0.484 1.59,-0.487 2.23,-1.08 -1.34,0.166 -3.28,0.371 -2.16,-1.584 -0.88,2.015 -1.97,-0.25 -2.73,-0.146 -0.53,0.07 -0.99,-3.461 -1.01,-3.887 -1.1,0.256 -2.83,-0.659 -2.02,-2.088 0.47,0.376 0.98,0.712 1.51,1.008 -1.26,-0.633 0.59,-1.711 1.3,-1.656 -0.29,-0.479 -0.16,-0.356 -0.1,-0.936 -0.65,1.307 -1.29,0.636 -2.09,0.144 -0.11,0.259 -0.21,0.522 -0.29,0.792 -0.94,-1.586 -0.16,-2.195 1.22,-2.52 -0.53,-0.702 -1.58,-0.64 -1.94,-1.513"></path>
	</g></svg>
