<svg xmlns="http://www.w3.org/2000/svg" viewBox="1165.2 546.4 53.3 53.3"><path fill="#2b1d24" d="M1170 571q-.6 0-1.1.5c-.2-1.2 2.1-1.6 2.9-2.3q2.3-2.4 3.7-5.6c.4-1 2.5-10 4.7-7.9 1 1 6.2 0 7-1 1.4-1.5 6.5.2 7.5 1.5 1.5 1.8 1.7 2.5 4 2.7 1.4.1 2.8 2.7 2.5 4 0 .5 1.8 1.5 2.1 2.2q.4 1.2 1.2 2.3c.6.6 1.8.7 2.2 1.5.6 1.1 2.3 1.8 2.5 3.1.1.6-1 1.3-.2 2 .5.5 1 .8 1 1.7.1 1 1 3.2.2 3.9q-1.2.3-.2 1.1.2.8.7 1.1c.7.4 0 1.2 1 1.5.5-2 2.2 1.5 2.5 2q.7 1.2.4 2.5c-.3 1 .5 2.5 0 3.4-1.1-.6-2.5.3-3.8 0-1.4-.2-2.2.6-3.5.8s-3.4-2.2-4.5-1.5c-1 .6-.6-1-.8-1-1.2-.4-.8-.6-1.7-.6h-12.7c-1.6 0-2.3 0-3.6 1-1 1-2.6.8-4.2.8-1.4 0-2.4.8-3.7 1q-1-.2-2 .3c0-.4-.8-1-.4-1.5.9-1 1.4-1.5 2.6-.7 1 .6 2-.3 3-.3.7 0 1 .5 1.8.3h1.3c1 .4.9-2 2-2.3-1.6.1-.7 1.4-1.7 2-.8.7-3-.1-3.2-1-.6 2.4-5.4.6-4.3-.6-.5.6-.5 1.7-1.4 2q-.3-1 .5-1.5c-1.3.3-.6-1.7-.3-2.5.4-1.3 1.9-1.4 3-1.4h4.2c.7.4-1-.3.4-1.2 1.2-.7 2.4-.2 3.6-.5 1.2-.4.6-2.2 2.3-1.2 2.3 1.5 4.7 3 7.4 2.1 1.1-.3 2.3-1.3 1-2-1.8-1-2.1.3-3.4.3s-1-2-2.5-1.5c-.6.3-1.1-.6-1.3-1-.4-.7-1.7-.5-2.4 0-1 .7-1.3-.4-1.9.2-.4.4-.2 1-.8 1.3h-7.5q.3-1-1-1.2.2-.9 1-.6a3 3 0 0 1 .2-1.8q-.6 1.4-2 1.6c-.2-.8 2.1-2.8 3-3-1-.3-3.3 1.8-3.3 2.7 0-2.4-1.4-6.7-4-7.6"/></svg>
