<svg xmlns="http://www.w3.org/2000/svg" viewBox="1165.2 546.44 53.26 53.26"><path id="sn" d="m 1170.03,571.086 c -0.44,-0.01 -0.82,0.133 -1.15,0.432 -0.13,-1.227 2.17,-1.612 2.88,-2.319 1.55,-1.543 2.79,-3.616 3.69,-5.587 0.44,-0.944 2.53,-9.94 4.73,-7.875 0.99,0.929 6.24,0 7.09,-0.987 1.3,-1.516 6.4,0.185 7.48,1.472 1.45,1.738 1.64,2.443 4.02,2.686 1.3,0.132 2.74,2.669 2.46,3.924 -0.12,0.581 1.77,1.605 2.1,2.219 0.41,0.767 0.62,1.659 1.22,2.315 0.59,0.643 1.79,0.721 2.18,1.512 0.58,1.156 2.31,1.797 2.47,3.146 0.1,0.604 -0.93,1.312 -0.23,1.931 0.57,0.514 0.98,0.849 1.07,1.732 0.1,0.934 0.91,3.195 0.15,3.901 -0.79,0.172 -0.86,0.556 -0.21,1.153 0.15,0.44 0.41,0.81 0.75,1.108 0.69,0.386 0,1.134 0.99,1.407 0.52,-2.044 2.16,1.506 2.45,2.067 0.42,0.837 0.66,1.468 0.42,2.439 -0.27,1.1 0.46,2.513 0.1,3.413 -1.24,-0.535 -2.6,0.302 -3.91,0.07 -1.38,-0.239 -2.17,0.562 -3.46,0.739 -1.33,0.18 -3.45,-2.172 -4.56,-1.435 -0.87,0.576 -0.55,-1.049 -0.74,-1.104 -1.17,-0.347 -0.78,-0.552 -1.76,-0.554 l -12.65,-0.02 c -1.65,0 -2.34,0.1 -3.59,1.081 -1.09,0.863 -2.59,0.783 -4.22,0.726 -1.41,-0.05 -2.39,0.79 -3.71,1 -0.65,0.106 -1.35,-0.114 -1.93,0.289 -0.13,-0.326 -0.83,-1.034 -0.46,-1.43 0.9,-0.996 1.42,-1.489 2.62,-0.728 0.9,0.575 2.03,-0.317 2.99,-0.336 0.7,-0.01 1.05,0.528 1.77,0.3 0.56,-0.177 0.82,-0.06 1.34,0.109 0.92,0.299 0.85,-2.018 1.89,-2.379 -1.54,0.111 -0.65,1.419 -1.59,2.088 -0.81,0.576 -2.98,-0.192 -3.24,-1.152 -0.56,2.417 -5.39,0.658 -4.32,-0.576 -0.45,0.649 -0.42,1.734 -1.36,1.944 -0.16,-0.593 0,-1.072 0.5,-1.439 -1.29,0.283 -0.57,-1.648 -0.29,-2.509 0.42,-1.289 1.88,-1.367 3.03,-1.37 l 4.12,-0.01 c 0.76,0.423 -0.87,-0.271 0.47,-1.153 1.17,-0.771 2.38,-0.244 3.53,-0.57 1.28,-0.363 0.6,-2.185 2.3,-1.129 2.37,1.477 4.74,3.02 7.49,2.107 1.05,-0.35 2.22,-1.374 0.88,-2.092 -1.68,-0.897 -2.03,0.385 -3.34,0.324 -1.34,-0.06 -0.99,-2.059 -2.53,-1.446 -0.58,0.232 -1.11,-0.574 -1.3,-0.962 -0.39,-0.802 -1.63,-0.523 -2.38,-0.06 -1.07,0.656 -1.3,-0.377 -1.86,0.205 -0.41,0.425 -0.26,0.966 -0.79,1.257 l -7.5,-0.04 c 0.31,-0.618 -0.29,-1.036 -1.04,-1.116 0.12,-0.597 0.51,-0.838 1.08,-0.576 -0.13,-0.614 -0.1,-1.214 0.14,-1.8 -0.44,0.825 -0.97,1.441 -1.94,1.584 -0.26,-0.801 2.07,-2.857 2.88,-2.952 -0.88,-0.373 -3.25,1.759 -3.24,2.592 0,-2.366 -1.45,-6.651 -3.96,-7.565" fill="#2B1D24">
		
	</path></svg>
