<svg xmlns="http://www.w3.org/2000/svg" viewBox="1584.3 585.6 136.9 136.9"><g fill="#2b1d24"><path d="M1613.7 678.5c0-1.4-.4-3.3.2-4.7.6-1.2 1.8-2.2 2.6-3.3 1.6-2.3 3-6.3 5.4-7.8 2.2-1.3 4.7-.4 6.6-2.5a12 12 0 0 1 7.6-4.4c2.5-.3 6.8 1.4 8.5-.8l21.7-25.7c-2.6 0-5.3.5-7.9-.2-3-.7-5.7-2.1-8.5-3.2l-8.7-3.3c-2.7-1-5-1.7-7.2-3.8-.7-.7-.9-1-1.8-1.3s-1.4-1.8-1.8-2.6c-.8-1.3-1.3-2.4-2.4-3.6-1.3-1.5-2.8-3.3-2.3-5.4.7-2.3 2.7-4.4 3.6-6.7 2.4 1.4 3.8 4.6 5.4 6.6 2 2.6 5.2 3.3 8.4 2.3 1.2-.4 2.7-1.5 3.8-2.3 1.8-1.3 2.3-1 4.6-.7s3.4.9 5.5-.5c1.1-.7 3.7-3.2 5-2.7a6 6 0 0 0 4.4 0l3-1c1.2-.3 2 .2 3.2.3 1.8.2 3.3-1 5-1.6 1.6-.7 3.5-.4 5.2-1.2 1.5-.8 1.6-2.6 2.8-3.2s5 .4 4.5 2.1c-.6 2.2-1 3.5-.6 5.8.3 1.7.7 4-.7 5.2q1.6.6 1.5-.8l1.5.6c-.3 1.6-3.8-.6-3.8 2.1q.2 3.4-.5 6.7-.9 2.7-2.7 4.9c-1.2 1.8-1 4.5-2.6 6.3-.5.6-1.3.8-1.8 1.7-.4 1 0 2-.3 2.9-.8 2.1-2.4 3.8-3.4 5.8-1.5 2.7-1.6 5.6-2.7 8.3s-2.9 5.3-4.5 7.8c-1.6 2.4-2.7 5.2-4.5 7.5l-6 7.5a61 61 0 0 1-13.8 12.6q-3.5 2.1-6.5 5-3.5 3.2-6.6 6.7l-5.8 7-2.7 3.6c-.5.7-2.2 3.3-2.5 1.8 0 2.5-1.6 4.9-3.1 6.7.1-2-1.8-3.5-3-5.4-1.6-2.2-1.4-3.7-1.4-6.3z"/><path d="M1666.3 629.3c-2.6 0-5.3.5-7.9-.2-3-.7-5.7-2.1-8.5-3.2l-8.7-3.3c-2.7-1-5-1.7-7.2-3.8-.7-.7-.9-1-1.8-1.3s-1.4-1.8-1.8-2.6c-.8-1.3-1.3-2.4-2.4-3.6-1.3-1.5-2.8-3.3-2.3-5.4.7-2.3 2.7-4.4 3.6-6.7 2.4 1.4 3.8 4.6 5.4 6.6 2 2.6 5.2 3.3 8.4 2.3 1.2-.4 2.7-1.5 3.8-2.3 1.8-1.3 2.3-1 4.6-.7s3.4.9 5.5-.5c1.1-.7 3.7-3.2 5-2.7a6 6 0 0 0 4.4 0l3-1q.6-.3 1-.1v23.5z"/></g></svg>
