<svg xmlns="http://www.w3.org/2000/svg" viewBox="852.17 643.7 41.6 41.6"><path id="sr" d="m 859.776,667.71 c -0.823,-0.489 -2.219,-3.515 -2.208,-4.495 0.01,-1.435 0.173,-5.008 0.175,-6.31 0,-2.445 3.167,-1.77 4.774,-1.774 0.758,0 2.163,-2.066 0.579,-2.524 1.624,-1.947 0.981,-6.227 4.51,-5.739 1.111,0.154 7.061,0.672 6.5,2.625 0.777,-1.534 -0.432,-2.602 2.041,-2.592 0.915,0 3.801,-0.12 3.859,1.297 0.477,-0.603 1.403,-0.265 2.02,-0.289 -0.152,-0.105 -2.143,-0.84 -1.848,-1.042 1.316,-0.901 4.756,0.484 6.177,0.723 2.485,0.417 2.374,2.153 1.291,3.992 -1.183,2.006 -2.811,3.147 -2.716,5.695 0.08,2.228 -0.158,4.881 0.923,6.911 0.858,1.612 2.981,2.971 1.837,5.047 -0.392,0.711 -0.802,1.512 -1.002,2.327 -0.195,0.796 -0.05,1.902 -0.282,2.733 -0.558,2.018 -2.116,4.266 -2.781,4.299 -0.567,0.03 -2.55,-1.416 -2.828,-1.765 -0.967,-1.217 -3.044,0.259 -4.435,0.513 -1.122,0.205 -1.316,0.453 -2.321,-0.1 -1.057,-0.577 -0.976,-0.111 -1.446,0.616 -1.037,1.605 0.372,1.522 0.683,3.29 0.393,2.231 -3.487,0.991 -4.358,0.439 -0.635,-0.402 -1.742,-0.971 -2.274,-1.477 -0.705,-0.671 -0.742,-1.202 -0.733,-1.8 0.02,-1.552 -2.474,-3.583 -2.476,-5.112 0,-0.577 -0.249,-3.568 -0.992,-3.665 -0.531,-0.07 -1.421,0.49 -1.866,-0.07 -0.447,-0.562 -0.452,-1.371 -0.803,-1.76" fill="#2B1D24">
		
	</path></svg>
