<svg xmlns="http://www.w3.org/2000/svg" viewBox="1471.79 574.69 110.83 110.83"><path id="ss" d="m 1485.36,624.71 c 0,0.448 -0.13,0.908 -0.13,1.153 0,1.635 2.14,1.499 3.24,1.672 0.76,0.119 1.61,0.292 2.18,0.854 0.61,0.6 0.85,1.192 1.66,1.707 0.8,0.511 1.23,0.909 1.23,1.626 0,0.657 -1.01,1.373 -0.46,1.989 1.56,1.749 3.53,2.556 5.55,3.716 1.04,0.599 0.74,1.19 1.37,2.057 0.46,0.629 1.6,0.851 1.88,1.574 0.32,0.816 -0.78,1.461 -0.18,2.309 0.33,0.473 1.17,0.836 1.17,1.495 0,1.552 1.64,1.828 2.87,2.718 1.08,0.781 2.78,1.088 2.92,2.671 0.1,1.041 -0.22,2.174 0.52,3.062 0.54,0.646 0.81,1.753 1.52,2.17 0.98,0.58 1.33,0.96 1.5,2.125 0.17,1.223 1.78,1.36 2.38,2.138 0.29,0.38 1.09,0.652 1.5,0.904 1.53,0.966 1.87,0.319 3.31,-0.605 2.18,-1.402 2.49,0.1 4.38,0.254 1.89,0.157 1.35,-3.667 3.62,-1.709 0.75,0.643 0.86,1.474 1.4,2.185 0.5,0.664 0.9,1.535 1.47,2.148 1.25,1.367 4.86,1.869 3.74,4.303 1.01,-0.236 2.15,-0.192 2.3,1.078 0.44,-1.087 1.83,-2.764 3.24,-2.445 0.86,0.194 1.24,1.32 2.23,0.876 0.56,-0.255 1.56,-1.411 2.12,-0.638 0.74,1.026 1.28,1.509 2.62,1.991 -0.86,-2.046 3.55,-1.766 5.54,-2.805 1.11,-0.58 2.31,0.783 3.76,0.803 0.54,0 2.28,-1.272 2.54,-1.584 1.43,-1.689 3.28,-5.248 5.49,-5.581 3.43,-0.519 7.6,-0.2 11.13,-0.392 -0.64,-0.803 -1.3,-1.395 -1.3,-2.498 0,-0.876 0.56,-1.919 0.22,-2.777 -0.29,-0.758 0,-0.462 -0.88,-1.198 -0.89,-0.758 -1.86,-0.944 -2.71,0.149 -0.55,-0.526 -0.3,-1.341 -0.95,-1.705 -0.55,-0.308 -0.74,-1.094 -1.01,-1.618 -0.74,-1.414 -0.79,-3 -1.51,-4.396 -0.6,-1.176 -0.54,-3.091 -1.73,-3.995 -1.1,-0.829 -1.65,-1.697 -2.51,-2.095 -0.71,-0.324 -1.65,-2.577 -2.6,-3.72 -0.85,-1.024 -1.54,-1.877 -2.97,-2.617 -1.29,-0.668 -2.77,-0.385 -4,-1.099 -1.87,-1.089 0.34,-1.869 0.54,-3.011 0.24,-1.408 0,-2.405 1.67,-2.479 1.12,-0.05 2.42,0.418 3.48,0.305 3.46,-0.371 2.06,-4.438 1.88,-6.709 -0.11,-1.215 -0.14,-2.419 0,-3.608 -2.55,-0.852 -2.15,1.974 -2.29,-2.295 0.72,0.605 1.18,-1.744 0.76,-2.167 -1.31,-1.311 -2.32,-3.915 -4.12,-5.269 -0.45,-0.338 -1.35,-0.496 -1.7,-0.85 -0.16,-0.166 0.24,-1.844 0.13,-2.294 -0.24,-0.94 -1.45,-5.602 -1.06,-6.373 0.38,-0.772 1.06,-3.45 1.06,-4.207 0,-0.03 -3.61,-0.205 -4,0 -0.1,0.471 0.31,1.296 0,1.912 -0.47,0.945 -4.13,-0.113 -4.8,0.553 -0.1,0.06 1.91,1.78 2.04,1.912 1,0.998 -0.92,4.424 0.6,5.608 -0.5,1.507 -2.19,2.574 -3.36,3.739 -0.63,0.627 -0.7,2.234 -1.36,2.889 -1.41,1.407 -2.46,3.4 -3.78,4.717 -0.26,0.255 -1.25,0.17 -1.61,0.17 -0.31,0 -1.64,-0.102 -1.79,0.04 0,0.05 -0.26,0.462 -0.42,0.298 -0.58,-0.575 -1.54,-0.896 -2.21,-1.573 -1.21,-1.207 -2.04,-2.681 -4,-3.144 -0.69,0.415 -1.94,0.97 -2.63,1.657 -0.52,0.513 0.19,2.487 -0.17,2.847 -0.53,0.524 -2.69,0.132 -3.61,0.595 -0.81,0.402 -1.9,1.329 -2.26,2.039 -0.13,0.263 0,0.887 -0.25,1.02 -0.79,0.394 -4.77,0.758 -5.35,0.17 -0.54,-0.54 -0.83,-1.636 -1.36,-2.379 -1.06,0.175 -3.15,0.152 -4.55,-0.128 -0.1,-0.02 -0.66,-0.193 -0.76,-0.09 -0.5,0.494 -4.02,1.652 -4.89,1.36 -0.34,-0.113 -1.28,-0.556 -1.57,-0.85 -0.45,-0.448 -0.17,-1.826 -0.68,-2.337 -0.14,-0.141 -0.47,-0.455 -0.6,-0.722 -0.2,-0.403 -0.22,-1.031 -0.55,-1.36 -0.18,-0.178 -0.94,-0.04 -1.15,-0.255 -0.24,-0.244 -0.17,-1.918 -0.68,-2.422 -0.37,-0.372 -2.66,0.329 -3.06,0.723 -0.57,0.573 -2.07,-0.141 -2.55,0.34 -0.68,0.671 0,2.095 -0.68,2.761 -0.42,0.426 -1.06,0.806 -1.48,1.233 -0.28,0.272 -0.33,0.876 -0.64,1.189 -0.29,0.289 -0.44,0.498 -1.18,0.878 -0.45,1.404 -0.65,0.08 -1.24,0.419 -0.15,0.254 -0.59,0.605 -1.06,0.605 l -4.46,0 c -0.1,1.245 -0.37,1.906 -0.79,2.216 -0.61,0.833 -1.23,1.078 -1,2.268 0.27,-0.1 0.53,-0.191 0.79,-0.287 0.21,0.8 -0.23,1.52 -0.5,2.231 1.31,0.239 4.31,-0.149 5.29,0.904 0.29,0.133 0.37,0.47 0.3,0.954 z" fill="#2B1D24">
		
	</path></svg>
