<svg xmlns="http://www.w3.org/2000/svg" viewBox="1558.97 371.02 52.71 52.71"><path id="sy" d="m 1562.79,410.67 c 0.63,-0.795 1.83,-2.448 2.95,-2.664 -1.7,-1.588 0.73,-2.587 2.16,-2.16 -1.26,-1.526 0.61,-1.712 1.05,-3.17 0.24,-0.808 -0.77,-2.443 -1.69,-2.615 -1.06,-0.195 0.95,-1.711 -0.69,-1.252 -2.72,0.765 -2.92,-0.974 -3.05,-2.385 -0.12,-1.283 0.71,-3.625 -0.44,-4.569 -0.92,-0.757 -0.2,-2.77 -0.24,-3.877 0,-0.831 1.52,0.475 1.82,0.622 0,0.11 0.38,-0.738 1.03,-1.134 0.81,-0.49 0.26,-1.591 0.41,-2.356 0.7,0.17 1.45,-0.03 2.16,-0.07 -0.57,-1.157 -0.94,-1.457 -1.1,-2.849 -0.1,-0.507 0,-1.938 0.7,-2.115 0.53,-0.134 1.07,-0.139 1.49,0.09 1.15,0.603 1.38,1.627 2.56,1.443 1.44,-0.225 2.39,-0.396 3.77,-0.99 1.41,-0.609 2.44,-1.455 4.02,-1.228 1.17,0.167 1.86,0.998 2.85,1.461 1.13,0.528 3.33,0.308 4.55,0.203 3.11,-0.268 5.34,-2.047 8.16,-3.174 2.85,-1.14 5.96,0.459 8.89,-0.709 1.49,-0.596 3.68,-2.878 3.9,0.691 0,0.831 -1.98,2.516 -2.56,3.094 -1.06,1.049 -2.24,0.975 -3.43,1.675 -2.56,1.503 0.12,4.757 0.32,6.553 0.12,1.062 -0.52,2.365 -0.6,3.463 -0.11,1.635 0,4.279 0,5.898 0,3.788 -15.97,11.033 -24.06,16.573 -2.2,1.508 -5.77,5.137 -8.64,3.131 -1.04,-0.729 -1.79,-1.29 -2.87,-2.029 -1.86,-1.284 -2.7,-0.323 -3.01,-0.368 -0.1,-0.235 0.67,-4.707 -0.4,-5.177" fill="#2B1D24">
		
	</path></svg>
