<svg xmlns="http://www.w3.org/2000/svg" viewBox="1559 371 52.7 52.7"><path fill="#2b1d24" d="M1562.8 410.7c.6-.8 1.8-2.5 3-2.7-1.8-1.6.7-2.6 2.1-2.2-1.3-1.5.6-1.7 1-3.1.3-.8-.7-2.5-1.6-2.6-1.1-.2 1-1.8-.7-1.3-2.7.8-3-1-3-2.4-.2-1.3.6-3.6-.5-4.5-1-.8-.2-2.8-.3-4 0-.8 1.6.6 1.9.7 0 .1.3-.7 1-1.1.8-.5.2-1.6.4-2.4q1.1.2 2.2 0c-.6-1.2-1-1.5-1.1-3-.1-.4 0-1.8.7-2a2 2 0 0 1 1.5 0c1.1.7 1.3 1.7 2.5 1.5q1.9-.2 3.8-1c1.9-.8 2.4-1.4 4-1.2 1.2.2 1.9 1 2.9 1.5s3.3.3 4.5.2c3.1-.3 5.3-2 8.2-3.2s6 .4 8.9-.7c1.4-.6 3.6-3 3.9.7 0 .8-2 2.5-2.6 3-1 1.1-2.2 1-3.4 1.7-2.6 1.5 0 4.8.3 6.6.1 1-.5 2.3-.6 3.4v6c0 3.7-16 11-24 16.5-2.3 1.5-5.8 5.2-8.7 3.1l-2.9-2c-1.8-1.3-2.7-.3-3-.3-.1-.3.7-4.8-.4-5.2"/></svg>
