<svg xmlns="http://www.w3.org/2000/svg" viewBox="1363.23 485.04 159.4 159.4"><path id="td" d="m 1403.17,573.822 c 0.27,-0.674 0.93,-0.522 1.28,-1.068 0.3,-0.483 0.39,-1.162 0.88,-1.523 0.61,-0.454 0.72,-2.176 0.98,-2.86 1.4,-3.698 4.57,-7.078 7.08,-10.054 2.31,-2.726 4.93,-5.032 5.11,-8.716 0.22,-4.616 0.31,-9.242 0.63,-13.853 0.26,-3.562 0.1,-8.249 1.84,-11.406 1.02,-1.818 0.35,-2.667 -0.88,-4.087 -0.35,-0.403 -0.79,-0.72 -1.15,-1.119 -0.61,-0.69 0.19,-1.309 -0.1,-2.02 -0.64,-1.644 -1.98,-2.917 -2.74,-4.481 -0.65,-1.323 -0.23,-2.931 -0.38,-4.35 -0.24,-2.346 -0.94,-4.61 -1.3,-6.936 0,-0.27 -0.5,-1.228 -0.12,-1.414 l 8.23,-3.907 59.57,33.722 0.61,32.985 c -1.97,-0.611 -2.15,-0.367 -4.21,-0.04 -1.36,0.215 -3.13,0 -3.57,1.277 -0.32,0.932 0.58,2.704 -0.1,3.605 -0.64,0.849 -1.61,3.755 -2.96,4.225 -1.54,0.533 -0.92,3.202 0.18,4.256 -2.49,1.996 -4.11,3.247 -2.18,6.03 1.31,1.882 -1.74,2.678 -2.58,4.261 -0.57,1.087 -0.8,1.463 0.1,2.338 0.74,0.745 2.02,-0.05 2.82,-0.05 1.01,0 1.85,0.476 1.2,1.263 -0.94,1.146 0.97,2.508 0.23,4.517 0.26,-0.131 0.52,-0.251 0.79,-0.36 0.58,0.929 -0.1,1.98 -0.1,2.952 0,1.111 0.14,1.125 0.85,1.896 0.63,0.699 2.16,0.318 2.27,2.219 0,0.846 -0.78,2.382 -0.53,3.346 -0.43,-0.732 -2.51,-1.434 -3.42,-0.959 -0.55,0.281 -1.3,0.52 -1.66,1.05 -0.44,0.652 -0.53,0.238 -1.02,0.785 -0.79,0.877 -2.69,0.66 -2.97,2.032 -0.11,0.565 0.34,1.042 0.16,1.626 -0.61,1.952 -2.37,2.758 -3.79,4.047 -1.13,1.027 -1.7,2.475 -2.72,3.601 -1.79,1.994 -3.04,2.443 -5.58,3.387 -1.44,0.536 -5.04,0.77 -6.56,0.625 -0.52,-0.05 -3.7,0.699 -2.56,1.555 0.49,0.373 1.81,0.623 1.51,1.507 -0.34,1.017 -1.53,2.452 -2.31,3.181 -0.62,0.571 -1.17,2 -1.95,2.192 -1.48,0.367 -3.27,0.08 -4.8,0.22 -2.01,0.179 -3.51,0.678 -5.24,1.745 -0.95,0.586 -2.72,1.1 -3.17,2.232 -0.68,-0.98 -1.63,-1.671 -1.94,-2.88 -0.63,0.227 -0.93,1.056 -1.23,1.584 -0.21,0.374 -1.44,0.475 -1.86,0.658 -2.07,0.909 -2.78,0.748 -4.98,0.781 1.16,-1.456 -0.14,-1.989 -0.55,-3.354 -0.57,-1.855 -1.06,-3.935 -2.29,-5.488 -1.04,-1.324 -2.48,-2.248 -3.77,-3.298 -1.29,-1.045 -2,-2.317 -3.04,-3.557 -0.71,-0.844 -2.5,-2.44 -1.65,-3.666 0.86,-1.242 1.28,-2.124 2.89,-2.049 1.8,0.08 3.57,0.816 5.36,0.208 0.78,-0.267 1.48,0.127 2.18,0.409 0.65,0.26 1.57,-0.34 2.17,-0.517 -3.57,-1.987 -5.24,-6.779 -5.06,-10.691 0,-0.894 0.5,-1.609 0.59,-2.459 0.1,-0.882 -0.13,-1.77 -0.16,-2.65 0,-0.665 0.12,-1.756 -0.27,-2.344 -0.3,-0.462 -1.15,-0.119 -1.1,-0.899 0.1,-1.029 -0.34,-2.412 -0.55,-3.421 -0.15,-0.728 -1.19,-0.84 -1.71,-1.162 -1.66,-1.028 0.45,-2.583 -2.83,-3.075 -0.78,-0.118 -0.55,0.497 -1.4,-0.151 -1.17,-1.384 -2.73,-4.083 -3.14,-4.826 -1.09,-1.998 -0.93,-4.462 -1.36,-6.628" fill="#2B1D24">
		
	</path></svg>
