<svg xmlns="http://www.w3.org/2000/svg" viewBox="1281.8 598.7 50.5 50.5"><path fill="#2b1d24" d="M1299.8 602.2c1.5.4 3 .5 4.4 1.2 1.1.5 3 .2 3.8-.2-.6 1.6-1.9 4.4-.5 6 .7 1 3.5 2 3.6 3.2.2 1.9-.2 4 .7 5.7 1 1.9 1.6 3.1 1.5 5.4l.1 11.7c0 .6.2 2.9-.8 2.8.3 1.2.1 2.5.7 3.5q.8 1.4 1.1 2.7-2.4.4-4.6 1.6c0-.8-1.8-1.7-2.3-2.2-1-1-1.9-1.6-2.6-2.8-.9-1.6.9-3.3.8-5 0-1-1.2-1.2-1-2.3.3-1.3 1-2 .8-3.5q-.2-1 0-2.3c.2-.5.8-.9.7-1.4-.5-1.5-2-2.2-2.5-3.5 1.7-.2.6-2.6 1-3.6q.6-1.1 0-2.2c-.5-1.2-1.3 0-2.2 0 .5-.7 0-1.4 1.1-1.3-.2-1.2.6-3.2.2-4.2-.7-1.7.6-1.9-1.2-2.9-1-.5-2.2-2.3-2.1-3.4.1-.8.9-1.4.6-2.3-.2-.4-1-.4-1.3-.7"/></svg>
