<svg xmlns="http://www.w3.org/2000/svg" viewBox="1281.84 598.71 50.53 50.53"><path id="tg" d="m 1299.78,602.19 c 1.48,0.39 3,0.536 4.41,1.167 1.14,0.512 2.93,0.202 3.78,-0.198 -0.59,1.658 -1.84,4.483 -0.5,6.086 0.75,0.908 3.52,1.936 3.64,3.168 0.18,1.842 -0.23,3.977 0.71,5.659 1.05,1.885 1.56,3.172 1.52,5.41 -0.1,3.896 0,7.77 0.1,11.669 0,0.609 0.2,2.928 -0.88,2.895 0.36,1.128 0.16,2.408 0.7,3.485 0.44,0.877 1.08,1.69 1.17,2.706 -1.59,0.148 -3.17,0.863 -4.61,1.513 0,-0.74 -1.85,-1.67 -2.35,-2.112 -1.05,-0.948 -1.87,-1.597 -2.53,-2.818 -0.91,-1.66 0.85,-3.288 0.8,-4.979 0,-1.127 -1.29,-1.244 -1.06,-2.331 0.27,-1.311 1.01,-2.045 0.84,-3.488 -0.1,-0.764 -0.25,-1.556 0,-2.313 0.15,-0.474 0.82,-0.91 0.66,-1.44 -0.44,-1.483 -1.94,-2.13 -2.47,-3.486 1.67,-0.161 0.56,-2.535 1.06,-3.611 0.28,-0.591 0.34,-1.584 0,-2.179 -0.57,-1.146 -1.42,0.101 -2.25,-0.04 0.46,-0.63 0,-1.389 1.08,-1.225 -0.23,-1.187 0.61,-3.226 0.21,-4.219 -0.69,-1.709 0.54,-1.893 -1.23,-2.895 -0.91,-0.522 -2.2,-2.306 -2.08,-3.398 0.1,-0.858 0.89,-1.396 0.55,-2.323 -0.14,-0.37 -0.97,-0.388 -1.26,-0.701" fill="#2B1D24">
		
	</path></svg>
