<svg xmlns="http://www.w3.org/2000/svg" viewBox="1993.3 511.7 148.1 148.1"><g fill="#2b1d24"><path d="M2034.4 537.8c.4.8 2.3.8 2.9.1s-.7-2.8-.5-3.8c0-.5.5-.9.5-1.5 0-.9-.6-1.4-.4-2.4.2-.6 1.3-2.7 1.7-2.6 1.2.2 2.4.7 3.6.5.6-.2 1.2-.8 1.8-.8s.8.6 1.3-.2-.4-2.2.8-2.5c.8-.2 4 .4 2.3-1.8 1.3 0 4.6-2.3 4.6.4.7-.2.9-1.2 1.7-1l1.8 2.1c.7.8-.3 2-.5 2.8-.3 1.1.4 1.8 1.2 2.5.3.2 1.1 0 1.5.1.6.3.4-.4.9-.6h.6q.7-.3 1.2-.2c1.5.2 1.3 2.7 2.2 5 .3.7-.5 1.6-.2 2.4.4 1.5-.4 1.3-.7 2.3-.2.4.5 1.3.5 2 .2.9.4 1.4.1 2.4-.8 2.4-1.2 4.3 1 4.2.1 0 3.4-3 4-5 1.2.8 1.3-1.2 2.2-1.2.7 0 1.5 1.3 2.1 1.6.5.2 1.5.3 1.8.7 1 1.5 2-.7 3-.4.7 0 1-2.4 1.9-2.5-1.7-1.8 3.5-.8 4-.7 3.1 1 4.3 5.3 7.2 6.8 2.4 1.3 1 6 1.7 8.1.4 1.4.7 1.9 1.6 2.8a11 11 0 0 0 4.3 2.7c-1.6 1.2.7 2 1.5 2.5 1.8 1.3-1.7 3.8.3 3.3-.3.7-1 1.4-.5 2.2.3.5.9.7.8 1.3-.2 1.7.5 3.4-1.2 4.5-1.2.7-1.8 2.2-2.7.6s-3.5 0-4.8-.4q-1.5-.2-2.8.1c-1 .2-1.4-.4-2.3-.5q-1.9 0-3.6.9c-1.8.7-2.2 2.6-2.7 4.1-.2.7-1 1.4-1.6 2q-.9.5-1.6.5c.6 1.5-.1 2.5 1.3 4.6.8 1 1 2.4 2 3.6q1.3 1.4 1 3.5c0 2.2 1.7 3.2 1.5 5 0-1-.7-1.4-1.1-2-.6-1.2-.5-2.5-2-3l.1 1.4c-.4-1-3.6-1.4-1.7-2.7q-.8.3-1-.5c0 1.6-2-.8-2.2-1.6 0 1.4-1-1.4-2.3-.8q-1 .6-2 .7c-1-.2-2-.7-3-.5-1.8.5-.8-1.4-1-2.6v-2c-.2-1 .5-1.6.3-2.5-.8.6-2.9 0-3.2-1 .4 2-5.6.3-4 3.4 1 1.5.4 2.5 0 4-.2 1.8 1 3.4.7 5q-.3 1-1 1.8c-.4.7-.1 1.6-.6 2.3-1 1.2-1 3.2-1.4 4.8-.4 1.8-.6 3.1-1.4 4.8-.3.6.3 2.3-.9 2.1 1.3 1.6 0 4.5.8 6.4.4 1 1 1.5.5 2.4-.5 1 1.4 1.3 2 1 1.9-1 3-1 3.3 1.6.1.9 1.3 7 2.6 5 .8 1.8.9 3.8 1.5 5.6.5 1.6 1.3 3.3 1.3 5-1.2-.2-1.4-5.4-2.7-4.5-1 .6.4 2.7.8 3.2q.7.9 1.5 1.6c.5.4 1.1.3 1.6.7 1 1 1.2 2 3 2 1.2 0 2.6-.4 3.7.4 1.3 1 1.5 2.7 2.7 3.7s2 1.5 1.4 3.2c-.2.8-.7 2.3-1.7 2.5-.7.2-.9-1-1.4-1.3-1.5-.5-2.3 2-3.2 2-1.8 0-1.4-1.7-.8-2.7.7-1-.6-2-1.3-2.3-1.2-.2-.7-1.9-2-2s-2.2-.3-3-1.4c-1.2-1.5-.8 1.1-1.3 1.8 0-2-5.2-4-3.1-6-1.8 1-1-1.7-2-2.2.2 1-.7.8-1.1.2-.5-.9-.4-2.1-1-2.8-.6-.5-1.5.1-1.6-.6s.1-1-.3-1.5c-.6-.9-.6-.8-1.5-1-.5 0-.4-1-.6-1.4-.3-.6-.6-1.6-1.5-1.4s-.6 1.2-.9 1.8c-2.4-.5-2-4-1.6-5.8q.8-5.2 2-10.5c.3-1.4 1.4-3.2 1.4-4.5 0-1.5.6-1.6 1.2-3 .7-1.8 5.3-6.4 3.7-8.4-.6-.8-1.2-3-1.4-4-.4-1.5-1-2-1.7-3.3a11 11 0 0 1-1.3-3.7 8 8 0 0 0-.5-5.3c-1.3-3-4.3-4.9-6.3-7.5a8 8 0 0 1-1.9-3.8c0-.8.2-2.7 1.4-1.6-.3-1 1-.8 1.2-1.6.3-1-.3-3.3-.5-4.4-.2-1.8 1.2-1 1.8-2 .4-.6.4-2-.2-2.5l-.9 1.5c-1.2-1.5-1.5-3.2-2-5-.4-1.1-2-2.3-2.9-3.2-1.2-1.3-2.8-2.7-3.8-4.2-.6-.8-.3-1.6-.6-2.5s-1-1.4-1-2.4c-1.4.5-2-1.5-2.4-2.5"/><path d="M2049.7 627.8q-.5 1.9.2 3.6c1.1-.8 1-3-.2-3.6m1.8.6.6 1.5q0-.9-.6-1.5m4.5 5.6q0-.8-.7-1.5.1.8.8 1.5m4.6 6.6q-.9 1 .3 1.4zm1.2-24.9q-.8.8.1 1.3.8-.7-.1-1.3m-.1-1.8q-.3.7.6.7zm15.9-19.2h.7q0-.8-.8-1.2zm2.3 2.2q-.4.8.3 1.4.2-.8-.3-1.4"/></g></svg>
