<svg xmlns="http://www.w3.org/2000/svg" viewBox="1993.25 511.66 148.09 148.09"><g id="th" fill="#2B1D24">
		
		<path id="Thailand_mainland" d="m 2034.39,537.75 c 0.44,0.857 2.3,0.823 2.91,0.195 0.73,-0.756 -0.72,-2.807 -0.53,-3.796 0.1,-0.551 0.54,-0.931 0.57,-1.512 0,-0.9 -0.69,-1.483 -0.45,-2.442 0.16,-0.611 1.27,-2.68 1.69,-2.604 1.22,0.226 2.41,0.754 3.66,0.48 0.6,-0.129 1.17,-0.808 1.76,-0.795 0.6,0.01 0.84,0.599 1.34,-0.178 0.5,-0.765 -0.43,-2.221 0.75,-2.524 0.85,-0.217 4.07,0.439 2.34,-1.801 1.23,-0.06 4.55,-2.249 4.54,0.433 0.68,-0.188 0.89,-1.157 1.68,-0.92 0.36,0.105 1.55,1.696 1.84,2.021 0.69,0.792 -0.29,1.98 -0.49,2.773 -0.29,1.118 0.39,1.848 1.2,2.511 0.28,0.231 1.14,0 1.45,0.138 0.69,0.321 0.47,-0.472 0.9,-0.594 0.38,-0.104 0.3,-0.02 0.65,-0.122 0.36,-0.106 0.87,-0.197 1.21,-0.15 1.53,0.216 1.29,2.702 2.22,5.005 0.3,0.742 -0.5,1.637 -0.27,2.419 0.46,1.549 -0.34,1.29 -0.71,2.315 -0.15,0.426 0.5,1.338 0.59,1.923 0.14,0.974 0.39,1.516 0.1,2.455 -0.82,2.418 -1.25,4.367 0.96,4.25 0.11,0 3.44,-3.061 3.96,-4.945 1.22,0.731 1.31,-1.256 2.25,-1.274 0.65,-0.01 1.51,1.247 2.1,1.54 0.46,0.23 1.53,0.311 1.81,0.784 0.89,1.494 1.94,-0.698 3.06,-0.474 0.61,0.121 0.83,-2.312 1.8,-2.448 -1.68,-1.856 3.47,-0.828 4.02,-0.673 3.14,0.872 4.25,5.244 7.16,6.768 2.4,1.26 0.98,5.943 1.69,8.092 0.46,1.384 0.71,1.887 1.66,2.783 1.63,1.555 2.51,1.957 4.26,2.758 -1.62,1.109 0.77,1.904 1.53,2.453 1.78,1.281 -1.71,3.79 0.34,3.307 -0.31,0.713 -1.03,1.405 -0.54,2.214 0.28,0.458 0.85,0.663 0.79,1.287 -0.17,1.717 0.51,3.413 -1.2,4.477 -1.15,0.71 -1.77,2.196 -2.65,0.597 -0.92,-1.646 -3.52,-0.02 -4.87,-0.422 -0.93,-0.28 -1.83,0.06 -2.75,0.187 -0.99,0.138 -1.45,-0.471 -2.32,-0.542 -1.2,-0.1 -2.53,0.449 -3.63,0.882 -1.74,0.684 -2.14,2.602 -2.67,4.161 -0.24,0.681 -0.99,1.368 -1.64,1.97 -0.44,0.41 -1.15,0.442 -1.56,0.526 0.6,1.432 -0.1,2.456 1.33,4.544 0.73,1.103 0.93,2.45 1.88,3.57 0.92,1.087 1.24,2.107 1.18,3.53 -0.1,2.267 1.62,3.241 1.44,4.989 0,-0.881 -0.75,-1.361 -1.14,-2.065 -0.59,-1.063 -0.51,-2.399 -1.95,-2.832 0,0.432 0.1,0.863 0.1,1.296 -0.4,-0.955 -3.62,-1.404 -1.73,-2.664 -0.52,0.311 -0.89,-0.02 -1.08,-0.504 0,1.551 -1.84,-0.848 -2.16,-1.584 0,1.364 -1.03,-1.4 -2.31,-0.813 -0.63,0.286 -1.26,0.817 -2.01,0.668 -0.91,-0.183 -1.97,-0.686 -2.92,-0.452 -1.85,0.458 -0.81,-1.462 -0.94,-2.603 -0.1,-0.668 -0.1,-1.345 -0.18,-2.011 -0.13,-0.921 0.55,-1.639 0.37,-2.494 -0.78,0.628 -2.88,0.05 -3.17,-0.936 0.34,1.974 -5.65,0.23 -3.94,3.297 0.86,1.529 0.31,2.501 0,4.099 -0.32,1.696 0.94,3.281 0.62,4.988 -0.12,0.677 -0.63,1.188 -0.97,1.758 -0.41,0.698 -0.15,1.543 -0.63,2.231 -0.9,1.298 -1.04,3.293 -1.37,4.807 -0.4,1.846 -0.67,3.178 -1.44,4.873 -0.28,0.605 0.3,2.268 -0.85,2.099 1.31,1.574 -0.1,4.487 0.75,6.39 0.39,0.905 0.97,1.508 0.52,2.428 -0.51,1.042 1.38,1.274 1.93,0.985 1.92,-1.018 3.1,-1.039 3.39,1.574 0.1,0.862 1.31,7.038 2.56,5.04 0.77,1.756 0.89,3.708 1.47,5.521 0.52,1.621 1.32,3.332 1.34,5.063 -1.19,-0.218 -1.43,-5.458 -2.72,-4.553 -0.93,0.651 0.46,2.702 0.82,3.226 0.44,0.623 0.95,1.103 1.5,1.61 0.46,0.423 1.14,0.262 1.59,0.684 1.04,0.98 1.24,2.003 2.97,2.053 1.26,0.04 2.67,-0.466 3.79,0.385 1.22,0.936 1.48,2.647 2.67,3.639 1.25,1.049 2.06,1.554 1.43,3.216 -0.29,0.762 -0.79,2.31 -1.74,2.511 -0.73,0.155 -0.87,-1.037 -1.43,-1.257 -1.46,-0.578 -2.27,2 -3.2,1.994 -1.8,0 -1.42,-1.766 -0.79,-2.755 0.69,-1.074 -0.54,-2.057 -1.33,-2.251 -1.12,-0.275 -0.61,-1.883 -2.04,-2.075 -1.31,-0.176 -2.08,-0.231 -2.92,-1.333 -1.18,-1.545 -0.76,1.124 -1.27,1.819 -0.11,-2.04 -5.2,-3.954 -3.17,-6.12 -1.71,1.03 -1.03,-1.643 -1.87,-2.159 0.1,1.049 -0.79,0.826 -1.18,0.187 -0.49,-0.825 -0.38,-2.077 -1.09,-2.764 -0.48,-0.455 -1.42,0.138 -1.51,-0.609 -0.1,-0.679 0.1,-0.929 -0.35,-1.496 -0.6,-0.854 -0.53,-0.789 -1.43,-0.96 -0.56,-0.106 -0.45,-1.027 -0.63,-1.414 -0.28,-0.627 -0.61,-1.593 -1.51,-1.368 -0.96,0.24 -0.56,1.117 -0.87,1.801 -2.41,-0.496 -1.92,-4.098 -1.65,-5.836 0.55,-3.5 1.3,-7.056 2.04,-10.523 0.28,-1.346 1.39,-3.134 1.38,-4.458 0,-1.556 0.58,-1.645 1.18,-3.031 0.75,-1.745 5.33,-6.426 3.78,-8.347 -0.67,-0.818 -1.22,-3.044 -1.46,-4.047 -0.36,-1.528 -0.92,-2.047 -1.68,-3.339 -0.43,-0.744 -1.41,-2.831 -1.26,-3.643 0.35,-1.962 0.27,-3.39 -0.53,-5.277 -1.31,-3.071 -4.34,-4.927 -6.31,-7.553 -0.86,-1.151 -1.7,-2.284 -1.88,-3.771 -0.11,-0.836 0.14,-2.758 1.35,-1.664 -0.26,-1.018 0.94,-0.8 1.19,-1.514 0.35,-1.013 -0.29,-3.383 -0.45,-4.471 -0.26,-1.798 1.15,-0.878 1.78,-1.885 0.41,-0.646 0.43,-2.043 -0.21,-2.571 -0.18,0.567 -0.47,1.071 -0.87,1.513 -1.21,-1.503 -1.56,-3.26 -2.08,-5.04 -0.33,-1.133 -2,-2.254 -2.79,-3.136 -1.22,-1.358 -2.83,-2.797 -3.86,-4.278 -0.57,-0.82 -0.3,-1.593 -0.57,-2.479 -0.25,-0.799 -1.09,-1.433 -0.92,-2.347 -1.49,0.437 -2.14,-1.528 -2.45,-2.594"></path>
		<path id="path3902" d="m 2049.66,627.75 c -0.37,1.208 -0.16,2.515 0.28,3.672 1.07,-0.862 0.95,-2.997 -0.28,-3.672"></path>
		<path id="path3904" d="m 2051.45,628.40 c 0.22,0.503 0.47,0.99 0.65,1.512 0,-0.615 -0.18,-1.119 -0.65,-1.512"></path>
		<path id="path3906" d="m 2056.06,634.01 c -0.1,-0.578 -0.32,-1.082 -0.72,-1.512 0.1,0.589 0.3,1.093 0.72,1.512"></path>
		<path id="path3908" d="m 2060.67,640.57 c -0.51,0.51 -0.56,1.265 0.29,1.44 -0.1,-0.481 -0.19,-0.961 -0.29,-1.44"></path>
		<path id="path3910" d="m 2061.90,615.73 c -0.5,0.453 -0.48,0.885 0.1,1.296 0.48,-0.448 0.46,-0.88 -0.1,-1.296"></path>
		<path id="path3912" d="m 2061.75,613.85 c -0.22,0.513 0.19,0.726 0.65,0.72 -0.2,-0.259 -0.41,-0.499 -0.65,-0.72"></path>
		<path id="path3914" d="m 2077.74,594.70 c 0.24,0.02 0.47,0.05 0.71,0.07 0,-0.583 -0.36,-1.047 -0.86,-1.296 0,0.415 0.1,0.823 0.15,1.225"></path>
		<path id="path3916" d="m 2079.97,596.86 c -0.23,0.561 -0.11,1.041 0.36,1.44 0.14,-0.545 0,-1.025 -0.36,-1.44"></path>
	</g></svg>
