<svg xmlns="http://www.w3.org/2000/svg" viewBox="1777.6 328.3 68.2 68.2"><path fill="#2b1d24" d="M1782.4 358.8c.6-1.2 0-3 2-3q2.3.5 4.8.7c1.2 0 1.5-1 1.3-2q-.3-.6.3-.9c1-.3-.1-1.3 1.1-.2q-.8-.6-1-1.5h1c-.4-1-1.7.2-2.5-.7 1.3-1.4 3.3.2 4.9-.4-.8-.6 0-1-.5-1.8-.5-.7-1.2-2.5-.1-3s2 1 3 .7a7 7 0 0 0 3.8-3l2.1 2.2q1.3 1-.5 2c-1.4 1-1 .9.2 1.6.5.4.8 1.2 1.4 1.3.8.2 1.5-.2 2.2-.2-.6.7-2 2.5-3 2.5 1-.9-2.7-2.3-3.6-2.3q-3-.2-3.3 2.6c-1.6-1.7-.8 2.3-.3 3s2-.2 2.6-.2c1.4-.1 2.3.5 3.7-.3l.1.8q1-.6 2.3-.4c.8.2 1 1.1 1.7 1.5 1 .5 3.2-1.1 4.1-1.6 1-.6.8.5 1.2.8l1.4.2.4 1c1.4 1 2.5-.4 4 1.3.2-2.5 4.5-1.5 6.1-1.5.9 0 2.6-1.4 3.2-.7.3.6.1 1.5.6 2.1.5.9 1.6 1.5 1.9 2.2-1.6 0 0 2.3.4 2.8q.8 1 2 .1c1.6-.8 2-.4 2.6-.2 2 .4 3.7.7 3.4 3.3 0 .3.1 1.2.8 1.8s1 1.8 1.2 2.2c.3.7-.1 1.3.2 1.7.5.6 1.1.6 1.5 1.4.3.6 0 1.5-.8 1.7-.1.1-1-.8-1.4-1-.6 0-2.7-.8-3.3-.4-1.2.9-3.2 1.8-4.3 1.3 1.8-2-3-2.2-4-1.2-1 .8-1.8 1.4-2.4 2.7s-2.5.4-3.5 1.4c-6 5.9-6.4-3.3-6.2-7.3.1-2.7-1.4-.5-2.4-1.4-.5-.4-.1-2-.2-2.5-.3-1-2-2-2.8-2-3 .1-3.2 3-4.4 4.3-.7.7.5 1.4.8 2 .7 1.4-.7 1.8-2 1.4q-2-.6-3.2.1c-1 .9-.1 1.5-.1 2.3.1 3-2.5.8-2.7.2-.2-.4-.8-.9-1-.6-.7 1.4-1 .4-1.3.5l-1.2.7c-.6.3-1.6.4-1.7 1.5-1-.2-1.2.8-2.1.2-1.5-1-2.4-3.8-1.4-5.5 1.3-2.2 3.4-4.2.8-6.1-2.1-1.5-.2-5.6-3-5.7-.8 0-2 .2-2.3-.7-.5-1.2-2-.6-2.6-1.8"/></svg>
