<svg xmlns="http://www.w3.org/2000/svg" viewBox="1777.64 328.28 68.24 68.24"><path id="tj" d="m 1782.39,358.758 c 0.59,-1.125 0,-3.01 2.09,-2.88 1.57,0.1 2.99,0.658 4.7,0.596 1.18,-0.04 1.53,-0.975 1.3,-1.952 -0.1,-0.368 -0.14,-0.774 0.32,-0.901 1.09,-0.297 -0.1,-1.328 1.1,-0.264 -0.49,-0.331 -0.85,-0.849 -0.94,-1.439 0.34,0 0.68,0.02 1.01,0.07 -0.5,-1.062 -1.81,0.08 -2.6,-0.771 1.33,-1.4 3.36,0.2 4.89,-0.432 -0.72,-0.571 0,-0.953 -0.51,-1.771 -0.44,-0.706 -1.16,-2.524 -0.1,-3.016 1.17,-0.516 2.11,0.989 2.99,0.751 1.41,-0.383 3.17,-1.77 3.85,-3.042 0.8,0.619 1.34,1.523 2.12,2.166 0.98,0.808 0.56,1.306 -0.48,2.075 -1.41,1.046 -0.99,0.808 0.16,1.591 0.5,0.343 0.82,1.139 1.45,1.296 0.72,0.182 1.48,-0.203 2.19,-0.234 -0.63,0.676 -2.07,2.475 -2.99,2.538 1.03,-0.912 -2.74,-2.303 -3.6,-2.376 -2.06,-0.176 -3.27,0.831 -3.38,2.592 -1.54,-1.629 -0.76,2.304 -0.31,2.96 0.6,0.893 1.96,-0.07 2.69,-0.133 1.32,-0.119 2.29,0.522 3.67,-0.307 0,0.265 0,0.528 0.1,0.792 0.68,-0.261 1.51,-0.609 2.26,-0.397 0.84,0.24 1.02,1.15 1.74,1.495 1.06,0.506 3.2,-1.061 4.11,-1.584 1.03,-0.588 0.76,0.529 1.23,0.833 0.43,0.117 0.87,0.193 1.32,0.229 0.19,0.263 0.33,0.551 0.43,0.863 1.38,1.012 2.53,-0.271 3.96,1.44 0.27,-2.558 4.51,-1.562 6.14,-1.581 0.85,-0.01 2.57,-1.34 3.22,-0.66 0.27,0.572 0.1,1.458 0.53,2.1 0.59,0.869 1.64,1.516 1.92,2.229 -1.61,0.01 0,2.273 0.45,2.768 0.56,0.715 1.09,0.626 2,0.141 1.58,-0.845 1.93,-0.427 2.56,-0.283 1.99,0.446 3.72,0.704 3.39,3.323 0,0.367 0.13,1.255 0.86,1.854 0.81,0.671 1.02,1.785 1.19,2.152 0.31,0.668 -0.17,1.263 0.18,1.694 0.52,0.622 1.12,0.593 1.47,1.399 0.29,0.654 0,1.503 -0.74,1.766 -0.13,0.08 -1.01,-0.842 -1.44,-0.96 -0.58,-0.162 -2.71,-0.916 -3.3,-0.488 -1.21,0.88 -3.15,1.815 -4.32,1.322 1.87,-2.088 -2.88,-2.172 -3.99,-1.268 -1.02,0.822 -1.82,1.431 -2.37,2.712 -0.58,1.363 -2.56,0.435 -3.53,1.406 -5.93,5.903 -6.37,-3.223 -6.19,-7.236 0.12,-2.707 -1.35,-0.498 -2.42,-1.476 -0.43,-0.39 -0.1,-1.929 -0.22,-2.486 -0.24,-0.904 -2.04,-1.952 -2.71,-1.935 -2.98,0.08 -3.25,2.978 -4.44,4.287 -0.67,0.723 0.49,1.416 0.76,1.952 0.7,1.385 -0.68,1.778 -1.94,1.396 -1.22,-0.371 -2.53,-0.403 -3.23,0.159 -1.07,0.866 -0.1,1.467 -0.1,2.282 0.11,3.023 -2.46,0.784 -2.73,0.141 -0.14,-0.348 -0.8,-0.84 -0.95,-0.564 -0.73,1.4 -1.1,0.378 -1.32,0.514 -0.39,0.241 -0.88,0.575 -1.15,0.709 -0.6,0.294 -1.68,0.398 -1.73,1.494 -0.93,-0.215 -1.18,0.827 -2.11,0.186 -1.46,-1.012 -2.36,-3.79 -1.37,-5.505 1.26,-2.175 3.41,-4.21 0.74,-6.097 -2.08,-1.467 -0.15,-5.621 -3,-5.68 -0.82,-0.02 -1.89,0.153 -2.28,-0.745 -0.53,-1.209 -1.99,-0.585 -2.64,-1.811" fill="#2B1D24">
		
	</path></svg>
