<svg xmlns="http://www.w3.org/2000/svg" viewBox="1664.6 299.5 124.6 124.6"><path fill="#2b1d24" d="M1673.2 337.7c3-5.1 8.9-6 14.1-3.5 2.6 1.2 3.8 3.4 5.7 5.4 2.5 2.6 4.8 1.6 8.2 1.9l4.4.2c1.5 0 .6-1.3.5-1.6-2-3.5-1.3-4 .4-5.7 1.3-1.3 4 .6 4-2.3 0-2.5 3.1.6 4 .8l-3-2.7c0-.6 1.5.4 2.6-.9.6-.6 1.5.1 2 .7.7.8 1.5.8 2.7 1.1.8.3.7 1.4 1.6 1.7h2.8c1.2 0 2.2.7 2.1 2-.1 1.5 1.5 1.2 2 2.4q-1.1-.2-.6.7c.5.9.5 1 .4 2-.1 1.6 3.8 2 4.8 2q1.7 0 3.3.6c1.5.3.9-1 1.9-1 2.7 0 4.2 2.8 5.3 4.7q2.3 2.7 3.8 5.7c1 2.3 4.7 3.6 6.8 4.8 2.6 1.5 6.4 4.5 7.9 4.7 1.4.2 4.1 2 6.8 3.7 2.1 1.2 3.4 2.7 6 2.6q1.6 0 3.5 1.2c1.1.7 2.6.7 2.5 1 .5.6-.1 1.2 0 1.9 0 1 .2 2.8.9 3.5-3.2 1-4.4-1.1-5.2-1.4-1.8-.5-1.7 1-1.7 1.3q-.2 1.6-1.7 1.4t-2.8.2c-1 .6-1 1.8-1 2.8-.2 1.4 0 1.9 0 3.4q-.3 1.7-1.6 2.4c-2.3 1.4-5.3 3.3-8.3 2.9q.5.9 1.2 1.4c-1.1.7.4 1.3-1.7 2.7-1 1.5-3.4.7-4.2 2q-.6-1.8-2.5-2.3c-2-.4-1.5.4-2.7-.2-.4-.3-2-1.7-2.8-1.4-.2-.4-.5-1.8-1-2.5-.7-1.2-.7-.1-.4-1.5.3-1-.6-3-.8-4-.2-1.3-1.2-1.3-2.3-1.2-1 0-2.3.4-3.4.1-1.4-.3-2.1-2.2-3.2-3-1.3-1.1-3.4-.8-4.5-2.3-1-1.3-1.4-2.1-3-2.8-1.8-.6-3.1-.3-4.9-.4-1.5-.1-2.5-1.4-3.9-1.8s-3.8-.2-4.4-1.6c-.6-1.2-1.1-1.8-2.5-1.5-.6.1-6.3-1.2-5 1.1-1.7.4-3.4-.5-5.2-.2q-2.9 1-4.8 3.2c-.6.7 0 1.5-.5 2.2q-.6.6-1.4.8c-1.1.3-3 .9-4 .1-1-.6-1.2-2.5-1.4-3.4-.5-2-.4-4-.8-6.1-.3-1.3.7-3-.3-4-.6-.6-2-1-1.8-2 0 1.5-.8-.3-1.5-.8s-2-1.5-2.4-.2c-.8-1-.7-2.7.5-3.5-1.5 1.5 1.9 1 2.5 1.2-.6 0-1-1-1-1-.8.3-.7-1.1-.7-1.5 0-2.2-3.1-.9-4.4-1.5.9 1.4-.7.3-1-.1q-.7-.8-.6-1.9 0-2.1.3-4.2v-2c-.2-.5-1.3-1.6-.8-1.5v-.2c.3 0 .8 1.9 1.8 2-1 0 0 1.4 1 .3-.1.4 0 1 .8-.2.2.9 1.3 1.7 1.4-.6.5.2 1 2.4 1.5 2.5s2.6-.5 2-.9c.4.1 1.2-.2 1.3-.1.2 0-.7.8 1.2.5q.1-.1-.2-.2l.3-.1c-1.1 0-.7-.4-1.5-1.5.3-.6 1.8-.2 1.4.5 1.6.5 2.5-1.1 1.3-2l.6.1c-.5-1.7-5.5-3-5.8-4.2-.2-.7-1.9-4.8-2.8-5.1-3-1-5.6 1.8-6.3 2.3-.4.2-.2 1.8.1 1.7.6-1.3.8 1 .7 2 0 .2 1.5 3.3 1 2.8q-.7-1.3-1.6-2.2c-.8-.7-1-1.8-2-2.4"/></svg>
