<svg xmlns="http://www.w3.org/2000/svg" viewBox="1664.58 299.48 124.61 124.61"><path id="tm" d="m 1673.17,337.662 c 3.11,-5.072 8.92,-5.933 14.15,-3.491 2.59,1.21 3.82,3.461 5.64,5.388 2.5,2.647 4.84,1.662 8.25,1.928 1.48,0.115 2.82,0.174 4.37,0.228 1.56,0.05 0.66,-1.272 0.49,-1.566 -2.05,-3.529 -1.29,-3.985 0.41,-5.736 1.29,-1.342 3.94,0.558 3.96,-2.27 0,-2.5 3.2,0.565 4.05,0.767 -0.33,-0.357 -2.87,-2.596 -2.9,-2.733 -0.11,-0.544 1.43,0.406 2.55,-0.874 0.51,-0.57 1.42,0.128 1.91,0.663 0.73,0.786 1.55,0.809 2.7,1.18 0.89,0.287 0.73,1.369 1.69,1.629 0.88,0.238 1.83,0 2.72,0.03 1.23,0.04 2.27,0.742 2.16,1.968 -0.13,1.477 1.43,1.234 1.92,2.459 -0.66,-0.105 -0.99,0.05 -0.59,0.656 0.58,0.902 0.55,0.968 0.46,1.967 -0.14,1.636 3.8,2.117 4.8,2.024 1.22,-0.112 2.16,0.327 3.32,0.58 1.5,0.326 0.82,-1.027 1.83,-1.012 2.72,0.04 4.23,2.82 5.3,4.796 1.55,1.788 2.85,3.678 3.79,5.7 1.13,2.219 4.76,3.599 6.83,4.759 2.6,1.454 6.45,4.532 7.87,4.724 1.45,0.196 4.18,2.049 6.88,3.653 2.08,1.23 3.4,2.733 5.96,2.663 1.02,-0.06 2.3,0.459 3.51,1.169 1.12,0.656 2.56,0.683 2.49,0.949 0.54,0.639 -0.1,1.245 0,1.9 0.1,1.071 0.17,2.89 0.9,3.538 -3.16,1.016 -4.39,-1.096 -5.22,-1.364 -1.8,-0.58 -1.7,0.92 -1.68,1.284 0,1.206 -0.83,1.41 -1.72,1.387 -0.89,-0.02 -2.03,-0.222 -2.82,0.234 -1,0.575 -0.96,1.737 -1.04,2.757 -0.11,1.441 0.18,1.873 0,3.362 -0.18,1.202 -0.57,1.852 -1.47,2.416 -2.32,1.463 -5.31,3.325 -8.3,2.906 0.21,0.588 0.64,1.084 1.15,1.439 -1.14,0.644 0.37,1.313 -1.68,2.671 -1.07,1.534 -3.44,0.661 -4.22,2.081 -0.39,-1.177 -1.22,-2.194 -2.5,-2.412 -1.9,-0.322 -1.52,0.485 -2.65,-0.16 -0.45,-0.261 -2.11,-1.696 -2.82,-1.364 -0.27,-0.465 -0.51,-1.868 -0.99,-2.536 -0.69,-1.169 -0.76,-0.1 -0.41,-1.509 0.24,-0.973 -0.64,-2.983 -0.82,-4.066 -0.2,-1.265 -1.24,-1.18 -2.3,-1.126 -1.06,0.06 -2.31,0.4 -3.37,0.14 -1.42,-0.348 -2.16,-2.264 -3.24,-3.112 -1.3,-1.023 -3.42,-0.752 -4.47,-2.208 -0.97,-1.356 -1.41,-2.167 -3.08,-2.806 -1.71,-0.655 -3.06,-0.357 -4.83,-0.461 -1.53,-0.09 -2.47,-1.338 -3.87,-1.78 -1.3,-0.411 -3.84,-0.194 -4.49,-1.592 -0.57,-1.225 -1.09,-1.813 -2.41,-1.508 -0.6,0.14 -6.39,-1.162 -4.98,1.155 -1.75,0.383 -3.48,-0.562 -5.23,-0.192 -2.06,0.434 -3.39,1.756 -4.81,3.174 -0.65,0.644 0,1.472 -0.54,2.16 -0.33,0.413 -0.93,0.631 -1.41,0.794 -1.09,0.371 -3.02,0.932 -4.06,0.148 -0.83,-0.619 -1.07,-2.469 -1.31,-3.38 -0.52,-2.026 -0.37,-4.106 -0.85,-6.141 -0.3,-1.247 0.76,-3.054 -0.26,-4 -0.59,-0.544 -1.92,-0.905 -1.77,-1.922 0,1.386 -0.87,-0.344 -1.5,-0.908 -0.65,-0.591 -1.95,-1.496 -2.38,-0.172 -0.87,-1.052 -0.75,-2.686 0.43,-3.456 -1.52,1.462 1.93,0.972 2.52,1.152 -0.62,0.01 -0.93,-0.974 -1.06,-0.926 -0.77,0.278 -0.59,-1.176 -0.6,-1.601 -0.1,-2.114 -3.17,-0.818 -4.46,-1.506 0.92,1.497 -0.71,0.318 -1.01,-0.06 -0.42,-0.53 -0.57,-1.225 -0.61,-1.884 -0.1,-1.424 0.28,-2.811 0.31,-4.227 0,-0.609 0.24,-1.499 0,-2.073 -0.14,-0.372 -1.25,-1.541 -0.79,-1.379 0.11,0.04 -0.1,-0.325 0,-0.254 0.36,0.09 0.83,1.901 1.81,1.934 -0.92,0.03 0,1.443 1.06,0.371 -0.18,0.459 0,0.985 0.78,-0.181 0.2,0.855 1.3,1.655 1.39,-0.566 0.46,0.132 0.98,2.359 1.5,2.495 0.5,0.126 2.56,-0.557 2.02,-0.907 0.33,0.08 1.2,-0.175 1.3,-0.158 0.16,0.05 -0.73,0.84 1.13,0.497 0.16,0.106 0,-0.167 -0.18,-0.11 0,-0.05 0.14,-0.06 0.28,-0.189 -1.1,-0.02 -0.62,-0.36 -1.49,-1.413 0.34,-0.694 1.78,-0.24 1.47,0.495 1.52,0.438 2.46,-1.183 1.25,-2.132 l 0.6,0.192 c -0.47,-1.74 -5.51,-2.922 -5.84,-4.217 -0.17,-0.682 -1.81,-4.769 -2.74,-5.086 -2.92,-0.994 -5.66,1.817 -6.32,2.252 -0.36,0.238 -0.21,1.802 0.12,1.768 0.54,-1.335 0.81,0.944 0.72,1.931 0,0.261 1.42,3.309 0.9,2.89 -0.29,-0.869 -0.84,-1.606 -1.5,-2.203 -0.84,-0.756 -0.96,-1.853 -1.99,-2.472" fill="#2B1D24">
		
	</path></svg>
