<svg xmlns="http://www.w3.org/2000/svg" viewBox="1337.9 370.7 71.2 71.2"><g fill="#2b1d24"><path d="M1359 403.9c.1-.8 1-1.2 1.5-1.6 1-.8 1-1.4 2.1-2.2a6 6 0 0 0 1.8-3c.7-2 .5-3.7.6-5.8.1-1.3-.7-2.4-.5-3.7.1-1.5 1.8-4.3-.6-4.8.9-1 2.3-1.5 3-2.6.1-.5 0-1.2.6-1.4s1 0 1.6-.5a8 8 0 0 1 3.8-2.2c.7-.2 1.7-.7 2.5-.4 1 .3 0 .8.1 1.5q1.2 0 .5-1c1.4.3 1.8 0 2.4 1.3.2.6-.5.7.2 1.2q1 .7.2 1.6s.6.6 1.2.4q1.3-.6 2.2-1.6c.3-.2 1.2-1.2 1.7-1 1 .4.9 1.5.4 2.3-1 1.6-4 3.2-4 5-.2 1.4.7 3 2 3.8 1.8 1 1.8 1 2.2 3.2.6 2.7-1.3 5.6-3.4 7.3-2.1 1.6-5.3 2.5-3.3 5.7q.7 1.1 1.9 1.8c.8.4 1.2-.2 2 0 .3 0 .4 1.2.6 1.5.4.7 1.5-1.3 2-1 .9.2.3.9.6 1.5s1.5 1.4.3 1.5c.6.7 2 0 2.6.8.5.6-.3 3.2-.1 4.2.2 1.4 1.3 2-.3 3s-4.8 2-5.7 3.3c-.6.4-.4 1.6-1.1 2-1.6.6-3.1 1.1-2.5 3.5.5 2 1.3 3.5.1 5.4a9 9 0 0 1-4.7 4q-1-5.3-2.3-10.6c-.7-3.7-1.1-5.9-4.2-7.6a5 5 0 0 1-2.5-3.4q-.4-2-2.3-3.2-1-.5-1.7-1.4c-.4-.7-.3-1.6-.7-2.3q-1.6-2.2-.8-4.5"/><path d="M1383.2 407.5c-.1-1-.8-.2-1-.6q-.6-1.7 1-1.5c2 0 .8 1.2 0 2.1"/></g></svg>
