<svg xmlns="http://www.w3.org/2000/svg" viewBox="1337.9 370.68 71.17 71.17"><g id="tn" fill="#2B1D24">
		
		<path id="Tunisia_mainland" d="m 1358.96,403.902 c 0.17,-0.848 0.96,-1.171 1.58,-1.64 0.96,-0.73 1.04,-1.384 2.1,-2.189 0.85,-0.643 1.48,-1.846 1.81,-2.913 0.66,-2.14 0.48,-3.805 0.58,-5.858 0.1,-1.293 -0.75,-2.417 -0.57,-3.714 0.19,-1.473 1.83,-4.273 -0.53,-4.782 0.85,-0.979 2.23,-1.482 2.88,-2.643 0.24,-0.429 0.1,-1.164 0.68,-1.333 0.65,-0.185 1.05,0 1.56,-0.546 1.12,-1.184 2.29,-1.709 3.86,-2.158 0.73,-0.208 1.73,-0.756 2.5,-0.446 0.92,0.369 0,0.815 0.11,1.509 0.76,0 0.95,-0.382 0.5,-1.008 1.4,0.306 1.81,0.09 2.38,1.368 0.25,0.561 -0.53,0.615 0.22,1.149 0.58,0.409 0.68,1.12 0.14,1.587 0,-0.05 0.64,0.663 1.26,0.41 0.84,-0.345 1.54,-1.027 2.22,-1.602 0.27,-0.224 1.19,-1.216 1.62,-1.02 1.03,0.47 0.9,1.486 0.43,2.332 -0.9,1.623 -3.96,3.18 -4.06,5.026 -0.1,1.386 0.74,3.056 1.99,3.732 1.9,1.021 1.83,1.069 2.28,3.243 0.57,2.738 -1.34,5.584 -3.44,7.245 -2.09,1.651 -5.29,2.581 -3.22,5.787 0.46,0.705 1.06,1.369 1.84,1.723 0.87,0.394 1.22,-0.148 2.02,-0.04 0.26,0.04 0.42,1.319 0.58,1.59 0.4,0.661 1.49,-1.288 2.09,-1.071 0.81,0.297 0.26,0.96 0.51,1.512 0.34,0.767 1.51,1.462 0.29,1.584 0.64,0.689 2.05,-0.07 2.65,0.723 0.5,0.663 -0.33,3.24 -0.15,4.208 0.27,1.451 1.33,2.069 -0.26,3.021 -1.57,0.942 -4.79,1.987 -5.72,3.283 -0.54,0.426 -0.35,1.653 -1.1,1.956 -1.59,0.644 -3.1,1.169 -2.47,3.591 0.5,1.936 1.25,3.458 0.13,5.357 -1.31,2.215 -2.46,3.062 -4.75,4.069 -0.55,-3.614 -1.59,-7.095 -2.3,-10.67 -0.73,-3.702 -1.11,-5.837 -4.23,-7.572 -1.46,-0.811 -2.11,-1.792 -2.48,-3.412 -0.32,-1.425 -0.97,-2.434 -2.26,-3.195 -0.65,-0.381 -1.27,-0.69 -1.7,-1.37 -0.44,-0.697 -0.29,-1.642 -0.73,-2.347 -0.92,-1.464 -1.42,-3.017 -0.84,-4.479"></path>
		<path id="Tunisia_Djerba" d="m 1383.22,407.502 c -0.12,-0.958 -0.78,-0.18 -1,-0.648 -0.54,-1.145 0,-1.512 0.95,-1.499 2.12,0.03 0.8,1.291 0,2.147"></path>
	</g></svg>
