<svg xmlns="http://www.w3.org/2000/svg" viewBox="1476.3 281.5 159.7 159.7"><g fill="#2b1d24"><path d="M1489.2 346c.8-.3 1.8-1.3 2-2.1.4-1.3-.6-2.2 1.2-3 1-.5.6-.5.3-1.5q0-1-1-1.4c-2.3-.7.6-1 .4-2 0-.3 2.5-1 2.9-1.1 1.3-.4 2.1-.9 3 .2 1 1 1.5.4 2.6.3q.9 0 1.6.3c.7.6-.4.8.1 1.5a13 13 0 0 0 7.3 4.5c1.2.3.2 2-.6 2.3-1.4.5-3.4-.8-4.8-.9q-1 .2-1.7.8c-.7.3-1.5-.3-2.3 0-1 .2-1.4 1.3-2.1 2-1.1 1.3-2.6 1.6-3.9 2.5-1 .8-2.1 3-3.3 3.5-.4-1.4.2-2.9 1.6-3.4.3 0 3-.9 2-1.6-1.4-1.1-4.6 2-5.3-.8"/><path d="M1490.2 357c0-.8.2-4.5.7-4.7 1.4-.5 1.8-2.5 3.2-3.2.8-.4 1.8.3 2.5-.2.8-.6 1.2-.2 2 .3 1 .6 4.6.4 2.4-1q1.1-.4 2.2 0-.5 0-.5.6c.4.6 2.5.3 3 .2 1.8-.1 4.2.9 5.6-.4-.7-.6-1.6 0-2.3-.6 1-2.3 5-1.4 7-1.9-1.7-.8-4-.1-5.3-1.5-1.5-1.6 0-2.8 1.6-2.7 1.8.2 3.6 1 5.4.6 2.5-.5 4.4.8 6.9.6 1.1-.1 1.3-.7 1.7-1.6.5-1 2.3-1.4 3.1-2 2.6-1.5 4.7-2.8 7.6-3.6 3-.8 5.3-.4 8.4-.4 1.2 0 2.5.6 3.8.2.5-.2.7-.9 1.3-1q.7-.1 1.5.2c-.9 1.1.7 2.6 1.7 3q1.1.3 2.3.2c1 0 1.7-1 1.7.2.2-1.9 1.3.4 1.5 1 .3.6 2.2 3 3 2.2q1.5-1.4 3 0c1.3 1 3 1.2 4.4 2 .8.4 1-1.3 2 0 1 .9 2.7.9 4 1 1.7.2 3.5-1 5.2-1.2 1.5-.1 2.3-.3 3.7.2 2 .7 3.4 1.2 5.5.2q3.6-1.6 6.7-4.1c.9-.7 1.6.5 2.5.5.5 0 .5-.7 1-.6l1.2.2c.6.2 2.2.8 2.6 0 .4-1 2.4-1.7 1.8-.3q1 0 1.7.7l1 .8q.9.2.4.9c.3.8 1.4 0 1.8.6.3.5.5 1.7 1 2 1.3 1.2 2.4 2.3 1.6 3.4s1.3 2.8.2 3.5c1.8.9 2.7.7 4.5.8 1.6 0 3.8 2 4.4 3.4-.9-.7-2.2-1.7-2.5 0-.2.6 0 1.1-.2 1.7-.2.7-2 .3-2.6.5a9 9 0 0 1 1.4 2.4l1.1 2.6c.6 1.4 0 3.5 2 4q-1 1.2-1.3 2.6c-.3 1.6 1.3 1.4 2.2 2.2.8.7.6 1.8.9 2.8.1.5 1 .7 1.4 1s0 1.2.2 1.6c-1.6-1.2-2.3 1.8-3.3 1.5-1.2-.4-.2-2-1.1-2.7q-.8-.5-1.7.1-1.2.9-2.7.2-2-.7-4-.9c-1.1 0-1.8-.2-2.3.7-.7 1.2-2 2.2-2.5.5-.5-1.5-2.3.3-3.1.5q-3.1 1-6 .4c-4-.5-7.2 3.4-11.1 3.7-1.6 0-4.4.5-5.7-.5-1.4-1.1-2.3-1.7-4-.9-2 1-6 3-7.7 1-.8-1-2.5-1.3-2.8.3q-.2 2.2 1 4h-2.1c-.2.7.2 1.3 0 2s-1.2.8-1.4 1.6q-.7-.7-1.7-1c.6-.8-.3-1.8-.7-2.4-1-1.1 0-1.8 1-2.6s1.6-1.4.6-2.7c-.4-.5-1.1-1.1-1.7-.4-.7 1-1.5.8-2.4 1.5 1.5-.2 0 1.3-1.2 1.1q-2-.5-3.9-1.7c-3-1.5-4.6 3-6 4.7l-.6-.7c-.6.6-1 1.6-1.8 1.3s-3 .2-3.7.6q-2 .8-4 0c-2-1-2.7-3-4.6-4q-3-1.7-6.4-2.5c-1.2-.2-3.6-.7-3.6 1.2 0 1 .2 3-.6 3.9-.4.4-1-.4-1.4-.5-1-.1-2.1 1.1-3.1 1.3-1.2.2-3-.6-4-1.2-.8-.5-.8-2-1.8-2.1.8-1.1-1-2.3-1.3-.9-.8-.6-2.7-.9-3-2-.1.8-2.2 2.2-2.8 2.7q.3-.7-.5-1 .8-.1.9-1.1a10 10 0 0 1-5.1 1c.7-.8 2.1-.9 3.2-.9 1 0 1 .3 1.4-.5q.6-.7 1.4-1.3c-1.3-.6-5.9-.7-7 .4-1.6-2 1.5-1 1.8-1.4q.3-.7-.1-1.4c-.6-1-1.2.4-.9-1-1.6 2-1.5-2.2-3-2.2 1-.5 2.3-1 1.4-2.5-.7-1-2.5-.4-3-1.2s-.8-1.8-1.5-.5c-.3.6-2.4-1-2.5-1.5 2.2.5.3-1.8.4-2.7.1-.7 1.2-.2 1.4.2.5.7.3 2 1 2.5-.1-1.6 2.4.4 3-1.2-1.4-.2-2-.9-2.8-2 .7-.3 1.1-1.3 2-1.4-.4-1.2-1.6 0-1.5-1.3s-.6-1.5-1.5-2.3l2-2.2c-2.1-1-4 1.1-6.1.4m-2.7-5.3c-.6-1 1.2-2 1.6-1 .2.6-1.3 1-1.6 1"/></g></svg>
