<svg xmlns="http://www.w3.org/2000/svg" viewBox="1476.32 281.54 159.73 159.73"><g id="tr" fill="#2B1D24">
		
		<path id="Turkey_Eastern_Thrace" d="m 1489.24,346.052 c 0.75,-0.356 1.78,-1.377 2,-2.188 0.35,-1.264 -0.62,-2.213 1.14,-3.004 0.95,-0.433 0.6,-0.439 0.36,-1.446 -0.14,-0.591 -0.37,-1.182 -1.01,-1.39 -2.3,-0.751 0.54,-1.113 0.41,-2.033 0,-0.256 2.45,-0.967 2.86,-1.099 1.32,-0.431 2.1,-0.875 3.06,0.215 0.9,1.017 1.4,0.365 2.54,0.252 0.53,-0.05 1.15,0 1.58,0.359 0.73,0.606 -0.36,0.816 0.15,1.481 1.93,2.481 4.18,3.559 7.24,4.477 1.18,0.354 0.2,2.077 -0.53,2.348 -1.4,0.518 -3.43,-0.838 -4.86,-0.921 -0.7,-0.04 -1.13,0.45 -1.71,0.748 -0.72,0.366 -1.47,-0.269 -2.29,-0.02 -0.99,0.298 -1.4,1.368 -2.08,2.113 -1.12,1.21 -2.61,1.552 -3.89,2.486 -1.09,0.792 -2.14,3.002 -3.31,3.457 -0.36,-1.402 0.24,-2.86 1.62,-3.351 0.24,-0.09 2.89,-0.889 2.02,-1.607 -1.42,-1.167 -4.61,1.96 -5.3,-0.874"></path>
		<path id="Turkey_Anatolia" d="m 1490.18,356.924 c 0.1,-0.745 0.19,-4.432 0.74,-4.643 1.37,-0.521 1.81,-2.501 3.22,-3.206 0.75,-0.375 1.72,0.287 2.42,-0.202 0.87,-0.612 1.25,-0.146 2.02,0.314 1.1,0.661 4.66,0.38 2.4,-0.976 0.72,-0.292 1.49,-0.254 2.23,-0.07 -0.37,0.132 -0.54,0.366 -0.54,0.701 0.43,0.59 2.57,0.242 3.11,0.192 1.68,-0.153 4.1,0.825 5.5,-0.389 -0.67,-0.655 -1.54,-0.08 -2.24,-0.647 0.9,-2.304 5.05,-1.436 6.92,-1.872 -1.62,-0.795 -3.92,-0.127 -5.28,-1.517 -1.52,-1.56 0,-2.854 1.64,-2.7 1.79,0.169 3.58,1.002 5.4,0.605 2.43,-0.529 4.4,0.796 6.88,0.551 1.14,-0.113 1.31,-0.7 1.74,-1.594 0.46,-0.985 2.21,-1.416 3.1,-1.937 2.57,-1.504 4.61,-2.826 7.51,-3.611 3.03,-0.819 5.35,-0.382 8.42,-0.382 1.24,0 2.55,0.51 3.78,0.144 0.57,-0.17 0.75,-0.847 1.3,-1.008 0.56,-0.163 1.04,0.167 1.58,0.216 -0.92,1.107 0.65,2.612 1.66,2.917 0.76,0.231 1.54,0.422 2.34,0.317 0.88,-0.114 1.62,-1.099 1.62,0.15 0.2,-1.856 1.39,0.402 1.57,0.933 0.23,0.702 2.14,3.077 2.9,2.27 0.99,-1.066 2.05,-0.831 3.12,0.02 1.3,1.041 2.9,1.229 4.35,1.956 0.82,0.412 0.96,-1.279 2.08,-0.05 0.91,0.992 2.66,0.968 3.9,1.092 1.72,0.173 3.48,-1.017 5.21,-1.187 1.48,-0.146 2.29,-0.34 3.7,0.166 1.98,0.709 3.45,1.193 5.48,0.239 2.45,-1.145 4.68,-2.45 6.77,-4.131 0.84,-0.673 1.61,0.466 2.46,0.484 0.52,0.01 0.47,-0.697 1.08,-0.576 0.39,0.08 0.78,0.167 1.17,0.247 0.57,0.117 2.19,0.755 2.54,-0.01 0.42,-0.938 2.46,-1.72 1.83,-0.308 0.64,-0.121 1.2,0.292 1.66,0.676 0.33,0.3 0.68,0.583 1.04,0.847 0.57,0.07 0.71,0.34 0.39,0.806 0.27,0.806 1.36,0.02 1.8,0.68 0.29,0.429 0.48,1.701 0.91,2.047 1.36,1.101 2.47,2.201 1.69,3.326 -0.77,1.111 1.31,2.761 0.22,3.498 1.75,0.885 2.65,0.683 4.48,0.751 1.57,0.06 3.78,2.142 4.37,3.497 -0.86,-0.704 -2.16,-1.725 -2.52,0 -0.11,0.532 0,1.091 -0.13,1.621 -0.22,0.686 -2.03,0.323 -2.6,0.539 0.42,0.498 1.26,1.782 1.42,2.407 0.27,1.043 0.73,1.586 1.1,2.552 0.55,1.421 0,3.498 1.87,4.113 -0.62,0.581 -0.98,1.746 -1.17,2.542 -0.39,1.598 1.27,1.364 2.11,2.138 0.84,0.777 0.67,1.802 0.94,2.818 0.14,0.508 1.03,0.733 1.39,1.046 0.39,0.346 0,1.167 0.26,1.607 -1.68,-1.183 -2.37,1.757 -3.34,1.439 -1.24,-0.412 -0.22,-2.052 -1.13,-2.663 -0.46,-0.305 -1.22,-0.277 -1.63,0.1 -0.75,0.672 -1.84,0.515 -2.72,0.239 -1.43,-0.45 -2.54,-0.923 -4.05,-0.901 -1.08,0.02 -1.75,-0.283 -2.31,0.662 -0.68,1.144 -2.04,2.172 -2.51,0.466 -0.41,-1.487 -2.28,0.302 -3.1,0.568 -2.12,0.684 -3.89,0.664 -6.03,0.381 -3.85,-0.508 -7.17,3.366 -11.07,3.637 -1.55,0.108 -4.36,0.492 -5.67,-0.496 -1.42,-1.078 -2.31,-1.697 -4.07,-0.843 -1.88,0.912 -5.97,3.063 -7.59,1.059 -0.81,-1.005 -2.53,-1.354 -2.78,0.228 -0.24,1.556 0.3,2.645 0.97,3.977 -0.71,0.04 -1.46,0.241 -2.16,0.07 -0.12,0.616 0.29,1.267 0.1,1.872 -0.26,0.718 -1.21,0.869 -1.44,1.656 -0.54,-0.363 -1.09,-0.773 -1.73,-0.936 0.62,-0.807 -0.24,-1.856 -0.72,-2.46 -0.91,-1.126 0.1,-1.789 1.01,-2.604 0.96,-0.837 1.59,-1.427 0.65,-2.694 -0.38,-0.506 -1.16,-1.131 -1.7,-0.438 -0.74,0.958 -1.49,0.807 -2.41,1.5 1.53,-0.156 0,1.387 -1.18,1.179 -1.41,-0.258 -2.67,-1.088 -3.93,-1.721 -3.01,-1.507 -4.57,2.915 -5.98,4.718 -0.22,-0.241 -0.43,-0.481 -0.65,-0.72 -0.54,0.569 -0.9,1.581 -1.78,1.248 -0.77,-0.289 -2.93,0.242 -3.65,0.602 -1.3,0.654 -2.84,0.556 -4.11,0 -1.96,-0.865 -2.66,-3.036 -4.53,-3.948 -2.05,-1.002 -4.11,-2.147 -6.37,-2.548 -1.19,-0.21 -3.61,-0.69 -3.61,1.197 0,1.083 0.2,3.052 -0.59,3.917 -0.43,0.471 -1.01,-0.402 -1.42,-0.458 -1.04,-0.143 -2.12,1.093 -3.15,1.266 -1.19,0.2 -3,-0.568 -3.98,-1.197 -0.75,-0.478 -0.78,-2.041 -1.8,-2.089 0.79,-1.12 -1.06,-2.336 -1.29,-0.863 -0.77,-0.674 -2.72,-0.927 -2.96,-2.089 -0.18,0.84 -2.21,2.224 -2.88,2.736 0.24,-0.503 0.1,-0.814 -0.5,-0.936 0.57,-0.122 0.93,-0.574 0.93,-1.152 -0.73,0.613 -4.17,1.347 -5.11,1.08 0.75,-0.916 2.15,-0.971 3.22,-0.943 1.1,0.03 0.98,0.317 1.43,-0.527 0.31,-0.587 0.98,-0.853 1.4,-1.338 -1.33,-0.593 -5.89,-0.67 -6.98,0.432 -1.65,-1.933 1.48,-0.912 1.72,-1.411 0.19,-0.415 0.17,-0.995 -0.1,-1.389 -0.55,-0.923 -1.16,0.358 -0.86,-1.088 -1.59,2.029 -1.47,-2.153 -2.95,-2.088 1.03,-0.557 2.2,-1.094 1.32,-2.486 -0.64,-1.004 -2.44,-0.484 -2.88,-1.23 -0.45,-0.772 -0.91,-1.853 -1.59,-0.502 -0.3,0.599 -2.43,-1.012 -2.47,-1.542 2.15,0.514 0.29,-1.759 0.37,-2.645 0.1,-0.733 1.22,-0.198 1.44,0.162 0.45,0.746 0.3,1.969 1,2.555 -0.15,-1.596 2.33,0.401 3.02,-1.224 -1.43,-0.177 -2.01,-0.872 -2.88,-1.944 0.75,-0.414 1.14,-1.321 2.02,-1.512 -0.39,-1.168 -1.6,0.04 -1.49,-1.278 0.11,-1.314 -0.58,-1.483 -1.54,-2.322 0.64,-0.733 1.37,-1.377 1.95,-2.16 -2.05,-1.045 -3.99,1.11 -6.05,0.435"></path>
		<path id="Turkey_Gokceada" d="m 1487.45,351.596 c -0.58,-0.949 1.27,-1.967 1.63,-0.979 0.21,0.574 -1.28,0.955 -1.63,0.979"></path>
	</g></svg>
