<svg xmlns="http://www.w3.org/2000/svg" viewBox="1513.35 699.57 108.03 108.03"><g id="tz" fill="#2B1D24">
		
		<path id="Tanzania_mainland" d="m 1527.66,745.27 c 0.58,-4.235 0.74,-1.288 -1.05,-5.089 -0.34,-0.724 0.45,-2.019 0.1,-3.23 1.75,-0.185 2.04,-0.332 3.18,-1.631 0.9,-1.039 2.38,-2.46 3.3,-3.584 0.66,-0.815 -0.74,-1.609 -0.46,-2.206 0.35,-0.718 1.78,-0.138 1.53,-0.989 -0.17,-0.563 1.26,-1.374 1.56,-1.663 0.85,-0.826 -0.38,-1.797 0.37,-2.581 -2.3,0.647 -3.74,-0.736 -2.45,-2.8 -1.25,0.12 -0.37,-0.797 0.1,-1.524 0.59,-0.923 1.71,-0.558 2.2,-1.5 0.91,-1.756 -0.49,-4.906 -1.28,-6.595 -0.55,-1.181 -2.47,-3.884 -0.64,-4.483 2.25,-0.737 7.27,-0.166 9.7,-0.09 1,3.783 -0.75,3.862 -0.62,4.301 0.46,1.515 -0.86,3.315 -0.81,3.687 0.79,1.06 -0.1,2.075 0.1,2.622 0.55,1.834 1,0.38 1.22,4.853 0.12,-0.948 0.82,-1.456 1.38,-0.425 -0.22,-1.836 0,-2.013 1.17,-1.866 -0.87,-0.469 -0.3,-1.525 1.05,-2.276 0.26,0.264 1.57,3.073 2.95,1.278 -0.18,0.43 0.83,0.579 1,1.15 0.34,1.125 0.33,3.154 -0.65,2.708 l 0.58,0.756 c 0.49,-0.57 -0.39,-0.774 1.55,-0.931 -1.17,0.211 -2.93,-6.385 3.14,-2.609 0.26,-1.617 4.37,-3.452 3.12,-3.578 -1.5,-0.153 -1.32,0.48 -2.15,0.369 -2.5,-0.335 -2.39,-0.824 -2.53,-0.714 0.6,-0.68 0,-0.679 2.66,-0.863 -0.23,-0.955 -2.59,-0.435 -2.03,-0.593 0.26,-0.233 -0.8,-0.633 2.09,-1.021 0.32,-0.04 0.76,-0.555 0.62,-1.135 -0.1,-0.353 0.35,-0.06 0.49,-0.244 -1.14,-1.199 -0.34,-1.343 -0.1,-1.497 0.27,-0.152 0.56,0.152 1.83,0.404 -0.25,0.03 -0.97,-1.077 -0.39,-1.723 0.35,-0.464 0,0.508 0.33,0.08 -0.39,-0.286 -0.26,-0.953 0,-1.303 0.29,-0.377 0.72,-0.79 1.01,-1.169 l 22.84,14.321 c 1.93,1.227 4.34,2.11 4.92,4.465 0.25,1.01 -0.55,0.974 -0.76,1.84 -0.16,0.639 0.95,1.361 1.31,1.893 1.25,1.833 3.73,3.058 5.36,4.532 0.98,0.878 5.58,3.846 5.41,5.126 -0.28,2.054 -1.02,4.363 -1.87,6.255 -0.44,0.963 -0.9,1.917 -1.21,2.929 -0.15,0.478 -0.25,0.966 -0.29,1.466 0,0.684 0.59,1.309 0.48,1.916 -0.46,2.591 3.73,2.791 3.21,5.555 2.26,-0.717 1.96,1.962 1.11,3.036 -1.35,1.708 -0.56,3.727 -1.47,5.384 1.57,-1.428 1.47,1.534 1.1,2.292 -0.54,1.113 -0.97,2.459 -0.8,3.71 0.15,1.158 1.84,3.108 0.57,3.358 0.96,0.184 0.4,1.979 1.15,1.905 1.21,-0.119 0.59,1.228 0.32,1.815 -0.48,1.086 0.78,1.485 1.01,2.477 0.12,0.552 -0.3,0.879 0,1.435 0.38,0.728 0.56,1.169 -0.18,1.798 1.26,-0.235 1.76,0.843 2.01,1.87 -0.12,-1.794 4.28,0.793 2.88,2.777 -3.03,2.336 -5.69,3.707 -8.49,5.429 -1.01,0.355 -1.16,-0.286 -2.18,0.07 -1.08,0.368 -2.7,1.66 -3.8,2.019 -1.08,0.354 -2.38,-1.756 -3.6,-1.144 -1.42,0.708 -2.02,2.852 -3.53,3.517 -2.51,1.111 -3,0.261 -3.79,-0.421 -1.56,-1.337 -2.13,1.119 -3.84,0.92 -1.97,-0.229 -2.64,0.04 -3.73,-1.327 -0.84,-1.063 -1.81,-1.554 -3.04,-0.416 -0.87,0.804 -3.88,0.661 -5.43,0.34 -0.15,-0.14 -0.22,-0.943 -0.42,-1.239 -0.55,-0.813 -1.1,-1.631 -1.56,-2.532 -0.63,-1.253 -0.2,-2.616 -0.46,-3.945 -0.35,-1.774 0,-3.415 -0.49,-5.16 -0.46,-1.819 -1.6,-3.504 -3.04,-4.628 -1.41,-1.095 -1.69,1.029 -1.56,1.355 -1.43,-1.546 -2.78,-0.102 -4.13,-1.578 -0.42,-0.464 -2.02,-0.584 -2.64,-0.942 -1.04,-0.608 -1.98,-1.106 -3.55,-1.336 -0.25,-0.04 -0.47,-0.422 -0.58,-0.643 -0.5,-0.615 -0.91,-0.467 -1.55,-0.786 -0.59,-0.298 -1.39,-0.197 -1.98,-0.51 -0.54,-0.289 -0.67,-0.967 -1.17,-1.213 -0.41,-0.202 -0.88,0.288 -1.31,0.162 -0.71,-0.206 -0.8,-0.955 -1.18,-1.475 -0.73,-1.022 -1.66,-1.211 -2.66,-1.141 -0.47,-1.054 -2.95,-6.113 -4.09,-9.162 -1.06,-2.813 -0.27,-8.039 -4.21,-9.53 -0.59,-0.225 -0.11,0.452 -0.79,0.137 -1.44,-0.667 -2.89,-2.294 -0.33,-4.816 0.99,-0.972 -0.69,-2.823 -1.14,-4.475"></path>
		<path id="Tanzania_Mafia" d="m 1602.90,767.72 c 0.77,-0.697 2.06,-1.152 1.58,-2.45 -0.44,1.044 -1.75,1.096 -1.58,2.45"></path>
		<path id="Tanzania_Zanzibar" d="m 1599.66,750.66 c 0.28,1.799 0.54,2.441 1.96,3.677 0.99,0.857 1.27,-3.488 -0.31,-2.167 0.26,-1.105 -0.1,-2.917 -0.65,-3.891 -0.24,0.776 -1.24,1.488 -1,2.381"></path>
		<path id="Tanzania_Pemba" d="m 1603.40,741.80 c 0.12,0.917 0.91,1.686 -0.15,1.8 0.25,0.156 0.49,0.322 0.73,0.5 -1.49,0.845 -0.15,2.136 0.47,0.774 0.74,-1.615 0.53,-3.185 -0.98,-3.793 0,0.239 0,0.479 -0.1,0.719"></path>
	</g></svg>
