<svg xmlns="http://www.w3.org/2000/svg" viewBox="1513.3 699.6 108 108"><g fill="#2b1d24"><path d="M1527.7 745.3c.5-4.3.7-1.3-1-5.1-.4-.7.4-2 0-3.2 1.8-.2 2-.4 3.2-1.7.9-1 2.4-2.4 3.3-3.6.7-.8-.7-1.6-.5-2.2.4-.7 1.8-.1 1.6-1-.2-.5 1.2-1.3 1.5-1.6.9-.8-.4-1.8.4-2.6-2.3.6-3.8-.7-2.5-2.8-1.2.1-.3-.8.1-1.5.6-1 1.7-.6 2.2-1.5 1-1.8-.5-5-1.2-6.6-.6-1.2-2.5-4-.7-4.5 2.3-.7 7.3-.2 9.7 0 1 3.7-.7 3.8-.6 4.2.5 1.5-.9 3.3-.8 3.7.8 1-.1 2 0 2.6.6 1.8 1 .4 1.3 4.9.1-1 .8-1.5 1.4-.5-.2-1.8 0-2 1.2-1.8-1-.5-.3-1.5 1-2.3.3.3 1.6 3 3 1.3-.2.4.8.6 1 1.1.3 1.2.3 3.2-.7 2.7l.6.8c.5-.6-.4-.8 1.5-1-1.1.3-2.9-6.3 3.2-2.5.2-1.7 4.3-3.5 3.1-3.6-1.5-.2-1.3.5-2.2.3-2.5-.3-2.3-.8-2.5-.7.6-.7 0-.6 2.7-.8-.3-1-2.6-.5-2-.6.2-.3-.9-.7 2-1q.7-.1.7-1.2c-.1-.3.3 0 .4-.2-1-1.2-.3-1.4 0-1.5s.5.1 1.8.4c-.3 0-1-1.1-.4-1.7.3-.5 0 .5.3 0-.4-.2-.2-1 0-1.3l1-1.1 22.9 14.3c1.9 1.2 4.3 2.1 4.9 4.5.2 1-.6 1-.8 1.8-.1.6 1 1.4 1.3 1.9 1.3 1.8 3.8 3 5.4 4.5 1 .9 5.6 3.9 5.4 5.1q-.5 3.3-1.9 6.3l-1.2 3-.3 1.4c0 .7.6 1.3.5 2-.4 2.5 3.7 2.7 3.2 5.5 2.3-.8 2 2 1.1 3-1.3 1.7-.5 3.7-1.4 5.4 1.5-1.4 1.4 1.5 1 2.3q-.9 1.6-.7 3.7c.1 1.1 1.8 3 .5 3.3 1 .2.4 2 1.2 2 1.2-.2.6 1.2.3 1.8-.5 1 .8 1.4 1 2.4.1.6-.3 1 0 1.5q.8.9-.2 1.8c1.3-.3 1.8.8 2 1.8 0-1.7 4.3.8 3 2.8-3.1 2.4-5.8 3.7-8.6 5.5-1 .3-1.1-.3-2.1 0-1.1.4-2.7 1.7-3.8 2s-2.4-1.7-3.6-1.1c-1.5.7-2 2.8-3.6 3.5-2.5 1.1-3 .3-3.8-.4-1.5-1.3-2 1.1-3.8 1-2-.3-2.6 0-3.7-1.4-.9-1-1.8-1.6-3-.4-1 .8-4 .6-5.5.3-.2-.1-.2-1-.4-1.2l-1.6-2.6c-.6-1.2-.2-2.6-.4-4-.4-1.7 0-3.3-.5-5a9 9 0 0 0-3-4.7c-1.5-1-1.8 1-1.6 1.4-1.5-1.6-2.8-.1-4.2-1.6-.4-.5-2-.6-2.6-1a9 9 0 0 0-3.6-1.3q-.3-.1-.5-.6c-.5-.7-1-.5-1.6-.8l-2-.5c-.5-.3-.6-1-1.1-1.2-.4-.3-1 .2-1.3.1-.8-.2-.8-1-1.2-1.5q-1.2-1.4-2.7-1.1c-.5-1-3-6.1-4-9.2-1.1-2.8-.3-8-4.3-9.5-.6-.2 0 .5-.8.1-1.4-.6-2.9-2.3-.3-4.8 1-1-.7-2.8-1.1-4.4"/><path d="M1602.9 767.7c.8-.7 2-1.1 1.6-2.4-.5 1-1.8 1-1.6 2.4m-3.2-17c.2 1.8.5 2.4 2 3.6 1 .9 1.2-3.5-.4-2.1.3-1.1 0-3-.6-4-.3.9-1.3 1.6-1 2.5m3.7-8.9c.1 1 1 1.7-.1 1.8l.7.5c-1.5.8-.2 2.1.5.8.7-1.6.5-3.2-1-3.8z"/></g></svg>
