<svg xmlns="http://www.w3.org/2000/svg" viewBox="1448.8 208.5 139.1 139.1"><g fill="#2b1d24"><path d="M1528.1 248c-2.4.8-1.6.7-5.3.2-.3 2.7-1.8 2.3-3.2 2a6 6 0 0 0-2.5-.1c-.3 0-1.3.5-1.5.4-1.6-.8-2.8.8-3.4 2-1 2 .4 2.4 0 4.1-.2 1.3-2.4-1.2-2.9-1.3-.8-.2-1.7.5-2.4.2q-.8-.5-1.5 0c-1.6 1.3-1.5-.4-2.7-1-1-.5-2.8 0-2.6 1.4-.6-.3-.6-1.1-1.1-1.3s-1.2.4-1.6 0q-1-.5-2-.3c-1 .1-1.5-.6-1.7.6-.8-.2-1.4-1-2.3-.7-1 .3-1.6-.4-2.2-1.1s-3.3-.4-4.1-.6c-1.7-.4-3.1-1-5-1l-6 .3c-1 0-2.5-.3-3.1.6q-.8 1-2 1.8c-.8.4-2.8-1.1-3 .4 0 1.7 2.4 5.5 4.2 5.9l-1.2.5c2 2 .2 2.6-1.4 3.5q-2 1.5-3.7 3.5c-1.3 1.4-3 2.8-2.2 4.8.3.7 0 1.8.5 2.2q.8.3.7 1-1.7-1-2.3-.8c-.4.3-.2 1.3-.5 2-.7 1.2-2 2.3-1.7 3.8.9.2 1 .8 1.6 1.3s.9.1 1.4.7c.8.9 2.3.3 2.3 1.8 1.3-.3 1.5-1.6 3-.6.9.6 1.8.3 2.8.5 1 .1 1.5.5 2.5.3.8 0 1.8-.3 2.6 0 1.7.5 2.7 3 4.5 1 1.2-1.5 3-1.1 4.7-1.3 1.3-.1 2 0 2.5-1.3q.5-.8 1.4-1c.5 0 1.5 0 1.8-.4-.2-.8.5-1 1.1-.8 3 .6 3.7-1.1 4.8-.8 1.2.4 2.9 3.3 4.3 2.6.3 1.2 1.1-.4 1.4 1 .3-1.5 1.9-.4 2.5.3 1.4 1.6.8-.8 2.1 1.2.6.8.7 1.6 1.2 2.3.2.3 1.1 3 1.4 2.7.9-1.1 1 1.3.5 2 1.6.2 4.9 3.2 3 4.2l1.6 1.1c-1.6 1.7-4.6-2-5.6.2l-.6-1.3c-1.8.7-1.6 1.1-1.4 2.6.3 1.8-.8 2.6-1.7 3.8-.9 1-.3 2-2 2.4-1.8.3.5 1.5.8 1.7 2 1.3 2.4 0 4.2-.4 1.5-.3 4-1.8 4.3 1.3 1.2-.4.6-2.3-.4-2.5l.5-.7c-1.5.7-.8-1-.3-1.5.2 2.3 1.9-.9 2.8-1q-.1.9-.8 1.3c1.3-.9 3-2.2 2.8-3.1-.3-1.1-2-1.2-2.3-2.3 1-.7 2.4 1.6 2.5 2.4 1.6-1.6 1.2-4.1 3.8-4.6.6 0 1.8.5 2.2-.1.3-.4.4-1.2 1-1.3q-.6.7-.1 1.4c.4-.3 2.4.2 2.4-.6v-1.6q0 1.1.6 1.9c1.2 1.1 3 .5 4.4.1a8 8 0 0 1-7.5.6c1 1.4 5.6.8 1.9 2.3 1.2-.4 2.4.5 3.5 1.1s2 .5 3.3.5 2.7-.6 3.8 0l1.2.4.2-.1 1.5-.9-.4-.3c4 .7 3.3.2 3.2-.5.3.2 1.1 1.2 1.2 1.5.2-1.2.5-.6.9-.5h.7l-.1.7c-1.4-1 0 3.2.8-.9 1.3.6.3 1 .4 1.3 0-.3 1.3.7 1.5 1.4 0-.3-.8-2.8-.5-3 .9-.5 2.7-.8 1.7-2.2 2.7.4-.7 3-.8 3.4 2.5-.6 2.8-4 5.3-4.7 1.4-.4 2.4 0 3.7-.8.8-.5 2-.6 2.6.3.3-1.2 1.7-1.9 2.9-2 1 0 1.1-1 2.1-1.2s3 .3 3.9-.2c.6-.4 0-1.2.6-1.7-.4 0-1.7-1.2 1.2-3 1-.3 1-1.2 1.7-1.6.8-.4 1.5.1 2.2 0 1.4-.3 3.4.8 4.3-.5.2-.5 1-2.8.7-3.4q-.5.1-1-.2c1.4-1-1.3-2-1.5-2.3-.5-1.1 1-1.9 1.9-1.6 0-1.6-1.4 0-2-1.3-.4-1 .8-.8 1.3-1.2 1.8-1.3-.5-3.4.6-4.4-.9-.3-1.2.6-2.3.3q-1-.3-1.8-1c-.8-1-2-.1-2.8-1.6-.8 1-3.7-.2-4.7-.7-2-1-1.3-.4-3 .6-.4-1.2-2.3-1.5-3-2.9-.3-.8-1.2-2-2.4-1.6-2 .5-3.5 1.8-4.5 1.8-1.7-.5-3-2-4.4-1.9-.8.1-1.8 1.2-2.9 0-2.4-4.4-1.8-4.6-1.8-5-1.4 0-2.1-2-3.4-1.2-1.1.6-3.5-.4-4.4-.7 1-.6-1.3-3-1-3.2.3-.5 1.4-.5 1.9-.8-.7-1.4-1.9-.7-3-3.2-.2-.7-1.6-2.1-2.3-1.7-1.2.7-2.4-.1-3.6 0"/><path d="m1566.7 281-.5.2-.1.3v.3q-.3.2-.2.4v.7l-.2.1h-.4l-.1.6h-.1l-.2.2h-.2l-.6.3-.2.2-.2.3v.6q0 .2.4.5l-.2.5v.7l.1.2.2.1v.1l.4.1.2.1q.6.7 1 1.6l-.2.4q-.3.8-.3 1.5v.2c-.2.4-.6.9.1.8h2l.1-.1.2-.1.2-.8.2-.5v-.2l-.8-.5v-.4l.3-.6.2-.4q.2-.3.9-.6.8-.4 1.6-1.3l.4-.5.1-.1.1-.1.2-.1-.7-.7-.7-.8-.3-.6-.4-.4h-.2l-.3-.1-.2-.2-.2-.3-.2-.5-.3-.6-.2-.3z"/><path d="M1574 277.9c-.4 0-.4 1.3-1 .6-.5-.6-1.5-.8-2 0q-1-.4-1.6.5c-.8.1-1 1-.3 1.6.4.5-.2 1 .5 1.4.2.4-.4.7-.4 1.2h-.2l.4.4.3.6.7.8.7.7.3-.2c.7-.4 1.5.4 2.2 0l1.1.2c.7-.2 1.7.4 2-.4.8-.3.7-1.2 1.1-1.5v-1.7c-.4 0-.9-.3-.2-.8.2-.5 0-.5-.5-1q-1-.3-1.7-1.2c-.4-.6-1.3-.4-1.2-1.2z"/></g></svg>
