<svg xmlns="http://www.w3.org/2000/svg" viewBox="1448.78 208.51 139.08 139.08"><g id="ua" fill="#2B1D24">
		
		<path id="ua-" d="m 1528.1345,248.037 c -2.4699,0.807 -1.6232,0.65688 -5.3331,0.13588 -0.3,2.694 -1.7871,2.28623 -3.2271,1.93623 -0.7299,-0.17299 -1.7737,-0.21596 -2.5136,-0.034 -0.23,0.058 -1.2107,0.56459 -1.4607,0.44159 -1.57,-0.778 -2.7609,0.78012 -3.4309,2.07211 -0.94,1.818 0.4719,2.35434 0.1019,4.00835 -0.31,1.34 -2.4553,-1.21679 -2.9553,-1.32479 -0.79,-0.172 -1.7358,0.55781 -2.4457,0.20381 -0.5501,-0.273 -0.9468,-0.24509 -1.4268,0.10191 -1.67,1.205 -1.5875,-0.45505 -2.7176,-1.05304 -1.0699,-0.569 -2.8394,-0.0983 -2.6494,1.35876 -0.5501,-0.248 -0.5771,-1.07982 -1.087,-1.29082 -0.5301,-0.225 -1.1706,0.36397 -1.6306,0.034 -0.63,-0.465 -1.2982,-0.41969 -2.0381,-0.33969 -0.99,0.11201 -1.4666,-0.55559 -1.5966,0.64542 -0.79,-0.201 -1.4198,-1.04233 -2.3099,-0.74732 -1.03,0.34299 -1.6219,-0.40101 -2.2419,-1.08701 -0.5901,-0.655 -3.2463,-0.36948 -4.0763,-0.57747 -1.68,-0.425 -3.1155,-1.08908 -4.9256,-1.01908 -2.03,0.078 -4.1083,0.26176 -6.1483,0.27176 -0.9,0.004 -2.4133,-0.25459 -3.0232,0.64541 -0.48,0.714 -1.1663,1.32742 -1.9363,1.73242 -0.83,0.435 -2.8893,-1.09037 -2.9893,0.40763 -0.12,1.73899 2.3502,5.50861 4.1103,5.91061 -0.4,0.204 -0.7789,0.39747 -1.1889,0.57747 2.1,1.864 0.2012,2.54481 -1.3588,3.49881 -1.41,0.858 -2.5726,2.24987 -3.7026,3.43087 -1.36,1.432 -3.0581,2.79157 -2.208,4.85757 0.26,0.637 -0.1005,1.78599 0.5095,2.20799 0.42,0.293 0.7794,0.35516 0.6793,0.91716 -0.9199,-0.651 -1.9298,-1.01332 -2.3098,-0.74732 -0.39,0.267 -0.1935,1.2632 -0.5435,1.97021 -0.62,1.26299 -1.8945,2.28453 -1.6645,3.80453 h 0.034 c 0.8601,0.19599 0.9966,0.84782 1.5966,1.29082 0.5301,0.392 0.8428,0.14732 1.3927,0.74732 0.77,0.85099 2.276,0.25436 2.276,1.80036 1.3299,-0.341 1.5293,-1.63144 2.9893,-0.61145 0.88,0.611 1.8394,0.2746 2.8194,0.4416 0.96,0.165 1.4837,0.49565 2.5136,0.37366 0.8201,-0.1 1.7377,-0.36691 2.5478,-0.10191 1.72,0.55501 2.7178,3.0141 4.5178,0.9851 1.2301,-1.377 3.0178,-1.03892 4.6878,-1.18891 1.35,-0.121 2.0537,-0.0108 2.5136,-1.32479 0.2,-0.569 0.8728,-0.82914 1.3928,-0.95114 0.53,-0.12699 1.5284,-0.0126 1.8683,-0.44159 -0.2,-0.78901 0.473,-0.94326 1.0531,-0.81526 2.97,0.652 3.7456,-1.10129 4.7556,-0.78129 1.27,0.402 2.912,3.27165 4.382,2.58165 0.24,1.246 1.1048,-0.37484 1.3248,0.91716 0.32,-1.456 1.9137,-0.31834 2.5137,0.37366 1.44,1.654 0.8441,-0.75014 2.174,1.25685 0.5201,0.798 0.665,1.5759 1.155,2.3099 0.19,0.287 1.1228,3.03755 1.3927,2.68355 0.9,-1.174 0.9196,1.29524 0.5096,1.93624 1.5799,0.21299 4.8792,3.27015 2.9892,4.21215 0.6601,0.27401 0.9305,0.90598 1.6305,1.12098 -1.6099,1.704 -4.5928,-1.97821 -5.6728,0.23778 -0.1799,-0.42799 -0.3495,-0.85382 -0.5095,-1.29082 -1.87,0.68 -1.6367,1.06765 -1.4267,2.58165 0.25,1.72599 -0.8025,2.60856 -1.7325,3.77056 -0.8399,1.054 -0.3121,2.07583 -2.0721,2.37783 -1.7099,0.293 0.5732,1.48945 0.8832,1.69845 2.04,1.37 2.4361,0.0723 4.2462,-0.37366 1.41,-0.34799 3.9601,-1.82014 4.28,1.25686 1.1501,-0.361 0.6124,-2.29878 -0.4076,-2.44577 0.16,-0.248 0.2956,-0.48035 0.4757,-0.71335 -1.4401,0.659 -0.7898,-0.96367 -0.3398,-1.46067 0.2,2.22 1.9373,-0.9151 2.8874,-0.9851 -0.125,0.5195 -0.4605,0.91486 -0.8493,1.25685 1.3547,-0.91377 3.0965,-2.21835 2.8195,-3.15912 -0.31,-1.06299 -1.9739,-1.15 -2.3438,-2.20798 1.0099,-0.73601 2.4416,1.55289 2.5816,2.30989 1.52,-1.594 1.1266,-4.06688 3.7365,-4.51788 0.61,-0.10601 1.798,0.44012 2.208,-0.13588 0.2901,-0.41 0.4052,-1.20179 0.9852,-1.32479 -0.33,0.466 -0.362,0.9327 -0.102,1.4267 0.4701,-0.299 2.4119,0.23956 2.4119,-0.61144 -0.01,-0.55601 0.036,-1.06082 0,-1.56258 0.078,0.66451 0.1545,1.34399 0.6454,1.83433 1.2,1.182 3.008,0.51787 4.348,0.13588 -1.98,1.47699 -5.1232,1.79841 -7.4732,0.64541 0.92,1.316 5.6283,0.75996 1.8682,2.24195 1.2701,-0.37099 2.4589,0.54599 3.4989,1.12098 1.21,0.669 2.0429,0.52954 3.363,0.50954 1.2199,-0.02 2.6945,-0.61495 3.8045,-0.0679 0.6749,0.3355 0.9539,0.46872 1.1889,0.4416 0.043,-0.005 0.1271,-0.0866 0.1699,-0.1019 l 1.4606,-0.8832 c -0.079,-0.0883 -0.3333,-0.2354 -0.3736,-0.3057 3.94,0.691 3.327,0.17547 3.227,-0.50953 0.239,0.185 1.108,1.229 1.2229,1.46067 0.13,-1.139 0.4592,-0.5016 0.8493,-0.4416 0.2899,0.042 0.679,-0.072 0.679,-0.072 0.027,0.330 -0.017,0.296 -0.1019,0.752 -1.4,-1.049 -0.057,3.22977 0.8832,-0.84923 1.2599,0.51301 0.2397,1.04186 0.3397,1.25686 0.07,-0.27401 1.3286,0.69673 1.5285,1.39273 0.04,-0.245 -0.7655,-2.79028 -0.4754,-2.98928 0.8199,-0.549 2.6483,-0.80801 1.6983,-2.17401 2.71,0.35399 -0.7152,2.9789 -0.8153,3.3969 2.4301,-0.619 2.8214,-3.99769 5.2314,-4.7217 1.4399,-0.432 2.4005,-0.0702 3.7705,-0.84922 0.81,-0.463 2.0416,-0.53634 2.5816,0.37366 0.3,-1.271 1.7074,-1.8802 2.8875,-1.97021 1,-0.076 1.136,-1.11282 2.1059,-1.29082 0.9801,-0.177 3.0526,0.30216 3.8726,-0.16984 0.6499,-0.386 0.095,-1.18048 0.6454,-1.66449 -0.4601,-0.028 -1.7172,-1.27527 1.2228,-2.98927 0.9901,-0.33601 0.9985,-1.25252 1.6985,-1.63051 0.75,-0.405 1.438,0.0861 2.2079,-0.0679 1.3201,-0.263 3.3823,0.87543 4.2122,-0.47557 0.26,-0.43 0.9613,-2.76593 0.7813,-3.36293 -0.38,0.098 -0.719,0.0382 -1.019,-0.20381 1.4099,-1.028 -1.3247,-1.97487 -1.4947,-2.34387 -0.48,-1.07899 0.9843,-1.85254 1.8344,-1.59654 -0.03,-1.572 -1.3363,-0.0428 -1.9362,-1.29082 -0.4501,-0.95801 0.7808,-0.81392 1.2907,-1.18892 1.7801,-1.316 -0.4664,-3.421 0.5435,-4.382 -0.8199,-0.29801 -1.1219,0.58472 -2.2419,0.30572 -0.63,-0.159 -1.3464,-0.4831 -1.7663,-0.9851 -0.8601,-1.01701 -2.0595,-0.12652 -2.8195,-1.63052 -0.8701,1.023 -3.7056,-0.16134 -4.7557,-0.71335 -2.04,-1.06599 -1.2753,-0.38953 -2.9554,0.57748 -0.4099,-1.18801 -2.3352,-1.49043 -2.9552,-2.81943 -0.38,-0.817 -1.2458,-1.97649 -2.4458,-1.66448 -2.1,0.542 -3.5118,1.80035 -4.5518,1.80035 -1.62,-0.503 -2.9681,-1.96832 -4.3481,-1.83432 -0.78,0.08 -1.8012,1.19697 -2.9213,0.034 -2.44,-4.501 -1.8343,-4.67739 -1.8343,-5.06139 -1.35,0.073 -2.1029,-1.94085 -3.363,-1.25685 -1.11,0.60199 -3.4919,-0.30944 -4.382,-0.61144 1.0701,-0.634 -1.327,-3.00303 -1.087,-3.26103 0.4101,-0.44 1.4402,-0.45028 1.9702,-0.78129 -0.67,-1.386 -1.8953,-0.65408 -2.9552,-3.19309 -0.29,-0.701 -1.6,-2.10445 -2.3099,-1.69845 -1.2601,0.713 -2.4308,-0.14794 -3.6008,-0.0679 z"></path>
		<g id="xd">
			
			<path id="xd-" d="m 1566.6893,280.95275 c -0.1708,0.0362 -0.3181,0.12687 -0.4415,0.27175 -0.061,0.0719 -0.131,0.14148 -0.1699,0.23778 -0.046,0.10316 -0.056,0.20987 -0.067,0.33969 -0.086,0.11424 -0.125,0.28402 -0.1359,0.4416 -0.012,0.15921 0.011,0.29877 0,0.4416 0,0.0822 -0.013,0.1412 -0.034,0.20381 -0.022,0.0653 -0.047,0.10435 -0.1022,0.13588 -0.037,0.0213 -0.077,0.033 -0.1358,0.0339 -0.081,0.0121 -0.1644,0.012 -0.3057,-0.0339 -0.069,0.17348 -0.071,0.37793 -0.1359,0.5435 0,0.01 0,0.0248 0,0.0339 -0.014,0.0305 -0.049,0.0428 -0.069,0.0679 -0.05,0.0761 -0.1243,0.12443 -0.2377,0.13588 -0.046,0.002 -0.1114,0.0112 -0.1699,0 -0.2101,0.0639 -0.4091,0.16594 -0.5774,0.30572 -0.078,0.0656 -0.142,0.16156 -0.2038,0.23778 -0.065,0.082 -0.1292,0.18227 -0.1699,0.27176 -0.082,0.17895 -0.1186,0.36203 -0.067,0.5435 0.051,0.18148 0.1796,0.3622 0.4076,0.50954 -0.043,0.17133 -0.095,0.3289 -0.1359,0.50953 0,0.0109 0,0.0234 0,0.0339 -0.058,0.25938 -0.075,0.50646 0,0.71335 0,0.01 0,0.0246 0,0.0339 0.025,0.061 0.055,0.1187 0.1022,0.16985 0.035,0.0377 0.088,0.0705 0.1359,0.10185 0.027,0.0177 0.036,0.0525 0.067,0.0679 0.011,0.004 0.025,-0.004 0.034,0 0.083,0.0373 0.1899,0.081 0.3058,0.10185 0.083,0.0402 0.1374,0.0815 0.2038,0.13588 0.011,0.005 0.027,-0.005 0.034,0 0.4489,0.38376 0.5558,1.06276 0.9172,1.5286 0,0.16494 -0.048,0.31788 -0.1022,0.47557 -0.1545,0.48268 -0.4713,0.92107 -0.3736,1.4267 0.024,0.0319 0.041,0.0872 0.034,0.13587 -0.011,0.049 -0.042,0.0764 -0.069,0.13588 -0.1489,0.35487 -0.5534,0.85883 0.2039,0.74732 0.3753,0.13307 0.7302,0.12479 1.053,0.10185 0.3198,-0.0264 0.6016,-0.0746 0.8493,-0.0339 0.08,-0.0498 0.1498,-0.117 0.2037,-0.16985 0.054,-0.0528 0.1022,-0.0798 0.1359,-0.13588 0.1361,-0.23002 0.1215,-0.48754 0.2039,-0.78128 0.039,-0.14208 0.1,-0.28217 0.2037,-0.4416 0.079,-0.0682 0.1095,-0.11682 0.1022,-0.16985 0,-0.0461 -0.027,-0.0629 -0.067,-0.10185 -0.1692,-0.16162 -0.633,-0.27437 -0.7812,-0.47556 -0.042,-0.0467 -0.07,-0.078 -0.068,-0.13588 0,-0.0576 0.038,-0.1314 0.1022,-0.20382 0.073,-0.2597 0.1328,-0.43949 0.2038,-0.61144 0.07,-0.17242 0.1409,-0.29092 0.2377,-0.40763 0.1787,-0.21506 0.4263,-0.37682 0.8493,-0.57747 0.6717,-0.21896 1.1171,-0.79939 1.6645,-1.35876 0.2172,-0.25604 0.3025,-0.37601 0.4077,-0.50954 0.027,-0.0349 0.04,-0.0722 0.067,-0.10185 0.011,-0.0109 0.024,-0.0237 0.034,-0.0339 0.021,-0.0207 0.045,-0.049 0.067,-0.0679 0.046,-0.0383 0.1077,-0.0679 0.1698,-0.10185 -0.1706,-0.2831 -0.5123,-0.42795 -0.6793,-0.71335 -0.1673,-0.28618 -0.3544,-0.3362 -0.6454,-0.74732 -0.1315,-0.18566 -0.1741,-0.37717 -0.3736,-0.57747 -0.1874,-0.18783 -0.2823,-0.30637 -0.3398,-0.4416 -0.011,0.002 -0.023,-0.002 -0.034,0 -0.085,0.0163 -0.1636,0.0161 -0.2378,0 -0.083,-0.0179 -0.1667,-0.0515 -0.2378,-0.10185 -0.073,-0.0519 -0.141,-0.12635 -0.2038,-0.20382 -0.068,-0.0849 -0.1112,-0.16727 -0.1698,-0.27175 -0.1022,-0.17913 -0.1918,-0.35115 -0.2717,-0.54351 0,-0.0109 0,-0.0233 0,-0.0339 -0.084,-0.20111 -0.1642,-0.39946 -0.2379,-0.5435 -0.05,-0.11372 -0.1345,-0.19388 -0.2038,-0.27176 -0.2077,-0.23363 -0.491,-0.32599 -0.7473,-0.27175 z"></path>
			
		</g>
		<g id="xl">
			
			<path id="xl-" d="m 1573.9927,277.86157 c -0.4216,0.0599 -0.4367,1.37896 -1.0192,0.64541 -0.4801,-0.64239 -1.5044,-0.78187 -1.9361,-0.0679 -0.6246,-0.0466 -1.2829,-0.12134 -1.5966,0.5435 -0.8447,0.15953 -0.972,1.07496 -0.3396,1.59655 0.4404,0.49882 -0.1606,1.01955 0.4754,1.39273 0.2081,0.45682 -0.3275,0.74486 -0.4076,1.18891 -0.05,0.0222 -0.089,0.0227 -0.1359,0.0339 0.058,0.13523 0.1523,0.25377 0.3398,0.4416 0.1995,0.2003 0.2421,0.39181 0.3736,0.57747 0.291,0.41112 0.4781,0.46114 0.6454,0.74732 0.1672,0.2854 0.5087,0.43025 0.6794,0.71335 0.092,-0.0502 0.181,-0.0845 0.3398,-0.13588 0.722,-0.41665 1.441,0.35683 2.2079,0.0339 0.4144,-0.15475 0.7496,0.14862 1.1209,0.10185 0.6423,-0.15974 1.6979,0.47501 2.0043,-0.37366 0.8016,-0.34472 0.6617,-1.15957 1.087,-1.46067 0.118,-0.74618 0.093,-1.24021 -0.034,-1.76639 -0.4259,0.0839 -0.8906,-0.306 -0.2379,-0.74732 0.2304,-0.56632 0.011,-0.54652 -0.4755,-1.05304 -0.5957,-0.0891 -1.2678,-0.71068 -1.6646,-1.22288 -0.406,-0.50583 -1.3386,-0.34525 -1.2229,-1.12098 -0.079,-0.0514 -0.1434,-0.0765 -0.2037,-0.0679 z"></path>
			
		</g>
	</g></svg>
