<svg xmlns="http://www.w3.org/2000/svg" viewBox="1518.9 658.1 56.9 56.9"><path fill="#2b1d24" d="M1526.5 708.6c.5-1.3.3-3.2.5-4.6l.7-5.4c.3-2.2 1.6-3.5 1.8-4.7.1-.7-.2-1.4 0-2 .2-1.2 1.2-1 1.8-1.7 1.5-2.5 4-4.2 6-6.4 1-.8 2-2.3 2.4-3.5.2-.9-1.5-1.9-2.2-2.2-.5-.3-1.3.6-1.7-.3-.4-.7-.1-1.7 0-2.4.5-2.2-.3-4 .8-6 .3-.5-.5-.7-.3-1.3q.4-1 1.3-1.6.7-.7 1.8-.7c.5.1 1.6 1.3 2.1 1 .7-.3 1.8-1.6 2.5-.6.8 1 1 1.4 2.5 2-.8-1.4 1.4-1.9 2.4-2 1.2-.2 2.7-1.2 4-1 1.6.1 2.1 1.6 4 .4q1.8-1.6 3.2-3.6c.6.8 1.3 2 .9 3 1.2-.1.4.7 1.5 1s1.6.6 1.1 2.1c-.6 2 1.4 4 2.4 6.3.2.5 1.3 2 1.3 2.4 0 .8 1 2 1.1 2.9a8 8 0 0 1-.6 4.8c-.5 1.2-1.5 1.4-1.3 2.8.2.7-1 1.2-1.6 1.5-1 .5-1 2-1.7 3-.5.8-1.3 1.2-1.6 2l-1.4 3c-.5 0-2.3.6-2-1-1.2.5-.8.8-1.3.9-1.4.2-1.4-.6-.4-.6-.3-.5-1.2-1.3-.9-1.7l-1.3.5.3.6c-1 .3-.2 1.2-1.4 1.1.1 1.9-2.7 1-3 1 0 0 .2-1.7 0-1.4-1.4 3.2-2 1.5-2.2 1.6q.1.9-1.6.9c-.5.7-1.8.7-1.7 1 1 2.6-1.2 3-1.5 4.9-.3 1.6.3 1.7.5 2.7-7.2 0 1.5.3-5.6-.2-2.5-.2-5.4.3-6.9 2-.5.7-1.2 2.5-2 1.9-.3-.2-.4-1-.8-1-.7 0-1.9.9-2.2 1 .2-.6 1.1-1.7.3-2.4"/></svg>
