<svg xmlns="http://www.w3.org/2000/svg" viewBox="1518.93 658.09 56.93 56.93"><path id="ug" d="m 1526.5,708.609 c 0.49,-1.354 0.33,-3.177 0.53,-4.613 0.26,-1.807 0.42,-3.6 0.66,-5.417 0.29,-2.215 1.57,-3.48 1.78,-4.634 0.14,-0.704 -0.14,-1.418 0,-2.128 0.22,-1.117 1.27,-0.83 1.78,-1.638 1.56,-2.458 4.04,-4.209 6.14,-6.382 0.82,-0.844 1.92,-2.311 2.26,-3.449 0.28,-0.936 -1.46,-1.917 -2.13,-2.277 -0.54,-0.289 -1.36,0.59 -1.76,-0.297 -0.32,-0.703 -0.1,-1.666 0.1,-2.378 0.44,-2.182 -0.37,-3.945 0.73,-5.948 0.32,-0.584 -0.47,-0.739 -0.27,-1.355 0.21,-0.652 0.8,-1.199 1.31,-1.617 0.5,-0.41 1.09,-0.784 1.77,-0.661 0.55,0.101 1.6,1.259 2.15,1.01 0.7,-0.318 1.74,-1.615 2.49,-0.626 0.8,1.058 1.02,1.437 2.42,1.943 -0.79,-1.31 1.39,-1.809 2.41,-1.952 1.27,-0.178 2.71,-1.194 3.95,-1.05 1.69,0.197 2.21,1.694 4.06,0.411 1.33,-0.919 2.25,-2.3 3.26,-3.53 0.59,0.795 1.22,1.927 0.86,2.952 1.2,-0.121 0.4,0.748 1.53,1.087 1.16,0.349 1.61,0.573 1.12,2.063 -0.63,1.938 1.31,4.021 2.31,6.319 0.2,0.45 1.37,1.967 1.34,2.359 0,0.829 0.93,2.059 1.14,2.866 0.35,1.433 0,3.385 -0.62,4.816 -0.53,1.221 -1.55,1.401 -1.29,2.822 0.13,0.737 -1.06,1.199 -1.6,1.473 -1.07,0.539 -1.12,1.977 -1.76,3.041 -0.47,0.795 -1.27,1.223 -1.6,2.045 -0.45,1.113 -0.86,1.929 -1.37,3.009 -0.5,-0.03 -2.33,0.576 -2.04,-1.022 -1.16,0.439 -0.79,0.772 -1.27,0.846 -1.42,0.218 -1.44,-0.634 -0.38,-0.567 -0.27,-0.571 -1.22,-1.284 -0.9,-1.693 -0.79,0.29 -0.27,0.08 -1.36,0.488 l 0.35,0.575 c -0.95,0.253 -0.22,1.18 -1.42,1.117 0.16,1.861 -2.64,0.902 -2.96,0.967 -0.1,0.03 0.15,-1.671 -0.1,-1.387 -1.36,3.155 -1.85,1.48 -2.1,1.646 0,0.67 -0.46,0.712 -1.63,0.828 -0.54,0.778 -1.84,0.759 -1.73,1.034 1.02,2.611 -1.13,3.043 -1.47,4.877 -0.29,1.586 0.29,1.671 0.47,2.718 -7.18,0 1.57,0.312 -5.6,-0.223 -2.48,-0.185 -5.39,0.321 -6.84,2.115 -0.5,0.623 -1.21,2.37 -2.09,1.793 -0.23,-0.153 -0.36,-0.994 -0.77,-0.961 -0.7,0.05 -1.82,0.829 -2.15,1.064 0.17,-0.652 1.09,-1.783 0.26,-2.479" fill="#2B1D24">
		
	</path></svg>
