<svg xmlns="http://www.w3.org/2000/svg" viewBox="396.92 133.8 487.24 487.24"><g id="us" fill="#2B1D24">
		
		<path id="United_States_Alaska_mainland" d="m 274.85,226.21 c -0.444,0.35 -0.948,0.542 -1.512,0.576 0.553,-0.902 -1.017,-1.848 -1.112,-0.826 -0.111,1.19 -2.005,1.642 -3.064,1.762 1.573,-1.754 3.663,-2.667 5.832,-3.456 -1.872,0.579 -0.01,0.53 0.407,0.315 0.695,-0.357 1.157,-0.716 1.959,-0.895 1.909,-0.426 2.795,-1.313 4.52,-2.081 3.635,-1.616 7.114,-2.702 11.042,-3.388 -1.867,0.404 1.797,0.132 2.304,0 -1.073,0.671 -1.527,0.941 -1.8,2.232 0.938,0.224 3.205,-3.019 3.6,-0.505 0.27,-0.1 0.51,-0.238 0.72,-0.432 -2.501,-2.031 10.513,-5.89 11.27,-6.123 1.756,-0.539 3.458,-1.233 5.207,-1.782 0.845,-0.265 1.34,0.03 2.167,0.09 1.037,0.07 1.53,-0.923 2.156,-1.536 1.267,-1.239 3.431,-1.793 5.005,-2.502 2.019,-0.91 4.095,-1.87 6.308,-2.187 -1.177,1.487 1.457,0.572 1.872,0.145 -0.5,0.34 -1.052,0.484 -1.656,0.432 0.848,-0.383 0.97,-1.409 1.584,-2.016 0.703,-0.695 1.653,-1.05 2.418,-1.662 1.148,-0.918 3.544,-2.996 5.069,-1.723 -0.364,-0.509 -0.956,-0.679 -1.512,-0.359 0.122,-1.951 3.537,-2.893 4.998,-3.372 3.008,-0.987 5.266,-2.903 8.106,-4.188 -1.576,0.443 -2.858,1.528 -4.396,2.056 -1.264,0.433 -2.593,0.656 -3.866,1.071 -1.32,0.431 -4.727,1.972 -5.994,0.833 0.526,-0.324 0.646,-0.729 0.489,-1.307 -0.112,-0.411 1.207,-0.962 1.491,-1.117 0.584,-0.319 2.633,-1.165 2.125,0.336 0.393,-0.03 0.632,-0.247 0.72,-0.647 -0.615,-0.137 -1.267,-0.657 -1.152,-1.368 -0.337,0.739 -1.128,1.205 -1.827,1.541 -0.539,0.259 -3.421,1.612 -1.701,0.115 -1.045,0.864 -2.961,1.63 -3.582,2.795 -0.435,0.815 -1.616,2.063 -2.708,1.619 -1.029,-0.417 1.485,-3.319 -0.262,-3.334 0.263,-0.17 0.527,-0.338 0.792,-0.504 -1.071,-0.456 -2.15,0.714 -3.096,1.008 0.169,-0.287 0.337,-0.575 0.504,-0.863 -0.582,0.218 -1.028,-0.105 -1.224,-0.648 0.259,-0.132 0.522,-0.251 0.792,-0.359 -1.662,-1.045 -5.962,1.428 -7.807,1.616 -1.307,0.134 -2.334,1.077 -3.615,1.39 -0.475,0.1 -0.943,0.225 -1.405,0.375 -0.624,0.226 -1.105,-0.565 -1.79,-0.357 1.116,-0.958 3.246,-0.302 4.089,-1.614 1.172,-1.822 1.63,-1.481 3.543,-2.274 -0.747,-0.1 -1.513,-0.125 -2.232,0.144 0.688,-2.285 3.484,-2.129 5.129,-3.237 0.641,-0.432 1.055,-2.31 1.549,-3.017 0.728,-1.042 1.662,-1.946 2.754,-2.601 -0.523,-0 -1.003,0.143 -1.439,0.432 2.083,-2.499 5.299,-3.132 8.136,-4.392 -0.734,0.131 -1.646,0.893 -1.368,-0.216 -0.493,0.777 -7.694,3.588 -7.557,3.93 1.075,2.686 -11.934,3.493 -13.323,3.197 0.161,-0.891 1.012,-0.97 1.656,-1.367 -1.074,-0.313 -0.792,-2.202 0.07,-2.592 -1.654,1 -2.632,-0.61 -0.504,-1.295 -0.504,-0.16 -1.008,-0.16 -1.512,0 0.931,-1.317 2.874,-1.244 4.204,-1.916 0.425,-0.214 0.982,-0.45 1.311,-0.811 0.637,-0.7 1.264,-0.227 2.045,-0.516 -1.205,1.213 0.312,0.451 0.915,1.181 0.398,0.481 -2.41,1.357 -2.787,1.483 1.819,-0.258 3.367,-1.398 5.184,-1.655 -0.171,0.591 -0.566,1.106 -1.08,1.44 0.895,0.184 2.618,-0.224 3.276,-0.897 0.647,-0.662 -0.194,-1.155 -0.828,-1.047 0.723,-0.267 1.508,-0.236 2.231,-0.505 -0.964,-0.02 -0.964,-0.216 0,-0.575 -1.716,0.01 -3.2,1.177 -4.951,0.874 -1.199,-0.208 -2.894,-1.067 -4.049,-0.298 0.254,-1.102 2.485,-1.446 3.384,-1.512 -0.565,-0.224 -1.069,-0.127 -1.512,0.288 0.06,-0.572 0.445,-1.021 1.008,-1.151 -0.458,0.216 -0.938,0.36 -1.44,0.432 0.268,-0.925 1.554,-1.15 2.232,-1.656 -1.709,0.214 -2.782,2.57 -4.608,2.232 -0.108,-0.875 1.075,-1.064 0.439,-1.811 -0.534,-0.627 1.847,-1.247 2.152,-1.43 -0.419,-0.404 -0.899,-0.5 -1.44,-0.288 0.399,-1.634 2.181,-1.014 3.384,-1.224 -1.637,0.08 0.249,-1.206 1.237,-1.141 1.456,0.1 3.332,-2.023 4.724,-2.627 1.915,-0.832 3.84,-1.657 5.798,-2.379 0.582,-0.214 1.34,-0.552 1.98,-0.417 0.97,0.205 0.272,0.998 -0.275,1.164 0.553,-0.123 1.081,-0.315 1.584,-0.576 -2.002,-0.346 3.024,-2.068 3.672,-2.304 -1.078,0.295 -2.09,0.783 -3.168,1.08 1.199,-1.722 4.706,-3.821 6.84,-3.096 -1.192,-1.328 2.891,-1.818 3.535,-1.861 0.619,-0.04 1.333,0.137 1.858,0.47 1,0.635 -2.233,1.367 -2.585,1.606 2.486,-1.059 5.292,-0.408 7.766,-1.534 2.391,-1.088 4.872,-2.084 7.426,-2.714 -0.271,0.232 -0.535,0.472 -0.792,0.72 3.771,0.133 7.343,-0.354 10.663,-2.231 1.315,-0.743 2.262,-1.779 3.376,-2.771 0.691,-0.616 2.335,-3.488 0,-2.484 0.647,-0.3 9.51,-1.726 7.344,-3.744 0.382,-0.104 0.766,-0.2 1.152,-0.288 -1.335,0.1 -2.502,0.719 -3.744,1.151 -1.249,0.435 -2.613,-0.208 -3.816,0.433 2.032,-0.405 -0.769,0.37 -0.946,0.414 -0.903,0.221 -1.823,0.364 -2.734,0.547 -1.901,0.382 -3.455,1.559 -5.32,1.992 0.949,-1.063 1.251,-2.673 -0.72,-1.944 0.266,0.213 0.53,0.429 0.792,0.647 -0.833,0.335 -1.187,1.069 -1.776,0.347 -0.341,-0.418 -0.852,-0.649 -1.362,-0.78 -1.158,-0.295 -2.403,-0.183 -3.576,-0.05 -2.742,0.303 -4.749,1.035 -7.506,0.531 -0.43,-0.08 -4.376,-0.694 -3.442,-1.628 0.462,-0.462 1.966,-0.608 1.696,-1.437 -0.457,-1.402 0.785,-2.598 2.071,-2.811 -0.531,0.213 -1.035,0.478 -1.512,0.793 0.85,0.802 2.01,0.248 2.837,-0.249 0.896,-0.538 1.885,-0.289 2.851,-0.184 -1.202,-1.561 -3.982,-1.192 -5.699,-1.35 -0.581,-0.05 -1.372,-0.989 -1.609,-1.463 -0.426,-0.849 2.212,-1.152 2.7,-1.22 -0.75,0.293 -1.526,0.516 -2.304,0.721 1.844,0.415 3.495,-0.775 5.195,-1.241 1.513,-0.414 3.2,-0.06 4.555,-1.005 2.958,-2.075 6.905,-0.689 10.123,-1.354 -0.271,-0.158 -0.535,-0.326 -0.792,-0.504 1.463,-1.661 4.261,-1.492 6.261,-1.658 3.204,-0.265 6.237,-1.738 9.507,-1.222 -0.811,-0.112 -2.054,0.94 -2.68,1.356 -1.243,0.825 -2.473,1.199 -3.872,1.667 0.698,-0.185 0.625,0.08 0.851,0.542 0.248,0.504 1.266,0.324 1.675,0.29 0.869,-0.07 1.75,-0.06 2.621,-0.06 0.565,-0 3.049,-0.372 1.189,0.668 1.917,-1.021 4.153,0.285 6.12,-0.504 0.862,0 3.218,-2.434 4.968,-1.151 -0.246,0.26 -0.51,0.5 -0.792,0.72 0.806,-0.282 1.703,-0.508 2.088,-1.368 -1.289,-1.082 -3.113,-0.697 -4.536,-0.145 0.716,-0.567 2.376,-0.955 2.273,-2.087 -0.09,-0.95 -1.255,-0.758 -0.589,-1.684 1.216,-1.691 3.298,0.128 1.68,1.015 -3.321,1.821 2.687,1.535 2.655,1.503 1.503,1.503 5.419,1.208 6.293,-0.979 -0.533,0.07 -1.061,0.164 -1.584,0.288 -0.745,-0.04 -1.327,-0.609 -2.098,-0.47 -1.197,0.217 -2.513,1.279 -3.772,0.793 -2.084,-0.805 2.792,-3.163 3.783,-3.06 -0.4,-1.585 -2.808,0.137 -2.808,-0.864 -0.449,0.411 -0.977,0.603 -1.584,0.576 0.667,-0.541 1.479,-0.834 2.232,-1.224 -0.873,-0.09 -1.647,0.63 -2.405,0.933 -1.039,0.416 -3.116,0.01 -4.164,-0.225 -2.373,-0.531 -0.366,-1.26 0.437,-2.406 1.055,-1.51 0.253,-4.073 -1.612,-4.88 -0.607,-0.263 -1.672,-0.118 -1.858,-0.933 -0.28,-1.229 -0.979,-1.19 -2.061,-1.273 2.581,-0.25 4.813,-1.484 7.046,-2.704 2.534,-1.384 4.604,-1.014 7.434,-1.218 6.186,-0.447 11.518,-1.877 17.344,-3.998 -0.496,0.257 -1,0.497 -1.512,0.72 2.864,-0.547 5.405,-2.876 8.269,-3.743 3.458,-1.046 6.756,-3.034 10.378,-3.457 -0.616,0.315 -0.638,0.868 -1.368,1.009 2.54,-0.449 5.147,-0.564 7.632,-1.297 2.282,-0.673 4.631,-1.727 7.056,-1.655 -0.638,0.535 -1.462,0.881 -2.304,0.864 2.437,-0.366 -0.443,0.666 -0.937,0.863 0.811,-0.278 0.907,-0.04 0.288,0.721 0.803,-0.555 1.616,-1.096 2.491,-1.534 1.076,-0.538 2.355,-0.109 3.485,-0.41 -0.746,0 -1.5,-0.04 -2.232,0.144 0.292,-0.843 -0.422,-1.067 -1.08,-0.792 2.346,-0.967 4.892,-1.223 7.344,-1.8 -0.5,0.267 -1.029,0.459 -1.584,0.576 3.295,0.812 7.966,-0.233 11.21,-0.995 3.957,-0.928 7.755,-2.44 11.686,-3.469 -0.579,0.163 -1.106,0.427 -1.584,0.792 0.409,0.151 3.678,0.475 2.922,1.325 -1.08,1.216 -3.655,1.348 -5.154,1.339 0.25,0.583 -0.207,1 -0.72,1.151 1.516,-0.419 3.049,-0.78 4.536,-1.296 0.905,-0.313 1.796,-0.667 2.707,-0.963 0.441,-0.143 3.051,-1.212 1.109,0.171 0.347,-0.237 1.543,-0.613 1.752,0 0.331,0.966 -1.777,1.163 -2.329,1.227 1.456,1.378 3.817,0.27 5.477,0 2.336,-0.381 5.181,-0.424 7.483,0.146 -0.767,0.873 -2.028,1.086 -3.024,1.584 0.452,0.232 0.932,0.353 1.44,0.36 -1.03,0.119 -2.077,-0.02 -3.096,0.216 1.532,0.197 3.073,0 4.608,0 -0.528,0.192 -1.056,0.384 -1.584,0.576 1.317,0.665 2.771,0.582 4.181,0.34 0.854,-0.146 1.703,-0.335 2.567,-0.421 0.472,-0.05 2.575,-0.51 1.172,0.368 2.278,0 4.625,-0.671 6.918,-0.388 0.713,0.09 1.786,0.304 2.359,0.773 0.892,0.729 2.142,0.143 3.052,0.679 2.245,1.325 4.627,0.565 7.102,0.878 0.751,0.09 2.492,-0.36 2.76,0.535 0.12,0.399 2.306,0.07 1.064,0.691 1.361,-0.03 2.723,0.04 4.084,-0.01 0.68,-0.02 1.355,-0.09 2.026,-0.198 1.084,-0.456 1.304,-0.386 0.658,0.21 1.411,-1.596 5.29,-0.935 7.045,-0.439 1.191,0.336 1.514,1.55 2.718,1.816 0.921,0.203 0.881,0.315 1.38,0.966 0.593,0.774 1.518,-0.253 2.249,0.249 l -85.754,71.136 c 0.845,0.221 1.579,0.512 2.437,0.123 0.88,-0.399 1.524,0.376 2.354,0.471 1.005,0.116 2.25,-0.664 3.223,-0.891 1.153,-0.269 2.345,-0.334 3.505,-0.06 -0.813,0.62 -1.979,0.977 -2.541,1.886 -0.578,0.934 0.866,1.146 0.759,2.175 -0.143,1.372 0.672,2.61 1.131,3.87 0.44,1.209 -0.806,2.377 -1.365,3.301 2.488,-0.869 5.126,-1.3 7.537,-2.391 1.057,-0.478 2.054,-1.091 2.912,-1.877 0.358,-0.106 0.724,-0.161 1.098,-0.164 0.514,-0.237 0.527,-0.786 0.982,-1.04 0.782,-0.437 1.732,-0.316 2.582,-0.47 0.933,-0.169 3.18,-1.28 4.035,-0.881 2.919,1.362 -1.69,2.736 -0.344,4.079 0.365,0.364 1.268,0.72 0.929,1.395 -0.307,0.613 -0.759,1.784 -0.156,2.3 1.802,1.543 0.687,2.434 0.367,4.225 -0.292,1.638 -0.804,3.244 -0.968,4.903 -0.106,1.059 0.01,2.617 -0.706,3.488 -0.466,0.563 -1.413,1.348 -0.177,1.768 -1.243,0.543 -1.343,2.191 -1.602,3.312 1.281,-0.194 3.411,1.304 4.375,2.078 1.004,0.808 0.787,2.222 2.465,2.026 -0.492,1.261 -1.655,1.678 -2.705,2.353 -1.375,0.883 -1.663,2.48 -2.751,3.565 -2.201,2.193 -5.954,3.892 -8.512,4.955 0.363,-0.52 0.747,-1.023 1.152,-1.512 -0.63,0.625 -1.35,1.216 -2.231,1.439 0.491,-2.397 4.674,-3.507 6.624,-4.464 -0.541,0.176 -5.129,2.397 -4.824,1.08 0.207,-0.9 3.215,-0.977 3.816,-0.937 -0.502,-0.06 -1.006,-0.09 -1.512,-0.07 0.867,-1.133 2.836,-2.545 2.949,-4.071 0.129,-1.749 0.907,-1.518 2.164,-2.48 -1.652,0.542 -3.249,1.535 -5.04,1.512 0.451,-0.183 0.907,-0.351 1.368,-0.504 -0.472,0.164 -3.951,0.664 -3.851,1.213 0.154,0.847 -0.375,0.656 -0.912,1.157 -0.837,0.783 -0.82,-0.04 -1.519,0.894 -0.435,0.582 -1.796,0.564 -1.291,-0.229 0.608,-0.957 1.662,-1.474 2.605,-2.027 1.01,-0.591 1.925,-1.243 2.712,-2.117 0.766,-0.85 2.142,-0.385 3.12,-0.547 -0.821,-0.23 -1.802,-0.05 -1.944,-1.152 -0.06,0.693 -1.362,1.985 -2.098,1.476 -1.059,-0.731 0.775,-2.273 1.306,-2.7 -0.1,0.512 0.08,0.905 0.647,0.937 -0.33,-0.605 -0.282,-1.181 0.145,-1.729 -0.26,-0.108 -0.523,-0.204 -0.792,-0.288 0.862,-0.318 1.255,-1.27 2.16,-1.512 -0.678,0.251 -1.338,0.475 -1.76,-0.299 -0.562,-1.031 0.858,-0.901 1.112,-1.716 -0.731,0.531 -1.706,-0.03 -1.584,-0.938 -0.917,1.018 -2.049,-0.09 -0.709,-0.824 0.951,-0.518 2.15,-0.208 3.158,-0.544 -0.747,0.05 -1.486,0.306 -2.232,0.07 1.209,-0.412 0.342,-1.851 1.944,-1.944 -0.839,0.196 -1.124,-0.688 -0.331,-1.005 0.604,-0.241 1.387,0.779 1.699,1.15 0.301,-0.837 -0.897,-1.178 -0.64,-1.894 0.483,-1.348 2.214,-0.87 3.16,-0.554 -1.33,-0.857 -2.578,-0.341 -3.744,0.504 -0.534,-0.889 1.515,-2.337 2.304,-2.664 -0.52,0.133 -2.19,1.495 -2.405,0.863 -0.218,-0.642 0.451,-1.282 0.873,-1.652 1.15,-1.012 2.769,-1.994 4.268,-2.379 -1.442,-0.129 -2.94,0.926 -3.949,1.843 -1.393,1.266 -1.857,-0.521 -3.251,-0.69 0.612,-0.522 0.597,-1.269 0.808,-1.974 0.19,-0.634 1.05,-0.911 1.424,-1.41 -1.609,1.351 0.161,-1.976 0.456,-2.37 0.771,-1.032 1.668,-2.116 2.712,-2.886 -0.594,0.316 -1.068,0.827 -1.693,1.091 -1.039,0.438 -0.29,0.706 -1.042,1.572 -0.299,-1.499 -1.308,0.623 -1.747,1.314 -0.57,0.899 -1.754,2.051 -2.054,3.049 -0.36,1.201 -1.276,2.512 -2.584,2.772 -1.184,0.235 -0.485,-1.168 -0.167,-1.591 -0.669,0.768 -2.16,0.313 -3.023,0.36 1.423,-1.74 2.417,-3.549 4.68,-3.96 -0.537,-0.369 -1.158,-0.259 -1.584,0.216 1.16,-1.922 -1.652,0.706 -2.027,0.809 -1.214,0.331 -0.479,-1.521 -0.853,-2.032 -0.224,1.087 -1.267,0.626 -1.512,-0.145 -0.417,1.028 -1.877,1.141 -2.736,1.584 1.042,-0.405 1.956,-0.122 3.024,-0.144 -0.25,0.565 -0.646,2.151 0.576,1.008 -0.422,0.432 -0.926,0.72 -1.512,0.864 0.681,-0.03 1.676,-0.639 1.872,0.432 -0.729,0.07 -0.568,0.344 -0.633,0.869 -0.1,0.813 -1.654,1.041 -2.247,1.147 1.072,-1.277 -0.661,-0.803 -1.152,-0.504 1.756,-0.171 -0.136,0.248 -0.516,0.229 -0.685,-0.04 -0.786,0.99 -1.644,0.996 0.867,-1.127 -3.892,-2.322 -1.656,-3.385 -1.085,0.32 -1.149,-0.855 -0.963,-1.588 0.292,-1.152 -0.204,-1.947 -1.484,-2.155 0.368,-0.277 0.776,-0.469 1.224,-0.576 -1.168,-0.133 -3.245,0.207 -3.168,-1.584 -0.854,0.656 -1.309,-0.606 -1.944,-0.937 0.742,-0.803 1.931,-0.885 2.713,-1.636 0.694,-0.667 1.062,-1.521 2.009,-1.907 2.349,-0.955 -0.86,2.458 -0.906,2.607 0.83,-1.041 2.336,-2.476 3.744,-1.512 -0.686,-0.418 -1.355,-1.833 -2.305,-1.562 -1.24,0.354 -2.375,1.161 -3.661,1.524 -2.983,0.845 -5.616,1.056 -8.435,-0.466 0.734,-0.527 1.915,-0.71 2.017,-1.801 -1.137,-0.1 -1.825,1.105 -3.117,0.867 -1.703,-0.314 -3.398,-0.665 -5.102,-0.974 -3.027,-0.548 -6.17,1.822 -9.134,0.61 1.885,-0.184 -1.63,-2.207 -2.376,-2.088 1.351,-1.757 3.755,-1.962 5.4,-3.312 -2.123,0.329 -3.77,1.536 -5.704,2.321 -0.509,0.207 -1.444,0.693 -2.021,0.489 -0.678,-0.24 -1.092,-1.067 -1.924,-0.794 0.873,-0.739 1.986,-1.146 3.024,-1.584 -0.391,0.07 -3.604,0.647 -1.584,-0.216 -0.77,0.136 -1.534,0.297 -2.304,0.432 0.655,-0.494 1.47,-0.627 2.232,-0.863 -1.258,-0.08 -2.487,0.564 -3.744,0.288 1.085,-0.698 2.886,-1.218 4.176,-1.009 -0.824,-0.549 -2.089,0.508 -2.858,-0.116 -0.938,-0.76 3.231,-1.962 4.082,-1.827 -1.004,-0.947 -2.817,-0.09 -3.819,0.412 -1.302,0.649 -3.003,0.522 -4.461,1.027 0.214,-0.241 0.431,-0.481 0.648,-0.72 -0.526,0.165 -1.03,0.381 -1.512,0.647 0.587,-0.822 1.553,-1.217 2.232,-1.943 -1.245,0.637 -2.291,2.206 -3.744,2.376 0.241,-0.239 0.48,-0.479 0.72,-0.72 -0.619,0.06 -1.169,0.424 -1.512,0.936 -1.327,-1.276 3.749,-3.019 4.392,-3.527 -1.265,0.378 -2.457,0.985 -3.61,1.615 -1.05,0.573 -2.247,-0.469 -3.229,0.544 0.79,-0.112 1.51,-0.483 2.304,-0.575 -1.653,1.419 -3.544,1.268 -5.328,2.088 1.969,-0.161 -1.014,0.615 -1.44,0.936 0.818,-0.06 1.487,-0.589 2.304,-0.648 -0.213,0.242 -0.429,0.482 -0.648,0.721 0.527,-0.132 1.031,-0.324 1.512,-0.576 -0.934,1.84 -3.401,1.505 -5.04,2.16 1.603,-0.265 2.933,-0.472 4.464,-0.864 0.658,1.759 -4.435,2.028 -5.184,2.952 0.508,0 0.988,-0.128 1.44,-0.36 -0.314,0.292 -1.528,1.343 0,0.433 -0.87,0.702 -2.147,1.236 -3.219,1.521 -0.609,0.162 -1.117,0.245 -1.702,0.509 -1.07,0.484 -1.935,-0.177 -3,-0.23 0.32,-0.2 0.656,-0.368 1.008,-0.504 -1.114,0.03 -2.016,0.669 -2.88,1.296 0.518,-0.544 0.979,-1.137 1.44,-1.729 -0.948,0.08 -4.251,1.828 -4.32,2.881 -0.159,-0.598 0.149,-1.099 0.72,-1.297 -0.494,0.191 -1.122,0 -1.584,0.288 -0.553,0.335 -0.598,1.149 -1.152,1.513 0.126,-1.416 -1.02,-0.457 -1.608,-0.06 -1.089,0.725 -2.761,1.259 -4.008,1.648 0.862,-0.773 1.955,-1.237 2.952,-1.801 -1.382,0.389 -2.48,1.376 -3.816,1.873 0.225,-0.257 0.441,-0.521 0.648,-0.793 -1.21,-0.137 -2.132,1.198 -3.229,1.496 -1.684,0.459 -1.822,0.871 -3.538,0.448 0.675,1.223 -0.363,0.646 -0.964,0.506 -0.803,-0.187 -1.751,0.386 -2.502,0.591 -0.586,0.159 -1.26,-0.395 -0.998,-1.024 0.143,-0.343 0.959,-0.477 1.242,-0.564 2.891,-0.893 5.781,-2.144 8.694,-2.964 -1.499,-0.388 -3.387,1.702 -4.731,0.547 -1.156,-0.993 5.164,-3.635 6.131,-4.077 1.242,-0.568 2.474,-1.188 3.568,-2.014 0.697,-0.525 1.043,-1.883 1.915,-2.144 2.913,-0.874 5.932,-1.659 8.885,-2.465 -0.04,1.284 1.168,0.939 1.986,0.714 1.41,-0.389 3.43,0.187 4.782,0.654 -1.042,-1.214 -5.066,-1.605 -1.875,-3.214 1.837,-0.926 3.96,-1.313 5.979,-1.609 -1.917,-0.85 -3.892,0.695 -5.608,1.323 -0.612,0.224 -3.835,1.259 -3.104,-0.46 -0.883,0.888 -2.354,1.098 -3.538,1.206 -1.41,0.128 -2.464,1.178 -3.808,1.481 -1.439,0.324 -2.731,0.282 -4.008,1.141 -0.915,0.615 -1.692,1.064 -2.763,1.325 -2.163,0.528 -3.507,0.916 -5.176,2.314 -0.902,0.756 -2.208,1.027 -3.303,1.371 -1.146,0.359 -1.784,-0.851 -2.748,-0.415 1.482,-0.253 1.202,1.715 0.236,2.202 -1.822,0.917 -3.692,0.77 -5.564,1.399 1.564,-0.107 0.416,1.007 -0.2,1.175 -0.79,0.216 -1.735,-0.03 -2.464,0.409 2.094,-1.277 -0.459,-0.172 -0.834,0 -0.784,0.369 -2.03,0.391 -2.697,0.819 -0.317,0.204 -0.348,0.618 -0.697,0.799 -0.625,0.324 -1.977,0.455 -2.684,0.537 1.896,0.01 -0.562,0.504 -1.01,0.681 -0.949,0.373 -2.087,0.889 -2.59,1.839 1.078,-0.09 2.568,-0.454 3.549,0.17 1.729,1.099 -1.664,2.344 -2.284,2.556 -1.473,0.504 -3.137,0.518 -4.438,1.368 -0.682,0.445 -1.384,0.339 -2.015,0.914 -0.924,0.843 -2.146,0.567 -3.092,1.328 0.479,-0.233 0.982,-0.377 1.512,-0.432 -0.778,0.433 -3.111,2.686 -2.952,1.08 -0.717,0.996 -2.857,1.018 -4.002,1.188 -1.224,0.182 -2.002,0.713 -3.121,1.243 -1.25,0.593 -2.602,0.526 -3.812,1 -1.48,0.577 -2.815,1.68 -4.388,1.675 -0.876,0 -1.215,0.938 -1.915,0.658 -0.938,-0.375 -3.094,1.042 -4.002,1.293 1.576,-0.22 0.05,0.866 -0.47,1.243 -0.796,0.574 -1.959,0.561 -2.8,1.146 -0.697,0.485 -1.628,0.518 -2.44,0.609 -1.241,0.141 -1.784,0.813 -2.845,1.174 -0.504,0.172 -0.527,-0.685 -0.993,-0.498 -0.53,0.212 -1.926,0.571 -2.101,1.21 -0.215,0.79 -1.102,0.841 -1.755,0.664 -1.207,-0.328 -1.833,0 -3.013,0.355 1.953,0.199 -0.955,0.776 -1.512,0.783 -1.659,0.02 -3.349,0.827 -4.752,1.665 0.756,-0.09 1.44,-0.689 2.232,-0.359 -0.644,0.488 -0.939,0.689 0.07,0.792 -0.692,0.415 -1.516,0.375 -2.232,0.72 -0.605,0.291 -1.006,1.095 -1.728,1.152 0.247,-0.822 1.03,-1.277 1.8,-1.512 -0.943,-0.55 -2,0.816 -2.644,1.293 -0.858,0.636 -2.265,0.863 -3.302,0.945 -1.376,0.108 -2.548,0 -3.828,0.718 -1.186,0.661 -2.174,2.085 -3.69,2.012 0.856,-0.415 1.625,-0.994 2.304,-1.656 -0.845,-0.89 -2.836,0.08 -3.675,0.523 -0.604,0.317 -1.026,0.356 -1.705,0.392 -0.82,0.04 -1.904,0.99 -2.612,1.389 0.91,-1.483 -0.457,-0.342 -0.813,-0.08 -0.549,0.406 -1.129,0.367 -1.717,0.1 -0.287,-0.131 -1.638,0.494 -1.858,0.559 -0.93,0.273 -2.023,0.111 -2.884,0.427 1.131,-1.104 2.179,-1.452 3.744,-1.367 -1.656,-2.131 -4.617,0.705 -6.127,1.632 -0.653,0.401 -1.408,0.418 -2.081,0.744 -0.601,0.291 -0.911,0.936 -1.512,1.224 -0.606,0.288 -0.402,-0.945 -1.077,0.02 -0.389,0.556 -1.283,0.631 -1.875,0.412 0.934,-0.302 0.801,-1.193 1.08,-1.943 -1.52,-0.284 -1.537,2.554 -3.098,2.157 m 65.017,-24.624 c -2.219,0.927 1.042,1.817 1.656,2.52 -0.246,0.239 -0.509,0.455 -0.792,0.648 0.461,-0.22 1.482,-0.344 1.548,-1.008 0.06,-0.65 1.516,-0.619 1.836,-1.224 -1.443,-0.669 -2.602,-1.427 -4.248,-0.936 m 18.144,-10.296 c 1.812,0.546 3.463,-0.674 5.236,-0.742 1.374,-0.05 3.281,0.482 4.484,-0.41 -1,0.275 -0.967,0.174 0.103,-0.306 0.793,-0.387 1.631,-0.663 2.48,-0.894 1.429,-0.388 2.884,-0.68 4.257,-1.249 -1.669,-0.06 -3.555,-0.13 -5.205,0.146 -1.372,0.229 -2.632,0.813 -4.025,0.977 -2.639,0.312 -5.503,0.19 -7.33,2.478"></path>
		<path id="United_States_lower_48" d="m 432.17,367.18 c 0.642,-1.956 -2.077,-3.635 -1.584,-5.832 0.559,-2.49 2.689,-4.734 2.804,-7.27 0.04,-0.984 -1.623,-3.156 -1.271,-3.861 0.989,-1.977 2.105,-3.747 4.227,-4.637 -0.974,0.484 -1.052,0.39 -0.235,-0.284 0.558,-0.561 1.224,-1.205 1.387,-2.02 0.271,-1.351 1.924,-2.252 2.517,-3.501 0.459,-0.969 0,-2.372 0.613,-3.104 1.008,-1.218 0.392,-1.567 0.628,-2.943 0.167,-0.974 0.917,-1.738 1.477,-2.506 0.691,-0.947 0.513,-1.813 0.942,-2.791 0.485,-1.104 1.384,-2.064 2.218,-2.914 0.345,-0.352 2.266,-2.367 1.757,-1.177 0.242,-0.564 0.617,-0.526 1.11,-0.661 0.33,-0.09 1.074,-1.451 -0.318,-0.275 0.756,-0.992 1.673,-2.609 3.096,-2.664 -1.577,0.39 -0.08,-0.927 0.308,-1.46 0.57,-0.782 1.19,-1.524 1.803,-2.272 0.925,-1.13 1.512,-2.535 2.617,-3.518 1.611,-1.433 3.146,-3.862 4.322,-5.72 0.432,-0.681 1.286,-2.401 2.326,-2.222 -0.377,-1.122 0.929,-2.611 1.601,-3.357 0.864,-0.959 1.146,-2.481 2.591,-2.557 1.084,-0.06 3.229,0.889 4.087,0.154 -0.572,0.249 -1.329,-0.41 -1.791,-0.646 -0.888,-0.454 -1.365,-0.19 -2.266,-0.05 -1.359,0.213 0.235,-2.295 0.457,-2.69 -0.195,0.513 -0.411,1.018 -0.648,1.513 1.223,-0.262 1.722,-3.042 3.168,-2.376 -0.46,-0.393 -0.988,-0.537 -1.584,-0.433 0.234,-1.654 1.644,-1.633 2.952,-2.016 -0.598,0.04 -1.143,-0.268 -1.512,-0.72 -0.214,0.223 -0.406,0.462 -0.576,0.72 0.734,-2.348 2.477,-4.74 2.311,-7.258 -0.08,-1.2 1.367,-4.992 2.577,-4.676 1.93,0.504 3.302,1.597 5.342,1.947 1.229,0.211 4.375,-0.1 4.386,1.13 0.142,-0.562 0.588,-0.967 1.152,-1.08 -0.327,0.556 -0.09,1.27 -0.27,1.863 -0.21,0.714 -1.879,1.524 -2.467,1.953 1.616,-1.66 -0.642,-0.1 -0.959,0.119 -1.006,0.682 -1.909,1.499 -2.856,2.257 0.708,0.622 1.514,0.06 2.16,-0.288 -0.492,0.133 -0.972,0.301 -1.439,0.504 0,-1.089 1.3,-1.729 2.152,-2.062 1.463,-0.569 2.435,-1.525 3.751,-2.33 0.418,1.128 -2.41,1.889 -2.808,3.096 1.412,-0.771 0,1.954 -1.224,2.088 0.216,-0.24 0.432,-0.479 0.647,-0.72 -0.937,0.114 -1.447,1.026 -2.016,1.656 -0.05,-0.606 0.295,-1.129 0.792,-1.44 -1.08,0.367 -1.797,1.474 -2.952,1.656 0.974,-0.229 0.974,-0.06 0,0.504 0.751,-0.613 0.943,-0.493 0.576,0.36 0.279,-0.79 0.959,-1.185 1.739,-0.76 0.493,0.269 1.505,-0.719 1.854,-0.953 1.289,-0.866 3.089,-1.388 3.284,-3.327 0.142,-1.416 3.105,-2.258 2.785,-3.333 -0.269,-0.903 0.733,-1.641 0.419,-2.644 -0.236,-0.754 -1.193,0.203 -0.648,-1.079 1.686,0.867 1.946,-1.219 2.808,-2.089 -1.098,0.161 -0.391,-1.457 0.08,-1.975 l 185.152,-0.117 0.351,-3.322 c 0.06,-0.597 1.657,-0.38 1.896,0.906 0.314,1.69 -2.216,4.463 -0.09,4.767 0.677,0.1 3.798,0.261 3.699,1.217 -0.105,1.02 3.19,-0.367 3.786,-0.605 1.309,-0.521 2.847,0.639 4.083,0.916 -0.367,0.584 -0.07,0.982 0.563,1.022 -0.279,0.305 -0.175,1.551 0.358,1.335 0.275,-0.111 0.397,-0.753 0.736,-0.758 0.824,-0.01 1.18,0.502 1.792,0.947 0.495,0.36 0.785,0.373 0.98,0.438 -0.06,0.402 -0.02,0.885 0.573,0.889 1.995,0.01 3.734,-1.32 5.642,-1.34 -0.765,1.392 1.71,1.108 2.388,1.055 0.64,-0.05 1.36,-0.08 1.971,0.245 1.476,0.775 1.924,0.598 3.033,0.469 -4.166,1.296 -8.525,2.74 -12.39,4.804 -1.607,0.858 -3.058,1.975 -4.65,2.859 -1.777,0.988 -3.81,1.573 -5.4,2.88 1.405,2.14 7.832,-1.372 9.648,-1.512 -0.214,0.994 -1.3,2.17 -2.16,2.664 0.481,0.141 1.361,-0.49 1.668,-0.235 0.542,0.451 0.401,0.569 1.261,0.569 1.494,0 2.992,-0.941 4.318,-1.519 1.57,-0.685 3.242,-0.261 4.737,-0.987 1.972,-0.958 3.924,-1.699 5.8,-2.868 -0.308,0.719 0.228,1.21 0.36,1.872 0.139,0.696 -0.645,1.247 -0.792,1.872 0.359,-0.302 3.411,-2.285 1.584,-0.576 1.891,-1.458 3.372,-0.187 4.334,1.566 0.903,1.647 1.917,1.004 3.439,1.568 2.108,0.781 4.103,-1.169 6.063,-1.66 1.173,-0.293 2.358,-0.04 3.548,-0.128 1.495,-0.113 2.951,-0.491 4.433,-0.698 -0.467,0.778 -0.958,1.546 -1.152,2.448 1.41,0.328 2.696,0.188 4.016,0 1.19,-0.164 0.836,2.16 -0.128,2.371 0.93,0.06 1.037,1.115 1.584,1.654 -1.373,1.297 -3.65,-0.745 -5.232,0.173 -0.06,0.03 -1.035,1.116 -1,1.114 -0.936,0.06 -0.955,-1.282 -1.796,-1.61 -2.481,-0.969 -3.992,0.838 -6.419,0.712 -2.571,-0.134 -3.655,2.241 -5.928,2.852 0.382,-0.872 1.254,-1.341 1.872,-2.016 -1.54,0.251 -2.196,1.208 -3.6,1.584 0.1,-0.556 0.311,-1.061 0.648,-1.513 -2.496,0.925 -4.611,4.052 -6.667,5.694 -0.524,0.418 -0.723,1.097 -1.253,1.506 -0.589,0.455 -1.417,0.415 -2.028,0.876 -0.931,0.702 -2.236,1.862 -2.436,3.084 1.778,-0.354 3.535,-3.354 5.51,-2.566 0.718,0.287 -1.684,2.475 -1.939,2.772 -0.842,0.979 -1.274,2.302 -2.207,3.19 -1.896,1.806 -2.687,3.991 -4.481,5.902 -0.911,0.97 -1.708,2.229 -2.066,3.519 -0.333,1.201 -0.1,2.446 -0.931,3.485 -1.358,1.697 -2.1,5.534 -1.437,7.646 0.552,1.757 3.107,0.688 4.198,0.205 2.515,-1.111 4.44,-3.012 6.202,-5.081 0.952,-1.117 1.817,-2.285 2.443,-3.62 0.533,-1.136 0.538,-3.828 1.692,-4.435 -1.864,-1.119 -0.28,-3.194 0.58,-4.401 0.555,-0.778 0.424,-1.592 0.814,-2.407 0.407,-0.85 1.738,-1.498 2.374,-2.218 0.721,-0.817 0.977,-1.616 1.412,-2.588 0.391,-0.871 1.205,-0.941 1.874,-1.479 0.839,-0.674 0.901,-1.096 2.015,-1.338 1.313,-0.285 1.951,-1.658 3.17,-2.131 -0.771,0.976 -1.012,2.309 -1.944,3.168 0.556,-0.266 1.012,-0.649 1.368,-1.152 -0.1,0.604 -0.457,1.143 -0.936,1.513 1.512,-0.634 2.146,-2.13 2.83,-3.499 0.848,-1.698 2.699,-1.033 4.083,-1.829 -2.32,-0.381 1.078,-3.025 2.099,-3.212 0.619,-0.113 2.007,0.736 2.581,1.052 1.357,0.748 2.477,1.684 3.922,2.296 1.198,0.508 1.737,2.157 0.623,2.697 -1.071,0.519 -0.698,2.135 -0.898,3.073 -0.246,1.146 -1.168,3.083 -2.354,3.464 -1.301,0.419 -1.655,1.764 -2.866,2.315 -1.146,0.521 -2.635,1.123 -2.876,2.562 -0.312,1.859 2.179,0.395 2.692,0.241 1.061,-0.318 4.965,-4.497 6.184,-2.739 0.948,1.367 -0.428,4.749 -0.578,6.175 -0.195,1.858 -1.292,6.222 -3.776,6.412 0.849,-0.871 -0.343,-1.353 -0.941,-0.605 -0.508,0.636 -0.734,1.503 -1.363,2.046 -0.669,0.577 -1.493,0.909 -2.168,1.471 -0.723,0.6 -1.13,1.427 -1.878,2.02 -0.55,0.437 -3.187,2.069 -1.693,2.605 0.535,0.192 1.114,0.301 1.636,0.527 0.232,0.156 0.42,0.354 0.563,0.593 0.355,0.278 1.134,0 1.597,0.271 -0.747,0.159 -1.536,0.146 -2.232,0.504 0.738,0.427 1.47,-0.185 2.232,-0.07 0.506,0.08 0.998,0.331 1.511,0.347 1.667,0.05 3.221,-0.701 4.937,-0.65 1.659,0.05 3.167,-1.422 4.58,-2.105 1.641,-0.794 3.508,-1.228 5.245,-1.767 3.614,-1.122 7.281,-2.438 10.516,-4.433 1.369,-0.844 2.882,-1.629 4.183,-2.563 0.756,-0.543 1.958,-1.203 0.507,-1.246 -1.226,-0.841 0,-2.036 0.242,-3.037 0.569,-0.733 2.797,-0.803 3.973,-0.961 1.269,-0.17 2.683,-0.167 3.945,0.05 1.006,0.173 1.779,1.309 2.801,1.051 1.296,-0.327 2.458,-0.126 3.768,-0.279 1.439,-0.167 2.644,-1.094 3.958,-1.619 1,-0.399 2.194,-0.373 2.554,-1.609 0.369,-1.267 1.189,-2.138 2.214,-2.922 -0.584,0.259 -1.542,0.489 -0.79,-0.576 -0.831,0.575 -0.977,0.132 -0.58,-0.389 0.409,-0.536 1.111,-1.399 1.706,-1.66 3.959,-1.944 7.854,-4.786 12.417,-5.907 l 22.411,0.06 c 0.456,-0.655 0.877,-1.838 1.596,-2.244 0.803,-0.452 1.805,-0.206 2.699,-0.733 0.122,0.239 0.242,0.479 0.36,0.72 0.891,-0.381 0.553,-1.262 1.577,-1.144 -0.462,-0.174 2.294,-2.643 3.018,-2.984 0.871,-0.409 1.595,-1.279 2.025,-2.57 0.265,-0.796 1.43,-1.955 2.498,-2.657 1.074,-0.705 1.132,-1.956 1.903,-2.886 1.071,-1.291 2.64,-2.21 3.931,-3.265 1.097,-0.896 5.045,-5.309 4.68,-1.8 -0.195,1.877 4.083,-0.09 4.639,-0.244 3.315,-0.896 2.838,3.301 2.125,5.088 -0.641,1.599 -1.396,3.243 -1.975,4.864 -0.301,0.844 -1.814,3.114 -1.24,4.003 0.608,0.942 1.862,0.164 1.251,1.57 -0.433,0.995 -1.134,2.017 -0.381,3.034 0.6,-0.607 1.214,-0.352 1.405,0.431 0.226,0.923 -0.716,1.187 -0.835,2.016 0.987,-0.667 0.956,0.1 0.536,0.593 -0.451,0.535 -1.28,0.704 -1.927,0.832 -0.788,0.155 -1.451,0.272 -2.144,0.726 -0.498,0.326 -2.305,1.658 -1.645,0.01 -0.661,0.218 -1.128,1.008 -1.87,1.008 -0.557,0 -0.433,1.053 -1.08,1.225 0,-0.447 0.01,-1.62 -0.769,-1.437 -0.883,0.208 -1.405,1.543 -1.542,0.141 -0.02,0.647 -0.234,0.57 -0.699,0.542 -0.55,-0.03 -0.507,1.341 -0.521,1.618 -1.151,-0.743 -1.015,-1.681 -0.79,-2.881 -0.275,0.834 -1.247,0.945 -1.8,1.512 -0.632,0.647 -0.926,1.552 -1.52,2.232 -1.389,1.592 -2.658,0.779 -3.95,2.521 -0.162,-0.467 -0.283,-0.569 -0.08,-1.08 -0.237,0.219 -0.478,0.435 -0.72,0.647 0.466,-1.845 -0.899,0.172 -1,0.648 0.05,-0.795 0.154,-1.595 0.79,-2.16 -0.438,0.202 -0.775,0.514 -1.01,0.936 0.746,-0.181 -0.26,1.862 -0.65,2.16 -0.04,-0.313 -0.08,-0.625 -0.14,-0.936 -0.357,0.295 -1.531,1.327 -0.22,-0.145 -1.214,1.651 -0.511,0.176 -0.29,-0.288 -0.786,0.509 -2.416,1.011 -2.492,2.114 -0.02,0.318 -1.618,1.72 -1.966,1.929 -1.369,0.825 -6.305,5.027 -4.103,6.685 -0.694,0.409 -3.462,1.45 -3.343,2.518 0.06,0.505 1.221,0.686 1.497,1.137 0.697,1.138 -0.358,2.529 0.897,3.664 1.059,0.957 3.151,0.02 3.389,-1.343 -0.88,0 -0.145,-0.871 -1,-1.439 1.527,-0.07 1.292,2.171 0.795,3.025 -0.584,1.007 -4.384,1.647 -5.485,1.511 0.222,-0.515 0.465,-1.019 0.73,-1.513 -1.507,0.781 -3.104,1.901 -4.76,2.017 0.315,-0.755 0.499,-1.605 1.16,-2.16 -0.713,0.357 -1.511,1.314 -1.66,0 -1.318,1.635 -1.392,3.133 -3.77,3.509 -0.468,0.07 -4.361,0.694 -4.291,-0.197 -0.04,0.945 -1.466,0.949 -2.113,0.941 -1.411,-0.02 -2.147,0 -3.497,0.542 -2.696,1.077 -5.324,1.973 -7.64,3.701 1.131,-1.408 2.187,-2.764 1.94,-4.681 -0.935,1.584 -0.302,4.585 -2.727,5.313 -1.895,0.569 -2.04,2.035 -0.01,2.248 -0.362,1.875 -1.61,3.521 -2.59,5.112 0.24,-0.48 0.48,-0.96 0.72,-1.44 -1.592,-0.04 -2.005,4.364 -3.81,4.208 -0.577,-0.05 -2.03,2.32 -2.407,2.729 -0.848,0.917 -2.011,2.133 -3.353,2.207 0.176,-0.456 1.34,-1.594 0.665,-2.055 -1.125,-0.768 -1.886,-0.814 -2.68,-2.114 -1.427,-2.334 2.294,-3.094 3.456,-4.111 -1.766,0.745 -4.843,1.875 -3.958,4.381 0.512,1.45 -0.03,2.899 0.589,4.424 0.494,1.223 0.226,2.124 -0.592,2.571 1.079,0.221 0.569,1.238 0.14,1.8 0.75,-1.644 -0.171,-0.151 -0.309,0.206 -0.22,0.572 -1.075,0.976 -1.509,1.369 -1.172,1.063 -1.968,2.225 -2.933,3.465 -0.864,1.111 -2.07,1.936 -2.906,3.03 -0.494,0.646 -1.046,2.398 -2.064,2.371 -0.352,-1.615 1.126,-3.307 2.096,-4.405 0.487,-0.551 1.756,-2.383 2.374,-2.507 -0.59,-0.234 -1.144,-0.162 -1.66,0.216 0.192,-0.696 2.047,-2.09 0.21,-2.088 0.351,-0.46 0.617,-0.964 0.8,-1.513 -0.729,1.197 -1.168,-0.576 -1.37,1.08 -0.132,-0.389 -1.211,-1.085 -1.095,-1.482 0.206,-0.708 1.266,-1.073 0.666,-1.901 0.508,0 0.988,0.128 1.439,0.36 -0.141,-0.6 -0.851,-1.848 -1.66,-1.368 0.348,-1.014 0.904,-0.337 1.562,-0.741 1.107,-0.681 -0.635,-1.139 -1.272,-0.627 0.357,-1.183 1.974,-0.749 2.23,-2.088 -0.231,0.204 -0.471,0.396 -0.72,0.576 -0.61,-1.961 2.271,-2.5 3.6,-2.664 -0.247,-0.184 -0.487,-0.375 -0.72,-0.576 0.556,-0.266 1.012,-0.65 1.37,-1.152 -0.493,0.307 -0.996,0.595 -1.51,0.864 0.23,-0.253 0.447,-0.518 0.65,-0.792 -0.75,-0.09 -1.11,0.34 -1.473,0.91 -0.251,0.395 -1.665,1.589 -0.767,0.1 -0.404,0.296 -0.691,0.68 -0.86,1.152 -0.284,-1.37 -1.607,0.219 -1.51,0.864 -0.266,-0.114 -0.529,-0.234 -0.79,-0.36 0.102,0.547 0.339,1.026 0.71,1.44 -0.907,0.09 -0.797,0.236 -0.21,0.792 -2.054,-1.271 -1.493,5.133 -2.02,5.76 -1.07,-0.718 -1.263,-1.781 -0.86,-2.952 -0.338,0.958 -0.59,1.807 0.122,2.675 0.554,0.675 1.292,1.686 0.378,2.438 -0.282,-1.119 -2.893,-1.136 -2.45,-2.448 -0.374,-0.07 -0.468,0.17 -0.28,0.72 -0.504,-0.28 -0.904,-0.745 -1.083,-1.296 -1.175,1.049 -1.73,-0.301 -0.718,-1.252 0.773,-0.726 2.554,-1.443 1.94,-2.779 0.05,1.372 -3.982,3.898 -3.117,4.666 0.524,0.466 1.385,-0.139 1.805,0.582 0.708,1.213 0.926,0.874 2.215,1.213 0.527,0.139 0.886,1.281 1.347,1.663 0.771,0.636 0.652,0.986 -0.04,1.755 -1.836,2.031 -2.977,-1.07 -3.646,-2.535 -0.07,1.345 1.005,3.37 2.164,4.029 1.425,0.81 1.114,2.023 -0.655,1.731 0.105,0.261 0.202,0.525 0.29,0.792 -1.106,0.646 -1.658,-0.896 -2.231,-1.512 0.762,1.367 3.645,3.411 1.008,4.319 -0.893,-2.583 -2.576,-2.379 -4.896,-3.239 0.244,0.488 1.808,0.601 2.405,1.027 0.823,0.588 2.534,2.037 1.555,3.148 0.453,-0.485 1.033,-0.438 1.44,0.07 -0.116,-1.161 1.087,-0.776 1.754,-0.585 0.841,0.242 0.648,0.911 0.646,1.72 0,1.072 -0.105,2.114 -0.199,3.181 -0.12,1.37 0.676,2.845 0.248,4.18 -0.07,-1.16 -0.118,-2.363 -0.446,-3.486 -0.318,-1.089 0.547,-2.216 -0.274,-3.21 -0.05,0.386 -0.223,1.163 -0.65,0.432 -0.02,1.41 0.922,2.872 0.221,4.248 0.07,-0.564 -0.07,-1.068 -0.431,-1.512 -0.289,0.776 -0.86,0.867 -1.373,0.216 0.141,0.254 0.261,0.519 0.36,0.792 -0.563,0.357 -1.067,0.285 -1.512,-0.216 0.718,1.464 -0.735,0.337 -1.225,0.07 0.208,0.228 0.4,0.467 0.576,0.72 -0.708,0.181 -1.309,0.975 -2.088,0.504 -0.827,-0.5 -0.448,-1.629 0,-2.232 -0.384,0.33 -1.374,2.662 -0.747,3.05 0.558,0.345 1.326,-0.444 1.888,-0.239 0.458,0.167 2.699,-0.602 2.6,0.421 -0.07,0.7 -0.46,1.711 -0.933,2.24 0.647,-0.213 0.898,-0.75 1.064,-1.357 0.217,-0.798 1.098,-0.57 1.598,-1.091 0.541,1.118 -0.494,1.906 -0.649,2.952 -1.008,-0.729 -1.694,0.945 -2.223,1.504 -0.98,1.037 -2.806,0.446 -3.822,-0.208 0.15,-0.253 0.318,-0.493 0.504,-0.721 -0.566,0.134 -0.951,0.541 -0.792,1.152 -0.945,-0.465 -2.09,-0.344 -2.952,-1.008 0.523,0.552 4.07,1.938 2.575,2.519 -0.571,0.222 -0.209,0.945 -0.732,1.311 -1.158,0.812 -1.784,0.728 -2.923,-0.157 0.09,1 0.771,1.358 1.701,1.243 0.63,-0.08 2.637,-0.942 2.332,-0.02 0.321,-0.179 0.657,-0.323 1.008,-0.433 -0.39,0.637 -1.058,1.445 -1.728,1.8 -0.38,0.201 -2.557,0.03 -2.016,0.576 -1.139,-0.186 -2.705,-0.36 -3.555,0.396 -0.58,0.518 -1.789,1.404 -1.413,-0.108 -0.368,0.326 -0.345,0.919 -0.47,1.348 -0.135,0.46 -1.122,0.646 -1.497,0.852 -1.637,0.896 -2.563,2.453 -3.505,3.993 0.126,-0.473 0.174,-0.952 0.144,-1.44 -0.642,2.793 -3.239,1.895 -5.515,2.576 -2.583,0.775 -4.228,3.091 -5.789,5.128 -0.388,-0.52 -0.22,-1.088 0.288,-1.44 -0.853,0.479 -0.186,2.038 -1.152,2.232 -0.521,0.104 -0.304,0.46 -0.637,0.763 -0.592,0.538 -0.765,-0.01 -1.307,0.317 -0.576,0.353 -3.183,3.551 -3.527,1.584 0.319,1.623 -1.037,1.846 -2.144,2.431 -0.693,0.367 -1.252,0.724 -2.074,0.571 -0.35,-0.07 -2.522,0 -0.678,0.31 -2.187,0.437 1.564,0.167 -0.72,1.08 1.742,-0.17 -1.153,1.27 -0.864,-0.432 -0.192,1.945 -0.793,-0.29 -0.864,-0.72 0.02,0.642 0.251,1.252 0.265,1.893 0.02,0.797 -1.699,2.019 -0.697,0.555 -1.135,1.713 -1.267,2.34 -3.312,2.952 0.1,0.239 0.193,0.479 0.288,0.721 -0.457,0.283 -0.937,0.331 -1.44,0.144 -0.03,0.269 0,0.532 0.07,0.792 0.268,-0.09 0.532,-0.181 0.792,-0.288 -0.178,0.889 -1.045,1.264 -1.872,1.226 0.894,0.491 0.456,1.819 -0.216,1.15 0.235,1.182 -0.397,0.715 -1.296,0.504 0.551,0.183 0.983,0.519 1.296,1.008 -0.674,0.656 -1.503,0.576 -1.867,1.581 -0.259,0.716 -1.42,2.523 -0.832,3.238 0.257,0.251 0.239,0.477 -0.06,0.675 -0.706,0.477 -0.208,0.638 -0.08,1.426 0.243,1.535 -0.137,3.331 -0.146,4.888 -0.02,3.354 0.831,6.739 1.971,9.875 0.562,1.543 0.458,1.88 0.02,3.344 -0.433,1.444 0.05,2.768 0.2,4.205 -0.593,-1.484 -0.854,-3.068 -0.223,-4.585 0.724,-1.738 -1.002,-1.333 -1.073,-2.759 0,2.636 0.345,5.151 1.048,7.688 0.382,1.378 1.349,4.204 0.319,5.488 2.358,-0.33 -0.6,9.681 -1.086,10.772 -0.795,1.784 -1.925,5.527 -3.666,6.508 -0.581,0.328 -0.348,-1.067 -1.077,-0.04 -0.52,0.731 -1.312,0 -2.009,0.259 -1.165,0.423 -2.921,-0.133 -1.667,-1.514 0.235,0.514 0.681,0.916 1.224,1.08 0.303,-0.786 -1.04,-1.585 -1.357,-2.175 -0.697,-1.297 -0.186,-2.712 -1.696,-3.618 -0.893,-0.535 -1.812,-0.611 -1.915,-1.84 -0.102,-1.211 0.664,-2.91 -0.792,-3.6 0.859,-0.291 1.291,-1.172 2.017,-1.656 -0.746,0.226 -1.203,1.111 -1.945,1.388 -0.622,0.232 0.03,-3.178 0.432,-3.619 -0.498,0.338 -0.978,0.314 -1.439,-0.07 1.037,1.181 -0.608,1.434 -1.152,0 -0.5,-1.318 0.09,-3.593 -1.296,-4.464 1.124,-0.08 3.318,-2.685 2.664,-3.816 -0.244,0.163 -0.483,0.331 -0.72,0.504 0.07,-0.622 -0.328,-1.115 -0.864,-1.368 -0.347,0.513 -0.363,0.935 0.173,1.31 0.474,0.332 -0.555,1.411 -0.75,1.643 -0.335,-0.541 -0.628,-1.249 -0.504,0 -0.913,-2.942 1.988,-5.733 2.667,-8.45 0.242,-0.968 0.236,-1.836 0.04,-2.816 -0.33,-1.667 -0.988,-1.137 -2.025,-2.121 -1.507,-1.43 -2.009,-3.507 -2.865,-5.296 -0.415,-0.868 -1.355,-1.819 -2.284,-2.125 -1.355,-0.447 -2.237,0.93 -3.528,0.792 0.222,1.102 -0.784,0.841 -1.692,1.404 -0.354,0.219 -1.953,1.269 -1.764,0.323 -1.018,0.767 -2.354,1.009 -3.6,1.009 0.75,-0.973 0.134,-2.249 -0.864,-2.736 0.479,0.06 0.407,-0.201 -0.216,-0.792 0.978,0.752 1.29,-0.188 0.327,-0.286 -1.453,-0.148 -0.42,-1.164 0.393,-1.37 -0.696,0.03 -1.392,0.06 -2.088,0.07 0.195,0.238 0.387,0.478 0.576,0.72 -1.409,0.358 -3.752,-1.274 -4.968,-1.872 0.163,0.03 2.648,0.37 2.471,-0.09 -0.171,-0.446 -0.985,-0.737 -1.397,-0.824 -0.738,-0.156 -1.434,0.496 -2.079,0.742 -1.1,0.419 -2.657,0.422 -3.818,0.391 0.662,-0.07 1.286,-0.261 1.872,-0.575 -0.61,-0.199 -0.848,-0.683 -0.432,-1.225 -0.367,0.408 -0.703,0.84 -1.008,1.296 0.438,-1.991 -0.797,-0.104 -1.196,0.317 -0.597,0.631 -1.307,0.955 -2.188,0.908 0.543,-0.139 1.888,-0.79 1.08,-1.512 -0.605,1.637 -2.798,2.513 -4.392,1.871 1.599,0.6 0.851,-3.328 0.576,-4.104 -0.393,0.84 -0.873,1.796 -1.366,2.579 -0.376,0.597 -1.414,0.249 -2,0.574 -0.316,0.175 -1.909,0.226 -1.745,-0.02 -0.605,0.911 -1.351,-0.6 -2.016,-0.324 0.303,0.103 -1.949,0.59 -2.423,0.644 -1.198,0.137 -1.354,0.821 -2.506,1.216 -2.075,0.71 -2.734,-1.674 -4.585,-1.636 -0.654,0.01 -2.858,1.882 -1.756,2.489 0.725,0.399 1.983,0.344 2.731,0.05 0.612,-0.241 1.937,-0.106 2.347,-0.458 -0.254,0.332 -1.814,0.997 -1.621,1.513 0.49,1.304 1.042,0.568 1.648,-0.09 0.796,-0.862 1.947,0.253 1.372,1.211 -0.489,0.815 -2.129,0.148 -1.832,1.542 -0.975,-0.358 -1.085,0.337 -0.846,1.089 0.387,1.214 1.277,1.326 2.391,1.656 0.543,0.161 0.764,0.93 1.164,1.356 0.401,0.428 -1.012,1.168 -0.981,1.731 -0.756,-1.139 -1.565,-0.03 -2.232,0.504 0.406,-0.545 0.811,-1.1 1.08,-1.729 -0.68,-0.08 -0.491,-0.449 -0.767,-0.867 -0.169,-0.258 -1.873,-0.856 -2.185,-0.86 0.571,-0.926 -2.192,-2.281 -2.527,-1.985 -0.188,0.167 0.525,1.24 0.459,1.623 -0.19,1.116 -0.546,2.101 -1.749,2.378 -0.03,-1.042 0.133,-1.355 -1.008,-1.584 -1.827,-0.367 -1.027,1.014 -2.326,1.289 -2.04,0.431 -4.234,-1.931 -3.074,-3.88 -0.466,0.872 -1.594,0.472 -2.141,-0.07 -0.356,-0.35 -0.615,-0.865 -0.451,-1.374 -0.732,-0.115 -2.097,0.512 -1.152,-0.721 -0.903,0.01 -3.07,0.86 -2.16,2.088 -1.366,-0.229 -2.558,0.46 -4.021,0.08 -1.72,-0.446 -3.212,-1.499 -4.907,-2.024 0.788,-0.693 1.134,-1.344 0.72,-2.376 -0.292,0.756 -0.45,2.604 -1.405,2.826 -0.893,0.207 -2.566,0.409 -3.418,-0.02 0.438,-0.644 1.304,-1.12 1.224,-2.016 -1,0.501 -1.953,1.542 -1.152,2.664 -2.653,0.349 -5.382,1.217 -7.56,2.808 0.64,-0.833 1.697,-1.377 2.664,-1.728 -0.761,-0.148 -1.512,0.07 -2.232,0.288 0.492,-0.622 1.041,-1.379 0.792,-2.232 -0.646,0.139 -0.744,0.755 -1.296,1.008 -0.526,0.241 -0.569,-0.741 -1.08,-0.144 -0.441,0.516 0.09,2.459 0.792,2.664 -1.245,1.229 -2.633,2.041 -3.827,3.344 -1.633,1.782 -4.698,1.454 -6.109,3.136 0.48,-0.144 0.959,-0.288 1.439,-0.432 -1.171,0.65 -2.399,1.234 -3.672,1.656 0.576,-0.53 1.344,-0.777 1.872,-1.368 -0.493,0.132 -0.973,0.3 -1.44,0.504 1.111,-0.688 -1.328,-0.503 -1.584,-1.297 0.118,0.498 0,0.93 -0.36,1.297 0.244,-2.141 -2.642,1.255 0,1.151 -0.895,0.849 -2.257,1.219 -2.88,-0.144 0.09,1.188 -1.967,3.794 -1.656,2.231 -0.528,1.13 -1.872,-0.04 -2.304,1.296 0.592,0.167 1.096,0.02 1.512,-0.432 -0.29,2.229 -2.482,1.833 -4.104,2.305 0.287,0.04 0.575,0.06 0.864,0.07 -0.238,0.539 0.174,0.892 0.337,1.351 0.197,0.556 -0.875,1.768 -1.142,2.188 -0.717,1.126 -2.274,1.198 -2.867,-0.08 0.337,0.521 0.313,1.024 -0.07,1.512 0.718,0.168 1.477,0.331 2.16,-0.07 -0.201,0.785 -0.604,2.102 -1.397,2.498 -0.661,0.331 -0.04,2.01 -0.04,2.542 0,1.596 -0.966,4.899 0.288,6.192 0.249,-0.207 0.489,-0.422 0.72,-0.647 0.189,0.763 -1.67,1.48 -2.19,1.553 -1.027,0.144 -1.687,-1.625 -2.864,-1.625 -0.963,0 -2.242,0.221 -3.13,-0.286 -1.107,-0.632 -2.365,-2.076 -3.516,-2.269 -2.28,-0.382 -1.609,-2.059 -2.517,-4.015 -0.665,-1.434 -0.759,-2.669 -0.453,-4.146 0.129,-0.624 0.486,-1.252 0.315,-1.872 -0.164,-0.589 -1.269,-1.067 -1.589,-2.01 -0.858,-2.277 -2.246,-4.144 -2.859,-7.174 -0.236,-1.241 -0.104,-2.508 -0.401,-3.745 -0.148,-0.615 -0.536,-1.078 -0.706,-1.669 -0.207,-0.72 -0.921,-1.248 -1.222,-1.829 -0.628,-1.212 -1.504,-1.787 -2.163,-2.941 -0.07,-0.123 -2.092,-0.292 -2.305,-0.324 -2.359,-0.348 -4.817,-0.591 -6.893,0.713 -2.164,1.359 -2.349,4.766 -5.217,6.087 -1.138,0.524 -2.492,-0.81 -3.33,-1.376 -0.756,-0.511 -1.567,-0.936 -2.315,-1.46 -2.258,-1.632 -3.346,-3.235 -3.412,-5.353 0.57,-1.47 0.23,-3.138 0.166,-4.617 0.158,-1.458 -0.867,-2.153 -2.112,-2.611 -1.225,-0.451 -2.215,-2.916 -3.128,-4.479 -3.561,-1.936 -1.245,-3.929 -4.106,-4.16 l -13.084,0.01 -0.179,3.817 -20.217,-0.107 -23.733,-9.985 c 0.274,-0.735 0.964,-1.193 1.418,-1.801 -6.049,0.192 -12.105,1.04 -18.122,1.635 -0.07,-1.693 0.541,-3.326 0.564,-5 0.03,-2.041 -1.405,-2.82 -2.55,-4.271 -1.175,-1.489 -1.18,-0.628 -2.6,-1.153 -0.969,-0.357 1.125,-2.903 -1.677,-2.804 -1.718,0.06 -2.381,-0.435 -3.271,-1.847 -0.94,-1.491 -2.884,-1.239 -4.391,-1.564 -0.988,-0.213 -4.115,0.393 -3.727,-1.6 0.244,-1.253 1.592,-2.416 1.646,-3.701 0.05,-1.232 -1.542,-1.021 -0.714,-2.402 0.518,-0.863 -0.594,-1.91 -1.217,-2.583 -0.613,-0.664 -0.548,-1.523 -0.593,-2.409 -0.07,-1.292 -1.8,-2.573 -1.452,-3.735 0.545,-1.821 0.774,-1.81 2.037,-3.055 1.477,-1.456 0.171,-1.792 -1.008,-2.619 -1.751,-1.227 -0.254,-2.386 -0.57,-3.909 -0.187,-0.9 0.833,-2.925 1.861,-2.976 0,0.484 -0.521,0.965 -0.432,1.439 0.112,0.597 0.859,1.072 1.224,1.513 0.605,-1.954 -0.559,-4.152 1.8,-5.185 -2.143,-2.276 -1.861,2.067 -3.194,1.783 -0.854,-0.182 -1.853,-2.523 -2.782,-1.207 0.482,-0.585 1.151,-2.369 1.656,-0.792 -0.04,-0.668 -0.09,-1.356 -0.572,-1.875"></path>
		<path id="path3780" d="m 483.51,289.57 c -0.04,-0.381 0.04,-0.741 0.216,-1.08 -0.498,0.291 -0.865,0.788 -0.936,1.368 0.24,-0.1 0.48,-0.193 0.72,-0.288"></path>
		<path id="path3782" d="m 484.44,286.90 c -0.312,0.125 -0.456,0.365 -0.432,0.721 0.144,-0.241 0.288,-0.481 0.432,-0.721"></path>
		<path id="path3784" d="m 488.19,282.51 c -0.887,-0.548 -1.284,0.593 -0.647,1.152 -0.303,-0.605 0.06,-1.016 0.647,-1.152"></path>
		<path id="path3818" d="m 487.68,281.14 c 0.628,0.739 -0.264,0.553 -0.69,0.852 -0.706,0.494 -0.181,1.256 -0.678,1.885 1.068,-0.06 0.884,1.084 0,1.224 -1.076,-1.579 -0.105,-3.135 1.368,-3.961"></path>
		<path id="path3764" d="m 436.28,404.84 c 0.02,-0.288 0.05,-0.576 0.07,-0.864 -0.489,0.08 -0.969,0.203 -1.44,0.36 0.245,0.61 0.772,0.946 1.368,0.504"></path>
		<path id="path3766" d="m 437.72,403.69 c -0.898,1.391 1.751,0.669 2.232,0.145 -0.737,0.511 -1.49,-0.04 -2.232,-0.145"></path>
		<path id="path3768" d="m 443.55,413.12 c -0.12,0 -0.24,0 -0.36,0 0.05,0.577 0.286,1.057 0.72,1.439 0.07,-0.526 -0.05,-1.006 -0.36,-1.439"></path>
		<path id="path3770" d="m 444.84,418.73 c 0.553,0.468 0.665,1.789 1.656,1.296 -0.104,-0.911 -0.962,-1.018 -1.656,-1.296"></path>
		<path id="path3820" d="m 584.38,460.21 c 0.619,-0.647 1.148,-1.378 1.584,-2.16 -1.053,1.174 -2.971,2.626 -2.88,4.392 0.362,-0.783 0.827,-1.511 1.296,-2.232"></path>
		<path id="path3822" d="m 589.28,454.66 c 0,0.168 0,0.336 0,0.504 0.969,-0.718 2.117,-1.194 2.952,-2.088 -1.007,0.486 -1.938,1.114 -2.952,1.584"></path>
		<path id="path4840" d="m 485.67,279.34 c -0.757,0.121 -0.988,0.729 -0.432,1.296 0.596,-0.236 0.852,-0.744 0.432,-1.296"></path>
		<path id="path4844" d="m 487.68,278.48 c -0.539,0.191 -0.995,0.503 -1.368,0.937 0.618,0.158 1.864,0.04 1.368,-0.937"></path>
		<path id="path4846" d="m 486.96,279.77 c -0.273,0.193 -0.441,0.457 -0.504,0.792 0.168,-0.264 0.336,-0.529 0.504,-0.792"></path>
		<path id="path4852" d="m 489.12,278.26 c -0.05,0.244 -0.02,0.484 0.07,0.72 -0.02,-0.241 -0.05,-0.48 -0.07,-0.72"></path>
		<path id="path3836" d="m 676.76,441.70 c -0.593,-0.304 -0.323,-1.104 -0.07,-1.513 -0.172,0.514 -0.148,1.018 0.07,1.513"></path>
		<path id="path3860" d="m 708.22,430.83 c -0.21,0.532 -0.475,1.036 -0.792,1.512 0.06,-0.612 0.32,-1.116 0.792,-1.512"></path>
		<path id="path3824" d="m 605.76,445.09 c -0.627,0.588 -1.414,0.965 -2.016,1.584 0.991,-0.595 2.054,-1.116 2.88,-1.944 -0.288,0.12 -0.576,0.24 -0.864,0.36"></path>
		<path id="path3826" d="m 629.52,442.78 c -0.452,-0.891 -1.62,-0.526 -2.231,-0.07 0.686,0.484 1.641,1.038 2.231,0.07"></path>
		<path id="path3828" d="m 632.98,445.59 c 0.942,-2.032 -2.232,0.24 0,0"></path>
		<path id="path3830" d="m 649.04,437.96 c -0.24,0.144 -0.48,0.288 -0.72,0.432 0.702,0.54 0.942,0.395 0.72,-0.432"></path>
		<path id="path3838" d="m 678.41,442.21 c 0.927,0.415 2.192,-0.514 2.952,-0.937 -0.616,0.532 -2.114,1.522 -2.952,0.937"></path>
		<path id="path3862" d="m 708.36,453.51 c -0.02,0.24 -0.05,0.479 -0.07,0.72 -0.225,-0.958 -0.394,-2.05 0.288,-2.88 0.513,0.718 -0.03,1.462 -0.216,2.16"></path>
		<path id="path3864" d="m 709.16,457.69 c 0.433,1.667 0.739,3.457 0.648,5.185 -0.306,-1.709 -0.757,-3.436 -0.648,-5.185"></path>
		<path id="path3856" d="m 706.13,479.43 c -0.799,1.064 -1.697,2.039 -2.664,2.952 0.884,-0.789 1.341,-2.753 2.664,-2.952"></path>
		<path id="path3840" d="m 693.75,466.69 c -0.05,0.24 -0.1,0.479 -0.145,0.72 0.03,-0.245 0.08,-0.485 0.145,-0.72"></path>
		<path id="path3842" d="m 693.89,469.13 c 0.24,0.192 0.48,0.384 0.72,0.576 -0.307,0.04 -1.104,-0.565 -0.72,-0.576"></path>
		<path id="path3844" d="m 694.47,469.28 c -0.03,-0.511 -0.1,-1.015 -0.216,-1.513 0.353,0.472 0.425,0.975 0.216,1.513"></path>
		<path id="path3848" d="m 695.69,468.85 c 0.264,-0.664 0.833,-1.162 1.513,-1.368 -0.573,0.383 -0.947,0.978 -1.513,1.368"></path>
		<path id="path3872" d="m 761.29,393.68 c -0.382,0.07 -0.767,0.1 -1.155,0.07 1.926,-0.582 2.447,-2.8 2.735,-4.536 -0.156,1.561 -0.549,3.233 -1.58,4.464"></path>
		<path id="path3874" d="m 786.70,347.09 c -0.279,0.529 -0.769,0.947 -1.36,1.08 0.215,-0.567 0.707,-1.088 1.36,-1.08"></path>
		<path id="path3876" d="m 791.38,346.88 c -0.245,0.05 -3.51,0.293 -1.44,0.504 -0.759,0.188 -1.558,0.08 -2.3,0.359 1.658,-0.518 -0.183,-0.284 -0.72,-0.504 0.865,-1.201 1.299,-1.333 2.667,-1.7 0.762,-0.205 1.051,-0.909 1.913,-0.93 0.665,-0.02 1.305,0.217 1.97,0.183 1.021,-0.05 2.093,-0.454 3.181,-0.522 1.658,-0.104 2.759,-1.256 4.309,-1.638 -1.059,0.562 -2.041,1.258 -3.021,1.945 0.903,0.519 1.287,-0.407 1.982,-0.755 0.89,-0.445 2.266,-0.119 3.268,-0.471 -3.159,2.73 -7.941,2.66 -11.809,3.529"></path>
		<path id="path4104" d="m 809.67,338.60 c -0.125,0.632 -0.538,1.176 -1.08,1.512 0.08,-0.594 0.389,-1.398 1.08,-1.512"></path>
		<path id="path4106" d="m 813.77,340.04 c 0.428,1.216 -1.501,1.028 -2.15,1.008 0.733,-0.298 1.286,-1.073 2.15,-1.008"></path>
		<path id="path4108" d="m 817.01,341.91 c -0.531,0.05 -1.034,-0.05 -1.51,-0.287 0.654,-0.116 1.697,-0.04 1.66,-1.008 0.181,0.461 0.131,0.893 -0.15,1.295"></path>
		<path id="path4110" d="m 834.66,315.20 c -0.17,0.24 -0.34,0.479 -0.51,0.72 0.01,-0.363 0.183,-0.602 0.51,-0.72"></path>
		<path id="path4112" d="m 835.95,315.99 c 0.03,0.573 -0.286,0.891 -0.86,0.864 0.108,-0.47 0.395,-0.758 0.86,-0.864"></path>
		<path id="path4114" d="m 837.32,316.71 c -0.263,0.1 -0.526,0.192 -0.79,0.288 0.248,-0.141 0.511,-0.238 0.79,-0.288"></path>
		<path id="path4116" d="m 839.19,314.62 c 0.588,0.928 -0.801,1.278 -1.3,1.728 -0.659,-0.795 0.408,-2.012 1.3,-1.728"></path>
		<path id="path4190" d="m 715.42,290.07 c -0.02,-0.168 -0.05,-0.337 -0.07,-0.505 0.666,-0.105 1.702,0.301 1.8,-0.72 -1.488,-0.194 -3.576,0.23 -4.849,1.048 -0.43,0.276 -1.42,0.848 -1.572,1.392 -0.199,0.714 0.706,0.611 1.022,0.368 -0.562,0.21 -0.94,0.677 -0.72,1.297 1.25,-1.222 2.713,-2.327 4.391,-2.88"></path>
		<path id="path4192" d="m 715.64,283.09 c -0.781,-0.47 -6.268,1.651 -5.904,2.808 2.079,-0.636 3.858,-2.141 5.904,-2.808"></path>
		<path id="path4194" d="m 739.90,300.44 c -0.565,0.36 -1.069,0.792 -1.512,1.296 0.964,-0.07 2.483,0.158 1.512,-1.296"></path>
		<path id="path4196" d="m 725.64,303.61 c -0.07,-0.1 -0.144,-0.192 -0.216,-0.288 -0.471,0.396 -0.735,0.9 -0.792,1.513 0.548,-0.184 0.96,-0.636 1.008,-1.225"></path>
		<path id="path4198" d="m 710.02,309.87 c -0.849,0.468 -0.613,1.914 0.614,0.762 1.07,-1.004 1.974,-2.161 2.914,-3.282 -1.537,0.216 -2.252,1.838 -3.528,2.52"></path>
		<path id="path3630" d="m 103.28,510.10 c 0.335,-0.776 1.464,-1.063 1.44,-2.016 -0.593,0.466 -1.775,1.049 -1.44,2.016"></path>
		<path id="path3632" d="m 109.11,509.31 c 0.808,-0.483 2.731,-3.232 0.604,-3.132 -2.5,0.118 -3.772,2.685 -0.604,3.132"></path>
		<path id="path3634" d="m 119.98,514.64 c 1.996,0.339 -0.1,-3.598 -0.461,-3.581 -0.496,0.02 -2.257,0.824 -2.253,1.414 0.01,1.404 2.016,1.358 2.714,2.167"></path>
		<path id="path3636" d="m 126.53,516.44 c 0.65,0.02 1.146,-0.399 1.08,-1.08 -1.157,0.277 -3.644,-1.125 -4.032,0.721 1.027,-0.09 1.966,0.09 2.952,0.359"></path>
		<path id="path3638" d="m 125.60,519.10 c 1.433,-0.417 0.342,-1.932 -0.792,-1.439 0.231,0.497 0.495,0.977 0.792,1.439"></path>
		<path id="path3642" d="m 129.20,520.47 c 0.791,-0.312 3.499,-0.282 3.006,-1.813 -0.442,-1.373 -1.594,-0.917 -2.574,-1.1 -0.552,-0.104 -1.333,-1.395 -1.791,-0.54 -0.393,0.734 -0.231,1.138 0.44,1.585 0.918,0.612 0.32,1.095 0.919,1.868"></path>
		<path id="path3644" d="m 131.14,534.37 c 0.869,0.297 2.106,-1.127 2.653,-1.613 1.322,-1.174 3.033,-1.167 4.432,-2.145 1.545,-1.08 -0.137,-1.845 -0.534,-3.011 -0.222,-0.651 0.291,-1.121 -0.33,-1.68 -0.703,-0.633 -1.459,-0.959 -2.252,-1.439 -0.655,-0.397 -2.143,-1.739 -2.674,-0.48 -0.229,0.544 0.193,0.889 0.115,1.405 -0.101,0.662 -1.306,1.186 -1.739,1.592 -1.152,1.08 0.08,2.826 -0.103,4.131 -0.205,1.479 -1.154,2.202 0.432,3.24"></path>
		<path id="path3920" d="m 2435.94,244.78 c 0.26,-1.308 1.75,-0.447 2.59,-0.648 -1.86,-0.236 -5.15,-3.025 -6.7,-0.792 0.65,-0.08 1.55,0.04 2.16,0.288 0.22,0.159 0.34,0.37 0.38,0.633 0.19,0.299 1.24,0.308 1.57,0.519"></path>
		<path id="path3922" d="m 2443.93,248.09 c -0.41,-1.314 -1.33,-1.364 -2.23,-0.432 0.75,0.1 1.57,-0.05 2.23,0.432"></path>
		<path id="path3924" d="m 2458.54,183.58 c -0.78,-0.856 -2.2,-0.548 -3.21,-0.848 -1.09,-0.326 -2.45,-1.208 -3.63,-0.881 2.08,1.245 4.85,0.633 6.84,1.729"></path>
		<path id="path3926" d="m 2472.15,252.49 c -0.1,-0.632 0.27,-1.064 0.94,-1.008 -1.2,-0.446 -0.1,-1.353 -1.44,-1.08 0.12,0.238 0.24,0.479 0.36,0.721 -1.15,0.05 -0.56,1.144 0.14,1.367"></path>
		<path id="path3928" d="m 2479.64,252.92 c -0.44,-0.29 -0.92,-0.434 -1.44,-0.433 0.48,0.145 0.96,0.289 1.44,0.433"></path>
		<path id="path3930" d="m 2479.49,251.84 c 0.16,-0.632 -0.1,-0.729 -0.71,-0.288 0.23,0.1 0.47,0.192 0.71,0.288"></path>
		<path id="path3932" d="m 2484.10,254.14 c -0.45,0 -0.91,0 -1.36,0 1.1,0.576 2.37,0.726 3.53,1.15 1.13,0.413 2.31,1.354 3.59,0.938 -1.85,-0.867 -3.83,-1.44 -5.76,-2.088"></path>
		<path id="path3934" d="m 2487.06,252.05 c 0.45,-0.923 -0.89,-1.068 -1.44,-1.224 -0.5,0.967 0.79,1.168 1.44,1.224"></path>
		<path id="path3936" d="m 2505.34,254.36 c -0.21,-0.865 -1.43,-1.729 -0.14,-2.016 -1.03,0.03 -3.01,-1.288 -3.75,-0.07 0.74,0.163 1.59,0.292 2.24,0.72 0.11,0.191 0.15,0.397 0.1,0.619 0.1,0.321 1.28,0.535 1.55,0.749"></path>
		<path id="path3938" d="m 2503.40,209.14 c 0.29,-0.97 -0.95,-0.923 -1.44,-0.504 0.49,0.132 0.97,0.3 1.44,0.504"></path>
		<path id="path3940" d="m 2506.64,253.85 c 0.69,-1.102 1.79,0.11 2.59,-0.72 -0.57,-0.438 -0.87,-1.687 -1.8,-1.368 0.22,0.258 0.44,0.521 0.65,0.792 -0.73,0.339 -1.39,0.896 -2.23,0.936 0.26,0.12 0.52,0.24 0.79,0.36"></path>
		<path id="path3944" d="m 2515.42,252.85 c -0.23,-0.558 0,-0.654 0.65,-0.288 -0.48,-0.402 -0.96,-0.402 -1.44,0 0.26,0.1 0.52,0.192 0.79,0.288"></path>
		<path id="path3946" d="m 2522.70,249.89 c -0.12,0.691 -3.11,0.678 -3.68,1.008 2.33,0 4.52,-0.936 6.77,-0.936 -0.55,-0.238 -1.05,-0.551 -1.51,-0.937 1.97,-0.192 -2.18,-2.54 -2.09,-0.432 1.04,-0.248 1.72,0.848 0.51,1.297"></path>
		<path id="path3948" d="m 2530.62,250.83 c 0.89,-0.376 1.94,-0.331 2.87,-0.576 -2.46,-0.251 -4.94,-0.419 -7.41,-0.288 0.67,0.14 1.25,0.543 1.94,0.612 0.86,0.09 1.78,-0.188 2.6,0.252"></path>
		<path id="path3950" d="m 2534.94,248.96 c 0.24,-0.267 0.35,-0.579 0.35,-0.937 -0.53,-0.198 -1.03,-0.15 -1.51,0.145 0.16,0.536 0.58,0.883 1.16,0.792"></path>
		<path id="path3952" d="m 2543.65,246.58 c 0.1,-0.363 0.23,-0.675 0.5,-0.937 -0.47,-0.342 -0.97,-0.414 -1.51,-0.216 0,0.585 0.45,1.014 1.01,1.153"></path>
		<path id="path4038" d="m 2433.92,159.24 c -1.5,-0.358 -2.41,0.877 -4.08,0.377 -1.92,-0.577 -2.56,-1.95 -4.13,-2.896 1.57,0.435 3.07,0.983 4.71,1.11 1.55,0.12 2.51,-0.658 3.98,-0.679 3.07,-0.04 5.67,2.599 8.01,4.249 -1.99,-1.05 -7.17,-3.1 -9.43,-2.304 0.31,0.05 0.63,0.1 0.94,0.143"></path>
		<path id="path4040" d="m 2511.75,254.43 c -0.9,-0.338 -0.71,-1.509 -1.66,-1.8 0.5,0.129 1,0.177 1.52,0.144 -0.91,-0.19 -2.06,-1.936 -0.71,-1.518 0.64,0.201 2.52,1.229 2.87,1.806 -0.76,0.287 -1.07,1.591 -1.95,0.721 0,0.215 0,0.431 -0.1,0.647"></path>
		<path id="path4042" d="m 2513.05,252.34 c 0.71,-0.416 1.56,0.118 1.51,0.937 -0.57,-0.204 -1.08,-0.515 -1.51,-0.937"></path>
		<path id="path3778" d="m 482.50,226.13 c -1.082,0.282 -2.355,0.873 -2.952,1.872 1.086,-0.361 2.226,-0.962 2.952,-1.872"></path>
		<path id="path4136" d="m 479.04,227.86 c -0.391,0.122 -0.631,0.386 -0.72,0.791 0.248,-0.256 0.488,-0.52 0.72,-0.791"></path>
		<path id="path4134" d="m 479.33,211.73 c -0.864,-0.536 -2.791,1.539 -2.376,2.376 0.489,-0.399 1.094,-0.107 1.584,-0.432 0.844,-0.558 0.645,-1.056 0.792,-1.944"></path>
		<path id="path4142" d="m 464.50,222.97 c -0.994,-0.269 -1.852,0.537 -2.232,1.368 0.675,-0.566 1.497,-0.896 2.232,-1.368"></path>
		<path id="path4152" d="m 465.15,222.03 c -0.328,0.15 -0.567,0.39 -0.72,0.72 0.24,-0.24 0.481,-0.479 0.72,-0.72"></path>
		<path id="path4166" d="m 469.25,218.36 c -0.255,0.01 -0.496,0.08 -0.72,0.218 0.24,-0.07 0.48,-0.146 0.72,-0.218"></path>
		<path id="path3772" d="m 473.93,205.90 c 0.505,-0.09 1.009,-0.184 1.512,-0.287 -0.578,0.178 -2.945,1.105 -1.008,1.295 -1.783,0.479 -2.987,1.519 -4.32,2.736 1.157,0.279 2.673,-0.593 3.672,-1.08 0.594,-0.29 0.886,-0.987 1.512,-1.224 0.781,-0.295 1.476,0.06 2.16,-0.576 -0.233,-0.178 -0.473,-0.346 -0.72,-0.504 1.09,0.09 1.577,-0.609 1.818,-1.563 0.163,-0.641 0.148,-1.459 0.486,-2.038 0.298,-0.512 0.924,-0.556 1.152,-1.151 0.418,1.345 -1.192,2.342 -0.936,3.672 0.644,-1.222 1.462,-3.555 2.448,-4.464 -0.987,0.03 -1.966,-0.23 -2.952,-0.07 0.1,-0.479 0.192,-0.96 0.288,-1.439 -0.817,-0.1 -2.391,2.206 -0.72,1.296 -1.638,1.653 -3.349,3.281 -4.392,5.399"></path>
		<path id="path3774" d="m 475.59,223.61 c 1.033,0.07 1.601,-0.881 2.232,-1.513 -0.335,0.542 -0.743,1.022 -1.224,1.44 1.08,-0.56 2.088,-1.103 2.664,-2.232 -0.231,1.418 -1.776,2.242 -3.024,2.592 0.861,0.359 1.702,-0.257 2.232,-0.863 -0.258,0.537 -0.724,0.97 -1.296,1.151 1.562,0.846 4.058,-1.817 4.889,-2.862 0.463,-0.583 1.113,-1.766 0.491,-2.464 -1.039,-1.167 -2.381,0.781 -3.507,0.575 1.988,0.09 -0.347,0.648 -0.72,0.72 1.836,0.142 -0.07,0.412 -0.515,0.574 -0.464,0.169 -0.162,0.772 -0.627,0.941 -0.725,0.263 -2.427,0.891 -1.595,1.941"></path>
		<path id="path3654" d="m 228.12,238.59 c -1.117,-1.896 -5.004,1.186 -6.024,1.716 -2.664,1.385 -5.575,2.505 -8.304,3.828 4.765,-1.866 9.827,-3.042 14.328,-5.544"></path>
		<path id="path3656" d="m 226.76,240.61 c 2.277,0.257 4.839,-1.225 7.067,-1.644 1.237,-0.233 5.141,-1.143 5.677,-2.459 -0.492,0.17 -0.996,0.29 -1.512,0.36 0.884,-0.555 4.065,-0.885 3.888,-2.377 -0.966,0.546 -2.002,0.944 -3.024,1.368 0.455,-0.466 0.863,-0.97 1.224,-1.512 -1.312,0.02 -6.744,1.767 -2.952,2.448 -0.617,0.303 -1.232,0.05 -1.873,0.108 -0.723,0.07 -1.097,0.76 -1.872,0.684 0.605,1.309 -6.614,2.314 -7.344,2.664 0.241,0.12 0.481,0.24 0.721,0.36"></path>
		<path id="path3658" d="m 240.22,236.86 c 0.646,-0.271 1.291,-0.585 1.8,-1.08 -0.695,0.231 -1.595,0.188 -1.8,1.08"></path>
		<path id="path3660" d="m 245.26,234.20 c 0.76,-0.377 1.661,-0.3 2.376,-0.793 -1.854,0.188 0.549,-0.815 -1.126,-0.698 -0.826,0.06 -1.809,0.558 -2.042,1.418 0.264,0.03 0.527,0.05 0.792,0.07"></path>
		<path id="path3662" d="m 248.14,233.55 c 0.694,-0.446 1.259,-1.055 1.944,-1.512 -0.903,0.02 -1.663,0.679 -1.944,1.512"></path>
		<path id="path3664" d="m 249.22,234.13 c 0.138,-0.58 -0.102,-0.652 -0.72,-0.217 0.24,0.07 0.48,0.145 0.72,0.217"></path>
		<path id="path3666" d="m 252.03,233.48 c -0.527,-0.07 -1.007,0.05 -1.44,0.36 0.527,0.07 1.007,-0.05 1.44,-0.36"></path>
		<path id="path3668" d="m 257.07,229.45 c -1.382,0.604 -1.255,1.708 0.297,1.679 1.647,-0.03 2.891,-1.342 4.455,-1.679 1.585,-0.342 3.381,0.28 4.877,-0.466 0.232,-0.116 1.002,-0.667 1.305,-0.502 0.583,0.318 1.478,0.887 1.667,-0.184 -1.673,0.244 -0.09,-1.581 -0.07,-2.232 -2.136,-0.498 -4.079,1.111 -6.127,0.785 -2.157,-0.344 -4.368,2.118 -6.402,2.599"></path>
		<path id="path3670" d="m 269.67,230.45 c -0.506,0.08 -0.69,0.135 -0.72,0.72 0.568,0.15 1.048,0 1.44,-0.433 -0.24,-0.09 -0.48,-0.191 -0.72,-0.287"></path>
		<path id="path3672" d="m 277.44,226.49 c -0.624,-0.06 -1.985,0 -1.512,1.009 0.568,-0.239 1.073,-0.575 1.512,-1.009"></path>
		<path id="path3730" d="m 390.84,190.93 c -0.479,-0.146 -1.144,0.261 -1.512,0.504 0.56,0 1.064,-0.165 1.512,-0.504"></path>
		<path id="path3732" d="m 393.36,182.21 c -0.566,-0.299 -1.778,0.771 -2.232,1.008 0.763,-0.291 1.508,-0.63 2.232,-1.008"></path>
		<path id="path3742" d="m 414.39,185.96 c -0.734,0.712 -1.8,0.917 -2.52,1.656 1.657,-0.238 3.388,-0.737 4.716,-1.8 1.376,-1.101 3.496,-0.824 4.716,-2.161 -1.147,0.229 -0.667,-0.126 -0.144,-0.647 -2.091,1.261 -4.309,2.601 -6.768,2.952"></path>
		<path id="path3746" d="m 418.64,182.65 c 0.05,-0.191 0.1,-0.383 0.144,-0.574 -0.939,0.14 -3.114,1.438 -3.168,2.519 0.737,-0.747 1.92,-1.854 3.024,-1.945"></path>
		<path id="path3748" d="m 418.56,179.98 c -0.404,0.213 -0.594,0.25 -0.576,0.792 0.193,-0.264 0.384,-0.529 0.576,-0.792"></path>
		<path id="path3752" d="m 420.87,178.69 c -0.646,0.179 -1.207,0.595 -1.656,1.08 0.691,-0.116 1.605,-0.166 1.656,-1.08"></path>
		<path id="path3754" d="m 427.71,182.86 c -0.408,-0.625 -1.435,-0.597 -2.063,-0.486 -0.463,0.08 -2.718,0.846 -0.961,0.846 -0.589,0.105 -1.069,0.394 -1.44,0.864 1.42,-0.619 2.944,-0.959 4.464,-1.224"></path>
		<path id="path3760" d="m 435.27,185.96 c -1.104,0.404 -2.319,0.656 -3.24,1.439 1.143,-0.619 2.413,-0.925 3.6,-1.439 -0.119,0 -0.239,0 -0.36,0"></path>
		<path id="path3700" d="m 343.90,213.17 c -0.839,-0.06 -1.687,0.08 -2.231,0.792 0.836,0.216 1.664,-0.206 2.231,-0.792"></path>
		<path id="path3706" d="m 356.14,208.93 c -1.189,-0.698 -3.441,-0.454 -3.744,1.151 1.243,-0.402 2.46,-0.882 3.744,-1.151"></path>
		<path id="path3712" d="m 362.98,200.86 c -0.459,0.09 -0.819,0.329 -1.08,0.72 0.504,0.158 1.008,0.158 1.513,0 -0.144,-0.241 -0.289,-0.48 -0.433,-0.72"></path>
		<path id="path3718" d="m 366.51,202.45 c -0.365,-0.131 -0.286,-0.266 -0.72,0.144 0.24,-0.05 0.48,-0.1 0.72,-0.144"></path>
		<path id="path3720" d="m 372.84,197.19 c -0.789,-0.47 -1.868,0.24 -2.232,0.937 0.808,-0.117 1.605,-0.396 2.232,-0.937"></path>
		<path id="path3722" d="m 371.69,197.05 c -0.284,0.07 -0.548,0.194 -0.792,0.359 0.264,-0.12 0.528,-0.239 0.792,-0.359"></path>
		<path id="path3724" d="m 373.06,200.00 c -0.314,0.08 -0.578,0.244 -0.792,0.504 0.265,-0.168 0.528,-0.336 0.792,-0.504"></path>
		<path id="path3674" d="m 282.27,225.05 c -0.412,-0.209 -0.795,-0.161 -1.152,0.145 0.821,-0.452 0.965,-0.284 0.432,0.504 0.24,-0.216 0.481,-0.433 0.72,-0.649"></path>
		<path id="path3676" d="m 291.20,222.97 c -1.224,0.03 -2.292,0.96 -2.808,2.016 0.456,-0.101 1.012,0.163 1.438,-0.02 0.749,-0.327 1.418,-1.415 2.09,-1.921 -0.417,0.42 -0.921,0.612 -1.512,0.576 0.25,-0.234 0.514,-0.45 0.792,-0.649"></path>
		<path id="path3678" d="m 292.56,225.70 c 1.11,-0.146 1.782,-0.99 2.521,-1.729 -0.604,0.661 -1.554,0.646 -2.309,1.017 -0.995,0.488 -2.33,1.551 -3.163,2.295 0.889,-0.702 2.031,-0.933 2.951,-1.583"></path>
		<path id="path3680" d="m 293.07,223.40 c -0.486,-0.165 -1.153,0.233 -1.512,0.504 0.603,0.351 1.186,0.04 1.512,-0.504"></path>
		<path id="path3682" d="m 294.94,222.68 c -0.44,-0.323 -1.138,0.02 -1.439,0.36 0.489,-0.08 0.969,-0.203 1.439,-0.36"></path>
		<path id="path3684" d="m 297.24,224.33 c -0.99,0.05 -1.48,1.123 -2.304,1.512 0.972,-0.05 1.656,-0.899 2.304,-1.512"></path>
		<path id="path3686" d="m 296.45,225.77 c -0.5,0.282 -0.979,0.595 -1.44,0.937 0.59,-0.09 1.108,-0.45 1.44,-0.937"></path>
		<path id="path3688" d="m 295.73,185.96 c 0.235,-0.06 3.261,1.375 3.528,1.943 0.285,-1.387 3.478,-1.018 4.464,-1.116 1.245,-0.124 3.115,-2.434 3.6,-3.492 -0.374,0.1 -0.71,0.03 -1.008,-0.2 -0.729,-0.401 -1.601,0.02 -2.375,-0.05 -1.083,-0.107 -2.636,0.366 -3.543,0.946 -0.935,0.598 -5.649,-0.568 -4.666,1.971"></path>
		<path id="path3690" d="m 319.20,196.69 c -0.24,0.264 -0.48,0.528 -0.721,0.792 1.686,0.216 3.296,-1.161 4.608,-2.016 -1.264,0.507 -2.673,0.575 -3.887,1.224"></path>
		<path id="path3694" d="m 323.81,213.39 c -0.24,0.144 -0.48,0.288 -0.72,0.432 0.572,0.09 1.076,-0.05 1.512,-0.432 -0.264,0 -0.527,0 -0.792,0"></path>
		<path id="path3696" d="m 328.42,218.79 c -0.683,0.02 -1.262,0.499 -1.44,1.151 0.521,-0.331 1,-0.715 1.44,-1.151"></path>
		<path id="path3698" d="m 341.67,213.32 c -1.26,-0.326 -3.014,0.573 -3.744,1.584 1.223,-0.582 2.621,-0.79 3.744,-1.584"></path>
		<path id="path3702" d="m 344.76,213.61 c -0.565,-0.07 -1.069,0.07 -1.512,0.433 0.544,0 1.048,-0.149 1.512,-0.433"></path>
		<path id="path3704" d="m 347.64,210.73 c -0.762,0.266 -1.52,0.551 -2.231,0.936 1.332,0.869 4.142,-0.795 5.256,-1.512 -0.26,-0.175 -0.524,-0.343 -0.792,-0.504 2.064,-0.361 4.496,-0.865 6.479,-1.512 -0.07,-0.265 -0.142,-0.528 -0.216,-0.792 0.78,0 3.153,0.736 3.678,-0.1 0.53,-0.845 -1.034,-0.967 -1.446,-0.837 1.457,-0.565 2.596,0.461 3.87,0.142 1.052,-0.263 1.948,-1.019 2.897,-1.509 -0.48,-0.159 -0.96,-0.159 -1.44,0 0.145,-0.613 2.83,-2.011 1.43,-2.393 -0.759,-0.207 -2.804,0.749 -3.23,1.385 0.235,-0.514 0.681,-0.917 1.225,-1.08 -0.491,-0.355 -0.995,-0.692 -1.512,-1.009 0.266,2.242 -3.378,0.903 -2.88,2.304 -0.518,-0.457 -1.119,-0.302 -1.512,0.217 0.434,-0.439 0.77,-0.943 1.008,-1.512 -1.075,-0.209 -2.062,0.288 -2.88,0.936 0.235,0.222 0.475,0.438 0.72,0.648 -0.497,0.148 -1,0.269 -1.512,0.359 0.111,0.268 0.231,0.532 0.36,0.792 -1.056,-0.747 -2.204,1.078 -2.232,1.944 -0.591,-0.819 0.899,-2.137 0.37,-2.629 -1.024,-0.951 -3.759,0.63 -4.697,1.078 -1.75,0.834 -1.728,1.571 -2.743,2.973 -1.784,2.466 1.688,0.772 2.678,0.09 -0.79,-0.172 -1.55,0.147 -2.232,0.504 0.673,-0.942 1.968,-0.979 2.952,-0.574 -0.513,0.247 -1.017,0.51 -1.512,0.791 1.108,-0.113 2.059,-0.736 3.096,-1.08 -0.676,0.545 -1.583,0.634 -2.232,1.224 1.911,-0.381 -0.408,0.673 -0.72,0.72"></path>
		<path id="path3710" d="m 360.24,202.23 c -2.642,0.12 1.751,1.925 0,0"></path>
		<path id="path3714" d="m 364.20,202.01 c 1.432,-0.165 2.563,-1.115 3.815,-1.728 -0.273,0.204 -0.538,0.42 -0.792,0.647 1.152,-0.18 2.066,-0.372 3.024,-1.08 -0.574,1.754 1.74,0.154 2.16,-0.288 -0.594,-0.101 -1.098,0.07 -1.513,0.506 0.401,-0.449 0.881,-0.786 1.44,-1.01 -0.815,0.197 -1.559,-0.476 -2.232,0.288 0.305,-1.304 -2.115,-1.036 -2.392,-0.114 -0.323,1.075 -2.701,-0.467 -2.288,1.194 -1.188,-0.118 -2.809,0.434 -1.222,1.585"></path>
		<path id="path3726" d="m 373.92,190.71 c -0.554,0.06 -1.058,0.254 -1.512,0.576 0.605,0.08 1.109,-0.115 1.512,-0.576"></path>
		<path id="path3728" d="m 377.24,194.38 c -0.499,-0.273 -1.124,-0.08 -1.512,0.288 0.517,-0.03 1.021,-0.123 1.512,-0.288"></path>
		<path id="path3708" d="m 361.39,157.95 c -0.109,-0.989 -1.965,-0.04 -2.304,0.287 0.774,0.127 1.598,0.09 2.304,-0.287"></path>
		<path id="path3796" d="m 311.64,161.26 c 1.564,-1.094 2.794,-2.55 4.752,-2.16 0.647,0.128 1.104,0.764 1.719,0.982 0.735,0.261 1.523,-0.32 2.385,0.02 -1.199,1.456 -2.848,0.868 -4.464,1.08 1.985,-0.277 -1.044,0.101 -1.556,0.335 -0.975,0.447 -1.874,1.079 -2.908,1.394 0.441,-0.408 0.657,-0.912 0.648,-1.513 -0.193,0.263 -0.386,0.527 -0.576,0.793 0.08,-0.313 0.08,-0.625 0,-0.936"></path>
		<path id="path3800" d="m 411.65,185.96 c 0.736,-0.426 1.497,-0.809 2.304,-1.08 -0.594,0.645 -1.49,0.868 -2.304,1.08"></path>
		<path id="path3802" d="m 412.52,185.45 c -0.474,0.247 -0.978,0.367 -1.512,0.359 0.863,-0.106 1.412,-0.924 2.304,-0.936 -0.265,0.194 -0.528,0.385 -0.792,0.577"></path>
		<path id="path3814" d="m 480.92,199.28 c 0.277,0.162 0.445,0.402 0.504,0.72 -1.575,0.63 -1.861,-1.039 -0.504,-0.72"></path>
		<path id="path4118" d="m 463.42,213.32 c 0.707,-0.302 1.371,-1.173 2.232,-0.792 -1.808,0.95 -3.022,1.9 -2.952,4.104 1.768,-0.656 3.059,-2.504 4.242,-3.878 0.619,-0.718 1.178,-1.447 1.704,-2.236 0.735,-1.105 0.957,-2.627 1.83,-3.606 -0.642,-0.443 -1.454,-0.952 -2.232,-0.432 1.761,-0.473 -0.458,-0.444 -1.178,0 -0.45,0.282 -1.806,1.496 -0.478,1.579 -0.394,0.32 -1.481,1.12 0.07,0.504 -1.399,0.345 -1.4,2.438 -2.952,2.664 1.997,0.275 -1.011,1.591 0.936,0.937 -0.509,0.277 -0.917,0.66 -1.224,1.151"></path>
		<path id="path4120" d="m 464.79,218.07 c 0.506,-0.213 0.797,-0.595 0.952,-1.111 0.145,-0.482 1.186,-0.574 1.496,-0.979 -1.154,1.611 0.566,0.06 0.865,-0.147 0.516,-0.357 1.077,-0.496 1.588,-0.946 0.507,-0.446 0.608,-1.155 1.097,-1.604 0.296,-0.119 0.59,-0.09 0.881,0.08 0.609,-0.05 1,-0.742 1.257,-1.201 -0.854,-0.05 -1.507,0.544 -2.304,0.72 0.953,-0.433 2.534,-1.467 1.008,-2.376 0.195,1.692 -0.815,-0.458 -1.368,1.08 -0.31,-0.935 -1.279,0.443 -1.584,0.936 1.804,-0.323 -0.06,0.923 -0.576,1.009 2.623,0.85 -3.106,2.362 -1.008,1.943 -1.065,0.434 -2.218,1.353 -2.304,2.594"></path>
		<path id="path4122" d="m 465.65,202.88 c -0.456,0.816 0.159,1.543 0.504,2.231 -1.29,0 -0.375,0.471 -0.36,1.44 -0.658,-1.368 -0.907,0.532 0.657,0.176 0.835,-0.19 2.696,-2.204 0.855,-1.905 0.592,0 0.952,-0.331 0.936,-0.936 1.096,0.479 1.798,2.384 3,2.48 1.051,0.08 1.903,-1.35 2.327,-2.121 -0.628,-0.421 -1.205,-0.04 -1.872,-0.107 -0.648,-0.06 -0.843,-1.167 -1.368,-1.477 1.419,-0.121 2.15,1.483 3.672,0.864 -0.161,-0.245 -0.329,-0.485 -0.504,-0.72 0.605,0.146 2.917,-0.449 1.739,-1.341 -1.534,-1.162 -3.038,0.504 -4.475,0.909 0.55,-1.126 2.166,-0.766 2.664,-1.944 -1.114,-0.528 -3.715,-0.543 -4.464,0.647 0.265,-1.329 -0.602,-0.317 -1.216,0.149 -0.608,0.462 -0.355,1.261 -0.152,1.867 -0.157,-0.57 -0.634,-0.894 -1.224,-0.792 0.314,-0.294 0.506,-0.654 0.576,-1.08 -0.763,0.269 -1.93,0.965 -1.8,1.944 0.167,-0.09 0.336,-0.188 0.504,-0.284"></path>
		<path id="path4124" d="m 471.56,206.77 c -0.304,-0.205 -0.616,-0.205 -0.936,0 0.07,0.263 0.193,0.503 0.359,0.72 0.219,-0.219 0.411,-0.459 0.577,-0.72"></path>
		<path id="path4126" d="m 471.70,214.61 c 0.718,-0.07 1.55,-0.256 2.232,-0.36 0.564,-0.09 3.297,-1.042 1.44,-1.224 0.545,-0.247 0.931,-0.743 0.792,-1.369 1.013,3.033 3.512,-1.043 2.376,-1.655 -0.838,-0.439 -6.248,-1.06 -4.464,0.936 -1.241,-0.121 -0.852,1.042 0.07,0.288 -0.7,0.8 -2.847,2.083 -2.448,3.384"></path>
		<path id="path4130" d="m 477.39,214.40 c -0.762,0.194 -3.667,-0.06 -3.043,1.523 0.437,1.112 2.806,-0.956 3.043,-1.523"></path>
		<path id="path4132" d="m 478.39,215.40 c -0.711,-0.278 -2.84,0.758 -3.084,1.485 -0.197,0.588 0.729,1.164 0.564,1.899 1.13,-0.202 1.486,-1.539 2.592,-1.729 -0.31,-0.553 -0.885,-0.858 -1.512,-0.647 0.601,-0.11 1.124,-0.49 1.44,-1.008"></path>
		<path id="path4140" d="m 465.36,207.41 c -0.917,0 -2.981,1.936 -3.384,2.735 1.028,-0.04 4.124,-1.245 3.384,-2.735"></path>
		<path id="path4144" d="m 464.14,218.93 c -0.259,-0.77 -1.614,0 -1.584,0.648 0.513,-0.253 1.041,-0.468 1.584,-0.648"></path>
		<path id="path4146" d="m 463.56,222.68 c 0.313,-0.243 0.577,-0.531 0.792,-0.864 -0.512,0.224 -1.016,0.464 -1.512,0.721 0.24,0.05 0.481,0.1 0.72,0.143"></path>
		<path id="path4148" d="m 465.51,224.26 c -1.367,0.129 -4.114,4.308 -1.896,4.674 0.792,0.131 0.835,-1.48 0.744,-1.938 -0.114,-0.569 0.702,-2.218 1.152,-2.736"></path>
		<path id="path4150" d="m 464.93,223.54 c -0.736,0.05 -1.45,0.402 -1.8,1.08 0.787,0.113 1.717,-0.147 1.8,-1.08"></path>
		<path id="path4154" d="m 465.94,227.14 c -0.767,-0.803 -1.285,0.454 -1.08,1.08 0.09,-0.574 0.517,-0.979 1.08,-1.08"></path>
		<path id="path4156" d="m 467.81,225.92 c -0.24,0.144 -0.48,0.288 -0.72,0.432 2.166,-0.09 -1.504,1.782 0.576,1.368 -0.278,0.173 -0.542,0.365 -0.792,0.576 1.303,1.472 3.366,-1.218 4.032,-2.16 -0.498,0.117 -1,0.189 -1.512,0.216 1.081,-0.473 2.078,-1.101 3.024,-1.8 -0.51,0.1 -1.014,0.07 -1.512,-0.07 0.58,-0.07 1.078,-0.438 1.368,-0.936 -0.424,-0.41 -0.928,-0.578 -1.512,-0.504 0.519,-0.162 1.046,-0.282 1.584,-0.36 -0.69,-0.753 -1.603,-0.31 -2.376,0 1.007,-0.529 2.208,-1.422 3.024,-0.07 0.373,-0.72 0.804,-2.658 0.859,-3.472 0.06,-0.898 -1.061,-1.24 -1.724,-1.424 0.543,-0.584 1.521,-1.29 1.224,-2.232 -1.364,0.226 -2.547,-0.17 -3.672,0.864 0.443,0.378 0.947,0.498 1.512,0.36 -0.49,0.98 -4.043,0.233 -4.536,2.231 1.267,-0.672 3.202,-0.395 4.176,-1.584 -0.537,1.132 -2.003,1.668 -2.088,2.521 0.271,-0.207 0.535,-0.423 0.792,-0.648 -0.472,1.098 -2.723,0.839 -2.521,2.304 0.78,0 1.472,-0.395 2.232,-0.504 -0.94,0.563 -2.02,1.121 -1.296,2.376 -1.062,0.106 -2.276,-0.653 -2.952,0.576 0.499,0.142 1.002,0.166 1.512,0.07 -1.809,0.648 0.39,0.38 0.792,0 -0.589,0.938 0.783,1.271 1.008,0.216 -0.03,0.589 -0.392,1.079 -0.936,1.296 0.894,-0.436 1.038,-0.316 0.434,0.36"></path>
		<path id="path4158" d="m 465.08,219.15 c 0.419,0.135 0.731,0 0.936,-0.432 -0.37,0.02 -0.682,0.162 -0.936,0.432"></path>
		<path id="path4160" d="m 466.88,224.69 c -0.349,0.533 -0.787,1.073 -1.368,1.368 0.861,0.286 1.672,-0.499 1.368,-1.368"></path>
		<path id="path4162" d="m 466.59,221.96 c -0.315,0.03 -0.579,0.171 -0.792,0.432 0.264,-0.144 0.528,-0.288 0.792,-0.432"></path>
		<path id="path4164" d="m 468.24,219.80 c -0.604,0.09 -2.926,-0.628 -2.016,0.792 0.525,-0.73 1.295,-0.49 2.016,-0.792"></path>
		<path id="path4168" d="m 475.44,226.35 c -0.671,0.138 -1.389,0.191 -1.944,0.648 0.743,0.482 1.623,0.16 1.944,-0.648"></path>
		<path id="path4170" d="m 474.94,222.89 c -0.664,0.367 -1.56,1.061 -1.151,1.944 0.622,-0.379 1.817,-1.041 1.151,-1.944"></path>
		<path id="path4172" d="m 475.88,224.33 c -0.772,-0.627 -1.893,1.201 -2.088,1.728 1.033,0.444 2.307,-0.643 2.088,-1.728"></path>
		<path id="path4176" d="m 469.54,219.22 c -0.247,0.237 -0.511,0.453 -0.792,0.648 -0.169,-0.744 0.1,-0.961 0.792,-0.648"></path>
	</g></svg>
