<svg xmlns="http://www.w3.org/2000/svg" viewBox="396.9 133.8 487.2 487.2"><g fill="#2b1d24"><path d="M274.9 226.2q-.7.6-1.6.6c.6-1-1-1.9-1-.8-.2 1.2-2 1.6-3.1 1.7q2.4-2.4 5.8-3.4c-1.9.5 0 .5.4.3l2-1c1.9-.3 2.8-1.2 4.5-2q5.2-2.4 11-3.4c-1.8.4 1.8.1 2.3 0-1 .7-1.5 1-1.8 2.2 1 .3 3.2-3 3.6-.5q.4 0 .7-.4c-2.5-2 10.6-5.9 11.3-6.1q2.7-.8 5.2-1.8c.9-.3 1.4 0 2.2.1 1 0 1.5-1 2.1-1.5 1.3-1.3 3.5-1.8 5-2.5 2-1 4.1-2 6.4-2.2-1.2 1.5 1.4.5 1.8.1q-.7.6-1.6.4c.8-.3 1-1.4 1.6-2q1.1-.9 2.4-1.6c1.1-1 3.5-3 5-1.8q-.6-.7-1.5-.3c.2-2 3.6-2.9 5-3.4 3-1 5.3-2.9 8.1-4.2-1.5.5-2.8 1.6-4.4 2l-3.8 1.2c-1.3.4-4.8 2-6 .8q.7-.4.5-1.3c-.1-.4 1.2-1 1.5-1.1.5-.4 2.6-1.2 2 .3q.7 0 .8-.6c-.6-.2-1.3-.7-1.1-1.4q-.7 1-1.9 1.5c-.5.3-3.4 1.6-1.7.1-1 1-3 1.7-3.6 2.8-.4.9-1.6 2.1-2.7 1.7-1-.5 1.5-3.4-.2-3.4l.8-.5c-1.1-.4-2.2.7-3.1 1l.5-.8q-.9.3-1.2-.7l.7-.3c-1.6-1-6 1.4-7.8 1.6-1.3.1-2.3 1-3.6 1.4q-.8 0-1.4.3c-.6.3-1-.5-1.8-.3 1.1-1 3.3-.3 4.1-1.6 1.2-1.9 1.6-1.5 3.6-2.3q-1.2-.2-2.3.1c.7-2.2 3.5-2 5.2-3.2.6-.4 1-2.3 1.5-3q1.1-1.6 2.8-2.6-.8 0-1.5.4c2.1-2.5 5.3-3.1 8.2-4.4-.8.2-1.7 1-1.4-.2-.5.8-7.7 3.6-7.6 4 1.1 2.6-11.9 3.4-13.3 3.1.2-.9 1-1 1.7-1.3-1.1-.3-.8-2.2 0-2.6-1.6 1-2.6-.6-.5-1.3q-.8-.3-1.5 0c1-1.3 2.9-1.3 4.2-2l1.3-.7c.7-.7 1.3-.3 2-.6-1.1 1.2.4.5 1 1.2.4.5-2.4 1.4-2.8 1.5 1.8-.3 3.4-1.4 5.2-1.7q-.4 1-1 1.5c.8.2 2.5-.2 3.2-1 .6-.6-.2-1-.8-1l2.2-.5q-1.5 0 0-.5c-1.7 0-3.2 1.1-5 .8-1.2-.2-2.9-1-4-.3.2-1 2.5-1.4 3.4-1.5q-.9-.3-1.5.3 0-1 1-1.1l-1.5.4c.3-1 1.6-1.2 2.3-1.7-1.7.3-2.8 2.6-4.6 2.3-.2-1 1-1 .4-1.8-.5-.7 1.8-1.3 2.1-1.5q-.6-.6-1.4-.3c.4-1.6 2.2-1 3.4-1.2-1.7.1.2-1.2 1.2-1.1 1.5 0 3.4-2 4.7-2.7l5.8-2.3c.6-.2 1.4-.6 2-.4 1 .2.3 1-.2 1.1l1.5-.6c-2-.3 3-2 3.7-2.3l-3.2 1.1c1.2-1.7 4.7-3.8 6.9-3-1.2-1.4 2.9-1.9 3.5-2q1 0 1.9.5c1 .7-2.3 1.4-2.6 1.6 2.5-1 5.3-.4 7.8-1.5q3.5-1.6 7.4-2.7l-.8.7c3.8.1 7.3-.3 10.7-2.2q1.8-1.2 3.3-2.8c.7-.6 2.4-3.5 0-2.5.7-.3 9.5-1.7 7.4-3.7l1.1-.3c-1.3 0-2.5.7-3.7 1.1s-2.6-.2-3.8.5c2-.4-.8.3-1 .4l-2.7.5c-2 .4-3.5 1.6-5.3 2 1-1 1.2-2.6-.8-2l.8.7c-.8.4-1.2 1.1-1.7.4q-.6-.6-1.4-.8a10 10 0 0 0-3.6 0c-2.7.2-4.7 1-7.5.5-.4-.1-4.4-.7-3.4-1.7.4-.4 2-.6 1.7-1.4-.5-1.4.8-2.6 2-2.8l-1.5.8c.9.8 2 .2 2.9-.3s1.8-.2 2.8-.1c-1.2-1.6-4-1.2-5.7-1.4-.6 0-1.4-1-1.6-1.5-.4-.8 2.2-1.1 2.7-1.2l-2.3.7c1.8.5 3.5-.7 5.2-1.2 1.5-.4 3.2 0 4.6-1 3-2 6.9-.7 10-1.4l-.7-.5c1.4-1.6 4.2-1.4 6.2-1.6 3.2-.3 6.3-1.8 9.6-1.2-.9-.1-2.1 1-2.7 1.3q-1.9 1-3.9 1.7c.7-.2.6 0 .9.5.2.5 1.2.4 1.6.3h2.6c.6 0 3.1-.4 1.2.6 2-1 4.2.3 6.2-.5.8 0 3.2-2.4 5-1.1l-.9.7c.8-.3 1.7-.5 2.1-1.4-1.3-1-3-.7-4.5-.1.7-.6 2.4-1 2.3-2.1-.1-1-1.3-.8-.6-1.7 1.2-1.7 3.3.1 1.6 1-3.3 1.8 2.7 1.6 2.7 1.5 1.5 1.5 5.4 1.2 6.3-1l-1.6.3c-.7 0-1.3-.6-2-.4-1.3.2-2.6 1.2-3.9.8-2-.8 2.8-3.2 3.8-3.1-.4-1.6-2.8.1-2.8-.9q-.6.6-1.6.6 1-.7 2.3-1.2c-1-.1-1.7.6-2.4 1-1 .3-3.2 0-4.2-.3-2.4-.5-.4-1.3.4-2.4 1-1.5.3-4-1.6-4.9-.6-.3-1.7-.1-1.8-1-.3-1.2-1-1.1-2.1-1.2 2.6-.2 4.8-1.5 7-2.7 2.6-1.4 4.7-1 7.5-1.2a62 62 0 0 0 15.8-3.3c2.9-.5 5.4-2.9 8.3-3.7 3.4-1 6.7-3 10.4-3.5-.7.3-.7.9-1.4 1q3.8-.4 7.6-1.3c2.3-.7 4.7-1.7 7-1.6q-1 .8-2.2.8c2.4-.3-.5.7-1 .9q1.3-.4.3.7l2.5-1.5c1.1-.6 2.4-.1 3.5-.4l-2.2.1c.3-.8-.4-1-1.1-.8 2.3-1 4.9-1.2 7.3-1.8l-1.5.6c3.2.8 8-.2 11.2-1l11.6-3.5-1.5.8c.4.2 3.6.5 2.9 1.3-1 1.3-3.7 1.4-5.2 1.4q.3 1-.7 1.1 2.2-.5 4.5-1.3l2.8-1c.4 0 3-1.1 1 .2.4-.2 1.6-.6 1.8 0 .3 1-1.8 1.2-2.3 1.3 1.4 1.4 3.8.2 5.5 0 2.3-.4 5.1-.4 7.4.1-.7.9-2 1.1-3 1.6q.7.3 1.5.4-1.6 0-3.1.2 2.2.2 4.6 0l-1.6.6q2 .8 4.2.3l2.5-.4c.5 0 2.6-.5 1.2.3 2.3 0 4.6-.6 7-.3.6 0 1.7.3 2.3.7.9.8 2.1.2 3 .7 2.3 1.3 4.7.6 7.1.9.8 0 2.5-.4 2.8.5.1.4 2.3 0 1 .7h4.2l2-.2q1.6-.7.6.2c1.4-1.6 5.3-1 7-.4 1.3.3 1.6 1.5 2.8 1.8 1 .2.9.3 1.4 1 .6.7 1.5-.3 2.2.2l-85.7 71.1q1.2.6 2.4.2c.9-.4 1.5.3 2.4.4 1 .2 2.2-.6 3.2-.9q1.7-.4 3.5 0c-.8.6-2 1-2.6 1.9-.5.9 1 1.1.8 2.1-.1 1.4.7 2.7 1.1 4 .5 1.1-.8 2.3-1.3 3.2 2.5-.9 5.1-1.3 7.5-2.4q1.5-.6 3-1.9l1-.1c.5-.3.5-.8 1-1q1.2-.5 2.6-.5c1-.2 3.2-1.3 4-1 3 1.5-1.7 2.8-.3 4.2.3.3 1.2.7 1 1.4-.4.6-.9 1.8-.3 2.3 1.9 1.5.7 2.4.4 4.2q-.6 2.4-1 4.9c0 1 0 2.6-.7 3.5-.4.5-1.4 1.3-.1 1.8-1.3.5-1.4 2.1-1.6 3.3 1.2-.2 3.4 1.3 4.3 2 1 .8.8 2.3 2.5 2-.5 1.3-1.7 1.7-2.7 2.4-1.4.9-1.7 2.5-2.8 3.6-2.2 2.2-6 3.9-8.5 5l1.2-1.6a5 5 0 0 1-2.2 1.5c.4-2.4 4.6-3.5 6.6-4.5-.6.2-5.1 2.4-4.8 1 .2-.8 3.2-.9 3.8-.9h-1.5c.8-1.2 2.8-2.6 3-4 0-1.8.8-1.6 2-2.6-1.6.6-3.2 1.6-5 1.5l1.4-.5c-.5.2-4 .7-3.8 1.2.1.9-.4.7-1 1.2-.8.8-.8 0-1.5.9-.4.6-1.8.6-1.3-.2q1-1.4 2.6-2 1.6-.9 2.7-2.2c.8-.8 2.2-.4 3.2-.5-.9-.3-1.8 0-2-1.2 0 .7-1.3 2-2 1.5-1.1-.7.7-2.3 1.2-2.7q-.1.9.7 1-.5-1 .1-1.8l-.8-.3c.9-.3 1.3-1.2 2.2-1.5-.7.3-1.3.5-1.8-.3-.5-1 .9-.9 1.1-1.7a1 1 0 0 1-1.5-1c-1 1-2 0-.8-.8 1-.5 2.2-.2 3.2-.5-.7 0-1.5.3-2.2 0 1.2-.4.3-1.8 2-1.9-1 .2-1.2-.7-.4-1 .6-.2 1.4.8 1.7 1.2.3-.9-1-1.2-.7-2 .5-1.3 2.3-.8 3.2-.5-1.3-.8-2.6-.3-3.7.5-.6-.9 1.5-2.3 2.3-2.6-.6 0-2.2 1.4-2.4.8-.3-.6.4-1.3.8-1.6q2-1.6 4.3-2.4c-1.4-.1-3 1-4 1.8-1.3 1.3-1.8-.5-3.2-.7q.7-.8.8-2c.2-.6 1-.8 1.4-1.3-1.6 1.3.2-2 .5-2.4q1.2-1.6 2.7-2.9-.8.6-1.7 1c-1 .5-.3.8-1 1.7-.3-1.5-1.3.6-1.8 1.3-.5.9-1.7 2-2 3-.4 1.2-1.3 2.5-2.6 2.8-1.2.2-.5-1.2-.2-1.6-.7.8-2.1.3-3 .4 1.4-1.8 2.4-3.6 4.7-4q-1-.6-1.6.2c1.1-1.9-1.7.7-2 .8-1.3.4-.5-1.5-.9-2-.2 1-1.3.6-1.5-.1-.4 1-1.9 1-2.7 1.5 1-.4 2 0 3-.1-.3.6-.7 2.1.6 1q-.7.6-1.6.9c.7 0 1.7-.7 2 .4-.8 0-.6.3-.7.9-.1.8-1.7 1-2.3 1.1 1.1-1.3-.6-.8-1.1-.5 1.7-.2-.1.3-.5.2-.7 0-.8 1-1.7 1 .9-1-3.9-2.3-1.6-3.4-1.1.4-1.2-.8-1-1.5q.4-1.8-1.5-2.2l1.2-.6c-1.1-.1-3.2.2-3.1-1.6-.9.7-1.3-.6-2-.9.8-.8 2-.9 2.8-1.6q.7-1.2 2-2c2.3-.9-.9 2.5-1 2.7.9-1 2.4-2.5 3.8-1.5-.7-.5-1.4-1.9-2.3-1.6-1.2.4-2.4 1.2-3.7 1.5q-4.4 1.5-8.4-.4c.7-.6 2-.8 2-1.8-1.1-.1-1.8 1-3.1.8l-5.1-1c-3-.5-6.2 1.9-9.1.7 1.8-.2-1.7-2.2-2.4-2.1 1.3-1.8 3.7-2 5.4-3.3-2.1.3-3.8 1.5-5.7 2.3-.5.2-1.5.7-2 .5-.7-.3-1.1-1.1-2-.8q1.5-1.1 3-1.6c-.3 0-3.5.6-1.5-.2l-2.3.4q1-.6 2.2-.9c-1.3 0-2.5.6-3.7.3 1-.7 2.8-1.2 4.1-1-.8-.5-2 .5-2.8 0-1-.9 3.2-2 4-2-1-.9-2.8 0-3.8.5-1.3.6-3 .5-4.4 1l.6-.7-1.5.6 2.2-1.9c-1.2.6-2.2 2.2-3.7 2.4l.7-.7a2 2 0 0 0-1.5.9c-1.3-1.3 3.8-3 4.4-3.5a19 19 0 0 0-3.6 1.6c-1 .6-2.3-.5-3.2.5.8 0 1.5-.5 2.3-.5-1.7 1.4-3.6 1.2-5.4 2 2-.1-1 .7-1.4 1 .8 0 1.5-.6 2.3-.7l-.6.7q.8-.1 1.5-.5c-1 1.8-3.4 1.5-5 2.1q2.2-.2 4.4-.8c.7 1.7-4.4 2-5.2 3q.8 0 1.4-.4c-.3.3-1.5 1.3 0 .4q-1.4 1-3.2 1.5l-1.7.5c-1 .5-2-.2-3-.2l1-.5c-1 0-2 .7-2.8 1.3l1.4-1.7c-1 0-4.3 1.8-4.3 2.8q-.2-.9.7-1.3c-.5.2-1.1 0-1.6.3-.5.4-.6 1.2-1.1 1.5 0-1.4-1-.4-1.6 0a17 17 0 0 1-4 1.6q1.3-1 2.9-1.8c-1.4.4-2.5 1.4-3.8 1.9l.6-.8c-1.2-.1-2.1 1.2-3.2 1.5-1.7.5-1.8.9-3.5.5.6 1.2-.4.6-1 .5-.8-.2-1.8.3-2.5.5s-1.3-.3-1-1c.1-.3 1-.5 1.2-.5q4.4-1.7 8.7-3c-1.5-.4-3.4 1.7-4.7.5-1.2-1 5.2-3.6 6.1-4q2-.8 3.6-2c.7-.6 1-2 2-2.2l8.8-2.5c0 1.3 1.2 1 2 .8 1.4-.4 3.4.1 4.8.6-1-1.2-5.1-1.6-2-3.2q3-1.3 6-1.6c-1.8-.9-3.8.7-5.5 1.3-.6.2-3.9 1.3-3.1-.4q-1.6 1-3.6 1.2c-1.4 0-2.4 1.1-3.8 1.4-1.4.4-2.7.3-4 1.2q-1.3.9-2.8 1.3a11 11 0 0 0-5.1 2.3c-1 .8-2.2 1-3.3 1.4-1.2.3-1.8-.9-2.8-.4 1.5-.3 1.2 1.7.3 2.2-1.9.9-3.7.7-5.6 1.4 1.6-.1.4 1-.2 1.2-.8.2-1.7 0-2.5.4 2.1-1.3-.4-.2-.8 0-.8.3-2 .4-2.7.8l-.7.8c-.6.3-2 .4-2.7.5 2 0-.5.5-1 .7q-1.6.5-2.6 1.8c1 0 2.6-.4 3.6.2 1.7 1.1-1.7 2.3-2.3 2.6-1.5.5-3.2.5-4.5 1.3-.6.5-1.3.4-2 1-.9.8-2.1.5-3 1.3q.7-.4 1.4-.5c-.7.5-3 2.7-3 1.1-.6 1-2.8 1-4 1.2q-1.6.4-3 1.2c-1.3.6-2.6.6-3.8 1-1.5.6-2.9 1.7-4.4 1.7-1 0-1.2 1-2 .7s-3 1-4 1.3c1.6-.2.1.8-.4 1.2-.8.6-2 .6-2.8 1.2q-1.1.5-2.5.6c-1.2.1-1.7.8-2.8 1.1-.5.2-.5-.6-1-.5-.5.3-2 .6-2.1 1.3s-1.1.8-1.8.6c-1.2-.3-1.8 0-3 .4 2 .2-1 .8-1.5.8a10 10 0 0 0-4.7 1.6c.7 0 1.4-.7 2.2-.3-.6.5-1 .7 0 .8-.6.4-1.4.3-2.2.7-.6.3-1 1-1.7 1.1q.5-1.1 1.8-1.5c-1-.5-2 .8-2.6 1.3-.9.6-2.3.9-3.3 1q-2-.2-3.9.7c-1.1.6-2.1 2-3.7 2q1.4-.6 2.4-1.7c-.9-.9-2.9.1-3.7.6q-.8.4-1.7.3c-.8 0-2 1-2.6 1.4.9-1.4-.5-.3-.9 0q-.7.5-1.7 0l-1.8.6c-1 .3-2 .1-3 .4a4 4 0 0 1 3.8-1.3c-1.6-2.2-4.6.7-6 1.6l-2.2.8c-.6.2-.9.9-1.5 1.2s-.4-1-1 0q-.9.8-2 .4c1-.3.9-1.2 1.1-2-1.5-.2-1.5 2.6-3 2.2m65-24.6c-2.3 1 1 1.8 1.6 2.5l-.8.7c.5-.3 1.5-.4 1.6-1 0-.7 1.5-.7 1.8-1.3-1.4-.6-2.6-1.4-4.2-.9m18.1-10.3c1.8.5 3.5-.7 5.2-.7 1.4 0 3.3.4 4.5-.5q-1.5.5.1-.3l2.5-.9q2.1-.4 4.3-1.2-2.7-.1-5.2.1-2 .7-4 1c-2.7.3-5.6.2-7.4 2.5m74.2 175.9c.6-2-2.1-3.7-1.6-5.9.5-2.4 2.7-4.7 2.8-7.2 0-1-1.6-3.2-1.3-3.9 1-2 2.1-3.7 4.2-4.6q-1.5.8-.2-.3 1-.8 1.4-2c.3-1.4 2-2.3 2.5-3.5.5-1 0-2.4.6-3.1 1-1.2.4-1.6.7-3 .1-1 .9-1.7 1.4-2.5.7-1 .5-1.8 1-2.8q.9-1.5 2.2-2.9c.3-.3 2.3-2.3 1.7-1.2q.5-.6 1.2-.6c.3-.1 1-1.5-.4-.3.8-1 1.7-2.6 3.1-2.7-1.5.4 0-.9.3-1.4l1.8-2.3c1-1.1 1.6-2.5 2.7-3.5 1.6-1.4 3.1-3.9 4.3-5.7.4-.7 1.3-2.4 2.3-2.3-.4-1 1-2.6 1.6-3.3.9-1 1.2-2.5 2.6-2.6 1 0 3.2 1 4 .2-.5.2-1.2-.4-1.7-.7-.9-.4-1.4-.1-2.3 0-1.3.2.3-2.3.5-2.7l-.7 1.5c1.3-.2 1.8-3 3.2-2.4q-.6-.6-1.6-.4c.3-1.6 1.7-1.6 3-2q-1 0-1.5-.7l-.6.7c.7-2.4 2.5-4.7 2.3-7.3 0-1.2 1.4-5 2.6-4.6 2 .5 3.3 1.6 5.3 1.9 1.3.2 4.4-.1 4.4 1.1q.3-.9 1.2-1c-.4.5-.1 1.2-.3 1.8s-1.9 1.5-2.5 2c1.6-1.7-.6-.1-1 0l-2.8 2.3c.7.7 1.5.1 2.2-.2q-.8.1-1.5.5c0-1.1 1.3-1.8 2.2-2.1q2-1 3.7-2.3c.5 1.1-2.4 1.9-2.8 3 1.4-.7 0 2-1.2 2.2l.6-.8c-.9.1-1.4 1-2 1.7q0-.9.8-1.5c-1 .4-1.8 1.5-3 1.7q1.5-.3 0 .5 1.2-1 .6.4.5-1.3 1.8-.8c.5.3 1.5-.7 1.8-1 1.3-.8 3.1-1.3 3.3-3.3.2-1.4 3.1-2.2 2.8-3.3s.7-1.6.4-2.6c-.2-.8-1.2.2-.6-1.1 1.7.8 2-1.2 2.8-2.1-1.1.1-.4-1.5 0-2l185.2-.1.4-3.3c0-.6 1.6-.4 1.9.9.3 1.7-2.2 4.4-.1 4.7.7.1 3.8.3 3.7 1.3s3.2-.4 3.8-.6c1.3-.6 2.8.6 4 .9q-.4 1 .6 1c-.3.3-.2 1.5.4 1.3.2 0 .4-.7.7-.7q1 .1 1.8 1l1 .4q-.1.7.5.8c2 0 3.8-1.3 5.7-1.3-.8 1.4 1.7 1.1 2.4 1q1 0 2 .3c1.4.8 1.9.6 3 .5A72 72 0 0 0 695 289l-4.7 2.8c-1.7 1-3.8 1.6-5.4 3 1.4 2 7.9-1.5 9.7-1.6-.2 1-1.3 2.2-2.2 2.7.5.1 1.4-.5 1.7-.3.5.5.4.6 1.3.6 1.5 0 3-1 4.3-1.5 1.5-.7 3.2-.3 4.7-1q3-1.3 5.8-2.9c-.3.7.2 1.2.4 1.9.1.7-.7 1.2-.8 1.9.3-.3 3.4-2.3 1.6-.6 1.9-1.5 3.3-.2 4.3 1.6.9 1.6 2 1 3.4 1.5 2.1.8 4.1-1.1 6.1-1.6 1.2-.3 2.4 0 3.5-.2q2.3-.1 4.5-.7-.8 1.2-1.2 2.5 2 .4 4 0c1.2-.2.9 2.2 0 2.4.8 0 1 1 1.5 1.6-1.4 1.3-3.6-.7-5.2.2l-1 1.1c-1 0-1-1.3-1.8-1.6-2.5-1-4 .8-6.4.7-2.6-.1-3.7 2.2-6 2.9.4-1 1.3-1.4 1.9-2-1.5.2-2.2 1.1-3.6 1.5l.6-1.5c-2.4 1-4.6 4-6.6 5.7l-1.3 1.5c-.6.5-1.4.4-2 .9-1 .7-2.2 1.9-2.4 3 1.7-.3 3.5-3.3 5.5-2.5.7.3-1.7 2.5-2 2.8-.8 1-1.2 2.3-2.2 3.2-1.9 1.8-2.7 4-4.5 5.9q-1.5 1.5-2 3.5c-.4 1.2-.1 2.4-1 3.5a10 10 0 0 0-1.4 7.6c.6 1.8 3.1.7 4.2.2 2.5-1 4.5-3 6.2-5q1.5-1.7 2.5-3.7c.5-1.1.5-3.8 1.6-4.4-1.8-1.1-.2-3.2.6-4.4.6-.8.5-1.6.8-2.4.4-.9 1.8-1.5 2.4-2.2q1-1.3 1.4-2.6c.4-.9 1.2-1 1.9-1.5.8-.7.9-1.1 2-1.3 1.3-.3 2-1.7 3.2-2.2-.8 1-1 2.3-2 3.2q.9-.5 1.4-1.2 0 1-1 1.6c1.6-.7 2.2-2.2 2.9-3.5.9-1.7 2.7-1 4-1.9-2.2-.4 1.2-3 2.2-3.2.6-.1 2 .8 2.6 1q1.8 1.4 3.9 2.4c1.2.5 1.7 2.1.6 2.7-1 .5-.7 2.1-.9 3-.2 1.2-1.2 3.1-2.3 3.5-1.3.4-1.7 1.8-3 2.3-1 .5-2.5 1.1-2.8 2.6-.3 1.8 2.2.4 2.7.2 1-.3 5-4.5 6.2-2.7 1 1.3-.4 4.7-.6 6.2-.2 1.8-1.3 6.2-3.8 6.4.9-1-.3-1.4-.9-.6-.5.6-.7 1.5-1.4 2l-2.1 1.5-2 2c-.5.4-3.1 2-1.6 2.6l1.6.5.6.6c.4.3 1.1 0 1.6.3q-1.2.1-2.2.5c.7.4 1.4-.2 2.2 0l1.5.3c1.7 0 3.2-.7 5-.7 1.6 0 3.1-1.4 4.5-2q2.6-1.2 5.3-1.8 5.5-1.6 10.5-4.5l4.2-2.5c.7-.6 2-1.2.5-1.3-1.3-.8 0-2 .2-3 .6-.8 2.8-.8 4-1q2-.3 4 0c1 .2 1.7 1.4 2.7 1.1 1.3-.3 2.5-.1 3.8-.3 1.4-.1 2.6-1 4-1.6 1-.4 2.2-.4 2.5-1.6a6 6 0 0 1 2.2-3c-.6.3-1.5.6-.8-.5-.8.6-1 .1-.5-.4s1-1.4 1.7-1.6c4-2 7.8-4.8 12.4-6l22.4.1c.4-.6.9-1.8 1.6-2.2s1.8-.2 2.7-.8l.3.8c1-.4.6-1.3 1.6-1.2-.4-.2 2.3-2.6 3-3q1.4-.6 2-2.5c.3-.8 1.5-2 2.6-2.7 1-.7 1.1-2 1.9-2.9 1-1.3 2.6-2.2 3.9-3.3 1.1-.8 5-5.3 4.7-1.8-.2 2 4 0 4.6-.2 3.3-.9 2.9 3.3 2.1 5l-2 5c-.2.8-1.7 3-1.2 4s1.9.1 1.3 1.5c-.5 1-1.2 2-.4 3q1-.7 1.4.5c.2 1-.7 1.2-.8 2 1-.7 1 .1.5.6q-.8.7-2 .8-1 .2-2 .8c-.6.3-2.4 1.6-1.7 0-.7.2-1.1 1-1.9 1-.5 0-.4 1-1 1.2 0-.4 0-1.6-.8-1.4-1 .2-1.4 1.5-1.6.1 0 .7-.2.6-.7.6s-.5 1.3-.5 1.6c-1.1-.8-1-1.7-.8-3-.3 1-1.2 1-1.8 1.6s-1 1.6-1.5 2.2c-1.4 1.6-2.7.8-4 2.6q-.2-.6 0-1.1l-.8.6c.5-1.8-.9.2-1 .7q0-1.3.8-2.2-.6.3-1 1c.8-.2-.2 1.8-.6 2.1l-.2-1c-.3.4-1.5 1.4-.2 0-1.2 1.6-.5.1-.3-.4-.8.5-2.4 1-2.5 2.1 0 .4-1.6 1.8-2 2-1.3.8-6.2 5-4 6.7-.7.4-3.5 1.4-3.4 2.5 0 .5 1.2.7 1.5 1.1.7 1.2-.3 2.5 1 3.7 1 1 3 0 3.3-1.4-.9 0-.1-.8-1-1.4 1.5 0 1.3 2.2.8 3-.6 1-4.4 1.7-5.5 1.5l.7-1.5c-1.5.8-3 2-4.7 2q.3-1.2 1.1-2.1c-.7.3-1.5 1.3-1.6 0-1.3 1.6-1.4 3.1-3.8 3.5-.5 0-4.3.7-4.3-.2 0 1-1.4 1-2 1-1.5 0-2.2 0-3.6.5q-4.1 1.3-7.6 3.7c1.1-1.4 2.2-2.8 2-4.7-1 1.6-.4 4.6-2.8 5.3-2 .6-2 2 0 2.3-.4 1.8-1.6 3.5-2.6 5l.7-1.4c-1.6 0-2 4.4-3.8 4.2-.6 0-2 2.4-2.4 2.8-.9.9-2 2.1-3.4 2.2.2-.5 1.4-1.6.7-2-1.1-.9-1.9-.9-2.7-2.2-1.4-2.3 2.3-3 3.5-4.1-1.8.7-4.9 1.9-4 4.4.5 1.4 0 2.9.6 4.4q.7 1.8-.6 2.6c1.1.2.6 1.2.2 1.8.7-1.7-.2-.2-.4.2s-1 1-1.5 1.3q-1.6 1.7-2.9 3.5l-2.9 3c-.5.7-1 2.4-2 2.4-.4-1.6 1-3.3 2-4.4.5-.5 1.8-2.4 2.4-2.5q-.9-.3-1.7.2c.2-.7 2-2 .3-2l.8-1.6c-.8 1.2-1.2-.6-1.4 1-.1-.3-1.2-1-1.1-1.4.2-.7 1.3-1 .7-1.9q.8 0 1.4.4c-.1-.6-.9-1.9-1.7-1.4.4-1 1-.3 1.6-.7 1.1-.7-.6-1.2-1.3-.7.4-1.2 2-.7 2.3-2l-.8.5c-.6-2 2.3-2.5 3.6-2.6l-.7-.6q.8-.4 1.4-1.2l-1.5.9.6-.8q-1 0-1.4 1c-.3.3-1.7 1.5-.8 0q-.6.4-.9 1.2c-.3-1.4-1.6.2-1.5.8l-.8-.3q.2.8.7 1.4-1.2 0-.2.8c-2-1.3-1.5 5.1-2 5.8q-1.5-1.2-.9-3-.6 1.4.2 2.7c.5.7 1.3 1.7.3 2.4-.2-1.1-2.8-1.1-2.4-2.4q-.6-.2-.3.7-.8-.5-1-1.3c-1.2 1-1.8-.3-.8-1.3.8-.7 2.6-1.4 2-2.7 0 1.3-4 3.9-3.2 4.6.6.5 1.4-.1 1.8.6.8 1.2 1 .9 2.3 1.2.5.2.8 1.3 1.3 1.7q1.1.8 0 1.7c-1.9 2-3-1-3.7-2.5 0 1.4 1 3.4 2.2 4 1.4.8 1.1 2-.7 1.8l.3.8c-1 .6-1.6-1-2.2-1.6.7 1.4 3.6 3.5 1 4.4-.9-2.6-2.6-2.4-4.9-3.3.2.5 1.8.6 2.4 1 .8.6 2.5 2 1.6 3.2q.7-.7 1.4 0c-.1-1 1-.7 1.8-.5s.6.9.6 1.7l-.2 3.2c-.1 1.4.7 2.8.2 4.2q.1-1.8-.4-3.5c-.3-1.1.5-2.2-.3-3.2 0 .4-.2 1.1-.6.4 0 1.4.9 2.9.2 4.3q.1-.9-.4-1.6-.5 1.3-1.4.3l.4.7q-.9.6-1.6-.2c.8 1.5-.7.4-1.2.1l.6.7c-.7.2-1.3 1-2 .5-1-.5-.5-1.6 0-2.2-.5.3-1.5 2.7-.8 3 .5.4 1.3-.4 1.8-.2s2.7-.6 2.6.4q0 1.2-.9 2.3 1-.4 1-1.4c.3-.8 1.2-.6 1.7-1 .5 1-.5 1.8-.7 2.9-1-.8-1.7 1-2.2 1.5-1 1-2.8.4-3.8-.2l.5-.8q-1 .3-.8 1.2c-1-.5-2.1-.3-3-1 .6.5 4.1 2 2.6 2.5-.6.2-.2 1-.7 1.3-1.2.8-1.8.7-3-.1q.3 1.4 1.8 1.2c.6 0 2.6-1 2.3 0l1-.4q-.6 1-1.7 1.8c-.4.2-2.6 0-2 .5-1.2-.2-2.7-.3-3.6.4-.6.5-1.8 1.4-1.4 0q-.5.4-.5 1.3c-.1.4-1.1.6-1.5.8q-2.2 1.6-3.5 4l.2-1.4c-.7 2.8-3.3 1.9-5.6 2.5-2.5.8-4.2 3.1-5.7 5.2q-.6-.8.2-1.5c-.8.5-.1 2-1.1 2.3-.5 0-.3.4-.6.7-.6.6-.8 0-1.3.3-.6.4-3.2 3.6-3.6 1.6.3 1.7-1 1.9-2.1 2.5q-1 .6-2 .5c-.4 0-2.6 0-.8.3-2.2.5 1.6.2-.7 1.1 1.8-.1-1.1 1.3-.9-.4-.1 2-.7-.3-.8-.7l.2 1.9c0 .8-1.7 2-.7.5-1 1.7-1.2 2.4-3.3 3l.3.7q-.7.4-1.4.1v.8q.5 0 .8-.3c-.1 1-1 1.3-1.8 1.3.9.5.4 1.8-.2 1.1.2 1.2-.4.7-1.3.5q.8.3 1.3 1c-.7.7-1.5.6-2 1.6-.2.7-1.3 2.5-.7 3.2q.3.4-.1.7c-.7.5-.2.7 0 1.4.2 1.6-.2 3.4-.2 5q.1 5 2 9.8c.5 1.6.4 1.9 0 3.4-.5 1.4 0 2.7.2 4.2a6 6 0 0 1-.3-4.6c.8-1.8-1-1.4-1-2.8q0 4 1 7.7c.4 1.4 1.4 4.2.3 5.5 2.4-.3-.6 9.7-1 10.8-.8 1.7-2 5.5-3.7 6.5-.6.3-.4-1.1-1 0-.6.7-1.4 0-2.1.2-1.2.4-3-.1-1.7-1.5q.4.8 1.3 1c.3-.7-1-1.5-1.4-2.1-.7-1.3-.2-2.7-1.7-3.6-.9-.6-1.8-.6-2-1.9 0-1.2.8-2.9-.7-3.6q1.1-.6 2-1.6c-.7.2-1.2 1-2 1.4-.6.2.1-3.2.5-3.7q-.8.6-1.4 0c1 1.1-.6 1.4-1.2 0s.1-3.6-1.3-4.5c1.1 0 3.3-2.7 2.7-3.8l-.7.5q0-1-1-1.4-.5.8.3 1.3c.4.4-.6 1.4-.8 1.7-.3-.6-.6-1.3-.5 0-.9-3 2-5.8 2.7-8.5q.3-1.4 0-2.8c-.3-1.7-1-1.1-2-2.1-1.5-1.4-2-3.5-2.9-5.3a4 4 0 0 0-2.3-2.1c-1.3-.5-2.2.9-3.5.8.2 1-.8.8-1.7 1.4-.3.2-2 1.2-1.7.3a6 6 0 0 1-3.6 1c.7-1 0-2.3-.9-2.7q.7 0-.2-.8c1 .7 1.3-.2.3-.3-1.4-.2-.4-1.2.4-1.4h-2l.5.8c-1.4.4-3.8-1.3-5-1.9.2 0 2.7.4 2.5 0s-1-.8-1.4-.9c-.7-.1-1.4.5-2 .8q-2 .5-3.9.3l1.9-.5q-1-.3-.5-1.3l-1 1.3c.5-2-.8 0-1.2.4q-.9 1-2.2.9c.6-.2 2-.8 1.1-1.5-.6 1.6-2.8 2.5-4.4 1.8 1.6.6.9-3.3.6-4l-1.4 2.5c-.3.6-1.4.3-2 .6-.3.2-1.9.2-1.7 0-.6.9-1.4-.6-2-.4.3.1-2 .6-2.4.7-1.2.1-1.4.8-2.5 1.2-2.1.7-2.8-1.7-4.6-1.6-.7 0-2.9 1.8-1.8 2.4.7.4 2 .4 2.7.1.7-.2 2-.1 2.4-.5-.3.4-1.8 1-1.6 1.6.5 1.3 1 .5 1.6-.1.8-.9 2 .2 1.4 1.2-.5.8-2.1.1-1.8 1.5-1-.3-1.1.4-.9 1.1.4 1.2 1.3 1.3 2.4 1.7.5.1.8.9 1.2 1.3s-1 1.2-1 1.7c-.8-1-1.6 0-2.2.6q.6-.8 1-1.8c-.6 0-.5-.4-.7-.8-.2-.3-2-.9-2.2-1 .6-.8-2.2-2.2-2.5-1.9-.2.2.5 1.2.4 1.6-.2 1.1-.5 2.1-1.7 2.4 0-1 .1-1.3-1-1.6-1.9-.3-1 1-2.4 1.3-2 .4-4.2-2-3-3.9-.5 1-1.6.5-2.2 0q-.6-.6-.4-1.4c-.8-.1-2.1.5-1.2-.7-.9 0-3 .8-2.1 2-1.4-.2-2.6.5-4 .1-1.8-.4-3.3-1.5-5-2q1.3-.9.7-2.4c-.2.8-.4 2.6-1.4 2.9s-2.5.4-3.4 0c.5-.7 1.3-1.2 1.2-2-1 .4-2 1.5-1.1 2.6q-4.2.4-7.6 2.8 1.1-1.2 2.7-1.7-1.2-.2-2.2.3 1-1 .8-2.3c-.7.2-.8.8-1.3 1-.6.3-.6-.7-1.1-.1s0 2.5.8 2.7c-1.3 1.2-2.7 2-3.9 3.3-1.6 1.8-4.7 1.5-6 3.1l1.4-.4q-1.8 1-3.7 1.7l1.9-1.4-1.5.5c1.1-.7-1.3-.5-1.5-1.3q.1.8-.4 1.3c.2-2.1-2.7 1.3 0 1.1-.9.9-2.3 1.3-2.9-.1.1 1.2-2 3.8-1.6 2.2-.6 1.2-2 0-2.3 1.3q.8.3 1.5-.4c-.3 2.2-2.5 1.8-4.1 2.3h.8c-.2.6.2 1 .4 1.4.2.6-1 1.8-1.2 2.2-.7 1.1-2.3 1.2-2.8 0q.5.8-.1 1.4 1.1.4 2.1 0c-.2.8-.6 2-1.4 2.5-.6.3 0 2 0 2.5 0 1.6-1 5 .3 6.2l.7-.6c.2.7-1.7 1.4-2.2 1.5-1 .2-1.7-1.6-2.8-1.6s-2.3.2-3.2-.3-2.3-2-3.5-2.3c-2.3-.3-1.6-2-2.5-4a6 6 0 0 1-.5-4.1q.4-1 .4-1.9c-.2-.6-1.3-1-1.6-2-.9-2.3-2.3-4.2-2.9-7.2-.2-1.2 0-2.5-.4-3.7l-.7-1.7c-.2-.7-1-1.2-1.2-1.8-.6-1.2-1.5-1.8-2.2-3l-2.3-.3c-2.3-.3-4.8-.6-6.9.7-2.1 1.4-2.3 4.8-5.2 6.1-1.1.5-2.5-.8-3.3-1.4l-2.3-1.4q-3.4-2.4-3.5-5.4c.6-1.5.3-3.1.2-4.6.2-1.5-.9-2.2-2.1-2.6-1.2-.5-2.2-3-3.1-4.5-3.6-2-1.3-4-4.1-4.1h-13l-.2 3.8-20.2-.1-23.7-10c.2-.7 1-1.2 1.4-1.8q-9 .5-18.2 1.6c0-1.7.6-3.3.6-5 0-2-1.4-2.8-2.5-4.3-1.2-1.4-1.2-.6-2.6-1.1-1-.4 1-3-1.7-2.8-1.7 0-2.4-.4-3.3-1.9-1-1.4-2.9-1.2-4.4-1.5-1-.2-4 .4-3.7-1.6.2-1.3 1.6-2.4 1.6-3.7s-1.5-1-.7-2.4c.5-.9-.6-2-1.2-2.6s-.5-1.5-.6-2.4c0-1.3-1.8-2.6-1.4-3.7.5-1.9.7-1.9 2-3.1 1.5-1.5.2-1.8-1-2.6-1.8-1.2-.3-2.4-.6-4-.2-.8.9-2.9 1.9-3 0 .6-.5 1-.4 1.5s.8 1.1 1.2 1.5c.6-2-.6-4.1 1.8-5.1-2.2-2.3-1.9 2-3.2 1.7-.9-.1-1.9-2.5-2.8-1.2.5-.5 1.2-2.3 1.7-.8q0-1-.6-1.8"/><path d="M483.5 289.6q0-.6.2-1.1-.7.5-1 1.4zm.9-2.7q-.4.2-.4.7zm3.8-4.4c-.9-.5-1.3.6-.7 1.2q-.3-.9.7-1.2"/><path d="M487.7 281.1c.6.8-.3.6-.7.9-.7.5-.2 1.2-.7 1.9 1 0 .9 1 0 1.2-1-1.6 0-3.1 1.4-4m-51.4 123.7v-.8l-1.4.3q.5 1 1.4.5m1.4-1.1c-.9 1.4 1.8.7 2.3.1-.8.5-1.5 0-2.3-.1m5.9 9.4h-.4q0 .8.7 1.5 0-.8-.3-1.5m1.2 5.6c.6.5.7 1.8 1.7 1.3-.1-.9-1-1-1.7-1.3m139.6 41.5q.9-1 1.6-2.2c-1 1.2-3 2.7-3 4.4zm4.9-5.5v.5c1-.8 2.1-1.2 3-2.1zM485.7 279.3q-1.2.4-.5 1.3 1-.3.5-1.3m2-.8q-.9.3-1.4 1c.6 0 1.9 0 1.4-1m-.7 1.3q-.5.2-.5.8zm2.1-1.5v.7zm187.7 163.4c-.6-.3-.4-1.1-.1-1.5a2 2 0 0 0 0 1.5m31.5-10.9-.8 1.5q0-.8.8-1.5M605.8 445l-2 1.7q1.5-.8 2.8-2zm23.7-2.2c-.4-1-1.6-.5-2.2 0 .7.4 1.6 1 2.2 0m3.5 2.8c1-2-2.3.2 0 0m16-7.6-.7.4q1.1.8.7-.4m29.4 4.2c1 .4 2.2-.5 3-1-.7.6-2.2 1.6-3 1m30 11.3-.1.7c-.2-1-.4-2 .3-2.8.5.7 0 1.4-.2 2.1m.8 4.2q.7 2.5.6 5.2-.6-2.6-.6-5.2m-3.1 21.7-2.6 3c.9-.8 1.3-2.8 2.6-3m-12.3-12.7-.2.7zm.1 2.4.7.6c-.3 0-1-.6-.7-.6m.6.2-.2-1.5q.5.7.2 1.5m1.2-.4q.5-1 1.5-1.4zm65.6-75.2H760c2-.5 2.5-2.7 2.8-4.5a8 8 0 0 1-1.6 4.5m25.5-46.7a2 2 0 0 1-1.4 1.2q.4-1 1.4-1.1m4.7-.2c-.3 0-3.5.3-1.5.5-.7.2-1.5 0-2.3.3 1.7-.5-.1-.2-.7-.5.9-1.2 1.3-1.3 2.7-1.7.7-.2 1-.9 1.9-.9l2 .2c1 0 2-.5 3.2-.5 1.6-.1 2.7-1.3 4.3-1.7l-3 2c.8.5 1.2-.4 2-.8s2.2-.1 3.2-.4c-3.2 2.7-8 2.6-11.8 3.5m18.3-8.3q-.3 1-1.1 1.5c0-.6.4-1.4 1-1.5m4.2 1.4c.4 1.3-1.5 1-2.2 1 .8-.2 1.3-1 2.2-1m3.2 2q-.8 0-1.5-.4c.7 0 1.7 0 1.7-1q.1.8-.2 1.3m17.7-26.7-.6.7q0-.5.6-.7m1.3.8q0 .9-1 .9.3-.7 1-1m1.3.8-.8.3zm1.9-2.1c.6 1-.8 1.3-1.3 1.7-.7-.7.4-2 1.3-1.7M715.4 290v-.4c.6-.1 1.7.3 1.7-.8-1.4-.1-3.5.3-4.8 1-.4.4-1.4 1-1.6 1.5-.2.7.7.6 1 .4q-.9.3-.7 1.2 1.9-2 4.4-2.8m.2-7.1c-.7-.4-6.2 1.7-5.9 2.9 2.1-.6 3.9-2.1 6-2.8m24.2 17.3-1.5 1.3c1 0 2.5.2 1.5-1.3m-14.3 3.2-.2-.3q-.6.7-.8 1.5 1-.2 1-1.2m-15.6 6.3c-.8.4-.6 1.9.6.7q1.6-1.5 3-3.3c-1.6.3-2.3 1.9-3.6 2.6M103.3 510.1c.3-.8 1.4-1 1.4-2-.6.4-1.8 1-1.4 2m5.8-.8c.8-.5 2.7-3.2.6-3.1-2.5.1-3.8 2.7-.6 3.1m10.9 5.3c2 .4-.1-3.6-.5-3.5-.5 0-2.2.8-2.2 1.4 0 1.4 2 1.3 2.7 2.1m6.5 1.8q1.2 0 1.1-1c-1.1.2-3.6-1.2-4 .7q1.5-.1 3 .3m-1 2.7c1.4-.4.3-2-.8-1.4zm3.6 1.4c.8-.3 3.5-.3 3-1.8-.4-1.4-1.6-1-2.6-1.1-.5-.1-1.3-1.4-1.8-.6q-.6 1.1.5 1.6c.9.6.3 1.1.9 1.9m1.9 13.9c1 .3 2.1-1.2 2.7-1.6 1.3-1.2 3-1.2 4.4-2.2 1.6-1-.1-1.8-.5-3-.2-.7.3-1.1-.3-1.7q-1-.8-2.3-1.4c-.6-.4-2.1-1.8-2.7-.5-.2.5.2.9.1 1.4 0 .7-1.3 1.2-1.7 1.6-1.1 1 0 2.8 0 4.1-.3 1.5-1.2 2.2.3 3.3M2436 244.8c.2-1.3 1.7-.5 2.5-.7-1.8-.2-5.1-3-6.7-.8q1.2 0 2.2.3l.4.7c.2.3 1.2.3 1.5.5m8.1 3.2q-.9-1.8-2.3-.3 1.3-.1 2.2.4m14.6-64.5c-.7-.9-2.2-.6-3.2-.9s-2.4-1.2-3.6-.8c2 1.2 4.9.6 6.8 1.7m13.7 68.9q-.2-1 .9-1c-1.2-.5-.1-1.4-1.4-1.1l.3.7c-1.1 0-.5 1.2.2 1.4m7.4.5q-.6-.5-1.4-.5zm-.1-1.2q.2-1-.7-.2zm4.6 2.3h-1.4q1.7.8 3.6 1.2c1.1.4 2.3 1.3 3.6 1q-2.9-1.3-5.8-2.2m2.9-2.1c.5-.9-.8-1-1.4-1.2-.5 1 .8 1.2 1.5 1.3m18.2 2.3c-.2-.9-1.4-1.8-.1-2-1 0-3-1.3-3.7-.1q1.1.1 2.2.7v.6c.2.3 1.4.5 1.6.8m-1.9-45.3c.3-1-1-.9-1.4-.5zm3.2 44.8c.7-1.2 1.8 0 2.6-.8-.5-.4-.8-1.7-1.8-1.3l.7.8c-.7.3-1.4.9-2.2.9zm8.8-1q-.3-.9.7-.3-.7-.6-1.5 0zm7.3-3c-.1.7-3.1.7-3.7 1 2.3 0 4.5-1 6.8-1q-.8-.3-1.5-.9c2-.2-2.2-2.5-2.1-.4 1-.3 1.7.8.5 1.3m7.9.9 2.9-.5a48 48 0 0 0-7.4-.3l2 .6q1.3-.2 2.5.2m4.4-1.8q.3-.4.3-1-.7-.3-1.5.2.3.9 1.1.8m8.8-2.4q0-.6.5-1-.7-.5-1.6-.2.1.9 1 1.2M2434 159.2c-1.6-.3-2.5 1-4.2.4-1.9-.6-2.5-2-4-2.9q2.2.9 4.6 1.1c1.6.2 2.5-.6 4-.6 3 0 5.7 2.6 8 4.2-2-1-7.2-3.1-9.4-2.3zm77.8 95.2c-1-.3-.8-1.5-1.7-1.8q.8.3 1.5.2c-.9-.2-2-2-.7-1.5.6.2 2.5 1.2 2.9 1.8-.8.2-1.1 1.6-2 .7z"/><path d="M2513 252.3a1 1 0 0 1 1.6 1q-.9-.3-1.5-1M482.5 226.1c-1 .3-2.4.9-3 1.9q1.8-.6 3-1.9m-3.5 1.8a1 1 0 0 0-.7.8zm.3-16.2c-.8-.5-2.8 1.6-2.3 2.4.4-.4 1-.1 1.5-.4.9-.6.7-1 .8-2M464.5 223c-1-.3-1.9.5-2.2 1.3zm.7-1q-.5.2-.8.8zm4.1-3.6-.8.2zm4.7-12.5 1.4-.3c-.5.2-2.9 1.1-1 1.3q-2.4.8-4.3 2.7c1.2.3 2.7-.5 3.7-1l1.5-1.3c.8-.3 1.5.1 2.2-.5l-.8-.5q1.5 0 1.9-1.6 0-1 .4-2c.3-.6 1-.6 1.2-1.2.4 1.4-1.2 2.3-1 3.7.7-1.2 1.5-3.6 2.5-4.5q-1.5-.2-3 0l.3-1.5c-.8 0-2.3 2.2-.7 1.3q-2.6 2.4-4.4 5.4m1.7 17.7c1 0 1.6-.9 2.2-1.5q-.5.8-1.2 1.4 1.6-.6 2.7-2.2c-.3 1.4-1.8 2.2-3 2.6.8.4 1.6-.3 2.2-.9q-.5.9-1.3 1.2c1.5.8 4-1.8 4.9-2.9.4-.6 1-1.7.5-2.4-1-1.2-2.4.7-3.6.5 2 .1-.3.7-.7.8 1.9.1 0 .4-.5.5-.5.2-.1.8-.6 1-.7.2-2.4.9-1.6 2m-247.5 14.9c-1.1-2-5 1.2-6 1.7q-4.1 2-8.3 3.8c4.8-1.8 9.8-3 14.3-5.5m-1.3 2c2.2.3 4.8-1.2 7-1.6 1.3-.3 5.2-1.2 5.7-2.5l-1.5.4c.9-.6 4-1 3.9-2.4l-3 1.4 1.2-1.6c-1.3 0-6.8 1.8-3 2.5-.6.3-1.2 0-1.8.1-.8 0-1.1.8-2 .7.7 1.3-6.5 2.3-7.3 2.7q.4 0 .8.3m13.4-3.7q1-.4 1.8-1.1c-.7.2-1.6.2-1.8 1m5.1-2.6c.7-.4 1.6-.3 2.3-.8-1.8.2.6-.8-1-.7q-1.7.1-2.1 1.4zm2.8-.6 2-1.6q-1.5.1-2 1.6m1.1.5q.3-.8-.7-.2zm2.8-.6q-.8 0-1.4.3.8.1 1.4-.3m5-4c-1.3.6-1.2 1.7.4 1.6s2.9-1.3 4.4-1.7 3.4.3 4.9-.4c.2-.1 1-.7 1.3-.5.6.3 1.5.9 1.7-.2-1.7.2-.1-1.6-.1-2.2-2.1-.5-4 1-6.1.8-2.2-.4-4.4 2-6.4 2.5m12.6 1.1q-.7-.2-.7.7.8.2 1.4-.5zm7.7-4c-.6 0-2 0-1.5 1q.9-.3 1.5-1M390.8 191q-.7-.1-1.5.4.8 0 1.5-.5m2.6-8.7c-.6-.3-1.8.8-2.3 1zm21 3.8c-.7.7-1.8.9-2.5 1.6q2.6-.2 4.7-1.8c1.4-1 3.5-.8 4.7-2.1-1.1.2-.7-.2-.1-.7a20 20 0 0 1-6.8 3m4.2-3.3.2-.6c-1 .1-3.1 1.4-3.2 2.5.8-.8 2-1.9 3-2m0-2.6q-.6.1-.6.8zm2.3-1.3q-1 .3-1.7 1c.7 0 1.6-.1 1.7-1m6.8 4.2c-.4-.7-1.4-.6-2-.5-.5 0-2.8.8-1 .8q-.8.2-1.5.9 2.2-.9 4.5-1.2m7.6 3.1q-1.7.4-3.3 1.4l3.6-1.4zm-91.4 27.2q-1.3-.2-2.2.8 1.3.2 2.2-.8m12.2-4.2c-1.1-.8-3.4-.5-3.7 1q1.8-.6 3.7-1m6.9-8.1q-.7 0-1.1.7h1.5zm3.5 1.6c-.4-.2-.3-.3-.7 0zm6.3-5.3c-.7-.5-1.8.2-2.2 1q1.3-.3 2.2-1m-1.1-.2-.8.4zm1.3 3q-.4 0-.7.5zm-90.7 25a1 1 0 0 0-1.2.2q1.3-.7.4.5zm8.9-2c-1.2 0-2.3 1-2.8 2h1.4c.8-.4 1.4-1.4 2.1-2q-.6.8-1.5.6zm1.4 2.7c1-.1 1.7-1 2.5-1.7-.6.6-1.6.6-2.3 1-1 .5-2.4 1.5-3.2 2.3q1.4-.9 3-1.6m.4-2.3q-.7-.1-1.4.5.9.4 1.5-.5m1.9-.7q-.9-.3-1.5.3.8 0 1.4-.3m2.3 1.6c-1 0-1.4 1.2-2.3 1.5 1 0 1.7-.9 2.3-1.5m-.7 1.5-1.5 1q1-.3 1.4-1m-.7-39.8a9 9 0 0 1 3.6 1.9c.2-1.4 3.4-1 4.4-1.1 1.3-.1 3.1-2.4 3.6-3.5q-.6.1-1-.2c-.7-.4-1.6 0-2.4 0-1-.2-2.6.3-3.5.9-1 .6-5.7-.6-4.7 2m23.5 10.7-.7.8c1.7.2 3.3-1.2 4.6-2-1.3.5-2.7.5-3.9 1.2m4.6 16.7-.7.4q.8.2 1.5-.4zm4.6 5.4q-1 .1-1.4 1.1zm13.3-5.5c-1.3-.3-3 .6-3.8 1.6 1.2-.6 2.6-.8 3.8-1.6m3.1.3q-.9-.1-1.6.4.9 0 1.6-.4"/><path d="m347.6 210.7-2.2 1c1.3.8 4.2-.8 5.3-1.5l-.8-.5c2-.4 4.5-1 6.5-1.6l-.3-.8c.8 0 3.2.8 3.7 0s-1-1-1.4-.9c1.4-.6 2.6.5 3.8.2q1.5-.6 3-1.6h-1.5c.1-.6 2.8-2 1.4-2.4-.7-.2-2.8.8-3.2 1.4q.4-.8 1.2-1l-1.5-1c.3 2.2-3.4.8-2.9 2.2q-.8-.6-1.5.3.6-.7 1-1.5-1.5-.3-2.9.9l.8.6-1.5.4q0 .4.3.8c-1-.8-2.2 1-2.2 2-.6-.9.9-2.2.3-2.7-1-1-3.7.6-4.6 1-1.8 1-1.8 1.7-2.8 3-1.8 2.5 1.7.8 2.7.1q-1.2 0-2.2.5c.6-.9 2-1 3-.5l-1.6.8c1.1-.1 2-.8 3-1.1-.6.5-1.5.6-2.1 1.2 1.9-.4-.4.7-.8.7"/><path d="M360.2 202.2c-2.6.2 1.8 2 0 0m4-.2c1.4-.2 2.6-1.1 3.8-1.7l-.8.6q1.7-.1 3-1c-.5 1.7 1.8.1 2.2-.3q-.8-.2-1.5.5.6-.7 1.4-1c-.8.2-1.5-.5-2.2.2.3-1.3-2.1-1-2.4 0s-2.7-.5-2.3 1.1c-1.2 0-2.8.5-1.2 1.6m9.8-11.3q-.9 0-1.6.6.9 0 1.5-.6m3.3 3.7q-.7-.4-1.5.3zM361.4 158c-.1-1-2 0-2.3.2q1.2.3 2.3-.2m-49.8 3.3c1.6-1.1 2.8-2.6 4.8-2.2.6.1 1.1.8 1.7 1 .7.2 1.5-.3 2.4 0-1.2 1.5-2.9.9-4.5 1 2-.2-1 .2-1.5.4q-1.4.8-3 1.4.7-.6.7-1.5l-.6.8zM411.7 186q1-.7 2.3-1.1-1 .8-2.4 1"/><path d="m412.5 185.5-1.5.3c.9-.1 1.4-1 2.3-1zm68.5 13.9q.4.2.4.7c-1.6.6-1.8-1-.5-.7m-17.5 14c.7-.3 1.4-1.2 2.3-.8-1.9 1-3 2-3 4.1 1.8-.6 3-2.5 4.2-3.8l1.7-2.3c.8-1 1-2.6 1.9-3.6-.7-.4-1.5-1-2.3-.4 1.8-.5-.4-.5-1.1 0-.5.3-1.8 1.5-.5 1.6-.4.3-1.5 1 0 .5-1.3.3-1.3 2.4-2.9 2.6 2 .3-1 1.6 1 1q-.9.3-1.3 1.1m1.4 4.7q.7-.2 1-1c0-.5 1.1-.6 1.4-1-1.1 1.6.6 0 .9-.2q.7-.3 1.6-1 .6-.7 1-1.5h1c.6 0 1-.7 1.2-1.1-.8 0-1.5.5-2.3.7 1-.5 2.6-1.5 1-2.4.2 1.7-.8-.5-1.3 1-.3-.8-1.3.5-1.6 1 1.8-.3 0 1-.6 1 2.6.9-3.1 2.4-1 2-1 .4-2.2 1.3-2.3 2.6"/><path d="M465.7 202.9c-.5.8.1 1.5.5 2.2-1.3 0-.4.5-.4 1.5-.7-1.4-1 .5.7.1.8-.2 2.6-2.2.8-1.9q1 0 1-1c1 .6 1.7 2.5 3 2.6 1 0 1.8-1.4 2.3-2.2-.7-.4-1.2 0-1.9 0-.7-.1-.8-1.2-1.4-1.5 1.4-.2 2.2 1.4 3.7.8l-.5-.7c.6.2 3-.4 1.7-1.3-1.5-1.2-3 .5-4.4.9.5-1.2 2.1-.8 2.6-2-1-.5-3.7-.5-4.4.7.2-1.4-.6-.3-1.3.1-.6.5-.3 1.3-.1 1.9q-.3-1-1.2-.8.5-.5.5-1c-.7.2-1.9.9-1.8 1.9zm5.9 3.9q-.5-.3-1 0l.4.7zm.1 7.8 2.2-.3c.6-.1 3.3-1 1.5-1.3q.8-.3.8-1.3c1 3 3.5-1 2.3-1.7-.8-.4-6.2-1-4.4 1-1.3-.2-.9 1 0 .2-.7.8-2.8 2.1-2.4 3.4m5.7-.2c-.8.2-3.7 0-3 1.5.4 1.1 2.8-1 3-1.5m1 1c-.7-.3-2.8.8-3 1.5s.6 1.1.5 1.9c1.1-.2 1.5-1.6 2.6-1.7q-.6-1-1.6-.7 1-.2 1.5-1m-13-8c-1 0-3 2-3.4 2.7 1 0 4.1-1.2 3.4-2.7m-1.3 11.6c-.2-.8-1.6 0-1.5.6zm-.5 3.7.8-.9-1.6.7zm1.9 1.6c-1.4 0-4.1 4.3-1.9 4.6.8.2.8-1.4.8-1.9-.2-.6.7-2.2 1.1-2.7m-.5-.8q-1.3 0-1.9 1.1c.8.1 1.7-.1 1.8-1m1.1 3.5c-.8-.8-1.3.5-1.1 1.1q.1-1 1-1"/><path d="m467.8 226-.7.4c2.2-.1-1.5 1.7.6 1.3l-.8.6c1.3 1.5 3.3-1.2 4-2.2l-1.5.3 3-1.8-1.5-.1q.9-.1 1.4-1-.7-.5-1.5-.5l1.5-.3c-.6-.8-1.6-.3-2.3 0 1-.5 2.2-1.4 3 0 .4-.8.8-2.7.9-3.6s-1.1-1.2-1.8-1.4c.6-.6 1.5-1.3 1.3-2.2-1.4.2-2.6-.2-3.7.8q.7.6 1.5.4c-.5 1-4 .2-4.5 2.2 1.2-.6 3.2-.4 4.1-1.5-.5 1-2 1.6-2 2.5l.7-.7c-.4 1.1-2.7.9-2.5 2.3l2.2-.5c-.9.6-2 1.1-1.2 2.4-1.1.1-2.3-.6-3 .6h1.5c-1.8.7.4.4.8 0-.6 1 .8 1.3 1 .3q0 .9-1 1.3 1.4-.7.5.3m-2.8-6.7q.7.1 1-.5-.6 0-1 .5"/><path d="M466.9 224.7q-.5.8-1.4 1.4a1 1 0 0 0 1.4-1.4m-.3-2.7q-.5 0-.8.4zm1.6-2.2c-.6 0-2.9-.6-2 .8.5-.7 1.3-.5 2-.8m7.2 6.6q-1 0-1.9.6 1.2.7 2-.7m-.5-3.4c-.7.4-1.6 1-1.2 2 .6-.4 1.8-1.1 1.1-2m1 1.4c-.8-.6-2 1.2-2.1 1.8 1 .4 2.3-.7 2-1.8m-6.3-5.1-.8.7q-.2-1.2.8-.7"/></g></svg>
