<svg xmlns="http://www.w3.org/2000/svg" viewBox="874.47 955.52 48.53 48.53"><path id="uy" d="m 879.656,962.77 c 0.649,-0.92 1.859,-1.74 1.36,-3.03 0.963,0.7 1.947,1.23 3.138,0.62 0.655,-0.34 0.671,-1.37 1.519,-1.48 1.556,-0.21 3.089,1.69 4.133,2.59 1.37,1.18 3.983,2.19 4.227,4.22 0.09,0.73 -0.05,1.95 0.993,1.69 0.752,-0.19 2.08,-0.89 1.62,-1.88 1.269,0.33 3.718,4.31 4.747,3.94 0.961,-0.34 1.144,0.42 1.923,0.9 1.035,0.65 2.058,0.65 2.979,1.59 0.672,0.69 1.236,1.52 2.053,2.06 1.064,0.69 2.363,0.81 3.349,1.66 1.808,1.56 2.354,3.56 4.615,4.68 2.558,1.27 1.338,2.01 0.122,3.9 -0.885,1.38 -0.267,4.98 1.112,5.87 0.882,0.57 -0.571,3.94 -1.167,4.95 -0.499,0.84 -2.151,4.37 -3.612,3.07 0.771,0.98 -0.94,1.49 -1.567,1.75 -1.785,0.72 -2.388,0.77 -4.31,0.37 -1.536,-0.33 -3.18,-1.11 -4.686,-0.35 -0.639,0.32 -1.337,0.74 -2.069,0.8 -1.115,0.1 -1.047,-0.67 -1.768,-1.06 -1.249,-0.67 -2.829,-0.43 -4.035,-1.16 -1.663,-1.01 -2.32,-2.04 -4.445,-1.94 -1.366,0.1 -2.459,0.65 -3.463,-0.46 -1.347,-1.5 -3.388,-2.49 -4.469,-4.21 -0.754,-1.19 -1.942,-6.3 -0.229,-6.78 1.771,-0.48 0.456,-2.54 -0.06,-3.47 -0.368,-0.67 -0.643,-1.4 -0.934,-2.1 -0.245,-0.59 0.542,-1.08 0.251,-1.9 -0.253,-0.72 -1.534,-2.82 -0.914,-3.54 1.375,-1.59 -0.404,-2.55 0.182,-3.62 0.407,-0.75 -0.107,-4.23 0.06,-4.35 1.263,-0.9 -0.371,-2.15 -0.657,-3.33" fill="#2B1D24">
		
	</path></svg>
