<svg xmlns="http://www.w3.org/2000/svg" viewBox="1681.7 267.2 148.1 148.1"><path fill="#2b1d24" d="m1692 309.9 16.3-4.8c1.5-.5-2 4.7.1 7.5.1 0 .3 1.7.7 2.4s1 .6 1.1.6l1-1-.7-2.3c-.7-1.8 0-2.4-.3-2.7.3-.6 1-.6.5-1.4s-1-1.8-.6-2.6l5.1 2.8c-1 1.7-.7.1-1.8 3.9-.7-1.3 1 1.8 1.4 1.1.8-2.9 2.9-1.5 2-4.6l7.8 4c2 .2 4.8 3.8 8.6 7.3q1.4 1.6 3.2 2.4c1.5.5 3.6-.5 5.1-.8 4-.7 8 1.3 11.9.3 1-.2 1.9-1.8 3-1.2 1.3.8 2.2 2.2 3.7 2.9 1.4.7 1.9 1.7 3 2.9 1 1.2 1.5.7 2.9.5.3 2.2 0 6.7 2 8.1 1 .7 2.4-.1 3.1 1.2 1 1.5 1.3 3.3 2 5 1.6 3 6.1.8 8.8 1 1.6 0 2.6 1.3 2.4 2.7-.2 2 3 1.9 4.4 2.3-.2-.8-1.5-2-.7-2.9.7-.7.7-1.6 1.8-2 1-.4 0-1.4.5-2 .7-.7 2.3-1.5 3.2-2.1s2.3-.7 3-1.9c.3-.5.8-1.6 1.5-1.8 1-.2 1 .5 2-.5q1.7-1.7 3.6-.5c-1.6 1.5-5.8 3.5-6 5.8.8 0 1.2.8 2.1.9s1.7-1 2.3.5c1 2.3 3.5.7 4.9 2q.3-.6 0-1.2a1 1 0 0 0 .9-.5q.2-1-.1-2c.6 1.2 1.6 1.4 2.5 2.5 1 1.1 2.5.5 2.6 2.3 1.8-1 2.6.9 4 1q1.5-.1 2.6.4c.7.5-1 1-1.2 1.3-.7 1.2-1 1.6-3 .7q0 1 .6 1.7c-.4 0-4.6.2-2.5 1.4-.6 0-1.2.6-1.8.5-.6.2-.4-1-1-.1-.6.2-1.2-.7-1.6-.8-1.3-.4-2 0-3 .5-.6.3-.8.1-1.3.3-1.6.4-1.4-1-3.3-1.9-.6-.3 1.5-1.2 1.8-2q.2-.6-.3-1c-1-.6-1.4-1.6-2.3-2.3-.3 1-3.4 3.8-4.6 3-.9-.6-2.4-1.6-2.8.3q0 .6.6 2c.5.8 0 1.3.6 1.8-1.5.7-3.5-1-4.9.5.8.6 2-.4 2.6.7h-1q.2.8.4.9l-.2.5c-.2.2-.9.2-.8.8.2 1 .4 2-1 2.3s-4.2-.7-5.2-.6c-.3 0-1 .2-1.1.6-.7 1.8-.3 1.9-.7 2.2.3 1 1.4.8 2 1.2 1.1.6.2 1 1.7 1.3.8.2 1.3-.1 2.3.3.8.4.7 3.1 1.1 4.3.3 1 1.4 1.3 2 2.3.7 1.4-.4 3-1.1 3.8-1.2 1.3-1.8 3-.4 5.6-1.6-1.4-1.4-1-2.1-1-2 .2-2.3.4-3-.3q-.7-.7-1.7-1l-2.7.1c-1-.8-.6-1.8-1-2.6-.3-1 1.2-2.7-.4-3.1q-1.4-.3-2.7-1c-1.5-1-2.6-.7-4.3-1s-3.1-1.7-4.6-2.7q-2.1-1-4.1-2.3c-2-1.3-2.8-.8-4-1.7l-4.7-3.1c-2.4-1.7-7.5-3.4-8.7-6.2-1.2-2.6-3.2-4.1-4.5-6.7a6 6 0 0 0-3-3q-.7-.4-1.5-.4c-.7.1-.2 1-1 1-1.4.2-2.5-.8-4.6-.6q-1.9.2-3.5-.9l-.8-.7c-.2-.4.2-1 0-1.4-.1-.5-.7-1.2-.6-1.5q.1-.3.7-.2c-.5-1.2-1.9-.8-2-2.3q-.1-2.1-2.5-2c-.7 0-2.9.2-3.2-.8-.4-1.4-1.9-1-2.9-1.6-.5-.3-1.7-1.8-2.4-1.3-.8.7-1 1-2.1.8-1.8-.2 2.2 2.4 2.4 3-1-.3-1.3-.9-2.3-1.4-.3-.2-1.7-1-1.7.5-.2 3-3 1-4.2 2.5-1.7 2-1.7 2.3-.8 4.7.4.7 1.4 1.5.8 2.2-.3.5-2.4.1-3 .1l-4.5-.1z"/></svg>
