<svg xmlns="http://www.w3.org/2000/svg" viewBox="1681.72 267.23 148.07 148.07"><path id="uz" d="m 1691.96,309.87 16.35,-4.785 c 1.48,-0.528 -1.99,4.684 0.13,7.477 0.1,0.107 0.28,1.722 0.67,2.439 0.38,0.716 0.95,0.62 1.12,0.614 l 0.98,-0.987 c -0.15,-0.04 -0.69,-2.051 -0.69,-2.299 -0.76,-1.819 -0.11,-2.381 -0.31,-2.771 0.27,-0.596 1.05,-0.535 0.51,-1.377 -0.41,-0.633 -1.1,-1.825 -0.63,-2.621 l 5.12,2.81 c -0.93,1.687 -0.73,0.142 -1.85,3.924 -0.67,-1.278 1.07,1.822 1.42,1.118 0.81,-2.874 2.9,-1.478 2.08,-4.647 l 7.71,4.043 c 1.95,0.21 4.87,3.81 8.59,7.335 0.94,0.893 2,1.927 3.27,2.337 1.49,0.484 3.59,-0.484 5.08,-0.753 3.91,-0.704 8.08,1.241 11.86,0.293 0.97,-0.245 1.89,-1.804 2.99,-1.198 1.38,0.766 2.26,2.138 3.73,2.87 1.43,0.717 1.89,1.739 2.93,2.882 1.08,1.192 1.55,0.701 2.96,0.574 0.31,2.191 0,6.64 2.01,8.076 1.02,0.709 2.38,-0.14 3.15,1.178 0.9,1.521 1.23,3.335 2.01,4.913 1.54,3.103 6.08,0.931 8.74,1.022 1.57,0.05 2.58,1.314 2.42,2.732 -0.23,2.12 3.07,1.927 4.35,2.311 -0.11,-0.809 -1.5,-2.029 -0.69,-2.833 0.75,-0.74 0.76,-1.619 1.86,-2.06 0.92,-0.368 0,-1.353 0.52,-1.933 0.66,-0.74 2.3,-1.586 3.16,-2.188 1.02,-0.712 2.28,-0.702 2.99,-1.826 0.33,-0.528 0.81,-1.667 1.5,-1.826 1.06,-0.246 1.09,0.483 2.09,-0.546 1.1,-1.14 2.13,-1.164 3.47,-0.469 -1.55,1.456 -5.71,3.519 -6.05,5.832 0.9,0.02 1.34,0.735 2.2,0.829 1,0.109 1.71,-0.869 2.26,0.509 0.94,2.321 3.52,0.742 4.9,2.046 0.19,-0.407 0.19,-0.815 0,-1.225 0.39,0 0.7,-0.149 0.91,-0.469 0.31,-0.589 0,-1.381 -0.12,-1.978 0.63,1.155 1.61,1.324 2.58,2.441 0.98,1.136 2.47,0.479 2.54,2.311 1.77,-1.063 2.58,0.878 4.08,1.032 0.99,-0.05 1.83,-0.08 2.55,0.396 0.71,0.431 -1.02,1.044 -1.18,1.304 -0.71,1.184 -1.04,1.538 -2.94,0.723 -0.1,0.642 0.23,1.111 0.51,1.655 -0.43,-0.03 -4.61,0.219 -2.45,1.368 -0.6,0 -1.24,0.655 -1.88,0.522 -0.55,0.171 -0.33,-0.927 -1.01,-0.142 -0.54,0.244 -1.11,-0.606 -1.56,-0.756 -1.26,-0.42 -2.08,0.09 -2.91,0.481 -0.72,0.337 -0.86,0.168 -1.36,0.287 -1.66,0.395 -1.42,-1.044 -3.28,-1.867 -0.67,-0.297 1.44,-1.241 1.74,-1.923 0.17,-0.394 0,-0.872 -0.32,-1.066 -0.96,-0.559 -1.38,-1.637 -2.24,-2.304 -0.34,1.035 -3.42,3.809 -4.65,2.973 -0.83,-0.562 -2.38,-1.548 -2.74,0.275 -0.1,0.387 0.12,1.279 0.61,2 0.48,0.879 0,1.395 0.59,1.878 -1.53,0.632 -3.56,-0.969 -4.89,0.432 0.78,0.629 2.01,-0.364 2.52,0.72 -0.34,-0.05 -0.67,-0.07 -1.01,-0.07 0.26,0.676 0.24,0.787 0.43,0.972 -0.1,0.03 0,0.297 -0.2,0.533 -0.18,0.192 -0.84,0.147 -0.75,0.774 0.16,1.103 0.38,1.98 -1.13,2.349 -1.22,0.297 -4.12,-0.743 -5.11,-0.643 -0.33,0.03 -1.01,0.236 -1.13,0.567 -0.69,1.838 -0.3,1.91 -0.68,2.251 0.36,0.913 1.37,0.805 1.95,1.139 1.16,0.659 0.25,1.102 1.79,1.362 0.8,0.134 1.28,-0.161 2.31,0.322 0.74,0.341 0.7,3.098 1.06,4.268 0.3,0.982 1.42,1.326 1.93,2.248 0.8,1.448 -0.36,3.081 -1.04,3.858 -1.16,1.304 -1.74,3.064 -0.35,5.564 -1.68,-1.345 -1.47,-1.017 -2.18,-0.948 -2.01,0.198 -2.25,0.396 -2.95,-0.352 -0.44,-0.47 -1.11,-0.773 -1.75,-0.924 -0.76,-0.179 -1.86,0.186 -2.61,0.06 -0.96,-0.832 -0.67,-1.831 -0.96,-2.644 -0.35,-0.95 1.11,-2.657 -0.48,-3.087 -1,-0.271 -1.77,-0.4 -2.67,-0.985 -1.53,-0.998 -2.65,-0.66 -4.32,-0.966 -1.76,-0.32 -3.16,-1.769 -4.6,-2.69 -1.38,-0.879 -2.85,-1.329 -4.16,-2.348 -1.24,-0.964 -2.74,-0.831 -3.97,-1.688 -1.53,-1.076 -3.16,-2.032 -4.71,-3.102 -2.4,-1.656 -7.47,-3.363 -8.7,-6.163 -1.15,-2.631 -3.18,-4.152 -4.48,-6.759 -0.7,-1.41 -1.56,-2.33 -3.03,-2.971 -0.39,-0.17 -1.07,-0.54 -1.51,-0.432 -0.63,0.155 -0.2,0.972 -0.94,1.044 -1.44,0.139 -2.54,-0.833 -4.65,-0.589 -1.25,0.145 -2.36,-0.372 -3.47,-0.883 -0.21,-0.1 -0.58,-0.371 -0.79,-0.754 -0.2,-0.383 0.15,-0.962 0,-1.417 -0.12,-0.455 -0.71,-1.142 -0.65,-1.453 0,-0.31 0.44,-0.246 0.75,-0.196 -0.46,-1.207 -1.9,-0.828 -1.98,-2.344 -0.1,-1.526 -1.03,-2.064 -2.53,-2.041 -0.71,0.01 -2.9,0.239 -3.18,-0.698 -0.43,-1.417 -1.89,-0.979 -2.91,-1.627 -0.48,-0.309 -1.69,-1.815 -2.36,-1.289 -0.82,0.643 -0.99,0.904 -2.19,0.761 -1.73,-0.206 2.25,2.383 2.4,2.917 -0.96,-0.226 -1.21,-0.8 -2.23,-1.302 -0.34,-0.169 -1.69,-1.024 -1.76,0.471 -0.14,3.068 -2.93,1.023 -4.15,2.498 -1.69,2.031 -1.76,2.305 -0.78,4.676 0.32,0.749 1.37,1.532 0.79,2.254 -0.37,0.477 -2.43,0.119 -2.98,0.1 -2.23,-0.08 -3.93,-0.186 -4.56,-0.132 l -6.86,-31.597" fill="#2B1D24">
		
	</path></svg>
