<svg xmlns="http://www.w3.org/2000/svg" viewBox="733.98 583.33 119.25 119.25"><g id="ve" fill="#2B1D24">
		
		<path id="Venezuela_mainland" d="m 742.20,619.18 c 1.97,-2.324 2.956,-4.818 3.577,-7.748 0.596,-2.809 1.25,-4.99 2.714,-7.446 1.193,-2 3.897,-3.16 5.041,-5.258 1.304,-2.39 3.529,-1.772 5.66,-3.087 -0.868,2.118 -3.143,1.29 -4.397,2.8 -1.068,1.286 0.07,4.064 1.444,4.611 -1.241,-0.06 -0.04,2.691 0.08,3.211 0.368,1.599 -1.169,3.218 -2.234,4.226 -1.387,1.312 -2.063,2.907 -1.204,4.629 0.333,0.666 0.444,1.508 1.083,1.981 0.708,0.524 0.822,0.293 0.701,1.245 -0.255,2 1.28,2.452 2.888,1.538 1.66,-0.944 2.317,-2.34 2.531,-4.183 0.275,-2.364 -0.787,-3.687 -1.974,-5.616 -0.472,-0.766 -0.887,-1.628 -1.167,-2.485 -0.252,-0.772 0.405,-1.826 -0.196,-2.457 0.902,0.106 1.684,-1.258 2.376,-1.656 1.266,-0.729 2.451,-1.686 3.926,-1.945 1.276,-0.225 2.296,-0.399 3.416,-1.074 0.422,-0.254 1.678,-1.269 2.231,-1.012 -0.07,-0.402 -0.264,-0.738 -0.57,-1.009 0.55,0.224 2.228,1.628 2.8,0.965 0.388,-0.45 -0.01,-1.556 -0.514,-1.764 -0.855,-0.355 -2,0.453 -2.866,0.511 0.169,-0.992 -0.665,-6.251 2.275,-5.042 1.338,0.55 1.063,3.454 1.27,4.591 0.459,2.523 3.171,0.848 4.967,1.474 2.01,0.701 4.515,1.243 5.394,3.577 0.538,1.429 -0.86,4.635 1.52,5.14 2.831,0.601 6.416,-0.71 9.221,-1.083 2.405,-0.32 4.906,-0.833 6.379,1.316 0.61,0.89 1.464,1.617 2.484,1.976 0.831,0.293 1.693,0.487 2.543,0.712 -0.09,-0.02 2.79,0.588 1.456,0.588 2.264,1.227 3.341,-1.427 5.131,-1.593 1.088,-0.101 1.337,-1.234 2.24,-1.656 1.245,-0.58 2.665,0.528 3.938,-0.206 -1.096,-1.157 -3.672,0.08 -4.4,-1.368 0.629,0 1.259,0 1.889,0 0.886,0 1.146,-0.546 1.791,-0.576 0.318,0.11 0.626,0.242 0.925,0.397 0.882,0.16 1.798,0.05 2.672,-0.1 3.734,-0.63 7.559,0.07 11.233,-0.661 -0.574,1.164 -2.413,0.945 -3.47,1.501 -1.658,0.873 -3.611,-0.513 -5.17,0.803 0.502,-0.501 1.023,-0.434 1.22,0.287 -0.616,-0.05 -1.059,0.336 -1.15,0.937 1.365,-0.805 2.412,0.01 2.382,1.614 -0.02,1.268 -2.15,0.419 -2.812,0.402 0.477,1.779 3.405,0.527 3.1,-1.08 0.789,0.112 1.125,1.017 1.189,1.698 0.09,0.906 0.925,1.926 0.821,2.766 0.561,-0.598 0.843,-1.427 0.58,-2.231 0.724,0.708 0.833,2.076 0.21,2.88 0.765,-0.546 0.449,-1.617 0.36,-2.376 0.392,0.09 0.775,0.212 1.15,0.36 -0.07,-0.08 -2.451,-1.349 -1.052,-1.173 1.328,0.167 3.058,1.561 2.352,3.045 0.316,-0.574 0.77,-0.523 0.43,-1.08 0.535,-0.267 1.088,-0.314 1.66,-0.145 -1.219,-1.352 0.754,-0.133 1.199,0.587 0.817,1.322 2.258,0.78 3.316,1.601 2.825,2.191 -0.49,2.201 -1.205,4.221 0.228,-0.252 0.468,-0.492 0.72,-0.72 0.199,1.035 -0.924,2.83 -1.413,3.691 -0.302,0.532 -0.215,0.988 -0.902,0.988 -0.608,0 -2.469,-0.544 -2.865,0 0.883,0.5 2.309,0.648 2.81,1.656 0.571,-0.744 1.376,-1.272 1.51,-0.07 0.827,-0.91 1.447,-1.34 2.66,-1.584 1.133,-0.228 1.573,0.978 2.628,-0.04 1.823,-1.758 5.105,2.606 4.079,3.124 -1.021,0.516 -1.608,1.261 -2.439,2.052 -0.777,0.741 -2.123,1.097 -2.738,1.748 -0.441,0.467 -0.8,1.11 -1.197,1.622 -0.804,1.038 0.368,1.693 0.281,2.82 -0.06,0.701 0.207,1.48 1.02,1.035 0.972,-0.531 1.652,0.748 0.917,1.456 -0.809,0.779 -2.012,1.054 -2.795,1.836 -0.375,0.375 -1.027,-0.169 -1.413,-0.207 -0.344,-0.03 -0.54,0.638 -0.873,0.768 -3.03,1.184 0.05,3.062 -1.553,4.839 -0.408,0.452 -2.035,1.475 -1.458,2.264 0.981,1.341 1.988,2.698 3.043,3.98 1.251,1.521 3.802,3.929 1.411,5.673 -0.808,0.589 -1.38,1.681 -2.192,2.266 -0.45,0.325 -2.002,-0.05 -2.102,0.115 -0.438,0.719 -1.747,0.557 -1.771,1.303 -0.03,0.886 -1.594,0.896 -2.21,1.191 -1.177,0.564 -2.624,1.304 -3.926,0.653 -0.883,-0.441 -1.698,0.664 -2.617,0.844 -1.119,0.221 -1.138,1.395 -0.876,2.313 0.378,1.326 -0.729,2.347 -1.842,1.338 -0.753,-0.684 -1.125,-1.594 -1.815,-2.317 -0.916,-0.961 -1.504,0.332 -2.401,0 -1.232,-0.449 -1.692,-0.09 -2.933,-0.218 -0.966,-0.104 -0.75,0.271 -1.126,-0.917 -0.355,-1.122 -1.801,-1.219 -2.764,-1.027 -1.275,0.254 -1.238,-0.862 -2.23,-1.296 -0.829,0.833 0.703,2.71 1.208,3.326 1.453,1.772 2.652,2.09 2.694,4.616 0.01,0.82 0.04,1.633 0.254,2.431 0.27,1.008 1.33,2.045 1.188,3.106 -0.241,1.803 -0.247,2.596 1.945,2.651 0.635,0.02 2.99,-0.474 2.787,0.676 -0.375,2.128 -1.469,1.958 -2.508,2.687 -0.782,0.548 -2.162,0.672 -2.477,1.407 -0.357,0.834 -0.275,1.439 -0.849,2.247 -0.512,0.72 -1.191,1.289 -1.652,2.052 0.02,-1.942 -2.98,1.04 -3.542,1.15 -1.351,0.265 -2.221,1.04 -3.03,2.165 -0.542,0.754 -1.672,2.722 -2.578,3.018 -0.596,-0.721 0.172,-1.627 -0.02,-2.41 -0.324,-1.324 -2.269,-0.04 -2.781,0.33 -2.932,2.11 -5.167,-0.189 -7.08,-2.702 -0.894,-1.174 -0.804,-2.544 -1.216,-3.919 -0.472,-1.579 -1.627,-3.774 -1.555,-5.427 0.06,-1.301 -3.414,-5.554 -4.982,-4.375 -0.05,-1.46 2.305,-3.014 3.32,-3.813 1.771,-1.395 0.59,-2.879 -0.659,-4.308 -2.759,-3.153 -1.961,-8.529 -1.952,-12.315 0,-1.354 0.439,-2.002 1.263,-2.92 0.526,-0.587 0.272,-1.795 0.692,-2.562 0.457,-0.835 1.191,-1.431 1.421,-2.165 0.412,-1.313 -1.389,-2.626 -2.129,-2.287 -1.778,0.816 -3.219,1 -4.763,0.896 -0.704,-0.05 -2.215,0.703 -3.827,0.267 -1.141,-0.309 -1.075,0.138 -2.516,0.34 -0.261,0.04 -2.35,-0.63 -2.151,-0.502 -0.796,-0.509 -1.162,-1.639 -1.664,-2.404 -0.709,-1.082 -1.38,-2.148 -2.028,-3.265 -0.332,-0.573 -0.798,-1.27 -1.619,-1.022 -1.531,0.463 -2.508,-1.018 -3.954,-1.169 -0.931,-0.1 -1.341,0.656 -2.19,0.872 -1.253,0.32 -2.429,-0.555 -3.682,-0.325 -0.803,0.146 -1.28,-0.372 -2.118,0.05 -0.826,0.417 -1.929,-0.08 -2.393,-0.835 -0.358,-0.583 -0.538,-1.008 -0.699,-1.653 -0.223,-0.895 -1.473,-0.803 -1.921,-1.443 -0.86,-1.229 -0.186,-3.837 0.549,-4.85 1.394,-1.921 -0.99,-3.809 -1.616,-5.201 -0.66,-1.467 0.06,-4.874 -2.088,-4.319 0.04,-0.52 -0.03,-1.024 -0.216,-1.513 -0.841,0.735 -1.727,1.182 -2.874,1.149"></path>
		<path id="path3412" d="m 834.22,625.23 c -0.731,-0.146 -1.479,-0.252 -2.16,-0.576 0.655,-0.374 2.12,-0.531 2.16,0.576"></path>
		<path id="path3414" d="m 834.94,623.36 c 0.434,-0.656 1.124,-1.483 2.021,-1.08 -0.297,0.971 -1.258,0.798 -2.021,1.08"></path>
		<path id="path3416" d="m 835.16,625.01 c -0.193,-0.216 -0.387,-0.432 -0.58,-0.647 0.52,-0.03 1.026,-0.124 1.52,-0.288 -0.04,0.564 -0.376,0.903 -0.94,0.935"></path>
		<path id="path3418" d="m 835.81,623.79 c -0.24,-0.1 -0.48,-0.192 -0.72,-0.288 0.457,-0.284 0.937,-0.332 1.44,-0.145 -0.24,0.145 -0.48,0.289 -0.72,0.433"></path>
		<path id="path3420" d="m 836.74,624.01 c -0.12,-0.519 0.147,-0.615 0.8,-0.288 -0.267,0.1 -0.534,0.192 -0.8,0.288"></path>
		<path id="path3422" d="m 836.96,621.63 c -0.24,0 -0.48,0 -0.72,0 0.195,-0.532 0.637,-0.87 1.22,-0.721 -0.167,0.241 -0.334,0.481 -0.5,0.721"></path>
		<path id="path3424" d="m 837.32,619.76 c -0.741,-0.233 -0.667,-0.473 0.221,-0.72 -0.07,0.241 -0.147,0.48 -0.221,0.72"></path>
		<path id="path3426" d="m 837.46,620.12 c -0.722,0.342 -1.247,0.962 -1.87,1.439 0.257,-0.813 1.023,-1.387 1.87,-1.439"></path>
		<path id="path3428" d="m 837.61,619.69 c 0.12,-0.331 0.359,-0.523 0.72,-0.576 -0.24,0.192 -0.479,0.383 -0.72,0.576"></path>
		<path id="path3598" d="m 804.63,604.42 c -0.24,-0.07 -0.48,-0.144 -0.72,-0.216 0.204,-0.237 0.444,-0.429 0.72,-0.576 0.323,0.315 0.323,0.578 0,0.792"></path>
		<path id="path3600" d="m 813.92,604.64 c -0.186,-0.54 -3.585,-1.289 -1.821,-1.85 0.937,-0.298 0.982,0.701 1.531,0.626 0.911,-0.124 1.064,-1.201 1.87,-1.513 0.489,1.93 0.269,1.733 -1.58,2.737"></path>
		<path id="path3602" d="m 823.49,607.88 c 0.388,0.458 0.701,0.962 0.94,1.512 -0.461,-0.327 -0.933,-0.914 -0.94,-1.512"></path>
	</g></svg>
