<svg xmlns="http://www.w3.org/2000/svg" viewBox="734 583.3 119.3 119.3"><g fill="#2b1d24"><path d="M742.2 619.2q2.9-3.4 3.6-7.8c.6-2.8 1.2-5 2.7-7.4 1.2-2 3.9-3.2 5-5.3 1.3-2.4 3.6-1.7 5.7-3-.9 2-3.2 1.2-4.4 2.7-1 1.3 0 4.1 1.4 4.7-1.2-.1 0 2.6.1 3.2.4 1.6-1.1 3.2-2.2 4.2q-2.2 2-1.2 4.6.3 1.1 1 2c.8.5.9.3.8 1.2-.3 2 1.2 2.5 2.9 1.6q2.3-1.5 2.5-4.2c.3-2.4-.8-3.7-2-5.6q-.7-1.2-1.2-2.5c-.2-.8.4-1.8-.2-2.5 1 .1 1.7-1.2 2.4-1.6 1.3-.7 2.5-1.7 4-2q1.7-.2 3.4-1c.4-.3 1.6-1.3 2.2-1q0-.6-.6-1c.6.2 2.3 1.6 2.8 1 .4-.5 0-1.6-.5-1.9-.8-.3-2 .5-2.9.6.2-1-.6-6.3 2.3-5 1.4.5 1 3.4 1.3 4.5.4 2.5 3.2.9 5 1.5 2 .7 4.5 1.2 5.4 3.6.5 1.4-1 4.6 1.5 5.1 2.8.6 6.4-.7 9.2-1 2.4-.4 4.9-1 6.4 1.2q.9 1.4 2.5 2l2.5.7s2.8.6 1.5.6c2.2 1.2 3.3-1.4 5-1.6 1.2 0 1.4-1.2 2.3-1.6 1.3-.6 2.7.5 4-.2-1.1-1.2-3.7 0-4.4-1.4h1.9c.8 0 1.1-.6 1.7-.6l1 .4q1.4.2 2.6-.1c3.8-.6 7.6 0 11.3-.7-.6 1.2-2.4 1-3.5 1.5-1.7 1-3.6-.5-5.2.8q.8-.7 1.3.3-1 0-1.2 1 2.2-1 2.4 1.6c0 1.3-2.2.4-2.8.4.5 1.8 3.4.5 3-1 .9 0 1.2 1 1.3 1.6 0 1 .9 2 .8 2.8q.8-1 .6-2.3c.7.7.8 2.1.2 3 .7-.6.4-1.7.3-2.5l1.2.4s-2.5-1.3-1-1.2c1.3.2 3 1.6 2.3 3 .3-.5.8-.4.4-1q.8-.4 1.7-.1c-1.2-1.4.7-.2 1.2.5.8 1.4 2.2.8 3.3 1.6 2.8 2.2-.5 2.2-1.2 4.3l.7-.8c.2 1-1 2.9-1.4 3.7-.3.6-.2 1-1 1-.5 0-2.4-.5-2.8 0 1 .5 2.3.7 2.8 1.7.6-.8 1.4-1.3 1.5 0 .9-1 1.5-1.4 2.7-1.7 1.1-.2 1.6 1 2.6 0 1.9-1.8 5.1 2.6 4.1 3.1q-1.4.8-2.4 2c-.8.8-2.2 1.2-2.8 1.8l-1.2 1.6c-.8 1 .4 1.7.3 2.8 0 .7.2 1.5 1 1 1-.4 1.7.8 1 1.5-.9.8-2 1-2.8 1.9-.4.3-1-.2-1.5-.2-.3 0-.5.6-.8.7-3 1.2 0 3.1-1.6 4.9-.4.4-2 1.4-1.4 2.2l3 4c1.3 1.5 3.8 4 1.4 5.7-.8.6-1.4 1.7-2.2 2.3-.4.3-2 0-2 0-.5.8-1.8.6-1.8 1.4 0 .9-1.6.9-2.3 1.2-1.1.5-2.6 1.3-3.9.6-.9-.4-1.7.7-2.6.9-1.1.2-1.1 1.4-.9 2.3.4 1.3-.7 2.3-1.8 1.3-.8-.7-1.1-1.6-1.8-2.3-1-1-1.5.3-2.4 0-1.3-.5-1.7 0-3-.2-1-.1-.7.3-1-1-.4-1-1.9-1.2-2.9-1-1.2.3-1.2-.8-2.2-1.3-.8.9.7 2.7 1.2 3.4 1.5 1.7 2.7 2 2.7 4.6q0 1.2.3 2.4c.2 1 1.3 2 1.2 3.1-.3 1.8-.3 2.6 1.9 2.7.6 0 3-.5 2.8.6-.4 2.2-1.5 2-2.5 2.7-.8.6-2.2.7-2.5 1.4-.4.9-.3 1.5-.8 2.3l-1.7 2c0-1.9-3 1-3.5 1.2q-2 .4-3 2.2c-.6.7-1.7 2.7-2.6 3-.6-.7.1-1.7 0-2.4-.4-1.4-2.3 0-2.8.3-3 2.1-5.2-.2-7.1-2.7-1-1.2-.8-2.6-1.2-4-.5-1.5-1.7-3.7-1.6-5.4 0-1.3-3.4-5.5-5-4.3 0-1.5 2.3-3 3.3-3.8 1.8-1.4.6-3-.6-4.4-2.8-3.1-2-8.5-2-12.3q0-1.7 1.3-2.9c.5-.6.3-1.8.7-2.5.4-.9 1.2-1.5 1.4-2.2.4-1.3-1.4-2.6-2.1-2.3q-2.6 1.1-4.8.9c-.7 0-2.2.7-3.8.3-1.2-.3-1 .1-2.5.3l-2.2-.5c-.8-.5-1.1-1.6-1.6-2.4l-2-3.3c-.4-.5-.9-1.2-1.7-1-1.5.5-2.5-1-4-1.2-.9 0-1.3.7-2.1 1-1.3.2-2.5-.6-3.7-.4-.8.1-1.3-.4-2.1 0s-2 0-2.4-.8q-.6-.8-.7-1.7c-.3-.8-1.5-.8-2-1.4-.8-1.2-.1-3.8.6-4.8 1.4-2-1-3.9-1.6-5.2-.7-1.5 0-5-2.1-4.4q0-.8-.2-1.5a4 4 0 0 1-2.9 1.2"/><path d="M834.2 625.2q-1.1-.1-2.1-.5c.6-.4 2-.6 2.1.5m.8-1.8c.4-.7 1-1.5 2-1.1-.3 1-1.3.8-2 1m.2 1.7-.6-.6 1.5-.3q0 .8-1 1"/><path d="m835.8 623.8-.7-.3q.7-.4 1.4-.1zm.9.2q0-.7.8-.3zm.3-2.4h-.8q.4-.8 1.3-.7zm.3-1.8q-1-.4.2-.8zm.2.3-2 1.5q.5-1.4 2-1.5m.1-.4q.2-.5.7-.6zm-33-15.3-.7-.2.7-.6q.6.5 0 .8m9.4.2c-.3-.5-3.7-1.2-1.9-1.8 1-.3 1 .7 1.5.6 1-.1 1-1.2 1.9-1.5.5 2 .3 1.7-1.6 2.7m9.6 3.3q.6.7 1 1.5-.9-.6-1-1.5"/></g></svg>
