<svg xmlns="http://www.w3.org/2000/svg" viewBox="2024.21 486.02 148.71 148.71"><g id="vn" fill="#2B1D24">
		
		<path id="Vietnam_mainland" d="m 2065.64,504.77 c 1.19,-0.05 1.29,-2.197 2.04,-2.783 1.23,-0.969 2.61,0.811 3.24,1.445 1.13,1.133 1.82,0.264 2.51,-0.93 0.96,-1.642 1.55,-0.165 2.29,0.684 0.27,-0.635 0.26,-2.187 1.25,-1.194 0.62,0.613 1.18,1.368 1.93,1.835 0.46,0.292 0.78,-2.749 2.08,-2.801 -0.37,2.019 3.41,0.224 3.95,-0.453 0.58,-0.724 -0.16,-1.256 0.1,-1.91 0.28,-0.862 2.59,-1.125 3.11,-2.388 1.06,1.475 2.41,2.638 4.04,3.425 1.28,0.617 2.46,-0.563 3.38,0.567 0.93,1.134 2.37,-0.626 3.49,0.502 0.58,0.573 1.27,2.896 -0.32,2.346 0,1.967 1.03,3.412 1.65,5.327 0.57,-0.489 2.67,0.176 2.67,1.008 0,1.247 2.4,0.968 2.73,2.161 0.24,-0.144 0.48,-0.288 0.72,-0.433 0.39,1.019 0.98,0.336 1.83,0.114 1.28,-0.333 4.82,0.849 3.62,1.517 -0.86,0.757 -1.9,-0.875 -2.79,-0.14 -0.8,0.666 -1.05,1.615 -2.14,1.783 -1.15,0.18 -0.24,1.235 -0.67,2 -0.41,0.745 -2.75,1.466 -1.57,0.126 -0.76,-0.183 -1.76,0.964 -1.8,1.368 -0.64,-0.355 -0.89,-1.538 -1.8,-1.225 0.28,0.308 0.61,0.547 1,0.72 -0.64,0.744 -0.16,1.112 0.32,1.902 0.4,0.658 -1.05,0.639 -1.32,0.474 0.32,0.681 0.51,2.588 -0.22,3.097 0.1,0.03 0.19,0.03 0.29,0 -0.1,0.545 -2.33,2.995 -2.81,2.376 -1.22,0.605 -1.61,2.421 -1.72,3.629 -0.16,1.667 0.54,2.796 -0.32,4.364 -0.98,1.778 0.92,2.184 1.03,3.814 0.42,-1.125 0.68,0.571 1.15,1.184 0.62,0.824 1.35,1.463 2.2,2.053 0.8,0.562 1.61,1.146 2.33,1.817 1.04,0.964 0.58,2 0.94,3.227 -0.45,-0.346 -0.95,-0.538 -1.51,-0.576 1.79,0.305 2.64,2.548 4.05,3.674 1.02,0.822 4.28,2.423 3.44,4.174 1.1,-0.635 2.85,1.567 3.46,2.232 -0.31,-0.14 -0.62,-0.26 -0.94,-0.36 1.34,0.838 2.57,1.759 3.46,3.097 1.19,-1.436 3.61,1.785 2.95,2.52 0.63,-0.444 -0.35,-1.832 0.94,-1.152 -1.93,1.663 3.99,5.51 4.1,6.984 0.49,-1.251 0.71,-0.207 1.11,0.368 0.61,0.899 -0.33,0.53 -0.17,1.216 0.29,1.276 1.32,2.412 1.83,3.603 0.69,1.614 1.04,3.365 1.77,4.987 0.29,0.653 0.61,1.313 0.77,2.017 0.1,0.344 0.11,2.158 -0.34,0.409 0,0.975 1.12,3.806 0,2.089 0.25,0.579 0.61,1.083 1.08,1.512 -1.34,0.184 -0.27,0.854 0,1.614 0.3,1.1 0.65,1.843 1.24,2.82 0.23,0.398 0.25,2.376 0.16,2.981 -0.4,-0.409 -0.69,-0.889 -0.85,-1.44 -1.36,0.797 -0.1,2.447 0.35,3.385 -0.45,-0.266 -0.93,-0.458 -1.43,-0.576 0.64,0.585 1.29,3.662 0.93,4.535 0,-0.521 -0.14,-1 -0.43,-1.439 0.46,0.716 0.1,1.457 -0.14,2.16 0.81,-0.02 0.85,0.57 0.64,1.186 -0.23,0.657 -1.19,0.971 -1.25,1.19 -0.38,1.351 0.15,1.39 -1.32,2.145 -0.42,0.355 -0.86,0.677 -1.32,0.965 -0.64,0.262 -0.84,1.19 -1.33,1.338 -0.81,0.245 -1.65,0.592 -2.36,1.058 -0.33,0.218 -0.83,1.832 -1.09,1.745 -0.73,-0.249 -1.96,0.658 -2.51,1.075 -0.75,0.566 -2.23,1.064 -2.78,1.755 -0.51,-0.988 -1.85,-0.956 -1.94,-2.232 -0.1,0.505 -0.19,1.009 -0.29,1.513 -0.12,-0.406 -0.28,-0.79 -0.5,-1.152 0.37,0.833 0.25,0.785 -0.37,-0.145 0.81,0 -0.81,-0.508 -0.79,-0.504 0.25,0.874 -0.11,1.994 -1.22,1.729 0.26,0.805 1.42,-0.417 1.68,0.72 0.34,1.451 -2.24,0.74 -2.76,0.72 0.89,0.728 2.37,0.587 2.95,1.729 -0.87,0.132 -0.92,1.503 -1.92,0.805 -0.66,-0.463 -1.1,-1.856 -1.97,-1.957 0.56,0.655 3.33,2.954 2.88,3.672 -1.78,-0.721 -2.71,-2.48 -4.17,-3.6 0.31,1.153 5.59,4.695 3.22,5.987 -1.55,0.849 -4.19,-3.283 -5.31,-3.972 0.77,1.263 3.6,3.212 3.12,4.893 -0.38,1.3 -2.58,1.655 -3.63,2.178 -1.76,0.883 -1.82,2.202 -2.9,3.611 -0.74,0.961 -2.65,2.555 -3.86,1.414 0.37,-0.47 0.85,-0.758 1.44,-0.864 -0.14,-0.3 -0.23,-0.612 -0.29,-0.937 -0.31,0.142 -0.62,0.262 -0.94,0.36 0,-1.815 -0.33,-3.617 -0.34,-5.433 0,-0.895 0.1,-1.812 0.34,-2.667 0.19,-0.576 1.46,-3.022 1.73,-1.261 0,-2.827 -5.4,-2.415 -4.89,-4.823 -0.11,0.426 -0.68,0.131 -0.97,-0.343 0.49,-0.166 1.2,-0.707 1.74,-0.762 4.2,-0.423 2.03,-2.12 3.26,-3.575 1.36,1.314 3.27,-0.11 4.75,-0.4 0.51,-0.101 0.85,0.346 1.08,0.725 0.57,0.915 1.62,0.828 2.52,1.116 0,-0.788 -0.81,-1.446 0.14,-1.584 -0.19,-1.33 -1.85,-1.38 -2.39,-2.302 -0.47,-0.788 -0.78,-1.8 -0.97,-2.692 -0.18,-0.846 0.71,-0.943 1.13,-1.597 0.64,-0.996 2.78,0.455 3.6,0.614 -0.46,-0.836 0.13,-1.823 -0.5,-2.592 0.69,-0.175 1.56,0.09 2.14,-0.113 0.6,-0.202 1.65,-1.081 2.2,-1.47 0.65,-0.453 0.89,-1.035 1.71,-1.27 0.63,-0.181 1.48,-0.11 2,-0.593 1.38,-1.301 -0.73,-4.871 -0.56,-6.536 0.15,-1.427 0.68,-2.45 0,-3.83 -0.24,-0.423 -0.47,-0.845 -0.71,-1.266 -0.4,-0.753 -0.15,-1.289 -0.43,-1.985 -0.4,-0.984 -0.96,-0.894 -1.05,-2.205 -0.12,-1.586 0.89,-2.514 0.98,-3.918 0,-0.338 -0.1,-1.914 -0.26,-2.075 -1.2,-1 0,-0.943 0.49,-1.987 0.7,-1.609 -1.21,-3.196 -2.37,-3.942 -0.53,-0.342 -1.89,-1.068 -1.82,-1.856 0.1,-0.941 1.65,-1.326 2.02,-2.16 -1.01,-0.382 -2.32,-1.165 -2.96,-2.051 -0.48,-0.658 -0.93,-0.111 -1.46,-1.013 -0.71,-1.215 -1.11,-0.08 -1.99,-0.608 -0.52,-0.306 -1.11,-1.607 -1.21,-2.185 -0.3,-1.819 -1.06,-3.372 -2.55,-4.654 -0.42,-0.362 -1.37,-0.603 -1.96,-1.22 -1.11,-1.165 -2.44,-2.346 -3.37,-3.649 -0.6,-0.838 -0.86,-1.866 -1.49,-2.684 -0.25,-0.324 -0.67,-0.711 -1.09,-0.369 -0.44,-0.678 -1.26,-0.915 -1.68,-1.613 -0.31,-0.514 -1.18,-1.727 -0.6,-2.301 0.72,-0.719 -2.67,-1.417 -2.9,-1.469 -2.26,-0.517 -3.81,-3.112 -5.95,-3.7 -0.62,-0.17 -2.29,-0.956 -0.95,-1.588 1.91,-0.898 -0.49,-1.428 -0.15,-2.432 0.18,-0.54 2.77,0.254 3.03,0.293 1.06,0.16 3.92,-1.596 2.44,-2.021 0.32,-0.489 1.29,-0.747 1.29,-1.44 0,-0.875 -0.97,-1.66 -1.82,-1.549 -0.58,0.08 -0.65,-0.299 -0.82,-0.782 -0.37,-1.067 -1.47,-0.779 -2.32,-1.125 0.2,-0.759 1.3,-0.61 1.36,-1.241 0.1,-1.071 -1.08,-1.476 -1.78,-1.98 -0.83,-0.602 -1.39,-1.325 -2.55,-1.113 -1.81,0.329 -1.41,1.298 -2.22,2.391 -0.81,-0.494 -2,-1.428 -2.88,-1.257 -1.01,0.195 -2.89,-1.614 -3.38,-2.344 -0.56,-0.829 -1.07,-2.813 -0.79,-3.805 0.51,-1.757 -0.95,-1.373 -1.3,-2.747 0.22,0.564 0.12,1.068 -0.29,1.512 -0.95,-0.286 -1.16,-1.962 -1.98,-2.608 -1.1,-0.881 -2.92,-2.432 -3.49,-3.733"></path>
		<path id="path3474" d="m 2108.19,614.21 c 0.24,0.767 0.69,1.553 1.51,1.8 -0.58,-0.527 -1.11,-1.123 -1.51,-1.8"></path>
		<path id="path3476" d="m 2112.80,606.29 c 0.17,0.788 -0.38,1.58 0.43,2.16 0.36,-0.76 0.11,-1.568 -0.43,-2.16"></path>
		<path id="path3478" d="m 2114.02,607.59 c -0.1,0.238 -0.1,0.478 0,0.72 0,-0.24 0,-0.48 0,-0.72"></path>
		<path id="path3480" d="m 2130.66,589.23 c 0.12,0.339 0.35,0.555 0.71,0.648 -0.24,-0.216 -0.47,-0.432 -0.71,-0.648"></path>
		<path id="path5494" d="m 2102.72,518.24 c 0.1,-0.345 0,-0.585 -0.43,-0.72 0.14,0.24 0.29,0.479 0.43,0.72"></path>
		<path id="path5496" d="m 2103.37,518.31 c 0.31,0.448 0.72,0.784 1.22,1.008 0.6,-0.923 -0.57,-1.174 -1.22,-1.008"></path>
		<path id="path5498" d="m 2106.97,514.49 c -0.2,0.633 -0.32,1.281 -0.36,1.944 0.75,-0.446 1.58,-1.438 0.36,-1.944"></path>
		<path id="path5500" d="m 2107.98,516.58 c -0.37,0.324 -0.66,0.708 -0.87,1.151 0.52,-0.167 0.89,-0.579 0.87,-1.151"></path>
		<path id="path5502" d="m 2109.85,513.56 c 0.25,0.118 0.49,0.07 0.72,-0.144 -0.24,0.05 -0.48,0.1 -0.72,0.144"></path>
	</g></svg>
