<svg xmlns="http://www.w3.org/2000/svg" viewBox="2024.2 486 148.7 148.7"><g fill="#2b1d24"><path d="M2065.6 504.8c1.2 0 1.3-2.2 2-2.8 1.3-1 2.7.8 3.3 1.4 1.1 1.2 1.8.3 2.5-.9 1-1.6 1.6-.2 2.3.7.3-.6.3-2.2 1.3-1.2q.8 1 1.9 1.8c.5.3.8-2.7 2-2.8-.3 2 3.5.2 4-.4.6-.8-.1-1.3.1-2 .3-.8 2.6-1 3.1-2.3q1.6 2.1 4 3.4c1.4.6 2.5-.6 3.5.6s2.3-.7 3.4.5c.6.5 1.3 2.9-.3 2.3 0 2 1 3.4 1.7 5.3.5-.4 2.6.2 2.6 1 0 1.3 2.4 1 2.8 2.2l.7-.4c.4 1 1 .3 1.8 0 1.3-.2 4.8 1 3.6 1.6-.8.8-1.9-.9-2.7-.1-.8.6-1 1.6-2.2 1.8-1.1.1-.2 1.2-.7 2-.4.7-2.7 1.4-1.5 0-.8-.1-1.8 1-1.8 1.4-.7-.3-1-1.5-1.8-1.2q.4.5 1 .7c-.7.8-.2 1.2.3 2 .4.6-1 .6-1.3.4.3.7.5 2.6-.2 3.1h.2c0 .6-2.3 3-2.8 2.4-1.2.6-1.6 2.4-1.7 3.6-.1 1.7.6 2.8-.3 4.4-1 1.8 1 2.2 1 3.8.4-1.1.7.6 1.2 1.2q.9 1.1 2.2 2l2.3 1.9c1 1 .6 2 1 3.2q-.7-.6-1.6-.6c1.8.3 2.7 2.6 4 3.7 1.1.8 4.4 2.4 3.5 4.1 1.1-.6 2.9 1.6 3.5 2.3l-1-.4q2.1 1.2 3.5 3.1c1.2-1.4 3.6 1.8 3 2.5.6-.4-.4-1.8.9-1.1-2 1.6 4 5.5 4.1 7 .5-1.3.7-.2 1.1.3.6 1-.3.6-.2 1.3.3 1.2 1.4 2.4 1.9 3.6l1.7 5 .8 2c.1.3.1 2.1-.3.4 0 1 1 3.8 0 2q.3.9 1 1.6c-1.3.2-.2.8 0 1.6q.4 1.4 1.3 2.8c.2.4.2 2.4.1 3q-.6-.6-.8-1.5c-1.4.8-.1 2.5.3 3.4l-1.4-.5c.7.5 1.3 3.6 1 4.5q0-.8-.5-1.4c.5.7.1 1.4-.1 2.1q1 .1.6 1.2c-.2.7-1.2 1-1.2 1.2-.4 1.3.1 1.4-1.4 2.1l-1.3 1c-.6.3-.8 1.2-1.3 1.3l-2.4 1c-.3.3-.8 2-1 1.8-.8-.2-2 .7-2.6 1.1-.7.6-2.2 1-2.7 1.8-.6-1-1.9-1-2-2.3l-.3 1.6q-.1-.7-.5-1.2.6 1.2-.3-.1c.8 0-.9-.6-.8-.6.2 1-.1 2-1.3 1.8.3.8 1.5-.4 1.7.7.4 1.4-2.2.7-2.7.7.9.7 2.3.6 3 1.7-1 .2-1 1.6-2 .9-.7-.5-1.1-1.9-2-2 .6.7 3.4 3 3 3.7-1.9-.8-2.8-2.5-4.3-3.6.3 1.1 5.6 4.7 3.3 6-1.6.8-4.2-3.3-5.4-4 .8 1.2 3.6 3.2 3.2 4.9-.4 1.3-2.6 1.6-3.7 2.2-1.7.8-1.8 2.2-2.9 3.6-.7 1-2.6 2.5-3.8 1.4q.5-.7 1.4-.9l-.3-1-1 .4-.3-5.4q0-1.3.4-2.7c.2-.5 1.4-3 1.7-1.2 0-2.9-5.4-2.4-4.9-4.8 0 .4-.7 0-1-.4l1.8-.8c4.2-.4 2-2 3.3-3.5 1.3 1.3 3.2-.1 4.7-.4q.8 0 1 .7c.7 1 1.7.8 2.6 1.1 0-.8-.8-1.4.1-1.6-.1-1.3-1.8-1.3-2.3-2.3q-.7-1.3-1-2.7c-.2-.8.7-1 1.1-1.6.7-1 2.8.5 3.6.7-.4-.9.1-1.9-.5-2.6.7-.2 1.6 0 2.2-.2s1.6-1 2.2-1.4c.6-.5.8-1 1.7-1.3.6-.2 1.4-.1 2-.6 1.3-1.3-.8-4.9-.6-6.5.2-1.4.7-2.5 0-3.9l-.7-1.2c-.4-.8-.2-1.3-.4-2-.4-1-1-.9-1-2.2-.2-1.6.8-2.5.9-4 0-.3-.1-1.8-.3-2-1.2-1 0-1 .5-2 .7-1.6-1.2-3.2-2.3-4-.6-.3-2-1-1.9-1.8.1-1 1.7-1.3 2-2.1a7 7 0 0 1-2.9-2.1c-.5-.7-1-.1-1.5-1-.7-1.2-1 0-2-.6-.5-.3-1-1.6-1.2-2.2q-.4-2.7-2.5-4.7c-.4-.3-1.4-.6-2-1.2-1-1.1-2.4-2.3-3.3-3.6l-1.5-2.7c-.3-.3-.7-.7-1.1-.4-.5-.7-1.3-.9-1.7-1.6-.3-.5-1.2-1.7-.6-2.3.7-.7-2.7-1.4-2.9-1.5-2.3-.5-3.8-3-6-3.7-.6-.1-2.2-1-.9-1.5 2-1-.5-1.5-.2-2.5.2-.5 2.8.3 3 .3 1.1.2 4-1.6 2.5-2 .3-.5 1.3-.8 1.3-1.4 0-1-1-1.7-1.8-1.6q-.8 0-.8-.8c-.4-1-1.5-.8-2.4-1.1.2-.8 1.3-.6 1.4-1.2.1-1.1-1-1.5-1.8-2s-1.4-1.4-2.5-1.1c-1.8.3-1.4 1.3-2.2 2.4-.9-.5-2-1.5-3-1.3s-2.8-1.6-3.3-2.3a6 6 0 0 1-.8-3.9c.5-1.7-1-1.3-1.3-2.7q.3.8-.3 1.5c-1-.3-1.1-2-2-2.6a13 13 0 0 1-3.5-3.7"/><path d="M2108.2 614.2q.3 1.4 1.5 1.8zm4.6-7.9c.2.8-.4 1.6.4 2.2q.5-1.2-.4-2.2m1.2 1.3v.7zm16.7-18.4q0 .6.7.7zm-28-71q.2-.4-.4-.7zm.7.1q.4.7 1.2 1c.6-.9-.6-1.2-1.2-1m3.6-3.8-.4 2c.8-.5 1.6-1.5.4-2m1 2.1q-.6.5-.9 1.1.8-.2.9-1.1m1.9-3 .7-.2z"/></g></svg>
