<svg xmlns="http://www.w3.org/2000/svg" viewBox="1616.3 510.7 105.5 105.5"><path fill="#2b1d24" d="m1625.3 578.2.1-1c-1.1.2-.7.6 0 1m73 15.3c0-.8-1-.5-1.4-.4zm10.6-1.5c1.7-.3 4.6-.1 5.5-2-1-.6-2.3-1.6-3.6-1.3q-.8.4-1.7.5c-.7 0-1.3-.7-2-.5-.7 0-1.4 1.6-.8 2.1q1.2 1 2.6 1.3m-6.2-37.9c-2.4 0-1-5-3.5-5.3 1.1-1.7-2.9-7-3.6-9l-2.8-6.4c-7.1 1.4-14.3 3-21.3 3.9-5.8 1.8-8.8 4.7-10.1 7.8-1.2 1.9-1.9 6.5-4.8 6.3-2-.1-1.8-3.1-3.7-2.9a25 25 0 0 1-6.8 0c-1.4-.3-2.9-1.3-4.2-1.3l-4.5.3c-1.9.2-3.4 1-5.3 1-1-.1-1.5-1.3-2.5-1.4q-1.5-.1-2.3 1.4t-.4 3.1c0 .7 1 1.4.5 2l-1.3 2-1 1c-1 .4-.5.8-.3 1.8.3 1.7-.3 2.5-.6 4-.3 1.4.9 2.6.7 4-.2-.2-1.7-.3-1.4.3l1.4.7q1 1.3 1.4 2.9c.5 2.2.6 4.6 1.3 6.8l1.3 2.3c.4 1 0 2.2 0 3.3 0 2 2.5 3.8 1.8 6 1 0 1.5-.5 2.5-.2 1 .4 1.6.8 2.7.6 2.3-.5 3.3-2 5.6-.8 0-.7.6-1.3.8-.4l1-1.4c.5-.8 1.3-.7 2-1.2 1.4-1.2 1.6-2.3 3.6-2.8q3-.6 5.9-.3c1.1.1 3-1.2 4.2-1.5 1.7-.5 2.5-2 4-2.8l1.6-1q.9 0 1.6.4.9 0 1.7-.2c3.6-.6 4.4-4.3 7.7-6q2.1-.9 4.4-1.2c2-.3 3.7-1.6 5.7-2.1l4-1c1.3-.6 1.8-1.6 3-2.2.9-.5 2.9-.4 3.1-1.7.4-1.4-.6-2.7-.1-4.2 1-3 4.7-3 7-4.6"/></svg>
