<svg xmlns="http://www.w3.org/2000/svg" viewBox="1415.07 874.51 140.7 140.7"><path id="za" d="m 1501.88,955.06 c 0.95,0.94 0.87,2.3 1.64,3.27 0.67,0.85 0.44,1.96 1.14,2.66 0.88,0.87 3.18,3.81 4.7,2.57 0.67,-0.54 1.23,-2.34 1.7,-3.12 0.74,-1.24 1.99,-0.99 3.19,-1.33 0.88,-0.24 2.75,-0.98 3.12,-1.9 0.48,-1.18 0.53,-1.85 1.37,-2.89 0.32,-0.39 1.32,-1.46 1.15,-2.04 -0.52,-1.82 -1.28,-1.93 -2.49,-3.19 -0.94,-0.99 -1.95,-1.91 -2.88,-2.9 -0.8,-0.86 -2.19,0.49 -2.92,0.81 -0.81,0.35 -1.2,0.73 -2,1.17 -0.93,0.51 -1.91,0.33 -2.65,1.28 -0.8,1.03 -1.2,2.31 -1.92,3.4 -0.82,1.24 -2.02,1.38 -3.15,2.21 m -77.11,-9.21 c 0.75,-0.71 1.89,-0.56 2.03,-1.68 0.13,-0.94 0.79,-2.58 1.79,-2.89 1.31,-0.43 1.15,1.41 2.05,1.67 1.55,0.45 0,2 0.72,2.94 1.32,1.66 3.36,1.81 5.31,2.43 1.77,0.56 3.2,-0.23 4.93,-0.19 1.55,0 2.16,0.92 3.76,0.45 -0.96,-1.09 0.23,-1.26 0.88,-1.52 0.89,-0.35 0.95,-1.5 2.08,-1.83 0.72,-0.21 2.23,-0.31 2.32,-1.32 l 0.69,-31.111 c 0.85,1.2 2.32,1.768 3.11,3.018 0.9,1.427 1.46,3.324 2.05,4.905 0.59,1.596 1.12,3.331 0.35,4.976 -1,2.105 -1.72,3.256 -0.75,5.602 1.71,-1.98 5.96,1.029 7.83,-0.782 0.3,-0.3 0.1,-1.068 0.52,-1.199 0.51,-0.147 0.95,-0.04 1.45,-0.325 1.29,-0.738 1.56,-2.433 2.9,-3.232 1.48,-0.878 2.43,-1.844 2.76,-3.606 0.3,-1.534 0.25,-2.809 1.51,-3.955 1.1,-0.998 2.53,-1.199 3.87,-0.593 1.11,0.5 2.71,2.852 3.76,2.823 2.37,-0.06 5.15,2.79 7.39,1.017 1,-0.794 2.51,0.31 3.76,-0.621 1.33,-0.995 1.82,-2.657 2.39,-4.158 0.31,-0.795 0.58,-1.614 0.71,-2.458 0.21,-1.372 -0.45,-1.271 0.95,-1.666 0.8,-0.229 3.17,-0.631 3.61,-1.389 0.79,-1.355 2.37,-1.963 3.03,-3.396 0.72,-1.561 0.41,-3.174 1.48,-4.645 0.91,-1.259 1.93,-1.371 3.12,-2.195 1.21,-0.845 2.75,-2.146 3.68,-3.311 0.78,-0.993 1.31,-2.516 2.49,-3.118 1.19,-0.602 2.59,-0.657 3.83,-1.109 1.18,-0.433 1.15,-0.958 1.73,-1.877 0.49,-0.78 1.83,-1.033 2.65,-1.204 3.34,-0.7 5.38,1.499 8.63,1.522 2.9,0.02 5.53,-1.095 6.48,2.456 0.53,1.981 0.98,4 1.04,6.06 0,1.874 1.19,3.483 1.87,5.166 1.45,3.604 1.1,7.026 0.91,10.831 -0.1,1.463 0,3.255 -0.52,4.801 -0.26,0.754 -0.37,0.708 -0.1,2.88 0.12,0.06 -0.88,-1.076 -1.88,-1.418 -0.94,-0.325 -1.79,-0.203 -2.56,-0.194 -0.63,1.243 -1.6,0.988 -2.33,2.563 -0.87,1.899 -1.66,4.817 -1.93,4.606 1.41,1.272 1.89,2.289 2.76,3.29 1.42,1.629 3.47,2.495 5.03,0.953 0.42,-0.422 -0.22,-0.649 1.33,-2.807 l 1.29,0.03 4.53,0.157 c -0.85,3.791 -1.94,7.135 -2.95,10.893 -0.52,1.94 -1.55,5.89 -4.22,5.7 0.42,0.95 -0.82,0.92 -1.4,1.03 -0.71,0.15 -1.32,1.05 -1.78,1.55 -1.61,1.8 -3.25,3.93 -3.99,6.21 -0.42,1.28 -1.55,2.09 -2.19,3.24 -1,1.77 -2.04,3.52 -3.2,5.18 -2.09,2.99 -4.33,5.01 -7.12,7.3 -2.32,1.92 -3.7,4.71 -6.02,6.62 -2.95,2.43 -5.85,4.94 -8.89,7.25 -2.4,1.82 -5.14,4 -8.23,4.41 -1.48,0.21 -2.95,-0.61 -4.41,-0.16 -1.06,0.32 -2.54,1.6 -1.08,2.52 -1.74,0.77 -3.66,-1.44 -5.29,-0.33 -1.9,1.3 -2.3,2.07 -4.9,1.08 -1.96,-0.74 -4.46,-1.54 -6.52,-0.75 -0.93,0.35 -0.46,0.95 -1.86,0.45 -0.83,-0.3 -2.26,0.21 -2.68,-0.74 0,0.12 0,0.24 0,0.36 -2.12,-0.34 -5.5,0.63 -6.59,2.6 -0.94,1.72 -5.67,-0.1 -7.17,0.59 -0.9,0.39 -1.85,0.13 -2.7,0.53 -1.02,0.48 -2.16,1.47 -3.06,2.17 -1.14,0.88 -0.69,0.71 -2,0.37 -0.57,-0.15 -1.22,0.18 -1.73,-0.24 -0.58,-0.48 -1.13,-1.05 -1.87,-1.27 1.31,-1.8 -2.72,-1.87 -3.6,-2.02 0.54,-1.4 0,-2.65 -1.69,-2.34 -1.13,0.21 -0.72,1.54 -0.69,2.34 -2.06,-0.8 -0.43,-3.24 -0.23,-4.49 0.17,-1.08 -0.42,-2.2 -0.97,-3.09 -0.31,-0.51 -2.87,-4.06 -1.17,-2.42 -0.73,-0.73 -0.41,-1.53 -1.49,-1.52 -0.91,0 0.1,-2.27 0.19,-2.59 2.33,1.37 2.92,-1.31 2.97,-3.1 0.1,-3.07 -0.78,-5.66 -2.37,-8.29 -2.36,-3.92 -4.45,-7.79 -5.81,-12.19 -0.63,-2.06 -1.04,-4.17 -1.8,-6.19 -0.76,-2.02 -2.59,-3.81 -2.78,-6.01" fill="#2B1D24">
		
	</path></svg>
