<svg xmlns="http://www.w3.org/2000/svg" viewBox="1415.1 874.5 140.7 140.7"><path fill="#2b1d24" d="M1501.9 955c1 1 .9 2.4 1.6 3.3s.5 2 1.2 2.7c.8.9 3.1 3.8 4.7 2.6.6-.6 1.2-2.4 1.7-3.2.7-1.2 2-1 3.2-1.3.8-.2 2.7-1 3-1.9.6-1.2.6-1.8 1.4-2.9.4-.4 1.4-1.4 1.2-2-.5-1.8-1.3-2-2.5-3.2l-2.9-3c-.8-.8-2.2.6-2.9.9-.8.3-1.2.7-2 1.2-1 .5-2 .3-2.6 1.2l-2 3.4c-.8 1.3-2 1.4-3.1 2.3m-77.1-9.3c.7-.7 1.9-.5 2-1.6.1-1 .8-2.6 1.8-3 1.3-.4 1.1 1.5 2 1.7 1.6.5 0 2 .8 3 1.3 1.6 3.3 1.8 5.3 2.4 1.7.6 3.2-.2 4.9-.2 1.6 0 2.2 1 3.8.5-1-1.1.2-1.3.8-1.5 1-.4 1-1.5 2.1-1.9.7-.2 2.2-.3 2.3-1.3l.7-31.1c.9 1.2 2.3 1.8 3.1 3q1.4 2.3 2 5c.7 1.5 1.2 3.3.4 4.9-1 2.1-1.7 3.3-.7 5.6 1.7-2 6 1 7.8-.8.3-.3.1-1 .5-1.2q.8 0 1.5-.3c1.3-.7 1.5-2.4 2.9-3.2 1.5-1 2.4-1.9 2.7-3.6.3-1.6.3-2.9 1.6-4q1.7-1.5 3.8-.6c1.1.5 2.7 2.9 3.8 2.8 2.4 0 5.1 2.8 7.4 1 1-.7 2.5.4 3.7-.6 1.4-1 1.9-2.6 2.4-4.1q.5-1.2.7-2.5c.2-1.4-.4-1.3 1-1.7.8-.2 3.2-.6 3.6-1.3.8-1.4 2.4-2 3-3.4.7-1.6.4-3.2 1.5-4.7 1-1.2 2-1.4 3.1-2.2s2.8-2.1 3.7-3.3c.8-1 1.3-2.5 2.5-3.1q1.9-.7 3.8-1.1c1.2-.5 1.2-1 1.8-1.9.4-.8 1.8-1 2.6-1.2 3.3-.7 5.4 1.5 8.6 1.5 3 0 5.6-1 6.5 2.5q.9 3 1 6c0 2 1.2 3.5 2 5.2 1.4 3.6 1 7 .8 10.8q.1 2.4-.5 4.8c-.2.8-.4.7 0 3 0 0-1-1.2-2-1.5q-1.4-.3-2.5-.2c-.7 1.2-1.6 1-2.4 2.6-.8 1.9-1.6 4.8-1.9 4.6 1.4 1.2 2 2.3 2.8 3.3 1.4 1.6 3.4 2.5 5 1 .4-.5-.2-.7 1.3-2.9h1.3l4.6.2c-.9 3.8-2 7.1-3 10.9-.5 2-1.5 5.9-4.2 5.7.4 1-.8 1-1.4 1q-1 .5-1.8 1.6a19 19 0 0 0-4 6.2c-.4 1.3-1.5 2-2.2 3.2q-1.5 2.7-3.2 5.2c-2 3-4.3 5-7 7.3-2.4 2-3.8 4.7-6.1 6.6l-8.9 7.3c-2.4 1.8-5.1 4-8.2 4.4-1.5.2-3-.6-4.4-.2-1.1.3-2.6 1.6-1.1 2.5-1.8.8-3.7-1.4-5.3-.3-2 1.3-2.3 2-5 1-1.9-.7-4.4-1.5-6.4-.7-1 .4-.5 1-1.9.5-.8-.3-2.3.2-2.7-.8v.4c-2-.3-5.5.6-6.6 2.6-.9 1.7-5.6 0-7.1.6-1 .4-1.9.1-2.7.5q-1.6 1-3 2.2c-1.2.9-.8.7-2 .4-.7-.2-1.3.1-1.8-.3q-.9-.8-1.9-1.2c1.3-1.8-2.7-2-3.6-2 .5-1.5 0-2.7-1.7-2.4-1.1.2-.7 1.5-.7 2.3-2-.8-.4-3.2-.2-4.5.2-1-.4-2.2-1-3-.3-.6-2.8-4.1-1.1-2.5-.8-.7-.5-1.5-1.5-1.5s0-2.3.2-2.6c2.3 1.4 2.9-1.3 3-3q0-4.5-2.4-8.4a55 55 0 0 1-5.9-12.2q-.7-3-1.8-6.1c-.7-2-2.5-3.9-2.7-6"/></svg>
