<svg xmlns="http://www.w3.org/2000/svg" viewBox="1460.47 760.54 103.54 103.54"><path id="zm" d="m 1467.61,838.499 c 0,-8.184 0,-16.394 0.13,-24.577 0,-0.877 -0.3,-2.682 0.92,-2.949 1.07,-0.233 2.38,0.07 3.47,0.1 3.64,0.1 7.5,0.725 11.03,-0.442 -1.15,-1.263 -0.56,-2.394 0,-3.76 0.66,-1.66 -0.22,-2.958 -0.13,-4.614 0.16,-3.065 1.47,-6.577 0.23,-9.626 1.15,0.02 1.03,1.269 2.23,1.515 1.32,0.272 0.73,2.233 0.22,3.025 1.59,0.349 1.44,0.309 2.99,-0.364 1.5,-0.654 3.22,-1.064 4.86,-1.156 -0.59,1.156 -0.3,3.261 0.62,4.18 0.72,0.721 1.89,0.277 2.78,0.686 1.3,0.595 2.24,1.163 3.72,1.183 2.38,0.03 4.59,1.604 5.43,-1.428 0.92,-3.304 1.9,0.389 3.05,1.392 0.78,0.685 0.67,1.785 1.24,2.618 0.91,1.33 1.91,0.07 2.7,0.59 1.2,0.787 1.66,1.505 2.96,1.483 1.53,-0.03 1.17,2.474 2.19,3.417 1.49,1.384 1.78,2.546 2.62,4.317 1.08,2.235 4.2,-2.096 5.38,-0.647 -0.52,0.41 -0.54,1.094 0.12,1.356 1.15,0.461 0.76,-1.875 0.77,-2.375 0.1,-2.896 0.18,-5.804 0.18,-8.701 -0.52,0.197 -1.1,0.25 -1.63,0.416 -0.92,0.284 -0.65,1.072 -1.04,1.694 -0.69,1.08 -3.72,-1.396 -4.42,-2.122 -2.1,-2.194 -4.51,-3.99 -3.27,-7.63 0.67,-1.969 1.24,-3.597 1.79,-5.271 0.38,-1.156 -0.39,-3.081 -0.28,-4.383 0.17,-2.122 1.22,-6.599 -1.62,-7.475 0.92,-2.416 6.02,-3.755 4.07,-6.979 4.2,-0.899 7.94,-1.162 12.74,-2.229 0,0.811 -1,1.843 -0.97,2.048 0.1,0.433 1.42,-0.177 0.74,0.954 0.14,0.27 0.66,-1.177 2.44,0.598 1.84,1.834 2.52,0.62 2.34,-0.293 2.05,0.02 2.57,0.746 3.42,2.251 0.37,0.657 0.79,0.389 1.35,0.187 0.73,-0.262 0.99,0.951 1.58,1.202 1.21,0.508 3.44,0.339 3.83,1.769 0.12,0.427 0.93,0.269 1.43,0.425 0.83,0.259 1.56,0.527 1.86,0.88 0.31,0.354 0.29,0.792 0.14,1.251 -0.39,1.206 2.38,0.749 2.87,2.548 0.16,0.601 -0.31,0.952 -0.22,1.51 0.14,0.864 0.79,1.174 1.39,1.704 0.52,0.462 0.71,2.024 0.93,2.669 0.42,1.207 -1,2.354 -2.16,2.71 -1.27,0.387 -0.54,1.365 -0.22,2.335 0.48,1.517 -0.41,2.323 -0.46,3.785 -0.1,2.1 -1.03,6.595 1.6,7.388 -1.07,1.149 -4.35,1.692 -4.33,3.621 0,1.261 0.33,1.728 0.1,3.154 -0.38,2.075 -1.72,3.294 -2.21,4.745 -0.29,0.836 0.66,1.507 1.29,1.957 0.93,0.651 1.36,0.172 1.72,0.81 -7.12,3.321 -14.75,5.338 -22,8.294 -0.93,0.651 1.59,3.953 1.12,5.614 -0.69,0.08 -2.61,0.37 -3.29,0.1 -1.32,-0.529 -2.88,0.288 -4.12,0.706 -1.78,0.596 -4.06,1.645 -4.44,3.702 -0.17,0.876 0,1.831 -0.35,2.661 -0.56,1.179 -2.12,1.322 -3.2,1.747 -1.88,0.737 -4.41,2.268 -5.44,4.036 -1.05,1.793 -5.18,9.642 -8.28,7.786 -0.68,-0.405 -1.4,-0.784 -2.16,-1.023 -1.1,-0.35 -2.19,1.105 -3.06,0.625 -0.68,-0.379 -0.95,-1.65 -1.81,-1.443 -0.19,0.05 -2.4,0.599 -3.5,-0.435 -1.24,-1.172 -1.8,-1.982 -2.79,-2.247 -1.05,-0.22 -1.76,0.882 -3.67,-0.253 -1.52,-0.234 -2.57,0.571 -4.07,0.687 -0.77,0.06 -2.24,0.651 -2.74,0.463 -2.59,-0.995 -4.33,-3.972 -6.16,-6.014 -1,-1.119 -1.78,-2.025 -2.86,-3.061 -1.02,-0.973 -1.3,-1.945 -1.64,-3.394" fill="#2B1D24">
		
	</path></svg>
