<svg xmlns="http://www.w3.org/2000/svg" viewBox="1486.8 829 68.6 68.6"><path fill="#2b1d24" d="M1492 852.7q1.5.5 2.8 0c1-.3 1.4 1.1 2 1.5s1.9-.6 2.5-.7c.9-.1 2.1.8 2.8 1.1 2.1 1 3.4-1 4.5-2.5q2.3-3 4.1-5.8c.5-.9 1.2-1.2 2-1.8q1.5-1.2 3.5-1.9c2.5-1 2.9-1.3 3-4.1.1-1.4 2.4-3 3.6-3.6q1.9-.8 3.9-1.1c1.5 0 3 .4 4.5 0 0 2.9-.2 3.2 3 3.2 2 0 3 .4 5 1.2l4.6 2.5c1.5.8 4 .4 4.6 1.7q.6 1.3 2 .7c-.2 1.3-1 2.1-.4 3.5.8 1.6-.1 2.8.3 4.3.5 1.4-.6 3-.3 4.7.3 1 1 2 0 2.9-.8.6-.2 2-.5 2.3-1 .6-1.3.5-1.7 1.8-.2.6.7.8 1 1 .3.3 0 1.1 0 1.4q-.2.8-.7 1.4c-.1.4.5 2 .6 2.5l.8-.3c-.1 1.6.5 2.2-.4 3.8-.8 1.3-1.3 3.4-2.7 4-1.6.8-.4 1.8-.7 3-.3 1.5-1.5 2.3-.3 3.8-1.2-.9-6.6 7.1-7.6 7.8-1 .6-1.5 2-1.9 1.9-.8-1.8-4.2-1-5.8-1q-2.3-.2-4.2-1c-3.2-1.1-4.1-.4-4.3-.6-.8-1-1-.5-1.9-1-1-.6 0-1.5-.3-2-1.5-1.9-7.1-.6-8-2.7-.8-2-2.4-4-1.7-6 1-2.7-.4-3.3-3.1-2.7.4-2.6-.2-3.7-2.6-4.4-2-.6-4.5-2.7-5.6-4.4-1.6-2.5-1.6-5.7-3.6-8.2-.8-1-3.6-4.8-2.9-6.2"/></svg>
