<svg xmlns="http://www.w3.org/2000/svg" viewBox="1486.85 829.05 68.59 68.59"><path id="zw" d="m 1491.94,852.679 c 0.97,0.226 1.92,0.432 2.9,0.08 0.94,-0.347 1.4,1.062 2.01,1.453 0.66,0.431 1.82,-0.626 2.46,-0.726 0.84,-0.129 2.09,0.812 2.81,1.122 2.1,0.9 3.36,-1.017 4.49,-2.542 1.51,-2.037 3.01,-3.945 4.09,-5.759 0.52,-0.875 1.23,-1.223 2.01,-1.834 1.05,-0.828 2.21,-1.347 3.48,-1.873 2.46,-1.026 2.91,-1.32 3.06,-4.117 0.1,-1.371 2.36,-3.066 3.6,-3.558 1.17,-0.461 2.59,-1.095 3.84,-1.143 1.52,-0.06 3.06,0.422 4.56,0.04 0,2.863 -0.24,3.139 2.93,3.139 1.98,0 3.08,0.487 5.03,1.271 1.09,0.436 3.59,1.894 4.61,2.441 1.48,0.791 3.95,0.454 4.54,1.701 0.43,0.92 1.18,0.988 2.05,0.729 -0.22,1.33 -1,2.093 -0.38,3.465 0.73,1.612 -0.17,2.794 0.32,4.305 0.49,1.466 -0.61,3.097 -0.3,4.69 0.22,1.104 0.89,2.012 -0.1,2.889 -0.72,0.641 -0.1,2.141 -0.48,2.38 -1.04,0.582 -1.3,0.494 -1.7,1.787 -0.17,0.574 0.78,0.782 1.06,1.038 0.24,0.218 0,1.067 0,1.313 -0.1,0.588 -0.57,0.905 -0.74,1.448 -0.12,0.422 0.53,1.994 0.66,2.466 0.24,-0.1 0.47,-0.194 0.72,-0.29 -0.1,1.571 0.54,2.191 -0.41,3.787 -0.76,1.283 -1.25,3.413 -2.68,4.082 -1.55,0.731 -0.36,1.722 -0.65,2.932 -0.36,1.479 -1.51,2.337 -0.36,3.82 -1.2,-0.869 -6.61,7.126 -7.61,7.765 -0.94,0.602 -1.42,1.933 -1.82,1.924 -0.85,-1.756 -4.19,-1.028 -5.88,-1.023 -1.48,0 -2.83,-0.567 -4.2,-1.039 -3.13,-1.081 -4.09,-0.31 -4.26,-0.513 -0.82,-0.99 -0.93,-0.503 -1.87,-1.022 -1.05,-0.577 0,-1.505 -0.34,-1.94 -1.5,-1.95 -7.09,-0.701 -7.93,-2.756 -0.82,-2.007 -2.42,-3.924 -1.74,-5.926 0.94,-2.753 -0.41,-3.383 -3.16,-2.819 0.49,-2.603 -0.19,-3.664 -2.6,-4.38 -1.91,-0.566 -4.46,-2.699 -5.53,-4.364 -1.64,-2.538 -1.66,-5.712 -3.61,-8.176 -0.86,-1.075 -3.58,-4.827 -2.89,-6.262" fill="#2B1D24">
		
	</path></svg>
