<svg xmlns="http://www.w3.org/2000/svg" viewBox="0 0 1200 630" font-family="'Helvetica Neue', Helvetica, Arial, sans-serif">
  <rect width="1200" height="630" fill="#FAFAFA"/>

  <g transform="translate(227.5, 130) scale(2.7)">
    <rect x="0"    y="4"    width="9" height="9" fill="#C2899F"/>
    <rect x="11.5" y="4"    width="9" height="9" fill="#2B1D24"/>
    <rect x="23"   y="4"    width="9" height="9" fill="#C2899F"/>
    <rect x="0"    y="15.5" width="9" height="9" fill="#C2899F"/>
    <rect x="11.5" y="15.5" width="9" height="9" fill="#C2899F"/>
    <rect x="23"   y="15.5" width="9" height="9" fill="#2B1D24"/>
    <rect x="0"    y="27"   width="9" height="9" fill="#C2899F"/>
    <rect x="11.5" y="27"   width="9" height="9" fill="#2B1D24"/>
    <rect x="23"   y="27"   width="9" height="9" fill="#2B1D24"/>
    <text x="44" y="28" font-size="22" font-weight="600" letter-spacing="-0.3">
      <tspan fill="#C2899F">yetanother</tspan><tspan fill="#2B1D24" font-weight="700">quiz</tspan>
    </text>
  </g>

  <svg x="70" y="355" width="160" height="120" viewBox="0 0 640 480">
    <path fill="#fff" d="M150.1 0h339.7v480H150z"/>
    <path fill="#d52b1e" d="M-19.7 0h169.8v480H-19.7zm509.5 0h169.8v480H489.9zM201 232l-13.3 4.4 61.4 54c4.7 13.7-1.6 17.8-5.6 25l66.6-8.4-1.6 67 13.9-.3-3.1-66.6 66.7 8c-4.1-8.7-7.8-13.3-4-27.2l61.3-51-10.7-4c-8.8-6.8 3.8-32.6 5.6-48.9 0 0-35.7 12.3-38 5.8l-9.2-17.5-32.6 35.8c-3.5.9-5-.5-5.9-3.5l15-74.8-23.8 13.4q-3.2 1.3-5.2-2.2l-23-46-23.6 47.8q-2.8 2.5-5 .7L264 130.8l13.7 74.1c-1.1 3-3.7 3.8-6.7 2.2l-31.2-35.3c-4 6.5-6.8 17.1-12.2 19.5s-23.5-4.5-35.6-7c4.2 14.8 17 39.6 9 47.7"/>
  </svg>
  <rect x="70.5" y="355.5" width="159" height="119" fill="none" stroke="#2B1D24" stroke-width="1"/>

  <svg x="250" y="355" width="160" height="120" viewBox="0 0 640 480">
    <path fill="#229e45" d="M0 0h640v480H0z"/>
    <path fill="#f8e509" d="m321.4 436 301.5-195.7L319.6 44 17.1 240.7z"/>
    <path fill="#2b49a3" d="M452.8 240c0 70.3-57.1 127.3-127.6 127.3A127.4 127.4 0 1 1 452.8 240"/>
    <path fill="#fff" d="M444.4 285.8a125 125 0 0 0 5.8-19.8c-67.8-59.5-143.3-90-238.7-83.7a125 125 0 0 0-8.5 20.9c113-10.8 196 39.2 241.4 82.6"/>
  </svg>
  <rect x="250.5" y="355.5" width="159" height="119" fill="none" stroke="#2B1D24" stroke-width="1"/>

  <svg x="430" y="355" width="160" height="120" viewBox="0 0 640 480">
    <path fill="#fff" d="M0 0h640v240H0z"/>
    <path fill="#dc143c" d="M0 240h640v240H0z"/>
  </svg>
  <rect x="430.5" y="355.5" width="159" height="119" fill="none" stroke="#2B1D24" stroke-width="1"/>

  <svg x="610" y="355" width="160" height="120" viewBox="0 0 640 480">
    <defs>
      <clipPath id="za-a">
        <path fill-opacity=".7" d="M-71.9 0h682.7v512H-71.9z"/>
      </clipPath>
    </defs>
    <g clip-path="url(#za-a)" transform="translate(67.4) scale(.93748)">
      <path fill="#000001" d="M-71.9 407.8V104.4L154 256.1z"/>
      <path fill="#000c8a" d="m82.2 512.1 253.6-170.6H696V512H82.2z"/>
      <path fill="#e1392d" d="M66 0h630v170.8H335.7S69.3-1.7 66 0"/>
      <path fill="#ffb915" d="M-71.9 64v40.4L154 256-72 407.8v40.3l284.5-192z"/>
      <path fill="#007847" d="M-71.9 64V0h95l301.2 204h371.8v104.2H324.3L23 512h-94.9v-63.9l284.4-192L-71.8 64z"/>
      <path fill="#fff" d="M23 0h59.2l253.6 170.7H696V204H324.3zm0 512.1h59.2l253.6-170.6H696v-33.2H324.3L23 512z"/>
    </g>
  </svg>
  <rect x="610.5" y="355.5" width="159" height="119" fill="none" stroke="#2B1D24" stroke-width="1"/>

  <svg x="790" y="355" width="160" height="120" viewBox="0 0 640 480">
    <path fill="#e30a17" d="M0 0h640v480H0z"/>
    <path fill="#fff" d="M407 247.5c0 66.2-54.6 119.9-122 119.9s-122-53.7-122-120 54.6-119.8 122-119.8 122 53.7 122 119.9"/>
    <path fill="#e30a17" d="M413 247.5c0 53-43.6 95.9-97.5 95.9s-97.6-43-97.6-96 43.7-95.8 97.6-95.8 97.6 42.9 97.6 95.9z"/>
    <path fill="#fff" d="m430.7 191.5-1 44.3-41.3 11.2 40.8 14.5-1 40.7 26.5-31.8 40.2 14-23.2-34.1 28.3-33.9-43.5 12-25.8-37z"/>
  </svg>
  <rect x="790.5" y="355.5" width="159" height="119" fill="none" stroke="#2B1D24" stroke-width="1"/>

  <svg x="970" y="355" width="160" height="120" viewBox="0 0 640 480">
    <defs>
      <clipPath id="jp-a">
        <path fill-opacity=".7" d="M-88 32h640v480H-88z"/>
      </clipPath>
    </defs>
    <g clip-path="url(#jp-a)" transform="translate(88 -32)">
      <path fill="#fff" d="M-128 32h720v480h-720z"/>
      <circle cx="523.1" cy="344.1" r="194.9" fill="#bc002d" transform="translate(-168.4 8.6) scale(.76554)"/>
    </g>
  </svg>
  <rect x="970.5" y="355.5" width="159" height="119" fill="none" stroke="#2B1D24" stroke-width="1"/>
</svg>
