<svg xmlns="http://www.w3.org/2000/svg" width="774.964" height="435.918" version="1" viewBox="0 0 726.529 408.673"><path d="M0 0h726.529v408.673H-.001z"/><path fill="#d30000" d="M0 136.224h726.529v272.448H-.001z"/><path fill="green" d="M0 272.448h726.529v136.224H-.001z"/><path d="M325.595 237.001v6.137h6.899v-6.137zm14.298 0v6.137h6.148v-6.137zm13.52 0v6.137h6.148v-6.137zm13.547 0v6.137h6.148v-6.137zm13.548 0v6.137h6.148v-6.137zm13.52 0v6.137h6.926v-6.137zm-61.117 6.38v3.948h6.176v-3.947zm13.742 0v3.948h6.148v-3.947zm13.548 0v3.948h6.147v-3.947zm13.52 0v3.948h6.147v-3.947zm13.741 0v3.948h6.148v-3.947zm-47.68 4.597v3.947h6.148v-3.947zm13.631 0v3.947h6.148v-3.947zm13.547 0v3.947h6.148v-3.947zm13.631 0v3.947h6.148v-3.947z" fill="#fff"/><g fill="#fff"><path d="M427.346 159.113c2.513 0 4.535 1.965 4.535 4.407 0 1.882-1.215 3.497-2.921 4.136l-2.281 6.65c9.873 5.06 17.497 13.72 17.497 24.63 0 5.492-2.091 9.91-4.033 13.247-2.157 2.954-5.039 5.423-7.122 8.976-2.14 3.649-1.894 8.157-5.953 10.706-2.116-.938-4.618-3.39-4.618-7.219 0-5 3.116-10.373 3.116-14.49 0-3.575-2.565-10.347-6.565-13.572l-12.157 35.28-4.562-4.19 20.808-62.586a4.326 4.326 0 0 1-.306-1.568c0-2.442 2.05-4.407 4.562-4.407zM299.183 159.113c-2.513 0-4.535 1.965-4.535 4.407 0 1.882 1.215 3.497 2.921 4.136l2.281 6.65c-9.873 5.06-17.497 13.72-17.497 24.63 0 5.492 2.091 9.91 4.034 13.247 2.156 2.954 5.038 5.423 7.12 8.976 2.14 3.649 1.895 8.157 5.954 10.706 2.116-.938 4.618-3.39 4.618-7.219 0-5-3.116-10.373-3.116-14.49 0-3.575 2.565-10.347 6.565-13.572l12.157 35.28 4.562-4.19-20.808-62.586c.19-.487.306-1.017.306-1.568 0-2.442-2.05-4.407-4.562-4.407z"/></g><path d="M337.807 190.068c-3.731 0-6.732 2.916-6.732 6.543v5.623h-3.45v5.813h7.901v-1.866h22.644v1.866h40.753v-5.813h-3.45v-5.623c0-3.627-3.027-6.543-6.759-6.543zm1.725 4.407c1.941 0 3.533 1.547 3.533 3.433 0 1.887-1.592 3.407-3.533 3.407-1.941 0-3.505-1.52-3.505-3.407 0-1.886 1.564-3.433 3.505-3.433zm8.206 0c1.941 0 3.505 1.547 3.505 3.433 0 1.887-1.564 3.407-3.505 3.407-1.941 0-3.533-1.52-3.533-3.407 0-1.886 1.592-3.433 3.533-3.433zm8.179 0c1.941 0 3.533 1.547 3.533 3.433 0 1.887-1.592 3.407-3.533 3.407-1.942 0-3.505-1.52-3.505-3.407 0-1.886 1.563-3.433 3.505-3.433zm14.604 0c1.941 0 3.533 1.547 3.533 3.433 0 1.887-1.592 3.407-3.533 3.407-1.941 0-3.505-1.52-3.505-3.407 0-1.886 1.564-3.433 3.505-3.433zm8.206 0c1.942 0 3.506 1.547 3.506 3.433 0 1.887-1.564 3.407-3.506 3.407-1.94 0-3.532-1.52-3.532-3.407 0-1.886 1.591-3.433 3.532-3.433zm8.179 0c1.941 0 3.533 1.547 3.533 3.433 0 1.887-1.592 3.407-3.533 3.407-1.941 0-3.505-1.52-3.505-3.407 0-1.886 1.564-3.433 3.505-3.433z" fill="#fff"/><g fill="#fff" stroke="#be0000" stroke-width=".762" stroke-linecap="square" stroke-linejoin="round" stroke-dashoffset="3.2" transform="matrix(.89018 0 0 .86513 670.873 -291.807)"><rect ry="0" rx="0" y="520.45" x="-396.448" height="103.388" width="12.053"/><rect width="12.053" height="103.388" x="-306.721" y="520.45" rx="0" ry="0"/></g><path d="M365.542 211.67c-.888 0-1.586.705-1.586 1.567v23.764h3.032v-17.14h1.002v17.14h2.364v-16.14l16.691 16.14h3.505l-17.72-17.14h2.003l17.692 17.14h4.284v-4.352h-3.421v-3.407h-3.45v-3.38h-3.421v-3.379h-3.45v-3.406h-3.45v-3.38h-3.532v-2.46c0-.862-.726-1.568-1.614-1.568zM342.341 260.927c-1.234.094-2.185 1.443-1.335 2.542 6.61 8.539 20.815 14.88 29.96 12.652.437 1.137.975 2.366 1.808 3.515 1.386 1.91 3.757 3.487 7.15 3.487 4.876 0 8.198-5.01 6.76-10.03-.198-.696-.873-1.16-1.614-1.108-4.684.336-8.442.331-13.325 0-10.362-.703-19.573-5.659-28.068-10.706-.462-.274-.924-.383-1.336-.352zm41.422 14.14c.262 2.864-1.473 5.028-3.84 5.028-2.516 0-3.652-.86-4.617-2.19-.573-.789-.99-1.781-1.391-2.811 3.344.143 6.506.157 9.848-.027z" fill="#fff"/><path d="M385.362 260.927c1.234.094 2.185 1.443 1.335 2.542-6.61 8.539-20.815 14.88-29.96 12.652-.437 1.137-.975 2.366-1.808 3.515-1.386 1.91-3.757 3.487-7.15 3.487-4.876 0-8.198-5.01-6.76-10.03.198-.696.873-1.16 1.614-1.108 4.684.336 8.442.331 13.325 0 10.362-.703 19.573-5.659 28.068-10.706.462-.274.924-.383 1.336-.352zm-41.422 14.14c-.262 2.864 1.473 5.028 3.84 5.028 2.515 0 3.652-.86 4.617-2.19.573-.789.99-1.781 1.391-2.811-3.344.143-6.506.157-9.848-.027z" fill="#fff"/><path d="M-390.422 495.344c-2.553 0-7.906 9.107-7.906 13.469 0 4.361 3.545 7.875 7.906 7.875 4.362 0 7.906-3.514 7.906-7.875 0-4.362-5.285-13.47-7.906-13.47zM-396.89 517.844c-.557 0-1 .443-1 1v4.218c0 .557.443 1 1 1h12.937c.556 0 1-.443 1-1v-4.218c0-.557-.444-1-1-1zM-395.86 544.75c-.853 0-1.562.71-1.562 1.563v1.125c0 .853.71 1.53 1.563 1.53h10.906c.853 0 1.531-.677 1.531-1.53v-1.125c0-.854-.678-1.563-1.531-1.563zM-395.547 570.938c-.853 0-1.531.678-1.531 1.53v3.095c0 .853.678 1.53 1.531 1.53h10.25c.853 0 1.531-.677 1.531-1.53v-3.094c0-.853-.678-1.532-1.53-1.532z" fill="#fff" stroke="#be0000" stroke-width=".762" stroke-linecap="square" stroke-linejoin="round" stroke-dashoffset="3.2" transform="matrix(.89018 0 0 .86513 670.873 -291.807)"/><path d="M314.631 248.24l-6.23 9.502h109.578l-6.231-9.502-12.324 3.28h-72.16z" fill="#fff"/><path d="M-396.813 616.688c-2.668 3.906-3.847 7.812-4.75 11.718h22.282c-.984-3.997-2.919-7.9-5.688-11.718zM-300.694 495.344c-2.554 0-7.907 9.107-7.907 13.469 0 4.361 3.545 7.875 7.907 7.875 4.361 0 7.906-3.514 7.906-7.875 0-4.362-5.286-13.47-7.906-13.47zM-307.163 517.844c-.557 0-1 .443-1 1v4.218c0 .557.443 1 1 1h12.937c.557 0 1-.443 1-1v-4.218c0-.557-.443-1-1-1zM-306.132 544.75c-.853 0-1.562.71-1.562 1.563v1.125c0 .853.709 1.53 1.562 1.53h10.906c.854 0 1.532-.677 1.532-1.53v-1.125c0-.854-.678-1.563-1.532-1.563zM-305.82 570.938c-.853 0-1.53.678-1.53 1.53v3.095c0 .853.677 1.53 1.53 1.53h10.25c.854 0 1.532-.677 1.532-1.53v-3.094c0-.853-.678-1.532-1.531-1.532zM-307.085 616.688c-2.669 3.906-3.847 7.812-4.75 11.718h22.281c-.983-3.997-2.918-7.9-5.687-11.718zM-345.558 520.063c-.75 1.753-3.211 4.38-6.469 6.75-3.213 2.336-7.208 4.413-9.594 5.062-11.065 3.01-18.625 9.036-18.625 15.969 0 4.096 2.653 7.881 7.094 10.906h55.188c4.441-3.025 7.093-6.81 7.093-10.906 0-6.933-7.559-12.958-18.625-15.969-2.385-.649-6.38-2.726-9.593-5.063-3.258-2.37-5.72-4.996-6.47-6.75z" fill="#fff" stroke="#be0000" stroke-width=".762" stroke-linecap="square" stroke-linejoin="round" stroke-dashoffset="3.2" transform="matrix(.89018 0 0 .86513 670.873 -291.807)"/><path d="M-378.235 572.01h65.354" fill="#fd5" stroke="#be0000" stroke-width=".762" stroke-linecap="round" stroke-linejoin="round" stroke-dashoffset="3.2" transform="matrix(.89018 0 0 .86513 670.873 -291.807)"/><path d="M335.526 206.181v30.82h4.061v-16.275c0-3.947 3.232-7.137 7.261-7.137s7.26 3.19 7.26 7.137v16.275h4.062v-30.82zm3.06 1.379h4.117v5.218h-4.117zm6.203 0h4.118v5.218h-4.118zm6.204 0h4.117v5.218h-4.117z" fill="#fff"/><path d="M-376.719 577.781v-2.156h25.438v2.156" fill="none" stroke="#be0000" stroke-width=".762" stroke-linecap="round" stroke-linejoin="round" stroke-dashoffset="3.2" transform="matrix(.89018 0 0 .86513 670.873 -291.807)"/><path d="M363.265 75.865l-4.84 4.704 2.28 39.31c.857-.025 1.697-.055 2.56-.055.862 0 1.702.03 2.559.054l2.28-39.309zm-9.236 8.976l-7.9 7.678 4.951 28.17a89.722 89.722 0 0 1 5.008-.54zm18.471 0l-2.058 35.308c1.718.137 3.43.308 5.118.54l4.896-28.116zM342.067 96.52l-6.51 6.272 5.843 19.682c1.638-.412 3.332-.707 5.007-1.028zm42.395 0l-4.395 24.926c1.675.32 3.368.617 5.007 1.028l5.842-19.682zm-52.632 9.949l-5.508 5.353 5.842 13.626c1.586-.592 3.156-1.174 4.785-1.677zm62.869 0l-5.119 17.302a87.119 87.119 0 0 1 4.84 1.677l5.787-13.626zm-124.903 7.03v6.65l30.21 26.224a86.254 86.254 0 0 1 3.617-3.515l-26.984-29.36zm13.019 0l24.257 26.385a86.587 86.587 0 0 1 4.006-3.082l-17.025-23.304zm16.969 0l15.077 20.654a88.284 88.284 0 0 1 4.34-2.65l-10.237-18.005zm14.465 0l9.013 15.842a88.167 88.167 0 0 1 4.618-2.163l-5.842-13.68zm90.242 0l-5.842 13.679c1.56.677 3.108 1.4 4.618 2.163l9.013-15.843zm13.13 0l-10.237 18.005a88.375 88.375 0 0 1 4.34 2.649l15.077-20.655zm14.8 0l-16.97 23.25a86.535 86.535 0 0 1 4.006 3.135l24.257-26.386zm17.469 0l-26.984 29.36a86.254 86.254 0 0 1 3.617 3.514l30.21-26.224v-6.65zm6.843 12.76l-27.095 23.52a84.9 84.9 0 0 1 3.172 3.893l23.923-16.491zm-186.937.054v10.868l23.923 16.491a84.88 84.88 0 0 1 3.116-3.839zm0 16.383v8.922l18.527 9.895c.86-1.418 1.73-2.855 2.67-4.218zm186.937 0l-21.197 14.6c.955 1.382 1.854 2.831 2.726 4.27l18.471-9.948zm-186.937 14.058v7.516l14.076 5.678c.687-1.494 1.398-2.988 2.17-4.434zm186.937 0l-16.246 8.706c.78 1.46 1.477 2.98 2.17 4.488l14.076-5.678zm-188.717 11.68l-5.508 5.353 17.859 5.028c.521-1.6 1.11-3.147 1.725-4.704zm190.498 0l-14.076 5.677c.615 1.557 1.203 3.104 1.724 4.704l17.86-5.028zm-199.79 9.03l-6.453 6.272 25.703 4.271c.329-1.628.634-3.273 1.058-4.866zm209.08 0l-20.306 5.677c.423 1.593.728 3.238 1.057 4.866l25.704-4.271zM248.21 187.682l-7.956 7.732 36.386 1.946c.14-1.652.32-3.296.557-4.92zm230.111 0l-28.986 4.758c.238 1.641.416 3.304.556 4.974l36.386-2zm12.296 11.95l-40.448 2.216c.025.833.056 1.649.056 2.487 0 .839-.03 1.655-.056 2.488l40.448 2.216 4.84-4.704zm-254.758.053l-4.785 4.65 4.896 4.759 40.392-2.217c-.026-.85-.056-1.685-.056-2.542 0-.82.032-1.618.056-2.433zm40.781 11.625l-36.33 2.001 7.956 7.732 28.93-4.758a82.576 82.576 0 0 1-.556-4.975zm173.251.054a82.555 82.555 0 0 1-.556 4.92l28.93 4.76 7.956-7.733zm-171.916 9.355l-25.703 4.217 6.509 6.326 20.307-5.677a82.495 82.495 0 0 1-1.113-4.866zm170.58 0a82.499 82.499 0 0 1-1.112 4.866l20.307 5.677 6.51-6.326zm-168.187 9.192l-17.804 5.028 5.508 5.353 14.02-5.677c-.615-1.557-1.202-3.105-1.724-4.704zm165.795 0c-.522 1.6-1.109 3.147-1.724 4.704l14.076 5.623 5.452-5.299zm-162.29 8.867l-14.076 5.678v7.515l16.301-8.705a83.58 83.58 0 0 1-2.225-4.488zm158.785 0a83.555 83.555 0 0 1-2.225 4.434l16.301 8.76v-7.516zm-154.39 8.381l-18.471 9.949v8.922l21.253-14.653c-.958-1.388-1.908-2.774-2.782-4.218zm149.94.054a84.062 84.062 0 0 1-2.727 4.218l21.253 14.599v-8.922zm-144.488 7.84l-23.923 16.492v10.922l27.095-23.52a84.976 84.976 0 0 1-3.172-3.894zm139.09 0a84.954 84.954 0 0 1-3.17 3.84l27.094 23.52v-10.868zm-132.803 7.3l-30.21 26.224v6.597h6.899l26.928-29.307a86.31 86.31 0 0 1-3.617-3.514zm126.461 0a86.236 86.236 0 0 1-3.56 3.46l26.927 29.36h6.9v-6.596zm-119.395 6.488l-24.202 26.333h11.239l16.969-23.197a86.846 86.846 0 0 1-4.006-3.136zm112.385 0a86.917 86.917 0 0 1-4.006 3.082l16.97 23.25h11.238zm-104.651 5.732l-15.022 20.6h9.18L319.2 277.17c-1.478-.848-2.976-1.666-4.395-2.595zm96.862 0c-1.407.92-2.876 1.755-4.34 2.595l10.237 18.006h9.18zm-88.406 4.812l-9.013 15.789h7.79l5.841-13.626a88.097 88.097 0 0 1-4.618-2.163zm80.005 0a88.098 88.098 0 0 1-4.618 2.163l5.842 13.626h7.789zm-71.159 3.893l-5.786 13.626 5.508 5.353 5.119-17.303a87.047 87.047 0 0 1-4.84-1.676zm62.257 0c-1.586.592-3.156 1.173-4.785 1.676l5.119 17.303 5.508-5.353zm-52.91 2.974l-5.842 19.682 6.454 6.272 4.395-24.927c-1.675-.32-3.367-.615-5.007-1.027zm43.563 0c-1.605.402-3.256.714-4.896 1.027l4.34 24.927 6.51-6.327-5.842-19.627c-.035.009-.077-.009-.112 0zm-34.049 1.784l-4.896 28.063 7.956 7.732 2.059-35.254a89.657 89.657 0 0 1-5.119-.54zm24.48 0a89.59 89.59 0 0 1-5.007.541l2.058 35.254 7.9-7.678zm-14.744.811l-2.28 39.255 4.84 4.705 4.84-4.705-2.281-39.255c-.857.025-1.697.054-2.56.054-.862 0-1.702-.03-2.559-.054zM362.15 123.246a11.463 11.463 0 0 0-1.126.026c-2.734 1.99-3.112 8.401-2.494 12.721-1.934-.108-3.923-.313-5.82-.313-2.405 0-4.95 2.55-5.043 4.849-.13 3.161 2.795 7.006 3.272 10.036.127.808.172 1.845.241 2.92 1.068-1.31 2.347-2.69 3.729-3.754.73-.563 1.805-.782 2.977-1.07 1.172-.286 2.406-.56 3.138-.86.323-.132 1.156-.705 2.119-1.485a75.899 75.899 0 0 0 3.272-2.841 223.415 223.415 0 0 0 6.116-5.84.693.693 0 0 1 .402-.208c.296-.039.596.103.724.365a.67.67 0 0 1-.16.782 223.359 223.359 0 0 1-6.143 5.865 77.026 77.026 0 0 1-3.326 2.893c-.998.81-1.785 1.415-2.467 1.695-.94.385-2.202.657-3.353.938-1.152.282-2.222.64-2.441.808-1.65 1.272-3.258 3.128-4.399 4.666.245 1.72.754 3.226 2.065 3.65 2.08.673 7.367-3.233 10.622-3.233 3.495 0 7.826 3.177 9.012 1.851 1.997-2.233-.157-9.434.403-13.633.183-1.378 1.31-2.206 1.716-4.327.728-3.797-4.713-5.266-6.49-5.266-1.049 0-2.71.495-4.426.939-.736-3.766.368-7.108 2.923-9.28-.822-1.898-2.54-2.853-5.042-2.894zm-5.766 14.91c2.674 0 4.855 2.12 4.855 4.719 0 2.6-2.18 4.718-4.855 4.718-2.675 0-4.855-2.119-4.855-4.718 0-2.6 2.18-4.718 4.855-4.718z" fill="#fff"/></svg>