<svg width="600" height="400" xmlns="http://www.w3.org/2000/svg" xmlns:xlink="http://www.w3.org/1999/xlink" preserveAspectRatio="xMidYMid meet">
 <defs>
  <path id="fFqPyRon8" d="m200,0l200,0l0,400l-200,0l0,-200l0,-200z"/>
  <path id="ctQVysN4v" d="m400,0l200,0l0,400l-200,0l0,-200l0,-200z"/>
  <path id="h2UlcGDK0L" d="m0,0l200,0l0,400l-200,0l0,-200l0,-200z"/>
  <path id="coXSvg5sv" d="m300,96.48c-43.17,0 -78.17,46.35 -78.17,103.52c0,57.17 35,103.52 78.17,103.52c43.17,0 78.17,-46.35 78.17,-103.52c0,-57.17 -35,-103.52 -78.17,-103.52z"/>
  <path id="bH5GqlRqD" d="m272.81,238.4l4.98,0l0,-6.08l-4.98,0l0,6.08zm10.32,0l4.44,0l0,-6.08l-4.44,0l0,6.08zm9.76,0l4.44,0l0,-6.08l-4.44,0l0,6.08zm9.78,0l4.43,0l0,-6.08l-4.43,0l0,6.08zm9.77,0l4.44,0l0,-6.08l-4.44,0l0,6.08zm9.76,0l5,0l0,-6.08l-5,0l0,6.08zm-44.11,4.14l4.46,0l0,-3.9l-4.46,0l0,3.9zm9.92,0l4.44,0l0,-3.9l-4.44,0l0,3.9zm9.78,0l4.44,0l0,-3.9l-4.44,0l0,3.9zm9.76,0l4.43,0l0,-3.9l-4.43,0l0,3.9zm9.91,0l4.44,0l0,-3.9l-4.44,0l0,3.9zm-34.41,4.55l4.44,0l0,-3.91l-4.44,0l0,3.91zm9.84,0l4.44,0l0,-3.91l-4.44,0l0,3.91zm9.78,0l4.43,0l0,-3.91l-4.43,0l0,3.91zm9.83,0l4.44,0l0,-3.91l-4.44,0l0,3.91z"/>
  <path id="c44gGNJDVd" d="m349.52,159.61c0,1.86 -0.88,3.46 -2.11,4.09c-0.16,0.66 -1.48,5.93 -1.64,6.58c7.12,5.01 12.62,13.58 12.62,24.38c0,5.43 -1.51,9.8 -2.91,13.1c-1.55,2.93 -3.63,5.37 -5.14,8.89c-1.54,3.61 -1.36,8.07 -4.29,10.59c-1.53,-0.93 -3.34,-3.35 -3.34,-7.14c0,-4.95 2.25,-10.27 2.25,-14.34c0,-3.54 -1.85,-10.24 -4.74,-13.43c-0.58,2.33 -3.5,13.96 -8.77,34.91l-3.29,-4.15c9.01,-37.16 14.01,-57.8 15.02,-61.93c-0.14,-0.48 -0.22,-1 -0.22,-1.55c0,-2.42 1.47,-4.36 3.29,-4.36c1.81,0 3.27,1.94 3.27,4.36z"/>
  <path id="e2qrAtiHbq" d="m250.48,159.61c0,1.86 0.88,3.46 2.11,4.09c0.16,0.66 1.48,5.93 1.64,6.58c-7.12,5.01 -12.62,13.58 -12.62,24.38c0,5.43 1.51,9.8 2.91,13.1c1.55,2.93 3.63,5.37 5.14,8.89c1.54,3.61 1.36,8.07 4.29,10.59c1.53,-0.93 3.34,-3.35 3.34,-7.14c0,-4.95 -2.25,-10.27 -2.25,-14.34c0,-3.54 1.85,-10.24 4.74,-13.43c0.58,2.33 3.5,13.96 8.77,34.91l3.29,-4.15c-9.01,-37.16 -14.01,-57.8 -15.02,-61.93c0.14,-0.48 0.22,-1 0.22,-1.55c0,-2.42 -1.47,-4.36 -3.29,-4.36c-1.81,0 -3.27,1.94 -3.27,4.36z"/>
  <path id="aJaeN18O0" d="m276.77,192.36c0,0 0,4.19 0,5.56c-0.17,0 -1,0 -2.49,0l0,5.75l5.7,0l0,-1.84l16.34,0l0,1.84l29.41,0l0,-5.75c-1.49,0 -2.32,0 -2.48,0c0,-1.37 0,-5.56 0,-5.56c0,-3.59 -2.19,-6.48 -4.88,-6.48c-2.45,0 -14.7,0 -36.74,0c-3.24,1.92 -4.86,4.08 -4.86,6.48zm8.65,1.28c0,1.87 -1.15,3.37 -2.55,3.37c-1.4,0 -2.53,-1.5 -2.53,-3.37c0,-1.87 1.13,-3.4 2.53,-3.4c1.4,0 2.55,1.53 2.55,3.4zm5.9,0c0,1.87 -1.12,3.37 -2.53,3.37c-1.4,0 -2.55,-1.5 -2.55,-3.37c0,-1.87 1.15,-3.4 2.55,-3.4c1.41,0 2.53,1.53 2.53,3.4zm5.93,0c0,1.87 -1.15,3.37 -2.55,3.37c-1.4,0 -2.53,-1.5 -2.53,-3.37c0,-1.87 1.13,-3.4 2.53,-3.4c1.4,0 2.55,1.53 2.55,3.4zm10.54,0c0,1.87 -1.15,3.37 -2.55,3.37c-1.4,0 -2.53,-1.5 -2.53,-3.37c0,-1.87 1.13,-3.4 2.53,-3.4c1.4,0 2.55,1.53 2.55,3.4zm5.9,0c0,1.87 -1.13,3.37 -2.53,3.37c-1.4,0 -2.55,-1.5 -2.55,-3.37c0,-1.87 1.15,-3.4 2.55,-3.4c1.4,0 2.53,1.53 2.53,3.4zm5.92,0c0,1.87 -1.15,3.37 -2.55,3.37c-1.4,0 -2.53,-1.5 -2.53,-3.37c0,-1.87 1.13,-3.4 2.53,-3.4c1.4,0 2.55,1.53 2.55,3.4z"/>
  <path id="a55UvD5fPk" d="m275.05,154.59c0,0 0,0 0,0c0,53.11 0,82.61 0,88.51c0,0 0,0 0,0c-4.65,0 -7.23,0 -7.74,0c0,0 0,0 0,0c0,-53.1 0,-82.61 0,-88.51c0,0 0,0 0,0c4.64,0 7.22,0 7.74,0z"/>
  <path id="a3Uz06mgZ4" d="m332.69,154.59c0,0 0,0 0,0c0,53.11 0,82.61 0,88.51c0,0 0,0 0,0c-4.64,0 -7.22,0 -7.74,0c0,0 0,0 0,0c0,-53.1 0,-82.61 0,-88.51c0,0 0,0 0,0c4.65,0 7.23,0 7.74,0z"/>
  <path id="amcYu3g85" d="m300.5,208.81c0,1.57 0,9.4 0,23.51l2.19,0l0,-16.96l0.72,0l0,16.96l1.71,0l0,-15.97l12.04,15.97l2.53,0l-12.79,-16.96l1.45,0l12.77,16.96l3.09,0l0,-4.3l-2.47,0l0,-3.37l-2.49,0l0,-3.35l-2.47,0l0,-3.34l-2.49,0l0,-3.37l-2.49,0l0,-3.35l-2.55,0c0,-1.46 0,-2.27 0,-2.43c0,-0.86 -0.52,-1.55 -1.16,-1.55c-0.43,0 -2.58,0 -6.45,0c-0.76,0.46 -1.14,0.98 -1.14,1.55z"/>
  <path id="a1fZ0WY5FX" d="m283.94,258.51c4.77,8.45 15.02,14.73 21.62,12.52c0.31,1.13 0.7,2.34 1.3,3.48c1,1.89 2.71,3.45 5.16,3.45c3.52,0 5.92,-4.95 4.88,-9.92c-0.14,-0.69 -0.63,-1.15 -1.16,-1.1c-3.38,0.33 -6.1,0.33 -9.62,0c-7.48,-0.7 -14.13,-5.6 -20.26,-10.59c-0.33,-0.27 -0.66,-0.38 -0.96,-0.35c-0.89,0.09 -1.58,1.43 -0.96,2.51zm28.08,16.46c-1.81,0 -2.63,-0.86 -3.33,-2.17c-0.41,-0.78 -0.71,-1.76 -1,-2.78c2.41,0.14 4.69,0.15 7.1,-0.03c0.19,2.83 -1.06,4.98 -2.77,4.98z"/>
  <path id="g2SVUqiSPA" d="m316.91,258.51c-4.77,8.45 -15.02,14.73 -21.62,12.52c-0.32,1.13 -0.7,2.34 -1.31,3.48c-1,1.89 -2.71,3.45 -5.16,3.45c-3.51,0 -5.91,-4.95 -4.87,-9.92c0.14,-0.69 0.63,-1.15 1.16,-1.1c3.38,0.33 6.09,0.33 9.62,0c7.47,-0.7 14.12,-5.6 20.25,-10.59c0.34,-0.27 0.67,-0.38 0.97,-0.35c0.89,0.09 1.57,1.43 0.96,2.51zm-28.09,16.46c1.82,0 2.64,-0.86 3.34,-2.17c0.41,-0.78 0.71,-1.76 1,-2.78c-2.41,0.14 -4.69,0.15 -7.11,-0.03c-0.19,2.83 1.07,4.98 2.77,4.98z"/>
  <path id="cVFcjCY7i" d="m266.1,144.63c0,3.73 2.28,6.74 5.08,6.74c2.8,0 5.08,-3.01 5.08,-6.74c0,-3.73 -3.4,-11.53 -5.08,-11.53c-1.64,0 -5.08,7.8 -5.08,11.53z"/>
  <path id="f6XKa3KQB" d="m266.38,153.22c0,0.36 0,3.25 0,3.61c0,0.47 0.28,0.85 0.64,0.85c0.83,0 7.48,0 8.31,0c0.36,0 0.65,-0.38 0.65,-0.85c0,-0.36 0,-3.25 0,-3.61c0,-0.48 -0.29,-0.86 -0.65,-0.86c-0.55,0 -3.32,0 -8.31,0c-0.43,0.25 -0.64,0.54 -0.64,0.86z"/>
  <path id="b2QXzc8FNd" d="m266.68,176.73c0,0.1 0,0.87 0,0.97c0,0.73 0.46,1.31 1,1.31c0.71,0 6.31,0 7.01,0c0.55,0 0.98,-0.58 0.98,-1.31c0,-0.1 0,-0.87 0,-0.97c0,-0.73 -0.43,-1.34 -0.98,-1.34c-0.47,0 -2.8,0 -7.01,0c-0.66,0.41 -1,0.86 -1,1.34z"/>
  <path id="a90OlUyKe" d="m266.9,199.12c0,0.27 0,2.39 0,2.65c0,0.73 0.44,1.31 0.99,1.31c0.65,0 5.92,0 6.58,0c0.55,0 0.98,-0.58 0.98,-1.31c0,-0.26 0,-2.38 0,-2.65c0,-0.73 -0.43,-1.31 -0.98,-1.31c-0.44,0 -2.63,0 -6.58,0c-0.66,0.39 -0.99,0.83 -0.99,1.31z"/>
  <path id="hl8gUnwYE" d="m260.4,252.85l79.09,0l-4.5,-9.41l-8.89,3.25l-52.08,0l-9.12,-3.25l-4.5,9.41z"/>
  <path id="c5DtEmOe0" d="m264.02,247.01c1.43,0 12.88,0 14.31,0c-0.63,-3.42 -1.87,-6.76 -3.65,-10.03c-0.51,0 -3.04,0 -7.61,0c-1.65,4.46 -2.66,7.8 -3.05,10.03z"/>
  <path id="aYgtyMyB0" d="m323.74,144.63c0,3.73 2.28,6.74 5.08,6.74c2.8,0 5.08,-3.01 5.08,-6.74c0,-3.73 -3.39,-11.53 -5.08,-11.53c-1.64,0 -5.08,7.8 -5.08,11.53z"/>
  <path id="b2r1e4ONhv" d="m324.02,153.22c0,0.36 0,3.25 0,3.61c0,0.47 0.29,0.85 0.65,0.85c0.83,0 7.48,0 8.31,0c0.36,0 0.64,-0.38 0.64,-0.85c0,-0.36 0,-3.25 0,-3.61c0,-0.48 -0.28,-0.86 -0.64,-0.86c-0.56,0 -3.33,0 -8.31,0c-0.43,0.25 -0.65,0.54 -0.65,0.86z"/>
  <path id="a6DxxfcWm" d="m324.33,176.73c0,0.1 0,0.87 0,0.97c0,0.73 0.45,1.31 1,1.31c0.7,0 6.3,0 7.01,0c0.54,0 0.98,-0.58 0.98,-1.31c0,-0.1 0,-0.87 0,-0.97c0,-0.73 -0.44,-1.34 -0.98,-1.34c-0.47,0 -2.81,0 -7.01,0c-0.67,0.41 -1,0.86 -1,1.34z"/>
  <path id="a49wK7uWcV" d="m324.55,199.12c0,0.27 0,2.39 0,2.65c0,0.73 0.43,1.31 0.98,1.31c0.66,0 5.93,0 6.58,0c0.55,0 0.99,-0.58 0.99,-1.31c0,-0.26 0,-2.38 0,-2.65c0,-0.73 -0.44,-1.31 -0.99,-1.31c-0.43,0 -2.63,0 -6.58,0c-0.66,0.39 -0.98,0.83 -0.98,1.31z"/>
  <path id="foBJSZgv" d="m321.67,247.01c1.43,0 12.88,0 14.31,0c-0.63,-3.42 -1.88,-6.76 -3.65,-10.03c-0.51,0 -3.05,0 -7.61,0c-1.65,4.46 -2.67,7.8 -3.05,10.03z"/>
  <path id="a1i68y1IrF" d="m295.84,160.04c-2.06,2 -4.63,3.78 -6.16,4.33c-7.11,2.58 -11.96,7.74 -11.96,13.67c0,3.51 1.7,6.75 4.55,9.34c3.55,0 31.91,0 35.46,0c2.85,-2.59 4.55,-5.83 4.55,-9.34c0,-5.93 -4.85,-11.09 -11.96,-13.67c-1.53,-0.55 -4.1,-2.33 -6.16,-4.33c-2.1,-2.03 -3.68,-4.28 -4.16,-5.78c-0.48,1.5 -2.06,3.75 -4.16,5.78z"/>
  <path id="bDRkJVM5e" d="m279.01,198.73l41.98,0"/>
  <path id="c1lT8h2H36" d="m279.98,232.32l2.93,0c0,-9.66 0,-15.03 0,-16.1c0,-3.91 2.33,-7.06 5.24,-7.06c2.91,0 5.24,3.15 5.24,7.06c0,1.07 0,6.44 0,16.1l2.93,0l0,-30.49l-16.34,0l0,30.49zm5.18,-29.13l0,5.16l-2.97,0l0,-5.16l2.97,0zm4.48,0l0,5.16l-2.97,0l0,-5.16l2.97,0zm4.47,0l0,5.16l-2.97,0l0,-5.16l2.97,0z"/>
  <path id="k1Zl3TXiLw" d="m279.98,203.67l0,-1.84l16.34,0l0,1.84"/>
  <path id="b1OVoEUAs6" d="m296.51,77.53c0.98,23.34 1.53,36.3 1.64,38.9c0.62,-0.03 1.23,-0.06 1.85,-0.06c0.62,0 1.23,0.03 1.85,0.06c0.11,-2.6 0.66,-15.56 1.64,-38.9l-3.49,-4.66l-3.49,4.66zm-8.88,11.82c2.15,16.73 3.34,26.02 3.58,27.88c1.19,-0.22 2.4,-0.4 3.61,-0.54c-0.1,-2.33 -0.59,-13.97 -1.49,-34.93l-5.7,7.59zm17.55,27.34c1.24,0.14 2.47,0.31 3.69,0.54c0.24,-1.86 1.42,-11.13 3.54,-27.82l-5.74,-7.65c-0.9,20.96 -1.39,32.6 -1.49,34.93zm-25.18,-17.17c2.53,11.68 3.94,18.18 4.22,19.47c1.18,-0.4 2.41,-0.7 3.61,-1.01c-0.2,-1.65 -1.25,-9.87 -3.13,-24.67l-4.7,6.21zm32.13,18.46c1.21,0.31 2.43,0.61 3.61,1.01c0.28,-1.29 1.69,-7.79 4.22,-19.47l-4.66,-6.21c-1.91,14.8 -2.96,23.02 -3.17,24.67zm-38.79,-9.53c2.53,8.09 3.93,12.59 4.21,13.49c1.15,-0.59 2.28,-1.16 3.46,-1.66c-0.25,-1.14 -1.48,-6.85 -3.7,-17.12l-3.97,5.29zm45.65,11.83c1.19,0.5 2.34,1.07 3.5,1.66c0.27,-0.9 1.67,-5.4 4.17,-13.49l-3.97,-5.29c-2.22,10.27 -3.45,15.98 -3.7,17.12zm-86.45,-3.59c13.09,15.57 20.35,24.22 21.81,25.95c0.84,-1.19 1.71,-2.35 2.61,-3.47c-1.3,-1.94 -7.79,-11.63 -19.48,-29.06l-4.94,0l0,6.58zm26.91,19.53c0.94,-1.06 1.9,-2.06 2.89,-3.05c-0.82,-1.53 -4.92,-9.22 -12.29,-23.06l-8.11,0c10.5,15.67 16.34,24.37 17.51,26.11zm5.62,-5.67c1.02,-0.91 2.07,-1.79 3.13,-2.62c-0.49,-1.19 -2.96,-7.13 -7.39,-17.82l-6.62,0c6.52,12.27 10.15,19.08 10.88,20.44zm6.06,-4.76c1.09,-0.75 2.21,-1.47 3.33,-2.14c-0.28,-0.9 -1.68,-5.42 -4.21,-13.54l-5.62,0c3.9,9.41 6.07,14.63 6.5,15.68zm54.41,-2.14c1.12,0.67 2.24,1.39 3.33,2.14c0.43,-1.05 2.6,-6.27 6.5,-15.68l-5.62,0c-2.53,8.12 -3.93,12.64 -4.21,13.54zm6.3,4.28c1.06,0.83 2.12,1.71 3.13,2.62c0.73,-1.36 4.36,-8.17 10.88,-20.44l-6.62,0c-4.43,10.69 -6.9,16.63 -7.39,17.82zm5.82,5.19c1,0.99 1.95,2.03 2.89,3.1c1.17,-1.74 7.01,-10.44 17.51,-26.11l-8.15,0c-7.35,13.81 -11.43,21.48 -12.25,23.01zm5.38,6.05c0.9,1.12 1.77,2.28 2.61,3.47c1.46,-1.73 8.72,-10.38 21.81,-25.95l0,-6.58l-4.94,0c-11.69,17.43 -18.18,27.12 -19.48,29.06zm4.86,6.84c0.8,1.26 1.55,2.54 2.29,3.86c1.15,-1.09 6.91,-6.53 17.27,-16.32l0,-10.81c-11.74,13.96 -18.25,21.72 -19.56,23.27zm-115.36,-12.46c10.36,9.79 16.12,15.23 17.27,16.32c0.73,-1.3 1.46,-2.57 2.25,-3.8c-1.3,-1.55 -7.81,-9.31 -19.52,-23.28l0,10.76zm0,14.28c8.03,5.88 12.48,9.14 13.37,9.79c0.63,-1.4 1.25,-2.82 1.93,-4.17c-1.02,-0.96 -6.12,-5.78 -15.3,-14.44l0,8.82zm119.62,5.62c0.69,1.37 1.34,2.8 1.97,4.23c0.88,-0.66 5.33,-3.94 13.33,-9.85l0,-8.82c-9.18,8.66 -14.28,13.48 -15.3,14.44zm-119.62,6.9c6.1,3.37 9.49,5.25 10.16,5.62c0.5,-1.48 1.01,-2.95 1.57,-4.39c-0.78,-0.57 -4.69,-3.46 -11.73,-8.66l0,7.43zm123.19,1.18c0.56,1.45 1.07,2.95 1.57,4.44c0.67,-0.37 4.06,-2.25 10.16,-5.62l0,-7.43c-7.04,5.16 -10.95,8.04 -11.73,8.61zm-128.45,8.24c7.74,2.99 12.03,4.64 12.89,4.98c0.38,-1.59 0.8,-3.12 1.25,-4.66c-0.68,-0.37 -4.07,-2.25 -10.16,-5.62l-3.98,5.3zm131.3,0.32c0.45,1.54 0.87,3.07 1.25,4.66c0.86,-0.34 5.15,-1.99 12.89,-4.98l-3.98,-5.3c-6.09,3.37 -9.48,5.25 -10.16,5.62zm-138.68,9.52c11.13,2.54 17.31,3.95 18.55,4.23c0.23,-1.61 0.45,-3.24 0.76,-4.81c-0.98,-0.38 -5.86,-2.25 -14.66,-5.62l-4.65,6.2zm140.89,-0.58c0.31,1.57 0.53,3.2 0.76,4.81c1.24,-0.28 7.42,-1.69 18.55,-4.23l-4.65,-6.2c-8.8,3.37 -13.68,5.24 -14.66,5.62zm-149.57,12.14c15.76,1.16 24.51,1.8 26.26,1.93c0.1,-1.64 0.23,-3.26 0.4,-4.87c-1.39,-0.31 -8.36,-1.88 -20.92,-4.71l-5.74,7.65zm150.9,-2.94c0.17,1.62 0.3,3.27 0.4,4.92c1.75,-0.13 10.5,-0.79 26.26,-1.98l-5.74,-7.65c-12.56,2.83 -19.53,4.4 -20.92,4.71zm0.6,9.31c0.02,0.82 0.04,1.63 0.04,2.46c0,0.83 -0.02,1.64 -0.04,2.46c1.94,0.15 11.67,0.88 29.19,2.19l3.49,-4.65l-3.49,-4.65c-17.52,1.31 -27.25,2.04 -29.19,2.19zm-158.12,2.46l3.53,4.71c17.49,-1.32 27.21,-2.05 29.15,-2.2c-0.02,-0.84 -0.04,-1.66 -0.04,-2.51c0,-0.81 0.02,-1.6 0.04,-2.41c-1.95,-0.14 -11.69,-0.88 -29.23,-2.19l-3.45,4.6zm6.66,8.88l5.75,7.65c12.52,-2.82 19.48,-4.39 20.87,-4.71c-0.17,-1.62 -0.3,-3.27 -0.4,-4.92c0,0 -8.74,0.66 -26.22,1.98zm150.86,2.94c1.39,0.32 8.35,1.89 20.87,4.71l5.75,-7.65l-26.22,-1.92c-0.16,2.17 -0.29,3.79 -0.4,4.86zm-142.22,8.57l4.69,6.26c8.8,-3.38 13.68,-5.25 14.66,-5.62c-0.31,-1.58 -0.57,-3.2 -0.8,-4.82c-2.48,0.56 -8.66,1.95 -18.55,4.18zm140.85,0.64c0.98,0.37 5.86,2.24 14.66,5.62l4.69,-6.26l-18.55,-4.18c-0.33,2.16 -0.59,3.76 -0.8,4.82zm-133.43,9.25l3.98,5.3c6.07,-3.37 9.44,-5.24 10.12,-5.62c-0.45,-1.54 -0.87,-3.07 -1.25,-4.65c-1.71,0.66 -5.99,2.32 -12.85,4.97zm131.26,-0.32c0.68,0.37 4.07,2.23 10.16,5.57l3.94,-5.25l-12.85,-4.97c-0.54,2.07 -0.95,3.63 -1.25,4.65zm-126.04,9.74l0,7.44c7.06,-5.17 10.98,-8.04 11.77,-8.62c-0.57,-1.45 -1.1,-2.94 -1.61,-4.44c-1.35,0.75 -4.74,2.62 -10.16,5.62zm123.15,-1.23c0.79,0.58 4.71,3.47 11.77,8.67l0,-7.44l-10.16,-5.62c-0.7,1.97 -1.23,3.43 -1.61,4.39zm-123.15,13.75l0,8.83c9.21,-8.7 14.32,-13.53 15.34,-14.5c-0.69,-1.37 -1.37,-2.75 -2.01,-4.17c-1.77,1.31 -6.22,4.59 -13.33,9.84zm119.58,-5.62c1.02,0.97 6.13,5.78 15.34,14.45l0,-8.83l-13.37,-9.79c-0.86,1.87 -1.51,3.26 -1.97,4.17zm-119.58,19.91l0,10.8c11.74,-13.96 18.25,-21.72 19.56,-23.27c-0.8,-1.25 -1.55,-2.54 -2.29,-3.85c-2.3,2.17 -8.06,7.61 -17.27,16.32zm115.36,-12.52c1.31,1.55 7.82,9.31 19.56,23.27l0,-10.75l-17.27,-16.32c-1,1.7 -1.76,2.97 -2.29,3.8zm-115.36,29.37l0,6.53l4.98,0c11.66,-17.4 18.14,-27.07 19.44,-29c-0.9,-1.13 -1.77,-2.29 -2.61,-3.48c-2.91,3.46 -10.18,12.11 -21.81,25.95zm110.5,-22.53c1.3,1.94 7.78,11.63 19.44,29.06l4.98,0l0,-6.53l-21.85,-25.95c-1.12,1.54 -1.98,2.68 -2.57,3.42zm-101.06,29.06l8.11,0c7.35,-13.77 11.43,-21.43 12.25,-22.96c-0.99,-0.99 -1.95,-2.03 -2.89,-3.1c-2.33,3.47 -8.15,12.16 -17.47,26.06zm95.68,-23.01c0.82,1.53 4.9,9.2 12.25,23.01l8.11,0l-17.47,-26.06c-1.27,1.38 -2.23,2.39 -2.89,3.05zm-83.47,23.01l6.62,0c4.43,-10.69 6.9,-16.63 7.39,-17.82c-1.07,-0.84 -2.15,-1.65 -3.17,-2.57c-1.45,2.72 -5.06,9.52 -10.84,20.39zm77.61,-17.82c0.49,1.19 2.96,7.13 7.39,17.82l6.62,0l-10.88,-20.39c-1.38,1.16 -2.42,2.02 -3.13,2.57zm-67.17,17.82l5.62,0c2.53,-8.09 3.93,-12.59 4.21,-13.49c-1.12,-0.67 -2.24,-1.38 -3.33,-2.14c-0.87,2.09 -3.04,7.29 -6.5,15.63zm60.91,-13.49c0.28,0.9 1.68,5.4 4.21,13.49l5.62,0l-6.5,-15.63c-1.47,0.98 -2.58,1.7 -3.33,2.14zm-52.2,15.2l3.97,5.3c2.22,-10.28 3.45,-15.98 3.7,-17.13c-1.19,-0.5 -2.34,-1.06 -3.5,-1.65c-0.55,1.79 -1.94,6.29 -4.17,13.48zm45.65,-11.83c0.25,1.15 1.48,6.85 3.7,17.13l3.97,-5.3l-4.21,-13.48c-1.52,0.77 -2.67,1.32 -3.46,1.65zm-38.95,20.76l4.66,6.21c1.91,-14.8 2.96,-23.02 3.17,-24.66c-1.21,-0.32 -2.43,-0.61 -3.61,-1.02c-0.56,2.6 -1.97,9.09 -4.22,19.47zm32.13,-18.45c0.2,1.64 1.25,9.86 3.13,24.66l4.7,-6.26c-2.53,-11.65 -3.94,-18.13 -4.22,-19.42c-0.03,0.01 -0.06,-0.01 -0.08,0c-1.16,0.4 -2.35,0.71 -3.53,1.02zm-24.58,28.51l5.74,7.65c0.9,-20.93 1.39,-32.55 1.49,-34.88c-1.24,-0.14 -2.47,-0.3 -3.69,-0.54c-0.47,3.71 -1.65,12.96 -3.54,27.77zm17.59,-27.23c0.1,2.33 0.59,13.95 1.49,34.88l5.7,-7.59l-3.58,-27.83c-1.6,0.27 -2.8,0.45 -3.61,0.54zm-8.67,39.11l3.49,4.66l3.49,-4.66c-0.98,-23.31 -1.53,-36.25 -1.64,-38.84c-0.62,0.02 -1.23,0.05 -1.85,0.05c-0.62,0 -1.23,-0.03 -1.85,-0.05c0,0 -0.55,12.95 -1.64,38.84z"/>
  <path id="dM58pHtqD" d="m298.38,119.78c-1.97,1.97 -2.24,8.32 -1.8,12.59c-1.39,-0.1 -2.83,-0.31 -4.2,-0.31c-1.73,0 -3.57,2.53 -3.64,4.8c-0.09,3.13 2.02,6.93 2.36,9.93c0.1,0.8 0.13,1.83 0.18,2.89c0.77,-1.3 1.69,-2.66 2.69,-3.71c0.53,-0.56 1.3,-0.78 2.15,-1.06c0.84,-0.29 1.73,-0.56 2.26,-0.85c0.24,-0.13 0.84,-0.7 1.53,-1.47c0.7,-0.78 1.52,-1.76 2.36,-2.81c1.68,-2.11 3.44,-4.45 4.42,-5.78c0.07,-0.11 0.18,-0.19 0.29,-0.21c0.21,-0.04 0.43,0.1 0.52,0.36c0.09,0.26 0.04,0.58 -0.12,0.78c-0.98,1.33 -2.73,3.67 -4.43,5.8c-0.85,1.06 -1.68,2.06 -2.4,2.86c-0.72,0.8 -1.29,1.4 -1.78,1.68c-0.68,0.38 -1.59,0.65 -2.42,0.93c-0.83,0.28 -1.6,0.63 -1.76,0.8c-1.19,1.26 -2.35,3.09 -3.18,4.61c0.18,1.71 0.55,3.2 1.49,3.62c1.51,0.66 5.32,-3.2 7.67,-3.2c2.52,0 5.65,3.14 6.5,1.83c1.45,-2.21 -0.11,-9.34 0.29,-13.49c0.14,-1.37 0.95,-2.18 1.24,-4.28c0.53,-3.76 -3.4,-5.21 -4.68,-5.21c-0.76,0 -1.96,0.49 -3.19,0.92c-0.54,-3.72 0.26,-7.03 2.11,-9.18c-0.6,-1.88 -1.84,-2.82 -3.64,-2.86c-0.26,-0.01 -0.54,-0.01 -0.82,0.02zm0.16,19.4c0,2.57 -1.58,4.67 -3.51,4.67c-1.93,0 -3.5,-2.1 -3.5,-4.67c0,-2.57 1.57,-4.67 3.5,-4.67c1.93,0 3.51,2.1 3.51,4.67z"/>
 </defs>
 <g>
  <title>background</title>
  <rect fill="none" id="canvas_background" height="402" width="602" y="-1" x="-1"/>
 </g>
 <g>
  <title>Layer 1</title>
  <g id="svg_1">
   <g id="svg_2">
    <g id="svg_3">
     <use id="svg_4" fill="#be0000" xlink:href="#fFqPyRon8"/>
     <g id="svg_5">
      <use id="svg_6" stroke-opacity="0" stroke="#000000" fill-opacity="0" xlink:href="#fFqPyRon8"/>
     </g>
    </g>
    <g id="svg_7">
     <use id="svg_8" fill="#0c740c" xlink:href="#ctQVysN4v"/>
     <g id="svg_9">
      <use id="svg_10" stroke-opacity="0" stroke="#000000" fill-opacity="0" xlink:href="#ctQVysN4v"/>
     </g>
    </g>
    <g id="svg_11">
     <use id="svg_12" fill="#000000" xlink:href="#h2UlcGDK0L"/>
     <g id="svg_13">
      <use id="svg_14" stroke-opacity="0" stroke="#000000" fill-opacity="0" xlink:href="#h2UlcGDK0L"/>
     </g>
    </g>
    <g id="svg_15">
     <use id="svg_16" fill="#000000" xlink:href="#coXSvg5sv"/>
     <g id="svg_17">
      <use id="svg_18" stroke-opacity="0" stroke="#000000" fill-opacity="0" xlink:href="#coXSvg5sv"/>
     </g>
    </g>
    <g id="svg_19">
     <use id="svg_20" fill="#ffffff" xlink:href="#bH5GqlRqD"/>
     <g id="svg_21">
      <use id="svg_22" stroke="#000000" fill-opacity="0" xlink:href="#bH5GqlRqD"/>
     </g>
    </g>
    <g id="svg_23">
     <use id="svg_24" fill="#ffffff" xlink:href="#c44gGNJDVd"/>
     <g id="svg_25">
      <use id="svg_26" stroke="#000000" fill-opacity="0" xlink:href="#c44gGNJDVd"/>
     </g>
    </g>
    <g id="svg_27">
     <use id="svg_28" fill="#ffffff" xlink:href="#e2qrAtiHbq"/>
     <g id="svg_29">
      <use id="svg_30" stroke="#000000" fill-opacity="0" xlink:href="#e2qrAtiHbq"/>
     </g>
    </g>
    <g id="svg_31">
     <use id="svg_32" fill="#ffffff" xlink:href="#aJaeN18O0"/>
     <g id="svg_33">
      <use id="svg_34" stroke="#000000" fill-opacity="0" xlink:href="#aJaeN18O0"/>
     </g>
    </g>
    <g id="svg_35">
     <use id="svg_36" fill="#ffffff" xlink:href="#a55UvD5fPk"/>
     <g id="svg_37">
      <use id="svg_38" stroke-width="0.76" stroke="#000000" fill-opacity="0" xlink:href="#a55UvD5fPk"/>
     </g>
    </g>
    <g id="svg_39">
     <use id="svg_40" fill="#ffffff" xlink:href="#a3Uz06mgZ4"/>
     <g id="svg_41">
      <use id="svg_42" stroke-width="0.76" stroke="#000000" fill-opacity="0" xlink:href="#a3Uz06mgZ4"/>
     </g>
    </g>
    <g id="svg_43">
     <use id="svg_44" fill="#ffffff" xlink:href="#amcYu3g85"/>
     <g id="svg_45">
      <use id="svg_46" stroke="#000000" fill-opacity="0" xlink:href="#amcYu3g85"/>
     </g>
    </g>
    <g id="svg_47">
     <use id="svg_48" fill="#ffffff" xlink:href="#a1fZ0WY5FX"/>
     <g id="svg_49">
      <use id="svg_50" stroke="#000000" fill-opacity="0" xlink:href="#a1fZ0WY5FX"/>
     </g>
    </g>
    <g id="svg_51">
     <use id="svg_52" fill="#ffffff" xlink:href="#g2SVUqiSPA"/>
     <g id="svg_53">
      <use id="svg_54" stroke="#000000" fill-opacity="0" xlink:href="#g2SVUqiSPA"/>
     </g>
    </g>
    <g id="svg_55">
     <use id="svg_56" fill="#ffffff" xlink:href="#cVFcjCY7i"/>
     <g id="svg_57">
      <use id="svg_58" stroke-width="0.76" stroke="#000000" fill-opacity="0" xlink:href="#cVFcjCY7i"/>
     </g>
    </g>
    <g id="svg_59">
     <use id="svg_60" fill="#ffffff" xlink:href="#f6XKa3KQB"/>
     <g id="svg_61">
      <use id="svg_62" stroke-width="0.76" stroke="#000000" fill-opacity="0" xlink:href="#f6XKa3KQB"/>
     </g>
    </g>
    <g id="svg_63">
     <use id="svg_64" fill="#ffffff" xlink:href="#b2QXzc8FNd"/>
     <g id="svg_65">
      <use id="svg_66" stroke-width="0.76" stroke="#000000" fill-opacity="0" xlink:href="#b2QXzc8FNd"/>
     </g>
    </g>
    <g id="svg_67">
     <use id="svg_68" fill="#ffffff" xlink:href="#a90OlUyKe"/>
     <g id="svg_69">
      <use id="svg_70" stroke-width="0.76" stroke="#000000" fill-opacity="0" xlink:href="#a90OlUyKe"/>
     </g>
    </g>
    <g id="svg_71">
     <use id="svg_72" fill="#ffffff" xlink:href="#hl8gUnwYE"/>
     <g id="svg_73">
      <use id="svg_74" stroke="#000000" fill-opacity="0" xlink:href="#hl8gUnwYE"/>
     </g>
    </g>
    <g id="svg_75">
     <use id="svg_76" fill="#ffffff" xlink:href="#c5DtEmOe0"/>
     <g id="svg_77">
      <use id="svg_78" stroke-width="0.76" stroke="#000000" fill-opacity="0" xlink:href="#c5DtEmOe0"/>
     </g>
    </g>
    <g id="svg_79">
     <use id="svg_80" fill="#ffffff" xlink:href="#aYgtyMyB0"/>
     <g id="svg_81">
      <use id="svg_82" stroke-width="0.76" stroke="#000000" fill-opacity="0" xlink:href="#aYgtyMyB0"/>
     </g>
    </g>
    <g id="svg_83">
     <use id="svg_84" fill="#ffffff" xlink:href="#b2r1e4ONhv"/>
     <g id="svg_85">
      <use id="svg_86" stroke-width="0.76" stroke="#000000" fill-opacity="0" xlink:href="#b2r1e4ONhv"/>
     </g>
    </g>
    <g id="svg_87">
     <use id="svg_88" fill="#ffffff" xlink:href="#a6DxxfcWm"/>
     <g id="svg_89">
      <use id="svg_90" stroke-width="0.76" stroke="#000000" fill-opacity="0" xlink:href="#a6DxxfcWm"/>
     </g>
    </g>
    <g id="svg_91">
     <use id="svg_92" fill="#ffffff" xlink:href="#a49wK7uWcV"/>
     <g id="svg_93">
      <use id="svg_94" stroke-width="0.76" stroke="#000000" fill-opacity="0" xlink:href="#a49wK7uWcV"/>
     </g>
    </g>
    <g id="svg_95">
     <use id="svg_96" fill="#ffffff" xlink:href="#foBJSZgv"/>
     <g id="svg_97">
      <use id="svg_98" stroke-width="0.76" stroke="#000000" fill-opacity="0" xlink:href="#foBJSZgv"/>
     </g>
    </g>
    <g id="svg_99">
     <use id="svg_100" fill="#ffffff" xlink:href="#a1i68y1IrF"/>
     <g id="svg_101">
      <use id="svg_102" stroke-width="0.76" stroke="#000000" fill-opacity="0" xlink:href="#a1i68y1IrF"/>
     </g>
    </g>
    <g id="svg_103">
     <use id="svg_104" fill="#ffdd55" xlink:href="#bDRkJVM5e"/>
     <g id="svg_105">
      <use id="svg_106" stroke-width="0.76" stroke="#000000" fill-opacity="0" xlink:href="#bDRkJVM5e"/>
     </g>
    </g>
    <g id="svg_107">
     <use id="svg_108" fill="#ffffff" xlink:href="#c1lT8h2H36"/>
     <g id="svg_109">
      <use id="svg_110" stroke="#000000" fill-opacity="0" xlink:href="#c1lT8h2H36"/>
     </g>
    </g>
    <g id="svg_111">
     <use id="svg_112" fill-opacity="0" fill="#000000" xlink:href="#k1Zl3TXiLw"/>
     <g id="svg_113">
      <use id="svg_114" stroke-width="0.76" stroke="#000000" fill-opacity="0" xlink:href="#k1Zl3TXiLw"/>
     </g>
    </g>
    <g id="svg_115">
     <use id="svg_116" fill="#ffffff" xlink:href="#b1OVoEUAs6"/>
     <g id="svg_117">
      <use id="svg_118" stroke-width="2.2" stroke="#000000" fill-opacity="0" xlink:href="#b1OVoEUAs6"/>
     </g>
    </g>
    <g id="svg_119">
     <use id="svg_120" fill="#ffffff" xlink:href="#dM58pHtqD"/>
     <g id="svg_121">
      <use id="svg_122" stroke-width="2.2" stroke="#000000" fill-opacity="0" xlink:href="#dM58pHtqD"/>
     </g>
    </g>
   </g>
  </g>
 </g>
</svg>