<?xml version="1.0" encoding="UTF-8" standalone="no"?>
<svg
   version="1.0"
   width="540px"
   height="360px"
   viewBox="0 0 5400 3600"
   preserveAspectRatio="xMidYMid meet"
   id="svg156"
   sodipodi:docname="Flag_of_Afghanistan_(1928-1929)_(Gold).svg"
   inkscape:version="1.3 (0e150ed6c4, 2023-07-21)"
   xmlns:inkscape="http://www.inkscape.org/namespaces/inkscape"
   xmlns:sodipodi="http://sodipodi.sourceforge.net/DTD/sodipodi-0.dtd"
   xmlns="http://www.w3.org/2000/svg"
   xmlns:svg="http://www.w3.org/2000/svg">
  <defs
     id="defs160" />
  <sodipodi:namedview
     id="namedview158"
     pagecolor="#ffffff"
     bordercolor="#666666"
     borderopacity="1.0"
     inkscape:pageshadow="2"
     inkscape:pageopacity="0.0"
     inkscape:pagecheckerboard="0"
     showgrid="false"
     inkscape:zoom="2.0851852"
     inkscape:cx="270"
     inkscape:cy="180.07993"
     inkscape:window-width="1920"
     inkscape:window-height="1007"
     inkscape:window-x="-9"
     inkscape:window-y="-9"
     inkscape:window-maximized="1"
     inkscape:current-layer="svg156"
     inkscape:showpageshadow="2"
     inkscape:deskcolor="#d1d1d1" />
  <g
     id="layer101"
     fill="#000000"
     stroke="none">
    <path
       d="M0 1800 l0 -1800 2700 0 2700 0 0 1800 0 1800 -2700 0 -2700 0 0 -1800z"
       id="path2" />
  </g>
  <g
     id="layer102"
     fill="#063221"
     stroke="none"
     style="fill:#019900;fill-opacity:1">
    <path
       d="M1800 1800 l0 -1800 1800 0 1800 0 0 1800 0 1800 -1800 0 -1800 0 0 -1800z"
       id="path5"
       style="fill:#019900;fill-opacity:1" />
  </g>
  <g
     id="layer103"
     fill="#cd1b2a"
     stroke="none"
     style="fill:#c0000d;fill-opacity:1">
    <path
       d="M1800 1800 l0 -1800 900 0 900 0 0 1800 0 1800 -900 0 -900 0 0 -1800z"
       id="path8"
       style="fill:#c0000d;fill-opacity:1" />
  </g>
  <g
     id="layer104"
     fill="#f8c02c"
     stroke="none">
    <path
       d="M2206 2591 c-3 -5 10 -18 29 -30 45 -26 44 -39 -2 -43 -20 -2 -39 -9 -41 -17 -3 -8 0 -11 6 -7 5 3 33 -1 60 -10 35 -12 52 -23 56 -38 5 -18 8 -19 17 -6 7 11 12 12 15 3 7 -15 34 -5 34 12 0 8 4 16 9 19 5 4 7 -3 4 -13 -3 -12 3 -26 16 -37 19 -17 19 -19 4 -36 -8 -10 -20 -15 -24 -12 -5 3 -9 1 -9 -5 0 -13 45 -25 65 -18 8 4 17 2 20 -3 4 -6 15 -10 27 -10 19 0 19 -1 -3 -21 -21 -18 -21 -20 -4 -14 11 4 28 10 37 12 10 3 16 9 13 13 -8 13 88 30 165 30 77 0 173 -17 165 -30 -3 -4 3 -10 13 -13 9 -2 26 -8 37 -12 17 -6 17 -4 -4 14 -22 20 -22 21 -3 21 12 0 23 4 27 10 3 5 12 7 20 3 20 -7 65 5 65 18 0 6 -4 8 -9 5 -4 -3 -16 3 -26 14 -16 18 -16 20 -2 26 9 3 19 14 22 25 6 17 8 18 22 3 13 -13 18 -13 24 -2 7 11 11 10 19 -2 8 -13 11 -12 16 6 4 15 21 26 56 38 27 9 55 13 60 10 6 -4 9 -1 6 7 -2 8 -21 15 -41 17 -45 4 -47 17 -7 40 34 19 40 42 11 42 -10 0 -42 -10 -70 -22 -38 -15 -49 -24 -39 -30 9 -6 4 -8 -15 -4 -20 5 -29 2 -34 -10 -5 -13 -7 -13 -14 -2 -7 10 -11 10 -17 1 -5 -9 -23 -8 -71 3 -82 19 -101 16 -121 -21 -16 -29 -19 -30 -90 -30 -71 0 -74 1 -90 30 -15 26 -22 30 -56 28 -143 -8 -158 -7 -233 25 -75 33 -106 39 -115 23z m904 -31 c-8 -5 -19 -10 -25 -10 -5 0 -3 5 5 10 8 5 20 10 25 10 6 0 3 -5 -5 -10z m-553 -107 c-4 -3 -10 -3 -14 0 -3 4 0 7 7 7 7 0 10 -3 7 -7z m-117 -83 c0 -5 -4 -10 -10 -10 -5 0 -10 5 -10 10 0 6 5 10 10 10 6 0 10 -4 10 -10z m540 0 c0 -5 -4 -10 -10 -10 -5 0 -10 5 -10 10 0 6 5 10 10 10 6 0 10 -4 10 -10z"
       id="path11" />
    <path
       d="M2251 2461 c-7 -5 -10 -14 -7 -20 11 -18 29 -13 22 6 -6 15 -4 15 14 -2 17 -15 20 -16 20 -3 0 9 -7 19 -16 22 -19 7 -16 8 -33 -3z"
       id="path13" />
    <path
       d="M3113 2463 c-7 -2 -13 -12 -13 -20 0 -14 3 -13 20 2 18 17 20 17 14 2 -7 -19 11 -24 22 -6 3 6 0 15 -7 20 -15 10 -18 10 -36 2z"
       id="path15" />
    <path
       d="M2190 2429 l-35 -6 30 -3 30 -2 -37 -12 c-53 -16 -56 -25 -6 -21 59 3 58 3 52 20 -4 8 -1 15 5 15 12 0 14 -20 5 -44 -4 -11 -14 -13 -35 -9 -39 8 -72 -2 -87 -27 -11 -18 -10 -23 10 -40 23 -19 23 -19 1 -14 -17 5 -27 -2 -48 -36 -17 -27 -31 -40 -40 -36 -16 6 -40 -29 -30 -43 8 -14 44 -1 56 20 12 24 38 25 46 2 4 -10 13 -24 20 -31 11 -11 13 -11 13 2 0 9 -4 16 -10 16 -17 0 -11 25 10 48 11 12 20 27 20 34 0 9 -3 9 -10 -2 -15 -24 -22 -5 -8 22 14 25 41 28 32 3 -3 -8 4 -24 15 -36 17 -18 21 -19 21 -7 0 9 -6 18 -12 21 -7 2 -10 7 -7 11 5 5 73 -21 108 -41 1 -1 0 -7 -4 -13 -5 -8 -10 -9 -14 -2 -9 15 -61 27 -61 14 0 -5 12 -13 27 -17 21 -5 24 -8 12 -15 -8 -6 -15 -6 -17 0 -5 13 -32 13 -32 1 0 -5 10 -13 23 -17 12 -4 25 -12 29 -18 5 -7 8 -4 8 7 0 19 20 24 20 5 0 -7 7 -4 16 7 8 11 12 25 10 32 -4 9 4 13 24 13 22 0 43 13 82 50 45 43 49 50 33 56 -11 5 -20 3 -23 -4 -2 -7 -8 -10 -13 -6 -5 3 -9 -4 -9 -15 0 -12 -7 -21 -16 -21 -9 0 -12 5 -8 12 4 6 3 8 -3 5 -6 -4 -25 -4 -42 -1 l-32 7 23 15 c13 8 25 17 28 19 6 5 -22 23 -35 23 -5 0 -3 -4 5 -10 19 -12 12 -17 -30 -22 -31 -3 -35 0 -37 22 0 14 -1 32 -2 40 -2 24 -33 36 -71 29z m-73 -166 c-4 -3 -10 -3 -14 0 -3 4 0 7 7 7 7 0 10 -3 7 -7z m3 -30 c0 -10 -4 -14 -8 -8 -4 6 -11 13 -16 18 -5 4 -2 7 7 7 10 0 17 -8 17 -17z"
       id="path17" />
    <path
       d="M3155 2424 c-10 -8 -18 -28 -18 -51 -2 -37 -3 -38 -37 -35 -42 5 -49 10 -30 22 8 6 11 10 5 10 -13 0 -41 -18 -35 -23 3 -2 15 -11 28 -19 l23 -15 -32 -7 c-17 -3 -36 -3 -42 1 -6 3 -7 1 -3 -5 4 -7 1 -12 -8 -12 -9 0 -16 9 -16 21 0 11 -4 18 -9 15 -5 -4 -11 -1 -13 6 -3 7 -12 9 -23 4 -16 -6 -12 -13 33 -56 39 -38 60 -50 83 -50 17 0 28 -4 25 -9 -4 -5 -1 -22 6 -38 9 -22 12 -24 15 -10 3 9 9 17 14 17 5 0 9 -8 9 -17 0 -11 3 -14 8 -7 4 6 17 14 30 18 12 4 22 12 22 17 0 12 -27 12 -32 -1 -2 -6 -9 -6 -17 0 -12 7 -9 10 12 15 15 4 27 12 27 17 0 13 -52 1 -61 -14 -4 -7 -9 -6 -14 2 -4 6 -5 12 -4 13 35 20 103 46 108 41 3 -4 0 -9 -6 -11 -7 -3 -13 -12 -13 -21 0 -12 4 -11 21 7 11 12 18 28 15 36 -9 25 18 22 32 -3 14 -27 7 -46 -8 -22 -7 11 -10 11 -10 2 0 -7 9 -22 20 -34 21 -23 27 -48 10 -48 -5 0 -10 -7 -10 -16 0 -13 2 -13 13 -2 7 7 16 21 20 31 8 23 34 22 46 -2 12 -21 48 -34 56 -20 10 14 -14 49 -30 43 -9 -4 -23 9 -40 36 -21 34 -31 41 -48 36 -22 -5 -22 -5 1 14 20 17 21 22 10 40 -15 25 -48 35 -87 27 -21 -4 -31 -2 -35 9 -9 24 -7 44 5 44 6 0 9 -7 5 -15 -6 -17 -7 -17 52 -20 51 -4 47 10 -5 21 l-38 7 30 7 30 6 -37 5 c-21 3 -44 0 -53 -7z m142 -161 c-4 -3 -10 -3 -14 0 -3 4 0 7 7 7 7 0 10 -3 7 -7z m7 -20 c-5 -5 -12 -12 -16 -18 -4 -6 -8 -2 -8 8 0 9 7 17 17 17 9 0 12 -3 7 -7z"
       id="path19" />
    <path
       d="M2379 2425 c-3 -2 -16 -7 -30 -9 -13 -2 -25 -5 -27 -5 -1 -1 3 -7 10 -15 9 -9 17 -11 25 -4 7 5 17 7 22 4 13 -9 26 13 14 25 -5 5 -12 7 -14 4z"
       id="path21" />
    <path
       d="M3005 2420 c-8 -14 4 -32 16 -24 5 3 15 1 22 -4 8 -7 16 -6 24 3 8 9 9 16 3 20 -6 3 -10 4 -10 1 0 -3 -11 -1 -25 4 -15 6 -26 6 -30 0z"
       id="path23" />
    <path
       d="M2270 2404 c0 -8 5 -12 10 -9 6 3 10 1 10 -5 0 -6 5 -8 10 -5 18 11 11 35 -10 35 -11 0 -20 -7 -20 -16z"
       id="path25" />
    <path
       d="M3090 2406 c0 -8 5 -18 10 -21 6 -3 10 -1 10 5 0 6 5 8 10 5 6 -3 10 1 10 9 0 9 -9 16 -20 16 -11 0 -20 -6 -20 -14z"
       id="path27" />
    <path
       d="M2290 2360 c0 -5 5 -10 10 -10 6 0 10 5 10 10 0 6 -4 10 -10 10 -5 0 -10 -4 -10 -10z"
       id="path29" />
    <path
       d="M3090 2360 c0 -5 5 -10 10 -10 6 0 10 5 10 10 0 6 -4 10 -10 10 -5 0 -10 -4 -10 -10z"
       id="path31" />
    <path
       d="M2370 2330 c0 -5 4 -10 9 -10 6 0 13 5 16 10 3 6 -1 10 -9 10 -9 0 -16 -4 -16 -10z"
       id="path33" />
    <path
       d="M3005 2330 c3 -5 10 -10 16 -10 5 0 9 5 9 10 0 6 -7 10 -16 10 -8 0 -12 -4 -9 -10z"
       id="path35" />
    <path
       d="M2846 2234 c-16 -8 -36 -22 -45 -32 -9 -9 -49 -39 -90 -66 l-74 -49 -18 22 -19 23 -35 -21 c-23 -13 -45 -19 -63 -15 -21 4 -33 -1 -56 -25 -35 -36 -54 -38 -89 -11 -30 24 -97 53 -104 46 -3 -2 10 -20 29 -39 19 -19 45 -54 57 -78 29 -56 129 -159 155 -159 40 0 201 107 272 180 63 66 189 162 239 184 17 7 13 11 -30 25 -83 29 -99 31 -129 15z m-216 -211 c0 -5 -23 -27 -50 -51 -47 -41 -70 -47 -70 -18 0 19 52 64 80 69 14 2 28 5 33 6 4 0 7 -2 7 -6z m60 -39 c-18 -21 -50 -37 -50 -25 0 5 12 16 28 24 36 20 37 20 22 1z"
       id="path37" />
    <path
       d="M2165 2220 c3 -5 11 -10 16 -10 6 0 7 5 4 10 -3 6 -11 10 -16 10 -6 0 -7 -4 -4 -10z"
       id="path39" />
    <path
       d="M3215 2220 c-3 -5 -2 -10 4 -10 5 0 13 5 16 10 3 6 2 10 -4 10 -5 0 -13 -4 -16 -10z"
       id="path41" />
    <path
       d="M2151 2200 c-1 -21 16 -46 26 -37 4 5 3 11 -3 15 -6 4 -14 14 -17 22 -5 13 -5 13 -6 0z"
       id="path43" />
    <path
       d="M3240 2197 c0 -9 -4 -17 -10 -17 -5 0 -10 -4 -10 -10 0 -5 4 -10 9 -10 12 0 25 39 17 47 -3 4 -6 -1 -6 -10z"
       id="path45" />
    <path
       d="M2076 2182 c-3 -6 0 -13 6 -15 7 -3 3 -6 -9 -6 -25 -1 -39 -17 -21 -24 8 -4 7 -6 -4 -6 -9 -1 -20 -6 -24 -13 -5 -8 0 -9 15 -5 16 4 21 1 19 -10 -2 -9 3 -18 11 -21 10 -3 11 2 6 19 -6 19 -5 22 6 12 15 -15 39 1 39 27 0 21 -36 55 -44 42z m32 -50 c2 -7 -2 -10 -12 -6 -9 3 -16 11 -16 16 0 13 23 5 28 -10z"
       id="path47" />
    <path
       d="M3296 2171 c-19 -21 -21 -45 -3 -60 10 -8 17 -7 26 2 11 10 12 7 6 -12 -5 -17 -4 -22 6 -19 8 3 13 12 11 21 -2 11 3 14 19 10 15 -4 20 -3 15 5 -4 7 -15 12 -24 13 -11 0 -12 2 -4 6 18 7 4 23 -21 23 -16 0 -18 3 -8 9 8 5 9 11 3 15 -5 3 -17 -3 -26 -13z m24 -30 c0 -5 -7 -11 -15 -15 -15 -5 -20 5 -8 17 9 10 23 9 23 -2z"
       id="path49" />
    <path
       d="M2197 2173 c-10 -10 -8 -25 2 -18 13 7 24 -30 16 -55 -3 -11 -2 -20 3 -20 15 0 23 30 16 54 -6 19 -5 20 11 6 17 -14 18 -13 12 3 -4 10 -7 20 -7 23 0 2 -7 1 -15 -2 -8 -4 -15 -1 -15 5 0 12 -13 15 -23 4z"
       id="path51" />
    <path
       d="M3180 2170 c0 -7 -6 -10 -14 -7 -8 3 -17 -1 -20 -9 -9 -25 -7 -27 10 -13 15 12 16 11 10 -7 -7 -24 1 -54 16 -54 5 0 6 9 3 20 -8 26 3 62 17 54 6 -4 9 -1 6 6 -6 18 -28 25 -28 10z"
       id="path53" />
    <path
       d="M2146 2141 c-4 -6 0 -11 8 -11 9 0 16 -4 16 -10 0 -5 1 -13 3 -17 1 -3 -9 -8 -21 -10 -27 -4 -74 -33 -54 -33 8 0 22 5 34 11 11 6 22 9 24 6 8 -8 -8 -37 -17 -31 -6 3 -15 1 -22 -4 -7 -5 -30 -9 -52 -9 -69 0 -115 -33 -115 -84 0 -22 4 -23 31 -9 16 9 18 8 16 -7 -1 -10 -6 -24 -10 -30 -13 -20 -18 -83 -7 -83 6 0 10 5 10 10 0 6 5 10 10 10 6 0 10 -9 10 -20 0 -21 27 -40 47 -33 6 2 14 -1 18 -6 8 -14 45 -14 45 -2 0 16 -22 24 -30 11 -5 -8 -9 -7 -14 5 -3 10 -12 15 -20 12 -9 -4 -22 5 -31 20 -16 24 -16 25 -1 20 11 -4 16 -1 16 9 0 10 -5 14 -15 10 -41 -17 -49 -17 -27 0 12 9 22 26 22 39 0 12 9 30 20 40 13 12 20 14 20 5 0 -7 7 -10 15 -6 9 3 15 0 15 -10 0 -8 5 -12 11 -9 6 4 8 13 5 21 -3 8 -1 14 3 14 13 0 21 -28 14 -47 -6 -16 -5 -16 10 -4 10 8 15 22 12 35 -4 15 1 24 19 32 21 10 33 8 73 -11 26 -13 50 -22 52 -19 5 5 -24 28 -59 46 -14 7 -26 13 -28 14 -2 1 2 12 8 24 15 28 8 35 -22 20 -19 -9 -21 -9 -8 2 18 16 22 91 4 84 -6 -2 -16 0 -22 6 -6 6 -12 6 -16 -1z"
       id="path55" />
    <path
       d="M3235 2141 c-3 -6 -11 -8 -19 -5 -18 7 -15 -67 4 -84 9 -8 3 -7 -17 3 -18 8 -37 24 -43 34 -12 24 -72 26 -114 4 -18 -10 -63 -16 -118 -17 l-89 -3 -60 -66 c-41 -45 -93 -87 -166 -132 l-107 -67 -168 7 -167 8 -26 -31 c-36 -42 -122 -105 -135 -97 -16 10 -12 -21 5 -35 12 -10 15 -10 15 4 0 9 5 16 10 16 13 0 13 -12 0 -46 l-10 -26 34 28 c20 16 49 39 66 52 21 17 30 32 30 53 0 23 4 29 23 29 12 1 92 5 177 10 85 5 159 5 163 1 11 -11 -17 -16 -196 -37 -116 -13 -150 -21 -155 -33 -3 -9 -10 -19 -16 -23 -6 -4 -5 -12 4 -23 11 -14 11 -16 -1 -13 -9 2 -13 -4 -11 -16 2 -11 -1 -15 -8 -11 -6 4 -8 15 -5 26 6 18 -5 26 -17 14 -8 -8 21 -87 39 -107 12 -13 13 -18 3 -18 -10 0 -10 -3 0 -15 6 -8 9 -19 6 -24 -4 -5 0 -13 8 -18 8 -4 15 -12 15 -18 0 -5 7 -11 15 -13 12 -3 11 5 -5 38 -11 23 -18 44 -15 47 3 3 -2 19 -10 35 -8 16 -11 34 -7 41 4 6 8 20 8 29 1 10 4 19 6 21 4 2 283 74 334 85 14 3 17 2 10 -6 -8 -9 -316 -122 -331 -122 -7 0 -4 -25 4 -38 9 -13 24 -6 275 112 116 55 74 18 -79 -70 -87 -50 -159 -95 -161 -100 -1 -5 4 -18 12 -28 15 -20 23 -15 303 197 8 6 12 6 12 -1 0 -6 -61 -64 -135 -129 -74 -64 -135 -120 -135 -123 0 -3 8 -14 16 -25 17 -22 19 -20 207 184 97 106 100 81 5 -39 -15 -19 -55 -70 -89 -114 l-61 -78 21 -21 c11 -12 22 -19 24 -16 12 13 81 127 131 217 32 56 62 102 67 102 5 0 9 -2 9 -4 0 -8 -37 -89 -94 -210 -57 -119 -63 -146 -28 -146 14 0 25 19 46 83 99 297 140 363 75 119 -55 -203 -58 -223 -43 -229 7 -2 21 -3 31 -1 15 3 21 27 40 173 12 94 22 176 22 183 1 7 4 11 9 8 7 -4 3 -104 -12 -303 l-6 -73 40 0 40 0 -6 73 c-15 199 -19 299 -12 303 5 3 8 -1 9 -8 0 -7 10 -89 22 -183 19 -146 25 -170 40 -173 10 -2 24 -1 31 1 15 6 12 26 -43 229 -65 244 -24 178 75 -119 21 -64 32 -83 46 -83 35 0 29 27 -28 146 -57 121 -94 202 -94 210 0 2 4 4 9 4 5 0 35 -46 67 -102 50 -90 119 -204 131 -217 2 -3 13 5 25 16 l21 22 -40 48 c-89 108 -186 243 -179 251 3 3 36 -28 73 -69 188 -204 190 -206 207 -184 8 11 16 22 16 26 0 5 -241 217 -262 230 -6 4 -9 12 -7 18 2 6 71 -39 152 -101 140 -105 148 -110 162 -92 8 10 13 23 12 28 -2 5 -74 50 -161 100 -153 88 -195 125 -79 70 251 -118 266 -125 275 -112 8 13 11 38 4 38 -15 0 -323 113 -331 122 -7 8 -4 9 10 6 51 -11 330 -83 334 -85 2 -2 5 -11 6 -21 0 -9 4 -23 8 -29 4 -7 1 -25 -7 -41 -8 -16 -13 -32 -10 -35 3 -3 -4 -24 -15 -47 -17 -36 -18 -41 -4 -38 9 2 15 7 14 12 -2 5 4 13 13 18 9 5 14 14 10 19 -3 5 0 16 6 24 10 12 10 15 0 15 -10 0 -9 5 3 18 18 20 47 99 39 107 -12 12 -23 4 -17 -14 3 -11 1 -22 -5 -26 -7 -4 -10 0 -8 11 2 12 -2 18 -11 16 -12 -3 -12 -1 -1 13 9 11 10 19 4 23 -6 4 -13 14 -16 23 -5 12 -39 20 -155 33 -179 21 -207 26 -196 37 4 4 78 4 163 -1 85 -5 165 -9 178 -10 18 0 22 -6 22 -29 0 -21 9 -36 30 -53 17 -13 46 -36 66 -52 l34 -28 -10 26 c-13 34 -13 46 0 46 6 0 10 -7 10 -16 0 -14 3 -14 15 -4 17 14 21 45 5 35 -13 -8 -99 55 -135 97 l-26 30 -182 -7 c-119 -5 -179 -4 -172 3 11 11 230 44 288 44 24 -1 37 4 37 12 0 8 7 19 15 26 12 10 15 10 15 -1 0 -10 3 -10 12 -1 8 8 9 15 2 22 -10 10 -179 -26 -308 -65 -55 -17 -80 -19 -71 -6 3 5 38 19 78 32 39 12 103 35 141 51 38 15 79 28 91 28 13 0 25 6 28 14 10 25 59 -4 52 -30 -3 -13 2 -27 12 -35 15 -12 16 -12 10 4 -7 19 1 47 14 47 4 0 6 -6 3 -14 -3 -8 -1 -17 5 -21 6 -3 11 1 11 9 0 10 6 13 15 10 8 -4 15 -1 15 6 0 9 7 7 20 -5 11 -10 20 -28 20 -40 0 -13 10 -30 23 -39 21 -17 13 -17 -28 0 -10 4 -15 0 -15 -10 0 -10 5 -13 16 -9 15 5 15 4 -1 -20 -9 -15 -22 -24 -31 -20 -8 3 -17 -2 -20 -12 -5 -12 -9 -13 -14 -5 -8 13 -30 5 -30 -11 0 -12 37 -12 45 2 4 5 12 8 18 6 20 -7 47 12 47 33 0 11 5 20 10 20 6 0 10 -4 10 -10 0 -5 4 -10 10 -10 11 0 6 63 -7 83 -4 6 -9 20 -10 30 -2 15 0 16 16 7 27 -14 31 -13 31 9 0 51 -46 84 -115 84 -22 0 -45 4 -52 9 -7 5 -16 7 -22 4 -9 -6 -25 23 -17 31 2 3 13 0 24 -6 12 -6 26 -11 34 -11 17 0 -26 29 -49 33 -29 4 -33 34 -5 39 12 2 13 6 5 11 -6 4 -14 3 -18 -2z m-36 -130 c0 -10 -3 -8 -10 7 -5 14 -13 20 -20 16 -8 -4 -9 -3 -5 5 10 16 36 -5 35 -28z m-274 6 c-11 -6 -33 -23 -48 -39 -34 -34 -37 -34 -37 -5 0 17 12 27 48 44 47 21 75 22 37 0z m95 17 c0 -9 -32 -33 -44 -34 -5 0 -1 9 9 20 18 20 35 26 35 14z m130 -8 c0 -3 -27 -15 -60 -27 -49 -18 -58 -24 -49 -35 8 -10 8 -14 0 -14 -6 0 -49 -18 -97 -40 -48 -23 -88 -39 -91 -37 -4 5 78 66 118 88 25 13 158 66 172 68 4 1 7 -1 7 -3z m-375 -136 c3 -5 4 -10 1 -10 -3 0 -8 5 -11 10 -3 6 -4 10 -1 10 3 0 8 -4 11 -10z"
       id="path57" />
    <path
       d="M2130 2109 c0 -5 5 -7 10 -4 6 3 10 8 10 11 0 2 -4 4 -10 4 -5 0 -10 -5 -10 -11z"
       id="path59" />
    <path
       d="M3255 2110 c3 -5 8 -10 11 -10 2 0 4 5 4 10 0 6 -5 10 -11 10 -5 0 -7 -4 -4 -10z"
       id="path61" />
    <path
       d="M2008 2089 c-22 -12 -24 -31 -3 -23 11 5 13 2 8 -12 -4 -11 -3 -15 4 -11 8 5 17 58 9 57 0 0 -9 -5 -18 -11z"
       id="path63" />
    <path
       d="M3373 2075 c0 -14 4 -28 10 -32 7 -4 8 0 4 11 -5 14 -3 17 8 12 22 -8 19 11 -4 23 -16 9 -18 7 -18 -14z"
       id="path65" />
    <path
       d="M2040 2065 c0 -9 9 -15 21 -15 18 0 19 2 5 15 -8 8 -17 15 -20 15 -3 0 -6 -7 -6 -15z"
       id="path67" />
    <path
       d="M3332 2065 c-11 -13 -9 -15 8 -15 11 0 20 7 20 15 0 19 -11 19 -28 0z"
       id="path69" />
    <path
       d="M2156 1952 c-2 -4 4 -9 15 -9 11 -1 17 2 14 8 -7 11 -22 12 -29 1z"
       id="path71" />
    <path
       d="M3215 1951 c-3 -6 3 -9 14 -8 11 0 17 5 15 9 -7 11 -22 10 -29 -1z"
       id="path73" />
    <path
       d="M2046 1931 c-4 -6 -4 -11 1 -11 4 0 1 -5 -7 -10 -13 -9 -10 -14 15 -35 29 -24 72 -35 60 -15 -3 6 -13 10 -22 10 -13 0 -13 3 -3 15 8 9 8 15 2 15 -6 0 -12 -6 -15 -12 -4 -10 -7 -10 -18 0 -10 10 -11 15 -2 20 7 5 9 13 4 21 -6 9 -11 10 -15 2z"
       id="path75" />
    <path
       d="M2320 1933 c0 -12 38 -48 45 -41 3 2 -6 15 -20 28 -14 13 -25 19 -25 13z"
       id="path77" />
    <path
       d="M3337 1926 c-3 -8 -1 -17 6 -19 9 -3 8 -8 -2 -18 -10 -11 -15 -11 -18 -1 -3 6 -9 12 -15 12 -6 0 -6 -6 2 -15 10 -12 10 -15 -3 -15 -9 0 -19 -4 -22 -10 -3 -5 2 -10 12 -10 25 0 82 50 65 56 -6 3 -10 10 -7 14 3 5 1 11 -4 14 -5 3 -11 -1 -14 -8z"
       id="path79" />
    <path
       d="M2155 1920 c-3 -5 0 -18 7 -30 14 -21 28 -27 28 -10 0 6 -4 10 -10 10 -5 0 -10 5 -10 11 0 8 5 8 15 -1 8 -7 15 -18 15 -25 0 -8 33 -16 94 -23 123 -15 123 -15 93 9 -40 30 -221 77 -232 59z"
       id="path81" />
    <path
       d="M2122 1893 c-6 -2 -10 -9 -7 -13 7 -11 35 -2 35 11 0 10 -8 10 -28 2z"
       id="path83" />
    <path
       d="M3250 1891 c0 -12 28 -22 35 -12 3 5 -2 12 -11 15 -21 8 -24 8 -24 -3z"
       id="path85" />
    <path
       d="M3210 1880 c0 -5 5 -10 10 -10 6 0 10 5 10 10 0 6 -4 10 -10 10 -5 0 -10 -4 -10 -10z"
       id="path87" />
    <path
       d="M2132 1859 c2 -7 10 -15 17 -17 8 -3 12 1 9 9 -2 7 -10 15 -17 17 -8 3 -12 -1 -9 -9z"
       id="path89" />
    <path
       d="M3245 1859 c-4 -6 -5 -13 -2 -16 7 -7 27 6 27 18 0 12 -17 12 -25 -2z"
       id="path91" />
    <path
       d="M2060 1843 c0 -16 28 -36 40 -28 15 9 12 28 -4 22 -7 -3 -19 0 -25 6 -8 8 -11 8 -11 0z"
       id="path93" />
    <path
       d="M3326 1841 c-4 -6 -13 -8 -21 -4 -17 6 -20 -12 -4 -23 12 -7 46 22 37 31 -3 4 -9 2 -12 -4z"
       id="path95" />
    <path
       d="M2128 1828 c10 -13 10 -17 0 -21 -7 -2 -9 -8 -5 -13 9 -9 28 16 24 30 -2 6 -10 12 -18 15 -12 3 -12 2 -1 -11z"
       id="path97" />
    <path
       d="M3256 1831 c-8 -12 3 -41 15 -41 5 0 9 5 9 10 0 6 -5 10 -11 10 -8 0 -8 5 1 15 8 9 9 15 2 15 -6 0 -13 -4 -16 -9z"
       id="path99" />
    <path
       d="M1970 1791 c-13 -25 -13 -74 0 -66 6 3 10 17 10 31 0 13 5 24 10 24 6 0 10 7 10 15 0 21 -17 19 -30 -4z"
       id="path101" />
    <path
       d="M3400 1795 c0 -8 5 -15 10 -15 6 0 10 -11 10 -24 0 -14 5 -28 10 -31 13 -8 13 41 0 66 -13 23 -30 25 -30 4z"
       id="path103" />
    <path
       d="M2009 1769 c-1 -8 -1 -18 0 -23 1 -4 -3 -14 -9 -21 -17 -20 32 -16 60 5 21 16 22 20 11 34 -8 9 -16 14 -19 11 -3 -2 1 -11 8 -20 19 -23 0 -18 -27 7 -17 16 -23 18 -24 7z m31 -30 c0 -6 -4 -7 -10 -4 -5 3 -10 11 -10 16 0 6 5 7 10 4 6 -3 10 -11 10 -16z"
       id="path105" />
    <path
       d="M3329 1764 c-11 -14 -10 -18 11 -34 28 -21 77 -25 60 -5 -6 7 -10 17 -9 21 5 32 -2 36 -24 16 -27 -25 -46 -30 -27 -7 7 9 11 18 8 20 -3 3 -11 -2 -19 -11z m43 -26 c-7 -7 -12 -8 -12 -2 0 14 12 26 19 19 2 -3 -1 -11 -7 -17z"
       id="path107" />
    <path
       d="M2080 1635 c-10 -13 -9 -15 8 -15 15 0 20 5 16 15 -4 8 -7 15 -9 15 -1 0 -8 -7 -15 -15z"
       id="path109" />
    <path
       d="M3296 1635 c-4 -10 1 -15 16 -15 17 0 18 2 8 15 -7 8 -14 15 -15 15 -2 0 -5 -7 -9 -15z"
       id="path111" />
    <path
       d="M2046 1594 c-8 -21 4 -66 17 -61 18 6 20 27 2 27 -9 0 -14 4 -10 10 3 5 12 7 20 3 19 -7 19 4 1 23 -18 18 -22 18 -30 -2z"
       id="path113" />
    <path
       d="M2093 1593 c9 -9 19 -14 23 -11 10 10 -6 28 -24 28 -15 0 -15 -1 1 -17z"
       id="path115" />
    <path
       d="M3285 1599 c-12 -19 5 -23 22 -6 16 16 16 17 1 17 -9 0 -20 -5 -23 -11z"
       id="path117" />
    <path
       d="M3323 1595 c-17 -19 -16 -28 2 -22 8 4 17 2 20 -3 4 -6 -1 -10 -10 -10 -18 0 -16 -21 2 -27 13 -5 25 40 17 61 -7 19 -15 20 -31 1z"
       id="path119" />
    <path
       d="M2096 1548 c4 -13 9 -25 13 -28 3 -3 6 -12 6 -20 0 -8 9 -16 20 -19 17 -3 18 -2 5 15 -14 16 -13 17 5 10 17 -6 17 -4 -4 18 -14 15 -20 26 -15 26 11 0 -17 20 -29 20 -5 0 -5 -10 -1 -22z"
       id="path121" />
    <path
       d="M3280 1560 c-8 -5 -11 -10 -6 -10 5 0 -1 -11 -15 -26 -21 -22 -21 -24 -4 -18 18 7 19 6 5 -10 -13 -17 -12 -18 5 -15 11 3 20 11 20 19 0 8 3 17 6 20 11 9 21 50 12 50 -4 0 -15 -5 -23 -10z"
       id="path123" />
    <path
       d="M2067 1523 c-4 -3 -7 -13 -7 -21 0 -12 3 -12 15 -2 8 7 15 16 15 21 0 11 -14 12 -23 2z"
       id="path125" />
    <path
       d="M3310 1522 c0 -5 7 -16 16 -23 14 -12 16 -11 13 5 -4 20 -29 35 -29 18z"
       id="path127" />
    <path
       d="M2076 1485 c-3 -8 -1 -15 5 -15 6 0 8 -9 3 -22 -6 -22 -6 -22 12 -6 13 11 24 14 34 8 8 -5 18 -6 23 -3 13 8 -14 23 -41 23 -13 0 -21 4 -17 9 3 5 1 12 -4 15 -5 3 -11 -1 -15 -9z"
       id="path129" />
    <path
       d="M3309 1495 c-1 -5 -1 -13 0 -17 0 -5 -9 -8 -21 -8 -27 0 -54 -15 -41 -23 5 -3 15 -2 23 3 10 6 21 3 34 -8 18 -16 19 -16 12 2 -4 11 -2 22 3 25 6 4 6 12 1 21 -6 8 -10 11 -11 5z"
       id="path131" />
    <path
       d="M2120 1426 c0 -9 5 -16 10 -16 6 0 10 4 10 9 0 6 -4 13 -10 16 -5 3 -10 -1 -10 -9z"
       id="path133" />
    <path
       d="M2152 1429 c2 -6 8 -10 13 -10 5 0 11 4 13 10 2 6 -4 11 -13 11 -9 0 -15 -5 -13 -11z"
       id="path135" />
    <path
       d="M3222 1429 c2 -6 8 -10 13 -10 5 0 11 4 13 10 2 6 -4 11 -13 11 -9 0 -15 -5 -13 -11z"
       id="path137" />
    <path
       d="M3266 1431 c-4 -7 -5 -15 -2 -18 9 -9 19 4 14 18 -4 11 -6 11 -12 0z"
       id="path139" />
    <path
       d="M2186 1414 c-18 -17 -21 -34 -7 -34 5 0 12 9 16 19 4 13 12 17 25 14 11 -3 20 -9 20 -14 0 -5 -7 -6 -15 -3 -17 7 -21 -21 -5 -31 6 -3 10 -1 10 5 0 6 24 -9 54 -34 74 -64 94 -57 25 8 -31 29 -58 60 -62 69 -8 21 -41 22 -61 1z"
       id="path141" />
    <path
       d="M3153 1413 c-4 -9 -31 -40 -62 -69 -69 -65 -49 -72 25 -8 30 25 54 40 54 34 0 -6 5 -8 10 -5 16 10 12 38 -5 31 -8 -3 -15 -2 -15 3 0 5 9 11 20 14 13 3 21 -1 25 -14 6 -19 25 -27 25 -10 0 17 -31 41 -51 41 -11 0 -22 -7 -26 -17z"
       id="path143" />
    <path
       d="M2146 1382 c-3 -6 -1 -14 5 -17 14 -9 20 -2 10 14 -6 8 -11 9 -15 3z"
       id="path145" />
    <path
       d="M3236 1375 c-3 -8 -1 -15 4 -15 13 0 22 18 11 24 -5 3 -11 -1 -15 -9z"
       id="path147" />
    <path
       d="M2246 1319 c24 -27 74 -53 82 -43 4 4 2 9 -5 11 -7 2 -28 15 -48 29 -44 30 -54 31 -29 3z"
       id="path149" />
    <path
       d="M3122 1315 c-18 -13 -38 -26 -45 -28 -7 -2 -9 -7 -5 -11 8 -10 58 16 82 43 25 27 10 25 -32 -4z"
       id="path151" />
    <path
       d="M2560 1233 c0 -5 11 -43 25 -83 14 -41 22 -77 18 -81 -5 -3 -37 -27 -72 -52 l-64 -46 88 -3 89 -3 25 -77 c14 -43 28 -78 31 -78 3 0 17 35 31 78 l25 77 89 3 88 3 -64 46 c-35 25 -67 49 -72 52 -4 4 4 40 18 81 14 41 24 77 23 81 -2 4 -33 -15 -71 -42 l-67 -49 -58 41 c-31 23 -63 46 -69 52 -8 6 -13 6 -13 0z m107 -101 l33 -24 42 31 c23 17 44 29 46 26 2 -2 -3 -26 -12 -52 -16 -48 -16 -48 8 -66 13 -10 35 -26 48 -37 l23 -19 -62 -1 -61 0 -13 -50 c-7 -27 -16 -50 -19 -50 -3 0 -12 23 -19 50 l-13 50 -61 0 -62 1 23 19 c13 11 35 28 48 37 24 18 25 19 9 62 -25 71 -23 72 42 23z"
       id="path153" />
  </g>
</svg>
