<svg height="600" width="1200" xmlns="http://www.w3.org/2000/svg"><g fill-rule="evenodd"><path d="m0 0h1200v600h-1200z"/><path d="m0 200h1200v400h-1200z" fill="#d41a09"/><path d="m0 400h1200v200h-1200z" fill="#027b32"/><path d="m307.01333 113.16167-28.21833 160.03333m46.59333-169.265-64.96666 178.49667m73.10833-159.615-81.25 140.73333m102.86667-122.595-124.48334 104.45667m155.77334-68.72-187.065 32.98333m169.885-44.28167-152.70334 55.58m158.60167-75.27833-164.50167 94.97667m143.3-120.24334-122.09833 145.51m61.05-167.73v173.28334m-32.485-167.555 64.96667 178.495m-46.59167-169.265 28.21833 160.03333m-75.15833-152.77167 122.09833 145.51m-101.675-143.12166 81.25167 140.73333m-122.87667-117.855 164.50167 94.97667m-144.49333-99.71667 124.485 104.45667m-138.59334-80.01834 152.70334 55.58m-169.885-44.28166 187.065 32.98333" fill="none" stroke="#fecb00" stroke-width="5"/><g fill-rule="evenodd"><path d="m351.00833 214.32667a61.833333 61.833333 0 0 1 -79.25166 36.95666 61.833333 61.833333 0 0 1 -36.95667-79.25333 61.833333 61.833333 0 0 1 79.25167-36.955 61.833333 61.833333 0 0 1 36.95666 79.25167z" fill="#fff" stroke="#fecb00" stroke-width="5.001"/><g stroke="#000"><g stroke-width=".833"><path d="m292.91667 181.95833c-35.92 0-69.075 6.615-95.83334 17.70834 6.10834 47.49166 46.68667 84.21833 95.83334 84.21833 49.14666 0 89.725-36.72667 95.83333-84.21833-26.75833-11.09334-59.91167-17.70834-95.83333-17.70834z" fill="#027b32"/><g fill="#fecb00"><path d="m241.51 100.5c-29.59333 17.58667-49.42667 49.84333-49.42667 86.71667 0 6.82666.68334 13.49833 1.98 19.94833l4.21667-4.89667a96.33 96.33 0 0 1 -1.19667-15.05166c0-35.70334 19.54-66.795 48.49-83.28167l-4.06333-3.43667zm102.81333.0517-4.06333 3.385c28.95 16.48666 48.49 47.57833 48.49 83.28166 0 5.12667-.42333 10.14334-1.19833 15.05167l4.21833 4.89667a101.10833 101.10833 0 0 0 1.98-19.94834c0-36.85-19.86667-69.07166-49.42667-86.66666zm-135.73 132.18666-2.03166 1.61667-.52 4.00833c16.45166 27.89331 45.90833 47.22664 80 49.53331v-5.105c-33.525-2.38-62.27167-22.00167-77.44834-50.05334zm168.64667 0c-15.18333 28.06664-43.95333 47.68997-77.5 50.05331v5.10333c34.08833-2.28667 63.53333-21.60333 80-49.47833l-.46833-4.06334-2.03334-1.615zm68.75-63.75c.705 5.98334 1.09333 12.05834 1.09333 18.23a154.43333 154.43333 0 0 1 -4.01 35.05167l5.83334-3.28167a159.35667 159.35667 0 0 0 3.17666-31.77c0-5.615-.31666-11.15-.885-16.615zm-306.19833.0533-5.15667 1.56167c-.56667 5.46667-.885 11-.885 16.615 0 10.88667 1.09 21.49667 3.17667 31.77l5.78166 3.23a154.30833 154.30833 0 0 1 -4.01-35c0-6.15333.39167-12.21167 1.09334-18.17667zm8.28166 84.16667c12.80834 28.03 33.52 51.70167 59.27 68.17667l-1.92666-2.96834-6.71834-7.70833.99-.73c-18.87666-14.365-34.36666-32.94-45-54.375l-6.61666-2.395zm289.68667 0-6.66667 2.395c-10.62333 21.42834-26.08833 40.01167-44.94833 54.375l.99.73-6.71833 7.70834-1.92667 2.96833c25.75-16.475 46.46167-40.14667 59.27-68.17667zm-197.76 78.85334-5.625 3.17666c15.175 6.01834 31.50333 9.72 48.54167 10.78334v-3.595h6.45833v-1.04167a153.39667 153.39667 0 0 1 -49.375-9.32333zm105.78167 0a153.35 153.35 0 0 1 -49.32334 9.32333v1.04167h5.885v3.645a158.17333 158.17333 0 0 0 49.06334-10.83334z"/><path d="m145.05167 167.375-5.26 1.66667a155.64167 155.64167 0 0 0 -1.09334 18.22833c0 12.02167 1.4 23.71667 4.01 34.94833l5.20834 2.91667.46833-.73c-3.04-11.86333-4.635-24.32167-4.635-37.13333 0-6.74334.435-13.39167 1.30167-19.89667zm295.67666 0c.86667 6.505 1.30334 13.15333 1.30334 19.895 0 12.795-1.60667 25.23333-4.635 37.08333l.52.78167 5.15666-2.865a154.29 154.29 0 0 0 2.91667-53.28167l-5.26-1.61333zm-286.04 88.22833c10.63834 21.41834 26.12167 40.01834 45 54.375l4.16667-3.07333a149.89667 149.89667 0 0 1 -42.18833-48.75l-6.98-2.55zm276.40667 0-6.92667 2.55167a149.80667 149.80667 0 0 1 -42.18833 48.75l4.16667 3.07333a155.03333 155.03333 0 0 0 44.95-54.375zm-185.72833 73.02167.10333.36333-5.41667 3.07334a153.76167 153.76167 0 0 0 49.32334 9.27166v-5a148.715 148.715 0 0 1 -44.01-7.70833zm95.05166.0517c-13.86 4.65-28.61666 7.3-43.95833 7.65667v4.99999a153.715 153.715 0 0 0 49.27167-9.27166l-5.41667-3.07334z"/><path d="m150.365 165.76-5.31333 1.615a149.75167 149.75167 0 0 0 -1.30167 19.84333 149.01667 149.01667 0 0 0 4.68833 37.18667l3.8-5.67667a144.56 144.56 0 0 1 -3.48833-31.51c0-7.30166.56667-14.44833 1.615-21.45833zm285.10333 0c1.05 7.01 1.615 14.15667 1.615 21.45833 0 10.84334-1.22 21.40334-3.49 31.56167l3.80167 5.625a149.01667 149.01667 0 0 0 4.68833-37.18667c0-6.73833-.43333-13.34166-1.30166-19.84333zm-271.40666 86.19833-2.395 6.19667a149.995 149.995 0 0 0 42.18833 48.75l.67667-.52-.625-5.78167c-16.595-13.04333-30.27-29.63-39.84334-48.645zm257.65666.05167a144.94 144.94 0 0 1 -39.84333 48.645l-.625 5.73.625.46833c17.36667-12.945 31.85-29.535 42.24-48.69833zm-177.76 70.83333 1.40667 5.78167a148.55833 148.55833 0 0 0 44.01 7.70833v-5a143.70833 143.70833 0 0 1 -45.41667-8.49zm97.865.0517c-14.21666 5.12834-29.475 8.055-45.365 8.43834v5a148.48333 148.48333 0 0 0 43.95834-7.70834z"/><path d="m155.67667 164.145-5.365 1.615a144.26167 144.26167 0 0 0 1.875 53.07333l3.96-5.88666a139.77333 139.77333 0 0 1 -2.39667-25.67667c0-7.87667.67-15.605 1.92667-23.125zm274.48 0c1.25666 7.52 1.875 15.24833 1.875 23.125 0 8.77667-.84334 17.35167-2.39667 25.67667l3.95833 5.83333a144.34 144.34 0 0 0 3.49-31.51c0-7.31333-.56-14.48667-1.615-21.51zm-263.59334 81.40667-2.5 6.45833c9.57834 18.97333 23.26667 35.51333 39.84334 48.54167l-.73-7.03167c-15.43834-13.06667-28.02834-29.39-36.615-47.96833zm252.655.0517a139.78167 139.78167 0 0 1 -36.56166 47.96834l-.78167 7.03329c16.59-13.03667 30.26-29.6 39.84333-48.595zm-176.66666 71.40663 1.45833 5.83333a143.63667 143.63667 0 0 0 45.365 8.49v-.83333h-5.885v-4.375a138.28667 138.28667 0 0 1 -40.93833-9.115zm100.67666.0517a138.36333 138.36333 0 0 1 -41.45833 9.115v4.3233h-5.31167v.83333a143.385 143.385 0 0 0 45.365-8.49l1.40667-5.78166z"/></g></g><g stroke-width=".5" transform="scale(1.6666667)"><path d="m143.438 192.268c-6.77 1.513-13.806 3.405-19.907 5.5l1.313 3.75c5.825-2 12.595-3.789 19.094-5.25z" fill="#027b32"/><path d="m142.969 188.393c-7.031 1.54-14.261 3.516-20.594 5.657l1.281 3.781c6.062-2.049 13.012-3.946 19.781-5.438z" fill="#d41a09"/><path d="m142.469 184.393c-7.468 1.592-14.69 3.507-21.406 5.72l1.25 3.78c6.457-2.127 13.433-3.987 20.656-5.53z"/></g><g fill="#fecb00" stroke-width=".833"><path d="m271.09333 52.32167c-60.455 9.71666-107.665 59.13666-114.06166 120.625l4.68666 3.90666c4.72667-60.68 50.54167-109.80833 109.68834-119.53166zm43.64667 0-.31333 5c59.125 9.725 104.93833 58.82666 109.68833 119.48l4.68667-3.90667c-6.42-61.455-53.64-110.84667-114.06167-120.57333z"/><path d="m271.40667 57.32167c-59.11167 9.735-104.95834 58.89166-109.68834 119.53333l4.375 3.645.365-.26167c3.24667-59.58166 47.66667-108.17666 105.31334-117.86333l-.36667-5.05333zm43.02 0-.365 5.05333c57.63 9.7 102.06666 58.29333 105.31333 117.86333l.31333.26167 4.42667-3.69833c-4.77-60.58667-50.62333-109.73334-109.68833-119.48z"/><path d="m271.77167 62.375c-57.6 9.70833-102.06334 58.33333-105.31334 117.86333l5.26-3.75c4.82334-55.21666 46.54334-99.825 100.365-109.11333l-.31333-5zm42.29166 0-.31333 5c53.80667 9.3 95.54 53.90667 100.365 109.11333l5.26 3.75c-3.25-59.53-47.71333-108.155-105.31333-117.86333z"/><path d="m272.08333 67.375c-53.79166 9.295-95.53666 53.935-100.365 109.11333l5.46834-3.905c6.35833-50.76 45.30833-91.36666 95.26166-100.20833zm41.66667 0-.365 5.05167c49.955 8.85666 88.92167 49.44166 95.26 100.20833l5.47 3.85333c-4.83167-55.16333-46.59667-99.8-100.365-109.11333zm-137.39667 114.47833-.05.26h.05c.005-.085-.003-.17333 0-.26z"/><path d="m229.48 90.34333c-31.54333 20.71667-52.45 56.375-52.45 96.875 0 6.5.58333 12.85 1.61667 19.06167l5.46666 2.13667a111.385 111.385 0 0 1 -2.03-21.19834c0-39.34166 20.51167-73.82666 51.40667-93.49zm126.875 0-4.01167 3.385c30.875 19.66667 51.355 54.165 51.355 93.49 0 7.25-.70333 14.33667-2.03166 21.19834l5.46833-2.08334c1.03833-6.22833 1.615-12.59666 1.615-19.115 0-40.5-20.85333-76.16-52.39667-96.875zm-156.92833 156.35334-5.78167.20833c20.3 33.65 57.18 56.2 99.27167 56.2 42.09333 0 78.98833-22.54833 99.27166-56.2l-5.83333-.20833c-19.12 30.00333-52.25833 50.20666-90.20833 51.30333v.36333h-6.45834v-.36333c-37.95333-1.09667-71.12833-21.3-90.26166-51.30333z"/><path d="m233.49 93.72833c-30.88333 19.695-51.40667 54.205-51.40667 93.49 0 7.24334.7 14.33834 2.03167 21.19834l5.57333 2.135a106.25167 106.25167 0 0 1 -2.605-23.33334c0-38.115 20.17834-71.48 50.41667-90.105l-4.01-3.38333zm118.85333 0-3.95833 3.385c30.21667 18.62667 50.365 51.99334 50.365 90.105 0 8.015-.91667 15.82834-2.605 23.33334l5.57333-2.135a111.315 111.315 0 0 0 2.03167-21.19834c0-39.28333-20.54167-73.795-51.40667-93.49zm-147.24 152.55167-.05.20833-5.62666.20834c19.145 30.025 52.335 50.25833 90.26 51.355v-5.05167c-35.24167-1.05-66.13-19.34167-84.58334-46.72zm175.62667.05333c-18.45667 27.35834-49.355 45.61667-84.58333 46.66667v5.05167c37.925-1.09667 71.11666-21.33 90.26-51.355l-5.67667-.20834z"/><path d="m237.44833 97.11333c-30.2 18.66167-50.365 52.055-50.365 90.105 0 8.01667.91 15.82167 2.605 23.33334l1.145.41666 3.23-3.80166a101.17667 101.17667 0 0 1 -1.98-19.94834c0-36.91166 19.825-69.155 49.42667-86.71833zm110.93667 0-4.06167 3.38667c29.58334 17.56333 49.42667 49.80667 49.42667 86.71833 0 6.83334-.68333 13.495-1.98 19.94834l3.23 3.8 1.14667-.41667a105.91667 105.91667 0 0 0 2.60333-23.33333c0-38.05334-20.17833-71.445-50.365-90.105zm-142.34333 141.30334-.93834 7.86333c18.465 27.395 49.37167 45.71833 84.58334 46.77167v-3.69834h-3.645v-1.51c-34.1-2.29833-63.55334-21.57833-80-49.42666zm173.69833.0517c-16.46333 27.83167-45.90167 47.095-80 49.375v1.51h-3.59333v3.69834c35.17833-1.06671 66.12333-19.35671 84.58333-46.71838z"/></g></g></g><g stroke="#fecb00" stroke-width="2" transform="scale(1.6666667)"><path d="m168.33 122.282c1.69-2.285 7.581-8.44 7.581-8.44s5.89 6.155 7.582 8.44c1.26 1.703 4.757 4.73 4.757 8.95v27.432h-25v-27.432c0-4.22 3.82-7.247 5.08-8.95z" fill="#fff" fill-rule="evenodd"/><path d="m171.343 131.003c1.106-1.521 4.569-5.95 4.569-5.95s3.452 4.474 4.558 5.995c.824 1.133 1.808 2.04 1.808 4.85v18.795h-13.056v-18.796c0-2.81 1.297-3.76 2.121-4.894z" fill="#fff" fill-rule="evenodd"/><path d="m169.75 148.831h4v-4h4v-4h4" fill="none"/></g><g fill-rule="evenodd" stroke="#000"><g fill="#fecb00"><g stroke-width=".833"><path d="m174.38 163.255c-2.50333.21333-5.08333 2.32-5.76167 4.70167l-1.22833 4.315 4.53333-.38834c2.505-.21333 5.085-2.32 5.76334-4.7l1.22666-4.31666zm-1.21667 9.17c-2.50833.13833-5.15333 2.16667-5.9 4.525l-1.35833 4.275 4.54333-.25c2.50834-.13833 5.15167-2.16667 5.9-4.525l1.35834-4.27667-4.54334.25zm3.55834-17.68833c-2.51167-.07-5.315 1.73-6.25667 4.02l-1.70667 4.14833 4.54834.12667c2.51166.0717 5.31333-1.73 6.25666-4.02l1.70667-4.14667-4.55-.12833z"/><path d="m179.46167 146.65c-2.50834-.14333-5.36167 1.575-6.37167 3.83667l-1.82667 4.09666 4.54334.26c2.50833.14334 5.36166-1.575 6.37166-3.83666l1.82667-4.09667zm2.77166-8.195c-2.5-.25333-5.42833 1.33833-6.535 3.55167l-2.00666 4.01166 4.52833.46167c2.5.25333 5.42667-1.33833 6.53333-3.55333l2.00667-4.01167-4.52833-.46zm4.65667-8.10167c-2.44167-.59333-5.55833.58-6.96 2.62167l-2.53833 3.69833 4.42166 1.07834c2.44.59333 5.55834-.58 6.96-2.62167l2.53667-3.69833zm4.80833-7.685c-2.34666-.89666-5.58666-.125-7.23333 1.72334l-2.985 3.35 4.25 1.625c2.345.89833 5.58667.12666 7.23333-1.72167l2.98334-3.35-4.25-1.62667zm4.725-7.27166c-2.35666-.87-5.58833-.0617-7.21333 1.805l-2.94667 3.38333 4.27 1.57833c2.355.87 5.58834.0617 7.21334-1.80666l2.945-3.38334-4.26667-1.57666zm5.28834-7.09334c-2.325-.95-5.58334-.24666-7.26834 1.56667l-3.05666 3.28333 4.215 1.71667c2.325.95 5.58333.24667 7.27-1.56667l3.055-3.28333z"/><path d="m199.04333 99.155c-2.41333.69667-4.53333 3.26667-4.73666 5.73333l-.36334 4.47167 4.37167-1.26333c2.41333-.69667 4.535-3.265 4.73667-5.73334l.365-4.47z"/><path d="m192.95333 101.61c1.49334 2.02 1.61834 5.35.27834 7.43167l-2.42667 3.77166-2.705-3.66c-1.49333-2.02-1.61833-5.35-.27833-7.43l2.42666-3.77333zm-6.3 6.82833c1.65667 1.88667 2.05834 5.195.89834 7.38167l-2.10334 3.96167-3.00166-3.42c-1.65834-1.88834-2.06-5.195-.9-7.38334l2.105-3.96166 3 3.42166zm-5.55666 7.65667c1.89666 1.65 2.74 4.87167 1.88333 7.195l-1.55 4.20833-3.43667-2.985c-1.895-1.65-2.73833-4.87166-1.88333-7.195l1.55333-4.20833zm-5.80334 8.62167c2.045 1.45833 3.195 4.58333 2.56667 6.98l-1.13833 4.33833-3.70667-2.64c-2.045-1.45833-3.19667-4.585-2.56667-6.98l1.13834-4.33833zm-3.725 9.24166c2.09667 1.38334 3.35834 4.46834 2.815 6.88334l-.98333 4.37666-3.8-2.50666c-2.095-1.38334-3.355-4.46667-2.81333-6.88334l.98333-4.37666 3.8 2.50666zm-4.025 9.745c2.33167.93334 4.18667 3.70167 4.14 6.17834l-.0833 4.48333-4.225-1.69167c-2.33333-.93333-4.18667-3.70166-4.14-6.17833l.0833-4.48333z"/></g><path d="m163.78667 152.44c2.16833.51833 4.15333 3.01667 4.43333 5.575l.50333 4.63333-3.92666-.94c-2.16667-.52-4.15334-3.01666-4.43334-5.57666l-.50333-4.63334zm-2.51667 9.51c2.21333.26833 4.47 2.525 5.03667 5.03333l1.02833 4.54834-4.01-.49c-2.21167-.27-4.46833-2.525-5.03667-5.035l-1.02666-4.54667 4.00833.48833zm-1.52 9.77667c2.22333.17666 4.57333 2.335 5.24667 4.82l1.21666 4.5-4.025-.32167c-2.22166-.17667-4.57166-2.335-5.245-4.81833l-1.21666-4.5 4.025.32z" stroke-width=".803"/></g><g stroke-width=".5" transform="scale(1.6666667)"><path d="m208.048 192.268c6.769 1.513 13.805 3.405 19.906 5.5l-1.313 3.75c-5.825-2-12.594-3.789-19.093-5.25z" fill="#027b32"/><path d="m209.016 184.393c7.469 1.592 14.69 3.507 21.407 5.72l-1.25 3.78c-6.458-2.127-13.434-3.987-20.657-5.53z"/><path d="m208.516 188.393c7.031 1.54 14.261 3.516 20.594 5.657l-1.281 3.781c-6.062-2.049-13.012-3.946-19.781-5.438z" fill="#bf0000"/></g><path d="m157.91667 182.47833a134.94667 134.94667 0 0 0 -.105 4.74c0 3.21834.14166 6.42.36666 9.58334l8.38334-1.09334 2.13666 16.35334-8.33333 1.09333a133.57 133.57 0 0 0 4.94833 18.38667l7.76-3.17834 6.30167 15.20834-7.65667 3.17833a134.78333 134.78333 0 0 0 9.635 16.45833l6.51167-5 10 13.07167-6.40667 4.89667a136.075 136.075 0 0 0 13.54167 13.33333l4.84333-6.30167 13.07334 10.05167-4.79167 6.25a135.18167 135.18167 0 0 0 16.40667 9.32333l2.96833-7.13666 15.26 6.30333-2.91667 7.03c5.91167 1.99167 11.985 3.63 18.23 4.79167l.99-7.44667 16.3 2.18667-.93666 7.29166a136.71667 136.71667 0 0 0 8.49.26c3.46166 0 6.91666-.16 10.31333-.41666l-.93833-7.13334v-.05333l16.355-2.135.93666 7.08333c6.17667-1.24 12.18-2.95 18.02167-5l-2.65667-6.45833 15.20834-6.30333 2.65666 6.40666a135.24 135.24 0 0 0 16.145-9.42666l-4.16666-5.46834 13.07333-10 4.115 5.31167a135.825 135.825 0 0 0 13.07167-13.22833l-5.26-4.01167 10.05166-13.07167 5.26 4.01a134.76167 134.76167 0 0 0 9.27167-16.09333l-6.09333-2.55333 6.35333-15.20834 6.04167 2.5a133.74333 133.74333 0 0 0 4.84333-17.96666l-6.56167-.88667 2.18834-16.30167 6.45833.83334c.21-3.08.36333-6.19167.36333-9.32334 0-1.59333.003-3.15833-.0517-4.74l-16.82334 1.45834c.03 1.09666.105 2.17833.105 3.28166 0 65.57167-53.02166 118.49-118.28166 118.49s-118.28167-52.91833-118.28167-118.49c0-1.10333.075-2.185.105-3.28166z" fill="#fff" stroke-width=".833"/><g fill="#fecb00"><path d="m392.65333 184.125c2.465.48333 4.805 2.85333 5.22167 5.295l.75667 4.42-4.46667-.87167c-2.46667-.48333-4.805-2.855-5.22333-5.295l-.755-4.42166zm-.17 8.61833c2.40334.72834 4.49167 3.325 4.66 5.795l.305 4.475-4.355-1.32c-2.405-.72833-4.49166-3.325-4.66-5.795l-.30666-4.475 4.355 1.32zm-.21666-17.22833c2.50333.2 5.09666 2.29167 5.78666 4.67l1.25 4.30667-4.535-.36167c-2.50333-.2-5.09666-2.29167-5.78833-4.67l-1.25-4.30667 4.535.36167zm-1.79334-8.92c2.51.12667 5.16167 2.14167 5.92167 4.5l1.37667 4.26667-4.545-.22834c-2.50834-.12666-5.16167-2.14333-5.92167-4.5l-1.37667-4.26833zm-2.165-8.47833c2.51167.0167 5.25 1.915 6.11334 4.235l1.56333 4.205-4.55-.03c-2.51333-.0167-5.25167-1.91334-6.115-4.23334l-1.56333-4.205 4.55.03zm-3.02666-8.475c2.49-.32834 5.46333 1.175 6.63666 3.355l2.125 3.95-4.51166.595c-2.49.33-5.46334-1.17334-6.63667-3.35334l-2.125-3.95zm-3.955-8.15834c2.43-.63833 5.56833.47667 7.00666 2.49167l2.60667 3.65-4.4 1.16c-2.42833.64-5.56667-.475-7.00667-2.49l-2.60666-3.65 4.4-1.16zm-3.91667-7.73666c2.43667-.61167 5.56333.54 6.97833 2.57l2.565 3.68-4.41333 1.11c-2.43667.61166-5.56333-.54-6.97833-2.57l-2.565-3.68zm-4.49333-7.62167c2.41333-.69333 5.57666.355 7.05833 2.33833l2.68333 3.59334-4.37333 1.255c-2.415.69166-5.57667-.355-7.06-2.33834l-2.68333-3.59333 4.37333-1.255z" stroke-width=".833"/><path d="m376.55167 117.31667c2.325.95333 4.15833 3.73333 4.09333 6.21l-.11833 4.48333-4.21167-1.725c-2.325-.95167-4.15833-3.73333-4.09333-6.20833l.12-4.48334 4.21 1.725z" stroke-width=".833"/><path d="m382.34333 120.41167c-1.70333 1.84833-2.18333 5.145-1.07666 7.35833l2.00833 4.01167 3.08333-3.34667c1.7-1.84833 2.18334-5.145 1.075-7.35833l-2.00666-4.01167zm5.53 7.46666c-1.85 1.7-2.60666 4.94334-1.68666 7.24334l1.665 4.165 3.35166-3.07834c1.85-1.7 2.60667-4.94333 1.68667-7.24333l-1.665-4.165zm4.7 8.21c-2.06166 1.435-3.24833 4.55-2.64666 6.95l1.09 4.35167 3.73666-2.6c2.06167-1.43333 3.24667-4.54667 2.645-6.95l-1.09-4.35-3.735 2.6zm4.84334 9.19667c-2.19 1.23-3.67 4.21333-3.30334 6.66333l.66667 4.435 3.96667-2.22666c2.19166-1.23 3.67166-4.21334 3.305-6.66334l-.66667-4.435-3.96667 2.22667zm2.36666 9.99667c-2.23166 1.15-3.81666 4.08-3.53666 6.54166l.50833 4.45667 4.045-2.085c2.23333-1.15 3.81667-4.08167 3.53833-6.54167l-.50833-4.45666-4.045 2.08333zm3.265 10.00666c-2.42.67834-4.56166 3.23-4.78166 5.69667l-.39834 4.46667 4.38334-1.22834c2.41666-.67833 4.56-3.23 4.78-5.69666l.39833-4.46667-4.38333 1.22833z" stroke-width=".833"/><path d="m404.755 174.85c-2.21167.285-4.455 2.555-5.00667 5.06667l-1 4.555 4.005-.51334c2.21167-.28333 4.455-2.55333 5.00667-5.06666l1-4.55334-4.005.51334zm.73167 9.79333c-2.23.03-4.71667 2.03167-5.55 4.46667l-1.51167 4.40833 4.03833-.055c2.23-.03 4.71667-2.03 5.55-4.465l1.51167-4.41zm-.405 9.64334c-2.22834-.0633-4.79667 1.83-5.73334 4.22666l-1.695 4.34334 4.03667.115c2.22833.0633 4.79667-1.83 5.73333-4.22834l1.695-4.34166z" stroke-width=".803"/><g stroke-width=".833"><path d="m411.43 163.255c2.50167.21333 5.08333 2.32 5.76 4.70167l1.22833 4.315-4.53333-.38834c-2.505-.21333-5.085-2.32-5.76333-4.7l-1.22667-4.31666 4.53333.38833zm1.21667 9.17c2.50833.13833 5.15 2.16667 5.9 4.525l1.35666 4.275-4.54333-.25c-2.50833-.13833-5.15167-2.16667-5.9-4.525l-1.35833-4.27667 4.545.25zm-3.56-17.68833c2.51166-.07 5.315 1.73 6.25666 4.02l1.70834 4.14833-4.55.12667c-2.51.0717-5.31334-1.73-6.25667-4.02l-1.70667-4.14667 4.55-.12833z"/><path d="m406.34667 146.65c2.50833-.14333 5.36166 1.575 6.37166 3.83667l1.82667 4.09666-4.54333.26c-2.50834.14334-5.36167-1.575-6.37-3.83666l-1.82834-4.09667zm-2.77-8.195c2.5-.25333 5.42666 1.33833 6.53333 3.55167l2.00667 4.01166-4.52834.46167c-2.5.25333-5.425-1.33833-6.53333-3.55333l-2.005-4.01167zm-4.65667-8.10167c2.44-.59333 5.55833.58 6.95833 2.62167l2.53834 3.69833-4.42167 1.07834c-2.44.59333-5.55833-.58-6.95833-2.62167l-2.53834-3.69833zm-4.81-7.685c2.34667-.89666 5.58833-.125 7.235 1.72334l2.98333 3.35-4.25 1.625c-2.345.89833-5.58666.12666-7.23333-1.72167l-2.98333-3.35 4.25-1.62667zm-4.725-7.27166c2.35667-.87 5.58833-.0617 7.21333 1.805l2.94667 3.38333-4.26833 1.57833c-2.35667.87-5.58834.0617-7.215-1.80666l-2.945-3.38334zm-5.28833-7.09334c2.325-.95 5.58333-.24666 7.27 1.56667l3.055 3.28333-4.215 1.71667c-2.325.95-5.58334.24667-7.26834-1.56667l-3.05666-3.28333z"/><path d="m386.765 99.155c2.41333.69667 4.535 3.26667 4.73667 5.73333l.36333 4.47167-4.37167-1.26333c-2.41333-.69667-4.535-3.265-4.73666-5.73334l-.365-4.47z"/><path d="m392.855 101.61c-1.49333 2.02-1.61833 5.35-.27833 7.43167l2.42666 3.77166 2.705-3.66c1.49334-2.02 1.61834-5.35.27834-7.43l-2.42667-3.77333zm6.3 6.82833c-1.65667 1.88667-2.05833 5.195-.89833 7.38167l2.10333 3.96167 3.00167-3.42c1.65833-1.88834 2.06-5.195.9-7.38334l-2.105-3.96166-3 3.42166zm5.55667 7.65667c-1.89667 1.65-2.74 4.87167-1.88334 7.195l1.55167 4.20833 3.43333-2.985c1.89667-1.65 2.74-4.87166 1.88334-7.195l-1.55-4.20833zm5.805 8.62167c-2.04667 1.45833-3.19667 4.58333-2.56667 6.98l1.13667 4.33833 3.70666-2.64c2.04667-1.45833 3.19667-4.585 2.56667-6.98l-1.13833-4.33833zm3.72333 9.24166c-2.09667 1.38334-3.35667 4.46834-2.815 6.88334l.98333 4.37666 3.8-2.50666c2.095-1.38334 3.35667-4.46667 2.81334-6.88334l-.98334-4.37666-3.8 2.50666zm4.02667 9.745c-2.33334.93334-4.18834 3.70167-4.14167 6.17834l.0833 4.48333 4.225-1.69167c2.33334-.93333 4.18667-3.70166 4.14-6.17833l-.0833-4.48333-4.225 1.69166z"/></g><path d="m422.02167 152.44c-2.16667.51833-4.15334 3.01667-4.43334 5.575l-.50333 4.63333 3.92667-.94c2.16833-.52 4.15333-3.01666 4.43333-5.57666l.505-4.63334zm2.51666 9.51c-2.21333.26833-4.47 2.525-5.03666 5.03333l-1.02834 4.54834 4.01-.49c2.21167-.27 4.46834-2.525 5.03667-5.035l1.02833-4.54667-4.01.48833zm1.51834 9.77667c-2.22167.17666-4.57167 2.335-5.245 4.82l-1.21667 4.5 4.025-.32167c2.22167-.17667 4.57167-2.335 5.245-4.81833l1.21833-4.5z" stroke-width=".803"/><path d="m209.25667 117.31667c-2.325.95333-4.15834 3.73333-4.09334 6.21l.11834 4.48333 4.21166-1.725c2.325-.95167 4.15834-3.73333 4.09334-6.20833l-.11834-4.48334-4.21166 1.725z" stroke-width=".833"/><g transform="scale(1.6666667)"><path d="m118.761 76.727c1.11 1.02 1.564 2.966 1.013 4.346l-1 2.499-2.01-1.847c-1.111-1.02-1.565-2.966-1.013-4.346l.999-2.499z" stroke-width=".5"/><path d="m108.194 110.786c1.337.018 2.829 1.219 3.33 2.68l.906 2.645-2.423-.033c-1.338-.018-2.83-1.218-3.33-2.679l-.906-2.646z" stroke-width=".482"/><path d="m115.894 110.475c-1.48.29-2.883 1.712-3.134 3.177l-.453 2.652 2.68-.523c1.479-.29 2.882-1.713 3.133-3.177l.453-2.653-2.68.524zm.102 5.171c-1.443.437-2.695 1.995-2.797 3.477l-.183 2.685 2.613-.792c1.443-.437 2.695-1.995 2.797-3.477l.183-2.685zm.13-10.337c-1.503.12-3.058 1.375-3.473 2.802l-.75 2.584 2.721-.217c1.503-.12 3.058-1.375 3.473-2.802l.75-2.584zm1.074-5.352c-1.505.076-3.096 1.285-3.552 2.7l-.826 2.56 2.727-.137c1.506-.076 3.097-1.286 3.553-2.7l.826-2.561-2.727.138zm1.3-5.087c-1.507.01-3.15 1.149-3.668 2.541l-.938 2.523 2.73-.018c1.508-.01 3.151-1.148 3.669-2.54l.938-2.523-2.73.018zm1.816-5.085c-1.494-.197-3.278.705-3.982 2.013l-1.275 2.37 2.707.357c1.494.198 3.278-.704 3.982-2.012l1.275-2.37zm2.373-4.895c-1.457-.383-3.34.286-4.204 1.495l-1.564 2.19 2.64.696c1.457.384 3.34-.285 4.204-1.494l1.564-2.19-2.64-.696zm2.35-4.642c-1.462-.367-3.338.324-4.187 1.542l-1.539 2.208 2.648.666c1.462.367 3.338-.324 4.187-1.542l1.539-2.208zm2.697-4.573c-1.449-.416-3.347.213-4.236 1.403l-1.61 2.156 2.624.753c1.449.415 3.346-.213 4.236-1.403l1.61-2.156zm-5.656-3.428c1.02 1.109 1.31 3.087.645 4.415l-1.205 2.407-1.85-2.008c-1.02-1.109-1.31-3.087-.645-4.415l1.205-2.407zm-6.139 9.406c1.238.861 1.949 2.73 1.588 4.17l-.654 2.611-2.242-1.56c-1.237-.86-1.948-2.728-1.587-4.17l.654-2.61 2.241 1.56zm-2.906 5.518c1.314.738 2.202 2.528 1.982 3.998l-.4 2.661-2.38-1.336c-1.315-.738-2.203-2.528-1.983-3.998l.4-2.661zm-1.421 5.998c1.34.69 2.291 2.448 2.123 3.925l-.304 2.674-2.428-1.251c-1.34-.69-2.29-2.449-2.122-3.925l.304-2.674 2.427 1.25zm-1.958 6.004c1.452.407 2.737 1.938 2.869 3.418l.239 2.68-2.63-.737c-1.45-.407-2.735-1.938-2.867-3.418l-.24-2.68 2.63.737z" stroke-width=".5"/><path d="m108.633 104.91c1.326.171 2.672 1.533 3.003 3.04l.6 2.733-2.403-.308c-1.327-.17-2.673-1.532-3.004-3.04l-.6-2.732 2.404.308zm-.197 11.662c1.338-.038 2.878 1.098 3.44 2.536l1.017 2.606-2.422.069c-1.337.038-2.878-1.098-3.44-2.537l-1.017-2.605z" stroke-width=".482"/><path d="m116.639 121.264c-1.416.516-2.581 2.141-2.6 3.627l-.034 2.69 2.565-.935c1.416-.516 2.58-2.14 2.6-3.626l.034-2.692z" stroke-width=".5"/><path d="m109.142 122.608c1.333-.113 2.935.937 3.575 2.342l1.16 2.545-2.415.203c-1.333.112-2.934-.937-3.575-2.342l-1.16-2.545z" stroke-width=".482"/></g><path d="m391.41167 201.97167c2.36.86 4.3 3.56666 4.33166 6.04333l.0567 4.485-4.275-1.55833c-2.36-.86167-4.3-3.56834-4.33333-6.045l-.0567-4.48334z" stroke-width=".833"/><path d="m403.905 204.21c-2.22167-.18667-4.89 1.56167-5.95833 3.90333l-1.93334 4.24167 4.025.33833c2.22167.18667 4.89-1.56166 5.95834-3.90333l1.93333-4.24167z" stroke-width=".803"/><g transform="scale(1.6666667)"><g><g stroke-width=".5"><path d="m235.597 174.007c.638 1.365.316 3.338-.719 4.403l-1.875 1.93-1.157-2.473c-.638-1.365-.316-3.338.719-4.403l1.875-1.93zm-4.277 3.753c.679 1.346.417 3.328-.586 4.424l-1.816 1.986-1.23-2.437c-.68-1.345-.418-3.327.584-4.423l1.816-1.986 1.231 2.437zm8.004-7.522c.789 1.284.692 3.28-.216 4.456l-1.645 2.13-1.429-2.326c-.789-1.285-.692-3.281.216-4.457l1.645-2.13z"/><path d="m242.707 166.39c.826 1.261.787 3.26-.086 4.462l-1.582 2.177-1.496-2.284c-.826-1.261-.788-3.26.086-4.461l1.582-2.177 1.496 2.284zm3.243-4.27c.88 1.224.93 3.222.11 4.461l-1.484 2.245-1.596-2.216c-.88-1.223-.93-3.222-.11-4.46l1.485-2.245 1.595 2.216zm2.816-4.597c1.04 1.09 1.364 3.063.723 4.403l-1.163 2.427-1.884-1.976c-1.04-1.09-1.364-3.063-.723-4.403l1.163-2.427zm2.743-4.677c1.17.95 1.739 2.866 1.271 4.277l-.847 2.554-2.118-1.722c-1.17-.951-1.74-2.867-1.272-4.277l.847-2.555zm2.365-4.636c1.158.965 1.706 2.887 1.222 4.292l-.876 2.544-2.099-1.746c-1.159-.964-1.706-2.887-1.222-4.291l.876-2.545 2.099 1.747zm6.545 2.995c-1.478-.295-3.318.486-4.107 1.745l-1.43 2.28 2.677.536c1.478.296 3.318-.486 4.107-1.744l1.43-2.28zm-2.317 5.183c-1.425-.492-3.353.035-4.305 1.176l-1.723 2.067 2.581.891c1.425.492 3.353-.035 4.304-1.176l1.724-2.067zm-2.744 5.6c-1.37-.627-3.34-.288-4.397.756l-1.915 1.891 2.483 1.136c1.371.627 3.341.288 4.398-.756l1.914-1.891zm-3.689 4.704c-1.347-.675-3.328-.407-4.422.6l-1.98 1.822 2.441 1.223c1.348.675 3.328.407 4.422-.6l1.98-1.821z"/><path d="m247.809 171.704c-1.184-.932-3.179-1.067-4.452-.302l-2.306 1.387 2.145 1.69c1.185.932 3.179 1.067 4.452.301l2.306-1.387z"/></g><path d="m244.393 176.274c-.92-.972-2.813-1.256-4.227-.635l-2.56 1.126 1.666 1.76c.92.971 2.813 1.256 4.226.634l2.56-1.126-1.665-1.76zm-4.19 4.156c-.803-1.069-2.652-1.566-4.127-1.11l-2.672.828 1.456 1.938c.803 1.07 2.652 1.567 4.127 1.11l2.671-.828-1.455-1.937zm-4.226 3.42c-.876-1.01-2.756-1.377-4.195-.817l-2.606 1.013 1.587 1.83c.877 1.011 2.756 1.377 4.195.818l2.607-1.014z" stroke-width=".482"/></g><g><path d="m231.905 150.14c-1.375-.618-3.343-.266-4.393.785l-1.902 1.903 2.49 1.12c1.375.618 3.343.267 4.393-.784l1.902-1.904z" stroke-width=".5"/><path d="m204.776 173.286c-.545-1.222-2.236-2.119-3.776-2.003l-2.789.211.987 2.214c.544 1.221 2.235 2.119 3.775 2.002l2.789-.21z" stroke-width=".482"/><path d="m202.024 166.088c.318 1.473-.436 3.325-1.683 4.132l-2.258 1.463-.576-2.669c-.318-1.473.436-3.324 1.683-4.132l2.259-1.463zm-4.791 1.946c.167 1.498-.77 3.263-2.092 3.94l-2.396 1.228-.303-2.713c-.167-1.498.77-3.264 2.092-3.941l2.395-1.228zm9.447-4.197c.482 1.428-.057 3.352-1.205 4.296l-2.079 1.71-.874-2.588c-.482-1.427.058-3.352 1.205-4.296l2.079-1.71zm4.494-3.099c.524 1.413.04 3.353-1.08 4.33l-2.027 1.768-.95-2.56c-.523-1.413-.04-3.353 1.08-4.33l2.028-1.769.949 2.56zm4.161-3.201c.586 1.39.188 3.348-.887 4.373l-1.948 1.857-1.061-2.516c-.586-1.389-.188-3.348.887-4.373l1.948-1.857zm3.957-3.675c.77 1.296.646 3.29-.279 4.454l-1.674 2.107-1.397-2.347c-.77-1.295-.646-3.29.279-4.453l1.675-2.107zm3.562-4.11c.928 1.187 1.055 3.182.285 4.452l-1.396 2.302-1.68-2.152c-.929-1.188-1.056-3.183-.286-4.453l1.396-2.301 1.68 2.152zm3.339-3.991c.914 1.198 1.02 3.194.234 4.456l-1.422 2.285-1.656-2.171c-.914-1.198-1.019-3.195-.234-4.456l1.422-2.285zm8.519-.437c-1.421-.5-3.353.014-4.311 1.149l-1.737 2.056 2.575.908c1.422.5 3.353-.014 4.312-1.149l1.736-2.056zm-6.222 9.351c-1.279-.797-3.276-.714-4.458.186l-2.14 1.631 2.316 1.445c1.28.797 3.276.714 4.458-.187l2.141-1.63zm-3.924 4.847c-1.196-.917-3.192-1.026-4.455-.244l-2.288 1.417 2.167 1.66c1.196.918 3.192 1.027 4.455.245l2.288-1.417-2.167-1.66zm-4.951 3.672c-1.163-.96-3.153-1.14-4.443-.403l-2.338 1.335 2.107 1.737c1.163.959 3.154 1.139 4.444.402l2.337-1.334zm-4.745 4.166c-.946-1.172-2.86-1.749-4.272-1.286l-2.557.837 1.714 2.125c.947 1.173 2.86 1.75 4.273 1.288l2.557-.838-1.714-2.125z" stroke-width=".5"/><path d="m210.002 170.565c-.68-1.152-2.462-1.851-3.979-1.56l-2.747.525 1.231 2.088c.68 1.152 2.462 1.851 3.979 1.56l2.747-.526zm-10.639 4.78c-.492-1.243-2.144-2.211-3.687-2.16l-2.796.093.892 2.253c.493 1.244 2.145 2.212 3.688 2.16l2.795-.093z" stroke-width=".482"/><path d="m191.816 169.66c.084 1.504-.95 3.215-2.307 3.818l-2.46 1.093-.151-2.726c-.084-1.505.95-3.216 2.307-3.82l2.46-1.092.151 2.726z" stroke-width=".5"/><path d="m187.695 178.661c-.247-1.314-1.685-2.579-3.21-2.822l-2.762-.44.447 2.382c.247 1.314 1.685 2.578 3.21 2.821l2.762.44-.447-2.38zm5.844-1.583c-.423-1.27-2.019-2.327-3.562-2.362l-2.797-.062.766 2.3c.423 1.269 2.019 2.326 3.562 2.36l2.797.063-.766-2.3zm-11.389 1.735c-.34-1.293-1.866-2.45-3.405-2.582l-2.786-.238.618 2.342c.342 1.294 1.868 2.45 3.406 2.582l2.787.24z" stroke-width=".482"/><path d="m186.713 170.943c-.04 1.507-1.21 3.127-2.612 3.617l-2.54.889.071-2.73c.04-1.507 1.21-3.127 2.612-3.618l2.54-.888-.07 2.73z" stroke-width=".5"/><path d="m181.456 171.74c-.042 1.427-1.295 2.963-2.797 3.428l-2.721.841.076-2.587c.042-1.427 1.295-2.963 2.798-3.428l2.72-.841-.076 2.586z" stroke-width=".504"/><path d="m228.521 141.277c1.146.98 1.667 2.91 1.165 4.307l-.911 2.533-2.075-1.775c-1.145-.98-1.667-2.91-1.164-4.307l.91-2.533z" stroke-width=".5"/></g><g><path d="m122.964 141.277c-1.146.98-1.667 2.91-1.165 4.307l.911 2.533 2.075-1.775c1.145-.98 1.667-2.91 1.164-4.307l-.91-2.533zm-3.384 8.863c1.375-.618 3.343-.266 4.393.785l1.902 1.903-2.49 1.12c-1.375.618-3.343.267-4.393-.784l-1.902-1.904z" stroke-width=".5"/><path d="m146.71 173.286c.544-1.222 2.235-2.119 3.775-2.003l2.789.211-.987 2.214c-.544 1.221-2.235 2.119-3.775 2.002l-2.789-.21.986-2.214z" stroke-width=".482"/><path d="m149.46 166.088c-.317 1.473.437 3.325 1.684 4.132l2.258 1.463.576-2.669c.318-1.473-.436-3.324-1.683-4.132l-2.259-1.463-.575 2.669zm4.793 1.946c-.168 1.498.77 3.263 2.092 3.94l2.395 1.228.303-2.713c.167-1.498-.77-3.264-2.092-3.941l-2.395-1.228zm-9.448-4.197c-.482 1.428.058 3.352 1.205 4.296l2.079 1.71.874-2.588c.482-1.427-.058-3.352-1.205-4.296l-2.079-1.71zm-4.494-3.099c-.524 1.413-.04 3.353 1.08 4.33l2.027 1.768.95-2.56c.523-1.413.04-3.353-1.08-4.33l-2.028-1.769-.949 2.56zm-4.161-3.201c-.586 1.39-.188 3.348.887 4.373l1.949 1.857 1.06-2.516c.586-1.389.188-3.348-.887-4.373l-1.948-1.857zm-3.957-3.675c-.77 1.296-.646 3.29.279 4.454l1.674 2.107 1.397-2.347c.77-1.295.646-3.29-.279-4.453l-1.674-2.107zm-3.562-4.11c-.927 1.187-1.055 3.182-.285 4.452l1.396 2.302 1.68-2.152c.929-1.188 1.057-3.183.286-4.453l-1.395-2.301zm-3.339-3.991c-.914 1.198-1.02 3.194-.234 4.456l1.422 2.285 1.656-2.171c.914-1.198 1.02-3.195.234-4.456l-1.422-2.285zm-8.519-.437c1.421-.5 3.353.014 4.312 1.149l1.736 2.056-2.575.908c-1.422.5-3.353-.014-4.312-1.149l-1.736-2.056zm6.222 9.351c1.279-.797 3.276-.714 4.458.186l2.141 1.631-2.317 1.445c-1.28.797-3.276.714-4.458-.187l-2.141-1.63zm3.924 4.847c1.196-.917 3.192-1.026 4.455-.244l2.288 1.417-2.167 1.66c-1.196.918-3.192 1.027-4.455.245l-2.288-1.417 2.167-1.66zm4.951 3.672c1.163-.96 3.154-1.14 4.444-.403l2.337 1.335-2.107 1.737c-1.163.959-3.154 1.139-4.444.402l-2.337-1.334zm4.745 4.166c.946-1.172 2.86-1.749 4.272-1.286l2.557.837-1.714 2.125c-.947 1.173-2.86 1.75-4.272 1.288l-2.558-.838 1.715-2.125z" stroke-width=".5"/><path d="m141.484 170.565c.68-1.152 2.462-1.851 3.978-1.56l2.747.525-1.231 2.088c-.68 1.152-2.462 1.851-3.979 1.56l-2.747-.526zm10.638 4.78c.492-1.243 2.144-2.211 3.687-2.16l2.796.093-.892 2.253c-.493 1.244-2.145 2.212-3.688 2.16l-2.795-.093z" stroke-width=".482"/><path d="m159.669 169.66c-.084 1.504.95 3.215 2.307 3.818l2.46 1.093.152-2.726c.084-1.505-.95-3.216-2.308-3.82l-2.46-1.092-.151 2.726z" stroke-width=".5"/><path d="m163.79 178.661c.247-1.314 1.685-2.579 3.21-2.822l2.762-.44-.447 2.382c-.247 1.314-1.685 2.578-3.21 2.821l-2.762.44.447-2.38zm-5.844-1.583c.423-1.27 2.019-2.327 3.563-2.362l2.796-.062-.766 2.3c-.423 1.269-2.019 2.326-3.562 2.36l-2.797.063.766-2.3zm11.388 1.735c.342-1.293 1.868-2.45 3.406-2.582l2.787-.238-.62 2.342c-.34 1.294-1.866 2.45-3.405 2.582l-2.787.24.62-2.344z" stroke-width=".482"/><path d="m164.772 170.943c.04 1.507 1.21 3.127 2.612 3.617l2.54.889-.07-2.73c-.04-1.507-1.21-3.127-2.613-3.618l-2.54-.888.07 2.73z" stroke-width=".5"/><path d="m170.029 171.74c.042 1.427 1.295 2.963 2.797 3.428l2.722.841-.077-2.587c-.042-1.427-1.295-2.963-2.797-3.428l-2.722-.841.077 2.586z" stroke-width=".504"/></g><g stroke-width=".5"><path d="m91.126 128.967c-1.31.745-2.188 2.54-1.96 4.009l.415 2.659 2.374-1.35c1.31-.745 2.188-2.54 1.959-4.009l-.415-2.659zm-1.213-5.169c-1.334.701-2.27 2.467-2.09 3.942l.326 2.671 2.417-1.27c1.334-.702 2.27-2.467 2.09-3.942l-.326-2.672-2.417 1.27z"/><path d="m84.684 121.488c-.613 1.377-.254 3.343.8 4.39l1.912 1.894 1.11-2.494c.613-1.377.254-3.344-.8-4.39l-1.912-1.895z"/><path d="m83.457 125.231c1.504.096 3.08 1.325 3.518 2.744l.794 2.572-2.725-.172c-1.505-.095-3.08-1.325-3.519-2.744l-.793-2.572zm.699 5.531c1.507-.03 3.18 1.062 3.735 2.44l1.006 2.497-2.73.056c-1.507.03-3.18-1.063-3.736-2.44l-1.005-2.497z"/></g></g></g><g stroke-width=".48" transform="matrix(1.8041334 .10193334 -.14078334 1.6650834 -55.946668 -163.845)"><path d="m159.66 216.434c-12.836 1.43-24.186 7.179-34.87 14.282l1.93 4.01c10.263-6.823 23.026-12.758 34.863-14.076z"/><path d="m161.364 220.143c-12.823 1.428-24.06 7.404-34.716 14.488l1.644 3.72c10.291-6.844 23.432-12.86 35.283-14.18z" fill="#d41a09"/><path d="m163.412 224.109c-12.8 1.426-24.428 7.114-35.046 14.174l1.8 3.922c10.328-6.868 23.643-13.11 35.516-14.433z" fill="#027b32"/></g><g transform="scale(1.6666667)"><g stroke-width=".5"><path d="m175.732 186.384c-13.599 0-27.515 1.232-39.656 3.687l.812 3.907c23.648-4.783 54.384-4.783 78.032 0l.78-3.907c-12.14-2.455-26.369-3.687-39.968-3.687z" fill="#090"/><path d="m175.732 182.509c-13.851 0-28.073 1.343-40.437 3.781l.78 3.938c24.11-4.754 55.486-4.754 79.595 0l.75-3.938c-12.365-2.438-26.836-3.781-40.688-3.781z" fill="#bf0000"/><path d="m175.732 178.54c-14.272 0-28.544 1.216-41.281 3.625l.75 3.906c24.877-4.705 56.217-4.705 81.094 0l.718-3.906c-12.737-2.41-27.008-3.625-41.28-3.625z"/></g><g fill="#fecb00"><g stroke-width=".5"><path d="m115.888 174.007c-.638 1.365-.316 3.338.719 4.403l1.875 1.93 1.157-2.473c.638-1.365.316-3.338-.719-4.403l-1.875-1.93zm4.278 3.753c-.68 1.346-.418 3.328.585 4.424l1.816 1.986 1.231-2.437c.68-1.345.417-3.327-.585-4.423l-1.816-1.986-1.231 2.437zm-8.005-7.522c-.789 1.284-.692 3.28.216 4.456l1.645 2.13 1.43-2.326c.788-1.285.691-3.281-.217-4.457l-1.645-2.13z"/><path d="m108.778 166.39c-.826 1.261-.787 3.26.086 4.462l1.582 2.177 1.497-2.284c.826-1.261.787-3.26-.086-4.461l-1.583-2.177-1.496 2.284zm-3.243-4.27c-.88 1.224-.93 3.222-.11 4.461l1.484 2.245 1.596-2.216c.88-1.223.93-3.222.11-4.46l-1.484-2.245-1.596 2.216zm-2.816-4.597c-1.04 1.09-1.364 3.063-.722 4.403l1.162 2.427 1.885-1.976c1.04-1.09 1.363-3.063.722-4.403l-1.163-2.427zm-2.743-4.677c-1.17.95-1.739 2.866-1.271 4.277l.847 2.554 2.119-1.722c1.17-.951 1.739-2.867 1.271-4.277l-.847-2.555zm-2.365-4.636c-1.158.965-1.706 2.887-1.222 4.292l.876 2.544 2.1-1.746c1.158-.964 1.705-2.887 1.222-4.291l-.877-2.545-2.099 1.747zm-6.544 2.995c1.478-.295 3.317.486 4.107 1.745l1.429 2.28-2.677.536c-1.478.296-3.318-.486-4.107-1.744l-1.43-2.28zm2.317 5.183c1.424-.492 3.352.035 4.304 1.176l1.723 2.067-2.581.891c-1.425.492-3.353-.035-4.304-1.176l-1.723-2.067 2.58-.891zm2.743 5.6c1.37-.627 3.34-.288 4.397.756l1.915 1.891-2.483 1.136c-1.37.627-3.341.288-4.398-.756l-1.914-1.891zm3.689 4.704c1.348-.675 3.328-.407 4.422.6l1.98 1.822-2.441 1.223c-1.347.675-3.328.407-4.422-.6l-1.98-1.821z"/><path d="m103.676 171.704c1.185-.932 3.179-1.067 4.452-.302l2.306 1.387-2.145 1.69c-1.184.932-3.179 1.067-4.452.301l-2.306-1.387z"/></g><path d="m107.092 176.274c.92-.972 2.813-1.256 4.227-.635l2.56 1.126-1.666 1.76c-.92.971-2.813 1.256-4.226.634l-2.56-1.126 1.665-1.76zm4.19 4.156c.803-1.069 2.652-1.566 4.127-1.11l2.672.828-1.455 1.938c-.804 1.07-2.653 1.567-4.127 1.11l-2.672-.828 1.455-1.937zm4.226 3.42c.876-1.01 2.756-1.377 4.195-.817l2.607 1.013-1.588 1.83c-.877 1.011-2.756 1.377-4.195.818l-2.607-1.014z" stroke-width=".482"/></g><g stroke-width=".5"><path d="m131.656 190.831c-6.769 1.513-13.805 3.405-19.906 5.5l1.313 3.75c5.825-2 12.594-3.79 19.093-5.25z" fill="#027b32"/><path d="m131.188 186.956c-7.031 1.54-14.261 3.516-20.594 5.656l1.281 3.781c6.062-2.048 13.012-3.945 19.781-5.437l-.469-4z" fill="#d41a09"/><path d="m130.688 182.956c-7.469 1.591-14.69 3.506-21.407 5.719l1.25 3.781c6.458-2.127 13.434-3.988 20.656-5.531l-.5-3.969z"/></g><g stroke-width=".5"><path d="m219.829 190.831c6.769 1.513 13.805 3.405 19.906 5.5l-1.312 3.75c-5.826-2-12.595-3.79-19.094-5.25z" fill="#027b32"/><path d="m220.298 186.956c7.03 1.54 14.26 3.516 20.593 5.656l-1.28 3.781c-6.063-2.048-13.013-3.945-19.782-5.437z" fill="#d41a09"/><path d="m220.798 182.956c7.468 1.591 14.69 3.506 21.406 5.719l-1.25 3.781c-6.458-2.127-13.434-3.988-20.656-5.531z"/></g><g fill="#fecb00" stroke-width=".5"><path d="m260.36 128.967c1.31.745 2.187 2.54 1.959 4.009l-.415 2.659-2.373-1.35c-1.31-.745-2.188-2.54-1.96-4.009l.415-2.659 2.373 1.35zm1.212-5.169c1.334.701 2.27 2.467 2.09 3.942l-.326 2.671-2.417-1.27c-1.334-.702-2.27-2.467-2.09-3.942l.326-2.672 2.417 1.27z"/><path d="m266.801 121.488c.613 1.377.254 3.343-.8 4.39l-1.912 1.894-1.11-2.494c-.613-1.377-.254-3.344.801-4.39l1.911-1.895z"/><path d="m268.028 125.231c-1.504.095-3.08 1.325-3.518 2.744l-.793 2.572 2.725-.172c1.504-.095 3.08-1.325 3.518-2.744l.793-2.572zm-.698 5.531c-1.507-.03-3.18 1.062-3.736 2.44l-1.006 2.497 2.73.056c1.507.03 3.18-1.063 3.736-2.44l1.005-2.497-2.73-.056z"/></g></g><g stroke-width=".48" transform="matrix(-1.8041334 .10193334 .14078334 1.6650834 641.75668 -163.845)"><path d="m159.66 216.434c-12.836 1.43-24.186 7.179-34.87 14.282l1.93 4.01c10.263-6.823 23.026-12.758 34.863-14.076z"/><path d="m161.364 220.143c-12.823 1.428-24.06 7.404-34.716 14.488l1.644 3.72c10.291-6.844 23.432-12.86 35.283-14.18z" fill="#d41a09"/><path d="m163.412 224.109c-12.8 1.426-24.428 7.114-35.046 14.174l1.8 3.922c10.328-6.868 23.643-13.11 35.516-14.433z" fill="#027b32"/></g><g fill="#fecb00" transform="scale(1.6666667)"><path d="m146.554 201.187c.458-1.257 2.082-2.27 3.626-2.263l2.797.015-.829 2.277c-.457 1.257-2.081 2.27-3.625 2.263l-2.797-.015z" stroke-width=".482"/><path d="m148.795 193.813c-.214 1.492.668 3.286 1.968 4.005l2.356 1.301.387-2.703c.214-1.492-.668-3.286-1.968-4.004l-2.356-1.302zm4.916 1.606c-.062 1.506.997 3.201 2.363 3.785l2.475 1.056.113-2.728c.062-1.506-.997-3.201-2.363-3.785l-2.476-1.057zm-9.718-3.525c-.381 1.458.292 3.34 1.503 4.201l2.193 1.56.69-2.642c.382-1.458-.291-3.34-1.502-4.201l-2.193-1.56-.69 2.642z" stroke-width=".5"/><path d="m141.151 198.838c.597-1.196 2.326-2.019 3.86-1.835l2.776.332-1.082 2.168c-.597 1.197-2.326 2.02-3.859 1.836l-2.777-.332zm10.947 4.024c.404-1.276 1.984-2.357 3.527-2.414l2.795-.103-.732 2.31c-.404 1.276-1.984 2.357-3.527 2.414l-2.795.103z" stroke-width=".482"/><path d="m159.228 196.66c.022 1.508 1.172 3.142 2.569 3.649l2.53.918-.04-2.73c-.02-1.507-1.172-3.142-2.568-3.649l-2.53-.917.039 2.73z" stroke-width=".5"/><path d="m163.97 205.352c.154-1.329 1.5-2.69 3.004-3.04l2.725-.633-.28 2.408c-.154 1.328-1.5 2.69-3.004 3.04l-2.724.632.28-2.407zm-5.94-1.17c.332-1.296 1.85-2.463 3.387-2.605l2.786-.258-.603 2.347c-.333 1.296-1.851 2.463-3.388 2.605l-2.785.258.602-2.347zm11.481.933c.25-1.314 1.691-2.574 3.216-2.814l2.764-.433-.454 2.38c-.25 1.314-1.69 2.575-3.216 2.814l-2.763.434.453-2.38z" stroke-width=".482"/><path d="m164.409 197.584c.144 1.5 1.425 3.035 2.858 3.426l2.597.708-.262-2.718c-.145-1.5-1.426-3.035-2.86-3.426l-2.596-.708z" stroke-width=".5"/><path d="m169.708 198.01c.142 1.422 1.5 2.866 3.031 3.224l2.774.649-.258-2.575c-.142-1.421-1.5-2.866-3.03-3.224l-2.774-.649z" stroke-width=".504"/></g><g fill="#fecb00" transform="scale(1.6666667)"><path d="m204.93 201.187c-.457-1.257-2.081-2.27-3.625-2.263l-2.797.015.829 2.277c.457 1.257 2.082 2.27 3.625 2.263l2.797-.015-.828-2.277z" stroke-width=".482"/><path d="m202.69 193.813c.214 1.492-.668 3.286-1.968 4.005l-2.356 1.301-.387-2.703c-.214-1.492.668-3.286 1.968-4.004l2.356-1.302zm-4.916 1.606c.062 1.506-.997 3.201-2.363 3.785l-2.475 1.056-.112-2.728c-.062-1.506.996-3.201 2.362-3.785l2.476-1.057zm9.718-3.525c.381 1.458-.292 3.34-1.503 4.201l-2.193 1.56-.69-2.642c-.382-1.458.291-3.34 1.502-4.201l2.193-1.56z" stroke-width=".5"/><path d="m210.334 198.838c-.597-1.196-2.326-2.019-3.86-1.835l-2.776.332 1.082 2.168c.597 1.197 2.326 2.02 3.859 1.836l2.777-.332zm-10.947 4.024c-.404-1.276-1.984-2.357-3.527-2.414l-2.795-.103.732 2.31c.404 1.276 1.984 2.357 3.527 2.414l2.795.103z" stroke-width=".482"/><path d="m192.257 196.66c-.021 1.508-1.172 3.142-2.569 3.649l-2.53.918.04-2.73c.021-1.507 1.172-3.142 2.568-3.649l2.53-.917-.039 2.73z" stroke-width=".5"/><path d="m187.515 205.352c-.154-1.329-1.5-2.69-3.004-3.04l-2.724-.633.28 2.408c.153 1.328 1.499 2.69 3.003 3.04l2.724.632zm5.941-1.17c-.333-1.296-1.85-2.463-3.388-2.605l-2.785-.258.603 2.347c.332 1.296 1.85 2.463 3.388 2.605l2.785.258zm-11.482.933c-.25-1.314-1.69-2.574-3.216-2.814l-2.763-.433.453 2.38c.25 1.314 1.69 2.575 3.216 2.814l2.763.434-.453-2.38z" stroke-width=".482"/><path d="m187.077 197.584c-.145 1.5-1.426 3.035-2.86 3.426l-2.596.708.263-2.718c.144-1.5 1.425-3.035 2.858-3.426l2.597-.708z" stroke-width=".5"/><path d="m181.777 198.01c-.142 1.422-1.5 2.866-3.031 3.224l-2.773.649.257-2.575c.142-1.421 1.5-2.866 3.03-3.224l2.774-.649z" stroke-width=".504"/></g><g stroke-width=".5" transform="scale(1.6666667)"><path d="m175.753 186.384c13.6 0 27.515 1.232 39.656 3.687l-.812 3.907c-23.648-4.783-54.384-4.783-78.032 0l-.78-3.907c12.14-2.455 26.369-3.687 39.968-3.687z" fill="#027b32"/><path d="m175.753 182.509c13.851 0 28.073 1.343 40.437 3.781l-.78 3.938c-24.11-4.754-55.486-4.754-79.595 0l-.75-3.938c12.365-2.438 26.837-3.781 40.688-3.781z" fill="#d41a09"/><path d="m175.753 178.54c14.273 0 28.544 1.216 41.281 3.625l-.75 3.906c-24.877-4.705-56.217-4.705-81.094 0l-.718-3.906c12.737-2.41 27.008-3.625 41.281-3.625z"/></g></g></g></svg>