<?xml version="1.0" encoding="UTF-8"?>
<svg width="600" height="400" version="1.1" xmlns="http://www.w3.org/2000/svg">
 <path d="m0 0h600v100h-600z" fill="#e01f1f"/>
 <path d="m0 100h600v300h-600z" fill="#138936"/>
 <path d="m0 200h600v100h-600z" fill="#e01f1f"/>
 <path d="m419.7 200a119.7 119.7 0 0 1-119.7 119.7 119.7 119.7 0 0 1-119.7-119.7 119.7 119.7 0 0 1 119.7-119.7 119.7 119.7 0 0 1 119.7 119.7z"/>
 <g fill="#fff">
  <path d="m274.8 191.25v7.0898h50.391v-7.0898zm7.4531 0.70508c1.565 0 2.8262 1.2846 2.8262 2.8516s-1.2613 2.8301-2.8262 2.8301-2.8477-1.2631-2.8477-2.8301c0-1.5671 1.2827-2.8516 2.8477-2.8516zm15.834 0h4.2285c1.565 3.6e-4 2.8262 1.2846 2.8262 2.8516s-1.2613 2.8301-2.8262 2.8301h-4.6426c-1.565 0-2.8262-1.2631-2.8262-2.8301 0-1.5671 1.2606-2.852 3.2402-2.8516zm19.67 0c1.565 0 2.8262 1.2846 2.8262 2.8516s-1.2613 2.8301-2.8262 2.8301-2.8477-1.2631-2.8476-2.8301c0-1.5671 1.2826-2.8516 2.8476-2.8516z"/>
  <path d="m305.35 207.05c-0.71529 2e-5 -1.2793 0.58652-1.2793 1.3027v34.294l2.4453-4e-3v-28.79h0.80664v28.788l1.9062-4e-3v-27.953l18.568 18.494v-2.8125l-16.572-16.514h1.6152l14.957 14.971v-7.1777h-2.7812v-2.8066h-2.7578v-2.8086h-2.7812v-2.8281h-2.7793v-2.8066h-2.8496v-2.043c0-0.71624-0.58548-1.3028-1.3008-1.3027zm-33.12 0.94922v34.687l3.2754-6e-3v-22.599c0-3.2787 2.6039-5.9297 5.8516-5.9297s5.8535 2.651 5.8535 5.9297v22.579l3.2734-6e-3v-34.656zm2.4668 1.1465h3.3184v4.332h-3.3184zm5.002 0h3.3184v4.332h-3.3184zm5 0h3.3184v4.332h-3.3184z"/>
  <path d="m226.24 118.4 23.652 28.753a73.072 72.899 0 0 1 7.8597-6.5795l-18.241-22.174zm24.229 0 10.759 20.083a73.072 72.899 0 0 1 8.9858-4.9435l-8.1116-15.139zm18.498-2.8374 5.0458 16.595a73.072 72.899 0 0 1 9.7969-3.0485l-6.6152-21.754zm15.974-15.936 2.8416 28.786a73.072 72.899 0 0 1 10.208-1.0304l-3.6628-37.12zm-94.934 94.711 37.104 3.6466a73.072 72.899 0 0 1 0.8942-10.197l-28.615-2.8114zm17.132-17.092 21.842 6.6108a73.072 72.899 0 0 1 2.8501-9.8344l-16.466-4.983zm11.069-15.056 15.33 8.1746a73.072 72.899 0 0 1 4.7667-9.0667l-20.097-10.716zm0-22.537 22.412 18.35a73.072 72.899 0 0 1 6.4875-7.9294l-28.9-23.664zm4.7e-4 133.94 28.821-23.596a73.072 72.899 0 0 1-6.5951-7.8411l-22.226 18.198zm0-24.172 20.13-10.734a73.072 72.899 0 0 1-4.9552-8.9646l-15.175 8.0925zm-2.8441-18.454 16.634-5.0339a73.072 72.899 0 0 1-3.0557-9.7738l-21.806 6.5996zm-15.974-15.936 28.854-2.8349a73.072 72.899 0 0 1-1.0328-10.183l-37.208 3.6542zm94.935 94.71 3.6552-37.017a73.072 72.899 0 0 1-10.221-0.8921l-2.818 28.547zm-17.132-17.092 6.6264-21.791a73.072 72.899 0 0 1-9.8577-2.8433l-4.9948 16.427zm-15.091-11.043 8.194-15.294a73.072 72.899 0 0 1-9.0882-4.7555l-10.741 20.049zm-22.59 0 18.394-22.359a73.072 72.899 0 0 1-7.9481-6.4722l-23.72 28.832zm134.26-5e-4 -23.652-28.753a73.072 72.899 0 0 1-7.8597 6.5796l18.241 22.174zm-24.229 0-10.759-20.083a73.072 72.899 0 0 1-8.9857 4.9435l8.1116 15.139zm-18.498 2.8374-5.0458-16.595a73.072 72.899 0 0 1-9.7969 3.0485l6.6152 21.754zm-15.974 15.936-2.8416-28.786a73.072 72.899 0 0 1-10.208 1.0304l3.6628 37.12zm94.934-94.711-37.104-3.6466a73.072 72.899 0 0 1-0.8942 10.197l28.615 2.8114zm-17.132 17.092-21.842-6.6108a73.072 72.899 0 0 1-2.8501 9.8344l16.466 4.983zm-11.069 15.056-15.33-8.1747a73.072 72.899 0 0 1-4.7667 9.0668l20.097 10.716zm0 22.537-22.412-18.35a73.072 72.899 0 0 1-6.4875 7.9294l28.9 23.664zm-4.8e-4 -133.94-28.821 23.596a73.072 72.899 0 0 1 6.5951 7.8411l22.226-18.198zm0 24.172-20.13 10.734a73.072 72.899 0 0 1 4.9552 8.9645l15.175-8.0924zm2.8441 18.454-16.634 5.0339a73.072 72.899 0 0 1 3.0557 9.7738l21.806-6.5996zm15.974 15.936-28.854 2.8349a73.072 72.899 0 0 1 1.0328 10.183l37.208-3.6542zm-94.935-94.71-3.6552 37.017a73.072 72.899 0 0 1 10.221 0.89209l2.818-28.547zm17.132 17.092-6.6264 21.791a73.072 72.899 0 0 1 9.8577 2.8434l4.9948-16.427zm15.091 11.043-8.194 15.294a73.072 72.899 0 0 1 9.0882 4.7555l10.741-20.049zm22.59 0-18.394 22.359a73.072 72.899 0 0 1 7.9481 6.4722l23.72-28.832z"/>
  <path d="m299.99 144.98c-0.68473 2.0565-2.9326 5.1382-5.907 7.918-2.9333 2.7413-6.5821 5.1782-8.7599 5.9394-10.104 3.5318-17.005 10.599-17.005 18.732 0 4.8056 2.4233 9.2467 6.4786 12.795h50.388c4.0552-3.5483 6.4786-7.9893 6.4786-12.795-1e-5 -8.1332-6.9019-15.201-17.005-18.732-2.1778-0.76122-5.8265-3.1981-8.7599-5.9394-2.9742-2.7798-5.2222-5.8614-5.907-7.918z"/>
  <path d="m343.52 144.81c-1.8325 0-5.6736 6.544-5.6736 9.6781 0 3.134 2.5437 5.6587 5.6736 5.6586 3.1299 0 5.6735-2.5246 5.6735-5.6586s-3.793-9.6781-5.6735-9.6781z"/>
  <path d="m289.03 132.1h21.928c1.2324 0 2.2246 0.75344 2.2246 1.6893v7.3205c0 0.9359-0.99216 1.6893-2.2246 1.6893h-21.928c-1.2324 0-2.2246-0.75344-2.2246-1.6893v-7.3205c0-0.9359 0.99216-1.6893 2.2246-1.6893z"/>
  <path d="m299.75 246.5 3.806 6.3585h7.1693l-3.5834 5.9906 3.7082 6.1954-7.4178 6e-3 -3.607 6.0307-3.5318-6.0235-7.1128 6e-3 3.5062-6.1585-3.5454-6.0476h6.9885l3.62-6.3585z"/>
  <path d="m365.78 226.37c-1.3509 1.3572-3.4095 1.9671-5.2816 1.5649-1.0027-0.21539-1.9361-0.69881-2.7499-1.323s-1.5128-1.3871-2.1406-2.1981c-0.77856-1.0059-1.4576-2.1-1.8987-3.2931s-0.63781-2.4912-0.4487-3.7491c0.2007-1.335 0.8202-2.5667 1.4628-3.754 0.64257-1.1873 1.3239-2.3738 1.6671-3.6795 0.51895-1.9744 0.2259-4.0667-0.19562-6.0641-0.48665-2.306-1.1397-4.573-1.7606-6.8466-0.26667-0.97651-0.5275-1.9546-0.78248-2.9342l2.6002-30.403c-0.22534 2.5052-0.11266 5.0406 0.33404 7.516 0.40441 2.241 1.0865 4.4427 2.1518 6.4554 2.2306 4.2142 6.0238 7.4142 8.4115 11.541 1.5782 2.7279 2.5088 5.8471 2.543 8.9984 0.0389 3.5749-1.0762 7.1177-2.9342 10.172-1.6658 2.7383-3.9195 5.119-5.2817 8.0203-0.68772 1.4648-1.1386 3.0846-0.97808 4.6948 0.12971 1.3011 0.67105 2.5668 1.5649 3.5211 0.95958 1.0244 2.3162 1.667 3.7167 1.7606z"/>
  <path d="m336.52 221.19v-1.5137"/>
  <path d="m346.61 236.44 9.5339-72.881"/>
  <path d="m356.33 162.07a1.5 1.5 0 0 0-1.6816 1.293l-9.5332 72.881a1.5 1.5 0 0 0 1.293 1.6816 1.5 1.5 0 0 0 1.6816-1.293l9.5332-72.881a1.5 1.5 0 0 0-1.293-1.6816z"/>
  <path d="m256.47 144.81c1.8325 0 5.6736 6.544 5.6736 9.6781 0 3.134-2.5437 5.6587-5.6736 5.6586-3.1299 0-5.6735-2.5246-5.6735-5.6586s3.793-9.6781 5.6735-9.6781z"/>
  <path d="m234.21 226.37c1.3509 1.3572 3.4095 1.9671 5.2816 1.5649 1.0027-0.21539 1.9361-0.69881 2.7499-1.323s1.5128-1.3871 2.1406-2.1981c0.77856-1.0059 1.4576-2.1 1.8987-3.2931s0.63781-2.4912 0.4487-3.7491c-0.2007-1.335-0.8202-2.5667-1.4628-3.754-0.64257-1.1873-1.3239-2.3738-1.6671-3.6795-0.51895-1.9744-0.2259-4.0667 0.19562-6.0641 0.48665-2.306 1.1397-4.573 1.7606-6.8466 0.26667-0.97651 0.5275-1.9546 0.78248-2.9342l-2.6002-30.403c0.22534 2.5052 0.11266 5.0406-0.33404 7.516-0.40441 2.241-1.0865 4.4427-2.1518 6.4554-2.2306 4.2142-6.0238 7.4142-8.4115 11.541-1.5782 2.7279-2.5088 5.8471-2.543 8.9984-0.0389 3.5749 1.0762 7.1177 2.9342 10.172 1.6658 2.7383 3.9195 5.119 5.2817 8.0203 0.68772 1.4648 1.1386 3.0846 0.97808 4.6948-0.12971 1.3011-0.67105 2.5668-1.5649 3.5211-0.95958 1.0244-2.3162 1.667-3.7167 1.7606z"/>
  <path d="m253.38 236.44-9.5339-72.881"/>
  <path d="m243.65 162.07a1.5 1.5 0 0 0-1.291 1.6816l9.5332 72.881a1.5 1.5 0 0 0 1.6816 1.293 1.5 1.5 0 0 0 1.293-1.6816l-9.5332-72.881a1.5 1.5 0 0 0-1.6836-1.293z"/>
  <path d="m327.75 224.48h8.8531c0.4695 0 0.84746 0.37797 0.84746 0.84746v16.447c0 0.4695-0.37796 0.84746-0.84746 0.84746h-8.8531c-0.46949 0-0.84746-0.37796-0.84746-0.84746v-16.447c0-0.46949 0.37797-0.84746 0.84746-0.84746z"/>
  <path d="m338.72 215.79h9.6009c0.30489 0 0.55034 0.26844 0.55034 0.60188v3.265c0 0.33344-0.24545 0.60187-0.55034 0.60187h-9.6009c-0.30488 0-0.55033-0.26843-0.55033-0.60187v-3.265c0-0.33344 0.24545-0.60188 0.55033-0.60188zm-87.05 0h9.6009c0.30489 0 0.55034 0.26844 0.55034 0.60188v3.265c0 0.33344-0.24545 0.60187-0.55034 0.60187h-9.6009c-0.30489 0-0.55034-0.26843-0.55034-0.60187v-3.265c0-0.33344 0.24545-0.60188 0.55034-0.60188zm0.16-54.82c-0.39931 0-0.71875 0.31892-0.71875 0.71875v3.0312c0 0.39985 0.31944 0.71875 0.71875 0.71875h0.31641v33.889c-0.27368 0.19904-0.45117 0.52175-0.45117 0.89063v2.2227c0 0.36904 0.17729 0.6916 0.45117 0.89062v11.35h8.6504v-10.645h78.383v10.645h8.6504v-11.35c0.27389-0.19902 0.45118-0.52158 0.45118-0.89062v-2.2227c0-0.36888-0.17749-0.69159-0.45118-0.89063v-33.889h0.31641c0.39931 0 0.71875-0.3189 0.71875-0.71875v-3.0312c0-0.39983-0.31944-0.71875-0.71875-0.71875h-9.2832c-0.3993 0-0.71875 0.31892-0.71875 0.71875v3.0312c0 0.39984 0.31943 0.71877 0.71875 0.71875h0.3164v33.766h-78.383v-33.766h0.31641c0.39932 2e-5 0.71875-0.31891 0.71875-0.71875v-3.0312c0-0.39983-0.31945-0.71875-0.71875-0.71875h-9.2832zm0.31641 60.404v11.201c-1.21 1.7514-2.176 3.5275-2.875 5.3301l-4.7129 7.4062h110.86l-4.7129-7.4062c-0.69895-1.8026-1.665-3.5787-2.875-5.3301v-11.201h-8.6504v11.201c-1.7075 2.4714-2.9276 4.9913-3.5996 7.5664h-71.184c-0.67199-2.5751-1.8921-5.095-3.5996-7.5664v-11.201h-8.6504z"/>
 </g>
</svg>
