<?xml version="1.0" encoding="utf-8"?>
<!-- Generator: Adobe Illustrator 15.0.0, SVG Export Plug-In . SVG Version: 6.00 Build 0)  -->
<!DOCTYPE svg PUBLIC "-//W3C//DTD SVG 1.1//EN" "http://www.w3.org/Graphics/SVG/1.1/DTD/svg11.dtd">
<svg version="1.1" id="Laag_1" xmlns="http://www.w3.org/2000/svg" xmlns:xlink="http://www.w3.org/1999/xlink" x="0px" y="0px"
	 width="1070.344px" height="702px" viewBox="0 0 1070.344 702" enable-background="new 0 0 1070.344 702" xml:space="preserve">
<g id="Laag_2">
	<rect x="-0.024" y="0" fill="#BD0100" width="1070.344" height="702"/>
</g>
<g>
	<circle fill="#FFFFFF" cx="624.359" cy="270.459" r="38.215"/>
	<g>
		<path fill="#FFFFFF" d="M635.518,216.636l25.437-103.657l-5.735,2.376l-5.798-5.798l-15.294,106.827
			C634.591,216.467,635.058,216.541,635.518,216.636z"/>
		<path fill="#FFFFFF" d="M645.841,219.857l52.983-113.275l-3.284-7.928l-9.896,4.099l-41.116,116.582
			C644.966,219.508,645.408,219.673,645.841,219.857z"/>
		<path fill="#FFFFFF" d="M640.761,217.99l39.917-113.18l-15.138,6.271l-26.14,106.521
			C639.855,217.73,640.312,217.849,640.761,217.99z"/>
		<path fill="#FFFFFF" d="M630.169,215.809l15.718-109.786l-10.399-10.399l-6.268,120.104
			C629.536,215.755,629.855,215.776,630.169,215.809z"/>
		<path fill="#FFFFFF" d="M650.711,222.218l56.563-95.236l-6.376-15.393l-51.441,109.979
			C649.876,221.782,650.298,221.991,650.711,222.218z"/>
		<path fill="#FFFFFF" d="M655.324,225.047l63.336-86.072h-6.419l-3.056-7.377l-55.043,92.677
			C654.538,224.53,654.936,224.781,655.324,225.047z"/>
		<path fill="#FFFFFF" d="M614.453,216.408L598.933,109.92l-5.435,5.435l-6.203-2.569l25.771,103.881
			C613.525,216.571,613.99,216.492,614.453,216.408z"/>
		<path fill="#FFFFFF" d="M609.186,217.638l-26.484-106.755l-15.21-6.3l40.337,113.451
			C608.277,217.892,608.733,217.768,609.186,217.638z"/>
		<path fill="#FFFFFF" d="M619.82,215.703l-5.609-121.06l-11.748,11.748l15.951,109.435
			C618.88,215.776,619.35,215.741,619.82,215.703z"/>
		<path fill="#FFFFFF" d="M624.359,215.501c0.291,0,0.578,0.018,0.868,0.022l6.455-123.706l-7.323-7.323l-6.321,6.321l5.778,124.699
			C623.997,215.513,624.177,215.501,624.359,215.501z"/>
		<path fill="#FFFFFF" d="M679.14,265.731l120.373-6.083l-11.654-11.655l-108.854,16.332
			C679.057,264.792,679.099,265.261,679.14,265.731z"/>
		<path fill="#FFFFFF" d="M678.411,260.369l105.93-15.893l-4.836-4.836l2.894-6.986l-104.258,26.328
			C678.24,259.442,678.325,259.906,678.411,260.369z"/>
		<path fill="#FFFFFF" d="M659.638,228.315l80.407-89.34h-16.418l-65.088,88.453C658.907,227.72,659.277,228.012,659.638,228.315z"
			/>
		<path fill="#FFFFFF" d="M604.063,219.385L562.512,102.52l-9.335-3.867l-3.519,8.495l53.094,112.765
			C603.185,219.728,603.625,219.558,604.063,219.385z"/>
		<path fill="#FFFFFF" d="M675.391,249.991l117.337-42.273l3.479-8.398l-9.431-3.907l-111.924,53.271
			C675.039,249.116,675.215,249.553,675.391,249.991z"/>
		<path fill="#FFFFFF" d="M677.158,255.106l107.148-27.058l6.351-15.333l-113.904,41.037
			C676.896,254.2,677.027,254.653,677.158,255.106z"/>
		<path fill="#FFFFFF" d="M667.205,236.032l88.681-66.179v-16.63l-89.581,81.722C666.61,235.304,666.91,235.666,667.205,236.032z"/>
		<path fill="#FFFFFF" d="M673.126,245.076l108.673-51.725l-15.197-6.295l-94.142,56.774
			C672.689,244.242,672.907,244.658,673.126,245.076z"/>
		<path fill="#FFFFFF" d="M663.611,231.989l92.275-84.179v-8.835h-10.46l-82.819,92.022
			C662.945,231.324,663.281,231.653,663.611,231.989z"/>
		<path fill="#FFFFFF" d="M670.388,240.408l91.621-55.253l-6.123-2.537v-7.773l-86.285,64.392
			C669.868,239.623,670.129,240.014,670.388,240.408z"/>
		<path fill="#FFFFFF" d="M679.359,270.501c0,0.213-0.014,0.424-0.016,0.637l124.416,5.97l6.606-6.607l-7.04-7.04l-123.986,6.266
			C679.343,269.986,679.359,270.241,679.359,270.501z"/>
		<path fill="#FFFFFF" d="M618.55,325.194l-15.718,109.788l10.399,10.399l6.268-120.105
			C619.183,325.248,618.865,325.227,618.55,325.194z"/>
		<path fill="#FFFFFF" d="M569.359,270.501c0-0.213,0.014-0.423,0.016-0.636l-124.416-5.97l-6.606,6.606l7.041,7.042l123.985-6.266
			C569.374,271.018,569.359,270.761,569.359,270.501z"/>
		<path fill="#FFFFFF" d="M676.797,287.118l113.63,40.613l-6.319-15.258l-106.911-26.71
			C677.066,286.216,676.94,286.67,676.797,287.118z"/>
		<path fill="#FFFFFF" d="M674.909,292.192l112.433,53.164l8.864-3.672l-3.714-8.966l-117.051-41.835
			C675.267,291.32,675.095,291.759,674.909,292.192z"/>
		<path fill="#FFFFFF" d="M624.359,325.501c-0.29,0-0.576-0.018-0.865-0.022l-6.455,123.708l7.32,7.32l6.324-6.324l-5.777-124.696
			C624.723,325.489,624.542,325.501,624.359,325.501z"/>
		<path fill="#FFFFFF" d="M669.681,301.653l86.205,63.991v-7.259l6.597-2.732l-92.02-55.176
			C670.206,300.871,669.948,301.265,669.681,301.653z"/>
		<path fill="#FFFFFF" d="M666.397,305.952l89.489,81.222v-16.548l-88.595-65.766C666.997,305.228,666.7,305.593,666.397,305.952z"
			/>
		<path fill="#FFFFFF" d="M672.529,297.052l94.555,56.695l15.271-6.325L673.19,295.802
			C672.972,296.221,672.756,296.64,672.529,297.052z"/>
		<path fill="#FFFFFF" d="M679.15,275.133c-0.039,0.47-0.076,0.94-0.128,1.406l109.204,16.101l11.712-11.711L679.15,275.133z"/>
		<path fill="#FFFFFF" d="M678.172,281.884l104.03,25.99l-2.697-6.513l5.197-5.198l-106.267-15.668
			C678.351,280.96,678.269,281.425,678.172,281.884z"/>
		<path fill="#FFFFFF" d="M570.545,259.118l-104.031-25.99l2.698,6.513l-5.197,5.198l106.267,15.668
			C570.366,260.043,570.448,259.578,570.545,259.118z"/>
		<path fill="#FFFFFF" d="M662.707,309.91l83.33,92.118h9.849v-9.453l-92.179-83.662C663.378,309.25,663.044,309.581,662.707,309.91
			z"/>
		<path fill="#FFFFFF" d="M634.266,324.594l15.521,106.485l5.432-5.432l6.207,2.571l-25.771-103.884
			C635.195,324.431,634.73,324.51,634.266,324.594z"/>
		<path fill="#FFFFFF" d="M628.902,325.3l5.608,121.057l11.749-11.749l-15.951-109.432
			C629.841,325.226,629.371,325.261,628.902,325.3z"/>
		<path fill="#FFFFFF" d="M639.535,323.364l26.485,106.758l15.21,6.301l-40.339-113.454
			C640.445,323.11,639.989,323.234,639.535,323.364z"/>
		<path fill="#FFFFFF" d="M658.649,313.489l65.497,88.539h16.498l-80.9-89.432C659.383,312.899,659.017,313.195,658.649,313.489z"/>
		<path fill="#FFFFFF" d="M654.26,316.653l55.122,92.277l2.859-6.902h6.93l-63.732-86.153
			C655.051,316.141,654.656,316.397,654.26,316.653z"/>
		<path fill="#FFFFFF" d="M644.657,321.616l41.553,116.868l9.33,3.865l3.521-8.5l-53.093-112.762
			C645.536,321.273,645.096,321.443,644.657,321.616z"/>
		<path fill="#FFFFFF" d="M649.581,319.372l51.549,109.482l6.345-15.318l-56.643-94.821C650.42,318.942,650,319.156,649.581,319.372
			z"/>
		<path fill="#FFFFFF" d="M569.696,264.463L460.49,248.362l-11.712,11.712l120.789,5.796
			C569.607,265.4,569.644,264.93,569.696,264.463z"/>
		<path fill="#FFFFFF" d="M586.013,231.09l-83.33-92.116h-9.851v9.45l92.181,83.663C585.341,231.75,585.675,231.419,586.013,231.09z
			"/>
		<path fill="#FFFFFF" d="M573.808,248.81l-112.431-53.164l-8.867,3.673l3.714,8.965l117.052,41.835
			C573.45,249.682,573.622,249.242,573.808,248.81z"/>
		<path fill="#FFFFFF" d="M594.46,224.347l-55.124-92.278l-2.86,6.905h-6.927l63.732,86.152
			C593.669,224.86,594.065,224.604,594.46,224.347z"/>
		<path fill="#FFFFFF" d="M590.072,227.512l-65.498-88.538h-16.497l80.899,89.43C589.336,228.101,589.703,227.806,590.072,227.512z"
			/>
		<path fill="#FFFFFF" d="M576.189,243.95l-94.553-56.694l-15.271,6.325l109.164,51.618
			C575.745,244.781,575.961,244.362,576.189,243.95z"/>
		<path fill="#FFFFFF" d="M579.037,239.348l-86.205-63.992v7.261l-6.596,2.732l92.019,55.175
			C578.512,240.13,578.77,239.736,579.037,239.348z"/>
		<path fill="#FFFFFF" d="M599.138,221.629l-51.549-109.485l-6.346,15.32l56.644,94.822
			C598.299,222.059,598.719,221.845,599.138,221.629z"/>
		<path fill="#FFFFFF" d="M582.323,235.049l-89.49-81.223v16.549l88.595,65.766C581.721,235.773,582.019,235.408,582.323,235.049z"
			/>
		<path fill="#FFFFFF" d="M571.92,253.883L458.288,213.27l6.321,15.259l106.911,26.71
			C571.652,254.786,571.779,254.331,571.92,253.883z"/>
	</g>
	<g>
		<path fill="#FFFFFF" d="M564.917,275.307c-0.11-1.481-0.243-3.759-0.243-5.269c0-32.91,26.774-59.685,59.685-59.685
			s59.685,26.774,59.685,59.685s-26.774,59.685-59.685,59.685c-3.795,0-8.305-0.514-11.904-1.194l0.515-10.095
			c3.545,0.806,7.605,1.28,11.39,1.28c27.392,0,49.676-22.285,49.676-49.676s-22.284-49.676-49.676-49.676
			s-49.676,22.285-49.676,49.676c0,1.56,0.191,4.25,0.333,5.774L564.917,275.307z"/>
	</g>
</g>
<g>
	<g>
		<path d="M615.834,281.834c-7.319-2.667-35.374-7.333-81.319-7.333c-45.945,0-71.56,5.333-78.879,7.667
			c-7.318,2.334-1.626,5.333-1.626,5.333l4.473,127c0,0,4.416,4.103,18.181,7.639c10.425,2.677,31.422,5.028,53.378,5.028
			c65.462,0,78.065-13.334,78.065-13.334l6.505-127.667C622.339,284.834,615.834,281.834,615.834,281.834z M532.685,422.833
			c-38.51,0-67.291-5.521-67.291-12.333c0-6.813,28.779-12.333,67.291-12.333s68.512,5.521,68.512,12.333
			C601.197,417.312,571.196,422.833,532.685,422.833z"/>
		<path fill="#FFFFFF" d="M456.548,359.517c0,0,42.915-9.066,76.149-19.016c55.121-16.501,81.031-34.181,81.031-34.181l-0.509,9.972
			c0,0-24.901,19.708-80.522,34.871c-31.167,8.497-75.745,19.85-75.745,19.85L456.548,359.517z"/>
	</g>
	<path fill="#FFFFFF" d="M537.778,306.321l-6.382,0.042c-4.114,1.363-7.086,5.234-7.086,9.807c0,5.707,4.627,10.333,10.334,10.333
		s10.332-4.626,10.332-10.333C544.976,311.553,541.95,307.649,537.778,306.321z"/>
	<path fill="none" stroke="#FFFFFF" stroke-width="1.0531" stroke-miterlimit="10" d="M573.677,214.589"/>
	<path fill="none" stroke="#FFFFFF" stroke-width="1.0531" stroke-miterlimit="10" d="M604.969,328.145"/>
	<path fill="none" stroke="#FFFFFF" stroke-miterlimit="10" d="M577.09,177.212"/>
	<path fill="none" stroke="#FFFFFF" stroke-miterlimit="10" d="M603.39,363.839"/>
	<g>
		<path fill="#FFFFFF" d="M534.86,318.502l-1.979-288.391c-3.067,0.186-5.992,0.907-8.685,2.041L534.86,318.502z"/>
		<path fill="#FFFFFF" d="M534.86,318.495l9.675-286.412c-2.695-1.114-5.62-1.819-8.686-1.985L534.86,318.495z"/>
		<path fill="#FFFFFF" d="M535.029,314.95l25.443-263.387c-0.364-3.546-1.852-7.113-4.184-10.297L535.029,314.95z"/>
		<path fill="#FFFFFF" d="M535.029,314.95l18.538-276.845c-1.778-1.769-3.839-3.334-6.116-4.605L535.029,314.95z"/>
		<path fill="#FFFFFF" d="M534.86,316.411L521.288,33.587c-2.281,1.292-4.344,2.878-6.116,4.669L534.86,316.411z"/>
		<path fill="#FFFFFF" d="M534.86,316.411L512.468,41.458c-2.411,3.356-3.892,7.125-4.11,10.839L534.86,316.411z"/>
	</g>
</g>
<g>
	<path fill="#FFFFFF" d="M202.615,245.598c17.941,20.531,64.438,58.969,98.602,85.715
		C468.958,462.629,648.701,528.847,657.75,533.235c0,0-1.356,20.071,10.631,31.329c13.024,12.231,48.861,30.258,69.676,17.133
		c1.608-1.016,10.14-13.959,9.553-21.034c-0.304-3.673,6.649,0.235,6.385-7.511c-0.289-8.443-9.721-10.424-15.492-13.554
		c-8.083-4.385-66.523-26.312-66.523-26.312s1.48-5.741,0.301-12.187c-1.305-7.127-3.977-9.891-4.827-10.6
		c-4.229-3.523-8.436-1.947-10.474,0.994c-1.79,2.583-0.286,5.302,0.41,9.956c0.527,3.54,0.23,6.512,0.23,6.512
		c-3.188,0.754-209.088-90.402-347.061-199.35c-42.702-33.719-80.811-66.673-102.681-83.006
		c-13.746-10.268-15.561-13.544-23.964-19.937C183.913,205.669,184.675,225.066,202.615,245.598z M676.903,541.622
		c6.439,4.524,22.895,7.157,31.407,9.69c11.52,3.427,18.629,6.279,19.631,9.178c1.171,3.383-4.22,11.324-6.739,12.474
		c-4.089,1.862-35.585-10.167-39.718-14.774C677.76,554.037,674.425,539.881,676.903,541.622z"/>
	<path fill="#FFFFFF" d="M886.382,205.669c-8.404,6.393-10.219,9.669-23.964,19.937c-21.869,16.333-59.979,49.287-102.682,83.006
		c-137.972,108.947-343.872,200.104-347.06,199.35c0,0-0.298-2.972,0.231-6.512c0.696-4.654,2.2-7.373,0.409-9.956
		c-2.038-2.941-6.244-4.518-10.474-0.994c-0.85,0.709-3.522,3.473-4.826,10.6c-1.18,6.445,0.3,12.187,0.3,12.187
		s-58.44,21.927-66.523,26.312c-5.771,3.13-15.204,5.11-15.492,13.554c-0.265,7.746,6.688,3.838,6.384,7.511
		c-0.586,7.075,7.944,20.019,9.553,21.034c20.814,13.125,56.652-4.901,69.676-17.133c11.988-11.258,10.631-31.329,10.631-31.329
		c9.049-4.388,188.793-70.605,356.534-201.922c34.164-26.746,80.66-65.184,98.601-85.715
		C885.622,225.066,886.382,205.669,886.382,205.669z M388.812,558.19c-4.132,4.607-35.629,16.637-39.717,14.774
		c-2.521-1.149-7.912-9.091-6.739-12.474c1.001-2.898,8.111-5.751,19.63-9.178c8.513-2.533,24.967-5.166,31.407-9.69
		C395.87,539.881,392.535,554.037,388.812,558.19z"/>
</g>
</svg>
