<?xml version="1.0" encoding="UTF-8"?>
<svg width="1500" height="1e3" version="1.1" xmlns="http://www.w3.org/2000/svg">
 <rect width="1500" height="1e3" fill="#bf0000"/>
 <path d="m677.3 554.34c-2.0551 0.9642-3.7747 2.6274-4.8066 4.6493-0.99747 1.9542-1.3482 4.1906-1.2982 6.3841 0.05 2.1934 0.48444 4.3595 0.98657 6.4953 0.29537 1.2563 0.61723 2.5145 1.1446 3.6923 0.52741 1.1779 1.2736 2.2809 2.2964 3.068 1.1784 0.90684 2.6593 1.3459 4.1357 1.5226 1.4764 0.17664 2.9694 0.10911 4.4564 0.10454 0.58163-2e-3 1.1654 6e-3 1.7424-0.0668 0.57705-0.0728 1.1522-0.23016 1.6451-0.53902 0.55666-0.34882 0.98864-0.8839 1.2424-1.4898 0.25372-0.60594 0.3324-1.2796 0.25767-1.9323-0.063-0.55095-0.233-1.0958-0.18949-1.6488 0.0217-0.27643 0.0997-0.55304 0.25842-0.78037 0.15874-0.22734 0.40395-0.40112 0.6785-0.43989 0.21595-0.0305 0.43943 0.0234 0.62897 0.13129 0.18952 0.10789 0.34645 0.2675 0.46945 0.4476 0.246 0.36017 0.35681 0.79244 0.48664 1.2088 0.68811 2.2069 2.0493 4.2132 3.9017 5.5962 1.6129 1.2041 3.5492 1.9156 5.5182 2.3327 1.9691 0.41712 3.9851 0.55393 5.992 0.7073 2.9819 0.22788 5.9964 0.49352 8.9496 0.022 1.4766-0.23572 2.9305-0.65786 4.2631-1.3365 1.3325-0.67862 2.542-1.6193 3.4548-2.8036 1.2309-1.5971 1.8826-3.5821 2.1435-5.5814 0.21489-1.6466 0.16869-3.3709-0.48174-4.8987-0.32522-0.76393-0.80078-1.4687-1.4192-2.0227-0.61839-0.55402-1.3821-0.95336-2.1991-1.1006-0.80657-0.14543-1.6483-0.0432-2.4192 0.23519-0.77087 0.27828-1.4731 0.72808-2.0905 1.267-1.796 1.5679-2.8719 3.8567-4.7537 5.3204-1.9369 1.5065-4.4664 1.9486-6.8698 2.4433-0.83715 0.17237-1.6957 0.35752-2.5394 0.22049-0.42184-0.0686-0.8346-0.22005-1.178-0.47441-0.34341-0.25439-0.61404-0.61578-0.72407-1.0287-0.0974-0.36576-0.0665-0.75857 0.0481-1.1193 0.11473-0.36071 0.31029-0.69156 0.5385-0.99358 0.45641-0.604 1.044-1.1 1.4948-1.7082 0.70759-0.9546 1.0418-2.1373 1.2116-3.3135 0.16986-1.176 0.18927-2.3694 0.34099-3.5478 0.11975-0.93032 0.32213-1.8536 0.33854-2.7915 0.0164-0.93789-0.17325-1.9171-0.7542-2.6535-0.41342-0.52407-1.0088-0.89576-1.6542-1.0662-0.64535-0.1705-1.3374-0.14345-1.9768 0.048-0.97673 0.29236-1.8136 0.95465-2.4522 1.7495-0.63859 0.7948-1.0943 1.72-1.4905 2.6594-0.51217 1.2142-0.93438 2.467-1.5051 3.6549-0.5707 1.1878-1.3056 2.3247-2.3308 3.1528-1.2548 1.0137-2.9074 1.5047-4.5168 1.3956-1.6094-0.10911-3.1638-0.80595-4.3544-1.8943-1.1358-1.0382-1.9322-2.3988-2.5456-3.8101-0.61344-1.4113-1.0595-2.8887-1.605-4.3276-0.67457-1.7794-1.5019-3.501-2.4701-5.1392zm-103.31 128.5c-2.0426 9.5897-4.9414 18.98-8.2298 28.217-5.7185 16.062-12.636 31.734-17.048 48.204-2.8207 10.53-4.6047 21.484-3.5271 32.332 1.6904 17.016 10.509 32.92 22.926 44.678 9.9287 9.4005 22.026 16.284 34.683 21.457 19.366 7.9139 40.227 11.972 61.136 12.639 29.38 0.9373 58.956-4.836 85.825-16.754-4.963-5.9762-10.265-11.671-15.872-17.048-4.5118-4.3266-9.2212-8.4473-14.108-12.345-5.8243 2.2331-11.826 4.004-17.93 5.2907-0.83868 0.1767-1.686 0.3451-2.543 0.3464-0.85712 0-1.7338-0.1751-2.4535-0.6405-0.74046-0.4788-1.2762-1.2481-1.5216-2.095-0.2453-0.847-0.20807-1.7652 0.052-2.6076 0.37961-1.2304 1.203-2.27 2.0575-3.2333 5.5849-6.296 13.169-10.593 21.162-13.227 14.112-4.6492 29.451-4.3185 44.088-1.7636 14.251 2.4878 28.319 7.127 40.268 15.284 1.8341 1.2523 3.6222 2.5912 5.1751 4.179s2.8702 3.4383 3.6426 5.5205c1.4297 3.8543 0.85629 8.2916-1.0748 11.921-1.6269 3.0573-4.147 5.5786-6.9974 7.5454s-6.0319 3.406-9.2693 4.636c-4.7619 1.809-9.6871 3.1882-14.696 4.115 11.674 11.722 28.728 17.857 45.194 16.258 13.121-1.2739 25.646-7.2897 35.218-16.354 5.0008-4.7359 9.2292-10.286 12.468-16.364-8.5612 0.028-17.124-0.6611-25.572-2.0575-3.0178-0.4989-6.0346-1.0917-8.9142-2.1231-2.8796-1.0312-5.6322-2.5197-7.8394-4.6372-3.1618-3.0335-5.0812-7.3763-4.9967-11.757 0.0676-3.5015 1.3557-6.8696 2.9392-9.9934 4.2164-8.3182 10.877-15.611 19.399-19.399 5.9808-2.6586 12.98-3.4831 19.106-1.1757 4.3348 1.6332 7.9842 4.7093 11.125 8.1143 4.054 4.3955 7.4329 9.4768 9.4499 15.106 2.8547 7.9676 2.8631 16.831 0.58789 24.984-2.7284 9.7764-8.5413 18.382-14.696 26.453-4.7782 6.2657-9.9662 12.457-16.753 16.46-5.183 3.0565-11.095 4.702-17.048 5.5846-10.899 1.6163-22.025 0.7659-32.919-0.8818-9.0265-1.3652-18.097-3.3191-26.21-7.5056-6.3136-3.2581-11.94-7.8401-16.409-13.363-8.5095 4.3214-17.364 7.9619-26.453 10.875-8.944 2.8673-18.104 5.0282-27.334 6.7604-17.522 3.288-35.396 5.0378-53.199 4.1151-15.786-0.818-31.469-3.7449-46.44-8.8179-13.439-4.5539-26.284-10.829-38.21-18.518-15.576-10.041-29.933-22.955-37.917-39.68-6.9995-14.665-8.6661-31.607-5.8784-47.616 2.831-16.258 10.005-31.381 16.753-46.44 7.1599-15.977 13.982-32.244 23.807-46.735 0.46413-0.68447 0.94914-1.3794 1.6254-1.8554 0.33814-0.23799 0.72208-0.41687 1.1292-0.48903 0.40716-0.0722 0.83815-0.0339 1.2133 0.13995 0.35961 0.16662 0.65772 0.45279 0.86592 0.79002 0.2082 0.33722 0.3293 0.7239 0.38227 1.1167 0.10592 0.78555-0.0544 1.5801-0.21949 2.3554zm6.1563-1.7408c-3.231 12.301-4.3606 25.151-3.3253 37.827 0.25692 3.1457 0.64601 6.2806 1.1733 9.3924 0.44127 2.6043 0.98138 5.2177 0.90507 7.8581-0.15609 5.4009-2.843 10.346-4.8185 15.375-4.3916 11.18-5.3613 23.794-2.04 35.337 2.2371 7.7755 6.394 15.002 12.054 20.783 7.2969 7.453 16.804 12.319 26.395 16.419 7.4922 3.203 15.204 6.035 23.235 7.4101s16.439 1.2421 24.152-1.3828c1.3525-0.4602 2.691-1.0012 3.8757-1.7997 1.1846-0.7986 2.215-1.8741 2.7751-3.1884 0.55313-1.298 0.62106-2.7459 0.62352-4.1568 0.0107-6.2806-1.1159-12.499-2.0783-18.705-0.62159-4.0085-1.1759-8.0273-1.6627-12.055 3.4104-0.1275 6.7985-0.8333 9.9761-2.0783 3.3473-1.3115 6.4595-3.2212 9.1447-5.6117-0.33209 8.7282-0.19327 17.474 0.41567 26.187 0.34145 4.8859 0.83066 9.7922 0.39628 14.671-0.43436 4.8786-1.8683 9.8036-4.9686 13.595-2.0552 2.5136-4.7664 4.435-7.6761 5.8757s-6.0246 2.4208-9.1586 3.2692c-12.154 3.29-24.891 4.6711-37.411 3.3253-20.527-2.2064-40.532-12.278-52.791-28.889-9.6169-13.033-14.111-29.539-13.509-45.724 0.4496-12.086 3.5991-23.893 6.8585-35.54 5.4581-19.504 11.279-38.906 17.459-58.194zm212.62-231.11c9.7585 9.6831 18.926 19.961 27.435 30.76 18.934 24.031 34.627 50.725 45.308 79.394 6.1119 16.404 10.575 33.42 13.301 50.712-13.015-15.72-27.509-30.214-43.229-43.231-11.945-9.8901-24.596-18.926-37.826-27.018-2.2099-14.884-3.7362-29.869-4.5724-44.893-0.84736-15.223-0.98613-30.488-0.41569-45.724zm82.719 383.88c-0.24955-5.9075-1.521-11.77-3.7411-17.25-1.4202-3.5059-3.3379-6.9843-6.4428-9.1448-2.5681-1.7868-5.7966-2.5205-8.9162-2.2832-3.1197 0.2372-6.1287 1.4064-8.7498 3.1145-1.1988 0.7812-2.3292 1.6803-3.2776 2.752-0.94829 1.0715-1.7118 2.3213-2.1262 3.6909-0.71201 2.354-0.32034 5.0171 1.0392 7.0663 4.5579 1.1982 9.0662 2.5855 13.509 4.1569 6.3844 2.2582 12.634 4.8969 18.705 7.8978zm-111.61 13.51c5.0251-2.6893 10.324-4.8667 15.789-6.4879 3.0685-0.9104 6.1869-1.6454 9.2561-2.5532 0.84084-0.2487 1.6918-0.5168 2.4175-1.0088 0.36294-0.2459 0.69131-0.5473 0.9436-0.9058 0.25232-0.3586 0.42686-0.7757 0.4761-1.2113 0.05-0.442-0.03-0.8942-0.20097-1.3048-0.1709-0.4106-0.43055-0.781-0.73654-1.1039-0.61198-0.6455-1.3966-1.0964-2.1722-1.5318-8.7048-4.8864-17.937-9.0553-27.746-10.912-8.9578-1.6953-18.285-1.4093-27.123 0.8314 6.5096 3.4513 12.542 7.8005 17.873 12.886 4.2061 4.0119 7.9763 8.4804 11.223 13.302zm-186.74-275.27c1.0097-0.40709 2.1063-0.615 3.1928-0.54476 1.0864 0.0702 2.1612 0.42478 3.0424 1.0643 1.2481 0.90598 2.0486 2.3409 2.39 3.845 0.33544 1.4771 0.25624 3.0392-0.17504 4.4912-0.43127 1.452-1.2093 2.7936-2.2151 3.9263-0.71822 0.80886-1.5649 1.522-2.5509 1.9668-0.98606 0.44471-2.1215 0.60584-3.1645 0.31946-0.83998-0.23061-1.5868-0.73964-2.1868-1.3711-0.60002-0.63145-1.0614-1.3827-1.4503-2.1621-0.76391-1.531-1.2665-3.2168-1.2604-4.9279 6e-3 -1.7111 0.54985-3.4484 1.6761-4.7366 0.72769-0.83227 1.6766-1.4572 2.7018-1.8706zm-17.978-3.2215c-0.29711-0.99558-0.71647-1.9534-0.97194-2.9605s-0.338-2.0976 0.0366-3.0668c0.3628-0.93833 1.1262-1.679 1.9898-2.1952 0.86357-0.51609 1.83-0.83083 2.7904-1.1302 0.93002-0.28994 1.8688-0.57065 2.8354-0.69096 0.96672-0.12035 1.9706-0.0739 2.8799 0.2753 1.1774 0.45215 2.1461 1.4204 2.5979 2.598 0.42132 1.0982 0.3974 2.3238 0.17121 3.478s-0.64487 2.2601-1.0026 3.3806c-0.3122 0.97804-0.58203 1.9785-1.0615 2.8863-0.47946 0.90783-1.202 1.7326-2.1599 2.1019-0.62443 0.24062-1.3063 0.27419-1.9744 0.31165-0.71842 0.0402-1.4408 0.0881-2.1558 8e-3 -0.71507-0.0801-1.4308-0.2965-2.0008-0.73563-0.63191-0.48682-1.0409-1.2118-1.3156-1.9607-0.27468-0.74891-0.43073-1.5354-0.65883-2.2998zm75.677-63.265c-39.882-11.654-83.618-9.6567-122.27 5.5846-25.763 10.159-49.449 26.263-66.721 47.91-6.888 8.6326-12.866 18.457-14.402 29.393-0.98709 7.0261-0.0636 14.311 2.6453 20.869-12.422 7.6958-24.313 16.246-35.564 25.572-16.349 13.551-31.34 28.74-44.676 45.264-13.079-19.124-18.746-43.182-15.577-66.134 3.1749-23.004 14.812-44.187 29.687-62.019 21.419-25.678 49.71-45.24 80.535-58.197 34.08-14.326 71.197-20.738 108.16-21.163 28.863-0.33121 57.764 2.9351 85.825 9.6995-0.75987 4.0386-1.7881 8.0266-3.0758 11.929-1.273 3.8581-2.7994 7.6326-4.5662 11.291zm15.147 4.2388c1.5925-3.8722 2.9807-7.8283 4.1567-11.847 1.0813-3.6944 1.9834-7.4414 2.7018-11.223 11.1 2.7854 22.064 6.1162 32.838 9.9761 10.735 3.8461 21.282 8.2176 31.591 13.094 2.5462 5.7094 4.6335 11.623 6.235 17.667 1.2852 4.8496 2.2578 9.782 2.9097 14.756-12.967-6.2489-26.14-12.072-39.488-17.459-13.478-5.438-27.135-10.43-40.944-14.964zm128.23 54.869c-4.6926-1.6755-9.2745-3.6616-13.705-5.9407-5.5278-2.8433-10.821-6.1431-15.807-9.855 0.44548-4.4264 0.30533-8.9115-0.41566-13.302-0.70526-4.2942-1.966-8.4969-3.7409-12.47 5.5871 2.5505 11.006 5.4687 16.211 8.7291 5.2181 3.2688 10.22 6.8818 14.964 10.807 0.82901 3.703 1.4538 7.4516 1.8706 11.223 0.39649 3.5884 0.6047 7.1974 0.6235 10.808zm17.873 10.807c0.47874-2.9216 0.64722-5.8939 0.50174-8.8508-0.15704-3.1918-0.68012-6.3654-1.5558-9.4388 15.722 10.303 30.676 21.776 44.699 34.293 15.223 13.59 29.348 28.41 42.19 44.269 2.4244 4.4468 4.4445 9.114 6.0273 13.925 1.5143 4.603 2.6283 9.3376 3.3255 14.133-14.966-16.661-30.715-32.618-47.179-47.803-15.4-14.204-31.424-27.731-48.01-40.529zm214.96-104.3v2e-5c9.0571 1.5567 18.179 2.7337 27.334 3.5271 4.8396 0.41933 9.7179 0.7362 14.427 1.928 4.7092 1.1919 9.3029 3.335 12.614 6.8897 2.3374 2.5094 3.9529 5.6406 4.9165 8.9318s1.2932 6.7442 1.256 10.173c-0.097 8.9701-2.819 18.06-8.5238 24.984-5.98 7.2568-14.72 11.659-23.514 14.99-8.3603 3.1671-17.263 5.5804-26.16 4.7028-3.3448-0.32991-6.6625-1.1319-9.6935-2.5842-3.0311-1.4522-5.7708-3.5712-7.7549-6.2841-2.4016-3.2837-3.6309-7.4066-3.42-11.469 2.4709 1.2241 5.0178 2.2947 7.6212 3.2036 2.8538 0.99637 5.7811 1.8009 8.5446 3.0254 0.8442 0.37403 1.6754 0.78801 2.56 1.0522 0.8848 0.26416 1.8413 0.37229 2.7306 0.12353 0.7173-0.20068 1.3616-0.62851 1.8661-1.1765 0.5045-0.54798 0.8729-1.2128 1.1229-1.9144 0.5-1.4033 0.5302-2.9249 0.5232-4.4146-0.015-3.0478-0.1829-6.1846-1.4548-8.9543-1.5477-3.3703-4.5914-5.8519-7.8855-7.556-5.3921-2.7895-11.703-3.7643-17.686-2.7315l7.0542-12.639c8.8861-0.65843 17.816-0.73283 26.711-0.22255 1.8823 0.10804 3.7744 0.24192 5.6495 0.0453 1.8752-0.19668 3.7551-0.74599 5.2613-1.8802 0.8964-0.675 1.6494-1.5574 2.0936-2.5879 0.4441-1.0304 0.5665-2.2118 0.2578-3.2905-0.2561-0.89514-0.7992-1.6957-1.4908-2.3192-0.6916-0.62337-1.5275-1.0747-2.4069-1.3804-1.7589-0.61134-3.6581-0.64599-5.5201-0.67384-7.9318-0.11868-15.863-0.2285-23.795-0.32956zm-80.976-15.725c-0.1573 2.5742 0.52149 5.1929 1.9095 7.3665 1.388 2.1736 3.478 3.8911 5.8796 4.8314 2.7769 1.0873 5.8358 1.1294 8.8177 1.1758 14.811 0.23013 29.614 0.91638 44.383 2.0575l-7.642 12.639c-19.317 1.0309-38.733 0.24254-57.902-2.3514-3.208-0.43406-6.4669-0.93593-9.3783-2.3514-1.4557-0.70775-2.8112-1.644-3.9076-2.8346-1.0965-1.1907-1.9278-2.6424-2.2918-4.2196-0.43256-1.8734-0.19152-3.8678 0.50589-5.6596 0.69744-1.7916 1.8345-3.3899 3.168-4.7748 4.1878-4.3495 10.464-6.5911 16.46-5.8785zm-284.66 329.11c-5.1804-2.8577-10.067-6.2473-14.559-10.098-1.3872-1.1892-2.7451-2.4313-3.8538-3.8837-1.1087-1.4525-1.9647-3.1348-2.2342-4.942-0.15014-1.0069-0.11473-2.0477 0.16603-3.0263 0.28068-0.9786 0.8124-1.8924 1.5679-2.5748 0.7684-0.6939 1.7566-1.1341 2.7828-1.2706 1.0263-0.1366 2.0869 0.027 3.0364 0.4392 1.5 0.6512 2.6734 1.878 3.6697 3.1746 0.9962 1.2968 1.863 2.6988 2.9811 3.892 2.1802 2.3265 5.2204 3.7294 8.3512 4.3326 3.1307 0.6031 6.3624 0.4541 9.5227 0.031 10.599-1.416 20.572-5.8379 29.928-11.015 5.6515-3.1273 11.145-6.5498 16.943-9.3957 5.7984-2.846 11.963-5.1226 18.389-5.7765 1.9606-0.19946 3.952-0.2456 5.8914 0.10354 1.9395 0.34905 3.8329 1.1111 5.3316 2.3906 2.0151 1.7204 3.1952 4.2898 3.5493 6.9156 0.35406 2.6259-0.0649 5.3094-0.84743 7.8408-1.4443 4.6722-4.1208 8.9182-7.482 12.47-6.4087 6.7726-15.141 10.957-24.108 13.51-1.1928 0.3396-2.418 0.6556-3.656 0.5831-0.61904-0.036-1.2362-0.1718-1.7959-0.4388-0.55963-0.2672-1.0603-0.6692-1.4067-1.1836-0.36315-0.5391-0.54791-1.189-0.56848-1.8387-0.0207-0.6496 0.11853-1.299 0.36069-1.9023 0.55218-1.3755 1.6205-2.4908 2.8179-3.3643 1.1974-0.8734 2.5336-1.5338 3.8327-2.2473 5.0978-2.8 9.6728-6.4508 14.133-10.184 1.4323-1.1989 2.8786-2.4341 3.8792-4.0112 0.50038-0.7886 0.88289-1.6588 1.0601-2.5759s0.14391-1.8821-0.15913-2.7656c-0.21957-0.6401-0.58313-1.2366-1.086-1.6894-0.50294-0.4526-1.1488-0.7556-1.8237-0.8047-0.81378-0.059-1.619 0.248-2.3016 0.6949-0.6826 0.447-1.2634 1.0295-1.8551 1.5914-7.3104 6.9418-16.743 11.101-25.771 15.588-9.4524 4.6977-18.882 9.9644-29.305 11.639-5.0874 0.8174-10.316 0.7468-15.38-0.2078zm346.88-432.1c8.7516-4.8276 18.913-6.1967 28.681-8.3135 8.7987-1.9068 17.606-4.4975 26.603-4.1567 1.7601 0.0667 3.5279 0.24848 5.2166 0.74899s3.303 1.334 4.5516 2.5765c1.9809 1.9712 2.8731 4.7666 3.5332 7.4822 0.6163 2.5354 1.0906 5.1902 0.5369 7.74-0.2768 1.2749-0.8162 2.5046-1.6519 3.5063-0.8357 1.0018-1.9774 1.7656-3.2495 2.0552-1.6007 0.3644-3.2922-0.0338-4.7802-0.72744-0.5247-0.24454-1.0361-0.52793-1.4785-0.90122-0.4425-0.37327-0.8153-0.84178-1.0154-1.385-0.2142-0.58128-0.2221-1.2146-0.2492-1.8334-0.027-0.61888-0.082-1.2578-0.3743-1.8038-0.2008-0.37431-0.5071-0.68728-0.8623-0.92016-0.3552-0.23287-0.7583-0.38754-1.1728-0.48033-0.829-0.18563-1.691-0.12659-2.5374-0.0544-8.4605 0.72218-16.772 2.6676-24.94 4.988-6.7561 1.9192-13.46 4.104-20.381 5.3029-2.4587 0.42596-5.0157 0.72174-7.4243 0.0694-1.2043-0.32617-2.3543-0.89349-3.2816-1.7282-0.92726-0.83475-1.6229-1.9454-1.8738-3.1676-0.19602-0.95468-0.11853-1.9569 0.16751-2.8886 0.28609-0.93165 0.77652-1.7942 1.3865-2.5543 1.22-1.5202 2.8881-2.6136 4.5949-3.5551zm47.075 25.148c0.1977-1.6212 0.9895-3.1395 2.0934-4.3431 1.1039-1.2037 2.5082-2.1063 4.0029-2.7646 2.9895-1.3165 6.2955-1.6726 9.4912-2.349 0.9076-0.19205 1.8199-0.41208 2.7474-0.40396 0.4638 5e-3 0.9295 0.0663 1.3691 0.21414 0.4396 0.14801 0.853 0.38365 1.1832 0.70942 0.3511 0.34638 0.6007 0.78689 0.7627 1.2527 0.1621 0.46579 0.2395 0.95742 0.2765 1.4492 0.1398 1.8565-0.2872 3.7155-0.9205 5.4663-0.6333 1.7507-1.4718 3.4189-2.1972 5.1335-0.6472 1.5302-1.2065 3.1021-1.9888 4.5679s-1.8132 2.8415-3.2071 3.7456c-1.1836 0.76773-2.5693 1.1595-3.9488 1.4549-0.9751 0.20881-1.967 0.37546-2.9638 0.35215-0.9969-0.0233-2.006-0.24562-2.8556-0.76783-0.6731-0.41373-1.2279-1.0049-1.6509-1.6723-0.4228-0.66737-0.7175-1.4101-0.9274-2.1718-0.4197-1.5234-0.5049-3.1158-0.7471-4.6773-0.2679-1.7267-0.7311-3.4615-0.5196-5.1959zm-85.316-3.5332c-2.099-5.1222-3.535-10.516-4.2606-16.003-0.15135-1.1444-0.27214-2.2996-0.20115-3.4517 0.0709-1.1522 0.3418-2.3089 0.92857-3.303 0.85106-1.442 2.3004-2.4382 3.819-3.1436 1.2281-0.57045 2.5421-0.98367 3.8929-1.0794 1.3507-0.0957 2.7418 0.13843 3.9269 0.79362 1.411 0.78008 2.454 2.1089 3.176 3.5504 0.72192 1.4416 1.154 3.0071 1.6044 4.5553 1.3557 4.661 2.9176 9.2765 3.8086 14.048 0.89097 4.7718 1.0886 9.7667-0.27526 14.425-0.19548 0.6677-0.42379 1.3296-0.75358 1.9422s-0.76569 1.1769-1.3248 1.591c-0.77941 0.5772-1.7726 0.83479-2.7415 0.79111-0.96887-0.0436-1.9124-0.37666-2.7413-0.88025-1.6577-1.0072-2.8264-2.6401-3.8696-4.2755-1.9356-3.0342-3.6068-6.237-4.9881-9.5605zm-49.681 12.88c-5.7129 6.0194-11.384 12.274-14.98 19.755-2.1431 4.4579-3.5172 9.4278-2.9497 14.342 0.12734 1.103 0.35597 2.2078 0.84147 3.2065 0.48551 0.99858 1.2477 1.8895 2.2447 2.3782 0.73706 0.36125 1.5685 0.48973 2.389 0.51419 0.82043 0.0245 1.6402-0.0503 2.4608-0.0732 2.4592-0.069 4.9039 0.32664 7.3448 0.63319 2.4409 0.30654 4.9277 0.52378 7.3513 0.10166 1.1871-0.20678 2.3634-0.57374 3.3697-1.2366 1.1559-0.76141 2.0442-1.8907 2.6334-3.1431 0.58931-1.2525 0.89089-2.626 1.0154-4.0046 0.0609-0.67405 0.0801-1.3582-0.0458-2.0232-0.12598-0.66497-0.40578-1.314-0.87896-1.7978-0.56211-0.57483-1.3479-0.87388-2.1292-1.0636-0.78134-0.18976-1.5863-0.28804-2.3479-0.54557-0.99371-0.33601-1.8992-0.94931-2.5417-1.7785-0.64239-0.82928-1.0124-1.8756-0.98547-2.9243 0.0241-0.94311 0.35916-1.8534 0.7904-2.6926 0.43126-0.83906 0.96066-1.6238 1.414-2.4511 1.0702-1.9528 1.7001-4.1094 2.4019-6.2229 0.83186-2.5054 1.7828-5.0115 1.9891-7.6434 0.10272-1.3099 0.0107-2.6657-0.52804-3.8643-0.26895-0.59938-0.64845-1.1526-1.1346-1.5945-0.48612-0.44187-1.0806-0.76995-1.7218-0.91277-0.57408-0.12779-1.1767-0.10606-1.7494 0.0278-0.57272 0.13387-1.1164 0.37773-1.6174 0.68563-1.0022 0.61578-1.8266 1.4766-2.6363 2.3298zm-77.89 319.05c1.3539-1.0701 2.9612-1.7743 4.5972-2.3236 1.6358-0.54938 3.3171-0.95511 4.9554-1.4974 1.5615-0.51694 3.0838-1.1579 4.6752-1.574 1.5913-0.4161 3.2846-0.60037 4.8773-0.18955 1.2405 0.31997 2.3722 0.99089 3.343 1.8269 0.97078 0.83594 1.789 1.8349 2.5356 2.876 2.2288 3.1082 3.8848 6.7576 3.968 10.581 0.0707 3.248-1.0224 6.4888-2.9394 9.1118-1.0303 1.4098-2.306 2.6588-3.821 3.5271-1.8363 1.0524-3.9731 1.5139-6.0895 1.5381-2.1162 0.0243-4.2191-0.37341-6.2554-0.95028-3.9183-1.1101-7.7446-2.9676-10.434-6.0255-2.0958-2.3827-3.4248-5.4979-3.3802-8.6708 0.0443-3.1475 1.4984-6.2779 3.968-8.2298zm-96.347 73.773c2.0633-2.0354 4.1889-4.1869 6.9383-5.1036 0.99361-0.3313 2.0511-0.4888 3.0948-0.4011 1.0437 0.088 2.0729 0.4262 2.9325 1.0246 1.1947 0.8319 2.0104 2.1266 2.4863 3.5024 0.47594 1.3758 0.63791 2.839 0.7352 4.2915 0.10318 1.5408 0.13676 3.0951-0.085 4.6233-0.2218 1.5283-0.70862 3.0371-1.5776 4.3137-1.3895 2.0411-3.6614 3.3461-6.0273 4.0531-1.2893 0.3852-2.636 0.6133-3.98 0.5477-1.3441-0.066-2.6877-0.4347-3.8139-1.1714-1.0129-0.6627-1.825-1.6051-2.4308-2.653-0.60569-1.048-1.0122-2.2012-1.3103-3.3743-0.24892-0.9798-0.42487-1.9832-0.43475-2.9941-0.0107-1.0108 0.15029-2.0319 0.5513-2.9596 0.62745-1.4519 1.7952-2.5884 2.9213-3.699zm-99.992 10.38c2.2876-0.6083 4.6846-0.6111 7.0486-0.7327 1.7913-0.092 3.5928-0.2543 5.3734-0.038 1.7807 0.2168 3.5729 0.8528 4.8284 2.1339 0.66312 0.6766 1.1516 1.506 1.5514 2.3649 0.91107 1.9573 1.3892 4.1073 1.4637 6.2651 0.0726 2.1057-0.239 4.2322-0.99236 6.1999-0.53796 1.4052-1.3316 2.7617-2.5423 3.655-0.9193 0.6782-2.0326 1.0539-3.1582 1.2494-1.1256 0.1956-2.2727 0.2204-3.4145 0.2574-3.4578 0.1122-6.9892 0.3335-10.314-0.6235-1.8293-0.5266-3.577-1.421-4.9361-2.7537-1.9246-1.887-2.9635-4.5809-3.0656-7.2744-0.0795-2.1002 0.39648-4.2427 1.5068-6.0272 1.4662-2.3568 3.9683-3.9633 6.6506-4.6765zm13.858-489.02c1.8124 15.369 3.6013 30.741 5.3666 46.116 2.2267 19.395 4.4185 38.835 4.5817 58.355 0.11974 14.326-0.85403 28.638-2.0575 42.913-0.28042 3.3264-0.57332 6.6515-0.87871 9.9756-4.4656-5.779-8.1368-12.171-10.878-18.94-1.3302-3.2844-2.4465-6.674-3.0041-10.174-0.55746-3.4995-0.54367-7.1214 0.35875-10.548 1.5817-6.0065 5.9957-11.202 11.668-13.733 0.0176-4.0801-0.0973-8.161-0.34454-12.234-0.23054-3.7967-0.57611-7.5864-1.0361-11.362-1.6883 1.1432-3.3542 2.3192-4.9967 3.5271-8.0596 5.9272-15.725 12.844-20.28 21.75-3.7254 7.2829-5.1841 15.664-4.4088 23.807 1.2344 12.967 8.2663 25.272 18.811 32.92-13.548-4.5972-27.55-7.8514-41.737-9.6995-30.53-3.9774-61.563-1.4215-91.997 3.2332-33.572 5.1345-67.249 13.003-96.994 29.392-29.705 16.368-54.66 40.989-72.305 69.954-14.477 23.763-24.207 50.946-24.396 78.772-0.095 14.044 2.2653 28.175 7.642 41.149 3.5644 8.6012 8.4384 16.658 14.402 23.807-3.1234 1.8635-5.998 4.1433-8.5238 6.7604-4.0362 4.1818-7.1469 9.1811-9.6994 14.402-1.0685 2.1856-2.0551 4.4532-2.3896 6.8628-0.1672 1.2049-0.16741 2.4383 0.0679 3.6318 0.23527 1.1934 0.71034 2.3466 1.44 3.3198 0.54678 0.72937 1.2409 1.3584 2.0575 1.7636 0.84638 0.41993 1.8069 0.58933 2.7508 0.54442 0.94375-0.045 1.8712-0.2994 2.7327-0.68726 1.7231-0.77573 3.161-2.0609 4.51-3.3843 4.2653-4.1848 7.9269-8.934 11.757-13.521 3.0252-3.6228 6.1622-7.1522 9.4055-10.581 4.4062 4.6027 9.4702 8.5744 14.99 11.757 9.616 5.5441 20.428 8.6167 31.156 11.463 16.08 4.2666 32.448 8.1676 49.086 8.23 15.05 0.0563 29.962-3.0407 44.383-7.3481 16.673-4.9803 33.037-11.698 47.028-22.045 11.396-8.4275 20.945-19.048 30.788-29.246 2.8764-2.9798 5.786-5.9307 8.5237-9.0382 2.0179-2.2905 3.9506-4.6744 6.246-6.6868 0.80046-0.70183 1.6623-1.3794 2.1818-2.3086 0.25979-0.46458 0.42632-0.98908 0.4234-1.5214-3e-3 -0.53227-0.18466-1.0716-0.54777-1.4608-0.24052-0.25782-0.55314-0.44371-0.88805-0.55395-0.3349-0.11018-0.69166-0.14665-1.0438-0.12932-0.70433 0.0343-1.3803 0.27747-2.0361 0.53653-10.151 4.0096-17.96 12.178-26.012 19.546-12.762 11.678-27.152 21.975-43.501 27.629-22.797 7.8833-47.598 6.2426-71.717 5.8785-10.248-0.1547-20.551-0.0656-30.671-1.6825-10.121-1.6168-20.176-5.0593-28.112-11.544-4.0049-3.2723-7.4091-7.2773-9.9934-11.757 10.215-9.784 20.603-19.387 31.156-28.805 13.639-12.171 27.556-24.029 41.737-35.564 2.7292 9.0514 7.7239 17.41 14.402 24.102 7.7952 7.8108 17.65 13.217 27.629 17.93 10.697 5.0517 21.982 9.4952 33.802 9.9934 8.7676 0.36964 17.503-1.4566 25.865-4.1149 16.061-5.1052 31.121-13.338 44.088-24.102 0.0688-2.8407 0.0688-5.6831 0-8.5238-0.0547-2.2551-0.15271-4.5091-0.2941-6.7604-2.1223 1.1647-4.1836 2.4408-6.1724 3.821-6.0395 4.1918-11.399 9.3347-17.635 13.227-5.583 3.484-11.801 5.9103-18.223 7.3481-10.411 2.3311-21.338 2.0627-31.744-0.2941-13.546-3.068-26.105-9.5795-37.622-17.342-3.4899-2.352-6.9232-4.8448-9.7986-7.918-2.8752-3.0732-5.1859-6.7795-6.0732-10.893-0.5412-2.5088-0.5412-5.1332 0-7.642 10.893 0.33471 21.776 1.021 32.626 2.0575 14.297 1.3658 28.819 3.4226 41.737 9.6995 4.7487 2.3075 9.2239 5.1607 14.039 7.3262 4.8153 2.1656 10.117 3.6403 15.354 2.9612 1.5904-0.20628 3.1656-0.61375 4.6003-1.3305 1.4346-0.71678 2.7268-1.753 3.6297-3.0784 0.88708-1.3021 1.3772-2.8514 1.5339-4.4193 0.15673-1.5678-0.0106-3.1559-0.35824-4.6925-0.93272-4.1204-3.1735-7.8997-6.1724-10.875-2.8459-2.8237-6.3523-4.9499-8.9983-7.9617-1.0782-1.2273-2.0077-2.6029-2.5959-4.1269-0.58831-1.524-0.82409-3.2047-0.52157-4.8101 0.27277-1.4475 0.97421-2.7942 1.9006-3.9395 0.92634-1.1453 2.0727-2.0975 3.2954-2.9191 0.74234-0.49885 1.5199-0.95447 2.3576-1.268 0.83761-0.31355 1.7404-0.48171 2.6304-0.39465 0.99937 0.0977 1.9492 0.51416 2.7769 1.0826 0.82774 0.56848 1.5424 1.2859 2.2112 2.0349 1.6039 1.7965 3.0053 3.8291 4.9881 5.1959 1.6877 1.1633 3.7201 1.7747 5.7643 1.9253 2.0442 0.15059 4.1032-0.14466 6.0823-0.67825 2.2902-0.6175 4.5047-1.5614 6.4558-2.9102 1.9513-1.3488 3.6349-3.1112 4.7673-5.1955 1.3376-2.462 1.8726-5.3037 1.8705-8.1056-2e-3 -2.5728-0.43857-5.1239-0.6235-7.69-0.0805-1.1184-0.11519-2.2514-0.41512-3.3318-0.14999-0.54021-0.36697-1.0648-0.67589-1.5327-0.30892-0.46785-0.71209-0.87821-1.1952-1.1627-0.74506-0.43885-1.6319-0.55731-2.4941-0.62352-4.0224-0.3089-8.1151 0.33732-11.847 1.8706 0.91273-1.4706 1.3712-3.2189 1.2976-4.9482-0.0735-1.7293-0.67892-3.4323-1.7133-4.8201-1.2727-1.7076-3.1607-2.9055-5.1959-3.5332-2.1168-0.65293-4.3802-0.7144-6.5823-0.47275-2.202 0.24167-4.3594 0.77828-6.5113 1.3041-2.2674 0.55403-4.5621 1.1067-6.638 2.1738-2.0759 1.067-3.9444 2.7182-4.7929 4.8926-0.66526 1.7048-0.6595 3.6128-0.2993 5.407s1.0577 3.5004 1.7541 5.1926c0.82742 2.0107 1.6588 4.0198 2.4941 6.0273-1.891 0.71064-3.7624 1.4731-5.6115 2.2862-4.2128 1.8525-8.3837 4.021-11.639 7.2743-0.66067 0.66032-1.2832 1.3664-1.7718 2.1625-0.48864 0.79608-0.841 1.688-0.93002 2.6178-0.1395 1.4571 0.37455 2.9111 1.1219 4.1698s1.7231 2.3628 2.6192 3.5203c3.1191 4.029 5.2932 8.7357 8.5213 12.678 0.65277 0.79721 1.3468 1.5606 2.0783 2.2862-1.2496 3e-3 -2.4994-0.0668-3.7411-0.20777-5.5502-0.62981-10.832-2.669-16.003-4.7802-7.2919-2.9769-14.523-6.1388-22.031-8.5214-7.3487-2.3323-14.957-3.9088-22.654-4.3646-8.6611-0.51282-17.405 0.40391-25.772 2.7018-1.7483-3.2955-2.5502-7.0863-2.2862-10.807 0.26262-3.702 1.5542-7.2746 3.3154-10.542 1.7612-3.267 3.9874-6.2572 6.2451-9.2031 8.6699-11.312 18.025-22.254 29.305-30.968 15.662-12.099 34.609-19.504 54.037-23.277 16.807-3.2647 34.106-3.9064 51.128-2.0783 10.836 1.1637 21.564 3.3233 32.007 6.4429-3.0703 11.813-6.0685 23.645-8.9943 35.495-4.8992 19.841-9.5976 39.742-15.284 59.373-6.037 20.841-13.182 41.357-18.811 62.312-3.6924 13.745-6.7442 27.799-6.7602 42.032-8e-3 7.3199 0.82713 14.777 3.821 21.457 4.341 9.6853 12.821 16.895 21.75 22.633 1.1575 0.7438 2.3344 1.4727 3.6101 1.9881s2.6648 0.8118 4.0319 0.6573c1.9081-0.2158 3.6317-1.2948 4.9967-2.6454 1.0818-1.0702 1.9934-2.3495 2.4353-3.8058 0.44195-1.4561 0.37632-3.1023-0.37785-4.4241-0.72904-1.2776-2.0022-2.1338-3.2331-2.9392-7.2118-4.7197-14.786-9.5891-19.104-17.048-2.3203-4.007-3.564-8.575-4.057-13.179-0.49296-4.6041-0.25616-9.2581 0.23599-13.862 2.9167-27.286 14.613-52.716 23.219-78.772 6.905-20.902 11.862-42.387 17.048-63.782 3.3308-13.741 6.76-27.457 10.287-41.149 8.8392 4.394 17.863 8.4158 27.041 12.051 13.704 5.4283 27.761 9.9998 41.149 16.165 8.1318 3.7452 15.997 8.0707 23.514 12.933 0.41925 8.8165 0.81116 17.635 1.1757 26.453 0.96487 23.342 1.7393 46.714 4.1149 69.954 1.2078 11.816 2.8292 23.593 4.9967 35.271 1.2801 6.8971 2.7504 13.759 4.4088 20.575-4.8065-5.4213-9.0495-11.342-12.639-17.635-1.9223-3.3708-3.6581-6.8497-5.1437-10.434-5.7704-13.924-7.6486-29.109-11.732-43.618-2.3897-8.4915-5.5356-16.75-8.8474-24.927-2.7701-6.8389-5.6596-13.63-8.6664-20.367-1.3192 2.1595-2.7939 4.2242-4.4088 6.1724-1.3721 1.6554-2.8453 3.2268-4.4088 4.7028 2.4953 8.0824 5.1412 16.118 7.9359 24.102 4.4664 12.76 9.3611 25.605 10.287 39.091 0.16177 2.3557 0.1986 4.7448-0.29372 7.0542-0.61364 2.8784-2.0314 5.5334-3.7421 7.9282-1.7109 2.3947-3.719 4.5588-5.6634 6.7681-5.8708 6.6712-11.265 13.871-18.223 19.399-4.8622 3.8629-10.373 6.8138-15.872 9.6995-2.309 1.2117-4.6361 2.4218-7.1208 3.213-2.4847 0.79121-5.1581 1.1498-7.7119 0.62283-2.3669-0.48844-4.5872-1.7618-6.101-3.6458-1.4517-1.8066-2.2189-4.136-2.1954-6.4535 0.0236-2.3174 0.82568-4.6098 2.1954-6.4792 1.2718-1.7357 2.9924-3.0895 4.768-4.305 5.829-3.99 12.418-6.6949 18.811-9.6995 8.7419-4.1088 17.373-8.9618 23.807-16.165 1.3713-1.5352 2.6315-3.1656 3.8892-4.7952 0.70103-0.90827 1.4124-1.8361 1.8022-2.9152 0.43887-1.2148 0.44051-2.5471 0.27615-3.8284-0.27128-2.1145-0.97656-4.1533-1.8527-6.0968-2.3228-5.1528-5.8404-9.6848-9.6994-13.814-6.6505-7.117-14.416-13.19-22.926-17.93 2.9436-2.2721 5.3727-5.2072 7.0542-8.5238 2.2818-4.5006 3.1592-9.7722 2.0575-14.696-1.181-5.278-4.4711-9.7962-6.7602-14.696-1.6785-3.5931-2.8318-7.4279-4.7262-10.912-0.94729-1.7421-2.0832-3.3948-3.4963-4.786-1.413-1.3911-3.1133-2.5161-5.004-3.1135-2.0458-0.64646-4.321-0.64675-6.3049 0.17011s-3.6388 2.4841-4.2763 4.5328c-0.36006 1.1572-0.39641 2.4006-0.21009 3.5981s0.58989 2.3529 1.0919 3.456c2.0914 4.5954 5.8108 8.2119 9.4055 11.757 2.1911 2.1609 4.3778 4.351 6.1606 6.8594 1.7829 2.5082 3.1585 5.371 3.5388 8.4248 0.17524 1.4068 0.13525 2.8518-0.24028 4.2188-0.70074 2.5512-2.6151 4.7402-5.0502 5.7746-4.3758-2.0378-8.4503-4.7211-12.051-7.9361-1.6562-1.4788-3.2282-3.0813-5.1172-4.2482-0.94452-0.58347-1.9664-1.0537-3.0466-1.3099-1.0803-0.2562-2.2215-0.29339-3.299-0.0264-1.0598 0.26247-2.0449 0.81967-2.8167 1.5919-0.77178 0.77232-1.3282 1.7576-1.5922 2.8169-0.37785 1.5161-0.15257 3.1407 0.42687 4.5917 0.57945 1.4511 1.4966 2.7448 2.5123 3.9322 2.4359 2.8474 5.4482 5.1314 8.2298 7.642 1.6465 1.4861 3.2167 3.0564 4.7028 4.7028-3.3776 3.1766-6.7024 6.4093-9.9725 9.6965-5.6746 5.7042-11.341 11.689-18.556 15.252-1.2646 0.62444-2.5819 1.1776-3.6952 2.0435-0.55664 0.43296-1.0584 0.94386-1.4345 1.5404-0.3761 0.59651-0.62339 1.2816-0.65958 1.9858-0.0456 0.88703 0.2483 1.7756 0.75339 2.5061 0.5051 0.73046 1.2127 1.3084 1.9958 1.7275 1.9287 1.0322 4.2597 1.0961 6.394 0.61669 2.1343-0.4794 4.1176-1.461 6.0696-2.4485 5.8855-2.9776 11.76-6.1259 16.747-10.442 5.727-4.9554 10.156-11.398 12.731-18.521 3.0805 5.7583 7.3886 10.856 12.553 14.854 5.0581 3.9155 10.919 6.7869 15.577 11.169 0.78071 0.73426 1.5352 1.5232 2.0253 2.4765 0.24496 0.47661 0.42074 0.99166 0.48707 1.5234 0.0664 0.53176 0.0212 1.0807-0.16091 1.5846-0.28038 0.77634-0.86977 1.4095-1.5407 1.8904-0.67089 0.48086-1.4269 0.82656-2.1703 1.1853-9.948 4.8012-18.319 12.347-27.985 17.693-9.6725 5.3484-20.653 8.421-31.706 8.4346-0.78105 9.5e-4 -1.5712-0.0136-2.3265-0.21363-0.75519-0.1993-1.482-0.60187-1.9306-1.2412-0.35358-0.50391-0.5149-1.1393-0.44451-1.7509 0.0703-0.61156 0.37183-1.1937 0.83064-1.6041 1.3094 0.14587 2.6649-0.16118 3.7838-0.8569 1.1189-0.69573 1.9937-1.7756 2.4421-3.0146 0.6301-1.741 0.41409-3.6607 0.64719-5.4974 0.14877-1.172 0.4832-2.3274 0.46327-3.5087-0.0106-0.59062-0.11154-1.186-0.35937-1.7222-0.24783-0.53621-0.64917-1.011-1.1698-1.29-0.46593-0.24978-1.005-0.33412-1.5336-0.33741-0.52865-3e-3 -1.0543 0.0702-1.5808 0.11762-1.0051 0.0906-2.0168 0.0863-3.0228 0.16603-1.006 0.0798-2.0186 0.24745-2.9387 0.66225-1.7548 0.79118-3.0079 2.4054-3.904 4.1088-1.9569 3.7196-2.5134 8.0351-2.4101 12.237 0.0555 2.2545 0.29553 4.5253 1.0144 6.6628 0.71889 2.1375 1.9442 4.1453 3.7175 5.5385 2.0066 1.5764 4.6124 2.2771 7.1641 2.2548 2.5517-0.0222 5.059-0.72681 7.4077-1.724 1.1922-0.50618 2.352-1.0886 3.47-1.7427-0.7772 1.4556-1.5314 2.9234-2.2622 4.4029-1.8095 3.6631-3.4862 7.4281-4.393 11.412-0.90674 3.9838-1.0106 8.2275 0.29279 12.1 1.4624 4.3447 4.6916 8.0352 8.7285 10.207 3.8026 2.0458 8.2179 2.76 12.534 2.6192 4.3158-0.14073 8.5632-1.0993 12.729-2.2362 11.743-3.2049 23.212-7.9395 32.919-15.284 7.3661-5.5734 13.568-12.529 19.399-19.692 3.13-3.8459 6.1683-7.7665 9.1116-11.757 0.75455 3.8066 1.8376 7.5481 3.2331 11.169 2.1457 5.5676 5.0671 10.897 9.1116 15.284 2.4953 2.7065 5.4018 5.0335 8.589 6.876 0.63852 7.6294 2.1463 15.186 4.4849 22.476 2.0556 6.408 4.7656 12.635 8.4334 18.278 2.9076 4.4728 6.4488 8.5969 10.807 11.674 4.6343 3.2717 10.065 5.2715 15.596 6.5372 7.9253 1.8141 16.222 2.1755 24.209 0.6516 7.9862-1.5239 15.65-4.9674 21.836-10.242 2.5324-2.1587 4.822-4.6268 6.5993-7.4399 1.1619-1.8392 2.1001-3.8186 2.7996-5.8786 1.6462-4.8479 1.949-10.066 1.6104-15.174-0.33858-5.1086-1.3001-10.152-2.1268-15.205-0.0661-0.40392-0.13175-0.80971-0.25587-1.1998-0.12415-0.39001-0.30998-0.76672-0.59024-1.065-0.4143-0.44096-1.0132-0.68125-1.6158-0.73551-0.60261-0.0542-1.2102 0.0652-1.7831 0.2598-1.1458 0.38927-2.1842 1.0771-3.3613 1.3575-0.80662 0.1921-1.6451 0.18458-2.4718 0.24865-0.8267 0.0642-1.676 0.21145-2.3675 0.66894-0.75594 0.50009-1.2461 1.3254-1.531 2.1858-0.28491 0.86045-0.38748 1.7683-0.52651 2.664-0.43848 2.8249-1.2517 5.5781-1.7814 8.3873-0.69201 3.6702-0.89608 7.412-1.3153 11.123-0.27553 2.4394-0.66797 4.9372-1.9104 7.0543-1.5058 2.5656-4.141 4.3194-6.9494 5.3005-2.8084 0.981-5.8073 1.2635-8.7755 1.4598-4.6814 0.3097-9.42 0.4202-14.028-0.4622-4.6079-0.8824-9.1156-2.8259-12.425-6.1511-3.8184-3.8361-5.7399-9.1519-7.0541-14.402-1.1943-4.7716-1.9818-9.6446-2.3514-14.549 5.5219 1.6829 10.927 3.747 16.165 6.1724 2.4 1.1112 4.7822 2.3047 7.3334 3.0021 2.5512 0.69724 5.3284 0.86895 7.8037-0.0629 2.8269-1.0641 5.0393-3.5648 5.8784-6.4663 0.49937-1.7266 0.52824-3.6248-0.14679-5.2906-0.63524-1.5676-1.8521-2.8447-3.2331-3.821-3.1601-2.2342-7.0959-2.987-10.875-3.821-2.959-0.65293-5.8997-1.3881-8.8177-2.2045 0.81769-1.8607 1.911-3.6001 3.2331-5.1437 3.0588-3.571 7.2136-5.9817 11.169-8.5238 6.7069-4.3106 13.089-9.1987 20.28-12.639 8.26-3.9508 17.314-5.8629 26.16-8.23 4.8283-1.2921 9.6485-2.7401 14.108-4.9967 4.0628-2.0558 7.8271-4.808 10.655-8.3769 0.48564-0.61291 0.95291-1.2697 1.1402-2.029 0.0936-0.37963 0.11352-0.78085 0.0269-1.1621-0.0868-0.38126-0.28384-0.74139-0.57935-0.99744-0.28321-0.24541-0.64436-0.38705-1.0118-0.46046-0.3675-0.0734-0.7444-0.0827-1.1191-0.0906-10.58-0.22286-21.162 0.42032-31.744 0.33071-2.5478-0.0215-5.0949-0.0855-7.642-0.14725-16.213-0.39224-32.428-0.68617-48.644-0.8818 9.2426-2.1838 18.41-4.6841 27.482-7.4951 4.5969-1.4244 9.2259-2.9552 13.277-5.5526 4.0514-2.5973 7.5238-6.4051 8.7668-11.054 0.90094-3.3694 0.57299-7.0161-0.69164-10.267-1.2646-3.2504-3.435-6.1112-6.0686-8.3979-1.7902-1.5545-3.8546-2.8808-6.1724-3.3802-1.7276-0.3722-3.5329-0.26936-5.2617 0.0977-1.7288 0.36715-3.3916 0.99247-5.0256 1.6658-3.2066 1.3213-6.4636 2.9416-8.5237 5.7316-2.1078 2.8546-2.68 6.6072-2.3514 10.14 0.34493 3.7089 1.6191 7.3276 3.6741 10.434-3.6943-0.37729-7.4615-0.0256-11.022 1.0287-7.136 2.1131-13.118 6.883-19.399 10.875-2.072 1.317-4.2687 2.6301-5.5846 4.7028-1.1708 1.8442-1.5095 4.0985-1.543 6.2826-0.0159 1.0332 0.0322 2.0791 0.31967 3.0716 0.28755 0.99247 0.83349 1.9355 1.6643 2.5499 0.80459 0.59491 1.8092 0.84186 2.7922 1.0287 3.3343 0.63379 6.7464 0.72995 10.14 0.73464 5.538 8e-3 11.073-0.22318 16.606-0.44089 11.363-0.44706 22.728-0.83897 34.095-1.1757-5.8258 3.2332-11.812 6.1774-17.93 8.8177-7.4302 3.2071-15.191 6.0464-21.457 11.169-3.5422 2.8963-6.4923 6.4361-9.6994 9.6995-2.9228 2.974-6.0698 5.7276-9.4055 8.23-3.6748-11.905-6.6214-24.035-8.8177-36.3-1.9502-10.89-3.3089-21.885-4.1149-32.92-1.0036-13.739-1.1503-27.524-1.4696-41.296-0.31816-13.722-0.80808-27.439-1.4696-41.149 7.2115 4.9026 14.69 9.4125 22.391 13.503 7.5127 3.99 15.246 7.5866 22.49 12.048 9.4292 5.8082 17.911 13.011 26.248 20.302 7.8885 6.8991 15.684 13.904 23.514 20.869 8.8259 7.8499 17.72 15.672 25.607 24.464 4.932 5.4989 9.4553 11.364 13.52 17.532-1.8278 5.9372-3.8 11.83-5.9141 17.671-2.5143 6.9471-5.2303 13.823-8.2298 20.575-3.9257 8.8366-8.3812 17.595-10.076 27.115-0.65572 3.6823-0.88588 7.4662-0.34161 11.167 0.54427 3.7003 1.8878 7.3212 4.1626 10.29 3.3932 4.4283 8.5495 7.0971 12.722 10.801 5.6606 5.0248 9.3961 11.858 12.366 18.82 7.2984 17.111 10.554 36.703 4.8153 54.398-2.6383 8.1352-7.1308 15.819-7.8025 24.345-0.0625 0.793-0.0896 1.6029 0.11245 2.3724 0.10105 0.3847 0.25976 0.7563 0.48825 1.0819s0.52822 0.6043 0.88126 0.7876c0.39547 0.2052 0.84976 0.2862 1.2946 0.2616 0.44486-0.025 0.88062-0.1519 1.2835-0.3422 0.80574-0.3805 1.4702-1.0004 2.1098-1.6207 2.431-2.3581 4.717-4.8761 6.692-7.6273 2.1984-3.0626 4.0008-6.4016 5.4537-9.8804 5.1921-12.432 5.8127-26.224 6.4011-39.682 0.31494-7.2046 0.63398-14.5-0.84615-21.557-2.4877-11.862-10.32-22.566-21.039-28.226-2.9444-1.5549-6.0964-2.7502-8.8233-4.661-2.6591-1.8635-4.8522-4.3869-6.3267-7.2799 4.9634 0.4964 9.8084 2.143 14.046 4.7741 0.82893 0.5147 1.6603 1.077 2.6149 1.2786 0.47733 0.1008 0.98076 0.106 1.4478-0.035 0.46706-0.141 0.89504-0.4352 1.1535-0.849 0.28532-0.4567 0.34725-1.025 0.27987-1.5593-0.0673-0.5345-0.25421-1.0454-0.4372-1.552-1.3314-3.6859-2.5716-7.5026-4.9967-10.581-1.4508-1.8417-3.2732-3.3484-4.9657-4.9709-1.6925-1.6224-3.2983-3.4247-4.1459-5.6105-0.59287-1.5287-0.78983-3.1965-0.67972-4.8324 0.11018-1.636 0.52127-3.2426 1.1069-4.7742 1.1712-3.0632 3.0203-5.81 4.7165-8.6167 3.0889-5.111 5.7155-10.513 7.642-16.165 1.6556-4.8575 2.7909-9.8922 3.38-14.99 2.7559 3.6798 6.1536 6.8777 9.9934 9.4057 7.0944 4.6706 15.547 6.969 24.002 7.7642 14.15 1.3306 28.324-1.3528 42.398-3.3255 21.754-3.0489 43.717-4.4147 65.675-4.988 17.638-0.46049 35.385-0.40373 52.791 2.4941 12.383 2.0616 24.526 5.5585 36.108 10.398 4.0669-1.6114 8.0139-3.5256 11.797-5.7219 2.9077-1.688 5.719-3.5422 8.4153-5.5506-5.6871-0.29397-11.345-1.1558-16.861-2.5686-10.11-2.5889-19.709-7.0105-29.924-9.1449-9.1997-1.9221-18.676-1.9436-28.074-1.9609-31.29-0.0579-62.747-0.14542-93.633 4.8621-12.983 2.1049-26.084 5.1162-39.149 3.5984-9.1049-1.0577-17.911-4.3302-25.661-9.2241-3.0504-1.9261-5.993-4.1511-8.0829-7.0916-1.7182-2.4175-2.8091-5.2768-3.138-8.2245-0.32884-2.9476 0.10515-5.977 1.2484-8.7138l11.786 11.518c3.9514 3.8614 8.2568 7.5179 13.399 9.5374 5.1426 2.0195 10.761 2.4522 16.285 2.492 19.48 0.14011 38.797-3.186 58.194-4.988 15.334-1.4245 30.741-1.8972 46.139-2.0784 15.561-0.18304 31.205-0.0626 46.556 2.4941 13.7 2.2818 26.996 6.4754 40.319 10.392 5.9279 1.7424 11.871 3.4322 17.829 5.0691 7.118-3.0137 14.045-6.4792 20.724-10.369 4.7229-2.7502 9.3224-5.7123 13.78-8.8742-9.8407-0.3956-19.67-1.0751-29.471-2.0372-18.884-1.8538-37.652-4.7551-56.532-6.6508-29.123-2.924-58.453-3.4473-87.706-2.4941-17.457 0.56883-34.928 1.6624-52.374 0.83135-10.273-0.48933-20.61-1.6671-30.343-4.988-7.2807-2.4839-14.184-6.1756-20.053-11.15-5.868-4.9745-10.682-11.252-13.617-18.363-4.7834-11.586-4.3842-24.543-5.8194-36.994-2.3268-20.189-9.5926-39.456-17.459-58.194-6.0726-14.467-12.541-28.77-19.536-42.814-7.2232-14.501-15.129-28.897-26.187-40.736-6.5294-6.991-14.069-12.987-22.031-18.29-5.4819-3.6507-11.175-6.9836-17.042-9.9761-0.86666-18.867-2.114-37.716-3.7411-56.532-2.2057-25.508-5.109-50.955-7.0664-76.484-2.7716-36.146-3.6458-72.442-7.482-108.49-2.6704-25.093-6.7746-50.034-12.286-74.659-3.9234 4.6831-7.529 9.6324-10.784 14.803-3.6608 5.8153-6.8775 11.91-9.6128 18.214 1.3517 9.8605 2.6854 19.723 4.0012 29.589 5.7554 43.153 11.167 86.36 15.38 129.69 3.4285 35.267 6.0621 70.611 7.8978 106-9.4012-5.8176-17.024-14.467-21.615-24.525-4.4194-9.683-6.0164-20.66-4.3646-31.176 1.6249-10.343 6.3923-20.171 13.509-27.85-0.13083-5.6868-0.40811-11.37-0.83134-17.042-0.41445-5.5552-0.96889-11.1-1.6627-16.627-5.5845 5.9706-10.353 12.703-14.133 19.952-4.7247 9.0622-7.8856 18.885-9.9761 28.889-2.097 10.035-3.1314 20.407-1.6626 30.551 2.3178 16.01 10.731 30.554 20.783 43.231 6.0369 7.6124 12.719 14.713 19.952 21.2-0.1433 11.224-5e-3 22.452 0.41565 33.67 0.57747 15.412 1.6867 30.804 3.3253 46.139-5.9689-7.9329-12.503-15.441-19.536-22.446-5.1464-5.1265-10.56-9.9848-16.211-14.549 0.24588-16.105-0.58794-32.224-2.494-48.218-2.3052-19.343-6.1726-38.468-8.7291-57.779-3.3022-24.943-4.4083-50.116-5.8194-75.236-1.0586-18.847-2.2906-37.684-3.3253-56.532-0.95966-17.481-1.7495-34.973-2.3694-52.47-3.5975 5.0484-7.036 10.21-10.309 15.476-3.5616 5.7296-6.9269 11.581-10.088 17.542 0.75272 22.587 2.1069 45.156 4.0606 67.672 2.8204 32.501 6.8882 64.88 10.807 97.267 2.8492 23.546 5.6204 47.101 8.3134 70.664-7.8826-8.5243-14.49-18.224-19.536-28.682-2.5257-5.2336-4.6708-10.684-5.8694-16.371-1.1988-5.6862-1.4302-11.629-0.15774-17.299 1.5793-7.0377 5.5096-13.526 11.015-18.186-0.69952-4.4674-1.3923-8.936-2.0783-13.406-0.66448-4.329-1.3226-8.6589-1.9744-12.99-4.1353 5.3038-7.792 10.981-10.911 16.939-4.281 8.1768-7.5425 16.869-9.9761 25.772-1.6643 6.0881-2.9488 12.312-3.2218 18.618-0.27307 6.3058 0.49058 12.714 2.8062 18.585 4.1047 10.408 12.652 18.306 19.121 27.435 6.4025 9.0356 10.83 19.463 12.886 30.345-7.8918-3.6064-15.658-7.4893-23.277-11.639-7.2013-3.9214-14.273-8.0813-21.2-12.47 1.8954-4.8645 3.4252-9.8712 4.5724-14.964 3.7613-16.699 3.3639-34.024 2.7018-51.128-0.966-24.956-2.4543-49.89-3.9491-74.822-1.0831-18.065-2.1695-36.128-3.2595-54.193-3.8328 6.4668-7.7347 12.893-11.705 19.276-2.862 4.6022-5.7595 9.1824-8.6919 13.74zm283.45 54.015c-1.4499 0.17188-2.8442 0.78791-3.9476 1.7442-1.1034 0.95626-1.9113 2.2488-2.2874 3.6596-0.50312 1.8867-0.23781 3.8813 0 5.8194 1.4714 11.992 1.7585 24.093 2.2861 36.163 0.44862 10.263 1.0722 20.518 1.8706 30.76-5.4003 2.0527-10.551 4.7603-15.304 8.0447-5.5322 3.8231-10.534 8.4404-14.624 13.778-2.4414 3.186-4.5756 6.6675-5.7547 10.504-1.179 3.8367-1.3494 8.0672 0.0614 11.825 1.457 3.8809 4.5039 7.0175 8.0193 9.2143 3.5154 2.1969 7.4958 3.5336 11.493 4.6334 10.13 2.7869 20.598 4.1676 31.074 4.9751 11.406 0.87919 22.862 1.0875 34.293 0.62351-1.4039 4.4456-3.3638 8.7151-5.8194 12.678-2.5224 4.0704-5.5748 7.8239-9.1447 11.015-4.6378 4.146-10.271 7.3658-16.419 8.3135-3.6105 0.55657-7.4974 0.26665-10.6-1.6627-1.4336-0.89157-2.6772-2.1388-3.3816-3.6732-0.70438-1.5342-0.82821-3.3668-0.15166-4.9134 0.55763-1.2747 1.5936-2.2666 2.4116-3.392 0.40903-0.56272 0.76916-1.1702 0.97332-1.8352 0.20416-0.66503 0.24452-1.394 0.0222-2.0531-0.2276-0.67471-0.72405-1.245-1.3349-1.6109-0.61085-0.36597-1.3298-0.53403-2.0419-0.53259-1.4241 3e-3 -2.7694 0.65788-3.9497 1.4548-2.7488 1.8562-4.895 4.5645-6.1742 7.6247-1.3261 3.1728-1.7284 6.705-1.298 10.117 0.43035 3.4116 1.6792 6.7011 3.4938 9.6219 2.8199 4.5386 7.1374 8.2565 12.262 9.7684 3.6596 1.0795 7.5937 1.0115 11.328 0.22731 3.7341-0.7842 7.2898-2.2624 10.703-3.9684 7.8051-3.9014 14.989-9.0428 21.2-15.172-1.5468 4.6683-1.1645 9.944 1.0392 14.341 1.5982 3.1887 4.0807 5.8685 6.8587 8.1056 9.2074 7.415 21.437 10.036 33.253 10.392 12.644 0.38037 25.56-1.6544 36.786-7.4822 14.951-7.7602 25.988-21.843 32.422-37.411 3.8414-9.2937 6.1986-19.548 4.3141-29.427-1.2931-6.7787-4.7021-13.287-10.134-17.545-3.3689-2.6404-7.3951-4.345-11.53-5.4517-4.135-1.1066-8.3989-1.6396-12.651-2.1314-8.9647-1.0367-17.949-1.9039-26.947-2.6011 1.9841-1.5384 3.9249-3.1326 5.8194-4.7803 1.6282-1.416 3.2223-2.8714 4.7802-4.3646 3.1711 2.3023 6.6859 4.1301 10.392 5.4038 5.7875 1.9893 12.114 2.606 18.082 1.247 4.3167-0.98307 8.3574-2.9681 12.054-5.4038 5.615-3.6994 10.689-8.7489 12.678-15.172 1.4941-4.825 1.1315-10.049 0.053-14.984-1.0789-4.9346-2.8482-9.6892-4.1702-14.564-1.8462-6.8072-2.8158-13.852-2.8775-20.905 5.0098 11.144 9.3607 22.584 13.022 34.241 2.9687 9.4505 5.483 19.036 8.1221 28.583 2.0524 7.4246 4.1998 14.977 3.9263 22.675-0.3742 10.526-5.2075 20.287-8.8864 30.156-1.8107 4.8577-3.3607 9.8194-5.4751 14.553-1.9966 4.4696-4.4838 8.7068-6.4766 13.178-0.6906 1.5494-1.3299 3.1638-1.4087 4.8581-0.039 0.84723 0.065 1.707 0.3655 2.5002 0.3 0.79336 0.8003 1.5184 1.4736 2.0341 0.5562 0.42605 1.2188 0.70217 1.9037 0.84964 0.6849 0.14739 1.3926 0.16929 2.0913 0.11822 2.4183-0.17676 4.7132-1.221 6.6771-2.643 1.9639-1.4221 3.6286-3.2136 5.2155-5.0469 7.9672-9.2034 14.326-19.8 18.659-31.176 3.48-9.1368 5.667-18.945 4.7802-28.681-0.8621-9.4661-4.5623-18.407-8.1055-27.226-7.5501-18.794-14.587-37.82-23.277-56.115-5.9554-12.538-12.672-24.701-18.705-37.203-0.5593-1.1589-1.1333-2.3494-2.0718-3.2299-0.4692-0.4402-1.0275-0.79456-1.6448-0.97622s-1.2952-0.18333-1.8951 0.0494c-0.5482 0.2126-1.0137 0.61335-1.3471 1.0976s-0.5392 1.0493-0.6452 1.6276c-0.2121 1.1566-0.034 2.3444 0.1219 3.51 1.0142 7.5799 1.0844 15.255 1.8706 22.862 0.9979 9.6564 3.1434 19.15 4.988 28.682 0.7271 3.7567 1.4097 7.5372 1.5678 11.36 0.158 3.8231-0.2233 7.7115-1.5678 11.294-1.6621 4.4284-4.701 8.1807-7.6899 11.847-1.0298 1.2631-2.0653 2.5319-3.2799 3.6184s-2.6268 1.9919-4.2023 2.4088c-2.4842 0.65755-5.1517 0.0442-7.482-1.0392-1.9961-0.9281-3.8324-2.1993-5.4037-3.7411 4.524-2.3314 8.7311-5.2765 12.47-8.7291 2.2878-2.1125 4.4021-4.4161 6.2707-6.9068 0.6362-0.84802 1.2486-1.726 1.6626-2.7018 0.5677-1.3385 0.7411-2.8135 0.7527-4.2675 0.012-1.4539-0.132-2.9044-0.1701-4.3579-0.037-1.3906 0.024-2.7845-0.078-4.1719-0.1015-1.3874-0.3731-2.786-1.0296-4.0126-0.2011-0.37584-0.4403-0.73668-0.7535-1.0259-0.3132-0.28921-0.7062-0.50404-1.1296-0.55289-0.4953-0.0571-0.9951 0.11595-1.4161 0.38321-0.4209 0.26734-0.7755 0.62493-1.1284 0.97727-2.9497 2.9451-6.0472 5.739-8.9981 8.6828-4.9227 4.9106-9.5084 10.296-15.39 14.005-2.3386 1.4748-4.8572 2.6641-7.482 3.5332-3.0559-1.428-5.9882-3.1199-8.7539-5.0508-2.2698-1.5846-4.4696-3.3768-5.938-5.7234-0.7342-1.1733-1.2743-2.4775-1.4982-3.8433s-0.1241-2.7945 0.3694-4.0877c0.7476-1.9589 2.3657-3.5086 4.2363-4.4556 1.8706-0.94701 3.9816-1.3348 6.0756-1.4395 2.9018-0.14512 5.8165 0.23108 8.7121-8e-3 1.24-0.10226 2.4959-0.32571 3.5899-0.91863 0.547-0.29646 1.0478-0.6845 1.4448-1.1635 0.397-0.47898 0.6881-1.0506 0.8078-1.6611 0.2006-1.0233-0.087-2.0852-0.5248-3.0314-0.7521-1.6235-1.9457-3.0176-3.3255-4.1567-3.1076-2.5657-7.195-3.8614-11.223-3.7411-5.0806 0.15181-9.8641 2.4365-14.133 5.1959-2.3765 1.5362-4.6609 3.2437-6.6057 5.2994s-3.546 4.4761-4.4097 7.1708c-1.2783 3.9882-0.8564 8.4295 0.8314 12.262 1.8243 4.1429 4.9928 7.5208 8.1055 10.807 2.561 2.7041 5.1242 5.4061 7.6899 8.1056-3.926 2.3662-7.7381 4.9215-11.418 7.6543-3.4498 2.5616-6.7839 5.2791-9.9886 8.1414-4.2267-0.55319-8.4846-0.86735-12.747-0.94049-7.744-0.13281-15.596 0.51976-23.156-1.1631-3.4666-0.77166-6.8292-2.0328-9.9134-3.7937-2.8032-1.6006-5.3714-3.6118-7.5973-5.9495 3.4864-2.3633 6.5932-5.2851 9.1657-8.62 2.1397-2.7738 3.9019-5.8162 5.641-8.8574 1.5685-2.7427 3.1268-5.4976 4.9376-8.0865 1.1519-1.6469 2.4294-3.248 4.0768-4.3992 0.82368-0.57569 1.7357-1.0329 2.7061-1.2943 0.97033-0.26143 2.0001-0.32358 2.9854-0.12583 0.83382 0.16733 1.6336 0.5227 2.2946 1.0579 0.66092 0.5352 1.1792 1.2523 1.4465 2.0597 0.36184 1.0931 0.25518 2.2803 0.10835 3.4224-0.1468 1.142-0.32934 2.3063-0.10835 3.4362 0.25723 1.3155 1.0631 2.4935 2.125 3.3114 1.062 0.8179 2.3658 1.2899 3.6944 1.4689 0.89337 0.12035 1.8121 0.11184 2.6853-0.1123 0.87314-0.22411 1.7-0.67236 2.3028-1.3425 0.45373-0.50438 0.7706-1.1203 0.99186-1.7617 0.22125-0.64139 0.35058-1.3104 0.46295-1.9794 0.93162-5.5466 0.73933-11.212 0.62351-16.836-0.0281-1.3645-0.052-2.7345-0.26871-4.0819-0.21672-1.3474-0.63494-2.6816-1.394-3.8158-1.001-1.4958-2.5559-2.5708-4.2465-3.1884-1.6906-0.61759-3.5145-0.80171-5.3139-0.76046-2.3997 0.055-4.7843 0.50289-7.0664 1.247-4.7656 1.5539-9.0823 4.4114-12.47 8.1056-3.5376 3.8576-6.029 8.5339-8.9368 12.886-3.1752 4.7521-6.8768 9.152-11.015 13.094-0.39017-5.8108-0.39017-11.648 0-17.459 0.56307-8.3857 1.9381-16.758 1.4548-25.148-0.34219-5.9401-1.6111-11.782-2.494-17.667-0.32777-2.1844-0.60459-4.3861-1.2197-6.5076-0.61507-2.1215-1.5931-4.1828-3.1448-5.7547-2.2794-2.3093-5.7598-3.3615-8.9369-2.7018z" fill="#fff"/>
</svg>
