<?xml version="1.0" encoding="utf-8"?>
<!-- Generator: Adobe Illustrator 24.2.3, SVG Export Plug-In . SVG Version: 6.00 Build 0)  -->
<svg version="1.1" id="Layer_1" xmlns="http://www.w3.org/2000/svg" xmlns:xlink="http://www.w3.org/1999/xlink" x="0px" y="0px"
	 width="1000px" height="500px" viewBox="0 0 1000 500" style="enable-background:new 0 0 1000 500;" xml:space="preserve">
<style type="text/css">
	.st0{fill:#FFFFFF;}
</style>
<g>
	<path class="st0" d="M0,0h1000v500H0V0z"/>
	<g transform="matrix(1.0616339,0,0,1.0588263,44.302297,324.69356)">
		<path d="M129.8-188.9c-1.8,0.5-4.6,7.1-3.6,9.5c0.9,2,2.7,2.8,4.8,3.3c-1.3,4.7-12.3,8.8-14.5,12.9c-0.2,3,0,8.9,5.3,9.8
			c11.4,1.9,21.6-8.8,25.4-21.3c-2.8,3.1-10.4,10.8-14.6,13.6c-5.2,3.3-10.2,2.8-13.3,1.3c0.8-1.2,4.1-3.3,8.6-6.5
			c4.6-3.1,5-4,6.3-8.7c2.7,1,6.4,0.5,7.1-0.2c1.5-2,2.2-4.4,1.7-6.6c-0.8-1.7-5.7-7.6-8.1-8.2c0-2.1-5.6-4.5-6.7-2.6
			C128-191.8,130.1-190.4,129.8-188.9L129.8-188.9z M133.3-185.4c0.7,1.3,0.5,2.8-0.3,3.7C126.2-181.3,129.3-186.4,133.3-185.4z
			 M135.9-183.4c1.6,0.3,3.3,2.3,4.6,3.4c-2.7,0.4-3.5,0.3-4.9-0.2C135.3-181.3,135.5-182.5,135.9-183.4L135.9-183.4z"/>
		<path d="M448.4-66.3c-3.3,1-4.1,1.5-8.8,3.4c-2.6-4.3-3.1-4.6-4.5-6.2C436.3-70.4,447.2-69.7,448.4-66.3z M436.3-13.4
			c-12.7,5.7-21.5,13.5-21.1,28c-14.6-5.8-18.5-21.3-20.4-29.1c-2.9-12.1-10.3-60.9-26.2-70.1l-0.4,19.4c5.5,9.2,15,35.3,18.1,50.4
			C380.8-1,349.5,24,335.1,23.2c-10.2-0.6-9-13.8-2.1-38.3c-10.6,10.9-16.4,47-0.9,53.2c9.8,3.4,23.5-5.6,36.6-16
			C387.9,6.8,386-0.1,388.1-8.1c4,17.7,15.8,41.9,51.5,42.5l0.3-13.5c-6.5-0.6-17.9-10.2-18.1-13.3c3.9-5.4,24.8-16.6,55.5-23.4
			c4.2-6.5,7.1-10,8.7-13.6c-7.8,1.4-35.9,2.6-43.2,2.8c-20.9,0-21.4,0.4-34.4-0.1c0.9-3.6,21.1-19.9,26.7-22.1
			c1,1.5,1.4,4.8,2.1,7.7c6.4-4,5.2-10.2,5.4-10.6c0.1-0.5,12.2-4.4,16.7-6.5l5.6-12c-6.5-7.9-19.9-13.3-25.2-11.7
			c-16.9,5.2-10.4,16.2-8.2,23.1c-16.6,14.9-36.2,19.9-36.7,47C401.9-13.6,426.4-13.2,436.3-13.4L436.3-13.4z"/>
		<path d="M302-86.6h-2.3c-6.9,10.9-9.1,20.2-19.3,22.6c-7.7,1.8-15.9-0.4-12.7-19.9c-9.2-2.2-33.2,12.1-40,13.7
			c-2-11-8.2-17.2-14.5-21c-20.7-12.3-31.9,38.3-13.2,38.8c7.1,0.2,9.5,0.1,20.5,0c1.5,2.8,4.7,9.1,3.9,14.1
			c-10,14.4-37.6,36.3-55.5,34.1c-20.7-2.6-32.1-16.7-22.7-51.2h-1c-4.1,10.6-22.2,56.5,15.7,67.2c16,3,43.6-3.5,65.5-34.4
			c5-7,4.9-23.3,4.5-31.9c14.8-4.7,20.7-11.3,27.8-13.8c1.6,18.6,12.4,21.4,18.2,21.3c12.2-0.5,18.5-11.9,21-17.4
			c1.7,6.7,7.6,11.6,15.3,10.2c15.8-2.8,21-29.6,11.6-40.8l-6.6,13.5c7.9,10.9,1.8,11.7-1.7,12.4C305.6-66.5,302.8-78.2,302-86.6
			L302-86.6z M214.4-68.5c-6,0.6-11.8,0.5-16,0.1c-0.9-2,0.9-7,4-8.2C206.4-78,211.2-74.6,214.4-68.5L214.4-68.5z"/>
		<path d="M347.4-187.7c9.8,5.9,20.7,22,8.4,46.2h-1.4c0.9-7.6,6.5-22-7.1-33.6L347.4-187.7z"/>
		<path d="M363.5-62.1l-0.2,4.2l-8.7-3.5c5.6,12.1,11.8,21.5,9.3,36.3c-2.7,16.1-51.8,51.3-69.3,56c-14,3.7-32.6,4-52.5,4.3
			c41-9.8,92-39.8,118.5-64.2c-4.3-5.4-12.4-16.9-14-27.2c-3.4-6.5-6.3-11.2-6.3-11.2l2.5-15.2L363.5-62.1z"/>
		<path d="M672,10.3c0.2,4.1,8.7,5.5,15.3-0.9c0.8-0.2,2.3-0.2,3.1-0.3c-1.1,5.6-8.4,9.5-10.5,10.8c-3.4,2.1-8.2,5.9-12.9,7.2
			l0.1-3.6c1.2-0.9,2.1-1.4,4.1-3.2c-5.6-2.9-5.7-6.5-4.6-8.9c3.3-6.7,10.6-14.1,16.6-9.5c0.8,3.6-1.8,10.2-5.5,5.2
			C675.2,7.1,672.4,8.6,672,10.3L672,10.3z"/>
		<path d="M449-178.1c-1.6-1.4-8.6-0.4-11-0.9c0.1-3.3,0.9-7,4.8-9.4c5.7-1.6,16.4,1.8,17.8,3.7c1.4,1.9-4,8.1-6.5,9.5
			c-8.4,5.1-13.9,5.8-16.6,6.2c-1.2-0.4-2.4-0.9-3.6-1.4C441.2-172.3,448.8-176.4,449-178.1z"/>
		<path d="M475.3,7.2c-4-0.1-8,12.9-20.1,24c-13.4,10.8-20.1,13.2-31,18c19.1-1,37.5-11.7,44.5-29.5c1.6,1.3,6.1,4,9.1,2.8
			C483.9,14.7,476.9,7.2,475.3,7.2z M476.8,16.6c-0.4,0.3-3.6-0.9-4.7-2c0.2-1,1.6-1.8,2.5-1.5C476.9,14.8,477.7,15.9,476.8,16.6
			L476.8,16.6z"/>
		<path d="M183.3-60.3c-9.4-3.7-12,16.6-14.6,27C163.3-49,157-49.7,153.9-48.4c-11.9,5.3,1.4,24.3,7.7,12.9c2,2.4,3.3,6.9,8.4,16.5
			c1.7-12.9,3.5-34.2,13.2-25.4C189.5-50.9,185.7-59.3,183.3-60.3L183.3-60.3z"/>
		<path d="M155.2-103.3c-2.1-0.2-4.7,3.5-6.1,7.9c-1.5,4.8-2,7.7,6.9,12.8c-6.5,15.2-31.1,31.4-37.1,35.5
			c21-1.8,38.4-23.8,39.9-33.3c2.5,2.2,4.6,2.4,3.7,10.9c1-1.6,4.1-4.7,3-10.6c-1.9-6.4-4.2-6.4-5.2-8.1
			C161.3-94.1,159.7-102.9,155.2-103.3L155.2-103.3z M156.8-90.7c-0.6-0.5-3.9-3.1-4.7-4.6c0.7-1.6,2.8-1.3,3.8-0.6
			C156.9-95.1,156.9-90.9,156.8-90.7z"/>
		<path d="M388.5-174.8c1.1,0.5-1.5,11.1,2.5,10.9c3.7-0.6,1.5-6.7,1.2-10c0.6-1.2,1.1-2.2,2-2.8c0.9,1.2,1.1,2.1,2,3.9
			c0,1.3-0.9,6.5,2.3,6.9c3.2,0.3,0.4-6.4,0.2-8.6c0.6-2.1,2-3.6,2-3.6c6.5,18.2-1.4,21.1-6.2,15.9c-2.4,4.4-4,4.1-5.1,4.1
			c-4.7-0.1-3.3-9.1-3.6-9.4c-0.8,0.5-1.3,0.9-2.1,1.8l-0.2-2.6L388.5-174.8z"/>
		<path d="M218.5-188.5l-5.3,14l4.3,14.7l21.3,138.9c-5.9,8.1-37.6,45.8-72,43.2c-54.5-4.2-29.1-66.7-29.8-72.5h-0.7
			c-29.9,66.7,6,88.9,28.8,89.7c30.4,0.9,58-18.4,75-43.9c10.7-18.6,0.4-66.3-2.7-85.4c-2.8-20.3-7.1-45.3-10.8-68
			c3,2.1,6.4,3.5,6.4,3.5v-4.5L218.5-188.5z"/>
		<path d="M487.9-153.4l-6.2-5.8c2.5,17.3,8.2,55,14,91.4c0.9,11.8,14.9,67.4,0.6,79.3c1.2-22.3-13-92.9-17.2-125.4
			c-0.7-5.8-6.8-48.9-10.4-61.1l4.4-15.4l15,30.9L487.9-153.4z"/>
		<path d="M463-138.6l-9.8-0.9c18.9,23.1,30.3,37.1,58.2,67.4c27.2,29.5,32.9,35.5,28.4,60.5c-2.6-22.5-17.2-29.8-43.9-60.1
			c-3.7-4.5-37.3-39.9-61.3-76.8l2.2-15.8l26.2,22.4L463-138.6z"/>
		<path d="M589.6-151.5l-6.2-5.8c2.5,17.3,8.3,54.4,13.6,90.8c6.5,44.7,17.5,86.5,6.5,108.6c-3.7-34.4-11.8-79.2-16.2-111.6
			c-0.7-5.8-13.2-90.2-16.9-103.4l4.4-15.4l15,30.9L589.6-151.5z"/>
		<path d="M685.2-151.4l-6.2-5.8c2.5,17.3,7.5,54.9,13.7,91.5c6,35.3,5.4,48,0,64.9c-4.2-30.1-11.5-76.7-16.6-111
			c-0.7-5.8-6.5-47.2-10.2-60.5l4.1-16.4l15.2,31.4V-151.4z"/>
		<path d="M543.1-152l-6-5.5c4.2,28.6,8.1,54.4,14,90.7c2.9,18,8.9,56.3-12.2,79.1c-18.7,20.1-42.6,22.1-56,22.5
			c22.2-12.8,62.3-32.1,65-57.6c-1.5-17.9-9.1-58.2-13.7-90c-0.7-5.8-6.5-45.6-10.2-59.7l4.2-16l14.8,31.4L543.1-152z"/>
		<path d="M625.4-162.7l-9.2-0.9c26.5,32.1,54.2,61,81.7,90.8c27.5,28.6,34.6,39,29.2,61.1c1.3-20.6-42.7-55.4-66.9-84.1
			c-26.1-30.1-38.5-41.2-63.1-76.6l1.8-15.5c8.1,4.8,26.5,21.8,26.5,21.8V-162.7z"/>
		<path d="M625.4-80.5c9.8,5.9,20.7,22,8.4,46.2h-1.4c0.9-7.6,6.5-22-7.1-33.6L625.4-80.5z"/>
		<path d="M700.2-136.2c9.8,5.9,20.7,22,8.4,46.2h-1.4c0.9-7.6,6.5-22-7.1-33.6L700.2-136.2z"/>
		<path d="M176.1-185.3c9.8,5.9,20.7,22,8.4,46.2h-1.4c0.9-7.6,6.5-22-7.1-33.6L176.1-185.3z"/>
		<path d="M507.2-177.9c-1.6-1.4-8.6-0.4-11-0.9c0.1-3.3,0.9-7,4.8-9.4c5.7-1.6,16.4,1.8,17.8,3.7s-4,8.1-6.5,9.5
			c-8.4,5.1-13.9,5.8-16.6,6.2c-1.2-0.4-2.4-0.9-3.6-1.4C499.3-172.1,507-176.2,507.2-177.9L507.2-177.9z"/>
		<path d="M557-178.2c-1.6-1.4-8.6-0.4-11-0.9c0.1-3.3,0.9-7,4.8-9.4c5.7-1.6,16.4,1.8,17.8,3.7c1.4,1.9-4,8.1-6.5,9.5
			c-8.4,5.1-13.9,5.8-16.6,6.2c-1.2-0.4-2.4-0.9-3.6-1.4C549.1-172.4,556.8-176.5,557-178.2z"/>
		<path d="M696.3-177.9c-1.6-1.4-8.6-0.4-11-0.9c0.1-3.3,0.9-7,4.8-9.4c5.7-1.6,16.4,1.8,17.8,3.7c1.4,1.9-4,8.1-6.5,9.5
			c-8.4,5.1-13.9,5.8-16.6,6.2c-1.2-0.4-2.4-0.9-3.6-1.4C688.4-172.1,696.1-176.2,696.3-177.9z"/>
		<path d="M132.4-77c-1.6-1.4-8.6-0.4-11-0.9c0.1-3.3,0.9-7,4.8-9.4c5.7-1.6,16.4,1.8,17.8,3.7c1.4,1.9-4,8.1-6.5,9.5
			c-8.4,5.1-13.9,5.8-16.6,6.2c-1.2-0.4-2.4-0.9-3.6-1.4C124.6-71.3,132.3-75.3,132.4-77L132.4-77z"/>
		<path d="M235.4-191.2c3.8,5.8,10.2,14,13.9,20.6c0.1,1.7-0.2,2.8-0.1,4.4c-6.4-3.7-1.7-1-5.7-3.2c4.7,9.2,14.1,29.8,13,42.7
			c-1.5,17.1-19.7,29.7-37.7,21.8c-9.5-4.2-13.2-18.9-13.2-18.9s-2,7.6-4.1,12.4c-5,11.8-27.5,20-39,7.2
			c-15.9-17.8-3.5-40.9-7.2-49.8c-13.2,25.5-6,54.7-23.1,54.9c-9.3-1.3-21.1-27.6-11.9-52.6c-0.9,17.7,1.9,37.9,12.1,38.3
			c2.5,0.1,4-2.2,6.7-8.4c6-15.3,7.1-43.3,25.6-52.1c1.3,8.3-0.1,20.4-2.1,31.3c-2.7,14.8,4.4,33.2,22.9,27.7
			c3.4-1,8.5-3.2,15.6-15.9c2.6-9.5-4-29.1-5.9-42.3c1.1-2.9,3.4-9.9,4.9-12.2c1.4,1.4,5.7,9.6,5.9,11.1c2.5,14,3,45.6,16.1,54.6
			c6.9,4.7,24.4,1,29.5-6.6c-4.1-6.3-15.8-29.2-17-44.2c-0.5-2.8-2-6.3-2.4-7.5L235.4-191.2z"/>
		<path d="M730.7-151.7l-6-5.5c4.2,28.6,8.1,54.4,14,90.7c2.9,18,9.6,57.7-12.5,79.6c-17.5,17.4-35.3,20.5-56.7,21.7
			c20.7-11.2,63.5-32.3,66-57.4c-1.5-17.9-9.1-58.2-13.7-90c-0.7-5.8-6.5-45.6-10.2-59.7l4.2-16l14.8,31.4L730.7-151.7z"/>
		<path d="M654.7-152l-6-5.5c4.2,28.6,7.8,53.3,13.7,89.7c2.9,18,8.3,44.8,2.6,59.3c-5.2,13.5-9.2,25-27,26.1
			c-27.4,1.7-22.4-36.9-38.6-36.5c-25.7,0.6-33.9,69.9-48.9,71.1c-19.5,1.1-33.1-40.8-20.7-66.7c-3.1,27.2,5.5,49.5,17.3,49.9
			c16.3,0.5,23.3-72.2,56.7-71.2c15.8,0.5,10.4,36.5,35.5,37.3c10.9,0.4,19.5-7.3,20.4-14.5c-1.5-17.9-9.3-65-13.9-96.8
			c-0.7-5.8-6.5-48.3-10.1-62.5l4.2-16l14.8,31.4L654.7-152z"/>
		<path d="M316.6-187.7c-2-0.1-5,5.6-4.7,7.7c0.4,2.3,0.9,2.6,2.7,3.2c-13.7,13.5-19.4,12.3-33.2,17c25.3,2.2,32.5-11,35.9-15.7
			c2.2,1.2,6.8,1.7,7.5,1.1c1.6-1.6,2.5-3.5,2.3-5.7c-0.5-1.6-3.7-7.2-5.7-8c0.3-1.8-4.4-4.7-5.6-3
			C315.4-190.4,317.1-188.9,316.6-187.7L316.6-187.7z M319.3-184.2c0.4,1.2,0.1,2.6-0.7,3.2C312.7-181.5,315.9-185.5,319.3-184.2z
			 M321.3-182.2c1.3,0.5,2.3,2.3,3.1,3.4c-2.4,0-2.8-0.1-4-0.7C320.5-180.4,320.8-181.3,321.3-182.2L321.3-182.2z"/>
		<path d="M442.1-122.4c-1.7-0.1-3.8,2.8-4.9,6.5c-1.2,4-1.6,6.4,5.7,10.5c1.3,5.8-19.7,20.5-26.8,25c19.6-3.7,26.2-14.2,29-23.2
			c2,1.8,3.8,1.9,3,8.9c0.9-1.3,3.3-3.8,2.5-8.6c-1.5-5.2-3.4-5.2-4.3-6.6C447.1-114.8,445.8-122,442.1-122.4L442.1-122.4z
			 M443.4-112.1c-0.5-0.4-3.2-2.6-3.9-3.7c0.5-1.3,2.2-1.1,3.1-0.5C443.5-115.7,443.5-112.2,443.4-112.1z"/>
		<path d="M395.2-74.8c1,1-1.8,13.1,2.9,12.8c4.4-0.7,1.7-8,1.4-11.7c0.7-1.4,1.3-2.6,2.4-3.3c0.9,1.4,1.4,2.5,2.3,4.6
			c0,1.6-1.1,7.6,2.7,8.2c3.8,0.3,0.5-7.5,0.3-10.2c0.7-2.5,2.6-4.4,2.6-4.4c7.7,21.4-1.8,25.2-7.4,19.2c-2.8,5.1-4.7,4.8-6,4.8
			c-5.4-0.2-4.1-11.1-4.5-11.3c-0.9,0.5-1.6,1.3-2.5,2.5l0.1-3.8L395.2-74.8z"/>
		<path d="M502.3-143.8c1,1-1.8,13.1,2.9,12.8c4.4-0.7,1.7-8,1.4-11.7c0.7-1.4,1.3-2.6,2.4-3.3c0.9,1.4,1.4,2.5,2.3,4.6
			c0,1.6-1.1,7.6,2.7,8.2c3.8,0.3,0.5-7.5,0.3-10.2c0.7-2.5,2.6-4.4,2.6-4.4c7.7,21.4-1.8,25.2-7.4,19.2c-2.8,5.1-4.7,4.8-6,4.8
			c-5.4-0.2-4.1-11.1-4.5-11.3c-0.9,0.5-1.6,1.3-2.5,2.5l0.1-3.8L502.3-143.8z"/>
		<path d="M278.7-154.5l-6.3-5.8c2.5,17.3,8.2,55,14,91.4c0.9,11.8,14.9,67.4,0.6,79.3c1.2-22.3-13-92.9-17.2-125.4
			c-0.7-5.8-6.8-48.9-10.4-61.1l4.4-15.4l15,30.9V-154.5z"/>
		<path d="M408.7-191.2c3.8,5.8,10.2,14,13.9,20.6c0.1,1.7-0.2,2.8-0.1,4.4c-6.4-3.7-1.7-1-5.7-3.2c4.7,9.2,14.1,29.8,13,42.7
			c-1.5,17.1-19.7,29.7-37.7,21.8c-9.5-4.2-13.2-18.9-13.2-18.9s-2,7.6-4.1,12.4c-5,11.8-27.5,20-39,7.2
			c-15.9-17.8-3.5-40.9-7.2-49.8c-13.2,25.5-6,54.7-23.1,54.9c-9.3-1.3-21-25.3-11.7-55.2c-0.9,17.7,1.7,40.5,12,41
			c2.5,0.1,4-2.2,6.7-8.4c6-15.3,7.1-43.3,25.6-52.1c1.3,8.3-0.1,20.4-2.1,31.3c-2.7,14.8,4.4,33.2,22.9,27.7
			c3.4-1,8.5-3.2,15.6-15.9c2.6-9.5-4-29.1-5.9-42.3c1.1-2.9,3.4-9.9,4.9-12.2c1.4,1.4,5.7,9.6,5.9,11.1c2.5,14,3,45.6,16.1,54.6
			c6.9,4.7,24.4,1,29.5-6.6c-4.1-6.3-15.8-29.2-17-44.2c-0.5-2.8-2-6.3-2.4-7.5L408.7-191.2z"/>
		<path d="M470.3-35.3c-14.5-1.6,4.8-33.7,12.7-34.4C471.2-56,471.9-51,472-49.1c0,2.1,2.5,5.1,5.5,1.9l1.1,0.8
			C478.4-45.4,475.9-34.6,470.3-35.3L470.3-35.3z"/>
		<path d="M517-80.8c-14.5-1.6,4.8-33.7,12.7-34.4c-11.8,13.8-11.1,18.7-11,20.6c0,2.1,2.5,5.1,5.5,1.9l1.1,0.8
			C525.1-91.1,522.6-80.3,517-80.8z"/>
		<path d="M557.1-96.7c-17.5-2,5.8-40.5,15.4-41.5c-14.2,16.5-13.4,22.5-13.3,24.8c0.1,2.6,2.9,6.2,6.6,2.3l1.3,0.9
			C566.9-108.9,563.9-95.9,557.1-96.7z"/>
		<path d="M566.8-31.2c-17.5-2,5.8-40.5,15.4-41.5c-14.2,16.5-13.4,22.5-13.3,24.8c0.1,2.6,2.9,6.2,6.6,2.3l1.3,0.9
			C576.6-43.4,573.5-30.4,566.8-31.2L566.8-31.2z"/>
		<path d="M608.5-86.2c-17.5-2,5.8-40.5,15.4-41.5c-14.2,16.5-13.4,22.5-13.3,24.8c0.1,2.6,2.9,6.2,6.6,2.3l1.3,0.9
			C618.2-98.4,615.2-85.4,608.5-86.2z"/>
		<path d="M579.8,43.6c-17.5-2,5.8-40.6,15.4-41.5c-14.2,16.5-13.4,22.5-13.3,24.8c0.1,2.6,2.9,6.2,6.6,2.3l1.3,0.9
			C589.6,31.3,586.5,44.3,579.8,43.6L579.8,43.6z"/>
		<path d="M312.8-11.8c-17.5-2,5.8-40.5,15.4-41.5c-14.2,16.5-13.4,22.5-13.3,24.8c0.1,2.6,2.9,6.2,6.6,2.3l1.3,0.9
			C322.5-24.1,319.5-11.1,312.8-11.8z"/>
		<path d="M379.6,46.8c-14.5-1.6,4.8-33.7,12.7-34.4c-11.8,13.8-11.1,18.7-11,20.6c0,2.1,2.5,5.1,5.5,1.9l1.1,0.8
			C387.6,36.6,385.2,47.5,379.6,46.8z"/>
		<path d="M227.2,47.7C212.6,46,232,14,239.9,13.2c-11.8,13.8-11.1,18.7-11,20.6c0,2.1,2.5,5.1,5.5,1.9l1.1,0.8
			C235.2,37.5,232.7,48.3,227.2,47.7L227.2,47.7z"/>
		<path d="M255.8,18c-19.8-2.2,6.5-46.1,17.5-47.2C257.1-10.3,258.1-3.5,258.2-1c0.1,2.8,3.3,7,7.6,2.6l1.5,1
			C266.8,4.1,263.4,18.9,255.8,18z"/>
	</g>
</g>
</svg>
