<?xml version="1.0" encoding="UTF-8" standalone="no"?>
<svg
   xmlns:dc="http://purl.org/dc/elements/1.1/"
   xmlns:cc="http://creativecommons.org/ns#"
   xmlns:rdf="http://www.w3.org/1999/02/22-rdf-syntax-ns#"
   xmlns:svg="http://www.w3.org/2000/svg"
   xmlns="http://www.w3.org/2000/svg"
   xmlns:sodipodi="http://sodipodi.sourceforge.net/DTD/sodipodi-0.dtd"
   xmlns:inkscape="http://www.inkscape.org/namespaces/inkscape"
   width="1024"
   height="512"
   enable-background="new 0 0 1024 683"
   version="1.1"
   viewBox="0 0 1024 512"
   xml:space="preserve"
   id="svg6"
   sodipodi:docname="Flag_of_the_Taliban_(Variant).svg"
   inkscape:version="0.92.4 (5da689c313, 2019-01-14)"><metadata
   id="metadata12"><rdf:RDF><cc:Work
       rdf:about=""><dc:format>image/svg+xml</dc:format><dc:type
         rdf:resource="http://purl.org/dc/dcmitype/StillImage" /><dc:title></dc:title></cc:Work></rdf:RDF></metadata><defs
   id="defs10" /><sodipodi:namedview
   pagecolor="#ffffff"
   bordercolor="#666666"
   borderopacity="1"
   objecttolerance="10"
   gridtolerance="10"
   guidetolerance="10"
   inkscape:pageopacity="0"
   inkscape:pageshadow="2"
   inkscape:window-width="2423"
   inkscape:window-height="1427"
   id="namedview8"
   showgrid="false"
   fit-margin-top="0"
   fit-margin-left="0"
   fit-margin-right="0"
   fit-margin-bottom="0"
   inkscape:zoom="0.97731889"
   inkscape:cx="574.28765"
   inkscape:cy="193.49334"
   inkscape:window-x="429"
   inkscape:window-y="312"
   inkscape:window-maximized="0"
   inkscape:current-layer="svg6" />  <rect
   width="1024"
   height="512"
   id="rect2"
   x="0"
   y="0"
   style="fill:#ffffff;fill-rule:evenodd;stroke-width:0.86581403" /><path
   d="m 675.51011,372.10423 c -14.701,-4.6493 -22.5,-16.847 -22.5,-35.191 0,-4.0395 -0.56474,-6.2551 -2.136,-8.3804 -1.8592,-2.5147 -2.0742,-3.8523 -1.6591,-10.321 0.68308,-10.644 4.5546,-18.386 14.29,-28.576 4.4619,-4.6703 7.3878,-8.5136 6.9816,-9.1709 -0.38458,-0.62227 -4.8117,-4.1909 -9.838,-7.9304 -5.0263,-3.7394 -13.404,-10.214 -18.617,-14.388 -5.2128,-4.1737 -9.7691,-7.2636 -10.125,-6.8664 -0.35595,0.39715 -0.003,9.2721 0.78395,19.722 0.81533,10.824 1.2624,26.745 1.0391,37 -0.38137,17.51 -0.47561,18.19 -3.4649,24.97 -1.6901,3.8333 -3.4939,7.11 -4.0085,7.2815 -0.52858,0.17619 -1.2468,-5.6843 -1.6508,-13.47 -0.39334,-7.5798 -2.1633,-30.59 -3.9332,-51.134 l -3.218,-37.352 -3.9723,-3.5406 c -15.48,-13.798 -25.557,-23.681 -31.737,-31.125 -3.9396,-4.7462 -10.443,-11.78 -14.451,-15.63 l -7.2886,-7 0.002,-7.75 c 0.002,-6.2157 0.29878,-7.75 1.4999,-7.75 4.0889,0 30.432,16.552 34.428,21.632 3.1022,3.9438 2.6462,4.6808 -2.4252,3.9203 -2.475,-0.37115 -4.5,-0.30299 -4.5,0.15146 0,1.3205 24.401,25.296 25.745,25.296 0.84439,0 1.0605,-1.2999 0.70669,-4.25 -0.28036,-2.3375 -1.6374,-17.931 -3.0156,-34.652 -1.3782,-16.721 -2.7527,-30.801 -3.0543,-31.289 -0.58724,-0.95017 7.6216,-13.724 8.8535,-13.778 2.0656,-0.0889 11.764,23.794 11.764,28.969 0,3.4516 -1.3104,4.5352 -3.0091,2.4884 -1.9508,-2.3505 -3.2012,-1.7416 -2.5895,1.261 0.30815,1.5125 1.4741,15.125 2.591,30.25 2.9344,39.737 1.3763,34.55 13.318,44.345 21.953,18.007 39.882,31.655 41.583,31.655 0.98076,0 9.5061,-6.1083 18.945,-13.574 14.183,-11.218 17.162,-14.017 17.162,-16.125 0,-3.4279 -10.911,-92.318 -11.611,-94.595 -0.65493,-2.1299 6.4528,-13.684 8.426,-13.697 1.4658,-0.01 7.8996,13.146 11.094,22.683 2.5584,7.6396 1.5103,11.928 -1.9084,7.8083 -1.7936,-2.1611 -2.7801,-1.8461 -2.349,0.75 0.20549,1.2375 1.9276,17.062 3.827,35.166 1.8994,18.104 3.8439,33.306 4.3212,33.784 0.70297,0.70297 33.787,-23.596 39.092,-28.712 1.1783,-1.1363 -0.27612,-3.1518 -9.5,-13.165 -5.9902,-6.5026 -14.154,-15.041 -18.141,-18.974 l -7.25,-7.1507 v -7.5993 c 0,-4.1796 0.30283,-7.5993 0.67296,-7.5993 0.76711,0 31.561,19.407 35.248,22.214 1.3317,1.0138 2.7618,1.493 3.178,1.0647 0.68867,-0.70869 -1.3184,-21.862 -2.5519,-26.896 -0.64967,-2.6511 6.9302,-14.824 8.5914,-13.797 1.5988,0.98813 10.522,20.036 12.007,25.632 1.4117,5.3189 0.72138,6.8046 -2.2883,4.925 -1.1285,-0.70479 -2.2526,-1.0807 -2.4979,-0.83542 -0.84349,0.84349 1.9758,22.769 3.1309,24.348 1.001,1.3689 2.9568,0.24872 14.583,-8.3522 7.3848,-5.4632 16.302,-11.876 19.816,-14.25 l 6.3892,-4.317 -1.1578,-16.406 4.0689,-5.7357 c 4.6752,-6.5902 4.8499,-6.5409 9.3104,2.6305 1.65,3.3926 3.454,6.3062 4.009,6.4748 0.55492,0.16857 6.6299,-4.1829 13.5,-9.67 6.8701,-5.4871 12.829,-9.9884 13.241,-10.003 1.1728,-0.0414 0.88454,2.7158 -0.67374,6.4453 -1.9778,4.7334 -8.9478,12.033 -16.075,16.835 -7.2891,4.911 -7.6203,5.3621 -6.8857,9.3786 0.79155,4.3275 -0.29619,5.914 -2.6156,3.8149 -1.1641,-1.0535 -2.0304,-1.2598 -2.4486,-0.58315 -0.35594,0.57592 0.25451,11.743 1.3566,24.815 1.102,13.072 2.4962,31.418 3.0982,40.768 1.5916,24.722 0.6567,22.166 11.27,30.805 24.729,20.128 36.724,37.554 36.724,53.355 0,5.6289 0.20982,6.4108 1.4452,5.3855 0.79485,-0.65967 2.2529,-3.5273 3.2401,-6.3724 2.5401,-7.321 2.1711,-18.439 -2.0304,-61.173 -1.9467,-19.8 -4.6977,-49.5 -6.1133,-66 -1.5426,-17.98 -3.2329,-32.102 -4.2188,-35.246 -1.6448,-5.2458 -1.6448,-5.2463 1.1475,-10.5 1.5358,-2.8897 3.5598,-6.0679 4.4977,-7.0628 1.625,-1.7236 1.8602,-1.441 4.9929,6 5.6172,13.342 10.145,26.571 9.8354,28.736 -0.21621,1.5124 -0.90439,1.9879 -2.5463,1.7596 -1.9444,-0.27036 -2.2492,0.1371 -2.2443,3 0.009,4.9697 2.6329,34.553 6.1043,68.813 4.9261,48.616 3.6582,66.112 -6.1581,84.973 -9.4953,18.244 -24.717,28.419 -52.952,35.397 -9.9315,2.4542 -26.648,5.6308 -29.631,5.6308 -2.9057,0 -1.1588,-1.8065 3.381,-3.4963 28.288,-10.529 56.112,-25.523 65.669,-35.388 3.9157,-4.0421 3.9178,-4.0486 2.6526,-8.3303 -1.9069,-6.453 -7.5095,-16.615 -12.562,-22.785 -5.4634,-6.672 -26.483,-25.931 -28.345,-25.971 -1.0687,-0.023 -1.1754,1.5189 -0.53462,7.7212 0.44039,4.2625 0.73291,16.326 0.65004,26.808 -0.14677,18.566 -0.22644,19.249 -3.0867,26.457 -1.6148,4.0693 -3.4033,7.5545 -3.9744,7.7449 -0.62275,0.20759 -1.2644,-2.5772 -1.603,-6.9571 -0.31052,-4.0168 -1.4796,-18.328 -2.5979,-31.803 -1.1183,-13.475 -2.3193,-28.412 -2.6688,-33.193 -0.76775,-10.501 0.27616,-9.3043 -23.849,-27.342 -16.609,-12.418 -21.014,-15.285 -21.989,-14.31 -0.26418,0.26419 1.0877,15.238 3.0042,33.276 2.8036,26.387 3.4846,36.815 3.4846,53.366 0,18.773 -0.1813,20.945 -2.0744,24.856 -5.7,11.775 -28.609,19.487 -44.319,14.92 -8.4244,-2.449 -16.356,-10.464 -20.026,-20.238 -1.4796,-3.9402 -3.3223,-7.4066 -4.0951,-7.7031 -2.7385,-1.0509 -10.623,2.6393 -15.854,7.4205 -5.7941,5.2955 -10.194,12.795 -13.567,23.127 -2.8282,8.6615 -7.0919,14.475 -12.376,16.874 -4.8473,2.2007 -6.696,2.2836 -12.188,0.54663 z m 8.4708,-12.086 c 4.0111,-2.0742 6.1601,-5.5176 10.524,-16.862 6.3816,-16.592 13.706,-25.629 25.727,-31.743 6.3391,-3.2241 12.129,-3.7538 15.468,-1.4152 1.1738,0.82214 4.0082,5.4346 6.2988,10.25 4.8772,10.253 7.7713,13.616 13.651,15.861 8.2486,3.1502 27.479,0.41595 34.818,-4.9506 1.7742,-1.2973 1.7282,-2.2609 -1.3502,-28.249 -1.7529,-14.798 -4.7554,-40.631 -6.6723,-57.406 -3.978,-34.812 -4.0092,-35 -5.8048,-35 -0.73295,0 -11.335,7.9875 -23.561,17.75 l -22.228,17.75 0.83003,8 c 1.3725,13.228 0.98082,25.409 -1.0025,31.178 -2.0925,6.086 -7.4675,13.926 -8.6964,12.685 -0.46947,-0.47429 -0.99253,-9.5034 -1.1623,-20.065 -0.2032,-12.637 -0.69797,-19.591 -1.4472,-20.338 -0.85032,-0.84853 -3.5075,0.70763 -10.5,6.1493 -16.286,12.674 -17.862,14.002 -17.862,15.055 0,0.56628 1.7662,3.0361 3.9249,5.4885 11.214,12.739 8.646,30.655 -5.5892,38.997 -7.2255,4.2344 -16.889,7.3386 -24.974,8.022 -4.0856,0.34536 -7.678,1.032 -7.9832,1.5258 -0.91551,1.4813 1.7069,10.922 4.6915,16.89 1.5368,3.0727 4.4154,7.0102 6.397,8.75 3.0201,2.6517 4.4141,3.1634 8.6177,3.1634 2.7582,0 6.307,-0.66821 7.8864,-1.4849 z m 45.626,-58.512 c 0.5485,-0.5485 4.7543,-2.8142 9.3463,-5.0348 10.045,-4.8574 21.056,-11.948 21.056,-13.558 0,-0.64126 -0.94069,-1.7905 -2.0904,-2.5539 -1.9367,-1.2859 -2.0286,-1.9016 -1.25,-8.372 0.7457,-6.1969 1.096,-7.0203 3.1078,-7.3058 5.5725,-0.79095 15.909,6.2098 18.246,12.358 1.5267,4.0156 -0.34654,7.4637 -4.0548,7.4637 -1.6998,0 -3.9201,-0.44398 -4.934,-0.98662 -1.499,-0.80224 -2.7132,-0.16511 -6.4972,3.4092 -2.5595,2.4177 -7.6629,5.9728 -11.341,7.9002 -10.097,5.2912 -24.728,9.8182 -21.59,6.6799 z m 44.403,-23.388 c 0,-1.7186 -4.7039,-4.916 -6.0282,-4.0976 -1.1072,0.68426 -1.3055,3.8154 -0.30508,4.8159 1.2779,1.2779 6.3333,0.70448 6.3333,-0.71832 z m -9,-1.9926 c 0,-2.0199 -2.4981,-3.7523 -4.3732,-3.0327 -1.6638,0.63846 -2.154,2.5497 -0.96008,3.7436 1.2354,1.2354 5.3333,0.68918 5.3333,-0.71089 z m -92.734,37.909 c 7.2907,-1.5449 18.004,-5.947 19.831,-8.1486 0.61939,-0.74632 0.86588,-2.3941 0.54773,-3.6616 -0.70381,-2.8042 -11.33,-13.721 -13.356,-13.721 -3.7119,0 -22.289,19.283 -22.289,23.136 0,3.9105 4.6638,4.6423 15.266,2.3956 z m 164.69,-76.282 c -0.16928,-7.2557 -5.7854,-66.41 -6.3595,-66.984 -0.40083,-0.40084 -1.9699,-0.0165 -3.4869,0.85414 -4.0936,2.3494 -33.396,24.43 -35.489,26.742 -3.5844,3.9607 -2.2169,5.38 28.876,29.969 7.7,6.0893 14.562,11.093 15.25,11.12 0.6875,0.0267 1.2316,-0.73893 1.2092,-1.7014 z m -61.959,-53.693 c 0,-2.4246 -0.65754,-3.9038 -2.2225,-5 -2.2378,-1.5674 -7.7775,-2.169 -7.7775,-0.84455 0,0.9849 8.2318,9.2878 9.2082,9.2878 0.43548,0 0.79179,-1.5495 0.79179,-3.4433 z m -518.82,185.5 c 0.92218,-0.58882 10.899,-4.8648 22.17,-9.5021 20.965,-8.6258 48.221,-20.809 61.712,-27.585 l 7.5586,-3.7964 2.7614,-7.0384 c 2.856,-7.2795 9.0221,-17.603 11.949,-20.004 2.699,-2.2148 2.0453,0.47027 -1.2972,5.3284 -4.8256,7.0138 -8.49,17.544 -6.1052,17.544 0.50879,0 5.7963,-2.7592 11.75,-6.1317 19.797,-11.214 37.338,-24.237 37.313,-27.703 -0.007,-0.91575 -1.1726,-3.69 -2.591,-6.165 -1.4184,-2.475 -6.133,-11.097 -10.477,-19.161 l -7.8977,-14.661 2.5613,-6.8391 c 1.4087,-3.7615 2.9805,-7.2684 3.4929,-7.7932 1.8954,-1.9414 17.923,16.181 17.923,20.265 0,1.4792 -0.4565,1.9511 -1.5,1.5506 -2.1845,-0.83827 -1.8698,0.6878 1.5726,7.626 6.2429,12.583 7.0657,27.198 1.9933,35.406 -4.5623,7.382 -21.061,20.645 -39.52,31.771 -6.6245,3.9927 -10.421,6.8844 -10.268,7.8202 0.58722,3.5795 18.679,2.9867 30.24,-0.99092 11.636,-4.0035 33.238,-17.266 52.808,-32.422 7.6256,-5.9058 8.7453,-7.1541 8.2362,-9.1825 -1.7744,-7.0696 -15.488,-37.318 -21.074,-46.482 -3.5684,-5.8547 -6.488,-11.114 -6.488,-11.687 0,-2.5562 4.4063,-12.22 5.5718,-12.22 1.6867,0 6.8431,6.4022 13.692,17 12.175,18.84 17.885,34.451 20.184,55.189 1.824,16.451 4.229,23.482 10.226,29.893 5.6043,5.9914 11.844,10.317 13.799,9.5663 0.83981,-0.32227 1.5269,-1.7238 1.5269,-3.1144 0,-3.1366 5.844,-9.7884 11.416,-12.995 4.2447,-2.4423 21.175,-8.1588 32.846,-11.09 13.082,-3.2861 8.4222,-3.7865 -29.678,-3.1877 -20.029,0.31482 -36.64,0.34832 -36.914,0.0745 -0.27387,-0.27387 0.33024,-3.499 1.3425,-7.167 1.4213,-5.1505 2.6487,-7.3716 5.3901,-9.7542 6.6082,-5.7433 35.099,-19.282 52.336,-24.87 2.881,-0.93395 5.476,-2.0828 5.7665,-2.5529 0.2905,-0.4701 -0.63789,-2.5732 -2.0632,-4.6735 -3.112,-4.5857 -2.7974,-7.4877 1.4863,-13.714 5.7515,-8.3595 10.729,-9.8368 21.049,-6.2476 7.2702,2.5283 19.454,9.0191 24.536,13.071 l 2.8158,2.2452 -5.9153,12.714 -11.457,2.0558 -11.457,2.0558 -0.16385,3.5 c -0.0901,1.925 -0.20262,4.2875 -0.25,5.25 -0.10296,2.0914 -3.0862,2.387 -3.0862,0.30576 0,-0.79433 -1.0465,-2.6608 -2.3255,-4.1477 l -2.3254,-2.7035 -11.925,3.7422 c -19.757,6.2 -36.425,13.781 -36.425,16.566 0,0.63933 21.858,0.98746 62,0.98746 49.283,0 62,0.25913 62,1.2634 0,1.2633 -6.6744,11.737 -7.4795,11.737 -2.2232,0 -43.364,8.018 -59.142,11.526 -27.281,6.066 -49.314,12.597 -55.274,16.385 -4.0574,2.5785 3.9212,6.5684 20.223,10.113 14.114,3.069 13.673,2.7174 13.673,10.895 0,3.8293 -0.39356,7.2057 -0.87458,7.503 -1.3133,0.81166 -22.707,-1.3305 -30.061,-3.01 -22.434,-5.1236 -38.152,-22.407 -43.372,-47.69 -0.65599,-3.1775 -1.6205,-5.8775 -2.1433,-6 -0.5228,-0.12246 -1.8728,2.1616 -3,5.0758 -2.3849,6.1657 -8.851,11.841 -27.049,23.74 -25.447,16.639 -48.942,24.843 -61.477,21.468 -4.295,-1.1565 -10.106,-5.9801 -12.588,-10.449 -1.0062,-1.8116 -1.6781,-1.6038 -12.179,3.7677 -12.907,6.6022 -21.935,9.2016 -49.059,14.126 -21.602,3.9219 -33.725,5.3298 -31.02,3.6026 z m 295.26,-110.37 c 2.713,-0.7034 5.1049,-1.7956 5.3154,-2.427 0.45834,-1.375 -5.5528,-4.5873 -11.663,-6.2326 -4.8278,-1.3 -11.085,-0.60557 -11.085,1.2302 0,0.63939 1.6663,2.869 3.703,4.9547 4.0856,4.1841 5.8854,4.5085 13.73,2.4747 z m 221.8,105.07 c 1.1232,-1.7152 8.1677,-4.6028 29.64,-12.149 15.491,-5.4445 28.471,-9.5945 28.843,-9.2222 2.0135,2.0135 -5.6121,5.5897 -30.354,14.236 -14.772,5.1619 -27.475,9.3853 -28.23,9.3854 -1.1326,7e-5 -1.1149,-0.39249 0.10135,-2.2499 z m -588.73,0.62416 c -1.1,-0.21662 -4.475,-0.88454 -7.5,-1.4843 -6.885,-1.365 -16.802,-5.9854 -19.881,-9.2629 l -2.3387,-2.4894 -20.14,0.5673 c -11.077,0.31202 -19.819,0.22266 -19.427,-0.19856 0.39222,-0.42123 7.8172,-2.872 16.5,-5.4461 l 15.787,-4.6802 0.1272,-10.94 c 0.10009,-8.6079 0.67849,-12.781 2.7133,-19.579 2.9078,-9.7129 7.4065,-20.448 8.2258,-19.628 0.29724,0.29724 -0.21668,4.277 -1.142,8.8438 -2.1616,10.668 -1.5483,22.44 1.5434,29.626 1.2194,2.8346 2.873,5.4054 3.6746,5.713 3.2258,1.2379 42.139,-14.457 63.358,-25.554 11.603,-6.0683 27.625,-16.275 33.906,-21.598 3.738,-3.1685 3.8337,-5.8985 0.357,-10.183 -1.7462,-2.1518 -1.828,-2.1568 -8.7627,-0.53522 -9.62,2.2494 -26.667,1.7034 -31.189,-0.99913 -4.8466,-2.8965 -6.7306,-7.1884 -6.05,-13.783 1.0054,-9.7409 6.7124,-17.604 15.739,-21.685 5.4846,-2.4798 11.041,-2.6152 17.572,-0.42817 3.7262,1.2478 6.6898,3.4512 12.151,9.0341 l 7.2229,7.3838 4.2771,-2.1467 c 2.3524,-1.1807 6.6081,-3.8869 9.4572,-6.0137 6.7844,-5.0647 12.805,-8.1556 15.031,-7.7169 1.455,0.28668 1.7887,1.3639 1.7887,5.7733 0,5.0449 0.23569,5.5809 3.3979,7.7283 3.3976,2.3073 10.438,3.1912 11.517,1.4458 0.45801,-0.74108 -3.1476,-28.735 -12.465,-96.777 l -2.2099,-16.139 3.3801,-5.5828 c 1.859,-3.0706 3.9555,-5.5956 4.6588,-5.6112 1.3612,-0.0302 11.458,19.691 13.4,26.174 0.87836,2.9317 0.87667,4.1427 -0.007,5.0264 -0.88554,0.88554 -1.5045,0.69874 -2.5861,-0.78052 -0.78209,-1.0696 -1.752,-1.6146 -2.1554,-1.2113 -0.4034,0.4033 0.70495,10.978 2.463,23.498 1.758,12.521 4.4138,32.665 5.9017,44.765 3.0271,24.617 3.2898,25.132 8.9284,17.5 7.47,-10.11 9.4471,-12.117 11.63,-11.806 1.6228,0.23133 2.0876,0.91596 1.9051,2.806 -0.79024,8.1839 -0.52181,8.6866 5.3691,10.055 4.8221,1.12 15.998,0.10125 17.398,-1.586 0.73976,-0.89135 0.55251,-2.2852 -0.64409,-4.7945 -1.6802,-3.5235 -1.6733,-3.561 1.7156,-9.273 1.8715,-3.1544 3.8527,-5.6515 4.4027,-5.5492 2.7915,0.51915 3.7273,18.294 1.2714,24.148 -2.183,5.2035 -6.6743,10.051 -11.23,12.12 -7.6343,3.4678 -19.002,1.5789 -23.946,-3.9791 -1.0478,-1.1777 -2.3247,-2.1412 -2.8376,-2.1412 -0.5129,0 -2.8729,2.1375 -5.2443,4.75 l -4.3117,4.75 0.52277,11 c 0.50482,10.622 0.41133,11.288 -2.7211,19.374 -2.7181,7.0164 -4.3996,9.5914 -10.374,15.885 -25.067,26.41 -60.442,44.235 -100.63,50.704 -8.6597,1.394 -24.556,1.8851 -29.5,0.91146 z m 30,-16.892 c 19.505,-2.9379 39.23,-9.264 57.135,-18.324 22.567,-11.419 46.496,-30.242 46.289,-36.411 -0.0415,-1.2359 -0.60396,-6.0721 -1.25,-10.747 l -1.1746,-8.5 -7.184,-0.0734 c -8.8116,-0.0901 -13.873,-2.8994 -16.761,-9.3035 -1.0226,-2.2677 -2.3655,-4.1231 -2.9843,-4.1231 -0.6188,0 -3.4065,1.6875 -6.195,3.75 -2.7885,2.0625 -6.3514,4.6799 -7.9176,5.8165 -2.5146,1.8248 -2.9225,2.8831 -3.4876,9.0485 -0.71827,7.8362 -4.5166,17.235 -8.7776,21.72 -11.296,11.889 -42.013,29.537 -70.693,40.614 -6.05,2.3367 -11.414,4.6403 -11.92,5.1191 -3.1662,2.9976 18.563,3.8772 34.92,1.4135 z m 32,-85.982 c 0,-1.774 -8.7997,-5.5 -12.989,-5.5 -4.9852,0 -9.1524,2.5218 -7.4857,4.5301 0.61616,0.74243 2.1001,1.5491 3.2977,1.7926 4.045,0.82254 17.177,0.19358 17.177,-0.8227 z m 193.18,97.661 c -0.8449,-2.1116 -2.1085,-6.6101 -2.808,-9.9967 l -1.2718,-6.1574 3.1994,-3.3009 c 1.7597,-1.8155 3.1994,-4.248 3.1994,-5.4055 0,-2.9648 5.2605,-4.7622 8.8787,-3.0337 5.5238,2.6388 2.9001,9.7335 -3.5995,9.7335 -7.1852,0 -8.6659,2.8183 -5.7793,11 1.6545,4.6895 2.0037,11 0.60858,11 -0.49028,0 -1.5827,-1.7277 -2.4276,-3.8393 z m 289.32,-0.0128 c 0,-3.8368 -3.6344,-8.9901 -8.7757,-12.443 -3.0316,-2.036 -4.2243,-3.5243 -4.2243,-5.271 0,-3.197 1.8038,-3.083 6.6389,0.41946 6.3878,4.6273 10.11,12.278 8.7064,17.897 -0.79688,3.1899 -2.3453,2.7924 -2.3453,-0.60212 z m -169.76,-4.182 c -1.242,-0.49907 -2.7787,-2.05 -3.415,-3.4465 -1.0023,-2.1999 -0.83654,-2.8801 1.2411,-5.0916 1.3189,-1.4039 3.8681,-3.4611 5.665,-4.5717 4.4905,-2.7753 4.1902,-4.2432 -0.73294,-3.5829 -2.8661,0.38443 -4,0.173 -4,-0.74588 0,-3.3365 8.2648,-5.365 15.495,-3.803 6.0699,1.3114 5.5616,3.4074 -1.655,6.8252 -13.194,6.2487 -14.752,10.45 -3.8762,10.45 3.1452,0 7.9276,-0.67013 10.628,-1.4892 5.8839,-1.7849 5.4089,-1.7438 5.4089,-0.46836 0,0.57336 -2.8125,2.373 -6.25,3.9992 -6.4796,3.0654 -13.779,3.8243 -18.508,1.9242 z m 43.783,-7.3994 c -0.65724,-1.7287 -0.61849,-3.464 0.11871,-5.3164 l 1.0944,-2.75 0.94888,2.7042 c 0.52188,1.4873 1.8438,2.9883 2.9377,3.3354 2.8828,0.91495 1.9189,3.8956 -1.383,4.2767 -2.1698,0.25045 -2.9443,-0.2184 -3.7167,-2.25 z m -490.64,-29.094 c -2.0728,-2.0728 -2.4053,-3.1079 -1.847,-5.75 0.93943,-4.4459 6.1383,-14.066 9.1106,-16.858 2.3611,-2.2181 2.3315,-2.0378 -0.74363,4.5336 -3.957,8.456 -3.4032,11.907 1.9941,12.425 1.8475,0.17757 3.8419,-0.15993 4.432,-0.75 0.59006,-0.59006 1.6157,-1.0728 2.2792,-1.0728 1.8681,0 0.48681,3.6887 -2.6312,7.0265 -3.6624,3.9207 -8.9325,4.1071 -12.594,0.4456 z m 86.619,-9.7221 c 2.2e-4,-6.053 -3.851,-50.293 -6.2981,-72.348 l -1.2022,-10.835 -3,-0.72009 c -10.463,-2.5114 -12.994,-3.4226 -16.439,-5.9181 -5.3484,-3.8744 -9.195,-12.066 -9.8294,-20.932 -0.42237,-5.9033 -0.007,-8.4843 2.8115,-17.486 3.4966,-11.166 3.3038,-13.838 -0.83834,-11.621 -5.473,2.9291 -12.632,16.892 -15.182,29.61 -1.9509,9.7318 -7.3846,20.05 -12.252,23.266 -7.0237,4.6405 -17.64,3.3134 -23.473,-2.9343 -5.7439,-6.1518 -7.649,-19.056 -4.8515,-32.863 2.1896,-10.806 3.8458,-13.727 2.8172,-4.9688 -2.2611,19.253 0.39408,29.523 8.7256,33.75 8.4905,4.3076 17.024,2.066 20.875,-5.4838 1.0697,-2.0967 3.3791,-8.7359 5.1322,-14.754 4.932,-16.931 11.958,-29.35 22.053,-38.979 9.4872,-9.0492 10.269,-5.4689 3.4863,15.966 -6.2049,19.609 -5.292,28.087 3.6628,34.013 4.744,3.1394 12.397,5.2912 13.806,3.882 1.0438,-1.0438 -4.2613,-62.382 -5.58,-64.516 -0.66134,-1.0701 7.4625,-13.879 8.8025,-13.879 2.5472,0 13.801,29.371 11.959,31.213 -0.80306,0.80306 -1.5276,0.74936 -2.6688,-0.19782 -0.86161,-0.71507 -1.8635,-1.0031 -2.2265,-0.64016 -0.74334,0.74334 3.2744,46.114 4.2189,47.642 0.96285,1.5579 3.6056,1.145 8.9894,-1.4046 6.7569,-3.1999 11.228,-7.8683 14.787,-15.439 2.6299,-5.5951 2.9605,-7.3297 2.859,-15 -0.13015,-9.8362 -1.4866,-17.47 -4.2497,-23.916 -1.0427,-2.4326 -1.8959,-5.7536 -1.8959,-7.3799 0,-3.7002 3.5755,-10.877 5.4189,-10.877 0.806,0 2.4539,3.0101 3.969,7.25 2.9952,8.3818 3.8963,12.324 6.1138,26.75 0.88773,5.775 2.3248,12.715 3.1934,15.421 1.9574,6.0992 8.0613,12.883 14.765,16.409 4.3639,2.2956 6.2477,2.6525 14.04,2.6605 7.2132,0.007 9.6739,-0.38785 12.394,-1.9908 5.8898,-3.4703 5.8739,-3.9054 -0.63824,-17.532 -3.2772,-6.8574 -8.774,-19.072 -12.215,-27.143 l -6.2565,-14.675 2.5524,-5.5751 c 3.6555,-7.9847 5.4457,-7.4991 14.124,3.8309 5.5467,7.2417 6.5882,10.761 2.5443,8.5967 -4.5228,-2.4205 -4.0758,-0.13234 2.897,14.831 8.613,18.484 9.7228,24.332 6.6078,34.821 -3.4926,11.761 -12.347,18.345 -24.669,18.345 -13.688,0 -24.981,-7.4093 -31.76,-20.839 -1.7105,-3.3884 -3.2899,-6.1608 -3.5099,-6.1608 -0.22,0 -2.2153,3.7506 -4.4341,8.3346 -4.8276,9.9738 -11.332,17.514 -18.998,22.023 -4.5093,2.6523 -5.6129,3.8003 -5.5087,5.7297 0.0717,1.3271 0.9204,12.944 1.886,25.816 1.0721,14.292 1.5587,28.502 1.25,36.5 -0.45942,11.9 -0.78588,13.714 -3.5733,19.847 -1.6872,3.7125 -3.5459,6.75 -4.1304,6.75 -0.63696,0 -1.0626,-2.504 -1.0625,-6.25 z m 155.41,-17.5 c -1.3058,-4.3654 -3.2456,-6.8747 -6.5077,-8.4183 -4.3241,-2.0462 -6.3178,-4.3164 -5.5494,-6.319 0.99123,-2.5831 3.5405,-1.689 8.5532,2.9998 5.2339,4.8957 5.6261,4.8306 8.0758,-1.34 0.72655,-1.8301 2.353,-4.0036 3.6143,-4.8301 1.9526,-1.2794 2.708,-1.3039 5.0844,-0.16493 1.5351,0.73575 2.951,2.1684 3.1466,3.1838 0.31581,1.6399 -0.10543,1.7682 -3.7724,1.1486 -6.0238,-1.0177 -7.7317,1.0886 -9.5198,11.74 -0.6625,3.9465 -2.2408,4.9565 -3.1251,2 z m 224.59,-6.948 c 0,-0.47131 2.8769,-2.1103 6.3932,-3.6421 6.7405,-2.9365 14.607,-8.9225 14.607,-11.115 0,-0.7148 -0.675,-1.8598 -1.5,-2.5445 -3.3896,-2.8132 0.0167,-8 5.2539,-8 2.6181,0 2.8484,0.48237 3.6999,7.75 0.57383,4.8978 0.47069,5.25 -1.5373,5.25 -1.1838,0 -3.6938,1.3534 -5.5777,3.0075 -5.9051,5.1848 -21.339,11.907 -21.339,9.2945 z m -461,-4.647 c 0,-2.4368 3.2529,-4.2189 27.42,-15.022 22.778,-10.182 28.047,-11.703 23.87,-6.8912 -1.576,1.8155 -48.018,23.258 -50.374,23.258 -0.50385,0 -0.91609,-0.60526 -0.91609,-1.345 z m 2.5104,-19.942 c 12.265,-6.3451 21.49,-12.183 21.49,-13.601 0,-0.43529 -1.1742,-1.3264 -2.6093,-1.9803 -2.271,-1.0347 -2.5254,-1.6067 -1.9621,-4.4105 0.35595,-1.7719 0.74265,-5.0216 0.85933,-7.2216 l 0.21214,-4 4.2053,0.083 c 8.1093,0.16007 18.713,10.463 16.699,16.226 -0.71415,2.0437 -1.7062,2.7652 -4.126,3.0006 -1.7522,0.17045 -4.0694,-0.163 -5.1494,-0.74101 -1.6589,-0.88782 -2.6836,-0.35128 -6.6019,3.457 -5.0204,4.8793 -16.792,11.287 -25.466,13.863 -10.324,3.0659 -9.5092,1.5107 2.4494,-4.6759 z m 34.49,-18.098 c 0,-1.7186 -4.7039,-4.916 -6.0282,-4.0976 -1.1072,0.68426 -1.3055,3.8154 -0.30508,4.8159 1.2779,1.2779 6.3333,0.70448 6.3333,-0.71832 z m -9.3319,-1.1926 c 0.33295,-0.86765 -0.13118,-2.3141 -1.0314,-3.2143 -1.5156,-1.5157 -1.7662,-1.5054 -3.3867,0.13866 -1.6672,1.6914 -1.6582,1.8435 0.19113,3.2143 2.4928,1.8478 3.4771,1.8156 4.227,-0.13866 z m 321.97,11.505 c -2.148,-1.6896 -2.6349,-2.9028 -2.6349,-6.5657 0,-4.6427 1.3499,-8.3617 3.0352,-8.3617 0.53065,0 0.96482,1.6046 0.96482,3.5657 0,6.6103 3.0901,9.0619 8.0657,6.3991 1.4976,-0.80152 1.9343,-2.1127 1.9343,-5.8089 0,-5.0566 1.927,-8.9372 3.8483,-7.7497 0.63343,0.39149 1.1616,1.4727 1.1737,2.4028 0.0427,3.2871 3.8007,9.9999 5.9866,10.694 3.3774,1.072 4.42,-0.77334 2.5166,-4.4542 -1.9323,-3.7367 -1.6829,-8.5485 0.4431,-8.5485 2.5728,0 6.1666,7.5162 5.6553,11.828 -0.84999,7.167 -6.3158,9.7393 -12.692,5.9729 -2.7586,-1.6296 -3.038,-1.609 -6.7904,0.5 -4.8911,2.749 -8.1275,2.7846 -11.506,0.1269 z m 190.37,-5.4044 c 0,-0.81232 1.0125,-2.1329 2.25,-2.9346 3.3786,-2.1888 46.892,-21.588 48.423,-21.588 1.6642,0 1.6914,1.1419 0.0774,3.2519 -1.1769,1.5387 -47.544,22.748 -49.731,22.748 -0.5602,0 -1.0186,-0.66463 -1.0186,-1.477 z m -99,-11.928 c 0,-0.22274 1.9125,-1.5299 4.25,-2.9048 9.4863,-5.5798 11.597,-11.469 3.7318,-10.415 -2.19,0.29374 -3.9818,0.11698 -3.9818,-0.3928 0,-1.2557 8.9896,-6.8828 10.996,-6.8828 4.7924,0 5.3422,6.4065 0.97659,11.379 -3.5016,3.9881 -11.88,9.6213 -14.31,9.6213 -0.91435,0 -1.6624,-0.18224 -1.6624,-0.40498 z m -174.08,-9.5161 c -5.4342,-1.0766 -10.221,-4.5052 -12.955,-9.2795 -2.2402,-3.9123 -2.4619,-5.3798 -2.4619,-16.299 0,-11.766 1.7713,-22.932 3.8408,-24.211 0.62175,-0.38426 0.71562,0.10541 0.24855,1.2966 -0.41277,1.0527 -1.002,6.8922 -1.3093,12.977 -0.61133,12.102 0.28577,16.684 4.3265,22.098 4.8337,6.4764 16.721,8.1832 22.087,3.1712 3.5295,-3.2966 4.8453,-6.1934 8.3986,-18.491 4.9754,-17.219 13.29,-31.908 23.268,-41.105 4.9144,-4.53 6.3756,-5.0892 7.2619,-2.7796 0.66712,1.7385 -0.37677,6.206 -5.034,21.544 -5.3023,17.462 -4.601,25.837 2.6249,31.349 5.7114,4.3563 11.329,5.8584 22.287,5.9592 8.7148,0.0802 10.707,-0.23437 15.5,-2.448 7.6706,-3.5426 11.129,-6.7664 15.083,-14.058 3.3485,-6.1756 3.4149,-6.531 3.3256,-17.801 -0.078,-9.8516 -0.47965,-12.575 -2.8019,-19 -1.491,-4.125 -2.9527,-8.4482 -3.2482,-9.6071 -0.67496,-2.6468 3.4282,-12.393 5.2176,-12.393 1.4451,0 4.7355,6.7369 6.5214,13.352 0.61586,2.2813 2.3848,11.507 3.9309,20.501 3.1645,18.408 5.2342,23.076 12.787,28.837 7.6117,5.8057 19.951,7.9104 28.501,4.8614 7.2407,-2.5824 9.4459,-6.5904 6.1864,-11.244 -3.0863,-4.4063 -21.503,-46.39 -21.503,-49.02 0,-3.1156 4.2861,-11.288 5.9202,-11.288 1.9089,0 7.3619,5.4272 11.957,11.9 3.7607,5.298 3.9066,6.5134 0.68457,5.7047 -1.3413,-0.33665 -2.7054,-0.18062 -3.0313,0.34671 -0.32591,0.52734 2.0908,6.7165 5.3706,13.754 7.2857,15.633 9.5406,23.082 8.6789,28.671 -1.8635,12.086 -7.0484,19.859 -15.742,23.599 -7.1209,3.0633 -18.006,2.5434 -25.357,-1.2112 -6.3168,-3.2264 -13.623,-10.971 -17.167,-18.198 -1.5013,-3.0611 -2.9734,-5.5643 -3.2713,-5.5627 -0.29792,0.002 -2.2726,3.6806 -4.3882,8.1755 -8.989,19.098 -25.564,28.958 -43.446,25.844 -15.494,-2.6982 -22.212,-10.364 -23.012,-26.26 -0.37302,-7.4178 -0.0434,-10.008 2.1823,-17.146 4.2736,-13.707 3.0673,-16.078 -4.1799,-8.2154 -5.6031,6.0786 -7.8797,10.976 -11.287,24.283 -3.0839,12.043 -4.5861,15.731 -8.5808,21.067 -4.0069,5.3527 -10.474,7.7027 -17.414,6.3278 z m 488.12,-3.8687 c -0.0556,-7.4999 -4.5376,-13.875 -13.782,-19.602 -4.4421,-2.7522 -5.6428,-6.2073 -2.9375,-8.4525 1.7074,-1.417 10.147,4.1356 14.036,9.2351 5.5078,7.221 7.4185,16.89 4.183,21.168 -1.3653,1.8051 -1.4704,1.6404 -1.5,-2.3487 z m -548.03,-2.5877 c 0,-0.75765 0.5625,-1.8216 1.25,-2.3643 2.138,-1.6878 32.549,-15.258 34.193,-15.258 2.054,0 1.974,1.3291 -0.19309,3.2045 -1.6841,1.4574 -33.016,15.796 -34.516,15.796 -0.40358,0 -0.73379,-0.6199 -0.73379,-1.3776 z m 332,-7.6224 c -2.2837,-2.2837 -2.6948,-8.3811 -0.83948,-12.453 1.6371,-3.593 2.8395,-3.1616 2.8395,1.0187 0,5.1403 1.5362,7.4343 4.9785,7.4343 3.7796,0 6.0215,-3.2019 6.0215,-8.6001 0,-2.4587 0.60755,-4.6593 1.4882,-5.3901 1.6339,-1.356 1.3926,-1.7278 3.5623,5.4902 1.4428,4.7997 3.6194,7.5 6.0455,7.5 2.8534,0 3.1237,-1.6492 0.96406,-5.8823 -1.9471,-3.8166 -1.9544,-4.0266 -0.21504,-6.1746 l 1.8006,-2.2236 2.6772,4.5683 c 6.3937,10.91 0.46478,19.692 -9.9051,14.672 l -4.3915,-2.1259 -2.6479,2.0829 c -3.4926,2.7473 -9.6725,2.7886 -12.378,0.0829 z m -393,-19.852 c 0,-3.8368 -3.6344,-8.9901 -8.7757,-12.443 -4.094,-2.7496 -5.4424,-5.834 -3.1656,-7.2412 1.5582,-0.96304 8.8709,4.459 11.49,8.5193 2.6356,4.0861 3.8745,9.1086 2.9585,11.994 -0.94487,2.977 -2.5071,2.4601 -2.5071,-0.82965 z m 179.79,-7.6566 c -3.1521,-1.7581 -4.5365,-6.9096 -3.1531,-11.733 1.2643,-4.4085 3.3595,-4.7601 3.3595,-0.56385 0,1.8485 0.70052,4.361 1.5567,5.5833 3.3423,4.7718 9.4433,1.092 9.4433,-5.6957 0,-8.2614 2.8955,-9.6606 4.8522,-2.3447 1.5211,5.6871 3.6417,8.2629 6.8028,8.2629 2.7881,0 2.8866,-0.79651 0.67243,-5.4396 -1.3608,-2.8536 -1.4532,-3.9889 -0.49575,-6.0903 1.4506,-3.1836 2.3099,-2.7 5.5715,3.1356 2.2254,3.9817 2.4413,5.1311 1.6366,8.7128 -1.525,6.7873 -6.4254,8.5729 -12.823,4.6724 -3.2793,-1.9994 -3.2863,-1.9994 -6,-0.01 -3.744,2.7448 -8.1626,3.329 -11.423,1.5104 z m -59.222,-3.0627 c -2.4249,-2.4249 -1.8906,-6.1818 1.9286,-13.562 3.7994,-7.3418 4.4126,-11.864 1.8921,-13.956 -1.3882,-1.1521 -1.889,-0.92967 -3.6655,1.6276 -4.355,6.269 -13.56,14.162 -19.173,16.44 -3.0941,1.2558 -5.9469,1.9378 -6.3396,1.5156 -0.39273,-0.42219 -0.13047,-0.97555 0.58281,-1.2297 3.3297,-1.1863 17.325,-12.55 19.625,-15.934 3.3101,-4.8712 3.245,-6.0481 -0.4496,-8.1266 -6.3312,-3.5619 -3.9856,-10.203 3.6036,-10.203 3.6596,0 5.4244,2.0486 5.4244,6.2968 0,1.3355 1.35,4.127 3,6.2032 3.9325,4.9484 3.8273,8.3284 -0.5,16.066 -1.925,3.4422 -3.5,7.198 -3.5,8.3461 0,2.4498 2.207,2.748 4.0352,0.54514 2.1321,-2.569 3.3322,-0.0687 1.5869,3.3063 -2.2346,4.3212 -5.3597,5.3556 -8.0506,2.6646 z m -1.5714,-38.37 c 0,-1.3504 -1.8229,-2.2865 -3.0163,-1.5489 -0.55897,0.34546 -0.75742,1.047 -0.44098,1.559 0.75067,1.2146 3.4573,1.2067 3.4573,-0.0101 z m 260.39,35.961 c -4.9445,-1.9979 -3.3132,-7.2666 3.1011,-10.016 5.141,-2.2037 36.309,-12.364 41.26,-13.45 2.5532,-0.56014 3.25,-0.38734 3.25,0.80593 0,1.0424 -2.7454,2.3446 -8.75,4.1504 -16.296,4.9009 -35.577,11.516 -36.995,12.693 -1.188,0.98595 -1.06,1.4351 0.81103,2.8465 1.2302,0.92793 1.908,2.1833 1.5188,2.813 -0.80928,1.3094 -1.2993,1.3278 -4.1957,0.1575 z m -530.39,-12.73 c -3.1091,-1.1432 -5,-3.6956 -5,-6.7492 0,-4.0401 4.0456,-12.152 8.5492,-17.142 l 3.5189,-3.8991 -3.034,6.2215 c -3.3921,6.9558 -3.7866,10.383 -1.4626,12.707 1.9705,1.9705 3.7352,1.9813 7.4782,0.0457 3.3471,-1.7309 3.7125,-0.84887 1.456,3.5146 -2.572,4.9737 -6.9328,6.983 -11.506,5.3016 z m 229.54,-1.9796 c -1.014,-4.0401 -4.1606,-7.9526 -9.1649,-11.396 -4.5676,-3.1426 -5.5111,-6.0733 -2.1628,-6.7181 2.2302,-0.4295 10.715,7.4328 12.433,11.521 1.5288,3.6378 1.809,9.2821 0.46079,9.2821 -0.49038,0 -1.1953,-1.21 -1.5665,-2.689 z m -99.488,-2.7457 c -1.4548,-1.753 -1.003,-7.7641 0.62365,-8.2976 0.67326,-0.22081 1.3159,0.8172 1.5,2.423 0.25732,2.244 0.82519,2.8093 2.8221,2.8093 2.0359,0 2.5628,-0.55693 2.8385,-3 0.18616,-1.65 0.84477,-3.6119 1.4636,-4.3598 0.89763,-1.0849 1.4779,-0.52894 2.8705,2.75 2.3695,5.5792 5.0974,5.6504 4.2114,0.10979 -0.50844,-3.1796 -0.33065,-4 0.86686,-4 1.9244,0 4.0006,4.9593 3.5759,8.5416 -0.47412,3.9994 -2.925,5.1862 -7.3818,3.5746 -2.6513,-0.95871 -3.9435,-1.0178 -4.7443,-0.21692 -1.5772,1.5772 -7.2418,1.3584 -8.6464,-0.33403 z m 316.95,-2.5653 c -2.62,-2.62 -2.5139,-6.3577 0.3546,-12.5 2.3248,-4.978 7.5188,-11.96 8.3093,-11.169 0.22828,0.22828 -0.72772,2.5643 -2.1244,5.1912 -2.7456,5.1637 -3.2454,9.3723 -1.3395,11.278 1.5424,1.5424 7.0469,1.5531 8.5833,0.0167 0.65084,-0.65084 1.4764,-0.89027 1.8346,-0.53207 1.0278,1.0278 -1.6792,6.6449 -3.9783,8.2552 -3.0649,2.1467 -9.2395,1.8603 -11.64,-0.53986 z m -102.57,-4.5306 c -0.67707,-3.6091 -4.0997,-7.7517 -10.302,-12.469 -2.3734,-1.8052 -3.0958,-2.9863 -2.5994,-4.25 1.0735,-2.7329 3.1383,-2.099 8.1434,2.5 4.9891,4.5843 7.33,8.9464 7.33,13.659 0,4.3468 -1.7883,4.7366 -2.5717,0.56051 z m 202.79,-0.69574 c -2.1624,-4.8773 -3.573,-6.2237 -7.5051,-7.1637 -3.0102,-0.71957 -5.5272,-5.1974 -3.8592,-6.8654 1.2455,-1.2455 4.7407,0.62841 9.3042,4.9885 3.9978,3.8196 5.2616,3.7246 6.3036,-0.47359 0.92262,-3.7172 4.3872,-7.2594 7.1002,-7.2594 3.2017,0 6.6661,3.1227 5.4958,4.9538 -0.79109,1.2377 -1.3037,1.2533 -3.4489,0.10528 -2.1698,-1.1612 -2.8663,-1.1214 -5.0154,0.28676 -2.5373,1.6625 -4.5792,6.9326 -4.5894,11.845 -0.009,4.3639 -1.7512,4.1718 -3.7858,-0.41735 z"
   id="path4"
   inkscape:connector-curvature="0"
   style="fill:#0e7a0c" />
</svg>