<?xml version="1.0" encoding="UTF-8"?><svg id="a" xmlns="http://www.w3.org/2000/svg" width="3276.95" height="2182.9" viewBox="0 0 3276.95 2182.9"><rect width="3276.95" height="2182.9" fill="#bf0000"/><path d="m1598.25,1710.47c-4.84-2.13-10.18-2.87-13.86-7.77-6.31-6.89-10.48,5.92-26.15,2.35-5.38-.23-8.56-3.04-11.28-7.28-2.22-3.47-5.53-4.56-9.4-2.34-6.55,3.76-13.84,2.53-20.87,3.33-9,1.03-16.02-3.41-23.61-6.81-21.37-8.25-26.52-33.64-22.59-54.03,3.12-10.54,5.98-21.28,8.18-32.11,3.55-14.7,10.57-29.22,3.25-43.77-5.27-9.61,16.64-31.84,20.36-18.43,8.51,27.44-1.51,54.58-7.03,81.59-4.36,11.89-6.38,24.6.37,36.03,3.9,10.02,12.35,17.05,23.15,17.02,26.42,6.11,29.4-25.04,41.26-2.34,11.35,21.09,18.1-7.67,30.23,3.44,6.39,8.22,11.77,3.19,8.93-5.77-3.11-9.31-3.75-17.53,6.97-21.58,11.62,7.68,12.19,27.17,12.13,40.24-.23,10.9-10.21,17.7-20.04,18.24h0Z" fill="#fff"/><path d="m2070.75,909.04c-20.77,1.95-43.08,4.47-63.18,1.35-8.11,3.35-16.1.16-23.99.21-8.66.06-10.27-.06-7.58-9.66,4.1-11.38-14.4-18.32-3.74-21.02,15.85-5.6,31.84-11.5,49.05-9.79,7.56-.22,4.72,6.61,5.75,11.42,2.94.77,5.39,1.42,7.97,2.09,3.79-4.41,7.55-8.79,10.56-12.28-5.91-18.93-17.99-23.37-36.58-21.71-22.42,2.08-44.11,10.08-59.96,26.01,1.15-4.54-1.04-17.9,3.78-17.68.67-.09,1.16-1.64,1.73-2.51-1.97-.99-3.25-1.68-5.39-.26-1.26-8.25-.34-35.6-13.94-29.37-4.87,4.88-9.78,9.76-9.36,17.77.63,9.74-.21,19.67.21,29.38,3.25,9.86,1.79,19.99,1.91,30.03-.04,9.04-11.87,3.39-17.4,4.11-25.86-1.87-52.17-.07-77.83-3.1-4.6-1.23-3.88-6.02-1.27-8.49,2.35-1.89,5.49-2.74,8.12-4.33,5.34-3.24,10.94-6.22,15.68-10.21,2.63-2.21,4.49-2.77,6.51-.53,12.08,13.45,45.47,17.89,60.43,5.54v-17.05c-8.49,3.02-12.96,11.12-19.73,1.87-5.81-9.93-8.11-27.42,8.77-25.21,5.21-.16,12.24-6.48,6.3-11.4-8.14-8.53-27.62-9.86-36.59,5.11-7.97,11.51-2.57,24.51-.64,37.03-12.23-8.26-5.93-24.7-7.36-37.11-1.2-12.66,4.36-46.14-1.9-53.99-4.95-6.53-11.48,2.19-16.1,4.99-3.51,2.81-8.52,5.07-8.63,10.03-.67,19.87,10.3,58.81-7.58,72.46-7.06,4.51-15.28,5.58-22.32,10.57-18.92,10.61-21.64,34.16-1.5,44.98,8.6,5.81,41.06-5.11,31.43,13.15-4.3,7-.28,21.91,3.36,29.33,8.94,25.04,36.05,26.73,56.81,16.52,10.35-4.71,19.04-13.09,28.46-19.84h0c-.01-.59-.02-1.16-.03-1.74,12.14,10.46,28.46,13.45,43.43,7.93,5.25-1.62,11.29-3.06,14.18-8.57,1.88-3.59,3.34-7.59,4.05-11.57.97-5.46,5.15-10.49,2.47-16.57,1.79-4.79,8.96-5.81,13.9-5.04,6.12,1.09,12.82-.27,18.63,1.52,8.08,2.49,15.42.86,23.09-.7,6.53-2.44,18.69,1.42,20.12-7.81-.5-5.2,5.06-16.68-4.09-15.86Zm-143.9,32.27c-5.32,24.07-30.27,33.67-52.41,25.72-15.34-5.62-11.86-14.16-8.47-24.44,3.6-11.32,9.7-9.78,19.99-9.51v1c11.8,0,23.61-.08,35.41.05,4.04.04,6.53,3.39,5.48,7.18Zm19.31-30.25h-.01c.28-5.23.53-9.9.78-14.7,5.4,1.89,7.58,6.68,9.32,11.67-.32,4.96-6.44,2.54-10.09,3.03Zm36.72,40.52c-4.17,12.58-26.22,1.68-28.56-7.74-.82-2.58-1.15-5.32-1.83-8.55,9.8-1.89,18.79-1.17,28.43-.09,8.37,1.5,3.08,10.99,1.96,16.38Z" fill="#fff"/><path d="m1989.32,1523.24c-11.8-9.82-29.88-24.21-45.09-14.8-14.86,6.89-14.02,27.7-11.11,41.58,2.04,12.55,15.61,14.28,26.27,11.58,7.86-1.48,12.56-8.53,20.06-9.73.46,2.31,1.04,4.46-.37,6.53-3.76,19.02-18.79,26.98-34.1,34.56-3.87,1.66-6.75-1.55-5.37-5.4,2.89-9.65,11.51-21.22-3.42-25.06-12.43-1.96-36.34-1.77-44.25,9.04-5.71,8.12-10.36,17.06-14.69,26.03-4.92,10.08,7.31,11.97,14.73,11.98,15.36,4.26,2.19,14.96-4.08,20.53-7.65,7.09-19.28,2.2-26.48-3.61-21.54-20.93-29.57-50.88-44.36-76.23-3.33-4.96-16.4-25.62-21.66-25.5-6.15.93-9.74,10.16-7.19,15.72,2.59,5.66,4.28,11.63,10.15,14.98.44.25.48,1.16.75,1.74,6.02,10.37,8.63,22.34,14.9,32.98,1.91,4.59.08,6.26-4.84,5.52-36.94-2.98,15.85,45.91,6.37,60.83-24.4-13.39-15.46,8.3-28.58,2.45-10.73-4.88-10.3-8.34-18.83,2.89-12.35,18.13-20.51-8.15-33.7,2.71-11.35,10.97-29.38,20.71-42.04,5.72-10.14-9.61-17.24,6.81-24.49,11.99-15.66,10.16-27.7-15.71-27.77-28.79-.16-6.7-1.06-13.41-2.04-20.06-3.44-23.96-6.38-48.06-15.39-70.73-2.92-6.25-7.33-3.16-9.9,1.04-8.79,16.08,2.93,34.04,4.34,50.79,3.85,24.24,6.45,48.71,11.18,72.82,2.33,15.13,20.57,22.19,33.9,18.8,5.45-.83,11.42-3.53,15.44-7.25,5.26-4.86,5.63-6.01,11.21-2.06,13.07,9.26,30.93,7.63,42.67-4.41,11.33-13.36,26.5,9.66,46.23-9.97,6.69-8.27,19.95,2.63,26.71-8.4.93-1.33,3.84-2.26,5.55-1.92,16.5,3.13,37.59-11.98,25.24-29.03-4.85-8-8.83-16.53-13.27-24.79-1.66-3.11-1.39-5.65,2.85-8.4h.04c12.09,16.87,25.08,44.6,49.62,41.57,20.61-3.44,39.94-12.93,47.89-33.13,1.74-3.71,3.6-3.77,6.7-3.77,29.27,4.52,53.21-23.5,70.01-44.25,12.75-15.47,3.36-35.4-9.79-47.09Zm-25.1,11.7c-4.07,12.27-17.53,6.07-12.21-7.01,6.77-8.4,13.51.42,12.21,7.01Zm-45.23,48.94c-.2,4.18-.5,10.65-5.57,11.2-4.2.39-9.22.25-12.4-4.01-2.35-3.15,1.6-10.66,6.52-12.28,6.07-1.62,12.3-3.75,11.45,5.09Z" fill="#fff"/><path d="m2151.44,902.56c-5.75-17.91-15.3-34.01-24.58-50.23-2.27-3.96-2.18-7.7.63-11.7.94-2.07.06-6.88-2.6-8.29-7.95-9.34-15.79-18.78-23.94-27.94-.87-.98-3.78-.98-5.34-.38-5.71,2.22-12.24,14.72-10.54,20.49,3.22,10.88,5.04,21.8,3.86,33.22-1.09,27.27-3.82,54.49-6.03,81.72-.49,6.36-3.87,10.66-10.65,12.32-.07-11.79-9.9-10.39-17.62-5.87-3.81,1.59-12.57,12.32-13.91,3.29-1.11-9.8-12.78-16.58-21.81-13.73-15.74,3.53-29.92,28.63-10.99,38.97,4.68,4.24,18.65,1.1,15.1,10.67-7.24,21.78-84.9,39.27-107.61,46.57,13.69,21.65,28.29,3.74,44.94,11.97,6.34,3.53,12.9-.14,18.68-3.19,21.82-9.22,67.74-35.65,66.78-62.02-.4-11.7,22.5-.79,29.15-2.71,9.3-1.64,9.02-1.98,14.72,5.58,7.9,12.42,33.27,19.62,40.82,4,8.73-23.16,8.34-52.28-23.37-52.6,1.57-14.23,3.1-28.07,4.62-41.9h-.02s1.42-1.55,1.42-1.55c9.46,5.45,11.65,17.38,16.73,26.4,10.84,22.27,10.33,47.9,4.22,71.35-.34,6.7,5.47,13.78,9.52,4.73,20.64-24.5,14.76-60.37,7.82-89.17Zm-129.9,51.47c.42,2.49.84,5.35-2.56,4.81-2.15-.61-7.05-3.9-6.06-6.91-.05-7.15,6.98-8.74,8.84-2.56.45,1.38-.48,3.16-.22,4.66Zm95.25,8.53h.03c.26,3.21-1.2,8.65-3.36,10.19-4.47,2.18-9.3-.03-11.28-3.91-1.85-2.99-2.47-10.18-.92-12.08,7.86-4.97,17.03-7.91,15.53,5.8Z" fill="#fff"/><path d="m1969.32,821.49c-18.27-17.56-12.97-33.96-8.41-56.04-.79-.18-1.57-.35-2.36-.53-4.42,15.25-3.22,34.8-16.97,45.26-9.14,6.38-22.38,2.98-26.66-9.86-4.25-12.84-4.88-28.71,4.91-39.14,3.77-3.31,9.45-.6,9.94,4.01-.19,10.07-1.73,19.31,1.63,29.28,13.91-13.44,10.64-33.19,24.24-46.21,3.91-4.15,9.75-4.98,14.69-3.52,13.65,6.39,4.75,27.42,5.24,39.27.21,5.12-3.24,13.85,3.26,15.97,6.65.73,7.27-5.04,7.32-10.19,1.58-12.9-7.9-29.69,2.03-40.09,3.46-3.41,6.12-8.6,12.55-7.5,4.51.77,7.99,4.05,8.16,8.65,1.49,10.17-2.48,46.9,7.92,50.14,4.92-.54,5.71-5.65,5.1-9.74-1.29-13.13-3.66-26.27-4.74-39.37.08-8.52,5.06-10.8,10.6-16.01,8.25-12.21,13.78,6.16,17.17,12.82,3.19,11.42,10.7,1.81,15.86-2.83,10.58-6.92,10.99,11.72,14.08,17.89,2.06,11.27,14.66,27.4-.12,34.37-2.79,1.55-3.41,3.09-2.98,6.1,3.06,18.36,5.31,36.76,2.8,55.35-.63,7.66-1.79,15.27-2.72,22.91.07,3.76-.26,7.64-4.73,8.57-2.87.61-7.75-3.77-8.17-7.33-3.38-34.28-6.33-68.37-10.51-102.58-1.24-4.48-.85-22.07-8.84-14.91-.28,6.7,4.95,13.54,5.03,20.33.72,8.37,1.89,16.85-.59,25.37-4.69,17.14-26.98,19.18-39.91,10.25-4.39-2.91-8.65-2.4-12.41.19-7.51,4.06-14.21-.5-22.41-.86v-.02Z" fill="#fff"/><path d="m1373.54,1518.77c-3.39-3.92-8.99-3.56-12.18-.63-10.07,9.56-7.57,22.22-4.59,34.2h-.03c-10.7,8.76-18.65,21.76-31.07,28.74-1.74,1.05-2.67,3.47-3.97,5.26.38.41.77.82,1.15,1.23,19.55,2.35,18.23-5.92,32.5-15.18.98-.69,3.82-.55,4.28.17,9.15,14.26,8.32,17.35-8.91,18.95-13.21-.75-66.08,10.4-64.97-9.81,10.22-1.44,21.17-.57,30.76-4.71,10.39-4.95,23.63-11,26.98-23.27,2.36-14.78,3.29-34.77-4.46-47.93-8.68-12.36-25.04-8.62-36.63-3.32-7.97,3.98-10.09,16.09-11.3,23.93,1.62,6.35,3.96,12.52,6.08,18.92-1.86,1.96-3.52,5.24-5.99,6.04-11.82,5.38-19.04,7.5-31.68,1.3-14.32-3.81-57.01-24.32-67.56-19.8.76,2.31.81,5.7,2.4,6.74,19.88,12.62,38.97,26.77,61.56,34.19,5.58,2.41,7.01,5.2,6.43,11.23-2.9,27.32,36.19,28.1,55.33,29.32,20.39-1.43,41.71,3.21,59.18-9.95,16.63-11.18,5.53-32.19,3.68-47.92-1.3-10.37,4.39-3.23,7.5-6,11.58-6.7-10.12-24.62-14.49-31.7Zm-47.04,9.98c-.71.95-2.54,4.88-3.71,4.69-3.17-.5-6.88-2.06-8.92-4.45-9.29-11.61,11.64-18.86,12.63-.24Zm-15.5,30.2c-4.42,1.22-8.33,2.3-12.24,3.38,5.34-7.16,7.94-7.89,12.24-3.38Z" fill="#fff"/><path d="m1319.1,1455.33c-1.17,9.25.98,20.48-8.5,25.95-3.44.6-8.61-4.17-11.47-6.49-7.03,6.32-6.38,15.98-9.73,24.09-8.56,19.92-21.06,53.83-48.85,42.87-37.47-7.9-12.03-25.15-27.63-30.11-37.54-6.29-70.86-14.08-94.68-46.42-14.1-14.94,1.01-35.53,11.64-47.94,10.31-10.65,23.25-16.38,38.37-16.59,3.92-.06,7.9-1.05,11.75-.63,9.46.46,10.41,15.92,1.03,17.58-9.98,1.79-20.52.87-28.75,7.93-2.01,1.48-4.01,4.03-4.47,6.4-7.32,33.28,29.7,45.43,53.86,55.91,11.35,4.14,23.54,6.03,35.4,8.71,3.6.81,5.53,2.55,5.48,6.31.7,3.91-2.21,11.49,2.8,12.91,3.58,1.01,7.09,1.49,9.21-1.6,13.41-18.49,23.58-39.09,35.62-58.38,4.66-6.78,12.98-9.34,20.66-11.76,3.69-1.16,8.64,5.68,8.26,11.26h0Z" fill="#fff"/><path d="m1473.23,1594.24c.46-9.42-23.49-13.32-10.01-20.99,9.05-4.12-4.89-16.08-10.22-17.96-3.08-1.21-5.44-4.12-8.34-5.9-8.97-6.7-18.29-.26-18.47,12.05-23.4,7.38-17.88,26.38-34.01,39.95-7.65,11.3,2.51,21.93,9.72,30.12,2.3,3.22,3.1,7.06.54,10.29-5.82,6.99-14.47-.86-21.28-2.21-13.91-4.04-28.03-7.53-39.03-17.9-8-3.23-17.7-2.21-26.74-3.91-.07,10.88,15.78,27,26.91,30.47,18.87,6.52,37.49,12.93,57.78,11.16,16.91.16,28.17-7.62,25.93-25.97-1.48-8.86-10.41-13.51-9.97-22.71,5.91-2.99,14.47,2.27,20.67,3.59,9.41,4.54,26.62,12.22,33.53-.09,2.2-6.13,3.91-13.35,2.99-19.99Zm-37.05-7.54c-3.87,9.53-12.71,8.94-12.76-4.14h.01c1.1-1.03,2.93-3.46,5.37-4.78,1.78-.97,8.4,6.59,7.38,8.92Zm17.23,14.72c-2.22-8.83,8.6-7.08,10.24-.95,1.15,7.49-12.28,12.13-10.24.95Z" fill="#fff"/><path d="m1766.18,1563.3c6.4,15.2,16.01,27.54,10.59,44.52-1.1,4.48.26,5.83,4,7.1,16.07,7.37,5.57,35.92-13.13,26.85,4.87-3.95,3.44-8.42.81-12.97-6.14-2.37-9.47,3.13-13.59,5.71-22.62,12.99-58.81,36.99-79.81,9.92-3.1-5.32-6.15-10.99-5.95-17.8,1.99-9.16-5.99-52.09,10.52-46.35,3,1.32,5.01,2.61,4.63,6.42-.69,6.88-1.18,13.8-1.37,20.71.13,11-3.28,23.73,12.15,23.03,13.65,1.74,24.07-8.44,36.18-12.81,11.46-3.96,24.38-7.83,25.64-21.86-2.47-9.21-8.77-19.66-14.65-27.53-6.8-7.31-10.2-16.32-4.98-26.64,2.67-5.29,13.41-10.4,19.64-4.87,7.97,5.55,29.4,21.67,9.34,26.56h-.02Z" fill="#fff"/><path d="m2068.56,1448.86c-16.06-1.53-30.14,5.62-45.67,6.73-7.52.53-18.59-7.23-20-14.34-.96-4.82-.64-9.88-.99-14.83-.12-9.14,16.53-5.43,22.62-6.58,10.29,1.37,2.12,10.95,18.5,7.61,37.47-7.11,56.62-7.55,49.32,37.89-5.6,22.85-9.76,49.61-29.01,65.42-5.78,4.56-14.09,17.36-22.15,8.85-11.23-11.9-18.97-26.32-18.57-42.97,5.86-13.86,14.28,7.93,17.35,13.24,8.51,15.93,15.79-5.01,17.12-13.54,4.95-15.68,13.33-30.22,11.49-47.48h-.01Z" fill="#fff"/><path d="m1848.84,1594.03c1.55-4.4,2.5-7.41,3.66-10.35,3.85-9.73,3.5-9.55-4.74-16.01-4.07-3.19-9.54-7.47-10.07-11.78-5.81-28.23,15.72-51.6,34.79-69.69,17.37-14.88,30.03-35.8,49.5-47.89,10.97-4.63,7.87,12.6,8.92,18.81-.8,11.41-13.77,17.45-19.89,26.35-17.16,16.76-35.57,32.5-49.5,52.22-7.27,9.4,2.61,17.06,6.65,24.74,1.22,4.69,1.35,9.67,1.85,14.53.84,8.31-3.55,13.76-9.46,18.94-4.35,3.81-6.77-1.79-11.71.13h0Z" fill="#fff"/><path d="m1936.99,1449.07c1.81-4.43,2.74-14.44,9.57-13.87,8.54,4.66,30.52,8.74,31.07,19.8-.7,9.62,5.95,15,10.7,21.65,12.39,18.53,27.26,35.98,36.46,56.38,2.43,6.28,3.86,13.07,4.74,19.76.21,1.62-3.18,4.24-5.43,5.41-.89.46-3.8-1.4-4.74-2.88-6.48-10.16-12.17-20.86-19.15-30.65-4.7-6.59-11.12-11.95-16.76-17.87-7.66-7.55-13.44-16.37-21.6-23.62-13.25-9.85-24.02-15.11-24.86-34.13v.02Z" fill="#fff"/><path d="m2021.71,700.91c-.1-.99-2.52-2.26-4.02-2.53-8.04-1.47-9.07-3.22-6.77-11.12,1.81-6.21,3.22-12.54,4.23-16.57.57-19.15-10.24-35.99-24.89-16.13-11.91,12.71,1.98,28.78-2.2,43.72-1.67,9-13.45-1.16-15.67,13.24-1.07,11.67,8.74,22.9,20.91,20.16,2.79-.59,5.99-.45,8.75.28,7.74,2.05,19.07-2.91,20.5-10.81,1.17-6.5-.17-13.5-.84-20.24Zm-16.87,9.57c-1.02-5.93-4.18-8.65-10.26-8.25.09-.61.18-1.22.27-1.83,4.59-.73,9.18-1.46,14.31-2.27-1.62,4.64-2.97,8.49-4.32,12.35Z" fill="#fff"/><path d="m2050.22,1021.61c-7.56-2.95-10.07-9.5-11.44-15.75-.6-2.74,2.8-7.12,5.44-9.64,7.36-6.99,16.6,4.4,24.38-1.49,6.69-3.4,16.93-.61,21,5.7,3.76,5.83-1.11,15.26-8.27,15.09-11.27-1.1-9.58,18.21-30.54,29.08-5.09,3.06-10.23,1.85-12.04-3.24-.06-7.39,7.9-13.07,11.48-19.75h-.01Z" fill="#fff"/><path d="m1972.56,1420.64c-8.83,1.3-14.6-9.95-8.03-16.13,7.3-9.35,14.04-19.14,21.45-28.39,5.85-6.45,13.7-11.33,19.21-18.24,7.8-9.1,22.95,6.38,13.39,14.6-11.67,11.66-23.02,23.67-33.9,36.09-3.96,4.05-4.62,13.59-12.12,12.06h0Z" fill="#fff"/><path d="m1301.88,1427.65c-4.79,6.96-7.75,15.39-16.26,9.19-11.83-6.18-24.32-10.6-37.15-14.49-8.77-2.66-16.65-8.4-24.67-13.2-1.21-.73-1.78-4.02-1.32-5.78,1.57-6.05,9.35-9.65,14.97-7.19,21.48,11.1,45.14,16.41,64.44,31.48h0Z" fill="#fff"/><path d="m1981.33,980.34c5.57.22,5.34,4.76,6.64,7.85,1.47,3.5-1.26,4.74-3.61,5.64-16.21,6.19-32.5,12.18-48.71,18.37-7.29,2.78-14.46,5.86-21.68,8.83-8.92,3.63-21.62-12.77-7.79-16.87,25.19-7.42,50.3-15.23,75.15-23.81h0Z" fill="#fff"/><path d="m1234.47,1376.88c-8.51-1.01-16.81-1.37-21.82,5.49-4.67,25.49-42.06,7.73-27.21-11.81,15.35-27.13,77.42-8.8,49.03,6.32Z" fill="#fff"/><path d="m1335.82,1470.88c20.94,8.6,41.89,14.96,63.32,21.84,4.02,1.35,6.89,6.81,5.67,10.07-2.08,5.53-6.04,7.54-11.39,5.79-10.23-5.32-97.51-23.33-57.59-37.69h-.01Z" fill="#fff"/><path d="m1598.23,1561.6c-1.91,5.46-.54,15.68-8.5,17.12-13.34,3.35-26.53,7.31-39.82,10.89-5.64,1.52-10.97,4.97-17.28,2.96-9.55-3.83.54-15.07,7.32-16.19,11.26-3.51,22.03-8.72,33.84-10.17,5.78-.48,25.07-17.12,24.44-4.6h0Z" fill="#fff"/><path d="m1662.93,1577.76c-3.39-3.21-8.04-5.72-9.08-9.3,1.64-11.28,29.85-17.57,39.6-22.77,6.75-2.69,13.76-4.71,20.62-7.15,3.76-1.34,6.19.48,8.09,3.26,5.17,9.18-9.16,12.31-14.97,15.66-15.33,6.39-30.38,10.76-44.26,20.3Z" fill="#fff"/><path d="m1225.87,1454.09c5.79-.69,28.89,5.74,25.17-3.38-3.25-7.41-1.9-10.46,5.64-12.64,10.32-2.98,17.98.39,20.16,9.67,1.26,14.2-13.98,24.08-27.09,23.86-4.08.03-8.18-.47-12.24-.97-6.26-1-15.9-10.03-11.63-16.54h0Z" fill="#fff"/><path d="m1984.75,1428.95c2.49-2.06,6.41-2.17,8.04,1.61,5.93,12.72,4.47,23.85,20.07,28.54,6,2.77,6.04,12.32.03,17.54-6.01,5.22-5.98,5.18-12.64-.12-11.06-6.43-16.41-14-20.34-26.04.44-.18-1.78-16.32,4.85-21.53h0Z" fill="#fff"/><path d="m1964.06,842.4c-3.92-19.85,17.03-24.31,14.87-2.13,6.13-2.3,4.72-7.4,5.12-11.61,10.31-3.24,16.33,9.64,12.18,16.95-6.18,6.37-17.58,6.52-26,8.44-9.24,2.15-13.77-7.27-17.76-13.86-2.96-4.58-1.17-8.83,1.06-12.89,1.58-2.42,5.69-1.51,6.27,1.22.45,5.04-.68,10.15,2.62,14.52.55-.21,1.09-.43,1.64-.64Z" fill="#fff"/><path d="m1204.77,1443.07c-6.68,5.3-15.79,17.32-24.65,15.2-5.37-1.63-10.1-5-10.42-11.42.23-5.04-.65-12.99,4.44-15.78,22.75-4.79,20.55-11.37,30.63,12h0Z" fill="#fff"/><path d="m1919.24,1509.37c1.79,4.82-15.41,37.61-19.21,26.88-1.29-4.05-4.29-7.76-2.19-12.52.26-.58-1.27-2.69-2.28-2.97-16.13-4.33,1.9-21.41,10.34-24.15,2.11-.64,6.17-3.7,6.94-3.06,4.3,4.05,5.85,10.06,6.39,15.83h.01Z" fill="#fff"/><path d="m2008.89,1040.79c1.9-11.41,15.06-30.09,28.58-26.33,6.91,12.99-9.53,6.98-3.91,29.12-.69,18.44-24.87,14.76-24.66-2.79h-.01Z" fill="#fff"/><path d="m1891.02,824.19c-10.91-.06-17.05-9.63-12.61-17.6,5.65-7.81,11.21-23.82,21.04-25.95,11.58.31.27,13.15-.18,18.94-.38,1.99,1.62,5.01,3.38,6.7,7.53,7.42-5.11,18.53-11.63,17.9h0Z" fill="#fff"/><path d="m1838.51,827.18c8.16,1.38-7.95,20.59-.32,25.33,3.52,1.73,4.23,4.3,3.84,7.68-.6,6.35-6.3,10.04-11.5,11.95-6.17,3.3-11.65.25-13.67-6.45-1.4-4.66-.73-7.89,1.7-12.03,5.13-9.65,5.39-27.09,19.94-26.47h0Z" fill="#fff"/><path d="m1411,1544.39c-6.59-10.03,15.87-13.01,2.72-19.09-13.7-6.43,4.55-14.78,11.67-15.47,13.23-1.53,15.73,15.69,9.66,24.1-5.15,6.94-14.94,13.05-24.04,10.46h-.01Z" fill="#fff"/><path d="m1498.45,1634.06c.21-9.79,4.09-17.16,12.79-22.17,3-1.72,5.29-2.45,7.71-.09,2.4,2.33,3.44,5.24,1.43,8.45-3.52,4.9-8.54,11.35-1.82,16.05,5.84,4.38,7.81,9.26-1.92,15.34-9.95,6.55-18.46-8.92-18.19-17.58h0Z" fill="#fff"/><path d="m1512.73,1599.71c-8.23-14.36,1.11-32.92,4.85-46.9,1.54-4.11,11.68-13.87,12.71-4.31-.59,8.98-.9,18-2.16,26.89-1.07,7.57-8.79,12.61-9.16,20.58-.02,1.24-3.94,2.43-6.24,3.73h0Z" fill="#fff"/><path d="m1223.57,1466.54c-.08,13.75-14.4,12.89-23.28,9.04-5.44-3.08-5.81-9.4-5.14-14.33.7-5.16,5.37-8.9,10.67-10.48,13.86-5.55,16.42,6.48,17.75,15.77Z" fill="#fff"/><path d="m1925.48,1510.51c-4.44-8.92-13.98-25.83,3.6-26.96,6.25-.61,15.3-7.06,17.99,2.32,2.94,8.58,1.06,13.67-6.56,18.94-4.52,3.13-8.87,6.36-15.03,5.7h0Z" fill="#fff"/><path d="m1703.9,1602.4c2.64-18.57,4.32-22.36,23.27-16.82,7.73,1.71,3.26,9.58,3.99,15.15-.06,7.75-4.91,11.76-12.28,9.64-4.98-2.05-12.23-2.92-14.97-7.97h-.01Z" fill="#fff"/><path d="m1834.8,1554.08c-1.03,1.82-2.06,3.64-3.09,5.46-9.28-4.63-13.55-15.51-19.25-23.7-2.53-5.8.82-13.18,4.91-17.87,2.3-3.26,6.99-3.32,8.45.36,4.37,11.37,8.54,22.95,8.04,35.34.31.14.62.28.94.42h0Z" fill="#fff"/><path d="m1900.74,1558.73c-8.68,1.23-16.35,2.31-24.36,3.44-1.19-8.3-3.7-16.98,1.94-23.44,4.71-.75,9.46-1.84,14.18-1.79,2.68.03,4.19,2.39,6.06,5.15,3.84,5.67-.37,10.66,2.17,16.64h.01Z" fill="#fff"/><path d="m1485.16,1526.1c-5.04,7.29-3.69,35.29-16.59,29.73-2.79-1.43-4.78-4.44-7.58-5.79-3.42-1.65-3.12-4.36-2.38-6.66,3.13-9.7,14.51-18.55,26.55-17.27h0Z" fill="#fff"/><path d="m1795.84,1582c-4.64-1.24-15.86.59-18.56-3.81.38-12.77-4.8-19.64,11.5-21.7,3.67,1.75,8.9,2.63,10.14,6.48-.13,6.13,1.75,12.57-3.08,19.02h0Z" fill="#fff"/><path d="m1636.38,1597.25c2.15-7.26,3.87-23.28,13.14-14.15,5.03,5.59,14.32,9.1,10.5,18-1.03,3.49-2.92,6.42-7.86,6.74-3.38.22-6.83,3.04-9.64-.63-2.48-3.23-4.32-6.96-6.14-9.97h0Z" fill="#fff"/><path d="m1453.32,1644.19c-2.11,7.98-3.94,16.24-6.64,24.2-.63,1.86-4.2,2.72-6.42,4.03-3.73-9.27-3.21-19.86-3.59-29.69.08-3.03,2.67-6.97,5.3-8.63,1.83-1.16,6.33.04,8.4,1.72,1.81,1.46,1.9,5.06,2.96,8.36h0Z" fill="#fff"/><path d="m1559.39,1630.02c-5.24-6.34-9.67-11.7-14.42-17.45,5.54-9.26,17.66-12.98,25.81-3.41,7.68,8.31-5.89,14.67-11.38,20.87h-.01Z" fill="#fff"/><path d="m1588.06,1644.83c-3.79,4.99-9.42,13.86-16.65,7.61-1.76-2.03-5.16-2.55-7.56-4.14-10.21-5.98,3.62-13.69,8.88-17.53,5.81-.18,13.21,7.35,15.34,14.05h-.01Z" fill="#fff"/><path d="m2022.2,907.17c-3.96-10.92-7.02-12.81,5.01-21.55,6.89,1.64,19.97,5.74,15.64,14.53-4.99,11.85-11.42,8.01-20.65,7.02Z" fill="#fff"/><path d="m1578.54,1601.67c2.82-11.24,21.46-8.78,24.39.42,1.5,5.01-2.19,10.19-3.81,14.83-3.05,6.81-8.9,9.17-17.41,2.19,11.17-8.7,12.33-14.56-3.17-17.43h0Z" fill="#fff"/><path d="m1663.3,1627.96c-3.42,7.02-10.16,15.1-17.8,8.06-2.56-2.22-7.91-3.82-6.04-8.18,1.72-3.11,8.36-16.06,12.34-14.24,3.58.69,10.44,9.75,11.5,14.35h0Z" fill="#fff"/><path d="m2012.23,894.73c-3.11,4.5-4.31,9.76-8.07,12.6-4.85-.58-10.31-.2-14.31-2.41-6.09-3.18-1.28-11.67,1.13-16.66,6.45-8,15.33,2.19,21.25,6.47Z" fill="#fff"/><path d="m1538.52,1650.47c-7.11-5.02-15.78-13.78-4.85-20.83,2.74-2.35,5.49-2.83,8.45-.71,3.25,2.88,8.25,4.88,10.07,8.91.51,3.77-8.21,12.78-13.67,12.63h0Z" fill="#fff"/><path d="m1588.76,577.88c13.68,48.42-5.16,41.04-20,80.93-15.78,51.11,28.73,93.07,60.47,127.39,21.3,27.81,43.26,53.81,63.88,82.48,17.97,23.41,30.44,50.12,42.41,76.94,4.6,17.77-1.06,40.84,17.03,52.04,13.23,7.28,11.24-36.42,12.46-44.59,1.09-14.31-5.44-27.3-6.47-41.45-22.77-56.43-66.47-102.38-106.14-147.61-47.01-48.13-64.84-29.99-63.96-105.25,3.04-25.36,10.3-15.43,14.77,3.05.72,5.23-.87,42,5.92,51.55,4.31,4.99,21.4,28.31,22.91,11.36-6.6-80.72,1.38-166.3-24.62-243.86-11.17-21.32-29.7,2.78-30.42,17.06,1.72,26.78,11.32,52.67,11.77,79.45v.51Z" fill="#fff"/><path d="m1587.26,1239.85c-6.04-3.15-9.92-7.45-13.07.95-1.93,3.47-.19,5.37,2.13,6.98,6.9,4.78,7.88-6.93,13.44-8.43l-2.5.5Z" fill="#fff"/><path d="m1563.78,886.63c1.83-11.58-17.9-15.92-24.5-24.46-2.09-1.4-2.73-.9-3,1.47-1.77,11.74,20.06,15,27,22.99h.5Z" fill="#fff"/><path d="m1510.33,865.65c-3.62,7.72,2.76,15.78,1,23.98.04,2.75-.57,4.63,3.86,5.94,15.58,7.81,29.27,21.03,44.08,30.54,10.27,10.15,25.22,13.96,34.51,25.44,9.7,8.45,3.81-12.03,3.5-16.95,10.29-19.79-70.91-59.92-86.46-68.96h-.49Z" fill="#fff"/><path d="m1738.64,1226.78c-8.43,1.45-18.82-8.71-10.49-15.91,10.17-10.93,24.41,12.28,32.88-.07,3.01-5.3-8.67-12.44.14-16.82,11.79-7.65,31.94-21.99,18.64-36.8-8.58-7.38-18.48-14.08-30.11-10.02-10.47,5.32-36,7.25-35.45,21.73,2.25,14.08,1.72,21.39-11.01,29.11-5.24,2.43-30,30.39-21.14,33.86.26,11.63,10.99,11.21,17.69,14.77,13.46,8.93,31.32.75,44.38,10.17,3.12,17.01-44.84,20.66-57.97,27.09-13.08,4.18-26.82-1.42-39.96-3.17-16.41-1.47-26.9-26.74-41.93-10.8-6.5,4.64-10.63,14.27-20.05,12.92-27.84,7.2-25.23-34.08-32.07-51.95-5.56-9.4-11.56-63.53-27-50.06-4.45,6.86-7.33,14.69-13.27,20.66-1.92,1.93-1.05,5.46.51,7.29,10.93,14.77,16.1,34.92,11.9,53.06-9.37,21.95-39.75,28.53-59.49,25.95-6.74-4.06-19.62-10.91-14.2-20.91,5.01-15.18,13.8-29.36,24.18-41.55,5.75-5.74-4.6-19.15-11.33-11.37-11.59,12.54-22.88,26.41-31.96,40.88-17.54,45.93,11.21,77.64,58.81,65.94l.5.5c43.37-2.89,42.3-51.56,51.27-33.44,3.33,13.98,11.17,28.45,27.15,30.05,10.56,4.4,28.56-15.21,28.86,4.38-.98,19.49,14.48,40.53,35.57,37.26,33.87-9.43,6.3-45.08,19.51-42.7,53.63,11.33,93.7-34.51,140.88-50.06,22.53-7.12,41.15.98,44.46-29.41-30.22-10.75-67.24-8.71-99.9-10.58Zm8.99-63.87h.5c9.2-2.68,8.07,11.5.96,12.81-9.66,3.97-9.44-10.25-1.46-12.81Zm-125.9,167.86c-10.93.87-9.08-14.77-2-18.98h.5c11.44,1.97,13.05,15.76,1.5,18.98Z" fill="#fff"/><path d="m1559.28,836.67c-1.36-6.99-15.89-23.58-22.38-24.38-1.1,5.15,1.17,10.55,6.31,13.02,6.27,6.01,15.74,9.35,19.56,17.35l-3.49-5.99Z" fill="#fff"/><path d="m1702.16,1018.02c-20.38-23.45-42.19-46.42-64.45-67.45-.38,12.15-.67,30.89,6.01,40.97,17.32,13.35,30.58,31.4,45.71,46.76l4.24,7.2c-.36-10.12,15.52-18.06,8.49-27.48Z" fill="#fff"/><path d="m1589.76,1149.92c-13.58,10.96-13.82,9.43-1.02,21.5,5.67,4.71,7.89-5.38,12.98-6.57,7.88-4.44-6.62-14.48-11.46-14.93h-.5Z" fill="#fff"/><path d="m1520.32,568.39c5.38,38.96,28.43,80.1-8.57,108.33-55.64,70.44,47,138.98,84.62,186.66,8.46-75.59-127.99-91.18-64.11-181.1,1.6-5.42,6.65-4.6,4.99,1.02,3.36,28.34-6.43,64.37,9.58,88.38,47.83,58.31-1.41-98.32,17.88-116.88-6.63-32.42-2.11-135.45-32.56-148.17-12.05,4.05-19.4,23.09-19.72,35.25,1.08,8.7,8.05,19.37,7.38,26l.51.51Z" fill="#fff"/><path d="m1734.14,1040.01c-5.68,10.95-29.09,31.32-40.91,28.77-5.98-3.58,13.43-30.88,17.9-35.79,2.94-2.83,7.46-3.57,9.56-7.45,4.42,3.69,11.55,7.62,13.96,13.97l-.51.5Z" fill="#fff"/><path d="m1598.75,899.62c-.64-10.83-1.37-23.94-1.37-23.94,0,0-35.12-27.62-50.54-39.56-12.65-7.64-26.49-12.91-39-20.96-5.53-.75-1.77,17.56-2.23,21.97,2.22,11.18,22.86,10.26,31.69,17.03,15,8.54,27.6,16.48,43.91,29.09l17.54,16.37Z" fill="#fff"/><path d="m1643.21,1235.85c.86,4.68,7.64,9.63,8.04,1.99-.26-2.21-.6-4.93,1.99-5.88,2.14-.79,4.79-.24,6.39,1.45,5.86,8.55,10.99-7.91,15.11,1.91,5.9,7.43,4.44,24.78-7.09,24.07-4.09-2.55-7.83-.99-11.47,1.41-15.83,4.72-32.04-18.65-11.47-26.45l-1.5,1.5Z" fill="#fff"/><path d="m1729.11,1102.04c-1.1-.61-3,.31-3.07-2.08-7.01-2.76-11.19,9.57-10.83,15.49,1.77,17.32,16.49,16.7-4.54,31.97v.5c.49,1.33,1.39,2.66,1.42,4-.43,11.14,16.03-14.52,21.28-14.57,18.88-10.12,8.52-25.36-4.26-35.31Zm2.94,14.9c-2.41,8.2-13.25-3.61-4.41-7.99h.5c3.76,1.45,4.17,4.75,3.91,7.99Z" fill="#fff"/><path d="m1503.33,1115.45c-11.27,17.38-24.9,32.95-37.94,48.98-21.45,33.63,38.56,66.61,45.83,20.43,2.85-9.61-8.96-8.1-14.89-6.97-20.36-13.57,13.25-44.59,7.99-64.44l-.99,2Z" fill="#fff"/><path d="m1467.25,844.81c1.82,12.5,1.04,22.3,1.04,22.3,0,0-15.27-8.13-39.03-13.8-16.02-3.82-45.07-7.47-45.07-7.47l-20.74-21.94s39.83,3.74,63.83,9.28c18.28,4.22,39.97,11.62,39.97,11.62h0Z" fill="#fff"/><path d="m1653.65,1012.61c-17.43-.03-17.21,46.12-13.93,59.38h.5c10.63,1.75,22.89-6.41,34.47-3.94,3.69.29,4.93-.88,4.55-4.56,1.06-21.43-6.63-39.63-25.59-50.88Zm8.42,50.32c-15.39,12.71-17.57-23.72-4.37-28.92h.5c7.97,5.35,7.05,21.72,3.87,28.92Z" fill="#fff"/><path d="m1518.32,925.6c-16.67-28.17-59.85,31.19-79.85,25.43,5.47-10.8,21.47-21.17,15.97-36.45-5.26-24.46-25.93-36.09-49.52-36.95l2.49,1.5c1.42,10.83,9.49,21.02,11.45,30.43-5.38,5.96-6.49-1.1-8.48-5.43-10.15-29.16-25.88-45.7-45.82-68.54-10.67-12.22-32.91-35.54-32.91-35.54l-17.68,16.65s46.09,40.67,62.02,65.49c6.05,9.43,9.47,16.06,17.06,21.23,20.31,18.38,14.58,53.93,41.38,66.56,3.33,2.64,4.73,9.09,9.95,5.07,38.97-38.58,76.55-32.27,73.94-49.45Zm-86.93,9.49c-9.66-1.84-6.75-17.17,2.5-17.99h.5c11.98-1.42,8.21,20.39-3,17.99Z" fill="#fff"/><path d="m1195.09,932.59c-21.17,20.77-47.99,36.73-70.64,56.07-19.71,15.06-43.85,26.33-59.13,46.99-7.15,6.69-13.15,14.93-20.01,21.9-8.04,5.53-3.05,13.38,4.88,16,17.48-5.28,30.23-23.91,44.57-35.43,19.23-14.9,39.64-27.25,58.42-42.99,14.57-11,30.46-20.23,44.4-32.06,5.27-8.52-1.95-18.89-2.99-27.97l.5-2.51Z" fill="#fff"/><path d="m1373.94,892.63c-5.12,12.76-8.67,25.84-1.62,38.5,5.7,28.52-57.27-37.43-103.3-26.02-15.92-2.21-19.42,19.97-19.93,31.46,21.18-12.33,44.34-2.48,64.87,8.6,39.97,24.09,84.8,38.99,121.53,68.76,15.37,7.1,17.1-20.74,8.9-28.87-.69-.98-1.36-2.88-2-2.86-9.16.28-12.86-7.81-18.99-12.12-45.35-23.76-9.13-42.51-49.46-77.44h0Z" fill="#fff"/><path d="m1333.97,846.66c-7.26-9.67-17.55-17.12-17.55-17.12,0,0-53.01,9.45-83.37,41.09-16.5,17.2-36.45,42.27-30.86,67.92,7.47,44.07,31.84,89.82,72.88,111.35,61.39,36.67,147.19,54.44,208.32,8.13,17.82-25.49,18.3-59.41,21.99-89.46,3.52-21.53,7.72-27.84-17.05-18.49-10.53,6.5-6.92,25.31-9.1,36.46,2.36,69.14-28.63,71.98-88.32,77.29-53.87-.47-105.08-35.67-135.92-78.04-38.36-60.8,17.87-126.87,78.98-139.13h0Z" fill="#fff"/><path d="m1732.64,1052.5c6.26,18.87,28.3,32.39,39.52,49.91,13.29,16.12,23.12,34.08,41.28,45.34,24.58,21.94,56.54,29.66,89.04,30.27,50.83,9.21,102.65,13.25,152.87,26.4,37.19,9.79,79.43,20.97,108.92,44.42-10.83,14.4-43.16,16.62-57.85,6.78-55.75-20.54-111.48-39.56-170.46-45.74-76.39-9.41-105.71-5.1-159.89-67.93-19.77-11.12-28.1-34.92-45.87-48.12-3.93-6.65-6.11-15.01-13.06-19.85-11.64-7.86,9.87-13.01,14.49-19.49l1.01-1.99Z" fill="#fff"/><path d="m1633.72,905.62c3.99,6.44,2.12,14.48,4.59,21.48,14.42,14.82,31.81,29.07,45.7,45.1,26.81,26.29,48.48,55.82,74.58,83.32,38.44,47.69,53.03,82.34,115.07,104.21,100.36,17.39,207.4,21.98,297.57,74.19,10.53,4.37,20.44,15.14,32.47,9.78,11.09-3.85,27.95-.16,32.02-14.34-5.08-26.16-45.61-16.77-61.89-32.54-57.46-34.09-128.71-34.78-193.4-43.71-102.44-5.76-127.37-17.77-187.73-100.71-54.32-59.44-107.56-119.51-158.48-181.75-1.2,9.32-3.7,23.03,3.46,30.53,10.89,7.83,16.88,22.12-1.46,8.44l-2.5-4Z" fill="#fff"/><path d="m1500.83,843.17c-.61-27.44-2.93-55.57-4.01-82.89.95-10.24-5.27-17.52-6.49-26.52-2.25-11.98-.04-24.36-1.09-36.47-3.2-32.6-3.75-115.65-29.43-134.65-11.35.13-24.49,32.84-19.29,42.14,12.8,26.01,14.71,55.52,18.9,83.5-3.73,16.59-11.5,33.8-20.62,48.39-29.65,37.96,1.19,49.21-59.4,29.69-100.87-24.1-235.05-17.13-299.77,74.26-26.8,39.49-39.72,91.58-24.05,136.49,4.59,11.7,8.29,23.7,15.93,34.06,6.11,6.67,17.5-9.94,24.15-12.15,3.04-3.04,11.07-4.72,8.93-9.95-50.44-182.89,155.83-229.35,292.84-189.99,24.42,4.69,47.4,14,69.43,24.61.44-9.82-1.64-20.05-3-29.91-36.86-12.82-5.78-41.15-2.91-67.98,8.53-3.19,1.98,42.83,6.71,51.36,6.65,46.87,5.86,93.62,10.32,140.43,2.99,9.24,16.01-7.46,24.35-4.47,8.1-18.91-.51-48.31-1.5-69.45v-.5Z" fill="#fff"/><path d="m1570.77,1156.41c3.43,21.44,12.06,38.14,32.39,47.57,22.65,5.3,52.24,3.68,68.89-15.23,15.13-19.53-22.18-22.37-31.65-10.62-6.11,4.61-13.58,8.6-15.87,17.19-.28,1.06-.81,3.88-3.8,3.64-6.45-.13-21.88,1.64-19.42-8.54,3.87-13.96,6.47-28.53,9.96-42.5,9.84-66.7-72.69,54.02-97.08-9.95-2.78-9.56-10.25-32.49-10.25-32.49,0,0-27.21,27.11-39.89,35.15-24.65,15.64-50.72,24.85-79.13,28.09-108.14,8.96-213.91-39.28-286.19-118.78-4.03-7.55,14.35-14.3,19.48-19.83,6.81-4.59,7.28-4.26,12.93,1.41,29.86,30.64,62.01,61.14,101.42,78.44,160.6,70.48,231.31,4.42,236.91.34,17.59-12.84,26.95-25.43,35.79-41.34,4.68-6.86-4.36-8.83-8.39-12.49-6.48-18.18,15.41-29.31,25.98-12.97,2.47,3.89,9.73,6.34,13.92,4.43,1.53-33.89.29-73.13,1.5-108.83-2.49-31.85,6.56-11.69,22.48-2.45,6.14,9.16,2.49,23.88,4.44,34.93-5,45.63,8.91,94.87.58,138.88-5.13,1.23-23.51,8-23.51,8,0,0,7.04-41.72-10.96-44.43-3.67-.18-5.4,2.4-5.93,5.47-7.64,43.98,12.53,64.29,50.45,32.56,8.44-2.57,13.45-10.22,21.43-13.14,4.52-.25,14.54-8.04,10.97-12.91-13.4-1.94-19.79,5.58-25.86-13.05-2.89-25.3,6.26-52.04-8.68-75.38,14.44-33.35,20.28-2.89,24.94,15.44,1.62,14.94,1.41,30,.66,44.98-.05,1.07-.52,2.56,1.48,2.5h4c12.61-15.92-3.63-77.3-.03-100.92-3.63-60.71.52-122.19-2.36-181.93-1.84-2.09,2.88-5.82,4.93-3.46,28.94,18.84,19.84,49.66,20.94,79.47.91,62.09,4.82,122.52,4.86,184.38-8.57,80.9,17.53,17.03,63.58,45.45,41.51,26.54-12.84,85.63-44.31,33.37-3.6-5.33-11.54-14.14-1.12-16.78,4.56-2.5,13.75-7.84,16.66-1.06,2.67,7.69,4.16,16.9,14.29,16.92,23.93-16.18-26.31-38.65-41.6-15.63-9.19,12.31-1.47,28.27-5.43,42.6-8.04,28.11,16.04,5.03,27.08,3.15,32.89-12.05,49.3,22.58,26.86,45.73-32.51,32.62-106.89,71.85-130.76,11.06-12.24-45.34-18.1-28.9,12.44-46.44h-.02Z" fill="#fff"/></svg>