<svg xmlns="http://www.w3.org/2000/svg" width="750" height="500" version="1"><path fill="#c10" d="M0 0h750v500H0z"/><path d="M399.102 88.892c.632 2.106-.149 4.516 1.87 5.878.124 1.645.044 3.703.044 5.22-1.183.533-3.399 1.611-6.191 1.895-2.792.283-5.779.448-7.357.448-5.469 0-10.907-.788-15.936-.883-5.395-.102-15.141 1.498-16.367-.625-.683-1.48-.209-3.58-.09-5.372-.47-.543-.37-1.742-.329-2.582.213-4.299 1.114-8.998 2.847-12.464-.038-2.433.922-4.134 2.388-5.111-.09-1.566.579-2.586 1.721-2.695 1.355-2.307 3.566-1.959 5.289-2.585.684-.248 2.355-2.478 3.437-3.408.643-.554-.023-3.806.698-5.054.154-.266.185-.773.074-.97-.487-.859-1.58-.643-2.532-.996-1.904-.705-4.749-1.448-6.152-2.532-.96-.74-1.627-1.697-2.143-2.887-.517-1.19-.866-3.15-1.534-3.636 2.639.322 4.251.605 5.625 2.046.71.746 2.383 1.7 3.614 2.306-2.688-4.903-5.957-7.233-9.799-10.18-4.965-3.812-10.424-5.89-10.535-6.492-.136-.741 1.08-.745 1.612-.676 2.81.363 10.126 3.064 15.176 6.432 4.746 3.165 8.95 7.333 12.276 11.134-.016-1.77-2.6-5.256-4.196-6.616-1.538-1.31-2.462-3.567-2.327-5.807 3.923 1.852 6.581 6.503 10.844 10.761 1.339.808 2.271 1.704 2.41 2.958.768.767 2.037 2.106 2.636 2.423-.196.734.55 1.46.065 2.43-.133.267-.342.405-.312.738 1.454.84 2.246 4.19 3.273 5.88.697 1.147 2.39 2.273 2.482 3.001.18 1.431-1.07 2.223-1.189 3.537.39.72 1.005.989 1.48 1.179 1.208.903 2.192 1.907 2.192 3.384l.412.005c2.455 1.713 3.04 4.334 3.04 7.991 1.108 0 1.884 1.124 1.484 1.925z"/><path d="M348.864 37.51c-.56.007-1.22.15-1.117.705.11.602 5.567 2.675 10.533 6.486 3.841 2.948 7.11 5.284 9.798 10.187-1.23-.605-2.903-1.56-3.614-2.306-1.374-1.441-2.987-1.728-5.626-2.05.668.487 1.018 2.446 1.535 3.636.516 1.19 1.185 2.146 2.145 2.887 1.403 1.083 4.242 1.829 6.147 2.534.952.352 2.047.14 2.534.999.112.196.08.703-.073.97-.721 1.247-.055 4.5-.698 5.053-1.082.93-2.753 3.16-3.437 3.408-1.723.626-3.934.278-5.289 2.585-1.131.108-1.794 1.11-1.718 2.651 1.536-.318 2.383-2.39 3.753-2.857-.284.702-1.62 1.908-.823 2.314.65.33 2.683-1.86 2.99-2.21.185.52-.99 1.984-.573 2.225.901.52 2.55-1.786 2.908-2.336.887 3.138 3.115 2.386 2.909-.75.357 1.074 1.276 3.75 2.63 2.968 1.392-.804-.385-2.341-.625-3.136 1.221 1.216 1.669 2.824 3.085 3.768.233.155.761.16 1.057.044.517-.204.19-.875-.022-1.139-.243-.303-.69-.874-.69-.874.523.257.848.765 2.012 1.814 1.165 1.05 1.672 1.126 2.116.904.39-.195-.482-1.283-.816-1.616.39.204 1.108.92 1.859 1.462.75.542 1.716.73 1.917.382.159-.276-.34-.623-.845-1.014-.506-.39-.852-.683-.992-.823 0 0 .443.095 1.293.61.85.515 2.11 1.45 2.556 1.564.893.229 1.324.104 1.308-.176-.016-.272-.381-.504-.742-.778-.361-.275-.713-.595-.713-.595s2.605 1.348 3.643 1.41c.783.047 1.178-.007 1.22-.309.034-.253-.64-.866-.64-.866.93.536 1.926.899 2.527.595-.104-.084-.207-.169-.316-.25-.434-.174-.984-.415-1.373-1.006-1.39.213-5.615.332-9.078-1.668-5.513-3.183-7.074-3.606-7.86-3.606-3.25-.008-4.96 2.709-8.314 2.152 3.5 0 5.722-3.397 9.255-2.438 4.055 1.1 8.284 5.255 13.72 5.134.097-1.073-1.326-1.282-1.249-2.431.061-.909.722-1.358 1.08-.83.265.39-.597 1.15-.228 1.52.251.251.86.037.86.037s-.069.842.125 1.101c.193.26.69.395 1.292.441 0-1.238.688-.714.272-2.578-.117-.523.136-.433.39-.448.234-.014.477-.266.19-1.043-.476-.503-1.118-1.078-1.579-1.667-1.184-.166-1.855-1.265-1.528-3.122-.489-1.16-1.013-2.293-1.682-2.894-.046.003-.166.052-.213.066-.329.1-.718-.402-.418-.683.105-.098.16-.741.154-.976-.04-1.551-.81-2.689-1.58-3.57-.24-.244-.472-.48-.668-.676-.139-1.253-1.07-2.153-2.409-2.96-4.263-4.258-6.918-8.908-10.84-10.76-.136 2.24.782 4.493 2.32 5.803 1.039.884 2.49 2.67 3.386 4.296l.008.008c.015.018 1.289 1.92.932 3.106-1.553-1.813-2.474-3.128-3.562-4.487-.002-.003-.013-.012-.014-.015-2.622-2.65-5.6-5.272-8.829-7.426-5.05-3.368-12.364-6.063-15.174-6.426a3.565 3.565 0 0 0-.492-.03zm11.054 13.654c.363.243 1.14 2.071 2.159 3.423 1.42 1.886 4.393 3.18 5.861 3.548.79.197 2.063.416 2.563.705-1.114.298-5.18-.923-7.234-2.057-1.696-1.13-3.176-3.587-3.35-5.619zm17.436 9.857c.706 0 .556.302 1.087.44.531.14 1.094-.033 1.66.14.19.059.455.304.566.515.12.228.328.298.426.47.198.348.169.717.169 1.035h-.47v-.536c0-.087-.019-.19-.25-.19-.238 0-.227.2-.22.308.006.107.012.19-.037.286a.234.234 0 0 1-.125.11.927.927 0 0 1-.22.022c-.39 0-.752.022-.963-.103-.212-.126-.263-.378-.271-.653a.249.249 0 0 0-.06-.162.522.522 0 0 0-.146-.117c-.129-.075-.424-.123-.595-.294a.573.573 0 0 1-.169-.412c0-.05.003-.254-.03-.286-.115-.116-.254-.043-.477-.088a.78.78 0 0 1-.3-.11.346.346 0 0 1-.14-.294v-.074a22.5 22.5 0 0 1 .565-.007zm-5.986 12.332s-.31 1.493-1.204 1.498c-1.236 0-1.543-.627-2.02-1.373 0 0-1.175 1.76-2.123 1.763-1.08.002-1.388-.5-1.388-.5s-.643.462-1.366.426c-.739-.037-1.197-.507-1.197-.507s-1.631 1.261-2.13.676c-1.44.982-2.381 2.662-2.343 5.068-1.734 3.467-2.637 8.165-2.85 12.464-.042.84-.14 2.043.33 2.586-.119 1.791-.594 3.889.088 5.369 1.227 2.123 10.97.522 16.365.624 5.03.095 10.469.889 15.938.889 1.578 0 4.567-.165 7.36-.448 2.792-.284 5.008-1.362 6.191-1.895 0-1.517.08-3.578-.044-5.222-2.018-1.363-1.241-3.77-1.873-5.876.4-.802-.376-1.925-1.483-1.925 0-3.657-.586-6.278-3.041-7.99l-.412-.008c0-1.324-.794-2.268-1.828-3.1.014.377-.917.473-1.425.272 0 1.285-2.72.629-3.32.066.438 1.462-2.393.979-3.4-.03.106 1.18-2.165.779-2.887-.22.14.77-.6.85-1.425.522-.825-.329-1.737-1.065-1.932-1.403-.035.385-.165.78-.529.874-1.463.392-2.754-1.696-2.754-1.696s-.253.781-1.263.844c-1.617.1-2.035-1.748-2.035-1.748z" fill="#d9a005"/><path d="M358.838 50.533c.034.027.103.088.103.088.607.594.94 2.415 1.432 3.547.516 1.19 1.185 2.146 2.145 2.887 1.403 1.083 4.242 1.829 6.147 2.534.952.352 2.047.14 2.534.999.112.196.08.703-.073.97-.721 1.247-.055 4.5-.698 5.053-1.082.93-2.753 3.16-3.437 3.408-1.723.626-3.934.278-5.289 2.585-1.131.108-1.794 1.11-1.718 2.651 1.536-.318 2.383-2.39 3.753-2.857-.284.702-1.62 1.908-.823 2.314.65.33 2.683-1.86 2.99-2.21.185.52-.99 1.984-.573 2.225.901.52 2.55-1.786 2.908-2.336.887 3.138 3.115 2.386 2.909-.75.357 1.074 1.276 3.75 2.63 2.968 1.392-.804-.385-2.341-.625-3.136 1.221 1.216 1.669 2.824 3.085 3.768.233.155.761.16 1.057.044.517-.204.19-.875-.022-1.139-.243-.303-.69-.874-.69-.874.523.257.848.765 2.012 1.814 1.165 1.05 1.672 1.126 2.116.904.39-.195-.482-1.283-.816-1.616.39.204 1.108.92 1.859 1.462.75.542 1.716.73 1.917.382.159-.276-.34-.623-.845-1.014-.506-.39-.852-.683-.992-.823 0 0 .443.095 1.293.61.85.515 2.11 1.45 2.556 1.564.893.229 1.324.104 1.308-.176-.016-.272-.381-.504-.742-.778-.361-.275-.713-.595-.713-.595s2.605 1.348 3.643 1.41c.783.047 1.178-.007 1.22-.309-1.988.05-3.72-1.02-5.656-1.44-1.936-.418-3.709-.814-4.679-1.3-2.026-1.012-5-2.526-7.741-2.526-.583-.157-.408-.887-.176-1.234-1.365.38-2.15.66-3.298 1.477-1.035.736-2.54.712-5.105.712.764-.786 1.619-.128 3.24-.83 1.553-.673 3.738-3.364 4.083-4.245.341-.872.402-1.898.213-2.622-.132-.506-.128-1.308.103-1.594.664.426 1.154.305 1.579.088.425-.217.712-.624 1.205-.492-.136 1.575 1.145 1.2 1.145 2.85.385 1.135 1.568 1.443 5.171 4.392 3.604 2.949 5.46 3.118 5.986 2.96.106-.878.582-1.457.683-2.013-1.13-.312-2.279-1.096-3.07-1.755-.985-.821-2.12-1.257-2.306-1.88-.082-.294.053-1.078-.096-1.227-.031-.032-.294-.088-.338.03-.285.762-2.23-.036-2.967-.588-.736-.553-.643-1.738-1.146-2.24-.414-.415-1.003-.552-1.116-1.176.195-.19.431-.254.69-.242a.428.428 0 0 1-.014-.11v-.074a22.5 22.5 0 0 1 .565-.007c.706 0 .556.302 1.087.44.531.14 1.094-.033 1.66.14.19.059.455.304.566.515.12.228.328.298.426.47.197.345.169.711.169 1.028.806-.05.86-1.106.91-1.66.012-.386-.119-.98-.433-1.19-1.963-1.308-6.76-1.151-9.592-1.484-.3-.347-.873-.396-1.653-.44-.44.114-1.33-.005-2.372-.257l-.074-.015c-.262-.054-.532-.13-.815-.213-.036-.01-.074-.019-.11-.03l-.184-.058c-1.328-.404-2.717-.956-3.672-1.484-1.692-1.128-3.17-3.575-3.35-5.604-.001-.004.002-.01 0-.015a1.763 1.763 0 0 0-.403-.543l-.676-.088zm20.91 11.575a.373.373 0 0 0-.374.375.38.38 0 0 0 .375.382.386.386 0 0 0 .381-.382.38.38 0 0 0-.381-.375zm.794.786c-.174 0-.213.107-.22.206v.007c.006.244.175.4.47.47v-.492c0-.087-.019-.191-.25-.191z" fill="#ffe100"/><path d="M398.074 88.572l-.074.014c.257 1.898-2.595 2.533-4.098 2.909 1.127.327 4.871 1.387 2.776 2.644-.699 1.394-.442 2.998-.44 4.51.436.1.874.206 1.322.323 1.196-.035 1.63-1.208 1.63-2.718.492.952.506 2.13.412 3.29.465.14.937.292 1.417.449 0-1.517.08-3.578-.044-5.222-2.018-1.363-1.241-3.77-1.873-5.876-.471-.008-.777-.144-1.028-.323z" fill="#a37508"/><path d="M378.026 99.229c7.718-2.184 13.985-2.179 22.99.76-1.183.534-3.399 1.612-6.191 1.896-2.792.283-5.779.448-7.357.448-5.469 0-10.907-.788-15.936-.883-5.395-.102-15.141 1.498-16.367-.625 2.977-2.076 17.277-.016 22.86-1.596z" fill="#714f07"/><path d="M392.426 99.376c-5.21.07-12.34 1.563-13.787 2.431l-.014.059c2.899.228 5.865.47 8.843.47 1.578 0 4.567-.165 7.36-.448a15.471 15.471 0 0 0 3.246-.713c-.147-1.385-2.557-1.841-5.648-1.8z" fill="#a37508"/><path d="M396.487 98.22c-1.146-.052-1.725-.795-1.762-2.028-.043-1.39.702-2.304 2.144-2.085.718.108 1.337 1.323 1.337 2.276 0 1.007-.77 1.88-1.719 1.837z" fill="#d9a005"/><path d="M395.9 94.154c-.778.23-1.182.964-1.175 1.953.883.662 1.664.562 1.902.037.273-.6.04-1.478-.727-1.99z" fill="#ffe100"/><path d="M396.487 98.22c-1.146-.052-1.725-.795-1.762-2.028-.043-1.39.702-2.304 2.144-2.085.718.108 1.337 1.323 1.337 2.276 0 1.007-.77 1.88-1.719 1.837z" fill="none" stroke="#000" stroke-width=".23503"/><path d="M368.613 55.185c.452-.261 2.031-.68 3.269-.704 1.237-.023 2.46.11 2.951.595 1.028 1.013.617 2.708-1.526 2.708-1.9 0-4.43-1.948-4.694-2.6z" fill="#ffe100"/><path d="M369.958 56.472c-.667-.646-1.24-1.07-1.88-1.587m31.024 34.007c.632 2.106-.149 4.516 1.87 5.878.124 1.645.044 3.703.044 5.22-1.183.533-3.399 1.611-6.191 1.895-2.792.283-5.779.448-7.357.448-5.469 0-10.907-.788-15.936-.883-5.395-.102-15.141 1.498-16.367-.625-.683-1.48-.209-3.58-.09-5.372-.47-.543-.37-1.742-.329-2.582.213-4.299 1.114-8.998 2.847-12.464-.038-2.433.922-4.134 2.388-5.111-.09-1.566.579-2.586 1.721-2.695 1.355-2.307 3.566-1.959 5.289-2.585.684-.248 2.355-2.478 3.437-3.408.643-.554-.023-3.806.698-5.054.154-.266.185-.773.074-.97-.487-.859-1.58-.643-2.532-.996-1.904-.705-4.749-1.448-6.152-2.532-.96-.74-1.627-1.697-2.143-2.887-.517-1.19-.866-3.15-1.534-3.636 2.639.322 4.251.605 5.625 2.046.71.746 2.383 1.7 3.614 2.306-2.688-4.903-5.957-7.233-9.799-10.18-4.965-3.812-10.424-5.89-10.535-6.492-.136-.741 1.08-.745 1.612-.676 2.81.363 10.126 3.064 15.176 6.432 4.746 3.165 8.95 7.333 12.276 11.134-.016-1.77-2.6-5.256-4.196-6.616-1.538-1.31-2.462-3.567-2.327-5.807 3.923 1.852 6.581 6.503 10.844 10.761 1.339.808 2.271 1.704 2.41 2.958.768.767 2.037 2.106 2.636 2.423-.196.734.55 1.46.065 2.43-.133.267-.342.405-.312.738 1.267 1.027 2.246 4.19 3.273 5.88.697 1.147 2.39 2.273 2.482 3.001.18 1.431-1.07 2.223-1.189 3.537.39.72 1.005.989 1.48 1.179 1.208.903 2.192 1.907 2.192 3.384l.412.005c2.455 1.713 3.04 4.334 3.04 7.991 1.108 0 1.884 1.124 1.484 1.925z" fill="none" stroke="#000" stroke-width=".23503"/><path d="M372.903 68.322c-.464 0-.704.034-1.05.147-.415.136-.723.313-1.41.808-1.08.776-1.584 1.093-2.27 1.44a4.48 4.48 0 0 0-.367.198c.004 0 .032-.007.044-.008 2.231-.918 4.132-2.598 6.75-1.887 4.055 1.1 8.284 5.255 13.72 5.134.006-.062.004-.12 0-.177l-.184-.014c-1.36-.07-3.36-.734-5.702-1.741-1.26-.542-1.973-.896-3.65-1.814-1.878-1.027-2.617-1.391-3.364-1.667-.818-.302-1.715-.419-2.517-.42z" fill="#a37508"/><path d="M370.795 58.278c-.86-.724-1.808-1.676-3.378-2.886-1.57-1.21-3.307-2.872-4.613-2.813.136.656.11 1.103.793 1.454 1.244.64 5.598 4.725 7.198 4.245z" fill="#ffe100"/><g font-weight="400" color="#000" font-family="Sans"><path d="M382.922 88.278c-1.111.017-2.267.114-3.475.316-4.335.722-6.63 1.312-11.663.903-3.663-.298-5.376.231-7.72 1.33-.52.243-1.825.308-2.915.36-1.09.05-1.866.014-1.866.014-.462-.02-.9.383-.918.845-.02.461.383.899.844.918 0 0 .844.04 2.02-.015 1.176-.055 2.534-.307 3.585-.799 2.268-1.063 3.346-1.298 6.823-1.015 5.188.422 7.781-.206 12.097-.925 4.467-.745 8.183.198 11.678.947 3.004.644 7.573.661 7.573.661.464.01.895-.41.898-.874.004-.465-.419-.89-.884-.889 0 0-4.575-.059-7.212-.624-2.614-.56-5.533-1.206-8.865-1.153z" style="text-indent:0;text-align:start;line-height:normal;text-transform:none;block-progression:tb;marker:none;-inkscape-font-specification:Sans" fill="#d9a005" overflow="visible"/><path style="text-indent:0;text-align:start;line-height:normal;text-transform:none;block-progression:tb;marker:none;-inkscape-font-specification:Sans" d="M398.368 90.04l-.015.03c.781.582.595 1.233.308 1.74l.324.008c.464.01.892-.41.896-.874.004-.465-.417-.89-.882-.889 0 0-.292-.005-.631-.014z" fill="#a37508" stroke-width="0" overflow="visible"/></g><path d="M372.073 75.55c-1.282-.01-2.583.07-3.863.036-.913.999.106 1.52 1.241 1.623.251.093.36.23.338.478-1.19.837-1.639.896-3.298 1.065-1.659.168-4.09 1.073-5.597 1.322 1.228 1.456 2.457 1.378 3.034 1.895.564.505-.696.87-.757 1.542-.011 1.388-1.078 1.858-2.07 2.255.666.67 2.268.96 3.165.889-.623.196-.99.602-1.11 1.02-.842-.747-1.922-.236-2.511.706-.26.13-.633-.22-.911.058-.106.106.537 1.666.492 2.314l-.162.073c-.52.244-1.825.309-2.915.36-1.09.052-1.866.015-1.866.015-.462-.02-.899.383-.918.845-.02.461.383.899.845.918 0 0 .843.04 2.02-.015 1.175-.055 2.533-.308 3.584-.8 2.268-1.063 3.346-1.297 6.823-1.014 2.608.212 4.56.16 6.405-.037l-.008.015c-.32.523-1.335.847-1.983.977-.728.145-2.13.067-2.13.778 0 .711 1.56.549 1.653.867.04.134-.213.271-.514.301-.402.04-.35.582-.316.955.005.036.022.103.022.103-4.247.076-9.245-.173-13.603.154 1.285 1.331.966 3.213.661 4.804 5.274-.67 15.64.467 20.199-.823a44.817 44.817 0 0 1 4.546-1.05c-.336-1.354-.382-3.055-.36-4.65-.122.02-.245.046-.367.066.205-.27.23-.533.015-.778-.918-.415-2.513.22-2.556-.837-.033-.78-.028-1.168-.676-1.543-.02-.01-.04-.019-.059-.03l1.168-.198c4.451-.741 8.157.193 11.641.94.602-.352.88-1.09.75-1.652-.115-.021-.23-.043-.338-.066-.978-.21-2.001-.432-3.07-.624-.078-1.11-.495-2.565.44-3.188-.4-.41-1.018-.262-1.314 0-.145-.235-.257-.383-.448-.529.022-1.89-.066-2.424-1.205-3.481.468.134 1.03.36 1.395-.103.743-.85-2.819-2.513 2.85-2.791-3.365-.612-7.722-.532-11.583-.125-.801.085-1.9-.226-2.651-.477a44.195 44.195 0 0 1-1.704-.669c-.355-.148-.463-.422-.206-.36 1.007.244 1.08-.358 1.528-1.02-1.204-.405-2.464-.505-3.746-.515zm1.095 3.635c1.092-.01 2.228.529 3.4.529 1.333.724.75 1.666 2.204 2.247 1.21 1.186 1.162 5.298.293 6.699-3.597.61-5.853 1.106-9.68.94 1.014-.178 1.858-.409 2.394-.757-.33-.155-.535-.391-.763-.543.525.047 1.572.121 2.313 0 .741-.121.957-.562.647-1.08-.158-.262-1.264-.26-1.572-.272-.486-.018-.845-.345-1-.602 2.07-.892 2.394-1.563 1.198-3.357-.252-.362.347-.357.477-.852.097-.365-.207-1.06-1.27-1.028-.15-.656.226-1.11.279-1.69a2.572 2.572 0 0 1 1.08-.234z" fill="#ffe100"/><path d="M382.922 88.278c-1.111.017-2.267.114-3.475.316-4.335.722-6.63 1.312-11.663.903-3.663-.298-5.376.231-7.72 1.33-.52.243-1.825.308-2.915.36-1.09.05-1.866.014-1.866.014-.462-.02-.9.383-.918.845-.02.461.383.899.844.918 0 0 .844.04 2.02-.015 1.176-.055 2.534-.307 3.585-.799 2.268-1.063 3.346-1.298 6.823-1.015 5.188.422 7.781-.206 12.097-.925 4.467-.745 8.183.198 11.678.947 3.004.644 7.573.661 7.573.661.464.01.895-.41.898-.874.004-.465-.419-.89-.884-.889 0 0-4.575-.059-7.212-.624-2.614-.56-5.533-1.206-8.865-1.153z" style="text-indent:0;text-align:start;line-height:normal;text-transform:none;block-progression:tb;marker:none;-inkscape-font-specification:Sans" font-weight="400" color="#000" fill="none" stroke="#000" overflow="visible" font-family="Sans" stroke-width=".23503"/><path d="M377.722 81.778c.935.263 1.502.043 1.89-.54.755.724 2.34.607 2.805-.125 1.2 1.11 2.687.511 3.096-.146.698 1.1 1.982.98 2.721.333.44.663 1.72 1.132 2.452.644m3.892-2.968c-2.635 0-4.735-.444-7.286-.632-2.55-.19-5.341-.073-8.961.309-3.494.368-6.956.05-10.322.366-3.53.331-7.58.862-10.596 1.69m2.175 2.606c.548.388 1.812.003 2.2-.706.583.573 1.976.656 2.307-.333.705.768 1.855.631 2.285-.228.874.756 1.813.472 2.368-.063" fill="none" stroke="#000" stroke-width=".23503"/><path d="M360.61 89.45a.838.838 0 1 1-1.676 0 .838.838 0 0 1 1.676 0z" fill="#ffe100"/><path d="M359.969 88.638c.168.586.14 1.166-.676 1.476-.002.008.002.014 0 .022a.84.84 0 0 0 .478.154.838.838 0 1 0 .198-1.653z" fill="#d9a005"/><path d="M360.61 89.45a.838.838 0 1 1-1.676 0 .838.838 0 0 1 1.676 0zM368.52 81.037a.838.838 0 1 1-1.677 0 .838.838 0 0 1 1.676 0z" fill="none" stroke="#000" stroke-width=".23503"/><path d="M379.522 87.128a.838.838 0 1 1-1.676 0 .838.838 0 0 1 1.676 0z" fill="#ffe100"/><path d="M379.374 86.647c-.185.655-.661.85-1.44.86a.837.837 0 0 0 1.586-.375.84.84 0 0 0-.146-.485z" fill="#d9a005"/><path d="M379.522 87.128a.838.838 0 1 1-1.676 0 .838.838 0 0 1 1.676 0z" fill="none" stroke="#000" stroke-width=".23503"/><path d="M367.733 87.448a.838.838 0 1 1-1.677 0 .838.838 0 0 1 1.677 0z" fill="#ffe100"/><path d="M367.092 86.634c.167.587.14 1.167-.676 1.477-.002.008.002.014 0 .022a.84.84 0 0 0 .477.154.838.838 0 1 0 .198-1.653z" fill="#d9a005"/><path d="M367.733 87.448a.838.838 0 1 1-1.677 0 .838.838 0 0 1 1.677 0zM399.102 88.892c-1.207-.02-1.348-.866-2.176-1.197m-19.557-1.607c.849-.796 1.733-.481 2.088-.03.593-1.008 2.309-1.47 3.085-.25.533-.968 2.01-1.328 2.66-.353 1.038-.95 2.129-.777 2.638.166.639-.536 1.192-.515 1.807-.208m-30.954 3.054c.563-.738 1.549-.69 1.953-.083.59-.942 1.671-1.454 2.514-.706.238-.838 1.45-1.477 2.295-.665.28-.813 1.08-1.157 1.818-.935" fill="none" stroke="#000" stroke-width=".23503"/><path d="M363.044 88.724a.838.838 0 1 1-1.677 0 .838.838 0 0 1 1.677 0z" fill="#ffe100"/><path d="M362.403 87.91c.167.587.14 1.167-.676 1.477-.003.008.002.014 0 .022a.84.84 0 0 0 .477.154.838.838 0 1 0 .198-1.653z" fill="#d9a005"/><path d="M363.044 88.724a.838.838 0 1 1-1.677 0 .838.838 0 0 1 1.677 0z" fill="none" stroke="#000" stroke-width=".23503"/><path d="M365.403 88.049a.838.838 0 1 1-1.677 0 .838.838 0 0 1 1.677 0z" fill="#ffe100"/><path d="M364.762 87.235c.168.587.14 1.167-.676 1.477-.002.008.002.014 0 .022a.84.84 0 0 0 .477.154.838.838 0 1 0 .198-1.653z" fill="#d9a005"/><path d="M365.403 88.049a.838.838 0 1 1-1.677 0 .838.838 0 0 1 1.677 0z" fill="none" stroke="#000" stroke-width=".23503"/><path d="M382 86.654a.838.838 0 1 1-1.676 0 .838.838 0 0 1 1.676 0z" fill="#ffe100"/><path d="M381.852 86.172c-.185.655-.661.85-1.44.86a.837.837 0 0 0 1.586-.375.84.84 0 0 0-.146-.485z" fill="#d9a005"/><path d="M382 86.654a.838.838 0 1 1-1.676 0 .838.838 0 0 1 1.676 0z" fill="none" stroke="#000" stroke-width=".23503"/><path d="M384.85 86.416a.838.838 0 1 1-1.677 0 .838.838 0 0 1 1.676 0z" fill="#ffe100"/><path d="M384.701 85.935c-.185.655-.661.85-1.44.86a.837.837 0 0 0 1.586-.375.84.84 0 0 0-.146-.485z" fill="#d9a005"/><path d="M384.85 86.416a.838.838 0 1 1-1.677 0 .838.838 0 0 1 1.676 0z" fill="none" stroke="#000" stroke-width=".23503"/><path d="M387.476 86.535a.838.838 0 1 1-1.677 0 .838.838 0 0 1 1.677 0z" fill="#ffe100"/><path d="M387.328 86.054c-.186.654-.661.849-1.44.859a.837.837 0 0 0 1.586-.375.84.84 0 0 0-.146-.484z" fill="#d9a005"/><path d="M387.476 86.535a.838.838 0 1 1-1.677 0 .838.838 0 0 1 1.677 0z" fill="none" stroke="#000" stroke-width=".23503"/><path d="M390.073 86.891a.838.838 0 1 1-1.677 0 .838.838 0 0 1 1.677 0z" fill="#ffe100"/><path d="M389.924 86.41c-.185.655-.66.849-1.44.859a.837.837 0 0 0 1.586-.375.84.84 0 0 0-.146-.484z" fill="#d9a005"/><path d="M390.073 86.891a.838.838 0 1 1-1.677 0 .838.838 0 0 1 1.677 0z" fill="none" stroke="#000" stroke-width=".23503"/><path d="M361.16 81.898a.838.838 0 1 1-1.677 0 .838.838 0 0 1 1.676 0z" fill="#ffe100"/><path d="M360.814 81.227c.063.756-.44 1.235-1.043 1.3a.84.84 0 0 0 .55.213.843.843 0 0 0 .838-.845.821.821 0 0 0-.345-.668z" fill="#d9a005"/><path d="M361.16 81.898a.838.838 0 1 1-1.677 0 .838.838 0 0 1 1.676 0z" fill="none" stroke="#000" stroke-width=".23503"/><g><path d="M363.593 81.601a.838.838 0 1 1-1.677 0 .838.838 0 0 1 1.677 0z" fill="#ffe100"/><path d="M363.247 80.93c.064.757-.44 1.235-1.043 1.3a.84.84 0 0 0 .551.213.843.843 0 0 0 .837-.845.821.821 0 0 0-.345-.668z" fill="#d9a005"/><path d="M363.593 81.601a.838.838 0 1 1-1.677 0 .838.838 0 0 1 1.677 0z" fill="none" stroke="#000" stroke-width=".23503"/></g><g><path d="M366.056 81.304a.838.838 0 1 1-1.677 0 .838.838 0 0 1 1.677 0z" fill="#ffe100"/><path d="M365.71 80.633c.064.757-.44 1.235-1.043 1.3a.84.84 0 0 0 .551.213.843.843 0 0 0 .838-.844.821.821 0 0 0-.346-.669z" fill="#d9a005"/><path d="M366.056 81.304a.838.838 0 1 1-1.677 0 .838.838 0 0 1 1.677 0z" fill="none" stroke="#000" stroke-width=".23503"/></g><g><path d="M379.233 80.444a.838.838 0 1 1-1.677 0 .838.838 0 0 1 1.677 0z" fill="#ffe100"/><path d="M378.706 79.662c-.002.006-.006.01-.008.015.046.852-.277 1.252-.91 1.337a.84.84 0 0 0 .61.271.843.843 0 0 0 .308-1.623z" fill="#d9a005"/><path d="M379.233 80.444a.838.838 0 1 1-1.677 0 .838.838 0 0 1 1.677 0z" fill="none" stroke="#000" stroke-width=".23503"/></g><g><path d="M381.978 80.31a.838.838 0 1 1-1.676 0 .838.838 0 0 1 1.676 0z" fill="#ffe100"/><path d="M381.45 79.529c0 .005-.005.009-.006.014.045.853-.278 1.252-.911 1.337a.84.84 0 0 0 .61.272.843.843 0 0 0 .308-1.623z" fill="#d9a005"/><path d="M381.978 80.31a.838.838 0 1 1-1.676 0 .838.838 0 0 1 1.676 0z" fill="none" stroke="#000" stroke-width=".23503"/></g><g><path d="M385.05 80.31a.838.838 0 1 1-1.677 0 .838.838 0 0 1 1.677 0z" fill="#ffe100"/><path d="M384.523 79.529l-.008.014c.045.853-.277 1.252-.91 1.337a.84.84 0 0 0 .609.272.843.843 0 0 0 .309-1.623z" fill="#d9a005"/><path d="M385.05 80.31a.838.838 0 1 1-1.677 0 .838.838 0 0 1 1.677 0z" fill="none" stroke="#000" stroke-width=".23503"/></g><g><path d="M387.943 80.325a.838.838 0 1 1-1.676 0 .838.838 0 0 1 1.676 0z" fill="#ffe100"/><path d="M387.416 79.543c-.002.006-.006.01-.007.015.045.852-.278 1.252-.911 1.337a.84.84 0 0 0 .61.272.843.843 0 0 0 .308-1.624z" fill="#d9a005"/><path d="M387.943 80.325a.838.838 0 1 1-1.676 0 .838.838 0 0 1 1.676 0z" fill="none" stroke="#000" stroke-width=".23503"/></g><g><path d="M390.689 80.562a.838.838 0 1 1-1.677 0 .838.838 0 0 1 1.677 0z" fill="#ffe100"/><path d="M390.161 79.781c-.001.005-.006.01-.007.015.045.852-.278 1.252-.91 1.337a.84.84 0 0 0 .609.271.843.843 0 0 0 .308-1.623z" fill="#d9a005"/><path d="M390.689 80.562a.838.838 0 1 1-1.677 0 .838.838 0 0 1 1.677 0z" fill="none" stroke="#000" stroke-width=".23503"/></g><g><path d="M357.596 80.495c-1.158-.31-2.172 2.684-2.802 5.185-.63 2.502-.628 5.404.68 5.404 2.121 0 3.667-2.991 4-4.817.644-3.542-.679-5.45-1.878-5.772z" fill="#ffe100"/><path d="M354.779 88.88c0 .37.337.552.9.445.492-.094 1.03-1.161.458-1.447M356.693 87.614c.328.416.746.277.99-.084.207-.307.41-.873.414-1.29.005-.415-.313-.682-.897-.389M356.473 83.56c-.195-1.581 1.423-1.432 1.968-.412.45.842-.266 2.395-.793 1.792" fill="none" stroke="#000" stroke-width=".23503"/><path d="M357.912 80.617c1.373 1.82 1.776 4.913.213 7.03-1.61 2.178-2.84 2.357-3.503 2.71.175.45.451.726.852.726 2.122 0 3.67-2.992 4.003-4.818.588-3.233-.464-5.102-1.565-5.648z" fill="#d9a005"/><path d="M357.596 80.495c-1.158-.31-2.172 2.684-2.802 5.185-.63 2.502-.628 5.404.68 5.404 2.121 0 3.667-2.991 4-4.817.644-3.542-.679-5.45-1.878-5.772z" fill="none" stroke="#000" stroke-width=".23503"/><path d="M354.916 87.76c-.671 0-.956-1.256-.845-2.035.112-.78.823-1.475 1.55-1.475.892 0 1.102 1.022 1.028 1.836-.065.864-.665 1.675-1.733 1.675z" fill="#ffe100"/><path d="M356.12 84.392c.006 1.563-.179 2.496-1.762 2.982.14.232.324.39.558.39 1.068 0 1.668-.811 1.733-1.675.058-.632-.057-1.39-.529-1.697z" fill="#d9a005"/><path d="M354.916 87.76c-.671 0-.956-1.256-.845-2.035.112-.78.823-1.475 1.55-1.475.892 0 1.102 1.022 1.028 1.836-.065.864-.665 1.675-1.733 1.675z" fill="none" stroke="#000" stroke-width=".23503"/></g><g><path d="M377.693 84.448c-.157 2.968-2.215 5.156-5.573 5.405-2.884.214-5.119-1.669-4.946-4.93.157-2.967 2.334-5.465 5.515-5.61 2.889-.131 5.162 2.168 5.004 5.135z" fill="#d9a005"/><path d="M372.279 79.346c-2.956.332-4.954 2.738-5.105 5.575-.122 2.307.957 3.925 2.622 4.598.828-.167 1.523-.377 1.983-.676-.33-.155-.535-.391-.763-.543.525.047 1.572.121 2.313 0 .741-.121.957-.562.647-1.08-.158-.262-1.264-.26-1.572-.272-.486-.018-.845-.345-1-.602 2.07-.892 2.394-1.563 1.198-3.357-.252-.362.347-.357.477-.852.097-.365-.207-1.06-1.27-1.028-.15-.656.226-1.11.279-1.69.064-.029.127-.049.19-.073z" fill="#ffe100"/><path d="M374.066 84.748a1.87 1.87 0 1 1-3.74 0 1.87 1.87 0 0 1 3.74 0z" fill="none" stroke="#000" stroke-linecap="round" stroke-linejoin="round" stroke-width=".23503"/><path d="M370.888 87.47c-1.034.884.796.955 1.579.955 1.181 0 2.593-.068 1.952-1.35M371.106 82.39c-.96-.783.494-1.475 1.464-1.475 1.343 0 2.223.59 1.091 1.58" fill="none" stroke="#000" stroke-width=".23503"/><path d="M374.556 82.891c-.116.35.205.746.205 1.05 0 .807.521 1.633.808.485.071-.284.021-1.025-.148-1.492-.17-.466-.458-.857-.865-.043z" fill="#ffe100"/><path d="M374.6 85.863c.957.726 1.44-.264 1.44-2.083 0-1.288-1.275-2.418-1.514-.705M370.535 82.983c-1.327-1.06-1.661.567-1.97 1.89-.483 2.063.797 3.209 1.596 1.928" fill="none" stroke="#000" stroke-width=".23503"/><path d="M379.77 444.085c0 12.594-8.282 21.509-22.55 21.918-12.252.351-22.208-8.092-22.208-21.93 0-12.594 8.722-22.804 22.254-22.804 12.29 0 22.504 10.222 22.504 22.816z" transform="matrix(.23503 -.01068 -.01248 .2356 293.977 -16.122)" fill="none" stroke="#000" stroke-linecap="round" stroke-linejoin="round"/></g><g><path d="M398.139 84.807c-.177 2.425-1.753 4.571-3.984 4.242-2.543-.376-3.999-2.287-4.072-4.858-.077-2.721 1.823-4.412 4.072-4.242 2.249.17 4.151 2.555 3.984 4.858z" fill="#d9a005"/><path d="M392.462 80.544a2.457 2.457 0 0 0-.72.08h-.065c-.997.718-1.64 1.965-1.594 3.57.041 1.465.533 2.71 1.417 3.584l.015-.014c-.111-.845.53-1.12.852-1.602.226.697 1.667 1.56 2.1.706.266-.523-1.028-.865-1.454-1.352 2.112.12 2.655-2.149.882-2.835.355-.63 1.36-.245.874-1.22-.115-.23-.245-.459-.426-.557-.19-.103-1.093-.349-1.88-.36z" fill="#ffe100"/><path d="M395.755 84.25a1.579 1.579 0 1 1-3.158 0 1.579 1.579 0 0 1 3.158 0z" fill="none" stroke="#000" stroke-linecap="round" stroke-linejoin="round" stroke-width=".23503"/><path d="M392.43 85.808c0 .868.116 1.14 1.015 1.512.624.26 1.52.215 1.52-.432M393.138 82.355c-.804-.961-1.595-.148-1.818.881-.215.996.02 1.95.922 1.91M393.51 81.82c-1.303-1.313.31-1.162 1.33-.811.774.266 1.452 1.057.686 1.516M395.983 83.253c.802-.181.703 1.008.727 1.62.033.819-.278 1.847-1.1 1.6" fill="none" stroke="#000" stroke-width=".23503"/><path d="M396.605 81.102c.454.693.826 1.482.978 2.108.76 3.128-1.313 5.533-3.328 5.501-.367-.006-1.303-.08-2.02-.36.545.343 1.183.59 1.917.698 2.23.33 3.812-1.82 3.988-4.245.1-1.369-.535-2.758-1.535-3.702z" fill="#a37508"/><path d="M469.586 442.246c-.75 10.372-7.457 20.013-16.95 19.328-10.817-.78-17.012-8.44-17.323-19.357-.33-11.552 7.756-19.357 17.324-19.357 9.568 0 17.661 9.53 16.949 19.386z" transform="matrix(.23503 .01779 0 .23503 287.77 -27.487)" fill="none" stroke="#000" stroke-linecap="round" stroke-linejoin="round"/><path d="M396.201 85.168c-.176-.1-.234.145-.294.264-.052.106-.153.117-.22.184-.029.029-.041.157-.037.198.03.287.272.223.455.038.182-.185.305-.49.096-.684z" fill="#ffe100"/></g><g><path d="M358.637 96.639c-.134 1.083-.045 1.648.193 2.064.237.415.74.846 1.528.846.789 0 1.616-.454 1.832-1.261.184-.685.142-1.435-.244-2.013-.386-.58-.849-1.088-.849-1.088-1.537 0-2.327.369-2.46 1.452z" fill="#d9a005"/><path d="M360.145 95.255c-.913.147-1.403.551-1.505 1.381-.091.735-.077 1.228.014 1.601.91.921 2.181.851 2.556.074.398-.825.523-2.53-1.065-3.056z" fill="#ffe100"/><path d="M358.637 96.639c-.134 1.083-.045 1.648.193 2.064.237.415.74.846 1.528.846.789 0 1.616-.454 1.832-1.261.184-.685.142-1.435-.244-2.013-.386-.58-.849-1.088-.849-1.088-1.537 0-2.327.369-2.46 1.452z" fill="none" stroke="#000" stroke-width=".23503"/></g><g><path d="M367.27 99.531c-1.17 0-1.996-.674-2.057-1.92-.074-1.518.474-2.403 2.42-2.403 1.075.556 1.377 1.451 1.295 2.56-.07.943-.712 1.763-1.658 1.763z" fill="#d9a005"/><path d="M366.675 95.3c-1.171.264-1.522 1.082-1.462 2.313.005.107.02.21.037.309.27.579.822.976 1.454.976.9 0 1.63-.807 1.63-1.8 0-.992-.73-1.799-1.63-1.799-.01.002-.02-.002-.03 0z" fill="#ffe100"/><path d="M367.27 99.531c-1.17 0-1.996-.674-2.057-1.92-.074-1.518.474-2.403 2.42-2.403 1.075.556 1.377 1.451 1.295 2.56-.07.943-.712 1.763-1.658 1.763z" fill="none" stroke="#000" stroke-width=".23503"/></g><g><path d="M376.29 94.824c-1.792-.112-2.761.427-2.702 2.223.036 1.076.68 2.015 1.953 2.015 1.175 0 1.803-.853 1.757-2.274-.024-.77-.58-1.534-1.009-1.964z" fill="#d9a005"/><path d="M375.158 94.866c-1.058.177-1.617.813-1.572 2.181.014.418.126.81.323 1.139 1.135.347 1.967-.2 2.16-1.014.26-1.103-.092-1.588-.911-2.306z" fill="#ffe100"/><path d="M376.29 94.824c-1.792-.112-2.761.427-2.702 2.223.036 1.076.68 2.015 1.953 2.015 1.175 0 1.803-.853 1.757-2.274-.024-.77-.58-1.534-1.009-1.964z" fill="none" stroke="#000" stroke-width=".23503"/></g><path d="M383.906 93.287c-.257.032-.51.067-.764.103l.183 4.664c.248-.038.496-.071.742-.103.999-.827 1.081-1.591 1.065-2.306-.018-.829-.432-1.649-1.226-2.358z" fill="#a37508"/><g><path d="M383.502 93.401c-1.932.15-2.807.613-2.512 2.718.14.996.853 1.833 1.983 1.733 1.389-.122 1.752-1.414 1.572-2.629-.103-.691-.561-1.378-1.043-1.822z" fill="#d9a005"/><path d="M382.393 93.559c-1.147.273-1.634.916-1.403 2.563.028.198.082.386.154.566 1.927.541 2.634-2.114 1.249-3.13z" fill="#ffe100"/><path d="M383.502 93.401c-1.932.15-2.807.613-2.512 2.718.14.996.853 1.833 1.983 1.733 1.389-.122 1.752-1.414 1.572-2.629-.103-.691-.561-1.378-1.043-1.822z" fill="none" stroke="#000" stroke-width=".23503"/></g><path d="M390.567 93.081v4.686c.495.037.988.087 1.491.147.891-.789.963-1.524.948-2.21-.02-.897-.496-1.789-1.425-2.535l-.08-.029c-.317-.026-.629-.04-.934-.059z" fill="#a37508"/><g><path d="M390.976 93.37c-1.923-.029-2.364.55-2.326 2.202.028 1.251.57 2.067 1.807 2.077 1.177.01 1.913-1.151 1.87-2.285-.03-.81-.645-1.984-1.35-1.994z" fill="#d9a005"/><path d="M390.325 93.39c-1.372.114-1.707.736-1.675 2.181.006.246.034.474.081.683 1.57.81 2.493-1.478 1.609-2.864h-.015z" fill="#ffe100"/><path d="M390.976 93.37c-1.923-.029-2.364.55-2.326 2.202.028 1.251.57 2.067 1.807 2.077 1.177.01 1.913-1.151 1.87-2.285-.03-.81-.645-1.984-1.35-1.994z" fill="none" stroke="#000" stroke-width=".23503"/></g><path d="M401.016 99.99c0-1.517.08-3.575-.044-5.22-12.512-3.024-17.273-1.54-24.722-.118-5.25 1.002-14.402-.092-21.174.801-.12 1.792-.594 3.892.089 5.372 2.977-2.076 17.277-.016 22.86-1.596 7.72-2.184 13.986-2.179 22.991.76z" fill="none" stroke="#000" stroke-linejoin="round" stroke-width=".23503"/><g><path d="M401.09 95.216c-1.757.878-1.374 2.854-.103 3.843 1.817-1.395 1.558-2.801.104-3.843z" fill="#a37508"/><path d="M400.88 95.343c-.99.61-1.156 1.61-.808 2.498 1.359.33 2.059-1.321.822-2.498-.004 0-.01.002-.014 0z" fill="#d9a005"/><path d="M401.09 95.216c-1.757.878-1.374 2.854-.103 3.843 1.817-1.395 1.558-2.801.104-3.843z" fill="none" stroke="#000" stroke-width=".23503"/></g><g><path d="M355.754 95.501c-.622 0-.727-.063-1.187.32-.6.499-1.015 1.337-1.015 2.105s.497 1.296.979 1.764c.372.36.675.334 1.081.334.559 0 1.135-.939 1.247-2.046.112-1.107-.308-2.477-1.105-2.477z" fill="#d9a005"/><path d="M355.224 95.498c-.223.015-.366.084-.653.323-.6.499-1.021 1.34-1.021 2.108 0 .256.062.48.154.69.405.393.952.601 1.564.397.69-.23 1.074-1.368.823-2.306a2.31 2.31 0 0 0-.8-1.212c-.022 0-.047-.002-.067 0z" fill="#ffe100"/><path d="M355.754 95.501c-.622 0-.727-.063-1.187.32-.6.499-1.015 1.337-1.015 2.105s.497 1.296.979 1.764c.372.36.675.334 1.081.334.559 0 1.135-.939 1.247-2.046.112-1.107-.308-2.477-1.105-2.477z" fill="none" stroke="#000" stroke-width=".23503"/></g><g><path d="M427.599 119.655c.3 1.224.608 3.72-.05 4.755-4.48-.03-4.633.898-6.896.898 1.027-2.69 5.283-3.093 6.946-5.653zm-105.198 0c-.3 1.224-.608 3.72.05 4.755 4.48-.03 4.633.898 6.896.898-1.027-2.69-5.283-3.093-6.946-5.653zm45.829 27.337c1.025 0 3.869-1.199 4.047-2.017-4.373-.07-8.916-6.776-12.575-9.48 1.02 0 3.578-1.464 3.78-2.22-2.205.262-7.274-5.427-16.501-8.674.234-.872 1.865-.742 4.323-2.783 1.285-1.068 2.735-2.7 3.016-5.255-5.977 2.126-12.203.31-18.183-1.292-8.238-2.208-14.398-3.928-16.07 3.01-2.212-1.276-6.514-1.712-8.494-1.586-3.057.194-9.228 2.384-9.228 7.95 0 1.789-.064 3.542.928 4.73 1.9-5.773 8.141-1.443 10.894 0 1.902.996 3.026 1.605 4.11 2.231-1.944 0-3.316-.31-4.994-.73-3.118-.779-7.253.332-10.425.332-4.938 0-7.066-4.485-6.495-11-1.856 0-3.268.83-3.973 2.095-2.465 4.422 1.535 10.978 6.729 12.595 4.78 1.489 9.954-.13 11.932-.52 4.536-.893 10.6-.864 14.088 1.673-1.296 0-3.41.089-4.844.375-2.464.493-4.734.688-6.343-.462 2.842 7.85 11.34 6.17 18.75 6.993 2.794.75 13.383 3.94 18.503 15.632 4.745 10.832.247 27.397-14.254 24.933.47 1.819.953 3.64 1.612 5.468-4.346 1.196-13.939-3.909-10.707-8.577 10.296-14.868-12.814-27.001-19.686-30.969-.754 1.137-1.539 2.235-2.533 3.051-12.435-8.58-38.63-22.474-39.028-32.062-.18-4.344-2.128-6.271-4.547-6.448-4.032-.294-9.313 4.247-9.44 10.304-.268 12.743 10.328 21.13 21.586 27.515 11.257 6.386 23.193 10.15 25.558 14.679-13.876-4.084-34.155-10.837-37.934-17.384-4.28-7.803-11.328.232-9.038 7.829 2.34 7.76 11.243 12.97 24.925 16.635 11.129 2.982 21.57 4.247 21.932 8.232-7.139.143-26.725-.764-31.315-5.354-2.237-2.237-5.36-5.44-8.75-5.698-8.42-.644-6.67 9.946-3.165 14.39 6.331 8.03 27.52 8.056 44.669 7.541-7.797 6.445-33.363 4.345-41.388-1.209-10.134-.902-8.253 11.644.748 14.449 9.13 2.844 27.514 2.907 35.862-1.267 5.531-2.765 4.893 1.727 4.893 1.727-6.147 4.02-20.484 6.835-31.775 6.505-7.086-.207-10.993-6.274-14.506-2.82-5.006 4.92.214 15.08 13.124 15.08 11.96-.219 29.361-5.735 36.726-11.627-.954 9.206-37.632 27.439-46.8 15.081-10.726 3.754-3.64 18.095 5.24 19.284 19.265 2.579 33.214-12.895 46.683-21.874-12.459 12.743-30.542 37.745-50.138 27.63-9.88 4.183.019 17.845 7.944 17.845 25.049 0 41.139-24.453 51.116-34.768-4.255 15.88-16.559 29.528-31.142 30.854-2.713 7.596 7.348 11.103 12.895 9.037 13.076-4.871 25.503-20.34 27.687-32.35 3.35 6.563-4.182 18.539-10.073 20.895 3.262 10.272 16.91 1.067 17.154-9.67 2.317 8.647-.275 17.859-4.836 22.564-6.326 6.528-12.31 7.195-23.83 6.16-.17 3.713.673 8.41 2.302 11.397 0 0-12.174-.282-16.463.978-3.856 1.134-4.037 3.233-8.29 2.879-2.003-1.73-3.157-3.101-5.928-3.857-2.255-2.194-4.362-7.315-7.484-7.368-1.44-.025-2.342.373-3.684 1.554-3.016-1.791-8.262.476-9.152 3.742 6.488.038 5.026 6.216 9.67 6.216 1.244 0 2.188 1.477 2.188 2.821-7.944-.645-16.349-2.919-14.621 5.814-4.374 1.512-7.192 5.826-4.663 9.44 1.428-1.4 2.573-2.971 4.375-3.626 5.353 3.257 8.203-1.337 11.57-3.281 2.13-1.23 5.871-.823 4.72 1.093-1.57 2.615-16.046 6.578-11.915 12.722-1.737 5.922-.622 10.02 3.454 13.009-.102-2.806.476-6.247 1.727-8.29 8.746 0 6.61-3.44 9.382-7.597 1.364-2.045 5.205-7.023 8.635-7.023 9.024 0 3.304 15.828 16.578 14.62.689 3.114-1.619 5.536-2.82 7.081 4.878-.58 9.152-2.892 9.152-8.116 5.396-17.094-15.254-12.81-15.254-21.414 25.783 0 37.646-3.534 37.646 14.91 20.834-10.868 17.808-38.176 23.025-40.065 3.032-1.098 6.852 1.087 7.138 4.72 1.083 13.744-4.815 25.088-11.858 33.387-6.726 7.925-16.955 9.258-28.551 8.634.458 5.237 2.78 9.725 5.123 13.24 13.763-.972 25.966-9.337 33.847-20.838-3.938 14.697-18.593 22.862-31.091 25.182 1.64 4.051 5.663 8.667 10.778 11.619 11.166-6.77 20.47-15.695 25.206-27.533-1.7 14.419-9.988 25.181-20.418 31.904 2.338 3.487 7.851 7.905 12.846 10.467 9.193-12.52 12.688-28.13 17.012-42.544.127 12.957-2.595 36.868-10.304 46.856 3.784 4.038 9.94 9.095 14.448 9.095 4.507 0 10.664-5.057 14.448-9.095-7.71-9.988-10.431-33.899-10.304-46.856 4.324 14.414 7.819 30.023 17.012 42.544 4.995-2.562 10.508-6.98 12.846-10.467-10.43-6.723-18.718-17.485-20.418-31.904 4.735 11.838 14.04 20.764 25.206 27.533 5.115-2.952 9.137-7.568 10.778-11.619-12.498-2.32-27.153-10.485-31.09-25.182 7.88 11.501 20.083 19.866 33.846 20.838 2.343-3.515 4.665-8.003 5.123-13.24-11.596.624-21.825-.71-28.55-8.634-7.044-8.3-12.942-19.643-11.859-33.387.286-3.633 4.106-5.818 7.138-4.72 5.217 1.89 2.19 29.197 23.025 40.064 0-18.443 11.863-14.909 37.646-14.909 0 8.603-20.65 4.32-15.254 21.414 0 5.224 4.274 7.535 9.153 8.116-1.202-1.545-3.51-3.967-2.82-7.08 13.273 1.207 7.553-14.621 16.577-14.621 3.43 0 7.271 4.978 8.635 7.023 2.771 4.157.636 7.598 9.382 7.598 1.251 2.042 1.829 5.483 1.727 8.289 4.076-2.989 5.191-7.087 3.454-13.01 4.131-6.143-10.345-10.106-11.915-12.72-1.151-1.917 2.59-2.324 4.72-1.094 3.367 1.944 6.217 6.538 11.57 3.28 1.802.656 2.947 2.227 4.375 3.627 2.53-3.614-.289-7.928-4.663-9.44 1.728-8.733-6.677-6.459-14.621-5.814 0-1.344.944-2.82 2.188-2.82 4.644 0 3.182-6.179 9.67-6.217-.89-3.266-6.136-5.533-9.152-3.742-1.342-1.18-2.244-1.579-3.684-1.554-3.122.053-5.23 5.174-7.484 7.368-2.771.756-3.925 2.127-5.929 3.857-4.252.354-4.433-1.745-8.289-2.879-4.289-1.26-16.463-.978-16.463-.978 1.63-2.987 2.472-7.684 2.303-11.398-11.52 1.036-17.505.369-23.831-6.159-4.56-4.705-7.153-13.917-4.836-22.565.244 10.738 13.892 19.943 17.154 9.671-5.89-2.356-13.423-14.332-10.073-20.895 2.184 12.01 14.611 27.479 27.687 32.35 5.547 2.066 15.608-1.441 12.895-9.037-14.583-1.326-26.887-14.974-31.142-30.854 9.977 10.315 26.067 34.768 51.116 34.768 7.925 0 17.823-13.662 7.944-17.845-19.596 10.115-37.68-14.887-50.138-27.63 13.469 8.98 27.418 24.453 46.684 21.874 8.88-1.189 15.965-15.53 5.238-19.284-9.167 12.358-45.845-5.875-46.799-15.081 7.365 5.892 24.767 11.408 36.726 11.628 12.91 0 18.13-10.162 13.124-15.082-3.513-3.453-7.42 2.614-14.506 2.82-11.291.33-25.628-2.485-31.775-6.504 0 0-.638-4.492 4.893-1.727 8.348 4.174 26.732 4.111 35.862 1.267 9-2.805 10.882-15.351.748-14.449-8.025 5.554-33.591 7.654-41.388 1.21 17.149.514 38.338.488 44.67-7.542 3.504-4.444 5.254-15.034-3.167-14.39-3.389.259-6.512 3.46-8.75 5.698-4.59 4.59-24.175 5.497-31.314 5.354.363-3.985 10.803-5.25 21.932-8.232 13.682-3.666 22.585-8.875 24.925-16.635 2.29-7.597-4.758-15.632-9.038-7.83-3.78 6.548-24.058 13.3-37.934 17.385 2.365-4.53 14.3-8.293 25.558-14.679 11.258-6.386 21.854-14.772 21.587-27.515-.128-6.057-5.409-10.598-9.44-10.304-2.42.177-4.368 2.104-4.548 6.448-.397 9.588-26.593 23.481-39.028 32.062-.994-.816-1.779-1.914-2.533-3.05-6.872 3.967-29.982 16.1-19.686 30.968 3.232 4.668-6.36 9.773-10.707 8.577.66-1.827 1.142-3.65 1.612-5.468-14.501 2.464-18.999-14.101-14.254-24.933 5.12-11.691 15.71-14.883 18.503-15.632 7.41-.823 15.908.858 18.75-6.993-1.609 1.15-3.88.955-6.343.462-1.433-.286-3.548-.375-4.844-.375 3.488-2.537 9.552-2.566 14.088-1.672 1.978.39 7.153 2.008 11.932.52 5.194-1.618 9.194-8.174 6.729-12.596-.705-1.265-2.117-2.095-3.973-2.095.57 6.515-1.557 11-6.495 11-3.172 0-7.307-1.11-10.425-.331-1.678.42-3.05.729-4.994.729 1.084-.626 2.208-1.235 4.11-2.232 2.753-1.442 8.993-5.772 10.894 0 .992-1.187.928-2.94.928-4.729 0-5.566-6.17-7.756-9.228-7.95-1.98-.126-6.282.31-8.494 1.586-1.672-6.938-7.832-5.218-16.07-3.01-5.98 1.602-12.206 3.418-18.183 1.292.281 2.555 1.73 4.187 3.016 5.255 2.458 2.041 4.09 1.91 4.323 2.783-9.227 3.247-14.296 8.936-16.502 8.674.203.756 2.76 2.22 3.781 2.22-3.659 2.704-8.202 9.41-12.575 9.48.178.818 3.022 2.017 4.047 2.017-3.518 2.724-6.77 8.147-6.77 8.147s-3.252-5.423-6.77-8.147z" fill-rule="evenodd"/></g></svg>