<?xml version="1.0" encoding="utf-8"?>
<!-- Generator: Adobe Illustrator 16.0.0, SVG Export Plug-In . SVG Version: 6.00 Build 0)  -->
<!DOCTYPE svg PUBLIC "-//W3C//DTD SVG 1.1//EN" "http://www.w3.org/Graphics/SVG/1.1/DTD/svg11.dtd">
<svg version="1.1" id="Layer_1" xmlns="http://www.w3.org/2000/svg" xmlns:xlink="http://www.w3.org/1999/xlink" x="0px" y="0px"
	 width="249px" height="249px" viewBox="0 0 249 249" enable-background="new 0 0 249 249" xml:space="preserve">
<g>
	<rect x="-0.5" y="-0.5" fill-rule="evenodd" clip-rule="evenodd" fill="#B91F1D" width="250" height="250"/>
	<path fill-rule="evenodd" clip-rule="evenodd" fill="#071108" d="M22.816,36.731c-1.052-4.402-0.977-11.206-0.56-14.397
		c0.239-4.268,6.012,2.806,6.619,3.544c4.663,5.675,17.85,15.433,24.737,20.129c4.163,2.838,8.261,4.794,12.687,7.269
		c5.307,2.967,21.375,8.251,21.015,15.17c-0.078,1.501-0.479,3.852-3.024,4.674c-3.141,1.016-2.52,8.347,1.046,12.558
		c4.765,5.626,12.508,2.672,14.129-4.813c0.639-2.949-1.248-10.917-3.377-10.544c-1.079,0.19-1.478-0.239-1.093-1.305
		c0.487-1.366,0.497-5.535,0.46-7.003c-0.037-1.506-0.35-2.07-1.758-1.958c-1.226,0.099-1.515-0.528-1.376-1.484
		c0.214-1.472,0.076-2.925,0.049-4.395c-0.066-3.501-1.76-6.211-3.928-8.72c-0.721-0.835-1.512-0.882-2.311,0.048
		c-1.002,1.166-2.154,1.967-3.872,1.835c-1.995-0.156-3.77-0.932-5.593-1.592c-0.603-0.218-1.097-0.773-1.136-1.378
		c-0.043-0.66,0.842-0.625,1.227-0.802c2.39-1.087,2.085,0.228,5.472-3.084c0.589-0.575,0.661-1.469,0.364-2.072l-0.198-0.326
		c-1.313,0.487-2.78,1.302-4.33,2.116c-2.879,1.514-6.266,3.156-9.068,3.156c-2.675,0-5.17-0.88-7.028-2.795
		c-1.614-1.666-2.615-4.343-3.101-7.935c-0.038-0.282,0.161-0.542,0.443-0.579c0.282-0.038,0.542,0.16,0.58,0.442
		c0.454,3.354,1.516,5.677,2.981,7.188c1.64,1.691,3.814,2.316,6.223,2.316c2.553,0,5.495-1.481,8.262-2.937
		c1.454-0.765,2.874-1.701,4.195-2.357c-1.302-2.137-5.464-1.405-8.281-0.253c-3.406,1.394-5.417,3.526-5.455,3.519
		c-0.632-0.13-0.729-0.625-0.672-1.26c-0.05-6.598,2.019-11.082,9.925-11.186c8.146-13.56,15.478-3.057,31.02-6.361
		c3.016-0.502,6.454-4.302,7.385-3.264c0.965,1.072-3.581,9.396-5.777,11.64c2.027,1.117,6.57,7.195,6.515,8.696
		c-0.546,0.775-1.755,0.011-2.316-0.165c-0.382-0.12-0.753-0.067-1.005,0.288c-0.268,0.375-0.062,0.623,0.163,0.977
		c0.66,1.046,1.672,1.726,2.502,2.59c0.871,0.906,1.169,2.402,0.387,3.385c-0.631,0.792-0.376,1.453-0.136,2.206
		c0.417,1.3,1.382,2.39,1.444,3.824c0.015,0.368,0.201,0.843-0.2,1.033c-1.341,0.634-0.609,1.529-0.256,2.263
		c0.362,0.748,0.911,1.401,0.729,2.307c-0.063,0.313-1.579,1.03-1.233,1.448c1.209,0.614,3.794-1.724,4.06-2.864
		c0.478-2.053,1.126-3.971,2.707-5.554c0.821-0.823,1.424-1.903,2.256-2.782c0.561-0.593,0.747-1.389,0.132-2.154
		c-0.4-0.5-0.428-0.943-0.035-1.557c0.844-1.316,1.545-2.71,2.794-3.733c0.41-0.335,0.818-0.549,1.317-0.636
		c0.21-0.036,1.06,0.928,1.075,0.422c0.041-1.304,0.671-2.173,0.325-2.979c-0.224-0.517-0.506-0.841-1.139-0.657
		c-0.357,0.104-0.736,0.159-1.108,0.178c-1.175,0.057-1.372-0.274-0.856-1.315c0.929-1.873,2.367-3.375,3.76-4.865
		c1.553-1.661,1.424-3.762,0.12-5.547c-0.086-0.116-4.882-5.599-4.21-6.388c0.444-0.522,6.756,2.813,14.22,2.71
		c20.739-0.286,21.859,3.822,22.68,6.081c0.254,0.896,1.397,1.529,2.91,1.57c5.352,0.148,9.119,2.537,10.41,8.721
		c0.043,1.36-0.475,1.688-1.684,1.016c-4.616-2.562-5.729-1.596-10.77-1.011c-0.357,0.042-1.311,0.007-1.385,0.516
		c-0.018,0.119,0.552,0.201,1.279,0.564c2.799,1.396,7.886,4.483,10.957,4.327c2.9-0.149,5.191-1.469,8.121-4.62
		c1.091-1.174,1.751-1.227,2.077-0.881c0.696,0.739,0.064,1.591-0.548,2.07c-7.339,5.753-9.302,7.173-20.881,1.019
		c-1.342-0.842-3.053-0.693-4.567-1.145c-0.828-0.247-2.245,1.062-2.316,2.046c-0.089,1.286-0.258,2.391-1.736,2.894
		c-2.48,0.845,3.895,2.089,3.983,2.096c1.91,0.153,3.827-0.23,4.03-0.803c0.173-0.489-0.421-0.52-0.686-0.709
		c-0.54-0.387-1.126-0.702-1.78-0.891c-0.913-0.263-2.236-2.032-1.541-2.539c0.447-0.326,1.053-0.07,1.522,0.23
		c0.974,0.624,1.487,1.756,2.566,2.286c0.82,0.404,1.575,0.939,2.566,0.611c0.427-0.141,0.719,0.071,0.9,0.461
		c0.186,0.396-0.022,0.664-0.326,0.831c-1.799,0.982-3.476,2.069-5.61,2.499c-2.959,0.597-4.915-1.098-7.125-2.316
		c-1.127-0.621-2.275-0.487-3.12,0.522c-1.112,1.331-2.33,2.547-3.219,4.086c-1.416,2.447-1.843,4.998-1.474,7.747
		c0.126,0.942,0.371,1.969-1.014,2.241c-0.105-0.571-0.509-0.938-0.928-1.27c-0.778-0.619-4.878,4.954-6.841,11.377
		c-4.796,15.69,10.205,23.681,15.321,13.801c0.915-1.767,0.91-3.928,0.352-5.242c-0.456-1.076-1.289-1.731-1.855-2.636
		c-3.979-6.372,2.146-11.518,7.916-13.876c1.717-0.702,3.458-1.406,5.12-2.219c7.53-3.675,16.399-7.183,24.074-11.759
		c16.301-9.72,16.862-11.432,24.588-17.153c2.161-1.6,6.835-9.766,10.046-6.067c1.272,1.466,1.241,3.159,1.29,4.886
		c0.042,1.534,0.097,3.069,0.117,4.605c0.035,2.614-0.951,4.676-3.055,6.332c-3.784,2.98-7.049,6.019-11.216,8.736
		c-9.781,6.378-24.743,13.642-34.496,17.972c-1.285,0.996-1.131,2.584,1.084,2.025c3.84-0.969,12.873-4.7,16.317-6.345
		c4.844-2.314,9.931-4.321,14.657-6.841c1.223-0.653,6.848-3.654,10.402-5.558c2.17-1.162,3.188-1.983,5.137-3.211
		c0.876-0.553,1.526,0.359,1.569,0.881c0.406,4.973,1.524,9.086-2.079,12.809c-5.58,5.496-35.681,14.473-44.809,15.547
		c-0.296,0.036-0.662,0.249-0.512,0.697c0.135,0.403,0.414,0.614,0.86,0.488c11.32-0.509,21.407-0.479,38.845-6.083
		c2.354-0.757,5.148-2.978,7.45-3.874c1.032-0.402,2.206,0.015,2.413,1.069c1.356,6.955-1.004,10.52-5.254,13.604
		c-12.952,7.982-39.207,1.69-39.805,2.333c-0.326,0.351-0.115,0.655,0.185,0.821c4.74,2.612,21.121,5.079,26.225,5.225
		c5.896,0.169,7.984-0.697,13.158-2.439c1.656-0.557,2.461,0.485,2.766,1.131c1.017,2.158-0.739,4.656-1.261,5.603
		c-5.357,7.298-16.563,7.526-24.49,5.062c-4.88-1.521-12.356-4.579-16.508-7.815c-0.29-0.226-0.634-0.557-0.977-0.2
		c-0.348,0.36-0.096,0.702,0.158,1.086c6.043,5.6,16.536,10.584,26.841,12.276c3.646,0.6,7.239,0.019,9.738-0.119
		c1.182-0.065,1.702,0.844,1.162,1.891c-0.919,1.774-2.295,3.11-3.799,4.456c-11.121,9.946-29.704-2.111-38.031-10.774
		c-0.662-0.69-1.141-1.273-1.46-1.054c-0.99,0.682,0.718,2.478,1.29,3.041c4.747,4.666,13.817,12.236,21.189,15.699
		c2.349,1.103,10.379,3.13,10.764,3.696c0.931,0.926,0.139,1.831-0.934,2.89c-9.287,9.173-20.817-0.567-28.795-7.485
		c-2.949-2.557-6.272-6.172-7.972-7.788c-1.025-0.978-1.128-0.604-1.139-0.595c-0.562,0.528,0.158,1.139,0.562,1.666
		c5.722,7.442,14.568,17.253,22.946,21.958c0.577,0.325,3.104,1.599,1.806,2.491c-0.297,0.206-0.807,0.289-1.388,0.164
		c-1.886-0.408-3.359-0.007-5.157,0.073c-10.535,0.471-21.008-10.505-25.095-20.355c-0.451-1.09-0.765-3.416-2.014-3.318
		c-0.527,0.041,0.441,3.406,0.585,3.927c3.39,12.31,5.84,17.173,12.335,22.753c0.304,0.425,1.305,0.6,0.838,1.258
		c-0.406,0.574-1.313,0.447-1.975,0.209c-9.787-3.511-17.735-7.784-24.503-24.263c-0.408-0.996-1.058-3.094-1.931-0.706
		c-1.368,3.738-2.253,6.632-2.085,9.902c0.541,10.531,11.405,17.777,20.723,20.015c0.603,0.144,1.433,0.22,1.374,0.961
		c-0.099,1.224-12.975,2.276-12.307,4.126c0.987,2.731,8.646,15.502,12.405,15.604c6.37,0.17,8.482-2.693,11.559-4.005
		c1.781-0.759,8.928-2.123,10.849-2.438c2.154-0.358,2.837,1.384,4.241,2.219c0.706,0.42,0.827,1.414,0.249,2.3
		c-0.441-0.481-0.874-0.957-1.309-1.43c-0.556-0.601-1.138-0.487-1.609,0.054c-0.508,0.583-0.094,0.893,0.35,1.393
		c0.825,0.933,1.328,2.126,2.193,3.068c0.255,0.276,0.063,0.848-0.344,1.085c-0.386,0.225-0.573-0.164-0.812-0.384
		c-0.49-0.45-0.997-0.882-1.5-1.318c-0.837-0.723-1.664-1.207-2.786-0.423c-0.434,0.303-1.148,0.321-1.654,0.31
		c-2.104-0.051-3.834,0.923-5.627,1.762c-0.472,0.22-5.621,0.899-5.27,1.781c0.14,0.354,1.002,0.716,1.348,0.734
		c2.46,0.133,4.815,0.63,7.305,0.627c2.313-0.002,4.584,0.852,6.914,0.982c0.836,0.047,1.673-0.2,2.508-0.406
		c1.33-0.329,2.673,0.981,2.415,2.334c-0.094,0.489-0.399,0.901-0.944,0.796c-1.44-0.282-1.239,0.684-1.195,1.516
		c0.018,0.322,0.238,0.646,0.208,0.956c-0.038,0.393-0.063,0.866-0.485,1.097c-0.455,0.248-0.753-0.076-1.106-0.317
		c-1.101-0.755-2.212-1.522-3.66-0.828c-1.041,0.499-2.024,0.15-2.982-0.29c-1.571-0.719-3.242-0.605-4.896-0.575
		c-0.545,0.011-0.608,0.396-0.33,0.786c1.003,1.405,1.528,3.102,2.657,4.419c0.528,0.616,1.4,0.739,2.124,0.912
		c1.483,0.356,1.836,1.669,2.336,2.688c1.246,2.539-0.16,4.71-1.383,6.835c-0.369,0.642-0.962,1.006-1.681,0.586
		c-0.791-0.462-0.387-1.053-0.025-1.591c0.327-0.489,0.607-0.985,0.354-1.633c-0.911,0.286-1.416,0.868-1.468,1.797
		c-0.038,0.661-0.296,1.032-1.012,0.912c-0.684-0.115-0.745-0.565-0.583-1.121c0.471-1.617,0.215-2.965-1.277-3.986
		c-0.415-0.285-0.684-0.837-0.92-1.314c-0.402-0.814-1.113-1.378-1.877-1.545c-1.668-0.363-2.853-1.514-4.254-2.296
		c-0.799-0.445-1.495-0.907-1.515-2.176c-0.011-0.761-0.805-1.756-1.737-2.281c-1.479-0.832-3.199-1.055-4.628-2.076
		c-1.338-0.958-2.814-0.435-4.063,0.397c-0.827,0.551-1.646,0.596-2.482,0.302c-1.933-0.681-3.456,0.474-5.093,1.071
		c-0.509,0.187-0.563,2.055-0.093,2.602c0.467,0.541,0.659,1.093,0.264,1.691c-0.436,0.657-1,0.372-1.543,0.09
		c-0.271-0.141-1.22-0.482-1.693-0.636c-1.16,0.077-1.851-0.652-2.087-1.594c-0.267-1.057-0.763-2.091-0.647-3.231
		c0.397-1.657,1.17-3.009,2.901-3.595c2.711-0.918,4.304-1.293,7.149-2.102c1.295-0.366,2.699-0.348,4.1-1.046
		c-2.907-1.185-13.571-15.126-15.17-17.119c-0.271-0.338-0.439-1.021-0.938-0.858c-0.526,0.17-0.853,0.722-0.903,1.363
		c-0.283,3.53-3.22,7.296-6.167,9.096c-0.364,0.223-0.702,0.521-1.136,0.297c-0.518-0.27-0.399-0.786-0.315-1.221
		c0.079-0.404,0.312-0.777,0.403-1.181c1.712-7.506,2.637-17.32-4.247-22.812c-0.71-0.566-1.414-0.987-2.279-1.193
		c-0.533-0.126-0.91,0.119-1.183,0.504c-5.877,8.331-9.293,27.119-3.492,35.348c0.658,0.934,1.356,1.88,2.11,2.688
		c3.897,4.175,13.493,13.099,19.666,12.758c1.709-0.095,3.437-0.186,4.861-1.342c0.732-0.483,1.69-1.239,2.168,0.178
		c0.922,6.396-5.368,8.388-10.59,7.439c-6.464-1.168-12.934-6.29-16.198-11.902c-0.979-1.094-0.887,0.785-0.685,1.45
		c0.401,1.324,1.187,2.457,2.027,3.514c1.637,2.057,3.112,4.257,5.061,6.054c5.988,5.521,7.243,5.868,14.081,7.352
		c0.595,0.128,0.76,0.316,0.58,1.018c-0.825,3.194-4.381,5.842-7.369,6.045c-5.214,0.358-12.006-9.132-14.059-13.219
		c-1.42-2.827-2.137-4.245-2.951-6.403c-0.281-0.748-0.177-2.078-0.881-1.882c-0.457,0.124-0.185,1.565-0.147,1.939
		c0.383,3.825,3.601,12.409,8.319,17.834c1.929,2.22,4.084,3.745,5.939,4.782c1.715,0.959,3.28,0.748,3.146,1.896
		c-0.413,2.395-2.899,5.185-5.563,5.347c-4.735,0.283-9.112-5.092-11.467-9.908c-2.548-5.211-3.807-10.997-3.578-16.775
		c0.039-0.998,0.109-1.996-0.079-2.986c-0.091-0.477-0.273-0.933-0.864-0.87c-0.618,0.065-0.472,0.604-0.462,0.987
		c0.021,1.079,0.178,2.162,0.118,3.234c-0.166,3.022,0.243,6.01,0.804,8.935c0.524,2.726,0.969,5.467,1.427,8.199
		c0.507,3.032,1.257,8.186,1.728,12.896c0.136,1.349,0.284,2.664,0.308,3.876c0.085,4.44-1.818,6.183-6.113,6.179
		c-8.759-0.005-6.623-10.802-5.833-17.257c0.612-4.998,1.961-10.405,3.032-15.345c0.756-3.484,0.135-6.955,0.403-9.481
		c0.025-0.245-0.023-0.574-0.282-0.64c-0.343-0.085-0.56,0.246-0.587,0.509c-0.938,8.663-5.212,25.771-18.076,26.182
		c-2.409,0.076-3.861-1.773-4.873-3.834c-0.164-0.335-0.368-0.651-0.52-0.992c-0.322-0.722-0.228-1.05,0.661-1.431
		c0.797-0.34,1.857-0.513,2.892-1.069c4.106-2.21,10.32-6.57,13.905-17.188c1.117-3.305,0.169-4.462-1.491-1.607
		c-5.091,8.76-13.28,14.156-15.383,15.389c-4.382,2.563-8.357-0.164-10.309-4.202c-0.614-1.267-0.072-2.293,1.262-2.015
		c4.161,0.869,9.584-3.081,12.558-5.388c0.753-0.584,1.525-1.143,2.281-1.723c6.313-4.854,7.882-12.06,3.972-7.997
		c-5.141,5.34-13.508,10.448-19.641,10.497c-2.045,0.017-4.14-0.645-5.322-2.458c-1.136-1.743-1.319-3.131-1.288-4.07
		c0.023-0.68,0.036-1.109,0.477-1.345c0.882-0.47,2.057,0.19,3.556,0.518c2.725,0.319,9.692-1.007,12.58-2.284
		c7.073-3.128,13.001-8.707,16.019-15.809c3.906-9.193,2.289-20.327-1.834-28.866c-0.478-0.765-0.911-1.082-1.769-0.97
		c-5.561,0.852-6.858,9.067-5.367,14.793c1.195,4.589,3.766,6.974,3.664,7.216c-0.152,0.357-0.483,0.448-0.841,0.323
		c-3.457-1.213-7.916-1.916-8.878-6.47c-0.167-0.794-0.906-1.368-1.803-1.115c-0.896,0.252-1.771,0.645-2.588,1.098
		c-1.68,0.932-16.975,11.064-16.819,12.155c0.081,0.57,0.699,0.513,1.059,0.754c2.233,1.497,5.758-1.135,9.171,4.246
		c0.649,1.023,1.26,2.051,1.352,3.28c0.102,1.367-0.479,2.393-1.712,3.025c-0.216,0.111-0.432,0.312-0.683,0.123
		c-0.317-0.237-0.062-0.533-0.041-0.805c0.771-0.398,0.663-1.18,0.765-1.844c0.083-0.54-0.11-0.979-0.748-1.096
		c-0.59-0.108-1.158-0.196-1.574,0.378c-1.228,1.695,1.065,2.897,0.363,3.461c-0.642,0.517-1.378-0.097-2.006-1.397
		c-0.59-1.222-1.479-2.178-2.517-3.14c-1.357-1.26-2.77-1.398-4.375-1.592c-6.093-0.732-19.756,4.422-21.639,10.554
		c-0.229,0.744-0.562,1.338-1.297,1.855c-0.96,0.676-0.546,1.914-0.39,2.913c0.084,0.537,0.204,1.053,0.12,1.595
		c-0.04,0.259-0.112,0.503-0.413,0.551c-0.336,0.055-0.586-0.118-0.683-0.418c-0.1-0.313-0.064-0.673-0.184-0.974
		c-0.424-1.053-0.299-2.21-1.671-2.998c-1.345-0.772-2.441-2.217-2.69-4.003c-0.1-0.716,0.098-1.247,0.711-1.58
		c0.641-0.349,6.762-6.048,6.896-6.222c0.331-0.425,0.363-0.774,0.241-1.244c-0.148-0.571-0.583-0.312-0.914-0.375
		c-0.367-0.07-0.824-0.059-1.077-0.274c-1.395-1.189-2.908-0.82-4.181-0.064c-1.452,0.862-2.765,0.01-4.121,0.026
		c-1.037,0.014-1.741,0.177-2.372,0.945c-0.748,0.91-1.128,0.848-1.458-0.283c-0.333-1.144-0.667-2.081-2.215-1.556
		c-0.2,0.067-0.472,0.098-0.683,0.025c-0.191,0.307-0.393,0.604-0.365,1.309c0,0.002-0.206,0.343-0.323-0.231
		c-0.035-0.17,0.02-1.164-0.104-1.174c-0.333-0.489,0.072-1.273,0.519-1.645c-0.066-0.274-0.116-0.561,0.055-0.873
		c0.55-1.009,1.569-1.07,2.636-1.233c1.021-0.157,2.784-0.697,4.802-0.803c3.992-0.21,8.989,0.137,11.259,0.526
		c0.882,0.151,1.801-0.093,2.723-0.044c0.714,0.039,0.329-1.043,0.021-1.445c-0.748-0.979-1.864-1.356-2.978-1.652
		c-1.196-0.316-1.908-1.015-2.382-2.147c-0.695-1.66-3.167-2.656-4.966-2.147c-0.228,0.131-0.421,0.283-0.544,0.451
		c-0.676,0.921-1.082,0.266-1.457,1.761c-0.453,1.81-0.668,1.047-1.798,1.241c-0.893-0.935,0.316-2.988,1.698-2.875
		c0.048,0.004,0.488-0.289,1.008-0.637c-0.05-0.241,0.152-0.447,0.34-0.62c0.75-0.69,0.761-1.376,0.08-2.149
		c-0.519-0.589-0.494-1.267-0.163-1.986c0.351-0.762,0.974-0.944,1.713-1.037c1.679-0.209,2.597,1.082,3.645,2.185
		c0.103,0.109,0.274,0.152,0.414,0.225c0.893,0.394,1.723,0.296,2.51,0.638c4.359,1.888,7.413,3.689,12.508,7.497
		c2.349,1.754,16.005-12.822,17.29-14.13c0.384-0.391-0.152-0.878-0.354-1.372c-0.224-0.547-0.735-0.423-1.171-0.441
		c-4.79-0.209-6.089,4.039-11.061-1.045c-1.648-1.685,0.475-1.238,1.34-1.26c10.786-0.26,20.708-14.487,21.498-24.644
		c0.051-0.654-0.092-1.229-0.326-1.801c-0.086-0.211-0.261-0.491-0.442-0.532c-0.265-0.061-0.423,0.243-0.496,0.479
		c-0.405,1.308-1.272,2.336-2.119,3.348c-7.024,8.389-13.2,13.019-22.209,18.62c-0.51,0.318-2.071,1.112-2.243-0.057
		c-0.094-0.644,0.308-1.004,0.846-1.363c5.619-4.637,7.876-11.538,11.25-15.271c0.804-0.887,1.035-1.75,0.952-2.091
		c-0.264-1.089-4.03,0.452-5.077,1.2c-2.525,1.802-5.585,4.806-5.974,5.113c-2.93,2.313-5.534,5.021-8.81,6.923
		c-3.386,1.967-17.238,7.347-20.651,4.172c-0.644-0.6-1.392-1.196-1.241-2.162c0.153-0.984,0.743-1.668,1.762-2.059
		c4.515-1.734,15.663-10.948,19.104-13.505c1.609-1.195,3.073-2.612,4.627-3.802c1.989-1.523,3.691-3.385,5.785-4.768
		c0.765-0.505,0.541-2.28-1.556-1.075c-5.392,3.099-9.326,7.077-15.65,10.067c-2.275,1.075-4.413,1.983-6.533,2.682
		c-17.745,5.85-22.838-5.939-13.164-7.413c7.549-1.15,14.429-4.208,21.048-6.995c1.391-0.585,11.018-5.417,10.842-6.458
		c-0.079-0.471-0.59-0.549-0.902-0.385c-5.61,2.939-13.771,5.066-20.328,5.564c-6.299,0.479-11.003-0.524-16.091-4.715
		c-2.759-2.271-3.051-5.991,1.784-5.484c7.841,0.824,25.829-1.269,31.18-2.589c2.048-0.505,4.141-1.028,6.13-1.786
		c2.713-1.033,1.737-2.055-0.937-1.564c-3.854,0.707-12.619,2.696-20.338,2.52c-7.093-0.163-13.342-3.583-14.879-4.543
		c-1.717-1.069-6.361-4.591-5.756-6.669c0.209-0.721,0.907-1.727,2.771-1.77c4.027-0.093,11.737,1.542,13.883,1.896
		c10.772,1.775,11.978,1.384,21.297,1.161c3.243,0.019,2.452-1.768-0.017-1.842c-11.109-0.329-28.869-2.069-37.064-11.406
		c-0.873-0.994-2.638-5.906-1.695-7.121c0.553-0.712,1.344-0.573,2.167-0.267c2.646,0.986,5.303,1.946,7.988,2.817
		c9.144,2.965,9.666,4.525,30.151,7.59c0.431,0.064,2.03,0.19,2.192-0.438c0.15-0.58-0.839-0.931-1.946-1.264
		c-9.83-2.958-18.078-5.436-26.892-9.537c-4.598-2.141-8.344-3.345-10.395-5.663c-2.088-2.36-2.061-8.563-1.72-11.677
		c0.074-0.677-0.016-1.534,0.888-1.635c0.428-0.048,4.646,2.528,5.243,2.89c1.766,1.07,5.213,3.537,9.629,5.789
		c10.302,5.255,24.262,12.364,25.78,12.914c2.065,0.747,4.562,0.276,0.546-1.799c-2.993-1.547-10.58-5.23-16.781-8.729
		C44.376,53.964,23.919,41.348,22.816,36.731L22.816,36.731z M154.182,28.881c1.979,0.091,3.616,2.591,4.479,3.112
		c0.318,0.192,0.756,0.487,0.954,0.054c1.109-2.425-2.671-5.923-5.067-6.447c-1.568-0.343-3.793-0.11-5.779,1.687
		c-1.646,1.49-5.646,1.441-7.4,0.659c-0.358-0.16-0.778-0.143-1.023,0.193c-0.239,0.334-0.451,0.829-0.158,1.158
		c1.344,1.517,4.05,2.433,6.035,1.467C148.419,29.696,151.671,28.765,154.182,28.881L154.182,28.881z M156.598,33.239
		c0.179-3.287-3.054-4.106-3.34-2.737c-0.174,0.368-0.248,0.884-0.538,1.077c-1.047,0.699-0.372,1.537-0.146,2.197
		C153.061,35.198,156.684,34.238,156.598,33.239L156.598,33.239z M78.352,31.445c-1.166-0.909-3.431-2.5-4.88-2.014
		c-2.319,0.778-5.121,4.706-4.484,7.98c2.08-1.711,7.383-3.419,9.824-3.477C79.884,33.911,79.802,32.58,78.352,31.445L78.352,31.445
		z M37.966,175.821c0-1.373-2.115-0.584-2.41-1.432c-0.071-0.206-0.706-0.605-0.718-0.916c-0.007-0.204-0.817,0.301,0.161,0.889
		c0.569,0.342,0.501,2.289,2.258,1.796C37.329,176.138,37.966,175.923,37.966,175.821L37.966,175.821z M82.724,189.402
		c-0.214,0.191-0.351,0.459-0.272,0.785c0.071,0.3,0.254,0.415,0.542,0.381c1.147-0.142,2.306-0.227,3.438-0.444
		c5.454-1.054,18.203-7.266,22.567-16.96c0.243-0.537,0.544-1.112,0.427-1.573c0,0-0.195-0.518-0.75,0.386
		c-4.446,7.222-8.422,10.011-16.569,14.071C87.997,188.095,82.766,189.364,82.724,189.402L82.724,189.402z M142.751,201.048
		c-1.45-0.927-3.104-2.083-4.904-3.51c-4.716-3.739-9.665-11.332-10.901-16.867c-0.096-0.43-0.31-1.977-1.085-1.457
		c-0.71,0.472-0.248,1.684-0.036,2.335c0.827,2.536,1.208,5.568,3.077,8.508c3.262,5.125,8.603,10.293,13.401,12.64
		c1.456,0.712,2.176,0.892,2.451,0.237C144.888,202.614,144.566,202.21,142.751,201.048L142.751,201.048z M148.471,190.344
		c0.054-0.285-0.198-0.497-0.445-0.498c-2.718-0.016-6.616-1.53-9.952-3.868c-4.103-2.875-7.521-6.881-8.88-9.45
		c-0.696-1.316-2.17-1.707-0.904,0.888c1.771,3.631,5.213,7.418,8.858,9.884C142.48,190.905,148.137,192.126,148.471,190.344
		L148.471,190.344z M163.641,29.914c-1.269,0.433-1.981,1.712-1.697,3.023c0.298,1.37,1.86,3.037,3.049,2.655
		c7.695-1.607,9.607,0.45,10.2,0.759c0.781,0.407,1.364,0.762,0.912-0.287C174.229,31.717,170.894,29.3,163.641,29.914
		L163.641,29.914z M206.704,110.456c0.786-0.355,0.385-1.117-0.736-1.325c-3.767-0.699-4.216-0.835-8.794-2.652
		c-7.227-2.868-14.039-7.983-20.171-12.618c-0.605-0.457-0.952-0.143-1.094,0.367c-0.591,2.106,7.797,7.791,15.516,12.067
		C195.279,108.431,204.882,111.279,206.704,110.456L206.704,110.456z M27.69,70.034c-1.012-0.262-1.784-0.284-1.943,0.179
		c-0.15,0.441,0.552,1.035,1.702,1.682c2.01,1.132,9.951,4.811,18.52,6.757c7.967,1.809,16.363,2.693,19.754,2.274
		c1.945-0.24,1.997-1.197-0.024-1.491c-3.356-0.49-12.089-1.358-20.36-3.447C36.888,73.854,29.289,70.447,27.69,70.034L27.69,70.034
		z M28.692,30.493c-3.017-2.26-3.241,0.355-1.868,1.856c4.737,5.179,12.178,11.926,18.078,15.827
		c5.427,3.589,14.026,8.982,20.228,12.958c1.651,1.059,3.017,2.305,4.855,2.387c0.552,0.025,1.147-0.075,1.283-0.74
		c0.125-0.616-0.088-1.26-0.674-1.48c-4.357-1.644-19.263-12.836-23.077-15.336C39.861,40.948,30.834,32.097,28.692,30.493
		L28.692,30.493z M74.496,74.122c-0.006-0.896-0.617-1.33-1.246-0.76c-3.273,2.97-3.777,7.414-2.387,11.481
		c0.588,2.537,2.604,3.913,4.462,5.386c0.505,0.399,0.943,0.156,0.833-0.625c-0.168-1.19-1.059-2.023-1.47-3.097
		c-0.291-0.758-2.004-2.882-2.216-5.289C72.101,76.97,74.501,74.962,74.496,74.122L74.496,74.122z M172.649,101.88
		c-0.258-0.591-0.712-1.335-1.495-0.758c-0.642,0.475-0.813,1.22-0.212,1.959c1.96,2.419,3.069,4.537,4.725,6.443
		c4.386,5.052,9.07,8.62,17.052,12.354c1.685,0.787,7.202,3.078,8.996,3.338c0.577,0.085,1.451,0.283,1.631-0.469
		c0.192-0.804-0.619-0.95-1.249-1.024c-5.211-0.618-13.901-5.912-18.273-8.994C179.025,111.347,175.192,107.717,172.649,101.88
		L172.649,101.88z M43.066,136.409c-0.167,0.121-0.38,0.204-0.31,0.467c0.049,0.181,0.204,0.303,0.375,0.246
		c2.34-0.773,6.597-2.592,11.026-5.589c6.083-4.116,23.706-19.327,26.559-24.43c1.023-1.829,0.918-3.153,0.381-3.305
		c-0.613-0.175-1.596,0.758-3.262,3.153c-4.397,6.326-10.283,10.639-15.61,15.195C56.336,127.187,49.926,131.461,43.066,136.409
		L43.066,136.409z M88.579,26.722c1.752,0.801,3.326,1.531,4.706,3.056c1.143,1.265,3.049,1.352,3.843,0.372
		c0.471-0.582,0.639-1.104-0.415-1.274c-1.542-0.251-2.9-1.186-4.017-2.044c-2.26-1.736-3.979-2.339-5.575-2.288
		c-2.361,0.075-4.32,0.799-7.622,2.952c-0.771,0.333-0.541,1.142,0.055,1.494c1.061,0.629,1.685,0.42,2.202,0.001
		C83.381,27.672,86.495,25.771,88.579,26.722L88.579,26.722z M104.307,54.432c-0.095-0.34-1.222-3.769-1.768-3.567
		c-0.477,0.176,0.593,3.505,0.762,3.908c0.305,0.728,0.42,1.497,0.533,2.27c-0.02,0.05-0.634,4.407-0.633,4.563
		c-0.322,1.224-0.298,2.56-1.089,3.633c-0.687,0.931-1.354,1.894-1.705,2.981c-0.202,0.625-0.842,1.438,0.335,2.027
		c1.2,0.603,1.258-0.401,1.673-0.952c0.146-0.193,0.263-0.409,0.393-0.614c1.441-1.289,2.776-2.634,2.491-4.815
		c0.116-0.263,0.232-0.525,0.349-0.788C105.66,60.1,105.103,57.275,104.307,54.432L104.307,54.432z M64.746,71.705
		c0.493,0.092,1.161,0.184,1.334-0.546c0.159-0.67-0.348-0.853-0.86-1.139c-2.334-1.301-5.002-2.113-7.656-3.274
		c-9.375-4.101-20.068-8.067-28.448-13.57c-1.913-1.256-2.976-1.05-3.312-0.36c-0.348,0.714,0.114,1.958,2.969,3.256
		c1.044,0.475,8.118,4.367,15.914,7.735c2.449,1.058,9.446,3.819,14.703,5.824C61.677,70.504,63.635,71.497,64.746,71.705
		L64.746,71.705z M96.167,45.851c-0.305-0.388-1.03-0.657-1.3,0.11c-0.203,0.574,0.248,4.653,0.396,5.122
		c0.556,1.74,0.428,3.529,0.433,5.313c0.001,0.384-0.133,0.917,0.5,0.958c0.547,0.036,0.992-0.194,1.133-0.771
		c0.444-1.83,0.565-3.687,0.399-5.563c0.041-0.323,0.082-0.646,0.122-0.97C98.233,48.601,96.995,46.901,96.167,45.851L96.167,45.851
		z M122.232,185.497c0.061,0.894,0.758,0.713,1.321,2.247c0.163,0.449,0.453,2.509,0.453,2.939v0.05
		c-0.63,7.653,3.26,14.673,7.337,19.89c0.952,1.217,2.453,1.954,3.626,2.943c1.136,0.956,1.569,1.254,2.875,0.593
		c0.969-0.491,0.576-1.361,0.047-1.493c-2.176-0.541-3.904-2.111-5.556-3.416c-4.346-3.43-6.236-13.317-7.59-18.611
		c-0.045-1.101-0.487-7.466-2.008-6.721C122.415,184.075,122.215,185.25,122.232,185.497L122.232,185.497z M79.237,43.936
		c-0.866,0.732-0.443,1.214,0.35,1.6c0.132,0.037,0.264,0.074,0.397,0.111c1.438,0.522,2.899,0.199,4.235-0.202
		c4.573-1.371,1.195-6.571-0.86-5.349c-0.315,0.188-0.698,1.543-1.559,2.364C80.767,43.447,79.259,43.912,79.237,43.936
		L79.237,43.936z M143.379,44.48L143.379,44.48c-0.385,0.215-1.805,3.484-2.007,3.906c-0.676,1.411-1.331,2.832-1.517,4.41
		c-0.064,0.547-0.507,1.165,0.113,1.622c0.574,0.423,1.164,0.034,1.627-0.25c0.453-0.277,1.465-0.325,1.055-1.217
		c-0.355-0.773-0.102-1.341,0.174-2.002c0.375-0.902,1.799-4.351,2.597-4.822c0.66-0.391,0.917-0.932,1.227-1.59
		c0.421-0.896,0.08-1.313-0.61-1.668c-0.718-0.371-1.404-0.442-1.855,0.425C144.012,43.756,143.459,43.957,143.379,44.48
		L143.379,44.48z M98.985,211.784c3.491-3.279,6.006-4.866,7.897-6.857c4.826-5.082,5.367-8.84,7.927-19.395
		c0.099-0.409-0.246-0.907,0.108-1.313c0.551-0.633,0.444-1.306,0.12-1.969c-0.116-0.239-0.436-0.269-0.674-0.164
		c-0.685,0.298-0.783,1.007-0.816,1.578c-0.507,8.822-4.268,16.696-10.529,22.877c-1.787,1.764-4.269,3.614-4.733,4.601
		C97.908,211.943,97.881,212.815,98.985,211.784L98.985,211.784z M93.706,199.06c-1.272,0.942-2.707,1.552-4.109,2.236
		c-0.215,0.104-0.533,0.156-0.442,0.485c0.316,1.138,3.037-0.019,4.979-1.269c4.376-2.817,10.303-9.223,12.083-11.397
		c1.149-1.403,0.479-2.479-0.701-0.906C103.329,191.127,96.248,197.178,93.706,199.06L93.706,199.06z M27.186,103.012
		c-0.4,1.049,0.771,1.425,1.792,1.587c8.971,1.419,14.279,0.396,23.182-1.802c5.333-1.316,14.689-3.901,19.995-6.018
		c0.472-0.188,1.372-0.519,1.206-1.116c-0.257-0.926-1.018-0.696-1.729-0.476c-5.34,1.647-14.313,4.427-19.896,5.748
		c-7.892,1.868-17.324,3.136-22.197,2.24C28.445,102.976,27.362,102.552,27.186,103.012L27.186,103.012z M218.054,59.084
		c0.312-0.359,0.282-0.742,0.059-1.152c-0.159-0.291-1.047-0.071-2.22,0.38c-5.313,2.044-11.149,4.984-17.544,7.39
		c-7.139,2.685-14.246,5.435-20.33,7.304c-1.849,0.827-1.78,2.704,0.702,1.906c10.016-3.22,29.417-9.28,37.991-14.77
		C217.324,59.749,217.786,59.393,218.054,59.084L218.054,59.084z M185.859,131.369c0.23-0.411-1.248-1.549-1.521-1.713
		c-2.659-1.603-12.45-12.03-14.215-14.586c-1.091-1.579-2.283-3.079-3.171-4.798c-0.298-0.574-0.641-1.179-1.248-1.524
		c-0.448-0.256-0.783-0.142-0.696,0.4c0.734,6.113,11.483,17.097,17.147,20.484C182.599,129.896,185.717,131.623,185.859,131.369
		L185.859,131.369z M35.006,120.635c-5.113,1.681-3.643,3.676,0.434,2.725c7.101-1.657,26.859-10.895,41.063-22.091
		c0.743-0.585,1.216-1.874,0.43-2.714c-0.976-1.042-2.528,0.987-3.539,1.758C57.612,112.357,44.592,117.483,35.006,120.635
		L35.006,120.635z M222.559,75.304c-0.016-0.007-1.237,0.041-2.895,0.729c-4.159,1.725-14.845,3.776-17.273,4.061
		c-6.524,0.765-12.979,0.604-22.465,0.372c-1.431-0.139-2.185,1.483,0.189,1.699c9.883,0.318,15.618,0.927,23.117-0.151
		c6.51-0.937,14.81-2.803,17.961-4.554C221.613,77.227,223.934,75.938,222.559,75.304L222.559,75.304z M157.793,113.473
		c-1.112-2.618-5.171-10.202-8.434-8.788c-5.167,2.236-9.925,6.063-11.68,11.616c-0.316,1.009-1.431,1.733-2.429,1.478
		c-7.165-1.836-11.18-13.579-9.699-20.238c0.488-2.2,1.418-4.14,3.2-5.609c0.709-0.584,0.323-1.484-0.11-1.853
		c-1.169-1.254-7.806,9.031-3.428,19.566c2.264,5.448,6.055,8.433,10.431,11.148c1.116,0.693,2.32,0.233,2.809-0.76
		c0.772-1.574,1.627-3.114,2.285-4.734c1.555-3.83,10.459-11.49,12.86-5.923c0.876,2.032,1.904,3.675,2.632,5.409
		c2.742,6.543,3.669,10.52,7.614,16.677c0.783,1.221,2.496,3.869,3.285,3.505C161.643,126.766,161.397,121.953,157.793,113.473
		L157.793,113.473z M86.822,109.628c-0.351,0.501-0.376,1.074-0.423,1.66c-0.479,5.994-6.689,15.418-12.559,20.27
		c-0.489,0.404-1.297,1.604-0.747,2.015c0.525,0.391,1.529-0.686,1.913-1.08c3.999-4.104,9.371-7.614,13.019-18.88
		c1.081-3.338,2.46-3.391,4.647-2.773c3.549,1.002,10.21,7.308,12.009,10.152c1.01,1.594,1.763,1.856,3.142,0.617
		c1.58-1.417,2.838-3.205,3.857-4.973c4.549-7.886,5.617-18.29-1.407-25.02c-0.273-0.262-0.615-0.78-1.006-0.434
		c-0.458,0.405-0.121,0.822,0.327,1.088c7.293,6.934,4.479,20.756-2.628,25.897c-0.746,0.539-1.315,0.747-1.853-0.112
		c-2.728-4.35-8.385-8.448-13.441-9.646C90.315,108.088,87.545,107.796,86.822,109.628L86.822,109.628z M211.188,94.809
		c-3.105,0.283-7.638-0.11-13.408-1.647c-3.045-0.811-12.923-3.372-16.447-5.572c-3.416-2.133-3.592-0.105-1.099,1.517
		c4.256,2.769,17.047,6.058,17.511,6.157c6.043,1.304,11.983,1.79,14.975,1.523c1.88-0.169,2.121-0.972,1.828-1.376
		C214.141,94.848,212.52,94.688,211.188,94.809L211.188,94.809z M118.327,208.204c-0.042,1.556-0.223,3.192-0.327,4.771
		c-0.103,1.567-0.403,9.824-0.074,13.233c0.093,0.968,0.105,2.478,1.407,2.294c0.882-0.123,0.781-1.82,0.799-2.516
		c0.066-2.393,0.163-4.785,0.222-7.175c0.217-8.973-0.449-19.938-0.767-28.788c-0.17-4.725,1.371-5.718,0.235-10.513
		c-0.043-0.179-0.293-0.547-0.671-0.412c-0.308,0.109-0.418,0.339-0.434,0.677c-0.084,1.74-0.318,3.475-0.17,5.226
		c0.087,1.032,0.234,2.084,0.126,3.102C118.387,190.797,118.383,206.104,118.327,208.204L118.327,208.204z M162.258,68.209
		L162.258,68.209c0.455,0.184,0.861,0.388,1.29,0.513c1.616,0.469,1.955,1.012,1.45,2.527c-0.213,0.637-0.348,1.208,0.26,1.695
		c0.34,0.274,0.75,0.5,1.133,0.25c0.557-0.361,1.013-0.807,0.967-1.614c-0.059-1.028,0.271-2.059-0.06-3.097
		c-0.178-0.556,0.215-1.121,0.586-1.279c1.337-0.565,2.429-1.539,3.778-2.084c12.36-5.438,35.603-19.522,44.878-26.91
		c1.378-1.098,2-2.113,0.922-2.645c-0.474-0.233-1.281,0.37-2.556,1.217c-2.491,1.658-11.812,8.567-21.849,14.503
		c-8.582,5.075-17.547,9.708-26.247,14.736c-0.852,0.491-1.485,0.313-2.138-0.273c-0.261-0.233-0.488-0.69-0.901-0.464
		c-0.446,0.244-0.143,0.625-0.044,0.984c0.174,0.625,0.026,1.161-0.696,1.357C162.752,67.702,162.454,67.733,162.258,68.209
		L162.258,68.209z M28.496,86.591c-0.277,0.525,0.556,0.911,1.476,1.515c6.122,4.013,30.726,2.952,37.725,1.067
		c1.762-0.475,2.203-0.986,2.019-1.48c-0.171-0.46-0.521-0.829-2.199-0.67c-14.127,1.35-23.39,2.979-37.336-0.615
		C29.405,86.208,28.721,86.164,28.496,86.591L28.496,86.591z M91.258,103.865L91.258,103.865c0.61,0,0.867,0.036,1.108-0.007
		c0.67-0.118,1.021-0.674,1.387-1.154c0.164-0.216-0.121-0.423-0.316-0.592c-0.569-0.494-1.032-0.226-1.532,0.134
		c-0.493,0.354-1.171,0.59-1.656,0.326c-1.416-0.769-3.099-1.193-4-2.706c-0.245-0.412-0.224-1.005-0.511-1.368
		c-1.098-1.388-1.709-2.961-2.009-4.679c-0.074-0.42-0.124-0.889-0.693-0.855c-0.439,0.025-0.868,0.312-0.929,0.715
		c-0.128,0.853-0.426,1.877-0.096,2.563c0.987,2.055,1.035,4.574,3.109,6.121c1.374,1.024,2.634,2.11,4.521,1.724
		C90.29,103.954,90.955,103.905,91.258,103.865L91.258,103.865z M133.571,34.2L133.571,34.2c0.03,0.788,0.004,1.367,0.547,1.589
		c1.059,0.431,1.522,1.299,1.959,2.262c0.459,1.01,1.172,1.522,2.403,1.138c1.122-0.35,2.271,0.001,3.367,0.306
		c0.435,0.12,0.766,0.717,1.282,0.135c0.459-0.519,1.16-0.915,1.002-1.751c-0.132-0.697-0.72-0.863-1.328-0.908
		c-0.452-0.033-0.911-0.034-1.364-0.009c-0.517,0.029-1.159,0.035-1.409-0.344c-0.857-1.31-2.46-1.846-3.221-3.231
		c-0.333-0.608-0.839-0.993-1.537-0.653C134.515,33.102,133.616,33.395,133.571,34.2L133.571,34.2z M175.179,82.651L175.179,82.651
		c0.149-2.692-0.852-5.039-2.121-7.305c-0.109-0.197-0.336-0.268-0.545-0.198c-0.451,0.15-0.657-0.177-0.96-0.395
		c-0.496-0.357-1.035-0.669-1.592-0.924c-0.479-0.218-1.976,0.46-2.019,0.92c-0.083,0.858,0.692,0.635,1.144,0.79
		c1.092,0.376,2.168,1.1,2.611,1.968c1.238,2.426,2.101,5.032,1.524,7.864c-0.083,0.406-0.358,1.017,0.264,1.139
		c0.503,0.098,0.859-0.383,1.068-0.869C174.967,84.68,175.027,83.644,175.179,82.651L175.179,82.651z M154.691,145.971
		L154.691,145.971c0.363-0.002,0.716-0.039,0.897-0.361c0.186-0.329-0.101-0.537-0.329-0.71c-2.554-1.915-5.709-2.589-8.489-4.059
		c-1.04-0.55-2.101-1.115-3.154-1.664c-0.315-0.165-0.572-0.63-0.951-0.296c-0.455,0.402-0.145,0.944,0.138,1.225
		c0.76,0.753,1.583,1.456,2.448,2.088c1.878,1.373,4.047,2.158,6.229,2.891C152.531,145.437,153.62,145.679,154.691,145.971
		L154.691,145.971z M170.725,91.436c-0.051-0.403,0.028-0.959-0.567-0.924c-0.515,0.03-0.621,0.606-0.602,0.974
		c0.103,1.961-0.883,3.514-1.862,5.043c-1.354,2.114-2.76,4.204-5.34,5.058c-0.566,0.188-1.108,0.707-0.981,1.271
		c0.417,1.865,6.198-1.971,7.152-3.679c0.261-0.466,0.266-0.974,0.592-1.45C170.16,96.202,170.976,93.394,170.725,91.436
		L170.725,91.436z M85.701,148.82L85.701,148.82c0.441,0.045,0.819-0.146,1.167-0.368c1.687-1.083,8.039-4.065,8.021-6.185
		c-0.003-0.246,0.374-0.522,0.086-0.776c-0.31-0.275-0.597-0.013-0.877,0.164c-2.104,1.324-4.275,2.556-6.457,3.722
		c-1.265,0.674-2.383,1.293-3.2,2.478c-0.354,0.513-0.328,0.715,0.274,0.815C85.043,148.725,85.373,148.77,85.701,148.82
		L85.701,148.82z M133.359,59.073L133.359,59.073c0.227,2.724,0.927,5.494,1.639,8.262c0.144,0.56,0.477,0.888,1.098,0.692
		c0.628-0.198,0.584-0.634,0.484-1.193c-0.455-2.572-0.629-5.168-0.412-7.775c0.089-1.075-0.414-1.911-1.313-1.994
		C133.965,56.981,133.325,57.78,133.359,59.073L133.359,59.073z M102.259,37.055L102.259,37.055c0.076,0.759-0.074,1.43,0.608,1.715
		c0.693,0.287,1.35,0.257,1.954-0.317c1.567-1.491,2.163-3.465,2.768-5.434c0.137-0.451-0.09-0.826-0.559-0.97
		c-0.436-0.133-0.915-0.289-1.217,0.239c-0.463,0.81-1.264,1.312-1.825,2.022C103.283,35.206,102.34,35.979,102.259,37.055
		L102.259,37.055z M73.827,69.722c0.271,0.324,0.634,0.479,0.987,0.211c0.44-0.335,0.263-0.778-0.035-1.086
		c-0.386-0.397-0.616-0.833-0.409-1.343c0.387-0.948,0.345-2.015,0.971-2.913c0.538-0.774,0.84-1.698,1.428-2.472
		c0.378-0.498,0.635-1.348-0.291-1.418c-0.717-0.055-1.603,0.056-2.146,0.929c-1.01,1.624-1.747,3.29-1.698,5.28
		C72.678,68.733,72.511,68.147,73.827,69.722L73.827,69.722z M83.215,31.136L83.215,31.136c-0.018,1.509,1.22,2.609,2.969,2.588
		c0.767-0.009,2.177-1.3,2.177-1.952c-0.003-1.405-1.613-3.403-2.621-3.425C85.038,28.331,83.226,30.224,83.215,31.136
		L83.215,31.136z M151.568,41.987L151.568,41.987c0.14-1.45-0.79-2.716-1.556-4.025c-0.298-0.507-0.819-0.648-1.417-0.464
		c-0.599,0.185-0.67,0.606-0.69,1.153c-0.076,1.981,1.098,3.442,2.056,4.981c0.149,0.24,0.207,0.845,0.733,0.663
		c0.493-0.171,0.816-0.569,0.867-1.115C151.593,42.853,151.568,42.52,151.568,41.987L151.568,41.987z M92.439,38.241L92.439,38.241
		c-1.036,0.056-1.87,0.477-2.594,0.983c-0.812,0.567-0.586,1.474,0.258,2.01c0.894,0.566,1.669-0.049,2.497-0.101
		c0.948-0.059,1.263-0.691,1.217-1.538C93.765,38.692,93.182,38.32,92.439,38.241L92.439,38.241z M134.03,53.93L134.03,53.93
		c0.074,0.366,0.138,0.732,0.222,1.095c0.12,0.528,0.182,1.087,0.969,1.033c0.757-0.052,0.935-0.674,0.88-1.137
		c-0.104-0.88,0.112-1.624,0.464-2.391c0.182-0.396-0.05-0.718-0.384-0.955c-0.352-0.248-0.753-0.293-1.006,0.057
		C134.674,52.322,133.969,52.934,134.03,53.93L134.03,53.93z M152.955,180.389L152.955,180.389c0.684,0.03,0.784-0.063,0.48-0.656
		c-0.382-0.748-0.664-1.517-0.742-2.349c-0.05-0.533-0.434-0.691-0.841-0.763c-0.438-0.076-0.689,0.257-0.843,0.604
		C150.497,178.396,151.697,180.333,152.955,180.389L152.955,180.389z M79.236,118.149L79.236,118.149
		c-0.206-0.275,0.218-1.002-0.519-0.992c-0.683,0.008-0.936,0.78-1,1.34c-0.064,0.566,0.323,0.785,0.814,0.775
		C79.086,119.263,79.327,118.719,79.236,118.149L79.236,118.149z M141.383,41.521L141.383,41.521
		c-0.116-0.511-0.485-0.685-0.92-0.709c-0.545-0.03-0.745,0.365-0.713,0.808c0.032,0.423,0.262,1.506,0.637,1.478
		C140.788,43.068,141.353,42.025,141.383,41.521L141.383,41.521z M152.968,39.982L152.968,39.982
		c0.489,0.021,0.476-0.285,0.468-0.576c-0.009-0.374-0.018-0.809-0.483-0.863c-0.436-0.052-0.517,0.329-0.489,0.674
		C152.49,39.569,152.47,39.996,152.968,39.982z"/>
</g>
</svg>
