<?xml version="1.0" encoding="UTF-8" standalone="no"?><!DOCTYPE svg PUBLIC "-//W3C//DTD SVG 1.1//EN" "http://www.w3.org/Graphics/SVG/1.1/DTD/svg11.dtd"><svg width="100%" height="100%" viewBox="0 0 1067 1067" version="1.1" xmlns="http://www.w3.org/2000/svg" xmlns:xlink="http://www.w3.org/1999/xlink" xml:space="preserve" xmlns:serif="http://www.serif.com/" style="fill-rule:evenodd;clip-rule:evenodd;stroke-linejoin:round;stroke-miterlimit:2;"><rect x="0" y="0" width="1066.67" height="1066.67" style="fill:#b30014;"/><path id="Kreuz" d="M490.667,0l85.333,0l-0,490.667l490.667,-0l-0,85.333l-490.667,-0l-0,490.667l-85.333,-0l-0,-490.667l-490.667,-0l0,-85.333l490.667,-0l-0,-490.667Z" style="fill:#fff;"/><g id="Flamme"><g id="Flamme-TR" serif:id="Flamme TR"><path d="M814.956,0c-0.205,2.135 -0.312,4.1 -0.286,5.856c0.197,13.43 -0.284,26.934 -2.133,40.237c-2.004,14.414 -4.961,32.351 -9.889,46.248c-4.683,13.203 -12.847,26.905 -19.682,37.134c-5.98,8.948 -14.201,16.176 -21.331,24.239c-8.645,9.776 -22.38,25.45 -30.541,34.419c-6,6.594 -12.542,12.689 -18.421,19.391c-7.514,8.564 -19.311,22.3 -26.663,31.995c-6.337,8.357 -12.307,17.04 -17.452,26.178c-5.414,9.615 -11.159,20.536 -15.028,31.511c-3.959,11.231 -5.979,24.885 -8.726,35.874c-2.51,10.038 -5.01,20.199 -7.757,30.056c-2.717,9.751 -5.332,19.876 -8.726,29.087c-3.301,8.96 -7.272,17.856 -11.635,26.178c-4.31,8.222 -9.21,16.886 -14.543,23.754c-5.045,6.498 -17.452,17.452 -17.452,17.452c0,-0 7.206,-20.481 9.696,-31.026c2.747,-11.635 5.529,-25.719 6.787,-38.782c1.454,-15.109 1.301,-34.581 1.939,-51.872c0.646,-17.532 0.808,-38.539 1.939,-53.325c0.908,-11.872 2.1,-24.966 4.848,-35.389c2.509,-9.52 7.2,-18.357 11.634,-27.148c4.606,-9.13 10.294,-18.646 15.998,-27.632c5.898,-9.292 13.314,-18.489 19.391,-28.117c6.221,-9.857 12.782,-21.88 17.937,-31.026c4.445,-7.887 10.192,-15.242 12.992,-23.851c3.442,-10.585 6.383,-26.404 7.659,-39.655c1.274,-13.222 0.615,-28.521 0,-39.849c-0.511,-9.439 -2.487,-18.741 -3.684,-28.117c-0.147,-1.155 -0.398,-2.434 -0.733,-3.82l123.862,0Z" style="fill:#080605;"/><path d="M1066.67,98.414c-0.806,0.851 -1.575,1.725 -2.296,2.63c-8.888,11.15 -18.141,26.06 -27.633,38.782c-11.635,15.594 -30.299,39.994 -42.176,54.78c-9.33,11.615 -21.33,25.289 -29.086,33.935c-5.571,6.209 -11.063,12.574 -17.452,17.936c-9.05,7.595 -23.674,20.361 -36.844,27.633c-13.162,7.268 -28.359,11.796 -42.175,15.997c-13.315,4.049 -30.299,6.222 -40.722,9.211c-7.528,2.16 -14.847,5.15 -21.815,8.726c-9.13,4.687 -22.543,12.049 -32.965,19.391c-10.665,7.515 -21.15,16.596 -31.026,25.694c-10.261,9.453 -19.771,21.298 -30.541,31.026c-12.523,11.311 -31.914,26.662 -44.599,36.843c-10.335,8.294 -20.359,17.08 -31.511,24.239c-11.958,7.675 -40.237,21.815 -40.237,21.815c0,-0 29.168,-34.581 42.176,-50.902c12.288,-15.417 25.29,-31.026 35.874,-47.024c10.341,-15.629 19.472,-36.277 27.632,-48.962c6.227,-9.679 13.431,-18.779 21.331,-27.148c9.533,-10.099 23.511,-24.158 35.873,-33.45c11.809,-8.875 26.744,-15.109 38.298,-22.299c10.578,-6.584 21.168,-13.332 31.025,-20.846c9.842,-7.502 19.466,-15.392 28.118,-24.239c10.746,-10.988 26.662,-29.006 36.358,-41.691c8.249,-10.792 14.848,-22.758 21.815,-34.419c7.676,-12.847 17.937,-28.279 24.239,-42.661c6.113,-13.95 10.504,-31.429 13.574,-43.63c2.438,-9.686 3.393,-21.007 4.848,-29.571c0.011,-0.07 0.023,-0.14 0.033,-0.21l109.884,0l-0,98.414Z" style="fill:#080605;"/><path d="M1066.67,428.788c-0.108,0.037 -0.213,0.075 -0.318,0.113c-7.919,2.907 -12.785,11.318 -20.361,15.028c-7.918,3.879 -17.874,6.387 -27.147,8.242c-9.696,1.939 -20.623,3.469 -31.026,3.393c-10.988,-0.081 -24.239,-2.262 -34.904,-3.878c-9.776,-1.481 -20.038,-3.717 -29.087,-5.818c-8.477,-1.967 -16.723,-4.855 -25.208,-6.786c-9.938,-2.263 -22.84,-5.155 -34.42,-6.787c-12.038,-1.697 -25.531,-3.232 -37.812,-3.394c-11.985,-0.158 -23.985,0.911 -35.874,2.424c-13.332,1.697 -30.38,4.848 -44.115,7.757c-12.883,2.728 -25.936,6.14 -38.297,9.695c-12.082,3.474 -25.775,8.161 -35.874,11.635c-8.316,2.861 -16.315,6.635 -24.724,9.211c-8.968,2.747 -29.087,7.271 -29.087,7.271c0,0 21.103,-13.631 31.996,-19.876c12.685,-7.271 30.703,-15.997 44.115,-23.754c12.381,-7.16 23.982,-15.615 36.358,-22.784c13.251,-7.676 30.218,-17.372 43.145,-23.27c11.067,-5.049 22.615,-9.187 34.42,-12.119c12.362,-3.071 26.389,-5.101 39.752,-6.302c15.27,-1.374 36.196,-0.566 51.871,-1.94c14.16,-1.24 30.299,-3.312 42.176,-6.302c10.126,-2.549 19.971,-6.54 29.086,-11.634c10.989,-6.141 25.189,-15.956 36.844,-25.209c13.331,-10.584 29.086,-25.774 43.145,-38.297c5.577,-4.968 10.38,-12.119 15.346,-18.802l-0,162.183Z" style="fill:#080605;"/></g><g id="Flamme-BR" serif:id="Flamme BR"><path d="M814.956,1066.67c-0.205,-2.135 -0.312,-4.1 -0.286,-5.856c0.197,-13.43 -0.284,-26.934 -2.133,-40.237c-2.004,-14.414 -4.961,-32.351 -9.889,-46.248c-4.683,-13.203 -12.847,-26.905 -19.682,-37.134c-5.98,-8.948 -14.201,-16.176 -21.331,-24.239c-8.645,-9.776 -22.38,-25.451 -30.541,-34.419c-6,-6.594 -12.542,-12.69 -18.421,-19.391c-7.514,-8.565 -19.311,-22.3 -26.663,-31.996c-6.337,-8.356 -12.307,-17.039 -17.452,-26.178c-5.414,-9.614 -11.159,-20.535 -15.028,-31.51c-3.959,-11.231 -5.979,-24.886 -8.726,-35.874c-2.51,-10.038 -5.01,-20.199 -7.757,-30.056c-2.717,-9.751 -5.332,-19.876 -8.726,-29.087c-3.301,-8.96 -7.272,-17.856 -11.635,-26.178c-4.31,-8.223 -9.21,-16.886 -14.543,-23.754c-5.045,-6.498 -17.452,-17.452 -17.452,-17.452c0,-0 7.206,20.48 9.696,31.026c2.747,11.634 5.529,25.718 6.787,38.782c1.454,15.109 1.301,34.58 1.939,51.871c0.646,17.533 0.808,38.54 1.939,53.326c0.908,11.872 2.1,24.966 4.848,35.389c2.509,9.52 7.2,18.357 11.634,27.147c4.606,9.13 10.294,18.647 15.998,27.633c5.898,9.291 13.314,18.489 19.391,28.117c6.221,9.857 12.782,21.88 17.937,31.026c4.445,7.887 10.192,15.241 12.992,23.851c3.442,10.584 6.383,26.404 7.659,39.655c1.274,13.221 0.615,28.521 0,39.849c-0.511,9.438 -2.487,18.74 -3.684,28.117c-0.147,1.155 -0.398,2.434 -0.733,3.82l123.862,-0Z" style="fill:#080605;"/><path d="M1066.67,968.252c-0.806,-0.85 -1.575,-1.724 -2.296,-2.629c-8.888,-11.15 -18.141,-26.06 -27.633,-38.782c-11.635,-15.594 -30.299,-39.995 -42.176,-54.78c-9.33,-11.615 -21.33,-25.29 -29.086,-33.935c-5.571,-6.209 -11.063,-12.574 -17.452,-17.937c-9.05,-7.595 -23.674,-20.36 -36.844,-27.632c-13.162,-7.268 -28.359,-11.796 -42.175,-15.998c-13.315,-4.049 -30.299,-6.221 -40.722,-9.211c-7.528,-2.159 -14.847,-5.149 -21.815,-8.726c-9.13,-4.686 -22.543,-12.048 -32.965,-19.391c-10.665,-7.514 -21.15,-16.595 -31.026,-25.693c-10.261,-9.453 -19.771,-21.299 -30.541,-31.026c-12.523,-11.311 -31.914,-26.663 -44.599,-36.843c-10.335,-8.294 -20.359,-17.081 -31.511,-24.239c-11.958,-7.676 -40.237,-21.815 -40.237,-21.815c0,-0 29.168,34.581 42.176,50.902c12.288,15.417 25.29,31.026 35.874,47.023c10.341,15.63 19.472,36.278 27.632,48.963c6.227,9.678 13.431,18.779 21.331,27.147c9.533,10.1 23.511,24.159 35.873,33.45c11.809,8.876 26.744,15.109 38.298,22.3c10.578,6.584 21.168,13.331 31.025,20.846c9.842,7.501 19.466,15.392 28.118,24.238c10.746,10.989 26.662,29.006 36.358,41.691c8.249,10.792 14.848,22.759 21.815,34.42c7.676,12.846 17.937,28.278 24.239,42.66c6.113,13.951 10.504,31.43 13.574,43.63c2.438,9.687 3.393,21.007 4.848,29.572c0.011,0.069 0.023,0.139 0.033,0.21l109.884,-0l-0,-98.415Z" style="fill:#080605;"/><path d="M1066.67,637.878c-0.108,-0.037 -0.213,-0.074 -0.318,-0.112c-7.919,-2.907 -12.785,-11.318 -20.361,-15.029c-7.918,-3.878 -17.874,-6.386 -27.147,-8.241c-9.696,-1.939 -20.623,-3.47 -31.026,-3.393c-10.988,0.08 -24.239,2.262 -34.904,3.878c-9.776,1.481 -20.038,3.717 -29.087,5.817c-8.477,1.968 -16.723,4.856 -25.208,6.787c-9.938,2.262 -22.84,5.155 -34.42,6.787c-12.038,1.697 -25.531,3.232 -37.812,3.394c-11.985,0.157 -23.985,-0.911 -35.874,-2.424c-13.332,-1.697 -30.38,-4.848 -44.115,-7.757c-12.883,-2.728 -25.936,-6.14 -38.297,-9.695c-12.082,-3.475 -25.775,-8.161 -35.874,-11.635c-8.316,-2.861 -16.315,-6.635 -24.724,-9.211c-8.968,-2.747 -29.087,-7.272 -29.087,-7.272c0,0 21.103,13.632 31.996,19.876c12.685,7.272 30.703,15.998 44.115,23.755c12.381,7.16 23.982,15.615 36.358,22.784c13.251,7.676 30.218,17.371 43.145,23.269c11.067,5.049 22.615,9.188 34.42,12.12c12.362,3.07 26.389,5.1 39.752,6.302c15.27,1.374 36.196,0.566 51.871,1.939c14.16,1.241 30.299,3.313 42.176,6.302c10.126,2.549 19.971,6.541 29.086,11.635c10.989,6.141 25.189,15.956 36.844,25.208c13.331,10.585 29.086,25.775 43.145,38.298c5.577,4.968 10.38,12.118 15.346,18.802l-0,-162.184Z" style="fill:#080605;"/></g><g id="Flamme-TL" serif:id="Flamme TL"><path d="M251.711,0c0.204,2.135 0.311,4.1 0.286,5.856c-0.198,13.43 0.283,26.934 2.133,40.237c2.003,14.414 4.961,32.351 9.889,46.248c4.683,13.203 12.847,26.905 19.682,37.134c5.98,8.948 14.201,16.176 21.33,24.239c8.646,9.776 22.381,25.45 30.541,34.419c6.001,6.594 12.542,12.689 18.422,19.391c7.514,8.564 19.31,22.3 26.663,31.995c6.337,8.357 12.307,17.04 17.452,26.178c5.413,9.615 11.159,20.536 15.028,31.511c3.959,11.231 5.979,24.885 8.726,35.874c2.51,10.038 5.009,20.199 7.756,30.056c2.718,9.751 5.333,19.876 8.727,29.087c3.301,8.96 7.271,17.856 11.634,26.178c4.311,8.222 9.211,16.886 14.544,23.754c5.045,6.498 17.452,17.452 17.452,17.452c-0,-0 -7.206,-20.481 -9.696,-31.026c-2.747,-11.635 -5.529,-25.719 -6.787,-38.782c-1.454,-15.109 -1.302,-34.581 -1.939,-51.872c-0.646,-17.532 -0.808,-38.539 -1.939,-53.325c-0.908,-11.872 -2.101,-24.966 -4.848,-35.389c-2.509,-9.52 -7.201,-18.357 -11.635,-27.148c-4.605,-9.13 -10.293,-18.646 -15.997,-27.632c-5.898,-9.292 -13.315,-18.489 -19.391,-28.117c-6.222,-9.857 -12.782,-21.88 -17.937,-31.026c-4.445,-7.887 -10.193,-15.242 -12.992,-23.851c-3.442,-10.585 -6.383,-26.404 -7.66,-39.655c-1.274,-13.222 -0.614,-28.521 0,-39.849c0.512,-9.439 2.487,-18.741 3.685,-28.117c0.147,-1.155 0.398,-2.434 0.733,-3.82l-123.862,0Z" style="fill:#080605;"/><path d="M0,98.414c0.805,0.851 1.575,1.725 2.296,2.63c8.888,11.15 18.14,26.06 27.633,38.782c11.634,15.594 30.298,39.994 42.175,54.78c9.33,11.615 21.331,25.289 29.087,33.935c5.571,6.209 11.062,12.574 17.452,17.936c9.049,7.595 23.673,20.361 36.843,27.633c13.163,7.268 28.36,11.796 42.176,15.997c13.315,4.049 30.299,6.222 40.721,9.211c7.529,2.16 14.848,5.15 21.815,8.726c9.13,4.687 22.544,12.049 32.965,19.391c10.666,7.515 21.151,16.596 31.026,25.694c10.261,9.453 19.772,21.298 30.541,31.026c12.524,11.311 31.915,26.662 44.6,36.843c10.335,8.294 20.359,17.08 31.511,24.239c11.957,7.675 40.236,21.815 40.236,21.815c0,-0 -29.167,-34.581 -42.176,-50.902c-12.287,-15.417 -25.289,-31.026 -35.873,-47.024c-10.341,-15.629 -19.472,-36.277 -27.633,-48.962c-6.226,-9.679 -13.43,-18.779 -21.33,-27.148c-9.534,-10.099 -23.512,-24.158 -35.873,-33.45c-11.809,-8.875 -26.744,-15.109 -38.298,-22.299c-10.578,-6.584 -21.169,-13.332 -31.026,-20.846c-9.841,-7.502 -19.465,-15.392 -28.117,-24.239c-10.746,-10.988 -26.663,-29.006 -36.358,-41.691c-8.249,-10.792 -14.848,-22.758 -21.815,-34.419c-7.676,-12.847 -17.937,-28.279 -24.239,-42.661c-6.113,-13.95 -10.504,-31.429 -13.574,-43.63c-2.438,-9.686 -3.394,-21.007 -4.848,-29.571c-0.012,-0.07 -0.023,-0.14 -0.034,-0.21l-109.883,0l0,98.414Z" style="fill:#080605;"/><path d="M0,428.788c0.107,0.037 0.213,0.075 0.318,0.113c7.918,2.907 12.785,11.318 20.36,15.028c7.918,3.879 17.875,6.387 27.148,8.242c9.696,1.939 20.622,3.469 31.026,3.393c10.988,-0.081 24.239,-2.262 34.904,-3.878c9.776,-1.481 20.037,-3.717 29.087,-5.818c8.476,-1.967 16.723,-4.855 25.208,-6.786c9.938,-2.263 22.84,-5.155 34.419,-6.787c12.039,-1.697 25.532,-3.232 37.813,-3.394c11.984,-0.158 23.985,0.911 35.874,2.424c13.331,1.697 30.379,4.848 44.115,7.757c12.883,2.728 25.935,6.14 38.297,9.695c12.082,3.474 25.774,8.161 35.874,11.635c8.316,2.861 16.315,6.635 24.723,9.211c8.969,2.747 29.087,7.271 29.087,7.271c0,0 -21.103,-13.631 -31.995,-19.876c-12.685,-7.271 -30.703,-15.997 -44.115,-23.754c-12.381,-7.16 -23.982,-15.615 -36.358,-22.784c-13.251,-7.676 -30.218,-17.372 -43.146,-23.27c-11.066,-5.049 -22.614,-9.187 -34.419,-12.119c-12.362,-3.071 -26.39,-5.101 -39.752,-6.302c-15.27,-1.374 -36.197,-0.566 -51.871,-1.94c-14.161,-1.24 -30.299,-3.312 -42.176,-6.302c-10.127,-2.549 -19.971,-6.54 -29.087,-11.634c-10.988,-6.141 -25.189,-15.956 -36.843,-25.209c-13.331,-10.584 -29.087,-25.774 -43.145,-38.297c-5.577,-4.968 -10.38,-12.119 -15.346,-18.802l0,162.183Z" style="fill:#080605;"/></g><g id="Flamme-BL" serif:id="Flamme BL"><path d="M251.711,1066.67c0.204,-2.135 0.311,-4.1 0.286,-5.856c-0.198,-13.43 0.283,-26.934 2.133,-40.237c2.003,-14.414 4.961,-32.351 9.889,-46.248c4.683,-13.203 12.847,-26.905 19.682,-37.134c5.98,-8.948 14.201,-16.176 21.33,-24.239c8.646,-9.776 22.381,-25.451 30.541,-34.419c6.001,-6.594 12.542,-12.69 18.422,-19.391c7.514,-8.565 19.31,-22.3 26.663,-31.996c6.337,-8.356 12.307,-17.039 17.452,-26.178c5.413,-9.614 11.159,-20.535 15.028,-31.51c3.959,-11.231 5.979,-24.886 8.726,-35.874c2.51,-10.038 5.009,-20.199 7.756,-30.056c2.718,-9.751 5.333,-19.876 8.727,-29.087c3.301,-8.96 7.271,-17.856 11.634,-26.178c4.311,-8.223 9.211,-16.886 14.544,-23.754c5.045,-6.498 17.452,-17.452 17.452,-17.452c-0,-0 -7.206,20.48 -9.696,31.026c-2.747,11.634 -5.529,25.718 -6.787,38.782c-1.454,15.109 -1.302,34.58 -1.939,51.871c-0.646,17.533 -0.808,38.54 -1.939,53.326c-0.908,11.872 -2.101,24.966 -4.848,35.389c-2.509,9.52 -7.201,18.357 -11.635,27.147c-4.605,9.13 -10.293,18.647 -15.997,27.633c-5.898,9.291 -13.315,18.489 -19.391,28.117c-6.222,9.857 -12.782,21.88 -17.937,31.026c-4.445,7.887 -10.193,15.241 -12.992,23.851c-3.442,10.584 -6.383,26.404 -7.66,39.655c-1.274,13.221 -0.614,28.521 0,39.849c0.512,9.438 2.487,18.74 3.685,28.117c0.147,1.155 0.398,2.434 0.733,3.82l-123.862,-0Z" style="fill:#080605;"/><path d="M0,968.252c0.805,-0.85 1.575,-1.724 2.296,-2.629c8.888,-11.15 18.14,-26.06 27.633,-38.782c11.634,-15.594 30.298,-39.995 42.175,-54.78c9.33,-11.615 21.331,-25.29 29.087,-33.935c5.571,-6.209 11.062,-12.574 17.452,-17.937c9.049,-7.595 23.673,-20.36 36.843,-27.632c13.163,-7.268 28.36,-11.796 42.176,-15.998c13.315,-4.049 30.299,-6.221 40.721,-9.211c7.529,-2.159 14.848,-5.149 21.815,-8.726c9.13,-4.686 22.544,-12.048 32.965,-19.391c10.666,-7.514 21.151,-16.595 31.026,-25.693c10.261,-9.453 19.772,-21.299 30.541,-31.026c12.524,-11.311 31.915,-26.663 44.6,-36.843c10.335,-8.294 20.359,-17.081 31.511,-24.239c11.957,-7.676 40.236,-21.815 40.236,-21.815c0,-0 -29.167,34.581 -42.176,50.902c-12.287,15.417 -25.289,31.026 -35.873,47.023c-10.341,15.63 -19.472,36.278 -27.633,48.963c-6.226,9.678 -13.43,18.779 -21.33,27.147c-9.534,10.1 -23.512,24.159 -35.873,33.45c-11.809,8.876 -26.744,15.109 -38.298,22.3c-10.578,6.584 -21.169,13.331 -31.026,20.846c-9.841,7.501 -19.465,15.392 -28.117,24.238c-10.746,10.989 -26.663,29.006 -36.358,41.691c-8.249,10.792 -14.848,22.759 -21.815,34.42c-7.676,12.846 -17.937,28.278 -24.239,42.66c-6.113,13.951 -10.504,31.43 -13.574,43.63c-2.438,9.687 -3.394,21.007 -4.848,29.572c-0.012,0.069 -0.023,0.139 -0.034,0.21l-109.883,-0l0,-98.415Z" style="fill:#080605;"/><path d="M0,637.878c0.107,-0.037 0.213,-0.074 0.318,-0.112c7.918,-2.907 12.785,-11.318 20.36,-15.029c7.918,-3.878 17.875,-6.386 27.148,-8.241c9.696,-1.939 20.622,-3.47 31.026,-3.393c10.988,0.08 24.239,2.262 34.904,3.878c9.776,1.481 20.037,3.717 29.087,5.817c8.476,1.968 16.723,4.856 25.208,6.787c9.938,2.262 22.84,5.155 34.419,6.787c12.039,1.697 25.532,3.232 37.813,3.394c11.984,0.157 23.985,-0.911 35.874,-2.424c13.331,-1.697 30.379,-4.848 44.115,-7.757c12.883,-2.728 25.935,-6.14 38.297,-9.695c12.082,-3.475 25.774,-8.161 35.874,-11.635c8.316,-2.861 16.315,-6.635 24.723,-9.211c8.969,-2.747 29.087,-7.272 29.087,-7.272c0,0 -21.103,13.632 -31.995,19.876c-12.685,7.272 -30.703,15.998 -44.115,23.755c-12.381,7.16 -23.982,15.615 -36.358,22.784c-13.251,7.676 -30.218,17.371 -43.146,23.269c-11.066,5.049 -22.614,9.188 -34.419,12.12c-12.362,3.07 -26.39,5.1 -39.752,6.302c-15.27,1.374 -36.197,0.566 -51.871,1.939c-14.161,1.241 -30.299,3.313 -42.176,6.302c-10.127,2.549 -19.971,6.541 -29.087,11.635c-10.988,6.141 -25.189,15.956 -36.843,25.208c-13.331,10.585 -29.087,25.775 -43.145,38.298c-5.577,4.968 -10.38,12.118 -15.346,18.802l0,-162.184Z" style="fill:#080605;"/></g></g></svg>