<?xml version="1.0" encoding="UTF-8"?>
<svg xmlns="http://www.w3.org/2000/svg" width="800px" height="800px" viewBox="0 0 600 600" xmlns:xlink="http://www.w3.org/1999/xlink">
<rect fill="#009" width="600" height="600"/>
<path id="1" fill="#ffd700" d="M126 159c9,22 13,50 13,77l-7 0c-6,-49 -19,-113 -71,-113 -22,0 -39,20 -39,38 0,29 17,49 52,61 -5,-15 -9,-39 6,-39 24,0 35,29 35,53l-3 0c-5,0 -8,3 -8,8 0,5 4,8 8,8l17 0c-8,21 -22,29 -33,35 17,8 37,0 41,-5 -1,6 0,22 2,33 1,9 5,14 11,21 6,-7 10,-12 11,-21 2,-11 3,-27 2,-33 4,5 24,13 41,5 -11,-6 -25,-14 -33,-35l17 0c5,0 8,-3 8,-8 0,-5 -3,-8 -8,-8l-3 0c0,-24 11,-53 35,-53 15,0 11,24 6,39 35,-12 52,-32 52,-61 0,-18 -17,-38 -39,-38 -52,0 -65,64 -71,113l-7 0c0,-27 4,-55 13,-77 30,-67 9,-112 -24,-144 -33,32 -54,77 -24,144z"/>
<use xlink:href="#1" transform="translate(300,0)"/>
<use xlink:href="#1" transform="translate(150,250)"/>
</svg>