<?xml version="1.0" encoding="UTF-8" standalone="no"?>
<!-- Created with Inkscape (http://www.inkscape.org/) -->
<svg xmlns="http://www.w3.org/2000/svg" width="99.04" height="500" version="1.0" viewBox="0.959 0.004 99.04 500"><path d="m92 500 8-500H.96L8 500l25-200 17 200 17-200z" style="fill:#306111;fill-opacity:1"/><path d="M88 428 96 4H4.96L12 428l23-166 15 170 17-170z" style="fill:#ec0000;fill-opacity:1"/><path d="M50.313 9.281c-1.097 1.657-2.998 4.03-1.626 6.063.783 2.443-.073 3.845-1.468 5.219-.593 1.46-.594 3.198.093 4.625.972 1.208 2.094 2.71 2.094 3.28 0 .939 1.206-.665.875-2.093-.046-.086-.067-.165-.125-.25-.782-2.443.073-3.85 1.469-5.219.751-1.85.651-4.172-.844-5.718-1.05-1.488-.817-3.646-.468-5.907m-15.907.5c-.77 1.839-2.234 4.581-.156 5.781 1.541 1.78.962 3.316-.219 5.032-.33 1.872.41 3.796 2.5 4.531 1.58.862 1.895 2.808 2.125 4.875.77-1.838 2.238-4.612.157-5.812-1.538-1.78-.966-3.285.218-5 .334-1.873-.41-3.832-2.5-4.563-1.572-.866-1.895-2.777-2.125-4.844m32.875 1.438c-1.606.853-4.23 1.93-3.406 4.094.096 2.244-1.167 2.997-3 3.5-1.307 1.15-1.905 3.01-.812 4.843.651 1.61-.238 3.204-1.25 4.844 1.606-.854 4.257-1.93 3.437-4.094-.1-2.248 1.167-2.997 3-3.5 1.307-1.15 1.905-3.01.813-4.843-.648-1.606.202-3.204 1.218-4.844M81 16.406c-1.089 1.86-2.2 3.56-4.062 3.657-2.3-.258-3.841 1.251-4.313 3.187.406 2.177.31 3.922-1.906 4.906-2.492.186-2.24 3.49-2.281 5.594 1.088-1.86 2.199-3.586 4.062-3.687 2.3.257 3.814-1.248 4.281-3.188-.402-2.18-.306-3.886 1.906-4.875 2.496-.186 2.27-3.489 2.313-5.594m-64 1.375c.038 2.012-.186 5.162 2.188 5.344 2.112.938 2.2 2.585 1.812 4.656.449 1.843 1.9 3.277 4.094 3.032 1.779.092 2.836 1.697 3.875 3.468-.039-2.003.185-5.135-2.188-5.312-2.108-.939-2.2-2.581-1.812-4.657-.449-1.846-1.901-3.28-4.094-3.03-1.775-.094-2.836-1.721-3.875-3.5m32.75 12.844c-1.41 2.669-3.978 6.522-1.406 9.094 1.43 2.749.751 4.784-.625 6.718-.492-2.785-2.116-5.512-5.188-6.25-2.571-1.056-3.926-3.996-5.187-7.124-.228 2.958-.99 7.446 2.437 8.937 2.398 2.007 2.642 4.056 2.188 6.281-1.455-2.406-3.956-4.37-7.032-4.156-2.806-.23-5.053-2.596-7.343-5.187.822 2.87 1.605 7.359 5.375 7.75 2.765 1.1 3.782 2.804 4.187 4.843-2.12-1.854-5.016-3.046-7.843-2.062-2.766.512-5.672-1.14-8.657-3.032 1.662 2.54 3.857 6.578 7.594 5.97 3.162.358 4.612 1.89 5.625 3.906-2.63-1.286-5.822-1.686-8.281.03-2.493 1.206-5.81.345-9.25-.687 2.368 2.004 5.668 5.346 9.062 3.782 2.77-.42 4.56.392 6.032 1.718-2.68-.318-5.46.24-7.125 2.313-.76.678-1.755 1.077-2.844 1.343h.406c-1.645.36-3.566.436-5.531.47 2.947 1.176 7.283 3.382 9.937.874 3.076-1.54 5.34-.861 7.625.469 0 .02.059.015.063.031-3.22.411-6.52 2.034-7.282 5.094-1.066 2.41-4.178 3.746-7.53 5 3.207.12 8.08.686 9.593-2.531 2.323-2.508 4.811-2.56 7.531-2.031-2.69 1.378-4.93 3.748-4.625 6.687-.19 2.6-2.715 4.769-5.468 6.938 3.088-.815 7.91-1.666 8.25-5.157 1.269-2.866 3.372-3.786 5.906-4.125.186.141.4.3.593.438-2.025 2.189-3.255 5.198-1.812 7.875.827 2.491-.643 5.346-2.375 8.281 2.563-1.782 6.721-4.192 5.688-7.562.066-2.992 1.54-4.516 3.656-5.657-.76 2.814-.332 6.05 2.281 7.844 1.96 1.878 1.978 5.03 1.875 8.375 1.41-2.669 3.978-6.553 1.406-9.125-1.43-2.75-.751-4.753.625-6.687.492 2.785 2.116 5.48 5.188 6.218 2.571 1.056 3.926 4.028 5.187 7.156.228-2.958.99-7.446-2.437-8.937-2.398-2.007-2.642-4.056-2.188-6.281 1.455 2.406 3.956 4.37 7.032 4.156 2.806.23 5.053 2.564 7.343 5.156-.822-2.87-1.605-7.359-5.375-7.75-2.765-1.1-3.782-2.773-4.187-4.812 2.12 1.854 5.016 3.015 7.843 2.031 2.766-.512 5.672 1.172 8.657 3.063-1.662-2.54-3.857-6.61-7.594-6-3.162-.36-4.612-1.86-5.625-3.876 2.63 1.286 5.822 1.655 8.281-.062 2.493-1.205 5.81-.344 9.25.688-2.368-2.004-5.668-5.315-9.062-3.75-2.77.419-4.56-.393-6.031-1.72 2.678.32 5.459-.24 7.124-2.312l2.438-1.375c1.645-.36 3.566-.436 5.531-.468-2.947-1.178-7.283-3.352-9.937-.844-3.076 1.54-5.34.861-7.625-.469 0-.02-.059-.046-.063-.062 3.22-.412 6.52-2.003 7.281-5.063 1.067-2.41 4.18-3.778 7.532-5.031-3.208-.121-8.081-.686-9.594 2.531-2.323 2.507-4.811 2.59-7.531 2.063 2.69-1.38 4.93-3.78 4.625-6.72.19-2.6 2.715-4.768 5.469-6.937-3.089.815-7.912 1.697-8.25 5.188-1.27 2.866-3.373 3.755-5.907 4.093-.186-.14-.4-.269-.593-.406 2.025-2.189 3.255-5.198 1.812-7.875-.827-2.491.643-5.378 2.375-8.312-2.563 1.782-6.721 4.223-5.687 7.593-.067 2.992-1.54 4.485-3.657 5.626.76-2.814.332-6.02-2.281-7.813-1.96-1.878-1.978-5.03-1.875-8.375m38.625 3.719c-1.18 1.318-2.35 2.495-3.875 2.25-1.813-.609-3.279.329-3.969 1.812-.023 1.83-.392 3.215-2.344 3.625-2.043-.283-2.378 2.43-2.75 4.125 1.177-1.314 2.353-2.495 3.876-2.25 1.82.613 3.31-.356 4-1.843.023-1.835.364-3.188 2.312-3.594 2.043.283 2.374-2.426 2.75-4.125m-76.437.156c.371 1.699.706 4.412 2.75 4.125 1.955.414 2.289 1.79 2.312 3.625.686 1.488 2.179 2.457 4 1.844.352-.057.68-.049 1 .031.031.008.063.022.094.031.623.18 1.201.583 1.75 1.094l.937.594c-.342-1.684-.786-3.884-2.656-3.625-1.951-.41-2.29-1.787-2.312-3.625-.694-1.484-2.183-2.453-4-1.844-1.53.25-2.695-.931-3.876-2.25m63.625 9.406v.032q.03-.016.062-.032zm1.75 31.063c1.49.828 2.868 1.67 3.156 3.094.073 1.762 1.367 2.93 2.844 3.28 1.548-.32 2.834-.252 3.812 1.438.426 1.91 2.822 1.698 4.375 1.719-1.495-.828-2.9-1.67-3.187-3.094-.073-1.762-1.337-2.926-2.813-3.281-1.553.321-2.835.253-3.812-1.437-.422-1.91-2.827-1.694-4.376-1.72m-54.47 3.875c-.945-.007-1.854.293-2.25 1.656-1.065 1.86-2.132 1.79-3.374 1.219-1.277.228-2.522 1.415-2.844 3.469-.445 1.635-1.733 2.436-3.094 3.218 1.296.17 3.274.712 3.906-1.469 1.066-1.86 2.102-1.789 3.344-1.218 1.277-.228 2.526-1.415 2.844-3.469.449-1.636 1.733-2.437 3.094-3.219-.486-.063-1.058-.183-1.625-.187m10.845 7.75c-1.036 1.766-2.1 3.411-3.876 3.5-2.185-.245-3.649 1.193-4.093 3.031.387 2.067.296 3.691-1.813 4.625-2.367.177-2.15 3.332-2.187 5.344 1.035-1.775 2.1-3.403 3.875-3.5 2.185.245 3.649-1.189 4.093-3.031-.387-2.067-.296-3.687 1.813-4.626 2.37-.177 2.15-3.34 2.188-5.343m33.5 3.062c1.752 1.543 3.355 3.085 3.343 5.063-.387 2.35.988 4.279 2.844 5.187 2.143.047 3.79.531 4.625 3.063.035 2.654 3.269 3.095 5.313 3.594-1.745-1.543-3.324-3.058-3.313-5.032.387-2.358-.988-4.283-2.844-5.187-2.143-.043-3.824-.527-4.656-3.063-.038-2.654-3.261-3.126-5.312-3.625m-7.344 13.875c.882 3.491 1.599 6.801.218 9.219-2.054 2.54-1.597 6.123-.156 8.938l-.468.093c2.357 2.004 4.101 4.066 3.28 7.938-1.786 3.288 1.498 6.773 3.438 9.25-.885-3.487-1.595-6.806-.219-9.219 2.052-2.54 1.594-6.127.157-8.937l.469-.094c-2.354-2.008-4.102-4.062-3.282-7.938 1.787-3.288-1.501-6.769-3.437-9.25m-26.281 2.25c-.2 3.593-.54 7.01-2.594 9.156-2.738 2.156-3.353 5.764-2.813 8.782h-.5c1.66 2.383 2.737 4.702.782 8.375-2.711 2.941-.616 6.973.5 9.75.199-3.593.538-7.014 2.593-9.156 2.738-2.16 3.353-5.76 2.813-8.782h.5c-1.66-2.383-2.737-4.694-.782-8.375 2.711-2.937.616-6.977-.5-9.75m41.28 6.313c.104 1.728.026 4.413 2 4.781 1.78 1.006 1.801 2.532 1.563 4.281l.25-.187c.441 1.631 1.57 3.106 3.375 3.094 1.476.245 2.42 1.72 3.344 3.343-.107-1.728-.06-4.41-2.031-4.781-1.783-1.002-1.808-2.504-1.563-4.25l-.219.188c-.437-1.632-1.573-3.103-3.374-3.094-1.477-.245-2.424-1.752-3.344-3.375m-28.218 8c-1.526 3.41-4.215 8.328-1.937 11.937 1.414 4.514.012 7.361-2 10.281l.5.032c-.982 3.702-.892 8.104 1.53 10.75 1.737 2.629 1.55 6.842 1.22 11.25 1.53-3.407 4.214-8.333 1.937-11.938-1.415-4.518.018-7.388 2.031-10.312h-.5c.978-3.703.892-8.136-1.531-10.781-1.74-2.633-1.576-6.811-1.25-11.22m27.125 14.5c.33 3.736.487 7.268-1.25 9.5-2.42 2.24-2.513 5.985-1.531 9.125l-.5.031c2.005 2.472 3.422 4.894 2 8.719-2.278 3.055.446 7.238 1.969 10.125-.326-3.732-.519-7.291 1.218-9.531 2.42-2.236 2.517-5.981 1.531-9.125h.5c-2.012-2.473-3.445-4.894-2.03-8.72 2.28-3.055-.381-7.238-1.907-10.124m-52.687 11.5c.325 3.596.514 7.009-1.22 9.156-2.422 2.16-2.547 5.79-1.562 8.813h-.468c2.008 2.387 3.418 4.72 2 8.406-2.278 2.945.411 6.969 1.937 9.75-.326-3.601-.487-7.001 1.25-9.156 2.42-2.156 2.517-5.783 1.531-8.813h.5c-2.013-2.384-3.446-4.72-2.031-8.406 2.281-2.946-.415-6.974-1.937-9.75m63.906 3.219c.241 4.763.378 9.249-.906 12.093-1.787 2.857-1.881 7.654-1.157 11.656h-.344c1.484 3.153 2.516 6.221 1.47 11.094-1.684 3.893.31 9.234 1.437 12.906-.246-4.754-.378-9.28.906-12.125 1.787-2.852 1.853-7.626 1.125-11.625l.375-.03c-1.488-3.154-2.547-6.222-1.5-11.095 1.683-3.892-.28-9.198-1.406-12.875M50.906 177.53c.33 5.22.518 10.158-1.218 13.281-2.423 3.132-2.548 8.364-1.563 12.75l-.469.032c2.01 3.461 3.423 6.84 2 12.187-2.273 4.273.412 10.125 1.938 14.156-.326-5.219-.518-10.189 1.218-13.312 2.423-3.132 2.54-8.363 1.563-12.75l.469-.031c-2.013-3.466-3.415-6.841-2-12.188 2.277-4.273-.412-10.093-1.938-14.125M19.875 197.25c-1.522 2.781-4.215 6.808-1.937 9.75 1.418 3.69.005 6.023-2 8.406h.468c-.985 3.03-.856 6.657 1.563 8.813 1.736 2.155 1.548 5.555 1.218 9.156 1.53-2.785 4.215-6.809 1.938-9.75-1.415-3.685-.009-5.987 2-8.375l-.469-.031c.982-3.022.86-6.622-1.562-8.781-1.737-2.152-1.541-5.587-1.219-9.188m60.625 7.344c-1.123 3.677-3.12 8.982-1.437 12.875 1.042 4.873.014 7.968-1.47 11.125h.344c-.72 3.998-.63 8.772 1.157 11.625 1.284 2.84 1.148 7.366.906 12.125 1.127-3.677 3.12-9.014 1.438-12.906-1.043-4.873-.015-7.941 1.468-11.094h-.344c.721-3.998.635-8.804-1.156-11.656-1.284-2.849-1.144-7.331-.906-12.094m-30.844 31.312c-1.53 2.781-4.215 6.804-1.937 9.75 1.414 3.686.009 6.019-2 8.406h.468c-.981 3.022-.86 6.653 1.563 8.813 1.74 2.147 1.548 5.56 1.219 9.156 1.526-2.78 4.215-6.808 1.937-9.75-1.414-3.69-.009-6.022 2-8.406h-.468c.981-3.026.891-6.653-1.532-8.812-1.736-2.152-1.58-5.56-1.25-9.157m-30.125 7.5c.33 3.601.522 7.037-1.218 9.188-2.423 2.16-2.544 5.755-1.563 8.781h-.469c2.01 2.384 3.419 4.725 2 8.406-2.273 2.95.416 6.97 1.938 9.75-.326-3.6-.518-7.009 1.218-9.156 2.427-2.16 2.54-5.786 1.563-8.812h.469c-2.013-2.388-3.415-4.721-2-8.407 2.28-2.95-.408-6.969-1.938-9.75m62.5 31.125c-1.53 2.781-4.218 6.836-1.937 9.781 1.414 3.682-.019 5.988-2.031 8.375l.5.032c-.982 3.026-.892 6.621 1.53 8.781 1.737 2.151 1.577 5.555 1.25 9.156 1.523-2.78 4.216-6.804 1.938-9.75-1.418-3.685-.009-5.991 2-8.375l-.5-.031c.986-3.03.892-6.622-1.531-8.781-1.74-2.151-1.548-5.587-1.219-9.188M50.72 286.312c-1.127 2.054-3.12 5.047-1.438 7.22 1.047 2.721.011 4.424-1.468 6.187h.343c-.728 2.236-.634 4.898 1.157 6.5 1.28 1.585 1.147 4.123.906 6.781 1.127-2.054 3.09-5.042 1.406-7.219-1.047-2.722.012-4.43 1.5-6.187h-.375c.725-2.236.662-4.903-1.125-6.5-1.284-1.59-1.152-4.123-.906-6.781m-32.344 4.282c-1.131 2.054-3.12 5.038-1.437 7.219 1.046 2.717-.017 4.425-1.5 6.187l.374.031c-.728 2.236-.665 4.903 1.126 6.5 1.28 1.59 1.151 4.092.906 6.75 1.13-2.054 3.12-5.01 1.437-7.187-1.046-2.718.013-4.46 1.5-6.219h-.375c.725-2.236.662-4.907-1.125-6.5-1.284-1.59-1.151-4.123-.906-6.781" style="fill:#ffe500;fill-opacity:1"/></svg>