<svg width="900" height="600" version="1.1" xmlns="http://www.w3.org/2000/svg" xmlns:xlink="http://www.w3.org/1999/xlink">
<g shape-rendering="crispEdges">
	<rect width="300" height="600" fill="#002654"/>
	<rect x="300" width="300" height="600" fill="#FFF"/>
	<rect x="600" width="300" height="600" fill="#CE1126"/>
</g>
<path id="left" d="M393.12 60.66a100 100 0 0 0 0 148.75A56.78 63 0 0 1 400 178.17a73 73 0 0 1 0-86.27 56.78 63 0 0 1-6.88-31.24Z" fill="#CE1126"/>
<use xlink:href="#left" x="-900" transform="scale(-1,1)"/>
<path d="M415.3 110.6a47 47 0 0 0 0 48.7 56.78 63 0 0 1 69.4 0 47 47 0 0 0 0-48.7 56.78 63 0 0 1-69.4 0Z" fill="#002654"/>
<path d="M393.12 60.66a100 100 0 0 0 0 148.75 56.78 63 0 1 1 113.66 0 100 100 0 0 0 0-148.75 56.78 63 0 1 1-113.66 0Z" stroke="#000" fill="none"/>
<path d="M462.45 89.98c.69-.36 1.03-.85 1.17-1.42V87.29c-.47-2-2.65-4.72-5.17-7.78-3.28-3.98-7.1-8.52-8.45-12.79-1.35 4.27-5.17 8.81-8.45 12.79-2.52 3.06-4.7 5.78-5.17 7.78v1.27c.14.57.48 1.06 1.17 1.42Z" stroke="#000" fill="#FFDD3A"/>
<rect x="436.41" y="105.16" width="27.21" height="297.66" stroke="#000" fill="#002654"/>
<path id="end" d="M464.3 93.23a8.7 8.1 0 0 0-.3 8.85H436a8.7 8.1 0 0 0-.3-8.85Zm-29.9-4.6a1.34 1.34 0 0 0-1.34 1.34v1.92a1.34 1.34 0 0 0 1.34 1.34h31.2a1.34 1.34 0 0 0 1.34-1.34V89.97a1.34 1.34 0 0 0-1.34-1.34Zm0 13.45a1.34 1.34 0 0 0-1.34 1.34v1.92a1.34 1.34 0 0 0 1.34 1.34h31.2a1.34 1.34 0 0 0 1.34-1.34v-1.92a1.34 1.34 0 0 0-1.34-1.34Z" fill="#FFDD3A" stroke="#000"/>
<use xlink:href="#end" y="312.68"/>
<path id="lr" d="M436.36 147.02V165.8l7.37 5.78-2.8-9.42 7.37-5.78h-9.17l-2.8-9.33Zm27.37-27.97v18.78l-7.38 5.79 2.81-9.42-7.38-5.76h9.17l2.8-9.36Z" fill="#FFDD3A" stroke-width="2.72"/>
<use xlink:href="#lr" y="53.15"/>
<use xlink:href="#lr" y="106.3"/>
<use xlink:href="#lr" y="159.47"/>
<use xlink:href="#lr" y="212.96"/>
<path id="star" d="M450 470.5l4.88 14.5 14.62.39-11.61 9.36 4.17 14.75L450 500.78l-12.05 8.72 4.17-14.75-11.62-9.36 14.63-.39Z" fill="#FFDD3A"/>
<g id="star3">
	<use xlink:href="#star" x="60" y="-60"/>
	<use xlink:href="#star" x="60" y="60"/>
	<use xlink:href="#star" x="110"/>
</g>
<use xlink:href="#star3" x="-900" transform="scale(-1,1)"/>
</svg>