<?xml version="1.0" encoding="UTF-8" standalone="no"?>
<!-- Created with Inkscape (http://www.inkscape.org/) -->

<svg
   xmlns:dc="http://purl.org/dc/elements/1.1/"
   xmlns:cc="http://creativecommons.org/ns#"
   xmlns:rdf="http://www.w3.org/1999/02/22-rdf-syntax-ns#"
   xmlns:svg="http://www.w3.org/2000/svg"
   xmlns="http://www.w3.org/2000/svg"
   xmlns:sodipodi="http://sodipodi.sourceforge.net/DTD/sodipodi-0.dtd"
   xmlns:inkscape="http://www.inkscape.org/namespaces/inkscape"
   version="1.0"
   width="600"
   height="397"
   id="St Patrick Northern Ireland Flag"
   inkscape:version="0.48.2 r9819"
   sodipodi:docname="Flag_of_the_Ulster_Nation2.svg"
   inkscape:export-filename="C:\Users\123\Desktop\Flag_of_the_Ulster_Nation2.png"
   inkscape:export-xdpi="90"
   inkscape:export-ydpi="90">
  <metadata
     id="metadata18">
    <rdf:RDF>
      <cc:Work
         rdf:about="">
        <dc:format>image/svg+xml</dc:format>
        <dc:type
           rdf:resource="http://purl.org/dc/dcmitype/StillImage" />
        <dc:title></dc:title>
      </cc:Work>
    </rdf:RDF>
  </metadata>
  <sodipodi:namedview
     pagecolor="#ffffff"
     bordercolor="#666666"
     borderopacity="1"
     objecttolerance="10"
     gridtolerance="10"
     guidetolerance="10"
     inkscape:pageopacity="0"
     inkscape:pageshadow="2"
     inkscape:window-width="1440"
     inkscape:window-height="838"
     id="namedview16"
     showgrid="true"
     inkscape:zoom="0.84069118"
     inkscape:cx="298.0847"
     inkscape:cy="173.79054"
     inkscape:window-x="-8"
     inkscape:window-y="-8"
     inkscape:window-maximized="1"
     inkscape:current-layer="St Patrick Northern Ireland Flag">
    <inkscape:grid
       type="xygrid"
       id="grid2994" />
  </sodipodi:namedview>
  <defs
     id="defs122">
    <inkscape:perspective
       sodipodi:type="inkscape:persp3d"
       inkscape:vp_x="0 : 198.5 : 1"
       inkscape:vp_y="0 : 1000 : 0"
       inkscape:vp_z="600 : 198.5 : 1"
       inkscape:persp3d-origin="300 : 132.33333 : 1"
       id="perspective20" />
  </defs>
  <rect
     width="600"
     height="397"
     x="0"
     y="0"
     style="fill:#00247d;fill-opacity:1"
     id="rect3" />
  <path
     d="m 358.97809,198.48464 391.02186,258.75807 0,39.0072 -58.85509,0 -391.1016,-258.74566 -391.078457,258.74566 -58.964793,0 0,-39.0196 391.08942,-258.74567 -391.08942,-258.730364 0,-39.004259 58.938594,0 391.104656,258.741903 391.04085,-258.741903 58.91584,0 0,38.989372 -391.02186,258.745251 z"
     style="fill:#ce1124;fill-opacity:1"
     id="red saltire"
     inkscape:connector-curvature="0" />
  <g
     transform="matrix(1.25,0,0,1.25,-75.00041,11.01025)"
     id="g3100">
    <path
       d="M 368.16659,189.356 322.654,189.23788 300,228.712 277.346,189.23788 231.83341,189.356 254.692,150 231.83341,110.644 277.346,110.76212 300,71.288002 322.654,110.76212 368.16659,110.644 345.308,150 l 22.85859,39.356 z"
       style="fill:#ffff00;fill-opacity:1;fill-rule:evenodd;stroke:none"
       id="path1352"
       inkscape:connector-curvature="0" />
    <g
       style="fill:#ce1124;fill-opacity:1"
       id="g2430">
      <path
         d="m 311.81243,168.74335 c 1.72991,-1.74673 4.51108,-3.68091 6.05572,-7.88478 1.44679,-3.93438 4.58395,-8.5427 7.73151,-11.59986 3.14548,-3.05756 7.36929,-6.47439 4.31332,-9.26205 -3.5306,-3.22023 -9.70706,4.04642 -11.41407,5.75504 -1.32397,1.32333 -3.19128,1.52244 -5.12936,2.50567 1.07833,-9.53176 -0.98257,-16.71344 -1.25319,-30.74148 -0.1145,-5.93644 -1.6175,-9.90268 -4.31333,-9.84645 -2.25866,0.0471 -3.24748,1.69863 -3.59929,3.94083 0,-3.23709 -0.0874,-8.48189 -3.86159,-8.48189 -4.58603,0 -4.83584,8.31132 -4.33414,13.04086 -0.17903,-2.87763 -0.16029,-8.72452 -4.11556,-8.72452 -4.1343,0 -4.49235,6.65413 -3.95319,12.58912 0.0562,0.62793 0.11866,2.12641 0.16862,3.98665 0,-3.23709 -0.61827,-8.30298 -3.76583,-8.30298 -2.87486,0 -3.23499,4.31633 -3.05388,8.09305 0.17902,3.77671 0.44548,12.78302 0,15.2868 -0.89931,5.03569 -0.45174,17.95575 -0.18111,21.76121 0.36013,5.03569 4.67346,6.83428 4.49443,10.25111 -0.17903,3.41725 0,9.442 0,12.13968 0,2.69769 2.28365,2.84306 7.01123,1.79839 7.72943,-1.70862 11.95324,1.70862 18.33579,-0.80933 -0.80979,-7.46346 1.04294,-12.79739 0.86392,-15.49507 z"
         style="fill:#ce1124;fill-opacity:1;stroke:#000000;stroke-width:0.26027444"
         id="path22"
         inkscape:connector-curvature="0" />
      <g
         transform="matrix(2.08172,0,0,2.082671,-2.727139,-2.728992)"
         style="fill:#ce1124;fill-opacity:1"
         id="g24">
        <path
           d="m 149.17,75.9996 c 0.768,-2.1746 1.738,-3.0288 2.674,-3.5031"
           style="fill:#ce1124;fill-opacity:1;stroke:#000000;stroke-width:0.125"
           id="path26"
           inkscape:connector-curvature="0" />
        <path
           d="m 150.379,83.5123 c 0.067,-0.4452 0.339,-0.7982 0.717,-1.1794"
           style="fill:#ce1124;fill-opacity:1;stroke:#000000;stroke-width:0.125"
           id="path28"
           inkscape:connector-curvature="0" />
        <path
           d="m 139.709,60.8592 c 0.053,1.9238 0.091,4.6274 0.091,5.512"
           style="fill:#ce1124;fill-opacity:1;stroke:#000000;stroke-width:0.125"
           id="path30"
           inkscape:connector-curvature="0" />
        <path
           d="m 147.441,54.9003 c -0.159,1.0099 -0.047,2.2703 0.088,3.3537 0.086,0.6909 0.206,1.9476 0.086,3.4974 -0.043,0.5612 0.389,2.5905 0.043,3.6268"
           style="fill:#ce1124;fill-opacity:1;stroke:#000000;stroke-width:0.125"
           id="path32"
           inkscape:connector-curvature="0" />
        <path
           d="m 143.504,57.0893 c 0.259,2.2451 0.01,6.4323 0.096,8.5911"
           style="fill:#ce1124;fill-opacity:1;stroke:#000000;stroke-width:0.125"
           id="path34"
           inkscape:connector-curvature="0" />
      </g>
    </g>
  </g>
</svg>
