<svg xmlns="http://www.w3.org/2000/svg" xmlns:xlink="http://www.w3.org/1999/xlink" viewBox="0 0 600 400">
<g id="a" transform="matrix(1.1881 0 0 1.0718-28.18-7.178)">
<path d="m143.1 39.3c-.2.6-.3 1.1-.4 1.6 0 .6 0 1 .2 1.4s.6.6 1 .8c.2.1.5.1.7.1 1.2 0 2.2-.1 3.1-.4s1.4-.7 1.8-1.4c.4-.1.7-.3 1.1-.4s.7-.2 1.1-.3c1-.2 1.9-.2 2.8-.1-1.6.2-3.5 1.1-5.6 2.4-.6.4-1.2.8-1.8 1.3s-1.3 1-1.9 1.6c-2.7 1.6-5 1.8-6.9.6-.4-.2-.7-.5-1.1-.9s-.7-.8-1-1.2l-.3-.4-.3.5c-.7 2-.8 3.8-.3 5.4.3 1 .9 1.9 1.6 2.6l-.1-.1c-1.1-.6-2.3-1.1-3.6-1.4s-2.8-.6-4.3-.7c-2.9-.2-5.4 1-7.5 3.4-.3.4-.6.7-.8 1.1-.8-.4-1.5-.9-2.2-1.4-.5-.4-1.1-.7-1.6-1s-1.1-.6-1.7-.9c-2.9-1.5-6-2.6-9.4-3.2-1.3-.4-2.1-.9-2.5-1.5s-.4-1.2.1-2c2-2.2 3.2-4 3.5-5.5.4-1.6-.2-2.7-1.7-3.5l-1.8-.5c-.5-1.2-1.2-2.1-2.2-2.5-1-.5-2.2-.5-3.7-.2l-.6.1.4.4c1 1.1 1.7 2 2 2.7.1.4.2.7.1 1-.1-.2-.2-.4-.3-.5l-.6-.9c-1.1-1.4-2.6-1.8-4.5-1.3-.5 0-.9-.1-1.2-.1-.4 0-.8-.1-1.2-.1-2 0-3.9.6-5.7 1.9l-.6.5.7.1c1.3.2 2.3.5 3 .9.5.2.8.5 1.1.8-.1.1-.3.1-.4.2-.8.4-1.4.9-1.7 1.6s-.3 1.5-.1 2.4c0 .2.1.4.2.6-1.2.2-2.1.7-2.7 1.6-1.4.3-2.6.8-3.5 1.5-.2.1-.3.2-.5.4-.8.7-1.4 1.5-1.9 2.6l-.2.6.6-.2c1.2-.4 2.3-.5 3.2-.4.8.1 1.5.4 2.1.9-.2.2-.4.5-.5.7-.3.5-.4.9-.3 1.4.1.4.3.8.7 1.2.3.3.7.6 1.2.8.3.1.6.2.9.3s.6.1.9.2c1.5.2 3 0 4.5-.7.5-.1.9-.1 1.3-.2.4 0 .8-.1 1.1-.1 1.6 0 2.6.2 2.8.8v.4c0 .2-.1.5-.2.6s-.2.2-.4.2h-.2c-.4.1-.7.2-1 .4-.6.3-1.1.7-1.3 1.3-.2.5-.3 1.2-.2 1.9.1.5.2.9.4 1.4-.1.4-.6.8-1.5 1.2-.2.1-.4.2-.6.2-.2.1-.5.2-.7.2l-.5.2.4.4c1.6 1.5 3.4 1.9 5.5 1.3.4-.1.8-.3 1.2-.5.3-.1.6-.3.9-.5.1.2.2.4.2.6.3.6.7 1 1.2 1.2s1 .2 1.7 0c.3-.1.6-.2.9-.4.2-.2.5-.4.7-.6s.4-.4.5-.6c.2-.3.4-.6.5-.9.1 0 .2 0 .2-.1.5-.1.8 0 1.1.2s.6.7.7 1.3c.1.4.2.7.2 1.2v.6c0 .2-.1.4-.1.6-.4 1-1.4 1.8-2.9 2.4l-.8.2.7.4c1.5.8 3.2 1.2 5 1.2 1.6-.1 3.4-.5 5.3-1.3v.2c-.1.2-.1.4-.3.6-.7 1-2.5 1.8-5.2 2.4l-.5.1.2.4c.2.4.5.7.7 1 .3.3.6.5.8.7 1.5 1 3.6.9 6.1-.4.2 0 .4-.1.6-.1h.5c2.3.1 6-.8 9.1-1.7-1.3 1.7-3.6 3.5-4.7 4.1-1.7 1.3-3.4 2.3-5.2 3l-1.8.9c-.6.3-1.2.6-1.8 1-2.9 1.8-5.6 3.9-8.1 6.3-1.1.9-2 1.4-2.7 1.4s-1.2-.3-1.7-1.1c-.7-2.8-1.5-4.7-2.6-5.7-1.1-1.1-2.5-1.2-4-.2l-1.4 1.3c-1.3-.2-2.5 0-3.4.6-1 .6-1.8 1.6-2.3 3.1l-.2.5.6-.1c1.5-.4 2.7-.5 3.5-.3.4.1.7.2.9.4h-.6c-.4 0-.7 0-1.1.1-1.8.3-3 1.3-3.7 3.1-.3.3-.6.6-.8.9-.3.3-.5.6-.8 1-1.1 1.5-1.7 3.4-1.6 5.5v.7l.5-.5c.9-1 1.8-1.7 2.5-2.1.5-.3.9-.5 1.3-.5 0 .1-.1.3-.1.5-.1.9 0 1.6.4 2.2s1.1 1 2 1.2c.2.1.4.1.6.1-.5 1.1-.6 2.1-.2 3.1-.6 1.3-.8 2.6-.8 3.7v.6c.1 1 .5 1.9 1.1 2.8l.4.5.2-.6c.4-1.2.9-2.2 1.6-2.9.6-.6 1.3-1.1 2-1.4.1.3.2.5.3.8.2.5.6.8 1 .9.4.2.9.2 1.4 0 .4-.1.9-.3 1.4-.6.3-.2.6-.4.8-.6l.7-.7c1.1-1.2 1.8-2.6 2-4.2l.6-1.2c.2-.4.4-.7.6-1 .9-1.4 1.7-2.1 2.3-2 .1.1.2.1.4.2s.4.3.4.4 0 .3-.1.5c0 .1-.1.1-.1.2-.1.4-.2.7-.3 1.1-.1.7 0 1.3.3 1.8s.8.8 1.5 1.1c.4.1.9.3 1.5.4.2.3.3.9.1 1.8 0 .2-.1.4-.1.6-.1.2-.1.5-.2.7l-.2.5.5-.1c2.2-.6 3.6-1.9 4.3-4 .1-.4.2-.8.3-1.3 0-.3.1-.7.1-1 .2 0 .5.1.7.1.7 0 1.2-.1 1.6-.4.5-.3.8-.8 1-1.4.1-.3.2-.6.2-1 0-.3-.1-.6-.1-.8-.1-.3-.1-.5-.2-.8s-.3-.6-.5-.8c0-.1.1-.2.1-.2.2-.4.5-.7.8-.8.4-.1.9-.1 1.5 0 .4.1.7.2 1.1.4.2.1.4.2.5.3s.3.2.4.4c.6.8.7 2 .3 3.7l-.3.7.8-.4c1.6-.9 2.9-2.1 3.9-3.7.9-1.4 1.5-3.2 2-5.1l.1.1c.1.1.2.3.3.5.4 1.1.1 2.9-1 5.5l-.2.4h.5c.4 0 .8-.1 1.2-.1.4-.1.8-.2 1.1-.4 1.8-.8 2.8-2.6 3.2-5.3.1-.2.2-.4.3-.5 1.2-2 2.1-3.9 2.9-5.8.1.4.3.8.5 1.2.4.9.8 1.9 1.3 2.8.5 1 1.2 2 1.9 2.9 3.1 4.1 7.6 7.8 13.7 11-10.5 2.5-18.7 6.1-23.9 9.7-1.1.7-2 1.4-2.8 2.1-.5.4-.9.8-1.3 1.2 0-.5-.2-1-.5-1.5-.1-.2-.2-.4-.3-.5-.1-.2-.3-.4-.4-.6-.3-.1-.5-.2-.6-.5-.1-.4-.2-1-.3-1.8v-1.6-.6l-.5.4c-1.9 1.4-3.3 2.9-4 4.5-.7 1.5-.8 3.2-.4 5-1.7 0-3-.6-4.1-2-.2-.3-.5-.6-.7-1l-.6-1.2-.3-.7-.3.8c-1.1 3.2-1.2 5.6-.4 7.4.8 1.6 2.5 2.7 4.9 3-2.1 2.6-2.2 5.9-.2 9.9l.5.9.1-1c.1-1 .8-1.8 2.1-2.3.3-.1.5-.2.8-.3.2-.1.4-.1.6-.2-.1 1.9.3 3.6 1.2 5.3 1 1.8 2.6 3.4 4.7 4.9 2.6 1.4 4.4 3 5.3 4.7.9 1.6.9 3.4.1 5.4-1.2 3.4-2.5 6.2-3.9 8.2-1.3 2-2.6 3.3-4 3.9-.1.1-.3.1-.4.1h-.5c-.9-.1-1.9-.8-3-2.1-.1-2.2-.7-3.6-1.5-4.4-.9-.8-2.2-.8-3.9 0h-.6c-1.4 0-2.6.3-3.4 1s-1.3 1.7-1.5 3.1v.6.6l.5-.3c.9-.5 1.5-.7 2-.7.3 0 .5.2.6.6-.7.6-1.1 1.2-1.1 1.8s.4 1.1 1.1 1.5c-.1.3-.2.6-.2.9-1.5.4-2.6.9-3.2 1.7-.7.9-.9 2-.6 3.3l.1.5.4-.3c.6-.4 1.1-.7 1.5-.9.5-.3 1-.4 1.4-.4.3 0 .6.1.7.4l.1.1c-.5 1.1-.4 1.8.3 2.1-.4.7-.6 1.4-.7 1.8-.1.3-.1.5-.1.7s.1.3.2.4c-.1.2-.2.3-.2.5-.1.2-.2.5-.3.8-.5 1.3-.5 2.5 0 3.5l.2.5.3-.5c.5-.7 1-1.3 1.5-1.8.3.4.6.7.8.9.4.4.7.6 1.1.9 1.9 1.2 4.2 1 6.7-.6.1-.1.2-.2.2-.4.1-.1.1-.2.2-.4.3-.5.6-1.2.7-1.8 2.5-.3 4.4-1.1 5.8-2.2.5-.4.8-.9 1.2-1.4.4 1 .8 1.7 1.3 2.1.6.5 1.3.6 2.1.3.1 0 .1 0 .2-.1.8-.2 1.3-.1 1.5.4s.1 1.5-.4 2.9l-.2.5.5-.1c1.4-.3 2.4-1.1 3.1-2.2s1.1-2.6 1.1-4.4c1.2-1.9 1.5-3.6 1.1-5.2-.4-1.4-1.5-2.7-3.3-3.7 1.9-1 3.4-2.6 4.5-4.6.2-.4.5-.9.6-1.4.1-.2.2-.5.2-.7.4.6.9 1.1 1.7 1.5.9.3 1.8.8 2.5 1.7.1.2.3.4.4.5.1.2.2.4.4.6l.2.3.3-.2c2.1-1.8 2.7-4.1 1.6-7-.2-.6-.5-1.1-.8-1.7-.3-.5-.6-1.1-.9-1.6.7-.4 1.4-.4 2.1-.1.8.4 1.7 1.2 2.6 2.5l.3.5.2-.6c.8-1.9.9-3.7.4-5.5-.5-1.6-1.5-3.3-3-4.9.1 0 .1 0 .2-.1.7-.2 1.3-.8 1.8-1.8.2-.3.6-.5 1-.5.5 0 1 0 1.7.3l.4.1v-.4-.4c.1-1.4-.3-2.4-1.2-3.2-.8-.7-2.1-1.1-3.8-1.2h-.7c-1.8.2-3.1.1-4-.3-.2-.1-.3-.1-.4-.2l-.3-.3c-1.3-1.6-2-3.3-2.2-5 0-.4-.1-.7-.1-1.1v-1c3.4-3.4 7.3-5.5 11.6-6.4 1.1-.2 2.2-.4 3.3-.4 1.1-.1 2.1-.1 3.2 0-.3 1.4-.7 3-1.2 4.6-.7 3.5-.9 6.5-.8 8.9s.6 4.3 1.5 5.7c0 1.3-.4 2.3-1.2 3-.8.8-2.2 1.3-3.9 1.5h-.4l.1.4c.1.9.4 1.6.7 2.2.4.9 1 1.5 1.8 1.8.7.3 1.6.4 2.6.1.6-.1 1.3-.4 2.1-.8.4 1.8.5 3.4.1 4.9-.3 1.5-1 2.9-2 4l-.4.5.6.1h.8c2.1.1 3.9-.5 5.1-1.6s2-2.8 2.4-5c.1.2.1.4.2.5.2.5.5.9.8 1.3 1.6 2 3.9 2.5 6.8 1.5l.6-.2-.5-.4c-.9-.7-1.6-1.4-1.9-2.1-.4-.7-.4-1.4-.2-2.2.1-.7.2-1.3.2-1.8.2.2.5.4.7.5.5.3.9.5 1.4.8 2.4 1.1 5 1.1 7.9.1.3-.2.6-.3.8-.3s.4 0 .6.1.3.2.4.5c.2.4.3.8.4 1.5-.6 4-1.4 7.2-2.4 9.6s-2.2 4.1-3.6 5c-.5.4-1.2.4-1.9.2-.8-.2-1.8-.7-2.9-1.5-.6-2.3-1.5-3.8-2.7-4.4s-2.6-.3-4.2.9c-.2 0-.4.1-.6.1-1.6.3-2.7.9-3.5 1.8-.7.9-1.1 2.1-1 3.6 0 .2 0 .4.1.6l.1.6.5-.4c.8-.7 1.5-1.1 2-1.2.4 0 .6.1.8.5-.4.4-.6.8-.8 1.2-.1.4-.1.7-.1.9.1.3.2.6.5.8.2.2.6.4 1 .6-.1.3-.1.7 0 1-1.6.7-2.6 1.5-3.2 2.6s-.5 2.3.1 3.7l.2.4.3-.4c1-1.1 1.9-1.7 2.5-1.9s1-.1 1.4.3c-.1.7-.1 1.2 0 1.5.1.4.4.5.8.6-.2.9-.4 1.6-.4 2.1 0 .4 0 .7.1.9.1.1.2.2.3.2-.1.2-.1.4-.2.6-.1.3-.1.6-.2.9-.2 1.5 0 2.8.8 3.8l.3.4.2-.5c.2-.4.3-.7.5-1s.4-.6.5-.8c.1-.1.2-.2.3-.4.4.3.8.6 1.2.8.5.3.9.5 1.4.7 2.4.9 4.8.2 7.2-2.1.1-.1.1-.3.2-.4s.1-.3.2-.4c.2-.7.4-1.4.4-2.1.7-.2 1.3-.5 1.9-.7.7-.3 1.3-.6 1.8-1 1.5-1 2.6-2.2 3.1-3.7.6 1 1.2 1.7 1.9 2 .7.4 1.5.3 2.4-.1.1 0 .1-.1.2-.1.9-.4 1.5-.4 1.8 0 .4.5.5 1.6.2 3.3l-.1.5.5-.2c2-.9 3.2-2.6 3.3-5v-1.5c0-.5-.1-1-.2-1.5.9-2.3.9-4.2.1-5.8-.8-1.5-2.3-2.6-4.7-3.4 1.4-3.2 2.4-6 3.1-8.5.5-2 .8-3.7.8-5.1 2.1 2.5 5 2.7 8.8.6l1-.6h-1.1c-1.4 0-2.3-.4-2.8-1s-.6-1.5-.2-2.8c0-1.6-.2-2.9-.6-3.9 1.6 0 3.2-.4 4.5-1 1.5-.7 2.9-1.9 4-3.4l.3-.6-.6.1c-1.1.1-1.9-.1-2.5-.5s-1-.9-1.2-1.6c-.5-1.3-1.4-2.1-2.7-2.4-1.2-.2-2.7-.1-4.5.5.1-.2.2-.3.2-.5.2-.4.4-.7.6-1 1.1-1.6 2.6-2.8 4.4-3.6l.5-.2-.4-.3c-.5-.4-1.1-.7-1.7-.9s-1.2-.4-1.8-.5c-3-.4-6.3 1.4-9.9 5.3-3.7 0-6.5-.5-8.2-1.5s-2.3-2.6-2.1-4.6c.8-3.6 1-6.6.5-9.2-.1-.6-.2-1.2-.4-1.7 4.8 3.7 13.4 6.1 21.1 2.4 15-9.2 9.4-31.8 3.3-42.5-.9-1.4-1.6-2.8-2.3-4.3-2.5-5.7-7.2-25.6 5.4-23 5.3 1.5 3.5 7.5 1.8 11.4 7.9-3.2 9-16.3 1.9-20-1.9-.8-3.7-1-5.8-1.1 2.3-4.7 4.7-10.2 1.3-14.7-4.1-4.7-14.1-6.2-17.7.6 2.5-.7 5 .5 7.2 1.5 4.2 3.8 2.5 7.7-.2 12.2l-.8-2c-1.3-2.5-4.3-2.5-6.8-2.2-4 .7-4.1 6-4 9.3 1.6-2.2 4.4-2.6 6.8-2.5 5.4-.9 3.9 6.5 2.9 9.5-2.8 8.8-1.1 16.8 3.5 24.2 4 7.6 8.7 17.1 7.4 26.2-.5 2.2-1.2 4-2.7 5.9-6 6.2-14.5 5.9-21.2-.5-.9-1.9-2.3-3.8-4-5.6-.4-.4-.8-.8-1.2-1.3l-1.3-1.3c-6.9-5.2-11.3-9.8-13.2-13.8-.4-.8-.7-1.5-.8-2.2-.1-.2-.1-.5-.1-.7.9 1.2 2 2 3.3 2.4l.5.1v-.5c-.1-1.8.2-3.5 1-5.3.1-.4.3-.7.5-1 .2-.4.4-.7.6-1 1.3-1.6 2.2-3.2 2.7-4.8.4-1.3.6-2.6.5-3.9.1.2.3.4.4.5.4.4.7.8 1.1 1.2s.8.8 1.3 1.2l.8.7-.3-1.1c-.2-.8 0-2.5.8-5.1.1-.5.3-1.1.5-1.6l.6-1.8c.7-2.7.8-5.7.1-8.8 0-.2-.1-.4-.1-.6.3.4.6.7.9.9 1 .8 2.1.9 3.3.6l.5-.1-.3-.4c-.4-.5-.5-1.5-.4-3.1 0-.3.1-.7.1-1.1s.1-.8.1-1.2c.6-2.9.5-5.3-.3-7.4l-.6-1.2c-.2-.4-.5-.7-.7-1.1-1.1-.7-2-1.6-2.7-2.6-.1-.1-.1-.2-.2-.3.8.4 1.5.7 2.3.7 1.1.1 2.2-.1 3.4-.7l.5-.3-.5-.3c-1.8-1.1-3.1-2.5-3.8-4.2-.1-.4-.3-.7-.4-1.1s-.2-.7-.2-1.1c0-2.4-.6-4.1-1.8-5.1-.2-.2-.5-.4-.8-.5-.1-.1-.2-.1-.3-.2.6-.4 1.1-.9 1.6-1.5.4-.5.7-.9 1.1-1.5s.7-1.2 1.1-1.9l.3-.5-.6.1c-.9.1-2 0-3.2-.4-.2-.1-.5-.1-.7-.2s-.5-.2-.7-.3-.5-.1-.7-.2c-1.1-.2-3.3-.7-5.5.4-.7-1.8-4.6-2.6-7.3-2.8-6-.6-12.4 1.9-13.1 4.7-.4.1-.8.2-1.2.4-.4.1-.8.3-1.2.4-1.9.7-3.2 1.6-4 2.7-.5.3-.9.5-1.4.7s-.9.2-1.4.2h-.1l-.1.1c-.1.1-.2.2-.4.3l-.3.3c-.5.5-.7 1-.7 1.5v.6c0 .5.1.8.3 1.1.2.2.5.4.8.4-.4 1.8-.4 3.1 0 3.9.9 1.8 7.1 1.2 9.8-.6 2.2 0 4.3 2.6 1.5 1.9-3-.8-8.2 1.6-8.2 1.6-3.9 1.4-6.8 2-9 2.1-2.4 0-3.7-.8-4-2.4-.1-.3-.1-.6-.2-.8 0-.3-.1-.5-.1-.8 0-1.3.3-2.5 1-3.6v-.1c.3-.8.3-1.4 0-1.8-.2-.5-.8-.6-1.5-.6-.4 0-.7.1-1.1.2s-.7.3-1 .5c-1.5 1.1-2.5 3.3-2.8 6.6v1.5c.1 1.9.8 3.3 1.9 4.2s2.6 1.4 4.6 1.3c.5 0 1.1-.1 1.7-.1.8-.2 1.5-.4 2.3-.5s1.5-.4 2.2-.6c3-.8 5.7-1.6 8.1-2.5 1.8-.4 3.8-1.5 5.9-.5 3 1.3-1.2-.1-3.2 1.1-1.4.5-3.8 1.5-4.5 3.3" style="fill:#432918"/>
<path d="m87.4 53.7c-.3-.1-.6-.2-.9-.3-.5-.2-.8-.5-1.1-.7-.3-.3-.5-.6-.5-.9s0-.6.2-.9c.1-.2.4-.5.6-.8.7-.5 1.3-1.1 1.6-1.6s.4-.9.4-1.3-.1-.9-.4-1.3c-.3-.5-.8-.9-1.5-1.3.6-.8 1.4-1.2 2.5-1.3 1.3-.1 2.8.3 4.7 1.2.7.6 4.7 3.8 7.4 3.6-.4-.1-.7-.3-1.1-.5s-.7-.3-1.1-.5c-1.8-.9-3.4-2-4.8-3.2-1.9-.8-3.5-1.3-4.8-1.2-.1-.3-.2-.5-.2-.8-.2-.8-.2-1.4 0-2 .2-.5.7-.9 1.4-1.3.1-.1.2-.1.4-.2v.4c0 .2-.1.4-.2.6l-.1.3.4.2h.4c1.2-.1 2.1-.6 2.7-1.4s.9-1.9.9-3.3v-.5c1.5-.4 2.7 0 3.6 1.2.2.2.4.5.5.8s.3.6.4.9c-.6 1.6-.8 3-.5 4.3.2.9.8 2.7 2.8 2.9-1.2-.9-2-1.9-2.2-3.1-.3-1.1-.1-2.3.4-3.8 1.2.1 2.1 0 2.7-.4s1-.8 1.1-1.5l1.6.4c1.2.6 1.7 1.6 1.4 2.8-.3 1.4-1.4 3.1-3.4 5.2-.6 1-.6 1.9-.1 2.7.5.7 1.4 1.3 2.9 1.8 3.3.6 6.3 1.7 9.2 3.1.6.3 1.1.6 1.6.9.6.3 1.1.7 1.6 1 .7.5 1.4.9 2.2 1.4-.5.7-.9 1.5-1.4 2.3 2.3-.3 5.4-.4 7.2 0 .4.1.8.3 1.3.4.2.1.4.3.4.5-1.5 1.8-1.1 4.5-4.9 6.5-2.1 1.1-5.1 1.2-8 1 4 6.9 10.9 5.1 13.8 2.2-.4.6-.7 1.3-.9 1.9-.1.2-.2.5-.4.8-.3.1-.6.3-.9.4-3.8.4-5.3 1.6-8.7 1.4h-.6c-.2 0-.5 0-.7.1-2.1.3-3.4 1.9-5.6.5-.3-.2-.5-.4-.7-.6-.1-.1-.3-.3-.4-.5 2.6-.6 4.3-1.5 5.1-2.5.2-.2.3-.5.4-.7s.1-.5.1-.8v-.2l-.4.2c-2 .9-3.8 1.4-5.5 1.5-1.5.1-2.8-.2-4.1-.8 1.4-.7 2.3-1.5 2.7-2.5.1-.2.1-.5.2-.7v-.8c-.1-.5-.1-.9-.2-1.3-.2-.7-.5-1.3-.9-1.6-.5-.4-1-.5-1.6-.4.1-.9 0-1.6-1-2 .5 1.2.5 2.3-.2 3.2-.1.2-.3.4-.5.6s-.4.4-.6.5c-.3.1-.6.3-.8.4-.5.1-.9.1-1.2 0-.4-.1-.6-.5-.8-.9-.1-.2-.2-.5-.3-.8.1-.7.1-1.3 0-1.8-.1-.4-.3-.6-.5-.8s-.6-.3-.9-.4c-.8-.1-1.8.1-3.1.6-.2-.4-.3-.8-.3-1.2-.1-.6-.1-1.1.1-1.5s.5-.7 1-.9c.2-.1.5-.2.8-.3h.3c.4-.1.6-.2.8-.5.2-.2.3-.6.3-.9v-.5-.1c-.4-.9-1.6-1.3-3.5-1.3-.4 0-.7 0-1.2.1-.4 0-.9.1-1.3.2-1.5.7-2.8.9-4.3.7-.3-.1-.6-.2-.8-.3m38.1 3.2c.6.1 1.1.3 1.6.5s.9.4 1.3.6c.6-.7 2.9-3.1 5.6-2.3-2.1.2-3.9 1.2-5.5 3.2-.3.4-.6.8-.9 1.3s-.6.9-.8 1.5c-.8 2-2.2 3.4-4.2 4.3-1.8.8-4.1 1.1-6.9.9l.1.1c1.8 2.2 3.9 3.4 6.1 3.5s4.7-.9 7.3-2.8c.4-.4.8-.7 1.2-1-.5 1.3-1.6 2.2-2.1 3.2-.4 1-.5 2.1-.2 3.3.8 2.5.8 5.1 0 7.8-.1.5-.4 1.1-.6 1.6-.1.4-.3.7-.5 1.2 2.5-.3 4.8-1.6 6.7-3.9.4-.5.8-1 1.2-1.6s.8-1.2 1.2-1.9l1-1.8-.4 2c-.7 3.4-.6 6.1.3 8.3l.1.2c.3.6.6 1.2 1 1.7 1.7 2.2 4.6 3.6 8.7 4.1-1.8-1.6-2.7-3.5-2.5-5.5 0-.5.1-.9.3-1.4.1-.5.4-.9.6-1.4 1.2-1.3 2.2-2.8 3-4.8.2-.4.3-.8.5-1.2.1-.4.3-.8.5-1.3l.6-1.7v1.8c.2 6 1.8 10.1 4.9 12.2.6.4 1.3.8 2 1 .5.2 1.1.4 1.7.5-.5-1.3-.6-2.7-.2-4.2.1-.4.2-.7.3-1 .1-.4.3-.7.5-1.1 1.5-1.9 2.5-3.9 3.2-6.1.1-.4.2-.8.3-1.3.1-.4.2-.9.2-1.3l.4-2.7.2 2.6c.5 4.6 2 7.4 4.6 8.3 0-1.7.3-3.4 1.1-5 .2-.4.4-.7.5-1.1.2-.4.4-.7.6-1.1 1.2-1.5 2.1-3.1 2.6-4.6s.6-3.1.4-4.7c-.5-.8-2.3-3.5-1.3-5 .3 2.1 1.3 4.1 3 6.1.4.4.7.8 1.1 1.2l.6.6c0-1.1.3-2.6.9-4.6.2-.5.4-1.1.5-1.6l.6-1.8c.7-2.6.7-5.5.1-8.5-.2-.9-.8-2.5-.5-3.9.6 1.7 1.4 2.9 2.2 3.5.7.5 1.5.7 2.3.6-.3-.6-.4-1.7-.3-3.1 0-.4.1-.7.1-1.1s.1-.8.2-1.2c.6-2.7.5-5.1-.3-7-.1-.4-.3-.7-.5-1.1-.2-.3-.4-.7-.7-.9-1.2-.7-2.1-1.7-2.8-2.8-.1-.2-.3-.5-.4-.7s-.2-.5-.4-.7l-.4-1.1.9.7c1 .7 2 1.1 3 1.2.8.1 1.6-.1 2.5-.4-1.6-1.1-2.8-2.5-3.6-4.2-.2-.4-.3-.7-.4-1.1l-.3-1.2c0-2.2-.6-3.8-1.6-4.7-.2-.2-.4-.4-.7-.5-.2-.1-.5-.2-.7-.3-1.3.7-2.7.8-4.2.4l-.3.3c-.5.5-.7 1-.7 1.5s.3 1.2.8 1.9c.2.4.6.7.9 1.1 1.4 1.1 2.1 2.4 2.2 4.2.1 1.7-.3 3.8-1.4 6.1l-.5 1.1-.1-1.2c-.2-1.8-.9-3-2-3.8-.2-.1-.5-.3-.7-.4-.1 0-.2-.1-.3-.1 1.2 4.1.9 7.2-.7 9.4-.4.5-.7.9-1.2 1.3s-1 .7-1.5 1l-.8.4.4-.8c.3-.7.5-1.4.6-1.9s.1-.8 0-1.2c-.1-.3-.3-.5-.6-.6-.1 0-.1 0-.2-.1-.2.5-.5.9-.8 1.3-.2.2-.5.5-.8.7s-.6.4-1 .6c-1.3.7-2.2 1.7-2.6 2.9-.1.2-.1.5-.2.8 0 .3-.1.6-.1.8v.1l-.5-.2c-1.5-.7-2-2.2-1.6-4.3.1-.4.2-.8.3-1.3.1-.2.1-.5.2-.8-.3.1-.6.1-.9.1-.6 0-1.4-.1-2.2-.4-2-.4-4.4.4-7.3 2.3-.6.4-1.2.8-1.8 1.3s-1.3 1-1.9 1.6c-2.9 1.8-5.5 2-7.6.6-.4-.3-.8-.6-1.2-1-.2-.2-.5-.5-.7-.8-.5 1.6-.5 3.1-.1 4.3.5 1.4 1.4 2.6 3 3.5.6.2 1.1.3 1.5.4 2.6.5 4.1.1 5.4-2.2.2 1 0 1.6-.4 2.4-.2.5-.5.9-.8 1.3-1.5 2-4 3.6-7.4 4.7.5.3 1.1.5 1.6.7.7.3 1.5.5 2.3.6 4 .6 8.6-1.1 13.5-4.9-.8 1.8-1.7 2.6-2.3 3.3-1.8 2.1-2.9 4-3.5 5.9.2-.1.4-.2.6-.4.4-.2.8-.5 1.3-.7 2.1-1.1 4.1-1.3 5.9-.7 1.9.3 3.3 0 4.5-.9s2-2.4 2.5-4.5c.7 1.9-1.3 4.3-2.1 4.9-1.3 1-3 1.3-5 1-1.6-.5-3.4-.3-5.4.7-.4.2-.8.4-1.2.7-.4.2-.8.5-1.2.8l-.7.5.2-.8c.5-2.2 1.8-4.6 3.9-7 .1-.2.3-.3.4-.5-4 2.6-7.8 3.6-11.2 3.1-.8-.1-1.6-.3-2.4-.6s-1.6-.7-2.3-1.1l-.6-.4.7-.2c3.7-1.1 6.3-2.7 7.8-4.7l.6-.9c-1 .6-2.5.8-4.4.5-.6-.1-1.1-.2-1.8-.4s-1.3-.4-2-.7c-1.1-.6-2.2-1-3.5-1.4s-2.7-.6-4.2-.7c-2.7-.1-5 .9-6.9 3.2-.4.5-.8.9-1.1 1.5-.2.4-.5.8-.8 1.3 2.4-.2 4.3-.2 5.9.2m-11.6 42.2c.3.1.6.1.9.1.5 0 .9-.1 1.2-.3s.6-.6.7-1.1c.1-.2.1-.5.2-.8 0-.3-.1-.5-.1-.7s-.1-.5-.2-.6c-.5-1-1.3-1.6-2.7-1.7.8-.6 1.6-.4 2.2.1.3-.6.7-1 1.2-1.2s1.2-.2 1.9 0c.4.1.8.2 1.2.4.2.1.5.2.6.4.2.1.4.3.5.5.6.8.8 2 .6 3.5 1.2-.8 2.2-1.9 3.1-3.1.9-1.5 1.6-3.3 2-5.4l.1-.5.4.2c.2.1.5.3.6.5.2.2.3.4.4.7.5 1.2.2 3-.8 5.6.2 0 .5-.1.7-.1.4-.1.7-.2.9-.3 1.5-.7 2.5-2.3 2.8-4.9l.3-.6c.1-.2.2-.4.4-.5 1.6-2.1 1.9-3.7 2.8-5.9-.5-2-.2-3.8 0-5.6-1.4 2-2.4 3.4-3.9 4.4-1.9 1.4-4.1 2.1-5.8 2.2.5-1.6 1.6-4.5 1.8-6.3.4-2-.2-3.9-.5-5.9-1.1 1.5-2.9 2.7-4.2 3.8-2 1.6-4.1 2.9-6.3 3.8l-1.8.9c-.6.3-1.2.6-1.7.9-2.9 1.7-5.6 3.8-8 6.3-1.2 1-2.2 1.5-3.2 1.6-.9 0-1.7-.4-2.2-1.4-.7-2.7-1.5-4.5-2.5-5.4-.9-.8-2-.9-3.2-.2l-1.2 1.2c.5.5.7 1 .7 1.7-.1.7-.5 1.5-1.3 2.5.9 1.1 1.9 1.9 3 2.2 1.2.3 2.5.2 3.9-.4-1.3 1.6-3.2 1.3-4.1 1-1.3-.4-2.4-1.2-3.4-2.5-.4 0-.7-.1-1-.1-.4 0-.7 0-1 .1-1.5.2-2.5 1.1-3.1 2.5.1.1.3.1.4.2 1.2.7 2 1.5 2.3 2.4.4.9.2 1.9-.4 3-.1.1-.1.2-.2.4l-.4.2-.2-.2c-.1-.2-.2-.4-.4-.5-.1-.1-.2-.2-.3-.2 0 .1-.1.3-.1.4-.1.7 0 1.3.3 1.8s.9.8 1.6 1c.2.1.5.1.8.2.7-1.1 2-2.3 3.9-3.5 1.9-.6 3.7-1.4 5.5-2.5.4-.2.7-.4 1.1-.7.4-.2.7-.5 1.1-.7-1.4 2.4-6.4 4.2-7.4 4.5-1.8 1.2-3 2.3-3.7 3.4-.6.9-.7 1.9-.4 2.7.8-.4 1.4-.6 2-.6.5 0 1 0 1.3.2.4.2.7.5.9 1s.4 1.3.4 2.1c.1.4.2.6.3.9.2.3.4.6.7.7s.6.1 1.1 0c.4-.1.8-.3 1.2-.5.2-.2.5-.4.7-.6s.5-.4.6-.6c1-1.1 1.6-2.4 1.8-3.9.2-.5.4-.8.6-1.2s.4-.7.6-1.1c1.1-1.7 2.1-2.5 3-2.3h.1c.2.1.3.2.5.2.3.2.5.5.6.7.1.3.1.6-.1.9 0 .1-.1.2-.1.2-.1.3-.2.6-.2.9-.1.5 0 1 .2 1.3.2.4.6.6 1.2.8.3.1.7.2 1.2.3.4-1.4.8-2.3 1.3-2.9.3-.3.6-.5.8-.6.3-.1.6-.1 1-.1.9-.1 1.4.2 1.9.7m27.2-73.6c-.2 0-.3 0-.5.1-.4 1.7-.4 2.9 0 3.6.3.5.8.7 1.5.7-.4-.4-.6-.8-.7-1.4-.2-.8-.1-1.8.2-3.1-.2.1-.3.1-.5.1m-1.6-1.4v-.6c0-.3.1-.6.5-1 .1-.1.2-.2.3-.2.1-.1.2-.1.2-.2.5 0 1-.1 1.5-.3s1.1-.4 1.6-.8h.1v-.1c.7-1 1.9-1.8 3.7-2.5.4-.1.7-.3 1.1-.4s.8-.2 1.3-.4l.1-.1c3.8-6.9 19.8-4.3 19.5-2.1-.4.5-1.5 2-1.7 2.8.2-.4.5-.8.8-1.1l.9-.9c1.7-1.3 3.9-1.5 6.6-.7.2.1.5.2.7.3s.5.2.7.2c1 .3 2 .5 2.9.4-.2.5-.5.9-.8 1.3-.4.5-.7 1-1.1 1.4-1.8 2.1-3.8 2.8-6 2.1l-.3.1c-.2.1-.4.3-.5.5-.6.6-.9 1.3-.8 2 0 .7.3 1.4.9 2.2.3.4.6.7 1 1.1 1.2.9 1.9 2.2 2 3.8.1 1.4-.2 3-.9 4.8-.4-1.4-1.1-2.5-2.1-3.2-.2-.2-.5-.3-.8-.5-.3-.1-.6-.2-.9-.4l-.6-.2.2.6c1.3 4.2 1.2 7.3-.5 9.5-.3.4-.7.8-1.1 1.1-.2.2-.4.3-.7.5.2-.5.3-.8.4-1.2.1-.6.1-1.1-.1-1.5s-.5-.7-.9-.9c-.1 0-.2-.1-.3-.1.2-.9.2-2.3-.7-3.3.5 2.1.3 3.7-.7 4.8-.2.2-.4.4-.7.6s-.6.4-.9.5c-1.5.8-2.5 1.9-2.9 3.4-.1.3-.1.6-.2.9v.4c-.9-.7-1.2-1.8-.9-3.4l.3-1.2c.1-.4.3-.8.5-1.3h.1c.9-.6 2-2.8 1-4.6 0 1.2-.2 2.1-.5 2.8-.2.6-.5 1-.9 1.3s-.8.4-1.4.5c-.6 0-1.2-.1-2-.4-1.5-.8-3.3-.9-5.2-.6l-1.2.3c-.4.1-.8.2-1.2.4h-.1-.1l-.1.1c-.3.5-.8.9-1.4 1.2-.7.3-1.7.4-2.8.4-.2 0-.4 0-.6-.1-.3-.1-.5-.2-.7-.5-.1-.2-.2-.6-.2-1s.1-.9.3-1.4c.4-.9 1.1-1.6 2-2.1.2-.1.4-.2.6-.2.2-.1.5-.1.7-.2h.1.1c.8-.6 1.9-1 3.1-1.1 1.3-.1 2.8 0 4.5.5h.1.1c.3-.1.6-.2.8-.3.6-.3 1-.7 1.2-1.3.2-.5.2-1.2.1-1.9-.1-.6-.4-1.2-.7-2-1.5-2.1-3.1-3.1-4.7-2.9-.3 0-.6.1-.9.2s-.6.3-.9.5c-1.6.9-3.2 1.4-4.8 1.5h-.9c-.3 0-.6-.1-.9-.1-.6-.2-1-.7-1.1-1.4-.1-.8-.1-1.8.2-3.1.7-.2 1-.5.8-1.2-.1.3-.6.6-1.4.7-.2 0-.4.1-.6.1s-.4.1-.7.1h-.2c-.2 0-.4-.1-.5-.2.3-.2.2-.4.2-.7m30.8-3.6c-.8-.6-.9-1.2-.2-1.8.1-.2.3-.3.4-.5.1-.1.3-.2.5-.3.8-.5 1.9-.5 3.2 0 .2.1.4.1.5.2.6.2 2.1.5 2.2-.5-.3.2-.8.1-1.5 0-.1 0-.3-.1-.5-.1-.1-.1-.3-.1-.5-.2-1.5-.6-2.7-.6-3.7 0-.2.1-.4.2-.6.4-.2.1-.4.3-.5.5-1 1.1-.5 2.7.7 2.3m-17.2 5.8c.7.3 1.3.6 1.9.9s1.1.6 1.5.9c2.3 1.6 3.2 3.5 2.7 5.7-.2.8-.4 1.5-.8 2s-.8.9-1.4 1.2c1.6.3 2.6-2.1 2.8-3.2 1-3.8-2.8-6.8-6.7-7.5m-6.6-3.3c.4-.1.7-.1 1-.1s.6 0 .9.1c1.3.2 2.2 1.2 2.5 2.9 1.5-.8-1.8-4.9-4.4-2.9m11.4 85.5c1.3 1.3 1.5 2.6.4 4-.7.8-1.1 1.7-1.2 2.5s-.1 1.6.3 2.2.9 1.2 1.8 1.5c.9.4 2.1.5 3.5.4.7-4.9.1-8.7-1.6-11.6-.5-.8-1.1-1.5-1.8-2.2s-1.4-1.2-2.3-1.7l-2.4-1.2c-.3.4-.4.9-.1 1.5.2.7.8 1.6 1.8 2.7.4.7 1 1.3 1.6 1.9m-1.7 31.9c-.6-.2-1.1-.2-1.6-.2-.6.1-1.1.3-1.5.7-.5.8-.9 1.3-1.5 1.5-.5.2-1.1.1-1.7-.3-.1.6.3.9.8 1 1.7 1.7 2.7 3.4 3.2 5 .4 1.5.4 3-.1 4.6-.8-1.1-1.6-1.9-2.5-2.2-1-.4-2-.3-2.9.4l-.3.2.2.2c.4.6.8 1.2 1.1 1.8s.5 1.1.7 1.6c.9 2.5.5 4.5-1.2 6.1-.1-.1-.1-.2-.2-.3-.1-.2-.3-.4-.4-.6-.8-.9-1.7-1.5-2.7-1.9-.9-.5-1.5-1.1-1.7-1.9s0-1.7.5-2.8c-1 .4-1.3 2-1.2 2.8-.1.5-.3.9-.5 1.4s-.4.9-.6 1.3c-1.1 2.1-2.7 3.6-4.7 4.6l.1.3-.2.3c1.9 1 3.1 2.2 3.5 3.6.4 1.2.1 2.6-.7 4.2-.4-.7-1.1-1-2.1-1.1h-.8c-.3 0-.6.1-.9.1h-.1-.1c-1 .7-1.6 1.6-1.9 2.8 0 .2-.1.5-.1.7v.6c-.6.2-1.1.1-1.5-.2-.5-.4-.8-1-1.2-1.9 0-.2-.1-.3-.1-.5.4-.9.6-1.4 0-2.9-.1 2-.7 3.5-2 4.7-1.3 1.1-3.2 1.8-5.6 2.1h-.2v.2c-.1.7-.4 1.3-.7 1.9-.1.1-.1.2-.2.3s-.1.2-.2.2c-2.3 1.5-4.3 1.6-6 .6-.4-.2-.7-.5-1-.8-.2-.2-.5-.5-.7-.8h.1c.6-.4 1.3-.4 1.9-.2l.3.1.1-.2c.9-1.4 1.4-2.6 1.6-3.5.1-.4 0-.8-.1-1.1s-.3-.6-.6-.8-.6-.3-1-.3c-1.1-.4-2.1 0-3.1 1.3-.2.2-.4.5-.5.8-.1.2-.2.3-.3.5v-.2c.1-.5.4-1.1.8-2v-.1-.1c.2-1.1.7-1.9 1.4-2.3.7-.5 1.6-.6 2.7-.4h.1c.2 0 .5.1.7.1s.4.1.6.2c.9.4 1.6.9 1.9 1.7.6-.8-.7-1.4.1-1.6.4-.1.7-.2 1.1-.3.8-.3 3.7-1.1 3.6-3.7-.9 1.5-2.1 2.6-3.8 3.1-.3.1-.7.2-1 .3s-.7.1-1 .2l-.6-.3c-.2-.1-.5-.1-.7-.2s-.5-.1-.8-.1h-.1c-1.3-.2-2.3 0-3.2.5-.8.5-1.3 1.4-1.6 2.5-.2-.2-.2-.6.1-1.3.7-.8 1.2-1.5 1.4-2.1.1-.4.1-.7.1-1-.1-.3-.2-.6-.5-.8-.3-.3-.7-.5-1.3-.7.1-1.1.7-1.8 1.5-2.1.2-.1.4-.1.6-.2.2 0 .5-.1.8-.1h.1c.9 0 1.6.1 2.1.4s.8.8.9 1.4v.1c1.1 1.6 3.6 1.2 5-.7-.3.2-.6.4-.9.5s-.6.2-.8.4c-1.2.4-2.1.2-2.6-.5-.2-.8-.6-1.4-1.2-1.8s-1.4-.6-2.5-.5c-.3 0-.6 0-.8.1-.3 0-.5.1-.8.2-.7.2-1.2.6-1.5 1.2-.5-.3-.7-.6-.7-.9 0-.4.3-.8.9-1.3.8-.2 1.4-.5 1.9-.8.5-.4.8-.7 1-1.2s.2-.9.1-1.5c-.1-.4-.3-.8-.6-1.3 1.3-.6 2.3-.5 3 0 .8.6 1.2 2 1.3 4.1v.1l.1.1c1.3 1.4 2.5 2.2 3.5 2.4h.6c.2 0 .4-.1.6-.1 1.5-.7 2.9-2 4.3-4.1s2.7-4.8 3.9-8.3c.9-2.1.8-4.1-.2-5.9-.9-1.8-2.8-3.4-5.5-4.9-2.1-1.4-3.6-3-4.6-4.7-.9-1.7-1.3-3.4-1.1-5.4v-.4l-.4.1c-.4.1-.7.2-1.1.3-.3.1-.6.2-.9.4-1.1.5-1.9 1.2-2.2 2-1.6-3.6-1.3-6.5.8-8.8l.5-.5-.6-.1c-2.6-.2-4.3-1.2-5-2.7s-.7-3.5.1-6.1l.3.6c.2.4.5.7.7 1.1 1.3 1.7 3 2.4 5.1 2.2h.4l-.1-.4c-.5-1.8-.4-3.5.3-5 .6-1.4 1.7-2.7 3.3-3.9v1.1c0 .9.1 1.5.3 2 .2.7.7.7 1.1 1.2.1.2.2.3.3.5.4.8.5 1.5.2 2.1l-.4.9.9-.6c.5-.6 1.2-1.3 2-2s1.7-1.4 2.7-2.1c5.2-3.5 13.3-7.1 23.8-9.6-.2.5-.2 1 0 1.6.3.8.9 1.8 1.9 2.9.5.6 1.1 1.2 1.8 1.8 1.1 1.1 1.2 2.1.4 3.1-.7.9-1.2 1.9-1.4 2.8s-.1 1.9.4 2.6 1.1 1.4 2.1 1.8c.9.4 2.2.6 3.7.5-.1.4-.1.7-.2 1.1-1.1-.1-2.2-.1-3.3 0-1.2.1-2.3.2-3.4.5-1.8.4-11 3-14.3 10.2.7-.9 1.4-1.7 2.1-2.5v.4c0 .4 0 .7.1 1.1.2 1.9 1.1 3.6 2.3 5.3l.4.4c.2.1.4.2.5.3 1 .5 2.4.6 4.3.3h.6c1.5.1 2.7.4 3.4 1 .9.5 1.2 1.3 1.2 2.4m-14.4 10c0 .7-.1 1.2-.2 1.8s-.2 1.1-.4 1.7c-.9 2.8-2.9 5.4-5.9 7.6 2.5.3 8.2-7.8 6.5-11.1m73.9-92.7c1.6-4.2 2.2-9.1-2.8-10.8-14.6-2.3-8.4 20.2-4.6 26.9 6.9 12 12.6 33.1-2.2 43-6.9 3.4-16.6 1.1-21.4-3.1-.4-.8-1.3-2.3-2.8-2.7 1.6 1.4 2.6 3.4 3.1 5.8.4 2.5.2 5.4-.5 8.9-.3 2.3.5 4.1 2.3 5.3 1.8 1.1 4.7 1.6 8.6 1.6h.1l.1-.1c3.4-3.8 6.6-5.5 9.4-5.2.5.1 1.1.2 1.6.4.4.2.7.4 1.1.6-1.7.8-3.1 2.1-4.2 3.6-.2.3-.5.7-.6 1.1l-.6 1.2-.3.6.7-.2c2-.7 3.6-.9 4.8-.7s1.9.9 2.3 2c.2.9.7 1.6 1.5 2 .6.3 1.3.5 2.2.5-1 1.2-2.1 2.1-3.4 2.7-1.4.7-2.9 1-4.6 1-.5-.7-1.7-1.5-2.6-.9 1 .1 1.8.7 2.2 1.5.5.9.7 2.2.7 3.9-.4 1.4-.2 2.5.4 3.3.5.6 1.2.9 2.2 1.1-3.4 1.6-5.9 1-7.7-1.7-.4-1.2-.8-1.9-1.2-2.3s-.8-.4-1.2-.2-.7.5-1 1.1c-.7 1.4-2.2 7.2-1.7 8.9.8-4.3 1.5-7.2 2.3-8.7.2-.5.5-.7.7-.8.1-.1.3 0 .5.1.4.3.7 1 1.1 2.1.1 1.5-.1 3.5-.8 5.9-.7 2.5-1.7 5.3-3.2 8.7l-.2.3.5.1c2.3.7 3.9 1.8 4.7 3.2.7 1.3.7 2.8.1 4.8-.6-.7-1.4-.9-2.5-.7-.2 0-.5.1-.8.2s-.6.2-.9.3h-.1c-.9.9-1.4 2.1-1.5 3.4v.8c0 .2.1.4.1.6-.6.4-1.2.4-1.8.1s-1.2-.9-1.7-1.8c-.1-.2-.2-.4-.3-.5.2-.9.3-2.3-.6-3.2.5 3.1-.6 5.5-3.2 7.3-.5.4-1.1.7-1.7.9s-1.3.6-2.1.8l-.2.1v.2c0 .8-.1 1.5-.4 2.1 0 .1-.1.2-.1.4 0 .1-.1.2-.2.3-2.2 2.1-4.3 2.7-6.5 1.9-.4-.1-.8-.4-1.3-.6-.4-.2-.7-.5-1.1-.8.7-.6 1.4-.8 2.2-.7h.2l.1-.2c.7-1.8 1-3.1 1-4.1 0-.5-.1-.9-.3-1.2s-.5-.6-.9-.7c-.3-.1-.7-.1-1.2-.1-1.3-.2-2.3.5-3.1 2-.1.3-.3.6-.4 1-.1.2-.2.5-.2.8v-.4c0-.5.2-1.3.5-2.3v-.1c0-1.3.4-2.3 1-3 .7-.7 1.7-1 3.1-1.1h.8c.2 0 .5 0 .7.1 1.2.1 2 .6 2.5 1.4.5-1.4-1.6-1.2-.3-1.7.4-.2.8-.4 1.1-.6.8-.5 4-2.7 3.2-4.7-.6 1.8-1.8 3.2-3.5 4.2-.3.2-.7.4-1.1.5s-.7.3-1.1.4c-.2-.1-.5-.1-.8-.2-.2 0-.5-.1-.8-.1h-.9c-1.5 0-2.7.5-3.5 1.2-.7.7-1.2 1.8-1.2 3.1-.1 0-.2-.1-.3-.2-.1-.2-.1-.7 0-1.3.6-1 1-1.9 1.1-2.5 0-.4 0-.7-.1-1.1-.1-.3-.4-.6-.7-.7-.4-.2-.9-.4-1.6-.5-.1-1.2.4-2.1 1.3-2.6.2-.1.4-.2.7-.3.2-.1.5-.2.8-.2 1-.2 1.8-.2 2.5 0 .6.2 1.1.7 1.3 1.3v.1c1.6 1.5 4.8.1 5.3-1.8-.3.3-.6.5-.9.7s-.6.4-.8.6c-1.3.7-2.3.8-3.1.1-.4-.8-.9-1.3-1.6-1.6s-1.7-.3-2.8 0c-.3.1-.6.1-.9.2s-.6.2-.8.4c-.7.4-1.2.9-1.4 1.6-.3-.1-.6-.3-.7-.4-.2-.1-.2-.3-.3-.5 0-.2 0-.4.1-.6.1-.3.4-.7.7-1.1.8-.4 1.5-.9 1.9-1.3.5-.5.7-.9.8-1.5.1-.5 0-1.1-.2-1.6-.2-.4-.5-.8-.9-1.3 1.3-.9 2.5-1.1 3.3-.7 1 .5 1.8 1.9 2.4 4.1v.1l.1.1c1.2.9 2.2 1.4 3.2 1.7 1 .2 1.8.1 2.5-.3 1.5-1 2.8-2.8 3.8-5.4 1.1-2.5 1.9-5.8 2.5-9.8-.1-.7-.2-1.3-.4-1.7s-.4-.6-.7-.7c-.3-.2-.6-.2-.9-.2s-.6.2-1 .4c-2.7.9-5.2.9-7.4-.1-.5-.2-.9-.5-1.3-.7l-1.2-.9c0-.1-.1-.2-.1-.3-.3-.7-.9-1.1-2-.7.7.1 1.2.4 1.4 1s.2 1.5 0 2.7c-.2.9-.2 1.8.2 2.6.3.7.9 1.3 1.6 2-2.4.6-4.2.1-5.6-1.5-.3-.4-.6-.8-.8-1.2-.2-.5-.5-1-.7-1.5l-.5-1.3-.1 1.4c0 .4-.1.7-.1 1-.3 2.2-1.1 3.8-2.2 4.8s-2.7 1.5-4.7 1.4h-.2c.9-1.2 1.5-2.5 1.8-3.9.3-1.6.2-3.5-.2-5.5l-.1-.4-.4.2c-.8.5-1.6.7-2.2.9-.9.2-1.6.2-2.2-.1s-1.1-.8-1.4-1.5c-.2-.5-.4-1.1-.6-1.8 1.8-.3 3-.8 4-1.6 1-.9 1.4-2.1 1.4-3.6v-.1-.1c-.9-1.3-1.4-3.2-1.5-5.5-.1-2.4.1-5.3.8-8.7 2.6-8.4 2.5-14.7-.1-19-.5-.8-1.1-1.6-1.9-2.3s-1.5-1.3-2.5-1.8c-.7-.4-1.5-.7-2.2-1.1l-.5-.2c-6.3-3.2-11-6.9-14.1-11.1-.7-.9-1.2-1.8-1.8-2.7 2 1.9 5.1 3.1 9.3 3.5l1.2.1-.9-.7c-2.2-1.7-3.3-3.6-3.1-5.7 0-.4.1-.8.3-1.3.1-.4.3-.8.5-1.3 1.2-1.3 2.2-2.9 3.1-4.9.1-.3.3-.7.4-1 .4 5.4 2.1 9.1 5.1 11.1.6.5 1.3.8 2.1 1.1.7.3 1.6.5 2.5.6l.6.1-.3-.6c-.7-1.3-.8-2.8-.4-4.3l.3-.9c.1-.3.3-.6.4-.9 1.5-1.9 2.6-4 3.3-6.3.1-.3.1-.5.2-.8.2 1.3.6 2.5 1.1 3.4 0 .7.1 1.4.3 2.2s.5 1.5.9 2.3c2 4.1 6.5 8.7 13.4 14 .5.4.9.8 1.3 1.3.4.4.8.8 1.2 1.3 2.7 2.9 3.5 5.8 6.8 8 6.6 4 13.5 4.1 19.4-1.9 6.1-7.6 2.1-18.5-1.2-25.9-2.9-6.3-6.9-11.9-8-19-.4-3.7-.1-7.2.9-10.8 1.1-3.6 3.2-11.9-3.2-11.1-2.1-.1-4.5.2-6.2 1.6 0-2.9.5-7 4.2-7.4 2.2-.2 4.6-.1 5.8 1.9l1.2 3.1c3.1-5 5.4-9.6.7-14-1.9-.9-4-1.9-6.3-1.8 3.8-5.2 13.1-3.4 16.3 1 2.9 4.6.2 9.9-2 14.5 1.6.1 3.2.2 4.8.6 8.2 1.9 7.9 14.1 1.4 18.5m-34.1 59.3c-.3-1.1-1.7-4.8-3.5-6.5.6 1.2 1.2 2.3 1.7 3.4s.9 2.2 1.2 3.3c1.6 5.5 1 10.4-1.8 14.9 4.8-4 2.8-14 2.4-15.1"/>
<path d="m153.5 35.3c.5.1.9.2 1.4.3.2-.1.5-.1.6-.2.4-.2.7-.5.8-.8-.3-.5-.6-.8-1-1.2s-.8-.7-1.2-1c-2.2-1.4-5.2-1.4-8.9 0-4.8 1.9-8.6 2.8-11.1 2.8-2.7 0-4.2-.9-4.6-2.9-.1-.3-.1-.6-.2-.9 0-.3-.1-.6-.1-.8-.1-1.4.3-2.8 1.1-4 .2-.6.2-1 .1-1.3-.1-.2-.5-.4-1-.3-.3 0-.6.1-.9.2s-.6.2-.8.4c-1.4 1-2.2 3-2.6 6.1v1.4c.1 1.7.7 3 1.6 3.8s2.3 1.2 4.2 1.2c.5 0 1 0 1.6-.1.8-.2 1.5-.4 2.3-.5s1.5-.4 2.2-.6c3.6-.9 6.8-2 9.6-3.1 1.7-.3 3.1-.4 4.3-.1 1.1.3 2 .8 2.6 1.6m-54.1 27c-.4.2-.7.5-1.1.6-.4.2-.7.4-1.1.5-1.6.5-3.1.2-4.5-.8l.2-.1c.2-.1.5-.2.6-.3 1-.5 1.6-.9 1.8-1.5 1.3-.5 2.2-.7 2.9-.6.3 0 .5.1.6.2.2.1.3.3.4.5.3.4.3.9.2 1.5m-13.8-12.8c.6-.5 1-.8 1.3-1.3.2-.3.3-.7.3-1s-.1-.6-.3-.9c-.3-.4-.8-.8-1.5-1.3-1.3.3-2.4.7-3.3 1.4-.1.1-.3.2-.4.4-.6.5-1 1.1-1.4 1.8 1.1-.2 2-.3 2.9-.2s1.7.5 2.4 1.1m5.1-10.2c.9-.1 1.6-.5 2.1-1.2s.7-1.7.8-2.9v-.5c-.3-.1-.6-.1-.9-.2-.4 0-.7-.1-1.1-.1-1.6 0-3.2.4-4.7 1.3 1 .2 1.8.5 2.5.8.6.3 1 .7 1.3 1.1s.4.9.2 1.4c-.2.1-.2.2-.2.3m9-2c.9 0 1.6-.1 2.1-.3.5-.3.8-.7.8-1.3-.5-1.1-1.1-1.9-1.9-2.3-.7-.4-1.6-.4-2.7-.2.9 1 1.4 1.8 1.7 2.5.1.6.2 1.1 0 1.6m17 139.7c.8-1.3 1.2-2.2 1.3-3 .1-.4 0-.6 0-.8-.1-.2-.2-.4-.4-.5s-.5-.2-.8-.2c-.8-.3-1.6 0-2.3 1.1-.2.2-.3.5-.5.7-.1.3-.3.6-.5.9l-.1.2-.3.6c-.1.2-.2.5-.3.7-.4.9-.4 1.8-.2 2.5.7-.9 1.4-1.5 2-1.9.7-.4 1.4-.5 2.1-.3m-3.4-7.3c.5-.6.8-1.1 1-1.5.1-.2.1-.5 0-.6 0-.2-.1-.4-.3-.5-.2-.2-.7-.5-1.2-.6-1.4.3-2.4.8-3 1.5-.5.6-.7 1.4-.5 2.3.4-.3.8-.5 1.2-.7.6-.3 1.2-.5 1.7-.5.5.1.9.2 1.1.6m.1-8.2c.6-.2 1.1-.4 1.5-.7.4-.2.6-.6.8-.9.1-.3.1-.7.1-1.1-.1-.4-.3-.8-.6-1.3h-.5c-1.3 0-2.2.3-2.9.9s-1.1 1.5-1.3 2.7c.7-.4 1.4-.5 1.8-.5.6 0 1 .3 1.1.9m0-62c-.5-.4-.8-.6-1.2-.7h-.6c-.2.1-.4.2-.6.4-.5.5-.9 1.4-1.2 2.8.4.5.5 1.2.2 2.3 0 .2-.1.5-.1.7l-.1.2c1.6-.6 2.7-1.7 3.3-3.4.1-.4.2-.7.3-1.2v-1.1m-18.8 5.4c0-.7-.1-1.3-.4-1.7-.2-.4-.4-.6-.6-.7-.3-.1-.6-.2-1-.2-.5 0-1.2.2-1.9.6-.5 1.2-.8 2.4-.7 3.5v.5c.1.7.3 1.4.7 2 .4-1 .9-1.8 1.5-2.5.7-.7 1.5-1.2 2.4-1.5m-5.7-9.3c.4-.8.5-1.6.2-2.3-.3-.8-1-1.4-2.1-2.1-.1-.1-.3-.1-.4-.2l-.7.7c-.3.3-.5.6-.7.9-1 1.4-1.5 2.9-1.6 4.6.8-.8 1.5-1.3 2.1-1.7s1.2-.6 1.6-.6c.5 0 1 .1 1.3.5.2.1.2.2.3.2m3.5-8.5c.6-.8.9-1.4.9-1.9.1-.6-.1-1-.7-1.3-1.2-.2-2.2 0-3.1.5-.7.5-1.3 1.2-1.8 2.2 1.3-.2 2.4-.3 3.2-.2.7 0 1.2.3 1.5.7m47.4 85.6c-.2-.8-.8-1.2-1.8-1.2h-.7c-.2 0-.5 0-.7.1-.8.6-1.3 1.3-1.5 2.3 0 .2-.1.4-.1.7v.4c1-.2 1.6.1 1.9.8.2.6.2 1.5-.2 2.8.9-.3 1.6-.9 2.1-1.7.6-1.1.9-2.4 1-4.2m61.2.5c-.4-.8-1.1-1.1-2.2-.9-.2 0-.5.1-.7.2s-.5.2-.8.3c-.8.8-1.2 1.8-1.2 2.9v.7c0 .1 0 .3.1.4 1-.4 1.8-.3 2.2.4.4.6.6 1.6.4 3.2 1.5-.8 2.3-2.2 2.5-4.2v-1.4c-.2-.5-.2-1-.3-1.6m-24.5 9.8c.6-1.5.9-2.7.8-3.6 0-.4-.1-.7-.2-.9s-.3-.4-.6-.4c-.2-.1-.6-.1-1-.1-1-.2-1.8.4-2.4 1.6-.1.3-.2.6-.4.9-.1.3-.2.7-.3 1.1v.2c-.1.2-.2.5-.2.7-.1.3-.1.6-.2.8-.2 1.1 0 2.1.4 2.8l.3-.6c.2-.4.4-.6.6-.9.9-1.1 2-1.7 3.2-1.6m-5.3-7.1c.5-.8.7-1.4.8-1.9 0-.3 0-.5-.1-.7s-.2-.4-.5-.5c-.4-.2-.8-.4-1.5-.4-1.5.6-2.5 1.4-3 2.3-.4.8-.4 1.7 0 2.7.9-.9 1.8-1.5 2.5-1.8s1.3-.2 1.8.3m-1.7-8.9c.7-.4 1.2-.7 1.5-1.1.4-.4.6-.7.7-1.1s0-.8-.2-1.2-.5-.8-.9-1.3c-.2 0-.4.1-.5.1-1.4.3-2.4.8-3.1 1.6-.6.8-.9 1.9-.8 3.2.8-.6 1.4-.9 1.9-1 .6-.1 1.1.2 1.4.8m-13-133.3c0-.3 0-.6-.1-.9-.1-.5-.3-1.1-.6-1.8-1.4-1.9-2.7-2.8-4.1-2.6.6.4 1 .7 1.3 1.2.4.6.7 1.2.7 1.8.2.1.5.3.8.4.5.3.9.7 1.3 1.1.2.3.5.5.7.8" style="fill:#0f47af"/>
<path d="m148.9 19.9c4.2 1.6 4.5-4.7 10-1.3-2.4-.8-3.8-1.2-5.4.6.4-.1.8-.2 1.3-.2h.3.4c.2 0 .5 0 .7.1.2 0 .4.1.6.2.3.1.9.4 1.3.6.1.1.2.1.2.2.3.2.5.5.8.7-.2.4-.9.9-2.8 1.5-.6.2-1.1.3-1.6.3h-.1c-.2 0-.5 0-.7-.1-.7-.1-1.3-.5-1.8-1-.2-.2-.4-.5-.6-.9-.9.1-2.5-.1-2.6-.7" style="fill:#432918"/>
<path d="m155.2 21.8c.5-.6.7-1.2.5-1.8 0-.1-.1-.3-.2-.5v-.1h.5c.2 0 .4.1.5.1.2.1.8.3 1.2.6.1 0 .1.1.2.1l.1.1c.1.1.1.2.2.2-.8.5-1.5.8-2.2 1-.4.2-.6.2-.8.3m-3.2-1.5c.1.3.3.5.5.7.4.4.8.7 1.4.8h.1c-.4-.5-.5-1-.4-1.5 0-.3.1-.5.3-.8-.5.1-.9.3-1.3.5-.3.2-.4.3-.6.3" style="fill:#f3f2f4"/>
</g>
<g style="fill:#e83129">
<path d="m0 0h600v400h-600z"/>
<path d="m600 200v200h-300v-400h-300v200" style="fill:#fdc621"/>
<use xlink:href="#a" transform="translate(300 200)"/>
<use xlink:href="#a"/>
</g>
<g style="fill:#fdc621">
<use xlink:href="#a" transform="translate(300)"/>
<use xlink:href="#a" transform="translate(0 200)"/>
</g>
</svg>