<?xml version="1.0" encoding="UTF-8"?>
<!DOCTYPE svg PUBLIC "-//W3C//DTD SVG 1.1//EN" "http://www.w3.org/Graphics/SVG/1.1/DTD/svg11.dtd">
<!-- Creator: CorelDRAW -->
<svg xmlns="http://www.w3.org/2000/svg" xml:space="preserve" width="8in" height="5.47in" style="shape-rendering:geometricPrecision; text-rendering:geometricPrecision; image-rendering:optimizeQuality; fill-rule:evenodd; clip-rule:evenodd"
viewBox="0 0 8 5.47"
 xmlns:dc="http://purl.org/dc/elements/1.1/"
 xmlns:cc="http://creativecommons.org/ns#"
 xmlns:rdf="http://www.w3.org/1999/02/22-rdf-syntax-ns#"
 xmlns:svg="http://www.w3.org/2000/svg"
 xmlns:sodipodi="http://sodipodi.sourceforge.net/DTD/sodipodi-0.dtd"
 xmlns:inkscape="http://www.inkscape.org/namespaces/inkscape"
 version="1.1"
 inkscape:version="0.47 r22583"
 sodipodi:docname="wwr.svg">
 <defs>
  <style type="text/css">
   <![CDATA[
    .str0 {stroke:#202326;stroke-width:0.0208346}
    .fil0 {fill:#202326}
    .fil1 {fill:white}
    .fil2 {fill:#9F2F2D;fill-rule:nonzero}
   ]]>
  </style>
 </defs>
 <g id="Слой_x0020_1">
  <metadata id="CorelCorpID_0Corel-Layer"/>
  <metadata id="metadata8">
   <rdf:RDF>
    <cc:Work rdf:about="">
     <dc:format>image/svg+xml</dc:format>
     <dc:type rdf:resource="http://purl.org/dc/dcmitype/StillImage"/>
     <dc:title/>
    </cc:Work>
   </rdf:RDF>
  </metadata>
  <rect style="fill:#ffffff" x="0" y="0" width="8" height="5.47"/>
  <rect id="rect3696" class="fil0" x="2.59348" y="0.000751969" width="5.39845" height="5.4685"/>
  <g id="g4">
   <g id="g6">
    <g id="g8">
     <path id="path10" class="fil1 str0" d="M3.29076 2.96183c-0.198299,0.120547 -0.248248,0.206457 -0.321764,0.206457 -0.0433819,-0.166732 0.0156693,-0.206457 0.0542323,-0.29985 0.11328,-0.00377559 0.172327,0.0190157 0.267531,0.0933937z"/>
     <path id="path12" class="fil1 str0" d="M3.01359 2.96167c-0.0289252,0.0707362 -0.0442087,0.115898 -0.00482283,0.194346m0.00482283 -0.194346l0 0 0 0z"/>
    </g>
    <g id="g14">
     <path id="path16" class="fil1 str0" d="M5.89243 4.86267c-0.0420236,0.0519528 -0.189063,0.13126 -0.170354,0.274118 0.0868268,-0.00408661 0.305094,-0.00127559 0.387776,0 -0.0162165,-0.0319016 -0.0196102,-0.11937 -0.0268976,-0.137055m-0.190524 -0.137063l0 0 0 0z"/>
     <path id="path18" class="fil1 str0" d="M5.86002 4.95311c-0.0482008,0.0522953 -0.0915827,0.0696772 -0.0964055,0.183665m0.0964055 -0.183665l0 0 0 0z"/>
    </g>
   </g>
   <path id="path20" class="fil1 str0" d="M4.00199 2.40481c0,0 -0.119051,-0.138748 -0.24465,-0.130591 -0.0951024,0.0061811 -0.443469,0.234925 -0.636087,0.37472 -0.0296102,0.0214803 -0.0539685,0.135543 -0.0978622,0.218583 0.0942638,-0.00497244 0.146791,0.016315 0.21011,0.0567717 0.0489291,-0.0645787 0.0520906,-0.0786535 0.0777165,-0.110713 -0.0031378,-0.0259961 -0.0255433,-0.0547402 -0.0143898,-0.0681299 0.0162362,-0.0194803 0.0668071,-0.0164094 0.106492,-0.0397323 0.10698,-0.0628898 0.258862,-0.192579 0.336752,-0.184524 0.0850079,0.0087874 0.126559,0.146071 0.186075,0.243161m0.0758425 -0.359547l0 0 0 0z"/>
   <path id="path22" class="fil1 str0" d="M5.9498 3.61217c0.0176614,0.0609685 0.00790945,0.165469 0.0459213,0.240382 0.264949,0.161854 0.321433,0.234291 0.392079,0.414571 -0.0678819,0.200571 -0.127165,0.266512 -0.211933,0.400638 -0.169756,0.088563 -0.223425,0.128031 -0.293185,0.205543 0.0644685,0.028748 0.130705,0.0679409 0.201346,0.135878 0.0565157,-0.231673 0.155417,-0.0810039 0.180138,-0.0313583 0.0565276,-0.0444134 0.0423937,-0.114969 0.0600551,-0.174189 0.113035,-0.153295 0.349697,-0.480768 0.349697,-0.480768m-0.724118 -0.710697l0 0 0 0z"/>
   <path id="path24" class="fil1 str0" d="M4.04008 1.64452c-0.0391969,0.040752 -0.0839606,0.0940354 -0.165272,0.146283 0.0235709,0.0428465 0.0347008,0.0438819 0.0550906,0.0585157m0.110181 -0.204799l0 0 0 0z"/>
   <path id="path26" class="fil1 str0" d="M4.29152 0.921106c-0.0557441,-0.0387756 -0.171925,-0.067311 -0.219665,-0.0960157 -0.0134094,0.0118819 -0.0268386,0.0402126 0.109,0.123098m0.110665 -0.0270827l0 0 0 0z"/>
   <path id="path28" class="fil1 str0" d="M5.18902 2.39052c0.155445,-1.31657 -0.591937,-1.44233 -1.04505,-1.35965 -0.0686693,-0.0278346 0.0141535,-0.0958583 -0.0798465,-0.133114 0.165264,0.0182402 0.303992,-0.0726614 0.588213,0.0160669 0,0.0227559 0.00853937,-0.00252756 0,0.0404567 0.056937,-0.00211024 0.0997441,-0.00235433 0.171327,0.0201299 -0.0071063,0.0204606 -0.0219055,0.0229567 -0.0462953,0.0437283 0.12485,-0.033878 0.37598,0.240575 0.462091,0.322433 -0.0512008,-0.00843701 -0.0377244,0.00388583 -0.0842126,-0.00714961 0.0573819,0.0410472 0.0709567,0.14022 0.151756,0.186965 -0.0371378,0.00506693 0.00597638,0.0213858 -0.0609094,0.0138937 0.0616181,0.0550157 0.0634409,0.153827 0.117272,0.185327 -0.0236417,0.0141339 -0.0439606,0.0187874 -0.0991339,0.010122 0.168102,0.0784685 0.00338976,0.37178 0.145209,0.635335 -0.106106,-0.0224685 -0.11002,0.0456142 -0.216406,0.0250433m-0.00400787 0.000413386l0 0 0 0z"/>
   <path id="path30" class="fil1 str0" d="M5.19452 2.37755c0.100776,-0.779969 -0.0771772,-1.28814 -0.756118,-1.38961 -0.0500236,-0.0385394 0.0193661,-0.0697598 -0.0485984,-0.127961 -0.0861929,-0.0582008 -0.187402,-0.0436969 -0.235398,-0.104854 -0.0246614,0.0165906 -0.0396063,0.0249843 -0.0295118,0.0400157 0.0374134,0.0630591 0.116555,0.0708268 0.162543,0.119677 0.0449843,0.0477874 0.0175157,0.053563 0.00237402,0.0757126 -0.0745354,0.00223622 -0.185972,0.0514016 -0.205484,0.0738031 -0.134055,0.153925 -0.28539,0.323646 -0.409406,0.465634 -0.0808425,0.0925551 -0.023748,0.0882126 -0.014752,0.156421 -0.0162047,0.0731811 0.00322835,0.0946102 0.0272047,0.13463 0.0256496,0.0350394 0.078063,0.0217008 0.0938858,-0.00770079 0.0158976,-0.0295433 0.00473228,-0.0639803 0.0234488,-0.0756772 0.104807,-0.0655157 0.179126,-0.120386 0.22061,-0.145831 -0.0105827,0.0954724 -0.0270433,0.152665 -0.0563504,0.19478 -0.0234646,0.0337165 -0.0857323,0.0480748 -0.0965551,0.080063 -0.00491732,0.0145276 0.0180236,0.0365197 0.0298661,0.0376693 0.0435472,0.00424409 0.124945,-0.0296732 0.143484,-0.0413386 0.0612205,-0.0385591 0.0579055,-0.0799331 0.0717559,-0.15113 0.0709685,-0.0446969 0.118035,-0.0873071 0.118035,-0.0873071 0,0 0.114744,0.0113898 0.198972,-0.0250866 0.0585669,0.199744 -0.0999252,0.372724 -0.172858,0.517528 -0.0501142,0.00983071 -0.10039,0.0380472 -0.118854,0.0617008 -0.0954449,0.136134 -0.115004,0.182858 -0.262917,0.429421 -0.0196024,0.0525354 0.164035,0.482945 0.452516,0.731201 0.761791,0.298878 0.86789,0.306098 1.5568,0.270287 0.038811,0.127291 0.028815,0.223429 0.0996457,0.28085 0.244575,0.198272 0.421811,0.16765 0.553311,0.445079 0.0224921,0.0474488 -0.0941417,0.246744 -0.202839,0.396315 -0.191295,0.102319 -0.23674,0.133335 -0.30598,0.201961 0.168311,0.00776772 0.186146,0.0495472 0.263484,0.133374 0.0433937,-0.153516 0.167201,-0.0822756 0.181594,-0.0171417 0.0390669,-0.0778858 0.0763661,-0.116264 0.0734055,-0.184827 0.117358,-0.202437 0.309913,-0.43872 0.396031,-0.624945 0.0202165,-0.0437244 -0.0161772,-0.066189 -0.052937,-0.131075 -0.113898,-0.0253307 -0.213417,-0.0998858 -0.217524,-0.152819 -0.0111535,-0.143894 0.193701,-0.358063 0.21715,-0.436327 0.0837126,-0.279512 -0.10476,-0.584122 -0.354685,-0.738902 -0.436091,-0.270079 -0.814193,0.0173268 -1.34535,-0.403598l-3.93701e-006 3.93701e-006 3.93701e-006 3.93701e-006z"/>
   <path id="path32" class="fil1 str0" d="M6.53051 3.92011c0.0382047,0.0716654 0.0764134,0.11748 0.170795,0.206874 0.166315,0.00665748 0.0936535,0.127091 0.062937,0.174378m-0.233732 -0.381252l0 0 0 0z"/>
   <g id="g36">
    <path id="path38" class="fil1 str0" d="M4.15293 1.03085c-0.0603701,-0.0329134 -0.830547,-0.608984 -1.08632,-0.758287 0.224461,0.234047 0.775937,0.657016 0.980953,0.833181m0.10537 -0.0748937l0 0 0 0z"/>
    <path id="path40" class="fil1 str0" d="M3.95139 1.02313c0.122673,0.0121024 0.114331,-0.00605512 0.161819,-0.0221969m-0.161819 0.0221969l0 0 0 0z"/>
    <path id="path42" class="fil1 str0" d="M4.04756 1.10576c0.0660866,-0.00807087 0.0557126,-0.0508346 0.10537,-0.0831181m-0.10537 0.0831181l0 0 0 0z"/>
    <path id="path44" class="fil1 str0" d="M3.8721 0.960827c0.122669,0.0121063 0.0996654,-0.00831496 0.147157,-0.0244528m-0.147157 0.0244528l0 0 0 0z"/>
    <path id="path46" class="fil1 str0" d="M3.78435 0.894004c0.122673,0.0121063 0.0934528,-0.00605118 0.140941,-0.0221929m-0.140941 0.0221929l0 0 0 0z"/>
    <path id="path48" class="fil1 str0" d="M3.70417 0.823386c0.0932402,0.014122 0.0849016,-0.00201969 0.13239,-0.0181575m-0.13239 0.0181575l0 0 0 0z"/>
    <path id="path50" class="fil1 str0" d="M3.62465 0.758984c0.0813386,0.0121063 0.0734094,0.000216535 0.120898,-0.0159252m-0.120898 0.0159252l0 0 0 0z"/>
    <path id="path52" class="fil1 str0" d="M3.53902 0.686185c0.0655394,0.0100906 0.0621299,0.00605512 0.109618,-0.0100866m-0.109618 0.0100866l0 0 0 0z"/>
    <path id="path54" class="fil1 str0" d="M3.45547 0.618906c0.0859213,0.0040315 0.0573031,0.00731496 0.104791,-0.00882677m-0.104791 0.00882677l0 0 0 0z"/>
    <path id="path56" class="fil1 str0" d="M3.37812 0.553024c0.0732874,0.0100866 0.0857165,0.000244094 0.106386,-0.00581496m-0.106386 0.00581496l0 0 0 0z"/>
    <path id="path58" class="fil1 str0" d="M3.29225 0.485906c0.0548071,0.00807087 0.065248,0.0100827 0.0913465,0.00201575m-0.0913465 -0.00201575l0 0 0 0z"/>
    <path id="path60" class="fil1 str0" d="M3.22948 0.425882c0.0548071,0.00807087 0.0510039,0.00834252 0.0771063,0.000271654m-0.0771063 -0.000271654l0 0 0 0z"/>
   </g>
   <g id="g62">
    <path id="path64" class="fil1 str0" d="M3.71271 1.59959c0.081311,-0.0397047 0.105154,0.0564252 0.023311,0.0647835m-0.023311 -0.0647835l0 0 0 0z"/>
    <g id="g66">
     <g id="g68">
      <path id="path70" class="fil1 str0" d="M4.00177 1.24006c0.0181929,0.0190197 0.0442598,0.00652362 0.0578425,-0.00237402 0.0544331,-0.0356575 0.0289252,-0.0380354 0.0746378,-0.0584449 0.0449094,-0.0200512 0.0785748,0.036126 0.0785748,0.036126 0,0 -0.0294409,0.0140827 -0.0438661,0.0237717 -0.0175079,0.0117638 -0.0442598,0.0688543 -0.0867677,0.0622795 -0.0349409,-0.00540945 -0.0569803,-0.0300591 -0.0804252,-0.0613583l3.93701e-006 0z"/>
      <path id="path72" class="fil1 str0" d="M4.15401 1.24768c0,0.0146496 -0.0177598,0.0265551 -0.039748,0.0266417 -0.0219882,8.26772e-005 -0.0399409,-0.011685 -0.040189,-0.0263386 -0.000251969,-0.0146614 0.0173031,-0.026689 0.0392913,-0.026937 0.0219843,-0.000248031 0.0401378,0.0113819 0.0406378,0.0260354l-0.0399606 0.000598425 0.0399685 0z"/>
     </g>
     <path id="path74" class="fil1 str0" d="M4.12469 1.24244c0,0.0118071 -0.00970866,0.0213898 -0.0216929,0.0213898 -0.0119843,0 -0.021689,-0.00958268 -0.021689,-0.0213898 0,-0.0118228 0.00970472,-0.0213937 0.021689,-0.0213937 0.0119843,0 0.0216929,0.0095748 0.0216929,0.0213937 0,0 0,0 0,0z"/>
    </g>
   </g>
   <path id="path76" class="fil1 str0" d="M6.88919 3.21781c0.38563,0.180661 0.371169,0.31378 0.645933,0.332795 0.231378,-0.0855748 -0.0771299,-0.378606 -0.192819,-0.626323 0.00964173,-0.15337 0.195224,-0.150992 0.192819,-0.15337 -0.00240945,-0.00237795 0.202457,-0.0570512 0.0433819,-0.279094 -0.0192835,0.164988 -0.0674882,0.116937 -0.120512,0.164988 -0.0964055,-0.213937 -0.0723071,-0.382602 0.0423543,-0.584496 -0.186969,0.104319 -0.230484,0.24648 -0.233126,0.515598 -0.0768268,-0.103646 -0.126642,-0.193508 -0.108091,-0.313705 -0.0964094,0.636933 0.0289213,0.525232 0.337425,1.12426 0.0867677,0.213685 -0.617008,-0.378283 -0.877311,-0.561m0.269941 0.380343l0 0 0 0z"/>
   <g id="g78">
    <g id="g80">
     <path id="path82" class="fil1 str0" d="M3.04804 3.42531c0.00896457,0.0641142 -0.0246535,0.215634 0.0767008,0.310354 0.0678031,-0.0812402 0.196441,-0.214622 0.276571,-0.304154 -0.0364213,-0.0541614 -0.16611,-0.0797008 -0.176197,-0.125579m-0.177075 0.119378l0 0 0 0z"/>
     <path id="path84" class="fil1 str0" d="M3.10276 3.50546c-0.00964173,0.0699213 -0.00722835,0.118854 0.055437,0.190165m-0.055437 -0.190165l0 0 0 0z"/>
    </g>
    <g id="g86">
     <path id="path88" class="fil1 str0" d="M6.03821 4.93215c-0.028748,0.0193898 -0.145646,0.0806063 -0.138413,0.265287 0.120484,-0.0022126 0.294421,-0.00342126 0.400894,-0.000653543 -0.0128504,-0.0475433 0,-0.14976 -0.0136772,-0.185043 -0.0401417,-0.0265197 -0.064248,-0.0756496 -0.248799,-0.0795906l-3.93701e-006 0z"/>
     <path id="path90" class="fil1 str0" d="M6.0408 4.98165c-0.0482008,0.0522953 -0.0915866,0.0855354 -0.0915866,0.212217m0.0915866 -0.212217l0 0 0 0z"/>
    </g>
   </g>
   <path id="path92" class="fil1 str0" d="M4.26889 3.1034c0.0396811,-0.191146 -0.0671457,-0.259626 -0.158713,-0.307047 -0.103331,-0.148323 -0.146504,-0.225016 -0.268587,-0.291996 -0.0854606,-0.0218228 -0.170921,-0.0135394 -0.280799,0.0120472 -0.18313,0.182114 -0.487358,0.592028 -0.51276,0.689343 -0.0253071,0.0969409 -0.0122087,0.161055 0,0.225768 0.073248,-0.0436457 0.125138,-0.0677283 0.204492,-0.105354 0.0061063,-0.155028 0.0953819,-0.0782638 0.112929,-0.0451575 0.0419685,-0.036126 0.0419685,-0.0594567 0.0488346,-0.105362 0.00686614,-0.0458976 0,-0.0218228 -0.0152598,-0.0632126 0.10072,-0.146752 0.186157,-0.307783 0.305217,-0.301031 0.106059,0.00601969 0.123874,0.143854 0.167866,0.240823 0.0364843,0.0804213 0.228094,0.290075 0.289949,0.361232 0.044248,-0.000641732 0.0824094,0.00225197 0.131248,0 0.0549331,-0.113634 0.124374,-0.154272 0.186181,-0.165559m-0.210598 -0.144492l0 0 0 0z"/>
  </g>
  <rect id="rect3698" class="fil2" x="1.09898" y="0.000287339" width="0.376945" height="5.46943"/>
  <rect id="rect3700" class="fil2" x="0.00806299" y="2.52494" width="2.58538" height="0.42013"/>
 </g>
</svg>
