<?xml version="1.0" encoding="UTF-8" standalone="no"?>
<!-- Created with Inkscape (http://www.inkscape.org/) -->

<svg
   xmlns:dc="http://purl.org/dc/elements/1.1/"
   xmlns:cc="http://creativecommons.org/ns#"
   xmlns:rdf="http://www.w3.org/1999/02/22-rdf-syntax-ns#"
   xmlns:svg="http://www.w3.org/2000/svg"
   xmlns="http://www.w3.org/2000/svg"
   xmlns:sodipodi="http://sodipodi.sourceforge.net/DTD/sodipodi-0.dtd"
   xmlns:inkscape="http://www.inkscape.org/namespaces/inkscape"
   width="800"
   height="900"
   id="svg2"
   version="1.1"
   inkscape:version="0.92.4 (5da689c313, 2019-01-14)"
   sodipodi:docname="Banner_of_Imereti.svg">
  <defs
     id="defs4" />
  <sodipodi:namedview
     id="base"
     pagecolor="#ffffff"
     bordercolor="#666666"
     borderopacity="1.0"
     inkscape:pageopacity="0.0"
     inkscape:pageshadow="2"
     inkscape:zoom="0.70710678"
     inkscape:cx="498.00881"
     inkscape:cy="514.73976"
     inkscape:document-units="px"
     inkscape:current-layer="layer1"
     showgrid="true"
     fit-margin-top="0"
     fit-margin-left="0"
     fit-margin-right="0"
     fit-margin-bottom="0"
     inkscape:window-width="1328"
     inkscape:window-height="1035"
     inkscape:window-x="562"
     inkscape:window-y="0"
     inkscape:window-maximized="0">
    <inkscape:grid
       type="xygrid"
       id="grid48"
       spacingx="0.25"
       spacingy="0.25" />
  </sodipodi:namedview>
  <metadata
     id="metadata7">
    <rdf:RDF>
      <cc:Work
         rdf:about="">
        <dc:format>image/svg+xml</dc:format>
        <dc:type
           rdf:resource="http://purl.org/dc/dcmitype/StillImage" />
        <dc:title></dc:title>
      </cc:Work>
    </rdf:RDF>
  </metadata>
  <g
     inkscape:label="background"
     inkscape:groupmode="layer"
     id="layer1"
     transform="translate(31.000015,-139.5051)"
     style="display:inline">
    <rect
       ry="0"
       y="139.5051"
       x="-31.000015"
       height="900"
       width="800"
       id="rect3843"
       style="fill:#00ceff;fill-opacity:1;fill-rule:nonzero;stroke:none" />
    <path
       style="fill:#ffffff;fill-opacity:1;fill-rule:evenodd;stroke:none;stroke-width:1.5;stroke-linecap:butt;stroke-linejoin:round;stroke-miterlimit:4;stroke-dasharray:none;stroke-opacity:1"
       d="m 164.66735,495.97214 c -13.60951,0.32479 -26.65762,4.81812 -39.29786,9.49219 -0.99199,3.2907 -1.2664,7.0704 -2.76139,10.37934 -6.62386,17.32957 -17.67214,32.66132 -30.032552,46.50054 -3.633589,4.73033 -8.423041,9.03519 -10.242187,14.85742 -0.692196,3.59651 3.566871,4.7314 6.239258,5.21192 1.652912,0.36345 5.335032,0.8738 3.846679,3.42382 -1.265389,3.58802 -4.466042,7.42072 -3.177734,11.38672 2.569536,2.54387 6.723991,2.42452 9.926758,3.75781 1.808648,-0.89266 1.136078,-3.91034 2.259768,-5.62402 2.03501,-5.58224 7.50602,-9.19333 12.74414,-11.0664 0.82419,1.1909 0.74438,2.40487 -0.9343,2.62484 -6.16268,2.31495 -11.46941,8.15147 -10.90409,15.07038 -0.27186,3.71047 1.44241,8.063 5.4839,8.77255 13.93974,-13.7862 29.4377,-26.63866 47.84127,-33.98682 12.9304,-5.96391 26.70302,-11.17119 37.47709,-20.76416 4.9655,-4.48085 7.96925,-11.25503 6.72444,-17.98098 -0.69482,-6.56941 -0.38562,-13.46346 -3.06038,-19.64402 0.89767,-0.56487 2.13069,-1.54896 2.27832,0.14454 2.69874,6.62969 2.10771,14.08274 2.97363,21.16308 0.82606,7.17017 -3.18134,13.95265 -8.50293,18.53809 -2.69591,2.95053 -6.47683,4.62529 -9.31933,7.35644 -0.60894,2.49471 3.10213,3.28754 4.52085,4.58228 10.58116,6.92231 22.1295,12.77133 31.57829,21.14446 7.51713,7.54816 14.51906,15.70247 20.3032,24.65119 4.40076,8.55136 3.88897,18.64002 7.67243,27.44541 3.23141,8.35401 8.51485,16.16494 15.62151,21.66006 2.03684,0.1687 2.05336,-3.01037 2.92735,-4.31161 5.23513,-12.50617 2.24636,-26.76958 6.88286,-39.37505 4.27143,-12.45694 12.95652,-22.88343 22.52964,-31.67369 2.4514,1.30699 -0.77921,3.08964 -1.54566,4.27943 -10.51947,10.22937 -19.78692,23.03896 -21.28368,38.05484 -1.3939,10.52465 -0.97686,21.31163 -5.33418,31.22279 -13.64835,36.13984 -13.9592,75.32997 -21.68414,112.79743 -3.1466,14.33902 -8.11131,29.30866 -19.68436,39.09601 -1.32611,1.69408 1.40524,3.61115 2.3826,5.06708 6.45743,5.81422 15.85278,5.64764 24.02564,6.0967 3.32648,1.09521 4.33146,-1.11703 3.28979,-3.99221 -0.38718,-4.01107 -2.33936,-8.12372 -6.42675,-9.4502 -2.67993,-1.70069 -6.55275,-2.43373 -8.24512,-5.27929 0.0779,-1.77587 2.62384,-0.1711 3.54004,-0.0186 3.00542,1.33593 7.16033,2.77527 9.60547,-0.41309 2.47406,-3.12339 1.28672,-7.55086 1.87153,-11.23024 0.27804,-19.75131 3.02594,-40.49591 14.9146,-56.94651 6.84265,-9.51057 16.75334,-16.3439 23.41016,-25.97461 5.3543,-9.22889 0.78792,-21.38688 7.58651,-30.09632 5.37676,-7.43323 14.47213,-12.40888 16.67813,-21.88513 1.50356,-4.98575 1.98126,-10.19968 2.33692,-15.37207 3.24019,-0.5962 0.92156,4.1236 1.36523,6.14258 -0.46654,8.62461 -3.44068,17.23937 -10.09765,23.04297 -2.53046,2.61045 -5.29941,5.02455 -7.60743,7.83301 0.13786,2.04965 3.33144,1.93071 4.73436,2.87273 36.9288,13.43824 77.21737,20.68682 116.30373,13.6302 25.35727,-4.42963 49.37031,-15.96861 68.57992,-33.12042 3.31937,-1.74273 1.09783,-5.92882 1.57508,-8.86035 -0.16594,-8.87261 -1.29829,-17.68388 -2.28098,-26.48115 3.15543,-1.24189 1.82515,3.46965 2.6084,5.34375 1.59326,11.40737 2.00844,22.90893 1.94532,34.41602 4.66507,11.37196 9.16771,22.83229 13.93359,34.14941 10.22998,9.28422 19.89477,19.24508 28.51874,30.04063 3.69361,5.3414 8.42822,11.1093 7.7586,18.0541 0.66239,6.9078 -4.19856,12.62443 -7.20996,18.42578 -6.67121,11.88416 -12.02076,24.53963 -19.93555,35.69141 -4.41163,7.38082 -10.89126,14.38068 -11.60351,23.30957 0.98258,3.27613 5.34059,3.46958 7.96777,4.80371 5.68723,2.08267 12.25713,2.2972 17.77148,-0.36426 2.12254,-6.24125 2.54795,-13.04953 4.3711,-19.42676 4.64843,-19.2585 12.83969,-38.90236 29.11206,-51.2 8.21169,-6.68604 19.11629,-10.27016 25.47679,-19.08027 2.2897,-3.30377 3.013,-8.15288 -0.15035,-11.18653 -6.4102,-7.47297 -15.67239,-13.70288 -17.21487,-24.14355 -0.10355,-4.59931 -0.89162,-9.53562 0.70703,-13.87988 5.48504,-9.92633 14.19764,-17.65923 21.00389,-26.70508 10.1887,-12.69262 17.98325,-28.28987 17.5459,-44.92383 0.5366,-10.76181 -2.29075,-21.31619 -6.54515,-31.11677 -3.54,-9.25266 -8.2987,-18.08231 -11.0066,-27.6303 -0.7232,-1.93521 1.60135,-0.81874 1.80275,0.16504 6.83135,10.55931 13.6179,21.48918 23.1797,29.83691 1.9336,1.78007 4.07565,-0.53154 4.3457,-2.52929 1.75545,-8.17165 -1.69695,-16.40132 -4.88065,-23.77778 -6.9573,-14.95345 -19.63595,-28.36815 -36.04025,-32.42144 -20.52542,-0.89863 -41.09764,-0.43352 -61.64155,-0.67601 -51.61655,-0.27546 -103.25348,-0.035 -154.85714,-0.62287 -9.78044,0.11761 -19.37641,-1.58343 -28.76006,-4.37882 -19.28079,-5.29408 -37.07842,-14.88739 -56.3565,-20.14847 -12.99265,-2.80248 -26.41704,-1.44171 -39.47917,-3.70516 -11.61613,-1.52012 -22.87619,-5.24291 -33.43196,-10.32609 -2.3506,1.47682 -4.84433,3.3069 -7.73692,4.00016 -1.82252,0.96821 -6.21462,0.20156 -4.94136,3.42835 1.01805,3.78109 -1.67028,8.13637 -5.40277,9.07832 -2.5697,-2.05122 -3.4327,-5.66981 -5.91993,-7.91113 -5.88987,-7.47712 -15.47305,-9.54708 -24.54296,-9.34082 z m -10.65137,24.30371 c 1.27054,0.19328 3.88119,-0.50386 3.52734,1.62207 0.0247,1.44521 0.44272,3.48292 -0.20703,4.47656 -2.4758,-1.80142 -5.51946,-3.5443 -8.80469,-2.70703 -1.32828,-0.25939 -3.70302,1.29199 -1.80664,2.33692 5.01521,1.46993 5.4104,9.4343 0.49219,11.26953 -3.97744,1.67772 -9.81087,-0.59137 -9.54687,-5.50195 -0.0117,-4.83699 5.41108,-6.66755 8.38378,-9.54493 2.32845,-1.58366 5.20951,-1.95632 7.96192,-1.95117 z"
       id="path1435"
       inkscape:connector-curvature="0"
       transform="translate(-31.000015,139.5051)" />
    <path
       style="fill:#ffffff;fill-opacity:1;fill-rule:evenodd;stroke:none;stroke-width:0.75;stroke-linecap:butt;stroke-linejoin:round;stroke-miterlimit:4;stroke-dasharray:none;stroke-opacity:1"
       d="m 495.31093,668.26819 c -10.25506,8.89175 -21.57972,16.49828 -33.95166,22.07617 -0.84912,1.17659 -0.2222,2.90564 -0.39697,4.31543 0.212,9.625 3.75884,18.88588 8.92202,26.91722 4.78274,7.9144 10.5454,15.87056 11.48325,25.35622 0.89526,11.35146 -4.2709,22.02323 -9.8916,31.60254 -7.50364,12.54947 -16.90642,23.81083 -26.34179,34.94873 -0.91442,0.807 0.17835,1.75629 1.10839,1.6876 4.52654,1.01074 9.1351,1.69321 13.78564,1.45083 3.89072,-0.082 7.80334,-0.0595 11.68214,-0.2483 3.95473,-1.86341 7.42048,-4.63753 11.05883,-7.04222 3.46023,-2.31738 6.74291,-5.32219 7.9241,-9.45762 2.30797,-7.33827 2.19692,-15.35927 5.65407,-22.28831 5.46374,-11.83692 14.9117,-21.29968 23.88741,-30.58489 1.58752,-1.52339 2.70343,-3.64414 2.29248,-5.896 -0.62571,-7.3888 -3.59424,-14.30998 -6.01416,-21.24219 -6.21835,-16.73632 -13.37951,-33.1017 -19.78537,-49.76294 -0.31983,-0.72701 -0.12177,-2.49039 -1.41678,-1.83227 z"
       id="path1437"
       inkscape:connector-curvature="0"
       transform="translate(-31.000015,139.5051)" />
    <path
       style="fill:#ffffff;fill-opacity:1;fill-rule:evenodd;stroke:none;stroke-width:0.53033006;stroke-linecap:butt;stroke-linejoin:round;stroke-miterlimit:4;stroke-dasharray:none;stroke-opacity:1"
       d="m 228.47644,604.12323 c -7.10293,5.51825 -15.56203,8.75747 -23.58642,12.63968 -4.71439,2.23869 -9.13009,5.23068 -12.48002,9.27555 -4.876,5.8671 -7.47353,13.23871 -9.41694,20.51712 -3.61959,14.39155 -4.78981,29.25344 -5.71833,44.02078 -0.45674,8.51501 -0.6425,17.06579 -2.50253,25.3941 -2.38455,11.23399 -6.51009,22.01619 -8.84156,33.26538 -0.0701,1.04193 1.22971,0.91993 1.70631,0.30729 10.06625,-7.42223 18.35891,-16.86732 27.19005,-25.64594 0.83988,-0.9276 2.20716,-1.73185 1.81721,-3.19352 -0.23454,-8.44207 3.16212,-16.47653 3.16111,-24.90487 0.51993,-11.6039 0.94653,-23.28723 3.43798,-34.67682 1.45941,-6.53693 4.07247,-13.33282 9.48445,-17.66589 5.22319,-4.28473 11.86813,-6.09737 18.11966,-8.38791 3.84651,-1.34258 7.71364,-2.63426 11.52568,-4.0704 0.82988,-0.72446 0.0719,-1.96088 0.0898,-2.88712 -0.68158,-4.76014 -1.95781,-9.5514 -4.80956,-13.50443 -2.54482,-3.67524 -5.45187,-7.12401 -8.4104,-10.44634 -0.23822,-0.23564 -0.49038,-0.10228 -0.76646,-0.0367 z"
       id="path1439"
       inkscape:connector-curvature="0"
       transform="translate(-31.000015,139.5051)" />
    <path
       style="fill:#ffffff;fill-opacity:1;fill-rule:evenodd;stroke:none;stroke-width:0.53033006;stroke-linecap:butt;stroke-linejoin:round;stroke-miterlimit:4;stroke-dasharray:none;stroke-opacity:1"
       d="m 181.19424,361.12385 c -1.12851,0.33796 -0.90399,1.88122 -1.36804,2.77165 -1.44702,4.73198 -2.61477,9.57111 -4.26707,14.22757 -1.76372,0.29638 -3.61728,-0.22435 -5.39633,-0.34217 -4.61593,-0.52928 -9.22155,-1.23923 -13.85023,-1.60755 -1.03501,0.50245 -0.58413,1.94419 -0.90195,2.87009 -0.61349,4.90003 -1.33133,9.7958 -1.79286,14.70987 0.51736,1.05134 2.00521,0.60052 2.95721,0.93913 4.64804,0.72617 9.31896,1.16764 13.91185,2.14687 0.63756,0.50722 -0.069,1.48076 0.0139,2.1599 -3.67702,21.89113 -7.71005,43.71963 -11.58201,65.57814 -0.035,0.84714 -0.8904,2.38397 0.37837,2.70747 3.14174,-0.20135 6.26441,-0.65795 9.40332,-0.69863 4.19374,-0.19424 8.42129,-0.01 12.59688,-0.17352 0.93751,-0.52597 0.57915,-1.95478 0.88936,-2.87679 3.1079,-20.57458 6.01852,-41.17967 9.24308,-61.73631 0.26617,-0.8043 0.0911,-1.91437 0.69362,-2.54132 1.32626,-0.15023 2.70032,0.34942 4.03917,0.44222 9.1033,1.30915 18.18416,2.86586 27.30865,4.05281 1.09676,-0.28305 0.69319,-1.72393 0.97507,-2.55173 0.70932,-5.74325 1.48159,-11.48837 1.91482,-17.25866 -0.31845,-1.11352 -1.8124,-0.61826 -2.67189,-0.86714 -8.89633,-0.82697 -17.81687,-1.38847 -26.68789,-2.38147 -0.76661,-0.61713 0.0916,-1.60311 0.12005,-2.37638 1.23866,-4.78361 2.76256,-9.49379 3.90127,-14.30174 -0.15546,-1.22107 -1.74157,-0.7742 -2.59167,-1.05327 -5.73891,-0.66211 -11.47953,-1.36403 -17.23666,-1.83904 z"
       id="path1441"
       inkscape:connector-curvature="0"
       transform="translate(-31.000015,139.5051)" />
    <path
       style="fill:#ffffff;fill-opacity:1;fill-rule:evenodd;stroke:none;stroke-width:1.06066012;stroke-linecap:butt;stroke-linejoin:round;stroke-miterlimit:4;stroke-dasharray:none;stroke-opacity:1"
       d="m 326.19952,210.34688 c -1.78174,0.84694 -1.73302,3.41755 -2.52943,5.03054 -2.7212,8.45632 -5.10063,17.08588 -8.24014,25.37367 -1.66765,0.0931 -2.06643,-2.42156 -2.9969,-3.44595 -5.22242,-8.53978 -11.53747,-16.51506 -19.21827,-22.96421 -1.6349,-0.67703 -1.39836,1.68436 -1.07861,2.61298 4.22624,17.81252 13.283,34.46814 14.38037,52.97431 0.48673,9.33524 -0.4793,18.81614 -3.2172,27.72839 -0.21817,1.24462 -1.72913,0.61497 -1.64623,-0.42882 -1.14667,-5.91045 -2.20924,-11.87724 -4.39401,-17.5238 -2.34629,-6.27208 -4.88379,-12.52814 -8.06391,-18.41849 -1.74255,-0.81695 -1.0792,1.93675 -0.93145,2.81688 4.29674,29.94532 6.3134,60.19823 5.53078,90.46985 -0.28605,7.85757 -0.0891,15.88576 -1.18879,23.61445 -1.8269,0.767 -1.49471,-1.77546 -1.72426,-2.82911 -0.94655,-7.51444 -0.31942,-15.51513 -3.57697,-22.58944 -2.01448,-1.21619 -1.2866,2.54315 -1.61368,3.74622 -1.8723,21.42992 -12.58392,40.99155 -24.23348,58.72699 -6.74587,9.9997 -13.4133,20.10016 -20.60782,29.76141 -0.32663,0.78621 -1.4081,1.18292 -1.67316,0.15054 -2.21593,-7.7623 -3.16028,-15.93282 -5.4421,-23.68118 -1.52105,-1.11691 -1.65055,1.50401 -1.78503,2.42861 -1.2567,9.7213 -3.95323,19.22331 -9.02191,27.68937 -5.35139,9.50668 -12.5914,17.74761 -19.29758,26.30348 0.36766,1.71528 2.65678,2.51643 3.70502,3.89342 2.01411,1.47691 3.1034,3.99738 5.30093,5.19746 2.52357,-0.55809 4.64559,-2.5601 6.98889,-3.69318 30.14734,-17.83795 56.75368,-42.285 74.89846,-72.42066 20.64726,-33.81167 30.37633,-73.2164 33.38782,-112.43221 2.21192,-28.7706 1.4102,-57.69602 -0.55124,-86.45288 -0.10225,-0.66055 -0.29009,-1.67261 -1.1601,-1.63864 z"
       id="path1443"
       inkscape:connector-curvature="0"
       transform="translate(-31.000015,139.5051)" />
    <path
       style="fill:#ffffff;fill-opacity:1;fill-rule:evenodd;stroke:none;stroke-width:1.06066012;stroke-linecap:butt;stroke-linejoin:round;stroke-miterlimit:4;stroke-dasharray:none;stroke-opacity:1"
       d="m 145.88522,183.18993 c -3.89373,1.88546 -7.11729,5.01547 -10.28274,7.93285 -13.41021,13.70436 -21.11788,31.81403 -26.85626,49.83047 -11.530041,37.93558 -14.367001,78.02528 -12.535291,117.47648 1.761631,34.40002 7.648091,68.66837 18.209421,101.4758 2.64457,7.87626 7.20063,15.12884 12.92773,21.06684 1.90349,-0.5493 3.25275,-2.77101 5.06966,-3.83456 2.72671,-2.2788 6.12916,-3.62165 9.02804,-5.50356 0.20797,-17.0511 1.02244,-34.08445 3.82238,-50.9226 2.31968,-15.7263 6.01888,-31.21464 8.57089,-46.9106 1.01798,-2.56564 -1.08219,-3.58641 -2.45304,-1.18315 -8.82506,9.34334 -11.26606,22.49241 -13.78985,34.62613 -1.3416,6.02938 -2.19902,12.29703 -4.356,18.07818 -0.30384,0.93865 -1.59637,0.7718 -1.47429,-0.26171 -0.87979,-9.21688 -2.7e-4,-18.48678 0.91074,-27.65586 2.06129,-17.39689 6.56803,-34.35268 11.71637,-51.04844 0.7357,-0.97946 -0.24613,-2.66862 -1.28302,-1.52194 -6.76825,5.92238 -12.5093,12.93797 -17.32757,20.51231 -0.69997,1.2063 -1.66738,0.0343 -1.73669,-0.868 -3.37589,-14.25675 -3.75794,-29.78169 2.29534,-43.35241 5.43626,-12.88936 15.66386,-23.13788 20.82029,-36.17431 -0.0985,-1.85629 -2.12202,-0.31145 -2.75938,0.37012 -8.21362,6.46292 -14.95298,14.5129 -21.29537,22.7531 -0.79253,1.10628 -2.03486,-0.59659 -1.64071,-1.50191 -0.40443,-8.23399 0.7218,-16.44148 3.37395,-24.19977 6.85149,-20.87442 19.51231,-39.15901 31.5141,-57.36615 1.50966,-2.30105 2.83795,-5.02262 2.46914,-7.8168 -1.59474,-0.43909 -2.94899,1.48206 -4.34915,2.17262 -10.28535,7.88228 -17.307,19.03925 -26.10339,28.37384 -0.44301,0.82029 -1.74565,1.03188 -1.60619,-0.17056 0.79424,-9.3648 3.4556,-18.53904 6.13464,-27.53835 3.6818,-12.19116 8.74117,-23.88052 13.73686,-35.5806 0.32825,-0.56262 -0.0474,-1.36621 -0.75061,-1.25746 z"
       id="path1445"
       inkscape:connector-curvature="0"
       transform="translate(-31.000015,139.5051)" />
    <path
       style="fill:#ffffff;fill-opacity:1;fill-rule:evenodd;stroke:none;stroke-width:0.25;stroke-linecap:butt;stroke-linejoin:round;stroke-miterlimit:4;stroke-dasharray:none;stroke-opacity:1"
       d="m 406.93853,193.29865 c -9.33894,0.0346 -18.749,-0.0811 -27.97315,1.6062 -9.21679,1.59531 -18.20624,4.92036 -25.94726,10.21655 -0.67522,0.31518 -0.68933,1.32225 0.0496,1.56519 10.18298,5.71468 21.4479,9.61331 33.08797,10.83126 8.23401,0.93384 16.53486,0.58603 24.80289,0.65622 6.42081,-0.052 12.84669,0.0321 19.26368,-0.20721 10.31859,-0.61435 20.56809,-2.91651 30.00366,-7.18042 2.94328,-1.32529 5.86078,-2.7586 8.64318,-4.37745 0.71741,-0.64876 -0.24305,-1.3211 -0.81432,-1.61766 -7.96366,-5.23694 -17.09364,-8.57731 -26.49124,-10.06445 -10.26669,-1.72037 -20.71099,-1.3287 -31.07639,-1.42702 -1.18286,-0.002 -2.36572,-0.002 -3.54858,-0.001 z"
       id="path1853"
       inkscape:connector-curvature="0"
       transform="translate(-31.000015,139.5051)" />
    <path
       style="fill:#ffffff;fill-opacity:1;fill-rule:evenodd;stroke:none;stroke-width:0.17677669;stroke-linecap:butt;stroke-linejoin:round;stroke-miterlimit:4;stroke-dasharray:none;stroke-opacity:1"
       d="m 410.74771,104.89433 c -2.9161,0.0174 -5.84219,-0.0332 -8.75208,0.0266 -0.70562,0.18605 -0.85834,1.06048 -1.25635,1.59427 -0.99007,1.72345 -1.44532,4.01657 -0.30642,5.78563 0.47546,0.76531 1.00709,1.77572 2.05502,1.74481 5.1478,0.10144 10.29929,0.10371 15.44757,0.0215 0.78434,-0.11693 1.88282,0.2648 2.33598,-0.60215 1.06676,-1.26198 1.78138,-2.95708 1.38637,-4.62299 -0.29656,-1.35643 -0.98368,-2.61667 -1.77982,-3.73114 -0.53613,-0.42906 -1.32362,-0.1265 -1.96547,-0.21733 -2.38826,2.9e-4 -4.77653,5.7e-4 -7.1648,8.6e-4 z"
       id="path1855"
       inkscape:connector-curvature="0"
       transform="translate(-31.000015,139.5051)" />
    <path
       style="fill:#e9ef34;fill-opacity:1;fill-rule:evenodd;stroke:none;stroke-width:0.35355338;stroke-linecap:butt;stroke-linejoin:round;stroke-miterlimit:4;stroke-dasharray:none;stroke-opacity:1"
       d="m 424.89645,135.98742 c -1.15501,0.5018 -1.41607,1.98444 -1.9892,2.99446 -2.98996,6.66649 -3.64193,14.08034 -3.4232,21.30474 0.13393,2.82356 -0.0362,5.7094 0.4243,8.48923 0.62006,0.86549 1.99883,0.43682 2.95428,0.70351 14.01118,1.41624 27.70381,5.17531 40.57586,10.87979 2.56493,1.03981 4.99082,2.39651 7.5732,3.349 1.14436,-0.28837 1.61271,-1.64185 2.376,-2.44232 4.638,-6.11025 6.58072,-13.79411 7.06725,-21.34138 0.12492,-1.13399 0.40965,-2.44103 -0.72003,-3.17988 -6.87507,-8.08668 -15.58298,-14.95122 -25.84466,-18.08927 -5.40515,-1.75962 -11.10268,-2.30797 -16.76132,-2.33606 -3.96114,-0.10209 -8.05451,-0.12934 -11.93002,-0.31905 0.35719,0.0935 -0.31378,-0.10282 -0.30246,-0.0128 z m 25.37713,7.45293 c 5.24401,-0.10571 10.87473,2.95871 12.40444,8.21011 1.33618,4.28137 -0.81249,9.05415 -4.52614,11.38483 -3.32951,2.20509 -7.62883,2.83401 -11.48496,1.88965 -4.34513,-1.10964 -8.52621,-4.46712 -9.14336,-9.12817 -0.70357,-4.3128 1.89807,-8.60715 5.6572,-10.60971 2.15752,-1.20825 4.6538,-1.74614 7.09282,-1.74671 z"
       id="path1857"
       inkscape:connector-curvature="0"
       transform="translate(-31.000015,139.5051)" />
    <path
       style="fill:#e9ef34;fill-opacity:1;fill-rule:evenodd;stroke:none;stroke-width:0.5;stroke-linecap:butt;stroke-linejoin:round;stroke-miterlimit:4;stroke-dasharray:none;stroke-opacity:1"
       d="m 390.19051,136.15954 c -9.37159,-0.009 -19.05203,0.44932 -27.70015,4.44291 -8.43503,3.84044 -15.75823,10.01745 -21.49131,17.21512 0.17927,8.51921 2.29852,17.40657 7.72699,24.20164 0.62968,1.45812 1.93082,2.27326 3.27848,1.05123 13.7989,-6.63383 28.54873,-11.50374 43.73445,-13.2511 1.9276,-0.36993 4.02133,-0.19101 5.84314,-0.87269 0.64712,-6.50721 0.57792,-13.16233 -0.13232,-19.68799 -0.71514,-4.48522 -1.97321,-9.03397 -4.34565,-12.91195 -1.83038,-0.51173 -3.97913,-0.0493 -5.9287,-0.19184 -0.32831,0.002 -0.65662,0.003 -0.98493,0.005 z m -18.98584,7.21386 c 5.69473,-0.0916 11.84854,3.62586 12.79248,9.55469 0.95444,5.48078 -3.50477,10.42139 -8.5376,11.8418 -6.39502,2.04482 -14.60634,-1.0906 -16.73627,-7.76004 -1.59291,-5.17321 2.03968,-10.57445 6.80463,-12.47385 1.78595,-0.772 3.73187,-1.16441 5.67676,-1.1626 z"
       id="path1859"
       inkscape:connector-curvature="0"
       transform="translate(-31.000015,139.5051)" />
    <path
       style="fill:#e9ef34;fill-opacity:1;fill-rule:evenodd;stroke:none;stroke-width:0.25;stroke-linecap:butt;stroke-linejoin:round;stroke-miterlimit:4;stroke-dasharray:none;stroke-opacity:1"
       d="m 410.58994,83.444813 c -0.8694,0.439246 -1.17091,1.519349 -1.74461,2.258387 -3.47045,5.708372 -6.8458,11.474322 -10.22414,17.23746 -0.33419,0.68919 0.43343,1.19673 1.05615,1.09717 7.05761,0.1363 14.1193,0.0882 21.17792,0.0334 0.67503,-0.1054 1.89837,0.23405 2.07242,-0.69932 -0.008,-0.82756 -0.7827,-1.47858 -1.09243,-2.22999 -3.41526,-5.72152 -6.68899,-11.53242 -10.27656,-17.148279 -0.21447,-0.332606 -0.53332,-0.648359 -0.96875,-0.548828 z"
       id="path1861"
       inkscape:connector-curvature="0"
       transform="translate(-31.000015,139.5051)" />
    <path
       style="fill:#e9ef34;fill-opacity:1;fill-rule:evenodd;stroke:none;stroke-width:0.25;stroke-linecap:butt;stroke-linejoin:round;stroke-miterlimit:4;stroke-dasharray:none;stroke-opacity:1"
       d="m 410.67856,75.931629 c -1.66362,0.05716 -2.6758,1.92062 -2.49007,3.440181 -0.13666,1.605163 1.25453,3.525589 3.00082,3.17481 1.52472,-0.405164 2.32476,-2.123815 2.125,-3.611084 0.0576,-1.434158 -1.0978,-3.057681 -2.63575,-3.003907 z"
       id="path1863"
       inkscape:connector-curvature="0"
       transform="translate(-31.000015,139.5051)" />
    <path
       style="fill:#e9ef34;fill-opacity:1;fill-rule:evenodd;stroke:none;stroke-width:0.25;stroke-linecap:butt;stroke-linejoin:round;stroke-miterlimit:4;stroke-dasharray:none;stroke-opacity:1"
       d="m 435.18369,66.802235 c -5.52634,3.0851 -10.94262,6.37624 -16.39619,9.592002 -1.13159,0.767439 -2.47335,1.304151 -3.41728,2.308144 -0.47432,0.854241 0.66167,1.288899 1.22964,1.619576 6.14034,3.633643 12.28382,7.261968 18.42636,10.891899 0.86138,0.380896 1.20451,-0.67054 1.04309,-1.342039 4.3e-4,-7.501305 0.0893,-15.004323 0.004,-22.504641 -0.10893,-0.396543 -0.4763,-0.665867 -0.88941,-0.564941 z"
       id="path1865"
       inkscape:connector-curvature="0"
       transform="translate(-31.000015,139.5051)" />
    <path
       style="fill:#e9ef34;fill-opacity:1;fill-rule:evenodd;stroke:none;stroke-width:0.25;stroke-linecap:butt;stroke-linejoin:round;stroke-miterlimit:4;stroke-dasharray:none;stroke-opacity:1"
       d="m 385.89683,66.823475 c -0.74821,0.54167 -0.33911,1.601828 -0.47485,2.382065 -0.0819,7.150053 -0.0338,14.300822 -0.0471,21.451187 0.11073,0.936601 1.19168,0.69533 1.68675,0.2125 6.35423,-3.755532 12.71142,-7.506174 19.06179,-11.268164 0.74255,-0.566142 -0.003,-1.357181 -0.64013,-1.575194 C 399.1723,74.27952 392.8585,70.53718 386.51746,66.84203 c -0.20848,-0.01527 -0.42158,-0.129526 -0.6206,-0.01855 z"
       id="path1867"
       inkscape:connector-curvature="0"
       transform="translate(-31.000015,139.5051)" />
    <path
       style="fill:#e9ef34;fill-opacity:1;fill-rule:evenodd;stroke:none;stroke-width:0.25;stroke-linecap:butt;stroke-linejoin:round;stroke-miterlimit:4;stroke-dasharray:none;stroke-opacity:1"
       d="m 408.06553,53.864979 c -2.99798,0.04167 -6.0058,-0.05589 -8.99756,0.131348 -0.82813,0.249623 -0.4821,1.204515 -0.0774,1.682912 3.71044,6.328395 7.43439,12.649111 11.19185,18.949656 0.55192,0.694493 1.31481,0.01613 1.52921,-0.605927 3.7507,-6.348055 7.49814,-12.69807 11.20956,-19.069122 0.33164,-0.806122 -0.59204,-1.172105 -1.24217,-1.042392 -4.53753,-0.05531 -9.07575,-0.04741 -13.61354,-0.04648 z"
       id="path1869"
       inkscape:connector-curvature="0"
       transform="translate(-31.000015,139.5051)" />
    <path
       style="fill:#f0121c;fill-opacity:1;fill-rule:evenodd;stroke:none;stroke-width:0.35355338;stroke-linecap:butt;stroke-linejoin:round;stroke-miterlimit:4;stroke-dasharray:none;stroke-opacity:1"
       d="m 409.18362,170.84068 c -4.41424,-0.0268 -8.83447,0.0704 -13.20471,0.75142 -1.10163,0.30335 -2.50381,-0.0268 -3.39331,0.77707 -0.10402,1.63121 0.49522,3.27944 0.65897,4.91287 0.8121,4.55757 1.47864,9.15427 2.43669,13.67838 0.81937,0.85988 2.22241,0.39505 3.28554,0.56686 8.73275,0.081 17.4662,0.026 26.19923,0.0425 1.11812,-0.38433 0.76819,-1.92309 1.11053,-2.86032 0.93054,-5.32492 1.88189,-10.64745 2.73091,-15.98573 -0.23924,-1.21069 -1.82148,-0.73515 -2.70278,-1.03864 -4.1096,-0.59671 -8.25047,-0.90501 -12.40438,-0.8365 -1.57221,-0.0101 -3.14445,-0.0127 -4.71669,-0.008 z"
       id="path1871"
       inkscape:connector-curvature="0"
       transform="translate(-31.000015,139.5051)" />
    <path
       style="fill:#f0121c;fill-opacity:1;fill-rule:evenodd;stroke:none;stroke-width:0.5;stroke-linecap:butt;stroke-linejoin:round;stroke-miterlimit:4;stroke-dasharray:none;stroke-opacity:1"
       d="m 449.72067,144.1735 c -5.15016,0.14677 -10.71333,3.6652 -11.41064,9.07031 -0.58118,3.90564 1.8133,7.62405 5.13477,9.50293 3.25231,2.09232 7.45833,2.14656 11.08007,1.1294 4.37778,-1.34618 8.29902,-5.49697 7.71485,-10.33106 -0.46466,-4.90938 -4.97342,-8.49862 -9.65772,-9.13965 -0.94338,-0.16771 -1.90273,-0.2569 -2.86133,-0.23193 z"
       id="path1873"
       inkscape:connector-curvature="0"
       transform="translate(-31.000015,139.5051)" />
    <path
       style="fill:#f0121c;fill-opacity:1;fill-rule:evenodd;stroke:none;stroke-width:0.5;stroke-linecap:butt;stroke-linejoin:round;stroke-miterlimit:4;stroke-dasharray:none;stroke-opacity:1"
       d="m 431.54636,172.5861 c -1.31,0.39624 -0.76976,2.35638 -1.23584,3.3833 -0.81178,5.00966 -1.89649,10.01648 -2.52326,15.03295 0.54283,1.08564 2.18116,0.5699 3.19515,0.8256 7.8753,0.40216 15.62952,1.78972 23.18309,4.13803 1.39236,-0.19351 1.23277,-2.16701 1.82835,-3.1479 1.24748,-3.7845 2.43359,-7.59647 3.56325,-11.41362 -0.39254,-1.34733 -2.22968,-1.44035 -3.29101,-2.07129 -7.98554,-3.05263 -16.24683,-5.53028 -24.71973,-6.74707 z"
       id="path1875"
       inkscape:connector-curvature="0"
       transform="translate(-31.000015,139.5051)" />
    <path
       style="fill:#f0121c;fill-opacity:1;fill-rule:evenodd;stroke:none;stroke-width:0.5;stroke-linecap:butt;stroke-linejoin:round;stroke-miterlimit:4;stroke-dasharray:none;stroke-opacity:1"
       d="m 461.86716,181.77702 c -1.19099,0.76248 -1.01795,2.57957 -1.64684,3.75947 -1.10279,3.64873 -2.43958,7.27916 -3.35974,10.95029 0.5278,1.13171 2.24931,1.25124 3.27123,1.95674 6.32712,2.9108 12.1675,6.82908 17.44189,11.42822 0.60849,0.77633 1.78069,0.78805 2.15039,-0.22607 2.9646,-4.38976 6.03723,-8.7495 8.6211,-13.36817 -0.27431,-1.3837 -2.07403,-1.78129 -3.01167,-2.68757 -4.11377,-2.70474 -8.16294,-5.54393 -12.46148,-7.94426 -2.3247,0.46942 -4.39245,-1.22053 -6.4834,-2.00083 -1.4982,-0.59057 -2.94586,-1.55094 -4.52148,-1.86782 z"
       id="path1877"
       inkscape:connector-curvature="0"
       transform="translate(-31.000015,139.5051)" />
    <path
       style="fill:#f0121c;fill-opacity:1;fill-rule:evenodd;stroke:none;stroke-width:0.5;stroke-linecap:butt;stroke-linejoin:round;stroke-miterlimit:4;stroke-dasharray:none;stroke-opacity:1"
       d="m 482.25339,161.09147 c -0.51267,3.0995 -0.80623,6.32377 -1.74093,9.37586 -1.1141,4.63961 -3.5667,8.74387 -6.18192,12.72765 -0.20333,1.39962 1.75024,1.72494 2.5351,2.57161 4.08295,2.72471 8.10232,5.57127 12.34576,8.03874 1.37217,0.003 1.59708,-1.86534 2.35947,-2.7363 4.62567,-8.1412 9.30265,-16.70894 10.24665,-26.18546 -0.004,-1.26303 0.26363,-2.61543 -0.1613,-3.80968 -2.75023,-0.45631 -5.66588,-0.0609 -8.479,-0.19336 -3.54583,0.0651 -7.14472,-0.13043 -10.65735,0.0977 l -0.2301,0.0977 z"
       id="path1879"
       inkscape:connector-curvature="0"
       transform="translate(-31.000015,139.5051)" />
    <path
       style="fill:#f0121c;fill-opacity:1;fill-rule:evenodd;stroke:none;stroke-width:0.5;stroke-linecap:butt;stroke-linejoin:round;stroke-miterlimit:4;stroke-dasharray:none;stroke-opacity:1"
       d="m 485.36276,132.2277 c -2.03485,1.5967 -3.44464,3.93612 -5.17871,5.86084 -2.28952,2.94699 -4.79511,5.78766 -6.92854,8.81648 0.14912,1.39316 1.94046,2.20299 2.7429,3.34805 2.19538,2.42404 4.88502,4.54782 6.48398,7.43117 -0.32253,1.93373 2.05708,1.20156 3.19483,1.32617 5.08295,-0.0666 10.21988,0.13188 15.26965,-0.0977 0.99532,-0.73099 -0.0572,-2.24163 -0.23606,-3.23925 -1.99963,-5.32722 -5.32743,-10.0157 -8.23183,-14.8715 -2.02692,-2.94613 -4.00663,-6.0219 -6.58985,-8.5044 -0.15484,-0.0775 -0.36106,-0.0376 -0.52637,-0.0698 z"
       id="path1881"
       inkscape:connector-curvature="0"
       transform="translate(-31.000015,139.5051)" />
    <path
       style="fill:#f0121c;fill-opacity:1;fill-rule:evenodd;stroke:none;stroke-width:0.5;stroke-linecap:butt;stroke-linejoin:round;stroke-miterlimit:4;stroke-dasharray:none;stroke-opacity:1"
       d="m 456.0239,116.63297 c -1.40937,0.41423 -0.80493,2.34049 -1.00489,3.43311 0.0351,5.4624 -0.22313,10.94766 0.15137,16.39697 0.38146,1.41136 2.30368,1.224 3.32673,1.96152 4.46363,1.8261 8.50595,4.36198 12.4013,7.23037 1.40275,0.18098 1.93373,-1.70516 2.87988,-2.45459 3.36386,-4.22227 6.87391,-8.35904 9.92188,-12.81396 0.0846,-1.34809 -1.6591,-1.93246 -2.44127,-2.82958 -5.76304,-4.98602 -12.78371,-8.40028 -20.23014,-9.98329 -1.65458,-0.35886 -3.31002,-0.83366 -5.00486,-0.94055 z"
       id="path1883"
       inkscape:connector-curvature="0"
       transform="translate(-31.000015,139.5051)" />
    <path
       style="fill:#f0121c;fill-opacity:1;fill-rule:evenodd;stroke:none;stroke-width:0.5;stroke-linecap:butt;stroke-linejoin:round;stroke-miterlimit:4;stroke-dasharray:none;stroke-opacity:1"
       d="m 422.77146,115.78727 c -0.4101,1.77487 0.38584,3.69997 0.42883,5.53102 0.53138,4.09955 0.99016,8.21084 1.61023,12.29759 0.80069,1.09082 2.49596,0.36139 3.66441,0.65389 7.8908,0.40047 15.84905,-0.033 23.54506,1.95646 1.44421,-0.18707 0.84414,-2.15094 1.04932,-3.14941 0.025,-5.47134 0.16037,-10.99531 -0.0499,-16.43371 -0.9643,-1.00963 -2.78929,-0.5273 -4.11427,-0.72317 -8.54338,-0.20645 -17.0897,-0.23569 -25.63467,-0.33873 -0.16634,0.0687 -0.33268,0.13737 -0.49902,0.20606 z"
       id="path1885"
       inkscape:connector-curvature="0"
       transform="translate(-31.000015,139.5051)" />
    <path
       style="fill:#f0121c;fill-opacity:1;fill-rule:evenodd;stroke:none;stroke-width:0.5;stroke-linecap:butt;stroke-linejoin:round;stroke-miterlimit:4;stroke-dasharray:none;stroke-opacity:1"
       d="m 400.97458,116.09147 c -0.93264,4.09499 -1.13067,8.39033 -1.76311,12.56335 -0.0984,2.13906 -0.88034,4.35487 -0.54451,6.44761 2.52531,4.58505 3.90046,9.64252 4.7959,14.74148 1.03673,1.03205 2.81353,0.41531 4.125,0.65137 3.33315,-0.0342 6.71854,0.13958 10.01819,-0.0826 0.97834,-0.92464 0.59978,-2.73732 1.08736,-4.00278 0.82685,-4.11439 2.37941,-8.01098 4.29932,-11.70301 -0.63969,-6.07109 -1.49639,-12.14839 -2.21932,-18.22186 -0.84366,-1.26369 -2.86352,-0.30554 -4.18457,-0.60449 -5.10909,0.0662 -10.27192,-0.13164 -15.34778,0.0977 l -0.2301,0.0978 z"
       id="path1887"
       inkscape:connector-curvature="0"
       transform="translate(-31.000015,139.5051)" />
    <path
       style="fill:#f0121c;fill-opacity:1;fill-rule:evenodd;stroke:none;stroke-width:0.5;stroke-linecap:butt;stroke-linejoin:round;stroke-miterlimit:4;stroke-dasharray:none;stroke-opacity:1"
       d="m 404.05564,152.59147 c -0.4617,2.80424 -0.0804,5.77051 -0.23629,8.6386 0.0164,2.42218 -0.17842,4.85838 -0.29604,7.25456 0.76581,1.13117 2.65683,0.24621 3.86387,0.52578 3.31588,-0.0649 6.68467,0.13003 9.9674,-0.0977 1.00841,-0.93794 0.19,-2.80094 0.44326,-4.09558 -0.0849,-3.98545 0.0936,-8.02583 -0.15454,-11.97722 -0.93928,-1.00348 -2.79779,-0.1991 -4.09108,-0.45772 -3.0698,0.0657 -6.19384,-0.13464 -9.2301,0.0961 l -0.2301,0.0977 z"
       id="path1889"
       inkscape:connector-curvature="0"
       transform="translate(-31.000015,139.5051)" />
    <path
       style="fill:#f0121c;fill-opacity:1;fill-rule:evenodd;stroke:none;stroke-width:0.5;stroke-linecap:butt;stroke-linejoin:round;stroke-miterlimit:4;stroke-dasharray:none;stroke-opacity:1"
       d="m 389.67917,115.69108 c -6.64115,0.0988 -13.30299,-0.0446 -19.92985,0.38343 -1.97819,-0.0303 -1.06101,2.32614 -1.26204,3.55065 0.0659,5.40309 -0.13116,10.85971 0.0977,16.22961 0.68613,1.01237 2.10601,-0.13655 3.10685,-0.12316 8.08649,-1.63789 16.45579,-1.10974 24.64542,-1.62904 0.97565,-0.99856 0.50955,-2.88388 0.90434,-4.2237 0.47385,-4.51797 1.29672,-9.06481 1.54758,-13.56905 -0.50698,-1.06697 -2.11729,-0.38044 -3.07146,-0.60849 -2.01282,-0.0173 -4.02571,-0.0159 -6.03858,-0.0102 z"
       id="path1891"
       inkscape:connector-curvature="0"
       transform="translate(-31.000015,139.5051)" />
    <path
       style="fill:#f0121c;fill-opacity:1;fill-rule:evenodd;stroke:none;stroke-width:0.5;stroke-linecap:butt;stroke-linejoin:round;stroke-miterlimit:4;stroke-dasharray:none;stroke-opacity:1"
       d="m 370.72068,144.1735 c -5.15017,0.14677 -10.71334,3.6652 -11.41065,9.07031 -0.58118,3.90564 1.8133,7.62405 5.13477,9.50293 3.25231,2.09232 7.45833,2.14656 11.08007,1.1294 4.37778,-1.34618 8.29902,-5.49697 7.71485,-10.33106 -0.46466,-4.90938 -4.97342,-8.49862 -9.65772,-9.13965 -0.94338,-0.16771 -1.90273,-0.2569 -2.86132,-0.23193 z"
       id="path1893"
       inkscape:connector-curvature="0"
       transform="translate(-31.000015,139.5051)" />
    <path
       style="fill:#f0121c;fill-opacity:1;fill-rule:evenodd;stroke:none;stroke-width:0.5;stroke-linecap:butt;stroke-linejoin:round;stroke-miterlimit:4;stroke-dasharray:none;stroke-opacity:1"
       d="m 365.84616,116.58805 c -7.06711,0.98297 -14.07571,3.08796 -20.1355,6.93712 -2.80906,1.85475 -5.68824,3.82546 -7.82055,6.45302 -0.25332,1.34638 1.41083,2.21692 1.95785,3.32768 3.2369,4.10274 6.46626,8.21454 9.80338,12.23579 1.22318,0.57179 2.17008,-1.05059 3.18964,-1.49496 4.01528,-2.77824 8.49568,-5.20163 13.19854,-6.77652 1.00306,-1.03471 0.20685,-2.81417 0.47631,-4.14299 -0.0292,-5.35369 0.20341,-10.7588 0.0111,-16.08049 -0.0107,-0.34616 -0.42515,-0.41006 -0.68079,-0.45865 z"
       id="path1895"
       inkscape:connector-curvature="0"
       transform="translate(-31.000015,139.5051)" />
    <path
       style="fill:#f0121c;fill-opacity:1;fill-rule:evenodd;stroke:none;stroke-width:0.5;stroke-linecap:butt;stroke-linejoin:round;stroke-miterlimit:4;stroke-dasharray:none;stroke-opacity:1"
       d="m 335.60251,132.05143 c -5.55826,6.46705 -9.99585,13.82879 -13.89746,21.38672 -0.69969,1.66935 -1.54014,3.41855 -1.6001,5.22461 1.39388,0.79994 3.2692,0.12532 4.84912,0.34765 4.561,-0.0658 9.17552,0.13141 13.70325,-0.0977 0.79473,-0.43326 0.19497,-1.6698 0.97595,-2.26163 2.48294,-3.42811 5.81728,-6.11958 8.61573,-9.26436 0.012,-1.40405 -1.70118,-2.39838 -2.38016,-3.62184 -3.1878,-3.88704 -6.20284,-7.9808 -9.49752,-11.73993 -0.23062,-0.28483 -0.50776,-0.0106 -0.76881,0.0265 z"
       id="path1897"
       inkscape:connector-curvature="0"
       transform="translate(-31.000015,139.5051)" />
    <path
       style="fill:#f0121c;fill-opacity:1;fill-rule:evenodd;stroke:none;stroke-width:0.5;stroke-linecap:butt;stroke-linejoin:round;stroke-miterlimit:4;stroke-dasharray:none;stroke-opacity:1"
       d="m 319.68064,161.09147 c -0.54515,3.14696 0.25754,6.44054 1.01562,9.52539 2.36486,8.25397 6.42512,15.93114 10.92334,23.19824 1.25146,0.48663 2.2267,-1.09833 3.32923,-1.52984 4.05638,-2.75988 8.29313,-5.32633 12.22417,-8.23003 0.40282,-1.13525 -1.01698,-2.08103 -1.433,-3.07154 -3.79334,-5.69076 -5.78369,-12.67877 -6.41337,-19.49183 -0.83459,-1.27449 -2.8649,-0.3113 -4.18554,-0.61133 -5.05803,0.0652 -10.16911,-0.13032 -15.19397,0.0977 l -0.2301,0.0977 z"
       id="path1899"
       inkscape:connector-curvature="0"
       transform="translate(-31.000015,139.5051)" />
    <path
       style="fill:#f0121c;fill-opacity:1;fill-rule:evenodd;stroke:none;stroke-width:0.5;stroke-linecap:butt;stroke-linejoin:round;stroke-miterlimit:4;stroke-dasharray:none;stroke-opacity:1"
       d="m 359.32566,181.74479 c -3.23434,1.2152 -6.24635,3.14779 -9.52637,4.08691 -1.5597,-0.67999 -2.91454,1.01883 -4.2332,1.61096 -4.08794,2.71562 -8.27289,5.32565 -12.18184,8.28748 -0.38481,1.3265 1.07948,2.39309 1.55035,3.54788 2.44745,3.77008 4.79131,7.66888 7.41,11.28846 1.31462,0.39126 2.19616,-1.52156 3.30034,-2.08348 5.54351,-4.73994 11.91835,-8.43424 18.57671,-11.41643 0.77879,-1.16565 -0.43494,-2.61787 -0.55465,-3.87294 -1.17826,-3.73445 -2.21164,-7.56822 -3.57862,-11.20852 -0.11579,-0.33457 -0.50218,-0.23401 -0.76272,-0.24032 z"
       id="path1901"
       inkscape:connector-curvature="0"
       transform="translate(-31.000015,139.5051)" />
    <path
       style="fill:#f0121c;fill-opacity:1;fill-rule:evenodd;stroke:none;stroke-width:0.5;stroke-linecap:butt;stroke-linejoin:round;stroke-miterlimit:4;stroke-dasharray:none;stroke-opacity:1"
       d="m 389.43503,172.69401 c -6.50671,0.90503 -12.86809,2.74367 -19.10956,4.76854 -2.81831,1.05413 -5.83682,1.87534 -8.42284,3.35338 0.44214,2.90456 1.74794,5.76131 2.53045,8.64761 0.72884,2.06753 1.18417,4.24598 2.04931,6.25732 1.16356,0.70008 2.57532,-0.48273 3.81885,-0.59277 7.3307,-2.14188 14.85164,-3.0176 22.4502,-3.49658 1.59258,-0.15757 0.8178,-1.98122 0.6611,-2.9534 -1.00477,-5.17522 -1.63546,-10.44781 -2.91745,-15.56272 -0.21971,-0.36669 -0.67013,-0.4373 -1.06006,-0.42138 z"
       id="path1903"
       inkscape:connector-curvature="0"
       transform="translate(-31.000015,139.5051)" />
    <path
       style="fill:#ffffff;fill-opacity:1;fill-rule:evenodd;stroke:none;stroke-width:0.02209709;stroke-linecap:butt;stroke-linejoin:round;stroke-miterlimit:4;stroke-dasharray:none;stroke-opacity:1"
       d="m 153.39216,519.06406 c -1.9238,0.008 -3.87069,0.20732 -5.69589,0.84452 -1.21342,0.41978 -2.34755,1.05904 -3.34576,1.86555 -0.84455,0.67049 -1.5785,1.46362 -2.34397,2.21959 -0.34468,0.33852 -0.68167,0.68821 -1.0559,0.99392 -0.21981,0.10352 -0.44858,0.19447 -0.65202,0.3279 -0.19734,0.14498 -0.29006,0.39599 -0.27243,0.63595 5.8e-4,2.65527 -0.001,5.31063 8.7e-4,7.96584 6.1e-4,0.32003 0.25066,0.61562 0.56697,0.66675 0.24186,0.026 0.487,0.006 0.73019,0.0119 3.26775,-0.002 6.53559,-0.002 9.80328,-0.006 0.29973,-10e-4 0.57501,-0.21877 0.65534,-0.50597 0.36,-1.02088 0.48347,-2.12505 0.34592,-3.19942 -0.12481,-1.01966 -0.4835,-2.00691 -1.02423,-2.8791 -0.82172,-1.31691 -2.05784,-2.36226 -3.4785,-2.98245 0.84277,-0.25335 1.71291,-0.44587 2.59593,-0.46234 0.4545,-0.009 0.91083,0.01 1.35855,0.0936 1.33442,0.2268 2.55939,0.88019 3.62622,1.6946 0.58547,0.44408 1.13303,0.94861 1.65372,1.47536 0.13566,0.16494 0.32347,0.30121 0.54356,0.31068 0.33349,0.0322 0.66262,-0.2168 0.72427,-0.54598 0.0323,-0.22143 0.008,-0.44737 0.0158,-0.6707 -3.8e-4,-2.30992 0.002,-4.61993 -2.7e-4,-6.92979 -6e-4,-0.32004 -0.25059,-0.61565 -0.56691,-0.66681 -0.53745,-0.0672 -1.07783,-0.11464 -1.61787,-0.15812 -0.85401,-0.0646 -1.71036,-0.10191 -2.56691,-0.0994 z m -7.93885,5.33753 c 0.23491,0.0328 0.4672,0.0808 0.6988,0.13079 -0.0979,-0.0169 0.0615,0.0126 0.0862,0.036 0.1228,0.04 0.19511,0.15798 0.29346,0.23576 0.0512,0.0936 0.0784,0.2032 0.12047,0.30289 -0.003,0.0777 -0.0203,0.15292 -0.0839,0.20397 -0.0545,0.11574 0.0726,0.008 0.0446,0.0907 -0.005,0.094 -0.079,0.16687 -0.12434,0.24478 -0.12453,0.13423 -0.29467,0.23089 -0.48139,0.23291 -0.19798,-0.003 -0.38687,-0.0725 -0.58248,-0.0972 -0.13534,-0.0114 -0.25801,-0.0708 -0.37,-0.14317 -0.1013,-0.0504 -0.14983,-0.16433 -0.22742,-0.24328 -0.0411,-0.0806 -0.06,-0.17676 -0.0822,-0.26476 -0.003,-0.1549 0.0202,-0.31593 0.11676,-0.44247 0.12867,-0.1917 0.36029,-0.30668 0.59148,-0.28685 z m 0.006,0.007 c 0.002,2.1e-4 0.0145,-2.7e-4 0,0 z m 0.0175,2.2e-4 c 0.0128,2.7e-4 -0.01,-4.1e-4 0,0 z m -0.0418,5.4e-4 c 0.002,1.5e-4 0.0121,-8.5e-4 0,0 z m 0.0701,9.2e-4 c 0.01,6.5e-4 -0.008,-7.7e-4 0,0 z m -0.0997,10e-4 c 0.002,1.6e-4 0.01,-10e-4 0,0 z m -0.0535,0.008 c 0.001,2.3e-4 0.008,-0.002 0,0 z m 0.22472,0.002 c 0.009,5.6e-4 -0.007,-6.4e-4 0,0 z m 0.0502,0.01 c 0.004,10e-4 -0.004,-0.001 0,0 z m 0.0108,7.5e-4 c 0.01,6.5e-4 -0.008,-7.7e-4 0,0 z m -0.40351,0.0205 c 9.3e-4,2.1e-4 0.004,-0.002 0,0 z m 0.52524,8e-4 c 0.005,0.001 -0.004,-10e-4 0,0 z m 0.0722,0.0142 c 0.005,10e-4 -0.004,-0.001 0,0 z m 0.0554,0.009 c 0.005,10e-4 -0.003,-0.001 0,0 z m 0.0248,0.005 c 0.007,9.9e-4 -0.005,-9.9e-4 0,0 z m 0.0855,0.0187 c 0.005,10e-4 -0.004,-10e-4 0,0 z m 0.0172,0.003 c 0.007,9.4e-4 -0.005,-8.6e-4 0,0 z m 0.0824,0.017 c 0.005,10e-4 -0.003,-10e-4 0,0 z m -1.04493,0.0362 c 3.5e-4,3e-5 0.001,-10e-4 0,0 z m 1.20703,0.0314 c 0.003,0.002 -0.002,-10e-4 0,0 z m -1.39842,0.21031 c 3.4e-4,-6e-5 2.4e-4,-10e-4 0,0 z m 1.62655,0.004 c 6.2e-4,7.5e-4 -4.6e-4,-8.7e-4 0,0 z m 0.10991,0.29298 c 2e-4,9.2e-4 -1e-5,-8.6e-4 0,0 z m -1.78093,0.17369 c 1.9e-4,-2.8e-4 -5.3e-4,-0.001 0,0 z m 1.71824,0.0754 c -0.007,0.007 0.008,-0.007 0,0 z m 0.0154,0.10509 c -1.8e-4,8.3e-4 5.2e-4,-10e-4 0,0 z m -1.57481,0.11109 c -6e-5,-3.9e-4 -0.001,-9.8e-4 0,0 z m 1.46659,0.0667 c -7e-4,9.8e-4 9.1e-4,-9.5e-4 0,0 z m -1.23362,0.0943 c -5.8e-4,-5.3e-4 -0.003,-7.3e-4 0,0 z m 1.09707,0.0297 c -0.002,0.002 0.004,-0.002 0,0 z m -0.97465,0.007 c -0.001,-8.5e-4 -0.007,-0.002 0,0 z m 0.19754,0.0398 c -0.002,-5.1e-4 -0.009,-7.6e-4 0,0 z m 0.033,0.007 c -0.001,-6e-4 -0.005,-10e-4 0,0 z m 0.64418,0.003 c -0.004,0.002 0.006,-0.003 0,0 z m -0.49748,0.024 c -7.1e-4,-3.5e-4 -0.003,-10e-6 0,0 z m 0.42996,0.003 c -0.005,0.002 0.006,-0.002 0,0 z m -0.41093,0.004 c -0.001,-5.9e-4 -0.005,-10e-4 0,0 z m 0.35014,0.0133 c -0.006,10e-4 0.005,-10e-4 0,0 z m -0.0697,0.0121 c -0.005,7.8e-4 0.006,-5.3e-4 0,0 z m -0.14333,10e-4 c -0.001,-4.4e-4 -0.006,-3.1e-4 0,0 z m 0.0735,0.003 c 0.007,2.2e-4 0.001,-3.2e-4 0,0 z"
       id="path2324"
       inkscape:connector-curvature="0"
       transform="translate(-31.000015,139.5051)" />
    <path
       style="fill:#ffffff;fill-opacity:1;fill-rule:evenodd;stroke:none;stroke-width:0.02209709;stroke-linecap:butt;stroke-linejoin:round;stroke-miterlimit:4;stroke-dasharray:none;stroke-opacity:1"
       d="m 145.95056,524.15785 c -0.22727,0.0516 -0.4395,0.15399 -0.65869,0.23153 -0.21356,0.0668 -0.41209,0.20911 -0.49699,0.42226 -0.12839,0.29485 -0.0159,0.66885 0.2562,0.84139 0.20369,0.13887 0.46064,0.13127 0.69107,0.19411 0.19385,0.0529 0.40932,0.0628 0.58976,-0.0387 0.24237,-0.12218 0.38256,-0.39297 0.37731,-0.66021 -3.6e-4,-0.11191 0.051,-0.21796 0.0395,-0.33158 -0.006,-0.33539 -0.28759,-0.63875 -0.62337,-0.66218 -0.0582,-0.0112 -0.11645,7e-5 -0.17478,0.003 z"
       id="path2326"
       inkscape:connector-curvature="0"
       transform="translate(-31.000015,139.5051)" />
  </g>
  <g
     inkscape:groupmode="layer"
     id="layer9"
     inkscape:label="new"
     style="display:inline;opacity:0.98">
    <path
       style="display:inline;fill:#000000;fill-opacity:1;fill-rule:evenodd;stroke:#000000;stroke-width:3;stroke-linecap:butt;stroke-linejoin:round;stroke-miterlimit:4;stroke-dasharray:none;stroke-opacity:1"
       d="m 224.99999,815 c -12.52512,9.97978 -37.98816,9.54609 -37.5,30 24.33917,-1.10014 35.24982,0.85218 47.5,2.5 0.92663,-1.94668 13.62388,-12.34522 22.5,-20 -14.29002,-0.42155 -29.0705,-0.31171 -32.5,-12.5 z"
       id="path908"
       inkscape:connector-curvature="0"
       sodipodi:nodetypes="ccccc" />
    <path
       style="display:inline;fill:none;fill-opacity:1;fill-rule:evenodd;stroke:#000000;stroke-width:3;stroke-linecap:butt;stroke-linejoin:round;stroke-miterlimit:4;stroke-dasharray:none;stroke-opacity:1"
       d="m 257.49999,827.5 c 1.19329,-18.56984 -10.01091,-14.27917 -15,-20 11.12086,5.51874 12.83775,1.27828 15,-2.5 -1.38523,-85.57648 41.62905,-71.76224 41.68376,-104.35533 0.0523,-31.14391 23.31693,-17.09847 23.31624,-55.64467"
       id="path910"
       inkscape:connector-curvature="0"
       sodipodi:nodetypes="cccsc" />
    <path
       style="display:inline;fill:none;fill-opacity:1;fill-rule:evenodd;stroke:#000000;stroke-width:3;stroke-linecap:butt;stroke-linejoin:round;stroke-miterlimit:4;stroke-dasharray:none;stroke-opacity:1"
       d="m 224.99999,815 c 31.55971,-22.26242 20,-97.5 43.24125,-154.91335 C 276.19353,640.44192 262.25009,622.5 297.25009,590"
       id="path914"
       inkscape:connector-curvature="0"
       sodipodi:nodetypes="csc" />
    <path
       style="display:inline;fill:#000000;fill-opacity:1;fill-rule:evenodd;stroke:#000000;stroke-width:3;stroke-linecap:butt;stroke-linejoin:round;stroke-miterlimit:4;stroke-dasharray:none;stroke-opacity:1"
       d="m 197.5,722.5 c 9.02031,17.63979 1.09692,27.89739 -8.19751,37.35917 C 184.36733,764.88318 181.17608,768.2067 180,780 c -6.66667,2 -13.33333,2 -20,0 -2.23939,-14.60013 2.25989,-22.94399 5,-27.5 12.56019,-8.44976 21.99267,-19.70734 32.5,-30 z"
       id="path919"
       inkscape:connector-curvature="0"
       sodipodi:nodetypes="ccsccc" />
    <path
       style="display:inline;fill:none;fill-opacity:1;fill-rule:evenodd;stroke:#000000;stroke-width:3;stroke-linecap:butt;stroke-linejoin:round;stroke-miterlimit:4;stroke-dasharray:none;stroke-opacity:1"
       d="m 197.5,722.5 c -0.56168,-9.39562 2.88187,-16.97839 3.11631,-24.50719 C 202.5,637.5 211,644 243.5,631.5"
       id="path921"
       inkscape:connector-curvature="0"
       sodipodi:nodetypes="csc" />
    <path
       style="display:inline;fill:none;fill-opacity:1;fill-rule:evenodd;stroke:#000000;stroke-width:3;stroke-linecap:butt;stroke-linejoin:round;stroke-miterlimit:4;stroke-dasharray:none;stroke-opacity:1"
       d="m 164,755 c 3.57659,-22.57727 11,-32.5 11.96091,-55.82058 C 179.84756,604.8533 200.5,624.5 228.5,603"
       id="path940"
       inkscape:connector-curvature="0"
       sodipodi:nodetypes="csc" />
    <path
       style="display:inline;fill:#000000;fill-opacity:1;fill-rule:evenodd;stroke:#000000;stroke-width:3;stroke-linecap:butt;stroke-linejoin:round;stroke-miterlimit:4;stroke-dasharray:none;stroke-opacity:1"
       d="m 537.5,835 c 0,9.66667 8.19756,27.37197 0,29 -14.75232,-7.48849 -32.34085,-4.17123 -50,5 -14.80125,-22.26126 20.01376,-36.91855 22.5,-36.5 10.88355,5.87282 20.02562,6.63397 27.5,2.5 z"
       id="path950"
       inkscape:connector-curvature="0"
       sodipodi:nodetypes="ccccc" />
    <path
       style="display:inline;fill:none;fill-opacity:1;fill-rule:evenodd;stroke:#000000;stroke-width:3;stroke-linecap:butt;stroke-linejoin:round;stroke-miterlimit:4;stroke-dasharray:none;stroke-opacity:1"
       d="m 509.5,832.5 c -2.14846,-12.67044 14.62518,-25.74522 24.49095,-48.64444 C 547.5,752.5 566.47286,757.28939 512,705"
       id="path954"
       inkscape:connector-curvature="0"
       sodipodi:nodetypes="csc" />
    <path
       style="display:inline;fill:none;fill-opacity:1;fill-rule:evenodd;stroke:#000000;stroke-width:3;stroke-linecap:butt;stroke-linejoin:round;stroke-miterlimit:4;stroke-dasharray:none;stroke-opacity:1"
       d="m 537.5,835 c 12.59953,-83.36325 50.25369,-70.2123 59.61612,-92.11612 C 603.4428,728.08233 575,727.5 578.27959,699.5407 579.8805,685.89247 612.5,667.5 617.5,632.5 621.40093,604.37607 607.66461,588.19259 600,565 c 7.00838,12.94623 16.01808,24.50193 25,32.5 15.48713,-1.91376 -4.76085,-59.76034 -41.67649,-62.44935 -0.27359,-0.0199 -2.82351,-0.0507 -3.32351,-0.0507"
       id="path958"
       inkscape:connector-curvature="0"
       sodipodi:nodetypes="csscccsc" />
    <path
       style="display:inline;fill:#000000;fill-opacity:1;fill-rule:evenodd;stroke:#000000;stroke-width:3;stroke-linecap:butt;stroke-linejoin:round;stroke-miterlimit:4;stroke-dasharray:none;stroke-opacity:1"
       d="m 475,817.5 c 2.50641,7.87596 4.07855,15.61178 0,22.5 -15.69553,-3.15789 -25.36149,9.23975 -45,7.5 -20.0006,-19.26794 1.72668,-22.91131 12.5,-32.5 14.21477,4.62282 22.21704,1.57416 32.5,2.5 z"
       id="path943"
       inkscape:connector-curvature="0"
       sodipodi:nodetypes="ccccc" />
    <path
       style="display:inline;fill:none;fill-opacity:1;fill-rule:evenodd;stroke:#000000;stroke-width:3;stroke-linecap:butt;stroke-linejoin:round;stroke-miterlimit:4;stroke-dasharray:none;stroke-opacity:1"
       d="m 473,817 c 16.88113,-11.47917 18.25,-9.75 21.0929,-29.18385 1.99838,-13.66079 14.30679,-28.1743 27.61985,-40.82591 C 527.22914,741.74793 520,725 497.5,670 c 0.72288,-12.5678 -0.18897,-25.8661 -2.5,-40"
       id="path945"
       inkscape:connector-curvature="0"
       sodipodi:nodetypes="csscc" />
    <path
       style="display:inline;fill:none;fill-opacity:1;fill-rule:evenodd;stroke:#000000;stroke-width:3;stroke-linecap:butt;stroke-linejoin:round;stroke-miterlimit:4;stroke-dasharray:none;stroke-opacity:1"
       d="M 442.5,815 C 517.89071,729.82208 457.69477,739.73091 460,689.5"
       id="path947"
       inkscape:connector-curvature="0"
       sodipodi:nodetypes="cc" />
    <path
       style="fill:none;fill-opacity:1;fill-rule:evenodd;stroke:#000000;stroke-width:3;stroke-linecap:butt;stroke-linejoin:round;stroke-miterlimit:4;stroke-dasharray:none;stroke-opacity:1"
       d="m 497.5,665 c -57.18786,53.70085 -139.36568,41.17684 -194,19"
       id="path1001"
       inkscape:connector-curvature="0"
       sodipodi:nodetypes="cc" />
    <path
       style="fill:none;fill-opacity:1;fill-rule:evenodd;stroke:#000000;stroke-width:3;stroke-linecap:butt;stroke-linejoin:round;stroke-miterlimit:4;stroke-dasharray:none;stroke-opacity:1"
       d="m 265,667.5 c -12.5,-10 -19.25,-22 -21.68985,-39.64549 C 241.40993,614.11175 235.75,611.5 225.54667,597.93955 216.30333,585.65495 189.39151,573.19272 181,566"
       id="path1003"
       inkscape:connector-curvature="0"
       sodipodi:nodetypes="cssc" />
    <path
       style="fill:none;fill-opacity:1;fill-rule:evenodd;stroke:#000000;stroke-width:3;stroke-linecap:butt;stroke-linejoin:round;stroke-miterlimit:4;stroke-dasharray:none;stroke-opacity:1"
       d="m 581,535 c -86,0 -154.01564,-0.45863 -208.31909,-0.46791 -39.79306,-0.007 -73.26404,-26.56764 -99.03154,-26.52905 -35.00032,0.0524 -56.07695,-8.40405 -66.8842,-17.15209"
       id="path1007"
       inkscape:connector-curvature="0"
       sodipodi:nodetypes="cssc" />
    <path
       style="fill:none;fill-opacity:1;fill-rule:evenodd;stroke:#000000;stroke-width:3;stroke-linecap:butt;stroke-linejoin:round;stroke-miterlimit:4;stroke-dasharray:none;stroke-opacity:1"
       d="m 127.5,482.5 c -5,-5 -10.81128,-12.2733 -14.23332,-22.96304 C 75,340 100,200 150,180 c -10.50754,21.68545 -19.18738,44.28869 -22.5,67.5 11.07823,-12.42511 20.32085,-27.12966 32.5,-32.5 0,2.5 -0.14316,6.81087 -2.07553,9.57396 C 140.91139,248.90092 119.41425,282.38069 122.5,307.5 c 7.11047,-10.0289 15.70718,-19.43457 27.5,-27.5 -8.33333,28.33333 -35.86087,36.99794 -25,85 6.14696,-10.50944 15.13264,-19.60061 22.5,-25 -8.27347,25.30314 -16.26475,53.04445 -15,85 5.93902,-18.6778 4.88399,-40.66659 20,-55 9.46181,-6.82278 -11.018,41.17414 -10,102.5"
       id="path1045"
       inkscape:connector-curvature="0"
       sodipodi:nodetypes="cscccsccccccc" />
    <path
       style="fill:none;fill-opacity:1;fill-rule:evenodd;stroke:#000000;stroke-width:3;stroke-linecap:butt;stroke-linejoin:round;stroke-miterlimit:4;stroke-dasharray:none;stroke-opacity:1"
       d="M 212.5,488.5 C 335.65244,420.49436 335,300 327.5,200 L 315,240 c -4.86861,-9.32007 -12.18873,-19.12123 -25,-30 3.19468,27.91516 23.54255,47.9287 12.5,87.5 -1.67036,-16.5551 -10.17207,-31.9258 -17.5,-47.5 6.61162,37.96923 9.9253,79.02163 7,127.5 -1.57423,-10.00955 0.93437,-20.07044 -7,-30 1.18006,36.18123 -24.01628,66.36139 -45,97.5 -1.60284,-4.67387 -2.5,-15 -7.5,-32.5 -3.3501,25.90764 -3.33775,33.81861 -30,65"
       id="path1047"
       inkscape:connector-curvature="0"
       sodipodi:nodetypes="ccccccccccc" />
    <path
       style="display:inline;fill:none;fill-opacity:1;fill-rule:evenodd;stroke:#000000;stroke-width:3;stroke-linecap:butt;stroke-linejoin:round;stroke-miterlimit:4;stroke-dasharray:none;stroke-opacity:1"
       d="m 197.5,517.5 c 3.6982,7.01889 2.43303,14.97758 3.39235,20.45828 C 204.6853,559.62782 172.5,570 147.7857,581.35816 136.43803,586.57331 118.34987,600.99141 107.5,612.5 c -1.04516,-2.02101 -3.91431,-1.53841 -4.8082,-3.58872 C 99.44814,601.4714 100.112,590.14423 115,585"
       id="path1010"
       inkscape:connector-curvature="0"
       sodipodi:nodetypes="csscsc" />
    <path
       style="display:inline;fill:none;fill-opacity:1;fill-rule:evenodd;stroke:#000000;stroke-width:3;stroke-linecap:butt;stroke-linejoin:round;stroke-miterlimit:4;stroke-dasharray:none;stroke-opacity:1"
       d="m 101,602.5 c -3.63963,-1.18408 -12.54731,-2.75138 -12.96822,-5.06278 -1.40961,-7.74082 6.59579,-13.12795 2.8587,-13.5662 -23.38895,-2.74284 0.60118,-18.47503 16.12043,-40.99396 C 114.07973,532.61997 124,515 124,505 c 34.51494,-13.80391 61.04813,-15.61202 71,7.5 8.81368,-4.36184 2.22173,-11.05181 4.67105,-11.44243 C 235.17615,495.39519 189.9253,469.5893 182.94229,467.5 113.948,464.13389 121.34057,504.08831 123.5,505"
       id="path1014"
       inkscape:connector-curvature="0"
       sodipodi:nodetypes="csssccscc" />
    <path
       style="display:inline;fill:#000000;fill-opacity:1;fill-rule:evenodd;stroke:none;stroke-width:0.53033006;stroke-linecap:butt;stroke-linejoin:round;stroke-miterlimit:4;stroke-dasharray:none;stroke-opacity:1"
       d="m 177.69168,468.4308 c -11.44643,-0.004 -23.18105,0.52713 -33.96172,4.75551 -7.49689,2.89523 -14.70989,7.8869 -18.16328,15.3722 -1.96827,4.49209 -2.98364,9.65081 -1.8095,14.48738 0.38333,1.13766 1.62683,0.20838 2.33319,-0.019 11.16459,-4.21369 22.6578,-7.99723 34.5915,-9.01991 7.96814,-0.66886 16.42774,-0.0373 23.45994,4.14305 4.66158,2.67006 8.27704,6.92824 10.79768,11.64339 0.27064,0.74625 1.22129,1.10424 1.73221,0.35666 2.02619,-1.52569 2.32315,-4.33871 1.62206,-6.62049 -0.19146,-1.04621 -0.55224,-2.78912 0.68639,-3.30835 4.01586,-1.05815 8.53613,-1.54554 11.72872,-4.46189 0.37544,-0.92161 -0.97895,-1.25718 -1.48292,-1.77951 -0.95189,-0.66353 -1.93081,-1.29704 -2.81151,-2.05537 0.6944,-0.66787 1.26082,-2.35699 2.20571,-1.01684 0.97878,0.57476 1.80057,1.6228 2.95189,1.81544 1.00091,-0.38683 0.13809,-1.61393 -0.0686,-2.28215 -1.95452,-4.44213 -5.87661,-7.57441 -9.55142,-10.55884 -5.55431,-4.24901 -11.57153,-7.93681 -17.96816,-10.77147 -2.00423,-0.74978 -4.18886,-0.65597 -6.29214,-0.67983 z"
       id="path1034"
       inkscape:connector-curvature="0" />
    <ellipse
       style="display:inline;fill:#000000;fill-opacity:1;fill-rule:evenodd;stroke:none;stroke-width:3;stroke-linecap:butt;stroke-linejoin:round;stroke-miterlimit:4;stroke-dasharray:none;stroke-opacity:1"
       id="path1036"
       cx="144.25"
       cy="531.75"
       rx="7.25"
       ry="6.75" />
    <path
       style="display:inline;fill:#000000;fill-opacity:1;fill-rule:evenodd;stroke:none;stroke-width:3;stroke-linecap:butt;stroke-linejoin:round;stroke-miterlimit:4;stroke-dasharray:none;stroke-opacity:1"
       d="m 140,526.5 c 4.29965,-2.42201 4.5,-8 17.5,-6.5 1.25711,2.73571 1.40779,5.26396 0,7.5 -7.19461,-7.49752 -11.8513,-1.07054 -17.5,-1 z"
       id="path1038"
       inkscape:connector-curvature="0"
       sodipodi:nodetypes="cccc" />
    <path
       style="display:inline;fill:none;fill-opacity:1;fill-rule:evenodd;stroke:#000000;stroke-width:3;stroke-linecap:butt;stroke-linejoin:round;stroke-miterlimit:4;stroke-dasharray:none;stroke-opacity:1"
       d="m 182.5,467.5 10,-67.5 32.5,5 2.5,-22.5 -30,-2.5 5,-17.5 -22.5,-2.5 -5,17.5 -20,-2.5 -2.5,20 17.5,2.5 -12.5,70"
       id="path1042"
       inkscape:connector-curvature="0" />
    <path
       style="display:inline;opacity:0.37000002;fill:none;fill-opacity:1;fill-rule:evenodd;stroke:#000000;stroke-width:0;stroke-linecap:butt;stroke-linejoin:round;stroke-miterlimit:4;stroke-dasharray:none;stroke-opacity:1"
       d="M 457.5,500 470,525"
       id="path892"
       inkscape:connector-curvature="0" />
    <path
       style="fill:#e9ef34;fill-opacity:1;fill-rule:evenodd;stroke:#000000;stroke-width:3;stroke-linecap:butt;stroke-linejoin:round;stroke-miterlimit:4;stroke-dasharray:none;stroke-opacity:1"
       d="M 387.5,280 C 510.23329,295.25546 512.18768,361.30155 490,437.5 594.41877,350.42702 534.8048,225.97875 387.5,280 Z"
       id="path1449"
       inkscape:connector-curvature="0"
       sodipodi:nodetypes="ccc" />
    <path
       style="fill:none;fill-opacity:1;fill-rule:evenodd;stroke:#000000;stroke-width:3;stroke-linecap:butt;stroke-linejoin:round;stroke-miterlimit:4;stroke-dasharray:none;stroke-opacity:1"
       d="m 415,227.5 c -25.95231,0.8759 -50.9199,-1.48857 -72.5,-15 23.27618,-22.40181 48.5,-20 72.5,-20"
       id="path1451"
       inkscape:connector-curvature="0"
       sodipodi:nodetypes="ccc" />
    <path
       style="fill:none;fill-opacity:1;fill-rule:evenodd;stroke:#000000;stroke-width:3;stroke-linecap:butt;stroke-linejoin:round;stroke-miterlimit:4;stroke-dasharray:none;stroke-opacity:1"
       d="M 342.5,212.5 C 316.68203,174.38189 314.09921,162.29396 324.01525,147.39219 344.97142,108.74075 369.42995,115.00131 412.5,115"
       id="path1453"
       inkscape:connector-curvature="0"
       sodipodi:nodetypes="ccc" />
    <path
       style="fill:none;fill-opacity:1;fill-rule:evenodd;stroke:#000000;stroke-width:3;stroke-linecap:butt;stroke-linejoin:round;stroke-miterlimit:4;stroke-dasharray:none;stroke-opacity:1"
       d="m 340,157.5 c 0.47182,9.26786 1.85739,18.50341 10,27.5 13.90299,-6.55937 28.21876,-12.93979 52.5,-15 0.84369,-12.31521 1.35877,-24.54552 -5,-35 -12.97203,1.55683 -35,-5 -57.5,22.5 z"
       id="path1465"
       inkscape:connector-curvature="0"
       sodipodi:nodetypes="ccccc" />
    <path
       style="fill:none;fill-opacity:1;fill-rule:evenodd;stroke:#000000;stroke-width:3;stroke-linecap:butt;stroke-linejoin:round;stroke-miterlimit:4;stroke-dasharray:none;stroke-opacity:1"
       d="M 397.5,135 400,115"
       id="path1467"
       inkscape:connector-curvature="0" />
    <path
       style="fill:none;fill-opacity:1;fill-rule:evenodd;stroke:#000000;stroke-width:3;stroke-linecap:butt;stroke-linejoin:round;stroke-miterlimit:4;stroke-dasharray:none;stroke-opacity:1"
       d="M 367.5,137.5 V 115"
       id="path1469"
       inkscape:connector-curvature="0" />
    <path
       style="fill:none;fill-opacity:1;fill-rule:evenodd;stroke:#000000;stroke-width:3;stroke-linecap:butt;stroke-linejoin:round;stroke-miterlimit:4;stroke-dasharray:none;stroke-opacity:1"
       d="m 336,130 14,17.5"
       id="path1473"
       inkscape:connector-curvature="0" />
    <path
       style="fill:none;fill-opacity:1;fill-rule:evenodd;stroke:#000000;stroke-width:3;stroke-linecap:butt;stroke-linejoin:round;stroke-miterlimit:4;stroke-dasharray:none;stroke-opacity:1"
       d="m 320,160 h 20"
       id="path1475"
       inkscape:connector-curvature="0" />
    <path
       style="fill:none;fill-opacity:1;fill-rule:evenodd;stroke:#000000;stroke-width:3;stroke-linecap:butt;stroke-linejoin:round;stroke-miterlimit:4;stroke-dasharray:none;stroke-opacity:1"
       d="M 332.5,195 349,184"
       id="path1477"
       inkscape:connector-curvature="0" />
    <path
       style="fill:none;fill-opacity:1;fill-rule:evenodd;stroke:#000000;stroke-width:3;stroke-linecap:butt;stroke-linejoin:round;stroke-miterlimit:4;stroke-dasharray:none;stroke-opacity:1"
       d="m 360.5,180 5.5,17.5"
       id="path1479"
       inkscape:connector-curvature="0" />
    <path
       style="fill:none;fill-opacity:1;fill-rule:evenodd;stroke:#000000;stroke-width:3;stroke-linecap:butt;stroke-linejoin:round;stroke-miterlimit:4;stroke-dasharray:none;stroke-opacity:1"
       d="m 391.5,172.5 3.5,20"
       id="path1481"
       inkscape:connector-curvature="0" />
    <path
       style="fill:none;fill-opacity:1;fill-rule:evenodd;stroke:#000000;stroke-width:3;stroke-linecap:butt;stroke-linejoin:round;stroke-miterlimit:4;stroke-dasharray:none;stroke-opacity:1"
       d="M 402.5,170 H 415"
       id="path1487"
       inkscape:connector-curvature="0" />
    <path
       style="fill:none;fill-opacity:1;fill-rule:evenodd;stroke:#000000;stroke-width:3;stroke-linecap:butt;stroke-linejoin:round;stroke-miterlimit:4;stroke-dasharray:none;stroke-opacity:1"
       d="M 415,151.5 H 404"
       id="path1489"
       inkscape:connector-curvature="0" />
    <path
       style="fill:none;fill-opacity:1;fill-rule:evenodd;stroke:#000000;stroke-width:3;stroke-linecap:butt;stroke-linejoin:round;stroke-miterlimit:4;stroke-dasharray:none;stroke-opacity:1"
       d="m 415,219 c -19.67664,-0.1793 -38.17863,2.46858 -64,-12.5"
       id="path1491"
       inkscape:connector-curvature="0"
       sodipodi:nodetypes="cc" />
    <path
       style="fill:none;fill-opacity:1;fill-rule:evenodd;stroke:#000000;stroke-width:0;stroke-linecap:butt;stroke-linejoin:round;stroke-miterlimit:4;stroke-dasharray:none;stroke-opacity:1"
       d="M 357.5,65 395,82.5"
       id="path1518"
       inkscape:connector-curvature="0" />
    <path
       style="fill:none;fill-opacity:1;fill-rule:evenodd;stroke:#000000;stroke-width:2;stroke-linecap:butt;stroke-linejoin:round;stroke-miterlimit:4;stroke-dasharray:none;stroke-opacity:1"
       d="m 385,92.5 v -27 l 22,13"
       id="path1553"
       inkscape:connector-curvature="0"
       sodipodi:nodetypes="ccc" />
    <path
       style="display:inline;fill:none;fill-opacity:1;fill-rule:evenodd;stroke:#000000;stroke-width:2;stroke-linecap:butt;stroke-linejoin:round;stroke-miterlimit:4;stroke-dasharray:none;stroke-opacity:1"
       d="m 385,65.5 v 27 l 22,-13"
       id="path1553-1"
       inkscape:connector-curvature="0"
       sodipodi:nodetypes="ccc" />
    <path
       style="display:inline;fill:none;fill-opacity:1;fill-rule:evenodd;stroke:#000000;stroke-width:2;stroke-linecap:butt;stroke-linejoin:round;stroke-miterlimit:4;stroke-dasharray:none;stroke-opacity:1"
       d="m 424.25,104.5 h -27 l 13,-22"
       id="path1553-9"
       inkscape:connector-curvature="0"
       sodipodi:nodetypes="ccc" />
    <path
       style="display:inline;fill:none;fill-opacity:1;fill-rule:evenodd;stroke:#000000;stroke-width:2;stroke-linecap:butt;stroke-linejoin:round;stroke-miterlimit:4;stroke-dasharray:none;stroke-opacity:1"
       d="m 397.25,104.5 h 27 l -13,-22"
       id="path1553-1-2"
       inkscape:connector-curvature="0"
       sodipodi:nodetypes="ccc" />
    <path
       style="display:inline;fill:none;fill-opacity:1;fill-rule:evenodd;stroke:#000000;stroke-width:2;stroke-linecap:butt;stroke-linejoin:round;stroke-miterlimit:4;stroke-dasharray:none;stroke-opacity:1"
       d="M 424.25,53.5 H 397.24999 L 410.25,75.5"
       id="path1553-9-1"
       inkscape:connector-curvature="0"
       sodipodi:nodetypes="ccc" />
    <path
       style="display:inline;fill:none;fill-opacity:1;fill-rule:evenodd;stroke:#000000;stroke-width:2;stroke-linecap:butt;stroke-linejoin:round;stroke-miterlimit:4;stroke-dasharray:none;stroke-opacity:1"
       d="M 397.24999,53.5 H 424.25 l -13,22"
       id="path1553-1-2-8"
       inkscape:connector-curvature="0"
       sodipodi:nodetypes="ccc" />
    <ellipse
       style="fill:none;fill-opacity:1;fill-rule:evenodd;stroke:#000000;stroke-width:2;stroke-linecap:butt;stroke-linejoin:round;stroke-miterlimit:4;stroke-dasharray:none;stroke-opacity:1"
       id="path1628"
       cx="371.25"
       cy="154.375"
       rx="12.5"
       ry="10.625" />
    <path
       style="fill:none;fill-opacity:1;fill-rule:evenodd;stroke:#000000;stroke-width:2;stroke-linecap:butt;stroke-linejoin:round;stroke-miterlimit:4;stroke-dasharray:none;stroke-opacity:1"
       d="m 401.25,105 c -2.5,3.75 -2.5,6.25 0,9"
       id="path1705"
       inkscape:connector-curvature="0"
       sodipodi:nodetypes="cc" />
    <ellipse
       style="fill:none;fill-opacity:1;fill-rule:evenodd;stroke:#000000;stroke-width:2;stroke-linecap:butt;stroke-linejoin:round;stroke-miterlimit:4;stroke-dasharray:none;stroke-opacity:1"
       id="path1719"
       cx="410.625"
       cy="79.25"
       rx="3.125"
       ry="3.75" />
    <path
       style="display:inline;fill:none;fill-opacity:1;fill-rule:evenodd;stroke:#000000;stroke-width:3;stroke-linecap:butt;stroke-linejoin:round;stroke-miterlimit:4;stroke-dasharray:none;stroke-opacity:1"
       d="m 406.5,227.5 c 25.95231,0.8759 50.9199,-1.48857 72.5,-15 -23.27618,-22.40181 -48.5,-20 -72.5,-20"
       id="path1451-4"
       inkscape:connector-curvature="0"
       sodipodi:nodetypes="ccc" />
    <path
       style="display:inline;fill:none;fill-opacity:1;fill-rule:evenodd;stroke:#000000;stroke-width:3;stroke-linecap:butt;stroke-linejoin:round;stroke-miterlimit:4;stroke-dasharray:none;stroke-opacity:1"
       d="m 479,212.5 c 25.81797,-38.11811 28.40079,-50.20604 18.48475,-65.10781 C 476.52858,108.74075 452.07005,115.00131 409,115"
       id="path1453-3"
       inkscape:connector-curvature="0"
       sodipodi:nodetypes="ccc" />
    <path
       style="display:inline;fill:none;fill-opacity:1;fill-rule:evenodd;stroke:#000000;stroke-width:3;stroke-linecap:butt;stroke-linejoin:round;stroke-miterlimit:4;stroke-dasharray:none;stroke-opacity:1"
       d="m 481.5,157.5 c -0.47182,9.26786 -1.85739,18.50341 -10,27.5 -13.90299,-6.55937 -28.21876,-12.93979 -52.5,-15 -0.84369,-12.31521 -1.35877,-24.54552 5,-35 12.97203,1.55683 35,-5 57.5,22.5 z"
       id="path1465-7"
       inkscape:connector-curvature="0"
       sodipodi:nodetypes="ccccc" />
    <path
       style="display:inline;fill:none;fill-opacity:1;fill-rule:evenodd;stroke:#000000;stroke-width:3;stroke-linecap:butt;stroke-linejoin:round;stroke-miterlimit:4;stroke-dasharray:none;stroke-opacity:1"
       d="m 424,135 -2.5,-20"
       id="path1467-5"
       inkscape:connector-curvature="0" />
    <path
       style="display:inline;fill:none;fill-opacity:1;fill-rule:evenodd;stroke:#000000;stroke-width:3;stroke-linecap:butt;stroke-linejoin:round;stroke-miterlimit:4;stroke-dasharray:none;stroke-opacity:1"
       d="M 454,137.5 V 115"
       id="path1469-2"
       inkscape:connector-curvature="0" />
    <path
       style="display:inline;fill:none;fill-opacity:1;fill-rule:evenodd;stroke:#000000;stroke-width:3;stroke-linecap:butt;stroke-linejoin:round;stroke-miterlimit:4;stroke-dasharray:none;stroke-opacity:1"
       d="m 485.5,130 -14,17.5"
       id="path1473-7"
       inkscape:connector-curvature="0" />
    <path
       style="display:inline;fill:none;fill-opacity:1;fill-rule:evenodd;stroke:#000000;stroke-width:3;stroke-linecap:butt;stroke-linejoin:round;stroke-miterlimit:4;stroke-dasharray:none;stroke-opacity:1"
       d="m 501.5,160 h -20"
       id="path1475-4"
       inkscape:connector-curvature="0" />
    <path
       style="display:inline;fill:none;fill-opacity:1;fill-rule:evenodd;stroke:#000000;stroke-width:3;stroke-linecap:butt;stroke-linejoin:round;stroke-miterlimit:4;stroke-dasharray:none;stroke-opacity:1"
       d="M 489,195 472.5,184"
       id="path1477-9"
       inkscape:connector-curvature="0" />
    <path
       style="display:inline;fill:none;fill-opacity:1;fill-rule:evenodd;stroke:#000000;stroke-width:3;stroke-linecap:butt;stroke-linejoin:round;stroke-miterlimit:4;stroke-dasharray:none;stroke-opacity:1"
       d="m 461,180 -5.5,17.5"
       id="path1479-0"
       inkscape:connector-curvature="0" />
    <path
       style="display:inline;fill:none;fill-opacity:1;fill-rule:evenodd;stroke:#000000;stroke-width:3;stroke-linecap:butt;stroke-linejoin:round;stroke-miterlimit:4;stroke-dasharray:none;stroke-opacity:1"
       d="m 430,172.5 -3.5,20"
       id="path1481-6"
       inkscape:connector-curvature="0" />
    <path
       style="display:inline;fill:none;fill-opacity:1;fill-rule:evenodd;stroke:#000000;stroke-width:3;stroke-linecap:butt;stroke-linejoin:round;stroke-miterlimit:4;stroke-dasharray:none;stroke-opacity:1"
       d="M 419,170 H 406.5"
       id="path1487-1"
       inkscape:connector-curvature="0" />
    <path
       style="display:inline;fill:none;fill-opacity:1;fill-rule:evenodd;stroke:#000000;stroke-width:3;stroke-linecap:butt;stroke-linejoin:round;stroke-miterlimit:4;stroke-dasharray:none;stroke-opacity:1"
       d="m 406.5,151.5 h 11"
       id="path1489-5"
       inkscape:connector-curvature="0" />
    <path
       style="display:inline;fill:none;fill-opacity:1;fill-rule:evenodd;stroke:#000000;stroke-width:3;stroke-linecap:butt;stroke-linejoin:round;stroke-miterlimit:4;stroke-dasharray:none;stroke-opacity:1"
       d="m 406.5,219 c 19.67664,-0.1793 38.17863,2.46858 64,-12.5"
       id="path1491-5"
       inkscape:connector-curvature="0"
       sodipodi:nodetypes="cc" />
    <path
       style="display:inline;fill:none;fill-opacity:1;fill-rule:evenodd;stroke:#000000;stroke-width:0;stroke-linecap:butt;stroke-linejoin:round;stroke-miterlimit:4;stroke-dasharray:none;stroke-opacity:1"
       d="M 464,65 426.5,82.5"
       id="path1518-5"
       inkscape:connector-curvature="0" />
    <path
       style="display:inline;fill:none;fill-opacity:1;fill-rule:evenodd;stroke:#000000;stroke-width:2;stroke-linecap:butt;stroke-linejoin:round;stroke-miterlimit:4;stroke-dasharray:none;stroke-opacity:1"
       d="m 436.5,92.5 v -27 l -22,13"
       id="path1553-3"
       inkscape:connector-curvature="0"
       sodipodi:nodetypes="ccc" />
    <path
       style="display:inline;fill:none;fill-opacity:1;fill-rule:evenodd;stroke:#000000;stroke-width:2;stroke-linecap:butt;stroke-linejoin:round;stroke-miterlimit:4;stroke-dasharray:none;stroke-opacity:1"
       d="m 436.5,65.5 v 27 l -22,-13"
       id="path1553-1-9"
       inkscape:connector-curvature="0"
       sodipodi:nodetypes="ccc" />
    <path
       style="display:inline;fill:none;fill-opacity:1;fill-rule:evenodd;stroke:#000000;stroke-width:2;stroke-linecap:butt;stroke-linejoin:round;stroke-miterlimit:4;stroke-dasharray:none;stroke-opacity:1"
       d="m 397.25,104.5 h 27 l -13,-22"
       id="path1553-9-4"
       inkscape:connector-curvature="0"
       sodipodi:nodetypes="ccc" />
    <path
       style="display:inline;fill:none;fill-opacity:1;fill-rule:evenodd;stroke:#000000;stroke-width:2;stroke-linecap:butt;stroke-linejoin:round;stroke-miterlimit:4;stroke-dasharray:none;stroke-opacity:1"
       d="m 424.25,104.5 h -27 l 13,-22"
       id="path1553-1-2-2"
       inkscape:connector-curvature="0"
       sodipodi:nodetypes="ccc" />
    <path
       style="display:inline;fill:none;fill-opacity:1;fill-rule:evenodd;stroke:#000000;stroke-width:2;stroke-linecap:butt;stroke-linejoin:round;stroke-miterlimit:4;stroke-dasharray:none;stroke-opacity:1"
       d="m 397.25,53.5 h 27.00001 L 411.25,75.5"
       id="path1553-9-1-8"
       inkscape:connector-curvature="0"
       sodipodi:nodetypes="ccc" />
    <path
       style="display:inline;fill:none;fill-opacity:1;fill-rule:evenodd;stroke:#000000;stroke-width:2;stroke-linecap:butt;stroke-linejoin:round;stroke-miterlimit:4;stroke-dasharray:none;stroke-opacity:1"
       d="M 424.25001,53.5 H 397.25 l 13,22"
       id="path1553-1-2-8-2"
       inkscape:connector-curvature="0"
       sodipodi:nodetypes="ccc" />
    <ellipse
       style="display:inline;fill:none;fill-opacity:1;fill-rule:evenodd;stroke:#000000;stroke-width:2;stroke-linecap:butt;stroke-linejoin:round;stroke-miterlimit:4;stroke-dasharray:none;stroke-opacity:1"
       id="path1628-0"
       cx="-450.25"
       cy="154.375"
       rx="12.5"
       ry="10.625"
       transform="scale(-1,1)" />
    <path
       style="display:inline;fill:none;fill-opacity:1;fill-rule:evenodd;stroke:#000000;stroke-width:2;stroke-linecap:butt;stroke-linejoin:round;stroke-miterlimit:4;stroke-dasharray:none;stroke-opacity:1"
       d="m 420.25,105 c 2.5,3.75 2.5,6.25 0,9"
       id="path1705-0"
       inkscape:connector-curvature="0"
       sodipodi:nodetypes="cc" />
    <ellipse
       style="display:inline;fill:none;fill-opacity:1;fill-rule:evenodd;stroke:#000000;stroke-width:2;stroke-linecap:butt;stroke-linejoin:round;stroke-miterlimit:4;stroke-dasharray:none;stroke-opacity:1"
       id="path1719-9"
       cx="-410.875"
       cy="79.25"
       rx="3.125"
       ry="3.75"
       transform="scale(-1,1)" />
    <path
       style="fill:#ffffff;fill-opacity:1;fill-rule:evenodd;stroke:none;stroke-width:0.35355338;stroke-linecap:butt;stroke-linejoin:round;stroke-miterlimit:4;stroke-dasharray:none;stroke-opacity:1"
       d="m 350.20483,207.73822 c -1.86957,1.18173 -3.53859,2.72413 -5.19075,4.20397 -0.40262,0.69773 0.83387,0.90816 1.20015,1.26436 13.98979,7.99455 30.06716,11.66803 46.04141,12.69421 7.89578,0.63281 15.82564,0.30138 23.73739,0.35792 7.01674,0.0468 14.04147,-0.1835 21.0068,-1.08084 13.71873,-1.63003 27.35987,-5.44344 39.27267,-12.5717 0.61772,-0.63173 -0.5003,-1.24966 -0.87974,-1.66592 -1.34147,-1.04564 -2.56088,-2.35266 -4.0593,-3.14607 -1.53771,0.25191 -2.75036,1.42092 -4.18109,1.99197 -9.42677,4.98223 -19.68793,8.41541 -30.27878,9.67909 -7.69391,1.08219 -15.48678,0.70412 -23.25012,0.82395 -7.83462,-0.048 -15.72676,0.10606 -23.52235,-0.26427 -11.0145,-0.71779 -21.89059,-3.5012 -31.82773,-8.2837 -2.67661,-1.161 -5.15959,-2.69567 -7.77785,-3.95878 -0.0939,-0.0281 -0.1917,-0.0546 -0.29071,-0.0442 z"
       id="path1851"
       inkscape:connector-curvature="0" />
  </g>
</svg>
