<?xml version="1.0" encoding="UTF-8" standalone="no"?>
<!-- Created with Inkscape (http://www.inkscape.org/) -->

<svg
   xmlns:dc="http://purl.org/dc/elements/1.1/"
   xmlns:cc="http://creativecommons.org/ns#"
   xmlns:rdf="http://www.w3.org/1999/02/22-rdf-syntax-ns#"
   xmlns:svg="http://www.w3.org/2000/svg"
   xmlns="http://www.w3.org/2000/svg"
   xmlns:sodipodi="http://sodipodi.sourceforge.net/DTD/sodipodi-0.dtd"
   xmlns:inkscape="http://www.inkscape.org/namespaces/inkscape"
   id="svg2"
   version="1.1"
   inkscape:version="0.91 r13725"
   width="1200"
   height="720"
   viewBox="0 0 1200 720"
   sodipodi:docname="Flag_of_Principality_of_Mingrelia.svg">
  <metadata
     id="metadata8">
    <rdf:RDF>
      <cc:Work
         rdf:about="">
        <dc:format>image/svg+xml</dc:format>
        <dc:type
           rdf:resource="http://purl.org/dc/dcmitype/StillImage" />
        <dc:title></dc:title>
      </cc:Work>
    </rdf:RDF>
  </metadata>
  <defs
     id="defs6" />
  <sodipodi:namedview
     pagecolor="#ffffff"
     bordercolor="#666666"
     borderopacity="1"
     objecttolerance="10"
     gridtolerance="10"
     guidetolerance="10"
     inkscape:pageopacity="0"
     inkscape:pageshadow="2"
     inkscape:window-width="1920"
     inkscape:window-height="1017"
     id="namedview4"
     showgrid="false"
     inkscape:zoom="0.70710678"
     inkscape:cx="713.97167"
     inkscape:cy="369.57006"
     inkscape:window-x="-8"
     inkscape:window-y="-8"
     inkscape:window-maximized="1"
     inkscape:current-layer="svg2" />
  <g
     id="g3338"
     transform="matrix(1.0000456,0,0,1.0000868,-0.04908021,-0.00710299)">
    <path
       style="fill:#548cc3"
       d="M 0,360 0,0 l 600,0 600,0 0,360 0,360 -600,0 -600,0 0,-360 z"
       id="path3342"
       inkscape:connector-curvature="0" />
    <path
       style="fill:#d8102b"
       d="M 527.58111,576.32812 527.34375,432.65625 263.67187,432.42023 0,432.18421 0,360 0,287.81579 263.67187,287.57977 527.34375,287.34375 527.58111,143.67187 527.81847,0 l 72.18451,0 72.18452,0 0,142.78125 c 0,109.80208 0.25985,143.0411 1.125,143.90625 0.86965,0.86965 60.77083,1.125 263.90625,1.125 l 262.78125,0 0,72.1875 0,72.1875 -262.78125,0 c -203.13542,0 -263.0366,0.25535 -263.90625,1.125 -0.86515,0.86515 -1.125,34.10417 -1.125,143.90625 l 0,142.78125 -72.18452,0 -72.18451,0 -0.23736,-143.67188 z"
       id="path3340"
       inkscape:connector-curvature="0" />
  </g>
</svg>
