<svg xmlns="http://www.w3.org/2000/svg" xmlns:xlink="http://www.w3.org/1999/xlink" width="900" height="587.83789" version="1.0">
  <path d="M52.675558-44.034445H952.67555V543.80343H52.675558V-44.034445z" style="fill:#009a00;fill-opacity:1;fill-rule:nonzero;stroke:none;stroke-width:2;stroke-miterlimit:4;stroke-opacity:1" transform="translate(-52.675558 44.034445)"/>
  <path d="m351.11358 294.07022-32.66625 155.81491-32.42262 14.07695 63.89114-185.39618 1.19773 15.50432z" style="fill:#f7e017;fill-opacity:1;fill-rule:evenodd;stroke:#000;stroke-width:.60449755;stroke-linecap:butt;stroke-linejoin:miter;marker:none;marker-start:none;marker-mid:none;marker-end:none;stroke-miterlimit:4;stroke-dasharray:none;stroke-dashoffset:0;stroke-opacity:1;visibility:visible;display:inline;overflow:visible" transform="matrix(2.02703 0 0 2.02703 -106.7747839 -499.110842)"/>
  <g transform="matrix(1.5639 0 0 1.75323 60.2530882 -413.10141071)" style="fill:#f7e017">
    <path d="m293.5053 470.41277-26.87338 10.31428" style="fill:#f7e017;fill-opacity:.75;fill-rule:evenodd;stroke:#000;stroke-width:.49333334px;stroke-linecap:butt;stroke-linejoin:miter;stroke-opacity:1" id="a"/>
    <use transform="translate(13.18745 -87.07903)" style="fill:#f7e017" width="1000" height="500" xlink:href="#a"/>
    <use transform="translate(1.255969 -8.293238)" style="fill:#f7e017" width="1000" height="500" xlink:href="#a"/>
    <use transform="translate(1.883942 -12.43986)" style="fill:#f7e017" width="1000" height="500" xlink:href="#a"/>
    <use transform="translate(2.511916 -16.58648)" style="fill:#f7e017" width="1000" height="500" xlink:href="#a"/>
    <use transform="translate(3.139889 -20.7331)" style="fill:#f7e017" width="1000" height="500" xlink:href="#a"/>
    <use transform="translate(3.767862 -24.87972)" style="fill:#f7e017" width="1000" height="500" xlink:href="#a"/>
    <use transform="translate(4.395835 -29.02634)" style="fill:#f7e017" width="1000" height="500" xlink:href="#a"/>
    <use transform="translate(5.023809 -33.17296)" style="fill:#f7e017" width="1000" height="500" xlink:href="#a"/>
    <use transform="translate(5.651782 -37.31958)" style="fill:#f7e017" width="1000" height="500" xlink:href="#a"/>
    <use transform="translate(6.279755 -41.4662)" style="fill:#f7e017" width="1000" height="500" xlink:href="#a"/>
    <use transform="translate(6.907728 -45.61283)" style="fill:#f7e017" width="1000" height="500" xlink:href="#a"/>
    <use transform="translate(7.535702 -49.75945)" style="fill:#f7e017" width="1000" height="500" xlink:href="#a"/>
    <use transform="translate(8.163675 -53.90607)" style="fill:#f7e017" width="1000" height="500" xlink:href="#a"/>
    <use transform="translate(8.791648 -58.05269)" style="fill:#f7e017" width="1000" height="500" xlink:href="#a"/>
    <use transform="translate(9.419621 -62.19931)" style="fill:#f7e017" width="1000" height="500" xlink:href="#a"/>
    <use transform="translate(10.04759 -66.34593)" style="fill:#f7e017" width="1000" height="500" xlink:href="#a"/>
    <use transform="translate(10.67557 -70.49255)" style="fill:#f7e017" width="1000" height="500" xlink:href="#a"/>
    <use transform="translate(11.30354 -74.63917)" style="fill:#f7e017" width="1000" height="500" xlink:href="#a"/>
    <use transform="translate(11.93151 -78.78579)" style="fill:#f7e017" width="1000" height="500" xlink:href="#a"/>
    <use transform="translate(12.55949 -82.93241)" style="fill:#f7e017" width="1000" height="500" xlink:href="#a"/>
    <use transform="translate(.627996 -4.146619)" style="fill:#f7e017" width="1000" height="500" xlink:href="#a"/>
  </g>
  <path d="m339.34394 287.32594-74.00465 173.84 20.68542 2.79614 63.89114-185.39618-10.57191 8.76004z" style="fill:#f7e017;fill-opacity:1;fill-rule:evenodd;stroke:#000;stroke-width:.60449755;stroke-linecap:butt;stroke-linejoin:miter;marker:none;marker-start:none;marker-mid:none;marker-end:none;stroke-miterlimit:4;stroke-dasharray:none;stroke-dashoffset:0;stroke-opacity:1;visibility:visible;display:inline;overflow:visible" transform="matrix(2.02703 0 0 2.02703 -106.7747839 -499.110842)"/>
  <path d="M297.55807 298.34101c-1.55245 1.54365-3.10914 3.07112-4.65323 4.56788l26.59333 38.13779c1.05193 1.5077 2.99492 1.77392 4.3398.59463 1.34487-1.17927 1.58235-3.3575.53042-4.8652l-26.81032-38.4351zm-9.83688 9.51417c-1.59341 1.49523-3.19102 2.97016-4.77378 4.40571l30.49915 43.73277c1.05193 1.5077 2.99492 1.77392 4.3398.59464 1.34488-1.17928 1.58235-3.35751.53042-4.8652l-30.59559-43.86792zm-10.10209 9.13577c-1.6455 1.42859-3.2865 2.8369-4.91844 4.18948l34.69429 49.76022c1.05193 1.50768 2.99492 1.77392 4.3398.59463 1.34488-1.17929 1.58235-3.3575.53042-4.8652l-34.64607-49.67913zm-10.46374 8.62222c-1.71224 1.33544-3.41652 2.65447-5.11132 3.89217l39.2993 56.35527c1.05193 1.5077 2.99492 1.77391 4.3398.59463 1.34488-1.17927 1.58235-3.35751.53042-4.8652l-39.0582-55.97687zm-10.92183 7.9465c-1.82275 1.21772-3.6255 2.37366-5.42475 3.4597l44.48295 63.78822c1.05193 1.50769 2.99492 1.77392 4.3398.59464 1.34488-1.17929 1.58235-3.35751.53042-4.86521l-43.92842-62.97735zm-11.64513 6.94643c-1.97092 1.028-3.92077 1.9677-5.85873 2.81101l50.51045 72.43747c1.05193 1.5077 2.99492 1.77391 4.3398.59463 1.34487-1.17927 1.58235-3.35751.53042-4.8652L244.5884 340.5061zm-12.68186 5.43281c-2.23597.7197-4.44616 1.27394-6.63025 1.70282l57.91222 83.05983c1.05193 1.50769 2.99492 1.77392 4.3398.59464 1.34487-1.17929 1.58235-3.35751.53042-4.86521l-56.15219-80.49208z" style="fill:#f7e017;fill-opacity:1;fill-rule:evenodd;stroke:#000;stroke-width:.60449755;stroke-linecap:round;stroke-linejoin:miter;stroke-miterlimit:4;stroke-opacity:1" transform="matrix(2.02703 0 0 2.02703 -106.7747839 -499.110842)"/>
  <path d="M214.08351 350.10853c6.6438 11.93829 10.84178 8.33891 14.53483 1.53197l-6.95684-13.92693-9.68989 4.03881 2.1119 8.35615z" style="fill:#f7e017;fill-opacity:1;fill-rule:evenodd;stroke:#000;stroke-width:.60449755;stroke-linecap:butt;stroke-linejoin:miter;marker:none;marker-start:none;marker-mid:none;marker-end:none;stroke-miterlimit:4;stroke-dashoffset:0;stroke-opacity:1;visibility:visible;display:inline;overflow:visible" transform="matrix(2.02703 0 0 2.02703 -106.7747839 -499.110842)"/>
  <path d="M221.88268 342.76323c6.94154 14.55189 11.29646 15.56923 16.26336 9.2234l-9.75802-13.94235-6.50534 4.71895z" style="fill:#f7e017;fill-opacity:1;fill-rule:evenodd;stroke:#000;stroke-width:.60449755;stroke-linecap:butt;stroke-linejoin:miter;marker:none;marker-start:none;marker-mid:none;marker-end:none;stroke-miterlimit:4;stroke-dasharray:none;stroke-dashoffset:0;stroke-opacity:1;visibility:visible;display:inline;overflow:visible" transform="matrix(2.02703 0 0 2.02703 -106.7747839 -499.110842)"/>
  <path d="M228.49411 342.7969c15.68487 19.9869 21.45365 14.23014 26.30556 6.09303l-27.39257-18.03538 1.08701 11.94235z" style="fill:#f7e017;fill-opacity:1;fill-rule:evenodd;stroke:#000;stroke-width:.60449755;stroke-linecap:butt;stroke-linejoin:miter;marker:none;marker-start:none;marker-mid:none;marker-end:none;stroke-miterlimit:4;stroke-dasharray:none;stroke-dashoffset:0;stroke-opacity:1;visibility:visible;display:inline;overflow:visible" transform="matrix(2.02703 0 0 2.02703 -106.7747839 -499.110842)"/>
  <path d="M240.92908 341.56204c8.28915 8.77965 28.45278 18.6296 29.51409-.65519l-21.47808-9.9917-8.03601 10.64689z" style="fill:#f7e017;fill-opacity:1;fill-rule:evenodd;stroke:#000;stroke-width:.60449755;stroke-linecap:butt;stroke-linejoin:miter;marker:none;marker-start:none;marker-mid:none;marker-end:none;stroke-miterlimit:4;stroke-dasharray:none;stroke-dashoffset:0;stroke-opacity:1;visibility:visible;display:inline;overflow:visible" transform="matrix(2.02703 0 0 2.02703 -106.7747839 -499.110842)"/>
  <path d="M247.65011 338.94127c1.76719 3.81418 7.90399 3.70486 8.91266 7.20713" style="fill:#f7e017;fill-opacity:.75;fill-rule:evenodd;stroke:#000;stroke-width:.60449755;stroke-linecap:butt;stroke-linejoin:miter;marker:none;marker-start:none;marker-mid:none;marker-end:none;stroke-miterlimit:4;stroke-dasharray:none;stroke-dashoffset:0;stroke-opacity:1;visibility:visible;display:inline;overflow:visible" transform="matrix(2.02703 0 0 2.02703 -106.7747839 -499.110842)"/>
  <path d="M250.11622 335.01174c7.77628.2495 28.92988 20.40189 30.42377-6.26015l-22.9141-3.88562-7.50967 10.14577z" style="fill:#f7e017;fill-opacity:1;fill-rule:evenodd;stroke:#000;stroke-width:.60449755;stroke-linecap:butt;stroke-linejoin:miter;marker:none;marker-start:none;marker-mid:none;marker-end:none;stroke-miterlimit:4;stroke-dasharray:none;stroke-dashoffset:0;stroke-opacity:1;visibility:visible;display:inline;overflow:visible" transform="matrix(2.02703 0 0 2.02703 -106.7747839 -499.110842)"/>
  <path d="m236.10316 342.30945 5.43503 7.31164" style="fill:#f7e017;fill-opacity:.75;fill-rule:evenodd;stroke:#000;stroke-width:.60449755;stroke-linecap:butt;stroke-linejoin:miter;marker:none;marker-start:none;marker-mid:none;marker-end:none;stroke-miterlimit:4;stroke-dasharray:none;stroke-dashoffset:0;stroke-opacity:1;visibility:visible;display:inline;overflow:visible" transform="matrix(2.02703 0 0 2.02703 -106.7747839 -499.110842)"/>
  <path d="M226.09202 344.6937c1.63482 1.88523 3.47215 3.5434 3.63534 7.07843" style="fill:#f7e017;fill-opacity:.75;fill-rule:evenodd;stroke:#000;stroke-width:.60449755;stroke-linecap:butt;stroke-linejoin:miter;marker:none;marker-start:none;marker-mid:none;marker-end:none;stroke-miterlimit:4;stroke-dasharray:none;stroke-dashoffset:0;stroke-opacity:1;visibility:visible;display:inline;overflow:visible" transform="matrix(2.02703 0 0 2.02703 -106.7747839 -499.110842)"/>
  <path d="M218.55576 343.56288c1.35044 2.41192 2.16463 5.06432 1.86345 8.21689" style="fill:#f7e017;fill-opacity:.75;fill-rule:evenodd;stroke:#000;stroke-width:.60449755;stroke-linecap:butt;stroke-linejoin:miter;marker:none;marker-start:none;marker-mid:none;marker-end:none;stroke-miterlimit:4;stroke-dasharray:none;stroke-dashoffset:0;stroke-opacity:1;visibility:visible;display:inline;overflow:visible" transform="matrix(2.02703 0 0 2.02703 -106.7747839 -499.110842)"/>
  <path d="M244.84271 338.90227c-1.43553 5.8957-7.6928 8.14424-14.15868.21449 1.15052 7.40143-9.85083 11.40392-10.33202-1.71597 1.39392 19.97957-11.5217.42214-12.4367-3.00297l-.76533-6.43493 32.3354 3.21746 5.35733 7.72192z" style="fill:#f7e017;fill-opacity:1;fill-rule:evenodd;stroke:#000;stroke-width:.60449755;stroke-linecap:butt;stroke-linejoin:miter;marker:none;marker-start:none;marker-mid:none;marker-end:none;stroke-miterlimit:4;stroke-dasharray:none;stroke-dashoffset:0;stroke-opacity:1;visibility:visible;display:inline;overflow:visible" transform="matrix(2.02703 0 0 2.02703 -106.7747839 -499.110842)"/>
  <path d="M237.76337 333.32533c7.71607 14.16488 16.34619 5.24198 20.09004-3.21747l-13.20203-3.43196-6.88801 6.64943z" style="fill:#f7e017;fill-opacity:1;fill-rule:evenodd;stroke:#000;stroke-width:.60449755;stroke-linecap:butt;stroke-linejoin:miter;marker:none;marker-start:none;marker-mid:none;marker-end:none;stroke-miterlimit:4;stroke-dasharray:none;stroke-dashoffset:0;stroke-opacity:1;visibility:visible;display:inline;overflow:visible" transform="matrix(2.02703 0 0 2.02703 -106.7747839 -499.110842)"/>
  <path d="M261.28445 325.94531c20.27493 9.38979 27.69462 4.1038 28.30564-6.90776l-26.57265-4.10148-1.73299 11.00924z" style="fill:#f7e017;fill-opacity:1;fill-rule:evenodd;stroke:#000;stroke-width:.60449755;stroke-linecap:butt;stroke-linejoin:miter;marker:none;marker-start:none;marker-mid:none;marker-end:none;stroke-miterlimit:4;stroke-dasharray:none;stroke-dashoffset:0;stroke-opacity:1;visibility:visible;display:inline;overflow:visible" transform="matrix(2.02703 0 0 2.02703 -106.7747839 -499.110842)"/>
  <path d="M257.43333 330.04679c2.35487 2.71001 4.762 5.40832 9.62778 7.55536" style="fill:#f7e017;fill-opacity:.75;fill-rule:evenodd;stroke:#000;stroke-width:.60449755;stroke-linecap:butt;stroke-linejoin:miter;marker:none;marker-start:none;marker-mid:none;marker-end:none;stroke-miterlimit:4;stroke-dasharray:none;stroke-dashoffset:0;stroke-opacity:1;visibility:visible;display:inline;overflow:visible" transform="matrix(2.02703 0 0 2.02703 -106.7747839 -499.110842)"/>
  <path d="M244.26872 329.03537c15.061 8.14578 18.77265-.16012 21.23804-7.72191l-20.47271-5.36245-.76533 13.08436z" style="fill:#f7e017;fill-opacity:1;fill-rule:evenodd;stroke:#000;stroke-width:.60449755;stroke-linecap:butt;stroke-linejoin:miter;marker:none;marker-start:none;marker-mid:none;marker-end:none;stroke-miterlimit:4;stroke-dasharray:none;stroke-dashoffset:0;stroke-opacity:1;visibility:visible;display:inline;overflow:visible" transform="matrix(2.02703 0 0 2.02703 -106.7747839 -499.110842)"/>
  <path d="M267.83754 317.12956c10.75527 6.86522 28.23219 8.39923 26.01983-8.42231l-19.78973-3.49217-6.2301 11.91448z" style="fill:#f7e017;fill-opacity:1;fill-rule:evenodd;stroke:#000;stroke-width:.60449755;stroke-linecap:butt;stroke-linejoin:miter;marker:none;marker-start:none;marker-mid:none;marker-end:none;stroke-miterlimit:4;stroke-dasharray:none;stroke-dashoffset:0;stroke-opacity:1;visibility:visible;display:inline;overflow:visible" transform="matrix(2.02703 0 0 2.02703 -106.7747839 -499.110842)"/>
  <path d="m280.66422 316.71872-11.17754-4.72471" style="fill:#f7e017;fill-opacity:.75;fill-rule:evenodd;stroke:#000;stroke-width:.60449755;stroke-linecap:butt;stroke-linejoin:miter;marker:none;marker-start:none;marker-mid:none;marker-end:none;stroke-miterlimit:4;stroke-dasharray:none;stroke-dashoffset:0;stroke-opacity:1;visibility:visible;display:inline;overflow:visible" transform="matrix(2.02703 0 0 2.02703 -106.7747839 -499.110842)"/>
  <path d="M264.36533 321.41209c2.82414 2.19798 5.64829 3.47628 8.47244 4.53322" style="fill:#f7e017;fill-opacity:.75;fill-rule:evenodd;stroke:#000;stroke-width:.60449755;stroke-linecap:butt;stroke-linejoin:miter;marker:none;marker-start:none;marker-mid:none;marker-end:none;stroke-miterlimit:4;stroke-dasharray:none;stroke-dashoffset:0;stroke-opacity:1;visibility:visible;display:inline;overflow:visible" transform="matrix(2.02703 0 0 2.02703 -106.7747839 -499.110842)"/>
  <path d="M251.35231 319.80353c12.88507 9.04044 18.99665 1.78833 21.06929-9.80455l-19.87669-3.34246-1.1926 13.14701z" style="fill:#f7e017;fill-opacity:1;fill-rule:evenodd;stroke:#000;stroke-width:.60449755;stroke-linecap:butt;stroke-linejoin:miter;marker:none;marker-start:none;marker-mid:none;marker-end:none;stroke-miterlimit:4;stroke-dasharray:none;stroke-dashoffset:0;stroke-opacity:1;visibility:visible;display:inline;overflow:visible" transform="matrix(2.02703 0 0 2.02703 -106.7747839 -499.110842)"/>
  <path d="M275.28509 306.91416c28.52564 9.74994 45.64014-3.09728 49.80975-10.80034l-47.55499.68939-2.25476 10.11095z" style="fill:#f7e017;fill-opacity:1;fill-rule:evenodd;stroke:#000;stroke-width:.60449755;stroke-linecap:butt;stroke-linejoin:miter;marker:none;marker-start:none;marker-mid:none;marker-end:none;stroke-miterlimit:4;stroke-dasharray:none;stroke-dashoffset:0;stroke-opacity:1;visibility:visible;display:inline;overflow:visible" transform="matrix(2.02703 0 0 2.02703 -106.7747839 -499.110842)"/>
  <path d="M277.53985 303.46724c3.50705 2.1687 6.4522 1.81764 9.42901 1.60857" style="fill:#f7e017;fill-opacity:.75;fill-rule:evenodd;stroke:#000;stroke-width:.60449755;stroke-linecap:butt;stroke-linejoin:miter;marker:none;marker-start:none;marker-mid:none;marker-end:none;stroke-miterlimit:4;stroke-dasharray:none;stroke-dashoffset:0;stroke-opacity:1;visibility:visible;display:inline;overflow:visible" transform="matrix(2.02703 0 0 2.02703 -106.7747839 -499.110842)"/>
  <path d="M254.95496 310.48642c18.18982 8.63221 21.28327-1.41037 25.52912-10.02739l-26.2745 1.25342.74538 8.77397z" style="fill:#f7e017;fill-opacity:1;fill-rule:evenodd;stroke:#000;stroke-width:.60449755;stroke-linecap:butt;stroke-linejoin:miter;marker:none;marker-start:none;marker-mid:none;marker-end:none;stroke-miterlimit:4;stroke-dasharray:none;stroke-dashoffset:0;stroke-opacity:1;visibility:visible;display:inline;overflow:visible" transform="matrix(2.02703 0 0 2.02703 -106.7747839 -499.110842)"/>
  <path d="M280.09682 298.83409c26.81753 9.83862 61.87272-2.88726 71.38485-20.22908h.59488l-67.41903 1.77838-4.5607 18.4507z" style="fill:#f7e017;fill-opacity:1;fill-rule:evenodd;stroke:#000;stroke-width:.60449755;stroke-linecap:butt;stroke-linejoin:miter;marker:none;marker-start:none;marker-mid:none;marker-end:none;stroke-miterlimit:4;stroke-dasharray:none;stroke-dashoffset:0;stroke-opacity:1;visibility:visible;display:inline;overflow:visible" transform="matrix(2.02703 0 0 2.02703 -106.7747839 -499.110842)"/>
  <path d="M308.05589 293.27665c-7.36611.9469-14.29459 2.58066-24.19154-.44459" style="fill:#f7e017;fill-opacity:.75;fill-rule:evenodd;stroke:#000;stroke-width:.60449755;stroke-linecap:butt;stroke-linejoin:miter;marker:none;marker-start:none;marker-mid:none;marker-end:none;stroke-miterlimit:4;stroke-dasharray:none;stroke-dashoffset:0;stroke-opacity:1;visibility:visible;display:inline;overflow:visible" transform="matrix(2.02703 0 0 2.02703 -106.7747839 -499.110842)"/>
  <path d="M287.6956 289.26874c-4.22661 8.32817-6.32472 18.85649-30.28712 14.09406l-1.71436-13.45342 32.00148-.64064z" style="fill:#f7e017;fill-opacity:1;fill-rule:evenodd;stroke:#000;stroke-width:.60449755;stroke-linecap:butt;stroke-linejoin:miter;marker:none;marker-start:none;marker-mid:none;marker-end:none;stroke-miterlimit:4;stroke-dasharray:none;stroke-dashoffset:0;stroke-opacity:1;visibility:visible;display:inline;overflow:visible" transform="matrix(2.02703 0 0 2.02703 -106.7747839 -499.110842)"/>
  <path d="m349.13401 280.89274-3.99995 12.39057c7.60911 10.49042 17.18932.17171 8.52621-6.72631 6.50388-7.84815.57969-11.0202-4.52626-5.66426z" style="fill:#f7e017;fill-opacity:1;fill-rule:evenodd;stroke:#000;stroke-width:.60449755;stroke-linecap:butt;stroke-linejoin:miter;marker:none;marker-start:none;marker-mid:none;marker-end:none;stroke-miterlimit:4;stroke-dasharray:none;stroke-dashoffset:0;stroke-opacity:1;visibility:visible;display:inline;overflow:visible" transform="matrix(2.02703 0 0 2.02703 -106.7747839 -499.110842)"/>
  <path d="M318.88885 273.26597c18.04625.51105 32.95278-1.90281 49.74676-6.00594 3.54285-.8656 4.91737 1.96091 1.722 4.66548-20.90959 17.69796-72.61711 18.34343-79.84528 13.79302l2.64041-7.26562 25.73611-5.18694z" style="fill:#f7e017;fill-opacity:1;fill-rule:evenodd;stroke:#000;stroke-width:.60449755;stroke-linecap:butt;stroke-linejoin:miter;marker:none;marker-start:none;marker-mid:none;marker-end:none;stroke-miterlimit:4;stroke-dasharray:none;stroke-dashoffset:0;stroke-opacity:1;visibility:visible;display:inline;overflow:visible" transform="matrix(2.02703 0 0 2.02703 -106.7747839 -499.110842)"/>
  <path d="M256.19751 294.04884c17.14954 4.36816 34.07099-1.71202 40.02352-11.71157l-10.58249-8.21332-30.25507 13.38467.81404 6.54022z" style="fill:#f7e017;fill-opacity:1;fill-rule:evenodd;stroke:#000;stroke-width:.60449755;stroke-linecap:butt;stroke-linejoin:miter;marker:none;marker-start:none;marker-mid:none;marker-end:none;stroke-miterlimit:4;stroke-dasharray:none;stroke-dashoffset:0;stroke-opacity:1;visibility:visible;display:inline;overflow:visible" transform="matrix(2.02703 0 0 2.02703 -106.7747839 -499.110842)"/>
  <path d="M257.14722 288.8775c3.3466 1.75282 7.10021 1.64132 10.44681 1.36888" style="fill:#f7e017;fill-opacity:.75;fill-rule:evenodd;stroke:#000;stroke-width:.60449755;stroke-linecap:butt;stroke-linejoin:miter;marker:none;marker-start:none;marker-mid:none;marker-end:none;stroke-miterlimit:4;stroke-dasharray:none;stroke-dashoffset:0;stroke-opacity:1;visibility:visible;display:inline;overflow:visible" transform="matrix(2.02703 0 0 2.02703 -106.7747839 -499.110842)"/>
  <path d="M264.12308 300.1596c-2.34421-.32544-4.76564-.30452-6.7146-2.40239" style="fill:#f7e017;fill-opacity:.75;fill-rule:evenodd;stroke:#000;stroke-width:.60449755;stroke-linecap:butt;stroke-linejoin:miter;marker:none;marker-start:none;marker-mid:none;marker-end:none;stroke-miterlimit:4;stroke-dasharray:none;stroke-dashoffset:0;stroke-opacity:1;visibility:visible;display:inline;overflow:visible" transform="matrix(2.02703 0 0 2.02703 -106.7747839 -499.110842)"/>
  <path d="M256.63206 307.56176c3.61336.31793 4.5589 1.234 5.77666 2.08904" style="fill:#f7e017;fill-opacity:.75;fill-rule:evenodd;stroke:#000;stroke-width:.60449755;stroke-linecap:butt;stroke-linejoin:miter;marker:none;marker-start:none;marker-mid:none;marker-end:none;stroke-miterlimit:4;stroke-dasharray:none;stroke-dashoffset:0;stroke-opacity:1;visibility:visible;display:inline;overflow:visible" transform="matrix(2.02703 0 0 2.02703 -106.7747839 -499.110842)"/>
  <path d="M254.33381 317.57523c2.08298 1.46209 4.54497 1.64952 7.15561 1.33698" style="fill:#f7e017;fill-opacity:.75;fill-rule:evenodd;stroke:#000;stroke-width:.60449755;stroke-linecap:butt;stroke-linejoin:miter;marker:none;marker-start:none;marker-mid:none;marker-end:none;stroke-miterlimit:4;stroke-dasharray:none;stroke-dashoffset:0;stroke-opacity:1;visibility:visible;display:inline;overflow:visible" transform="matrix(2.02703 0 0 2.02703 -106.7747839 -499.110842)"/>
  <path d="M247.90406 326.2469c2.61489 1.40177 5.22979 1.36699 7.84468 1.07249" style="fill:#f7e017;fill-opacity:.75;fill-rule:evenodd;stroke:#000;stroke-width:.60449755;stroke-linecap:butt;stroke-linejoin:miter;marker:none;marker-start:none;marker-mid:none;marker-end:none;stroke-miterlimit:4;stroke-dasharray:none;stroke-dashoffset:0;stroke-opacity:1;visibility:visible;display:inline;overflow:visible" transform="matrix(2.02703 0 0 2.02703 -106.7747839 -499.110842)"/>
  <path d="M241.01604 332.25284c2.13739 1.21549 3.91963 2.43097 5.54868 3.64646" style="fill:#f7e017;fill-opacity:.75;fill-rule:evenodd;stroke:#000;stroke-width:.60449755;stroke-linecap:butt;stroke-linejoin:miter;marker:none;marker-start:none;marker-mid:none;marker-end:none;stroke-miterlimit:4;stroke-dasharray:none;stroke-dashoffset:0;stroke-opacity:1;visibility:visible;display:inline;overflow:visible" transform="matrix(2.02703 0 0 2.02703 -106.7747839 -499.110842)"/>
  <path d="M223.22202 330.53685c1.75405 2.72587 1.79362 5.93225 1.53066 9.22341" style="fill:#f7e017;fill-opacity:.75;fill-rule:evenodd;stroke:#000;stroke-width:.60449755;stroke-linecap:butt;stroke-linejoin:miter;marker:none;marker-start:none;marker-mid:none;marker-end:none;stroke-miterlimit:4;stroke-dasharray:none;stroke-dashoffset:0;stroke-opacity:1;visibility:visible;display:inline;overflow:visible" transform="matrix(2.02703 0 0 2.02703 -106.7747839 -499.110842)"/>
  <path d="M233.3627 334.18332c1.16732 2.51244 1.93625 5.1142 5.54868 7.07842" style="fill:#f7e017;fill-opacity:.75;fill-rule:evenodd;stroke:#000;stroke-width:.60449755;stroke-linecap:butt;stroke-linejoin:miter;marker:none;marker-start:none;marker-mid:none;marker-end:none;stroke-miterlimit:4;stroke-dasharray:none;stroke-dashoffset:0;stroke-opacity:1;visibility:visible;display:inline;overflow:visible" transform="matrix(2.02703 0 0 2.02703 -106.7747839 -499.110842)"/>
  <path d="m214.99467 329.89337 2.48733 7.93641" style="fill:#f7e017;fill-opacity:.75;fill-rule:evenodd;stroke:#000;stroke-width:.60449755;stroke-linecap:butt;stroke-linejoin:miter;marker:none;marker-start:none;marker-mid:none;marker-end:none;stroke-miterlimit:4;stroke-dasharray:none;stroke-dashoffset:0;stroke-opacity:1;visibility:visible;display:inline;overflow:visible" transform="matrix(2.02703 0 0 2.02703 -106.7747839 -499.110842)"/>
  <path d="M280.73867 436.30469c3.90657 2.03261 5.3446 7.85644 3.21192 13.00787-2.13267 5.15143-7.02845 7.67973-10.93502 5.64711-3.90658-2.03261-5.3446-7.85644-3.21193-13.00787 2.13268-5.15143 7.02846-7.67973 10.93503-5.64711z" style="fill:#f7e017;fill-opacity:1;fill-rule:evenodd;stroke:#000;stroke-width:.60449743;stroke-linecap:square;stroke-linejoin:miter;marker:none;marker-start:none;marker-mid:none;marker-end:none;stroke-miterlimit:4;stroke-dasharray:none;stroke-dashoffset:0;stroke-opacity:1;visibility:visible;display:inline;overflow:visible" transform="matrix(2.02703 0 0 2.02703 -106.7747839 -499.110842)"/>
  <path d="M182.6431 351.03766c0-7.40774-5.44539-8.08831-5.44539-13.18832 0-6.11864 4.35943-8.6792 9.21061-11.20072 3.16745-1.64636 6.21192-11.77207 9.09359-8.70782 0-6.00708.0373-12.89537-4.69337-12.89537-5.12437 0-3.95669-6.06164-1.93737-6.6441-1.60832-1.17979-.93666-6.08554-4.35735-6.58397 8.07797-5.78149 2.39216-15.97681 8.55922-17.76102-2.30434-13.10007 13.01294-11.13466 15.97637-.73773 7.64543-1.80521 10.71628 2.04438 14.66025 6.18729l4.8055 12.5637-6.75175 9.12181c-.75453 1.78712-1.90609 1.34871-3.11618.58224-1.61557 2.52517-3.64311 1.35555-5.71302-.19408-1.53654 4.34475-1.64327 8.44086-.36426 14.62686 7.30963.28853 11.63237 5.89616 17.47173 5.89616 7.45207 0 17.33371-15.47187 15.63335-24.54732-3.6337-19.39448 15.09338-26.34279 32.69865-26.34279 16.90047 0 27.62824 5.85564 44.35228-3.66971-2.32135 13.23701-16.90217 16.6739-32.6141 15.24298-8.45262 11.29404-32.52324-8.63669-32.52324 14.09406 1.33501 5.51346 2.43788 10.94017-1.53712 14.46933 1.18008 3.48339.82791 6.73776-3.38632 9.41483-1.16203 4.06424-3.89848 7.11989-7.58539 9.56668-6.67395 7.26204-13.70902 5.661-20.32682 2.43953-4.85996-2.36579-9.2994-4.07166-13.75035.84887 11.50559 18.49496-2.07078 20.88383 4.37288 32.75614 6.71197 12.36668 15.82987 58.74003 57.05109 69.09753 6.29226-.18491 7.37177 18.51582-6.47113 15.23002-68.72725-10.45428-83.31236-83.29282-83.31236-99.66508z" style="fill:#f7e017;fill-opacity:1;fill-rule:evenodd;stroke:#000;stroke-width:.60449755;stroke-linecap:butt;stroke-linejoin:round;marker:none;marker-start:none;marker-mid:none;marker-end:none;stroke-miterlimit:4;stroke-dasharray:none;stroke-dashoffset:0;stroke-opacity:1;visibility:visible;display:inline;overflow:visible" transform="matrix(2.02703 0 0 2.02703 -106.7747839 -499.110842)"/>
  <path d="M223.15847 278.26299c.38823 4.92419-1.33902 9.48756 3.27343 13.3594-4.27133.69411-4.55428 5.30055-4.81388 9.9299l.16771-.14275 3.00945.88784c-13.91829 14.78947 20.29539 5.55711 5.70213-9.58869 9.74714-10.79418 1.05805-18.99756-7.33884-14.4457z" style="fill:#f7e017;fill-opacity:1;fill-rule:evenodd;stroke:#000;stroke-width:.60449755;stroke-linecap:butt;stroke-linejoin:miter;stroke-miterlimit:4;stroke-dasharray:none;stroke-opacity:1" transform="matrix(2.02703 0 0 2.02703 -106.7747839 -499.110842)"/>
  <path d="M226.22071 284.36298c2.89526 4.33506 4.74774 9.11568.1584 14.38304" style="fill:#f7e017;fill-opacity:.75;fill-rule:evenodd;stroke:#000;stroke-width:.60449755;stroke-linecap:butt;stroke-linejoin:miter;marker:none;marker-start:none;marker-mid:none;marker-end:none;stroke-miterlimit:4;stroke-dasharray:none;stroke-dashoffset:0;stroke-opacity:1;visibility:visible;display:inline;overflow:visible" transform="matrix(2.02703 0 0 2.02703 -106.7747839 -499.110842)"/>
  <path d="M219.68595 279.45434c.24279 7.3946.67377 14.84195-.8656 21.73707" style="fill:#f7e017;fill-opacity:.75;fill-rule:evenodd;stroke:#000;stroke-width:.60449755;stroke-linecap:butt;stroke-linejoin:miter;marker:none;marker-start:none;marker-mid:none;marker-end:none;stroke-miterlimit:4;stroke-dasharray:none;stroke-dashoffset:0;stroke-opacity:1;visibility:visible;display:inline;overflow:visible" transform="matrix(2.02703 0 0 2.02703 -106.7747839 -499.110842)"/>
  <path d="M191.06132 305.08611h6.13072" style="fill:#f7e017;fill-opacity:.75;fill-rule:evenodd;stroke:#000;stroke-width:.60449755;stroke-linecap:butt;stroke-linejoin:miter;marker:none;marker-start:none;marker-mid:none;marker-end:none;stroke-miterlimit:4;stroke-dasharray:none;stroke-dashoffset:0;stroke-opacity:1;visibility:visible;display:inline;overflow:visible" transform="matrix(2.02703 0 0 2.02703 -106.7747839 -499.110842)"/>
  <path d="M201.01458 276.35152c6.86722-3.43563 11.35547 1.12969 16.53493 3.37031" style="fill:#f7e017;fill-opacity:.75;fill-rule:evenodd;stroke:#000;stroke-width:.60449755;stroke-linecap:butt;stroke-linejoin:miter;marker:none;marker-start:none;marker-mid:none;marker-end:none;stroke-miterlimit:4;stroke-dasharray:none;stroke-dashoffset:0;stroke-opacity:1;visibility:visible;display:inline;overflow:visible" transform="matrix(2.02703 0 0 2.02703 -106.7747839 -499.110842)"/>
  <path d="M201.69785 279.72183c5.00747-3.06623 9.54253 1.28217 14.21183 3.52351" style="fill:#f7e017;fill-opacity:.75;fill-rule:evenodd;stroke:#000;stroke-width:.60449755;stroke-linecap:butt;stroke-linejoin:miter;marker:none;marker-start:none;marker-mid:none;marker-end:none;stroke-miterlimit:4;stroke-dasharray:none;stroke-dashoffset:0;stroke-opacity:1;visibility:visible;display:inline;overflow:visible" transform="matrix(2.02703 0 0 2.02703 -106.7747839 -499.110842)"/>
  <path d="M202.92771 299.17775c8.16689-1.35677 7.16645-11.00813 5.4661-11.18332-3.73757-.38508-.2733 3.33202-1.63983 6.12785-1.36652 2.79583-3.82627 5.05547-3.82627 5.05547z" style="fill:#f7e017;fill-opacity:.75;fill-rule:evenodd;stroke:#000;stroke-width:.60449755;stroke-linecap:butt;stroke-linejoin:bevel;marker:none;marker-start:none;marker-mid:none;marker-end:none;stroke-miterlimit:4;stroke-dasharray:none;stroke-dashoffset:0;stroke-opacity:1;visibility:visible;display:inline;overflow:visible" transform="matrix(2.02703 0 0 2.02703 -106.7747839 -499.110842)"/>
  <path d="M188.63455 298.34975c.84747.08164 1.23117.29327 1.77648.4596" style="fill:#f7e017;fill-opacity:.75;fill-rule:evenodd;stroke:#000;stroke-width:.60449755;stroke-linecap:butt;stroke-linejoin:miter;marker:none;marker-start:none;marker-mid:none;marker-end:none;stroke-miterlimit:4;stroke-dasharray:none;stroke-dashoffset:0;stroke-opacity:1;visibility:visible;display:inline;overflow:visible" transform="matrix(2.02703 0 0 2.02703 -106.7747839 -499.110842)"/>
  <path d="M209.36279 298.24813c.96621 1.59467 2.08053 2.77762 3.60862 3.42743" style="fill:#f7e017;fill-opacity:.75;fill-rule:evenodd;stroke:#000;stroke-width:.60449755;stroke-linecap:butt;stroke-linejoin:miter;marker:none;marker-start:none;marker-mid:none;marker-end:none;stroke-miterlimit:4;stroke-dasharray:none;stroke-dashoffset:0;stroke-opacity:1;visibility:visible;display:inline;overflow:visible" transform="matrix(2.02703 0 0 2.02703 -106.7747839 -499.110842)"/>
  <path d="M193.08738 273.8683c14.85445 14.4494 6.75108 20.20108 7.47884 21.2073.6847.94669 2.56684-.82796 3.43147-2.46596" style="fill:#f7e017;fill-opacity:.75;fill-rule:evenodd;stroke:#000;stroke-width:.60449755;stroke-linecap:butt;stroke-linejoin:miter;marker:none;marker-start:none;marker-mid:none;marker-end:none;stroke-miterlimit:4;stroke-dasharray:none;stroke-dashoffset:0;stroke-opacity:1;visibility:visible;display:inline;overflow:visible" transform="matrix(2.02703 0 0 2.02703 -106.7747839 -499.110842)"/>
  <path d="M194.84289 281.39436c-1.57065-.05524-2.96709.62094-3.89075 1.58115" style="fill:#f7e017;fill-opacity:.75;fill-rule:evenodd;stroke:#000;stroke-width:.60449755;stroke-linecap:butt;stroke-linejoin:miter;marker:none;marker-start:none;marker-mid:none;marker-end:none;stroke-miterlimit:4;stroke-dasharray:none;stroke-dashoffset:0;stroke-opacity:1;visibility:visible;display:inline;overflow:visible" transform="matrix(2.02703 0 0 2.02703 -106.7747839 -499.110842)"/>
  <path d="M191.19532 284.22951c1.82089 0 2.7631 1.56097 3.93937 2.39899-1.2093.94079-2.21948 2.19411-4.03665 2.18089" style="fill:#f7e017;fill-opacity:.75;fill-rule:evenodd;stroke:#000;stroke-width:.40299836px;stroke-linecap:butt;stroke-linejoin:miter;stroke-opacity:1" transform="matrix(2.02703 0 0 2.02703 -106.7747839 -499.110842)"/>
  <path d="M192.4112 286.51948c0 1.0238-.47903 1.85376-1.06995 1.85376-.59092 0-1.06996-.82996-1.06996-1.85376s.47904-1.85376 1.06996-1.85376 1.06995.82996 1.06995 1.85376z" style="fill:#f7e017;fill-opacity:1;fill-rule:evenodd;stroke:none;stroke-width:1.5;stroke-linecap:butt;stroke-linejoin:miter;marker:none;marker-start:none;marker-mid:none;marker-end:none;stroke-miterlimit:4;stroke-dasharray:none;stroke-dashoffset:0;stroke-opacity:1;visibility:visible;display:inline;overflow:visible" transform="matrix(2.02703 0 0 2.02703 -106.7747839 -499.110842)"/>
  <path d="M192.63926 322.28844c1.88527-.70696 2.91634-2.44451 2.82198-4.56294" style="fill:#f7e017;fill-opacity:.75;fill-rule:evenodd;stroke:#000;stroke-width:.60449755;stroke-linecap:butt;stroke-linejoin:miter;marker:none;marker-start:none;marker-mid:none;marker-end:none;stroke-miterlimit:4;stroke-dasharray:none;stroke-dashoffset:0;stroke-opacity:1;visibility:visible;display:inline;overflow:visible" transform="matrix(2.02703 0 0 2.02703 -106.7747839 -499.110842)"/>
  <path d="M212.49959 316.10245c-3.30865 2.59797-5.05158 5.80648-5.68039 9.44943" style="fill:#f7e017;fill-opacity:.75;fill-rule:evenodd;stroke:#000;stroke-width:.60449755;stroke-linecap:butt;stroke-linejoin:miter;marker:none;marker-start:none;marker-mid:none;marker-end:none;stroke-miterlimit:4;stroke-dasharray:none;stroke-dashoffset:0;stroke-opacity:1;visibility:visible;display:inline;overflow:visible" transform="matrix(2.02703 0 0 2.02703 -106.7747839 -499.110842)"/>
  <path d="M187.68266 331.51965c-9.82851 15.77507 14.51004 25.48014 14.51004 9.45739" style="fill:#f7e017;fill-opacity:.75;fill-rule:evenodd;stroke:#000;stroke-width:.60449755;stroke-linecap:butt;stroke-linejoin:miter;marker:none;marker-start:none;marker-mid:none;marker-end:none;stroke-miterlimit:4;stroke-dasharray:none;stroke-dashoffset:0;stroke-opacity:1;visibility:visible;display:inline;overflow:visible" transform="matrix(2.02703 0 0 2.02703 -106.7747839 -499.110842)"/>
  <path d="M191.49947 339.40808c-.1181 2.51277.81562 3.15923 2.25444 3.15923" style="fill:#f7e017;fill-opacity:.75;fill-rule:evenodd;stroke:#000;stroke-width:.60449755;stroke-linecap:butt;stroke-linejoin:miter;marker:none;marker-start:none;marker-mid:none;marker-end:none;stroke-miterlimit:4;stroke-dasharray:none;stroke-dashoffset:0;stroke-opacity:1;visibility:visible;display:inline;overflow:visible" transform="matrix(2.02703 0 0 2.02703 -106.7747839 -499.110842)"/>
  <path d="M308.96987 277.57708c6.38495 7.5124 14.06174 1.06763 23.99827 2.17546" style="fill:#f7e017;fill-opacity:.75;fill-rule:evenodd;stroke:#000;stroke-width:.60449755;stroke-linecap:butt;stroke-linejoin:miter;marker:none;marker-start:none;marker-mid:none;marker-end:none;stroke-miterlimit:4;stroke-dasharray:none;stroke-dashoffset:0;stroke-opacity:1;visibility:visible;display:inline;overflow:visible" transform="matrix(2.02703 0 0 2.02703 -106.7747839 -499.110842)"/>
  <path d="m287.95435 279.47548 2.67764 3.302" style="fill:#f7e017;fill-opacity:.75;fill-rule:evenodd;stroke:#000;stroke-width:.60449755;stroke-linecap:butt;stroke-linejoin:miter;marker:none;marker-start:none;marker-mid:none;marker-end:none;stroke-miterlimit:4;stroke-dasharray:none;stroke-dashoffset:0;stroke-opacity:1;visibility:visible;display:inline;overflow:visible" transform="matrix(2.02703 0 0 2.02703 -106.7747839 -499.110842)"/>
  <path d="M189.17553 375.87335c-10.17255 11.31947 6.27039 20.93032 4.36584 31.51958 7.1849-5.4119 2.44367-14.46744 1.39219-23.18779 3.43732.60481 3.32989 7.8808 4.16789 14.44222.47703 3.735 2.84197 3.39278 4.98004.83759 3.25035 10.8424 12.6078 9.0437 7.33419-3.5986 6.27658 9.49029 5.04575 2.40579 2.41164-4.61341-2.09289-5.57696-8.14081-8.84075-3.35888-10.67836 2.99031-1.14912 2.39015 19.41197 9.67125 15.61209 4.33277-2.26119-4.96815-12.93096-.67705-13.64839 2.49163-.41658-.03558 18.06997 11.59988 12.9033l-.7013-2.62924c-7.34941-2.71594-1.51441-21.39948-15.01678-21.40168l-26.16891 4.44269z" style="fill:#f7e017;fill-opacity:1;fill-rule:evenodd;stroke:#000;stroke-width:.60449755;stroke-linecap:butt;stroke-linejoin:miter;marker:none;marker-start:none;marker-mid:none;marker-end:none;stroke-miterlimit:4;stroke-dasharray:none;stroke-dashoffset:0;stroke-opacity:1;visibility:visible;display:inline;overflow:visible" transform="matrix(2.02703 0 0 2.02703 -106.7747839 -499.110842)"/>
  <path d="M200.28111 376.81377c.89646 1.45965 2.15192 4.52914 3.51358 8.07486-.19091-3.15117-1.73414-6.30234.17568-9.4535l-3.68926 1.37864z" style="fill:#f7e017;fill-opacity:1;fill-rule:evenodd;stroke:#000;stroke-width:.60449755;stroke-linecap:butt;stroke-linejoin:miter;marker:none;marker-start:none;marker-mid:none;marker-end:none;stroke-miterlimit:4;stroke-dasharray:none;stroke-dashoffset:0;stroke-opacity:1;visibility:visible;display:inline;overflow:visible" transform="matrix(2.02703 0 0 2.02703 -106.7747839 -499.110842)"/>
  <path d="m189.63828 376.5314.45344 4.82916" style="fill:#f7e017;fill-opacity:.75;fill-rule:evenodd;stroke:#000;stroke-width:.60449755;stroke-linecap:square;stroke-linejoin:miter;marker:none;marker-start:none;marker-mid:none;marker-end:none;stroke-miterlimit:4;stroke-dasharray:none;stroke-dashoffset:0;stroke-opacity:1;visibility:visible;display:inline;overflow:visible" transform="matrix(2.02703 0 0 2.02703 -106.7747839 -499.110842)"/>
  <path d="M212.0516 373.6626c3.3912.64454 4.5193 1.7965 5.62174 2.95421" style="fill:#f7e017;fill-opacity:.75;fill-rule:evenodd;stroke:#000;stroke-width:.60449755;stroke-linecap:butt;stroke-linejoin:miter;marker:none;marker-start:none;marker-mid:none;marker-end:none;stroke-miterlimit:4;stroke-dasharray:none;stroke-dashoffset:0;stroke-opacity:1;visibility:visible;display:inline;overflow:visible" transform="matrix(2.02703 0 0 2.02703 -106.7747839 -499.110842)"/>
  <path d="M216.45203 365.37269c-.60143.05171-1.17011.32766-1.61537.78384-5.15851 5.17532-13.1667 7.81535-27.2443 5.16252-1.47138-.27616-2.86385.83716-3.11019 2.48666-.24634 1.64951.74674 3.21057 2.21812 3.48673 15.01618 2.8297 25.1311-.00292 31.72876-6.62208.87407-.85753 1.16114-2.24556.71285-3.4468-.44829-1.20125-1.5315-1.94659-2.68987-1.85087z" style="fill:#f7e017;fill-opacity:1;fill-rule:evenodd;stroke:#000;stroke-width:.60449755;stroke-linecap:round;stroke-linejoin:miter;stroke-miterlimit:4;stroke-dasharray:none;stroke-opacity:1" transform="matrix(2.02703 0 0 2.02703 -106.7747839 -499.110842)"/>
  <path d="M191.84851 384.29779c-2.58051 8.35052 5.13112 5.67219 4.30202 19.9477" style="fill:#f7e017;fill-opacity:.75;fill-rule:evenodd;stroke:#000;stroke-width:.60449755;stroke-linecap:round;stroke-linejoin:miter;marker:none;marker-start:none;marker-mid:none;marker-end:none;stroke-miterlimit:4;stroke-dasharray:none;stroke-dashoffset:0;stroke-opacity:1;visibility:visible;display:inline;overflow:visible" transform="matrix(2.02703 0 0 2.02703 -106.7747839 -499.110842)"/>
  <path style="font-size:40px;font-style:normal;font-variant:normal;font-weight:400;font-stretch:normal;text-align:start;line-height:100%;writing-mode:lr-tb;text-anchor:start;fill:#f7df18;fill-opacity:1;stroke:#000;stroke-width:1px;stroke-linecap:butt;stroke-linejoin:miter;stroke-opacity:1;font-family:Gaeilge 1;-inkscape-font-specification:'Gaeilge 1,'" d="M179.67012 452.87604c-1.50146 1.6546-2.67528 3.01962-3.52144 4.09507-.49143.6067-1.10564 1.53051-1.84261 2.77141l-47.37547-.33092c1.06459 6.48046 3.13923 11.27873 6.22392 14.39484 3.57598 3.77794 8.77623 5.66692 15.60073 5.66692 2.56596 0 7.3431-2.05443 14.33139-6.16331 2.45676-1.54425 5.63695-3.61247 9.54061-6.20465-1.8836 2.26126-3.8354 5.65314-5.8554 10.17564-.68248 1.46156-1.48778 3.43326-2.41585 5.91512-1.63794.35849-2.87998.59289-3.72616.70319-2.72984.33091-4.59975.49638-5.60973.49638-3.41227 0-6.53787-.62047-9.37681-1.8614-2.97551 1.18578-6.04651 1.77868-9.21303 1.77868-7.39776 0-13.02112-2.42673-16.87011-7.28014-3.57602-4.46735-5.36402-10.25838-5.36402-17.37307 0-8.68651 2.9345-16.50437 8.80357-23.45364 5.86902-6.94916 12.35225-10.42378 19.44973-10.42383 1.33758.00005 2.72976.08279 4.17658.24817 1.41944.22068 2.87989.64811 4.38131 1.2823 1.44675-.74449 2.62055-1.25466 3.52143-1.53047.84618-.2757 1.93811-.41359 3.27575-.41366 4.17651.00007 7.80713 1.15828 10.89185 3.47463 3.02999 2.37162 4.54503 5.66696 4.5451 9.8861-.00007 5.65318-2.8527 10.12053-8.55789 13.40206-1.96551.96522-4.84542 2.01311-8.63977 3.14371l23.62632-2.39913zm-19.04028-12.61617c-.27304-2.2612-.62791-3.95714-1.06463-5.08782-1.52873-3.39183-3.90364-5.08777-7.12475-5.08782-4.09472.00005-8.81724 2.63358-14.1676 7.90061-6.00555 5.65318-9.64981 11.71996-10.9328 18.20035 3.30303.00003 6.18296-.11027 8.63978-.33091 6.60606-.63424 11.94279-1.93032 16.01021-3.88826 5.7598-2.78518 8.63973-6.68723 8.63979-11.70615zm90.86101 42.27446-17.44335.33091c-2.29308-.71698-4.50419-2.15094-6.6334-4.3019-.90087-.91-1.96549-2.12337-3.19383-3.64007l-5.11837-6.61831c-2.40224-3.44701-4.85904-5.95646-7.37041-7.52833-3.93094-2.42669-9.15849-3.64003-15.68264-3.64007v15.38758c-.00002 2.04066.05457 3.62628.16377 4.7569.10919 1.13064.40947 2.88173.90084 5.25329l-14.74086 1.19957c.05459 0 .27298-1.26851.65515-3.80554.30028-2.50943.6415-6.46663 1.02367-11.87159.32757-5.37735.49135-10.71336.49135-16.00803 0-6.61827-.0273-11.95428-.08189-16.00803-.16377-4.08124-.40946-7.25252-.73704-9.51382 2.72979.16551 5.66431.31719 8.80358.455 3.05733.16551 5.45956.24825 7.20664.24819 2.02002.00006 4.95454-.15162 8.80357-.455 3.84896-.22055 7.8208-.46875 11.91552-.74458 5.24115.00007 9.64975 1.13069 13.22581 3.3919 3.98545 2.48192 5.97819 5.72212 5.97826 9.72064-.00007 4.52256-2.40227 8.31429-7.20664 11.37521-3.93096 2.53707-8.96741 4.28815-15.10938 5.25328 3.303.60671 6.31941 2.01311 9.04923 4.21918 2.07459 1.6546 4.25843 3.97101 6.5515 6.94923l8.72168 10.67202c2.62053 2.37157 5.89628 3.55734 9.82724 3.55734v1.36503zm-27.35249-40.90942c-.00005-3.22639-1.17384-5.99779-3.52142-8.31427-2.51145-2.48181-5.7326-3.72273-9.66346-3.72279-5.13203.00006-9.00831 2.17858-11.62889 6.53559-2.07467 3.39192-3.11199 7.56973-3.11197 12.53342l-.16377 5.91512 6.01917.33091c5.97821.00003 11.01467-1.06166 15.10938-3.18507 4.6406-2.5094 6.96091-5.87371 6.96096-10.09291zm51.6749 40.90942-15.60073.66183c.49135-3.30916.84622-6.03921 1.06461-8.19017.68243-6.50799 1.02365-12.35415 1.02367-17.53852v-9.59655c-.00002-3.83304-.1365-7.47312-.40946-10.92021-.3276-3.39181-.88719-6.60445-1.67882-9.63791h15.60073c-.46408 3.61256-.8053 6.43912-1.02367 8.47972-.70976 6.20471-1.06463 10.65827-1.06461 13.3607v9.76202c-.00002 2.97826.35485 7.8041 1.06461 14.47756.21837 2.20611.55959 5.25328 1.02367 9.14153zm73.29483-34.12566c-.00007 8.13504-2.32039 15.0153-6.96096 20.64084-3.79448 4.63284-8.94011 8.10744-15.43697 10.42385l21.61992-3.39188c-1.03738 1.70973-1.70617 2.70248-2.00639 2.97824-.49141.91003-1.07832 2.06822-1.7607 3.47461h-38.7357l.40946-1.86139c2.07462 0 4.68156-.45502 7.82085-1.36505 5.97819-1.62698 10.86451-4.2743 14.65897-7.94197 5.32302-5.10158 7.98456-11.80261 7.98462-20.1031-.00006-5.29462-1.11926-9.98259-3.35763-14.06391-2.45686-4.57761-5.65072-6.86644-9.58155-6.86651-5.75991.00007-10.75541 3.59878-14.98655 10.79613-3.35767 5.62561-5.99192 13.09877-7.90273 22.41953-1.55601 7.33531-2.33399 13.66404-2.33399 18.98627-2.29302 0-5.33673.3447-9.13112 1.0341-.68247.11032-1.58331.33092-2.70251.66183.79163-4.74311 1.37854-8.67273 1.76073-11.78885 1.22839-9.32078 1.84259-17.64879 1.84259-24.98412 0-3.72276-.30028-7.25253-.90081-10.5893-.73706-3.33669-1.82897-6.54931-3.27575-9.63791h11.99741c.60053 1.18583 1.01 2.56464 1.22841 4.13645.30025 1.6822.55959 4.02618.77798 7.03195 1.71976-3.11607 4.17656-5.68067 7.37044-7.69378 3.52139-2.31636 7.71162-3.47456 12.57067-3.47462h2.29302c3.05731-1.13058 5.8963-1.69588 8.51694-1.69594 5.54143.00006 9.93638 2.16479 13.18489 6.49423 3.35758 4.41224 5.03639 9.87233 5.03646 16.3803zm69.44582-10.75474.69609.41364c-4.44958 2.34402-7.02924 5.98409-7.73896 10.92021-.1092.79974-.1638 1.58566-.16378 2.35777.10917 2.20613.95541 4.30192 2.53871 6.28739 2.10191 2.5922 4.6406 4.31571 7.61611 5.17056 1.33755.33094 4.77709.75837 10.31859 1.28228 2.56596.22064 4.62695.55156 6.18297.99275 4.36761 1.24096 7.47956 3.90207 9.33589 7.98335 1.00996 2.31641 1.56957 4.82584 1.67882 7.52831-.00007.44124-.00007.89624 0 1.36503.05453 1.4064-.06831 2.89551-.36852 4.46737-1.55605 10.06533-5.48695 16.84909-11.79269 20.35129-2.86632 1.51668-6.08748 2.35775-9.66346 2.52324-.54599.05512-1.1329.0827-1.76071.08272-3.41227-.00002-7.12477-.56534-11.13753-1.69594-.95545-.27579-2.23845-.49638-3.84901-.66183-4.25849-.27579-6.57881-.44123-6.96096-.49636-3.76711-1.07551-6.67434-3.33675-8.72168-6.78378-1.52869-2.37158-2.34761-4.85343-2.4568-7.44559v-.86866c0-.91002.05459-1.84762.16378-2.81277.21839-1.04792.72339-2.799 1.51504-5.25329.27296-.82729.72339-2.01306 1.35124-3.55734 1.44678 1.13062 3.07101 1.90277 4.87268 2.31641 1.66515.55153 3.37126.85487 5.11834.91002h1.39221c.57324.05515 1.13283.05515 1.67881 0 .73702-.05515 1.52867-.13789 2.37491-.24819-1.5833 1.87519-2.59332 3.19883-3.03006 3.97098-1.11922 1.70973-1.81531 3.43324-2.08828 5.17056-.10922.68939-.16382 1.33743-.16379 1.94411-.00003.2482-.00003.48258 0 .70322.10918 1.9579.72336 3.73656 1.84261 5.33601 1.61056 2.15092 4.14924 3.73656 7.61611 4.7569.8462.2206 1.71974.33089 2.62059.33092 2.72976-.16547 5.74618-1.61324 9.04926-4.34327 4.69519-3.72281 7.49321-8.41078 8.39409-14.06392.05455-.60668.08184-1.17198.08188-1.69593-.00004-.27577-.00004-.55152 0-.82728-.10922-2.09579-.75072-4.10886-1.92448-6.0392-1.74712-2.59218-3.93094-4.24676-6.55149-4.96374-1.9109-.52396-3.61701-.92381-5.11836-1.19957-5.26853-.96515-8.12115-1.5029-8.55789-1.61322-4.69527-1.35121-8.43507-3.88824-11.21942-7.61105-2.29305-3.06095-3.5624-6.53555-3.80806-10.42383-.00003-.2206-.00003-.48256 0-.78594-.00003-1.29604.12283-2.64728.36851-4.05371.46406-3.14366 1.32395-6.02537 2.57966-8.64516-2.9482.27581-5.69163.70323-8.23031 1.2823l-2.00639-13.23662c5.43226.91006 10.86453 1.47538 16.29682 1.69594 1.61055.05521 3.27572.08279 4.99553.08272 4.14924.00007 8.68069-.13783 13.59433-.41364 6.14199-.2757 12.54333-.95132 19.20407-2.02685 1.17376-.11026 2.63418-.38602 4.38131-.8273l2.17018 17.16624c-4.69529-2.42666-9.47243-3.94337-14.33139-4.55009-2.45686-.30328-5.6507-.45496-9.58155-.455-2.62064.00004-5.55517.06898-8.80357.20683zm108.30436 15.13936c-.00008 9.95506-3.35771 17.60748-10.07292 22.95728-6.68804 5.43252-16.6654 8.14878-29.93214 8.14878-7.86182 0-14.45425-2.71626-19.77731-8.14878-5.07742-5.18433-7.61611-11.33385-7.61611-18.44854 0-8.02468 2.90721-15.02905 8.72166-21.01315 5.81444-5.98399 12.8846-8.97601 21.21046-8.97608 3.41221-.79964 6.79714-1.19951 10.15482-1.19955 8.21662.00004 14.86365 2.56464 19.94111 7.69378 4.91355 4.99135 7.37035 11.3201 7.37043 18.98626zm-11.6289 1.03411c-.00007-6.2322-2.2385-11.85774-6.71527-16.87669-4.47691-5.01881-9.73175-7.52826-15.76455-7.52831-5.70527.00005-10.74174 2.74388-15.10938 8.23153-4.42227 5.51528-6.6334 11.49934-6.63338 17.95216-.00002 6.42528 2.18382 12.14736 6.55149 17.16624 4.31304 5.04646 9.62248 7.56969 15.92833 7.56969 5.26845 0 10.22301-2.85415 14.86369-8.56244 4.58598-5.65313 6.879-11.63717 6.87907-17.95218zm107.2807 0c-.00007-6.2322-2.2385-11.85774-6.71529-16.87669-4.47691-5.01881-9.73175-7.52826-15.76453-7.52831-5.70529.00005-10.74174 2.74388-15.10938 8.23153-4.42229 5.51528-6.6334 11.49934-6.6334 17.95216 0 6.42528 2.18382 12.14736 6.55149 17.16624 4.31304 5.04646 9.62248 7.56969 15.92833 7.56969 5.26844 0 10.22301-2.85415 14.86369-8.56244 4.586-5.65313 6.87902-11.63717 6.87909-17.95218zm-47.8259-20.51676 1.92448 1.86141c5.62336-5.23943 12.31134-7.85918 20.06396-7.85925 3.41219-.79964 6.79712-1.19951 10.15482-1.19955 8.2166.00004 14.86363 2.56464 19.94108 7.69378 4.91356 4.99135 7.37038 11.3201 7.37044 18.98626-.00006 9.95506-3.35769 17.60748-10.07292 22.95728-6.68804 5.43252-16.6654 8.14878-29.93212 8.14878-7.86182 0-14.45425-2.71626-19.77734-8.14878-4.64063-4.74312-7.15202-10.29974-7.53419-16.66988l-.61421 1.32366c0-2.81275.20473-5.06022.61421-6.74239l-.36854.08272c.51867-4.52248.778-9.0174.778-13.48481 0-2.20605-.05461-4.41216-.1638-6.61831 0-.77209-.02729-1.58558-.08188-2.44049-.0546-.85481-.08189-1.73726-.08189-2.64733-.10921-2.86788-.50502-5.06018-1.18747-6.57695-.90083-2.09572-2.41585-3.4056-4.5451-3.92962l.45043-1.57183c1.06461.11036 1.86989.19308 2.41585.24817 1.96545.16553 3.16657.24825 3.60333.24819 1.283-.11023 2.51139-.24813 3.6852-.41364 1.11921-.19298 2.49775-.48251 4.13564-.86866-.24568 3.28164-.39583 5.81867-.45043 7.61106-.21839 4.46741-.32757 7.80414-.32755 10.01018zm129.67859 49.22369-17.44335.33091c-2.29306-.71698-4.5042-2.15094-6.63338-4.3019-.90088-.91-1.96549-2.12337-3.19386-3.64007l-5.11836-6.61831c-2.40225-3.44701-4.85905-5.95646-7.37042-7.52833-3.93091-2.42669-9.15846-3.64003-15.68263-3.64007v15.38758c-.00002 2.04066.05459 3.62628.16379 4.7569.10917 1.13064.40945 2.88173.90082 5.25329l-14.74086 1.19957c.05459 0 .27298-1.26851.65515-3.80554.30028-2.50943.6415-6.46663 1.02369-11.87159.32755-5.37735.49135-10.71336.49135-16.00803 0-6.61827-.0273-11.95428-.08189-16.00803-.1638-4.08124-.40948-7.25252-.73706-9.51382 2.72981.16551 5.66431.31719 8.80357.455 3.05736.16551 5.45957.24825 7.20665.24819 2.02004.00006 4.95454-.15162 8.80357-.455 3.84896-.22055 7.8208-.46875 11.91554-.74458 5.24113.00007 9.64975 1.13069 13.22581 3.3919 3.98543 2.48192 5.97817 5.72212 5.97824 9.72064-.00007 4.52256-2.40227 8.31429-7.20665 11.37521-3.93093 2.53707-8.96739 4.28815-15.10937 5.25328 3.303.60671 6.31941 2.01311 9.04925 4.21918 2.07459 1.6546 4.25841 3.97101 6.5515 6.94923l8.72166 10.67202c2.62053 2.37157 5.89628 3.55734 9.82724 3.55734v1.36503zm-27.35247-40.90942c-.00005-3.22639-1.17386-5.99779-3.52144-8.31427-2.51143-2.48181-5.73258-3.72273-9.66344-3.72279-5.13203.00006-9.00833 2.17858-11.62891 6.53559-2.07465 3.39192-3.11197 7.56973-3.11195 12.53342l-.16379 5.91512 6.01917.33091c5.97821.00003 11.01469-1.06166 15.1094-3.18507 4.6406-2.5094 6.96091-5.87371 6.96096-10.09291zm40.49642 30.89923 17.36143-39.04803c.73702-2.0406 1.10554-3.84683 1.10558-5.41873-.00004-.33087-.00004-.66179 0-.99275-.10923-.46874-.16382-.81345-.1638-1.03413 1.44676.27583 2.62058.46888 3.52143.57911 2.56597.4137 4.27208.62053 5.11836.62047 2.29298.00006 4.58601-.39979 6.87907-1.19958l15.60073 37.51756c.92807 2.20611 1.76066 4.06752 2.49776 5.5842h.32758c-.00006.30334-.00006.59289 0 .86864.79157 1.68217 1.37847 2.89554 1.7607 3.64007 1.96539 3.55735 4.3676 6.5218 7.20665 8.89336l-18.50796 1.19957c-.00006-.46881-.10925-1.03411-.32757-1.69594-1.22846.33092-2.5524.49637-3.97184.49637-1.77442 0-3.67163-.2482-5.69163-.74456-2.12926-.46879-6.68801-1.88898-13.67622-4.26054-4.96825-1.627-8.57158-2.44049-10.80996-2.44049l-2.94818 7.44559-14.0857 1.19957c2.02004-1.18579 3.64424-2.57839 4.87267-4.17781.16378-.2206.30026-.41364.40946-.57911.73704-2.70245 1.91084-4.85341 3.52144-6.45284zm41.1106 4.09507c-.51871-1.24092-1.02373-2.63352-1.51504-4.1778-.68249-1.84759-1.7471-4.46734-3.19384-7.85924l-12.4888-29.16193-11.75172 29.16193-1.76072 4.46734c1.58326.05517 3.07098.262 4.46321.62047 3.4668.77215 8.27121 2.20614 14.41328 4.3019 3.35759 1.18579 5.86901 1.97173 7.53422 2.35777 1.06457.2482 2.18377.3723 3.35763.3723.30024 0 .61417-.02757.94178-.08274zm49.25903-38.96528.69611.41364c-4.44958 2.34402-7.02924 5.98409-7.73896 10.92021-.10922.79974-.16381 1.58566-.16379 2.35777.10918 2.20613.9554 4.30192 2.5387 6.28739 2.10191 2.5922 4.64062 4.31571 7.61611 5.17056 1.33757.33094 4.7771.75837 10.31861 1.28228 2.56596.22064 4.62695.55156 6.18297.99275 4.36762 1.24096 7.47957 3.90207 9.33587 7.98335 1.00996 2.31641 1.56957 4.82584 1.67882 7.52831-.00006.44124-.00006.89624 0 1.36503.05455 1.4064-.06831 2.89551-.36852 4.46737-1.55603 10.06533-5.48692 16.84909-11.79269 20.35129-2.86632 1.51668-6.08746 2.35775-9.66344 2.52324-.546.05512-1.13291.0827-1.76072.08272-3.41227-.00002-7.12478-.56534-11.13754-1.69594-.95545-.27579-2.23845-.49638-3.84899-.66183-4.25849-.27579-6.57881-.44123-6.96097-.49636-3.76712-1.07551-6.67433-3.33675-8.72167-6.78378-1.52868-2.37158-2.34763-4.85343-2.45682-7.44559v-.86866c0-.91002.0546-1.84762.1638-2.81277.21837-1.04792.72339-2.799 1.51502-5.25329.27298-.82729.72339-2.01306 1.35124-3.55734 1.4468 1.13062 3.07101 1.90277 4.87268 2.31641 1.66517.55153 3.37128.85487 5.11836.91002h1.39219c.57324.05515 1.13285.05515 1.67881 0 .73704-.05515 1.52867-.13789 2.37494-.24819-1.58331 1.87519-2.59333 3.19883-3.03008 3.97098-1.11923 1.70973-1.81532 3.43324-2.08829 5.17056-.1092.68939-.16379 1.33743-.16377 1.94411-.00002.2482-.00002.48258 0 .70322.10916 1.9579.72337 3.73656 1.84259 5.33601 1.61056 2.15092 4.14927 3.73656 7.61611 4.7569.84622.2206 1.71974.33089 2.62059.33092 2.72976-.16547 5.74618-1.61324 9.04926-4.34327 4.69519-3.72281 7.49323-8.41078 8.39411-14.06392.05455-.60668.08185-1.17198.08189-1.69593-.00004-.27577-.00004-.55152 0-.82728-.10925-2.09579-.75075-4.10886-1.92451-6.0392-1.7471-2.59218-3.93093-4.24676-6.55149-4.96374-1.9109-.52396-3.61701-.92381-5.11836-1.19957-5.26851-.96515-8.12115-1.5029-8.55788-1.61322-4.69526-1.35121-8.43506-3.88824-11.21943-7.61105-2.29304-3.06095-3.56238-6.53555-3.80806-10.42383v-.78594c0-1.29604.12283-2.64728.36854-4.05371.46403-3.14366 1.32392-6.02537 2.57963-8.64516-2.94817.27581-5.6916.70323-8.23031 1.2823l-2.00639-13.23662c5.43226.91006 10.86455 1.47538 16.29684 1.69594 1.61056.05521 3.27572.08279 4.99551.08272 4.14924.00007 8.68069-.13783 13.59435-.41364 6.14197-.2757 12.54333-.95132 19.20405-2.02685 1.17376-.11026 2.63419-.38602 4.38133-.8273l2.17017 17.16624c-4.6953-2.42666-9.47241-3.94337-14.33138-4.55009-2.45686-.30328-5.65072-.45496-9.58157-.455-2.62062.00004-5.55514.06898-8.80357.20683zm45.16435 2.60594.40947-26.26641c1.22841.52402 2.1497.86873 2.76391 1.03411.6142.16553 1.34441.24826 2.19067.24819.46403.00007 1.28298-.22055 2.4568-.66183.38217-.13781.94176-.34464 1.67882-.62047v27.38326c1.50137-2.78517 3.58965-5.04641 6.26486-6.78378 3.08465-2.15089 6.74256-3.22636 10.97376-3.22641h1.9245c2.70245-1.13057 5.20021-1.69589 7.49327-1.69596 4.80438.00007 8.62607 1.99935 11.46512 5.99787 2.86622 4.13647 4.29935 9.19671 4.29941 15.18072-.00006 7.55593-2.0201 13.93984-6.06014 19.15174-3.27579 4.30192-7.739 7.51454-13.38962 9.63791l18.75367-3.0196c-.9282 1.5167-1.48781 2.41294-1.67884 2.68868-.43682.85488-.95547 1.93035-1.55596 3.22644h-33.6583l.32757-1.77867c1.80163 0 4.06736-.39985 6.79718-1.19957 5.21386-1.51669 9.47233-3.97097 12.77541-7.36287 4.586-4.68794 6.87901-10.86504 6.87907-18.53126-.00006-4.99129-.95547-9.34832-2.86629-13.07118-2.12928-4.21911-4.90001-6.32869-8.31219-6.32875-5.02285.00006-9.37686 3.29541-13.06204 9.8861-2.9209 5.26712-5.21392 12.18875-6.87907 20.76495-.16382.91005-.3276 1.82005-.49137 2.73005v14.8912c-.57326-.2206-1.07829-.38607-1.51502-.49637-.00002.16545-.00002.33092 0 .49637-2.02006 0-4.68161.3447-7.98465 1.0341-.54596.05515-1.32394.2482-2.33396.57911.70974-4.4122 1.24205-8.07984 1.59692-11.00293.49136-4.02614.87352-7.84544 1.14651-11.45796v-10.25838h.45042c-.00002-.44119-.00002-.8824 0-1.32366-.00002-1.70968-.06826-3.37805-.20474-5.00509h-.24568v-2.19233c-.10919-.90996-.24569-1.79241-.40947-2.64732z" transform="translate(-59.5787049 40.782698)"/>
</svg>
