<?xml version="1.0" encoding="UTF-8" standalone="no"?>
<svg xmlns:dc="http://purl.org/dc/elements/1.1/" xmlns:cc="http://creativecommons.org/ns#" xmlns:rdf="http://www.w3.org/1999/02/22-rdf-syntax-ns#" xmlns:svg="http://www.w3.org/2000/svg" xmlns="http://www.w3.org/2000/svg" xmlns:xlink="http://www.w3.org/1999/xlink" xmlns:sodipodi="http://sodipodi.sourceforge.net/DTD/sodipodi-0.dtd" xmlns:inkscape="http://www.inkscape.org/namespaces/inkscape" version="1.0" width="450" height="300" id="svg3532" inkscape:version="0.48.1 " sodipodi:docname="Green harp flag of Ireland 1790s.svg">
  <metadata id="metadata3741">
    <rdf:RDF>
      <cc:Work rdf:about="">
        <dc:format>image/svg+xml</dc:format>
        <dc:type rdf:resource="http://purl.org/dc/dcmitype/StillImage"/>
        <dc:title/>
      </cc:Work>
    </rdf:RDF>
  </metadata>
  <defs id="defs3739"/>
  <sodipodi:namedview pagecolor="#ffffff" bordercolor="#666666" borderopacity="1" objecttolerance="10" gridtolerance="10" guidetolerance="10" inkscape:pageopacity="0" inkscape:pageshadow="2" inkscape:window-width="1440" inkscape:window-height="838" id="namedview3737" showgrid="false" inkscape:zoom="0.5" inkscape:cx="446.60297" inkscape:cy="262.90834" inkscape:window-x="-8" inkscape:window-y="-8" inkscape:window-maximized="1" inkscape:current-layer="svg3532" fit-margin-top="0" fit-margin-left="0" fit-margin-right="0" fit-margin-bottom="0"/>
  <rect width="450" height="300" id="rect3534" style="fill:#009a49;fill-opacity:1" x="0" y="0"/>
  <clipPath id="canton">
    <rect width="300" height="150" id="rect3537" x="0" y="0"/>
  </clipPath>
  <clipPath id="patrick">
    <path d="m 150,75 h 150 v 75 z m 0,0 v 75 H 0 z m 0,0 H 0 V 0 z m 0,0 V 0 h 150 z" id="path3540" inkscape:connector-curvature="0"/>
  </clipPath>
  <g transform="matrix(5, 0, 0, 5, -233.143, -16.201)" id="g3554">
    <g transform="matrix(0.154304, 0, 0, 0.172985, 36.0286, -82.325)" id="g3556" style="fill:none;stroke:#000000;stroke-width:1.5">
      <path d="m 459.4017,586.73305 -42.34013,180.14846 -42.02434,16.27534 82.81204,-214.34943 1.55243,17.92563 z" id="path3558" inkscape:connector-curvature="0" style="fill:#ffdf00;stroke:#000000;stroke-width:1.5"/>
      <g transform="translate(111.111, 295.796)" id="g3560">
        <path d="m 293.5053,470.41277 -26.87338,10.31428" id="line" inkscape:connector-curvature="0" style="stroke-width:1"/>
        <use xlink:href="#line" transform="translate(13.1875, -87.079)" id="use3563" x="0" y="0" width="600" height="300"/>
        <use xlink:href="#line" transform="translate(1.25597, -8.29324)" id="use3565" x="0" y="0" width="600" height="300"/>
        <use xlink:href="#line" transform="translate(1.88394, -12.4399)" id="use3567" x="0" y="0" width="600" height="300"/>
        <use xlink:href="#line" transform="translate(2.51192, -16.5865)" id="use3569" x="0" y="0" width="600" height="300"/>
        <use xlink:href="#line" transform="translate(3.13989, -20.7331)" id="use3571" x="0" y="0" width="600" height="300"/>
        <use xlink:href="#line" transform="translate(3.76786, -24.8797)" id="use3573" x="0" y="0" width="600" height="300"/>
        <use xlink:href="#line" transform="translate(4.39583, -29.0263)" id="use3575" x="0" y="0" width="600" height="300"/>
        <use xlink:href="#line" transform="translate(5.02381, -33.173)" id="use3577" x="0" y="0" width="600" height="300"/>
        <use xlink:href="#line" transform="translate(5.65178, -37.3196)" id="use3579" x="0" y="0" width="600" height="300"/>
        <use xlink:href="#line" transform="translate(6.27976, -41.4662)" id="use3581" x="0" y="0" width="600" height="300"/>
        <use xlink:href="#line" transform="translate(6.90773, -45.6128)" id="use3583" x="0" y="0" width="600" height="300"/>
        <use xlink:href="#line" transform="translate(7.5357, -49.7594)" id="use3585" x="0" y="0" width="600" height="300"/>
        <use xlink:href="#line" transform="translate(8.16368, -53.9061)" id="use3587" x="0" y="0" width="600" height="300"/>
        <use xlink:href="#line" transform="translate(8.79165, -58.0527)" id="use3589" x="0" y="0" width="600" height="300"/>
        <use xlink:href="#line" transform="translate(9.41962, -62.1993)" id="use3591" x="0" y="0" width="600" height="300"/>
        <use xlink:href="#line" transform="translate(10.0476, -66.3459)" id="use3593" x="0" y="0" width="600" height="300"/>
        <use xlink:href="#line" transform="translate(10.6756, -70.4926)" id="use3595" x="0" y="0" width="600" height="300"/>
        <use xlink:href="#line" transform="translate(11.3035, -74.6392)" id="use3597" x="0" y="0" width="600" height="300"/>
        <use xlink:href="#line" transform="translate(11.9315, -78.7858)" id="use3599" x="0" y="0" width="600" height="300"/>
        <use xlink:href="#line" transform="translate(12.5595, -82.9324)" id="use3601" x="0" y="0" width="600" height="300"/>
        <use xlink:href="#line" transform="translate(0.627996, -4.14662)" id="use3603" x="0" y="0" width="600" height="300"/>
      </g>
      <path d="m 444.14656,578.93551 -95.92058,200.98853 26.81125,3.23281 82.81204,-214.34943 -13.70271,10.12809 z" id="path3605" inkscape:connector-curvature="0" style="fill:#ffdf00"/>
      <path d="m 389.98611,591.6708 c -2.0122,1.78472 -4.02989,3.55074 -6.03125,5.28125 l 34.46875,44.09375 c 1.36345,1.74316 3.88185,2.05095 5.625,0.6875 1.74315,-1.36344 2.05095,-3.88185 0.6875,-5.625 l -34.75,-44.4375 z m -12.75,11 c -2.06529,1.72874 -4.13601,3.43401 -6.1875,5.09375 l 39.53125,50.5625 c 1.36346,1.74315 3.88185,2.05095 5.625,0.6875 1.74316,-1.36345 2.05095,-3.88185 0.6875,-5.625 L 377.23611,602.6708 z m -13.09375,10.5625 c -2.1328,1.65169 -4.25977,3.27993 -6.375,4.84375 l 44.96875,57.53125 c 1.36346,1.74314 3.88185,2.05095 5.625,0.6875 1.74316,-1.36346 2.05095,-3.88185 0.6875,-5.625 l -44.90625,-57.4375 z m -13.5625,9.96875 c -2.2193,1.54399 -4.4283,3.06901 -6.625,4.5 l 50.9375,65.15625 c 1.36346,1.74316 3.88185,2.05095 5.625,0.6875 1.74316,-1.36344 2.05095,-3.88185 0.6875,-5.625 l -50.625,-64.71875 z m -14.15625,9.1875 c -2.36254,1.40789 -4.69916,2.74435 -7.03125,4 l 57.65625,73.75 c 1.36346,1.74314 3.88185,2.05095 5.625,0.6875 1.74316,-1.36346 2.05095,-3.88185 0.6875,-5.625 l -56.9375,-72.8125 z m -15.09375,8.03125 c -2.55459,1.18854 -5.08187,2.27499 -7.59375,3.25 l 65.46875,83.75 c 1.36345,1.74316 3.88185,2.05095 5.625,0.6875 1.74315,-1.36344 2.05095,-3.88185 0.6875,-5.625 l -64.1875,-82.0625 z m -16.4375,6.28125 c -2.89813,0.83209 -5.76286,1.47289 -8.59375,1.96875 l 75.0625,96.03125 c 1.36345,1.74315 3.88185,2.05095 5.625,0.6875 1.74315,-1.36345 2.05095,-3.88185 0.6875,-5.625 l -72.78125,-93.0625 z" id="path3607" inkscape:connector-curvature="0" style="fill:#ffffff;stroke-linecap:round"/>
      <path d="m 281.79117,651.52284 c 8.61132,13.80269 14.05249,9.64119 18.83922,1.77121 l -9.01706,-16.10189 -12.55948,4.66955 2.73732,9.66113 z" id="path3609" inkscape:connector-curvature="0" style="fill:#ffdf00"/>
      <path d="m 291.90001,643.03042 c 8.99722,16.82446 14.64182,18.00067 21.07964,10.66382 l -12.64779,-16.11972 -8.43185,5.4559 z" id="path3611" inkscape:connector-curvature="0" style="fill:#ffdf00"/>
      <path d="m 300.46937,643.06935 c 20.32982,23.10825 27.80699,16.45246 34.09576,7.04458 l -35.50468,-20.85196 1.40892,13.80738 z" id="path3613" inkscape:connector-curvature="0" style="fill:#ffdf00"/>
      <path d="m 316.58686,641.64165 c 10.74392,10.15076 36.87886,21.53897 38.25447,-0.75752 l -27.83865,-11.55209 -10.41582,12.30961 z" id="path3615" inkscape:connector-curvature="0" style="fill:#ffdf00"/>
      <path d="m 325.29827,638.61159 c 2.29053,4.40984 10.24471,4.28345 11.55209,8.33266" id="path3617" inkscape:connector-curvature="0"/>
      <path d="m 328.49471,634.06839 c 10.07916,0.28846 37.49725,23.58804 39.43354,-7.2378 l -29.69994,-4.49243 -9.7336,11.73023 z" id="path3619" inkscape:connector-curvature="0" style="fill:#ffdf00"/>
      <path d="m 310.33178,642.50578 7.04458,8.45349" id="path3621" inkscape:connector-curvature="0"/>
      <path d="m 297.35591,645.26238 c 2.11896,2.17964 4.50041,4.09677 4.71192,8.18386" id="path3623" inkscape:connector-curvature="0"/>
      <path d="m 287.58785,643.95495 c 1.75036,2.7886 2.80567,5.85522 2.41529,9.50012" id="path3625" inkscape:connector-curvature="0"/>
      <path d="m 321.65949,638.5665 c -1.86066,6.81643 -9.97097,9.41612 -18.35168,0.24799 1.49124,8.5573 -12.76807,13.18486 -13.39177,-1.98396 1.80672,23.09978 -14.93376,0.48807 -16.11973,-3.47194 l -0.99198,-7.43987 41.91129,3.71993 6.94387,8.92785 z" id="path3627" inkscape:connector-curvature="0" style="fill:#ffdf00"/>
      <path d="m 312.48365,632.11861 c 10.00113,16.37701 21.187,6.06062 26.03956,-3.71994 l -17.11171,-3.96793 -8.92785,7.68787 z" id="path3629" inkscape:connector-curvature="0" style="fill:#ffdf00"/>
      <path d="m 342.97032,623.58606 c 26.27921,10.85619 35.89619,4.74469 36.68816,-7.98654 l -34.44195,-4.74201 -2.24621,12.72855 z" id="path3631" inkscape:connector-curvature="0" style="fill:#ffdf00"/>
      <path d="m 337.97873,628.32806 c 3.05224,3.13324 6.17223,6.25294 12.47897,8.73528" id="path3633" inkscape:connector-curvature="0"/>
      <path d="m 320.91551,627.15869 c 19.52121,9.4179 24.33204,-0.18513 27.52753,-8.92784 l -26.53555,-6.1999 -0.99198,15.12774 z" id="path3635" inkscape:connector-curvature="0" style="fill:#ffdf00"/>
      <path d="m 351.46406,613.39356 c 13.94037,7.93735 36.59295,9.71093 33.72542,-9.73762 l -25.65032,-4.03755 -8.0751,13.77517 z" id="path3637" inkscape:connector-curvature="0" style="fill:#ffdf00"/>
      <path d="m 368.08927,612.91855 -14.48768,-5.46256" id="path3639" inkscape:connector-curvature="0"/>
      <path d="m 346.96358,618.34489 c 3.6605,2.54123 7.321,4.01917 10.9815,5.24117" id="path3641" inkscape:connector-curvature="0"/>
      <path d="m 330.09685,616.48512 c 16.70089,10.45228 24.62238,2.06761 27.30881,-11.33573 l -25.76303,-3.86445 -1.54578,15.20018 z" id="path3643" inkscape:connector-curvature="0" style="fill:#ffdf00"/>
      <path d="m 361.11715,601.58282 c 36.9733,11.27258 59.15613,-3.58098 64.56054,-12.48702 l -61.63805,0.79705 -2.92249,11.68997 z" id="path3645" inkscape:connector-curvature="0" style="fill:#ffdf00"/>
      <path d="m 364.03964,597.5976 c 4.54564,2.50738 8.36297,2.1015 12.22134,1.85977" id="path3647" inkscape:connector-curvature="0"/>
      <path d="m 334.7664,605.71296 c 23.5766,9.9803 27.58616,-1.63063 33.08939,-11.59337 l -34.0555,1.44917 0.96611,10.1442 z" id="path3649" inkscape:connector-curvature="0" style="fill:#ffdf00"/>
      <path d="m 367.35384,592.24089 c 34.75935,11.37511 80.19587,-3.33817 92.52495,-23.38825 l 0.77105,0 -87.38468,2.05611 -5.91132,21.33214 z" id="path3651" inkscape:connector-curvature="0" style="fill:#ffdf00"/>
      <path d="m 403.59278,585.81555 c -9.54753,1.09477 -18.52782,2.98367 -31.35568,-0.51403" id="path3653" inkscape:connector-curvature="0"/>
      <path d="m 377.20294,581.18172 c -5.47828,9.62878 -8.19774,21.8013 -39.25642,16.29512 l -2.22206,-15.55443 41.47848,-0.74069 z" id="path3655" inkscape:connector-curvature="0" style="fill:#ffdf00"/>
      <path d="m 456.83589,571.49764 -5.18451,14.32561 c 9.86249,12.1287 22.27981,0.19852 11.05119,-7.77676 8.42996,-9.07379 0.75136,-12.74122 -5.86668,-6.54885 z" id="path3657" inkscape:connector-curvature="0" style="fill:#ffdf00"/>
      <path d="m 417.63385,562.6798 c 23.39051,0.59087 42.7115,-2.19997 64.4789,-6.94388 4.59203,-1.00078 6.37361,2.26714 2.23195,5.39409 -27.10181,20.46184 -94.12213,21.20811 -103.49087,15.94707 l 3.42234,-8.40029 33.35768,-5.99699 z" id="path3659" inkscape:connector-curvature="0" style="fill:#ffdf00"/>
      <path d="m 336.37692,586.70833 c 22.22825,5.05033 44.16087,-1.97939 51.8762,-13.54056 l -13.71642,-9.49599 -39.21489,15.47494 1.05511,7.56161 z" id="path3661" inkscape:connector-curvature="0" style="fill:#ffdf00"/>
      <path d="m 337.60788,580.72938 c 4.33767,2.02656 9.20289,1.89765 13.54056,1.58266" id="path3663" inkscape:connector-curvature="0"/>
      <path d="m 346.6496,593.7734 c -3.03843,-0.37626 -6.17696,-0.35208 -8.70308,-2.77757" id="path3665" inkscape:connector-curvature="0"/>
      <path d="m 336.94016,602.33156 c 4.68343,0.36757 5.90899,1.42671 7.48738,2.41528" id="path3667" inkscape:connector-curvature="0"/>
      <path d="m 333.96131,613.90882 c 2.69984,1.69043 5.89092,1.90713 9.27469,1.54578" id="path3669" inkscape:connector-curvature="0"/>
      <path d="m 325.62743,623.93475 c 3.38927,1.62068 6.77855,1.58047 10.16782,1.23998" id="path3671" inkscape:connector-curvature="0"/>
      <path d="m 316.69958,630.87863 c 2.77036,1.40531 5.08039,2.81062 7.19188,4.21593" id="path3673" inkscape:connector-curvature="0"/>
      <path d="m 293.63598,628.89466 c 2.27351,3.15156 2.32479,6.85868 1.98396,10.66382" id="path3675" inkscape:connector-curvature="0"/>
      <path d="m 306.77975,633.11059 c 1.51302,2.90481 2.50966,5.91289 7.19188,8.18386" id="path3677" inkscape:connector-curvature="0" style="fill:#ffdf00"/>
      <path d="m 282.97216,628.15068 3.22394,9.17584" id="path3679" inkscape:connector-curvature="0"/>
      <path d="m 263.95869,465.33694 c 0,5.58225 -5.32291,10.10756 -11.88905,10.10756 -6.56614,0 -11.88905,-4.52531 -11.88905,-10.10756 0,-5.58225 5.32291,-10.10756 11.88905,-10.10756 6.56614,0 11.88905,4.52531 11.88905,10.10756 z" transform="matrix(0.420986, -0.907067, 0.907067, 0.420986, -165.029, 794.708)" id="path3681" inkscape:connector-curvature="0" style="fill:#ffdf00;stroke-linecap:square"/>
      <path d="m 241.03992,652.59707 c 0,-8.56461 -7.05801,-9.35146 -7.05801,-15.24794 0,-7.07418 5.65045,-10.03462 11.93827,-12.94993 4.10546,-1.90347 8.05153,-13.61051 11.78659,-10.06771 0,-6.94521 0.0483,-14.90924 -6.08328,-14.90924 -6.64191,0 -5.12843,-7.00828 -2.51111,-7.68171 -2.08461,-1.36403 -1.21404,-7.03591 -5.64774,-7.61218 10.4702,-6.68438 3.10057,-18.4719 11.09397,-20.53475 -2.98676,-15.14591 16.86662,-12.87356 20.70765,-0.85294 9.90957,-2.08713 13.88983,2.36364 19.00177,7.15355 l 6.22862,14.52577 -8.75123,10.54636 c -0.97798,2.06621 -2.47057,1.55934 -4.03902,0.67317 -2.09401,2.91952 -4.72199,1.56724 -7.40489,-0.22439 -1.99157,5.02327 -2.12991,9.75907 -0.47213,16.91113 9.47432,0.33359 15.07721,6.81696 22.64586,6.81696 9.65894,0 22.46696,-17.88811 20.26305,-28.38087 -4.7098,-22.4233 19.56317,-30.45673 42.38212,-30.45673 21.90542,0 35.81014,6.77012 57.48688,-4.2428 -3.0088,15.30422 -21.90763,19.27785 -42.27253,17.62347 -10.9558,13.05782 -42.15476,-9.98548 -42.15476,16.29512 1.73037,6.37449 3.15984,12.64869 -1.99232,16.729 1.52955,4.02739 1.07309,7.78999 -4.38916,10.88514 -1.50616,4.69895 -5.05299,8.2318 -9.83174,11.0607 -8.6504,8.39615 -17.76885,6.54508 -26.34646,2.82051 -6.29921,-2.73525 -12.05336,-4.70752 -17.82242,0.98144 14.91289,21.38331 -2.68403,24.14525 5.66787,37.87165 8.69968,14.29798 20.51778,67.91344 73.94636,79.88847 8.15566,-0.21379 9.55487,21.40743 -8.38751,17.60849 -89.08032,-12.08692 -107.9847,-96.30063 -107.9847,-115.22974 z" id="path3683" inkscape:connector-curvature="0" style="fill:#ffdf00;stroke-linejoin:round"/>
      <path d="m 293.55361,568.45721 c 0.50321,5.6932 -1.73555,10.96923 4.24284,15.44573 -5.53625,0.80251 -5.903,6.12833 -6.23948,11.48065 l 0.21738,-0.16504 3.90068,1.02649 c -18.0401,17.09913 26.30572,6.42496 7.39077,-11.08615 12.63368,-12.47991 1.37138,-21.9644 -9.51219,-16.70168 z" id="path3685" inkscape:connector-curvature="0" style="fill:#ffdf00"/>
      <path d="m 297.52272,575.50983 c 3.75266,5.01206 6.15374,10.53927 0.2053,16.62923" id="path3687" inkscape:connector-curvature="0"/>
      <path d="m 289.05274,569.83461 c 0.31469,8.54941 0.8733,17.15981 -1.12195,25.13174" id="path3689" inkscape:connector-curvature="0"/>
      <path d="m 251.95113,599.46928 7.94629,0" id="path3691" inkscape:connector-curvature="0"/>
      <path d="m 264.85198,566.24722 c 8.90089,-3.97217 14.7183,1.30612 21.43162,3.89665" id="path3693" inkscape:connector-curvature="0"/>
      <path d="m 265.73759,570.14387 c 6.4904,-3.54508 12.36848,1.48241 18.42056,4.07378" id="path3695" inkscape:connector-curvature="0"/>
      <path d="m 267.33167,592.63822 c 10.58545,-1.56866 9.28874,-12.72727 7.08484,-12.92982 -4.84442,-0.44522 -0.35424,3.85238 -2.12545,7.08484 -1.77121,3.23245 -4.95939,5.84498 -4.95939,5.84498 z" id="path3697" inkscape:connector-curvature="0" style="stroke-linejoin:bevel"/>
      <path d="m 248.80569,591.68091 c 1.09844,0.0944 1.59577,0.33907 2.30257,0.53137" id="path3699" inkscape:connector-curvature="0"/>
      <path d="m 275.67245,591.56342 c 1.25234,1.84371 2.69666,3.2114 4.67728,3.96269" id="path3701" inkscape:connector-curvature="0"/>
      <path d="m 254.57719,563.3762 c 19.25349,16.70596 8.75036,23.35587 9.69365,24.51924 0.88747,1.09453 3.32699,-0.95727 4.44767,-2.85107" id="path3703" inkscape:connector-curvature="0"/>
      <path d="m 256.85258,572.0776 c -2.03578,-0.0639 -3.84577,0.71791 -5.04296,1.82808" id="path3705" inkscape:connector-curvature="0"/>
      <path d="m 252.12481,575.35552 c 2.36013,0 3.58138,1.80474 5.10599,2.77363 -1.56743,1.08772 -2.87677,2.53677 -5.23207,2.52148" id="path3707" inkscape:connector-curvature="0" style="stroke-width:1"/>
      <path d="m 142.33747,282.08121 c 0,1.18369 -0.6209,2.14326 -1.38681,2.14326 -0.76592,0 -1.38682,-0.95957 -1.38682,-2.14326 0,-1.18369 0.6209,-2.14326 1.38682,-2.14326 0.76591,0 1.38681,0.95957 1.38681,2.14326 z" transform="translate(111.363, 295.922)" id="path3709" inkscape:connector-curvature="0" style="fill:#f7e017;stroke:none"/>
      <path d="m 253.99636,619.3581 c 2.44359,-0.81737 3.78,-2.82627 3.65769,-5.27554" id="path3711" inkscape:connector-curvature="0"/>
      <path d="m 279.73818,612.20604 c -4.28848,3.0037 -6.54756,6.71328 -7.36259,10.92514" id="path3713" inkscape:connector-curvature="0"/>
      <path d="m 247.5719,630.03094 c -12.73915,18.23865 18.80709,29.45936 18.80709,10.93435" id="path3715" inkscape:connector-curvature="0" style="fill:#ffdf00"/>
      <path d="m 252.51903,639.1513 c -0.15307,2.90519 1.05717,3.65261 2.92208,3.65261" id="path3717" inkscape:connector-curvature="0"/>
      <path d="m 404.77743,567.66418 c 8.27581,8.68561 18.22602,1.23436 31.10519,2.5152" id="path3719" inkscape:connector-curvature="0"/>
      <path d="m 377.53832,569.85905 3.47061,3.81767" id="path3721" inkscape:connector-curvature="0"/>
      <path d="m 249.50688,681.31134 c -13.18508,13.08723 8.12732,24.199 5.65875,36.44198 9.31266,-6.25708 3.16734,-16.72681 1.80448,-26.80902 4.45525,0.69927 4.31601,9.11154 5.40218,16.69766 0.61829,4.31829 3.68359,3.92263 6.45484,0.96839 4.21291,12.53566 16.3415,10.45605 9.50616,-4.16059 8.13534,10.97239 6.54,2.7815 3.12582,-5.33388 -2.71268,-6.44792 -10.55165,-10.22141 -4.35359,-12.346 3.87587,-1.32858 3.09798,22.44353 12.53533,18.05023 5.61588,-2.61432 -6.43943,-14.95039 -0.87756,-15.77986 3.22951,-0.48163 -0.0461,20.89195 15.0351,14.9184 l -0.90898,-3.03984 c -9.52589,-3.14009 -1.9629,-24.74143 -19.46389,-24.74397 l -33.91864,5.1365 z" id="path3723" inkscape:connector-curvature="0" style="fill:#ffdf00"/>
      <path d="m 263.90129,682.39862 c 1.16194,1.68761 2.7892,5.23646 4.5541,9.33591 -0.24744,-3.64328 -2.24769,-7.28657 0.22771,-10.92985 l -4.78181,1.59394 z" id="path3725" inkscape:connector-curvature="0"/>
      <path d="m 250.10667,682.07216 0.58772,5.58333" id="path3727" inkscape:connector-curvature="0" style="stroke-linecap:square"/>
      <path d="m 279.15753,678.75534 c 4.39548,0.7452 5.85765,2.07706 7.28657,3.41557" id="path3729" inkscape:connector-curvature="0"/>
      <path d="m 284.86111,669.1708 c -0.77954,0.0598 -1.51663,0.37882 -2.09375,0.90625 -6.68616,5.98355 -17.06592,9.03587 -35.3125,5.96875 -1.90711,-0.31929 -3.71196,0.96789 -4.03125,2.875 -0.31929,1.90711 0.96789,3.71196 2.875,4.03125 19.46311,3.27161 32.5735,-0.003 41.125,-7.65625 1.13292,-0.99145 1.505,-2.59625 0.92396,-3.98509 -0.58105,-1.38884 -1.98505,-2.25058 -3.48646,-2.13991 z" id="path3731" inkscape:connector-curvature="0" style="fill:#ffdf00;stroke-linecap:round"/>
      <path d="m 252.97144,691.05142 c -3.34471,9.65462 6.65067,6.55802 5.57603,23.06293" id="path3733" inkscape:connector-curvature="0" style="stroke-linecap:round"/>
    </g>
    <ellipse cx="376.02655" cy="88.238342" rx="0.89135993" ry="1.4007084" transform="matrix(0.255628, 0, 0, 0.266357, -21.1057, -5.84224)" id="ellipse3735" d="m 376.91791,88.238342 c 0,0.77359 -0.39908,1.400709 -0.89136,1.400709 -0.49228,0 -0.89136,-0.627119 -0.89136,-1.400709 0,-0.77359 0.39908,-1.400708 0.89136,-1.400708 0.49228,0 0.89136,0.627118 0.89136,1.400708 z" sodipodi:cx="376.02655" sodipodi:cy="88.238342" sodipodi:rx="0.89135993" sodipodi:ry="1.4007084" style="fill:#000000"/>
  </g>
</svg>