<svg width="860" height="500" version="1.0" xmlns="http://www.w3.org/2000/svg">
 <g>
  <rect width="860" height="500" fill="#1c25e8" stroke-width=".92736"/>
  <path d="m0.0058594 97.607-0.0058594 0.068359v402.32h307.35c12.409-3.3645 26.131-6.8409 44.828-8.4434 25.817-2.2127 38.438 4.893 57.494 8.4434h48.545c36.282-4.3092 47.443-13.553 47.443-13.553s-28.027 5.752-70.758 4.2558c-24.732-0.86592-45.215-16.505-83.971-16.375-38.819 0.12991-53.3 11.186-78.26 10.938-21.769-0.21701-40.503-2.5143-52.189-4.3516a221.43 221.43 0 0 0-1.6445-13.406l262.98-87.713-271.39 52.484a221.43 221.43 0 0 0-4.127-11.52c9.6459-3.2961 28.005-10.553 45.188-22.855 16.951-12.137 25.761-30.038 51.709-45.793 26.974-16.378 43.73-1.258 72.973-16.625 41.53-21.824 46.613-43.197 46.613-43.197s-19.107 16.93-54.053 29.949c-20.226 7.5349-45.424-4.8179-76.277 8.8418-30.904 13.682-36.203 32.504-56.262 40.887-19.66 8.2164-37.613 11.794-47.529 13.299a221.43 221.43 0 0 0-4.7344-7.377l164.53-163.93-186.87 135.83a221.43 221.43 0 0 0-7.293-7.4277c6.6135-6.3604 17.037-17.536 25.146-31.578 8.8037-15.245 9.0365-32.055 23.57-53.227 15.108-22.009 33.97-16.292 51.244-38.32 24.532-31.285 20.529-49.451 20.529-49.451s-8.7079 19.675-31.354 41.902c-13.107 12.865-37.578 12.225-56.76 33.51-19.214 21.319-16.337 37.604-28.994 51.061-10.61 11.28-21.593 19.587-29.088 24.654a221.43 221.43 0 0 0-14.014-9.2188l67.082-184.31-98.85 168.43a221.43 221.43 0 0 0-13.725-5.0156c2.3704-7.4075 4.9995-17.772 5.7637-29.107 1.0149-15.054-4.9694-28.342-1.8301-50.055 3.2635-22.572 19.497-24.673 24.377-48.018 6.9298-33.154-2.7266-46.025-2.7266-46.025s0.6812 18.501-8.1523 43.879c-5.1126 14.688-23.693 22.741-30.275 46.168-6.5934 23.465 1.5295 35.252-3.0293 50.248-3.1907 10.496-7.3319 19.434-10.805 25.951a221.43 221.43 0 0 0-22.529-3.2051z" fill="#fa9628"/>
 </g>
</svg>
