<?xml version="1.0" encoding="UTF-8"?>
<!-- Created with Inkscape (http://www.inkscape.org/) -->
<svg width="1498.78" height="794.694" version="1.1" xmlns="http://www.w3.org/2000/svg" xmlns:cc="http://creativecommons.org/ns#" xmlns:dc="http://purl.org/dc/elements/1.1/" xmlns:rdf="http://www.w3.org/1999/02/22-rdf-syntax-ns#">
 <metadata>
  <rdf:RDF>
   <cc:Work rdf:about="">
    <dc:format>image/svg+xml</dc:format>
    <dc:type rdf:resource="http://purl.org/dc/dcmitype/StillImage"/>
    <dc:title/>
   </cc:Work>
  </rdf:RDF>
 </metadata>
 <g>
  <rect x=".00132787" y="264.897" width="1498.78" height="264.904" fill="#d13"/>
  <rect x=".00347226" width="1498.78" height="264.897" fill="#fff"/>
  <rect y="529.797" width="1498.78" height="264.897" fill="#008"/>
 </g>
 <g transform="matrix(2.30679 0 0 2.30725 429.079 -183.485)" fill="none" stroke="#000" stroke-width="4">
  <path d="m54.632 311.249c93.7012-41.8112 79.7058-93.3449 83.211-174.695"/>
  <path d="m221.437 319.777c-98.1948-42.7815-79.2249-98.0274-83.8293-183.257"/>
 </g>
 <g transform="matrix(2.30679 0 0 2.30725 428.556 -183.576)" fill="none" stroke="#fff" stroke-width="2">
  <path d="m54.632 311.249c93.7012-41.8112 79.7058-93.3449 83.211-174.695"/>
  <path d="m221.437 319.491c-98.1948-42.7815-78.7966-97.4563-83.401-182.686"/>
 </g>
 <g transform="matrix(2.29668 0 0 2.29764 431.879 -180.956)">
  <path d="m14.2781 130.571c40.2715 28.515 81.5729 24.0737 123.363 3.99787 47.6895 26.0365 89.5702 25.9331 125.076-2.85562 12.655 173.24-71.6741 231.402-123.363 258.148-100.321-54.6032-131.131-146.941-125.076-259.291z" fill="#d13" fill-rule="evenodd" stroke="#000" stroke-width="3"/>
  <g fill="none" stroke="#000" stroke-width="4">
   <path d="m54.632 311.249c93.7012-41.8112 79.7058-93.3449 83.211-174.695"/>
   <path d="m221.437 319.777c-98.1948-42.7815-79.2249-98.0274-83.8293-183.257"/>
  </g>
  <g transform="translate(-.226836 -.0392247)" fill="none" stroke="#fff" stroke-width="2">
   <path d="m54.632 311.249c93.7012-41.8112 79.7058-93.3449 83.211-174.695"/>
   <path d="m221.437 319.491c-98.1948-42.7815-78.7966-97.4563-83.401-182.686"/>
  </g>
 </g>
 <g transform="matrix(3.45712 0 0 3.45712 1863.89 -332.464)" stroke="#000">
  <g transform="matrix(.661327 0 0 .661327 -414.001 44.4678)">
   <g>
    <path d="m67.8462 194.25c-16.8501 11.9946-13.5632-1.12919-11.3077-12.1154 0.744423-3.96091-0.08334-8.37346-2.01923-11.5096-2.07731-3.36527-5.92614-5.78029-9.57084-7.42281-9.74083-4.38983-17.3869-12.247-18.0926-12.7695-2.47054-1.82897-2.03963 10.9348 3.23077 15.75-4.14294-1.71005-7.68-2.5399-11.3077-2.01923 2.92176 6.17704 6.3712 10.771 10.9038 12.1154-3.53401 0.0347-7.0482 0.01-11.1058 1.61538 2.66327 4.97153 7.091 6.41415 11.3077 8.27885-3.14124 1.83969-6.95325 3.51168-8.07692 5.85576 2.55015 2.92441 7.42212 4.2346 10.5 5.04809-2.10689 1.18493-4.62772 3.19775-7.26923 5.45192 4.74035 2.91335 8.42576 2.66188 12.1154 2.42307-3.59876 3.02885-4.23755 6.05769-5.25 9.08654 3.13327-0.0224 6.83486 0.55133 9.49038-0.60577-2.62761 4.84634-3.0302 6.77809-3.63462 10.0962 3.83816 1.4905 6.95538-1.34463 10.2981-2.82693-1.63684 3.5-2.13221 7-1.61538 10.5 3.90896 0.69607 7.65555 0.66152 10.5-3.43269l17.1635 4.64423 20.7981-5.45192c9.2978 6.11102 8.55721 0.59863 7.875-4.84616 5.78847 4.57695 8.61537 3.49998 8.48077-3.23076 2.83718 1.07543 4.96935 3.79587 9.28846 1.41346 4.56427-2.34796-1.08223-6.15461-3.4327-9.49039 6.52843 1.25604 9.21491-1.63582 9.89424-4.84615 0.85763-4.05298-2.87965-5.23821-5.25-6.46154 4.22745-0.68786 7.97307-1.92637 8.48076-6.86538 0.32277-1.79414-2.4483-2.70433-5.85576-3.4327 4.62087-1.07006 7.08929-3.57509 6.86538-7.875-0.1906-3.09627-3.75055-2.14934-6.46154-2.22115 6.21089-4.2081 7.64743-9.65772 6.46154-13.7308-0.85585-2.93952-5.11539 0.91549-7.67308 2.01923 6.13624-4.26547 3.29607-15.9393 0.39309-14.7212-11.1925 11.1008-18.7012 16.9989-27.0412 29.1605-2.44641 6.84005 7.54539 14.074-5.05385 17.2626l-16.3558 3.23077-7.67308-8.07692z" fill="#fff" fill-rule="evenodd" stroke-linecap="round" stroke-width="1px"/>
    <g fill="none">
     <path d="m30.2885 157.702c5.2109 7.17817 8.99222 10.4469 14.7404 13.3269 6.37294 4.56479 4.24304 16.4602 5.65385 24.8365 3.10675 10.172 12.3277 9.43752 16.9615 9.08654l25.0385 1.21154c15.7395-4.6861 9.65997-15.6477 11.3699-24.7226 0.57489-3.05099 2.79203-5.93723 6.15917-8.21226 5.05054-3.44387 12.3171-9.03654 12.7594-13.7094" stroke-linecap="round" stroke-width="1px"/>
     <g stroke-width="1px">
      <path d="m30.0865 165.981 11.9135 9.49038"/>
      <path d="m28.6731 176.077 16.7596 5.35096"/>
      <path d="m29.4808 186.173 12.7212 0.80769"/>
      <path d="m31.7019 197.077 11.5096-1.71634"/>
      <path d="m37.0529 205.053 9.89423-4.54326"/>
      <path d="m41.1923 213.433 5.95673-6.76442"/>
      <path d="m48.0577 220.702 7.67308-8.88461"/>
      <path d="m56.9423 227.769 6.66346-19.5865"/>
      <path d="m94.9038 227.163-5.85577-12.7212"/>
      <path d="m102.779 222.317-4.64422-7.16828"/>
      <path d="m111.663 218.885-6.5625-8.48077"/>
      <path d="m117.115 210.808-7.875-4.44231"/>
      <path d="m122.365 199.298-8.98558-1.00962"/>
      <path d="m125.192 189-14.0337 3.12981"/>
      <path d="m125.394 178.702-10.399 8.17789"/>
      <path d="m124.385 166.587-10.2981 10.5"/>
     </g>
     <g stroke-linecap="round">
      <path d="m25.0385 168 16.7596 9.6923"/>
      <g stroke-width="1px">
       <path d="m25.0385 180.317 17.1635 4.13942"/>
       <path d="m28.4712 191.625 15.9519 0.30288"/>
       <path d="m30.2885 202.125 19.2837-4.84615"/>
       <path d="m37.9615 210.606 7.97596-5.95673"/>
       <path d="m42.4038 219.288 12.3173-14.1346"/>
       <path d="m51.4904 226.154 7.16827-12.6202"/>
       <path d="m62.1923 222.923 4.03846-12.5192"/>
      </g>
     </g>
     <path d="m63 226.76 5.25-9.08654" stroke-width="1px"/>
     <path d="m91.6731 226.962-4.44231-8.68269" stroke-width="1px"/>
     <g stroke-linecap="round" stroke-width="1px">
      <path d="m98.9423 225.952-5.65385-12.1154"/>
      <path d="m107.221 220.096-6.86538-7.26922"/>
      <path d="m117.519 217.471-8.78365-7.47115"/>
      <path d="m122.567 205.962c-6.46154-1.14601-13.3269-3.56733-19.7885-6.86539"/>
      <path d="m124.99 193.644c-5.852 2.29831-6.14805 1.63296-12.0144 1.81731"/>
      <path d="m126.808 182.942c-4.95167 3.17257-7.90163 4.56285-12.3173 6.66345"/>
      <path d="m125.394 171.231c-4.13344 6.33888-8.7877 9.41497-13.9327 13.7308"/>
     </g>
     <g stroke-width="1px">
      <path d="m46.8462 173.452c-6.65122 0.40804-7.47714 8.23734 2.625 8.78366-10.0047 0.0128-9.50961 8.11318 0.605769 7.47115-10.6415 1.48958-7.31596 10.0697 0.605769 7.06731-5.1611 2.36877-8.15402 15.9801 4.84615 7.37019-4.15866 10.2552 7.71345 13.7396 8.48077 1.81731l25.6442 2.01923c4.11371 14.1103 17.9525 4.53319 7.37019-3.43269 0.03821 0.0228 2.11458 1.81915 3.6615 3.59118 3.9128 4.48218 13.274 2.92933 6.33369-7.02388 0.57627 2.98389 12.1226-4.36876 3.1547-7.11119-1.51011-0.4618-2.80286-0.2988-5.88066-0.15804 15.7597-1.11325 13.2786-13.9603-0.20192-7.06731 12.0528-4.82576 13.7869-16.2552 3.33173-11.3077"/>
      <path d="m48.6635 178.096-4.44231-0.80769"/>
      <path d="m49.875 185.769-5.25-0.20192"/>
      <path d="m50.2788 193.038-4.64423 1.61539"/>
      <path d="m52.7019 200.106-3.63462 3.43269"/>
      <path d="m60.5769 204.952-2.22115 5.04808"/>
      <path d="m93.2885 206.163 3.83654 5.45192"/>
      <path d="m100.356 202.125 6.66346 5.25"/>
      <path d="m103.385 195.663 7.26923 2.82692"/>
      <path d="m103.99 190.212 7.06731-1.81731"/>
      <path d="m103.587 183.75 6.25961-5.85577"/>
     </g>
    </g>
   </g>
   <path d="m72.0865 242.308c-4.72469 1.5024-9.54506 4.63145-14.5385 10.7019l-4.03846-4.03847c3.26569-2.29756 6.60173-4.47789 9.08654-8.07692-9.59509-2.69451-8.78756-22.9555 6.86538-14.9423l17.3654-0.20192c14.7769-2.17024 16.6066 10.2265 5.25 15.3462-3.1178 1.40553 5.14723 6.05769 7.47115 8.68269l-6.86538 7.26923-1.91827-1.41346c0.705566-1.81964 1.14996-3.15201 2.12019-4.44231-3.05087-3.69802-6.91198-6.26169-11.3077-8.07693l-9.49038-0.80769z" fill="#fff" fill-rule="evenodd" stroke-width="1px"/>
   <path d="m99.3757 266.499c-16.8845 0.33384-17.7879-18.1726-16.8482-27.6995 1.53886-15.6012 14.167-24.2328 7.13906-49.4023-1.15118-4.12275-1.83597-5.23482 0-14.2781 1.62387-3.07563-0.305387-4.62849-3.99787-5.42568 3.80756 0.4285 5.93614-3.34046 8.28131-6.56794-7.51173 1.09773-10.6429-2.73546-15.7059-3.47574-4.5848-0.67036-5.44934-0.75898-7.10441 3.15554 1.24634 3.84458 4.07766 6.3804 2.82098 7.45926-3.21048-1.26332-7.18558-1.76204-11.1369-2.28449 3.25792 8.34258 14.0376 3.05963 8.85243 17.1337-4.7343 5.52713-8.73669 19.0493-5.71125 31.6974 4.46004 13.1251 6.88558 14.0876 5.99681 22.845-0.993302 9.7873-3.02768 23.9176-17.1337 25.7006 3.58979 6.27933 10.0878 7.56375 17.4193 0-3.79782 11.2824-0.373674 17.08 4.569 20.5605 2.3783-4.03707 9.59504-3.63478 5.39104-20.5115 4.17097 12.3949 18.1793 4.50188 17.1684 1.09324z" fill="#fff" fill-rule="evenodd" stroke-width="1px"/>
   <g fill="none" stroke-width="1px">
    <g>
     <path d="m67.9638 191.967c2.81772 7.5269 6.46538 9.57429 10.423 1.14225 3.3438 6.86984 6.22165 7.68229 8.42409-0.28556 1.37528 6.47725 4.4763 6.3682 3.42675-0.14278"/>
     <path d="m65.1082 206.674c3.49262 1.8187 6.26158 0.598 7.85296-5.56846 1.15945 9.22844 9.42144 7.78662 10.423-0.14278 0.214503 8.89594 4.15801 8.80028 8.28131 3.85509"/>
     <path d="m65.3938 213.956c1.85524 2.37233 3.42117 2.43022 4.14065-4.28343-0.126627 9.40305 5.98444 10.5726 8.28131 0.99947 0.466725 8.17433 6.7309 10.2866 8.28131-0.14278 0.662226 3.58179 1.95644 5.26761 4.14065 4.28343"/>
     <path d="m68.535 223.665c3.90242 2.1148 5.0619-0.64672 5.56847-4.56899 2.18239 8.99081 4.91264 7.02451 7.85296 0.85668 1.15917 3.30303 2.64864 5.11969 4.569 4.99735"/>
     <path d="m72.0865 233.221c3.69448 0.51458 4.5639-2.92593 5.65385-6.0577 0.881594 4.16121 2.11475 7.68961 5.65385 7.06731"/>
     <path d="m81.375 234.433c-2.20079 8.59372-6.65122 5.52562-7.26923-1.21154"/>
     <path d="m71.4808 243.519c1.55754 0.70252 3.42764 0.15483 6.05769-3.43269 1.54808 1.88262 3.09615 4.95255 4.64423 3.83654"/>
     <path d="m74.3077 243.317c1.40783 2.10765 3.00236 6.40172 5.85577 0.20192"/>
    </g>
    <g stroke-linecap="round">
     <path d="m76.3269 255.837 0.201923 29.4808"/>
     <path d="m74.5096 247.356c-3.4113 16.7182-8.81154 18.5192-14.3365 19.3846"/>
     <path d="m79.7596 247.558c1.35539 11.1398 1.90353 18.8474 14.9423 21.4038"/>
     <path d="m81.7788 205.356v8.48077"/>
     <path d="m74.3077 205.154-0.807692 6.46153"/>
     <path d="m78.3462 194.048-0.201923 8.6827"/>
     <path d="m86.625 193.846 1.00962 8.88462"/>
     <path d="m69.3188 195.023-0.866834 7.30388"/>
     <path d="m70.0673 214.275-0.201923 5.21535"/>
    </g>
    <path d="m78.0851 213.265-0.546627 8.2442"/>
    <g stroke-linecap="round">
     <path d="m86.2212 212.625-0.201923 9.28846"/>
     <path d="m81.9808 221.308v8.07693"/>
     <path d="m74.1058 220.298 0.201923 9.6923"/>
     <path d="m77.9423 227.971 0.201923 8.48076"/>
     <path d="m88.9889 207.542 0.664911 3.26542"/>
     <path d="m66.8957 207.601-0.261066 5.02358"/>
    </g>
   </g>
   <g stroke-width="1px">
    <path d="m92.4461 165.459c-2.72049 1.02055-6.81142-1.50747-10.5-2.42308 3.10885 1.3652 7.37261 3.5541 9.49038 3.43269l1.00962-1.00961z" fill-rule="evenodd" stroke-linecap="round" stroke-linejoin="round"/>
    <path d="m81.9564 165.696c-3.20042-1.02691-6.00057-4.23292-8.85243-1.42781" fill="none"/>
    <path d="m73.5323 163.697c1.1399 4.07923 3.33954 3.65459 5.99681 1.28503" fill="none"/>
   </g>
   <path d="m75.3885 164.625a0.642515 0.642515 0 0 1-0.642515 0.64252 0.642515 0.642515 0 0 1-0.642516-0.64252 0.642515 0.642515 0 0 1 0.642516-0.64251 0.642515 0.642515 0 0 1 0.642515 0.64251z" opacity=".99" stroke-linecap="round" stroke-linejoin="round"/>
   <path d="m71.2788 162.952c-7.6696-3.53745-13.1106-2.38945-12.7212 4.84616 1.66914-0.19561 3.41236-2.0841 7.47115 0.60576l1.00962 0.15145c-0.01137-0.054 4.51441 0.74684 6.91587 1.5649 0.388113 0.13221-0.08331-0.91576-0.302885-1.26202-1.006-1.58647-2.44261-5.87124-2.3726-5.90625z" fill="#fff" fill-rule="evenodd" stroke-width="1px"/>
   <g fill="none">
    <g stroke-linecap="round" stroke-width=".6">
     <g stroke-linejoin="round">
      <path d="m74.9601 191.111-0.713906 3.56953"/>
      <path d="m82.5275 193.681-0.285562-4.28344"/>
      <path d="m84.812 191.111c0.0059-1.06489-0.196315-2.75018-0.571125-4.569"/>
      <path d="m83.0986 183.4v-2.57006"/>
      <path d="m83.2414 178.403 0.142781-1.57059"/>
      <path d="m85.9543 185.114c0.08251-1.25012 0.14793-2.51732-0.142782-4.14066"/>
      <path d="m85.6687 179.117c0.130571-1.523-0.0385-3.046-0.285562-4.569"/>
      <path d="m73.7731 179.319c0.567438-1.23479 2.18498-5.73223-1.56045-8.90737"/>
      <path d="m76.5307 182.258 0.285562-3.71231"/>
      <path d="m87.6676 190.825c-0.350326-1.47117-0.621579-2.90185-1.71337-3.99787"/>
      <path d="m87.3821 174.548c0.155694-2.11134-0.748598-2.80937-1.71337-3.42675"/>
      <path d="m78.5296 175.69c-1.13702-1.92465-2.67943-1.9954-4.18965-2.42728"/>
      <path d="m81.2425 172.549c-1.4182-1.69463-3.20745-2.27607-4.99734-2.85562"/>
      <path d="m81.3853 168.694c-1.1944 1.08097-2.71306 1.18919-4.28344 1.14225"/>
      <path d="m70.0673 195.058 1.41346-3.02884"/>
      <path d="m80.5673 190.413v-3.23077"/>
      <path d="m77.7404 189v-1.61538"/>
     </g>
     <path d="m74.3077 170.221c-3.6207-3.21296-6.3682-5.91431-9.89423-5.85577"/>
     <path d="m80.9569 268.355c0.863761 5.40208 0.915408 10.2357-1.99894 12.9931"/>
    </g>
    <g stroke-width="1px">
     <path d="m56.5385 232.716c5.77224 0.88347 5.42766-2.89349 5.75481-6.15866 2.68556 7.24906 8.12416 3.31433 7.67308 0.10097"/>
     <path d="m71.9856 238.673c-2.93015 2.84728-5.54963 2.89861-7.67308-1.51443"/>
     <path d="m59.0625 238.37c2.1316-0.20306 1.49286-1.94521 1.3125-3.43269 2.70985 3.96689 6.19737 2.10866 5.04808-1.81731 2.21318 3.29081 4.21238 1.87423 6.15865-0.70673"/>
    </g>
    <g stroke-linecap="round" stroke-width="1px">
     <path d="m61.1827 231.505 2.22115 2.625"/>
     <path d="m66.9375 230.394 1.61538 2.22115"/>
     <path d="m68.25 234.938 0.302885 3.53365"/>
    </g>
    <g stroke-width="1px">
     <path d="m98.5385 235.038c-3.56275 1.1918-7.58108-0.70922-5.95673-5.25-3.97003 4.43895-5.56185 1.74323-7.16827-0.90865"/>
     <path d="m83.2933 234.231c1.90287 2.74928 3.44324-1.24284 5.35096-2.01923-3.11019 3.54348-1.30916 8.40813 2.82692 3.83654-1.46619 3.62745-0.732381 5.10819 4.24038 2.82692"/>
     <path d="m91.774 243.519c-5.00204 0.37782-4.6391-2.27673-3.53365-5.35096-1.59814 3.33508-3.62278 3.25811-5.75481 2.32211"/>
    </g>
    <g stroke-linecap="round" stroke-width="1px">
     <path d="m87.0288 235.139-2.22115 3.63462"/>
     <path d="m90.6635 239.178-1.11058 2.1202"/>
     <path d="m91.976 231.303-2.82692 3.83654"/>
     <path d="m94.9038 235.442-2.01923 2.22115"/>
     <path d="m96.2163 232.312-0.70673-2.32212"/>
     <path d="m89.0481 229.889 0.908654-2.01923"/>
    </g>
    <g stroke-linecap="round" stroke-width=".6">
     <path d="m66.6346 243.317-4.34135-0.50481"/>
     <path d="m63.5048 245.841-2.92788-0.60577"/>
     <path d="m60.6779 247.76-2.52404-0.50481"/>
     <path d="m92.5451 245.668-4.32918-0.60031"/>
    </g>
   </g>
   <path d="m88.6671 259.788 21.1316-27.6996-5.56847-4.28343 3.71231-4.71178 5.14012 4.42622 4.85456-6.71072 3.99788 3.28397-5.14013 6.42515 5.85403 4.28344-3.14118 4.28343-5.71125-4.42622-20.5605 28.8418-4.569-3.71231z" fill="#fff" fill-rule="evenodd" stroke-width="1px"/>
   <path d="m96.2084 248.391-4.32918-0.60031" fill="none" stroke-linecap="round" stroke-width=".6"/>
   <g fill="#fff">
    <g stroke-linecap="round" stroke-linejoin="round">
     <rect transform="matrix(.653035 .757328 -.770927 .636924 0 0)" x="222.993" y="120.056" width="3.48207" height="10.0528" ry="1.74104" opacity=".99" stroke-width=".975522"/>
     <path transform="matrix(1.12956 0 0 1.21649 -6.60246 -57.2635)" d="m59.1114 260.217a2.64145 2.57006 0 0 1-2.64145 2.57006 2.64145 2.57006 0 0 1-2.64145-2.57006 2.64145 2.57006 0 0 1 2.64145-2.57007 2.64145 2.57006 0 0 1 2.64145 2.57007z" opacity=".99"/>
     <rect transform="matrix(.646017 .763323 -.765039 .643984 0 0)" x="225.086" y="117.544" width="4.14663" height="11.9339" ry="2.06682" opacity=".99" stroke-width="1.15988"/>
     <rect transform="matrix(.654943 .755678 -.772518 .634993 0 0)" x="230.826" y="120.529" width="3.83589" height="11.0838" ry="1.91958" opacity=".99" stroke-width="1.07511"/>
     <rect transform="matrix(-.641343 .767254 .761087 .64865 0 0)" x="124.567" y="232.369" width="3.44078" height="9.88189" ry="1.71143" opacity=".99" stroke-width=".961441"/>
     <rect transform="matrix(-.634272 .77311 .755061 .655655 0 0)" x="125.62" y="230.837" width="4.09861" height="11.7343" ry="2.03225" opacity=".99" stroke-width="1.14346"/>
     <rect transform="matrix(-.643266 .765643 .762716 .646734 0 0)" x="132.578" y="232.583" width="3.79011" height="10.8945" ry="1.8868" opacity=".99" stroke-width="1.05951"/>
    </g>
    <path d="m18.2691 198.03c8.48083 5.80408 2.08127-1.09952 31.5947 44.2529l-4.86029 3.34934c-12.0732-17.5558-27.8513-39.797-26.7344-47.6023z" fill-rule="evenodd" stroke-width="1px"/>
    <rect transform="matrix(.83065 -.556795 .594615 .80401 0 0)" x="-115.152" y="227.315" width="15.3352" height="6.85669" ry=".489763" opacity=".99" stroke-linecap="round" stroke-linejoin="round" stroke-width="1.00054"/>
   </g>
  </g>
  <path transform="matrix(.133666 .173922 -.310373 .27585 -297.403 136.077)" d="m10.1375 261.073a0.142781 0.999468 0 0 1-0.142781 0.99947 0.142781 0.999468 0 0 1-0.142781-0.99947 0.142781 0.999468 0 0 1 0.142781-0.99946 0.142781 0.999468 0 0 1 0.142781 0.99946z" fill="#fff" opacity=".99" stroke-linecap="round" stroke-linejoin="round" stroke-width="3"/>
  <path transform="matrix(-.112116 .1756 .260333 .278512 -420.262 137.878)" d="m10.1375 261.073a0.142781 0.999468 0 0 1-0.142781 0.99947 0.142781 0.999468 0 0 1-0.142781-0.99947 0.142781 0.999468 0 0 1 0.142781-0.99946 0.142781 0.999468 0 0 1 0.142781 0.99946z" fill="#fff" opacity=".99" stroke-linecap="round" stroke-linejoin="round" stroke-width="3"/>
  <g fill="none" stroke-linecap="round" stroke-width=".396796">
   <path d="m-382.652 210.513c0.56655 0.66098 0.56655 0.66098 0.56655 0.66098"/>
   <path d="m-381.33 212.685 0.47212 0.66098"/>
   <path d="m-379.63 214.479 0.75541 0.75541"/>
   <path d="m-346.582 210.796-0.47213 0.94426"/>
   <path d="m-347.715 213.251-0.47212 0.7554"/>
   <path d="m-349.225 215.329-0.66098 0.7554"/>
  </g>
  <g fill="#fff" stroke-linecap="round" stroke-linejoin="round" stroke-width="3">
   <path transform="matrix(.133666 .173922 -.310373 .27585 -295.514 138.101)" d="m10.1375 261.073a0.142781 0.999468 0 0 1-0.142781 0.99947 0.142781 0.999468 0 0 1-0.142781-0.99947 0.142781 0.999468 0 0 1 0.142781-0.99946 0.142781 0.999468 0 0 1 0.142781 0.99946z" opacity=".99"/>
   <path transform="matrix(.133666 .173922 -.310373 .27585 -298.92 134.162)" d="m10.1375 261.073a0.142781 0.999468 0 0 1-0.142781 0.99947 0.142781 0.999468 0 0 1-0.142781-0.99947 0.142781 0.999468 0 0 1 0.142781-0.99946 0.142781 0.999468 0 0 1 0.142781 0.99946z" opacity=".99"/>
   <path transform="matrix(-.112116 .1756 .260333 .278512 -418.685 135.453)" d="m10.1375 261.073a0.142781 0.999468 0 0 1-0.142781 0.99947 0.142781 0.999468 0 0 1-0.142781-0.99947 0.142781 0.999468 0 0 1 0.142781-0.99946 0.142781 0.999468 0 0 1 0.142781 0.99946z" opacity=".99"/>
   <path transform="matrix(-.112116 .1756 .260333 .278512 -417.016 133.851)" d="m10.1375 261.073a0.142781 0.999468 0 0 1-0.142781 0.99947 0.142781 0.999468 0 0 1-0.142781-0.99947 0.142781 0.999468 0 0 1 0.142781-0.99946 0.142781 0.999468 0 0 1 0.142781 0.99946z" opacity=".99"/>
  </g>
  <g fill="none" stroke-linecap="round" stroke-width=".396796">
   <path d="m-382.038 209.964c0.56655 0.66098 0.56655 0.66098 0.56655 0.66098"/>
   <path d="m-380.716 212.135 0.47213 0.66098"/>
   <path d="m-379.016 213.929 0.7554 0.7554"/>
   <path d="m-347.182 210.214-0.47213 0.94426"/>
   <path d="m-348.316 212.669-0.47212 0.7554"/>
   <path d="m-349.826 214.747-0.66098 0.7554"/>
  </g>
 </g>
 <g transform="matrix(2.295 0 0 2.295 431.063 -181.339)" stroke="#000">
  <path d="m134.5 276.494-9.70912-3.14119c-10.9437-1.57611-13.556 8.51172-13.1359 22.845 3.41911 30.258 9.27939 34.0949 15.1348 44.2622l21.1316-1.14225c3.23525-13.0433 8.25182-21.835 9.42355-39.6932 1.30325-11.6808-0.72517-27.2506-13.1359-26.2717l-9.70912 3.14119z" fill="#fff" fill-rule="evenodd" stroke-width="1px"/>
  <path d="m134.683 260.885c-6.24976-1.93796-8.19642 4.15881-9.89423 8.6827-0.70763 1.97674-1.9662 12.8895-1.81784 15.7149 0.40412 7.69605 4.76582 8.53333 9.82548 9.65466 4.33875 1.16492 10.8643-1.60634 13.065-8.56406 0.43931-1.38893-0.92023-9.69543-0.78654-10.7478 0.69189-4.44184-2.44158-16.933-10.3919-14.7404z" fill="#fff" fill-rule="evenodd" stroke-width="1px"/>
  <g fill="none" stroke-linecap="round" stroke-width="1px">
   <path d="m122.506 326.753-6.56793-16.5626"/>
   <path d="m123.648 322.755-4.569-17.1337"/>
   <path d="m125.362 316.758-1.99893-8.56687"/>
   <path d="m143.638 319.043 3.14119-11.7081"/>
   <path d="m145.351 324.754 4.28343-12.2792"/>
   <path d="m153.347 294.77c1.22901-5.61606 0.83413-11.2321-3.99787-16.8482"/>
   <path d="m113.654 295.626c0.68111-5.89052 0.70672-12.2727 4.28343-15.9915"/>
  </g>
  <g fill="#fff">
   <path transform="matrix(.983064 0 0 1.00038 .363254 -.104172)" d="m141.353 270.925a4.85456 7.28195 0 0 1-4.85456 7.28195 4.85456 7.28195 0 0 1-4.85456-7.28195 4.85456 7.28195 0 0 1 4.85456-7.28195 4.85456 7.28195 0 0 1 4.85456 7.28195z" opacity=".99" stroke-linecap="round" stroke-linejoin="round" stroke-width=".7"/>
   <g fill-rule="evenodd" stroke-width="1px">
    <path d="m103.088 305.05c5.16028 3.27893 6.89225 7.41493 9.138 11.4225 1.97014-8.49328 5.54989-15.7794 10.5658-21.9883 3.86926 4.64874 3.46726 10.3653 4.569 15.7059-7.73866 1.06272-4.23543 28.8249-6.28237 43.4055 0.332 6.86626 0.43168 13.9068 3.71231 18.5616l-1.71338 4.569c7.82561-0.12242 13.4623-0.73127 27.6996 0.57112l-3.99787-12.5647c-1.38905-17.9066 2.83758-51.2564-4.28344-53.4002l2.57007-14.2781 9.99468 27.414 9.42355-10.8514c-1.61677-5.80342-12.9336-26.7239-22.5594-33.9819-2.8382 0.59792-5.05471 5.54765-7.13906 11.4225-2.99855-7.64908-4.81619-8.42371-7.13906-11.9936-8.18612 4.93137-16.3722 13.4404-24.5584 25.9862z"/>
    <path d="m99.6613 312.76c-0.645912-1.27824-2.15044-0.83924-1.42781-4.85456 0.538115-0.79451 1.11305-1.5522 3.14119-0.85669 0.53791 1.0692 1.39429 1.92609 0.85668 3.71231l5.14013 8.85244c9.69813 25.8429 18.915 50.6912 17.4193 53.4002-1.39802 6.41206-12.3434-21.6935-23.4161-50.259l0.9321-2.70129-2.64548-7.29339z"/>
    <path d="m106.086 307.477c-5.87111 3.29992-4.70367 3.60917-6.1396 6.56793 1.95134 3.09204 1.61818 4.04616 3.56954 4.85456 1.53886-1.83765 3.99596-0.9522 3.42674-3.14119 0.0476-2.80018 1.95134-3.41968 1.99894-4.85456l-2.85562-3.42674z"/>
    <path d="m95.6634 322.327 2.42728 5.2829 13.9926-5.56846-1.85615-5.56847-14.5637 5.85403z"/>
    <path d="m117.223 354.738-11.8508-30.1268"/>
   </g>
  </g>
  <g fill="none">
   <g stroke-width=".6">
    <path d="m120.75 294c-3.91202 4.60649-7.31437 9.46781-9.08654 15.1442"/>
    <path d="m114.49 299.654c-1.0373 1.5784-2.63473 4.42219-3.63461 6.46153"/>
    <path d="m156.894 311.971-5.25-8.07692"/>
    <path d="m146.798 297.837 6.66346 15.5481"/>
   </g>
   <g>
    <g stroke-width="1px">
     <path d="m127.212 310.154c5.40425 2.03045 10.0221 0.91516 14.9423 1.00961"/>
     <path d="m143.163 306.721c-4.9408 0.15926-8.16949 1.78604-16.5577-1.00961"/>
     <path d="m133.067 307.125 0.20192-7.875"/>
    </g>
    <path d="m128.423 305.712-0.40384-6.25962" stroke-width=".5"/>
    <path d="m140.942 306.923 1.00961-7.875" stroke-width=".5"/>
    <path d="m137.51 375.981c-2.2665-0.23861-2.20673-18.6221-1.81731-39.5769 1.09539-9.06443-2.62227-15.1207-5.65385-21.6058" stroke-width="1px"/>
    <path d="m135.692 330.346c0.59055-5.43241 1.83389-9.77685 4.03846-12.5192" stroke-width="1px"/>
   </g>
   <g stroke-linecap="round" stroke-width=".5">
    <path d="m123.173 365.481 1.21154-28.875"/>
    <path d="m125.596 369.721 0.60577-16.7596"/>
    <path d="m130.038 375.981 1.81731-29.8846"/>
    <path d="m140.135 376.183c-3.2051-13.2853-0.78498-32.1958 0-49.4712"/>
    <path d="m142.558 329.337-0.20192 22.4135"/>
   </g>
  </g>
  <path transform="matrix(.92786 .346295 -.34005 .96539 136.732 -40.5931)" d="m162.75 341.048a14.9423 32.9135 0 0 1-14.9423 32.9134 14.9423 32.9135 0 0 1-14.9423-32.9134 14.9423 32.9135 0 0 1 14.9423-32.9135 14.9423 32.9135 0 0 1 14.9423 32.9135z" fill="#fff" opacity=".99" stroke-linecap="round" stroke-linejoin="round"/>
  <g fill="none">
   <g stroke-width="1px">
    <path d="m167.798 307.731c-2.68451 8.35804-3.74148 16.602-8.27885 25.4423-8.36666-4.04444-10.4086-3.26402-13.3269-3.83653"/>
    <path d="m172.644 310.962c-1.67196 8.4328-3.0977 14.8956-7.47116 25.0385 2.6153 1.59417 3.53476 1.54517 7.67308 5.65385"/>
    <path d="m144.173 369.317c5.41677-9.66112 10.3726-19.4839 13.125-29.6827-4.87428-3.23678-9.17427-3.60209-13.5288-4.24039"/>
    <path d="m170.423 348.519c-1.8084-3.05729-4.97514-4.23544-7.26923-5.85577-3.51346 11.5096-8.16722 20.1685-12.7212 29.0769"/>
   </g>
   <g stroke-linecap="round" stroke-width=".7">
    <path d="m167.394 347.51c-6.0873 14.6932-10.2453 14.9164-15.3462 22.2115"/>
    <path d="m164.769 346.5c-2.23289 7.71163-6.86198 14.1782-11.1058 19.7885"/>
    <path d="m172.644 320.856c1.62468 8.75141 0.13008 12.512-0.80769 17.1635"/>
    <path d="m169.817 331.558c0.32376 1.68908 0.89915 3.25235 0.20192 5.45193"/>
    <path d="m166.183 339.433-0.20192 2.01923"/>
    <path d="m168.202 340.442-0.40384 2.42307"/>
    <path d="m170.221 341.452-0.80769 3.23077"/>
   </g>
  </g>
  <path transform="matrix(.936109 -.53131 .435604 .767486 -126.877 157.25)" d="m164.769 312.903a3.85509 3.56953 0 0 1-3.85509 3.56953 3.85509 3.56953 0 0 1-3.85509-3.56953 3.85509 3.56953 0 0 1 3.85509-3.56953 3.85509 3.56953 0 0 1 3.85509 3.56953z" fill="#fff" opacity=".99" stroke-linecap="round" stroke-linejoin="round" stroke-width=".7"/>
  <g fill="none">
   <path d="m134.643 272.639c0.85669-1.14225 0.42835-1.14225 0.42835-1.14225l-0.28557-2.2845c1.93272-0.96842 2.33756-0.91339 3.14119 0" stroke-width="1px"/>
   <path d="m133.5 268.498c-1.03319-0.67228-1.77203-0.46154-2.42728 0" stroke-width="1px"/>
   <path transform="translate(-.142781)" d="m132.786 269.212a0.356953 0.571125 0 0 1-0.35696 0.57113 0.356953 0.571125 0 0 1-0.35695-0.57113 0.356953 0.571125 0 0 1 0.35695-0.57112 0.356953 0.571125 0 0 1 0.35696 0.57112z" opacity=".99" stroke-linecap="round" stroke-linejoin="round" stroke-width=".7"/>
   <path transform="translate(4.06927 .142777)" d="m132.786 269.212a0.356953 0.571125 0 0 1-0.35696 0.57113 0.356953 0.571125 0 0 1-0.35695-0.57113 0.356953 0.571125 0 0 1 0.35695-0.57112 0.356953 0.571125 0 0 1 0.35696 0.57112z" opacity=".99" stroke-linecap="round" stroke-linejoin="round" stroke-width=".7"/>
   <g stroke-width="1px">
    <path d="m133.643 274.78 1.85616 0.14278"/>
    <path d="m130.846 275.726-2.32211 4.34135"/>
    <path d="m138.115 275.928 1.71635 4.94712"/>
    <path d="m128.827 265.731c1.6763-1.01663 2.45199-2.52592 5.82112-2.61065 3.08479 0.32705 4.70406 2.14818 6.70533 3.52173"/>
   </g>
   <g>
    <g stroke-width=".6">
     <path d="m134.885 261.087-0.40385 2.01923"/>
     <path d="m141.851 266.034c0.76645 3.95605 1.85417 9.81199 1.85913 14.5295"/>
     <path d="m129.433 265.327c-1.66914 3.52552-2.56248 8.21474-2.70863 14.0247"/>
     <path d="m127.918 265.529c-1.38045 2.80232-2.28584 7.73654-2.52404 13.9656"/>
     <path d="m130.714 266.286c-1.38045 2.80232-2.18488 7.33269-2.42308 13.5618"/>
     <path d="m138.475 265.727c0.88244 4.22577 2.13901 6.76792 2.3293 14.1084"/>
     <path d="m139.903 265.727c0.88244 4.22577 2.13901 6.76792 2.3293 14.1084"/>
    </g>
    <path d="m133.997 261.645c-2.39474 0.32645-4.38132 1.26512-5.83364 3.0052" stroke-width=".5"/>
    <path d="m135.12 261.914c2.48853 0.32548 4.55292 1.26136 6.06212 2.99626" stroke-width=".508939"/>
   </g>
  </g>
 </g>
 <g transform="matrix(2.35426 0 0 2.35426 425.691 -196.219)" stroke="#000">
  <g stroke-width="1px">
   <path d="m220 231.75c12.6614-5.49832 24.0455-4.17197 25.2109 13.7476-0.35207 3.14795-4.88112 7.06413-1.4609 12.0024-2.69754 2.1132-3.51167-2.67945-4.25-7.75 1.06234 7.46776 1.08819 14.6528-1.5 21.125-2.45763-4.20974-6.55711-6.04268-4.75-14.5-2.54609 2.08286-2.70818 0.11424-4-0.625 0.38457-1.48395-0.46758-2.30592 1.25-3.625 6.06742-4.65971 6.8679-18.7159-5.75-16.625l-2.25 0.25-2.5-4z" fill="#fff" fill-rule="evenodd"/>
   <path d="m212 268.5-6.5-5.5" fill="none" stroke-linecap="round" stroke-linejoin="round"/>
   <path d="m221.5 269.75c-4.10562 9.64632-2.2377 17.3015-0.5 25l-3 3.25-3.75-2.5c-0.29389 1.89222 1.34177 4.33574-3.25 5-2.16667 0.43084-4.33333-1.24868-6.5-2 1.44106-2.30589-1.08243-2.84665 5-6.5 4.73602-2.84465 5.38969-11.3814 3.5-19.5l-9.75-7.5-3.5-23 17.5 14.25 4.25 13.5z" fill="#fff" fill-rule="evenodd"/>
   <path d="m169.75 227.5c0 0.0467-10.5208-2.90163-15.75-4.75-1.97822-0.69925-5.43256 2.02687-5.5 3.5-0.25084 5.47948 1.37911 19.1633 0.75 20.25l5.25 3 1-17 13.25 3.75 1-8.75z" fill="#fff" fill-rule="evenodd"/>
   <path d="m209.25 263.5-4.5-6.5" fill="none" stroke-linecap="round" stroke-linejoin="round"/>
   <g>
    <path d="m207.375 225.75c4.69802 0.48441 26.273 7.68464 19.1827 29.4808-2.3012 4.71791-1.68288 7.97606-0.80769 11.1058 4.43561 2.53898 5.22641 7.10285 4.84615 12.3173-2.28264 4.68103-2.2905 8.71212-0.80769 12.3173 0.32475 5.42599-1.3061 5.45926-3.63461 5.04808-3.38398-0.33132-2.63772 3.62364-4.03847 5.65384-2.66215 1.33808-5.67432 1.53197-7.26923 0.20193-0.47654-2.81238 1.32019-6.07942 8.88462-10.5 0.42029-7.00822 1.09134-14.1418-1.61538-19.5865-4.65515-5.00443-10.274-6.15395-13.9327-15.1442l-4.4423-10.7019c-10.6907 2.3728-21.8484 9.649-31.2981-1.00962l-11.3077-8.27884c-3.30054-1.76242-5.03814-0.98504-4.03847 4.24038l-0.20192 8.48077 2.22115-1.41346c1.11264 1.37774 2.09132 2.88945 4.24039 3.23077 3.69419 3.66367 2.19072 6.74982 1.21154 9.89423-3.35212-2.11307-6.84811-3.93841-9.69231-7.06731-1.2149-1.33652-4.95233-5.1473-2.82692-5.85577 0.82046-0.27349-0.24433-12.6288-0.20193-16.5577 0.0174-1.61289 3.38367-3.70918 4.84616-3.02885 2.56315 1.19235 9.45396 5.02933 9.89423 4.44231l2.625-1.41346-3.02885 0.40385 0.20193-8.48077c2.11877-4.80658 6.32343-4.75131 0.40384-23.625-4.83577 4.70885-7.19626 3.78307-9.89423 1.00961 2.34371 6.25993-3.15328 4.82159-5.04808 4.84615-1.43504-0.25574 0.77611-2.79035 2.22116-4.84615-2.14853 1.00031-4.85714 5.21023-6.05769 2.82692-0.75363-1.49608-0.43249-3.99219 1.5216-6.11683 4.25414-4.62546 8.28188-8.67043 13.2188-12.8639-0.65433-2.61563-0.0138-4.58384 1.61538-6.05769 1.08925 0.67308 1.69005 1.34615 2.01924 2.01923l1.21153-1.21154c1.55212 0.66904 3.00434 1.43797 3.4327 3.23077 1.45832-0.43004 2.78682-1.14137 6.46153 3.23077 2.12374 1.38917 5.37498 1.16762 5.04808 6.0577 3.20733 1.98704 4.86296 4.31891 4.64423 7.0673l3.23077 7.875-2.82692 13.5288 19.7885 5.25z" fill="#fff" fill-rule="evenodd"/>
    <path d="m220 249.5-1.25-18.75-3.75-2c2.7643 6.43392 2.24079 13.6898 2.5 20.75h2.5z" fill="none"/>
    <path d="m227.75 246.5c-6.83333-0.24325-13.6667-6.0413-20.5-9.25l0.10906 3.09292c6.94388 4.19815 13.9295 8.79285 20.4177 8.66205l-0.02677-2.50497z" fill="#fff" fill-rule="evenodd"/>
    <path d="m207 227c0.16116 8.33333 1.8002 16.6667-1.75 25-0.0505 7.41555-1.8911 16.1329 5 18.5-5.93036 1.38126-10.7991-0.95319-12.75-13.5 0.31579 4.87406-2.23126 10.5661 2.25 14.25-10.5426-0.53709-9.34591-9.22496-11.5-18.25 0.0613 4.14624-1.09724 8.69908 0.75 12.25-7.27831-0.31419-7.79271-8.51961-11.5-13l9.5-27.25 20 2z" fill="#fff" fill-rule="evenodd"/>
    <path d="m186.515 207.634-1.26517 16.3661" fill="none"/>
   </g>
  </g>
  <g fill="#fff" fill-rule="evenodd" stroke-width="1px">
   <path d="m211.212 223.529c-1.44605 3.49238-4.48934 5.78684-8.07692 7.67307-5.21958 0.70996-9.09929 0.08-12.7212-0.80769l-2.22115-2.625 16.3558-10.0962 6.66346 5.85577z"/>
   <path d="m186.25 230.25c0.37487 5.76187 0.0663 8.74792-3.75 13.5-1.80692 2.24999-2.94327 7.52836-3 10.75 0.82852-1.24278-13.9795-2.52863-16.5-5-1.15851-1.13594 3.1115-1.92337 5-2.25 2.3335-0.40359 7.75 0.25 7.75 0.25 4.00992-5.91468 4.05733-12.4719 5-19l5.5 1.75z"/>
   <path d="m207.033 215.955c-3.03278 6.95813-10.8568 10.4939-19.1327 13.707l-1.14225 2.2845c-3.86606-0.82177-8.66586-2.67644-6.24773-6.13241 4.72971-6.75965 11.2171-9.33586 16.528-14.4281l9.99469 4.56899z"/>
   <path d="m198.323 188.398c-3.85509-0.71809-7.71019-0.55867-11.5653-4.14065l-1.99894 3.14119c1.90375-6.68611 3.8075-12.9219 5.71125-18.8471l-4.28343-0.28556c-3.17418 5.28582-5.4402 10.7533-6.71072 16.4198 4.79934 5.76252 9.56762 11.1523 13.9926 12.422l4.85456-8.70966z"/>
   <path d="m196.324 182.972-0.28556 5.42568c-2.53161 1.31434-4.6064 3.54232-5.99681 7.13906-0.6369 6.34815 0.88759 12.8194 2.14172 17.2765 5.46935-1.93394 12.1428-5.52757 15.1348-3.71231l-0.14278-15.1348-4.28344-7.13906-0.57112-5.2829-5.99681 1.42781z"/>
   <path d="m197.181 174.548c-1.2253 0.78578-2.55955 2.06756-3.42675 3.56953 0.7615 0.23743 1.523-0.39173 2.2845 0.57112-0.26952 0.77755-1.27047 0.25253-2.2845 0.28557-0.3217 1.80474-0.23288 4.42452 0.57112 5.85402 3.81874 0.0421 5.41518-2.58266 7.42462-4.71177l-0.99946-5.42569-3.56953-0.14278z"/>
   <path d="m209.317 178.546c1.15227-0.92498 2.75175-1.34999 3.71231 0.57113 0.69223 1.38446 0.85668 2.29646 0.85668 3.99787 0 1.64288-0.28556 2.54392-0.28556 3.99787 0 1.37749 2.11081 1.14225 3.42675 1.14225 0.69885 0 1.55809-1.42781 3.42675-1.42781 1.21899 0 1.1019 2.55997 2.2845 2.85562 2.30769 0.57693 2.2845-0.16121 2.2845-2.28449 0-0.86313 3.56064 0.24764 3.71231 0.28556 1.18771 0.29693 0.85668-3.34249 0.85668-3.99788 0-1.77849 0.34242-2.98419-1.42781-3.42674-1.67052-0.41763-2.76659-0.3746-3.71231 0.57112-1.65861 1.65861-2.59226-0.65991-2.85562-1.71337-0.42448-1.6979-0.79386-1.71338-2.85563-1.71338-1.81695 0-2.76395-0.76501-3.71231-1.71337-0.66994-0.66994-3.28656-0.28556-4.28343-0.28556-1.58291 0-1.54691 1.02315-2.85563-0.28557-0.84357-0.84357-1.33227-1.09447-2.57006-1.71337-2.55309-0.39654-6.73238-1.96573-9.99468 1.42781 1.71337 0.63484 3.42675 0.39194 5.14012 3.14119 0.38886 2.09412 0.18223 4.18825-0.57112 6.28237 0.57112 2.2845 2.09413 3.8075 4.569 4.569l0.57112-3.71231c2.92787-0.90355 4.01134-3.38801 4.28344-6.56794z"/>
  </g>
  <g fill="none">
   <g stroke-linecap="round" stroke-linejoin="round">
    <path d="m206.567 177.188c0.42953 3.66029-1.14409 5.31744-2.82692 6.86538" stroke-width=".7"/>
    <path d="m204.548 177.793c0.89294 2.43941-0.40087 3.33614-1.61538 4.64423" stroke-width=".5"/>
    <g stroke-width="1px">
     <path d="m215.885 182.687 0.14278 3.14118 2.42728-1.57059"/>
     <path d="m222.31 185.399 0.57113-1.28503"/>
     <path d="m226.594 184.971-0.28556-0.85669"/>
     <path d="m216.806 184.784-0.28556-0.85669"/>
    </g>
   </g>
   <path d="m188.043 176.261-4.85456-1.99893" stroke-width="1px"/>
   <g stroke-linecap="round" stroke-linejoin="round" stroke-width="1px">
    <path d="m184.902 180.545-0.42834 1.85615"/>
    <path d="m185.616 178.974v-0.99947"/>
    <path d="m184.045 184.257v0.85669"/>
    <path d="m190.47 192.538-4.85456-3.85509"/>
   </g>
  </g>
  <g fill="#fff">
   <path d="m192.755 168.266c13.6295 1.10617 29.1394-0.94126 41.6921 9.138-4.71872-8.36151-14.2347-15.4675-40.8354-15.7059l-0.85669 6.56793z" fill-rule="evenodd" stroke-width="1px"/>
   <g stroke-linecap="round" stroke-linejoin="round" stroke-width=".7">
    <path transform="matrix(1.17499 -.277234 .197127 .835472 -69.1392 79.3854)" d="m191.041 165.767a3.0698 3.0698 0 0 1-3.0698 3.0698 3.0698 3.0698 0 0 1-3.0698-3.0698 3.0698 3.0698 0 0 1 3.0698-3.06979 3.0698 3.0698 0 0 1 3.0698 3.06979z" opacity=".99"/>
    <path transform="matrix(.99649 0 0 1.06626 1.08808 -11.0547)" d="m191.041 165.767a3.0698 3.0698 0 0 1-3.0698 3.0698 3.0698 3.0698 0 0 1-3.0698-3.0698 3.0698 3.0698 0 0 1 3.0698-3.06979 3.0698 3.0698 0 0 1 3.0698 3.06979z" opacity=".99"/>
    <rect transform="matrix(.996524 -.0833125 .0833125 .996524 0 0)" x="176.428" y="174.646" width="4.569" height="12.9931" ry="1.63994" opacity=".99"/>
   </g>
  </g>
  <g stroke-width="1px">
   <path d="m208.99 222.115c-3.24349 3.24169-4.65865 6.84904-12.9231 9.08654" fill="none"/>
   <path d="m185.33 210.1c-2.66451-0.8155-3.14834 0.0111-3.56953 2.71284-0.0768 2.18726 0.22212 4.48751 2.71284 3.56953 1.03407-1.00116 2.53688-0.601 4.48536-1.66141 1.01118 0 1.40744-1.00604 2.36814-0.76587 2.52963-2.321-4.08505-3.48746-5.99681-3.85509z" fill="#fff" fill-rule="evenodd"/>
   <path d="m202.892 212.671c-3.01161 2.89708-8.18083 2.19813-12.2792 3.28397l-0.14278-5.42568c5.51471-0.22342 8.8555-3.70771 12.9931-5.99681l-0.57113 8.13852z" fill="#fff" fill-rule="evenodd"/>
  </g>
  <g fill="#fff" fill-rule="evenodd" stroke-width="1px">
   <path d="m199.601 191.221h19.889c2.99196 21.272-2.46192 27.7638-7.875 34.3269-12.9382-8.54304-11.573-21.6182-12.014-34.3269z"/>
   <path d="m208.587 195.361 3.43269 0.0126 0.10096 4.12686h3.91236l0.0251 3.43269-3.80492 0.10096 0.0442 4.38554 3.35688-0.0442v3.63461l-3.4327 0.10096 0.10097 8.37981-3.49595 0.0126-0.0758-8.40494-2.96559-0.0884-0.0251-3.63462 2.93398 0.0442-0.10097-4.44231-3.84263-0.0442-0.0251-3.38851h3.91845l-0.0568-4.18361z"/>
  </g>
  <path d="m182.046 213.242c-8.80484 0.67184-17.6097-3.11232-26.4145-7.71019l-2.2845 5.14013c9.85952 3.87594 19.7501 7.25469 29.984 5.14012l-1.28503-2.57006z" fill="#fff" fill-rule="evenodd" stroke-width="1px"/>
  <g fill="none">
   <g stroke-width="1px">
    <path d="m159.344 207.388-1.14225 4.85456"/>
    <path d="m162.913 209.244-0.7139 4.28343"/>
    <path d="m166.197 210.814-0.57112 3.42675"/>
    <path d="m170.052 211.814-0.57112 3.71231"/>
    <path d="m173.479 212.813v3.14119"/>
    <path d="m176.478 213.099v3.28396"/>
    <path d="m179.476 213.67-0.14278 2.42728"/>
   </g>
   <g stroke-linecap="round">
    <path d="m198.591 218.885-4.64423-3.43269" stroke-width="1px"/>
    <path d="m200.608 213.813c-2.85927 0.76879-4.5293-0.84089-6.28237-2.2845" stroke-width=".5"/>
    <path d="m195.361 222.014-5.35096-4.94711" stroke-width="1px"/>
    <path d="m194.182 215.098-0.7139-2.42728" stroke-width=".5"/>
    <path d="m191.726 223.63-4.54326-4.24039" stroke-width="1px"/>
    <path d="m188.495 225.75-4.4423-3.73558" stroke-width="1px"/>
   </g>
   <g stroke-width="1px">
    <path d="m187.688 229.587-5.75481-5.35096"/>
    <path d="m182.639 230.293-0.20192-2.72596"/>
    <path d="m229.183 294.606-2.22115-2.42308" stroke-linecap="round"/>
    <path d="m228.375 278.25c0.86456-3.05368 5e-3 -5.76262-1.81731-8.27885" stroke-linecap="round"/>
   </g>
   <path d="m217.067 298.442c1.69513-1.54552 2.02721-0.69303 3.23077-1.00962-1.17099 0.27145-2.08864 0.2999-3.23077 2.625v-1.61538z" stroke-linejoin="round" stroke-width="1px"/>
   <path d="m150.634 199.82-0.99947 1.85615" stroke-linecap="round" stroke-linejoin="round" stroke-width="1px"/>
   <g stroke-width="1px">
    <path d="m157.059 200.963c-0.60633-2.2669-2.58312-4.63386-4.71179-6.13959"/>
    <path d="m156.631 199.963c5.79259-3.70036 10.9554-8.15653 14.8492-14.1353 1.56216 2.38718 1.22363 9.52608 5.29651 5.63646-1.18438 4.19548-1.93392 8.00444 1.06066 8.48528l1.94454-6.01041c-0.15587 3.01788-2.78858 6.86137-0.35355 9.01561 1.06066-0.2357 2.35702 0.7071 3.88908 2.82843l-0.7071-6.89429c2.78273 4.00608 1.56657 5.72708 1.23743 7.95495l2.65165 1.59099c0.59725-2.2981 0.26576-4.24264-0.17678-6.54074 1.1176 3.00559 2.4527 5.78575 1.23744 7.42463l3.35876 1.76776" stroke-linejoin="round"/>
    <path d="m161.914 185.399c2.24091 4.32391 7.55621 6.21117 4.99734 14.992"/>
   </g>
  </g>
  <path d="m160.772 191.325a0.999468 0.928078 0 0 1-0.99947 0.92808 0.999468 0.928078 0 0 1-0.99947-0.92808 0.999468 0.928078 0 0 1 0.99947-0.92807 0.999468 0.928078 0 0 1 0.99947 0.92807z" opacity=".99" stroke-linecap="round" stroke-linejoin="round" stroke-width=".5"/>
  <path d="m166.34 184.685-1.42781-2.14171" fill="none" stroke-linecap="round" stroke-width="1px"/>
  <path d="m166.483 180.973 1.5706 2.57006" fill="none" stroke-width=".5"/>
  <path d="m160.731 252.404c0.31806 2.9556 1.02989 5.32055 2.42308 6.66346 0.13239-2.53451-1.18283-4.58649-2.42308-6.66346z" fill-rule="evenodd" stroke-linecap="round" stroke-linejoin="round" stroke-width="1px"/>
  <g fill="none">
   <g stroke-linecap="round" stroke-width="1px">
    <path d="M 182.375,193.875 184.5,198"/>
    <path d="m178.75 189.125-2.25-1.625"/>
    <path d="m175.875 190.625-3.75-4"/>
   </g>
   <g stroke-width="1px">
    <path d="m171.65 219.041c-1.94971 3.11237-4.1249 5.27382-3.35875 8.83884"/>
    <path d="m184.375 231.375c0.20496 7.7037-3.11844 10.5559-5.375 14.875"/>
    <path d="m180.312 232.3-7.42462 12.0208-1.59099 7.6014 0.82838 0.32821 0.625-7"/>
    <path d="m180.666 229.825-14.3189-0.17677"/>
    <path d="m179.605 227.703-12.9047 0.17677"/>
    <path d="m179.5 250.5-2-0.25"/>
    <path d="m204.5 230.75c2.84003 12.7482-4.57965 22.1568-2 33-4.06066-6.23487-3.21639-18.3602-5.25-20-3.69144 7.34159-2.98048 13.8824-3 20-2.24358-4.92951-4.31361-9.20611-2.75-21.75-3.2568 3.93311-5.98292 8.7507-7.25 16-1.88715-5.44542-1.63953-12.368 1-18.5"/>
   </g>
   <g stroke-width="1px">
    <path d="m217.5 271-0.5 4.75" stroke-linecap="round" stroke-linejoin="round"/>
    <path d="m206.75 297.75c1.08948-1.05262 2.09532-2.52341 3.5-2-0.18249-1.05169-0.90742-1.01849-1.75-0.75-1.28194 0.21806-1.4225 1.5775-1.75 2.75z" stroke-linecap="round" stroke-linejoin="round"/>
    <path d="m238.125 270.125c-6.35074-10.1775 0.65559-14.6592-0.25-26.125"/>
   </g>
   <path d="m231.625 234.125c3.31506 3.76913 7.58322 8.01729 1.125 18.375" stroke-linecap="round" stroke-linejoin="round" stroke-width=".5"/>
   <path d="m239.75 250c1.75941-11.3461-2.42792-14.3483-5.625-16.625" stroke-linecap="round" stroke-width="1px"/>
  </g>
 </g>
</svg>
