<svg viewBox="0 0 100 100" xmlns="http://www.w3.org/2000/svg" aria-hidden="true"><path fill="#fff" fill-rule="evenodd" d="M70.9,52.7L75.5,55.3L75.6,56.0L77.4,57.2L76.8,58.7L77.7,59.9L77.4,61.9L78.7,64.1L77.8,64.8L74.1,65.8L71.7,65.6L70.7,63.0L67.1,61.7L65.7,59.5L65.3,57.0L67.1,55.6L66.7,52.9L70.9,52.7ZM19.0,17.8L19.0,20.0L15.0,19.9L15.0,23.0L13.9,23.2L13.8,25.5L8.8,25.9L8.8,25.4L11.6,25.3L12.6,22.7L14.3,21.3L15.7,18.8L18.8,18.5L19.0,17.8ZM65.3,57.0L65.7,59.5L67.1,61.7L64.6,61.9L64.2,65.9L65.7,66.4L65.8,67.7L64.9,67.7L62.7,65.7L61.9,66.1L59.1,64.9L56.6,65.1L56.1,60.4L54.1,60.0L52.8,61.3L50.9,61.4L49.5,58.7L44.4,58.6L46.2,57.0L47.4,57.6L49.1,55.9L49.6,53.7L51.1,52.1L52.2,46.4L53.3,45.4L56.9,46.6L57.4,45.8L60.8,45.1L62.9,45.2L64.2,46.3L65.8,45.9L67.2,47.3L67.1,48.7L67.6,48.9L66.0,50.8L65.0,55.0L65.3,57.0ZM80.3,53.6L79.6,52.6L79.5,48.1L80.9,46.4L84.4,45.4L89.2,40.0L89.3,37.6L91.9,36.9L91.2,40.3L88.8,45.0L80.3,53.6ZM77.4,57.2L75.6,56.0L75.5,55.3L70.9,52.7L70.9,51.4L72.3,49.2L71.0,46.4L72.6,44.8L73.7,46.1L76.1,47.2L77.8,47.4L79.3,46.4L80.6,46.8L79.5,48.1L79.6,52.6L80.3,53.6L78.7,54.7L77.4,57.2ZM59.5,41.5L58.2,40.6L58.3,39.2L56.3,36.2L57.6,32.4L58.7,32.5L58.7,27.2L60.1,27.2L60.1,24.7L74.5,24.7L75.3,28.8L76.4,29.6L74.5,30.9L73.8,35.0L71.3,38.6L71.0,41.0L70.1,36.7L69.5,36.6L68.7,36.9L69.1,38.0L67.8,39.6L66.1,39.0L64.9,40.1L62.2,40.0L61.0,38.8L60.1,39.0L59.5,40.7L58.7,41.0L59.5,41.5ZM58.6,27.7L58.7,32.5L57.6,32.4L56.3,36.2L57.4,38.0L56.1,38.7L55.2,40.0L52.5,40.6L51.5,41.9L48.2,42.5L47.8,40.8L46.6,39.9L46.9,39.3L48.4,39.4L47.4,35.3L46.6,35.3L46.1,34.0L46.6,32.4L48.2,31.3L49.0,26.7L48.0,25.6L47.7,23.7L48.9,23.0L58.6,27.7ZM49.5,86.4L50.1,85.8L52.1,87.0L53.8,86.2L53.8,81.7L55.0,84.3L55.9,84.1L58.0,82.4L60.9,82.6L62.6,80.3L65.5,78.5L67.6,78.7L68.5,81.3L68.4,83.1L67.4,82.9L67.0,84.2L67.7,84.8L69.6,84.2L68.8,86.6L64.0,91.5L61.0,92.9L57.1,92.8L54.0,94.0L52.0,93.2L51.4,91.3L51.8,90.1L49.5,86.4ZM64.9,86.9L65.3,87.2L63.8,88.8L62.5,88.0L63.8,86.7L64.9,86.9ZM67.6,78.7L63.7,77.7L63.4,76.5L61.5,75.1L60.4,73.2L62.5,73.4L64.9,71.1L66.5,70.5L69.6,71.9L69.4,76.3L67.6,78.7ZM65.5,78.5L62.6,80.3L60.9,82.6L58.0,82.4L55.9,84.1L55.0,84.3L53.8,81.7L53.8,78.2L55.0,78.1L55.1,73.8L57.9,73.3L58.3,73.8L60.4,73.2L61.5,75.1L63.4,76.5L63.7,77.7L65.5,78.5ZM53.8,81.7L53.8,86.2L52.1,87.0L50.1,85.8L49.5,86.4L48.1,84.6L47.0,78.5L43.9,72.6L46.0,72.2L46.7,72.8L51.8,72.7L52.7,73.2L55.6,73.4L58.9,72.6L60.1,73.0L58.3,73.8L57.9,73.3L55.1,73.8L55.0,78.1L53.8,78.2L53.8,81.7ZM9.2,35.0L8.1,33.6L9.9,31.5L11.8,31.3L14.7,33.7L15.5,36.4L9.2,36.4L9.0,35.5L12.7,35.1L11.2,34.6L9.2,35.0ZM15.5,36.4L14.7,33.7L15.3,32.8L22.8,32.6L21.7,21.1L23.6,21.1L33.4,27.5L33.4,28.3L34.8,28.2L34.8,31.0L34.0,32.6L28.3,33.3L25.8,35.0L24.7,35.1L23.2,37.3L23.0,38.9L19.8,39.1L18.4,36.5L17.2,37.1L15.5,36.4ZM8.8,25.9L13.8,25.5L13.9,23.2L15.0,23.0L15.0,19.9L19.0,20.0L19.0,18.1L23.6,21.1L21.7,21.1L22.8,32.6L15.3,32.8L14.7,33.7L11.8,31.3L9.5,31.9L9.7,27.0L8.8,25.9ZM32.9,43.9L31.8,44.1L31.6,40.4L30.5,38.8L31.3,37.5L33.0,36.6L34.0,37.3L34.2,38.5L32.9,41.2L32.9,43.9ZM47.7,23.7L48.0,25.6L49.0,26.7L48.2,31.3L46.6,32.4L46.1,34.0L46.6,35.3L47.4,35.3L46.9,36.3L45.5,35.0L44.6,35.6L43.0,35.2L40.6,35.9L39.1,35.3L37.9,35.6L36.2,34.6L34.6,35.0L34.0,37.3L33.0,36.6L32.2,37.0L32.2,36.1L30.8,35.9L30.0,33.3L34.0,32.6L34.8,31.0L34.8,28.2L44.2,22.9L46.8,24.1L47.7,23.7ZM32.9,43.9L32.9,41.2L34.1,39.3L34.1,36.2L34.9,34.8L40.6,35.9L43.0,35.2L44.6,35.6L45.5,35.0L47.3,36.8L43.9,43.0L43.1,43.4L41.9,43.0L40.8,43.7L39.9,45.7L36.8,46.3L34.8,43.9L32.9,43.9ZM47.2,35.9L48.4,39.4L46.9,39.3L46.6,39.9L47.8,40.8L48.4,42.2L47.3,44.0L47.2,45.8L48.9,47.9L49.0,49.4L47.1,48.8L41.3,48.8L41.5,47.8L39.9,46.1L40.2,44.9L41.9,43.0L43.1,43.4L43.9,43.0L46.1,38.4L47.1,37.4L47.2,35.9ZM30.7,38.1L31.6,40.4L31.8,44.1L30.9,44.3L29.5,38.5L30.7,38.1ZM29.6,38.1L30.9,44.3L27.2,45.8L26.1,45.5L25.6,43.9L26.4,41.5L26.0,38.2L29.6,38.1ZM19.8,39.1L22.0,38.7L24.3,39.8L26.1,39.8L26.4,41.5L25.6,43.9L26.1,45.5L23.9,45.2L20.2,46.2L20.3,44.6L19.1,43.7L19.5,41.4L20.0,41.1L19.8,39.1ZM12.9,36.2L17.2,37.1L18.4,36.5L19.8,39.1L20.0,41.1L19.5,42.2L18.3,42.6L17.7,41.1L16.8,41.4L16.0,39.3L14.4,39.5L13.4,40.7L11.1,38.1L12.8,37.1L12.9,36.2ZM9.2,36.4L12.9,36.2L12.8,37.1L11.1,38.1L9.2,36.4ZM19.3,42.2L19.1,43.7L20.3,44.6L20.2,46.2L15.6,43.3L17.1,41.3L17.7,41.1L18.3,42.6L19.3,42.2ZM13.4,40.7L14.4,39.5L16.0,39.3L17.1,41.3L15.6,43.3L13.8,42.0L13.4,40.7ZM23.0,38.9L24.4,35.4L28.3,33.3L30.0,33.3L30.8,35.9L32.2,36.1L31.9,37.3L30.7,38.1L26.0,38.2L26.1,39.8L24.3,39.8L23.0,38.9ZM62.9,45.2L59.3,45.3L57.4,45.8L56.9,46.6L53.3,45.4L52.1,47.3L50.5,47.0L49.1,48.8L47.2,44.9L48.2,42.5L51.5,41.9L52.5,40.6L55.2,40.0L56.1,38.7L57.4,38.0L58.3,39.2L58.2,40.6L62.9,45.2ZM52.1,47.3L51.1,52.1L49.6,53.7L49.1,55.9L47.4,57.6L46.8,57.0L45.7,57.5L45.0,57.0L44.1,57.7L43.1,56.4L44.0,55.7L43.6,54.9L44.9,53.9L46.6,54.6L47.2,53.2L46.5,51.5L47.0,50.1L45.8,49.9L45.5,48.8L49.0,49.4L50.5,47.0L52.1,47.3ZM43.3,48.8L45.4,48.7L45.8,49.9L47.0,50.1L46.5,51.5L47.2,53.2L46.6,54.6L44.9,53.9L43.6,54.9L44.0,55.7L43.1,56.4L40.3,52.9L41.1,50.3L43.3,50.3L43.3,48.8ZM67.1,61.7L70.1,63.3L70.2,66.7L69.4,68.3L70.1,68.6L66.4,69.6L66.5,70.5L64.9,71.1L62.5,73.4L57.9,72.9L56.3,71.2L56.3,67.3L58.9,67.3L58.7,64.9L61.0,65.9L62.7,65.7L64.9,67.7L65.8,67.7L65.7,66.4L64.2,65.9L64.3,62.7L64.9,61.8L67.1,61.7ZM69.5,62.8L70.7,63.0L71.4,63.9L71.7,68.1L73.1,69.4L73.2,70.9L72.3,72.0L71.5,71.3L71.6,69.4L69.4,68.3L70.4,64.4L69.5,62.8ZM71.7,65.6L75.3,65.6L78.7,64.1L79.3,69.5L77.7,71.9L75.2,73.0L72.0,75.7L72.9,78.5L72.8,81.0L69.8,82.5L69.3,82.9L69.6,84.2L68.7,84.1L67.6,78.7L69.4,76.3L69.6,71.9L66.6,70.9L66.4,69.6L70.1,68.6L71.6,69.4L71.5,71.3L72.3,72.0L73.2,70.9L73.1,69.4L71.7,68.1L71.7,65.6ZM44.6,59.0L49.5,58.7L50.9,61.4L52.8,61.3L54.1,60.0L56.1,60.4L56.6,65.1L58.9,65.2L58.9,67.3L56.3,67.3L56.3,71.2L57.9,72.9L55.6,73.4L52.7,73.2L51.8,72.7L46.7,72.8L46.0,72.2L43.9,72.6L44.4,69.2L46.3,65.3L44.6,59.0ZM66.7,54.5L67.1,55.6L65.3,57.0L65.0,55.0L66.7,54.5ZM90.0,66.7L91.0,70.7L90.1,70.7L90.3,72.1L87.0,82.0L84.9,82.8L83.3,82.0L82.4,79.3L82.5,77.6L83.8,75.2L83.2,72.8L83.8,71.3L86.0,70.8L87.7,69.3L89.6,66.2L90.0,66.7ZM41.1,14.6L40.6,12.4L38.9,10.9L38.7,10.0L39.5,9.3L39.8,6.5L41.2,6.0L42.0,6.1L42.0,6.8L43.0,6.3L42.5,7.1L42.7,9.1L41.9,9.7L43.6,11.1L43.5,12.1L41.7,13.3L41.7,14.3L41.1,14.6ZM19.0,18.1L19.0,16.4L23.2,15.0L25.1,13.9L25.1,13.0L28.0,12.2L26.9,8.7L28.1,8.0L31.4,6.9L39.8,6.5L39.5,9.3L38.7,10.0L38.9,10.9L40.6,12.4L41.5,15.7L41.4,19.2L40.9,19.7L42.1,21.8L42.7,21.6L44.2,22.9L36.5,27.6L33.4,28.3L33.4,27.5L19.0,18.1ZM74.0,34.0L74.5,30.9L76.4,29.6L77.4,32.1L82.1,36.1L81.2,36.2L78.4,33.8L75.8,33.3L75.4,34.2L74.0,34.0ZM26.9,8.7L28.0,12.2L25.1,13.0L25.1,13.9L23.2,15.0L19.0,16.4L18.8,18.5L15.7,18.8L14.3,21.3L12.6,22.7L11.6,25.3L8.8,25.4L12.0,19.5L17.9,15.0L17.6,13.5L19.0,11.0L21.1,10.0L22.3,7.9L26.9,8.7ZM74.5,24.7L60.1,24.7L59.7,14.9L60.3,13.0L64.8,13.9L67.3,13.1L68.5,13.8L71.4,13.5L72.2,15.6L71.2,17.6L70.0,16.9L69.0,15.3L73.1,22.4L72.9,23.4L74.5,24.7ZM60.1,24.7L60.1,27.2L58.7,27.2L58.6,27.7L48.9,23.0L46.8,24.1L42.7,21.6L42.1,21.8L40.9,19.7L41.4,19.2L41.1,14.6L41.7,14.3L41.7,13.3L43.5,12.1L43.6,11.1L48.2,12.2L48.7,13.3L52.8,14.6L54.0,13.8L53.7,12.8L55.0,11.7L57.5,11.7L60.0,12.6L60.1,24.7ZM87.8,41.8L84.4,45.4L82.8,45.5L80.6,46.8L79.3,46.4L77.8,47.4L73.7,46.1L71.9,43.5L69.8,42.1L70.8,41.3L71.3,38.6L73.3,36.2L74.0,34.0L75.4,34.2L75.8,33.3L78.4,33.8L80.3,35.1L81.2,36.2L80.5,38.1L81.7,38.2L81.5,38.7L82.8,40.3L87.8,41.8ZM89.3,37.6L89.2,40.0L87.8,41.8L82.8,40.3L81.5,38.7L82.2,37.6L83.4,38.8L89.3,37.6ZM70.9,52.7L65.6,53.2L66.0,50.8L67.6,48.9L67.1,48.7L67.7,46.9L70.3,46.9L71.0,46.4L71.6,47.2L72.3,49.2L70.9,51.4L70.9,52.7ZM66.7,52.9L67.1,54.3L65.0,55.0L65.3,53.5L66.7,52.9ZM67.2,47.3L65.8,45.9L63.7,46.2L58.7,41.0L59.5,40.7L60.1,39.0L61.0,38.8L62.2,40.0L64.9,40.1L66.1,39.0L67.8,39.6L69.1,38.0L68.7,36.9L70.1,36.7L71.0,41.0L69.8,42.1L71.1,42.7L72.6,44.8L70.3,46.9L67.2,47.3Z"/></svg>
