<svg viewBox="0 0 100 100" xmlns="http://www.w3.org/2000/svg" aria-hidden="true"><path fill="#fff" fill-rule="evenodd" d="M51.2,30.8L50.0,31.4L49.5,32.4L48.1,32.2L47.5,33.5L45.7,34.0L46.4,35.2L45.9,35.8L41.5,35.2L40.9,35.7L39.2,35.6L37.4,37.1L36.0,36.7L35.5,35.4L34.6,34.8L32.5,35.0L29.9,33.5L28.0,33.9L28.0,36.6L26.6,35.9L25.5,36.3L25.5,35.5L23.9,34.2L25.9,33.7L25.9,32.5L23.0,32.9L21.0,31.4L21.8,29.9L22.6,30.3L24.2,29.0L27.9,29.8L32.0,29.6L31.0,28.8L32.3,28.0L32.1,27.3L37.7,26.2L40.9,27.6L43.4,26.9L45.8,29.6L48.2,29.4L51.2,30.8ZM28.0,36.6L28.0,33.9L29.9,33.5L32.5,35.0L34.6,34.8L35.5,35.4L36.0,36.7L37.1,37.1L39.1,35.9L38.7,36.5L40.6,36.9L39.7,37.5L37.9,37.0L36.7,37.9L37.2,38.9L36.8,39.7L30.0,35.6L28.0,36.6ZM90.7,69.0L90.7,73.8L90.0,73.1L88.2,73.2L88.9,72.4L88.4,71.0L85.3,69.6L84.8,70.1L84.0,69.1L85.3,68.7L84.2,68.7L82.9,67.7L85.5,67.6L85.8,69.1L86.6,69.5L88.0,68.3L90.7,69.0ZM73.6,64.0L73.2,64.7L74.5,66.4L73.6,66.5L72.4,70.0L68.0,69.2L67.1,66.7L67.6,65.6L68.2,66.5L70.6,66.1L71.2,66.0L72.1,63.9L73.6,64.0ZM82.1,69.1L83.2,69.9L81.0,69.5L82.1,69.1ZM81.0,65.4L81.6,66.2L81.2,67.7L80.6,66.3L81.0,65.4ZM77.3,66.4L79.0,66.0L77.9,66.9L75.3,66.9L75.2,67.4L75.9,68.1L77.6,67.5L76.3,68.4L77.5,71.0L76.8,70.9L77.2,70.3L76.3,70.4L75.9,69.0L75.0,71.2L74.3,69.1L75.1,66.9L75.8,66.1L77.3,66.4ZM66.7,71.8L69.8,72.2L72.0,73.2L64.4,72.1L64.9,71.4L66.7,71.8ZM63.7,67.8L65.0,69.3L64.7,71.3L62.4,70.1L57.0,63.0L58.6,63.2L60.9,65.5L62.3,66.0L63.7,67.8ZM13.1,42.9L12.5,45.3L12.1,44.0L12.7,42.7L13.1,42.9ZM13.0,43.2L15.4,42.5L15.7,43.4L14.1,43.8L14.8,44.6L13.4,45.5L12.5,45.3L13.0,43.2ZM24.8,49.2L26.6,49.3L28.3,48.1L27.3,50.5L25.1,50.1L24.8,49.2ZM15.7,43.4L15.4,42.5L17.0,41.7L17.2,40.3L18.3,39.5L19.8,39.7L20.8,40.8L20.3,42.0L21.7,43.1L22.6,45.0L19.7,45.5L15.7,43.4ZM27.5,50.3L28.4,48.7L30.9,50.6L29.4,52.1L29.3,53.1L25.9,54.8L25.1,53.0L27.3,52.3L27.5,50.3ZM62.4,58.1L62.7,56.6L64.9,56.8L65.2,56.3L66.1,57.1L66.0,58.0L64.7,58.5L65.1,59.0L63.0,59.2L62.4,58.1ZM64.3,56.5L62.7,56.6L62.4,58.1L60.5,57.2L59.9,60.2L62.0,62.5L61.3,62.8L59.1,60.9L60.2,58.3L59.1,55.9L59.7,55.1L58.5,53.5L60.5,52.0L61.4,52.7L61.2,54.1L62.8,53.6L63.9,54.2L64.6,55.6L64.3,56.5ZM65.9,56.6L64.3,56.5L64.6,55.6L63.4,53.6L61.2,54.1L61.4,52.7L60.5,52.0L61.8,51.4L61.7,50.6L62.8,51.7L63.7,51.7L64.0,52.4L63.3,52.8L65.8,55.3L65.9,56.6ZM60.5,52.0L58.5,53.5L59.7,55.1L59.1,55.9L60.2,58.3L59.4,59.7L59.4,57.4L58.4,54.6L57.1,55.5L56.2,55.2L56.3,53.6L54.8,51.2L56.9,47.5L58.4,47.1L58.5,46.2L59.5,46.8L58.7,49.4L59.5,49.3L59.9,50.7L61.3,50.9L60.5,52.0ZM63.7,59.3L65.1,59.0L64.7,58.5L66.0,58.0L66.0,55.8L63.3,52.8L64.0,52.4L63.7,51.7L62.8,51.7L62.1,50.5L64.4,49.8L66.4,51.2L64.6,53.0L67.0,55.8L67.2,58.4L64.3,60.7L63.7,59.3ZM83.0,35.8L82.3,36.9L80.7,37.8L81.2,38.8L78.7,39.0L79.2,38.0L78.3,37.6L78.9,37.2L80.2,36.2L81.2,36.5L82.5,35.4L83.0,35.8ZM79.7,39.2L81.3,38.6L82.2,39.9L81.9,41.2L80.0,41.7L79.7,40.0L80.2,39.9L79.7,39.2ZM51.4,30.7L54.7,29.6L58.4,30.4L59.6,28.7L63.2,30.1L65.5,30.0L66.7,30.7L72.7,30.3L72.1,31.9L73.8,31.6L75.0,32.4L70.4,34.0L69.2,33.8L69.2,34.8L68.1,35.5L64.1,36.4L57.8,35.6L57.0,34.5L53.8,33.7L53.8,32.5L51.4,30.7ZM58.5,46.2L58.4,47.1L56.9,47.5L55.1,50.8L54.7,49.6L54.4,50.1L54.0,49.7L54.8,48.6L53.0,48.4L52.0,47.6L52.3,48.4L51.7,49.0L52.3,51.1L50.9,51.2L50.5,52.2L46.0,55.3L45.6,59.4L43.9,61.2L41.0,55.3L40.3,51.3L38.7,51.7L37.0,49.6L39.1,49.1L38.0,47.2L39.7,46.5L42.2,43.3L41.1,41.8L44.1,40.9L44.9,41.8L44.8,43.8L46.6,44.8L45.8,45.8L48.2,46.9L51.7,47.6L52.2,46.4L52.9,47.4L54.6,47.3L54.3,46.6L57.6,45.3L57.7,46.1L58.5,46.2ZM55.1,50.8L54.8,51.8L54.1,50.3L53.5,50.2L53.3,51.0L52.4,50.8L51.7,49.0L52.3,48.4L52.0,47.6L53.0,48.4L54.8,48.6L54.0,49.7L54.4,50.1L54.7,49.6L55.1,50.8ZM54.3,46.6L54.6,47.3L52.2,47.1L53.1,46.2L54.3,46.6ZM51.7,46.5L51.7,47.6L51.1,47.6L45.8,45.8L46.9,44.6L51.7,46.5ZM44.1,40.9L41.1,41.8L42.2,43.3L39.7,46.5L38.0,47.2L39.1,49.1L37.0,49.6L35.7,48.3L32.1,48.6L32.4,47.7L33.4,47.3L31.6,45.1L35.7,45.0L36.1,44.0L37.9,43.5L39.7,40.1L42.2,39.7L44.1,40.9ZM35.8,39.5L37.8,39.7L39.0,38.7L39.7,40.0L40.8,39.4L42.2,39.7L39.3,40.5L39.6,41.1L39.0,42.0L38.3,42.0L38.6,42.5L37.9,43.5L36.1,44.0L35.7,45.0L31.6,45.1L32.3,44.4L31.4,42.7L31.9,40.8L33.2,41.0L34.5,39.7L35.8,39.5ZM36.8,39.7L37.2,38.9L36.7,37.9L38.9,36.9L39.1,37.4L38.0,37.9L41.1,38.0L42.0,39.5L39.7,40.0L39.0,38.7L37.8,39.7L36.8,39.7ZM39.1,35.9L41.5,35.2L45.9,35.8L41.1,38.0L38.0,37.9L40.6,36.9L38.7,36.5L39.1,35.9ZM25.5,36.3L26.6,35.9L27.7,36.7L28.9,36.6L30.0,35.6L35.8,39.5L35.2,39.3L32.6,41.1L29.0,39.0L26.5,39.6L26.5,38.4L25.6,37.6L25.8,36.9L27.1,36.9L26.4,36.0L25.7,36.7L25.5,36.3ZM22.6,45.0L21.7,43.1L20.3,42.0L20.8,40.8L19.4,39.1L19.3,38.0L20.8,38.5L22.2,37.9L23.1,39.4L24.3,39.9L28.5,39.0L31.8,40.2L31.4,42.7L32.3,44.4L31.6,45.1L33.4,47.3L32.4,47.7L32.1,48.6L29.1,48.1L28.8,47.2L26.2,47.3L24.8,46.5L23.7,44.8L22.6,45.0ZM13.1,42.9L13.9,39.9L18.0,39.6L17.2,40.3L17.0,41.7L13.9,43.2L13.1,42.9ZM21.1,38.5L19.0,37.4L18.9,36.8L20.4,37.0L21.1,38.5ZM19.8,39.7L13.9,39.9L13.4,40.7L13.5,40.0L12.4,39.9L8.7,40.4L7.2,40.0L6.1,38.0L8.4,36.7L11.5,36.1L15.1,36.9L18.2,36.4L19.8,37.8L19.3,38.0L19.8,39.7ZM6.1,36.2L8.2,36.6L6.2,37.5L6.1,36.2ZM47.1,61.5L46.9,62.3L46.0,62.6L45.8,59.8L47.1,61.5ZM67.4,53.6L66.8,52.8L68.4,52.3L67.4,53.6ZM45.9,35.8L46.4,35.2L45.7,34.0L47.5,33.5L48.1,32.2L49.5,32.4L50.0,31.4L51.4,30.7L53.8,32.5L53.8,33.7L57.0,34.5L57.8,35.6L64.1,36.4L67.3,35.7L69.2,34.8L69.2,33.8L70.4,34.0L73.3,32.7L74.9,32.7L73.8,31.6L71.9,31.6L72.7,30.3L74.7,30.1L75.7,28.8L75.3,28.2L76.8,27.7L79.6,28.2L80.8,30.4L82.1,30.6L83.3,31.8L86.3,31.3L84.8,33.8L83.3,33.9L83.0,35.8L82.5,35.4L81.2,36.5L80.2,36.2L76.0,38.4L76.8,37.3L76.4,36.9L73.4,38.5L75.0,39.7L75.8,39.1L76.9,39.5L74.6,41.3L76.6,43.7L76.1,44.4L76.7,45.1L76.4,46.3L74.2,49.0L72.2,50.3L68.4,51.3L68.2,52.1L67.7,51.3L65.6,51.0L64.4,49.8L61.7,50.6L61.8,51.4L59.9,50.7L59.5,49.3L58.7,49.4L59.5,46.8L57.7,46.1L57.6,45.3L54.9,46.5L53.1,46.2L52.2,46.9L52.2,46.4L50.0,46.3L44.8,43.8L44.9,41.8L42.9,40.6L41.1,38.0L45.9,35.8ZM76.5,49.1L75.7,50.9L75.3,49.7L76.3,48.4L76.5,49.1ZM21.0,36.2L22.0,36.7L22.6,36.2L23.9,37.4L23.3,37.4L22.8,38.8L22.2,37.9L21.1,38.5L20.4,37.7L19.9,36.7L21.1,36.8L21.0,36.2ZM16.2,35.1L20.3,35.7L21.2,36.7L17.4,36.4L17.3,35.6L16.2,35.1ZM77.1,59.7L78.2,58.8L77.4,60.4L77.1,59.7ZM79.9,60.8L80.0,61.7L79.8,62.4L79.5,61.7L79.1,62.0L79.2,62.9L78.3,62.5L77.8,61.3L76.6,61.7L77.8,60.6L79.2,60.4L79.2,59.8L79.9,60.8ZM74.1,60.2L73.1,60.9L74.8,58.7L74.1,60.2ZM76.9,53.6L76.5,56.5L78.1,56.9L78.2,57.8L75.7,56.8L75.9,56.3L75.1,55.7L75.7,53.4L76.9,53.6ZM79.2,58.1L79.4,58.9L78.9,58.7L78.7,59.6L78.3,57.8L79.2,58.1ZM60.5,62.3L62.6,63.0L63.6,66.1L61.5,65.0L60.5,62.3ZM73.6,64.0L72.1,63.9L71.2,66.0L68.2,66.5L67.7,66.1L67.6,65.6L68.7,65.7L70.9,63.7L71.8,63.9L72.8,61.9L74.6,63.1L73.6,64.0ZM91.3,38.2L90.1,41.2L87.9,41.6L86.8,42.4L86.3,41.6L83.3,42.1L84.0,42.6L83.5,43.9L82.7,43.9L82.9,43.2L82.1,42.5L84.5,40.9L86.7,40.9L87.5,39.6L88.0,39.9L89.5,38.9L90.1,36.7L90.9,36.6L91.3,38.2ZM93.3,34.7L93.8,34.4L94.0,35.2L92.3,36.1L91.1,35.6L90.7,36.4L89.9,36.4L89.8,35.7L90.9,35.1L91.4,33.5L93.3,34.7ZM84.3,42.4L85.4,41.7L86.1,42.1L84.8,43.0L84.3,42.4ZM25.1,53.0L25.9,54.8L25.2,55.5L18.8,57.7L18.2,55.8L18.8,54.1L21.4,54.6L23.0,53.3L25.1,53.0ZM12.6,45.4L14.4,44.9L14.8,44.6L14.1,43.8L15.7,43.4L19.7,45.5L21.8,45.7L23.8,47.4L25.1,50.1L27.5,50.3L27.3,52.3L23.0,53.3L21.4,54.6L18.8,54.1L18.3,55.0L15.6,51.4L15.2,49.6L12.3,46.4L12.6,45.4Z"/></svg>
