<svg viewBox="0 0 100 100" xmlns="http://www.w3.org/2000/svg" aria-hidden="true"><path fill="#fff" fill-rule="evenodd" d="M70.8,14.4L72.5,14.0L76.8,15.0L74.4,15.4L72.6,17.0L71.5,17.1L69.5,16.5L70.4,16.2L66.4,14.4L70.8,14.4ZM85.6,23.8L83.3,24.2L83.7,23.6L82.5,23.2L79.7,24.6L76.5,23.9L75.3,24.2L75.2,24.8L73.5,24.7L69.3,28.2L69.3,28.9L68.4,28.9L67.8,29.7L68.5,31.5L68.2,32.5L67.0,33.7L66.4,33.2L64.5,34.2L62.0,34.0L61.4,30.8L66.5,28.5L70.4,25.4L74.6,23.5L82.9,22.3L85.8,22.9L84.6,23.2L85.6,23.8ZM82.2,14.0L78.1,14.6L72.9,13.8L78.0,13.4L82.2,14.0ZM79.7,16.0L76.0,16.2L76.6,16.0L76.1,15.7L78.0,15.5L79.7,16.0ZM8.7,84.6L7.5,86.5L6.0,86.3L6.5,83.1L8.7,84.6ZM62.5,42.5L64.3,42.9L63.7,44.2L62.3,45.0L63.6,47.8L58.4,49.1L54.9,48.1L55.6,45.7L54.0,44.2L52.5,43.9L52.4,43.2L55.2,43.2L54.9,42.2L55.8,42.6L59.1,40.9L62.5,42.5ZM67.0,33.7L68.5,31.5L67.8,29.7L68.4,28.9L69.3,28.9L69.3,28.2L72.3,25.2L75.2,24.8L75.9,24.2L78.6,25.3L79.0,27.1L77.4,27.3L76.5,28.0L76.6,28.6L73.3,30.1L72.6,31.4L74.2,32.6L72.4,33.8L71.5,36.3L68.8,37.0L67.0,33.7ZM82.9,36.2L85.4,36.8L85.3,37.5L87.1,38.8L85.8,39.1L86.3,40.0L85.1,40.7L78.6,40.5L78.6,38.3L80.5,38.0L81.4,36.7L82.9,36.2ZM86.3,40.0L88.1,39.8L89.6,41.4L94.0,42.3L93.7,43.9L89.2,45.4L89.3,45.9L86.2,45.0L83.4,46.3L83.0,46.2L83.6,45.3L84.6,45.3L83.4,43.7L82.3,43.4L79.8,44.1L77.3,43.4L79.0,41.6L78.6,40.5L85.1,40.7L86.3,40.0ZM78.6,38.3L78.9,39.5L78.3,39.6L79.1,41.3L77.7,42.4L77.9,42.9L71.8,41.6L70.7,40.9L69.8,39.2L69.9,38.5L73.1,37.4L78.6,38.3ZM72.5,43.7L71.6,45.0L70.3,45.3L65.5,44.7L65.9,44.2L68.7,44.3L69.4,43.0L72.1,43.1L72.5,43.7ZM77.3,43.4L77.8,43.9L76.3,45.4L73.9,45.9L71.8,44.9L72.5,43.7L77.3,43.4ZM81.5,43.6L83.4,43.7L84.6,45.3L83.6,45.3L83.0,46.2L82.9,44.9L81.5,43.6ZM83.0,46.2L84.3,46.3L83.5,46.7L83.3,47.8L82.1,47.4L78.1,47.7L75.5,45.6L78.2,43.7L81.5,43.6L82.9,44.9L83.0,46.2ZM81.4,36.7L80.5,38.0L78.6,38.3L77.9,37.4L76.5,37.1L76.3,36.3L79.8,36.0L81.4,36.7ZM82.1,35.0L82.9,36.2L81.4,36.7L79.8,36.0L76.3,36.3L76.8,35.1L77.7,34.7L78.4,35.4L80.1,34.5L82.1,35.0ZM82.7,33.1L82.1,35.0L79.3,34.7L79.4,34.2L78.4,33.4L82.7,33.1ZM69.9,38.5L70.7,40.9L68.1,41.7L69.4,43.0L68.7,44.3L63.7,44.2L64.3,42.9L62.9,42.7L62.3,41.8L62.3,40.2L63.1,39.9L63.3,38.5L64.3,38.7L64.9,38.2L64.6,37.3L65.9,37.3L66.9,38.2L68.4,37.8L69.9,38.5ZM77.8,47.3L83.3,47.8L82.5,48.9L82.8,49.4L78.1,50.0L77.5,49.1L78.1,48.3L77.8,47.3ZM78.1,50.0L81.5,49.8L81.0,50.5L78.8,50.6L79.4,51.1L77.8,51.0L79.1,53.4L78.2,53.2L78.3,54.6L77.6,54.6L75.5,51.6L76.3,50.5L78.1,50.0ZM76.3,50.5L75.5,51.6L74.8,51.0L75.1,48.8L76.3,50.5ZM72.1,45.2L74.8,46.4L71.4,46.8L73.9,49.0L71.6,48.0L70.6,46.5L69.4,46.5L72.1,45.2ZM65.6,44.3L66.4,45.2L63.5,45.9L62.3,45.4L63.0,44.2L65.6,44.3ZM62.4,41.2L62.0,42.4L59.1,40.9L61.3,40.6L62.4,41.2ZM63.1,38.7L63.1,39.9L62.3,40.2L62.4,41.2L61.3,40.6L59.8,40.7L61.1,39.1L63.1,38.7ZM48.3,49.5L49.0,49.1L50.8,50.0L49.7,51.6L50.2,53.1L49.4,54.2L48.4,54.2L48.5,52.9L47.9,52.4L48.6,50.6L48.3,49.5ZM49.8,54.0L50.2,53.1L49.7,51.6L50.8,50.0L49.0,49.1L48.3,49.5L48.0,48.4L49.3,47.8L59.5,49.0L58.7,50.1L57.5,50.3L56.5,51.9L56.8,52.4L54.7,54.4L52.7,54.4L51.7,55.0L49.8,54.0ZM51.0,38.4L50.4,39.9L47.4,40.3L48.2,39.3L47.7,38.3L49.7,37.2L49.7,38.2L51.0,38.4ZM66.4,44.8L69.6,45.2L69.7,46.1L68.2,46.3L68.4,47.5L73.8,50.9L73.7,51.4L72.4,50.8L72.0,51.5L72.6,52.3L71.3,53.2L71.7,52.2L71.1,51.2L67.1,49.1L66.2,47.6L65.0,47.2L63.6,47.8L63.1,45.7L65.1,45.6L66.4,44.8ZM70.4,53.0L71.2,52.9L70.8,54.4L68.3,53.5L68.4,53.0L70.4,53.0ZM64.8,50.4L65.3,50.1L65.8,50.8L65.7,52.0L64.9,52.3L64.3,50.4L64.8,50.4ZM65.9,37.3L64.6,37.3L64.2,35.9L66.6,34.8L66.3,35.5L66.9,36.0L65.7,36.9L65.9,37.3ZM53.8,38.8L53.3,37.7L52.0,37.3L52.0,36.6L51.5,37.0L51.0,35.6L52.1,33.9L53.9,33.9L52.9,34.9L54.9,34.8L53.8,36.4L54.8,36.5L57.2,39.2L58.3,39.4L57.7,40.3L58.1,40.8L51.3,41.8L53.5,40.6L51.8,40.1L52.8,39.8L52.5,38.7L53.8,38.8ZM43.2,26.7L43.0,27.3L44.1,27.9L39.4,29.4L35.5,29.0L36.5,28.6L34.4,28.1L36.0,27.7L34.1,27.4L36.1,26.7L37.6,27.3L43.2,26.7ZM69.6,45.2L72.1,45.2L71.0,46.2L69.5,46.1L69.6,45.2ZM83.3,24.2L83.2,24.9L84.6,25.5L83.7,26.2L84.8,27.3L84.2,28.1L85.0,28.7L84.7,29.4L86.0,30.0L85.7,30.5L82.8,32.2L78.0,32.8L76.6,32.0L76.8,29.7L80.3,27.9L78.6,26.7L78.6,25.3L75.9,24.2L79.7,24.6L82.5,23.2L83.7,23.6L83.3,24.2ZM77.7,42.8L77.1,43.5L76.1,43.2L73.3,44.0L72.4,43.4L74.0,42.4L77.7,42.8ZM70.7,40.9L74.3,42.4L72.5,43.3L70.9,42.9L70.1,43.3L68.4,42.4L68.1,41.7L70.7,40.9ZM74.0,48.8L72.0,47.5L71.6,46.4L74.7,46.7L74.8,47.9L74.0,48.8ZM77.5,49.1L78.1,50.0L75.9,50.3L76.0,49.4L77.5,49.1ZM74.2,45.8L75.5,45.6L76.8,46.8L77.8,47.0L77.7,49.0L76.8,49.2L76.1,48.2L75.6,48.6L74.6,48.0L74.9,47.5L74.2,45.8ZM75.4,48.9L74.7,49.5L73.9,49.0L74.6,48.0L75.4,48.9Z"/></svg>
