<svg viewBox="0 0 100 100" xmlns="http://www.w3.org/2000/svg" aria-hidden="true"><path fill="#fff" fill-rule="evenodd" d="M31.6,48.0L29.0,47.0L27.2,45.0L27.5,44.1L24.4,41.9L23.3,42.4L21.3,41.6L21.3,36.3L23.8,36.8L28.6,35.9L35.8,36.8L36.6,37.0L35.8,37.3L36.8,37.4L39.4,37.6L39.8,36.9L41.0,36.8L43.6,37.5L45.8,36.9L46.6,37.1L46.6,37.7L47.7,36.7L46.4,36.1L47.1,35.0L48.5,35.4L49.8,37.0L50.5,36.6L51.2,36.9L51.6,37.7L52.6,36.2L54.3,36.3L55.0,36.6L55.0,37.8L52.5,38.1L51.6,39.1L49.7,39.7L47.7,41.3L47.4,42.4L48.3,42.5L48.8,43.4L54.5,44.5L54.5,45.6L55.8,46.7L56.5,46.0L55.8,44.8L57.7,43.7L56.6,42.5L57.2,41.9L56.8,40.5L59.2,40.4L61.6,41.2L61.8,42.4L62.7,42.8L64.4,41.6L66.0,43.8L68.5,44.8L69.5,46.2L67.0,47.3L63.4,47.3L60.8,49.2L64.2,47.9L64.7,48.1L64.1,48.5L64.5,49.5L66.2,49.7L66.7,49.1L67.1,49.7L64.0,51.1L63.5,50.5L64.5,50.1L63.0,50.2L62.6,49.1L61.8,48.9L60.5,50.2L58.6,50.2L54.4,52.1L54.3,50.0L51.0,48.4L47.4,47.8L31.6,48.0ZM55.9,34.6L55.3,34.0L57.9,34.5L55.9,34.6ZM48.1,33.3L46.2,33.4L48.1,33.3ZM46.3,31.2L47.0,31.4L46.0,31.7L45.2,31.1L46.3,31.2ZM51.1,33.7L46.1,32.3L55.8,33.4L51.1,33.7ZM69.5,46.7L68.8,47.5L70.7,47.8L70.9,49.3L70.3,48.7L69.6,49.2L67.4,48.8L68.5,47.0L69.5,46.7ZM53.5,38.9L55.7,39.7L51.7,39.8L52.4,38.5L53.5,38.9ZM56.4,34.8L62.1,35.8L63.1,36.6L62.1,36.9L66.0,37.9L64.8,39.0L62.5,38.2L64.4,39.9L64.2,40.3L62.1,39.7L63.5,40.7L62.0,40.5L58.7,39.1L56.5,39.2L59.1,38.7L59.9,37.7L59.5,37.2L56.3,36.0L50.8,35.9L50.0,34.9L52.4,34.0L52.0,34.4L52.5,34.7L54.4,34.0L55.3,35.0L56.4,34.8ZM47.5,33.8L49.8,34.0L47.0,35.0L46.7,34.2L47.5,33.8ZM31.5,32.7L35.3,31.8L34.8,32.4L31.5,32.7ZM26.0,45.1L26.5,45.1L26.8,46.2L26.0,45.1ZM41.3,30.9L44.6,31.7L41.5,31.4L42.1,31.2L41.3,30.9ZM31.2,48.3L28.4,47.0L31.2,48.3ZM32.3,33.6L35.7,34.2L31.4,35.6L29.8,35.1L30.9,34.1L30.4,33.7L32.3,33.6ZM40.0,32.8L41.2,33.0L37.5,33.6L36.6,33.5L37.8,33.2L34.4,33.2L35.8,32.5L39.3,33.0L38.5,32.5L39.0,32.3L40.0,32.8ZM40.8,34.4L43.8,36.4L42.9,36.4L43.1,36.8L36.9,37.0L34.7,36.2L37.4,35.9L34.3,35.8L35.4,35.4L33.5,35.3L35.9,34.3L38.8,34.5L39.8,35.2L39.7,34.4L40.8,34.4ZM44.2,34.6L43.6,34.2L45.9,34.0L45.5,34.4L46.4,34.7L45.4,35.4L43.0,34.7L44.2,34.6ZM45.3,32.3L45.5,33.3L43.0,33.0L43.0,32.6L45.3,32.3ZM46.7,30.1L48.7,29.8L52.5,30.9L48.5,31.4L47.9,31.2L48.3,30.8L46.3,30.4L46.7,30.1ZM49.2,29.4L56.1,28.7L66.0,29.0L60.7,30.6L57.5,30.9L58.3,31.3L55.4,32.6L50.4,32.5L51.4,32.1L51.1,31.7L52.9,31.9L51.2,31.4L52.9,30.9L51.8,30.3L54.7,30.2L51.4,30.2L49.2,29.4ZM46.6,36.4L46.6,36.8L44.6,36.5L46.6,36.4ZM31.6,48.0L47.4,47.8L51.0,48.4L54.3,50.0L54.2,52.1L58.6,50.2L60.5,50.2L61.8,48.9L62.6,49.1L63.1,50.4L61.3,51.0L60.9,51.7L61.4,52.1L59.3,52.5L60.3,52.5L59.1,52.6L58.6,53.7L58.3,53.3L58.0,54.6L57.8,53.5L57.4,54.1L58.1,55.6L55.0,57.9L55.5,61.4L53.6,58.7L52.1,58.5L50.3,58.6L50.4,59.2L47.4,59.0L46.1,59.9L45.8,61.1L43.9,59.1L42.2,59.1L40.8,57.7L38.2,58.0L34.8,57.3L32.8,56.1L30.7,52.9L30.5,48.4L31.7,49.1L31.6,48.0ZM14.4,42.9L15.0,43.1L13.7,43.5L14.4,42.9ZM21.3,36.3L21.3,41.6L23.3,42.4L24.4,41.9L27.5,44.1L27.2,44.7L25.2,42.8L21.9,42.0L17.9,41.3L15.3,42.3L15.9,41.1L11.5,44.0L7.8,44.8L11.3,43.5L12.2,42.4L9.5,42.5L9.2,41.8L7.6,41.5L7.3,40.6L10.1,39.7L9.7,39.3L10.1,39.1L7.8,39.3L6.0,38.6L9.6,38.3L6.8,37.1L7.1,36.8L12.5,35.4L21.3,36.3ZM60.4,64.5L60.4,65.5L58.9,65.3L60.1,65.1L59.6,64.4L60.4,64.5ZM60.4,65.5L60.5,64.4L62.3,65.1L60.4,65.5ZM74.5,29.0L85.6,28.5L89.1,28.9L82.9,29.2L94.0,29.8L89.6,30.4L90.9,30.4L89.8,31.2L90.5,32.2L88.7,32.4L89.7,32.7L89.8,33.2L89.2,33.2L90.0,33.7L87.6,34.3L88.3,34.9L86.9,34.8L88.6,35.8L86.5,35.3L86.0,36.0L88.3,36.1L78.4,38.7L76.7,40.3L76.4,41.7L73.6,41.3L71.7,39.7L70.4,37.7L72.2,36.2L70.0,36.4L70.2,35.7L71.9,35.8L69.4,35.2L70.0,34.7L67.8,33.0L62.2,32.7L60.6,32.2L63.2,32.0L59.5,31.6L63.8,30.8L62.5,30.4L65.5,29.5L72.4,29.1L75.8,29.6L74.5,29.0ZM34.8,57.3L38.2,58.0L40.8,57.7L42.2,59.1L43.5,58.8L45.0,60.8L46.1,61.0L45.6,63.0L46.8,65.0L49.3,65.0L49.9,63.8L51.8,63.5L51.3,65.3L49.5,65.6L49.8,66.6L49.1,66.6L48.8,67.4L47.9,66.6L46.4,66.8L42.5,65.3L37.0,58.1L36.0,57.9L38.9,62.8L35.9,60.0L36.5,59.5L34.8,57.3ZM57.2,70.8L56.9,71.6L56.2,70.6L55.2,71.6L54.1,71.1L54.1,70.3L57.2,70.8ZM54.3,70.2L54.1,71.0L52.4,69.5L53.7,69.5L54.3,70.2ZM53.7,69.5L52.5,69.4L51.4,68.4L54.0,67.2L53.7,69.5ZM54.0,67.2L51.6,68.3L50.5,67.5L51.3,66.7L54.0,67.2ZM50.5,67.5L51.3,68.2L50.0,67.9L50.5,67.5ZM48.8,67.4L49.1,66.6L49.8,66.6L49.5,65.6L50.6,65.6L50.5,66.7L51.1,66.8L50.5,67.5L50.0,67.9L48.8,67.4ZM54.5,62.6L59.0,64.2L57.0,64.4L57.4,64.1L56.5,63.5L54.7,62.9L52.9,63.3L54.5,62.6Z"/></svg>
