<svg viewBox="0 0 100 100" xmlns="http://www.w3.org/2000/svg" aria-hidden="true"><path fill="#fff" fill-rule="evenodd" d="M43.3,20.3L48.2,22.0L50.1,24.2L52.3,25.0L52.7,25.8L51.4,25.9L51.7,26.8L56.4,31.1L52.7,30.5L50.2,27.7L48.4,27.1L46.4,28.0L46.6,29.0L45.5,29.4L43.4,29.1L43.3,20.3ZM59.1,21.8L59.7,22.9L59.3,23.3L58.7,21.9L56.4,20.5L56.8,20.2L59.1,21.8ZM57.3,24.7L55.1,25.4L53.2,24.6L55.3,24.3L55.7,23.6L55.8,24.3L56.6,24.2L57.7,23.2L57.6,22.5L58.4,22.4L58.6,23.4L57.3,24.7ZM76.8,45.3L78.6,46.7L78.1,47.1L76.4,46.1L74.4,44.0L76.8,45.3ZM91.8,70.9L90.6,72.6L89.6,73.1L88.8,72.6L89.6,71.5L87.7,70.2L88.7,69.2L88.8,67.3L86.1,63.4L88.3,64.4L89.7,67.1L89.7,66.1L90.3,66.5L90.5,67.5L92.5,68.1L94.0,67.7L93.3,69.7L92.2,69.7L91.8,70.9ZM82.1,75.6L86.3,71.5L86.9,72.6L87.8,72.1L88.2,72.7L86.2,75.4L86.7,76.0L84.5,76.6L83.3,78.8L81.6,79.8L78.0,79.2L78.5,77.7L82.1,75.6ZM52.4,71.9L53.2,72.0L52.7,75.2L52.2,74.8L51.3,75.7L50.2,75.6L48.4,71.8L50.6,72.4L52.4,71.9ZM23.3,60.3L20.7,61.3L19.9,62.6L14.8,62.7L12.3,64.2L10.4,64.1L8.3,63.0L8.3,62.2L9.2,61.7L9.3,60.3L8.3,56.6L6.0,52.1L6.6,52.7L6.1,51.4L7.2,52.3L6.1,49.7L6.5,47.2L7.1,46.2L7.2,47.2L7.8,46.3L10.6,44.8L16.1,43.4L18.0,41.4L18.1,40.1L19.1,39.0L19.6,40.1L20.2,39.9L19.7,39.2L20.1,38.6L20.7,38.9L20.9,37.8L22.7,36.0L24.5,35.5L26.3,36.9L28.0,37.0L27.7,36.3L29.3,33.8L32.0,33.2L31.9,32.5L31.0,32.0L31.7,31.9L35.6,33.4L37.3,32.8L37.9,33.5L36.5,34.8L35.9,37.1L42.3,40.7L43.2,40.3L43.7,39.0L44.3,33.6L45.4,31.2L47.3,36.5L48.2,36.0L49.3,37.1L50.6,42.4L53.9,44.4L55.1,47.0L56.5,47.1L56.7,48.5L59.4,50.9L60.3,54.8L59.4,59.5L55.9,65.0L55.5,67.4L53.2,67.9L50.5,69.5L48.6,68.7L48.8,68.0L46.9,69.2L42.9,68.2L41.4,65.6L39.5,64.9L39.6,63.3L38.9,64.2L37.7,64.4L39.1,62.2L39.0,61.2L36.6,63.9L35.5,63.4L34.3,60.9L30.3,59.4L23.3,60.3Z"/></svg>
