<svg viewBox="0 0 100 100" xmlns="http://www.w3.org/2000/svg" aria-hidden="true"><path fill="#fff" fill-rule="evenodd" d="M36.3,90.2L37.5,91.7L41.0,92.8L39.2,93.5L36.3,93.0L36.3,90.2ZM50.6,61.2L49.5,66.6L51.1,67.7L50.9,68.6L51.7,69.8L50.4,71.5L48.5,72.2L44.5,72.3L44.7,74.7L44.0,75.1L40.9,75.2L41.1,76.5L42.6,76.5L43.0,77.1L40.8,78.3L40.3,80.3L38.1,81.0L37.7,82.0L40.2,83.2L39.8,84.3L38.2,85.1L37.4,86.6L35.7,87.7L37.0,89.8L32.1,89.3L31.6,87.6L30.3,87.2L30.2,85.9L31.6,84.5L32.4,80.2L33.0,80.0L32.3,79.3L32.7,78.7L31.8,76.7L32.3,76.5L32.7,72.4L33.5,71.9L33.1,69.5L34.1,68.6L34.8,66.3L33.9,62.6L35.0,58.9L36.8,56.9L36.6,53.8L38.0,53.2L38.3,51.5L39.4,50.3L41.1,50.6L41.8,51.6L42.3,50.5L43.8,50.6L46.4,53.0L50.4,54.6L49.3,57.2L53.1,57.5L55.1,55.1L55.7,56.9L50.6,61.2ZM36.3,90.2L36.3,93.0L38.5,93.1L37.0,94.0L33.3,93.3L28.5,90.4L33.1,92.0L34.2,90.5L36.3,90.2ZM35.1,44.8L36.6,47.2L36.2,48.4L37.4,51.7L38.5,51.8L38.0,53.2L36.6,53.8L36.8,56.9L35.0,58.9L33.9,62.6L34.8,66.3L34.1,68.6L33.1,69.5L33.5,71.9L32.7,72.4L32.3,76.5L31.8,76.7L32.7,78.7L32.3,79.3L33.0,80.0L32.4,80.2L31.6,84.5L30.2,85.9L30.3,87.2L31.6,87.6L32.1,89.3L36.4,89.7L33.5,90.5L33.3,91.7L32.7,91.7L28.2,89.7L27.3,85.0L29.2,82.8L27.3,82.4L28.5,81.3L28.9,79.1L30.4,79.6L31.1,76.9L30.2,76.5L29.8,78.2L29.0,78.0L30.4,72.9L29.9,70.1L30.5,70.1L32.7,64.0L32.6,59.4L33.4,57.8L34.5,49.7L34.1,45.8L35.1,44.8ZM46.0,89.1L49.4,88.2L50.4,88.7L48.3,89.6L47.7,89.1L46.6,89.7L46.0,89.1ZM50.6,61.2L51.4,61.0L55.5,63.5L56.3,64.4L55.5,66.6L54.1,67.3L52.4,67.2L49.5,65.9L50.6,61.2ZM56.1,65.8L55.7,65.0L56.3,64.4L55.5,63.5L51.4,61.0L50.6,61.2L55.7,56.9L55.7,55.9L55.1,55.1L54.5,55.4L54.9,53.1L53.5,53.1L52.9,51.0L50.2,50.7L49.9,48.2L50.7,45.6L49.7,44.4L49.8,43.2L47.3,43.1L46.9,39.9L41.9,38.2L40.5,37.0L40.6,34.7L38.9,34.9L36.8,36.3L33.9,36.3L33.9,34.4L31.7,35.1L30.4,34.3L30.7,33.8L29.4,31.8L30.5,30.7L30.8,28.9L33.5,27.6L34.7,27.6L35.3,23.5L34.6,21.4L35.5,21.3L35.6,20.8L34.8,20.7L34.8,19.9L37.8,19.4L38.4,20.6L40.3,21.1L43.1,19.2L42.0,18.9L41.9,17.2L41.3,16.8L43.5,17.2L46.3,16.2L46.6,15.4L47.5,15.6L48.1,17.0L47.5,18.5L48.8,20.4L51.0,19.6L52.7,19.7L52.7,18.8L56.6,19.3L58.7,16.6L59.8,19.6L60.5,19.8L60.5,20.7L59.5,21.8L59.9,22.2L62.2,22.4L62.3,23.7L63.2,22.8L67.0,24.1L67.4,25.6L68.9,25.2L73.4,25.8L77.0,28.3L79.1,28.7L80.2,31.6L79.7,33.7L75.1,39.0L74.3,45.2L72.1,50.5L70.8,51.8L67.4,52.3L63.5,54.3L62.4,55.5L61.9,59.2L56.1,65.8ZM35.2,36.2L36.8,36.3L38.9,34.9L40.6,34.7L40.5,37.0L41.9,38.2L46.9,39.9L47.3,43.1L49.8,43.2L49.7,44.4L50.7,45.6L50.3,47.9L49.9,48.2L48.6,47.1L45.2,47.5L44.0,50.9L42.3,50.5L41.8,51.6L41.1,50.6L39.4,50.3L37.4,51.7L36.2,48.4L36.6,47.2L35.1,44.8L35.9,43.4L35.4,41.4L36.3,38.3L35.2,36.2ZM34.7,27.6L33.5,27.6L30.8,28.9L30.5,30.7L29.4,31.8L30.7,33.8L30.4,34.3L31.7,35.1L33.9,34.4L33.9,36.3L35.2,36.2L36.3,38.3L35.4,41.4L35.9,43.4L34.1,45.8L26.8,41.0L22.0,31.4L20.0,30.0L20.4,29.4L19.8,28.2L21.2,26.5L21.1,27.8L22.7,28.5L23.4,28.0L24.4,26.0L27.4,24.1L28.0,22.2L30.6,25.1L33.5,25.0L34.5,25.6L33.7,26.9L34.7,27.6ZM38.6,20.5L37.8,19.4L34.8,19.9L34.8,20.7L35.6,20.8L35.5,21.3L34.6,21.4L35.3,23.5L34.7,27.6L33.7,26.9L34.5,25.6L33.5,25.0L30.6,25.1L28.0,22.2L25.0,21.6L22.9,19.9L25.4,17.1L24.4,12.7L25.2,11.8L24.9,11.1L27.2,9.9L27.5,8.4L28.2,7.8L30.2,7.6L32.8,6.1L32.9,6.9L30.8,8.6L30.3,10.2L31.0,10.3L32.0,13.0L34.5,13.1L35.4,14.2L38.0,14.2L37.4,16.3L38.1,17.8L37.4,18.4L38.6,20.5ZM46.6,15.4L46.3,16.2L43.5,17.2L41.3,16.8L41.9,17.2L42.0,18.9L43.1,19.2L39.3,21.1L37.4,18.4L38.1,17.8L37.4,16.3L38.0,14.2L35.4,14.2L34.5,13.1L32.0,13.0L31.0,10.3L30.3,10.2L30.8,8.6L32.9,6.9L32.1,7.3L32.5,8.6L31.9,9.3L32.4,10.4L32.9,10.3L32.8,7.9L34.4,7.4L34.6,6.4L36.9,8.4L39.5,8.3L41.2,9.1L41.9,8.3L45.1,8.2L44.0,8.6L46.4,10.0L46.6,11.0L47.8,11.3L46.8,12.0L47.1,13.0L46.0,13.4L45.7,14.4L46.6,15.4ZM52.0,19.6L49.4,20.4L48.0,19.8L47.5,18.5L48.1,17.0L47.5,15.6L45.7,14.4L46.0,13.4L47.1,13.0L46.8,12.0L47.8,11.3L51.2,14.4L50.0,16.8L52.0,19.6ZM54.6,19.1L52.7,18.8L52.7,19.7L52.0,19.6L50.6,17.8L50.0,16.8L51.2,14.4L55.3,14.6L54.6,15.8L55.3,17.4L54.6,19.1ZM27.6,22.3L27.4,24.1L24.4,26.0L23.4,28.0L22.7,28.5L21.1,27.8L21.9,25.5L21.7,25.0L21.2,25.6L20.4,25.0L20.4,23.5L21.5,21.1L23.1,20.3L25.0,21.6L26.4,21.5L27.6,22.3ZM49.9,48.2L50.2,50.7L52.9,51.0L53.5,53.1L54.9,53.1L54.2,56.5L53.1,57.5L49.3,57.2L50.4,54.6L46.4,53.0L44.0,50.9L45.2,47.5L48.6,47.1L49.9,48.2Z"/></svg>
