<svg viewBox="0 0 100 100" xmlns="http://www.w3.org/2000/svg" aria-hidden="true"><g stroke="#fff" stroke-width="8" stroke-linecap="round"><line x1="27" y1="62" x2="73" y2="87"/><line x1="73" y1="62" x2="27" y2="87"/></g><path fill="#fff" fill-rule="evenodd" d="M50 9c-14.9 0-27 12.1-27 27v9c0 8.6 4.3 14 10.5 17.2V68h33V62.2C72.7 59 77 53.6 77 45v-9c0-14.9-12.1-27-27-27zM38.5 34.5a7 7 0 110 14 7 7 0 010-14zm23 0a7 7 0 110 14 7 7 0 010-14zM50 51.5c1.9 0 3.5 2 3.5 4.5S51.9 60.5 50 60.5 46.5 58.5 46.5 56s1.6-4.5 3.5-4.5z"/></svg>
